<svg width="174" height="174" viewBox="0 0 174 174" fill="none" xmlns="http://www.w3.org/2000/svg">
<rect width="174" height="174" rx="87" fill="#00AEEF"/>
<path fill-rule="evenodd" clip-rule="evenodd" d="M43.0002 31H87H131V122.393C130.901 130.109 127.121 132.754 119.116 132.975C111.858 132.975 104.601 132.975 97.3436 132.975C92.1881 133.169 88.63 135.996 87 142C85.37 135.996 81.8119 133.169 76.6564 132.975C69.3989 132.975 62.1413 132.975 54.8838 132.975C46.8791 132.754 43.0991 130.109 43 122.393L43.0002 31Z" fill="#10192E" stroke="white"/>
<path fill-rule="evenodd" clip-rule="evenodd" d="M127.698 130.11C125.234 132.056 122.143 132.357 119.107 132.471H97.3303C92.4035 132.738 88.8316 135.095 87.0004 140.325C85.2817 135.416 81.8714 132.753 76.6705 132.471H56.4171C56.5187 132.359 56.6181 132.243 56.7151 132.125C57.134 131.612 57.5095 131.037 57.8373 130.398C58.1463 129.795 58.412 129.136 58.6308 128.419C62.5161 128.652 65.7884 127.617 67.9219 125.007C68.341 124.494 68.7163 123.919 69.0443 123.279C69.3533 122.677 69.6186 122.018 69.8374 121.301C73.7231 121.534 76.9952 120.499 79.129 117.888C79.5479 117.376 79.9233 116.801 80.2509 116.161C80.5603 115.559 80.8256 114.899 81.0442 114.183C84.9299 114.416 88.2018 113.381 90.3354 110.77C90.7545 110.258 91.1301 109.682 91.4575 109.043C91.7667 108.44 92.0322 107.781 92.251 107.064C96.1363 107.297 99.4086 106.262 101.542 103.652C101.961 103.139 102.337 102.564 102.664 101.925C102.974 101.322 103.239 100.663 103.458 99.9461C107.344 100.179 110.615 99.1438 112.749 96.5336C113.168 96.0206 113.544 95.4458 113.872 94.8061C114.18 94.2037 114.446 93.5443 114.665 92.8274C116.355 92.9291 117.929 92.7899 119.344 92.3863C121.729 91.7055 124.186 89.5278 125.555 86.7175C127.38 86.2226 129.029 85.6218 130.497 84.9314V122.385C130.412 125.37 130.01 128.022 127.698 130.11ZM43.5039 114.74V31.5037H130.497V56.9254C127.867 57.1423 125.886 58.066 124.555 59.6966L124.524 59.7353C124.632 59.2713 124.674 58.8374 124.648 58.434C124.635 58.234 124.605 58.0397 124.558 57.8515C124.511 57.6647 124.448 57.4848 124.367 57.3125L124.363 57.3059L124.362 57.3027C123.379 55.3208 121.991 54.7983 120.199 55.7351L120.191 55.7391L120.179 55.7478C119.938 55.9205 119.73 56.0967 119.556 56.2752C119.117 56.7244 118.882 57.1963 118.851 57.6902C118.82 58.1824 118.993 58.6885 119.368 59.2062C119.527 59.4266 119.723 59.6488 119.955 59.8724L120.131 60.0501L120.23 59.824C120.473 59.3222 120.731 58.9797 121.003 58.7985C121.229 58.6475 121.63 58.5568 121.847 58.7678C122.089 59.0018 122.192 59.2733 122.153 59.5798C121.741 62.7867 117.177 61.2595 115.479 60.3562C114.972 60.0863 114.443 59.7736 113.893 59.4191C113.413 59.1095 112.913 58.7658 112.394 58.3874C112.724 58.3003 113.034 58.206 113.322 58.1039C114.621 57.6465 115.536 57.0317 116.065 56.2605C116.601 55.4786 116.739 54.544 116.478 53.4581C116.431 53.2595 116.37 53.0563 116.297 52.8509L116.292 52.8376C115.614 51.3485 114.656 50.6212 113.418 50.6571C113.18 50.6639 112.931 50.6997 112.673 50.7648C112.416 50.8294 112.151 50.9213 111.879 51.0412L111.873 51.0439L111.86 51.0501C110.957 51.5434 110.48 52.1646 110.433 52.9136C110.387 53.6451 110.76 54.4835 111.551 55.4276L111.827 55.7565L111.855 55.329C111.887 54.8488 112.026 54.4958 112.27 54.2713C113.104 53.5055 113.957 54.2174 113.65 55.2383C113.617 55.3502 113.571 55.4678 113.512 55.5906C113.455 55.7109 113.385 55.8362 113.304 55.9652C112.109 57.2243 110 57.1561 106.979 55.7608C106.379 55.4835 105.743 55.1545 105.075 54.7737C104.523 54.4597 103.946 54.1102 103.345 53.7244C104.117 53.6148 104.827 53.4164 105.444 53.1472C106.227 52.8058 106.863 52.3479 107.288 51.8074C107.724 51.2549 107.941 50.6159 107.878 49.9257C107.85 49.6308 107.77 49.327 107.634 49.0176C107.57 48.8635 107.505 48.7144 107.437 48.5709C106.935 47.5138 106.336 46.8066 105.638 46.4502C104.928 46.0868 104.126 46.087 103.235 46.4506C103.161 46.4809 103.085 46.5142 103.008 46.55L103.005 46.5515C102.056 47.022 101.558 47.614 101.511 48.3272C101.466 49.0247 101.864 49.8184 102.704 50.7082L102.928 50.9453L102.998 50.6275C103.152 49.9327 103.396 49.497 103.73 49.321C103.791 49.2893 103.855 49.2653 103.921 49.251C103.987 49.2361 104.06 49.2295 104.136 49.2319C104.356 49.2419 104.534 49.2775 104.666 49.3384C104.771 49.3862 104.847 49.45 104.893 49.5289C104.941 49.609 104.962 49.7115 104.956 49.8352C104.947 50.0135 104.885 50.2311 104.768 50.4877C103.864 51.5819 102.508 51.9095 100.698 51.4699C100.336 51.3819 99.956 51.2638 99.5607 51.116C99.1666 50.9679 98.7515 50.7892 98.3185 50.5802C95.2795 48.4324 92.3642 47.6403 89.5752 48.204C89.0247 48.3154 88.4789 48.4794 87.9394 48.6962C87.4017 48.9124 86.8679 49.1816 86.3391 49.5036L86.2096 49.5836L86.1992 49.5904C86.0802 49.6761 85.962 49.7602 85.8445 49.8418C86.389 48.7459 86.3695 47.7681 85.7857 46.9099C85.651 46.7115 85.4866 46.5212 85.2933 46.339C83.7517 44.883 81.8358 45.4036 80.6112 47.046L80.16 47.6513L80.8308 47.3003C82.9168 46.2077 83.5412 48.6825 80.6926 48.2421L80.6783 48.2408C78.4025 48.081 76.5194 48.1988 75.0292 48.595C74.7356 48.6728 74.4576 48.7617 74.1968 48.8602C74.058 48.9126 73.9232 48.9683 73.7937 49.0263C73.9359 48.5995 74.1439 48.1791 74.4191 47.766L74.6029 47.4289L74.2345 47.5045C73.2125 47.7525 72.348 48.4906 71.6413 49.7171C69.6933 50.4015 68.2115 51.3115 67.1953 52.4475C66.1837 53.5788 65.635 54.9306 65.5512 56.5007C63.7361 57.3603 62.6918 58.4187 62.4194 59.6753C62.365 59.9269 62.3414 60.1862 62.3493 60.4525C62.3571 60.7142 62.3952 60.9832 62.4631 61.259C62.5341 61.9058 62.4846 62.3965 62.3155 62.7304C62.2839 62.7929 62.2483 62.8492 62.2102 62.8985C62.1705 62.9488 62.1276 62.9934 62.0825 63.0317L62.0765 63.0362L62.0699 63.0418L62.0589 63.0538C60.19 65.1046 58.5257 67.2955 57.0664 69.6262C56.7768 70.0892 56.5005 70.5489 56.2373 71.0035C55.9724 71.4615 55.7114 71.9314 55.4556 72.4116L55.4535 72.4145L55.4363 72.446L55.4332 72.4825C55.3999 72.8863 55.291 73.2522 55.1075 73.5783C54.9264 73.8999 54.6704 74.1872 54.3409 74.4384C52.8816 75.0155 52.1924 75.6345 52.2746 76.2946C52.27 76.8086 52.4089 77.265 52.6903 77.6628C52.9702 78.0583 53.3901 78.3934 53.9493 78.6674L54.0319 78.6848C54.2068 78.6781 54.3672 78.7258 54.5122 78.8268C54.6664 78.9345 54.8069 79.1033 54.9342 79.3331C55.3388 80.1598 55.6892 80.7129 55.9856 80.9906C56.0498 81.0509 56.1123 81.0996 56.1733 81.1368C56.2013 81.1538 56.2294 81.1689 56.2575 81.1814C56.347 81.8026 56.6789 82.1838 57.2518 82.3244C57.3654 82.3522 57.4877 82.37 57.6179 82.3777C57.7255 82.3839 57.8381 82.3841 57.9565 82.3772C58.161 82.57 58.3611 82.7098 58.553 82.7989C58.7831 82.9051 59.0031 82.9393 59.2103 82.9039C59.4185 82.8678 59.6099 82.7626 59.7805 82.5912C59.9229 82.4485 60.0512 82.2576 60.1635 82.0221C60.6532 81.4537 61.23 81.0198 61.8925 80.7206C62.6492 80.5125 63.1885 80.2323 63.5095 79.879C63.5768 79.8051 63.6345 79.7281 63.6821 79.6498C63.7303 79.5698 63.7697 79.4856 63.8001 79.3978L63.8071 79.376L63.8129 79.3582L63.815 79.341C63.8707 78.8237 64.1004 78.2953 64.5036 77.7554C64.582 77.6506 64.6685 77.5433 64.7625 77.4348C64.8517 77.3321 64.9454 77.2306 65.0437 77.1298C65.9542 76.7274 67.049 76.3711 68.3272 76.0623C68.8585 75.9337 69.4189 75.814 70.0079 75.703C70.5969 75.5916 71.2207 75.4881 71.878 75.3924L71.8791 75.3915L71.8836 75.3913C73.4574 75.1971 74.66 74.9813 75.4902 74.7415C75.6514 74.6949 75.8012 74.6467 75.9388 74.5966C76.0429 74.5587 76.1377 74.521 76.2234 74.4835L76.242 74.4959C78.5379 76.0652 80.0417 77.5516 80.753 78.9546C81.4465 80.3228 81.3766 81.6158 80.5435 82.8324L80.5322 82.8486L80.5318 82.8498C79.3684 84.5746 78.4137 86.2544 77.6684 87.8887C77.2278 88.8548 76.8594 89.8065 76.5649 90.7417C76.4776 90.8896 76.3946 91.0413 76.3153 91.1983C76.0651 91.6939 75.8561 92.2327 75.6884 92.8136L75.6795 92.843L75.6791 92.8448C75.437 93.7415 75.1911 94.4507 74.9434 94.973C74.9088 94.3431 74.7008 93.6609 74.2846 92.9581L74.2836 92.9564C73.6962 91.9844 72.776 91.6761 71.9196 91.8102C71.527 91.872 71.1479 92.0275 70.8223 92.2553C70.4955 92.4839 70.2207 92.786 70.0377 93.1389C69.6439 93.8976 69.6689 94.8848 70.4939 95.8811L70.7497 96.1896L70.7983 95.7926C70.8786 95.1368 71.1826 94.7398 71.71 94.6019L71.7156 94.6009C71.7342 94.5951 71.7522 94.5905 71.769 94.5866C71.9648 94.5417 72.1318 94.5795 72.2698 94.7001C72.4277 94.8374 72.5579 95.0788 72.6606 95.4236C72.6794 95.4864 72.698 95.5578 72.7169 95.6379C72.7142 96.1385 72.4826 96.5083 72.0221 96.7473C71.5208 97.0078 70.754 97.1223 69.7242 97.0912C65.884 96.8581 63.1105 97.7874 61.4045 99.8775C61.0715 100.285 60.7793 100.738 60.5286 101.235C60.2786 101.73 60.0692 102.269 59.902 102.85L59.8931 102.879L59.8928 102.881C59.6505 103.778 59.4046 104.488 59.1563 105.01C59.1215 104.381 58.9139 103.699 58.4977 102.996L58.4969 102.994C57.9091 102.023 56.989 101.714 56.1325 101.848C55.7399 101.91 55.361 102.066 55.0354 102.293C54.7084 102.522 54.4338 102.824 54.2506 103.177C53.857 103.936 53.8818 104.923 54.7068 105.919L54.9624 106.228L55.0112 105.831C55.0913 105.175 55.3958 104.778 55.9229 104.64L55.9283 104.639C55.9467 104.633 55.9651 104.629 55.9817 104.625C56.1772 104.58 56.3445 104.617 56.4825 104.738C56.6404 104.875 56.7706 105.117 56.8733 105.462C56.8917 105.524 56.9105 105.596 56.9296 105.676C56.9267 106.177 56.6949 106.546 56.2348 106.785C55.7333 107.046 54.9665 107.16 53.9367 107.129C50.0963 106.896 47.323 107.826 45.6172 109.915C45.284 110.324 44.9918 110.776 44.7409 111.272C44.4911 111.768 44.2819 112.307 44.114 112.888L44.1053 112.917L44.1051 112.919C43.9054 113.651 43.7055 114.258 43.5039 114.74Z" fill="#00AEEF"/>
<path d="M81.0762 52.3809C81.2198 52.4114 81.3626 52.4426 81.5046 52.4749C82.6276 52.7311 83.7034 53.0475 84.7309 53.4234C86.5801 54.0997 88.2683 54.9688 89.7972 56.0297C90.3675 56.1196 91.0691 56.0241 91.9011 55.7441C92.7667 55.4532 93.7679 54.9645 94.9046 54.278C96.2231 53.3735 97.5514 52.8516 98.8882 52.7133C100.214 52.5758 101.546 52.816 102.882 53.4333C103.783 53.3459 104.608 53.1374 105.304 52.8336C106.035 52.5147 106.625 52.0916 107.017 51.5952C107.398 51.1115 107.589 50.5549 107.533 49.957C107.509 49.6971 107.438 49.4275 107.317 49.1527L107.315 49.149C107.253 48.998 107.189 48.8535 107.124 48.7174C106.656 47.7305 106.107 47.0763 105.478 46.7545C104.862 46.4395 104.157 46.4437 103.365 46.7671C103.295 46.7957 103.225 46.8266 103.156 46.8589C102.326 47.2706 101.892 47.7675 101.854 48.3494C101.819 48.8893 102.115 49.5186 102.741 50.2382C102.923 49.6172 103.199 49.2111 103.566 49.0177L103.566 49.0173C103.653 48.9719 103.745 48.938 103.844 48.9164C103.941 48.8951 104.041 48.8858 104.145 48.8889L104.146 48.8891H104.149L104.151 48.8889C104.416 48.9013 104.636 48.9469 104.809 49.0266C104.979 49.1043 105.106 49.214 105.189 49.3548C105.271 49.4946 105.308 49.6601 105.299 49.8508C105.288 50.078 105.212 50.3447 105.071 50.6499L105.062 50.6677L105.048 50.6859C104.053 51.9065 102.575 52.279 100.614 51.8027C100.241 51.712 99.8489 51.5899 99.4377 51.4362C99.0281 51.2832 98.6013 51.0993 98.1591 50.8854H98.1595L98.157 50.8843L98.1429 50.8777L98.1299 50.8688C95.1676 48.7715 92.3378 47.9951 89.6415 48.5402C89.1123 48.647 88.5873 48.805 88.0676 49.014C87.5458 49.2237 87.0288 49.484 86.518 49.7953L86.398 49.8694C84.5885 51.1769 82.9289 51.992 81.4197 52.3153C81.3042 52.3395 81.1898 52.3621 81.0762 52.3809Z" fill="white"/>
<path d="M77.7455 54.4127C77.6816 54.6165 77.61 54.8124 77.5303 55C78.2873 55.3754 79.1425 55.9221 80.0941 56.6411C80.2901 56.7892 80.4915 56.9453 80.697 57.1091C80.9015 57.2719 81.1109 57.4427 81.3245 57.621L81.327 57.6231C83.8325 59.7018 85.096 61.8128 85.1171 63.9563C85.1378 66.0379 83.9856 68.1336 81.6619 70.2421C83.8248 71.0706 85.9259 71.2348 87.7031 70.8674C89.0403 70.5908 90.1935 70.0134 91.0497 69.1926C91.9009 68.3762 92.4603 67.3158 92.6156 66.0685C92.7906 64.6649 92.4547 63.0211 91.4506 61.2162C89.3936 58.1346 86.4443 56.0957 82.6046 55.1002C81.8519 54.9049 81.0652 54.7501 80.246 54.6349C79.447 54.5229 78.6129 54.449 77.7455 54.4127Z" fill="white"/>
<path d="M59.9612 77.0903C58.6451 78.5473 57.6875 79.6581 57.0886 80.4222L56.9688 80.5767L57.0755 80.4775C57.9595 79.6604 58.6901 78.9851 59.865 78.3555L59.8662 78.3547C61.0116 77.7496 61.5259 77.1251 61.6376 76.6751C61.6792 76.5069 61.66 76.3723 61.5954 76.2845C61.5352 76.2025 61.4271 76.1569 61.2862 76.1605C60.9507 76.169 60.4703 76.4332 59.9695 77.0801L59.9612 77.0903Z" fill="white"/>
<path d="M64.2506 77.5166C63.608 77.864 63.0848 78.2415 62.681 78.6499C63.583 76.6336 67.7605 75.8464 68.2423 75.7299C68.7748 75.601 69.3417 75.4801 69.9413 75.367C70.5408 75.254 71.1694 75.1494 71.8257 75.0537L71.8259 75.0541L71.8339 75.0529L71.8385 75.0515C73.3973 74.8595 74.582 74.6466 75.3914 74.413C75.5502 74.367 75.6927 74.3215 75.8178 74.2759C75.9413 74.231 76.0537 74.1844 76.1541 74.1362L76.1609 74.1328L76.1706 74.1281L76.1812 74.1246C77.5941 73.653 78.6985 72.8806 79.523 71.94C80.5092 70.8154 81.0984 69.4474 81.3401 68.0629C81.5821 66.6769 81.4767 65.2749 81.0746 64.083C80.8128 63.3072 80.4256 62.6224 79.9278 62.0894C80.0075 64.2749 79.4437 66.6882 78.2349 69.3292L78.2295 69.341L78.2253 69.3478C77.6278 70.3217 75.2211 73.4321 73.9174 73.437C74.6944 72.927 75.4177 72.3153 76.0872 71.6037C76.7555 70.8937 77.3687 70.084 77.9267 69.1755C79.7418 65.2047 80.0721 61.7723 78.9172 58.8796C78.6923 58.3163 78.4118 57.774 78.0763 57.2532C77.7771 56.7889 77.4327 56.3402 77.0438 55.9067C76.6626 56.4775 76.182 56.9455 75.6021 57.3108C75.6913 57.3679 75.778 57.4292 75.862 57.4936C76.0152 57.611 76.1586 57.7394 76.2911 57.8779L76.2913 57.8777C76.6938 58.2983 77.8334 59.838 77.2801 60.9357C77.0819 59.7108 76.6686 58.7703 76.0413 58.1149L76.0409 58.1142C75.9179 57.9858 75.7882 57.869 75.6518 57.7647C75.5332 57.6738 75.4078 57.5911 75.2761 57.5151C74.9334 57.7574 74.6321 57.9175 74.3725 57.9958C74.1145 58.0736 73.8913 58.0724 73.7043 57.992C73.5128 57.91 73.3684 57.7506 73.2723 57.5147C73.2138 57.3712 73.1728 57.1979 73.1496 56.9941C71.2809 58.2726 69.4692 58.6005 67.7143 57.9778C67.3571 57.851 67.0036 57.6854 66.6551 57.4816C66.3331 57.2929 66.0121 57.0697 65.6925 56.8125C63.9826 57.6232 63.0031 58.6023 62.7547 59.7483C62.7061 59.9726 62.6854 60.2043 62.6922 60.4427C62.6992 60.6827 62.7346 60.9303 62.798 61.1848L62.799 61.1892L62.8025 61.2031L62.8035 61.2126C62.8834 61.9314 62.8228 62.4895 62.622 62.8856C62.5813 62.9653 62.5341 63.0403 62.4805 63.109L62.4803 63.1101C62.4287 63.1759 62.3704 63.2366 62.3054 63.2913C60.4566 65.3209 58.8075 67.4932 57.3582 69.8081L57.3575 69.8077C57.0817 70.2488 56.807 70.705 56.5351 71.1753C56.2704 71.6327 56.016 72.09 55.7722 72.5464C55.7314 72.9848 55.6091 73.3853 55.4061 73.7458L55.4063 73.746C55.1983 74.1159 54.9061 74.4428 54.5302 74.7261L54.512 74.7396L54.4901 74.7483C53.1738 75.2658 52.549 75.7698 52.6162 76.2598L52.6177 76.2695L52.6175 76.2852C52.6113 76.7305 52.7294 77.1241 52.9712 77.4664C53.211 77.8058 53.5753 78.0985 54.0625 78.3426C54.2968 78.3426 54.5128 78.4103 54.7088 78.5468C54.9077 78.6857 55.0841 78.8941 55.2368 79.1713L55.2405 79.1786C55.6275 79.9703 55.9549 80.4917 56.2215 80.7421C56.2662 80.7839 56.3086 80.8176 56.3482 80.8421C56.3947 80.7737 56.4467 80.7002 56.5036 80.6222C56.594 80.4985 56.6984 80.3608 56.8163 80.2103C57.4165 79.4447 58.3787 78.3287 59.7028 76.863C60.2736 76.1287 60.8544 75.8274 61.2768 75.8168C61.5363 75.8104 61.7453 75.9077 61.8732 76.0815C61.997 76.2494 62.0392 76.4834 61.9716 76.7568C61.8403 77.2855 61.2726 77.9999 60.0282 78.6574V78.6572C58.8888 79.2681 58.1736 79.9291 57.3087 80.7286C57.0959 80.9253 56.8737 81.131 56.6427 81.3385C56.7476 81.687 56.9778 81.9044 57.3329 81.9916C57.4246 82.014 57.5264 82.0287 57.6369 82.0351C57.7034 82.039 57.7737 82.0405 57.8476 82.0384L57.8503 81.9754C57.8542 81.9023 57.8613 81.8276 57.8712 81.7524C57.9347 81.266 58.0701 80.9003 58.5414 80.8355C58.3665 81.1413 58.257 81.4619 58.2133 81.7965C58.205 81.8599 58.199 81.9259 58.1953 81.9937C58.1928 82.039 58.1916 82.0829 58.1914 82.1266C58.3692 82.2946 58.5385 82.4151 58.6968 82.4884C58.8601 82.5638 59.0118 82.589 59.1498 82.5654C59.2868 82.5418 59.4156 82.4693 59.5344 82.35C59.6534 82.2306 59.7626 82.0653 59.8603 81.8562L59.8703 81.8346L59.8852 81.8174C60.4146 81.1978 61.0394 80.7265 61.7588 80.4035L61.7702 80.3985L61.7842 80.3946C62.4852 80.2034 62.9749 79.9551 63.2529 79.6493C63.3034 79.5936 63.3479 79.5344 63.3849 79.4731L63.3847 79.4729C63.4211 79.4124 63.4501 79.3507 63.4714 79.2881L63.4722 79.2857C63.5381 78.7125 63.7889 78.1337 64.2243 77.5507L64.225 77.5503L64.2506 77.5166Z" fill="white"/>
<path d="M62.4385 71.5414C62.8537 71.42 63.5097 71.4751 63.7659 71.8737C64.0956 72.2896 64.3906 72.1382 64.6408 71.729C64.8734 71.3492 65.0982 70.7273 65.3157 69.8661C65.4709 70.3463 65.3368 71.0962 65.1029 71.5919C65.4587 73.8222 68.3444 74.4192 70.1983 74.6364C67.7026 75.1282 65.253 73.384 64.8504 72.0353C64.2262 72.9149 64.1507 72.0028 63.9423 73.2154C63.8216 73.7277 64.4191 73.7822 64.7964 73.7897C64.3436 74.1585 63.4443 73.8439 63.6051 73.144C63.6563 72.8069 63.7065 72.2879 63.4358 72.0144C63.2119 71.7878 62.8272 71.8178 62.543 71.8688C61.2485 72.354 60.2823 73.1757 59.6461 74.3335C59.3777 74.8213 59.201 75.3297 59.0449 75.8617C59.2867 73.3647 61.2694 71.9763 62.4385 71.5414Z" fill="#10192E"/>
<path d="M55.2559 77.6342C55.7815 77.5375 56.1735 77.3557 56.432 77.0894C56.6849 76.8289 56.8147 76.4793 56.8211 76.0415L56.8213 76.0241L56.8236 76.013L56.824 76.0096L56.8246 76.0067C56.9085 75.5934 57.0049 75.1871 57.1138 74.7887C57.2234 74.388 57.3458 73.9949 57.4801 73.6108C57.739 72.8707 59.3359 68.9647 60.8414 68.4313C59.498 70.0161 58.4861 71.7808 57.8058 73.7241C57.6732 74.103 57.5533 74.488 57.4468 74.8782C57.3404 75.267 57.246 75.663 57.1647 76.0643C57.1471 76.8765 56.3041 77.9185 55.2559 77.6342Z" fill="#10192E"/>
<path d="M62.8629 65.4833C63.2379 65.1559 63.527 64.8757 63.7296 64.6452C63.921 64.4271 64.0328 64.2578 64.0641 64.1383C64.3658 63.002 65.0486 62.0639 66.0743 61.4986C66.8264 61.1167 67.6826 61.2052 68.3306 61.7222C68.9753 61.7253 69.628 61.7595 70.2584 61.8972C70.3878 61.9527 71.2123 62.1403 71.2142 62.2445C71.215 62.2793 70.3481 62.2219 70.2429 62.2346C69.5324 62.3209 68.8192 62.5711 68.3322 63.1087L68.3291 63.1126C67.5185 64.1379 66.4201 64.8676 65.1425 65.1586C64.9246 65.2083 64.703 65.243 64.4819 65.271C63.4303 65.3433 62.5789 66.0202 61.9268 66.7883C61.9673 66.4222 62.4108 65.7719 62.8629 65.4833Z" fill="#10192E"/>
<path d="M63.1906 63.4201C63.5962 63.038 63.9212 62.6326 64.1654 62.2052C64.409 61.7786 64.5729 61.3273 64.6569 60.8533L64.66 60.8357L64.6679 60.8169C65.6621 58.4557 70.3966 58.6537 72.2204 59.8544C68.1565 58.8163 65.7472 59.176 64.9928 60.9329C64.9009 61.4381 64.7252 61.9194 64.4649 62.3752C64.2024 62.8345 63.8549 63.2683 63.4224 63.6746L63.4137 63.6823C62.7529 64.2275 62.2603 64.7401 61.9358 65.219C61.6216 65.6829 61.4658 66.1142 61.4691 66.5118C60.9823 65.4402 63.0004 63.5771 63.1906 63.4201Z" fill="#10192E"/>
<path d="M76.5934 69.921C76.0242 70.9192 75.1514 71.8227 73.9755 72.6303L73.9726 72.6321C72.2103 73.7928 69.2843 73.8765 68.665 71.7431C69.9977 73.5135 71.703 73.7152 73.7799 72.3482C74.9122 71.5706 75.7504 70.7044 76.2939 69.7512C76.8338 68.804 77.0843 67.7666 77.0441 66.6394C77.4696 67.3178 76.8682 69.4396 76.5934 69.921Z" fill="#10192E"/>
<path d="M77.7456 49.0636C78.0893 50.2961 78.1593 50.9422 78.1317 51.9008C78.6725 51.9642 79.2036 52.0387 79.7251 52.1255C79.9843 52.1373 80.2488 52.1311 80.5176 52.1071C80.7896 52.0828 81.0667 52.0404 81.3479 51.9803C82.5285 51.7277 83.8102 51.1597 85.1935 50.2754C86.0036 49.051 86.1052 47.9924 85.4988 47.1011C85.3792 46.9251 85.2308 46.7536 85.0542 46.5875C83.9339 45.5306 82.4649 45.5716 81.3556 46.6995C83.3691 46.0491 83.9064 49.086 80.6416 48.5817C78.4105 48.426 76.5688 48.5409 75.1173 48.9265L75.1171 48.9261C74.8379 49.0002 74.5712 49.0853 74.3183 49.1808C74.0925 49.2661 73.8764 49.361 73.6709 49.4649C73.6475 49.5701 73.6278 49.6761 73.6123 49.782C73.906 49.6329 74.2048 49.4993 74.5072 49.3819C74.9058 49.2272 75.3144 49.099 75.7318 48.9975C76.5791 48.7915 80.0182 48.2017 82.6967 49.8795C80.9371 49.2721 79.2864 49.0006 77.7456 49.0636Z" fill="white"/>
<path d="M77.6532 49.4312C77.4423 49.5894 77.2368 49.7594 77.0375 49.9418C76.7708 50.1856 76.517 50.4481 76.2767 50.7289C75.0345 52.1816 74.1001 54.1706 73.4736 56.6956C73.4834 56.9861 73.5227 57.2168 73.5916 57.3858C73.6527 57.5355 73.7361 57.6332 73.8408 57.6782C73.9501 57.7252 74.0943 57.7219 74.2723 57.668C75.7529 57.2185 76.9932 55.6869 77.4276 54.2775C77.8215 52.999 77.8964 51.3837 77.6532 49.4312Z" fill="white"/>
<path d="M73.8691 52.0725C74.2305 52.0222 74.6011 51.9801 74.9809 51.947C75.2982 51.4214 75.6426 50.9408 76.0139 50.5068C76.2666 50.2115 76.53 49.9383 76.8038 49.6882C77.0452 49.4678 77.2972 49.2626 77.5601 49.0725C76.9613 49.1075 76.3794 49.193 75.8139 49.3303C75.4131 49.4279 75.019 49.5515 74.6332 49.7012C74.2712 49.8416 73.9171 50.005 73.5719 50.1899C73.5601 50.4252 73.5672 50.6625 73.5939 50.9019C73.6172 51.1131 73.6557 51.327 73.7093 51.5426C73.753 51.7186 73.8062 51.8959 73.8691 52.0725Z" fill="white"/>
<path d="M70.8037 52.7828C71.6401 52.498 72.5464 52.2785 73.5236 52.1244C73.4658 51.9569 73.4168 51.79 73.3758 51.6252C73.3189 51.3957 73.2777 51.1667 73.2524 50.9397C73.1394 49.9172 73.3497 48.9306 73.8834 47.9805C72.9317 48.3802 72.1361 49.3102 71.4966 50.7712C71.3517 51.1019 71.2147 51.4612 71.0857 51.8474C70.9871 52.1427 70.8929 52.4549 70.8037 52.7828Z" fill="white"/>
<path d="M68.4902 53.8445C69.0794 53.4908 69.7193 53.1839 70.41 52.9244C70.5187 52.5061 70.6352 52.1104 70.7592 51.7395C70.8292 51.5297 70.9017 51.328 70.9766 51.1334C70.2299 51.5415 69.6471 51.9799 69.2287 52.4498C68.8391 52.8873 68.5927 53.3531 68.4902 53.8445Z" fill="white"/>
<path d="M65.9355 56.043C66.1032 55.8372 66.2793 55.638 66.4633 55.4472C66.7812 55.1178 67.1248 54.8098 67.4936 54.5243C67.6904 54.3719 67.8944 54.2263 68.1051 54.0871C68.1707 53.4184 68.4588 52.7962 68.9698 52.2221C69.4812 51.6475 70.2174 51.1202 71.1779 50.6404L71.1808 50.6338C71.2508 50.4737 71.3228 50.3197 71.3967 50.1718C69.6803 50.8198 68.3649 51.6547 67.4511 52.6765C66.597 53.6311 66.0914 54.7539 65.9355 56.043Z" fill="white"/>
<path d="M65.9521 56.5814C66.2417 56.8115 66.5345 57.0128 66.8303 57.1855C67.1627 57.3799 67.4965 57.5367 67.8307 57.6553C69.5334 58.2594 71.3061 57.8993 73.148 56.5746C73.3426 55.7953 73.5669 55.0662 73.8202 54.3863C73.314 54.3424 72.8262 54.3673 72.3574 54.4615C71.8228 54.569 71.3121 54.7663 70.8261 55.054C70.8878 54.5837 71.7806 54.2279 72.2889 54.1258C72.8194 54.0192 73.3724 53.9962 73.9475 54.0552C74.1955 53.4292 74.4695 52.8481 74.7696 52.311C71.8237 52.6005 69.4684 53.4284 67.7039 54.7949C67.3504 55.0687 67.0192 55.3656 66.7117 55.6845C66.4402 55.966 66.1866 56.2654 65.9521 56.5814Z" fill="white"/>
<path d="M79.8975 61.5779C80.568 62.1789 81.0772 63.0126 81.4013 63.9728C81.8212 65.2178 81.9319 66.679 81.68 68.1209C81.5677 68.7645 81.3828 69.4054 81.1212 70.0219C81.1827 70.0484 81.2444 70.0743 81.3061 70.0998C83.6365 68.0223 84.7921 65.9753 84.7723 63.96C84.7522 61.9223 83.5297 59.8973 81.1053 57.8863L81.1028 57.8842L81.1026 57.8838C80.8919 57.708 80.6843 57.5388 80.4811 57.3769C80.2789 57.2158 80.0798 57.0613 79.8849 56.914C78.955 56.2116 78.1217 55.678 77.3868 55.3123C77.338 55.4114 77.2862 55.5086 77.2324 55.6028C77.6612 56.0731 78.0394 56.5618 78.3664 57.0689C78.7153 57.6105 79.0059 58.1719 79.2377 58.7525C79.5941 59.6459 79.8141 60.5881 79.8975 61.5779Z" fill="white"/>
<path d="M68.8679 62.2792C68.9969 62.2136 69.1333 62.155 69.2774 62.1043C69.1538 62.0941 69.0253 62.0854 68.8915 62.0792C68.8242 62.0761 68.759 62.0738 68.6963 62.072C68.7543 62.1368 68.8116 62.2061 68.8679 62.2792Z" fill="white"/>
<path d="M63.4971 65.2562C64.0339 65.1786 64.5383 65.0578 64.6049 64.5374C65.0714 62.8915 65.8324 61.8858 67.4066 61.8095C67.4765 61.8058 67.7936 61.7847 67.5475 61.6764L67.5459 61.676C67.1466 61.548 66.7102 61.5898 66.2373 61.8015L66.2304 61.8052C66.0661 61.8967 65.91 61.9984 65.7637 62.1092C65.6193 62.2187 65.4843 62.338 65.3597 62.4662C64.8756 62.9638 64.5797 63.5706 64.3967 64.2326C64.3361 64.46 63.53 65.004 63.4971 65.2562Z" fill="white"/>
<path d="M64.918 64.8554C64.9674 64.8457 65.0167 64.8347 65.0659 64.8236C65.2632 64.7786 65.4542 64.7244 65.6376 64.6604C66.5861 64.3309 67.3957 63.7416 68.065 62.8929L68.0731 62.8832L68.0777 62.8782V62.8784C68.1484 62.8004 68.2225 62.7275 68.2991 62.6608C68.3755 62.5943 68.4585 62.5303 68.5473 62.4692L68.5692 62.4547C68.4481 62.3017 68.3233 62.1686 68.195 62.0567C68.0766 62.0427 67.9599 62.0325 67.8452 62.0263C67.2699 61.9954 66.7798 62.0702 66.3754 62.2491C66.5408 62.2626 66.6871 62.3373 66.7721 62.4699C66.9356 62.7246 66.8113 63.0946 66.4944 63.2959C66.1773 63.4974 65.7878 63.4539 65.6241 63.1992C65.5662 63.1089 65.5444 63.0048 65.5546 62.8979C65.4273 63.0658 65.3182 63.2576 65.2274 63.4744C65.275 63.5312 65.3253 63.5807 65.3774 63.6233C65.4341 63.6697 65.4944 63.7076 65.5575 63.737C65.8777 63.8857 66.2868 63.806 66.7833 63.498C66.8278 63.4694 66.8698 63.439 66.9094 63.4075L66.9098 63.4073C67.0791 63.2729 67.1753 63.1311 67.1983 62.9824H67.1987C67.2215 62.8331 67.1722 62.6651 67.0509 62.4798C67.0228 62.4369 66.9899 62.392 66.9526 62.3458C67.4038 62.339 67.6035 62.6163 67.5389 63.0344L67.5394 63.0348C67.5029 63.2707 67.3645 63.4844 67.1242 63.6753V63.6755L67.1238 63.6757C67.0778 63.7121 67.0259 63.7494 66.9694 63.7861L66.9677 63.7871C66.3634 64.1623 65.8443 64.2491 65.4112 64.0478C65.323 64.0068 65.2383 63.9534 65.1583 63.888C65.1384 63.8718 65.1185 63.8548 65.0991 63.837C65.0324 64.064 64.9815 64.3116 64.9469 64.5815C64.9358 64.6699 64.9258 64.7616 64.918 64.8554Z" fill="white"/>
<path d="M124.388 85.5404C123.141 88.6003 120.837 89.9328 120.606 90.0604C118.707 91.1107 116.315 91.5605 113.751 91.4064C113.532 92.1233 113.266 92.7827 112.958 93.3853C112.629 94.0246 112.254 94.6 111.835 95.1126C109.701 97.7226 106.429 98.758 102.543 98.5251C102.325 99.242 102.059 99.9007 101.75 100.504C101.423 101.143 101.047 101.718 100.628 102.231C98.4942 104.841 95.2226 105.876 91.3366 105.643C91.1183 106.36 90.8524 107.019 90.5436 107.622C90.2157 108.261 89.8403 108.837 89.4214 109.349C87.2878 111.959 84.0156 112.995 80.13 112.762C79.9115 113.478 79.646 114.137 79.3368 114.74C79.0091 115.379 78.6337 115.955 78.2146 116.467C76.0812 119.078 72.809 120.113 68.9232 119.88C68.7049 120.596 68.4392 121.256 68.13 121.859C67.8023 122.498 67.4271 123.073 67.0078 123.586C64.8742 126.196 61.6022 127.231 57.7166 126.998C57.4979 127.715 57.2321 128.374 56.9231 128.977C56.5955 129.616 56.2199 130.191 55.801 130.704C55.2457 131.383 54.6132 131.956 53.9131 132.427C54.2403 132.445 54.5673 132.46 54.8928 132.472H55.9434C56.1179 132.293 56.2857 132.106 56.4467 131.909C56.8524 131.412 57.2148 130.857 57.53 130.243C57.8462 129.626 58.1157 128.946 58.335 128.203L58.3377 128.193L58.3764 128.06L58.5153 128.069C62.3491 128.328 65.5717 127.337 67.6535 124.79C68.0594 124.294 68.422 123.739 68.7366 123.125C69.0528 122.508 69.3227 121.828 69.5419 121.085V121.084L69.5447 121.073L69.5841 120.942L69.7219 120.951C73.5553 121.21 76.7785 120.219 78.8599 117.672C79.2658 117.176 79.6282 116.621 79.9432 116.006C80.2594 115.39 80.5291 114.71 80.7482 113.966L80.7485 113.965L80.7516 113.955L80.7907 113.823L80.9285 113.833C84.7623 114.091 87.9851 113.101 90.0667 110.554C90.4726 110.057 90.8348 109.502 91.1496 108.888C91.466 108.271 91.7357 107.592 91.9553 106.848L91.9548 106.847L91.9582 106.837L91.9973 106.705L92.1351 106.715C95.9683 106.973 99.1913 105.982 101.273 103.435C101.679 102.939 102.041 102.384 102.356 101.77C102.673 101.153 102.942 100.473 103.161 99.7297L103.164 99.7204L103.203 99.5868L103.342 99.5963C107.175 99.8547 110.399 98.8641 112.48 96.3174C112.886 95.8208 113.248 95.2658 113.563 94.6514C113.879 94.0347 114.149 93.3553 114.368 92.611V92.6104L114.372 92.5998L114.411 92.4688L114.549 92.4783C116.644 92.6195 118.661 92.3253 120.322 91.6595C121.167 91.2673 123.802 89.675 125.375 86.4493C126.833 86.1014 128.848 85.3789 130.495 84.6206V83.4116C128.665 84.2315 125.784 85.2139 124.388 85.5404Z" fill="white"/>
<path d="M94.7784 86.716L94.7793 86.7164L94.7788 86.716C95.605 86.7717 96.3876 86.7734 97.1266 86.7212C97.8628 86.6696 98.5567 86.5644 99.2076 86.4048C102.537 85.5909 104.737 83.3627 105.807 79.7206L105.849 79.5756L105.985 79.5976L105.986 79.5978C106.811 79.6533 107.595 79.6553 108.333 79.6034C109.07 79.5514 109.764 79.446 110.414 79.2867C113.744 78.4729 115.943 76.2449 117.014 72.6025C116.31 78.0921 111.517 79.3702 110.497 79.6197C109.829 79.7833 109.115 79.8916 108.357 79.9448C107.644 79.9954 106.889 79.9962 106.098 79.9479C104.976 83.6388 102.707 85.9026 99.2906 86.7377C98.6581 86.8926 96.5666 87.2778 94.7784 86.716ZM76.6115 74.3364C78.8568 75.8943 80.3389 77.3824 81.0579 78.8001C81.8129 80.2894 81.7355 81.699 80.8256 83.0266L80.8145 83.043C79.6621 84.751 78.7173 86.4139 77.9795 88.0316C77.7162 88.6087 77.4795 89.1794 77.2692 89.745C78.9814 87.7232 81.728 86.8264 85.5084 87.0562V87.0558C86.538 87.0869 87.3046 86.9728 87.8063 86.7116C88.2664 86.4731 88.4984 86.103 88.5006 85.6023C88.4816 85.5224 88.463 85.4509 88.4446 85.3882C88.3419 85.0436 88.2117 84.8019 88.0536 84.6644C87.9158 84.5439 87.7483 84.5064 87.5528 84.5514C87.5362 84.5553 87.518 84.5597 87.4994 84.5652L87.4938 84.5665C86.9668 84.7042 86.6624 85.1014 86.5823 85.7572L86.5337 86.1542L86.2777 85.8452C85.4527 84.8489 85.4279 83.8618 85.8213 83.1032C86.0045 82.7506 86.2791 82.4482 86.6063 82.2196C86.9317 81.9918 87.3104 81.8363 87.7034 81.7746C88.5596 81.6408 89.48 81.949 90.0678 82.921L90.0686 82.9227C90.639 83.8858 90.8197 84.8104 90.6963 85.6149C90.6243 86.0827 90.4504 86.5099 90.1911 86.88C89.9324 87.249 89.5884 87.5625 89.1762 87.8038C89.1288 87.8318 89.0808 87.8587 89.0319 87.8841C89.5307 87.7968 90.0024 87.6909 90.4471 87.5679C90.9505 87.429 91.4238 87.2656 91.8671 87.0784C94.1203 86.1277 94.4647 85.2567 95.0717 83.0858C95.6764 85.6106 92.5424 87.166 92.0024 87.394C91.549 87.5853 91.061 87.7531 90.5405 87.8974C90.0874 88.0229 89.5744 88.019 88.8283 87.9837C88.3423 88.2026 87.1953 88.5095 86.199 87.9506C87.2998 88.1177 88.2715 87.9363 89.0013 87.5089C89.3699 87.2927 89.6776 87.0129 89.9084 86.6841C90.1387 86.3559 90.2927 85.9778 90.3558 85.5634C90.4674 84.8336 90.2998 83.9875 89.7722 83.0968C89.2676 82.2641 88.4847 81.9993 87.7581 82.1132C87.4174 82.1664 87.0881 82.302 86.8044 82.5006C86.5225 82.698 86.2855 82.9579 86.128 83.261C85.8329 83.8301 85.8209 84.5586 86.3188 85.3215C86.4836 84.7452 86.8441 84.3836 87.4008 84.2366V84.2364C87.4251 84.2291 87.4497 84.2229 87.4747 84.2169C87.7848 84.1457 88.0544 84.2089 88.2811 84.4066C88.4884 84.5876 88.653 84.8823 88.7742 85.2902C88.7997 85.3751 88.8223 85.4596 88.8413 85.5423L88.8454 85.5597V85.5802C88.8502 86.2314 88.5567 86.71 87.9667 87.0165C87.4124 87.3047 86.5887 87.4321 85.498 87.3987L85.4929 87.3981C81.7682 87.171 79.0888 88.0583 77.4561 90.0585C76.789 90.8748 76.2551 91.6744 76.0094 92.9374C75.901 93.3376 75.6127 94.7533 74.9392 95.3778C74.933 95.4706 74.9239 95.5619 74.9098 95.6514C74.8382 96.119 74.6642 96.5462 74.4048 96.9164C74.1461 97.2854 73.802 97.5986 73.3899 97.8404C73.3427 97.8678 73.2947 97.8949 73.2459 97.9206C73.7442 97.833 74.2161 97.7272 74.6611 97.6044C75.1642 97.465 75.6377 97.302 76.081 97.1146C78.0391 96.2886 78.737 95.0811 79.285 93.1221C78.9557 96.559 76.7628 97.3776 74.7538 97.9338C74.3009 98.0591 73.7879 98.0554 73.042 98.0204C72.5558 98.2391 71.4089 98.5455 70.4125 97.987C71.5134 98.154 72.4853 97.9725 73.215 97.5451C73.5838 97.3289 73.8914 97.0494 74.1217 96.7205C74.3519 96.3923 74.5058 96.0142 74.5694 95.6C74.6811 94.8703 74.5131 94.0241 73.9857 93.1333C73.4816 92.3006 72.6982 92.0357 71.9712 92.1496C71.6307 92.2033 71.3014 92.3387 71.0179 92.5369C70.7356 92.7342 70.4988 92.9945 70.3416 93.2977C70.0464 93.8667 70.0344 94.5952 70.5322 95.3579C70.6967 94.7818 71.0574 94.4203 71.6144 94.2734V94.2728C71.6382 94.2656 71.6634 94.2592 71.688 94.2536C71.9987 94.1821 72.2677 94.2455 72.4948 94.4435C72.7022 94.6242 72.8663 94.9189 72.988 95.3271C73.0134 95.4122 73.0354 95.4965 73.0546 95.5791L73.0588 95.5963V95.6172C73.0633 96.2681 72.7703 96.7468 72.18 97.0535C71.6255 97.3414 70.8018 97.4687 69.7111 97.4358L69.706 97.435C65.9811 97.2078 63.3017 98.0951 61.669 100.095C61.3515 100.485 61.0727 100.916 60.8331 101.39C60.5934 101.864 60.3927 102.383 60.2306 102.945L60.231 102.945L60.2225 102.974C60.1141 103.375 59.8258 104.791 59.1519 105.415C59.1459 105.508 59.1366 105.6 59.1225 105.69C59.0509 106.158 58.8767 106.585 58.6173 106.955C58.3586 107.324 58.0147 107.637 57.6026 107.879C57.5556 107.907 57.5076 107.934 57.4586 107.959C57.9569 107.872 58.4288 107.766 58.8736 107.643C59.3767 107.504 59.8504 107.341 60.2939 107.154C62.5465 106.203 62.8913 105.331 63.4977 103.161C64.1029 105.686 60.969 107.241 60.4291 107.469C59.9754 107.661 59.4878 107.829 58.9665 107.973C58.5136 108.098 58.0006 108.094 57.2547 108.059C56.7687 108.278 55.6216 108.585 54.6254 108.026C55.7261 108.193 56.6982 108.011 57.4279 107.584C57.7965 107.368 58.1043 107.088 58.3346 106.759C58.5646 106.431 58.719 106.053 58.7823 105.639C58.894 104.909 58.726 104.063 58.1987 103.172C57.6943 102.339 56.9111 102.075 56.1841 102.189C55.8436 102.242 55.5146 102.378 55.2308 102.576C54.9487 102.773 54.7115 103.033 54.5545 103.337C54.2593 103.906 54.2473 104.634 54.7453 105.397C54.9098 104.821 55.2705 104.459 55.8273 104.312C55.8513 104.305 55.8763 104.298 55.9012 104.293C56.2116 104.221 56.4813 104.285 56.7079 104.482C56.9151 104.663 57.0796 104.958 57.2009 105.366C57.2263 105.451 57.2485 105.535 57.2679 105.618L57.2721 105.635L57.2723 105.656C57.2768 106.307 56.9832 106.786 56.3933 107.092C55.8389 107.38 55.0152 107.508 53.9247 107.475L53.9193 107.474C50.1942 107.247 47.5153 108.134 45.8823 110.134C45.5644 110.523 45.2859 110.955 45.0466 111.429C44.8069 111.904 44.606 112.423 44.4435 112.984L44.4439 112.984L44.4359 113.014C44.3353 113.385 44.0793 114.631 43.5041 115.308V117.574C43.8531 117.464 44.1867 117.342 44.5046 117.208C46.7574 116.257 47.1022 115.386 47.7086 113.216C48.3139 115.74 45.1799 117.296 44.6397 117.524C44.2823 117.675 43.9036 117.811 43.5039 117.932V122.388C43.5188 122.915 43.5432 123.43 43.5867 123.934C45.8651 123.538 47.7876 122.529 49.1912 120.811C49.5971 120.315 49.9597 119.76 50.2745 119.145C50.5909 118.529 50.8604 117.849 51.0796 117.105L51.0825 117.096L51.1212 116.963L51.2598 116.972C55.0936 117.231 58.3166 116.24 60.3982 113.693C60.8041 113.196 61.1665 112.642 61.4813 112.027C61.7977 111.41 62.0674 110.731 62.2866 109.987L62.2868 109.986L62.2897 109.976L62.329 109.844L62.4668 109.854C66.3002 110.112 69.5232 109.121 71.6049 106.575C72.0105 106.078 72.3731 105.524 72.6881 104.909C73.0043 104.292 73.274 103.613 73.4932 102.869L73.4934 102.868L73.4963 102.858L73.5358 102.726L73.6736 102.736C77.5072 102.994 80.73 102.003 82.8117 99.4563C83.2177 98.9597 83.5801 98.4049 83.8949 97.7907C84.2109 97.174 84.4808 96.4942 84.6998 95.7506L84.7 95.7495L84.7031 95.7394L84.7424 95.6079L84.8802 95.617C88.7138 95.8754 91.9362 94.8847 94.018 92.3383C94.4239 91.8417 94.7865 91.2867 95.1013 90.6727C95.4173 90.0556 95.6874 89.376 95.9066 88.6321L95.9095 88.6228L95.948 88.4894L96.0871 88.499C99.9206 88.7576 103.144 87.7665 105.225 85.2198C105.631 84.7234 105.994 84.1685 106.308 83.5543C106.625 82.9376 106.894 82.2581 107.113 81.5143L107.114 81.5133L107.117 81.5027L107.156 81.3714L107.294 81.3807C111.127 81.6392 114.35 80.6483 116.431 78.1018C116.838 77.605 117.2 77.0502 117.515 76.436C117.831 75.8191 118.101 75.1397 118.32 74.3959L118.32 74.395L118.323 74.3849L118.362 74.2534L118.5 74.2625C125.06 74.7052 128.445 70.0088 130.497 67.27V58.503C129.152 58.786 127.896 59.4891 126.73 60.6115C126.405 60.9256 126.084 61.2743 125.769 61.6572C125.693 61.7502 125.431 62.096 125.267 62.3124L125.263 62.3108C125.104 62.5288 124.95 62.7508 124.8 62.9759C124.858 62.7442 124.946 62.5127 125.055 62.2872L125.056 62.2874C125.462 61.5982 126.198 60.6471 126.49 60.3655C126.798 60.0689 128.538 58.5324 130.497 58.2398V57.27C127.978 57.4835 126.086 58.3648 124.822 59.9136C124.547 60.2499 124.302 60.6183 124.086 61.0176C124.041 61.1196 123.812 61.5854 123.762 61.6899C123.618 62.0281 123.492 62.3862 123.383 62.7637H123.384L123.375 62.7927C123.249 63.26 122.878 65.1124 121.932 65.4727C121.982 65.4069 122.033 65.3311 122.085 65.246C122.137 65.1615 122.189 65.0674 122.241 64.9651C122.511 64.4327 122.779 63.6779 123.043 62.7013L123.043 62.6995L123.051 62.6705L123.052 62.6701C123.082 62.5659 123.113 62.4624 123.146 62.3611C123.095 62.3822 124.361 59.352 124.303 58.458C124.291 58.2758 124.265 58.1014 124.223 57.9362C124.182 57.7699 124.125 57.6104 124.055 57.4595L124.053 57.4557C123.176 55.6871 121.947 55.2141 120.367 56.0366C120.15 56.194 119.961 56.3543 119.802 56.5164C119.424 56.9047 119.221 57.304 119.195 57.7136C119.169 58.1242 119.32 58.556 119.648 59.0078C119.755 59.1569 119.883 59.3085 120.03 59.4624C120.27 59.0182 120.531 58.7022 120.812 58.5146C121.16 58.2826 121.532 58.2439 121.929 58.3975L121.956 58.4077L121.976 58.4249C122.017 58.4586 122.055 58.4916 122.088 58.523C122.412 58.8364 122.548 59.2039 122.494 59.6245V59.6253C122.118 62.558 118.264 62.006 116.36 61.1691C116.164 61.1571 115.884 61.0863 115.563 61.0049C115.069 60.88 114.47 60.7285 113.993 60.7432L113.992 60.743L113.987 60.7434C113.718 60.7521 113.447 60.7786 113.173 60.8235C112.898 60.8684 112.619 60.9314 112.339 61.0126C110.885 61.4325 109.348 62.3365 107.73 63.7247L107.725 63.7291L107.716 63.7357L107.695 63.7498L107.695 63.7502C107.468 63.9049 107.246 64.0358 107.028 64.1424C106.807 64.2509 106.589 64.335 106.377 64.3946C106.076 64.4795 106.21 64.4613 106.441 64.5829C106.731 64.7351 107.017 64.9045 107.298 65.0909C107.992 65.55 110.8 67.8751 111.136 69.5526C109.858 67.7011 108.515 66.3089 107.107 65.3768C106.833 65.195 106.557 65.031 106.281 64.8858C106.007 64.7415 105.73 64.615 105.454 64.5054C104.962 64.4795 103.348 63.9589 103.639 63.1722C104.428 64.0401 105.31 64.3381 106.282 64.0648C106.477 64.0099 106.675 63.9335 106.876 63.8351C107.08 63.7349 107.288 63.6121 107.5 63.468L107.511 63.4603C109.164 62.0424 110.742 61.1167 112.243 60.6835C112.537 60.5984 112.829 60.5326 113.116 60.4853C113.406 60.4379 113.692 60.4096 113.975 60.4007H113.976L113.981 60.4004C114.327 60.3897 114.716 60.4549 115.088 60.5377C114.646 60.2942 114.185 60.0176 113.705 59.7082C113.144 59.3458 112.56 58.9405 111.956 58.4928L111.906 58.4557C110.083 57.3922 108.215 56.9755 106.303 57.2052C104.668 57.4015 102.995 58.071 101.285 59.2114C101.603 59.1128 101.913 59.0207 102.215 58.9358C102.85 58.7581 103.462 58.6075 104.051 58.4839C104.456 58.399 109.092 57.3352 110.865 59.1412C109.319 58.3089 107.071 58.2016 104.123 58.8196C103.549 58.9399 102.944 59.089 102.31 59.2667C101.672 59.4454 101.013 59.6498 100.334 59.8805L100.329 59.8815V59.8819C100.06 59.9925 99.7987 60.0813 99.5458 60.1488L99.5454 60.1482C99.3134 60.2097 99.0886 60.2532 98.8719 60.2783C102.27 62.9144 104.678 65.5905 106.096 68.3068C106.474 69.0302 108.946 73.7257 106.58 78.2049C108.699 72.0658 105.953 66.0983 98.3419 60.3039C97.8431 60.293 96.0531 59.7078 96.0055 58.6827C96.7319 59.6336 97.6536 60.0542 98.7695 59.944C98.9918 59.9221 99.2211 59.88 99.4562 59.8177V59.8171C99.6919 59.7546 99.9363 59.6713 100.188 59.568C102.256 58.0037 104.28 57.102 106.26 56.8641C109.537 56.4118 111.001 58.5574 113.206 57.7811C114.435 57.3483 115.293 56.7765 115.779 56.0668C116.258 55.3679 116.38 54.5249 116.143 53.5384C116.099 53.3566 116.043 53.1679 115.974 52.9735C115.36 51.6264 114.511 50.9681 113.428 50.9996C113.213 51.0058 112.99 51.0381 112.757 51.0963C112.523 51.1549 112.277 51.241 112.019 51.3549C111.23 51.7869 110.816 52.3143 110.777 52.9358C110.741 53.4992 111.004 54.1526 111.567 54.8966C111.648 54.5255 111.804 54.2331 112.036 54.0196C113.114 53.0285 114.396 53.9513 113.981 55.3361C113.941 55.4661 113.889 55.6003 113.823 55.7384C113.758 55.8743 113.679 56.0153 113.588 56.1609L113.586 56.1631L113.584 56.1665L113.575 56.1799L113.566 56.1901C112.259 57.58 110.014 57.5406 106.833 56.0712C106.225 55.7906 105.581 55.4568 104.902 55.0706C104.225 54.6852 103.514 54.2478 102.769 53.7595C101.479 53.1575 100.198 52.9223 98.9239 53.054C97.6449 53.1863 96.3687 53.6895 95.0967 54.5626L95.0887 54.568C93.927 55.27 92.9011 55.7703 92.0122 56.0691C91.3832 56.281 90.8188 56.393 90.3205 56.405C92.918 58.3292 95.0293 60.8353 96.655 63.9246H96.6545L96.6593 63.9335C97.2963 65.0929 97.8502 66.2354 98.3187 67.3601C98.7885 68.4851 99.1753 69.5961 99.4788 70.6928C100.601 74.7456 100.579 78.5756 99.414 82.1815C99.2975 82.5421 99.1234 83.259 98.7757 84.0212C98.5476 84.5213 97.732 85.8986 97.2578 86.0794C100.046 81.4056 100.676 76.3068 99.1468 70.7844C98.8481 69.7059 98.4657 68.6086 98.0004 67.4926C97.5348 66.3768 96.9871 65.2451 96.3569 64.0989L96.3501 64.0867L96.3484 64.0838C93.7225 59.0925 89.8101 55.6458 84.612 53.7446C83.6012 53.3748 82.5393 53.0629 81.4277 52.8092C80.3685 52.5676 79.2647 52.3795 78.1163 52.2441C78.0782 52.9086 77.9872 53.5189 77.8423 54.0737C78.689 54.1114 79.5065 54.1853 80.294 54.2957C81.128 54.4127 81.9271 54.5703 82.691 54.768C86.6194 55.7865 89.6373 57.8761 91.7437 61.036L91.751 61.0474C92.7939 62.9213 93.1416 64.6373 92.958 66.1109C92.7922 67.439 92.196 68.5688 91.2882 69.4394C90.3852 70.3058 89.1737 70.9134 87.7742 71.2031C85.7816 71.6154 83.4021 71.3839 80.9809 70.3354C80.6725 70.9861 80.2753 71.6044 79.783 72.166C78.9837 73.0776 77.9338 73.838 76.6115 74.3364ZM43.619 124.276C43.6612 124.677 43.7169 125.071 43.7905 125.457C46.3799 125.157 48.5569 124.124 50.1037 122.232C50.5096 121.735 50.8722 121.18 51.1872 120.566C51.5034 119.949 51.7729 119.269 51.9921 118.525L51.995 118.516L52.0334 118.383L52.1723 118.392C56.0061 118.651 59.2289 117.66 61.3105 115.113C61.7166 114.617 62.079 114.062 62.3938 113.447C62.7098 112.83 62.9797 112.151 63.1989 111.407L63.1991 111.407L63.2022 111.396L63.2413 111.265L63.3791 111.274C67.2129 111.533 70.4357 110.542 72.5171 107.995C72.9232 107.498 73.2858 106.944 73.6004 106.329C73.9166 105.712 74.1863 105.033 74.4055 104.289V104.288L74.4086 104.278L74.4481 104.146L74.5857 104.156C78.4195 104.414 81.6423 103.424 83.724 100.877C84.1298 100.38 84.4922 99.8253 84.807 99.2109C85.1234 98.594 85.3929 97.9144 85.6123 97.1707L85.6125 97.1701L85.6154 97.1595L85.6545 97.028L85.7923 97.0374C89.6259 97.2958 92.8487 96.3051 94.9301 93.7584C95.3364 93.2621 95.699 92.7071 96.0134 92.0927C96.3298 91.4758 96.5995 90.7961 96.8191 90.0523L96.8216 90.043L96.8605 89.9098L96.9991 89.9191C100.833 90.1778 104.056 89.1867 106.137 86.64C106.543 86.1434 106.906 85.5886 107.221 84.9742C107.537 84.3575 107.806 83.6781 108.026 82.9341V82.9332L108.029 82.9227L108.068 82.7914L108.206 82.8007C112.04 83.0591 115.263 82.0682 117.344 79.5216C117.75 79.0252 118.112 78.4702 118.427 77.856C118.743 77.2391 119.013 76.5595 119.232 75.816V75.815L119.235 75.8046L119.275 75.6731L119.413 75.6825C121.343 75.8125 126.288 75.1772 130.496 69.6583V67.9041C128.758 70.3482 125.258 75.0105 118.614 74.6123C118.395 75.3288 118.13 75.9881 117.821 76.5907C117.493 77.2302 117.118 77.8055 116.698 78.3178C114.565 80.9281 111.293 81.9635 107.407 81.7303C107.189 82.447 106.923 83.1061 106.614 83.7092C106.286 84.3482 105.911 84.9237 105.492 85.4362C103.358 88.0465 100.086 89.0819 96.2005 88.8485C95.9817 89.5654 95.7162 90.2244 95.407 90.8272C95.0791 91.4667 94.7041 92.0419 94.2848 92.5545C92.1512 95.1645 88.8796 96.1999 84.9935 95.967C84.7747 96.6835 84.5094 97.3426 84.2004 97.9454C83.8728 98.5849 83.4971 99.1604 83.0782 99.6727C80.9446 102.283 77.6724 103.318 73.7866 103.085C73.5681 103.802 73.3028 104.461 72.9934 105.064C72.6657 105.703 72.2903 106.278 71.8712 106.791C69.738 109.401 66.4662 110.437 62.5798 110.203C62.3613 110.92 62.0958 111.579 61.7868 112.182C61.4589 112.822 61.0835 113.397 60.6644 113.909C58.531 116.519 55.259 117.555 51.3732 117.322C51.1547 118.039 50.8887 118.698 50.5797 119.3C50.2519 119.94 49.8767 120.515 49.4576 121.028C47.9927 122.82 45.9893 123.87 43.619 124.276ZM43.8603 125.794C44.0054 126.445 44.2076 127.073 44.4909 127.676C44.5667 127.671 44.6418 127.667 44.7165 127.662C45.4527 127.61 46.1466 127.504 46.7977 127.345C50.1267 126.531 52.3267 124.303 53.3969 120.661C52.6932 126.151 47.9004 127.429 46.8805 127.678C46.2122 127.842 45.4986 127.95 44.7407 128.003L44.6573 128.009C44.9901 128.638 45.4189 129.24 45.9719 129.811C48.0238 131.664 50.6658 132.194 53.3294 132.388C54.1602 131.892 54.9003 131.262 55.5344 130.485C55.9401 129.989 56.3025 129.434 56.6177 128.82C56.9341 128.203 57.2036 127.523 57.4227 126.78L57.4252 126.77L57.4641 126.637L57.6028 126.646C61.4366 126.905 64.6596 125.914 66.7412 123.367C67.1471 122.871 67.5095 122.316 67.8241 121.702C68.1405 121.085 68.4102 120.405 68.6294 119.661V119.66L68.6325 119.65L68.672 119.519L68.8098 119.528C72.6432 119.787 75.8662 118.796 77.9478 116.249C78.3535 115.753 78.7159 115.198 79.0311 114.583C79.3471 113.967 79.6166 113.287 79.836 112.543V112.542L79.8393 112.532L79.8786 112.4L80.0162 112.41C83.85 112.669 87.0728 111.677 89.1544 109.131C89.5603 108.634 89.9229 108.079 90.2377 107.465C90.5537 106.848 90.8234 106.168 91.043 105.425V105.424L91.0459 105.414L91.0854 105.282L91.2228 105.291C95.0564 105.55 98.2794 104.559 100.361 102.013C100.767 101.516 101.129 100.961 101.444 100.347C101.76 99.7298 102.03 99.0502 102.249 98.3064L102.252 98.297L102.291 98.1641L102.43 98.173C106.264 98.4317 109.487 97.4408 111.568 94.8941C111.974 94.3975 112.336 93.8427 112.651 93.2281C112.967 92.6116 113.237 91.9322 113.456 91.1881L113.456 91.1873L113.46 91.1769L113.499 91.0457L113.637 91.055C116.237 91.2302 118.642 90.791 120.538 89.7094C122.037 88.8549 123.273 87.2188 124.146 85.2641C126.609 84.5396 128.76 83.8827 130.497 83.0173V81.4516C128.231 82.5984 126.184 83.2426 123.165 83.8001C121.746 86.452 120.005 88.1364 116.936 88.8866C116.304 89.0415 114.212 89.4265 112.424 88.8651H112.425C113.251 88.9206 114.034 88.9225 114.773 88.8701C115.509 88.8183 116.202 88.7129 116.854 88.5536C119.641 87.8723 121.744 86.1213 122.948 83.4576C126.118 82.9173 128.568 81.991 130.497 80.9094V70.1842C126.4 75.4731 121.367 76.1434 119.527 76.0331C119.309 76.7496 119.043 77.4089 118.734 78.0115C118.406 78.651 118.031 79.2263 117.612 79.7386C115.478 82.3488 112.206 83.3845 108.321 83.1511C108.102 83.8676 107.837 84.5267 107.527 85.1297C107.199 85.769 106.824 86.3443 106.405 86.857C104.272 89.4671 101 90.5025 97.1136 90.2695C96.8952 90.9862 96.6293 91.6452 96.3205 92.248C95.9927 92.8877 95.6173 93.4627 95.1979 93.9752C93.0648 96.5855 89.7927 97.6207 85.907 97.3877C85.6882 98.1043 85.4229 98.7636 85.1139 99.3664C84.7863 100.006 84.4104 100.581 83.9916 101.094C81.8582 103.704 78.5859 104.739 74.7004 104.506C74.4818 105.223 74.2161 105.882 73.9071 106.485C73.5795 107.124 73.2038 107.699 72.7847 108.212C70.6516 110.822 67.3793 111.857 63.4936 111.624C63.2748 112.341 63.0093 113 62.7005 113.603C62.3727 114.242 61.9972 114.817 61.5781 115.33C59.4446 117.94 56.1725 118.975 52.2868 118.742C52.0682 119.459 51.8023 120.119 51.4935 120.721C51.1659 121.361 50.7902 121.936 50.3709 122.448C48.769 124.409 46.5247 125.481 43.8603 125.794ZM50.0199 115.126H50.0205V115.126C50.8463 115.182 51.6293 115.184 52.3681 115.132C53.1041 115.08 53.7982 114.974 54.4493 114.815C57.7783 114.001 59.9781 111.773 61.0483 108.131L61.0901 107.986L61.2263 108.008H61.2271C62.0531 108.064 62.8363 108.066 63.5751 108.014C64.3111 107.962 65.005 107.856 65.6559 107.697C68.9851 106.883 71.1849 104.655 72.2553 101.013C71.5514 106.503 66.7586 107.781 65.7387 108.031C65.0702 108.194 64.3566 108.302 63.5991 108.355C62.8849 108.406 62.1311 108.407 61.3393 108.359C60.2178 112.05 57.9486 114.313 54.5319 115.148C53.9 115.303 51.8079 115.688 50.0199 115.126ZM76.0314 106.287L76.032 106.287C76.858 106.343 77.6409 106.344 78.38 106.292C79.1159 106.24 79.8101 106.135 80.4608 105.976C83.79 105.162 85.99 102.934 87.0602 99.2917L87.1018 99.1467L87.2384 99.1689L87.2392 99.1687L87.239 99.1689C88.0648 99.2246 88.8481 99.2264 89.5866 99.1742C90.3227 99.1223 91.0167 99.0171 91.6676 98.8576C94.9968 98.0438 97.1966 95.8158 98.267 92.1736C97.5629 97.6634 92.7703 98.9415 91.7506 99.1908C91.0821 99.3546 90.3685 99.4629 89.6106 99.5161C88.8968 99.5665 88.1428 99.5673 87.351 99.519C86.2294 103.21 83.9603 105.474 80.5438 106.309C79.9115 106.464 77.8195 106.848 76.0314 106.287Z" fill="white"/>
<path d="M88.6193 50.5643C89.3574 50.333 93.6972 49.2166 96.3537 51.4013C93.8447 50.2539 91.301 50.0839 88.7232 50.8917C88.218 51.0501 87.7118 51.2456 87.206 51.4777C86.6673 51.725 86.1449 52.0058 85.6387 52.3131C85.9075 51.5061 88.0684 50.737 88.6193 50.5643Z" fill="#10192E"/>
<path d="M47.5508 110.584C47.9492 110.2 50.7494 107.736 53.316 108.588C51.2917 108.485 49.4493 109.232 47.7901 110.83C47.4641 111.145 47.1431 111.493 46.8289 111.876C46.4821 112.298 46.1629 112.741 45.8604 113.195C46.1317 112.101 47.1164 111.003 47.5508 110.584Z" fill="#10192E"/>
<path d="M63.3377 100.546C63.7365 100.162 66.5367 97.6978 69.1031 98.5497C67.0788 98.4466 65.2364 99.1939 63.5774 100.792C63.2514 101.106 62.9304 101.455 62.6163 101.838C62.2694 102.26 61.9502 102.703 61.6475 103.157C61.919 102.063 62.9037 100.964 63.3377 100.546Z" fill="#10192E"/>
<path d="M84.9258 69.5045C85.3892 69.2589 85.7673 69.049 86.1239 68.8005C86.4774 68.5538 86.7895 68.2925 87.0596 68.0171C88.4303 66.6184 88.6983 64.8437 87.8632 62.6951C89.5893 64.8674 87.9323 67.6184 87.3063 68.2569C86.7052 68.8704 85.2197 69.505 84.9258 69.5045Z" fill="#10192E"/>
<path d="M114.475 70.1726C118.899 70.2225 122.263 68.2163 123.715 63.9705C123.634 67.6835 118.007 71.6878 114.475 70.1726Z" fill="#10192E"/>
<path d="M118.996 63.3466C116.609 61.6059 113.557 61.8823 109.841 64.1751C111.76 62.3806 116.47 60.6949 118.996 63.3466Z" fill="#10192E"/>
<path d="M79.1248 90.5102C79.5234 90.1262 82.3236 87.6613 84.8904 88.5137C82.8661 88.4102 81.0235 89.1575 79.3645 90.756C79.0383 91.0701 78.7175 91.4188 78.4034 91.8017C78.0565 92.224 77.7371 92.6661 77.4346 93.1202C77.7061 92.0268 78.6908 90.9283 79.1248 90.5102Z" fill="#10192E"/>
<path d="M96.6687 55.1433C97.4068 54.912 101.747 53.7956 104.404 55.9801C101.894 54.8329 99.3503 54.6627 96.773 55.4705C96.2678 55.6289 95.7612 55.8244 95.2556 56.0565C94.7171 56.3038 94.1945 56.5846 93.6885 56.8919C93.9571 56.0851 96.118 55.316 96.6687 55.1433Z" fill="#10192E"/>
<path d="M101.82 67.3304C102.376 68.2751 105.44 74.1571 103.151 78.9243C104.044 74.6789 103.502 70.8717 101.523 67.5035C101.137 66.8477 100.697 66.208 100.204 65.5856C99.6939 64.9432 99.1401 64.3346 98.5527 63.7618C100.097 64.4663 101.47 66.7342 101.82 67.3304Z" fill="#10192E"/>
<path d="M67.4111 117.72H67.4118C68.2375 117.775 69.0207 117.777 69.7591 117.725C70.4953 117.673 71.1894 117.568 71.8405 117.408C75.1693 116.594 77.3693 114.366 78.4395 110.724L78.4811 110.579L78.6177 110.601L78.6184 110.601C79.4443 110.657 80.2273 110.659 80.9657 110.607C81.7019 110.555 82.396 110.45 83.0469 110.29C86.3759 109.476 88.5757 107.248 89.6461 103.606C88.9425 109.096 84.1496 110.374 83.1295 110.623C82.4612 110.787 81.7476 110.895 80.9899 110.949C80.2761 110.999 79.522 111 78.7301 110.952C77.6086 114.643 75.3397 116.906 71.9229 117.741C71.2911 117.896 69.1991 118.281 67.4111 117.72Z" fill="#10192E"/>
<path d="M126.076 75.1517L126.077 75.1515H126.077C126.814 74.7731 127.485 74.3714 128.092 73.946C128.696 73.5223 129.237 73.0744 129.713 72.6023C129.997 72.3202 130.258 72.0295 130.496 71.7305V72.2681C130.326 72.4642 130.145 72.6563 129.955 72.8452C129.493 73.3035 127.898 74.7114 126.076 75.1517Z" fill="#10192E"/>
</svg>
