<svg width="89" height="114" viewBox="0 0 89 114" fill="none" xmlns="http://www.w3.org/2000/svg">
<path fill-rule="evenodd" clip-rule="evenodd" d="M0.500207 0.5H44.5H88.5V91.8933C88.4007 99.609 84.6211 102.254 76.6162 102.475C69.3585 102.475 62.1009 102.475 54.8436 102.475C49.6881 102.669 46.13 105.496 44.5 111.5C42.87 105.496 39.3119 102.669 34.1564 102.475C26.8989 102.475 19.6413 102.475 12.3838 102.475C4.3791 102.254 0.599135 99.609 0.5 91.8933L0.500207 0.5Z" fill="#10192E" stroke="white"/>
<path fill-rule="evenodd" clip-rule="evenodd" d="M85.1983 99.6098C82.7342 101.556 79.6426 101.857 76.6069 101.971H54.8303C49.9035 102.238 46.3316 104.595 44.5004 109.825C42.7817 104.916 39.3714 102.253 34.1705 101.971H13.9171C14.0187 101.859 14.1181 101.743 14.2151 101.625C14.634 101.112 15.0095 100.537 15.3373 99.8978C15.6463 99.295 15.912 98.6359 16.1308 97.919C20.0161 98.1521 23.2884 97.1169 25.4219 94.5065C25.841 93.9937 26.2163 93.4187 26.5443 92.7794C26.8533 92.1766 27.1186 91.5177 27.3374 90.8007C31.2231 91.0339 34.4952 89.9987 36.629 87.3882C37.0479 86.8757 37.4233 86.3006 37.7509 85.6612C38.0603 85.0586 38.3256 84.3992 38.5442 83.6827C42.4299 83.9157 45.7018 82.8805 47.8354 80.2702C48.2545 79.7575 48.6301 79.1824 48.9575 78.5429C49.2667 77.9401 49.5322 77.2808 49.751 76.5641C53.6363 76.7974 56.9086 75.7625 59.0422 73.1518C59.4613 72.6395 59.8369 72.0638 60.1643 71.4247C60.4735 70.8219 60.7395 70.163 60.9578 69.446C64.8435 69.679 68.1154 68.6438 70.2494 66.0335C70.6681 65.5206 71.0437 64.9457 71.3715 64.3061C71.6803 63.7037 71.9459 63.0443 72.1646 62.3274C73.8551 62.4291 75.429 62.2899 76.8438 61.8863C79.2291 61.2054 81.6863 59.0278 83.0552 56.2174C84.8798 55.7225 86.5286 55.1218 87.9972 54.4314V91.885C87.9122 94.8699 87.5096 97.5222 85.1983 99.6098ZM1.00391 84.2402V1.00363H87.9968V26.4254C85.367 26.6422 83.3859 27.566 82.0551 29.1966L82.0237 29.2353C82.1323 28.7712 82.1741 28.3374 82.1483 27.934C82.135 27.734 82.105 27.5397 82.058 27.3515C82.0111 27.1647 81.9477 26.9847 81.8668 26.8124L81.8635 26.8058L81.8618 26.8027C80.8792 24.8207 79.4915 24.2983 77.6992 25.2351L77.6907 25.239L77.6793 25.2477C77.4384 25.4204 77.2302 25.5967 77.0555 25.7752C76.6174 26.2243 76.3825 26.6963 76.351 27.1902C76.3204 27.6824 76.4926 28.1885 76.8676 28.7062C77.027 28.9265 77.223 29.1487 77.4546 29.3724L77.6313 29.5501L77.7305 29.3239C77.9734 28.8222 78.2313 28.4797 78.5033 28.2985C78.7288 28.1475 79.1297 28.0568 79.3468 28.2678C79.5894 28.5018 79.6916 28.7733 79.6525 29.0798C79.2407 32.2867 74.6769 30.7594 72.9788 29.8561C72.4715 29.5863 71.9427 29.2736 71.3931 28.9191C70.9129 28.6095 70.4133 28.2658 69.8942 27.8874C70.2237 27.8002 70.5337 27.706 70.8223 27.6039C72.1214 27.1465 73.0357 26.5316 73.5645 25.7605C74.1005 24.9785 74.2392 24.044 73.9784 22.958C73.9308 22.7594 73.8702 22.5563 73.7969 22.3509L73.7917 22.3376C73.1144 20.8485 72.1559 20.1212 70.9181 20.157C70.6801 20.1639 70.4313 20.1997 70.173 20.2647C69.9164 20.3293 69.6513 20.4213 69.3791 20.5412L69.3727 20.5439L69.3605 20.5501C68.4567 21.0434 67.9805 21.6646 67.9333 22.4136C67.8867 23.145 68.2598 23.9835 69.0509 24.9276L69.3265 25.2564L69.3549 24.829C69.3872 24.3488 69.5258 23.9957 69.7701 23.7712C70.6039 23.0055 71.4572 23.7174 71.1505 24.7383C71.1174 24.8501 71.0708 24.9678 71.0122 25.0906C70.9549 25.2109 70.8854 25.3362 70.8045 25.4652C69.6092 26.7242 67.4999 26.6561 64.4789 25.2608C63.8791 24.9835 63.2435 24.6544 62.5746 24.2736C62.0228 23.9597 61.4464 23.6101 60.8454 23.2243C61.6168 23.1148 62.3269 22.9164 62.9442 22.6472C63.7268 22.3057 64.3627 21.8479 64.7883 21.3074C65.2239 20.7549 65.4414 20.1158 65.3777 19.4256C65.3498 19.1307 65.2701 18.827 65.1339 18.5176C65.0704 18.3635 65.0045 18.2144 64.9367 18.0709C64.4354 17.0138 63.8356 16.3066 63.1384 15.9502C62.4277 15.5867 61.6261 15.587 60.7353 15.9506C60.6614 15.9808 60.5853 16.0142 60.5085 16.05L60.5048 16.0514C59.5556 16.5219 59.0577 17.114 59.0111 17.8272C58.9658 18.5246 59.3636 19.3184 60.204 20.2082L60.4276 20.4453L60.4979 20.1274C60.6523 19.4327 60.8961 18.997 61.2295 18.821C61.2906 18.7893 61.3546 18.7652 61.4208 18.751C61.4874 18.736 61.5603 18.7294 61.6362 18.7319C61.8564 18.7418 62.034 18.7775 62.1663 18.8383C62.2706 18.8862 62.3465 18.95 62.3931 19.0289C62.4407 19.109 62.4618 19.2115 62.4558 19.3351C62.4473 19.5134 62.3846 19.7311 62.2679 19.9877C61.3645 21.0819 60.0078 21.4095 58.1978 20.9698C57.836 20.8818 57.456 20.7638 57.0607 20.6159C56.6666 20.4679 56.2515 20.2892 55.8185 20.0802C52.7795 17.9324 49.8642 17.1403 47.0752 17.704C46.5247 17.8154 45.9789 17.9794 45.4394 18.1962C44.9017 18.4124 44.3679 18.6816 43.8391 19.0036L43.7096 19.0835L43.6992 19.0904C43.5802 19.1761 43.462 19.2602 43.3445 19.3418C43.889 18.2459 43.8695 17.268 43.2857 16.4099C43.151 16.2115 42.9866 16.0212 42.7933 15.839C41.2517 14.383 39.3358 14.9036 38.1112 16.546L37.66 17.1513L38.3308 16.8002C40.4168 15.7077 41.0412 18.1825 38.1926 17.7421L38.1783 17.7408C35.9025 17.5809 34.0194 17.6988 32.5292 18.0949C32.2356 18.1728 31.9576 18.2616 31.6968 18.3602C31.558 18.4126 31.4232 18.4683 31.2937 18.5263C31.4359 18.0995 31.6439 17.6791 31.9191 17.266L32.1029 16.9288L31.7345 17.0044C30.7125 17.2525 29.848 17.9906 29.1413 19.2171C27.1933 19.9015 25.7115 20.8114 24.6953 21.9475C23.6837 23.0788 23.135 24.4306 23.0512 26.0007C21.2361 26.8603 20.1918 27.9187 19.9194 29.1753C19.865 29.4269 19.8414 29.6861 19.8493 29.9524C19.8571 30.2142 19.8952 30.4832 19.9631 30.759C20.0341 31.4057 19.9846 31.8965 19.8155 32.2303C19.7839 32.2929 19.7483 32.3492 19.7102 32.3985C19.6705 32.4488 19.6276 32.4933 19.5825 32.5316L19.5765 32.5362L19.5699 32.5418L19.5589 32.5538C17.69 34.6045 16.0257 36.7954 14.5664 39.1262C14.2768 39.5892 14.0005 40.0489 13.7373 40.5035C13.4724 40.9615 13.2114 41.4314 12.9556 41.9116L12.9535 41.9145L12.9363 41.946L12.9332 41.9824C12.8999 42.3862 12.791 42.7522 12.6075 43.0783C12.4264 43.3999 12.1704 43.6871 11.8409 43.9383C10.3816 44.5155 9.69239 45.1344 9.77456 45.7946C9.77001 46.3086 9.90888 46.765 10.1903 47.1628C10.4702 47.5583 10.8901 47.8934 11.4493 48.1674L11.5319 48.1847C11.7068 48.1781 11.8672 48.2257 12.0122 48.3268C12.1664 48.4345 12.3069 48.6033 12.4342 48.8331C12.8388 49.6598 13.1892 50.2129 13.4856 50.4906C13.5498 50.5509 13.6123 50.5995 13.6733 50.6368C13.7013 50.6538 13.7294 50.6689 13.7575 50.6813C13.847 51.3026 14.1789 51.6838 14.7518 51.8244C14.8654 51.8522 14.9877 51.87 15.1179 51.8776C15.2255 51.8838 15.3381 51.8841 15.4565 51.8772C15.661 52.07 15.8611 52.2098 16.053 52.2988C16.2831 52.4051 16.5031 52.4392 16.7103 52.4038C16.9185 52.3678 17.1099 52.2626 17.2805 52.0911C17.4229 51.9485 17.5512 51.7575 17.6635 51.5221C18.1532 50.9536 18.73 50.5198 19.3925 50.2206C20.1492 50.0124 20.6885 49.7323 21.0095 49.379C21.0768 49.3051 21.1345 49.228 21.1821 49.1497C21.2303 49.0698 21.2697 48.9855 21.3001 48.8977L21.3071 48.876L21.3129 48.8582L21.315 48.841C21.3707 48.3237 21.6004 47.7952 22.0035 47.2554C22.082 47.1506 22.1685 47.0433 22.2625 46.9348C22.3517 46.8321 22.4454 46.7306 22.5437 46.6298C23.4542 46.2274 24.549 45.871 25.8272 45.5623C26.3585 45.4337 26.9189 45.314 27.5079 45.203C28.0969 45.0916 28.7207 44.988 29.378 44.8923L29.3791 44.8915L29.3836 44.8913C30.9574 44.6971 32.16 44.4813 32.9902 44.2415C33.1514 44.1949 33.3012 44.1466 33.4388 44.0965C33.5429 44.0586 33.6377 44.021 33.7234 43.9835L33.742 43.9959C36.0379 45.5652 37.5417 47.0516 38.253 48.4546C38.9465 49.8228 38.8766 51.1158 38.0435 52.3324L38.0322 52.3485L38.0318 52.3498C36.8684 54.0746 35.9137 55.7544 35.1684 57.3887C34.7278 58.3547 34.3594 59.3065 34.0649 60.2417C33.9776 60.3895 33.8946 60.5413 33.8153 60.6983C33.5651 61.1938 33.3561 61.7327 33.1884 62.3135L33.1795 62.3429L33.1791 62.3448C32.937 63.2415 32.6911 63.9507 32.4434 64.473C32.4088 63.843 32.2008 63.1609 31.7846 62.4581L31.7836 62.4564C31.1962 61.4844 30.276 61.176 29.4196 61.3102C29.027 61.3719 28.6479 61.5274 28.3223 61.7552C27.9955 61.9838 27.7207 62.286 27.5377 62.6389C27.1439 63.3976 27.1689 64.3848 27.9939 65.381L28.2497 65.6896L28.2983 65.2926C28.3786 64.6368 28.6826 64.2398 29.21 64.1019L29.2156 64.1009C29.2342 64.0951 29.2522 64.0905 29.269 64.0866C29.4648 64.0416 29.6318 64.0795 29.7698 64.2C29.9277 64.3373 30.0579 64.5788 30.1606 64.9236C30.1794 64.9863 30.198 65.0578 30.2169 65.1379C30.2142 65.6384 29.9826 66.0083 29.5221 66.2473C29.0208 66.5078 28.254 66.6223 27.2242 66.5912C23.384 66.358 20.6105 67.2874 18.9045 69.3775C18.5715 69.7854 18.2793 70.2379 18.0286 70.7345C17.7786 71.2301 17.5692 71.7687 17.402 72.35L17.3931 72.3794L17.3928 72.3812C17.1505 73.2781 16.9046 73.9878 16.6563 74.51C16.6215 73.8805 16.4139 73.1986 15.9977 72.4961L15.9969 72.4943C15.4091 71.5227 14.489 71.2139 13.6325 71.3483C13.2399 71.41 12.861 71.5655 12.5354 71.7931C12.2084 72.0217 11.9338 72.3239 11.7506 72.6769C11.357 73.4355 11.3818 74.4226 12.2068 75.4191L12.4624 75.7279L12.5112 75.3309C12.5913 74.6747 12.8958 74.2777 13.4229 74.14L13.4283 74.1387C13.4467 74.1333 13.4651 74.1286 13.4817 74.1246C13.6772 74.0797 13.8445 74.1172 13.9825 74.2377C14.1404 74.3754 14.2706 74.6171 14.3733 74.9617C14.3917 75.0244 14.4105 75.0956 14.4296 75.1758C14.4267 75.6765 14.1949 76.0464 13.7348 76.2853C13.2333 76.5461 12.4665 76.6604 11.4367 76.6291C7.59628 76.3963 4.82298 77.3255 3.1172 79.4154C2.78399 79.8235 2.49176 80.2762 2.24092 80.7724C1.99112 81.2679 1.78188 81.8068 1.61403 82.388L1.60534 82.4172L1.60513 82.4193C1.40541 83.1511 1.20549 83.7577 1.00391 84.2402Z" fill="#00AEEF"/>
<path d="M38.5762 21.8809C38.7198 21.9114 38.8626 21.9427 39.0046 21.975C40.1276 22.2311 41.2034 22.5475 42.2309 22.9234C44.0801 23.5997 45.7683 24.4688 47.2972 25.5297C47.8675 25.6196 48.5691 25.5241 49.4011 25.2442C50.2667 24.9532 51.2679 24.4645 52.4046 23.778C53.7231 22.8735 55.0514 22.3516 56.3882 22.2133C57.7144 22.0758 59.0456 22.316 60.3819 22.9333C61.2833 22.8459 62.108 22.6374 62.8044 22.3336C63.5352 22.0147 64.1255 21.5917 64.5166 21.0953C64.8979 20.6115 65.0887 20.0549 65.0328 19.4571C65.0086 19.1972 64.9382 18.9275 64.8165 18.6527L64.8153 18.649C64.7526 18.4981 64.6892 18.3535 64.6245 18.2175C64.1563 17.2305 63.6074 16.5763 62.9785 16.2545C62.3624 15.9396 61.6574 15.9437 60.8652 16.2672C60.7952 16.2957 60.7253 16.3266 60.6562 16.3589C59.8258 16.7706 59.3918 17.2676 59.3537 17.8495C59.3186 18.3893 59.6145 19.0187 60.241 19.7383C60.4233 19.1172 60.6986 18.7111 61.0655 18.5177L61.0664 18.5173C61.1529 18.472 61.2454 18.438 61.3437 18.4165C61.4408 18.3951 61.5413 18.3858 61.6452 18.3889L61.6461 18.3891H61.6494L61.651 18.3889C61.9162 18.4013 62.1357 18.4469 62.3092 18.5266C62.4789 18.6043 62.6055 18.714 62.6887 18.8549C62.7711 18.9946 62.8075 19.1601 62.7986 19.3508C62.7881 19.578 62.7121 19.8447 62.5706 20.1499L62.5621 20.1678L62.5476 20.186C61.5531 21.4065 60.075 21.7791 58.1136 21.3028C57.7409 21.2121 57.3489 21.0899 56.9377 20.9362C56.5281 20.7832 56.1013 20.5993 55.6591 20.3854H55.6595L55.657 20.3844L55.6429 20.3777L55.6299 20.3688C52.6676 18.2715 49.8378 17.4952 47.1415 18.0402C46.6123 18.1471 46.0873 18.3051 45.5676 18.514C45.0458 18.7238 44.5288 18.9841 44.018 19.2953L43.898 19.3695C42.0885 20.677 40.4289 21.492 38.9197 21.8153C38.8042 21.8395 38.6898 21.8621 38.5762 21.8809Z" fill="white"/>
<path d="M35.2455 23.9127C35.1816 24.1165 35.11 24.3124 35.0303 24.5C35.7873 24.8754 36.6425 25.4221 37.5941 26.1411C37.7901 26.2892 37.9915 26.4453 38.197 26.6091C38.4015 26.7719 38.6109 26.9427 38.8245 27.121L38.827 27.1231C41.3325 29.2018 42.596 31.3128 42.6171 33.4563C42.6378 35.5379 41.4856 37.6335 39.1619 39.742C41.3248 40.5706 43.4259 40.7348 45.2031 40.3674C46.5403 40.0908 47.6935 39.5134 48.5497 38.6925C49.4009 37.8762 49.9603 36.8157 50.1156 35.5685C50.2906 34.1649 49.9547 32.5211 48.9506 30.7162C46.8936 27.6346 43.9443 25.5956 40.1046 24.6002C39.3519 24.4049 38.5652 24.25 37.746 24.1349C36.947 24.0229 36.1129 23.9489 35.2455 23.9127Z" fill="white"/>
<path d="M17.4612 46.5902C16.1451 48.0473 15.1875 49.158 14.5886 49.9222L14.4688 50.0767L14.5755 49.9775C15.4595 49.1603 16.1901 48.485 17.365 47.8555L17.3662 47.8547C18.5116 47.2496 19.0259 46.625 19.1376 46.175C19.1792 46.0069 19.16 45.8723 19.0954 45.7845C19.0352 45.7025 18.9271 45.6569 18.7862 45.6604C18.4507 45.6689 17.9703 45.9332 17.4695 46.5801L17.4612 46.5902Z" fill="white"/>
<path d="M21.7506 47.0166C21.108 47.3641 20.5848 47.7416 20.181 48.1499C21.083 46.1336 25.2605 45.3465 25.7423 45.2299C26.2748 45.1011 26.8417 44.9801 27.4413 44.8671C28.0408 44.754 28.6694 44.6494 29.3257 44.5538L29.3259 44.5542L29.3339 44.5529L29.3385 44.5515C30.8973 44.3595 32.082 44.1466 32.8914 43.9131C33.0501 43.8671 33.1927 43.8215 33.3178 43.776C33.4413 43.731 33.5537 43.6844 33.6541 43.6362L33.6609 43.6329L33.6706 43.6281L33.6812 43.6246C35.0941 43.1531 36.1985 42.3806 37.023 41.4401C38.0092 40.3154 38.5984 38.9474 38.8401 37.5629C39.0821 36.1769 38.9767 34.7749 38.5746 33.583C38.3128 32.8073 37.9256 32.1224 37.4278 31.5894C37.5075 33.7749 36.9437 36.1883 35.7349 38.8292L35.7295 38.841L35.7253 38.8478C35.1278 39.8217 32.7211 42.9321 31.4174 42.9371C32.1944 42.427 32.9177 41.8153 33.5872 41.1038C34.2555 40.3937 34.8687 39.584 35.4267 38.6755C37.2418 34.7047 37.5721 31.2724 36.4172 28.3796C36.1923 27.8164 35.9118 27.274 35.5763 26.7532C35.2771 26.2889 34.9327 25.8402 34.5438 25.4068C34.1626 25.9775 33.682 26.4455 33.1021 26.8108C33.1913 26.8679 33.278 26.9292 33.362 26.9936C33.5152 27.1111 33.6586 27.2394 33.7911 27.378L33.7913 27.3778C34.1938 27.7984 35.3334 29.338 34.7801 30.4358C34.5819 29.2109 34.1686 28.2703 33.5413 27.6149L33.5409 27.6143C33.4179 27.4859 33.2882 27.3691 33.1518 27.2647C33.0332 27.1738 32.9078 27.0912 32.7761 27.0152C32.4334 27.2575 32.1321 27.4175 31.8725 27.4958C31.6145 27.5737 31.3913 27.5724 31.2043 27.4921C31.0128 27.4101 30.8684 27.2506 30.7723 27.0148C30.7138 26.8712 30.6728 26.6979 30.6496 26.4942C28.7809 27.7727 26.9692 28.1005 25.2143 27.4778C24.8571 27.3511 24.5036 27.1854 24.1551 26.9816C23.8331 26.793 23.5121 26.5697 23.1925 26.3125C21.4826 27.1233 20.5031 28.1024 20.2547 29.2483C20.2061 29.4726 20.1854 29.7043 20.1922 29.9427C20.1992 30.1827 20.2346 30.4304 20.298 30.6849L20.299 30.6892L20.3025 30.7031L20.3035 30.7126C20.3834 31.4314 20.3228 31.9895 20.122 32.3856C20.0813 32.4654 20.0341 32.5403 19.9805 32.6091L19.9803 32.6101C19.9287 32.676 19.8704 32.7366 19.8054 32.7913C17.9566 34.8209 16.3075 36.9932 14.8582 39.3082L14.8575 39.3078C14.5817 39.7488 14.307 40.205 14.0351 40.6753C13.7704 41.1328 13.516 41.59 13.2722 42.0464C13.2314 42.4848 13.1091 42.8853 12.9061 43.2458L12.9063 43.246C12.6983 43.6159 12.4061 43.9429 12.0302 44.2262L12.012 44.2396L11.9901 44.2483C10.6738 44.7658 10.049 45.2699 10.1162 45.7598L10.1177 45.7695L10.1175 45.7853C10.1113 46.2305 10.2294 46.6242 10.4712 46.9665C10.711 47.3059 11.0753 47.5985 11.5625 47.8426C11.7968 47.8426 12.0128 47.9103 12.2088 48.0468C12.4077 48.1858 12.5841 48.3941 12.7368 48.6714L12.7405 48.6786C13.1275 49.4703 13.4549 49.9917 13.7215 50.2421C13.7662 50.2839 13.8086 50.3177 13.8482 50.3421C13.8947 50.2738 13.9467 50.2003 14.0036 50.1222C14.094 49.9986 14.1984 49.8609 14.3163 49.7103C14.9165 48.9447 15.8787 47.8288 17.2028 46.363C17.7736 45.6287 18.3544 45.3274 18.7768 45.3169C19.0363 45.3104 19.2453 45.4078 19.3732 45.5815C19.497 45.7494 19.5392 45.9835 19.4716 46.2568C19.3403 46.7855 18.7726 47.4999 17.5282 48.1574V48.1572C16.3888 48.7681 15.6736 49.4291 14.8087 50.2286C14.5959 50.4254 14.3737 50.631 14.1427 50.8385C14.2476 51.187 14.4778 51.4044 14.8329 51.4916C14.9246 51.514 15.0264 51.5287 15.1369 51.5351C15.2034 51.539 15.2737 51.5405 15.3476 51.5384L15.3503 51.4755C15.3542 51.4024 15.3613 51.3276 15.3712 51.2524C15.4347 50.766 15.5701 50.4003 16.0414 50.3355C15.8665 50.6413 15.757 50.9619 15.7133 51.2966C15.705 51.3599 15.699 51.426 15.6953 51.4937C15.6928 51.539 15.6916 51.5829 15.6914 51.6266C15.8692 51.7946 16.0385 51.9151 16.1968 51.9884C16.3601 52.0638 16.5118 52.0891 16.6498 52.0654C16.7868 52.0418 16.9156 51.9694 17.0344 51.8501C17.1534 51.7306 17.2626 51.5653 17.3603 51.3562L17.3703 51.3347L17.3852 51.3175C17.9146 50.6979 18.5394 50.2266 19.2588 49.9035L19.2702 49.8985L19.2843 49.8946C19.9852 49.7035 20.4749 49.4552 20.7529 49.1493C20.8034 49.0936 20.8479 49.0344 20.8849 48.9731L20.8847 48.9729C20.9211 48.9124 20.9501 48.8507 20.9714 48.7882L20.9722 48.7857C21.0381 48.2125 21.2889 47.6337 21.7243 47.0508L21.725 47.0503L21.7506 47.0166Z" fill="white"/>
<path d="M19.9385 41.0413C20.3537 40.92 21.0098 40.9751 21.266 41.3737C21.5957 41.7895 21.8906 41.6382 22.1408 41.229C22.3735 40.8492 22.5982 40.2273 22.8157 39.3661C22.971 39.8463 22.8368 40.5961 22.603 41.0919C22.9587 43.3221 25.8444 43.9192 27.6984 44.1364C25.2026 44.6282 22.753 42.884 22.3505 41.5352C21.7263 42.4149 21.6507 41.5027 21.4423 42.7154C21.3217 43.2277 21.9192 43.2822 22.2965 43.2896C21.8436 43.6584 20.9444 43.3439 21.1052 42.644C21.1563 42.3068 21.2066 41.7879 20.9359 41.5143C20.712 41.2878 20.3272 41.3178 20.0431 41.3687C18.7485 41.8539 17.7824 42.6756 17.1462 43.8334C16.8778 44.3213 16.701 44.8297 16.545 45.3617C16.7867 42.8647 18.7694 41.4762 19.9385 41.0413Z" fill="#10192E"/>
<path d="M12.7557 47.1342C13.2814 47.0375 13.6733 46.8557 13.9318 46.5894C14.1848 46.3289 14.3145 45.9793 14.3209 45.5416L14.3211 45.5242L14.3234 45.513L14.3238 45.5097L14.3245 45.5068C14.4083 45.0934 14.5047 44.6871 14.6136 44.2887C14.7233 43.888 14.8456 43.495 14.9799 43.1108C15.2388 42.3707 16.8357 38.4647 18.3412 37.9313C16.9978 39.5161 15.9859 41.2809 15.3057 43.2241C15.173 43.6031 15.0532 43.988 14.9466 44.3782C14.8402 44.7671 14.7458 45.163 14.6645 45.5643C14.6469 46.3765 13.8039 47.4186 12.7557 47.1342Z" fill="#10192E"/>
<path d="M20.363 34.9832C20.738 34.6558 21.0271 34.3757 21.2297 34.1452C21.4212 33.9271 21.5329 33.7577 21.5642 33.6382C21.8659 32.502 22.5487 31.5639 23.5744 30.9986C24.3265 30.6167 25.1827 30.7051 25.8307 31.2222C26.4754 31.2253 27.1282 31.2595 27.7586 31.3972C27.8879 31.4527 28.7125 31.6403 28.7143 31.7445C28.7151 31.7793 27.8482 31.7219 27.743 31.7345C27.0325 31.8209 26.3193 32.071 25.8324 32.6086L25.8293 32.6126C25.0186 33.6378 23.9202 34.3676 22.6427 34.6585C22.4247 34.7082 22.2031 34.743 21.982 34.771C20.9305 34.8432 20.079 35.5202 19.4269 36.2883C19.4674 35.9221 19.911 35.2719 20.363 34.9832Z" fill="#10192E"/>
<path d="M20.6904 32.9201C21.0961 32.538 21.421 32.1326 21.6652 31.7052C21.9088 31.2786 22.0727 30.8273 22.1567 30.3533L22.1598 30.3357L22.1677 30.3169C23.162 27.9557 27.8964 28.1537 29.7202 29.3544C25.6563 28.3163 23.247 28.676 22.4926 30.4329C22.4008 30.9381 22.225 31.4194 21.9647 31.8752C21.7023 32.3345 21.3548 32.7683 20.9222 33.1746L20.9135 33.1823C20.2527 33.7275 19.7601 34.2401 19.4356 34.719C19.1214 35.1829 18.9656 35.6142 18.9689 36.0118C18.4821 34.9402 20.5002 33.0771 20.6904 32.9201Z" fill="#10192E"/>
<path d="M34.0934 39.421C33.5242 40.4192 32.6514 41.3227 31.4755 42.1303L31.4726 42.1321C29.7103 43.2928 26.7843 43.3765 26.165 41.2431C27.4977 43.0135 29.203 43.2152 31.2799 41.8482C32.4122 41.0706 33.2504 40.2044 33.7939 39.2512C34.3338 38.304 34.5843 37.2666 34.5441 36.1394C34.9696 36.8178 34.3682 38.9396 34.0934 39.421Z" fill="#10192E"/>
<path d="M35.2456 18.5636C35.5893 19.7961 35.6593 20.4422 35.6317 21.4008C36.1725 21.4642 36.7036 21.5387 37.2251 21.6255C37.4843 21.6373 37.7488 21.6311 38.0176 21.607C38.2896 21.5828 38.5667 21.5404 38.8479 21.4803C40.0285 21.2277 41.3102 20.6596 42.6935 19.7754C43.5036 18.5509 43.6052 17.4923 42.9988 16.601C42.8792 16.425 42.7308 16.2536 42.5542 16.0875C41.4339 15.0305 39.9649 15.0715 38.8556 16.1995C40.8691 15.5491 41.4064 18.5859 38.1416 18.0817C35.9105 17.926 34.0688 18.0409 32.6173 18.4265L32.6171 18.4261C32.3379 18.5002 32.0712 18.5853 31.8183 18.6808C31.5925 18.7661 31.3764 18.8609 31.1709 18.9649C31.1475 19.0701 31.1278 19.1761 31.1123 19.2819C31.406 19.1328 31.7048 18.9993 32.0072 18.8818C32.4058 18.7272 32.8144 18.599 33.2318 18.4975C34.0791 18.2915 37.5182 17.7017 40.1967 19.3795C38.4371 18.7721 36.7864 18.5006 35.2456 18.5636Z" fill="white"/>
<path d="M35.1531 18.9312C34.9422 19.0894 34.7367 19.2594 34.5374 19.4418C34.2706 19.6856 34.0169 19.9481 33.7766 20.2289C32.5344 21.6816 31.6 23.6706 30.9735 26.1956C30.9832 26.4861 31.0226 26.7168 31.0915 26.8858C31.1525 27.0355 31.2359 27.1333 31.3407 27.1782C31.4499 27.2252 31.5942 27.2219 31.7722 27.168C33.2528 26.7185 34.4931 25.1869 34.9275 23.7775C35.3214 22.499 35.3963 20.8837 35.1531 18.9312Z" fill="white"/>
<path d="M31.3691 21.5725C31.7305 21.5222 32.1011 21.4801 32.4809 21.447C32.7982 20.9214 33.1426 20.4408 33.5139 20.0067C33.7666 19.7114 34.03 19.4383 34.3038 19.1881C34.5452 18.9678 34.7972 18.7626 35.0601 18.5725C34.4613 18.6075 33.8794 18.693 33.3139 18.8303C32.9131 18.9278 32.519 19.0515 32.1332 19.2012C31.7712 19.3416 31.4171 19.505 31.0719 19.6899C31.0601 19.9251 31.0672 20.1625 31.0939 20.4018C31.1172 20.6131 31.1557 20.827 31.2093 21.0426C31.253 21.2186 31.3062 21.3958 31.3691 21.5725Z" fill="white"/>
<path d="M28.3035 22.2828C29.1399 21.998 30.0463 21.7785 31.0234 21.6244C30.9657 21.4569 30.9166 21.29 30.8756 21.1252C30.8187 20.8957 30.7775 20.6667 30.7522 20.4397C30.6392 19.4172 30.8495 18.4306 31.3832 17.4805C30.4315 17.8802 29.6359 18.8102 28.9964 20.2712C28.8515 20.6019 28.7145 20.9612 28.5855 21.3474C28.487 21.6427 28.3928 21.9549 28.3035 22.2828Z" fill="white"/>
<path d="M25.9901 23.3444C26.5793 22.9907 27.2192 22.6839 27.9098 22.4244C28.0185 22.0061 28.1351 21.6103 28.2591 21.2395C28.3291 21.0297 28.4015 20.828 28.4765 20.6333C27.7297 21.0415 27.147 21.4799 26.7286 21.9498C26.3389 22.3873 26.0926 22.853 25.9901 23.3444Z" fill="white"/>
<path d="M23.4356 25.543C23.6032 25.3371 23.7794 25.1379 23.9634 24.9472C24.2813 24.6177 24.6248 24.3098 24.9936 24.0242C25.1904 23.8718 25.3945 23.7262 25.6052 23.5871C25.6708 22.9184 25.9589 22.2961 26.4699 21.7221C26.9813 21.1474 27.7175 20.6202 28.678 20.1404L28.6809 20.1338C28.7508 19.9737 28.8228 19.8196 28.8967 19.6718C27.1804 20.3197 25.8649 21.1547 24.9512 22.1764C24.0971 23.1311 23.5915 24.2539 23.4356 25.543Z" fill="white"/>
<path d="M23.4523 26.0814C23.7419 26.3115 24.0347 26.5128 24.3305 26.6855C24.6629 26.8799 24.9967 27.0367 25.3309 27.1553C27.0336 27.7594 28.8062 27.3993 30.6482 26.0746C30.8428 25.2953 31.0671 24.5662 31.3204 23.8863C30.8142 23.8424 30.3264 23.8673 29.8576 23.9615C29.323 24.069 28.8122 24.2663 28.3263 24.554C28.388 24.0837 29.2808 23.7279 29.7891 23.6258C30.3196 23.5192 30.8726 23.4962 31.4477 23.5552C31.6956 22.9292 31.9697 22.3481 32.2698 21.811C29.3239 22.1005 26.9686 22.9284 25.2041 24.2949C24.8506 24.5687 24.5194 24.8656 24.2119 25.1845C23.9404 25.466 23.6868 25.7654 23.4523 26.0814Z" fill="white"/>
<path d="M37.3975 31.0779C38.068 31.6788 38.5772 32.5126 38.9013 33.4728C39.3212 34.7178 39.4319 36.1789 39.18 37.6209C39.0677 38.2645 38.8828 38.9054 38.6212 39.5219C38.6827 39.5484 38.7444 39.5743 38.8061 39.5997C41.1365 37.5223 42.2921 35.4753 42.2723 33.46C42.2522 31.4223 41.0297 29.3972 38.6053 27.3863L38.6028 27.3842L38.6026 27.3838C38.3919 27.208 38.1843 27.0388 37.9811 26.8768C37.7789 26.7157 37.5798 26.5612 37.3849 26.414C36.455 25.7116 35.6217 25.1779 34.8868 24.8122C34.838 24.9114 34.7862 25.0085 34.7324 25.1028C35.1612 25.573 35.5394 26.0618 35.8664 26.5689C36.2153 27.1104 36.5059 27.6718 36.7377 28.2525C37.0941 29.1458 37.3141 30.088 37.3975 31.0779Z" fill="white"/>
<path d="M26.3681 31.7792C26.4971 31.7136 26.6335 31.655 26.7776 31.6043C26.654 31.5941 26.5254 31.5854 26.3917 31.5792C26.3244 31.5761 26.2592 31.5738 26.1965 31.572C26.2544 31.6368 26.3118 31.7061 26.3681 31.7792Z" fill="white"/>
<path d="M20.9971 34.7562C21.5339 34.6786 22.0383 34.5579 22.1049 34.0375C22.5714 32.3916 23.3324 31.3858 24.9066 31.3096C24.9765 31.3058 25.2936 31.2847 25.0475 31.1764L25.0459 31.176C24.6466 31.048 24.2102 31.0899 23.7373 31.3015L23.7304 31.3052C23.5661 31.3968 23.41 31.4984 23.2637 31.6092C23.1193 31.7188 22.9843 31.838 22.8597 31.9662C22.3756 32.4638 22.0797 33.0706 21.8967 33.7326C21.8361 33.96 21.03 34.504 20.9971 34.7562Z" fill="white"/>
<path d="M22.418 34.3554C22.4674 34.3457 22.5167 34.3347 22.5659 34.3236C22.7632 34.2786 22.9542 34.2244 23.1376 34.1604C24.0861 33.8309 24.8957 33.2416 25.565 32.3929L25.5731 32.3832L25.5777 32.3782V32.3784C25.6484 32.3004 25.7225 32.2275 25.7991 32.1608C25.8755 32.0943 25.9585 32.0303 26.0473 31.9692L26.0692 31.9547C25.9481 31.8017 25.8233 31.6686 25.695 31.5567C25.5766 31.5427 25.4599 31.5325 25.3452 31.5263C24.7699 31.4954 24.2798 31.5702 23.8754 31.7491C24.0408 31.7626 24.1871 31.8373 24.2721 31.9699C24.4356 32.2246 24.3113 32.5946 23.9944 32.7959C23.6773 32.9974 23.2878 32.9539 23.1241 32.6992C23.0662 32.6089 23.0444 32.5048 23.0546 32.3979C22.9273 32.5658 22.8182 32.7576 22.7274 32.9744C22.775 33.0312 22.8253 33.0807 22.8774 33.1233C22.9341 33.1697 22.9944 33.2076 23.0575 33.237C23.3777 33.3857 23.7868 33.306 24.2833 32.998C24.3278 32.9694 24.3698 32.939 24.4094 32.9075L24.4098 32.9073C24.5791 32.7729 24.6753 32.6311 24.6983 32.4824H24.6987C24.7215 32.3331 24.6722 32.1651 24.5509 31.9798C24.5228 31.9369 24.4899 31.892 24.4526 31.8458C24.9038 31.839 25.1035 32.1163 25.0389 32.5344L25.0394 32.5348C25.0029 32.7707 24.8645 32.9844 24.6242 33.1753V33.1755L24.6238 33.1757C24.5778 33.2121 24.5259 33.2494 24.4694 33.2861L24.4677 33.2871C23.8634 33.6623 23.3443 33.7491 22.9112 33.5478C22.823 33.5068 22.7383 33.4534 22.6583 33.388C22.6384 33.3718 22.6185 33.3548 22.5991 33.337C22.5324 33.564 22.4815 33.8116 22.4469 34.0815C22.4358 34.1699 22.4258 34.2616 22.418 34.3554Z" fill="white"/>
<path d="M81.8875 55.0405C80.6414 58.1003 78.3369 59.4329 78.1063 59.5604C76.2068 60.6107 73.8151 61.0605 71.2507 60.9065C71.0319 61.6234 70.7664 62.2827 70.4576 62.8853C70.1294 63.5246 69.7543 64.1001 69.335 64.6126C67.2015 67.2227 63.9294 68.2581 60.0435 68.0251C59.8251 68.742 59.5592 69.4008 59.2504 70.0036C58.9225 70.643 58.5471 71.2181 58.1282 71.7308C55.9942 74.3411 52.7226 75.3765 48.8367 75.1433C48.6183 75.8598 48.3524 76.519 48.0436 77.122C47.7157 77.7613 47.3403 78.3365 46.9214 78.8491C44.7878 81.4591 41.5156 82.4945 37.63 82.2616C37.4115 82.9783 37.146 83.6374 36.8368 84.24C36.5091 84.8795 36.1337 85.455 35.7146 85.9675C33.5812 88.5776 30.309 89.613 26.4232 89.38C26.2049 90.0965 25.9392 90.7559 25.63 91.3587C25.3023 91.9979 24.9271 92.573 24.5078 93.0855C22.3742 95.6958 19.1022 96.7312 15.2166 96.498C14.9979 97.2147 14.7321 97.8741 14.4231 98.4767C14.0955 99.116 13.7199 99.691 13.301 100.204C12.7457 100.883 12.1132 101.456 11.4131 101.927C11.7403 101.945 12.0673 101.96 12.3928 101.972H13.4434C13.6179 101.794 13.7857 101.606 13.9467 101.409C14.3524 100.912 14.7148 100.357 15.03 99.7428C15.3462 99.1261 15.6157 98.4465 15.835 97.7026L15.8377 97.6933L15.8764 97.5602L16.0153 97.5695C19.8491 97.8281 23.0717 96.837 25.1535 94.2903C25.5594 93.794 25.922 93.2392 26.2366 92.6248C26.5528 92.0079 26.8227 91.3284 27.0419 90.5848V90.5838L27.0448 90.5732L27.0841 90.4419L27.2219 90.4512C31.0553 90.7099 34.2785 89.719 36.3599 87.1723C36.7658 86.6757 37.1282 86.1207 37.4432 85.5063C37.7594 84.8896 38.0291 84.2098 38.2482 83.4664L38.2485 83.4653L38.2516 83.455L38.2907 83.3235L38.4285 83.3328C42.2623 83.5915 45.4851 82.6006 47.5667 80.0539C47.9726 79.5575 48.3348 79.0025 48.6496 78.3881C48.966 77.7714 49.2357 77.0918 49.4553 76.3479L49.4548 76.3471L49.4582 76.3365L49.4973 76.2055L49.6351 76.2146C53.4683 76.473 56.6913 75.4823 58.7733 72.9354C59.1788 72.4393 59.5414 71.8843 59.8562 71.2699C60.1726 70.653 60.4423 69.9733 60.6614 69.2297L60.6643 69.2204L60.7033 69.0868L60.8419 69.0963C64.6755 69.3548 67.8985 68.3641 69.9801 65.8174C70.386 65.3208 70.7482 64.7658 71.0634 64.1514C71.3794 63.5347 71.6491 62.8553 71.8682 62.1111V62.1104L71.8716 62.0999L71.9111 61.9688L72.0485 61.9783C74.1436 62.1195 76.1606 61.8253 77.8223 61.1595C78.6672 60.7673 81.3016 59.1751 82.8747 55.9493C84.3328 55.6014 86.3478 54.8789 87.9954 54.1206V52.9117C86.1646 53.7315 83.2837 54.7139 81.8875 55.0405Z" fill="white"/>
<path d="M52.2786 56.216L52.2794 56.2164L52.279 56.216C53.1052 56.2717 53.8877 56.2734 54.6268 56.2212C55.3629 56.1696 56.0569 56.0644 56.7078 55.9048C60.037 55.0909 62.2372 52.8627 63.3072 49.2206L63.3488 49.0756L63.4854 49.0976L63.4858 49.0978C64.3116 49.1533 65.0949 49.1553 65.8336 49.1034C66.5697 49.0514 67.2637 48.946 67.9146 48.7867C71.2438 47.9729 73.4436 45.7449 74.514 42.1025C73.8103 47.5921 69.0173 48.8702 67.9971 49.1197C67.3289 49.2833 66.615 49.3916 65.8576 49.4448C65.1438 49.4954 64.3894 49.4962 63.5979 49.4479C62.4762 53.1388 60.2073 55.4026 56.7907 56.2377C56.1583 56.3926 54.0667 56.7778 52.2786 56.216ZM34.1116 43.8364C36.3569 45.3943 37.839 46.8824 38.558 48.3001C39.313 49.7894 39.2356 51.199 38.3258 52.5266L38.3146 52.543C37.1622 54.251 36.2174 55.9139 35.4796 57.5316C35.2164 58.1087 34.9796 58.6794 34.7693 59.245C36.4815 57.2232 39.2281 56.3264 43.0085 56.5562V56.5558C44.0381 56.5869 44.8047 56.4728 45.3064 56.2116C45.7665 55.9731 45.9985 55.603 46.0008 55.1023C45.9817 55.0224 45.9631 54.9509 45.9447 54.8882C45.842 54.5436 45.7118 54.3019 45.5537 54.1644C45.4159 54.0439 45.2485 54.0064 45.0529 54.0514C45.0363 54.0553 45.0181 54.0597 44.9995 54.0652L44.9939 54.0665C44.467 54.2042 44.1625 54.6014 44.0824 55.2572L44.0338 55.6542L43.7778 55.3452C42.9528 54.3489 42.928 53.3618 43.3214 52.6032C43.5046 52.2506 43.7792 51.9482 44.1064 51.7196C44.4318 51.4918 44.8105 51.3363 45.2035 51.2746C46.0597 51.1408 46.9801 51.449 47.5679 52.421L47.5687 52.4227C48.1391 53.3858 48.3198 54.3104 48.1964 55.1149C48.1244 55.5827 47.9506 56.0099 47.6912 56.38C47.4325 56.749 47.0886 57.0625 46.6763 57.3038C46.6289 57.3318 46.5809 57.3587 46.532 57.3841C47.0308 57.2968 47.5025 57.1909 47.9472 57.0679C48.4506 56.929 48.9239 56.7656 49.3672 56.5784C51.6204 55.6277 51.9648 54.7567 52.5718 52.5858C53.1766 55.1106 50.0425 56.666 49.5026 56.894C49.0491 57.0853 48.5611 57.2531 48.0406 57.3974C47.5875 57.5229 47.0745 57.519 46.3284 57.4837C45.8424 57.7026 44.6954 58.0095 43.6991 57.4506C44.8 57.6177 45.7717 57.4363 46.5014 57.0089C46.87 56.7927 47.1778 56.513 47.4085 56.1841C47.6389 55.8559 47.7928 55.4777 47.856 55.0634C47.9675 54.3336 47.7999 53.4875 47.2723 52.5968C46.7678 51.7641 45.9848 51.4993 45.2582 51.6132C44.9175 51.6664 44.5882 51.802 44.3045 52.0006C44.0226 52.198 43.7856 52.4579 43.6281 52.761C43.333 53.3301 43.321 54.0586 43.819 54.8215C43.9837 54.2452 44.3442 53.8836 44.901 53.7366V53.7364C44.9252 53.7291 44.9498 53.7229 44.9748 53.7169C45.2849 53.6457 45.5546 53.7089 45.7812 53.9066C45.9885 54.0876 46.1531 54.3823 46.2744 54.7902C46.2998 54.8751 46.3224 54.9596 46.3414 55.0423L46.3456 55.0597V55.0802C46.3503 55.7314 46.0569 56.21 45.4668 56.5165C44.9126 56.8047 44.0888 56.9321 42.9982 56.8987L42.993 56.8981C39.2683 56.671 36.5889 57.5583 34.9562 59.5585C34.2892 60.3748 33.7552 61.1744 33.5095 62.4374C33.4011 62.8376 33.1128 64.2533 32.4393 64.8778C32.4331 64.9706 32.424 65.0619 32.41 65.1514C32.3383 65.619 32.1643 66.0462 31.905 66.4164C31.6463 66.7854 31.3021 67.0986 30.89 67.3404C30.8428 67.3678 30.7948 67.3949 30.746 67.4206C31.2443 67.333 31.7162 67.2272 32.1612 67.1044C32.6643 66.965 33.1378 66.802 33.5812 66.6146C35.5392 65.7886 36.2371 64.5811 36.7851 62.6221C36.4559 66.059 34.2629 66.8776 32.2539 67.4338C31.8011 67.5591 31.288 67.5554 30.5421 67.5204C30.056 67.7391 28.909 68.0455 27.9127 67.487C29.0135 67.654 29.9854 67.4725 30.7151 67.0451C31.0839 66.8289 31.3915 66.5494 31.6218 66.2205C31.852 65.8923 32.006 65.5142 32.0695 65.1C32.1813 64.3703 32.0132 63.5241 31.4859 62.6333C30.9817 61.8006 30.1984 61.5357 29.4713 61.6496C29.1308 61.7033 28.8016 61.8387 28.518 62.0369C28.2357 62.2342 27.999 62.4945 27.8417 62.7977C27.5465 63.3667 27.5345 64.0952 28.0323 64.8579C28.1968 64.2818 28.5576 63.9203 29.1145 63.7734V63.7728C29.1383 63.7656 29.1635 63.7592 29.1882 63.7536C29.4988 63.6821 29.7679 63.7455 29.9949 63.9435C30.2023 64.1242 30.3664 64.4189 30.4881 64.8271C30.5136 64.9122 30.5355 64.9965 30.5547 65.0791L30.5589 65.0963V65.1172C30.5634 65.7681 30.2704 66.2468 29.6801 66.5535C29.1257 66.8414 28.302 66.9687 27.2113 66.9358L27.2061 66.935C23.4812 66.7078 20.8018 67.5951 19.1691 69.5951C18.8516 69.9847 18.5729 70.4162 18.3332 70.8902C18.0935 71.3644 17.8928 71.8834 17.7307 72.4452L17.7311 72.4454L17.7227 72.4744C17.6142 72.8747 17.3259 74.2905 16.652 74.9149C16.646 75.008 16.6367 75.1 16.6227 75.1901C16.551 75.6579 16.3768 76.0851 16.1175 76.4551C15.8588 76.8244 15.5148 77.1373 15.1027 77.3789C15.0557 77.4067 15.0077 77.4336 14.9587 77.4595C15.457 77.3719 15.9289 77.2661 16.3737 77.1431C16.8768 77.0037 17.3505 76.8405 17.7941 76.6535C20.0466 75.703 20.3914 74.8314 20.9978 72.6612C21.603 75.1857 18.4692 76.7411 17.9292 76.9691C17.4755 77.1609 16.9879 77.3286 16.4666 77.4729C16.0138 77.5982 15.5007 77.5943 14.7548 77.5593C14.2689 77.7778 13.1217 78.0849 12.1256 77.526C13.2262 77.6933 14.1983 77.5115 14.928 77.0843C15.2966 76.8681 15.6044 76.5885 15.8347 76.2594C16.0647 75.9314 16.2191 75.5531 16.2824 75.1391C16.3942 74.4094 16.2261 73.563 15.6988 72.6722C15.1944 71.8395 14.4113 71.5746 13.6842 71.6885C13.3437 71.742 13.0147 71.8778 12.7309 72.076C12.4488 72.2733 12.2117 72.5334 12.0546 72.8368C11.7595 73.4061 11.7474 74.1344 12.2454 74.8971C12.4099 74.321 12.7707 73.9594 13.3274 73.8124C13.3514 73.8049 13.3764 73.7983 13.4013 73.7929C13.7117 73.7215 13.9814 73.7846 14.208 73.9824C14.4152 74.1634 14.5797 74.458 14.701 74.866C14.7265 74.9511 14.7486 75.0354 14.7681 75.118L14.7722 75.1354L14.7724 75.1561C14.777 75.8072 14.4833 76.286 13.8934 76.5922C13.339 76.8805 12.5153 77.0076 11.4248 76.9747L11.4194 76.9737C7.6943 76.7469 5.01537 77.6341 3.38244 79.6341C3.06455 80.0234 2.78598 80.4553 2.54673 80.9291C2.30706 81.4036 2.1061 81.9225 1.94364 82.4843L1.94405 82.4841L1.93598 82.5135C1.8354 82.8848 1.57938 84.1315 1.00424 84.808V87.0737C1.35317 86.9643 1.6868 86.8424 2.00469 86.708C4.25748 85.7571 4.60228 84.8858 5.20868 82.7156C5.81404 85.24 2.68001 86.7956 2.13984 87.0236C1.78241 87.1745 1.40367 87.3108 1.00403 87.4323V91.8879C1.01893 92.4145 1.04335 92.9302 1.08681 93.4344C3.36526 93.038 5.28774 92.0285 6.69136 90.3112C7.09721 89.8148 7.45981 89.26 7.7746 88.6454C8.09104 88.0285 8.36051 87.3491 8.57968 86.6053L8.58258 86.5959L8.62128 86.4628L8.75994 86.4721C12.5937 86.7305 15.8167 85.7397 17.8984 83.193C18.3042 82.6964 18.6666 82.1416 18.9814 81.5272C19.2978 80.9103 19.5675 80.2309 19.7867 79.487L19.7869 79.4862L19.7898 79.476L19.8291 79.3443L19.967 79.3537C23.8003 79.6123 27.0233 78.6214 29.105 76.0747C29.5106 75.5781 29.8732 75.0236 30.1882 74.409C30.5044 73.7921 30.7741 73.1128 30.9933 72.3688L30.9935 72.368L30.9964 72.3576L31.0359 72.2261L31.1738 72.2356C35.0073 72.4941 38.2301 71.5032 40.3118 68.9563C40.7178 68.4597 41.0802 67.9049 41.395 67.2907C41.7111 66.674 41.9809 65.9942 42.1999 65.2506L42.2001 65.2495L42.2032 65.2394L42.2425 65.1079L42.3804 65.117C46.2139 65.3754 49.4363 64.3848 51.5182 61.8383C51.924 61.3417 52.2866 60.7867 52.6014 60.1727C52.9174 59.5556 53.1875 58.876 53.4067 58.1321L53.4096 58.1228L53.4481 57.9894L53.5872 57.999C57.4207 58.2576 60.6438 57.2665 62.7254 54.7198C63.1312 54.2234 63.4938 53.6685 63.8082 53.0543C64.1247 52.4376 64.3943 51.7581 64.6135 51.0143L64.6139 51.0133L64.6168 51.0027L64.6559 50.8714L64.7938 50.8807C68.6273 51.1392 71.8504 50.1483 73.9316 47.6018C74.3378 47.105 74.7 46.5502 75.0148 45.936C75.3309 45.3191 75.6009 44.6397 75.8201 43.8959L75.8205 43.895L75.8234 43.8849L75.8625 43.7534L76.0004 43.7625C82.5605 44.2052 85.9455 39.5088 87.9969 36.77V28.003C86.6517 28.286 85.3958 28.9891 84.2304 30.1115C83.9047 30.4256 83.5837 30.7743 83.2695 31.1572C83.1932 31.2502 82.9311 31.596 82.7674 31.8124L82.7633 31.8108C82.6043 32.0288 82.4499 32.2508 82.3005 32.4759C82.3578 32.2442 82.446 32.0127 82.5555 31.7872L82.5559 31.7874C82.9618 31.0982 83.6983 30.1471 83.9906 29.8655C84.2985 29.5689 86.0385 28.0324 87.9967 27.7398V26.77C85.478 26.9835 83.5862 27.8648 82.3218 29.4136C82.0474 29.7499 81.8019 30.1183 81.5861 30.5176C81.5412 30.6196 81.3117 31.0854 81.262 31.1899C81.1181 31.5281 80.9923 31.8862 80.8832 32.2637H80.8837L80.8756 32.2927C80.7487 32.76 80.3776 34.6124 79.4324 34.9727C79.4821 34.9069 79.533 34.8311 79.5852 34.746C79.6369 34.6615 79.6887 34.5674 79.7408 34.4651C80.0113 33.9327 80.2789 33.1779 80.5428 32.2013L80.5432 32.1995L80.5513 32.1705L80.5521 32.1701C80.5821 32.0659 80.6132 31.9624 80.6463 31.8611C80.5949 31.8822 81.8609 28.852 81.8036 27.958C81.7914 27.7758 81.7647 27.6014 81.7235 27.4362C81.6819 27.2699 81.6256 27.1104 81.5546 26.9595L81.553 26.9557C80.6763 25.1871 79.4473 24.7141 77.8676 25.5366C77.6497 25.694 77.4613 25.8543 77.3026 26.0164C76.9238 26.4047 76.7212 26.804 76.6954 27.2136C76.6691 27.6242 76.8204 28.056 77.1478 28.5078C77.2554 28.6569 77.3831 28.8085 77.5298 28.9624C77.7699 28.5182 78.0311 28.2022 78.3123 28.0146C78.6605 27.7826 79.0326 27.7439 79.4291 27.8975L79.4558 27.9077L79.4765 27.9249C79.5169 27.9586 79.555 27.9916 79.5877 28.023C79.9122 28.3364 80.0477 28.7039 79.9939 29.1245V29.1253C79.6177 32.058 75.7644 31.506 73.8598 30.6691C73.6638 30.6571 73.3844 30.5863 73.063 30.5049C72.5694 30.38 71.97 30.2285 71.4934 30.2432L71.4925 30.243L71.4869 30.2434C71.2185 30.2521 70.947 30.2786 70.6732 30.3235C70.3979 30.3684 70.1189 30.4314 69.8389 30.5126C68.385 30.9325 66.8485 31.8365 65.2303 33.2247L65.2255 33.2291L65.2158 33.2357L65.1955 33.2498L65.1947 33.2502C64.9682 33.4049 64.746 33.5358 64.528 33.6424C64.307 33.7509 64.0895 33.835 63.8771 33.8946C63.576 33.9795 63.7105 33.9613 63.9415 34.0829C64.2308 34.2351 64.5171 34.4045 64.7985 34.5909C65.4919 35.05 68.3003 37.3751 68.6358 39.0526C67.3576 37.2011 66.0149 35.8089 64.6073 34.8768C64.3329 34.695 64.0568 34.531 63.7807 34.3858C63.5067 34.2415 63.2306 34.115 62.9541 34.0054C62.4626 33.9795 60.8476 33.4589 61.1394 32.6722C61.9286 33.5401 62.8096 33.8381 63.7823 33.5648C63.9767 33.5099 64.1748 33.4335 64.3757 33.3351C64.5798 33.2349 64.7884 33.1121 64.9999 32.968L65.0109 32.9603C66.6645 31.5424 68.2418 30.6167 69.7427 30.1835C70.037 30.0984 70.3288 30.0326 70.6162 29.9853C70.906 29.9379 71.1922 29.9096 71.4747 29.9007H71.476L71.4811 29.9004C71.8272 29.8897 72.2161 29.9549 72.5884 30.0377C72.1461 29.7942 71.6854 29.5176 71.2055 29.2082C70.644 28.8458 70.0603 28.4405 69.456 27.9928L69.4059 27.9557C67.5828 26.8922 65.715 26.4755 63.8026 26.7052C62.1685 26.9015 60.4954 27.571 58.7855 28.7114C59.1027 28.6128 59.4132 28.5207 59.7155 28.4358C60.3505 28.2581 60.9625 28.1075 61.5511 27.9839C61.9561 27.899 66.5921 26.8352 68.3655 28.6412C66.8193 27.8089 64.5711 27.7016 61.6227 28.3196C61.0492 28.4399 60.444 28.589 59.8097 28.7667C59.1719 28.9454 58.5133 29.1498 57.8343 29.3805L57.8289 29.3815V29.3819C57.5604 29.4925 57.2988 29.5813 57.0459 29.6488L57.0455 29.6482C56.8135 29.7097 56.5888 29.7532 56.3721 29.7783C59.77 32.4144 62.1784 35.0905 63.5963 37.8068C63.9738 38.5302 66.4457 43.2257 64.0798 47.7049C66.1991 41.5658 63.4529 35.5983 55.842 29.8039C55.3433 29.793 53.5532 29.2078 53.5056 28.1827C54.2321 29.1336 55.1537 29.5542 56.2696 29.444C56.4919 29.4221 56.7212 29.38 56.9563 29.3177V29.3171C57.192 29.2546 57.4365 29.1713 57.6879 29.068C59.7563 27.5037 61.7806 26.602 63.7602 26.3641C67.0372 25.9118 68.5009 28.0574 70.7057 27.2811C71.9348 26.8483 72.7927 26.2765 73.2794 25.5668C73.7584 24.8679 73.88 24.0249 73.6433 23.0384C73.5996 22.8566 73.5435 22.6679 73.4744 22.4735C72.8599 21.1264 72.0108 20.4681 70.9277 20.4996C70.7135 20.5058 70.49 20.5381 70.2572 20.5963C70.0235 20.6549 69.777 20.741 69.5196 20.8549C68.7304 21.2869 68.3165 21.8143 68.277 22.4358C68.2414 22.9992 68.5046 23.6526 69.0667 24.3966C69.1476 24.0255 69.3037 23.7331 69.5361 23.5196C70.6146 22.5285 71.8963 23.4513 71.4807 24.8361C71.4416 24.9661 71.389 25.1003 71.323 25.2384C71.2582 25.3743 71.1796 25.5153 71.0877 25.6609L71.0861 25.6631L71.084 25.6665L71.0751 25.6799L71.0658 25.6901C69.759 27.08 67.5143 27.0406 64.3331 25.5712C63.725 25.2906 63.0812 24.9568 62.4025 24.5706C61.7256 24.1852 61.014 23.7478 60.2694 23.2595C58.9796 22.6575 57.6977 22.4223 56.424 22.554C55.145 22.6863 53.8689 23.1895 52.5969 24.0626L52.5888 24.068C51.4271 24.77 50.4012 25.2703 49.5123 25.5691C48.8833 25.781 48.3189 25.893 47.8206 25.905C50.4182 27.8292 52.5294 30.3353 54.1551 33.4246H54.1547L54.1594 33.4335C54.7965 34.5929 55.3503 35.7354 55.8189 36.8601C56.2887 37.9851 56.6755 39.0961 56.9789 40.1928C58.1014 44.2456 58.0795 48.0756 56.9141 51.6815C56.7976 52.042 56.6235 52.759 56.2758 53.5212C56.0478 54.0213 55.2321 55.3986 54.758 55.5794C57.5464 50.9056 58.1766 45.8068 56.6469 40.2844C56.3483 39.2059 55.9658 38.1086 55.5005 36.9926C55.0349 35.8768 54.4873 34.7451 53.8571 33.5989L53.8502 33.5867L53.8486 33.5838C51.2226 28.5925 47.3102 25.1458 42.1121 23.2446C41.1013 22.8748 40.0394 22.5629 38.9278 22.3092C37.8686 22.0676 36.7649 21.8795 35.6164 21.7441C35.5783 22.4086 35.4873 23.0189 35.3424 23.5737C36.1891 23.6114 37.0066 23.6853 37.7941 23.7957C38.6281 23.9127 39.4272 24.0703 40.1911 24.268C44.1195 25.2865 47.1374 27.3761 49.2439 30.536L49.2511 30.5474C50.294 32.4213 50.6417 34.1373 50.4581 35.6109C50.2923 36.939 49.6961 38.0688 48.7883 38.9394C47.8854 39.8058 46.6738 40.4134 45.2743 40.7031C43.2817 41.1154 40.9022 40.8839 38.481 39.8354C38.1726 40.4861 37.7755 41.1044 37.2831 41.666C36.4838 42.5776 35.4339 43.338 34.1116 43.8364ZM1.1191 93.7757C1.16132 94.177 1.21699 94.5711 1.29067 94.9569C3.87998 94.657 6.05702 93.6237 7.60385 91.7316C8.00971 91.235 8.3723 90.68 8.6873 90.0656C9.00354 89.4489 9.273 88.7693 9.49218 88.0254L9.49508 88.0161L9.53357 87.8829L9.67244 87.8923C13.5062 88.1507 16.729 87.1598 18.8107 84.6131C19.2167 84.1168 19.5791 83.5618 19.8939 82.9474C20.2099 82.3305 20.4798 81.6512 20.699 80.9074L20.6992 80.9066L20.7023 80.8962L20.7414 80.7647L20.8792 80.7738C24.713 81.0327 27.9358 80.0418 30.0173 77.4951C30.4233 76.9983 30.7859 76.4437 31.1005 75.8289C31.4167 75.2122 31.6864 74.5328 31.9056 73.7892V73.7881L31.9087 73.778L31.9482 73.6465L32.0858 73.6556C35.9196 73.9145 39.1424 72.9236 41.2241 70.3767C41.6299 69.8801 41.9923 69.3253 42.3071 68.7109C42.6236 68.094 42.893 67.4144 43.1124 66.6707L43.1126 66.6701L43.1155 66.6595L43.1546 66.528L43.2925 66.5374C47.126 66.7958 50.3488 65.8051 52.4303 63.2584C52.8365 62.7621 53.1991 62.2071 53.5135 61.5927C53.8299 60.9758 54.0996 60.2961 54.3192 59.5523L54.3217 59.543L54.3606 59.4098L54.4993 59.4191C58.3328 59.6778 61.5559 58.6867 63.6375 56.14C64.0433 55.6434 64.4059 55.0886 64.7207 54.4742C65.0368 53.8575 65.3064 53.1781 65.526 52.4341V52.4332L65.5289 52.4227L65.5684 52.2914L65.7059 52.3007C69.5398 52.5591 72.7629 51.5682 74.8441 49.0216C75.2499 48.5252 75.6125 47.9702 75.9273 47.356C76.2433 46.7391 76.513 46.0595 76.7326 45.316V45.315L76.7355 45.3046L76.775 45.1731L76.9129 45.1825C78.843 45.3125 83.7884 44.6772 87.9963 39.1583V37.4041C86.2579 39.8482 82.7583 44.5105 76.1138 44.1123C75.8954 44.8288 75.6299 45.4881 75.3207 46.0907C74.9933 46.7302 74.6179 47.3055 74.1986 47.8178C72.0654 50.4281 68.7929 51.4635 64.9074 51.2303C64.6886 51.947 64.4231 52.6061 64.1143 53.2092C63.7865 53.8482 63.4111 54.4237 62.9922 54.9362C60.8586 57.5465 57.5865 58.5819 53.7006 58.3485C53.4818 59.0654 53.2163 59.7244 52.9071 60.3272C52.5793 60.9667 52.2043 61.5419 51.7849 62.0545C49.6514 64.6645 46.3797 65.6999 42.4936 65.467C42.2748 66.1835 42.0095 66.8426 41.7005 67.4454C41.3729 68.0849 40.9972 68.6604 40.5783 69.1727C38.4448 71.783 35.1725 72.8182 31.2868 72.5852C31.0682 73.3019 30.8029 73.961 30.4935 74.5639C30.1659 75.2031 29.7904 75.7782 29.3713 76.2911C27.2382 78.9012 23.9663 79.9366 20.08 79.7034C19.8614 80.4201 19.5959 81.0795 19.2869 81.6821C18.9591 82.3216 18.5836 82.8966 18.1645 83.4091C16.0312 86.0194 12.7591 87.0548 8.87336 86.8217C8.65481 87.5386 8.38886 88.1979 8.07987 88.8003C7.75204 89.4398 7.37681 90.0149 6.95772 90.5276C5.49284 92.3199 3.48944 93.3698 1.1191 93.7757ZM1.36042 95.2944C1.5055 95.9453 1.7077 96.5727 1.99103 97.1755C2.06678 97.1714 2.14191 97.1668 2.21662 97.1617C2.95279 97.1097 3.64673 97.0041 4.29784 96.845C7.62683 96.031 9.82684 93.8032 10.897 90.1608C10.1934 95.6506 5.40053 96.9287 4.38062 97.178C3.71234 97.3418 2.99873 97.4499 2.24084 97.5034L2.15743 97.5089C2.49023 98.1385 2.91905 98.7398 3.47206 99.3112C5.52388 101.164 8.16596 101.694 10.8296 101.888C11.6603 101.392 12.4004 100.762 13.0345 99.9854C13.4402 99.4891 13.8026 98.9343 14.1178 98.3197C14.4342 97.7028 14.7037 97.0233 14.9229 96.2797L14.9254 96.2702L14.9643 96.137L15.1029 96.1464C18.9367 96.405 22.1597 95.4139 24.2414 92.8672C24.6472 92.3708 25.0096 91.8158 25.3242 91.2016C25.6406 90.5845 25.9103 89.9051 26.1295 89.1615V89.1604L26.1326 89.1503L26.1721 89.0188L26.3099 89.0279C30.1433 89.2868 33.3663 88.2959 35.448 85.749C35.8536 85.2526 36.216 84.6976 36.5312 84.0834C36.8472 83.4665 37.1167 82.7867 37.3361 82.043V82.0424L37.3394 82.0318L37.3787 81.9004L37.5163 81.9097C41.3501 82.1685 44.5729 81.1774 46.6546 78.6307C47.0604 78.1344 47.423 77.5794 47.7378 76.9648C48.0538 76.3483 48.3235 75.6684 48.5431 74.9248V74.9238L48.546 74.9136L48.5855 74.7821L48.7229 74.7914C52.5565 75.0499 55.7795 74.0592 57.8612 71.5125C58.267 71.0159 58.6296 70.4609 58.944 69.8467C59.2604 69.2298 59.5301 68.5502 59.7493 67.8064L59.7522 67.7971L59.7911 67.6641L59.9297 67.673C63.7637 67.9317 66.9867 66.9408 69.068 64.3941C69.4742 63.8975 69.8364 63.3427 70.1512 62.7281C70.4672 62.1116 70.7373 61.4322 70.9561 60.6881L70.9565 60.6873L70.9598 60.6769L70.9989 60.5457L71.1368 60.555C73.7374 60.7302 76.1419 60.291 78.0385 59.2094C79.5369 58.3549 80.7731 56.7188 81.6459 54.7641C84.1092 54.0396 86.2601 53.3827 87.9967 52.5173V50.9516C85.7307 52.0984 83.6841 52.7426 80.6649 53.3001C79.2462 55.952 77.5054 57.6364 74.4362 58.3866C73.8043 58.5415 71.7125 58.9265 69.9242 58.3651H69.925C70.7508 58.4206 71.5337 58.4225 72.2728 58.3701C73.0089 58.3183 73.7025 58.2129 74.3538 58.0536C77.1409 57.3723 79.2437 55.6213 80.4478 52.9576C83.6176 52.4173 86.0676 51.491 87.9967 50.4094V39.6842C83.9003 44.9731 78.8674 45.6434 77.0273 45.5331C76.809 46.2496 76.543 46.9089 76.2342 47.5115C75.9064 48.151 75.531 48.7263 75.1121 49.2386C72.9785 51.8488 69.7064 52.8845 65.8209 52.6511C65.6022 53.3676 65.3366 54.0267 65.0274 54.6297C64.6996 55.269 64.3242 55.8443 63.9053 56.357C61.7717 58.9671 58.4996 60.0025 54.6137 59.7695C54.3954 60.4862 54.1294 61.1452 53.8206 61.748C53.4928 62.3877 53.1174 62.9627 52.6981 63.4752C50.5649 66.0855 47.2928 67.1207 43.4071 66.8877C43.1883 67.6043 42.923 68.2636 42.614 68.8664C42.2864 69.5059 41.9106 70.0812 41.4917 70.5937C39.3583 73.2039 36.086 74.2392 32.2005 74.0062C31.982 74.7227 31.7162 75.382 31.4072 75.9849C31.0796 76.6241 30.704 77.1992 30.2849 77.7119C28.1517 80.3222 24.8794 81.3574 20.9937 81.1244C20.7749 81.8411 20.5094 82.5003 20.2006 83.1031C19.8728 83.7424 19.4974 84.3174 19.0783 84.8299C16.9447 87.4402 13.6726 88.4754 9.78689 88.2424C9.56834 88.9594 9.30239 89.6187 8.99361 90.2211C8.66598 90.8608 8.29035 91.4359 7.87104 91.9484C6.26915 93.9088 4.02485 94.9809 1.36042 95.2944ZM7.52003 84.6264H7.52065V84.6262C8.34643 84.6821 9.12937 84.6839 9.86823 84.6316C10.6042 84.5798 11.2983 84.4744 11.9494 84.3153C15.2784 83.5013 17.4782 81.2733 18.5484 77.631L18.5902 77.4862L18.7264 77.5082H18.7273C19.5532 77.5641 20.3364 77.5655 21.0752 77.5137C21.8112 77.4618 22.5051 77.3564 23.156 77.1971C26.4852 76.3831 28.685 74.1553 29.7555 70.5131C29.0516 76.0029 24.2587 77.2808 23.2388 77.5305C22.5703 77.6941 21.8567 77.8024 21.0993 77.8554C20.385 77.906 19.6313 77.9068 18.8394 77.8587C17.7179 81.5496 15.4488 83.8132 12.032 84.6483C11.4002 84.803 9.30798 85.1882 7.52003 84.6264ZM33.5315 75.7867L33.5321 75.7869C34.3581 75.8428 35.141 75.8443 35.8801 75.7925C36.6161 75.7403 37.3102 75.6349 37.9609 75.4758C41.2901 74.6618 43.4901 72.434 44.5603 68.7917L44.6019 68.6467L44.7385 68.6689L44.7393 68.6687L44.7391 68.6689C45.5649 68.7246 46.3483 68.7264 47.0867 68.6742C47.8229 68.6223 48.5168 68.5171 49.1677 68.3576C52.4969 67.5438 54.6967 65.3158 55.7671 61.6736C55.063 67.1634 50.2704 68.4415 49.2507 68.6908C48.5822 68.8546 47.8686 68.9629 47.1107 69.0161C46.3969 69.0665 45.6429 69.0673 44.8511 69.019C43.7296 72.7103 41.4604 74.9737 38.0439 75.809C37.4116 75.9635 35.3196 76.3485 33.5315 75.7867Z" fill="white"/>
<path d="M46.1193 20.0643C46.8574 19.833 51.1972 18.7166 53.8537 20.9013C51.3447 19.7539 48.801 19.5839 46.2232 20.3917C45.718 20.5501 45.2118 20.7456 44.706 20.9777C44.1673 21.225 43.6449 21.5058 43.1387 21.8131C43.4075 21.0061 45.5684 20.237 46.1193 20.0643Z" fill="#10192E"/>
<path d="M5.05088 80.0844C5.44928 79.7005 8.24948 77.236 10.816 78.0882C8.79173 77.9846 6.94935 78.7322 5.29013 80.3304C4.96416 80.6446 4.64317 80.9933 4.329 81.376C3.98213 81.798 3.66299 82.2406 3.36041 82.6949C3.63174 81.6013 4.61647 80.5025 5.05088 80.0844Z" fill="#10192E"/>
<path d="M20.8376 70.0462C21.2364 69.6622 24.0366 67.1978 26.603 68.0497C24.5787 67.9466 22.7363 68.6939 21.0773 70.2924C20.7513 70.6063 20.4303 70.955 20.1161 71.3379C19.7693 71.76 19.4501 72.2025 19.1473 72.6566C19.4189 71.5628 20.4036 70.4645 20.8376 70.0462Z" fill="#10192E"/>
<path d="M42.4258 39.0045C42.8892 38.7589 43.2674 38.549 43.6239 38.3005C43.9774 38.0538 44.2895 37.7925 44.5596 37.5171C45.9303 36.1184 46.1984 34.3437 45.3633 32.1951C47.0893 34.3674 45.4324 37.1184 44.8063 37.7569C44.2053 38.3704 42.7197 39.005 42.4258 39.0045Z" fill="#10192E"/>
<path d="M71.9746 39.6726C76.3988 39.7225 79.7632 37.7163 81.2147 33.4705C81.1341 37.1835 75.5066 41.1878 71.9746 39.6726Z" fill="#10192E"/>
<path d="M76.4956 32.8466C74.1091 31.1059 71.0572 31.3823 67.3408 33.6751C69.2604 31.8806 73.9704 30.1949 76.4956 32.8466Z" fill="#10192E"/>
<path d="M36.6248 60.0101C37.0234 59.6262 39.8236 57.1613 42.3904 58.0137C40.3661 57.9101 38.5235 58.6575 36.8645 60.2559C36.5383 60.5701 36.2175 60.9188 35.9034 61.3017C35.5565 61.724 35.2371 62.1661 34.9346 62.6202C35.2061 61.5268 36.1908 60.4282 36.6248 60.0101Z" fill="#10192E"/>
<path d="M54.1687 24.6433C54.9068 24.412 59.247 23.2956 61.9035 25.4801C59.3941 24.3329 56.8503 24.1627 54.273 24.9705C53.7678 25.1289 53.2612 25.3244 52.7556 25.5565C52.2171 25.8038 51.6945 26.0846 51.1885 26.3919C51.4571 25.5851 53.618 24.816 54.1687 24.6433Z" fill="#10192E"/>
<path d="M59.32 36.8304C59.8755 37.7751 62.9398 43.6571 60.6512 48.4243C61.5445 44.1789 61.002 40.3717 59.0231 37.0035C58.6375 36.3477 58.1973 35.708 57.7037 35.0856C57.1939 34.4432 56.6401 33.8346 56.0527 33.2618C57.5969 33.9663 58.9697 36.2342 59.32 36.8304Z" fill="#10192E"/>
<path d="M24.9111 87.2195H24.9117C25.7375 87.2752 26.5206 87.2769 27.2591 87.2247C27.9952 87.1727 28.6894 87.0675 29.3405 86.9083C32.6693 86.0942 34.8693 83.8662 35.9395 80.2241L35.9811 80.0791L36.1177 80.1013L36.1183 80.1011C36.9443 80.157 37.7272 80.1588 38.4657 80.1067C39.2018 80.0547 39.896 79.9495 40.5469 79.7902C43.8759 78.9762 46.0757 76.7484 47.1461 73.106C46.4424 78.5956 41.6496 79.8741 40.6295 80.1234C39.9612 80.287 39.2476 80.3953 38.4899 80.4485C37.7761 80.4989 37.0219 80.4997 36.2301 80.4519C35.1085 84.1425 32.8396 86.4063 29.4228 87.2412C28.791 87.3957 26.699 87.7811 24.9111 87.2195Z" fill="#10192E"/>
<path d="M83.5762 44.6517L83.577 44.6515H83.5766C84.3136 44.2731 84.9854 43.8714 85.5916 43.446C86.1963 43.0223 86.7367 42.5744 87.2125 42.1023C87.4971 41.8202 87.7583 41.5295 87.9959 41.2305V41.7681C87.8257 41.9642 87.6455 42.1563 87.4551 42.3452C86.9931 42.8035 85.3985 44.2114 83.5762 44.6517Z" fill="#10192E"/>
</svg>
