<svg width="64" height="80" viewBox="0 0 64 80" fill="none" xmlns="http://www.w3.org/2000/svg">
<path fill-rule="evenodd" clip-rule="evenodd" d="M0.447414 -1.55249H31.9997H63.5522V63.9857C63.4809 69.5187 60.7706 71.4156 55.0303 71.5736C49.8257 71.5736 44.6213 71.5736 39.4171 71.5736C35.7201 71.713 33.1686 73.7403 31.9997 78.0457C30.8308 73.7403 28.2793 71.713 24.5823 71.5736C19.3779 71.5736 14.1735 71.5736 8.96914 71.5736C3.22897 71.4157 0.518355 69.5187 0.447266 63.9857L0.447414 -1.55249Z" fill="#10192E"/>
<path fill-rule="evenodd" clip-rule="evenodd" d="M0.000149333 -2H64V63.9858L64 63.9915C63.9635 66.8249 63.249 68.8344 61.7062 70.1372C60.1829 71.4235 57.9416 71.9412 55.0429 72.021L55.0306 72.0213L39.426 72.0212C37.6623 72.0891 36.2051 72.604 35.051 73.588C33.8915 74.5766 32.9998 76.0713 32.4319 78.163L32 79.7539L31.5681 78.163C31.0002 76.0713 30.1085 74.5766 28.949 73.588C27.7949 72.604 26.3377 72.0891 24.574 72.0212H8.95712C6.0585 71.9415 3.8171 71.4236 2.29384 70.1373C0.750985 68.8345 0.0364418 66.8249 3.69465e-05 63.9915L0 63.9858L0.000149333 -2ZM0.895252 -1.1049L0.895105 63.9829C0.93023 66.6808 1.60651 68.3854 2.87133 69.4534C4.15526 70.5376 6.1373 71.0473 8.97555 71.1261H24.5911L24.5995 71.1264C26.5291 71.1992 28.1934 71.7675 29.5297 72.9069C30.5798 73.8022 31.4038 75.0299 32 76.5932C32.5962 75.0299 33.4202 73.8022 34.4703 72.9069C35.8066 71.7675 37.4709 71.1992 39.4005 71.1264L39.4089 71.1261H55.0244C57.8628 71.0473 59.8448 70.5375 61.1287 69.4533C62.3935 68.3853 63.0697 66.6807 63.1049 63.9827V-1.1049H0.895252Z" fill="#10192E"/>
<path fill-rule="evenodd" clip-rule="evenodd" d="M61.184 69.5193C59.417 70.9147 57.2 71.1305 55.0231 71.2125H39.407C35.8741 71.4042 33.3126 73.0941 31.9995 76.8449C30.767 73.3244 28.3215 71.4149 24.5919 71.2125H10.0682C10.1411 71.1321 10.2123 71.0493 10.2819 70.9643C10.5823 70.5967 10.8515 70.1843 11.0866 69.7259C11.3082 69.2936 11.4987 68.8209 11.6556 68.3068C14.4418 68.474 16.7883 67.7317 18.3183 65.8597C18.6188 65.492 18.8879 65.0796 19.1232 64.6212C19.3447 64.1889 19.535 63.7164 19.6919 63.2023C22.4783 63.3695 24.8247 62.6272 26.3549 60.7552C26.6553 60.3877 26.9245 59.9753 27.1594 59.5167C27.3813 59.0846 27.5716 58.6118 27.7283 58.098C30.5147 58.265 32.861 57.5227 34.391 55.6509C34.6915 55.2832 34.9609 54.8708 35.1957 54.4122C35.4174 53.98 35.6078 53.5071 35.7647 52.9932C38.5508 53.1605 40.8974 52.4184 42.4274 50.5462C42.7279 50.1788 42.9973 49.766 43.2321 49.3077C43.4538 48.8755 43.6445 48.4029 43.8011 47.8888C46.5876 48.0559 48.9338 47.3136 50.4641 45.4417C50.7643 45.0739 51.0337 44.6617 51.2688 44.203C51.4902 43.771 51.6806 43.2982 51.8375 42.7841C53.0498 42.857 54.1784 42.7572 55.193 42.4678C56.9034 41.9795 58.6656 40.4179 59.6472 38.4026C60.9556 38.0477 62.138 37.6169 63.1911 37.1218V63.9799C63.1301 66.1203 62.8414 68.0223 61.184 69.5193ZM0.808105 58.4977V-1.19128H63.1908V17.0387C61.3049 17.1942 59.8843 17.8566 58.93 19.0259L58.9075 19.0537C58.9854 18.7209 59.0154 18.4098 58.9968 18.1205C58.9873 17.9771 58.9658 17.8378 58.9321 17.7028C58.8984 17.5688 58.853 17.4398 58.795 17.3162L58.7926 17.3115L58.7914 17.3093C58.0867 15.888 57.0916 15.5133 55.8064 16.1851L55.8003 16.188L55.7921 16.1942C55.6194 16.318 55.4701 16.4444 55.3448 16.5724C55.0306 16.8945 54.8622 17.2329 54.8396 17.5871C54.8176 17.9401 54.9411 18.303 55.2101 18.6743C55.3243 18.8323 55.4649 18.9916 55.631 19.152L55.7577 19.2794L55.8288 19.1172C56.003 18.7574 56.188 18.5118 56.383 18.3819C56.5447 18.2736 56.8322 18.2086 56.9879 18.3599C57.1618 18.5277 57.2352 18.7224 57.2071 18.9422C56.9118 21.2418 53.6391 20.1466 52.4214 19.4989C52.0576 19.3054 51.6784 19.0812 51.2842 18.8269C50.9399 18.6049 50.5816 18.3584 50.2094 18.0871C50.4457 18.0246 50.668 17.957 50.8749 17.8838C51.8065 17.5558 52.4622 17.1149 52.8414 16.5619C53.2258 16.0011 53.3252 15.331 53.1382 14.5522C53.1041 14.4098 53.0606 14.2642 53.0081 14.1168L53.0043 14.1073C52.5186 13.0395 51.8313 12.518 50.9436 12.5436C50.773 12.5485 50.5946 12.5742 50.4093 12.6209C50.2253 12.6672 50.0352 12.7331 49.84 12.8191L49.8354 12.821L49.8267 12.8255C49.1786 13.1792 48.8371 13.6247 48.8032 14.1618C48.7698 14.6863 49.0374 15.2876 49.6046 15.9646L49.8023 16.2004L49.8227 15.8939C49.8458 15.5496 49.9453 15.2964 50.1204 15.1354C50.7183 14.5862 51.3302 15.0968 51.1103 15.8289C51.0866 15.9091 51.0532 15.9934 51.0112 16.0815C50.97 16.1678 50.9202 16.2576 50.8621 16.3501C50.0051 17.253 48.4924 17.2041 46.3261 16.2035C45.896 16.0047 45.4402 15.7687 44.9605 15.4957C44.5648 15.2705 44.1515 15.0199 43.7205 14.7432C44.2737 14.6647 44.7829 14.5224 45.2256 14.3293C45.7867 14.0845 46.2428 13.7561 46.5479 13.3686C46.8603 12.9724 47.0163 12.5141 46.9706 12.0192C46.9506 11.8077 46.8934 11.5898 46.7958 11.368C46.7502 11.2575 46.703 11.1506 46.6543 11.0477C46.2949 10.2896 45.8648 9.78246 45.3648 9.5269C44.8551 9.26628 44.2803 9.26643 43.6416 9.5272C43.5886 9.54888 43.534 9.57279 43.4789 9.59848L43.4762 9.59952C42.7956 9.9369 42.4385 10.3615 42.4051 10.8729C42.3726 11.373 42.6579 11.9422 43.2606 12.5803L43.4209 12.7504L43.4713 12.5224C43.5821 12.0242 43.7569 11.7118 43.996 11.5855C44.0398 11.5628 44.0856 11.5456 44.1331 11.5353C44.1809 11.5247 44.2331 11.5199 44.2876 11.5217C44.4455 11.5288 44.5729 11.5544 44.6677 11.598C44.7425 11.6323 44.797 11.6781 44.8304 11.7346C44.8645 11.7921 44.8796 11.8656 44.8753 11.9543C44.8692 12.0821 44.8243 12.2382 44.7406 12.4222C44.0927 13.2068 43.1199 13.4418 41.8219 13.1265C41.5624 13.0634 41.29 12.9787 41.0065 12.8727C40.7239 12.7665 40.4262 12.6384 40.1157 12.4886C37.9364 10.9483 35.8459 10.3803 33.8459 10.7845C33.4511 10.8644 33.0597 10.982 32.6728 11.1375C32.2872 11.2925 31.9045 11.4856 31.5253 11.7165L31.4324 11.7738L31.4249 11.7787C31.3396 11.8402 31.2549 11.9005 31.1706 11.959C31.561 11.1732 31.5471 10.4719 31.1284 9.85657C31.0318 9.7143 30.914 9.57784 30.7753 9.44716C29.6698 8.40306 28.296 8.77639 27.4178 9.95413L27.0943 10.3882L27.5753 10.1365C29.0711 9.35301 29.5189 11.1277 27.4761 10.8119L27.4659 10.811C25.8339 10.6963 24.4835 10.7808 23.415 11.0649C23.2044 11.1207 23.005 11.1844 22.818 11.2551C22.7185 11.2927 22.6218 11.3326 22.5289 11.3742C22.6309 11.0682 22.7801 10.7667 22.9774 10.4705L23.1092 10.2287L22.8451 10.2829C22.1122 10.4608 21.4923 10.9901 20.9854 11.8696C19.5886 12.3604 18.5259 13.0129 17.7972 13.8276C17.0718 14.6388 16.6783 15.6082 16.6182 16.7341C15.3167 17.3505 14.5678 18.1095 14.3725 19.0106C14.3334 19.191 14.3165 19.377 14.3221 19.5679C14.3278 19.7556 14.3551 19.9485 14.4038 20.1463C14.4547 20.6101 14.4192 20.962 14.298 21.2014C14.2752 21.2463 14.2497 21.2867 14.2224 21.322C14.1939 21.3581 14.1632 21.39 14.1308 21.4175L14.1265 21.4207L14.1218 21.4248L14.1139 21.4334C12.7738 22.904 11.5802 24.4751 10.5338 26.1464C10.3261 26.4785 10.128 26.8081 9.93921 27.1341C9.74924 27.4626 9.56209 27.7995 9.37866 28.1439L9.37717 28.146L9.36485 28.1685L9.36263 28.1947C9.33873 28.4842 9.26067 28.7466 9.12903 28.9805C8.99916 29.2111 8.81558 29.4171 8.57931 29.5972C7.53285 30.0111 7.03863 30.455 7.09755 30.9284C7.09428 31.2969 7.19387 31.6242 7.39571 31.9095C7.59636 32.1931 7.89749 32.4334 8.29851 32.6299L8.35772 32.6423C8.48313 32.6376 8.59815 32.6717 8.70219 32.7442C8.81276 32.8214 8.91353 32.9425 9.0048 33.1073C9.29495 33.7001 9.54621 34.0967 9.75874 34.2959C9.80475 34.3391 9.84957 34.374 9.89335 34.4007C9.91339 34.4129 9.93357 34.4237 9.95376 34.4326C10.0179 34.8781 10.2559 35.1515 10.6667 35.2524C10.7482 35.2723 10.8359 35.285 10.9293 35.2905C11.0065 35.295 11.0872 35.2951 11.1721 35.2902C11.3187 35.4285 11.4622 35.5287 11.5998 35.5926C11.7648 35.6687 11.9226 35.6932 12.0712 35.6679C12.2205 35.642 12.3577 35.5666 12.48 35.4436C12.5821 35.3413 12.6742 35.2044 12.7548 35.0355C13.1059 34.6279 13.5195 34.3168 13.9946 34.1022C14.5372 33.953 14.924 33.7521 15.1541 33.4987C15.2024 33.4457 15.2438 33.3905 15.2779 33.3344C15.3125 33.277 15.3407 33.2166 15.3625 33.1536L15.3676 33.138L15.3717 33.1253L15.3732 33.1129C15.4131 32.742 15.5779 32.363 15.867 31.9759C15.9232 31.9007 15.9853 31.8238 16.0526 31.746C16.1166 31.6724 16.1838 31.5996 16.2543 31.5273C16.9072 31.2387 17.6923 30.9832 18.6089 30.7618C18.9899 30.6695 19.3918 30.5837 19.8142 30.5041C20.2365 30.4242 20.6839 30.35 21.1552 30.2814L21.156 30.2808L21.1592 30.2806C22.2878 30.1413 23.1502 29.9866 23.7455 29.8146C23.8611 29.7812 23.9685 29.7466 24.0672 29.7107C24.1419 29.6835 24.2099 29.6565 24.2713 29.6296L24.2847 29.6385C25.931 30.7638 27.0094 31.8298 27.5195 32.8358C28.0168 33.817 27.9666 34.7442 27.3693 35.6166L27.3611 35.6282L27.3608 35.6291C26.5266 36.8659 25.842 38.0706 25.3075 39.2425C24.9915 39.9353 24.7274 40.6178 24.5162 41.2884C24.4536 41.3944 24.394 41.5033 24.3372 41.6158C24.1578 41.9712 24.0079 42.3576 23.8877 42.7741L23.8813 42.7952L23.881 42.7965C23.7073 43.4395 23.531 43.9481 23.3534 44.3227C23.3286 43.8709 23.1794 43.3818 22.881 42.8778L22.8802 42.8766C22.459 42.1795 21.7992 41.9584 21.1851 42.0546C20.9035 42.0989 20.6316 42.2104 20.3982 42.3738C20.1638 42.5377 19.9667 42.7544 19.8355 43.0074C19.5531 43.5515 19.5711 44.2594 20.1626 44.9738L20.3461 45.1951L20.381 44.9104C20.4385 44.4401 20.6566 44.1554 21.0347 44.0565L21.0387 44.0558C21.0521 44.0516 21.065 44.0484 21.077 44.0456C21.2174 44.0133 21.3372 44.0405 21.4362 44.1269C21.5494 44.2254 21.6428 44.3985 21.7164 44.6458C21.7299 44.6908 21.7432 44.742 21.7567 44.7995C21.7548 45.1584 21.5887 45.4236 21.2585 45.595C20.8991 45.7818 20.3492 45.8639 19.6107 45.8416C16.8569 45.6744 14.868 46.3409 13.6446 47.8397C13.4058 48.1322 13.1963 48.4567 13.0166 48.8128C12.8373 49.1682 12.6871 49.5544 12.5672 49.9712L12.5608 49.9923L12.5606 49.9937C12.3868 50.6368 12.2105 51.1457 12.0324 51.5202C12.0075 51.0688 11.8586 50.5798 11.5602 50.0761L11.5596 50.0747C11.1381 49.378 10.4782 49.1566 9.86412 49.253C9.58258 49.2972 9.31083 49.4087 9.07738 49.5719C8.84289 49.7359 8.64594 49.9525 8.5146 50.2057C8.23231 50.7497 8.25012 51.4576 8.8417 52.1721L9.02499 52.3936L9.06001 52.1089C9.11745 51.6383 9.33576 51.3536 9.71377 51.2549L9.71763 51.254C9.73084 51.2501 9.74405 51.2467 9.75592 51.2439C9.89617 51.2117 10.0161 51.2385 10.1151 51.325C10.2283 51.4237 10.3217 51.597 10.3953 51.8441C10.4085 51.8891 10.422 51.9402 10.4357 51.9976C10.4336 52.3567 10.2674 52.6219 9.93743 52.7933C9.57783 52.9803 9.02796 53.0622 8.28945 53.0398C5.5355 52.8729 3.54677 53.5392 2.32355 55.0379C2.0846 55.3306 1.87505 55.6552 1.69517 56.011C1.51603 56.3663 1.36599 56.7527 1.24563 57.1696L1.23939 57.1905L1.23924 57.192C1.09603 57.7168 0.95266 58.1517 0.808105 58.4977Z" fill="#00AEEF"/>
<path d="M27.752 13.7798C27.855 13.8017 27.9574 13.8241 28.0592 13.8472C28.8645 14.0309 29.6359 14.2579 30.3728 14.5274C31.6988 15.0124 32.9095 15.6356 34.0058 16.3964C34.4148 16.4608 34.9179 16.3924 35.5145 16.1916C36.1352 15.983 36.8532 15.6325 37.6683 15.1402C38.6139 14.4916 39.5664 14.1174 40.525 14.0182C41.476 13.9196 42.4306 14.0918 43.3889 14.5345C44.0352 14.4718 44.6267 14.3223 45.1261 14.1045C45.6501 13.8758 46.0734 13.5724 46.3539 13.2164C46.6273 12.8695 46.7641 12.4704 46.724 12.0417C46.7067 11.8553 46.6562 11.6619 46.5689 11.4649L46.568 11.4622C46.5231 11.354 46.4777 11.2503 46.4312 11.1527C46.0955 10.445 45.7019 9.97589 45.2509 9.74512C44.8091 9.51926 44.3036 9.52223 43.7354 9.75418C43.6853 9.77468 43.6351 9.7968 43.5855 9.81997C42.9901 10.1152 42.6789 10.4716 42.6516 10.8889C42.6263 11.276 42.8386 11.7273 43.2878 12.2433C43.4186 11.798 43.616 11.5068 43.8791 11.3681L43.8797 11.3678C43.9417 11.3352 44.0081 11.3109 44.0786 11.2955C44.1482 11.2802 44.2203 11.2735 44.2948 11.2757L44.2954 11.2758H44.2978L44.299 11.2757C44.4891 11.2846 44.6465 11.3173 44.7709 11.3745C44.8926 11.4301 44.9834 11.5088 45.0431 11.6098C45.1022 11.7101 45.1283 11.8287 45.1219 11.9655C45.1143 12.1284 45.0599 12.3196 44.9584 12.5385L44.9523 12.5513L44.9419 12.5644C44.2288 13.4396 43.1688 13.7068 41.7623 13.3652C41.495 13.3002 41.2139 13.2126 40.919 13.1024C40.6253 12.9926 40.3193 12.8608 40.0021 12.7074H40.0024L40.0006 12.7066L39.9905 12.7019L39.9812 12.6955C37.8569 11.1915 35.8277 10.6348 33.8942 11.0256C33.5147 11.1023 33.1382 11.2156 32.7655 11.3654C32.3913 11.5158 32.0206 11.7025 31.6543 11.9257L31.5682 11.9788C30.2707 12.9165 29.0805 13.501 27.9983 13.7328C27.9155 13.7501 27.8334 13.7663 27.752 13.7798Z" fill="white"/>
<path d="M25.3633 15.2369C25.3175 15.383 25.2661 15.5235 25.209 15.658C25.7519 15.9272 26.3651 16.3193 27.0475 16.8349C27.1881 16.941 27.3325 17.053 27.4799 17.1705C27.6265 17.2872 27.7767 17.4097 27.9298 17.5376L27.9316 17.5391C29.7283 19.0297 30.6344 20.5435 30.6495 22.0806C30.6643 23.5733 29.8381 25.0761 28.1718 26.5881C29.7228 27.1823 31.2295 27.3 32.5039 27.0366C33.4628 26.8382 34.2898 26.4242 34.9038 25.8355C35.5142 25.2501 35.9153 24.4897 36.0267 23.5953C36.1522 22.5887 35.9113 21.41 35.1912 20.1156C33.7162 17.9058 31.6013 16.4437 28.8478 15.7299C28.308 15.5899 27.7439 15.4788 27.1565 15.3962C26.5834 15.3159 25.9853 15.2629 25.3633 15.2369Z" fill="white"/>
<path d="M12.6103 31.4989C11.6665 32.5437 10.9798 33.3403 10.5503 33.8882L10.4644 33.999L10.5409 33.9279C11.1748 33.3419 11.6987 32.8577 12.5412 32.4062L12.5421 32.4056C13.3635 31.9717 13.7323 31.5238 13.8124 31.2012C13.8422 31.0806 13.8284 30.9841 13.7821 30.9211C13.7389 30.8623 13.6615 30.8296 13.5604 30.8321C13.3198 30.8382 12.9754 31.0277 12.6162 31.4916L12.6103 31.4989Z" fill="white"/>
<path d="M15.6859 31.8046C15.2251 32.0538 14.8499 32.3245 14.5603 32.6173C15.2071 31.1714 18.2028 30.6069 18.5483 30.5233C18.9302 30.431 19.3367 30.3443 19.7667 30.2632C20.1966 30.1821 20.6474 30.1071 21.118 30.0385L21.1181 30.0388L21.1239 30.0379L21.1272 30.0369C22.245 29.8992 23.0945 29.7465 23.675 29.579C23.7888 29.5461 23.8911 29.5134 23.9807 29.4807C24.0693 29.4485 24.1499 29.4151 24.2219 29.3805L24.2268 29.3781L24.2338 29.3747L24.2413 29.3722C25.2545 29.034 26.0465 28.4801 26.6377 27.8057C27.3449 26.9992 27.7675 26.0182 27.9408 25.0253C28.1143 24.0314 28.0388 23.0261 27.7504 22.1713C27.5627 21.6151 27.285 21.124 26.928 20.7417C26.9852 22.309 26.5809 24.0396 25.714 25.9334L25.7102 25.9419L25.7072 25.9468C25.2787 26.6452 23.5528 28.8756 22.618 28.8792C23.1751 28.5134 23.6938 28.0747 24.1739 27.5645C24.6532 27.0553 25.0929 26.4747 25.493 25.8232C26.7946 22.9758 27.0315 20.5144 26.2033 18.44C26.042 18.0361 25.8409 17.6472 25.6003 17.2737C25.3857 16.9408 25.1388 16.619 24.8599 16.3082C24.5865 16.7174 24.2419 17.053 23.8261 17.315C23.89 17.356 23.9522 17.3999 24.0125 17.4461C24.1223 17.5303 24.2251 17.6224 24.3201 17.7217L24.3203 17.7216C24.6089 18.0232 25.4261 19.1273 25.0294 19.9145C24.8872 19.0361 24.5908 18.3616 24.141 17.8916L24.1407 17.8912C24.0525 17.7991 23.9595 17.7153 23.8617 17.6405C23.7766 17.5753 23.6867 17.5161 23.5923 17.4616C23.3465 17.6353 23.1305 17.7501 22.9443 17.8062C22.7593 17.8621 22.5993 17.8612 22.4651 17.8035C22.3278 17.7447 22.2242 17.6304 22.1554 17.4613C22.1134 17.3583 22.084 17.2341 22.0674 17.0879C20.7273 18.0048 19.4281 18.2398 18.1697 17.7933C17.9136 17.7024 17.6601 17.5836 17.4102 17.4375C17.1792 17.3022 16.949 17.1421 16.7199 16.9577C15.4937 17.5391 14.7913 18.2412 14.6132 19.063C14.5783 19.2238 14.5635 19.39 14.5684 19.5609C14.5734 19.733 14.5988 19.9106 14.6442 20.0931L14.6449 20.0962L14.6475 20.1062L14.6482 20.113C14.7055 20.6284 14.662 21.0286 14.518 21.3127C14.4888 21.3699 14.455 21.4236 14.4165 21.4729L14.4164 21.4737C14.3794 21.5209 14.3376 21.5644 14.291 21.6036C12.9652 23.0591 11.7826 24.6168 10.7433 26.2769L10.7429 26.2766C10.545 26.5929 10.3481 26.92 10.1531 27.2573C9.96325 27.5853 9.78085 27.9132 9.60602 28.2405C9.57678 28.5548 9.48907 28.842 9.34348 29.1006L9.34363 29.1007C9.19447 29.3659 8.98491 29.6004 8.71539 29.8036L8.70233 29.8132L8.6866 29.8195C7.7427 30.1906 7.29464 30.552 7.34287 30.9034L7.34391 30.9103L7.34376 30.9216C7.33931 31.2409 7.42405 31.5232 7.5974 31.7687C7.76941 32.012 8.03062 32.2219 8.37998 32.3969C8.54798 32.3969 8.70293 32.4455 8.84347 32.5434C8.9861 32.643 9.11255 32.7924 9.22208 32.9912L9.22475 32.9964C9.50228 33.5641 9.73707 33.9381 9.92823 34.1176C9.96028 34.1476 9.99071 34.1718 10.0191 34.1893C10.0524 34.1403 10.0897 34.0876 10.1305 34.0316C10.1954 33.943 10.2702 33.8442 10.3548 33.7363C10.7852 33.1873 11.4751 32.387 12.4247 31.3359C12.834 30.8094 13.2504 30.5933 13.5534 30.5857C13.7395 30.5811 13.8894 30.6509 13.9811 30.7755C14.0698 30.8959 14.1001 31.0637 14.0516 31.2597C13.9575 31.6389 13.5504 32.1512 12.658 32.6227V32.6225C11.841 33.0606 11.3281 33.5346 10.7078 34.1079C10.5553 34.249 10.3959 34.3965 10.2302 34.5453C10.3055 34.7952 10.4705 34.9511 10.7252 35.0136C10.7909 35.0297 10.864 35.0402 10.9432 35.0448C10.9909 35.0476 11.0413 35.0487 11.0943 35.0472L11.0962 35.0021C11.0991 34.9496 11.1041 34.896 11.1112 34.8421C11.1568 34.4933 11.2538 34.2311 11.5918 34.1846C11.4664 34.4039 11.3879 34.6338 11.3566 34.8738C11.3506 34.9192 11.3463 34.9666 11.3436 35.0151C11.3419 35.0476 11.341 35.0791 11.3408 35.1105C11.4683 35.2309 11.5897 35.3173 11.7032 35.3699C11.8203 35.4239 11.9291 35.4421 12.0281 35.4251C12.1264 35.4082 12.2187 35.3562 12.3039 35.2707C12.3892 35.185 12.4676 35.0665 12.5376 34.9165L12.5447 34.9011L12.5554 34.8888C12.9351 34.4444 13.3831 34.1065 13.899 33.8748L13.9072 33.8712L13.9173 33.8684C14.4199 33.7314 14.7711 33.5533 14.9704 33.334C15.0066 33.294 15.0385 33.2516 15.0651 33.2076L15.0649 33.2075C15.0911 33.1641 15.1118 33.1198 15.1271 33.075L15.1277 33.0732C15.1749 32.6622 15.3548 32.2471 15.6671 31.8291L15.6675 31.8288L15.6859 31.8046Z" fill="white"/>
<path d="M14.3871 27.5198C14.6849 27.4328 15.1553 27.4723 15.3391 27.7582C15.5755 28.0564 15.787 27.9478 15.9664 27.6544C16.1332 27.382 16.2944 26.9361 16.4504 26.3185C16.5617 26.6628 16.4655 27.2006 16.2978 27.5561C16.5529 29.1554 18.6223 29.5835 19.9517 29.7393C18.162 30.092 16.4054 28.8412 16.1167 27.874C15.6691 28.5048 15.615 27.8507 15.4655 28.7203C15.379 29.0877 15.8075 29.1267 16.078 29.1321C15.7533 29.3966 15.1084 29.171 15.2237 28.6691C15.2604 28.4273 15.2965 28.0552 15.1023 27.859C14.9418 27.6965 14.6659 27.7181 14.4621 27.7546C13.5338 28.1025 12.841 28.6918 12.3848 29.522C12.1923 29.8719 12.0655 30.2365 11.9536 30.618C12.127 28.8274 13.5488 27.8317 14.3871 27.5198Z" fill="#10192E"/>
<path d="M9.23633 31.889C9.6133 31.8197 9.89439 31.6893 10.0798 31.4983C10.2611 31.3115 10.3542 31.0609 10.3588 30.7469L10.3589 30.7345L10.3606 30.7264L10.3609 30.7241L10.3613 30.722C10.4214 30.4256 10.4906 30.1342 10.5686 29.8485C10.6473 29.5612 10.735 29.2793 10.8313 29.0039C11.017 28.4731 12.1621 25.6721 13.2417 25.2896C12.2783 26.4261 11.5528 27.6916 11.0649 29.0851C10.9698 29.3568 10.8839 29.6329 10.8074 29.9127C10.7311 30.1916 10.6635 30.4755 10.6051 30.7633C10.5925 31.3457 9.98804 32.0929 9.23633 31.889Z" fill="#10192E"/>
<path d="M14.6913 23.1755C14.9602 22.9407 15.1675 22.7398 15.3128 22.5745C15.4501 22.4182 15.5303 22.2967 15.5527 22.211C15.7691 21.3962 16.2587 20.7235 16.9942 20.3181C17.5335 20.0443 18.1475 20.1077 18.6122 20.4785C19.0745 20.4807 19.5426 20.5052 19.9947 20.604C20.0874 20.6438 20.6787 20.7783 20.6801 20.853C20.6806 20.8779 20.0589 20.8368 19.9836 20.8459C19.474 20.9078 18.9626 21.0872 18.6134 21.4727L18.6112 21.4755C18.0298 22.2107 17.2422 22.734 16.3261 22.9427C16.1698 22.9783 16.0108 23.0033 15.8523 23.0233C15.0982 23.0751 14.4877 23.5606 14.02 24.1114C14.0491 23.8488 14.3672 23.3825 14.6913 23.1755Z" fill="#10192E"/>
<path d="M14.9264 21.6961C15.2172 21.4221 15.4503 21.1313 15.6254 20.8248C15.8001 20.5189 15.9176 20.1953 15.9779 19.8554L15.9801 19.8428L15.9857 19.8293C16.6987 18.1361 20.0938 18.2781 21.4016 19.1391C18.4874 18.3946 16.7597 18.6526 16.2187 19.9124C16.1528 20.2748 16.0268 20.6199 15.8401 20.9467C15.6519 21.2761 15.4028 21.5872 15.0926 21.8786L15.0863 21.8841C14.6125 22.275 14.2592 22.6426 14.0265 22.9861C13.8012 23.3187 13.6895 23.628 13.6919 23.9131C13.3428 23.1447 14.79 21.8086 14.9264 21.6961Z" fill="#10192E"/>
<path d="M24.5379 26.3579C24.1298 27.0737 23.5039 27.7216 22.6607 28.3007L22.6586 28.302C21.3949 29.1344 19.2966 29.1944 18.8525 27.6645C19.8082 28.934 21.0311 29.0787 22.5204 28.0984C23.3324 27.5408 23.9335 26.9197 24.3232 26.2361C24.7104 25.5569 24.89 24.8129 24.8612 24.0046C25.1663 24.4911 24.735 26.0126 24.5379 26.3579Z" fill="#10192E"/>
<path d="M25.3639 11.401C25.6104 12.2848 25.6605 12.7482 25.6408 13.4356C26.0286 13.481 26.4094 13.5345 26.7834 13.5967C26.9692 13.6051 27.1589 13.6007 27.3517 13.5835C27.5467 13.5661 27.7454 13.5356 27.9471 13.4926C28.7937 13.3114 29.7128 12.9041 30.7048 12.27C31.2857 11.3919 31.3586 10.6328 30.9237 9.99365C30.8379 9.86743 30.7315 9.74447 30.6049 9.62538C29.8016 8.86744 28.7481 8.89684 27.9526 9.70571C29.3965 9.23928 29.7818 11.417 27.4406 11.0554C25.8407 10.9437 24.52 11.0262 23.4792 11.3027L23.479 11.3024C23.2788 11.3555 23.0875 11.4166 22.9061 11.485C22.7442 11.5462 22.5893 11.6142 22.4419 11.6888C22.4251 11.7642 22.411 11.8402 22.3999 11.9161C22.6105 11.8092 22.8248 11.7134 23.0416 11.6292C23.3275 11.5183 23.6205 11.4264 23.9198 11.3536C24.5274 11.2058 26.9936 10.7829 28.9143 11.9861C27.6525 11.5505 26.4688 11.3558 25.3639 11.401Z" fill="white"/>
<path d="M25.2975 11.6646C25.1463 11.7781 24.9989 11.9 24.856 12.0308C24.6647 12.2056 24.4827 12.3939 24.3104 12.5953C23.4196 13.637 22.7495 15.0633 22.3003 16.8739C22.3073 17.0823 22.3355 17.2477 22.3849 17.3689C22.4287 17.4763 22.4885 17.5463 22.5636 17.5786C22.6419 17.6123 22.7454 17.6099 22.873 17.5713C23.9348 17.2489 24.8242 16.1506 25.1357 15.1399C25.4182 14.2231 25.4719 13.0648 25.2975 11.6646Z" fill="white"/>
<path d="M22.5838 13.5586C22.8429 13.5226 23.1087 13.4924 23.3811 13.4687C23.6086 13.0918 23.8555 12.7471 24.1218 12.4358C24.303 12.2241 24.4919 12.0282 24.6883 11.8488C24.8613 11.6908 25.0421 11.5437 25.2306 11.4073C24.8012 11.4324 24.3839 11.4938 23.9784 11.5922C23.6909 11.6622 23.4084 11.7508 23.1317 11.8582C22.8721 11.9589 22.6182 12.076 22.3707 12.2086C22.3622 12.3773 22.3672 12.5475 22.3864 12.7192C22.4032 12.8707 22.4308 13.0241 22.4692 13.1786C22.5005 13.3049 22.5387 13.432 22.5838 13.5586Z" fill="white"/>
<path d="M20.3853 14.068C20.985 13.8638 21.635 13.7064 22.3357 13.5959C22.2943 13.4758 22.2591 13.3561 22.2297 13.2379C22.1889 13.0734 22.1593 12.9091 22.1412 12.7464C22.0602 12.0131 22.211 11.3056 22.5937 10.6243C21.9112 10.9109 21.3407 11.5778 20.8821 12.6255C20.7782 12.8626 20.6799 13.1203 20.5875 13.3972C20.5168 13.609 20.4492 13.8329 20.3853 14.068Z" fill="white"/>
<path d="M18.7271 14.8293C19.1496 14.5757 19.6084 14.3556 20.1037 14.1696C20.1816 13.8696 20.2652 13.5858 20.3541 13.3198C20.4043 13.1694 20.4563 13.0248 20.51 12.8852C19.9745 13.1779 19.5566 13.4923 19.2566 13.8292C18.9772 14.143 18.8005 14.4769 18.7271 14.8293Z" fill="white"/>
<path d="M16.895 16.4059C17.0152 16.2583 17.1415 16.1155 17.2735 15.9787C17.5014 15.7424 17.7478 15.5216 18.0123 15.3168C18.1534 15.2075 18.2997 15.1031 18.4508 15.0033C18.4979 14.5238 18.7045 14.0776 19.0709 13.666C19.4376 13.2539 19.9655 12.8758 20.6543 12.5317L20.6564 12.527C20.7066 12.4122 20.7582 12.3017 20.8112 12.1957C19.5804 12.6603 18.6371 13.2591 17.9818 13.9918C17.3693 14.6764 17.0068 15.4815 16.895 16.4059Z" fill="white"/>
<path d="M16.9067 16.792C17.1144 16.957 17.3244 17.1013 17.5365 17.2252C17.7748 17.3646 18.0142 17.477 18.2539 17.5621C19.4749 17.9953 20.746 17.7371 22.0669 16.7871C22.2064 16.2283 22.3673 15.7055 22.549 15.2179C22.1859 15.1864 21.8361 15.2043 21.5 15.2718C21.1166 15.3489 20.7503 15.4904 20.4019 15.6967C20.4461 15.3594 21.0863 15.1043 21.4508 15.0311C21.8312 14.9546 22.2278 14.9382 22.6402 14.9805C22.818 14.5316 23.0145 14.1149 23.2297 13.7297C21.1172 13.9373 19.4283 14.531 18.1629 15.5109C17.9094 15.7072 17.672 15.9202 17.4514 16.1489C17.2567 16.3507 17.0749 16.5654 16.9067 16.792Z" fill="white"/>
<path d="M26.9067 20.375C27.3876 20.806 27.7527 21.4038 27.9851 22.0924C28.2862 22.9852 28.3656 24.033 28.185 25.067C28.1044 25.5285 27.9719 25.9881 27.7843 26.4302C27.8284 26.4492 27.8726 26.4678 27.9168 26.486C29.588 24.9963 30.4167 23.5284 30.4024 22.0832C30.388 20.622 29.5114 19.1698 27.7729 17.7277L27.7711 17.7262L27.7709 17.726C27.6198 17.5999 27.471 17.4786 27.3252 17.3624C27.1802 17.2469 27.0375 17.1361 26.8977 17.0305C26.2308 16.5268 25.6333 16.1441 25.1063 15.8819C25.0713 15.953 25.0342 16.0227 24.9956 16.0902C25.3031 16.4275 25.5743 16.7779 25.8088 17.1416C26.059 17.5299 26.2674 17.9325 26.4336 18.3489C26.6891 18.9895 26.8469 19.6652 26.9067 20.375Z" fill="white"/>
<path d="M18.9976 20.8779C19.0901 20.8309 19.1879 20.7888 19.2912 20.7525C19.2026 20.7452 19.1104 20.739 19.0145 20.7345C18.9663 20.7323 18.9195 20.7306 18.8745 20.7293C18.9161 20.7758 18.9572 20.8255 18.9976 20.8779Z" fill="white"/>
<path d="M15.146 23.0127C15.531 22.957 15.8927 22.8704 15.9405 22.4973C16.275 21.317 16.8207 20.5957 17.9495 20.5411C17.9997 20.5384 18.227 20.5233 18.0506 20.4456L18.0494 20.4453C17.7631 20.3535 17.4501 20.3835 17.111 20.5353L17.1061 20.538C16.9882 20.6036 16.8763 20.6765 16.7714 20.756C16.6678 20.8345 16.5711 20.9201 16.4817 21.012C16.1346 21.3688 15.9223 21.8039 15.7911 22.2787C15.7477 22.4417 15.1696 22.8318 15.146 23.0127Z" fill="white"/>
<path d="M16.1655 22.7253C16.201 22.7184 16.2363 22.7105 16.2716 22.7025C16.4131 22.6703 16.5501 22.6314 16.6816 22.5855C17.3617 22.3492 17.9423 21.9266 18.4223 21.318L18.4281 21.3111L18.4314 21.3075V21.3076C18.4821 21.2516 18.5352 21.1994 18.5902 21.1516C18.6449 21.1039 18.7044 21.058 18.7681 21.0142L18.7838 21.0038C18.697 20.8941 18.6075 20.7986 18.5155 20.7184C18.4306 20.7083 18.3469 20.701 18.2647 20.6966C17.8521 20.6744 17.5007 20.728 17.2107 20.8563C17.3292 20.866 17.4342 20.9196 17.4952 21.0146C17.6124 21.1973 17.5232 21.4627 17.296 21.607C17.0686 21.7515 16.7893 21.7203 16.6719 21.5377C16.6304 21.4729 16.6148 21.3982 16.622 21.3216C16.5308 21.442 16.4526 21.5795 16.3874 21.735C16.4215 21.7757 16.4576 21.8112 16.495 21.8418C16.5357 21.875 16.5789 21.9022 16.6241 21.9233C16.8537 22.0299 17.1471 21.9728 17.5032 21.7519C17.5351 21.7314 17.5652 21.7096 17.5936 21.687L17.5939 21.6869C17.7153 21.5905 17.7843 21.4888 17.8007 21.3822H17.801C17.8174 21.2751 17.782 21.1547 17.6951 21.0218C17.6749 20.991 17.6513 20.9588 17.6246 20.9257C17.9481 20.9208 18.0913 21.1196 18.045 21.4195L18.0453 21.4198C18.0192 21.5889 17.9199 21.7421 17.7476 21.8791V21.8792L17.7473 21.8794C17.7144 21.9055 17.6771 21.9322 17.6366 21.9585L17.6354 21.9592C17.202 22.2283 16.8298 22.2905 16.5192 22.1462C16.456 22.1168 16.3953 22.0785 16.3378 22.0316C16.3236 22.02 16.3093 22.0078 16.2954 21.995C16.2476 22.1578 16.2111 22.3354 16.1863 22.5289C16.1783 22.5923 16.1712 22.6581 16.1655 22.7253Z" fill="white"/>
<path d="M58.8102 37.5585C57.9166 39.7528 56.2641 40.7084 56.0987 40.7998C54.7366 41.553 53.0215 41.8756 51.1825 41.7651C51.0257 42.2792 50.8353 42.752 50.6138 43.1841C50.3784 43.6425 50.1095 44.0552 49.8088 44.4227C48.2788 46.2944 45.9324 47.0369 43.1458 46.8699C42.9893 47.384 42.7985 47.8563 42.5771 48.2886C42.342 48.7472 42.0728 49.1596 41.7724 49.5272C40.2421 51.3991 37.896 52.1416 35.1094 51.9744C34.9528 52.4882 34.7621 52.9608 34.5407 53.3933C34.3056 53.8517 34.0364 54.2642 33.736 54.6317C32.206 56.5034 29.8595 57.2459 27.0732 57.0788C26.9164 57.5928 26.726 58.0655 26.5043 58.4976C26.2694 58.9562 26.0001 59.3688 25.6996 59.7364C24.1698 61.608 21.8232 62.3505 19.0367 62.1835C18.8802 62.6973 18.6896 63.1701 18.4679 63.6024C18.2329 64.0608 17.9639 64.4732 17.6632 64.8407C16.1332 66.7125 13.7868 67.455 11.0005 67.2878C10.8436 67.8018 10.653 68.2746 10.4315 68.7067C10.1965 69.1651 9.92716 69.5775 9.62677 69.9454C9.22858 70.4323 8.77503 70.8429 8.27295 71.1807C8.50759 71.1939 8.74208 71.2043 8.97554 71.2132H9.72888C9.85399 71.0852 9.97436 70.9507 10.0898 70.8093C10.3807 70.4532 10.6406 70.0554 10.8666 69.6146C11.0934 69.1724 11.2866 68.685 11.4439 68.1516L11.4459 68.145L11.4736 68.0495L11.5732 68.0562C14.3224 68.2416 16.6333 67.5309 18.1262 65.7047C18.4173 65.3487 18.6773 64.9509 18.9029 64.5103C19.1297 64.0679 19.3232 63.5807 19.4804 63.0474V63.0467L19.4824 63.0391L19.5106 62.945L19.6095 62.9517C22.3584 63.1371 24.6698 62.4266 26.1623 60.6003C26.4534 60.2442 26.7133 59.8463 26.9391 59.4057C27.1659 58.9634 27.3593 58.4759 27.5165 57.9428L27.5166 57.9421L27.5188 57.9346L27.5469 57.8403L27.6457 57.847C30.3949 58.0325 32.706 57.3219 34.1988 55.4957C34.4898 55.1397 34.7495 54.7418 34.9753 54.3012C35.2022 53.8589 35.3956 53.3716 35.553 52.8382L35.5527 52.8376L35.5551 52.83L35.5832 52.736L35.682 52.7425C38.4308 52.9279 40.742 52.2174 42.235 50.3911C42.5258 50.0353 42.7858 49.6373 43.0115 49.1967C43.2384 48.7543 43.4318 48.2669 43.589 47.7337L43.5911 47.727L43.619 47.6312L43.7184 47.638C46.4675 47.8234 48.7787 47.113 50.2714 45.2867C50.5625 44.9306 50.8222 44.5326 51.0482 44.092C51.2749 43.6498 51.4682 43.1626 51.6254 42.6289V42.6284L51.6278 42.6209L51.6561 42.5269L51.7547 42.5337C53.2571 42.635 54.7035 42.424 55.8951 41.9465C56.5009 41.6653 58.3901 40.5235 59.5182 38.2103C60.5637 37.9608 62.0087 37.4427 63.1902 36.8989V36.032C61.8773 36.6199 59.8114 37.3244 58.8102 37.5585Z" fill="white"/>
<path d="M37.5771 38.4016L37.5777 38.4019L37.5774 38.4016C38.1699 38.4415 38.731 38.4427 39.261 38.4053C39.7889 38.3683 40.2865 38.2929 40.7533 38.1784C43.1407 37.5948 44.7185 35.9969 45.4858 33.3851L45.5156 33.2812L45.6135 33.2969L45.6138 33.2971C46.206 33.3369 46.7677 33.3384 47.2974 33.3011C47.8253 33.2638 48.323 33.1882 48.7897 33.074C51.1771 32.4904 52.7546 30.8928 53.5222 28.2808C53.0176 32.2174 49.5805 33.1339 48.8489 33.3128C48.3697 33.4301 47.8578 33.5078 47.3146 33.546C46.8028 33.5822 46.2618 33.5828 45.6943 33.5482C44.8899 36.1949 43.2628 37.8183 40.8128 38.4172C40.3593 38.5283 38.8594 38.8045 37.5771 38.4016ZM24.5496 29.5242C26.1597 30.6413 27.2225 31.7085 27.7381 32.7251C28.2795 33.7931 28.224 34.8039 27.5716 35.7559L27.5635 35.7677C26.7372 36.9925 26.0597 38.1849 25.5306 39.345C25.3418 39.7589 25.172 40.1681 25.0212 40.5737C26.2491 39.1239 28.2186 38.4807 30.9296 38.6456V38.6453C31.6679 38.6675 32.2176 38.5857 32.5774 38.3985C32.9073 38.2274 33.0737 37.962 33.0753 37.603C33.0617 37.5456 33.0483 37.4944 33.0351 37.4494C32.9615 37.2023 32.8681 37.029 32.7547 36.9304C32.6559 36.844 32.5358 36.8171 32.3956 36.8493C32.3837 36.8521 32.3706 36.8553 32.3573 36.8593L32.3533 36.8602C31.9754 36.9589 31.7571 37.2437 31.6997 37.714L31.6648 37.9987L31.4812 37.7771C30.8896 37.0627 30.8718 36.3548 31.154 35.8109C31.2853 35.558 31.4822 35.3412 31.7169 35.1772C31.9502 35.0139 32.2218 34.9024 32.5036 34.8581C33.1176 34.7622 33.7776 34.9831 34.1991 35.6802L34.1997 35.6814C34.6087 36.3721 34.7383 37.0351 34.6498 37.612C34.5982 37.9475 34.4735 38.2538 34.2875 38.5192C34.102 38.7838 33.8554 39.0086 33.5597 39.1816C33.5257 39.2017 33.4913 39.221 33.4563 39.2393C33.814 39.1766 34.1522 39.1007 34.4711 39.0125C34.8321 38.9129 35.1715 38.7957 35.4894 38.6615C37.1052 37.9797 37.3521 37.3551 37.7874 35.7984C38.2211 37.6089 35.9737 38.7243 35.5865 38.8878C35.2613 39.025 34.9113 39.1453 34.5381 39.2488C34.2132 39.3388 33.8453 39.3359 33.3102 39.3107C32.9618 39.4677 32.1393 39.6877 31.4248 39.2869C32.2142 39.4068 32.911 39.2767 33.4343 38.9702C33.6986 38.8152 33.9193 38.6145 34.0848 38.3787C34.25 38.1433 34.3604 37.8722 34.4057 37.575C34.4857 37.0517 34.3655 36.445 33.9872 35.8063C33.6253 35.2092 33.0639 35.0192 32.5428 35.1009C32.2985 35.1391 32.0624 35.2363 31.8589 35.3787C31.6568 35.5203 31.4868 35.7066 31.3739 35.924C31.1623 36.3321 31.1537 36.8545 31.5107 37.4016C31.6289 36.9883 31.8874 36.729 32.2866 36.6236V36.6235C32.304 36.6183 32.3217 36.6138 32.3396 36.6095C32.5619 36.5584 32.7553 36.6037 32.9178 36.7455C33.0666 36.8753 33.1845 37.0866 33.2715 37.3792C33.2898 37.4401 33.3059 37.5006 33.3196 37.5599L33.3226 37.5724V37.5871C33.326 38.0541 33.1155 38.3973 32.6924 38.6171C32.295 38.8238 31.7043 38.9151 30.9221 38.8912L30.9184 38.8907C28.2474 38.7278 26.3261 39.3642 25.1552 40.7985C24.6769 41.3839 24.294 41.9572 24.1178 42.8629C24.0401 43.15 23.8333 44.1651 23.3504 44.613C23.3459 44.6795 23.3394 44.745 23.3293 44.8092C23.278 45.1445 23.1532 45.4508 22.9672 45.7163C22.7817 45.9809 22.5349 46.2055 22.2394 46.3789C22.2055 46.3985 22.1711 46.418 22.1361 46.4364C22.4935 46.3736 22.8318 46.2977 23.1509 46.2096C23.5117 46.1097 23.8513 45.9928 24.1692 45.8584C25.5733 45.2661 26.0738 44.4002 26.4668 42.9954C26.2307 45.46 24.6581 46.047 23.2174 46.4459C22.8927 46.5357 22.5248 46.5331 21.9899 46.508C21.6413 46.6648 20.8188 46.8846 20.1043 46.4841C20.8937 46.6038 21.5907 46.4737 22.114 46.1672C22.3784 46.0121 22.599 45.8117 22.7642 45.5758C22.9292 45.3405 23.0396 45.0693 23.0852 44.7723C23.1653 44.249 23.0448 43.6422 22.6667 43.0034C22.3051 42.4063 21.7434 42.2164 21.222 42.298C20.9779 42.3365 20.7417 42.4336 20.5384 42.5757C20.336 42.7173 20.1662 42.9039 20.0534 43.1213C19.8418 43.5294 19.8332 44.0518 20.1901 44.5987C20.3081 44.1856 20.5668 43.9263 20.9661 43.821V43.8206C20.9832 43.8154 21.0013 43.8108 21.019 43.8068C21.2417 43.7556 21.4347 43.801 21.5975 43.943C21.7462 44.0726 21.8639 44.2839 21.9512 44.5766C21.9694 44.6376 21.9851 44.6981 21.999 44.7573L22.0019 44.7696V44.7846C22.0052 45.2514 21.795 45.5947 21.3718 45.8146C20.9742 46.021 20.3835 46.1124 19.6013 46.0888L19.5976 46.0882C16.9265 45.9253 15.0051 46.5616 13.8343 47.9958C13.6066 48.2751 13.4067 48.5846 13.2349 48.9245C13.063 49.2646 12.919 49.6367 12.8028 50.0396L12.8031 50.0397L12.7971 50.0605C12.7193 50.3476 12.5125 51.3628 12.0293 51.8106C12.025 51.8774 12.0183 51.9433 12.0082 52.0079C11.9569 52.3434 11.8319 52.6497 11.646 52.9151C11.4604 53.1799 11.2138 53.4042 10.9183 53.5775C10.8846 53.5974 10.8502 53.6168 10.815 53.6353C11.1724 53.5725 11.5108 53.4966 11.8297 53.4084C12.1905 53.3085 12.5302 53.1914 12.8483 53.0574C14.4636 52.3757 14.7108 51.7507 15.1457 50.1945C15.5796 52.0048 13.3324 53.1202 12.9452 53.2837C12.6198 53.4212 12.2702 53.5415 11.8963 53.645C11.5716 53.7348 11.2037 53.732 10.6688 53.7069C10.3203 53.8636 9.49769 54.0838 8.78337 53.683C9.57263 53.803 10.2697 53.6726 10.793 53.3662C11.0574 53.2112 11.278 53.0107 11.4432 52.7748C11.6081 52.5395 11.7188 52.2682 11.7642 51.9714C11.8444 51.4481 11.7239 50.8412 11.3457 50.2023C10.984 49.6052 10.4224 49.4153 9.90107 49.497C9.65693 49.5353 9.42095 49.6327 9.21748 49.7748C9.01519 49.9163 8.84511 50.1028 8.73247 50.3204C8.52083 50.7286 8.51222 51.2509 8.8693 51.7978C8.98729 51.3847 9.24598 51.1254 9.64521 51.02C9.66242 51.0146 9.68038 51.0099 9.69819 51.006C9.92081 50.9548 10.1142 51.0001 10.2767 51.1419C10.4253 51.2717 10.5433 51.483 10.6302 51.7755C10.6485 51.8366 10.6644 51.897 10.6783 51.9562L10.6813 51.9687L10.6814 51.9836C10.6847 52.4504 10.4741 52.7938 10.0511 53.0134C9.65352 53.2201 9.06283 53.3113 8.28085 53.2877L8.27699 53.2869C5.6057 53.1243 3.68465 53.7605 2.51367 55.1947C2.28571 55.4739 2.08594 55.7836 1.91438 56.1234C1.74251 56.4636 1.5984 56.8358 1.4819 57.2386L1.4822 57.2385L1.47641 57.2596C1.40428 57.5258 1.22069 58.4198 0.808254 58.9049V60.5297C1.05848 60.4513 1.29772 60.3638 1.52568 60.2674C3.14116 59.5855 3.38841 58.9608 3.82326 57.4045C4.25737 59.2147 2.00995 60.3302 1.6226 60.4937C1.36629 60.602 1.09469 60.6997 0.808105 60.7869V63.982C0.818791 64.3596 0.836304 64.7294 0.867471 65.0909C2.50135 64.8067 3.87996 64.0828 4.88649 62.8513C5.17753 62.4953 5.43755 62.0975 5.66329 61.6568C5.89021 61.2144 6.08344 60.7272 6.24061 60.1938L6.24269 60.1871L6.27044 60.0916L6.36988 60.0983C9.11908 60.2836 11.4303 59.573 12.9231 57.7468C13.2141 57.3907 13.474 56.9929 13.6997 56.5523C13.9266 56.1099 14.12 55.6227 14.2772 55.0893L14.2773 55.0887L14.2794 55.0814L14.3076 54.9869L14.4064 54.9936C17.1553 55.1791 19.4666 54.4685 20.9593 52.6423C21.2502 52.2862 21.5102 51.8885 21.7361 51.4478C21.9629 51.0054 22.1563 50.5183 22.3134 49.9848L22.3136 49.9842L22.3157 49.9768L22.344 49.8825L22.4429 49.8893C25.1919 50.0746 27.503 49.364 28.9957 47.5377C29.2869 47.1816 29.5468 46.7837 29.7725 46.3433C29.9992 45.9011 30.1927 45.4135 30.3497 44.8803L30.3499 44.8795L30.3521 44.8723L30.3803 44.778L30.4791 44.7845C33.2282 44.9698 35.539 44.2594 37.0318 42.4333C37.3229 42.0772 37.5829 41.6792 37.8086 41.2389C38.0353 40.7964 38.229 40.309 38.3861 39.7756L38.3882 39.769L38.4158 39.6733L38.5155 39.6802C41.2646 39.8656 43.5758 39.1549 45.0686 37.3287C45.3596 36.9727 45.6196 36.5748 45.8451 36.1343C46.072 35.6921 46.2654 35.2049 46.4225 34.6714L46.4228 34.6707L46.4249 34.6631L46.453 34.569L46.5518 34.5757C49.3009 34.761 51.6121 34.0504 53.1045 32.2243C53.3959 31.8681 53.6556 31.4703 53.8813 31.0298C54.1079 30.5874 54.3016 30.1002 54.4588 29.5668L54.4591 29.5662L54.4612 29.5589L54.4892 29.4646L54.5881 29.4712C59.2923 29.7887 61.7198 26.4209 63.1908 24.4568V18.17C62.2261 18.373 61.3256 18.8771 60.4899 19.682C60.2563 19.9073 60.0261 20.1573 59.8008 20.4319C59.746 20.4986 59.5581 20.7466 59.4407 20.9018L59.4378 20.9006C59.3238 21.0569 59.2131 21.2161 59.1059 21.3776C59.147 21.2114 59.2102 21.0454 59.2887 20.8836L59.289 20.8838C59.5801 20.3896 60.1083 19.7075 60.3178 19.5056C60.5387 19.2929 61.7864 18.1911 63.1907 17.9812V17.2858C61.3845 17.4389 60.0278 18.0709 59.1212 19.1816C58.9244 19.4227 58.7484 19.6869 58.5936 19.9732C58.5614 20.0464 58.3968 20.3804 58.3612 20.4554C58.258 20.6979 58.1678 20.9546 58.0896 21.2253H58.0899L58.0841 21.2461C57.9931 21.5813 57.727 22.9096 57.0492 23.168C57.0848 23.1208 57.1213 23.0664 57.1587 23.0054C57.1958 22.9448 57.2329 22.8774 57.2703 22.804C57.4643 22.4222 57.6562 21.881 57.8454 21.1806L57.8457 21.1793L57.8515 21.1585L57.8521 21.1582C57.8736 21.0835 57.8959 21.0093 57.9196 20.9367C57.8828 20.9518 58.7907 18.7788 58.7496 18.1378C58.7408 18.0071 58.7217 17.882 58.6921 17.7635C58.6623 17.6443 58.6219 17.53 58.571 17.4217L58.5698 17.419C57.9412 16.1507 57.0599 15.8115 55.927 16.4014C55.7708 16.5142 55.6357 16.6292 55.5219 16.7454C55.2503 17.0239 55.105 17.3102 55.0864 17.6039C55.0676 17.8984 55.1761 18.208 55.4109 18.532C55.488 18.6389 55.5796 18.7476 55.6848 18.858C55.857 18.5394 56.0443 18.3128 56.246 18.1783C56.4956 18.012 56.7625 17.9842 57.0468 18.0944L57.066 18.1017L57.0808 18.114C57.1097 18.1382 57.1371 18.1618 57.1605 18.1844C57.3932 18.4091 57.4904 18.6727 57.4518 18.9743V18.9748C57.182 21.0779 54.4189 20.682 53.053 20.0819C52.9125 20.0733 52.7121 20.0225 52.4816 19.9641C52.1277 19.8746 51.6979 19.7659 51.3561 19.7764L51.3555 19.7763L51.3515 19.7766C51.159 19.7828 50.9643 19.8018 50.7679 19.8341C50.5705 19.8663 50.3705 19.9114 50.1697 19.9696C49.1271 20.2708 48.0252 20.919 46.8648 21.9145L46.8614 21.9176L46.8544 21.9224L46.8399 21.9325L46.8393 21.9328C46.6769 22.0437 46.5175 22.1376 46.3612 22.214C46.2027 22.2919 46.0467 22.3522 45.8945 22.3949C45.6785 22.4558 45.775 22.4427 45.9406 22.5299C46.1481 22.6391 46.3534 22.7605 46.5552 22.8942C47.0524 23.2234 49.0664 24.8907 49.3069 26.0937C48.3903 24.766 47.4274 23.7676 46.4181 23.0992C46.2213 22.9689 46.0233 22.8513 45.8253 22.7472C45.6288 22.6437 45.4308 22.5529 45.2326 22.4744C44.8801 22.4558 43.722 22.0825 43.9313 21.5183C44.4972 22.1407 45.129 22.3544 45.8265 22.1584C45.9659 22.119 46.1079 22.0642 46.252 21.9937C46.3983 21.9218 46.5479 21.8337 46.6996 21.7304L46.7075 21.7249C47.8933 20.7081 49.0244 20.0443 50.1007 19.7337C50.3117 19.6726 50.521 19.6254 50.7271 19.5916C50.9349 19.5576 51.1401 19.5372 51.3427 19.5308H51.3436L51.3473 19.5307C51.5955 19.523 51.8743 19.5697 52.1413 19.6291C51.8242 19.4545 51.4938 19.2561 51.1496 19.0342C50.747 18.7744 50.3285 18.4838 49.8951 18.1627L49.8592 18.1361C48.5518 17.3734 47.2124 17.0747 45.8411 17.2393C44.6692 17.3801 43.4694 17.8602 42.2432 18.678C42.4707 18.6073 42.6934 18.5412 42.9102 18.4803C43.3655 18.3529 43.8044 18.245 44.2265 18.1563C44.5169 18.0954 47.8414 17.3326 49.1131 18.6277C48.0043 18.0308 46.3921 17.9539 44.2778 18.397C43.8666 18.4833 43.4326 18.5902 42.9777 18.7176C42.5203 18.8458 42.0481 18.9924 41.5611 19.1578L41.5573 19.1585V19.1588C41.3648 19.2381 41.1772 19.3018 40.9958 19.3503L40.9955 19.3498C40.8291 19.3939 40.668 19.4251 40.5126 19.4431C42.9492 21.3334 44.6763 23.2525 45.6931 25.2004C45.9638 25.7191 47.7364 29.0863 46.0398 32.2983C47.5595 27.8959 45.5902 23.6166 40.1325 19.4615C39.7748 19.4536 38.4912 19.034 38.4571 18.2989C38.978 18.9808 39.6389 19.2824 40.4391 19.2034C40.5985 19.1876 40.763 19.1575 40.9315 19.1128V19.1124C41.1006 19.0675 41.2759 19.0078 41.4562 18.9337C42.9394 17.812 44.3911 17.1654 45.8106 16.9948C48.1606 16.6704 49.2102 18.209 50.7912 17.6523C51.6726 17.342 52.2878 16.9319 52.6369 16.423C52.9803 15.9219 53.0676 15.3173 52.8978 14.6099C52.8665 14.4795 52.8263 14.3442 52.7767 14.2048C52.336 13.2388 51.7271 12.7667 50.9505 12.7893C50.7969 12.7937 50.6366 12.8169 50.4696 12.8586C50.302 12.9007 50.1253 12.9624 49.9407 13.0441C49.3748 13.3539 49.0779 13.7321 49.0496 14.1777C49.0241 14.5818 49.2128 15.0503 49.6159 15.5839C49.674 15.3178 49.7859 15.1081 49.9525 14.955C50.7259 14.2443 51.645 14.906 51.347 15.899C51.319 15.9923 51.2813 16.0885 51.2339 16.1875C51.1875 16.2849 51.1311 16.3861 51.0652 16.4905L51.064 16.4921L51.0625 16.4945L51.0561 16.5041L51.0495 16.5114C50.1124 17.5081 48.5027 17.4799 46.2214 16.4262C45.7854 16.225 45.3237 15.9856 44.837 15.7086C44.3516 15.4323 43.8413 15.1186 43.3073 14.7685C42.3824 14.3368 41.4632 14.1681 40.5498 14.2625C39.6326 14.3574 38.7175 14.7183 37.8054 15.3444L37.7996 15.3482C36.9665 15.8516 36.2309 16.2104 35.5934 16.4247C35.1424 16.5766 34.7377 16.6569 34.3803 16.6655C36.243 18.0454 37.757 19.8425 38.9228 22.0578H38.9225L38.9259 22.0642C39.3827 22.8957 39.7799 23.7149 40.1159 24.5214C40.4528 25.3282 40.7302 26.1249 40.9477 26.9114C41.7527 29.8176 41.737 32.5641 40.9013 35.1499C40.8177 35.4084 40.6929 35.9225 40.4436 36.4692C40.28 36.8278 39.6951 37.8155 39.3551 37.9451C41.3547 34.5935 41.8066 30.9372 40.7097 26.977C40.4955 26.2036 40.2212 25.4167 39.8876 24.6165C39.5537 23.8163 39.161 23.0048 38.7091 22.1829L38.7042 22.1741L38.703 22.172C36.8199 18.5928 34.0143 16.1211 30.2868 14.7578C29.5619 14.4926 28.8004 14.2689 28.0033 14.087C27.2437 13.9137 26.4522 13.7789 25.6287 13.6818C25.6014 14.1583 25.5361 14.5959 25.4322 14.9937C26.0393 15.0208 26.6256 15.0738 27.1903 15.1529C27.7884 15.2368 28.3614 15.3498 28.9092 15.4917C31.7262 16.222 33.8904 17.7205 35.4009 19.9864L35.4061 19.9946C36.154 21.3384 36.4033 22.569 36.2717 23.6257C36.1528 24.578 35.7252 25.3882 35.0743 26.0125C34.4268 26.6338 33.5579 27.0695 32.5544 27.2773C31.1255 27.5729 29.4192 27.4069 27.6829 26.655C27.4617 27.1216 27.1769 27.565 26.8239 27.9678C26.2507 28.6215 25.4978 29.1667 24.5496 29.5242ZM0.890623 65.3357C0.920899 65.6235 0.960823 65.9061 1.01366 66.1827C2.87045 65.9677 4.43161 65.2267 5.54085 63.8698C5.83188 63.5137 6.0919 63.1158 6.31779 62.6752C6.54456 62.2329 6.7378 61.7456 6.89497 61.2122L6.89704 61.2055L6.92465 61.11L7.02423 61.1167C9.77343 61.302 12.0845 60.5914 13.5773 58.7652C13.8684 58.4092 14.1283 58.0113 14.3541 57.5707C14.5807 57.1283 14.7742 56.6412 14.9314 56.1078L14.9315 56.1072L14.9338 56.0998L14.9618 56.0055L15.0606 56.012C17.8098 56.1977 20.1209 55.4871 21.6135 53.6609C21.9047 53.3046 22.1647 52.9069 22.3903 52.466C22.6171 52.0238 22.8105 51.5366 22.9676 51.0033V51.0026L22.9699 50.9953L22.9982 50.901L23.0969 50.9075C25.8461 51.0932 28.1572 50.3826 29.6499 48.5562C29.941 48.2001 30.2008 47.8023 30.4266 47.3617C30.6535 46.9193 30.8467 46.4319 31.0041 45.8987L31.0042 45.8982L31.0063 45.8907L31.0343 45.7964L31.1332 45.8031C33.8822 45.9884 36.1933 45.278 37.6859 43.4517C37.9772 43.0958 38.2373 42.6978 38.4627 42.2572C38.6896 41.8148 38.883 41.3274 39.0405 40.794L39.0423 40.7874L39.0702 40.6919L39.1696 40.6986C41.9186 40.884 44.2299 40.1733 45.7226 38.3471C46.0137 37.991 46.2737 37.5932 46.4994 37.1526C46.726 36.7103 46.9194 36.2231 47.0769 35.6896V35.689L47.079 35.6814L47.1073 35.5872L47.2059 35.5939C49.9552 35.7792 52.2664 35.0687 53.7589 33.2424C54.0499 32.8865 54.3099 32.4885 54.5357 32.0481C54.7623 31.6057 54.9557 31.1183 55.1131 30.5852V30.5845L55.1152 30.577L55.1436 30.4827L55.2424 30.4894C56.6265 30.5827 60.1728 30.1271 63.1904 26.1695V24.9115C61.9437 26.6643 59.4342 30.0075 54.6694 29.722C54.5128 30.2358 54.3224 30.7086 54.1007 31.1407C53.8659 31.5993 53.5967 32.0118 53.296 32.3792C51.7663 34.251 49.4196 34.9935 46.6333 34.8263C46.4764 35.3403 46.286 35.813 46.0646 36.2454C45.8295 36.7037 45.5603 37.1163 45.2599 37.4839C43.7299 39.3557 41.3835 40.0982 38.5969 39.9308C38.44 40.4449 38.2496 40.9174 38.0279 41.3497C37.7928 41.8083 37.5238 42.2208 37.2232 42.5884C35.6932 44.46 33.3471 45.2025 30.5603 45.0355C30.4034 45.5493 30.2132 46.0219 29.9916 46.4542C29.7567 46.9128 29.4873 47.3255 29.1869 47.6928C27.6569 49.5647 25.3103 50.307 22.5239 50.1399C22.3672 50.6539 22.1769 51.1266 21.955 51.5589C21.7201 52.0173 21.4509 52.4296 21.1503 52.7975C19.6206 54.6692 17.2744 55.4117 14.4875 55.2444C14.3308 55.7584 14.1403 56.2312 13.9188 56.6633C13.6837 57.1219 13.4145 57.5343 13.1139 57.9018C11.5841 59.7736 9.23767 60.5161 6.45121 60.3489C6.29449 60.863 6.10378 61.3359 5.8822 61.7678C5.64711 62.2264 5.37804 62.6388 5.0775 63.0065C4.02703 64.2917 2.5904 65.0446 0.890623 65.3357ZM1.06367 66.4248C1.16771 66.8915 1.31271 67.3414 1.51589 67.7737C1.57021 67.7707 1.62408 67.7675 1.67766 67.7638C2.20556 67.7265 2.70319 67.6508 3.1701 67.5367C5.55732 66.953 7.13495 65.3554 7.90239 62.7435C7.39779 66.6802 3.96084 67.5967 3.22946 67.7755C2.75024 67.893 2.23851 67.9705 1.69502 68.0088L1.63521 68.0128C1.87386 68.4642 2.18137 68.8955 2.57793 69.3052C4.0493 70.6337 5.94394 71.0141 7.85401 71.1531C8.44974 70.7976 8.98047 70.3453 9.4352 69.7887C9.72609 69.4327 9.98596 69.0349 10.212 68.5942C10.4389 68.1518 10.6322 67.6646 10.7893 67.1313L10.7911 67.1245L10.819 67.029L10.9184 67.0357C13.6676 67.2212 15.9789 66.5104 17.4716 64.6842C17.7627 64.3283 18.0225 63.9303 18.2481 63.4898C18.475 63.0473 18.6684 62.5601 18.8256 62.0268V62.0261L18.8278 62.0188L18.8562 61.9245L18.955 61.931C21.7039 62.1167 24.0151 61.4061 25.5079 59.5797C25.7988 59.2238 26.0586 58.8258 26.2847 58.3853C26.5113 57.943 26.7045 57.4554 26.8619 56.9222V56.9217L26.8642 56.9142L26.8924 56.8199L26.9911 56.8265C29.7403 57.0122 32.0514 56.3015 33.5441 54.4752C33.8352 54.1193 34.0952 53.7213 34.3209 53.2805C34.5476 52.8385 34.7409 52.351 34.8984 51.8177V51.817L34.9005 51.8097L34.9288 51.7154L35.0274 51.7221C37.7764 51.9074 40.0877 51.197 41.5804 49.3707C41.8714 49.0146 42.1315 48.6167 42.3569 48.1762C42.5838 47.7338 42.7772 47.2465 42.9344 46.7131L42.9365 46.7064L42.9644 46.611L43.0638 46.6174C45.8131 46.8029 48.1244 46.0923 49.6168 44.2661C49.9082 43.91 50.1679 43.5122 50.3936 43.0714C50.6202 42.6293 50.8139 42.1421 50.9708 41.6086L50.9711 41.608L50.9735 41.6005L51.0015 41.5064L51.1004 41.5131C52.9653 41.6387 54.6896 41.3237 56.0496 40.5481C57.1241 39.9354 58.0106 38.7621 58.6365 37.3605C60.4029 36.8409 61.9453 36.3698 63.1907 35.7493V34.6265C61.5657 35.4488 60.098 35.9108 57.933 36.3106C56.9156 38.2122 55.6673 39.4201 53.4664 39.9581C53.0133 40.0692 51.5132 40.3453 50.2308 39.9427H50.2314C50.8236 39.9825 51.385 39.9838 51.915 39.9463C52.4429 39.9091 52.9402 39.8336 53.4073 39.7194C55.406 39.2308 56.9138 37.9751 57.7773 36.065C60.0504 35.6775 61.8073 35.0133 63.1907 34.2377V26.5466C60.2531 30.3393 56.644 30.82 55.3245 30.7408C55.1679 31.2546 54.9772 31.7275 54.7558 32.1596C54.5207 32.6182 54.2515 33.0307 53.9511 33.3981C52.4211 35.2699 50.0747 36.0125 47.2884 35.8452C47.1315 36.359 46.9411 36.8317 46.7194 37.2641C46.4843 37.7225 46.215 38.135 45.9147 38.5027C44.3847 40.3744 42.0383 41.1169 39.2517 40.9498C39.0951 41.4638 38.9044 41.9363 38.6829 42.3686C38.4479 42.8273 38.1786 43.2397 37.878 43.6072C36.3483 45.479 34.0019 46.2214 31.2154 46.0543C31.0585 46.5681 30.8683 47.0409 30.6467 47.4732C30.4117 47.9318 30.1422 48.3443 29.8418 48.7118C28.312 50.5837 25.9654 51.326 23.1791 51.1589C23.0224 51.6728 22.8318 52.1456 22.6103 52.5779C22.3753 53.0363 22.106 53.4487 21.8054 53.8163C20.2757 55.6882 17.9292 56.4305 15.1427 56.2634C14.9858 56.7774 14.7954 57.2501 14.574 57.6823C14.3389 58.1408 14.0697 58.5531 13.7692 58.9207C12.2392 60.7925 9.89276 61.5348 7.10631 61.3678C6.94958 61.8819 6.75887 62.3547 6.53744 62.7867C6.3025 63.2454 6.03313 63.6578 5.73245 64.0253C4.58373 65.4312 2.97434 66.1999 1.06367 66.4248ZM5.48074 58.7747H5.48118V58.7746C6.07335 58.8146 6.6348 58.816 7.16463 58.7784C7.69239 58.7413 8.19017 58.6657 8.65707 58.5517C11.0443 57.9679 12.6218 56.3702 13.3892 53.7583L13.4192 53.6545L13.5169 53.6702H13.5174C14.1098 53.7103 14.6714 53.7113 15.2012 53.6742C15.729 53.6369 16.2266 53.5614 16.6933 53.4472C19.0807 52.8634 20.6582 51.2659 21.4258 48.6541C20.921 52.5908 17.4841 53.5072 16.7527 53.6862C16.2733 53.8036 15.7616 53.8812 15.2184 53.9192C14.7062 53.9555 14.1657 53.9561 13.5979 53.9216C12.7936 56.5683 11.1664 58.1915 8.71629 58.7904C8.26318 58.9014 6.76288 59.1776 5.48074 58.7747ZM24.1336 52.4357L24.134 52.4359C24.7263 52.476 25.2878 52.477 25.8178 52.4399C26.3455 52.4025 26.8433 52.3269 27.3099 52.2128C29.6973 51.6291 31.2749 50.0315 32.0424 47.4196L32.0722 47.3157L32.1701 47.3315L32.1707 47.3314L32.1706 47.3315C32.7628 47.3715 33.3245 47.3728 33.854 47.3354C34.3819 47.2981 34.8796 47.2227 35.3463 47.1084C37.7337 46.5248 39.3112 44.9271 40.0788 42.3153C39.5739 46.252 36.1371 47.1685 35.4058 47.3473C34.9265 47.4647 34.4147 47.5424 33.8713 47.5806C33.3594 47.6167 32.8187 47.6173 32.2509 47.5827C31.4466 50.2296 29.8194 51.8527 27.3694 52.4518C26.916 52.5626 25.4159 52.8386 24.1336 52.4357Z" fill="white"/>
<path d="M33.1614 12.4771C33.6906 12.3112 36.8027 11.5107 38.7077 13.0773C36.9085 12.2545 35.0844 12.1326 33.2359 12.7119C32.8736 12.8255 32.5106 12.9657 32.1479 13.1321C31.7615 13.3094 31.3869 13.5108 31.0239 13.7312C31.2167 13.1525 32.7663 12.601 33.1614 12.4771Z" fill="#10192E"/>
<path d="M3.71126 55.5176C3.99696 55.2423 6.00498 53.475 7.84545 54.0861C6.39382 54.0119 5.07265 54.5479 3.88283 55.694C3.64908 55.9193 3.41889 56.1694 3.1936 56.4438C2.94486 56.7464 2.716 57.0638 2.49902 57.3896C2.69359 56.6054 3.39974 55.8174 3.71126 55.5176Z" fill="#10192E"/>
<path d="M15.0314 48.3192C15.3174 48.0439 17.3254 46.2766 19.1658 46.8876C17.7141 46.8136 16.393 47.3495 15.2033 48.4958C14.9695 48.7209 14.7393 48.971 14.5141 49.2456C14.2653 49.5482 14.0365 49.8655 13.8193 50.1912C14.0141 49.4068 14.7202 48.6192 15.0314 48.3192Z" fill="#10192E"/>
<path d="M30.5122 26.0592C30.8445 25.8831 31.1157 25.7325 31.3714 25.5543C31.6249 25.3775 31.8487 25.1901 32.0423 24.9926C33.0253 23.9896 33.2175 22.717 32.6186 21.1761C33.8564 22.7339 32.6682 24.7067 32.2193 25.1645C31.7883 25.6045 30.723 26.0595 30.5122 26.0592Z" fill="#10192E"/>
<path d="M51.7021 26.5383C54.8748 26.5741 57.2874 25.1354 58.3282 22.0908C58.2705 24.7533 54.235 27.6249 51.7021 26.5383Z" fill="#10192E"/>
<path d="M54.9443 21.6433C53.2329 20.3951 51.0444 20.5933 48.3794 22.2375C49.7559 20.9506 53.1335 19.7418 54.9443 21.6433Z" fill="#10192E"/>
<path d="M26.3527 41.1223C26.6386 40.847 28.6466 39.0794 30.4872 39.6907C29.0356 39.6164 27.7143 40.1523 26.5246 41.2986C26.2907 41.5239 26.0606 41.774 25.8353 42.0485C25.5866 42.3513 25.3576 42.6684 25.1406 42.994C25.3353 42.2099 26.0415 41.4222 26.3527 41.1223Z" fill="#10192E"/>
<path d="M38.9335 15.7607C39.4628 15.5948 42.5751 14.7943 44.4802 16.3608C42.6807 15.5381 40.8565 15.416 39.0083 15.9953C38.6461 16.1089 38.2827 16.2491 37.9202 16.4156C37.534 16.5929 37.1593 16.7943 36.7964 17.0146C36.989 16.4361 38.5386 15.8846 38.9335 15.7607Z" fill="#10192E"/>
<path d="M42.6277 24.5001C43.026 25.1776 45.2234 29.3955 43.5823 32.8141C44.2228 29.7697 43.8338 27.0396 42.4147 24.6243C42.1382 24.154 41.8225 23.6953 41.4686 23.2489C41.103 22.7882 40.7059 22.3518 40.2847 21.941C41.392 22.4462 42.3764 24.0726 42.6277 24.5001Z" fill="#10192E"/>
<path d="M17.9526 60.6342H17.9531C18.5452 60.6741 19.1068 60.6753 19.6364 60.6379C20.1643 60.6006 20.6621 60.5252 21.129 60.411C23.516 59.8273 25.0937 58.2296 25.8611 55.6178L25.8909 55.5138L25.9889 55.5297L25.9893 55.5296C26.5817 55.5697 27.1431 55.571 27.6726 55.5336C28.2006 55.4963 28.6983 55.4209 29.1651 55.3067C31.5523 54.7229 33.1298 53.1254 33.8974 50.5134C33.3928 54.45 29.9558 55.3668 29.2243 55.5456C28.7451 55.6629 28.2333 55.7406 27.69 55.7787C27.1781 55.8148 26.6373 55.8154 26.0695 55.7811C25.2652 58.4277 23.6382 60.051 21.188 60.6498C20.7349 60.7606 19.2348 61.0369 17.9526 60.6342Z" fill="#10192E"/>
<path d="M60.022 30.1088L60.0226 30.1087H60.0223C60.5508 29.8373 61.0325 29.5493 61.4672 29.2442C61.9009 28.9404 62.2884 28.6192 62.6296 28.2806C62.8337 28.0784 63.021 27.8699 63.1913 27.6555V28.041C63.0693 28.1816 62.9401 28.3194 62.8035 28.4548C62.4723 28.7835 61.3287 29.7931 60.022 30.1088Z" fill="#10192E"/>
</svg>
