<svg width="59" height="54" viewBox="0 0 59 54" fill="none" xmlns="http://www.w3.org/2000/svg">
<g clip-path="url(#clip0_0_106)">
<path d="M55.2574 3.21003C53.2689 1.22154 50.6054 0.0533499 47.7956 -0.0627097C44.9858 -0.178769 42.235 0.765788 40.0892 2.58351C37.9434 4.40123 36.5595 6.95925 36.212 9.7499C35.8645 12.5406 36.5788 15.3599 38.2133 17.6483L45.5394 27.9044C45.7434 28.1899 46.0125 28.4227 46.3245 28.5833C46.6366 28.7439 46.9824 28.8276 47.3333 28.8276C47.6842 28.8276 48.0301 28.7439 48.3421 28.5833C48.6541 28.4227 48.9232 28.1899 49.1272 27.9044L56.4533 17.6483C58.002 15.4921 58.7322 12.8548 58.513 10.209C58.2939 7.56333 57.1398 5.08212 55.2574 3.21003ZM47.3333 14.8086C46.6067 14.8086 45.8964 14.5932 45.2922 14.1895C44.6881 13.7858 44.2172 13.212 43.9391 12.5407C43.6611 11.8694 43.5883 11.1307 43.7301 10.4181C43.8718 9.70542 44.2217 9.05081 44.7355 8.53702C45.2493 8.02322 45.9039 7.67332 46.6166 7.53157C47.3292 7.38981 48.0679 7.46257 48.7392 7.74063C49.4105 8.01869 49.9843 8.48958 50.388 9.09373C50.7917 9.69789 51.0071 10.4082 51.0071 11.1348C51.0071 12.1092 50.62 13.0436 49.9311 13.7326C49.2421 14.4215 48.3077 14.8086 47.3333 14.8086ZM47.3333 34.2164C47.0439 34.2163 46.7572 34.2733 46.4898 34.3841C46.2224 34.4948 45.9794 34.6572 45.7747 34.8618C45.5701 35.0665 45.4077 35.3095 45.297 35.5769C45.1862 35.8443 45.1292 36.131 45.1293 36.4204V41.1203C45.1293 42.1435 44.9277 43.1567 44.5362 44.102C44.1446 45.0472 43.5707 45.9062 42.8472 46.6297C42.1237 47.3531 41.2648 47.9271 40.3195 48.3186C39.3742 48.7102 38.3611 48.9117 37.3379 48.9117C36.3147 48.9117 35.3016 48.7102 34.3563 48.3186C33.411 47.9271 32.5521 47.3531 31.8286 46.6297C31.1051 45.9062 30.5312 45.0472 30.1397 44.102C29.7481 43.1567 29.5466 42.1435 29.5466 41.1203V21.1296C29.5466 17.8941 28.2613 14.7911 25.9734 12.5033C23.6856 10.2154 20.5826 8.93012 17.3471 8.93012C14.1116 8.93012 11.0087 10.2154 8.72084 12.5033C6.433 14.7911 5.14771 17.8941 5.14771 21.1296V31.522C5.14771 32.1065 5.37992 32.6671 5.79326 33.0805C6.20659 33.4938 6.7672 33.726 7.35175 33.726C7.9363 33.726 8.4969 33.4938 8.91024 33.0805C9.32358 32.6671 9.55579 32.1065 9.55579 31.522V21.1296C9.55579 20.1064 9.75732 19.0932 10.1489 18.1479C10.5404 17.2026 11.1143 16.3437 11.8378 15.6202C12.5613 14.8967 13.4202 14.3228 14.3655 13.9313C15.3108 13.5397 16.324 13.3382 17.3471 13.3382C18.3703 13.3382 19.3835 13.5397 20.3288 13.9313C21.2741 14.3228 22.133 14.8967 22.8565 15.6202C23.58 16.3437 24.1539 17.2026 24.5454 18.1479C24.937 19.0932 25.1385 20.1064 25.1385 21.1296V41.1203C25.1385 44.3558 26.4238 47.4588 28.7116 49.7466C30.9995 52.0345 34.1024 53.3198 37.3379 53.3198C40.5734 53.3198 43.6764 52.0345 45.9642 49.7466C48.2521 47.4588 49.5373 44.3558 49.5373 41.1203V36.4204C49.5374 36.131 49.4804 35.8443 49.3696 35.5769C49.2589 35.3095 49.0965 35.0665 48.8919 34.8618C48.6872 34.6572 48.4442 34.4948 48.1768 34.3841C47.9094 34.2733 47.6228 34.2163 47.3333 34.2164ZM7.35175 39.1148C5.94701 39.1148 4.57382 39.5314 3.40582 40.3118C2.23783 41.0922 1.32748 42.2015 0.789914 43.4993C0.252345 44.7971 0.111692 46.2252 0.385743 47.6029C0.659794 48.9807 1.33624 50.2462 2.32954 51.2395C3.32284 52.2328 4.58838 52.9092 5.96612 53.1833C7.34387 53.4573 8.77194 53.3167 10.0697 52.7791C11.3676 52.2416 12.4768 51.3312 13.2572 50.1632C14.0377 48.9952 14.4542 47.622 14.4542 46.2173C14.4522 44.3342 13.7032 42.5289 12.3717 41.1973C11.0402 39.8658 9.23481 39.1169 7.35175 39.1148Z" fill="#2972FF"/>
</g>
<defs>
<clipPath id="clip0_0_106">
<rect width="59" height="54" fill="white"/>
</clipPath>
</defs>
</svg>
