<svg width="59" height="59" viewBox="0 0 59 59" fill="none" xmlns="http://www.w3.org/2000/svg">
<g clip-path="url(#clip0_0_118)">
<path d="M57.3577 39.2049C58.42 36.1641 58.9996 32.8987 58.9996 29.4999C58.9996 26.1011 58.42 22.8356 57.3577 19.7948C57.3324 19.7042 57.301 19.6152 57.2639 19.5287C53.1665 8.15475 42.2684 0 29.5001 0C16.7317 0 5.83336 8.15475 1.73625 19.5287C1.69904 19.6147 1.66803 19.7035 1.64238 19.7948C0.580111 22.8356 0.000488281 26.1011 0.000488281 29.4999C0.000488281 32.8987 0.580111 36.1641 1.64238 39.2049C1.66831 39.2962 1.69904 39.3853 1.73625 39.471C5.83365 50.8452 16.7317 58.9997 29.5001 58.9997C42.2684 58.9997 53.1665 50.845 57.2639 39.471C57.3011 39.3845 57.3324 39.2956 57.3577 39.2049ZM29.5001 54.7712C28.3766 54.7712 26.5653 52.738 25.0514 48.1958C24.3207 46.0039 23.7357 43.4841 23.3094 40.743H35.6907C35.2644 43.4841 34.6795 46.0036 33.949 48.1958C32.4348 52.738 30.6235 54.7712 29.5001 54.7712ZM22.7963 36.5142C22.5931 34.2595 22.4857 31.9072 22.4857 29.4999C22.4857 27.0926 22.5931 24.7402 22.7963 22.4855H36.2035C36.4068 24.7402 36.5142 27.0926 36.5142 29.4999C36.5142 31.9072 36.4068 34.2595 36.2035 36.5142H22.7963ZM4.22897 29.5001C4.22897 27.0672 4.57545 24.7137 5.22019 22.4857H18.5549C18.3573 24.787 18.2569 27.1456 18.2569 29.5001C18.2569 31.8547 18.357 34.2132 18.5549 36.5145H5.22019C4.56115 34.2347 4.22744 31.8733 4.22897 29.5001ZM29.5001 4.22876C30.6235 4.22876 32.4351 6.26195 33.949 10.8042C34.6795 12.9961 35.2647 15.5159 35.6907 18.2567H23.3092C23.7354 15.5156 24.3204 12.9961 25.0511 10.8042C26.5653 6.26195 28.3766 4.22876 29.5001 4.22876ZM40.445 22.4857H53.7797C54.4244 24.7137 54.7709 27.0672 54.7709 29.5001C54.7709 31.9331 54.4244 34.2865 53.7797 36.5145H40.445C40.6426 34.2132 40.7429 31.8547 40.7429 29.5001C40.7429 27.1456 40.6426 24.787 40.445 22.4857ZM52.1273 18.257H39.9598C39.2076 13.0705 37.9173 8.4175 36.1071 5.10722C43.1254 7.00988 48.94 11.8676 52.1273 18.257ZM22.8928 5.10694C21.0826 8.41721 19.7922 13.0703 19.0401 18.257H6.87251C10.0602 11.8676 15.8744 7.00988 22.8928 5.10694ZM6.87251 40.743H19.0401C19.7922 45.9295 21.0826 50.5825 22.8928 53.8931C15.8744 51.9901 10.0602 47.1327 6.87251 40.743ZM36.1071 53.8931C37.9173 50.5828 39.2076 45.9297 39.9598 40.743H52.1273C48.94 47.1327 43.1254 51.9901 36.1071 53.8931Z" fill="#2972FF"/>
</g>
<defs>
<clipPath id="clip0_0_118">
<rect width="59" height="59" fill="white"/>
</clipPath>
</defs>
</svg>
