<svg width="60" height="54" viewBox="0 0 60 54" fill="none" xmlns="http://www.w3.org/2000/svg">
<g clip-path="url(#clip0_0_131)">
<path d="M58.8881 13.5159C57.897 9.62901 55.7844 6.27738 52.7787 3.82339C49.8508 1.43287 46.2633 0.116211 42.6787 0.116211C39.9306 0.116211 37.3085 0.856253 34.8863 2.31553C32.9735 3.46831 31.2533 5.03603 29.7499 6.99289C26.3317 2.53753 21.8187 0.116211 16.827 0.116211C13.2434 0.116211 9.6579 1.43287 6.7304 3.82339C3.72571 6.27738 1.61357 9.62901 0.622465 13.5154C-0.454995 17.742 -0.663862 24.4966 4.46343 32.6731C9.20937 40.2413 17.436 47.2538 28.915 53.5152C29.1753 53.6569 29.4621 53.7282 29.7496 53.7282C30.037 53.7282 30.324 53.6573 30.5841 53.5152C42.0664 47.2533 50.2957 40.2408 55.0434 32.6731C60.173 24.4966 59.9655 17.7424 58.8881 13.5159ZM29.7496 49.9947C16.1429 42.4219 9.40964 34.9114 6.20968 28.6654H11.0828C11.7433 28.6654 12.3468 28.2923 12.6419 27.7019L14.817 23.3515L20.7262 35.1703C20.871 35.4598 21.0935 35.7034 21.3689 35.8736C21.6443 36.0438 21.9616 36.1339 22.2853 36.1339C22.6091 36.1339 22.9264 36.0438 23.2018 35.8736C23.4772 35.7034 23.6997 35.4598 23.8445 35.1703L29.7536 23.3515L31.9289 27.702C32.0737 27.9915 32.2963 28.235 32.5716 28.4051C32.847 28.5753 33.1643 28.6654 33.488 28.6654H46.7085C47.6711 28.6654 48.4515 27.8849 48.4515 26.9224C48.4515 25.9599 47.6711 25.1794 46.7085 25.1794H34.5655L31.3133 18.6741C31.1685 18.3846 30.9459 18.1412 30.6705 17.971C30.3952 17.8009 30.0779 17.7108 29.7542 17.7108C29.4305 17.7108 29.1132 17.8009 28.8378 17.971C28.5624 18.1412 28.3398 18.3846 28.195 18.6741L22.2853 30.4929L16.3762 18.6741C16.2314 18.3846 16.0088 18.1411 15.7334 17.9709C15.4581 17.8007 15.1408 17.7106 14.817 17.7106C14.4933 17.7106 14.176 17.8007 13.9006 17.9709C13.6253 18.1411 13.4027 18.3846 13.2579 18.6741L10.0053 25.1794H4.72088C2.99334 20.1284 3.52324 16.2496 4.00083 14.3772C5.61853 8.03351 10.8925 3.60267 16.827 3.60267C21.3156 3.60267 25.3755 6.22519 28.2586 10.9861C28.4137 11.2426 28.6324 11.4547 28.8935 11.6019C29.1547 11.7491 29.4493 11.8265 29.7491 11.8265C30.0489 11.8265 30.3441 11.7491 30.6052 11.602C30.8664 11.4549 31.0852 11.2429 31.2406 10.9865C34.1259 6.22519 38.1882 3.60267 42.6789 3.60267C48.6158 3.60267 53.892 8.03351 55.5097 14.3773C56.6316 18.7777 58.0446 34.2509 29.7496 49.9947Z" fill="#2972FF"/>
</g>
<defs>
<clipPath id="clip0_0_131">
<rect width="59.5102" height="54" fill="white"/>
</clipPath>
</defs>
</svg>
