<svg width="68" height="59" viewBox="0 0 68 59" fill="none" xmlns="http://www.w3.org/2000/svg">
<g clip-path="url(#clip0_0_112)">
<path d="M60.9883 10.9941H46.394V5.11327C46.394 2.31311 44.1159 0.0351562 41.3157 0.0351562H26.4151C23.6149 0.0351562 21.3369 2.31311 21.3369 5.11327V10.9941H6.74259C3.02464 10.9941 0 14.0189 0 17.7367V52.223C0 55.9408 3.02464 58.9655 6.74259 58.9655H60.9883C64.7062 58.9655 67.7309 55.9408 67.7309 52.223V17.7367C67.7309 14.0189 64.7062 10.9941 60.9883 10.9941ZM25.6382 5.11327C25.6384 4.90731 25.7204 4.70985 25.866 4.56423C26.0117 4.4186 26.2091 4.33669 26.4151 4.33648H41.3157C41.5217 4.33669 41.7191 4.4186 41.8648 4.56423C42.0104 4.70985 42.0924 4.90731 42.0926 5.11327V10.9941H25.6382V5.11327ZM4.30132 17.7367C4.30132 16.3905 5.39641 15.2955 6.74259 15.2955H60.9883C62.3344 15.2955 63.4296 16.3905 63.4296 17.7367V20.9198C63.4296 23.9055 61.4276 26.5735 58.5611 27.4081L36.0671 33.9573C34.6293 34.3768 33.1015 34.3768 31.6637 33.9573L9.16989 27.408C6.30332 26.5734 4.30132 23.9055 4.30132 20.9198V17.7367ZM60.9883 54.6643H6.74259C5.39655 54.6643 4.30132 53.5692 4.30132 52.2231V29.6769C5.38512 30.5146 6.62054 31.1457 7.9674 31.5379C32.8155 38.7725 31.5384 38.5734 33.8654 38.5734C36.2232 38.5734 34.8863 38.781 59.7634 31.5379C61.1104 31.1457 62.3458 30.5146 63.4295 29.6769V52.223C63.4296 53.569 62.3344 54.6643 60.9883 54.6643Z" fill="#2972FF"/>
</g>
<defs>
<clipPath id="clip0_0_112">
<rect width="67.7309" height="59" fill="white"/>
</clipPath>
</defs>
</svg>
