<svg width="59" height="59" viewBox="0 0 59 59" fill="none" xmlns="http://www.w3.org/2000/svg">
<path d="M43.719 12.453H38.9439V6.13407C39.0403 1.9608 34.2416 -0.879066 30.6249 1.17807L9.42427 12.6319C9.2019 12.7722 9.01592 12.9631 8.88158 13.189C8.74723 13.415 8.66834 13.6696 8.65137 13.9319V51.8886C8.65709 53.644 9.35777 55.3258 10.6002 56.5659C11.8426 57.8061 13.5256 58.5038 15.281 58.5064H43.7269C45.4835 58.5028 47.167 57.8029 48.4086 56.5602C49.6502 55.3176 50.3485 53.6334 50.3506 51.8768V19.0846C50.3475 17.3267 49.6478 15.6418 48.4048 14.3988C47.1618 13.1558 45.4769 12.4561 43.719 12.453ZM32.0272 3.76817C33.7578 2.7809 36.0352 4.15167 35.9939 6.13407V12.453H15.9575L32.0272 3.76817ZM47.4006 51.8768C47.399 52.8525 47.0106 53.7879 46.3204 54.4776C45.6303 55.1674 44.6948 55.5554 43.719 55.5564H15.281C14.3064 55.5538 13.3726 55.1651 12.6841 54.4754C11.9955 53.7858 11.6083 52.8513 11.6073 51.8768V15.403H43.7269C44.7016 15.4061 45.6354 15.7952 46.3239 16.4852C47.0124 17.1752 47.3996 18.1098 47.4006 19.0846V51.8768Z" fill="#2972FF"/>
<path d="M24.0859 22.6407C15.0195 27.7737 17.826 41.8118 28.2277 42.9564C35.4807 44.0676 42.13 36.6552 40.1024 29.5634C38.7002 22.6663 30.0665 18.9178 24.0859 22.6407ZM29.1205 24.1452C29.3864 24.1124 29.6553 24.1131 29.921 24.1472C31.2776 26.0498 32.0574 28.303 32.1669 30.6372L26.8726 30.6352C26.9813 28.3005 27.7618 26.0469 29.1205 24.1452ZM21.9284 34.6394C21.8144 34.2949 21.7256 33.9426 21.6629 33.5852H23.9049C24.0151 35.3297 24.3769 37.0466 24.9807 38.6868C23.5488 37.7069 22.4769 36.2854 21.9284 34.6394ZM23.9069 30.6333L21.661 30.6352C22.072 28.6037 23.2343 26.6901 24.9925 25.5553C24.3868 27.1877 24.021 28.8987 23.9069 30.6333ZM29.9701 40.0674C29.6633 40.1028 29.3723 40.1067 29.0694 40.0674C27.722 38.1628 26.9555 35.9085 26.8628 33.5774H32.1728C32.0809 35.908 31.3158 38.1622 29.9701 40.0674ZM37.0757 34.6551C36.5259 36.2849 35.4652 37.6939 34.051 38.673C34.6508 37.0375 35.0105 35.3238 35.1189 33.5852H37.3412C37.2787 33.9478 37.19 34.3054 37.0757 34.6551ZM35.1208 30.6392C35.0079 28.9044 34.6436 27.1952 34.0392 25.5652C35.7659 26.7216 36.9439 28.6155 37.3471 30.6431L35.1208 30.6392ZM37.2035 46.8406H21.8045C19.8811 46.8484 19.8713 49.7827 21.8045 49.7906H37.2035C39.1269 49.7847 39.1348 46.8504 37.2035 46.8406Z" fill="#2972FF"/>
</svg>
