<svg width="76" height="59" viewBox="0 0 76 59" fill="none" xmlns="http://www.w3.org/2000/svg">
<path d="M69.4541 45.3971V25.7098L70.016 25.3827C71.2083 24.6905 71.9195 23.4555 71.9195 22.0782C71.9195 20.7009 71.2083 19.4635 70.016 18.7713L41.1974 2.03056C40.0023 1.33698 38.6452 0.97168 37.2635 0.97168C35.8817 0.97168 34.5246 1.33698 33.3296 2.03056L4.50859 18.7737C3.31858 19.4658 2.60742 20.7009 2.60742 22.0782C2.60742 23.4555 3.31858 24.6905 4.50859 25.3851L13.2464 30.4628V42.2657C13.2484 43.6147 13.6046 44.9396 14.2794 46.1077C14.9541 47.2759 15.9238 48.2464 17.0914 48.9221L29.1195 55.8559C31.6299 57.302 34.4461 58.0274 37.2623 58.0274C40.0785 58.0274 42.8923 57.3043 45.4051 55.8559L57.4308 48.9221C58.5991 48.247 59.5695 47.2767 60.2448 46.1085C60.92 44.9402 61.2764 43.615 61.2782 42.2657V30.4604L65.1872 28.1894V45.3971C64.5159 45.8534 64.0086 46.5128 63.7397 47.2786C63.4709 48.0444 63.4546 48.8763 63.6933 49.652C63.9319 50.4278 64.413 51.1066 65.0659 51.5888C65.7188 52.071 66.509 52.3312 67.3207 52.3312C68.1323 52.3312 68.9226 52.071 69.5754 51.5888C70.2283 51.1066 70.7094 50.4278 70.9481 49.652C71.1868 48.8763 71.1705 48.0444 70.9016 47.2786C70.6327 46.5128 70.1254 45.8534 69.4541 45.3971ZM57.0136 42.2633H57.0112C57.0112 43.4817 56.3593 44.6149 55.3021 45.2217L43.2763 52.1555C41.4466 53.205 39.374 53.7572 37.2646 53.7572C35.1553 53.7572 33.0827 53.205 31.253 52.1555L19.2249 45.2217C18.7057 44.9217 18.2745 44.4904 17.9745 43.9712C17.6745 43.4519 17.5163 42.863 17.5157 42.2633V32.94L33.3296 42.1282C34.525 42.8217 35.8826 43.187 37.2646 43.187C38.6467 43.187 40.0043 42.8217 41.1997 42.1282L57.0136 32.94V42.2633ZM39.0544 38.4396C38.5103 38.7552 37.8925 38.9213 37.2635 38.9213C36.6345 38.9213 36.0166 38.7552 35.4725 38.4396L7.31293 22.0782L35.4702 5.71674C36.0143 5.4012 36.6321 5.23502 37.2611 5.23502C37.8901 5.23502 38.5079 5.4012 39.052 5.71674L67.2116 22.0758L39.0544 38.4396Z" fill="#2972FF"/>
</svg>
