<?xml version="1.0" encoding="UTF-8"?>
<svg xmlns="http://www.w3.org/2000/svg" width="254" height="253" viewBox="0 0 254 253" fill="none">
  <path opacity="0.03" d="M221.597 54.4355H149.614C134.893 32.8218 110.154 18.6372 82.1141 18.6372C36.9798 18.6372 0.384863 55.3888 0.384863 100.725C0.361392 115.995 4.60016 130.966 12.6201 143.939V233.823C12.6201 238.776 14.579 243.526 18.0658 247.028C21.5526 250.53 26.2818 252.497 31.2129 252.497H216.749V127.325L189.606 142.704V117.153L216.749 100.442H240.2V73.1066C240.2 70.6536 239.719 68.2246 238.784 65.9585C237.849 63.6924 236.478 61.6335 234.751 59.8996C233.023 58.1656 230.972 56.7906 228.715 55.8531C226.458 54.9155 224.04 54.4338 221.597 54.4355Z" fill="#EAEAEA"></path>
  <path opacity="0.06" d="M221.978 53.9305H149.995C135.274 32.3194 110.535 18.1348 82.495 18.1348C37.3606 18.1348 0.765718 54.8837 0.765718 100.22C0.742714 115.489 4.98048 130.46 12.9984 143.434V233.318C12.9984 238.271 14.9573 243.021 18.4441 246.523C21.9309 250.025 26.6601 251.992 31.5912 251.992H217.117V126.82L189.987 142.198V116.647L217.117 99.9373H240.571V72.6042C240.571 70.1519 240.09 67.7237 239.156 65.4581C238.221 63.1925 236.852 61.1339 235.125 59.3999C233.399 57.6659 231.349 56.2904 229.093 55.3519C226.837 54.4135 224.42 53.9305 221.978 53.9305Z" fill="#EAEAEA"></path>
  <path opacity="0.08" d="M222.36 53.4251H150.38C135.658 31.814 110.919 17.6294 82.8921 17.6294C37.7578 17.6294 1.16028 54.3784 1.16028 99.7143C1.13385 114.984 5.36901 129.955 13.3852 142.929V232.813C13.3852 237.765 15.3438 242.514 18.8302 246.016C22.3165 249.517 27.045 251.484 31.9754 251.484H217.498V126.317L190.371 141.696V116.155L217.498 99.4449H240.953V72.0988C240.953 67.1462 238.994 62.3965 235.507 58.8945C232.02 55.3925 227.291 53.4251 222.36 53.4251Z" fill="#EAEAEA"></path>
  <path opacity="0.11" d="M222.745 52.9202H150.762C136.04 31.3091 111.302 17.1245 83.2615 17.1245C38.1272 17.1245 1.5323 53.8761 1.5323 99.2094C1.51162 114.48 5.75209 129.451 13.7727 142.424V232.308C13.7734 237.26 15.7326 242.009 19.2193 245.511C22.7061 249.012 27.4348 250.979 32.3655 250.979H217.883V125.812L190.753 141.191V115.637L217.883 98.9296H241.335V71.6017C241.336 69.149 240.856 66.7201 239.922 64.4538C238.988 62.1875 237.619 60.1281 235.893 58.3933C234.167 56.6585 232.117 55.2823 229.861 54.3432C227.605 53.4041 225.187 52.9206 222.745 52.9202Z" fill="#EAEAEA"></path>
  <path opacity="0.14" d="M223.126 52.4149H151.143C136.421 30.8038 111.683 16.6191 83.6427 16.6191C38.5058 16.6191 1.90829 53.3707 1.90829 98.704C1.88579 113.974 6.12448 128.945 14.1436 141.918V231.803C14.1442 236.755 16.1033 241.504 19.59 245.006C23.0767 248.508 27.8054 250.476 32.7363 250.476H218.264V125.307L191.135 140.685V115.134L218.264 98.4243H241.719V71.0834C241.717 66.1319 239.757 61.3839 236.27 57.8832C232.784 54.3825 228.056 52.4156 223.126 52.4149Z" fill="#EAEAEA"></path>
  <path opacity="0.17" d="M223.507 51.9155H151.527C136.806 30.3018 112.067 16.1172 84.0268 16.1172C38.8925 16.1172 2.29498 52.8687 2.29498 98.2046C2.27643 113.475 6.52061 128.444 14.5457 141.414V231.298C14.5485 236.245 16.5054 240.988 19.9869 244.488C23.4684 247.987 28.19 249.955 33.1153 249.962H218.648V124.802L191.519 140.181V114.63L218.648 97.9197H242.1V70.584C242.1 68.1321 241.619 65.7042 240.684 63.4391C239.75 61.1739 238.38 59.1158 236.653 57.3823C234.927 55.6488 232.877 54.2738 230.622 53.3358C228.366 52.3978 225.949 51.9152 223.507 51.9155Z" fill="#EAEAEA"></path>
  <path opacity="0.19" d="M223.892 51.3974H151.909C137.188 29.7838 112.449 15.5991 84.409 15.5991C39.2747 15.5991 2.67977 52.3507 2.67977 97.6866C2.65754 112.957 6.89621 127.927 14.915 140.901V230.783C14.9157 235.735 16.8748 240.484 20.3615 243.986C23.8482 247.488 28.5769 249.456 33.5078 249.456H219.031V124.297L191.901 139.676V114.125L219.031 97.4146H242.482V70.0789C242.484 67.6261 242.004 65.1971 241.07 62.9306C240.137 60.6641 238.767 58.6046 237.041 56.8697C235.315 55.1349 233.265 53.7587 231.009 52.8197C228.753 51.8807 226.334 51.3974 223.892 51.3974Z" fill="#EAEAEA"></path>
  <path opacity="0.22" d="M224.274 50.9027H152.291C137.57 29.2916 112.833 15.1069 84.7934 15.1069C39.6591 15.1069 3.06161 51.8559 3.06161 97.1918C3.03938 112.462 7.27805 127.433 15.2969 140.406V230.291C15.3003 235.241 17.2607 239.987 20.7471 243.486C24.2336 246.986 28.9608 248.951 33.8896 248.951H219.412V123.792L192.283 139.171V113.62L219.412 96.9095H242.867V69.5763C242.867 64.6238 240.908 59.8741 237.421 56.3721C233.934 52.8701 229.205 50.9027 224.274 50.9027Z" fill="#EAEAEA"></path>
  <path opacity="0.25" d="M224.656 50.3975H152.675C137.954 28.7864 113.215 14.6147 85.1751 14.6147C40.0356 14.6147 3.45618 51.3534 3.45618 96.6867C3.42961 111.956 7.66478 126.927 15.6811 139.901V229.785C15.6811 234.737 17.6397 239.486 21.1261 242.988C24.6124 246.489 29.3409 248.457 34.2713 248.457H219.797V123.289L192.667 138.668V113.117L219.797 96.4069H243.248V69.0712C243.248 64.1186 241.29 59.3689 237.803 55.8669C234.316 52.3649 229.587 50.3975 224.656 50.3975Z" fill="#EAEAEA"></path>
  <path opacity="0.28" d="M225.04 49.8924H153.057C138.343 28.2813 113.597 14.0967 85.5565 14.0967C40.4221 14.0967 3.82724 50.8482 3.82724 96.1816C3.80501 111.452 8.04367 126.422 16.0625 139.396V229.28C16.0659 234.232 18.0274 238.98 21.5155 242.479C25.0036 245.978 29.7328 247.943 34.663 247.941H220.178V122.784L193.048 138.173V112.612L220.178 95.9018H243.63V68.5661C243.63 63.614 241.671 58.8646 238.185 55.3627C234.699 51.8608 229.97 49.8931 225.04 49.8924Z" fill="#EAEAEA"></path>
  <path opacity="0.31" d="M225.421 49.3875H153.439C138.72 27.7764 113.978 13.5918 85.9409 13.5918C40.8066 13.5918 4.20907 50.3434 4.20907 95.6767C4.18657 110.947 8.42526 125.918 16.4443 138.891V228.775C16.445 233.728 18.4041 238.477 21.8908 241.979C25.3775 245.481 30.1062 247.448 35.0371 247.449H220.56V122.279L193.43 137.656V112.107L220.56 95.3969H244.014V68.0612C244.013 63.1088 242.054 58.3595 238.568 54.8577C235.081 51.3558 230.352 49.3882 225.421 49.3875Z" fill="#EAEAEA"></path>
  <path opacity="0.33" d="M225.804 48.8847H153.818C139.102 27.2711 114.358 13.0864 86.3231 13.0864C41.1888 13.0864 4.59385 49.838 4.59385 95.1739C4.57003 110.443 8.80884 125.414 16.8291 138.386V228.27C16.8291 233.223 18.788 237.972 22.2748 241.474C24.0013 243.208 26.051 244.584 28.3067 245.522C30.5625 246.461 32.9803 246.944 35.4219 246.944H220.945V121.774L193.815 137.153V111.602L220.945 94.8915H244.396V67.5558C244.396 65.1037 243.916 62.6756 242.981 60.4101C242.047 58.1447 240.677 56.0863 238.951 54.3525C237.224 52.6187 235.174 51.2434 232.919 50.3053C230.663 49.3671 228.245 48.8844 225.804 48.8847Z" fill="#EAEAEA"></path>
  <path opacity="0.36" d="M226.187 48.3798H154.204C139.483 26.7661 114.744 12.5815 86.7039 12.5815C41.5696 12.5815 4.9747 49.333 4.9747 94.6689C4.95247 109.939 9.19114 124.91 17.21 137.883V227.768C17.21 232.72 19.1688 237.47 22.6557 240.972C26.1425 244.474 30.8716 246.441 35.8027 246.441H221.325V121.269L194.196 136.648V111.097L221.325 94.397H244.777V67.0509C244.777 62.099 242.819 57.3499 239.332 53.8484C235.846 50.3469 231.117 48.3798 226.187 48.3798Z" fill="#EAEAEA"></path>
  <path opacity="0.39" d="M226.569 47.8743H154.591C139.867 26.271 115.131 12.0786 87.0883 12.0786C41.954 12.0786 5.35653 48.8275 5.35653 94.1634C5.33398 109.434 9.57363 124.405 17.5944 137.378V227.262C17.5951 232.214 19.554 236.962 23.0402 240.463C26.5265 243.964 31.2546 245.931 36.1846 245.931H221.707V120.763L194.567 136.142V110.594L221.707 93.8785H245.162V66.548C245.162 61.5954 243.203 56.8457 239.716 53.3437C236.229 49.8417 231.5 47.8743 226.569 47.8743Z" fill="#EAEAEA"></path>
  <path opacity="0.42" d="M226.951 47.3694H154.971C140.249 25.7583 115.511 11.5737 87.4705 11.5737C42.3362 11.5737 5.74132 48.3252 5.74132 93.6586C5.71688 108.931 9.95568 123.904 17.9766 136.878V226.763C17.9821 231.711 19.9434 236.455 23.4297 239.952C26.916 243.45 31.642 245.414 36.5693 245.413H222.092V120.261L194.962 135.64V110.089L222.092 93.3788H245.544V66.0431C245.544 63.5908 245.063 61.1626 244.129 58.897C243.194 56.6314 241.825 54.5728 240.098 52.8388C238.372 51.1048 236.322 49.7293 234.066 48.7909C231.81 47.8524 229.393 47.3694 226.951 47.3694Z" fill="#EAEAEA"></path>
  <path opacity="0.44" d="M227.335 46.8641H155.365C140.644 25.253 115.905 11.0684 87.8651 11.0684C42.7308 11.0684 6.13585 47.8199 6.13585 93.1532C6.11119 108.419 10.3453 123.387 18.3582 136.36V226.244C18.3589 231.196 20.3181 235.945 23.8048 239.447C27.2916 242.948 32.0203 244.915 36.951 244.915H222.474V119.756L195.342 135.135V109.584L222.471 92.8735H245.923V65.5378C245.923 60.5861 243.965 55.8372 240.479 52.3353C236.993 48.8335 232.266 46.8655 227.335 46.8641Z" fill="#EAEAEA"></path>
  <path opacity="0.47" d="M227.716 46.3592H155.734C141.015 24.7481 116.273 10.5635 88.2358 10.5635C43.1015 10.5635 6.504 47.315 6.504 92.6483C6.48103 107.919 10.7207 122.89 18.7418 135.863V225.726C18.7418 230.678 20.7004 235.428 24.1866 238.93C27.6729 242.432 32.4014 244.399 37.332 244.4H222.855V119.264L195.725 134.63V109.079L222.855 92.3686H246.309V65.0329C246.308 60.0805 244.349 55.3312 240.863 51.8293C237.376 48.3275 232.647 46.3599 227.716 46.3592Z" fill="#EAEAEA"></path>
  <path opacity="0.5" d="M228.096 45.8564H156.118C141.397 24.2427 116.658 10.0581 88.618 10.0581C43.4837 10.0581 6.88877 46.8097 6.88877 92.1456C6.86496 107.415 11.1038 122.385 19.124 135.357V225.242C19.124 230.194 21.0829 234.944 24.5697 238.446C28.0566 241.948 32.7857 243.915 37.7168 243.915H223.24V118.746L196.115 134.124V108.573L223.245 91.8632H246.696V64.5275C246.696 62.0747 246.215 59.6459 245.28 57.38C244.346 55.114 242.975 53.0553 241.248 51.3214C239.521 49.5875 237.47 48.2124 235.213 47.2747C232.957 46.337 230.538 45.8551 228.096 45.8564Z" fill="#EAEAEA"></path>
  <path opacity="0.53" d="M228.483 45.3516H156.5C141.779 23.7379 117.04 9.55328 88.9999 9.55328C43.8655 9.55328 7.27059 46.3048 7.27059 91.6407C7.24836 106.911 11.487 121.882 19.5059 134.855V224.727C19.5059 229.679 21.4647 234.429 24.9516 237.931C28.4384 241.433 33.1675 243.4 38.0986 243.4H223.621V118.241L196.492 133.62V108.069L223.621 91.3584H247.073V64.0227C247.073 61.5708 246.592 59.1429 245.658 56.8776C244.724 54.6123 243.355 52.554 241.628 50.8202C239.902 49.0865 237.853 47.7112 235.597 46.7729C233.342 45.8345 230.924 45.3516 228.483 45.3516Z" fill="#EAEAEA"></path>
  <path opacity="0.56" d="M228.87 44.8466H156.882C142.163 23.2355 117.422 9.05084 89.3843 9.05084C44.2499 9.05084 7.65243 45.7998 7.65243 91.1357C7.62987 106.406 11.8695 121.377 19.8903 134.35V224.234C19.8899 226.687 20.3705 229.115 21.3046 231.38C22.2387 233.646 23.608 235.705 25.3343 237.439C27.0606 239.173 29.1101 240.548 31.3657 241.487C33.6213 242.425 36.0389 242.908 38.4805 242.908H224.003V117.736L196.874 133.115V107.566L224.003 90.8534H247.458V63.5202C247.458 58.5686 245.499 53.8196 242.014 50.3178C238.528 46.816 233.8 44.8479 228.87 44.8466Z" fill="#EAEAEA"></path>
  <path opacity="0.58" d="M229.246 44.3412H157.266C142.544 22.7301 117.805 8.54547 89.7655 8.54547C44.6311 8.54547 8.03623 45.297 8.03623 90.6303C8.01276 105.901 12.2515 120.872 20.2715 133.845V223.729C20.2715 226.181 20.7524 228.609 21.6868 230.875C22.6212 233.14 23.9908 235.199 25.7174 236.932C27.4439 238.666 29.4936 240.042 31.7493 240.98C34.0051 241.918 36.4228 242.401 38.8643 242.4H224.387V117.233L197.257 132.612V107.061L224.387 90.3506H247.839V63.0149C247.839 58.0623 245.88 53.3126 242.393 49.8106C238.906 46.3086 234.177 44.3412 229.246 44.3412Z" fill="#EAEAEA"></path>
  <path opacity="0.61" d="M229.643 43.8358H157.648C142.926 22.2247 118.187 8.04004 90.1473 8.04004C45.013 8.04004 8.41806 44.7916 8.41806 90.1249C8.39555 105.395 12.6342 120.366 20.6533 133.339V223.224C20.654 228.176 22.6131 232.925 26.0998 236.427C29.5864 239.929 34.3152 241.897 39.2461 241.897H224.769V116.728L197.639 132.106V106.555L224.769 89.8452H248.213V62.5094C248.212 57.5611 246.256 52.8153 242.775 49.3142C239.293 45.813 234.57 43.8426 229.643 43.8358Z" fill="#EAEAEA"></path>
  <path opacity="0.64" d="M230.012 43.3309H158.032C143.31 21.7198 118.572 7.53516 90.5317 7.53516C45.3974 7.53516 8.79989 44.2867 8.79989 89.6226C8.77727 104.892 13.0169 119.863 21.0377 132.834V222.719C21.0377 227.671 22.9963 232.42 26.4825 235.922C29.9688 239.424 34.6973 241.392 39.6279 241.392H225.151V116.223L198.024 131.601V106.053L225.151 89.3429H248.605V62.0175C248.606 59.5642 248.126 57.1348 247.193 54.8678C246.259 52.6009 244.89 50.5409 243.163 48.8056C241.436 47.0703 239.386 45.6936 237.13 44.7543C234.873 43.8149 232.455 43.3312 230.012 43.3309Z" fill="#EAEAEA"></path>
  <path opacity="0.67" d="M230.396 42.8281H158.413C143.692 21.2144 118.953 7.02979 90.9129 7.02979C45.7786 7.02979 9.18369 43.7813 9.18369 89.1172C9.16022 104.387 13.399 119.359 21.419 132.332V222.203C21.419 227.156 23.3778 231.905 26.8647 235.407C30.3515 238.909 35.0806 240.877 40.0117 240.877H225.534V115.717L198.405 131.096V105.535L225.534 88.8245H248.986V61.4992C248.986 56.5473 247.028 51.7982 243.541 48.2967C240.055 44.7952 235.326 42.8281 230.396 42.8281Z" fill="#EAEAEA"></path>
  <path opacity="0.69" d="M230.779 42.3309H158.796C144.075 20.7198 119.336 6.53516 91.2957 6.53516C46.1614 6.53516 9.56648 43.2841 9.56648 88.62C9.5457 103.887 13.7843 118.855 21.8018 131.827V221.711C21.8018 226.664 23.7606 231.413 27.2474 234.915C30.7343 238.417 35.4634 240.385 40.3945 240.385H225.917V115.212L198.788 130.591V105.04L225.917 88.3299H249.372V60.9968C249.37 56.0456 247.41 51.2978 243.923 47.7975C240.437 44.2972 235.709 42.3309 230.779 42.3309Z" fill="#EAEAEA"></path>
  <path opacity="0.72" d="M231.16 41.8128H159.179C144.458 20.2017 119.719 6.01709 91.6792 6.01709C46.5449 6.01709 9.94736 42.7661 9.94736 88.102C9.9248 103.372 14.1644 118.344 22.1852 131.316V221.201C22.1852 226.153 24.1438 230.902 27.6301 234.403C31.1165 237.905 35.845 239.872 40.7754 239.872H226.29V114.71L199.171 130.086V104.538L226.29 87.8248H249.76V60.4917C249.761 58.0383 249.28 55.6089 248.346 53.3422C247.411 51.0755 246.041 49.016 244.314 47.2813C242.586 45.5466 240.535 44.1708 238.278 43.2325C236.021 42.2942 233.602 41.8118 231.16 41.8128Z" fill="#EAEAEA"></path>
  <path opacity="0.75" d="M231.544 41.3128H159.562C144.84 19.7017 120.101 5.51709 92.0613 5.51709C46.927 5.51709 10.3321 42.2687 10.3321 87.602C10.3099 102.872 14.5486 117.843 22.5674 130.816V220.701C22.5674 223.153 23.0483 225.581 23.9827 227.846C24.9171 230.112 26.2867 232.17 28.0132 233.904C29.7398 235.638 31.7894 237.013 34.0452 237.951C36.301 238.889 38.7186 239.372 41.1602 239.372H226.683V114.205L199.553 129.583V104.032L226.683 87.3222H250.135V59.9865C250.135 55.0344 248.176 50.285 244.69 46.7831C241.204 43.2812 236.475 41.3135 231.544 41.3128Z" fill="#EAEAEA"></path>
  <path opacity="0.78" d="M231.925 40.8079H159.943C145.221 19.1968 120.482 5.01221 92.4422 5.01221C47.3079 5.01221 10.713 41.7638 10.713 87.0971C10.6905 102.367 14.9292 117.338 22.9483 130.312V220.196C22.9489 225.148 24.908 229.898 28.3947 233.399C31.8814 236.901 36.6101 238.869 41.541 238.87H227.064V113.7L199.934 129.079V103.528L227.064 86.8173H250.518V59.4816C250.517 54.5293 248.558 49.7799 245.072 46.2781C241.585 42.7762 236.856 40.8086 231.925 40.8079Z" fill="#EAEAEA"></path>
  <path opacity="0.81" d="M232.308 40.3058H160.328C145.606 18.6921 120.868 4.5127 92.8276 4.5127C47.6933 4.5127 11.0958 41.2642 11.0958 86.6001C11.0738 101.868 15.3135 116.837 23.3336 129.807V219.691C23.3336 224.643 25.2922 229.393 28.7784 232.894C32.2647 236.396 36.9932 238.364 41.9238 238.365H227.449V113.195L200.32 128.574V103.023L227.449 86.3126H250.901V58.9769C250.901 56.5248 250.42 54.0966 249.486 51.8312C248.551 49.5657 247.182 47.5073 245.455 45.7735C243.729 44.0397 241.679 42.6645 239.423 41.7263C237.167 40.7882 234.75 40.3055 232.308 40.3058Z" fill="#EAEAEA"></path>
  <path opacity="0.83" d="M232.692 39.8007H160.709C145.988 18.187 121.249 3.99463 93.2088 3.99463C48.0745 3.99463 11.4796 40.7462 11.4796 86.0821C11.4573 101.352 15.696 116.323 23.7149 129.296V219.181C23.7155 224.133 25.6746 228.883 29.1613 232.384C32.648 235.886 37.3767 237.854 42.3076 237.855H227.838V112.69L200.701 128.071V102.518L227.838 85.8075H251.29V58.4718C251.29 56.0192 250.809 53.5907 249.874 51.3249C248.939 49.0591 247.569 47.0005 245.842 45.2666C244.115 43.5327 242.065 42.1576 239.808 41.2197C237.552 40.2819 235.134 39.7997 232.692 39.8007Z" fill="#EAEAEA"></path>
  <path opacity="0.86" d="M233.074 39.2952H161.091C146.369 17.6841 121.631 3.49951 93.5933 3.49951C48.4589 3.49951 11.8614 40.2485 11.8614 85.5844C11.8369 100.854 16.0729 115.824 24.089 128.799V218.683C24.089 223.636 26.0478 228.385 29.5347 231.887C33.0215 235.389 37.7506 237.357 42.6817 237.357H228.204V112.184L201.083 127.553V102.012L228.212 85.302H251.667V57.9689C251.667 55.5166 251.186 53.0884 250.251 50.8228C249.317 48.5572 247.947 46.4986 246.221 44.7646C244.494 43.0306 242.445 41.6551 240.189 40.7167C237.933 39.7782 235.515 39.2952 233.074 39.2952Z" fill="#EAEAEA"></path>
  <path opacity="0.89" d="M233.456 38.7904H161.475C146.754 17.1793 122.015 2.99463 93.9828 2.99463C48.8485 2.99463 12.2433 39.741 12.2433 85.0717C12.2207 100.342 16.4603 115.313 24.4811 128.286V218.171C24.4811 223.122 26.4397 227.871 29.926 231.373C33.4124 234.874 38.1409 236.842 43.0713 236.842H228.597V111.682L201.467 127.061V101.51L228.597 84.7971H252.048V57.464C252.049 55.0117 251.568 52.5833 250.634 50.3175C249.7 48.0518 248.33 45.9931 246.603 44.259C244.877 42.5249 242.827 41.1494 240.571 40.2111C238.315 39.2728 235.897 38.79 233.456 38.7904Z" fill="#EAEAEA"></path>
  <path opacity="0.92" d="M233.839 38.285H161.857C147.135 16.6739 122.396 2.48926 94.3563 2.48926C49.222 2.48926 12.627 39.2408 12.627 84.5741C12.6048 99.8442 16.8435 114.815 24.8623 127.789V217.673C24.8623 222.625 26.8212 227.375 30.308 230.877C33.7948 234.379 38.524 236.347 43.4551 236.347H228.978V111.177L201.848 126.556V101.005L228.978 84.2944H252.43V56.9587C252.43 52.0065 250.471 47.2572 246.985 43.7553C243.499 40.2534 238.77 38.2857 233.839 38.285Z" fill="#EAEAEA"></path>
  <path opacity="0.94" d="M234.221 37.7801H162.238C147.52 16.169 122.781 1.98438 94.7407 1.98438C49.6064 1.98438 13.0089 38.7359 13.0089 84.0692C12.9845 99.3429 17.2232 114.318 25.2442 127.294V217.178C25.251 222.127 27.2128 226.87 30.6988 230.367C34.1848 233.864 38.9101 235.828 43.8369 235.829H229.36V110.672L202.23 126.051V100.5L229.36 83.7895H252.814V56.4538C252.813 51.5014 250.854 46.7521 247.368 43.2503C243.881 39.7484 239.152 37.7808 234.221 37.7801Z" fill="#EAEAEA"></path>
  <path opacity="0.97" d="M234.603 37.2773H162.623C147.902 15.6636 123.163 1.479 95.1229 1.479C49.9885 1.479 13.3936 38.2306 13.3936 83.5665C13.3726 98.8358 17.6141 113.805 25.6366 126.776V216.66C25.6366 221.613 27.5955 226.362 31.0823 229.864C34.5692 233.366 39.2983 235.334 44.2294 235.334H229.752V110.167L202.615 125.545V99.9943L229.744 83.2841H253.196V55.9484C253.196 53.4963 252.715 51.0681 251.781 48.8027C250.846 46.5372 249.477 44.4788 247.75 42.745C246.024 41.0112 243.974 39.636 241.718 38.6978C239.463 37.7597 237.045 37.277 234.603 37.2773Z" fill="#EAEAEA"></path>
  <path d="M234.988 36.7724H163.005C148.284 15.1587 123.545 0.974121 95.5047 0.974121C50.3704 0.974121 13.7755 37.7257 13.7755 83.0616C13.7532 98.3316 17.9919 113.302 26.0107 126.276V216.142C26.0114 221.095 27.9705 225.844 31.4572 229.346C34.9439 232.848 39.6726 234.815 44.6035 234.816H230.126V109.662L202.997 125.04V99.4894L230.126 82.7792H253.578V55.4435C253.578 50.4916 251.619 45.7426 248.133 42.2411C244.647 38.7396 239.918 36.7724 234.988 36.7724Z" fill="#EAEAEA"></path>
  <path d="M235.212 36.8423H163.23C148.5 15.2286 123.772 1.04395 95.7319 1.04395C50.5976 1.04395 14.0001 37.7955 14.0001 83.1314C13.981 98.4024 18.2252 113.373 26.2508 126.343V216.228C26.2535 221.174 28.2104 225.918 31.6919 229.417C35.1734 232.916 39.8951 234.885 44.8204 234.891H230.343V109.731L203.221 125.11V99.5592L230.351 82.8491H253.805V55.5133C253.805 50.5612 251.845 45.8122 248.359 42.3107C244.872 38.8093 240.143 36.8423 235.212 36.8423Z" fill="#7C9440"></path>
  <path d="M95.494 151.59C133.874 151.59 164.988 120.341 164.988 81.7934C164.988 43.2459 133.874 11.997 95.494 11.997C57.1135 11.997 26 43.2459 26 81.7934C26 120.341 57.1135 151.59 95.494 151.59Z" fill="url(#paint0_linear_921_596)"></path>
  <g clip-path="url(#clip0_921_596)">
    <path d="M94.7863 81.4458C96.7716 81.4458 98.4908 80.7338 99.8954 79.3289C101.3 77.9243 102.012 76.2056 102.012 74.2201C102.012 72.2352 101.3 70.5163 99.8952 69.1112C98.4903 67.7068 96.7714 66.9948 94.7863 66.9948C92.8008 66.9948 91.0821 67.7068 89.6775 69.1114C88.2728 70.5161 87.5605 72.235 87.5605 74.2201C87.5605 76.2056 88.2728 77.9245 89.6777 79.3291C91.0826 80.7336 92.8015 81.4458 94.7863 81.4458Z" fill="#7C9440"></path>
    <path d="M107.429 90.0628C107.389 89.4782 107.307 88.8406 107.186 88.1672C107.064 87.4888 106.908 86.8475 106.72 86.2613C106.526 85.6555 106.262 85.0572 105.937 84.4838C105.598 83.8887 105.201 83.3705 104.755 82.9441C104.289 82.498 103.718 82.1394 103.058 81.8778C102.4 81.6175 101.671 81.4857 100.891 81.4857C100.585 81.4857 100.289 81.6114 99.717 81.9837C99.3649 82.2133 98.9532 82.4788 98.4936 82.7725C98.1006 83.0229 97.5682 83.2575 96.9106 83.4699C96.2691 83.6775 95.6177 83.7828 94.9748 83.7828C94.3318 83.7828 93.6807 83.6775 93.0384 83.4699C92.3816 83.2577 91.8492 83.0231 91.4566 82.7727C91.0014 82.4818 90.5894 82.2163 90.2321 81.9835C89.6608 81.6111 89.3644 81.4855 89.0582 81.4855C88.2782 81.4855 87.5494 81.6175 86.8918 81.878C86.2322 82.1392 85.6612 82.4978 85.1945 82.9444C84.7488 83.371 84.3513 83.889 84.0134 84.4838C83.6877 85.0572 83.4241 85.6552 83.23 86.2615C83.0425 86.8477 82.8857 87.4888 82.764 88.1672C82.6434 88.8396 82.5614 89.4775 82.5209 90.0635C82.4811 90.6375 82.4609 91.2333 82.4609 91.835C82.4609 93.401 82.9588 94.6688 83.9404 95.6038C84.91 96.5264 86.1928 96.9944 87.7529 96.9944H102.198C103.758 96.9944 105.04 96.5266 106.01 95.6038C106.992 94.6695 107.49 93.4015 107.49 91.8348C107.49 91.2303 107.469 90.6341 107.429 90.0628Z" fill="#7C9440"></path>
  </g>
  <path d="M143.102 35.4567C169.925 62.3961 170.232 105.898 144.015 133.221C144.33 132.918 144.644 132.615 144.954 132.304C172.091 105.046 172.091 60.8522 144.954 33.5968C117.816 6.34141 73.8117 6.33882 46.6744 33.5968C46.3649 33.9077 46.0597 34.2211 45.7588 34.5371C72.9658 8.20645 116.272 8.50952 143.102 35.4567Z" fill="white"></path>
  <path d="M47.6143 187.134C46.9717 187.134 46.3952 187.011 45.8848 186.765C45.3743 186.519 44.9391 186.172 44.5791 185.726C44.2236 185.275 43.9502 184.741 43.7588 184.126C43.5719 183.511 43.4785 182.832 43.4785 182.089V181.945C43.4785 181.207 43.5719 180.53 43.7588 179.915C43.9502 179.295 44.2236 178.76 44.5791 178.309C44.9391 177.858 45.3743 177.509 45.8848 177.263C46.3952 177.017 46.9717 176.894 47.6143 176.894C48.2933 176.894 48.8903 177.017 49.4053 177.263C49.9202 177.509 50.3509 177.858 50.6973 178.309C51.0482 178.76 51.3125 179.295 51.4902 179.915C51.668 180.53 51.7568 181.207 51.7568 181.945V182.089C51.7568 182.832 51.668 183.511 51.4902 184.126C51.3125 184.741 51.0482 185.275 50.6973 185.726C50.3509 186.172 49.9202 186.519 49.4053 186.765C48.8903 187.011 48.2933 187.134 47.6143 187.134ZM47.6143 186.013C48.2751 186.013 48.8083 185.849 49.2139 185.521C49.624 185.193 49.9248 184.734 50.1162 184.147C50.3076 183.554 50.4033 182.868 50.4033 182.089V181.932C50.4033 181.157 50.3053 180.478 50.1094 179.895C49.918 179.307 49.6172 178.849 49.207 178.521C48.7969 178.188 48.266 178.022 47.6143 178.022C47.0173 178.022 46.5114 178.188 46.0967 178.521C45.682 178.853 45.3675 179.314 45.1533 179.901C44.9391 180.485 44.832 181.162 44.832 181.932V182.089C44.832 182.864 44.9391 183.547 45.1533 184.14C45.3675 184.728 45.682 185.188 46.0967 185.521C46.5114 185.849 47.0173 186.013 47.6143 186.013ZM55.1133 186.99V186.129L56.2275 185.938V180.64H54.6689L54.5664 181.795H53.418V179.594H60.418V181.795H59.2627L59.1602 180.64H57.5742V185.938L58.6885 186.129V186.99H55.1133ZM68.1016 187.134C67.4954 187.134 66.9554 187.025 66.4814 186.806C66.0075 186.582 65.6361 186.268 65.3672 185.862C65.1029 185.452 64.9775 184.967 64.9912 184.406L65.0117 184.365H66.2969C66.2969 184.716 66.3698 185.019 66.5156 185.275C66.6615 185.53 66.8688 185.728 67.1377 185.869C67.4066 186.011 67.7279 186.081 68.1016 186.081C68.6712 186.081 69.1178 185.926 69.4414 185.616C69.765 185.306 69.9268 184.848 69.9268 184.242C69.9268 183.627 69.7832 183.174 69.4961 182.882C69.209 182.59 68.7555 182.444 68.1357 182.444H66.96V181.392H68.1357C68.5322 181.392 68.8512 181.326 69.0928 181.193C69.3343 181.057 69.5075 180.863 69.6123 180.612C69.7217 180.357 69.7764 180.052 69.7764 179.696C69.7764 179.127 69.6351 178.694 69.3525 178.398C69.07 178.101 68.653 177.953 68.1016 177.953C67.7507 177.953 67.4453 178.024 67.1855 178.165C66.9258 178.302 66.723 178.498 66.5771 178.753C66.4359 179.004 66.3652 179.3 66.3652 179.642H65.0732L65.0596 179.601C65.0459 179.099 65.1644 178.644 65.415 178.234C65.6702 177.823 66.028 177.498 66.4883 177.256C66.9531 177.014 67.4909 176.894 68.1016 176.894C69.0221 176.894 69.7559 177.14 70.3027 177.632C70.8496 178.12 71.123 178.817 71.123 179.724C71.123 180.134 70.9977 180.544 70.7471 180.954C70.501 181.36 70.1296 181.67 69.6328 181.884C70.2298 182.08 70.6514 182.387 70.8975 182.807C71.1481 183.226 71.2734 183.695 71.2734 184.215C71.2734 184.821 71.1367 185.343 70.8633 185.78C70.5944 186.213 70.2207 186.548 69.7422 186.785C69.2637 187.018 68.7168 187.134 68.1016 187.134ZM72.7021 186.99V186.068L75.9629 182.444C76.3503 182.012 76.6533 181.642 76.8721 181.337C77.0908 181.027 77.2435 180.747 77.3301 180.496C77.4167 180.246 77.46 179.986 77.46 179.717C77.46 179.22 77.3096 178.803 77.0088 178.466C76.708 178.124 76.2773 177.953 75.7168 177.953C75.1335 177.953 74.6777 178.129 74.3496 178.48C74.026 178.831 73.8643 179.327 73.8643 179.97H72.5723L72.5586 179.929C72.5449 179.355 72.6657 178.84 72.9209 178.384C73.1761 177.924 73.5452 177.561 74.0283 177.297C74.516 177.028 75.0947 176.894 75.7646 176.894C76.3936 176.894 76.9336 177.014 77.3848 177.256C77.8405 177.493 78.1914 177.819 78.4375 178.234C78.6836 178.648 78.8066 179.124 78.8066 179.662C78.8066 180.027 78.7337 180.389 78.5879 180.749C78.4466 181.109 78.237 181.478 77.959 181.857C77.6855 182.235 77.3551 182.634 76.9678 183.053L74.3496 185.903L74.3633 185.938H77.8975L78.0068 184.796H79.1484V186.99H72.7021ZM83.5645 186.99V186.129L84.6787 185.938V184.693H80.208V183.935L84.5967 177.037H86.0186V183.641H87.3926V184.693H86.0186V185.938L87.1328 186.129V186.99H83.5645ZM81.6436 183.641H84.6787V178.958L84.6377 178.944L84.501 179.307L81.6436 183.641ZM94.4746 187.134C93.8275 187.134 93.2487 186.977 92.7383 186.662C92.2324 186.343 91.8337 185.881 91.542 185.275C91.2503 184.668 91.1045 183.935 91.1045 183.073V181.734C91.1045 180.681 91.2617 179.797 91.5762 179.081C91.8952 178.361 92.3327 177.817 92.8887 177.447C93.4492 177.078 94.0918 176.894 94.8164 176.894C95.1536 176.894 95.4886 176.932 95.8213 177.01C96.1585 177.087 96.4365 177.185 96.6553 177.304L96.3955 178.309C96.1813 178.204 95.9466 178.12 95.6914 178.056C95.4362 177.987 95.1445 177.953 94.8164 177.953C94.1191 177.953 93.5632 178.218 93.1484 178.746C92.7383 179.27 92.5195 180.063 92.4922 181.125L92.5195 181.152C92.7747 180.915 93.0869 180.729 93.4561 180.592C93.8252 180.451 94.224 180.38 94.6523 180.38C95.2448 180.38 95.7598 180.521 96.1973 180.804C96.6348 181.082 96.972 181.467 97.209 181.959C97.4505 182.451 97.5713 183.012 97.5713 183.641C97.5713 184.329 97.4437 184.935 97.1885 185.459C96.9333 185.983 96.5732 186.393 96.1084 186.69C95.6436 186.986 95.099 187.134 94.4746 187.134ZM94.4746 186.081C94.8438 186.081 95.1582 185.974 95.418 185.76C95.6777 185.546 95.876 185.254 96.0127 184.885C96.154 184.516 96.2246 184.101 96.2246 183.641C96.2246 182.984 96.0583 182.444 95.7256 182.021C95.3975 181.597 94.9417 181.385 94.3584 181.385C94.0531 181.385 93.7751 181.428 93.5244 181.515C93.2783 181.597 93.0641 181.715 92.8818 181.87C92.7041 182.021 92.5583 182.198 92.4443 182.403V183.203C92.4443 184.128 92.6357 184.839 93.0186 185.336C93.4059 185.833 93.8913 186.081 94.4746 186.081ZM102.097 187.134C101.121 187.134 100.349 186.794 99.7793 186.115C99.2096 185.436 98.9248 184.463 98.9248 183.196V180.838C98.9248 179.571 99.2074 178.598 99.7725 177.919C100.338 177.235 101.108 176.894 102.083 176.894C103.063 176.894 103.838 177.235 104.407 177.919C104.977 178.598 105.262 179.571 105.262 180.838V183.196C105.262 184.468 104.979 185.443 104.414 186.122C103.849 186.797 103.076 187.134 102.097 187.134ZM102.097 186.081C102.694 186.081 103.145 185.862 103.45 185.425C103.76 184.987 103.915 184.336 103.915 183.47V180.551C103.915 179.69 103.758 179.042 103.443 178.609C103.133 178.172 102.68 177.953 102.083 177.953C101.495 177.953 101.046 178.172 100.736 178.609C100.426 179.042 100.271 179.69 100.271 180.551V183.47C100.271 184.331 100.429 184.983 100.743 185.425C101.058 185.862 101.509 186.081 102.097 186.081ZM110.081 187.134C109.106 187.134 108.333 186.794 107.764 186.115C107.194 185.436 106.909 184.463 106.909 183.196V180.838C106.909 179.571 107.192 178.598 107.757 177.919C108.322 177.235 109.092 176.894 110.067 176.894C111.047 176.894 111.822 177.235 112.392 177.919C112.961 178.598 113.246 179.571 113.246 180.838V183.196C113.246 184.468 112.964 185.443 112.398 186.122C111.833 186.797 111.061 187.134 110.081 187.134ZM110.081 186.081C110.678 186.081 111.129 185.862 111.435 185.425C111.744 184.987 111.899 184.336 111.899 183.47V180.551C111.899 179.69 111.742 179.042 111.428 178.609C111.118 178.172 110.664 177.953 110.067 177.953C109.479 177.953 109.031 178.172 108.721 178.609C108.411 179.042 108.256 179.69 108.256 180.551V183.47C108.256 184.331 108.413 184.983 108.728 185.425C109.042 185.862 109.493 186.081 110.081 186.081ZM114.367 189.834V188.966L115.413 188.775V180.653L114.299 180.462V179.594H116.568L116.691 180.496C116.938 180.159 117.236 179.901 117.587 179.724C117.942 179.546 118.353 179.457 118.817 179.457C119.428 179.457 119.95 179.623 120.383 179.956C120.816 180.284 121.146 180.747 121.374 181.344C121.602 181.936 121.716 182.631 121.716 183.429V183.572C121.716 184.283 121.6 184.905 121.367 185.439C121.139 185.972 120.811 186.389 120.383 186.69C119.954 186.986 119.439 187.134 118.838 187.134C118.382 187.134 117.981 187.059 117.635 186.908C117.293 186.753 117.001 186.526 116.76 186.225V188.775L117.936 188.966V189.834H114.367ZM118.421 186.081C119.059 186.081 119.542 185.849 119.87 185.384C120.198 184.919 120.362 184.315 120.362 183.572V183.429C120.362 182.864 120.289 182.367 120.144 181.939C119.998 181.506 119.779 181.166 119.487 180.92C119.2 180.674 118.84 180.551 118.407 180.551C118.024 180.551 117.696 180.637 117.423 180.811C117.149 180.984 116.928 181.221 116.76 181.522V185.124C116.928 185.429 117.147 185.666 117.416 185.835C117.689 185.999 118.024 186.081 118.421 186.081ZM126.029 187.845L130.186 177.037H131.32L127.171 187.845H126.029ZM135.812 186.99V186.129L136.926 185.938V180.653L135.812 180.462V179.594H136.926H138.662L141.068 185.227H141.109L143.522 179.594H145.211H146.325V180.462L145.211 180.653V185.938L146.325 186.129V186.99H142.75V186.129L143.864 185.938V181.857L143.823 181.843L141.554 186.99H140.624L138.313 181.734L138.272 181.747V185.938L139.387 186.129V186.99H135.812ZM150.81 187.134C150.126 187.134 149.531 186.979 149.025 186.669C148.52 186.355 148.128 185.919 147.85 185.363C147.576 184.807 147.439 184.165 147.439 183.436V183.135C147.439 182.433 147.583 181.806 147.87 181.255C148.162 180.699 148.547 180.262 149.025 179.943C149.508 179.619 150.035 179.457 150.604 179.457C151.27 179.457 151.826 179.594 152.272 179.867C152.724 180.141 153.063 180.526 153.291 181.023C153.519 181.515 153.633 182.096 153.633 182.766V183.607H148.834L148.813 183.641C148.823 184.115 148.905 184.536 149.06 184.905C149.219 185.27 149.447 185.557 149.743 185.767C150.039 185.976 150.395 186.081 150.81 186.081C151.265 186.081 151.664 186.017 152.006 185.89C152.352 185.758 152.651 185.578 152.901 185.35L153.428 186.225C153.163 186.48 152.812 186.696 152.375 186.874C151.942 187.047 151.42 187.134 150.81 187.134ZM148.875 182.554H152.286V182.376C152.286 182.021 152.222 181.704 152.095 181.426C151.972 181.143 151.785 180.922 151.534 180.763C151.288 180.599 150.978 180.517 150.604 180.517C150.304 180.517 150.03 180.606 149.784 180.783C149.538 180.957 149.335 181.193 149.176 181.494C149.016 181.795 148.911 182.137 148.861 182.52L148.875 182.554ZM158.302 187.134C157.632 187.134 157.049 186.979 156.552 186.669C156.055 186.355 155.67 185.919 155.396 185.363C155.123 184.807 154.986 184.165 154.986 183.436V183.149C154.986 182.447 155.118 181.818 155.383 181.262C155.647 180.706 156.028 180.266 156.524 179.943C157.021 179.619 157.614 179.457 158.302 179.457C158.899 179.457 159.421 179.555 159.867 179.751C160.318 179.947 160.697 180.216 161.002 180.558L161.036 182.335H159.983L159.751 181.043C159.596 180.884 159.402 180.756 159.17 180.66C158.938 180.565 158.664 180.517 158.35 180.517C157.949 180.517 157.595 180.635 157.29 180.872C156.989 181.109 156.755 181.426 156.586 181.822C156.417 182.219 156.333 182.661 156.333 183.149V183.436C156.333 183.973 156.41 184.441 156.565 184.837C156.725 185.234 156.951 185.541 157.242 185.76C157.538 185.974 157.889 186.081 158.295 186.081C158.751 186.081 159.129 185.956 159.43 185.705C159.73 185.455 159.915 185.11 159.983 184.673H161.193L161.207 184.714C161.184 185.138 161.059 185.534 160.831 185.903C160.603 186.273 160.277 186.571 159.854 186.799C159.434 187.022 158.917 187.134 158.302 187.134ZM162.745 186.99V185.609H164.092V186.99H162.745ZM43.6631 206.99V206.129L44.7773 205.938V200.653L43.6631 200.462V199.594H51.8799V200.462L50.7656 200.653V205.938L51.8799 206.129V206.99H48.3047V206.129L49.4189 205.938V200.66H46.124V205.938L47.2383 206.129V206.99H43.6631ZM52.8438 209.834V208.966L53.8896 208.775V200.653L52.7754 200.462V199.594H55.0449L55.168 200.496C55.4141 200.159 55.7126 199.901 56.0635 199.724C56.4189 199.546 56.8291 199.457 57.2939 199.457C57.9046 199.457 58.4264 199.623 58.8594 199.956C59.2923 200.284 59.6227 200.747 59.8506 201.344C60.0785 201.936 60.1924 202.631 60.1924 203.429V203.572C60.1924 204.283 60.0762 204.905 59.8438 205.439C59.6159 205.972 59.2878 206.389 58.8594 206.69C58.431 206.986 57.916 207.134 57.3145 207.134C56.8587 207.134 56.4577 207.059 56.1113 206.908C55.7695 206.753 55.4779 206.526 55.2363 206.225V208.775L56.4121 208.966V209.834H52.8438ZM56.8975 206.081C57.5355 206.081 58.0186 205.849 58.3467 205.384C58.6748 204.919 58.8389 204.315 58.8389 203.572V203.429C58.8389 202.864 58.766 202.367 58.6201 201.939C58.4743 201.506 58.2555 201.166 57.9639 200.92C57.6768 200.674 57.3167 200.551 56.8838 200.551C56.501 200.551 56.1729 200.637 55.8994 200.811C55.626 200.984 55.4049 201.221 55.2363 201.522V205.124C55.4049 205.429 55.6237 205.666 55.8926 205.835C56.166 205.999 56.501 206.081 56.8975 206.081ZM61.6826 206.99V206.129L62.7969 205.938V200.653L61.6826 200.462V199.594H64.1367H65.251V200.462L64.1367 200.653V204.83L64.1777 204.844L67.4385 199.594H68.7852H69.8994V200.462L68.7852 200.653V205.938L69.8994 206.129V206.99H66.3242V206.129L67.4385 205.938V201.754L67.3975 201.74L64.1367 206.99H61.6826ZM74.876 206.99V206.129L76.4141 205.938V198.48L74.8486 198.507V197.666L77.7607 197.037V205.938L79.292 206.129V206.99H74.876ZM83.9678 206.99V206.129L85.082 205.938V200.653L83.9678 200.462V199.594H87.543V200.462L86.4287 200.653V202.718H87.1396L88.6846 200.647C88.9626 200.259 89.2337 199.965 89.498 199.765C89.7669 199.564 90.0677 199.464 90.4004 199.464C90.61 199.464 90.7832 199.491 90.9199 199.546C91.0566 199.596 91.2116 199.676 91.3848 199.785L91.1934 200.701C90.9974 200.669 90.8835 200.651 90.8516 200.647C90.8242 200.642 90.765 200.64 90.6738 200.64C90.5052 200.64 90.3389 200.701 90.1748 200.824C90.0153 200.947 89.874 201.093 89.751 201.262L88.3223 203.114L90.6533 205.958L91.6035 206.129V206.99H89.8057L87.3037 203.853H86.4287V205.938L87.543 206.129V206.99H83.9678ZM95.4385 207.134C94.7549 207.134 94.1647 206.974 93.668 206.655C93.1758 206.332 92.7952 205.887 92.5264 205.322C92.2575 204.753 92.123 204.103 92.123 203.374V203.224C92.123 202.495 92.2575 201.847 92.5264 201.282C92.7952 200.713 93.1758 200.266 93.668 199.943C94.1647 199.619 94.7503 199.457 95.4248 199.457C96.1084 199.457 96.6963 199.619 97.1885 199.943C97.6852 200.266 98.068 200.71 98.3369 201.276C98.6058 201.841 98.7402 202.49 98.7402 203.224V203.374C98.7402 204.108 98.6058 204.76 98.3369 205.329C98.068 205.894 97.6875 206.336 97.1953 206.655C96.7031 206.974 96.1175 207.134 95.4385 207.134ZM95.4385 206.081C95.8669 206.081 96.2246 205.965 96.5117 205.733C96.8034 205.496 97.0221 205.174 97.168 204.769C97.3184 204.359 97.3936 203.894 97.3936 203.374V203.224C97.3936 202.704 97.3184 202.242 97.168 201.836C97.0221 201.426 96.8034 201.105 96.5117 200.872C96.2201 200.635 95.8577 200.517 95.4248 200.517C94.9964 200.517 94.6364 200.635 94.3447 200.872C94.0531 201.105 93.8343 201.426 93.6885 201.836C93.5426 202.242 93.4697 202.704 93.4697 203.224V203.374C93.4697 203.894 93.5426 204.359 93.6885 204.769C93.8343 205.174 94.0531 205.496 94.3447 205.733C94.641 205.965 95.0055 206.081 95.4385 206.081ZM100.114 206.99V206.129L101.229 205.938V200.653L100.114 200.462V199.594H101.229H102.965L105.371 205.227H105.412L107.825 199.594H109.514H110.628V200.462L109.514 200.653V205.938L110.628 206.129V206.99H107.053V206.129L108.167 205.938V201.857L108.126 201.843L105.856 206.99H104.927L102.616 201.734L102.575 201.747V205.938L103.689 206.129V206.99H100.114ZM114.135 207.134C113.365 207.134 112.779 206.947 112.378 206.573C111.977 206.195 111.776 205.664 111.776 204.981C111.776 204.511 111.904 204.103 112.159 203.757C112.419 203.406 112.793 203.135 113.28 202.943C113.768 202.748 114.351 202.65 115.03 202.65H116.35V201.925C116.35 201.478 116.213 201.132 115.939 200.886C115.671 200.64 115.29 200.517 114.798 200.517C114.488 200.517 114.219 200.555 113.991 200.633C113.763 200.706 113.556 200.808 113.369 200.941L113.226 201.973H112.187V200.277C112.519 200.009 112.907 199.806 113.349 199.669C113.791 199.528 114.281 199.457 114.818 199.457C115.716 199.457 116.42 199.671 116.931 200.1C117.441 200.528 117.696 201.141 117.696 201.939V205.5C117.696 205.596 117.696 205.689 117.696 205.78C117.701 205.872 117.708 205.963 117.717 206.054L118.435 206.129V206.99H116.5C116.459 206.79 116.427 206.61 116.404 206.45C116.382 206.291 116.366 206.131 116.356 205.972C116.097 206.304 115.771 206.582 115.379 206.806C114.992 207.025 114.577 207.134 114.135 207.134ZM114.333 206.006C114.78 206.006 115.188 205.899 115.557 205.685C115.926 205.47 116.19 205.213 116.35 204.912V203.572H114.982C114.363 203.572 113.898 203.72 113.588 204.017C113.278 204.313 113.123 204.643 113.123 205.008C113.123 205.332 113.223 205.58 113.424 205.753C113.624 205.922 113.927 206.006 114.333 206.006ZM119.638 206.99V206.129L120.752 205.938V200.653L119.638 200.462V199.594H123.213V200.462L122.099 200.653V202.793H125.387V200.653L124.272 200.462V199.594H125.387H126.74H127.854V200.462L126.74 200.653V205.938L127.854 206.129V206.99H124.272V206.129L125.387 205.938V203.846H122.099V205.938L123.213 206.129V206.99H119.638ZM129.099 209.164L128.969 205.938H129.55C129.741 205.719 129.908 205.502 130.049 205.288C130.19 205.069 130.313 204.83 130.418 204.57C130.523 204.306 130.607 203.998 130.671 203.648C130.739 203.292 130.789 202.868 130.821 202.376L130.89 200.647L129.816 200.462V199.594H135.764H136.878V200.462L135.764 200.653V205.938H136.748L136.611 209.164H135.401V206.99H130.309V209.164H129.099ZM131.102 205.938H134.417V200.79H132.229L132.168 202.376C132.118 203.196 131.999 203.896 131.812 204.475C131.63 205.054 131.393 205.541 131.102 205.938ZM141.308 207.134C140.624 207.134 140.029 206.979 139.523 206.669C139.018 206.355 138.626 205.919 138.348 205.363C138.074 204.807 137.938 204.165 137.938 203.436V203.135C137.938 202.433 138.081 201.806 138.368 201.255C138.66 200.699 139.045 200.262 139.523 199.943C140.007 199.619 140.533 199.457 141.103 199.457C141.768 199.457 142.324 199.594 142.771 199.867C143.222 200.141 143.561 200.526 143.789 201.023C144.017 201.515 144.131 202.096 144.131 202.766V203.607H139.332L139.312 203.641C139.321 204.115 139.403 204.536 139.558 204.905C139.717 205.27 139.945 205.557 140.241 205.767C140.537 205.976 140.893 206.081 141.308 206.081C141.763 206.081 142.162 206.017 142.504 205.89C142.85 205.758 143.149 205.578 143.399 205.35L143.926 206.225C143.661 206.48 143.311 206.696 142.873 206.874C142.44 207.047 141.918 207.134 141.308 207.134ZM139.373 202.554H142.784V202.376C142.784 202.021 142.72 201.704 142.593 201.426C142.47 201.143 142.283 200.922 142.032 200.763C141.786 200.599 141.476 200.517 141.103 200.517C140.802 200.517 140.528 200.606 140.282 200.783C140.036 200.957 139.833 201.193 139.674 201.494C139.514 201.795 139.41 202.137 139.359 202.52L139.373 202.554Z" fill="white"></path>
  <defs>
    <linearGradient id="paint0_linear_921_596" x1="144.645" y1="32.451" x2="45.9386" y2="130.729" gradientUnits="userSpaceOnUse">
      <stop stop-color="#E6E6E6"></stop>
      <stop offset="0.03" stop-color="#E9E9E9"></stop>
      <stop offset="0.21" stop-color="#F6F6F6"></stop>
      <stop offset="0.45" stop-color="#FDFDFD"></stop>
      <stop offset="1" stop-color="white"></stop>
    </linearGradient>
    <clipPath id="clip0_921_596">
      <rect width="29.9999" height="29.9987" fill="white" transform="translate(80 66.9948)"></rect>
    </clipPath>
  </defs>
</svg>
