<?xml version="1.0" encoding="UTF-8"?>
<svg xmlns="http://www.w3.org/2000/svg" width="254" height="252" viewBox="0 0 254 252" fill="none">
  <path opacity="0.03" d="M222.19 53.4355H150.218C135.496 31.8192 110.758 17.6294 82.7098 17.6294C37.5755 17.6294 0.980568 54.381 0.980568 99.7143C0.956821 114.985 5.19559 129.956 13.2158 142.929V232.813C13.2158 237.766 15.1747 242.515 18.6615 246.017C22.1484 249.519 26.8775 251.487 31.8086 251.487H163.307V235.258L216.315 161.797C218.625 158.689 220.502 155.279 221.894 151.661C223.204 148.19 223.859 144.96 223.859 141.973V141.75C223.859 137.347 222.514 133.95 219.823 131.56C217.132 129.17 213.307 127.975 208.348 127.975C203.534 127.975 199.639 129.636 196.662 132.959C193.686 136.281 191.881 141.003 191.246 147.125V147.236H161.393V147.125C162.031 136.974 164.352 128.24 168.357 120.921C172.361 113.603 177.761 108.021 184.556 104.177C191.358 100.333 199.22 98.4113 208.142 98.4113C217.771 98.4113 226.003 100.072 232.839 103.393C235.697 104.766 238.368 106.5 240.788 108.552V72.1092C240.788 69.6565 240.307 67.2278 239.372 64.9618C238.438 62.6959 237.068 60.6371 235.341 58.903C233.614 57.169 231.563 55.7936 229.307 54.8554C227.051 53.9173 224.632 53.4348 222.19 53.4355Z" fill="#EAEAEA"></path>
  <path opacity="0.06" d="M222.564 52.933H150.589C135.867 31.3168 111.129 17.127 83.0808 17.127C37.9465 17.127 1.35165 53.8785 1.35165 99.2118C1.32915 114.482 5.56785 129.453 13.5869 142.426V232.311C13.5876 237.263 15.5467 242.012 19.0334 245.514C22.52 249.016 27.2488 250.984 32.1797 250.984H163.678V234.756L216.689 161.292C218.997 158.185 220.873 154.776 222.265 151.161C223.575 147.69 224.23 144.461 224.23 141.473V141.25C224.23 136.845 222.885 133.448 220.194 131.06C217.503 128.672 213.678 127.477 208.719 127.475C203.905 127.475 200.01 129.136 197.033 132.459C194.057 135.781 192.252 140.503 191.617 146.625V146.737H161.764V146.625C162.402 136.473 164.723 127.737 168.728 120.419C172.732 113.1 178.135 107.519 184.935 103.675C191.733 99.8309 199.594 97.9089 208.518 97.9089C218.147 97.9089 226.38 99.5693 233.218 102.89C236.072 104.265 238.741 105.999 241.159 108.05V71.6067C241.159 69.1542 240.678 66.7258 239.744 64.46C238.809 62.1943 237.439 60.1356 235.713 58.4015C233.986 56.6675 231.936 55.292 229.68 54.3538C227.424 53.4155 225.006 52.9327 222.564 52.933Z" fill="#EAEAEA"></path>
  <path opacity="0.08" d="M222.936 52.4306H150.961C136.24 30.8143 111.501 16.6245 83.453 16.6245C38.3186 16.6245 1.72372 53.3761 1.72372 98.7094C1.70122 113.98 5.93989 128.95 13.959 141.924V231.808C13.9597 236.76 15.9189 241.509 19.4056 245.011C22.8924 248.512 27.6211 250.479 32.5518 250.479H164.045V234.253L217.056 160.789C219.365 157.682 221.241 154.273 222.632 150.656C223.942 147.185 224.597 143.956 224.597 140.968V140.745C224.597 136.34 223.252 132.942 220.561 130.552C217.87 128.162 214.045 126.968 209.086 126.97C204.272 126.97 200.378 128.631 197.403 131.954C194.428 135.276 192.623 139.998 191.987 146.12V146.239H162.136V146.128C162.772 135.977 165.094 127.242 169.1 119.922C173.106 112.601 178.507 107.021 185.302 103.18C192.1 99.3363 199.961 97.4134 208.885 97.4116C218.514 97.4116 226.747 99.0729 233.585 102.395C236.441 103.77 239.111 105.504 241.531 107.555V71.1043C241.531 68.6518 241.05 66.2233 240.116 63.9576C239.181 61.6918 237.812 59.6331 236.085 57.8991C234.358 56.165 232.308 54.7896 230.052 53.8513C227.796 52.913 225.378 52.4303 222.936 52.4306Z" fill="#EAEAEA"></path>
  <path opacity="0.11" d="M223.307 51.9282H151.332C136.613 30.3119 111.872 16.1221 83.8266 16.1221C38.6923 16.1221 2.09481 52.8736 2.09481 98.2069C2.07258 113.477 6.31127 128.448 14.3301 141.421V231.306C14.3308 236.258 16.29 241.007 19.7767 244.508C23.2634 248.01 27.9922 249.977 32.9229 249.977H164.421V233.751L217.432 160.287C219.741 157.18 221.617 153.77 223.008 150.153C224.318 146.682 224.973 143.453 224.973 140.466V140.243C224.973 135.837 223.628 132.44 220.937 130.05C218.246 127.66 214.421 126.466 209.463 126.467C204.648 126.467 200.754 128.129 197.779 131.451C194.805 134.774 192.999 139.496 192.363 145.618V145.721H162.51V145.61C163.148 135.456 165.469 126.72 169.474 119.404C173.478 112.087 178.878 106.506 185.673 102.662C192.471 98.8182 200.333 96.8954 209.256 96.8936C218.885 96.8936 227.118 98.5549 233.956 101.877C236.813 103.252 239.484 104.986 241.905 107.037V70.6018C241.905 68.1492 241.423 65.7207 240.489 63.4549C239.554 61.1891 238.184 59.1305 236.457 57.3965C234.73 55.6625 232.68 54.2871 230.424 53.3488C228.167 52.4106 225.749 51.9278 223.307 51.9282Z" fill="#EAEAEA"></path>
  <path opacity="0.14" d="M223.678 51.433H151.703C136.984 29.8168 112.243 15.627 84.1977 15.627C39.0634 15.627 2.46588 52.3785 2.46588 97.7118C2.44786 112.981 6.69105 127.949 14.714 140.918V230.803C14.714 235.755 16.6726 240.504 20.159 244.005C23.6453 247.507 28.3738 249.474 33.3042 249.474H164.792V233.248L217.803 159.784C220.112 156.677 221.988 153.267 223.379 149.65C224.689 146.178 225.345 142.948 225.347 139.963V139.74C225.347 135.335 224.001 131.937 221.308 129.547C218.615 127.157 214.792 125.963 209.836 125.965C205.022 125.965 201.127 127.626 198.15 130.948C195.174 134.271 193.369 138.993 192.734 145.115V145.226H162.881V145.115C163.519 134.961 165.84 126.225 169.845 118.908C173.849 111.592 179.249 106.011 186.044 102.167C192.842 98.3231 200.704 96.4003 209.627 96.3985C219.256 96.3985 227.489 98.0598 234.327 101.382C237.184 102.757 239.854 104.49 242.276 106.54V70.0989C242.273 65.147 240.313 60.3989 236.825 56.8986C233.338 53.3983 228.609 51.4324 223.678 51.433Z" fill="#EAEAEA"></path>
  <path opacity="0.17" d="M224.05 50.9155H152.075C137.356 29.2966 112.615 15.1094 84.5698 15.1094C39.4355 15.1094 2.83798 51.8609 2.83798 97.1942C2.81542 112.465 7.05509 127.436 15.0758 140.409V230.293C15.0758 235.245 17.0344 239.994 20.5208 243.495C24.0071 246.997 28.7356 248.964 33.666 248.964H165.164V232.756L218.175 159.292C220.484 156.185 222.361 152.775 223.754 149.159C225.064 145.684 225.719 142.455 225.719 139.471V139.246C225.719 134.842 224.373 131.445 221.68 129.055C218.988 126.665 215.164 125.468 210.211 125.462C205.397 125.462 201.501 127.124 198.525 130.446C195.549 133.769 193.743 138.491 193.109 144.613V144.724H163.253V144.613C163.891 134.459 166.212 125.723 170.217 118.406C174.221 111.09 179.621 105.509 186.416 101.665C193.216 97.8211 201.077 95.8982 209.999 95.8965C219.628 95.8965 227.861 97.5577 234.699 100.88C237.556 102.254 240.227 103.987 242.648 106.038V69.5969C242.65 67.1434 242.169 64.7138 241.235 62.4468C240.301 60.1798 238.931 58.12 237.204 56.385C235.477 54.65 233.426 53.274 231.169 52.3355C228.912 51.397 226.493 50.9144 224.05 50.9155Z" fill="#EAEAEA"></path>
  <path opacity="0.19" d="M224.424 50.4208H152.439C137.717 28.802 112.978 14.6147 84.9305 14.6147C39.7962 14.6147 3.20127 51.3637 3.20127 96.6996C3.1778 111.97 7.41658 126.941 15.4366 139.914V229.798C15.4362 232.251 15.9169 234.679 16.8511 236.945C17.7854 239.211 19.1549 241.269 20.8815 243.003C22.608 244.738 24.6578 246.113 26.9138 247.051C29.1697 247.99 31.5876 248.472 34.0293 248.472H165.528V232.238L218.536 158.774C220.854 155.67 222.739 152.261 224.138 148.643C225.448 145.172 226.103 141.944 226.103 138.958V138.728C226.103 134.324 224.757 130.927 222.067 128.537C219.376 126.147 215.551 124.953 210.592 124.955C205.778 124.955 201.883 126.616 198.906 129.939C195.93 133.261 194.125 137.983 193.49 144.105V144.217H163.624V144.105C164.26 133.951 166.582 125.216 170.588 117.899C174.594 110.582 179.992 105.005 186.782 101.168C193.582 97.3239 201.444 95.401 210.368 95.3993C219.996 95.3993 228.229 97.0605 235.065 100.383C237.922 101.757 240.593 103.49 243.014 105.54V69.0945C243.014 66.6424 242.534 64.2142 241.6 61.9486C240.666 59.683 239.296 57.6244 237.57 55.8904C235.844 54.1563 233.794 52.7808 231.539 51.8423C229.283 50.9039 226.865 50.4208 224.424 50.4208Z" fill="#EAEAEA"></path>
  <path opacity="0.22" d="M224.795 49.9184H152.82C138.099 28.2995 113.36 14.1123 85.3123 14.1123C40.178 14.1123 3.58309 50.8613 3.58309 96.1972C3.56086 111.467 7.79955 126.438 15.8184 139.412V229.296C15.8184 234.248 17.7772 238.998 21.2641 242.5C24.7509 246.002 29.48 247.97 34.4111 247.97H165.909V231.741L218.92 158.277C221.23 155.169 223.106 151.759 224.496 148.141C225.805 144.67 226.459 141.446 226.459 138.469V138.243C226.459 133.84 225.113 130.443 222.423 128.053C219.732 125.663 215.907 124.469 210.948 124.471C206.134 124.471 202.239 126.131 199.262 129.452C196.286 132.773 194.481 137.495 193.846 143.618V143.732H163.996V143.618C164.632 133.466 166.953 124.731 170.959 117.415C174.965 110.098 180.364 104.51 187.156 100.65C193.954 96.8059 201.816 94.883 210.739 94.8813C220.368 94.8813 228.601 96.5425 235.439 99.8651C238.295 101.239 240.965 102.972 243.386 105.022V68.5921C243.386 66.1399 242.905 63.7117 241.971 61.4461C241.037 59.1806 239.668 57.122 237.942 55.3879C236.215 53.6539 234.166 52.2784 231.91 51.3399C229.654 50.4014 227.237 49.9184 224.795 49.9184Z" fill="#EAEAEA"></path>
  <path opacity="0.25" d="M225.169 49.4156H153.191C138.47 27.7967 113.731 13.6069 85.6834 13.6069C40.5491 13.6069 3.95419 50.3585 3.95419 95.6944C3.93196 110.964 8.17061 125.935 16.1894 138.909V228.793C16.1894 233.746 18.1483 238.495 21.6352 241.997C25.122 245.499 29.8511 247.467 34.7822 247.467H166.28V231.238L219.291 157.774C221.601 154.667 223.477 151.256 224.867 147.638C226.178 144.167 226.833 140.939 226.833 137.953V137.728C226.833 133.324 225.487 129.927 222.796 127.537C220.105 125.147 216.281 123.956 211.322 123.963C206.508 123.963 202.613 125.623 199.639 128.944C196.664 132.265 194.859 136.987 194.222 143.11V143.224H164.367V143.11C165.003 132.96 167.324 124.225 171.33 116.907C175.337 109.588 180.737 104.007 187.532 100.163C194.331 96.3187 202.192 94.3966 211.116 94.3966C220.744 94.3966 228.978 96.0579 235.816 99.3804C238.67 100.754 241.339 102.486 243.759 104.535V68.0867C243.759 63.135 241.8 58.3864 238.314 54.885C234.827 51.3836 230.099 49.4163 225.169 49.4156Z" fill="#EAEAEA"></path>
  <path opacity="0.28" d="M225.538 48.9132H153.563C138.844 27.2943 114.102 13.1045 86.0571 13.1045C40.9228 13.1045 4.32528 49.856 4.32528 95.192C4.30305 110.462 8.54174 125.433 16.5606 138.406V228.291C16.5613 233.243 18.5203 237.992 22.007 241.494C25.4937 244.996 30.2224 246.964 35.1533 246.964H166.652V230.736L219.663 157.272C221.972 154.164 223.848 150.754 225.239 147.136C226.549 143.665 227.204 140.436 227.204 137.451V137.225C227.204 132.822 225.858 129.425 223.168 127.035C220.477 124.645 216.653 123.448 211.696 123.445C206.881 123.445 202.986 125.106 200.01 128.428C197.033 131.751 195.228 136.473 194.594 142.595V142.706H164.74V142.613C165.378 132.461 167.7 123.726 171.704 116.409C175.709 109.093 181.108 103.511 187.903 99.6655C194.702 95.8214 202.563 93.8994 211.487 93.8994C221.115 93.8994 229.349 95.5606 236.187 98.8832C239.041 100.249 241.71 101.975 244.13 104.017V67.5843C244.13 62.6321 242.171 57.8831 238.684 54.3816C235.197 50.8802 230.468 48.9132 225.538 48.9132Z" fill="#EAEAEA"></path>
  <path opacity="0.31" d="M225.91 48.4107H153.935C139.216 26.7919 114.474 12.6021 86.4292 12.6021C41.2948 12.6021 4.69736 49.3536 4.69736 94.6895C4.6748 109.96 8.91444 124.931 16.9352 137.904V227.788C16.9352 232.74 18.8937 237.49 22.38 240.992C25.8663 244.494 30.5947 246.461 35.5254 246.462H167.024V230.234L220.034 156.769C222.344 153.661 224.22 150.251 225.61 146.633C226.921 143.162 227.577 139.933 227.578 136.946V136.723C227.578 132.319 226.232 128.922 223.539 126.532C220.847 124.142 217.023 122.947 212.068 122.947C207.253 122.947 203.358 124.609 200.382 127.931C197.405 131.254 195.6 135.976 194.966 142.098V142.209H165.112V142.095C165.749 131.944 168.07 123.21 172.076 115.891C176.082 108.573 181.482 102.992 188.275 99.1475C195.07 95.3138 202.93 93.3969 211.854 93.3969C221.482 93.3969 229.716 95.0582 236.554 98.3807C239.414 99.7485 242.088 101.477 244.513 103.525V67.0818C244.512 64.6289 244.031 62.2001 243.096 59.9341C242.161 57.6681 240.79 55.6094 239.062 53.8755C237.335 52.1417 235.284 50.7666 233.027 49.829C230.771 48.8913 228.352 48.4094 225.91 48.4107Z" fill="#EAEAEA"></path>
  <path opacity="0.33" d="M226.28 47.9083H154.305C139.586 26.2894 114.845 12.0996 86.7997 12.0996C41.6653 12.0996 5.07041 48.8512 5.07041 94.1871C5.0466 109.457 9.28542 124.427 17.3057 137.399V227.283C17.3057 232.236 19.2646 236.986 22.7514 240.488C26.2382 243.99 30.9674 245.957 35.8985 245.957H167.397V229.729L220.408 156.267C222.717 153.158 224.594 149.748 225.986 146.131C227.296 142.66 227.952 139.431 227.952 136.443V136.22C227.952 131.817 226.605 128.42 223.913 126.03C221.22 123.64 217.396 122.445 212.441 122.445C207.626 122.445 203.731 124.106 200.755 127.429C197.779 130.751 195.973 135.473 195.339 141.595V141.707H165.483V141.595C166.119 131.443 168.44 122.708 172.447 115.391C176.453 108.075 181.853 102.493 188.646 98.6476C195.444 94.8018 203.305 92.879 212.227 92.879C221.855 92.879 230.088 94.5402 236.924 97.8627C239.782 99.2347 242.453 100.968 244.873 103.02V66.5794C244.873 64.1272 244.392 61.6991 243.458 59.4337C242.523 57.1682 241.154 55.1098 239.427 53.376C237.701 51.6422 235.651 50.267 233.395 49.3288C231.139 48.3906 228.722 47.908 226.28 47.9083Z" fill="#EAEAEA"></path>
  <path opacity="0.36" d="M226.655 47.4027H154.68C139.958 25.7864 115.219 11.5966 87.1717 11.5966C42.0374 11.5966 5.44248 48.3482 5.44248 93.6841C5.41908 108.953 9.65784 123.924 17.6777 136.896V226.78C17.6777 231.733 19.6366 236.483 23.1234 239.985C26.6102 243.487 31.3394 245.454 36.2705 245.454H167.769V229.226L220.785 155.764C223.095 152.656 224.972 149.246 226.363 145.628C227.674 142.157 228.329 138.928 228.329 135.94V135.717C228.329 131.314 226.983 127.917 224.292 125.527C221.601 123.137 217.777 121.942 212.818 121.942C208.004 121.942 204.108 123.603 201.132 126.926C198.156 130.248 196.35 134.97 195.716 141.092V141.204H165.85V141.092C166.486 130.942 168.807 122.207 172.813 114.888C176.82 107.57 182.219 101.989 189.013 98.1446C195.815 94.3006 203.677 92.3786 212.599 92.3786C222.227 92.3786 230.461 94.0398 237.299 97.3623C240.155 98.7349 242.826 100.468 245.245 102.52V66.0764C245.245 61.1243 243.286 56.3749 239.8 52.873C236.314 49.3711 231.585 47.4034 226.655 47.4027Z" fill="#EAEAEA"></path>
  <path opacity="0.39" d="M227.026 46.9003H155.051C140.329 25.284 115.591 11.0942 87.5428 11.0942C42.4085 11.0942 5.81357 47.8457 5.81357 93.179C5.79058 108.45 10.0293 123.422 18.0489 136.396V226.28C18.0495 231.233 20.0086 235.982 23.4953 239.484C26.982 242.986 31.7107 244.953 36.6416 244.954H168.14V228.723L221.151 155.261C223.456 152.153 225.329 148.742 226.716 145.125C228.027 141.654 228.682 138.425 228.682 135.438V135.215C228.682 130.808 227.336 127.411 224.645 125.025C221.955 122.638 218.13 121.443 213.171 121.439C208.357 121.439 204.461 123.101 201.485 126.423C198.509 129.746 196.703 134.468 196.069 140.59V140.701H166.226V140.59C166.862 130.437 169.184 121.703 173.19 114.386C177.196 107.069 182.597 101.488 189.392 97.6422C196.19 93.7981 204.051 91.8761 212.975 91.8761C222.604 91.8761 230.837 93.5365 237.675 96.8573C240.531 98.2317 243.201 99.9657 245.621 102.017V65.5739C245.621 63.1214 245.14 60.693 244.206 58.4272C243.271 56.1615 241.901 54.1028 240.175 52.3687C238.448 50.6347 236.398 49.2593 234.142 48.321C231.886 47.3827 229.468 46.8999 227.026 46.9003Z" fill="#EAEAEA"></path>
  <path opacity="0.42" d="M227.398 46.3978H155.423C140.704 24.7815 115.963 10.5917 87.9148 10.5917C42.7805 10.5917 6.18564 47.3433 6.18564 92.6766C6.16313 107.947 10.4018 122.918 18.4209 135.891V225.775C18.4216 230.728 20.3807 235.477 23.8673 238.979C27.354 242.481 32.0828 244.448 37.0136 244.449H168.512V228.221L221.523 154.756C223.832 151.649 225.708 148.24 227.099 144.623C228.409 141.152 229.064 137.923 229.064 134.935V134.712C229.064 130.307 227.719 126.91 225.028 124.522C222.337 122.134 218.516 120.939 213.564 120.937C208.749 120.937 204.855 122.598 201.88 125.921C198.906 129.243 197.1 133.966 196.464 140.087V140.199H166.598V140.087C167.234 129.935 169.556 121.2 173.562 113.881C177.568 106.562 182.969 100.982 189.764 97.1397C196.562 93.2957 204.423 91.3737 213.347 91.3737C222.976 91.3737 231.209 93.0341 238.047 96.3549C240.904 97.7298 243.575 99.4637 245.996 101.515V65.0715C245.996 62.6189 245.514 60.1904 244.579 57.9246C243.645 55.6588 242.275 53.6002 240.548 51.8661C238.821 50.1321 236.771 48.7567 234.514 47.8185C232.258 46.8802 229.84 46.3975 227.398 46.3978Z" fill="#EAEAEA"></path>
  <path opacity="0.44" d="M227.769 45.8954H155.791C141.072 24.2792 116.331 10.0894 88.2856 10.0894C43.1513 10.0894 6.5538 46.8409 6.5538 92.1742C6.53124 107.445 10.7709 122.416 18.7917 135.389V225.273C18.7917 230.225 20.7503 234.974 24.2366 238.475C27.7229 241.977 32.4514 243.944 37.3818 243.944H168.88V227.718L221.894 154.254C224.203 151.147 226.079 147.738 227.47 144.121C228.78 140.65 229.435 137.42 229.435 134.433V134.21C229.435 129.805 228.089 126.407 225.399 124.017C222.708 121.627 218.884 120.433 213.927 120.435C209.112 120.435 205.217 122.096 202.241 125.418C199.264 128.741 197.459 133.463 196.825 139.585V139.696H166.972V139.585C167.608 129.431 169.929 120.695 173.935 113.379C177.941 106.062 183.341 100.481 190.134 96.6374C196.933 92.7933 204.794 90.8704 213.718 90.8687C223.346 90.8687 231.58 92.53 238.418 95.8525C241.274 97.2274 243.945 98.9613 246.367 101.012V64.5691C246.366 62.1165 245.885 59.688 244.95 57.4222C244.015 55.1564 242.645 53.0978 240.918 51.3638C239.191 49.6298 237.141 48.2544 234.885 47.3161C232.629 46.3778 230.211 45.8951 227.769 45.8954Z" fill="#EAEAEA"></path>
  <path opacity="0.47" d="M228.14 45.393H156.165C141.446 23.7767 116.705 9.58691 88.6596 9.58691C43.5253 9.58691 6.92782 46.3385 6.92782 91.6718C6.90527 106.942 11.1449 121.913 19.1657 134.886V224.771C19.1657 229.722 21.1243 234.471 24.6106 237.973C28.0969 241.475 32.8254 243.442 37.7558 243.442H169.254V227.216L222.265 153.752C224.574 150.645 226.45 147.235 227.841 143.618C229.151 140.145 229.807 136.916 229.809 133.93V133.708C229.809 129.302 228.463 125.905 225.77 123.515C223.077 121.125 219.253 119.931 214.298 119.932C209.484 119.932 205.588 121.594 202.612 124.916C199.636 128.239 197.831 132.961 197.196 139.083V139.194H167.343V139.083C167.979 128.928 170.3 120.193 174.307 112.876C178.313 105.559 183.713 99.979 190.506 96.1349C197.304 92.2909 205.166 90.368 214.089 90.3663C223.718 90.3663 231.951 92.0275 238.789 95.3501C241.646 96.7239 244.317 98.4569 246.738 100.507V64.0667C246.738 61.614 246.257 59.1853 245.322 56.9194C244.388 54.6534 243.018 52.5946 241.291 50.8606C239.564 49.1265 237.513 47.7511 235.257 46.813C233.001 45.8748 230.582 45.3923 228.14 45.393Z" fill="#EAEAEA"></path>
  <path opacity="0.5" d="M228.522 44.8901H156.539C141.818 23.2712 117.079 9.08398 89.0311 9.08398C43.8968 9.08398 7.30185 45.8355 7.30185 91.1688C7.27838 106.439 11.5171 121.41 19.5371 134.383V224.268C19.5371 226.72 20.0181 229.148 20.9525 231.413C21.8869 233.679 23.2564 235.737 24.983 237.471C26.7095 239.205 28.7592 240.58 31.0149 241.518C33.2707 242.456 35.6884 242.939 38.1299 242.939H169.625V226.713L222.636 153.249C224.947 150.142 226.823 146.732 228.215 143.115C229.525 139.641 230.18 136.411 230.18 133.427V133.205C230.18 128.799 228.835 125.402 226.144 123.012C223.453 120.622 219.628 119.428 214.67 119.429C209.855 119.429 205.96 121.091 202.984 124.413C200.007 127.736 198.202 132.458 197.567 138.58V138.691H167.714V138.58C168.351 128.425 170.672 119.69 174.678 112.373C178.684 105.056 184.08 99.476 190.867 95.632C197.669 91.7879 205.531 89.865 214.453 89.8633C224.081 89.8633 232.314 91.5246 239.15 94.8471C242.007 96.221 244.678 97.954 247.099 100.004V63.5637C247.099 58.6139 245.142 53.8665 241.659 50.365C238.175 46.8634 233.45 44.8942 228.522 44.8901Z" fill="#EAEAEA"></path>
  <path opacity="0.53" d="M228.885 44.3877H156.91C142.189 22.7688 117.45 8.5816 89.4022 8.5816C44.2679 8.5816 7.67294 45.3306 7.67294 90.6665C7.65071 105.937 11.8894 120.907 19.9082 133.881V223.765C19.9082 228.718 21.8671 233.468 25.3539 236.97C28.8407 240.472 33.5699 242.439 38.501 242.439H169.999V226.211L223.01 152.746C225.319 149.639 227.195 146.23 228.586 142.613C229.896 139.142 230.551 135.913 230.551 132.928V132.702C230.551 128.299 229.206 124.902 226.515 122.512C223.824 120.122 219.999 118.928 215.041 118.93C210.226 118.93 206.331 120.591 203.355 123.913C200.378 127.236 198.573 131.958 197.939 138.08V138.191H168.086V138.08C168.722 127.926 171.043 119.19 175.049 111.873C179.055 104.557 184.456 98.9763 191.251 95.1322C198.05 91.2882 205.911 89.3653 214.834 89.3635C224.463 89.3635 232.696 91.0248 239.534 94.3473C242.39 95.7219 245.06 97.4548 247.481 99.5047V63.0614C247.481 60.6088 247 58.1802 246.066 55.9143C245.131 53.6483 243.762 51.5895 242.035 49.8554C240.308 48.1213 238.258 46.7459 236.002 45.8077C233.745 44.8695 231.327 44.387 228.885 44.3877Z" fill="#EAEAEA"></path>
  <path opacity="0.56" d="M229.257 43.8852H157.282C142.561 22.2664 117.822 8.07916 89.7742 8.07916C44.6399 8.07916 8.04501 44.8281 8.04501 90.164C8.02278 105.434 12.2614 120.405 20.2803 133.378V223.263C20.2803 228.215 22.2392 232.965 25.726 236.467C29.2128 239.969 33.9419 241.936 38.8731 241.936H170.371V225.708L223.382 152.244C225.692 149.136 227.568 145.726 228.958 142.108C230.268 138.637 230.923 135.408 230.923 132.423V132.197C230.923 127.794 229.578 124.397 226.887 122.007C224.196 119.617 220.372 118.423 215.413 118.424C210.598 118.424 206.704 120.085 203.729 123.406C200.755 126.726 198.949 131.449 198.313 137.572V137.691H168.458V137.577C169.095 127.427 171.417 118.692 175.421 111.374C179.426 104.055 184.826 98.4747 191.623 94.6323C198.422 90.7883 206.283 88.8654 215.206 88.8637C224.835 88.8637 233.068 90.5249 239.906 93.8475C242.762 95.221 245.433 96.9541 247.853 99.0048V62.5719C247.855 60.1182 247.375 57.6882 246.442 55.4208C245.508 53.1534 244.138 51.093 242.411 49.3575C240.684 47.6221 238.634 46.2455 236.377 45.3065C234.12 44.3675 231.7 43.8846 229.257 43.8852Z" fill="#EAEAEA"></path>
  <path opacity="0.58" d="M229.628 43.3825H157.653C142.934 21.7636 118.193 7.57379 90.1479 7.57379C45.0136 7.57379 8.41612 44.3253 8.41612 89.6612C8.39234 104.931 12.6292 119.902 20.6462 132.876V222.76C20.6462 227.713 22.6051 232.462 26.0919 235.964C29.5787 239.466 34.3079 241.434 39.239 241.434H170.75V225.205L223.761 151.741C226.071 148.633 227.947 145.223 229.337 141.605C230.647 138.134 231.302 134.906 231.302 131.92V131.694C231.302 127.291 229.957 123.894 227.266 121.504C224.575 119.114 220.75 117.92 215.792 117.922C210.977 117.922 207.083 119.582 204.108 122.903C201.134 126.224 199.328 130.946 198.692 137.069V137.173H168.831V137.059C169.467 126.907 171.789 118.172 175.795 110.855C179.801 103.538 185.201 97.9581 191.994 94.114C198.793 90.2665 206.654 88.3436 215.578 88.3454C225.206 88.3454 233.44 90.0066 240.278 93.3291C243.134 94.7033 245.805 96.4363 248.226 98.4865V62.0535C248.226 59.6011 247.745 57.1727 246.81 54.907C245.875 52.6414 244.505 50.5829 242.778 48.8491C241.051 47.1153 239.001 45.7402 236.745 44.8022C234.488 43.8642 232.07 43.3818 229.628 43.3825Z" fill="#EAEAEA"></path>
  <path opacity="0.61" d="M230 42.8853H158.025C143.306 21.2665 118.564 7.07666 90.519 7.07666C45.3847 7.07666 8.7872 43.8282 8.7872 89.1641C8.76464 104.435 13.0043 119.406 21.025 132.379V222.263C21.025 227.215 22.9836 231.964 26.4698 235.466C29.9561 238.968 34.6846 240.936 39.6152 240.937H171.113V224.703L224.137 151.239C226.447 148.131 228.323 144.721 229.713 141.103C231.023 137.632 231.679 134.403 231.681 131.418V131.192C231.681 126.789 230.335 123.392 227.642 121.002C224.95 118.612 221.126 117.417 216.17 117.417C211.356 117.417 207.461 119.078 204.484 122.401C201.508 125.723 199.703 130.445 199.068 136.567V136.679H169.202V136.567C169.839 126.416 172.16 117.682 176.166 110.363C180.172 103.045 185.572 97.4635 192.365 93.6195C199.164 89.7754 207.025 87.8534 215.949 87.8534C225.577 87.8534 233.811 89.5147 240.649 92.8372C243.506 94.2104 246.177 95.9435 248.598 97.9946V61.5512C248.595 56.5991 246.635 51.8506 243.147 48.3502C239.66 44.8497 234.93 42.884 230 42.8853Z" fill="#EAEAEA"></path>
  <path opacity="0.64" d="M230.372 42.3673H158.397C143.678 20.7484 118.936 6.55859 90.8911 6.55859C45.7568 6.55859 9.15927 43.3102 9.15927 88.6461C9.13671 103.917 13.3764 118.888 21.3971 131.86V221.745C21.3971 226.697 23.3556 231.446 26.8419 234.948C30.3282 238.45 35.0567 240.418 39.9873 240.419H171.486V224.208L224.496 150.744C226.805 147.633 228.68 144.22 230.07 140.6C231.38 137.129 232.035 133.9 232.035 130.912V130.697C232.035 126.294 230.689 122.897 227.996 120.507C225.304 118.117 221.48 116.922 216.524 116.922C211.71 116.922 207.815 118.583 204.839 121.906C201.862 125.228 200.057 129.951 199.422 136.072V136.184H169.574V136.072C170.211 125.92 172.532 117.185 176.538 109.869C180.544 102.552 185.944 96.9705 192.737 93.1247C199.538 89.2807 207.399 87.3587 216.321 87.3587C225.949 87.3587 234.183 89.0199 241.021 92.3425C243.878 93.7144 246.55 95.4476 248.97 97.4998V61.0487C248.971 58.5953 248.491 56.1656 247.557 53.8986C246.623 51.6316 245.253 49.5718 243.526 47.8368C241.798 46.1019 239.748 44.7258 237.491 43.7873C235.234 42.8488 232.814 42.3663 230.372 42.3673Z" fill="#EAEAEA"></path>
  <path opacity="0.67" d="M230.746 41.8751H158.771C144.049 20.2562 119.31 6.06641 91.2625 6.06641C46.1282 6.06641 9.5333 42.818 9.5333 88.1539C9.50949 103.423 13.7483 118.394 21.7686 131.366V221.25C21.7686 226.203 23.7275 230.952 27.2143 234.454C30.7011 237.956 35.4302 239.924 40.3613 239.924H171.86V223.69L224.868 150.226C227.178 147.118 229.055 143.708 230.446 140.09C231.757 136.619 232.412 133.39 232.412 130.402V130.179C232.412 125.776 231.066 122.379 228.375 119.989C225.685 117.599 221.86 116.404 216.901 116.404C212.087 116.404 208.191 118.065 205.215 121.388C202.239 124.71 200.433 129.432 199.799 135.554V135.666H169.946V135.554C170.582 125.404 172.903 116.669 176.909 109.351C180.916 102.032 186.314 96.455 193.104 92.6196C199.904 88.7756 207.766 86.8535 216.69 86.8535C226.318 86.8535 234.551 88.5148 241.387 91.8373C244.245 93.2093 246.916 94.9424 249.336 96.9947V60.5462C249.336 58.0942 248.855 55.6663 247.921 53.4011C246.986 51.1358 245.617 49.0775 243.891 47.3437C242.165 45.61 240.115 44.2346 237.86 43.2963C235.604 42.358 233.187 41.8751 230.746 41.8751Z" fill="#EAEAEA"></path>
  <path opacity="0.69" d="M231.116 41.3701H159.144C144.422 19.7538 119.683 5.56396 91.6356 5.56396C46.5012 5.56396 9.90634 42.3155 9.90634 87.6514C9.88418 102.921 14.1229 117.891 22.1416 130.863V220.748C22.1423 225.7 24.1014 230.449 27.5881 233.951C31.0747 237.453 35.8035 239.421 40.7344 239.421H172.233V223.193L225.243 149.731C227.553 146.623 229.429 143.213 230.819 139.595C232.13 136.124 232.785 132.895 232.785 129.907V129.685C232.785 125.281 231.439 121.884 228.748 119.494C226.058 117.104 222.233 115.909 217.274 115.909C212.46 115.909 208.564 117.571 205.588 120.893C202.612 124.216 200.806 128.938 200.172 135.06V135.171H170.316V135.06C170.954 124.907 173.275 116.173 177.28 108.856C181.284 101.539 186.683 95.9543 193.477 92.1016C200.275 88.2576 208.136 86.3355 217.06 86.3355C226.689 86.3355 234.922 87.9968 241.76 91.3193C244.616 92.6919 247.287 94.4251 249.706 96.4767V60.0437C249.706 55.0916 247.748 50.3423 244.261 46.8404C240.775 43.3385 236.047 41.3707 231.116 41.3701Z" fill="#EAEAEA"></path>
  <path opacity="0.72" d="M231.488 40.8671H159.513C144.791 19.2508 120.052 5.06104 92.0047 5.06104C46.8704 5.06104 10.2755 41.8126 10.2755 87.1459C10.253 102.416 14.4916 117.387 22.5107 130.36V220.245C22.5114 225.197 24.4705 229.946 27.9572 233.448C31.4439 236.95 36.1726 238.918 41.1035 238.918H172.602V222.69L225.613 149.228C227.922 146.12 229.798 142.71 231.189 139.092C232.499 135.621 233.154 132.392 233.154 129.405V129.182C233.154 124.778 231.809 121.381 229.118 118.991C226.427 116.601 222.602 115.409 217.643 115.414C212.829 115.414 208.934 117.075 205.96 120.398C202.985 123.72 201.18 128.443 200.544 134.564V134.676H170.688V134.564C171.326 124.414 173.647 115.679 177.652 108.361C181.656 101.042 187.057 95.4609 193.854 91.6168C200.652 87.7728 208.513 85.8507 217.437 85.8507C227.066 85.8507 235.299 87.5111 242.137 90.8319C244.991 92.2056 247.661 93.9377 250.081 95.9867V59.5408C250.08 54.5884 248.121 49.8391 244.634 46.3373C241.147 42.8354 236.419 40.8678 231.488 40.8671Z" fill="#EAEAEA"></path>
  <path opacity="0.75" d="M231.859 40.3648H159.884C145.165 18.7485 120.421 4.54834 92.3784 4.54834C47.2441 4.54834 10.6466 41.2999 10.6466 86.6332C10.6241 101.903 14.8628 116.874 22.8819 129.848V219.732C22.8825 224.684 24.8416 229.434 28.3283 232.936C31.815 236.437 36.5437 238.405 41.4746 238.406H172.973V222.188L225.984 148.723C228.293 145.616 230.169 142.207 231.56 138.59C232.87 135.119 233.525 131.89 233.525 128.902V128.679C233.525 124.274 232.18 120.877 229.489 118.489C226.798 116.101 222.974 114.903 218.017 114.896C213.202 114.896 209.307 116.558 206.331 119.88C203.355 123.203 201.553 127.931 200.925 134.065V134.176H171.062V134.065C171.698 123.912 174.019 115.177 178.025 107.858C182.031 100.54 187.43 94.9559 194.219 91.1067C201.018 87.2627 208.879 85.3406 217.803 85.3406C227.431 85.3406 235.665 87.001 242.503 90.3218C245.357 91.6973 248.025 93.4312 250.444 95.4818V59.0385C250.443 54.0874 248.485 49.3393 245 45.8377C241.515 42.3361 236.788 40.3675 231.859 40.3648Z" fill="#EAEAEA"></path>
  <path opacity="0.78" d="M232.231 39.8622H160.256C145.537 18.246 120.796 4.05615 92.7504 4.05615C47.6161 4.05615 11.0186 40.8077 11.0186 86.141C10.9961 101.411 15.2357 116.383 23.2565 129.355V219.24C23.2565 224.192 25.2151 228.941 28.7014 232.442C32.1877 235.944 36.9162 237.911 41.8467 237.911H173.345V221.685L226.356 148.221C228.665 145.114 230.541 141.704 231.932 138.087C233.242 134.616 233.898 131.387 233.9 128.4V128.177C233.9 123.772 232.553 120.374 229.861 117.984C227.168 115.594 223.344 114.4 218.389 114.401C213.575 114.401 209.679 116.063 206.703 119.385C203.727 122.708 201.921 127.43 201.287 133.552V133.663H171.434V133.547C172.07 123.393 174.391 114.657 178.397 107.34C182.404 100.023 187.803 94.443 194.597 90.599C201.395 86.7653 209.255 84.8484 218.175 84.8484C227.804 84.8484 236.037 86.5097 242.875 89.8322C245.732 91.2067 248.403 92.9406 250.824 94.9922V58.5359C250.823 53.5836 248.864 48.8342 245.377 45.3324C241.891 41.8305 237.162 39.8629 232.231 39.8622Z" fill="#EAEAEA"></path>
  <path opacity="0.81" d="M232.602 39.3603H160.627C145.908 17.744 121.167 3.5542 93.1216 3.5542C47.9872 3.5542 11.3897 40.3058 11.3897 85.6391C11.3672 100.91 15.6069 115.881 23.6276 128.853V218.738C23.6276 221.19 24.1085 223.618 25.0429 225.884C25.9773 228.149 27.3469 230.207 29.0735 231.941C30.8 233.675 32.8497 235.05 35.1054 235.988C37.3612 236.927 39.7789 237.409 42.2204 237.409H173.716V221.183L226.717 147.719C229.026 144.611 230.903 141.202 232.295 137.585C233.605 134.111 234.261 130.882 234.261 127.898V127.675C234.261 123.27 232.914 119.872 230.222 117.482C227.529 115.092 223.705 113.898 218.75 113.9C213.936 113.9 210.04 115.561 207.064 118.883C204.088 122.206 202.282 126.928 201.648 133.05V133.161H171.805V133.05C172.443 122.896 174.764 114.16 178.769 106.843C182.773 99.5267 188.173 93.9463 194.968 90.1022C201.766 86.2547 209.627 84.331 218.549 84.331C228.177 84.331 236.41 85.9922 243.246 89.3147C246.103 90.6885 248.774 92.4225 251.195 94.4747V58.034C251.195 55.5817 250.714 53.1535 249.78 50.8879C248.845 48.6223 247.476 46.5637 245.749 44.8297C244.023 43.0957 241.973 41.7202 239.717 40.7817C237.462 39.8433 235.044 39.3603 232.602 39.3603Z" fill="#EAEAEA"></path>
  <path opacity="0.83" d="M232.976 38.8574H161.001C146.28 17.2411 121.541 3.05127 93.493 3.05127C48.3587 3.05127 11.7638 39.8028 11.7638 85.1361C11.7403 100.406 15.979 115.378 23.999 128.351V218.235C23.999 220.687 24.4799 223.115 25.4144 225.381C26.3488 227.646 27.7183 229.704 29.4449 231.438C31.1714 233.172 33.2211 234.547 35.4768 235.486C37.7326 236.424 40.1503 236.906 42.5918 236.906H174.103V220.68L227.111 147.216C229.421 144.109 231.298 140.7 232.69 137.083C234 133.61 234.655 130.381 234.655 127.395V127.172C234.655 122.767 233.31 119.369 230.619 116.979C227.928 114.589 224.103 113.395 219.144 113.397C214.33 113.397 210.435 115.058 207.458 118.38C204.482 121.703 202.677 126.425 202.042 132.547V132.658H172.176V132.547C172.814 122.393 175.135 113.657 179.14 106.341C183.144 99.0238 188.544 93.4433 195.339 89.5993C202.141 85.7552 210.003 83.8324 218.925 83.8306C228.554 83.8306 236.787 85.4919 243.625 88.8144C246.481 90.1889 249.151 91.9219 251.572 93.9718V57.531C251.572 55.0786 251.09 52.6501 250.156 50.3843C249.221 48.1186 247.852 46.0599 246.125 44.3258C244.398 42.5918 242.348 41.2164 240.092 40.2781C237.836 39.3398 235.418 38.857 232.976 38.8574Z" fill="#EAEAEA"></path>
  <path opacity="0.86" d="M233.347 38.3549H161.372C146.651 16.736 121.912 2.54883 93.8641 2.54883C48.7298 2.54883 12.1349 39.2978 12.1349 84.6337C12.1126 99.9038 16.3513 114.875 24.3701 127.848V217.732C24.3701 222.685 26.329 227.435 29.8158 230.937C33.3026 234.439 38.0318 236.406 42.9629 236.406H174.461V220.178L227.472 146.713C229.781 143.606 231.657 140.197 233.048 136.58C234.358 133.106 235.013 129.876 235.013 126.892V126.667C235.013 122.263 233.668 118.867 230.977 116.477C228.286 114.087 224.459 112.892 219.495 112.894C214.681 112.894 210.785 114.555 207.809 117.878C204.833 121.2 203.027 125.923 202.393 132.044V132.156H172.555V132.044C173.193 121.89 175.514 113.155 179.519 105.838C183.523 98.5213 188.924 92.9409 195.721 89.0968C202.519 85.2528 210.38 83.3299 219.304 83.3282C228.933 83.3282 237.166 84.9894 244.004 88.312C246.859 89.6865 249.53 91.4194 251.95 93.4693V57.0286C251.951 54.5754 251.47 52.1461 250.535 49.8797C249.6 47.6133 248.229 45.5541 246.502 43.8199C244.774 42.0857 242.723 40.7104 240.466 39.7727C238.209 38.835 235.79 38.3532 233.347 38.3549Z" fill="#EAEAEA"></path>
  <path opacity="0.89" d="M233.719 37.8525H161.744C147.023 16.2336 122.284 2.04639 94.2362 2.04639C49.1018 2.04639 12.5069 38.7954 12.5069 84.1313C12.4847 99.4013 16.7234 114.372 24.7422 127.346V217.23C24.7422 222.183 26.7011 226.932 30.1879 230.434C33.6747 233.936 38.4039 235.904 43.335 235.904H174.833V219.675L227.844 146.211C230.155 143.104 232.032 139.693 233.423 136.075C234.733 132.604 235.388 129.376 235.388 126.39V126.164C235.388 121.761 234.043 118.364 231.352 115.974C228.661 113.584 224.836 112.39 219.877 112.392C215.063 112.392 211.168 114.052 208.194 117.373C205.219 120.694 203.414 125.416 202.778 131.539V131.653H172.919V131.539C173.557 121.387 175.879 112.652 179.883 105.336C183.888 98.0189 189.288 92.4384 196.085 88.5944C202.883 84.7503 210.745 82.8275 219.668 82.8257C229.297 82.8257 237.53 84.487 244.368 87.8095C247.225 89.1836 249.896 90.9166 252.317 92.9669V56.5261C252.317 54.0734 251.836 51.6448 250.901 49.3788C249.967 47.1129 248.597 45.0541 246.87 43.32C245.143 41.586 243.092 40.2106 240.836 39.2724C238.58 38.3343 236.161 37.8518 233.719 37.8525Z" fill="#EAEAEA"></path>
  <path opacity="0.92" d="M234.09 37.35H162.115C147.396 15.7312 122.655 1.54395 94.6099 1.54395C49.4755 1.54395 12.878 38.2929 12.878 83.6288C12.8555 98.8993 17.0951 113.87 25.1159 126.843V216.728C25.1155 219.18 25.5961 221.608 26.5302 223.873C27.4643 226.139 28.8336 228.198 30.5599 229.932C32.2862 231.666 34.3357 233.041 36.5913 233.98C38.8469 234.918 41.2646 235.401 43.7061 235.401H175.204V219.173L228.215 145.722C230.525 142.614 232.401 139.204 233.791 135.586C235.101 132.115 235.757 128.886 235.757 125.9V125.675C235.757 121.271 234.411 117.875 231.72 115.485C229.029 113.095 225.205 111.901 220.248 111.902C215.434 111.902 211.539 113.563 208.562 116.883C205.586 120.204 203.781 124.926 203.146 131.05V131.164H173.293V131.05C173.931 120.899 176.252 112.165 180.257 104.846C184.261 97.5276 189.661 91.9472 196.456 88.1049C203.255 84.2591 211.116 82.3362 220.04 82.3362C229.668 82.3362 237.902 83.9975 244.74 87.32C247.596 88.6942 250.267 90.4271 252.688 92.4774V56.0237C252.688 53.571 252.207 51.1423 251.273 48.8764C250.338 46.6105 248.968 44.5517 247.241 42.8176C245.514 41.0835 243.464 39.7081 241.207 38.77C238.951 37.8319 236.533 37.3494 234.09 37.35Z" fill="#EAEAEA"></path>
  <path opacity="0.94" d="M234.454 36.8473H162.497C147.778 15.2284 123.037 1.03857 94.9917 1.03857C49.8574 1.03857 13.2599 37.7901 13.2599 83.126C13.2373 98.3965 17.477 113.368 25.4977 126.34V216.225C25.4977 221.177 27.4562 225.926 30.9425 229.428C34.4288 232.93 39.1572 234.898 44.0879 234.898H175.586V218.67L228.587 145.203C230.897 142.096 232.773 138.685 234.163 135.067C235.473 131.596 236.129 128.368 236.131 125.382V125.157C236.131 120.753 234.784 117.356 232.092 114.966C229.399 112.576 225.575 111.381 220.62 111.381C215.806 111.381 211.91 113.043 208.934 116.365C205.958 119.688 204.152 124.41 203.518 130.532V130.646H173.665V130.532C174.303 120.379 176.624 111.645 180.628 104.328C184.633 97.011 190.033 91.4297 196.828 87.584C203.626 83.7399 211.487 81.8179 220.411 81.8179C230.04 81.8179 238.273 83.4792 245.111 86.8017C247.968 88.1752 250.639 89.9083 253.06 91.959V55.5183C253.06 53.0652 252.578 50.6362 251.643 48.37C250.707 46.1039 249.337 44.045 247.609 42.3111C245.881 40.5772 243.83 39.2022 241.573 38.2647C239.316 37.3272 236.897 36.8456 234.454 36.8473Z" fill="#EAEAEA"></path>
  <path opacity="0.97" d="M234.833 36.3448H162.861C148.139 14.7259 123.4 0.536133 95.3524 0.536133C50.2181 0.536133 13.6231 37.2877 13.6231 82.6236C13.5997 97.8938 17.8384 112.865 25.8584 125.838V215.722C25.8584 220.675 27.8173 225.425 31.3041 228.927C34.7909 232.429 39.5201 234.396 44.4512 234.396H175.947V218.168L228.958 144.703C231.267 141.595 233.144 138.185 234.536 134.567C235.847 131.096 236.502 127.867 236.502 124.88V124.657C236.502 120.253 235.156 116.856 232.465 114.466C229.775 112.076 225.95 110.881 220.991 110.881C216.177 110.881 212.281 112.543 209.305 115.865C206.329 119.188 204.523 123.91 203.889 130.032V130.143H174.036V130.032C174.674 119.881 176.995 111.147 180.999 103.828C185.004 96.5095 190.404 90.9282 197.199 87.0841C204.001 83.2401 211.863 81.3181 220.785 81.3181C230.413 81.3181 238.646 82.9793 245.482 86.3018C248.34 87.6738 251.011 89.407 253.431 91.4592V55.0159C253.431 52.5633 252.95 50.1348 252.015 47.869C251.08 45.6032 249.71 43.5446 247.983 41.8107C246.256 40.0768 244.206 38.7017 241.95 37.7638C239.693 36.826 237.275 36.3438 234.833 36.3448Z" fill="#EAEAEA"></path>
  <path d="M235.207 35.8424H163.232C148.51 14.2235 123.771 0.0336914 95.7235 0.0336914C50.5891 0.0336914 13.9942 36.7853 13.9942 82.1212C13.9717 97.3905 18.2104 112.361 26.2295 125.333V215.217C26.2302 220.17 28.1893 224.919 31.676 228.421C35.1626 231.923 39.8914 233.89 44.8223 233.891H176.32V217.665L229.329 144.201C231.639 141.093 233.516 137.683 234.907 134.065C236.218 130.594 236.873 127.365 236.873 124.377V124.154C236.873 119.751 235.527 116.354 232.836 113.964C230.146 111.574 226.321 110.379 221.362 110.379C216.548 110.379 212.652 112.04 209.676 115.363C206.7 118.685 204.894 123.408 204.26 129.529V129.641H174.407V129.529C175.045 119.377 177.366 110.642 181.37 103.326C185.375 96.0088 190.776 90.4275 197.572 86.5817C204.371 82.7377 212.232 80.8156 221.156 80.8156C230.784 80.8156 239.018 82.4769 245.856 85.7994C248.71 87.1724 251.379 88.9055 253.797 90.9568V54.5135C253.797 49.5616 251.838 44.8125 248.352 41.311C244.865 37.8095 240.137 35.8424 235.207 35.8424Z" fill="#EAEAEA"></path>
  <path opacity="0.03" d="M242.467 178.89C242.173 179.302 241.884 179.722 241.582 180.128L203.551 230.746H242.449C242.449 230.565 242.464 230.386 242.464 230.205L242.467 178.89Z" fill="#EAEAEA"></path>
  <path opacity="0.06" d="M242.789 178.463C242.495 178.875 242.209 179.295 241.907 179.702L203.873 230.319H242.776C242.776 230.138 242.789 229.959 242.789 229.778V178.463Z" fill="#EAEAEA"></path>
  <path opacity="0.08" d="M243.114 178.033C242.82 178.448 242.534 178.865 242.23 179.274L204.198 229.892H243.099C243.099 229.71 243.114 229.531 243.114 229.348V178.033Z" fill="#EAEAEA"></path>
  <path opacity="0.11" d="M243.437 177.606C243.143 178.02 242.856 178.437 242.555 178.844L204.521 229.464H243.424C243.424 229.283 243.424 229.104 243.424 228.92L243.437 177.606Z" fill="#EAEAEA"></path>
  <path opacity="0.14" d="M243.762 177.178C243.468 177.593 243.181 178.01 242.877 178.416L204.846 229.034H243.739C243.739 228.855 243.752 228.674 243.752 228.493L243.762 177.178Z" fill="#EAEAEA"></path>
  <path opacity="0.17" d="M244.084 176.751C243.793 177.165 243.504 177.582 243.202 177.989L205.171 228.612H244.072C244.072 228.433 244.084 228.252 244.084 228.071V176.751Z" fill="#EAEAEA"></path>
  <path opacity="0.19" d="M244.409 176.324C244.115 176.736 243.829 177.155 243.525 177.562L205.493 228.179H244.396C244.396 227.998 244.396 227.819 244.396 227.638L244.409 176.324Z" fill="#EAEAEA"></path>
  <path opacity="0.22" d="M244.735 175.896C244.441 176.308 244.152 176.727 243.85 177.134L205.826 227.752H244.719C244.719 227.57 244.735 227.392 244.735 227.21V175.896Z" fill="#EAEAEA"></path>
  <path opacity="0.25" d="M245.057 175.466C244.763 175.881 244.477 176.298 244.175 176.704L206.141 227.317H245.044C245.044 227.136 245.057 226.957 245.057 226.773V175.466Z" fill="#EAEAEA"></path>
  <path opacity="0.28" d="M245.382 175.039C245.088 175.453 244.802 175.87 244.497 176.277L206.466 226.897H245.366C245.366 226.716 245.382 226.534 245.382 226.353V175.039Z" fill="#EAEAEA"></path>
  <path opacity="0.31" d="M245.704 174.611C245.41 175.026 245.124 175.443 244.822 175.849L206.788 226.467H245.691C245.691 226.288 245.691 226.107 245.691 225.926L245.704 174.611Z" fill="#EAEAEA"></path>
  <path opacity="0.33" d="M246.029 174.184C245.735 174.596 245.448 175.016 245.144 175.422L207.115 226.04H246.016C246.016 225.859 246.031 225.68 246.031 225.498L246.029 174.184Z" fill="#EAEAEA"></path>
  <path opacity="0.36" d="M246.351 173.756C246.06 174.168 245.771 174.588 245.469 174.995L207.438 225.612H246.338C246.338 225.431 246.351 225.252 246.351 225.071V173.756Z" fill="#EAEAEA"></path>
  <path opacity="0.39" d="M246.677 173.329C246.383 173.741 246.096 174.161 245.792 174.567L207.761 225.185H246.664C246.664 225.004 246.664 224.825 246.664 224.643L246.677 173.329Z" fill="#EAEAEA"></path>
  <path opacity="0.42" d="M246.998 172.899C246.707 173.313 246.418 173.73 246.116 174.137L208.085 224.757H246.986C246.986 224.576 246.986 224.397 246.986 224.213L246.998 172.899Z" fill="#EAEAEA"></path>
  <path opacity="0.44" d="M247.324 172.472C247.03 172.886 246.744 173.303 246.439 173.71L208.405 224.33H247.309C247.309 224.149 247.321 223.967 247.321 223.786L247.324 172.472Z" fill="#EAEAEA"></path>
  <path opacity="0.47" d="M247.648 172.044C247.354 172.459 247.066 172.876 246.764 173.283L208.732 223.9H247.633C247.633 223.721 247.648 223.54 247.648 223.359V172.044Z" fill="#EAEAEA"></path>
  <path opacity="0.5" d="M247.971 171.625C247.677 172.036 247.39 172.456 247.089 172.863L209.055 223.473H247.958C247.958 223.291 247.958 223.112 247.958 222.931L247.971 171.625Z" fill="#EAEAEA"></path>
  <path opacity="0.53" d="M248.296 171.189C248.002 171.601 247.716 172.021 247.411 172.428L209.38 223.045H248.281C248.281 222.864 248.296 222.685 248.296 222.504V171.189Z" fill="#EAEAEA"></path>
  <path opacity="0.56" d="M248.618 170.759C248.324 171.174 248.038 171.591 247.736 172L209.694 222.618H248.595C248.595 222.436 248.608 222.258 248.608 222.074L248.618 170.759Z" fill="#EAEAEA"></path>
  <path opacity="0.58" d="M248.943 170.329C248.649 170.744 248.363 171.161 248.059 171.567L210.027 222.19H248.931C248.931 222.009 248.931 221.828 248.931 221.646L248.943 170.329Z" fill="#EAEAEA"></path>
  <path opacity="0.61" d="M249.266 169.904C248.975 170.319 248.686 170.736 248.384 171.142L210.353 221.76H249.253C249.253 221.581 249.253 221.4 249.253 221.219L249.266 169.904Z" fill="#EAEAEA"></path>
  <path opacity="0.64" d="M249.591 169.477C249.297 169.889 249.011 170.309 248.706 170.715L210.675 221.333H249.578C249.578 221.154 249.591 220.973 249.591 220.791V169.477Z" fill="#EAEAEA"></path>
  <path opacity="0.67" d="M249.929 169.05C249.635 169.462 249.346 169.881 249.044 170.288L211 220.906H249.9C249.9 220.724 249.916 220.546 249.916 220.364L249.929 169.05Z" fill="#EAEAEA"></path>
  <path opacity="0.69" d="M250.238 168.622C249.944 169.034 249.658 169.454 249.356 169.86L211.322 220.478H250.225C250.225 220.296 250.225 220.118 250.225 219.936L250.238 168.622Z" fill="#EAEAEA"></path>
  <path opacity="0.72" d="M250.563 168.192C250.269 168.607 249.982 169.024 249.678 169.431L211.646 220.064H250.547C250.547 219.882 250.563 219.704 250.563 219.52V168.192Z" fill="#EAEAEA"></path>
  <path opacity="0.75" d="M250.885 167.765C250.591 168.179 250.305 168.596 250.003 169.003L211.972 219.623H250.872C250.872 219.442 250.885 219.26 250.885 219.079V167.765Z" fill="#EAEAEA"></path>
  <path opacity="0.78" d="M251.218 167.337C250.924 167.752 250.638 168.169 250.333 168.576L212.294 219.193H251.197C251.197 219.014 251.197 218.833 251.197 218.652L251.218 167.337Z" fill="#EAEAEA"></path>
  <path opacity="0.81" d="M251.533 166.911C251.241 167.323 250.952 167.742 250.651 168.149L212.619 218.769H251.52C251.52 218.588 251.52 218.409 251.52 218.228L251.533 166.911Z" fill="#EAEAEA"></path>
  <path opacity="0.83" d="M251.858 166.483C251.563 166.895 251.277 167.314 250.973 167.721L212.941 218.339H251.845C251.845 218.157 251.858 217.979 251.858 217.797V166.483Z" fill="#EAEAEA"></path>
  <path opacity="0.86" d="M252.183 166.056C251.889 166.468 251.6 166.885 251.298 167.294L213.267 217.911H252.167C252.167 217.73 252.183 217.551 252.183 217.367V166.056Z" fill="#EAEAEA"></path>
  <path opacity="0.89" d="M252.508 165.625C252.214 166.04 251.927 166.457 251.626 166.864L213.589 217.473H252.492C252.492 217.292 252.492 217.113 252.492 216.93L252.508 165.625Z" fill="#EAEAEA"></path>
  <path opacity="0.92" d="M252.83 165.198C252.536 165.613 252.25 166.03 251.945 166.436L213.914 217.057H252.815C252.815 216.875 252.83 216.694 252.83 216.513V165.198Z" fill="#EAEAEA"></path>
  <path opacity="0.94" d="M253.152 164.771C252.858 165.185 252.572 165.602 252.27 166.009L214.236 216.626H253.14C253.14 216.448 253.152 216.266 253.152 216.085V164.771Z" fill="#EAEAEA"></path>
  <path opacity="0.97" d="M253.478 164.343C253.184 164.755 252.897 165.175 252.593 165.581L214.562 216.199H253.465C253.465 216.018 253.478 215.839 253.478 215.658V164.343Z" fill="#EAEAEA"></path>
  <path d="M253.798 163.916C253.506 164.328 253.217 164.748 252.916 165.154L214.887 215.772H253.798C253.798 215.59 253.811 215.412 253.811 215.23L253.798 163.916Z" fill="#EAEAEA"></path>
  <path d="M253.797 163.903C253.503 164.317 253.217 164.734 252.915 165.141L214.881 215.759H253.797C253.797 215.58 253.81 215.399 253.81 215.217L253.797 163.903Z" fill="#748E3F"></path>
  <path d="M235.207 35.8424H163.232C148.51 14.2235 123.771 0.0336914 95.7235 0.0336914C50.5891 0.0336914 13.9942 36.7852 13.9942 82.1212C13.9717 97.3905 18.2104 112.361 26.2295 125.333V215.217C26.2295 220.17 28.1884 224.92 31.6752 228.422C35.162 231.924 39.8912 233.891 44.8223 233.891H176.32V217.665L229.329 144.201C231.639 141.093 233.516 137.683 234.907 134.065C236.218 130.594 236.873 127.365 236.873 124.377V124.154C236.873 119.751 235.527 116.354 232.836 113.964C230.146 111.574 226.321 110.379 221.362 110.379C216.548 110.379 212.652 112.04 209.676 115.363C206.7 118.685 204.894 123.408 204.26 129.529V129.641H174.407V129.529C175.045 119.377 177.366 110.642 181.37 103.326C185.375 96.0088 190.776 90.4275 197.572 86.5817C204.371 82.7376 212.232 80.8156 221.156 80.8156C230.784 80.8156 239.018 82.4769 245.856 85.7994C248.71 87.1724 251.379 88.9055 253.797 90.9568V54.5135C253.797 49.5616 251.838 44.8125 248.352 41.311C244.865 37.8095 240.137 35.8424 235.207 35.8424Z" fill="#748E3F"></path>
  <path d="M95.5437 150.59C133.924 150.59 165.038 119.341 165.038 80.7934C165.038 42.2459 133.924 10.997 95.5437 10.997C57.1633 10.997 26.0498 42.2459 26.0498 80.7934C26.0498 119.341 57.1633 150.59 95.5437 150.59Z" fill="url(#paint0_linear_921_419)"></path>
  <g clip-path="url(#clip0_921_419)">
    <path d="M110.786 80.4458C112.772 80.4458 114.491 79.7338 115.895 78.3289C117.3 76.9243 118.012 75.2056 118.012 73.2201C118.012 71.2352 117.3 69.5163 115.895 68.1112C114.49 66.7068 112.771 65.9948 110.786 65.9948C108.801 65.9948 107.082 66.7068 105.677 68.1114C104.273 69.5161 103.561 71.235 103.561 73.2201C103.561 75.2056 104.273 76.9245 105.678 78.3291C107.083 79.7336 108.801 80.4458 110.786 80.4458Z" fill="#748E3F"></path>
    <path d="M123.429 89.0628C123.389 88.4782 123.307 87.8406 123.186 87.1672C123.064 86.4888 122.908 85.8475 122.72 85.2613C122.526 84.6555 122.262 84.0572 121.937 83.4838C121.598 82.8887 121.201 82.3705 120.755 81.9441C120.289 81.498 119.718 81.1394 119.058 80.8778C118.4 80.6175 117.671 80.4857 116.891 80.4857C116.585 80.4857 116.289 80.6114 115.717 80.9837C115.365 81.2133 114.953 81.4788 114.494 81.7725C114.101 82.0229 113.568 82.2575 112.911 82.4699C112.269 82.6775 111.618 82.7828 110.975 82.7828C110.332 82.7828 109.681 82.6775 109.038 82.4699C108.382 82.2577 107.849 82.0231 107.457 81.7727C107.001 81.4818 106.589 81.2163 106.232 80.9835C105.661 80.6111 105.364 80.4855 105.058 80.4855C104.278 80.4855 103.549 80.6175 102.892 80.878C102.232 81.1392 101.661 81.4978 101.194 81.9444C100.749 82.371 100.351 82.889 100.013 83.4838C99.6877 84.0572 99.4241 84.6552 99.23 85.2615C99.0425 85.8477 98.8857 86.4888 98.764 87.1672C98.6434 87.8396 98.5614 88.4775 98.5209 89.0635C98.4811 89.6375 98.4609 90.2333 98.4609 90.835C98.4609 92.401 98.9588 93.6688 99.9404 94.6038C100.91 95.5264 102.193 95.9944 103.753 95.9944H118.198C119.758 95.9944 121.04 95.5266 122.01 94.6038C122.992 93.6695 123.49 92.4015 123.49 90.8348C123.49 90.2303 123.469 89.6341 123.429 89.0628Z" fill="#748E3F"></path>
  </g>
  <g clip-path="url(#clip1_921_419)">
    <path d="M80.7863 80.4458C82.7716 80.4458 84.4908 79.7338 85.8954 78.3289C87.3 76.9243 88.0121 75.2056 88.0121 73.2201C88.0121 71.2352 87.3 69.5163 85.8952 68.1112C84.4903 66.7068 82.7714 65.9948 80.7863 65.9948C78.8008 65.9948 77.0821 66.7068 75.6775 68.1114C74.2728 69.5161 73.5605 71.235 73.5605 73.2201C73.5605 75.2056 74.2728 76.9245 75.6777 78.3291C77.0826 79.7336 78.8015 80.4458 80.7863 80.4458Z" fill="#748E3F"></path>
    <path d="M93.4293 89.0628C93.3888 88.4782 93.3069 87.8406 93.1863 87.1672C93.0645 86.4888 92.9077 85.8475 92.72 85.2613C92.5262 84.6555 92.2625 84.0572 91.9366 83.4838C91.5983 82.8887 91.2009 82.3705 90.7551 81.9441C90.2889 81.498 89.718 81.1394 89.0579 80.8778C88.4001 80.6175 87.6711 80.4857 86.8913 80.4857C86.5851 80.4857 86.2889 80.6114 85.717 80.9837C85.3649 81.2133 84.9532 81.4788 84.4936 81.7725C84.1006 82.0229 83.5682 82.2575 82.9106 82.4699C82.2691 82.6775 81.6177 82.7828 80.9748 82.7828C80.3318 82.7828 79.6807 82.6775 79.0384 82.4699C78.3816 82.2577 77.8492 82.0231 77.4566 81.7727C77.0014 81.4818 76.5894 81.2163 76.2321 80.9835C75.6608 80.6111 75.3644 80.4855 75.0582 80.4855C74.2782 80.4855 73.5494 80.6175 72.8918 80.878C72.2322 81.1392 71.6612 81.4978 71.1945 81.9444C70.7488 82.371 70.3513 82.889 70.0134 83.4838C69.6877 84.0572 69.4241 84.6552 69.23 85.2615C69.0425 85.8477 68.8857 86.4888 68.764 87.1672C68.6434 87.8396 68.5614 88.4775 68.5209 89.0635C68.4811 89.6375 68.4609 90.2333 68.4609 90.835C68.4609 92.401 68.9588 93.6688 69.9404 94.6038C70.91 95.5264 72.1928 95.9944 73.7529 95.9944H88.198C89.7581 95.9944 91.0405 95.5266 92.0103 94.6038C92.9922 93.6695 93.49 92.4015 93.49 90.8348C93.4897 90.2303 93.4694 89.6341 93.4293 89.0628Z" fill="#748E3F"></path>
  </g>
  <path d="M143.192 34.4459C170.015 61.3854 170.324 104.887 144.108 132.21C144.42 131.907 144.734 131.604 145.044 131.293C172.184 104.035 172.184 59.8415 145.044 32.5861C117.904 5.33067 73.9045 5.32808 46.7646 32.5861C46.4551 32.8969 46.1533 33.2104 45.8516 33.5264C73.0559 7.1957 116.362 7.49877 143.192 34.4459Z" fill="white"></path>
  <path d="M45.6143 186.134C44.9717 186.134 44.3952 186.011 43.8848 185.765C43.3743 185.519 42.9391 185.172 42.5791 184.726C42.2236 184.275 41.9502 183.741 41.7588 183.126C41.5719 182.511 41.4785 181.832 41.4785 181.089V180.945C41.4785 180.207 41.5719 179.53 41.7588 178.915C41.9502 178.295 42.2236 177.76 42.5791 177.309C42.9391 176.858 43.3743 176.509 43.8848 176.263C44.3952 176.017 44.9717 175.894 45.6143 175.894C46.2933 175.894 46.8903 176.017 47.4053 176.263C47.9202 176.509 48.3509 176.858 48.6973 177.309C49.0482 177.76 49.3125 178.295 49.4902 178.915C49.668 179.53 49.7568 180.207 49.7568 180.945V181.089C49.7568 181.832 49.668 182.511 49.4902 183.126C49.3125 183.741 49.0482 184.275 48.6973 184.726C48.3509 185.172 47.9202 185.519 47.4053 185.765C46.8903 186.011 46.2933 186.134 45.6143 186.134ZM45.6143 185.013C46.2751 185.013 46.8083 184.849 47.2139 184.521C47.624 184.193 47.9248 183.734 48.1162 183.147C48.3076 182.554 48.4033 181.868 48.4033 181.089V180.932C48.4033 180.157 48.3053 179.478 48.1094 178.895C47.918 178.307 47.6172 177.849 47.207 177.521C46.7969 177.188 46.266 177.022 45.6143 177.022C45.0173 177.022 44.5114 177.188 44.0967 177.521C43.682 177.853 43.3675 178.314 43.1533 178.901C42.9391 179.485 42.832 180.162 42.832 180.932V181.089C42.832 181.864 42.9391 182.547 43.1533 183.14C43.3675 183.728 43.682 184.188 44.0967 184.521C44.5114 184.849 45.0173 185.013 45.6143 185.013ZM53.1133 185.99V185.129L54.2275 184.938V179.64H52.6689L52.5664 180.795H51.418V178.594H58.418V180.795H57.2627L57.1602 179.64H55.5742V184.938L56.6885 185.129V185.99H53.1133ZM66.1016 186.134C65.4954 186.134 64.9554 186.025 64.4814 185.806C64.0075 185.582 63.6361 185.268 63.3672 184.862C63.1029 184.452 62.9775 183.967 62.9912 183.406L63.0117 183.365H64.2969C64.2969 183.716 64.3698 184.019 64.5156 184.275C64.6615 184.53 64.8688 184.728 65.1377 184.869C65.4066 185.011 65.7279 185.081 66.1016 185.081C66.6712 185.081 67.1178 184.926 67.4414 184.616C67.765 184.306 67.9268 183.848 67.9268 183.242C67.9268 182.627 67.7832 182.174 67.4961 181.882C67.209 181.59 66.7555 181.444 66.1357 181.444H64.96V180.392H66.1357C66.5322 180.392 66.8512 180.326 67.0928 180.193C67.3343 180.057 67.5075 179.863 67.6123 179.612C67.7217 179.357 67.7764 179.052 67.7764 178.696C67.7764 178.127 67.6351 177.694 67.3525 177.398C67.07 177.101 66.653 176.953 66.1016 176.953C65.7507 176.953 65.4453 177.024 65.1855 177.165C64.9258 177.302 64.723 177.498 64.5771 177.753C64.4359 178.004 64.3652 178.3 64.3652 178.642H63.0732L63.0596 178.601C63.0459 178.099 63.1644 177.644 63.415 177.234C63.6702 176.823 64.028 176.498 64.4883 176.256C64.9531 176.014 65.4909 175.894 66.1016 175.894C67.0221 175.894 67.7559 176.14 68.3027 176.632C68.8496 177.12 69.123 177.817 69.123 178.724C69.123 179.134 68.9977 179.544 68.7471 179.954C68.501 180.36 68.1296 180.67 67.6328 180.884C68.2298 181.08 68.6514 181.387 68.8975 181.807C69.1481 182.226 69.2734 182.695 69.2734 183.215C69.2734 183.821 69.1367 184.343 68.8633 184.78C68.5944 185.213 68.2207 185.548 67.7422 185.785C67.2637 186.018 66.7168 186.134 66.1016 186.134ZM70.7021 185.99V185.068L73.9629 181.444C74.3503 181.012 74.6533 180.642 74.8721 180.337C75.0908 180.027 75.2435 179.747 75.3301 179.496C75.4167 179.246 75.46 178.986 75.46 178.717C75.46 178.22 75.3096 177.803 75.0088 177.466C74.708 177.124 74.2773 176.953 73.7168 176.953C73.1335 176.953 72.6777 177.129 72.3496 177.48C72.026 177.831 71.8643 178.327 71.8643 178.97H70.5723L70.5586 178.929C70.5449 178.355 70.6657 177.84 70.9209 177.384C71.1761 176.924 71.5452 176.561 72.0283 176.297C72.516 176.028 73.0947 175.894 73.7646 175.894C74.3936 175.894 74.9336 176.014 75.3848 176.256C75.8405 176.493 76.1914 176.819 76.4375 177.234C76.6836 177.648 76.8066 178.124 76.8066 178.662C76.8066 179.027 76.7337 179.389 76.5879 179.749C76.4466 180.109 76.237 180.478 75.959 180.857C75.6855 181.235 75.3551 181.634 74.9678 182.053L72.3496 184.903L72.3633 184.938H75.8975L76.0068 183.796H77.1484V185.99H70.7021ZM81.5645 185.99V185.129L82.6787 184.938V183.693H78.208V182.935L82.5967 176.037H84.0186V182.641H85.3926V183.693H84.0186V184.938L85.1328 185.129V185.99H81.5645ZM79.6436 182.641H82.6787V177.958L82.6377 177.944L82.501 178.307L79.6436 182.641ZM92.4746 186.134C91.8275 186.134 91.2487 185.977 90.7383 185.662C90.2324 185.343 89.8337 184.881 89.542 184.275C89.2503 183.668 89.1045 182.935 89.1045 182.073V180.734C89.1045 179.681 89.2617 178.797 89.5762 178.081C89.8952 177.361 90.3327 176.817 90.8887 176.447C91.4492 176.078 92.0918 175.894 92.8164 175.894C93.1536 175.894 93.4886 175.932 93.8213 176.01C94.1585 176.087 94.4365 176.185 94.6553 176.304L94.3955 177.309C94.1813 177.204 93.9466 177.12 93.6914 177.056C93.4362 176.987 93.1445 176.953 92.8164 176.953C92.1191 176.953 91.5632 177.218 91.1484 177.746C90.7383 178.27 90.5195 179.063 90.4922 180.125L90.5195 180.152C90.7747 179.915 91.0869 179.729 91.4561 179.592C91.8252 179.451 92.224 179.38 92.6523 179.38C93.2448 179.38 93.7598 179.521 94.1973 179.804C94.6348 180.082 94.972 180.467 95.209 180.959C95.4505 181.451 95.5713 182.012 95.5713 182.641C95.5713 183.329 95.4437 183.935 95.1885 184.459C94.9333 184.983 94.5732 185.393 94.1084 185.69C93.6436 185.986 93.099 186.134 92.4746 186.134ZM92.4746 185.081C92.8438 185.081 93.1582 184.974 93.418 184.76C93.6777 184.546 93.876 184.254 94.0127 183.885C94.154 183.516 94.2246 183.101 94.2246 182.641C94.2246 181.984 94.0583 181.444 93.7256 181.021C93.3975 180.597 92.9417 180.385 92.3584 180.385C92.0531 180.385 91.7751 180.428 91.5244 180.515C91.2783 180.597 91.0641 180.715 90.8818 180.87C90.7041 181.021 90.5583 181.198 90.4443 181.403V182.203C90.4443 183.128 90.6357 183.839 91.0186 184.336C91.4059 184.833 91.8913 185.081 92.4746 185.081ZM100.097 186.134C99.1214 186.134 98.349 185.794 97.7793 185.115C97.2096 184.436 96.9248 183.463 96.9248 182.196V179.838C96.9248 178.571 97.2074 177.598 97.7725 176.919C98.3376 176.235 99.1077 175.894 100.083 175.894C101.063 175.894 101.838 176.235 102.407 176.919C102.977 177.598 103.262 178.571 103.262 179.838V182.196C103.262 183.468 102.979 184.443 102.414 185.122C101.849 185.797 101.076 186.134 100.097 186.134ZM100.097 185.081C100.694 185.081 101.145 184.862 101.45 184.425C101.76 183.987 101.915 183.336 101.915 182.47V179.551C101.915 178.69 101.758 178.042 101.443 177.609C101.133 177.172 100.68 176.953 100.083 176.953C99.4951 176.953 99.0462 177.172 98.7363 177.609C98.4264 178.042 98.2715 178.69 98.2715 179.551V182.47C98.2715 183.331 98.4287 183.983 98.7432 184.425C99.0576 184.862 99.5088 185.081 100.097 185.081ZM108.081 186.134C107.106 186.134 106.333 185.794 105.764 185.115C105.194 184.436 104.909 183.463 104.909 182.196V179.838C104.909 178.571 105.192 177.598 105.757 176.919C106.322 176.235 107.092 175.894 108.067 175.894C109.047 175.894 109.822 176.235 110.392 176.919C110.961 177.598 111.246 178.571 111.246 179.838V182.196C111.246 183.468 110.964 184.443 110.398 185.122C109.833 185.797 109.061 186.134 108.081 186.134ZM108.081 185.081C108.678 185.081 109.129 184.862 109.435 184.425C109.744 183.987 109.899 183.336 109.899 182.47V179.551C109.899 178.69 109.742 178.042 109.428 177.609C109.118 177.172 108.664 176.953 108.067 176.953C107.479 176.953 107.031 177.172 106.721 177.609C106.411 178.042 106.256 178.69 106.256 179.551V182.47C106.256 183.331 106.413 183.983 106.728 184.425C107.042 184.862 107.493 185.081 108.081 185.081ZM112.367 188.834V187.966L113.413 187.775V179.653L112.299 179.462V178.594H114.568L114.691 179.496C114.938 179.159 115.236 178.901 115.587 178.724C115.942 178.546 116.353 178.457 116.817 178.457C117.428 178.457 117.95 178.623 118.383 178.956C118.816 179.284 119.146 179.747 119.374 180.344C119.602 180.936 119.716 181.631 119.716 182.429V182.572C119.716 183.283 119.6 183.905 119.367 184.439C119.139 184.972 118.811 185.389 118.383 185.69C117.954 185.986 117.439 186.134 116.838 186.134C116.382 186.134 115.981 186.059 115.635 185.908C115.293 185.753 115.001 185.526 114.76 185.225V187.775L115.936 187.966V188.834H112.367ZM116.421 185.081C117.059 185.081 117.542 184.849 117.87 184.384C118.198 183.919 118.362 183.315 118.362 182.572V182.429C118.362 181.864 118.289 181.367 118.144 180.939C117.998 180.506 117.779 180.166 117.487 179.92C117.2 179.674 116.84 179.551 116.407 179.551C116.024 179.551 115.696 179.637 115.423 179.811C115.149 179.984 114.928 180.221 114.76 180.522V184.124C114.928 184.429 115.147 184.666 115.416 184.835C115.689 184.999 116.024 185.081 116.421 185.081ZM124.029 186.845L128.186 176.037H129.32L125.171 186.845H124.029ZM133.812 185.99V185.129L134.926 184.938V179.653L133.812 179.462V178.594H134.926H136.662L139.068 184.227H139.109L141.522 178.594H143.211H144.325V179.462L143.211 179.653V184.938L144.325 185.129V185.99H140.75V185.129L141.864 184.938V180.857L141.823 180.843L139.554 185.99H138.624L136.313 180.734L136.272 180.747V184.938L137.387 185.129V185.99H133.812ZM148.81 186.134C148.126 186.134 147.531 185.979 147.025 185.669C146.52 185.355 146.128 184.919 145.85 184.363C145.576 183.807 145.439 183.165 145.439 182.436V182.135C145.439 181.433 145.583 180.806 145.87 180.255C146.162 179.699 146.547 179.262 147.025 178.943C147.508 178.619 148.035 178.457 148.604 178.457C149.27 178.457 149.826 178.594 150.272 178.867C150.724 179.141 151.063 179.526 151.291 180.023C151.519 180.515 151.633 181.096 151.633 181.766V182.607H146.834L146.813 182.641C146.823 183.115 146.905 183.536 147.06 183.905C147.219 184.27 147.447 184.557 147.743 184.767C148.039 184.976 148.395 185.081 148.81 185.081C149.265 185.081 149.664 185.017 150.006 184.89C150.352 184.758 150.651 184.578 150.901 184.35L151.428 185.225C151.163 185.48 150.812 185.696 150.375 185.874C149.942 186.047 149.42 186.134 148.81 186.134ZM146.875 181.554H150.286V181.376C150.286 181.021 150.222 180.704 150.095 180.426C149.972 180.143 149.785 179.922 149.534 179.763C149.288 179.599 148.978 179.517 148.604 179.517C148.304 179.517 148.03 179.606 147.784 179.783C147.538 179.957 147.335 180.193 147.176 180.494C147.016 180.795 146.911 181.137 146.861 181.52L146.875 181.554ZM156.302 186.134C155.632 186.134 155.049 185.979 154.552 185.669C154.055 185.355 153.67 184.919 153.396 184.363C153.123 183.807 152.986 183.165 152.986 182.436V182.149C152.986 181.447 153.118 180.818 153.383 180.262C153.647 179.706 154.028 179.266 154.524 178.943C155.021 178.619 155.614 178.457 156.302 178.457C156.899 178.457 157.421 178.555 157.867 178.751C158.318 178.947 158.697 179.216 159.002 179.558L159.036 181.335H157.983L157.751 180.043C157.596 179.884 157.402 179.756 157.17 179.66C156.938 179.565 156.664 179.517 156.35 179.517C155.949 179.517 155.595 179.635 155.29 179.872C154.989 180.109 154.755 180.426 154.586 180.822C154.417 181.219 154.333 181.661 154.333 182.149V182.436C154.333 182.973 154.41 183.441 154.565 183.837C154.725 184.234 154.951 184.541 155.242 184.76C155.538 184.974 155.889 185.081 156.295 185.081C156.751 185.081 157.129 184.956 157.43 184.705C157.73 184.455 157.915 184.11 157.983 183.673H159.193L159.207 183.714C159.184 184.138 159.059 184.534 158.831 184.903C158.603 185.273 158.277 185.571 157.854 185.799C157.434 186.022 156.917 186.134 156.302 186.134ZM160.745 185.99V184.609H162.092V185.99H160.745ZM41.6631 205.99V205.129L42.7773 204.938V199.653L41.6631 199.462V198.594H49.8799V199.462L48.7656 199.653V204.938L49.8799 205.129V205.99H46.3047V205.129L47.4189 204.938V199.66H44.124V204.938L45.2383 205.129V205.99H41.6631ZM50.8438 208.834V207.966L51.8896 207.775V199.653L50.7754 199.462V198.594H53.0449L53.168 199.496C53.4141 199.159 53.7126 198.901 54.0635 198.724C54.4189 198.546 54.8291 198.457 55.2939 198.457C55.9046 198.457 56.4264 198.623 56.8594 198.956C57.2923 199.284 57.6227 199.747 57.8506 200.344C58.0785 200.936 58.1924 201.631 58.1924 202.429V202.572C58.1924 203.283 58.0762 203.905 57.8438 204.439C57.6159 204.972 57.2878 205.389 56.8594 205.69C56.431 205.986 55.916 206.134 55.3145 206.134C54.8587 206.134 54.4577 206.059 54.1113 205.908C53.7695 205.753 53.4779 205.526 53.2363 205.225V207.775L54.4121 207.966V208.834H50.8438ZM54.8975 205.081C55.5355 205.081 56.0186 204.849 56.3467 204.384C56.6748 203.919 56.8389 203.315 56.8389 202.572V202.429C56.8389 201.864 56.766 201.367 56.6201 200.939C56.4743 200.506 56.2555 200.166 55.9639 199.92C55.6768 199.674 55.3167 199.551 54.8838 199.551C54.501 199.551 54.1729 199.637 53.8994 199.811C53.626 199.984 53.4049 200.221 53.2363 200.522V204.124C53.4049 204.429 53.6237 204.666 53.8926 204.835C54.166 204.999 54.501 205.081 54.8975 205.081ZM59.6826 205.99V205.129L60.7969 204.938V199.653L59.6826 199.462V198.594H62.1367H63.251V199.462L62.1367 199.653V203.83L62.1777 203.844L65.4385 198.594H66.7852H67.8994V199.462L66.7852 199.653V204.938L67.8994 205.129V205.99H64.3242V205.129L65.4385 204.938V200.754L65.3975 200.74L62.1367 205.99H59.6826ZM72.7119 205.99V205.068L75.9727 201.444C76.36 201.012 76.6631 200.642 76.8818 200.337C77.1006 200.027 77.2533 199.747 77.3398 199.496C77.4264 199.246 77.4697 198.986 77.4697 198.717C77.4697 198.22 77.3193 197.803 77.0186 197.466C76.7178 197.124 76.2871 196.953 75.7266 196.953C75.1432 196.953 74.6875 197.129 74.3594 197.48C74.0358 197.831 73.874 198.327 73.874 198.97H72.582L72.5684 198.929C72.5547 198.355 72.6755 197.84 72.9307 197.384C73.1859 196.924 73.555 196.561 74.0381 196.297C74.5257 196.028 75.1045 195.894 75.7744 195.894C76.4033 195.894 76.9434 196.014 77.3945 196.256C77.8503 196.493 78.2012 196.819 78.4473 197.234C78.6934 197.648 78.8164 198.124 78.8164 198.662C78.8164 199.027 78.7435 199.389 78.5977 199.749C78.4564 200.109 78.2467 200.478 77.9688 200.857C77.6953 201.235 77.3649 201.634 76.9775 202.053L74.3594 204.903L74.373 204.938H77.9072L78.0166 203.796H79.1582V205.99H72.7119ZM83.9365 205.99V205.129L85.0508 204.938V199.653L83.9365 199.462V198.594H87.5117V199.462L86.3975 199.653V201.718H87.1084L88.6533 199.647C88.9313 199.259 89.2025 198.965 89.4668 198.765C89.7357 198.564 90.0365 198.464 90.3691 198.464C90.5788 198.464 90.752 198.491 90.8887 198.546C91.0254 198.596 91.1803 198.676 91.3535 198.785L91.1621 199.701C90.9661 199.669 90.8522 199.651 90.8203 199.647C90.793 199.642 90.7337 199.64 90.6426 199.64C90.474 199.64 90.3076 199.701 90.1436 199.824C89.984 199.947 89.8428 200.093 89.7197 200.262L88.291 202.114L90.6221 204.958L91.5723 205.129V205.99H89.7744L87.2725 202.853H86.3975V204.938L87.5117 205.129V205.99H83.9365ZM95.4072 206.134C94.7236 206.134 94.1335 205.974 93.6367 205.655C93.1445 205.332 92.764 204.887 92.4951 204.322C92.2262 203.753 92.0918 203.103 92.0918 202.374V202.224C92.0918 201.495 92.2262 200.847 92.4951 200.282C92.764 199.713 93.1445 199.266 93.6367 198.943C94.1335 198.619 94.7191 198.457 95.3936 198.457C96.0771 198.457 96.665 198.619 97.1572 198.943C97.654 199.266 98.0368 199.71 98.3057 200.276C98.5745 200.841 98.709 201.49 98.709 202.224V202.374C98.709 203.108 98.5745 203.76 98.3057 204.329C98.0368 204.894 97.6562 205.336 97.1641 205.655C96.6719 205.974 96.0863 206.134 95.4072 206.134ZM95.4072 205.081C95.8356 205.081 96.1934 204.965 96.4805 204.733C96.7721 204.496 96.9909 204.174 97.1367 203.769C97.2871 203.359 97.3623 202.894 97.3623 202.374V202.224C97.3623 201.704 97.2871 201.242 97.1367 200.836C96.9909 200.426 96.7721 200.105 96.4805 199.872C96.1888 199.635 95.8265 199.517 95.3936 199.517C94.9652 199.517 94.6051 199.635 94.3135 199.872C94.0218 200.105 93.8031 200.426 93.6572 200.836C93.5114 201.242 93.4385 201.704 93.4385 202.224V202.374C93.4385 202.894 93.5114 203.359 93.6572 203.769C93.8031 204.174 94.0218 204.496 94.3135 204.733C94.6097 204.965 94.9743 205.081 95.4072 205.081ZM100.083 205.99V205.129L101.197 204.938V199.653L100.083 199.462V198.594H101.197H102.934L105.34 204.227H105.381L107.794 198.594H109.482H110.597V199.462L109.482 199.653V204.938L110.597 205.129V205.99H107.021V205.129L108.136 204.938V200.857L108.095 200.843L105.825 205.99H104.896L102.585 200.734L102.544 200.747V204.938L103.658 205.129V205.99H100.083ZM114.104 206.134C113.333 206.134 112.748 205.947 112.347 205.573C111.946 205.195 111.745 204.664 111.745 203.981C111.745 203.511 111.873 203.103 112.128 202.757C112.388 202.406 112.761 202.135 113.249 201.943C113.737 201.748 114.32 201.65 114.999 201.65H116.318V200.925C116.318 200.478 116.182 200.132 115.908 199.886C115.639 199.64 115.259 199.517 114.767 199.517C114.457 199.517 114.188 199.555 113.96 199.633C113.732 199.706 113.525 199.808 113.338 199.941L113.194 200.973H112.155V199.277C112.488 199.009 112.875 198.806 113.317 198.669C113.759 198.528 114.249 198.457 114.787 198.457C115.685 198.457 116.389 198.671 116.899 199.1C117.41 199.528 117.665 200.141 117.665 200.939V204.5C117.665 204.596 117.665 204.689 117.665 204.78C117.67 204.872 117.676 204.963 117.686 205.054L118.403 205.129V205.99H116.469C116.428 205.79 116.396 205.61 116.373 205.45C116.35 205.291 116.334 205.131 116.325 204.972C116.065 205.304 115.74 205.582 115.348 205.806C114.96 206.025 114.546 206.134 114.104 206.134ZM114.302 205.006C114.748 205.006 115.156 204.899 115.525 204.685C115.895 204.47 116.159 204.213 116.318 203.912V202.572H114.951C114.331 202.572 113.867 202.72 113.557 203.017C113.247 203.313 113.092 203.643 113.092 204.008C113.092 204.332 113.192 204.58 113.393 204.753C113.593 204.922 113.896 205.006 114.302 205.006ZM119.606 205.99V205.129L120.721 204.938V199.653L119.606 199.462V198.594H123.182V199.462L122.067 199.653V201.793H125.355V199.653L124.241 199.462V198.594H125.355H126.709H127.823V199.462L126.709 199.653V204.938L127.823 205.129V205.99H124.241V205.129L125.355 204.938V202.846H122.067V204.938L123.182 205.129V205.99H119.606ZM129.067 208.164L128.938 204.938H129.519C129.71 204.719 129.876 204.502 130.018 204.288C130.159 204.069 130.282 203.83 130.387 203.57C130.492 203.306 130.576 202.998 130.64 202.648C130.708 202.292 130.758 201.868 130.79 201.376L130.858 199.647L129.785 199.462V198.594H135.732H136.847V199.462L135.732 199.653V204.938H136.717L136.58 208.164H135.37V205.99H130.277V208.164H129.067ZM131.07 204.938H134.386V199.79H132.198L132.137 201.376C132.087 202.196 131.968 202.896 131.781 203.475C131.599 204.054 131.362 204.541 131.07 204.938ZM141.276 206.134C140.593 206.134 139.998 205.979 139.492 205.669C138.986 205.355 138.594 204.919 138.316 204.363C138.043 203.807 137.906 203.165 137.906 202.436V202.135C137.906 201.433 138.05 200.806 138.337 200.255C138.629 199.699 139.014 199.262 139.492 198.943C139.975 198.619 140.502 198.457 141.071 198.457C141.737 198.457 142.293 198.594 142.739 198.867C143.19 199.141 143.53 199.526 143.758 200.023C143.986 200.515 144.1 201.096 144.1 201.766V202.607H139.301L139.28 202.641C139.289 203.115 139.371 203.536 139.526 203.905C139.686 204.27 139.914 204.557 140.21 204.767C140.506 204.976 140.862 205.081 141.276 205.081C141.732 205.081 142.131 205.017 142.473 204.89C142.819 204.758 143.118 204.578 143.368 204.35L143.895 205.225C143.63 205.48 143.279 205.696 142.842 205.874C142.409 206.047 141.887 206.134 141.276 206.134ZM139.342 201.554H142.753V201.376C142.753 201.021 142.689 200.704 142.562 200.426C142.438 200.143 142.252 199.922 142.001 199.763C141.755 199.599 141.445 199.517 141.071 199.517C140.771 199.517 140.497 199.606 140.251 199.783C140.005 199.957 139.802 200.193 139.643 200.494C139.483 200.795 139.378 201.137 139.328 201.52L139.342 201.554Z" fill="white"></path>
  <defs>
    <linearGradient id="paint0_linear_921_419" x1="144.695" y1="31.451" x2="45.9889" y2="129.729" gradientUnits="userSpaceOnUse">
      <stop stop-color="#E6E6E6"></stop>
      <stop offset="0.03" stop-color="#E9E9E9"></stop>
      <stop offset="0.21" stop-color="#F6F6F6"></stop>
      <stop offset="0.45" stop-color="#FDFDFD"></stop>
      <stop offset="1" stop-color="white"></stop>
    </linearGradient>
    <clipPath id="clip0_921_419">
      <rect width="29.9999" height="29.9987" fill="white" transform="translate(96 65.9948)"></rect>
    </clipPath>
    <clipPath id="clip1_921_419">
      <rect width="29.9999" height="29.9987" fill="white" transform="translate(66 65.9948)"></rect>
    </clipPath>
  </defs>
</svg>
