<?xml version="1.0" encoding="UTF-8"?>
<svg xmlns="http://www.w3.org/2000/svg" width="253" height="253" viewBox="0 0 253 253" fill="none">
  <path opacity="0.03" d="M163.866 248.156L158.889 244.931L168.509 215.562L176.728 220.455C180.953 222.967 191.233 227.221 202.973 227.221C215.353 227.221 228.806 220.033 228.713 204.25C228.623 188.511 217.437 180.53 195.814 180.53C188.822 180.53 183.251 181.235 178.338 181.856L167.356 183.237L178.704 98.6602H240.182V71.9176C240.181 66.9655 238.222 62.2165 234.735 58.715C231.249 55.2136 226.52 53.2465 221.589 53.2465H149.454C146.626 49.1259 143.432 45.2712 139.911 41.73C107.992 9.67465 56.2451 9.67465 24.3261 41.73C-2.95574 69.1304 -6.91205 111.081 12.4442 142.706V232.87C12.4438 235.322 12.9244 237.751 13.8585 240.016C14.7926 242.282 16.1618 244.34 17.8881 246.074C19.6144 247.808 21.6639 249.184 23.9196 250.122C26.1752 251.061 28.5929 251.544 31.0344 251.544H170.237C168.031 250.579 165.901 249.446 163.866 248.156Z" fill="#EAEAEA"></path>
  <path opacity="0.06" d="M164.243 247.651L159.265 244.426L168.867 215.07L177.086 219.961C181.311 222.463 191.591 226.727 203.326 226.727C215.706 226.727 229.159 219.539 229.066 203.756C228.975 188.017 217.79 180.036 196.167 180.036C189.175 180.036 183.604 180.741 178.691 181.362L167.709 182.743L179.057 98.1661H240.553V71.4132C240.552 66.4611 238.593 61.7121 235.107 58.2106C231.62 54.7092 226.891 52.7421 221.96 52.7421H149.82C146.992 48.6215 143.798 44.7668 140.278 41.2256C108.359 9.17026 56.6113 9.17026 24.6923 41.2256C-2.58953 68.626 -6.54583 110.574 12.8104 142.202V232.366C12.81 234.818 13.2906 237.246 14.2247 239.512C15.1588 241.777 16.528 243.836 18.2543 245.57C19.9806 247.304 22.0301 248.68 24.2857 249.618C26.5414 250.556 28.9591 251.039 31.4006 251.039H170.598C168.397 250.074 166.272 248.941 164.243 247.651Z" fill="#EAEAEA"></path>
  <path opacity="0.08" d="M164.609 247.146L159.631 243.921L169.233 214.552L177.453 219.442C181.677 221.958 191.958 226.211 203.698 226.211C216.078 226.211 229.53 219.023 229.437 203.24C229.347 187.499 218.161 179.52 196.538 179.52C189.546 179.52 183.975 180.225 179.062 180.847L168.08 182.227L179.428 97.6504H240.925V70.9079C240.924 65.9557 238.965 61.2067 235.478 57.7053C231.991 54.2038 227.262 52.2368 222.332 52.2368H150.197C147.37 48.1151 144.176 44.2603 140.654 40.7202C108.735 8.66228 56.9879 8.66228 25.0689 40.7202C-2.22832 68.1207 -6.18464 110.068 13.1715 141.696V231.86C13.1715 236.813 15.1301 241.562 18.6164 245.064C22.1026 248.566 26.8311 250.533 31.7618 250.534H170.964C168.763 249.568 166.639 248.436 164.609 247.146Z" fill="#EAEAEA"></path>
  <path opacity="0.11" d="M164.975 246.641L159.997 243.416L169.599 214.047L177.819 218.937C182.044 221.453 192.324 225.706 204.064 225.706C216.444 225.706 229.896 218.518 229.803 202.732C229.713 186.994 218.528 179.015 196.904 179.015C189.912 179.015 184.342 179.72 179.428 180.342L168.446 181.722L179.795 97.1455H241.291V70.403C241.29 65.4508 239.331 60.7018 235.844 57.2004C232.357 53.6989 227.629 51.7319 222.698 51.7319H150.553C147.726 47.6102 144.532 43.7554 141.01 40.2153C109.086 8.15741 57.3491 8.15741 25.4198 40.2231C-1.86191 67.6235 -5.81833 109.571 13.5378 141.199V231.355C13.5378 236.308 15.4964 241.057 18.9827 244.559C22.4689 248.061 27.1974 250.028 32.128 250.029H171.33C169.129 249.063 167.005 247.931 164.975 246.641Z" fill="#EAEAEA"></path>
  <path opacity="0.14" d="M165.341 246.136L160.364 242.908L169.966 213.539L178.185 218.437C182.41 220.95 192.69 225.206 204.43 225.206C216.81 225.206 230.263 218.015 230.17 202.232C230.08 186.493 218.894 178.515 197.271 178.515C190.279 178.515 184.708 179.22 179.795 179.841L168.813 181.219L180.161 96.6453H241.657V69.8976C241.657 64.9452 239.697 60.1959 236.211 56.6941C232.724 53.1922 227.995 51.2246 223.064 51.2239H150.919C148.092 47.1036 144.898 43.2497 141.376 39.7099C109.457 7.65203 57.71 7.65203 25.791 39.7099C-1.49082 67.1104 -5.44725 109.058 13.909 140.686V230.85C13.909 235.803 15.8679 240.552 19.3547 244.054C22.8415 247.556 27.5707 249.524 32.5018 249.524H171.701C169.499 248.558 167.373 247.426 165.341 246.136Z" fill="#EAEAEA"></path>
  <path opacity="0.17" d="M165.708 245.636L160.73 242.408L170.332 213.039L178.551 217.919C182.776 220.432 193.056 224.688 204.797 224.688C217.176 224.688 230.629 217.497 230.536 201.714C230.446 185.975 219.26 177.997 197.637 177.997C190.645 177.997 185.074 178.702 180.161 179.323L169.179 180.701L180.527 96.1272H242.013V69.3924C242.012 64.44 240.053 59.6907 236.566 56.1889C233.08 52.687 228.351 50.7194 223.42 50.7187H151.285C148.458 46.598 145.264 42.7434 141.743 39.2021C109.824 7.14682 58.0764 7.14682 26.1574 39.2021C-1.12949 66.6026 -5.08585 108.553 14.2781 140.181V230.353C14.2781 232.805 14.759 235.233 15.6934 237.498C16.6278 239.764 17.9974 241.822 19.7239 243.556C21.4504 245.29 23.5001 246.665 25.7558 247.603C28.0116 248.541 30.4293 249.024 32.8708 249.024H172.07C169.866 248.059 167.739 246.927 165.708 245.636Z" fill="#EAEAEA"></path>
  <path opacity="0.19" d="M166.074 245.118L161.096 241.893L170.698 212.524L178.917 217.417C183.142 219.929 193.422 224.185 205.165 224.185C217.545 224.185 230.995 216.995 230.902 201.212C230.812 185.473 219.626 177.492 198.003 177.492C191.011 177.492 185.44 178.199 180.527 178.821L169.54 180.204L180.888 95.6274H242.384V68.8875C242.383 63.9351 240.424 59.1858 236.938 55.684C233.451 52.1821 228.722 50.2145 223.791 50.2138H151.651C148.824 46.0925 145.63 42.2378 142.108 38.6972C110.189 6.64194 58.4423 6.64194 26.5233 38.6972C-0.758471 66.0977 -4.71477 108.048 14.6414 139.676V229.835C14.6414 232.287 15.1224 234.715 16.0568 236.981C16.9912 239.246 18.3607 241.304 20.0872 243.038C21.8138 244.772 23.8634 246.147 26.1192 247.085C28.3749 248.024 30.7926 248.506 33.2341 248.506H172.428C170.227 247.542 168.102 246.409 166.074 245.118Z" fill="#EAEAEA"></path>
  <path opacity="0.22" d="M166.445 244.618L161.467 241.393L171.069 212.024L179.289 216.917C183.513 219.429 193.794 223.683 205.536 223.683C217.916 223.683 231.366 216.494 231.273 200.712C231.181 184.973 219.992 176.992 198.369 176.992C191.377 176.992 185.806 177.697 180.893 178.321L169.911 179.699L181.259 95.1221H242.756V68.3821C242.756 63.4296 240.797 58.6798 237.31 55.1778C233.823 51.6759 229.094 49.7085 224.163 49.7085H152.017C149.191 45.5872 145.997 41.7324 142.475 38.1919C110.556 6.13657 58.8085 6.13657 26.8894 38.1919C-0.397513 65.5923 -4.35382 107.543 15.0024 139.173V229.335C15.0024 231.787 15.4833 234.215 16.4177 236.48C17.3521 238.746 18.7217 240.804 20.4482 242.538C22.1748 244.272 24.2244 245.647 26.4802 246.585C28.7359 247.523 31.1536 248.006 33.5951 248.006H172.795C170.595 247.042 168.472 245.909 166.445 244.618Z" fill="#EAEAEA"></path>
  <path opacity="0.25" d="M166.806 244.113L161.828 240.888L171.43 211.519L179.65 216.412C183.874 218.924 194.155 223.178 205.897 223.178C218.277 223.178 231.727 215.989 231.634 200.207C231.544 184.468 220.358 176.487 198.735 176.487C191.743 176.487 186.172 177.192 181.259 177.813L170.28 179.194L181.615 94.6197H243.111V67.8746C243.11 62.9225 241.151 58.1734 237.664 54.672C234.178 51.1706 229.449 49.2035 224.518 49.2035H152.383C149.557 45.0822 146.362 41.2275 142.841 37.6869C110.922 5.63162 59.1746 5.63162 27.2556 37.6869C-0.0312965 65.09 -3.9876 107.038 15.3686 138.655V228.827C15.3682 231.279 15.8489 233.708 16.7832 235.974C17.7174 238.239 19.087 240.298 20.8135 242.032C22.5401 243.766 24.5899 245.142 26.8458 246.08C29.1018 247.018 31.5196 247.501 33.9613 247.501H173.15C170.953 246.534 168.832 245.402 166.806 244.113Z" fill="#EAEAEA"></path>
  <path opacity="0.28" d="M167.174 243.607L162.194 240.382L171.796 211.013L180.016 215.904C184.24 218.419 194.521 222.672 206.263 222.672C218.643 222.672 232.093 215.484 232 199.701C231.91 183.962 220.724 175.982 199.104 175.982C192.109 175.982 186.538 176.686 181.625 177.308L170.646 178.689L181.981 94.1014H243.477V67.3692C243.477 64.9171 242.996 62.489 242.062 60.2235C241.127 57.9581 239.758 55.8997 238.031 54.1659C236.305 52.4321 234.255 51.0568 231.999 50.1187C229.744 49.1805 227.326 48.6978 224.884 48.6981H152.75C149.923 44.5769 146.729 40.7221 143.207 37.1816C111.288 5.12625 59.541 5.12625 27.6221 37.1816C0.350681 64.5717 -3.62122 106.535 15.7349 138.158V228.322C15.7346 230.774 16.2153 233.203 17.1495 235.468C18.0838 237.734 19.4533 239.793 21.1799 241.527C22.9064 243.261 24.9562 244.636 27.2122 245.575C29.4681 246.513 31.886 246.996 34.3277 246.995H173.527C171.327 246.03 169.203 244.897 167.174 243.607Z" fill="#EAEAEA"></path>
  <path opacity="0.31" d="M167.541 243.102L162.561 239.877L172.163 210.508L180.372 215.399C184.597 217.914 194.877 222.167 206.62 222.167C218.999 222.167 232.45 214.979 232.357 199.196C232.266 183.455 221.081 175.477 199.46 175.477C192.466 175.477 186.895 176.181 181.982 176.803L171.002 178.184L182.338 93.6068H243.844V66.8643C243.844 64.412 243.363 61.9836 242.428 59.718C241.494 57.4524 240.124 55.3939 238.397 53.66C236.67 51.9262 234.62 50.551 232.364 49.613C230.108 48.675 227.69 48.1926 225.249 48.1932H153.116C150.291 44.0709 147.097 40.216 143.574 36.6767C111.655 4.61877 59.9075 4.61877 27.9886 36.6767C0.704224 64.0771 -3.25994 106.017 16.1014 137.653V227.817C16.1014 232.769 18.0603 237.519 21.5471 241.021C25.0339 244.523 29.7631 246.491 34.6942 246.491H173.894C171.693 245.525 169.57 244.393 167.541 243.102Z" fill="#EAEAEA"></path>
  <path opacity="0.33" d="M167.908 242.597L162.927 239.372L172.529 210.003L180.749 214.894C184.973 217.409 195.254 221.662 206.996 221.662C219.376 221.662 232.826 214.474 232.736 198.691C232.643 182.95 221.458 174.971 199.837 174.971C192.842 174.971 187.272 175.676 182.358 176.298L171.379 177.678L182.714 93.1015H244.21V66.359C244.21 63.9069 243.729 61.4788 242.795 59.2133C241.861 56.9479 240.491 54.8895 238.765 53.1556C237.038 51.4218 234.988 50.0466 232.733 49.1084C230.477 48.1703 228.059 47.6876 225.618 47.6879H153.483C150.658 43.565 147.464 39.7101 143.94 36.1713C112.021 4.11346 60.2737 4.11346 28.3547 36.1713C1.07544 63.5718 -2.88358 105.52 16.4726 137.147V227.312C16.4726 232.264 18.4315 237.014 21.9183 240.516C25.4052 244.018 30.1344 245.985 35.0655 245.985H174.26C172.06 245.02 169.936 243.887 167.908 242.597Z" fill="#EAEAEA"></path>
  <path opacity="0.36" d="M168.273 242.092L163.293 238.864L172.893 209.495L181.112 214.388C185.337 216.901 195.617 221.157 207.36 221.157C219.739 221.157 233.189 213.966 233.099 198.183C233.006 182.445 221.821 174.466 200.2 174.466C193.206 174.466 187.635 175.171 182.721 175.793L171.742 177.173L183.077 92.5964H244.574V65.8668C244.574 60.9143 242.615 56.1646 239.128 52.6626C235.641 49.1606 230.912 47.1932 225.981 47.1932H153.849C151.023 43.0716 147.829 39.2176 144.306 35.6792C112.387 3.62127 60.6397 3.62127 28.7207 35.6792C1.44157 63.0796 -2.5173 105.027 16.8389 136.655V226.806C16.8389 231.758 18.797 236.507 22.2827 240.009C25.7684 243.511 30.4962 245.479 35.4264 245.48H174.626C172.426 244.515 170.302 243.382 168.273 242.092Z" fill="#EAEAEA"></path>
  <path opacity="0.39" d="M168.64 241.587L163.66 238.359L173.262 208.99L181.481 213.883C185.706 216.396 195.986 220.652 207.729 220.652C220.108 220.652 233.559 213.461 233.468 197.678C233.375 181.939 222.19 173.961 200.569 173.961C193.575 173.961 188.004 174.666 183.091 175.287L172.119 176.665L183.454 92.0913H244.95V65.3488C244.95 60.3962 242.992 55.6465 239.505 52.1445C236.018 48.6425 231.289 46.6751 226.358 46.6751H154.215C151.389 42.5535 148.195 38.6995 144.672 35.1611C112.753 3.1032 61.006 3.1032 29.087 35.1611C1.80778 62.559 -2.1511 104.509 17.2051 136.137V226.301C17.2051 228.753 17.686 231.182 18.6204 233.447C19.5549 235.712 20.9244 237.771 22.6509 239.505C24.3775 241.239 26.4271 242.614 28.6829 243.552C30.9386 244.49 33.3563 244.973 35.7978 244.972H174.997C172.795 244.009 170.669 242.877 168.64 241.587Z" fill="#EAEAEA"></path>
  <path opacity="0.42" d="M169.006 241.079L164.028 237.855L173.628 208.485L181.848 213.378C186.072 215.891 196.352 220.147 208.095 220.147C220.475 220.147 233.925 212.956 233.835 197.173C233.742 181.435 222.556 173.454 200.935 173.454C193.941 173.454 188.37 174.161 183.457 174.783L172.478 176.161L183.813 91.5839H245.309V64.844C245.306 59.8932 243.346 55.1462 239.86 51.6464C236.373 48.1467 231.646 46.1807 226.716 46.1807H154.581C151.755 42.0588 148.561 38.204 145.038 34.6641C113.122 2.6088 61.3721 2.6088 29.4557 34.6641C2.17384 62.0646 -1.78511 104.015 17.5711 135.643V225.797C17.5711 228.249 18.0521 230.677 18.9865 232.942C19.9209 235.208 21.2904 237.266 23.017 239C24.7435 240.734 26.7931 242.109 29.0489 243.047C31.3047 243.985 33.7223 244.468 36.1639 244.468H175.364C173.161 243.505 171.035 242.372 169.006 241.079Z" fill="#EAEAEA"></path>
  <path opacity="0.44" d="M169.372 240.574L164.394 237.349L173.994 207.98L182.213 212.873C186.438 215.386 196.718 219.639 208.461 219.639C220.841 219.639 234.291 212.451 234.2 196.668C234.108 180.929 222.922 172.949 201.301 172.949C194.307 172.949 188.736 173.653 183.823 174.278L172.844 175.656L184.179 91.0788H245.675V64.3389C245.676 61.8863 245.195 59.4576 244.261 57.1916C243.327 54.9255 241.957 52.8665 240.231 51.1322C238.504 49.3978 236.454 48.0221 234.198 47.0836C231.942 46.1451 229.524 45.6623 227.082 45.6626H154.947C152.121 41.5407 148.927 37.6859 145.404 34.146C113.488 2.09073 61.7383 2.09073 29.8218 34.146C2.54006 61.5465 -1.41889 103.497 17.9373 135.125V225.291C17.9373 227.744 18.4183 230.172 19.3527 232.437C20.2871 234.703 21.6566 236.761 23.3831 238.495C25.1097 240.229 27.1593 241.604 29.4151 242.542C31.6708 243.48 34.0885 243.963 36.53 243.962H175.73C173.527 242.999 171.401 241.867 169.372 240.574Z" fill="#EAEAEA"></path>
  <path opacity="0.47" d="M169.738 240.069L164.761 236.844L174.36 207.475L182.58 212.368C186.804 214.88 197.085 219.134 208.827 219.134C221.207 219.134 234.657 211.946 234.567 196.163C234.474 180.424 223.288 172.443 201.668 172.443C194.673 172.443 189.102 173.148 184.189 173.772L173.21 175.15L184.558 90.5733H246.054V63.8308C246.054 61.3786 245.573 58.9505 244.639 56.6851C243.704 54.4196 242.335 52.3612 240.608 50.6274C238.882 48.8936 236.832 47.5183 234.576 46.5802C232.321 45.642 229.903 45.1593 227.461 45.1597H155.313C152.487 41.0378 149.293 37.183 145.771 33.6431C113.854 1.5878 62.1045 1.5878 30.1881 33.6431C2.90627 61.0436 -1.05268 102.994 18.3035 134.619V224.786C18.3042 229.738 20.2634 234.487 23.7501 237.989C27.2369 241.49 31.9657 243.457 36.8964 243.457H176.091C173.89 242.493 171.766 241.36 169.738 240.069Z" fill="#EAEAEA"></path>
  <path opacity="0.5" d="M170.104 239.564L165.127 236.339L174.726 206.97L182.951 211.863C187.176 214.376 197.456 218.629 209.199 218.629C221.578 218.629 235.028 211.441 234.938 195.658C234.845 179.919 223.66 171.938 202.039 171.938C195.044 171.938 189.474 172.643 184.56 173.264L173.581 174.645L184.929 90.0684H246.397V63.3258C246.397 58.3775 244.441 53.6316 240.959 50.1307C237.477 46.6298 232.754 44.6602 227.827 44.6547H155.679C152.853 40.5329 149.659 36.6781 146.137 33.1382C114.22 1.08285 62.4706 1.08285 30.5542 33.1382C3.26722 60.5386 -0.681354 102.489 18.6619 134.114V224.278C18.6619 226.731 19.1428 229.159 20.0772 231.425C21.0115 233.69 22.3812 235.749 24.1077 237.483C25.8342 239.217 27.8838 240.592 30.1396 241.531C32.3954 242.469 34.813 242.952 37.2547 242.952H176.454C174.255 241.987 172.132 240.854 170.104 239.564Z" fill="#EAEAEA"></path>
  <path opacity="0.53" d="M170.471 239.059L165.493 235.834L175.095 206.465L183.312 211.355C187.537 213.87 197.817 218.124 209.56 218.124C221.939 218.124 235.389 210.935 235.299 195.153C235.206 179.414 224.021 171.433 202.4 171.433C195.406 171.433 189.837 172.137 184.922 172.759L173.942 174.142L185.29 89.5656H246.786V62.8205C246.786 60.3684 246.306 57.9402 245.371 55.6748C244.437 53.4093 243.067 51.3509 241.341 49.6171C239.614 47.8833 237.564 46.5081 235.309 45.5699C233.053 44.6318 230.635 44.1491 228.194 44.1494H156.046C153.22 40.027 150.026 36.1722 146.503 32.6328C114.582 0.590487 62.8319 0.590487 30.9155 32.6328C3.63373 60.0333 -0.325085 101.981 19.0311 133.609V223.773C19.0311 228.726 20.9899 233.475 24.4767 236.977C27.9635 240.479 32.6927 242.447 37.6238 242.447H176.823C174.623 241.481 172.499 240.349 170.471 239.059Z" fill="#EAEAEA"></path>
  <path opacity="0.56" d="M170.829 238.554L165.852 235.329L175.472 205.96L183.689 210.85C187.913 213.365 198.194 217.619 209.936 217.619C222.316 217.619 235.766 210.43 235.676 194.648C235.583 178.906 224.398 170.928 202.777 170.928C195.782 170.928 190.214 171.633 185.298 172.254L174.309 173.625L185.644 89.0478H247.14V62.3156C247.14 59.8634 246.659 57.4353 245.725 55.1699C244.79 52.9044 243.421 50.846 241.694 49.1122C239.968 47.3784 237.918 46.0032 235.662 45.065C233.406 44.1268 230.989 43.6442 228.547 43.6445H156.412C153.587 39.5216 150.393 35.6667 146.87 32.1279C114.948 0.0726004 63.1982 0.0726004 31.2818 32.1279C4.00002 59.5284 0.0410695 101.476 19.3973 133.104V223.268C19.3979 228.221 21.3571 232.97 24.8437 236.472C28.3304 239.974 33.0591 241.941 37.99 241.942H177.19C174.987 240.977 172.86 239.844 170.829 238.554Z" fill="#EAEAEA"></path>
  <path opacity="0.58" d="M171.203 238.048L166.226 234.823L175.828 205.452L184.045 210.345C188.269 212.86 198.55 217.113 210.292 217.113C222.672 217.113 236.122 209.922 236.032 194.14C235.939 178.401 224.753 170.423 203.133 170.423C196.138 170.423 190.57 171.127 185.654 171.749L174.675 173.129L186.01 88.5527H247.506V61.8101C247.506 59.358 247.025 56.9299 246.091 54.6644C245.157 52.399 243.787 50.3406 242.06 48.6068C240.334 46.873 238.284 45.4977 236.028 44.5596C233.773 43.6214 231.355 43.1387 228.913 43.1391H156.778C153.954 39.0161 150.759 35.1612 147.236 31.6225C115.314 -0.445772 63.5645 -0.445772 31.648 31.6225C4.36623 59.023 0.40728 100.971 19.7635 132.599V222.763C19.7642 227.715 21.7233 232.464 25.2099 235.966C28.6966 239.468 33.4253 241.436 38.3562 241.436H177.556C175.356 240.471 173.232 239.338 171.203 238.048Z" fill="#EAEAEA"></path>
  <path opacity="0.61" d="M171.569 237.543L166.592 234.316L176.194 204.947L184.411 209.84C188.635 212.352 198.916 216.608 210.658 216.608C223.038 216.608 236.488 209.418 236.398 193.635C236.305 177.896 225.119 169.918 203.499 169.918C196.504 169.918 190.936 170.622 186.02 171.244L175.041 172.622L186.376 88.0478H247.872V61.3053C247.872 56.3527 245.913 51.603 242.427 48.101C238.94 44.599 234.211 42.6316 229.279 42.6316H157.144C154.319 38.5101 151.125 34.6561 147.602 31.1176C115.685 -0.940253 63.9356 -0.940253 32.0192 31.1176C4.73485 58.5155 0.773321 100.466 20.1295 132.094V222.258C20.1302 227.21 22.0893 231.96 25.576 235.461C29.0626 238.963 33.7913 240.931 38.7222 240.932H177.922C175.722 239.966 173.598 238.834 171.569 237.543Z" fill="#EAEAEA"></path>
  <path opacity="0.64" d="M171.936 237.038L166.96 233.811L176.56 204.449L184.779 209.342C189.001 211.855 199.282 216.111 211.024 216.111C223.404 216.111 236.854 208.92 236.764 193.137C236.671 177.398 225.488 169.418 203.865 169.418C196.87 169.418 191.302 170.125 186.386 170.747L175.407 172.125L186.742 87.5478H248.238V60.8001C248.238 55.848 246.28 51.0986 242.794 47.5967C239.307 44.0948 234.579 42.1271 229.648 42.1264H157.511C154.684 38.0045 151.49 34.1497 147.968 30.6098C116.051 -1.44547 64.3017 -1.44547 32.3853 30.6098C5.10354 58.0103 1.14459 99.9606 20.5008 131.589V221.753C20.5015 226.705 22.4606 231.454 25.9474 234.955C29.4341 238.457 34.163 240.424 39.0936 240.424H178.293C176.091 239.46 173.965 238.329 171.936 237.038Z" fill="#EAEAEA"></path>
  <path opacity="0.67" d="M172.303 236.53L167.325 233.305L176.927 203.931L185.147 208.824C189.369 211.337 199.649 215.593 211.392 215.593C223.771 215.593 237.221 208.402 237.131 192.619C237.038 176.88 225.855 168.899 204.232 168.899C197.237 168.899 191.669 169.607 186.754 170.228L175.774 171.606L187.109 87.0295H248.606V60.2947C248.606 55.3426 246.647 50.5933 243.161 47.0914C239.674 43.5895 234.946 41.6217 230.015 41.6211H157.878C155.052 37.4992 151.858 33.6444 148.335 30.1045C116.419 -1.95084 64.6689 -1.95084 32.7525 30.1045C5.47072 57.505 1.51178 99.4553 20.868 131.083V221.247C20.8686 226.199 22.8278 230.949 26.3146 234.45C29.8013 237.951 34.5302 239.918 39.4608 239.918H178.66C176.457 238.955 174.332 237.823 172.303 236.53Z" fill="#EAEAEA"></path>
  <path opacity="0.69" d="M172.668 236.026L167.69 232.801L177.292 203.432L185.512 208.335C189.734 210.848 200.014 215.101 211.757 215.101C224.136 215.101 237.587 207.913 237.496 192.13C237.403 176.391 226.22 168.411 204.597 168.411C197.603 168.411 192.034 169.115 187.119 169.74L176.139 171.118L187.475 86.5408H248.976V59.7905C248.976 57.3384 248.496 54.9102 247.561 52.6446C246.627 50.379 245.258 48.3204 243.532 46.5864C241.805 44.8523 239.756 43.4768 237.5 42.5383C235.245 41.5998 232.827 41.1168 230.386 41.1168H158.243C155.417 36.9949 152.223 33.1401 148.7 29.6002C116.779 -2.45506 65.0291 -2.45507 33.105 29.6028C5.83099 57.0007 1.87207 98.9511 21.2411 130.579V220.743C21.2404 225.692 23.1958 230.439 26.6776 233.941C30.1595 237.443 34.8831 239.413 39.8107 239.419H179.01C176.812 238.454 174.692 237.319 172.668 236.026Z" fill="#EAEAEA"></path>
  <path opacity="0.72" d="M173.035 235.533L168.057 232.308L177.659 202.939L185.879 207.817C190.101 210.329 200.381 214.583 212.124 214.583C224.503 214.583 237.953 207.395 237.863 191.612C237.77 175.873 226.587 167.892 204.964 167.892C197.97 167.892 192.401 168.597 187.486 169.218L176.504 170.602L187.852 86.0249H249.338V59.2824C249.338 54.3305 247.379 49.5814 243.893 46.0799C240.406 42.5784 235.678 40.6113 230.747 40.6113H158.61C155.784 36.4894 152.59 32.6346 149.067 29.0947C117.151 -2.9606 65.4013 -2.9606 33.4849 29.0947C6.20315 56.4952 2.24421 98.4455 21.6004 130.071V220.235C21.6004 222.687 22.0812 225.115 23.0156 227.381C23.95 229.647 25.3196 231.705 27.0461 233.439C28.7726 235.173 30.8222 236.549 33.078 237.487C35.3338 238.426 37.7514 238.909 40.1931 238.909H179.392C177.191 237.948 175.065 236.819 173.035 235.533Z" fill="#EAEAEA"></path>
  <path opacity="0.75" d="M173.409 235.016L168.431 231.791L178.033 202.421L186.253 207.312C190.475 209.827 200.755 214.081 212.498 214.081C224.877 214.081 238.327 206.892 238.237 191.11C238.144 175.371 226.961 167.39 205.338 167.39C198.343 167.39 192.775 168.094 187.859 168.716L176.88 170.097L188.215 85.52H249.712V58.7775C249.712 53.8256 247.753 49.0765 244.267 45.575C240.78 42.0735 236.052 40.1064 231.121 40.1064H158.966C156.14 35.9845 152.945 32.1297 149.423 28.5898C117.507 -3.46549 65.7568 -3.46549 33.8404 28.5898C6.55861 55.9903 2.59966 97.938 21.9559 129.566V219.733C21.9559 224.685 23.9148 229.435 27.4016 232.937C30.8884 236.439 35.6175 238.406 40.5486 238.406H179.753C177.556 237.44 175.435 236.306 173.409 235.016Z" fill="#EAEAEA"></path>
  <path opacity="0.78" d="M173.768 234.51L168.79 231.285L178.392 201.916L186.611 206.807C190.833 209.322 201.114 213.575 212.856 213.575C225.236 213.575 238.686 206.387 238.596 190.604C238.506 174.863 227.312 166.89 205.697 166.89C198.702 166.89 193.134 167.594 188.218 168.216L177.239 169.597L188.574 85.0198H250.07V58.2721C250.07 53.3202 248.112 48.5712 244.625 45.0697C241.139 41.5682 236.411 39.601 231.48 39.601H159.343C156.517 35.4786 153.323 31.6238 149.8 28.0844C117.883 -3.97346 66.1337 -3.97346 34.2173 28.0844C6.93032 55.4849 2.97136 97.4327 22.3276 129.071V219.214C22.3282 224.167 24.2874 228.916 27.774 232.418C31.2607 235.92 35.9894 237.887 40.9203 237.888H180.115C177.917 236.926 175.795 235.797 173.768 234.51Z" fill="#EAEAEA"></path>
  <path opacity="0.81" d="M174.133 234.005L169.155 230.78L178.757 201.411L186.977 206.302C191.199 208.817 201.479 213.07 213.222 213.07C225.602 213.07 239.052 205.882 238.961 190.099C238.871 174.358 227.686 166.38 206.062 166.38C199.068 166.38 193.499 167.084 188.584 167.706L177.604 169.087L188.94 84.5175H250.436V57.7672C250.436 52.8153 248.477 48.0663 244.991 44.5648C241.505 41.0633 236.776 39.0961 231.846 39.0961H159.708C156.883 34.9732 153.689 31.1183 150.165 27.5795C118.249 -4.47834 66.499 -4.47834 34.5825 27.5795C7.29555 54.9878 3.33659 96.9278 22.6928 128.553V218.72C22.6935 223.672 24.6526 228.421 28.1393 231.923C31.626 235.425 36.3548 237.393 41.2857 237.393H180.485C178.285 236.428 176.161 235.295 174.133 234.005Z" fill="#EAEAEA"></path>
  <path opacity="0.83" d="M174.5 233.5L169.522 230.272L179.124 200.903L187.336 205.796C191.558 208.309 201.838 212.565 213.581 212.565C225.961 212.565 239.411 205.374 239.321 189.591C239.23 173.852 228.045 165.874 206.422 165.874C199.427 165.874 193.859 166.579 188.943 167.201L177.964 168.579L189.312 84.0044H250.808V57.2618C250.808 54.8094 250.327 52.3809 249.392 50.1151C248.458 47.8494 247.088 45.7907 245.361 44.0567C243.635 42.3226 241.585 40.9472 239.329 40.0089C237.072 39.0706 234.654 38.5878 232.213 38.5882H160.075C157.249 34.4666 154.055 30.6126 150.532 27.0742C118.616 -4.98371 66.8661 -4.98371 34.9497 27.0742C7.66274 54.4695 3.70379 96.4328 23.06 128.05V218.214C23.0607 223.167 25.0198 227.916 28.5064 231.418C31.9931 234.92 36.7219 236.887 41.6528 236.888H180.852C178.652 235.923 176.528 234.79 174.5 233.5Z" fill="#EAEAEA"></path>
  <path opacity="0.86" d="M174.866 232.995L169.888 229.768L179.49 200.398L187.71 205.292C191.932 207.804 202.212 212.06 213.955 212.06C226.334 212.06 239.784 204.869 239.694 189.086C239.604 173.348 228.418 165.369 206.795 165.369C199.801 165.369 194.232 166.074 189.319 166.696L178.337 168.074L189.685 83.4995H251.169V56.757C251.169 51.8049 249.21 47.0555 245.724 43.5536C242.238 40.0517 237.509 38.084 232.578 38.0833H160.441C157.615 33.9617 154.421 30.1078 150.898 26.5693C118.982 -5.4886 67.2322 -5.4886 35.3158 26.5693C8.02888 53.9672 4.07006 95.915 23.4262 127.545V217.71C23.4269 222.662 25.3861 227.411 28.8728 230.912C32.3595 234.414 37.0883 236.381 42.0189 236.381H181.218C179.018 235.417 176.894 234.285 174.866 232.995Z" fill="#EAEAEA"></path>
  <path opacity="0.89" d="M175.232 232.487L170.255 229.262L179.857 199.893L188.077 204.786C192.299 207.299 202.579 211.555 214.321 211.555C226.701 211.555 240.151 204.364 240.061 188.581C239.971 172.842 228.785 164.862 207.162 164.862C200.167 164.862 194.599 165.569 189.686 166.19L178.704 167.568L190.039 82.9917H251.535V56.2518C251.535 51.2996 249.577 46.5503 246.091 43.0484C242.604 39.5465 237.876 37.5788 232.945 37.5781H160.808C157.981 33.4562 154.787 29.6014 151.265 26.0615C119.348 -5.99381 67.5987 -5.99381 35.6822 26.0615C8.40041 53.462 4.44146 95.4123 23.7977 127.04V217.204C23.7983 222.156 25.7575 226.906 29.2443 230.407C32.731 233.908 37.4597 235.875 42.3904 235.875H181.585C179.384 234.912 177.26 233.779 175.232 232.487Z" fill="#EAEAEA"></path>
  <path opacity="0.92" d="M175.598 231.982L170.621 228.757L180.223 199.388L188.442 204.281C192.664 206.794 202.945 211.047 214.687 211.047C227.067 211.047 240.517 203.859 240.427 188.076C240.336 172.337 229.151 164.357 207.528 164.357C200.533 164.357 194.965 165.061 190.052 165.686L179.083 167.064L190.418 82.4868H251.914V55.7469C251.914 53.2947 251.434 50.8665 250.5 48.601C249.566 46.3354 248.196 44.2768 246.47 42.5428C244.744 40.8087 242.694 39.4332 240.439 38.4947C238.183 37.5562 235.765 37.0732 233.324 37.0732H161.186C158.36 32.9513 155.166 29.0965 151.644 25.5566C119.727 -6.49869 67.9774 -6.49869 36.061 25.5566C8.77919 52.9571 4.82283 94.9074 24.1764 126.535V216.699C24.1771 221.652 26.1363 226.401 29.623 229.902C33.1098 233.403 37.8386 235.371 42.7693 235.371H181.969C179.761 234.408 177.632 233.275 175.598 231.982Z" fill="#EAEAEA"></path>
  <path opacity="0.94" d="M175.965 231.477L170.987 228.252L180.589 198.883L188.809 203.776C193.031 206.289 203.311 210.542 215.054 210.542C227.434 210.542 240.884 203.354 240.793 187.571C240.703 171.832 229.517 163.851 207.894 163.851C200.9 163.851 195.331 164.556 190.418 165.178L179.436 166.558L190.771 81.9815H252.268V55.2467C252.268 50.2948 250.309 45.5458 246.823 42.0443C243.337 38.5428 238.608 36.5756 233.678 36.5756H161.545C158.719 32.4538 155.525 28.599 152.002 25.0591C120.086 -6.99625 68.3361 -6.99625 36.4196 25.0591C9.11974 52.4518 5.17109 94.4021 24.5247 126.027V216.192C24.5247 221.144 26.4836 225.894 29.9704 229.396C33.4573 232.898 38.1864 234.865 43.1175 234.865H182.317C180.117 233.9 177.993 232.767 175.965 231.477Z" fill="#EAEAEA"></path>
  <path opacity="0.97" d="M176.331 230.972L171.346 227.747L180.948 198.378L189.167 203.268C193.389 205.784 203.669 210.037 215.412 210.037C227.792 210.037 241.242 202.849 241.152 187.066C241.061 171.327 229.876 163.346 208.253 163.346C201.258 163.346 195.69 164.051 190.777 164.673L179.795 166.053L191.13 81.4764H252.626V54.7287C252.626 49.7768 250.667 45.0277 247.181 41.5262C243.695 38.0247 238.966 36.0576 234.036 36.0576H161.906C159.08 31.9357 155.886 28.0809 152.363 24.541C120.447 -7.51431 68.6971 -7.51431 36.7807 24.541C9.49892 51.9415 5.54255 93.8892 24.8962 125.517V215.686C24.8962 220.639 26.8551 225.389 30.3419 228.891C33.8287 232.393 38.5578 234.36 43.4889 234.36H182.694C180.49 233.395 178.363 232.263 176.331 230.972Z" fill="#EAEAEA"></path>
  <path d="M176.697 230.467L171.719 227.244L181.321 197.875L189.541 202.766C193.763 205.281 204.043 209.534 215.786 209.534C228.165 209.534 241.499 202.346 241.525 186.563C241.316 170.824 230.249 162.844 208.626 162.844C201.632 162.844 196.063 163.548 191.15 164.17L180.168 165.55L191.503 80.9736H253V54.2285C252.999 49.2771 251.04 44.5287 247.554 41.0277C244.068 37.5268 239.339 35.56 234.409 35.56H162.275C159.448 31.4383 156.254 27.5835 152.732 24.0434C120.815 -8.01447 69.0657 -8.01447 37.1493 24.0434C9.86759 51.4439 5.91116 93.3916 25.2673 125.02V215.181C25.2673 220.133 27.2259 224.883 30.7122 228.384C34.1984 231.886 38.9269 233.854 43.8575 233.855H183.057C180.854 232.89 178.728 231.757 176.697 230.467Z" fill="#EAEAEA"></path>
  <path opacity="0.03" d="M205.671 130.195L202.669 150.335C203.443 150.314 204.263 150.304 205.137 150.304C218.082 150.304 229.866 153.399 239.38 158.981L240.182 159.458V130.187L205.671 130.195Z" fill="#EAEAEA"></path>
  <path opacity="0.06" d="M206.037 129.69L203.035 149.83C203.809 149.809 204.629 149.799 205.503 149.799C218.448 149.799 230.232 152.891 239.746 158.476L240.548 158.953V129.682L206.037 129.69Z" fill="#EAEAEA"></path>
  <path opacity="0.08" d="M206.403 129.185L203.401 149.325C204.175 149.304 204.995 149.291 205.87 149.291C218.814 149.291 230.598 152.4 240.112 157.971L240.914 158.448V129.177L206.403 129.185Z" fill="#EAEAEA"></path>
  <path opacity="0.11" d="M206.77 128.68L203.768 148.819C204.541 148.799 205.361 148.786 206.236 148.786C219.18 148.786 230.964 151.881 240.478 157.466L241.281 157.943V128.672L206.77 128.68Z" fill="#EAEAEA"></path>
  <path opacity="0.14" d="M207.136 128.175L204.134 148.315C204.908 148.294 205.728 148.281 206.602 148.281C219.547 148.281 231.33 151.389 240.845 156.961C241.116 157.116 241.379 157.277 241.647 157.438V128.167L207.136 128.175Z" fill="#EAEAEA"></path>
  <path opacity="0.17" d="M207.502 127.669L204.5 147.809C205.274 147.786 206.094 147.776 206.968 147.776C219.913 147.776 231.697 150.871 241.211 156.453C241.469 156.611 241.745 156.772 242.013 156.932V127.662L207.502 127.669Z" fill="#EAEAEA"></path>
  <path opacity="0.19" d="M207.868 127.165L204.874 147.302C205.648 147.281 206.468 147.271 207.342 147.271C220.287 147.271 232.071 150.379 241.585 155.948C241.843 156.106 242.122 156.267 242.387 156.425V127.154L207.868 127.165Z" fill="#EAEAEA"></path>
  <path opacity="0.22" d="M208.227 126.657L205.225 146.797C205.998 146.776 206.819 146.765 207.693 146.765C220.637 146.765 232.421 149.874 241.936 155.443C242.206 155.601 242.472 155.762 242.738 155.92V126.649L208.227 126.657Z" fill="#EAEAEA"></path>
  <path opacity="0.25" d="M208.601 126.152L205.599 146.292C206.372 146.271 207.192 146.261 208.067 146.261C221.011 146.261 232.795 149.356 242.309 154.938C242.58 155.096 242.846 155.257 243.111 155.415V126.144L208.601 126.152Z" fill="#EAEAEA"></path>
  <path opacity="0.28" d="M208.967 125.647L205.965 145.786C206.739 145.766 207.559 145.755 208.433 145.755C221.38 145.755 233.161 148.848 242.676 154.433C242.946 154.591 243.212 154.751 243.478 154.91V125.639L208.967 125.647Z" fill="#EAEAEA"></path>
  <path opacity="0.31" d="M209.333 125.142L206.331 145.281C207.105 145.261 207.925 145.25 208.799 145.25C221.746 145.25 233.528 148.343 243.042 153.928C243.313 154.086 243.578 154.244 243.844 154.404V125.134L209.333 125.142Z" fill="#EAEAEA"></path>
  <path opacity="0.33" d="M209.699 124.636L206.697 144.776C207.471 144.755 208.291 144.742 209.166 144.742C222.113 144.742 233.894 147.851 243.408 153.422C243.679 153.58 243.945 153.738 244.21 153.899V124.628L209.699 124.636Z" fill="#EAEAEA"></path>
  <path opacity="0.36" d="M210.065 124.131L207.063 144.271C207.837 144.25 208.657 144.237 209.532 144.237C222.479 144.237 234.26 147.345 243.774 152.917C244.045 153.075 244.311 153.233 244.577 153.394V124.123L210.065 124.131Z" fill="#EAEAEA"></path>
  <path opacity="0.39" d="M210.432 123.631L207.43 143.771C208.203 143.75 209.024 143.737 209.898 143.737C222.845 143.737 234.626 146.832 244.141 152.415C244.411 152.573 244.677 152.733 244.943 152.894V123.631H210.432Z" fill="#EAEAEA"></path>
  <path opacity="0.42" d="M210.806 123.113L207.804 143.253C208.577 143.229 209.398 143.219 210.272 143.219C223.219 143.219 235 146.327 244.515 151.896C244.786 152.054 245.051 152.215 245.317 152.376V123.113H210.806Z" fill="#EAEAEA"></path>
  <path opacity="0.44" d="M211.164 122.613L208.162 142.753C208.936 142.732 209.756 142.722 210.63 142.722C223.577 142.722 235.359 145.817 244.873 151.4C245.144 151.558 245.409 151.718 245.675 151.876V122.605L211.164 122.613Z" fill="#EAEAEA"></path>
  <path opacity="0.47" d="M211.53 122.108L208.528 142.248C209.302 142.227 210.122 142.217 210.997 142.217C223.944 142.217 235.725 145.325 245.239 150.895C245.51 151.053 245.776 151.213 246.041 151.371V122.101L211.53 122.108Z" fill="#EAEAEA"></path>
  <path opacity="0.5" d="M211.897 121.603L208.895 141.743C209.668 141.723 210.489 141.712 211.363 141.712C224.31 141.712 236.091 144.805 245.606 150.39C245.864 150.548 246.142 150.708 246.408 150.866V121.596L211.897 121.603Z" fill="#EAEAEA"></path>
  <path opacity="0.53" d="M212.262 121.098L209.258 141.246C210.032 141.225 210.852 141.215 211.726 141.215C224.673 141.215 236.454 144.308 245.969 149.892C246.227 150.05 246.505 150.208 246.771 150.369V121.098H212.262Z" fill="#EAEAEA"></path>
  <path opacity="0.56" d="M212.629 120.593L209.627 140.728C210.401 140.707 211.221 140.694 212.095 140.694C225.042 140.694 236.824 143.802 246.338 149.374C246.596 149.532 246.874 149.69 247.14 149.851V120.58L212.629 120.593Z" fill="#EAEAEA"></path>
  <path opacity="0.58" d="M212.995 120.088L209.993 140.228C210.767 140.207 211.587 140.194 212.461 140.194C225.409 140.194 237.19 143.289 246.704 148.874C246.975 149.032 247.241 149.19 247.506 149.351V120.08L212.995 120.088Z" fill="#EAEAEA"></path>
  <path opacity="0.61" d="M213.362 119.583L210.359 139.723C211.133 139.702 211.953 139.689 212.828 139.689C225.775 139.689 237.556 142.797 247.07 148.367C247.341 148.525 247.607 148.685 247.873 148.846V119.575L213.362 119.583Z" fill="#EAEAEA"></path>
  <path opacity="0.64" d="M213.728 119.078L210.726 139.217C211.499 139.194 212.319 139.184 213.194 139.184C226.141 139.184 237.922 142.292 247.437 147.861C247.707 148.019 247.973 148.18 248.239 148.34V119.07L213.728 119.078Z" fill="#EAEAEA"></path>
  <path opacity="0.67" d="M214.094 118.57L211.092 138.709C211.866 138.689 212.686 138.678 213.56 138.678C226.507 138.678 238.289 141.774 247.803 147.356C248.074 147.514 248.339 147.675 248.605 147.833V118.562L214.094 118.57Z" fill="#EAEAEA"></path>
  <path opacity="0.69" d="M214.46 118.065L211.458 138.205C212.232 138.184 213.052 138.173 213.926 138.173C226.873 138.173 238.655 141.266 248.172 146.851L248.971 147.328V118.057L214.46 118.065Z" fill="#EAEAEA"></path>
  <path opacity="0.72" d="M214.826 117.56L211.837 137.699C212.611 137.679 213.431 137.668 214.305 137.668C227.252 137.668 239.034 140.761 248.551 146.346L249.35 146.822V117.552L214.826 117.56Z" fill="#EAEAEA"></path>
  <path opacity="0.75" d="M215.19 117.055L212.188 137.194C212.961 137.174 213.781 137.163 214.656 137.163C227.603 137.163 239.387 140.256 248.901 145.841L249.701 146.318V117.047L215.19 117.055Z" fill="#EAEAEA"></path>
  <path opacity="0.78" d="M215.559 116.549L212.557 136.689C213.33 136.668 214.15 136.655 215.025 136.655C227.972 136.655 239.756 139.764 249.27 145.336L250.07 145.812V116.542L215.559 116.549Z" fill="#EAEAEA"></path>
  <path opacity="0.81" d="M215.925 116.044L212.923 136.184C213.697 136.163 214.517 136.151 215.391 136.151C228.338 136.151 240.122 139.246 249.636 144.831L250.436 145.307V116.037L215.925 116.044Z" fill="#EAEAEA"></path>
  <path opacity="0.83" d="M216.291 115.539L213.289 135.679C214.063 135.658 214.883 135.645 215.757 135.645C228.704 135.645 240.488 138.754 250.003 144.325L250.802 144.802V115.531L216.291 115.539Z" fill="#EAEAEA"></path>
  <path opacity="0.86" d="M216.657 115.034L213.655 135.174C214.429 135.153 215.249 135.14 216.124 135.14C229.071 135.14 240.855 138.249 250.369 143.818C250.627 143.976 250.903 144.136 251.168 144.297V115.026L216.657 115.034Z" fill="#EAEAEA"></path>
  <path opacity="0.89" d="M217.023 114.529L214.021 134.666C214.795 134.645 215.615 134.635 216.49 134.635C229.437 134.635 241.221 137.73 250.735 143.313C250.993 143.471 251.269 143.631 251.534 143.792V114.521L217.023 114.529Z" fill="#EAEAEA"></path>
  <path opacity="0.92" d="M217.39 114.021L214.388 134.161C215.161 134.14 215.982 134.13 216.856 134.13C229.803 134.13 241.587 137.223 251.101 142.807L251.901 143.284V114.013L217.39 114.021Z" fill="#EAEAEA"></path>
  <path opacity="0.94" d="M217.77 113.529L214.768 133.669C215.541 133.648 216.362 133.638 217.236 133.638C230.183 133.638 241.967 136.73 251.481 142.315L252.281 142.792V113.529H217.77Z" fill="#EAEAEA"></path>
  <path opacity="0.97" d="M218.122 113.011L215.12 133.151C215.894 133.13 216.714 133.119 217.588 133.119C230.535 133.119 242.319 136.212 251.834 141.797L252.633 142.274V113.011H218.122Z" fill="#EAEAEA"></path>
  <path d="M218.488 112.506L215.486 132.646C216.26 132.625 217.08 132.615 217.955 132.615C230.902 132.615 242.74 135.614 252.2 141.292C252.471 141.448 252.734 141.608 253 141.769V112.498L218.488 112.506Z" fill="#EAEAEA"></path>
  <path d="M176.697 230.467L171.719 227.244L181.321 197.875L189.541 202.766C193.763 205.281 204.043 209.534 215.786 209.534C228.165 209.534 241.499 202.346 241.525 186.563C241.316 170.824 230.249 162.843 208.626 162.843C201.632 162.843 196.063 163.548 191.15 164.17L180.168 165.55L191.503 80.9736H253V54.2285C252.999 49.2771 251.04 44.5287 247.554 41.0277C244.068 37.5268 239.339 35.56 234.409 35.56H162.275C159.448 31.4383 156.254 27.5835 152.732 24.0434C120.815 -8.01447 69.0657 -8.01447 37.1493 24.0434C9.86759 51.4439 5.91116 93.3916 25.2673 125.02V215.181C25.2673 220.133 27.2259 224.882 30.7122 228.384C34.1984 231.886 38.9269 233.854 43.8575 233.855H183.057C180.854 232.89 178.728 231.757 176.697 230.467Z" fill="#5D7C3D"></path>
  <path d="M45.6143 188.134C44.9717 188.134 44.3952 188.011 43.8848 187.765C43.3743 187.519 42.9391 187.172 42.5791 186.726C42.2236 186.275 41.9502 185.741 41.7588 185.126C41.5719 184.511 41.4785 183.832 41.4785 183.089V182.945C41.4785 182.207 41.5719 181.53 41.7588 180.915C41.9502 180.295 42.2236 179.76 42.5791 179.309C42.9391 178.858 43.3743 178.509 43.8848 178.263C44.3952 178.017 44.9717 177.894 45.6143 177.894C46.2933 177.894 46.8903 178.017 47.4053 178.263C47.9202 178.509 48.3509 178.858 48.6973 179.309C49.0482 179.76 49.3125 180.295 49.4902 180.915C49.668 181.53 49.7568 182.207 49.7568 182.945V183.089C49.7568 183.832 49.668 184.511 49.4902 185.126C49.3125 185.741 49.0482 186.275 48.6973 186.726C48.3509 187.172 47.9202 187.519 47.4053 187.765C46.8903 188.011 46.2933 188.134 45.6143 188.134ZM45.6143 187.013C46.2751 187.013 46.8083 186.849 47.2139 186.521C47.624 186.193 47.9248 185.734 48.1162 185.147C48.3076 184.554 48.4033 183.868 48.4033 183.089V182.932C48.4033 182.157 48.3053 181.478 48.1094 180.895C47.918 180.307 47.6172 179.849 47.207 179.521C46.7969 179.188 46.266 179.022 45.6143 179.022C45.0173 179.022 44.5114 179.188 44.0967 179.521C43.682 179.853 43.3675 180.314 43.1533 180.901C42.9391 181.485 42.832 182.162 42.832 182.932V183.089C42.832 183.864 42.9391 184.547 43.1533 185.14C43.3675 185.728 43.682 186.188 44.0967 186.521C44.5114 186.849 45.0173 187.013 45.6143 187.013ZM53.1133 187.99V187.129L54.2275 186.938V181.64H52.6689L52.5664 182.795H51.418V180.594H58.418V182.795H57.2627L57.1602 181.64H55.5742V186.938L56.6885 187.129V187.99H53.1133ZM63.3057 187.99V187.129L64.8438 186.938V179.48L63.2783 179.507V178.666L66.1904 178.037V186.938L67.7217 187.129V187.99H63.3057ZM74.8242 188.134C74.1771 188.134 73.5983 187.977 73.0879 187.662C72.582 187.343 72.1833 186.881 71.8916 186.275C71.5999 185.668 71.4541 184.935 71.4541 184.073V182.734C71.4541 181.681 71.6113 180.797 71.9258 180.081C72.2448 179.361 72.6823 178.817 73.2383 178.447C73.7988 178.078 74.4414 177.894 75.166 177.894C75.5033 177.894 75.8382 177.932 76.1709 178.01C76.5081 178.087 76.7861 178.185 77.0049 178.304L76.7451 179.309C76.5309 179.204 76.2962 179.12 76.041 179.056C75.7858 178.987 75.4941 178.953 75.166 178.953C74.4688 178.953 73.9128 179.218 73.498 179.746C73.0879 180.27 72.8691 181.063 72.8418 182.125L72.8691 182.152C73.1243 181.915 73.4365 181.729 73.8057 181.592C74.1748 181.451 74.5736 181.38 75.002 181.38C75.5944 181.38 76.1094 181.521 76.5469 181.804C76.9844 182.082 77.3216 182.467 77.5586 182.959C77.8001 183.451 77.9209 184.012 77.9209 184.641C77.9209 185.329 77.7933 185.935 77.5381 186.459C77.2829 186.983 76.9229 187.393 76.458 187.69C75.9932 187.986 75.4486 188.134 74.8242 188.134ZM74.8242 187.081C75.1934 187.081 75.5078 186.974 75.7676 186.76C76.0273 186.546 76.2256 186.254 76.3623 185.885C76.5036 185.516 76.5742 185.101 76.5742 184.641C76.5742 183.984 76.4079 183.444 76.0752 183.021C75.7471 182.597 75.2913 182.385 74.708 182.385C74.4027 182.385 74.1247 182.428 73.874 182.515C73.6279 182.597 73.4137 182.715 73.2314 182.87C73.0537 183.021 72.9079 183.198 72.7939 183.403V184.203C72.7939 185.128 72.9854 185.839 73.3682 186.336C73.7555 186.833 74.2409 187.081 74.8242 187.081ZM79.1104 187.99V187.068L82.3711 183.444C82.7585 183.012 83.0615 182.642 83.2803 182.337C83.499 182.027 83.6517 181.747 83.7383 181.496C83.8249 181.246 83.8682 180.986 83.8682 180.717C83.8682 180.22 83.7178 179.803 83.417 179.466C83.1162 179.124 82.6855 178.953 82.125 178.953C81.5417 178.953 81.0859 179.129 80.7578 179.48C80.4342 179.831 80.2725 180.327 80.2725 180.97H78.9805L78.9668 180.929C78.9531 180.355 79.0739 179.84 79.3291 179.384C79.5843 178.924 79.9535 178.561 80.4365 178.297C80.9242 178.028 81.5029 177.894 82.1729 177.894C82.8018 177.894 83.3418 178.014 83.793 178.256C84.2487 178.493 84.5996 178.819 84.8457 179.234C85.0918 179.648 85.2148 180.124 85.2148 180.662C85.2148 181.027 85.1419 181.389 84.9961 181.749C84.8548 182.109 84.6452 182.478 84.3672 182.857C84.0938 183.235 83.7633 183.634 83.376 184.053L80.7578 186.903L80.7715 186.938H84.3057L84.415 185.796H85.5566V187.99H79.1104ZM89.8086 188.134C89.2025 188.134 88.6624 188.025 88.1885 187.806C87.7145 187.582 87.3431 187.268 87.0742 186.862C86.8099 186.452 86.6846 185.967 86.6982 185.406L86.7188 185.365H88.0039C88.0039 185.716 88.0768 186.019 88.2227 186.275C88.3685 186.53 88.5758 186.728 88.8447 186.869C89.1136 187.011 89.4349 187.081 89.8086 187.081C90.3783 187.081 90.8249 186.926 91.1484 186.616C91.472 186.306 91.6338 185.848 91.6338 185.242C91.6338 184.627 91.4902 184.174 91.2031 183.882C90.916 183.59 90.4626 183.444 89.8428 183.444H88.667V182.392H89.8428C90.2393 182.392 90.5583 182.326 90.7998 182.193C91.0413 182.057 91.2145 181.863 91.3193 181.612C91.4287 181.357 91.4834 181.052 91.4834 180.696C91.4834 180.127 91.3421 179.694 91.0596 179.398C90.777 179.101 90.36 178.953 89.8086 178.953C89.4577 178.953 89.1523 179.024 88.8926 179.165C88.6328 179.302 88.43 179.498 88.2842 179.753C88.1429 180.004 88.0723 180.3 88.0723 180.642H86.7803L86.7666 180.601C86.7529 180.099 86.8714 179.644 87.1221 179.234C87.3773 178.823 87.735 178.498 88.1953 178.256C88.6602 178.014 89.1979 177.894 89.8086 177.894C90.7292 177.894 91.4629 178.14 92.0098 178.632C92.5566 179.12 92.8301 179.817 92.8301 180.724C92.8301 181.134 92.7048 181.544 92.4541 181.954C92.208 182.36 91.8366 182.67 91.3398 182.884C91.9368 183.08 92.3584 183.387 92.6045 183.807C92.8551 184.226 92.9805 184.695 92.9805 185.215C92.9805 185.821 92.8438 186.343 92.5703 186.78C92.3014 187.213 91.9277 187.548 91.4492 187.785C90.9707 188.018 90.4238 188.134 89.8086 188.134ZM100.124 188.134C99.1488 188.134 98.3763 187.794 97.8066 187.115C97.237 186.436 96.9521 185.463 96.9521 184.196V181.838C96.9521 180.571 97.2347 179.598 97.7998 178.919C98.3649 178.235 99.1351 177.894 100.11 177.894C101.09 177.894 101.865 178.235 102.435 178.919C103.004 179.598 103.289 180.571 103.289 181.838V184.196C103.289 185.468 103.007 186.443 102.441 187.122C101.876 187.797 101.104 188.134 100.124 188.134ZM100.124 187.081C100.721 187.081 101.172 186.862 101.478 186.425C101.787 185.987 101.942 185.336 101.942 184.47V181.551C101.942 180.69 101.785 180.042 101.471 179.609C101.161 179.172 100.707 178.953 100.11 178.953C99.5225 178.953 99.0736 179.172 98.7637 179.609C98.4538 180.042 98.2988 180.69 98.2988 181.551V184.47C98.2988 185.331 98.4561 185.983 98.7705 186.425C99.085 186.862 99.5361 187.081 100.124 187.081ZM108.108 188.134C107.133 188.134 106.361 187.794 105.791 187.115C105.221 186.436 104.937 185.463 104.937 184.196V181.838C104.937 180.571 105.219 179.598 105.784 178.919C106.349 178.235 107.119 177.894 108.095 177.894C109.075 177.894 109.849 178.235 110.419 178.919C110.989 179.598 111.273 180.571 111.273 181.838V184.196C111.273 185.468 110.991 186.443 110.426 187.122C109.861 187.797 109.088 188.134 108.108 188.134ZM108.108 187.081C108.705 187.081 109.157 186.862 109.462 186.425C109.772 185.987 109.927 185.336 109.927 184.47V181.551C109.927 180.69 109.77 180.042 109.455 179.609C109.145 179.172 108.692 178.953 108.095 178.953C107.507 178.953 107.058 179.172 106.748 179.609C106.438 180.042 106.283 180.69 106.283 181.551V184.47C106.283 185.331 106.44 185.983 106.755 186.425C107.069 186.862 107.521 187.081 108.108 187.081ZM116.093 188.134C115.118 188.134 114.345 187.794 113.775 187.115C113.206 186.436 112.921 185.463 112.921 184.196V181.838C112.921 180.571 113.203 179.598 113.769 178.919C114.334 178.235 115.104 177.894 116.079 177.894C117.059 177.894 117.834 178.235 118.403 178.919C118.973 179.598 119.258 180.571 119.258 181.838V184.196C119.258 185.468 118.975 186.443 118.41 187.122C117.845 187.797 117.073 188.134 116.093 188.134ZM116.093 187.081C116.69 187.081 117.141 186.862 117.446 186.425C117.756 185.987 117.911 185.336 117.911 184.47V181.551C117.911 180.69 117.754 180.042 117.439 179.609C117.13 179.172 116.676 178.953 116.079 178.953C115.491 178.953 115.042 179.172 114.732 179.609C114.423 180.042 114.268 180.69 114.268 181.551V184.47C114.268 185.331 114.425 185.983 114.739 186.425C115.054 186.862 115.505 187.081 116.093 187.081ZM120.379 190.834V189.966L121.425 189.775V181.653L120.311 181.462V180.594H122.58L122.703 181.496C122.949 181.159 123.248 180.901 123.599 180.724C123.954 180.546 124.364 180.457 124.829 180.457C125.44 180.457 125.962 180.623 126.395 180.956C126.827 181.284 127.158 181.747 127.386 182.344C127.614 182.936 127.728 183.631 127.728 184.429V184.572C127.728 185.283 127.611 185.905 127.379 186.439C127.151 186.972 126.823 187.389 126.395 187.69C125.966 187.986 125.451 188.134 124.85 188.134C124.394 188.134 123.993 188.059 123.646 187.908C123.305 187.753 123.013 187.526 122.771 187.225V189.775L123.947 189.966V190.834H120.379ZM124.433 187.081C125.071 187.081 125.554 186.849 125.882 186.384C126.21 185.919 126.374 185.315 126.374 184.572V184.429C126.374 183.864 126.301 183.367 126.155 182.939C126.009 182.506 125.791 182.166 125.499 181.92C125.212 181.674 124.852 181.551 124.419 181.551C124.036 181.551 123.708 181.637 123.435 181.811C123.161 181.984 122.94 182.221 122.771 182.522V186.124C122.94 186.429 123.159 186.666 123.428 186.835C123.701 186.999 124.036 187.081 124.433 187.081ZM132.041 188.845L136.197 178.037H137.332L133.183 188.845H132.041ZM141.823 187.99V187.129L142.938 186.938V181.653L141.823 181.462V180.594H142.938H144.674L147.08 186.227H147.121L149.534 180.594H151.223H152.337V181.462L151.223 181.653V186.938L152.337 187.129V187.99H148.762V187.129L149.876 186.938V182.857L149.835 182.843L147.565 187.99H146.636L144.325 182.734L144.284 182.747V186.938L145.398 187.129V187.99H141.823ZM156.821 188.134C156.138 188.134 155.543 187.979 155.037 187.669C154.531 187.355 154.139 186.919 153.861 186.363C153.588 185.807 153.451 185.165 153.451 184.436V184.135C153.451 183.433 153.595 182.806 153.882 182.255C154.174 181.699 154.559 181.262 155.037 180.943C155.52 180.619 156.047 180.457 156.616 180.457C157.282 180.457 157.838 180.594 158.284 180.867C158.735 181.141 159.075 181.526 159.303 182.023C159.531 182.515 159.645 183.096 159.645 183.766V184.607H154.846L154.825 184.641C154.834 185.115 154.916 185.536 155.071 185.905C155.231 186.27 155.459 186.557 155.755 186.767C156.051 186.976 156.407 187.081 156.821 187.081C157.277 187.081 157.676 187.017 158.018 186.89C158.364 186.758 158.662 186.578 158.913 186.35L159.439 187.225C159.175 187.48 158.824 187.696 158.387 187.874C157.954 188.047 157.432 188.134 156.821 188.134ZM154.887 183.554H158.298V183.376C158.298 183.021 158.234 182.704 158.106 182.426C157.983 182.143 157.797 181.922 157.546 181.763C157.3 181.599 156.99 181.517 156.616 181.517C156.315 181.517 156.042 181.606 155.796 181.783C155.55 181.957 155.347 182.193 155.188 182.494C155.028 182.795 154.923 183.137 154.873 183.52L154.887 183.554ZM164.313 188.134C163.644 188.134 163.06 187.979 162.563 187.669C162.067 187.355 161.682 186.919 161.408 186.363C161.135 185.807 160.998 185.165 160.998 184.436V184.149C160.998 183.447 161.13 182.818 161.395 182.262C161.659 181.706 162.039 181.266 162.536 180.943C163.033 180.619 163.625 180.457 164.313 180.457C164.91 180.457 165.432 180.555 165.879 180.751C166.33 180.947 166.708 181.216 167.014 181.558L167.048 183.335H165.995L165.763 182.043C165.608 181.884 165.414 181.756 165.182 181.66C164.949 181.565 164.676 181.517 164.361 181.517C163.96 181.517 163.607 181.635 163.302 181.872C163.001 182.109 162.766 182.426 162.598 182.822C162.429 183.219 162.345 183.661 162.345 184.149V184.436C162.345 184.973 162.422 185.441 162.577 185.837C162.737 186.234 162.962 186.541 163.254 186.76C163.55 186.974 163.901 187.081 164.307 187.081C164.762 187.081 165.141 186.956 165.441 186.705C165.742 186.455 165.927 186.11 165.995 185.673H167.205L167.219 185.714C167.196 186.138 167.071 186.534 166.843 186.903C166.615 187.273 166.289 187.571 165.865 187.799C165.446 188.022 164.929 188.134 164.313 188.134ZM168.757 187.99V186.609H170.104V187.99H168.757ZM41.6631 207.99V207.129L42.7773 206.938V201.653L41.6631 201.462V200.594H49.8799V201.462L48.7656 201.653V206.938L49.8799 207.129V207.99H46.3047V207.129L47.4189 206.938V201.66H44.124V206.938L45.2383 207.129V207.99H41.6631ZM50.8438 210.834V209.966L51.8896 209.775V201.653L50.7754 201.462V200.594H53.0449L53.168 201.496C53.4141 201.159 53.7126 200.901 54.0635 200.724C54.4189 200.546 54.8291 200.457 55.2939 200.457C55.9046 200.457 56.4264 200.623 56.8594 200.956C57.2923 201.284 57.6227 201.747 57.8506 202.344C58.0785 202.936 58.1924 203.631 58.1924 204.429V204.572C58.1924 205.283 58.0762 205.905 57.8438 206.439C57.6159 206.972 57.2878 207.389 56.8594 207.69C56.431 207.986 55.916 208.134 55.3145 208.134C54.8587 208.134 54.4577 208.059 54.1113 207.908C53.7695 207.753 53.4779 207.526 53.2363 207.225V209.775L54.4121 209.966V210.834H50.8438ZM54.8975 207.081C55.5355 207.081 56.0186 206.849 56.3467 206.384C56.6748 205.919 56.8389 205.315 56.8389 204.572V204.429C56.8389 203.864 56.766 203.367 56.6201 202.939C56.4743 202.506 56.2555 202.166 55.9639 201.92C55.6768 201.674 55.3167 201.551 54.8838 201.551C54.501 201.551 54.1729 201.637 53.8994 201.811C53.626 201.984 53.4049 202.221 53.2363 202.522V206.124C53.4049 206.429 53.6237 206.666 53.8926 206.835C54.166 206.999 54.501 207.081 54.8975 207.081ZM59.6826 207.99V207.129L60.7969 206.938V201.653L59.6826 201.462V200.594H62.1367H63.251V201.462L62.1367 201.653V205.83L62.1777 205.844L65.4385 200.594H66.7852H67.8994V201.462L66.7852 201.653V206.938L67.8994 207.129V207.99H64.3242V207.129L65.4385 206.938V202.754L65.3975 202.74L62.1367 207.99H59.6826ZM75.6172 208.134C75.0566 208.134 74.5531 208.031 74.1064 207.826C73.6644 207.621 73.318 207.318 73.0674 206.917C72.8167 206.512 72.6982 206.01 72.7119 205.413L72.7256 205.372H73.9424C73.9424 205.91 74.0973 206.329 74.4072 206.63C74.7217 206.931 75.125 207.081 75.6172 207.081C76.1868 207.081 76.6289 206.881 76.9434 206.48C77.2578 206.079 77.415 205.529 77.415 204.832C77.415 204.19 77.2555 203.665 76.9365 203.26C76.6221 202.85 76.1846 202.645 75.624 202.645C75.0954 202.645 74.7103 202.724 74.4688 202.884C74.2318 203.043 74.0586 203.287 73.9492 203.615L72.8281 203.499L73.4023 198.037H78.6592V200.006H77.6475L77.5176 199.234H74.5439L74.2227 202.029C74.3594 201.925 74.5075 201.833 74.667 201.756C74.8265 201.674 74.9997 201.608 75.1865 201.558C75.3779 201.508 75.5853 201.48 75.8086 201.476C76.4193 201.471 76.9456 201.606 77.3877 201.879C77.8298 202.148 78.1693 202.535 78.4062 203.041C78.6432 203.542 78.7617 204.135 78.7617 204.818C78.7617 205.484 78.641 206.065 78.3994 206.562C78.1624 207.058 77.8092 207.446 77.3398 207.724C76.875 207.997 76.3008 208.134 75.6172 208.134ZM83.5947 207.99V207.129L84.709 206.938V201.653L83.5947 201.462V200.594H87.1699V201.462L86.0557 201.653V203.718H86.7666L88.3115 201.647C88.5895 201.259 88.8607 200.965 89.125 200.765C89.3939 200.564 89.6947 200.464 90.0273 200.464C90.237 200.464 90.4102 200.491 90.5469 200.546C90.6836 200.596 90.8385 200.676 91.0117 200.785L90.8203 201.701C90.6243 201.669 90.5104 201.651 90.4785 201.647C90.4512 201.642 90.3919 201.64 90.3008 201.64C90.1322 201.64 89.9658 201.701 89.8018 201.824C89.6423 201.947 89.501 202.093 89.3779 202.262L87.9492 204.114L90.2803 206.958L91.2305 207.129V207.99H89.4326L86.9307 204.853H86.0557V206.938L87.1699 207.129V207.99H83.5947ZM95.0654 208.134C94.3818 208.134 93.7917 207.974 93.2949 207.655C92.8027 207.332 92.4222 206.887 92.1533 206.322C91.8844 205.753 91.75 205.103 91.75 204.374V204.224C91.75 203.495 91.8844 202.847 92.1533 202.282C92.4222 201.713 92.8027 201.266 93.2949 200.943C93.7917 200.619 94.3773 200.457 95.0518 200.457C95.7354 200.457 96.3232 200.619 96.8154 200.943C97.3122 201.266 97.695 201.71 97.9639 202.276C98.2327 202.841 98.3672 203.49 98.3672 204.224V204.374C98.3672 205.108 98.2327 205.76 97.9639 206.329C97.695 206.894 97.3145 207.336 96.8223 207.655C96.3301 207.974 95.7445 208.134 95.0654 208.134ZM95.0654 207.081C95.4938 207.081 95.8516 206.965 96.1387 206.733C96.4303 206.496 96.6491 206.174 96.7949 205.769C96.9453 205.359 97.0205 204.894 97.0205 204.374V204.224C97.0205 203.704 96.9453 203.242 96.7949 202.836C96.6491 202.426 96.4303 202.105 96.1387 201.872C95.847 201.635 95.4847 201.517 95.0518 201.517C94.6234 201.517 94.2633 201.635 93.9717 201.872C93.68 202.105 93.4613 202.426 93.3154 202.836C93.1696 203.242 93.0967 203.704 93.0967 204.224V204.374C93.0967 204.894 93.1696 205.359 93.3154 205.769C93.4613 206.174 93.68 206.496 93.9717 206.733C94.2679 206.965 94.6325 207.081 95.0654 207.081ZM99.7412 207.99V207.129L100.855 206.938V201.653L99.7412 201.462V200.594H100.855H102.592L104.998 206.227H105.039L107.452 200.594H109.141H110.255V201.462L109.141 201.653V206.938L110.255 207.129V207.99H106.68V207.129L107.794 206.938V202.857L107.753 202.843L105.483 207.99H104.554L102.243 202.734L102.202 202.747V206.938L103.316 207.129V207.99H99.7412ZM113.762 208.134C112.992 208.134 112.406 207.947 112.005 207.573C111.604 207.195 111.403 206.664 111.403 205.981C111.403 205.511 111.531 205.103 111.786 204.757C112.046 204.406 112.42 204.135 112.907 203.943C113.395 203.748 113.978 203.65 114.657 203.65H115.977V202.925C115.977 202.478 115.84 202.132 115.566 201.886C115.298 201.64 114.917 201.517 114.425 201.517C114.115 201.517 113.846 201.555 113.618 201.633C113.39 201.706 113.183 201.808 112.996 201.941L112.853 202.973H111.813V201.277C112.146 201.009 112.534 200.806 112.976 200.669C113.418 200.528 113.908 200.457 114.445 200.457C115.343 200.457 116.047 200.671 116.558 201.1C117.068 201.528 117.323 202.141 117.323 202.939V206.5C117.323 206.596 117.323 206.689 117.323 206.78C117.328 206.872 117.335 206.963 117.344 207.054L118.062 207.129V207.99H116.127C116.086 207.79 116.054 207.61 116.031 207.45C116.008 207.291 115.993 207.131 115.983 206.972C115.724 207.304 115.398 207.582 115.006 207.806C114.618 208.025 114.204 208.134 113.762 208.134ZM113.96 207.006C114.407 207.006 114.814 206.899 115.184 206.685C115.553 206.47 115.817 206.213 115.977 205.912V204.572H114.609C113.99 204.572 113.525 204.72 113.215 205.017C112.905 205.313 112.75 205.643 112.75 206.008C112.75 206.332 112.85 206.58 113.051 206.753C113.251 206.922 113.554 207.006 113.96 207.006ZM119.265 207.99V207.129L120.379 206.938V201.653L119.265 201.462V200.594H122.84V201.462L121.726 201.653V203.793H125.014V201.653L123.899 201.462V200.594H125.014H126.367H127.481V201.462L126.367 201.653V206.938L127.481 207.129V207.99H123.899V207.129L125.014 206.938V204.846H121.726V206.938L122.84 207.129V207.99H119.265ZM128.726 210.164L128.596 206.938H129.177C129.368 206.719 129.535 206.502 129.676 206.288C129.817 206.069 129.94 205.83 130.045 205.57C130.15 205.306 130.234 204.998 130.298 204.648C130.366 204.292 130.416 203.868 130.448 203.376L130.517 201.647L129.443 201.462V200.594H135.391H136.505V201.462L135.391 201.653V206.938H136.375L136.238 210.164H135.028V207.99H129.936V210.164H128.726ZM130.729 206.938H134.044V201.79H131.856L131.795 203.376C131.745 204.196 131.626 204.896 131.439 205.475C131.257 206.054 131.02 206.541 130.729 206.938ZM140.935 208.134C140.251 208.134 139.656 207.979 139.15 207.669C138.645 207.355 138.253 206.919 137.975 206.363C137.701 205.807 137.564 205.165 137.564 204.436V204.135C137.564 203.433 137.708 202.806 137.995 202.255C138.287 201.699 138.672 201.262 139.15 200.943C139.633 200.619 140.16 200.457 140.729 200.457C141.395 200.457 141.951 200.594 142.397 200.867C142.849 201.141 143.188 201.526 143.416 202.023C143.644 202.515 143.758 203.096 143.758 203.766V204.607H138.959L138.938 204.641C138.948 205.115 139.03 205.536 139.185 205.905C139.344 206.27 139.572 206.557 139.868 206.767C140.164 206.976 140.52 207.081 140.935 207.081C141.39 207.081 141.789 207.017 142.131 206.89C142.477 206.758 142.776 206.578 143.026 206.35L143.553 207.225C143.288 207.48 142.938 207.696 142.5 207.874C142.067 208.047 141.545 208.134 140.935 208.134ZM139 203.554H142.411V203.376C142.411 203.021 142.347 202.704 142.22 202.426C142.097 202.143 141.91 201.922 141.659 201.763C141.413 201.599 141.103 201.517 140.729 201.517C140.429 201.517 140.155 201.606 139.909 201.783C139.663 201.957 139.46 202.193 139.301 202.494C139.141 202.795 139.036 203.137 138.986 203.52L139 203.554Z" fill="white"></path>
  <path d="M94.494 152.59C132.874 152.59 163.988 121.341 163.988 82.7934C163.988 44.2459 132.874 12.997 94.494 12.997C56.1135 12.997 25 44.2459 25 82.7934C25 121.341 56.1135 152.59 94.494 152.59Z" fill="url(#paint0_linear_921_641)"></path>
  <g clip-path="url(#clip0_921_641)">
    <path d="M123.786 65.4462C125.772 65.4462 127.491 64.7342 128.895 63.3293C130.3 61.9246 131.012 60.206 131.012 58.2204C131.012 56.2356 130.3 54.5167 128.895 53.1116C127.49 51.7072 125.771 50.9951 123.786 50.9951C121.801 50.9951 120.082 51.7072 118.677 53.1118C117.273 54.5165 116.561 56.2353 116.561 58.2204C116.561 60.206 117.273 61.9249 118.678 63.3295C120.083 64.7339 121.801 65.4462 123.786 65.4462Z" fill="#5D7C3D"></path>
    <path d="M136.429 74.0632C136.389 73.4786 136.307 72.8409 136.186 72.1676C136.064 71.4892 135.908 70.8478 135.72 70.2617C135.526 69.6558 135.262 69.0575 134.937 68.4842C134.598 67.8891 134.201 67.3709 133.755 66.9445C133.289 66.4984 132.718 66.1398 132.058 65.8781C131.4 65.6179 130.671 65.4861 129.891 65.4861C129.585 65.4861 129.289 65.6117 128.717 65.9841C128.365 66.2137 127.953 66.4792 127.494 66.7728C127.101 67.0232 126.568 67.2578 125.911 67.4702C125.269 67.6778 124.618 67.7831 123.975 67.7831C123.332 67.7831 122.681 67.6778 122.038 67.4702C121.382 67.2581 120.849 67.0235 120.457 66.7731C120.001 66.4822 119.589 66.2167 119.232 65.9839C118.661 65.6115 118.364 65.4858 118.058 65.4858C117.278 65.4858 116.549 65.6179 115.892 65.8784C115.232 66.1395 114.661 66.4982 114.194 66.9447C113.749 67.3714 113.351 67.8893 113.013 68.4842C112.688 69.0575 112.424 69.6556 112.23 70.2619C112.043 70.8481 111.886 71.4892 111.764 72.1676C111.643 72.84 111.561 73.4779 111.521 74.0638C111.481 74.6379 111.461 75.2337 111.461 75.8354C111.461 77.4014 111.959 78.6692 112.94 79.6041C113.91 80.5268 115.193 80.9948 116.753 80.9948H131.198C132.758 80.9948 134.04 80.527 135.01 79.6041C135.992 78.6698 136.49 77.4018 136.49 75.8351C136.49 75.2307 136.469 74.6344 136.429 74.0632Z" fill="#5D7C3D"></path>
  </g>
  <g clip-path="url(#clip1_921_641)">
    <path d="M77.7863 99.4447C79.7716 99.4447 81.4908 98.7327 82.8954 97.3278C84.3 95.9232 85.0121 94.2045 85.0121 92.219C85.0121 90.2341 84.3 88.5152 82.8952 87.1101C81.4903 85.7057 79.7714 84.9937 77.7863 84.9937C75.8008 84.9937 74.0821 85.7057 72.6775 87.1103C71.2728 88.515 70.5605 90.2339 70.5605 92.219C70.5605 94.2045 71.2728 95.9234 72.6777 97.328C74.0826 98.7325 75.8015 99.4447 77.7863 99.4447Z" fill="#5D7C3D"></path>
    <path d="M90.4293 108.062C90.3888 107.477 90.3069 106.839 90.1863 106.166C90.0645 105.488 89.9077 104.846 89.72 104.26C89.5262 103.654 89.2625 103.056 88.9366 102.483C88.5983 101.888 88.2009 101.369 87.7551 100.943C87.2889 100.497 86.718 100.138 86.0579 99.8767C85.4001 99.6164 84.6711 99.4846 83.8913 99.4846C83.5851 99.4846 83.2889 99.6103 82.717 99.9826C82.3649 100.212 81.9532 100.478 81.4936 100.771C81.1006 101.022 80.5682 101.256 79.9106 101.469C79.2691 101.676 78.6177 101.782 77.9748 101.782C77.3318 101.782 76.6807 101.676 76.0384 101.469C75.3816 101.257 74.8492 101.022 74.4566 100.772C74.0014 100.481 73.5894 100.215 73.2321 99.9824C72.6608 99.61 72.3644 99.4844 72.0582 99.4844C71.2782 99.4844 70.5494 99.6164 69.8918 99.8769C69.2322 100.138 68.6612 100.497 68.1945 100.943C67.7488 101.37 67.3513 101.888 67.0134 102.483C66.6877 103.056 66.4241 103.654 66.23 104.26C66.0425 104.847 65.8857 105.488 65.764 106.166C65.6434 106.839 65.5614 107.476 65.5209 108.062C65.4811 108.636 65.4609 109.232 65.4609 109.834C65.4609 111.4 65.9588 112.668 66.9404 113.603C67.91 114.525 69.1928 114.993 70.7529 114.993H85.198C86.7581 114.993 88.0405 114.526 89.0103 113.603C89.9922 112.668 90.49 111.4 90.49 109.834C90.4897 109.229 90.4694 108.633 90.4293 108.062Z" fill="#5D7C3D"></path>
  </g>
  <g clip-path="url(#clip2_921_641)">
    <path d="M93.7863 65.4462C95.7716 65.4462 97.4908 64.7342 98.8954 63.3293C100.3 61.9246 101.012 60.206 101.012 58.2204C101.012 56.2356 100.3 54.5167 98.8952 53.1116C97.4903 51.7072 95.7714 50.9951 93.7863 50.9951C91.8008 50.9951 90.0821 51.7072 88.6775 53.1118C87.2728 54.5165 86.5605 56.2353 86.5605 58.2204C86.5605 60.206 87.2728 61.9249 88.6777 63.3295C90.0826 64.7339 91.8015 65.4462 93.7863 65.4462Z" fill="#5D7C3D"></path>
    <path d="M106.429 74.0632C106.389 73.4786 106.307 72.8409 106.186 72.1676C106.064 71.4892 105.908 70.8478 105.72 70.2617C105.526 69.6558 105.262 69.0575 104.937 68.4842C104.598 67.8891 104.201 67.3709 103.755 66.9445C103.289 66.4984 102.718 66.1398 102.058 65.8781C101.4 65.6179 100.671 65.4861 99.8913 65.4861C99.5851 65.4861 99.2889 65.6117 98.717 65.9841C98.3649 66.2137 97.9532 66.4792 97.4936 66.7728C97.1006 67.0232 96.5682 67.2578 95.9106 67.4702C95.2691 67.6778 94.6177 67.7831 93.9748 67.7831C93.3318 67.7831 92.6807 67.6778 92.0384 67.4702C91.3816 67.2581 90.8492 67.0235 90.4566 66.7731C90.0014 66.4822 89.5894 66.2167 89.2321 65.9839C88.6608 65.6115 88.3644 65.4858 88.0582 65.4858C87.2782 65.4858 86.5494 65.6179 85.8918 65.8784C85.2322 66.1395 84.6612 66.4982 84.1945 66.9447C83.7488 67.3714 83.3513 67.8893 83.0134 68.4842C82.6877 69.0575 82.4241 69.6556 82.23 70.2619C82.0425 70.8481 81.8857 71.4892 81.764 72.1676C81.6434 72.84 81.5614 73.4779 81.5209 74.0638C81.4811 74.6379 81.4609 75.2337 81.4609 75.8354C81.4609 77.4014 81.9588 78.6692 82.9404 79.6041C83.91 80.5268 85.1928 80.9948 86.7529 80.9948H101.198C102.758 80.9948 104.04 80.527 105.01 79.6041C105.992 78.6698 106.49 77.4018 106.49 75.8351C106.49 75.2307 106.469 74.6344 106.429 74.0632Z" fill="#5D7C3D"></path>
  </g>
  <g clip-path="url(#clip3_921_641)">
    <path d="M63.7863 65.4462C65.7716 65.4462 67.4908 64.7342 68.8954 63.3293C70.3 61.9246 71.0121 60.206 71.0121 58.2204C71.0121 56.2356 70.3 54.5167 68.8952 53.1116C67.4903 51.7072 65.7714 50.9951 63.7863 50.9951C61.8008 50.9951 60.0821 51.7072 58.6775 53.1118C57.2728 54.5165 56.5605 56.2353 56.5605 58.2204C56.5605 60.206 57.2728 61.9249 58.6777 63.3295C60.0826 64.7339 61.8015 65.4462 63.7863 65.4462Z" fill="#5D7C3D"></path>
    <path d="M76.4293 74.0632C76.3888 73.4786 76.3069 72.8409 76.1863 72.1676C76.0645 71.4892 75.9077 70.8478 75.72 70.2617C75.5262 69.6558 75.2625 69.0575 74.9366 68.4842C74.5983 67.8891 74.2009 67.3709 73.7551 66.9445C73.2889 66.4984 72.718 66.1398 72.0579 65.8781C71.4001 65.6179 70.6711 65.4861 69.8913 65.4861C69.5851 65.4861 69.2889 65.6117 68.717 65.9841C68.3649 66.2137 67.9532 66.4792 67.4936 66.7728C67.1006 67.0232 66.5682 67.2578 65.9106 67.4702C65.2691 67.6778 64.6177 67.7831 63.9748 67.7831C63.3318 67.7831 62.6807 67.6778 62.0384 67.4702C61.3816 67.2581 60.8492 67.0235 60.4566 66.7731C60.0014 66.4822 59.5894 66.2167 59.2321 65.9839C58.6608 65.6115 58.3644 65.4858 58.0582 65.4858C57.2782 65.4858 56.5494 65.6179 55.8918 65.8784C55.2322 66.1395 54.6612 66.4982 54.1945 66.9447C53.7488 67.3714 53.3513 67.8893 53.0134 68.4842C52.6877 69.0575 52.4241 69.6556 52.23 70.2619C52.0425 70.8481 51.8857 71.4892 51.764 72.1676C51.6434 72.84 51.5614 73.4779 51.5209 74.0638C51.4811 74.6379 51.4609 75.2337 51.4609 75.8354C51.4609 77.4014 51.9588 78.6692 52.9404 79.6041C53.91 80.5268 55.1928 80.9948 56.7529 80.9948H71.198C72.7581 80.9948 74.0405 80.527 75.0103 79.6041C75.9922 78.6698 76.49 77.4018 76.49 75.8351C76.4897 75.2307 76.4694 74.6344 76.4293 74.0632Z" fill="#5D7C3D"></path>
  </g>
  <g clip-path="url(#clip4_921_641)">
    <path d="M107.786 99.4447C109.772 99.4447 111.491 98.7327 112.895 97.3278C114.3 95.9232 115.012 94.2045 115.012 92.219C115.012 90.2341 114.3 88.5152 112.895 87.1101C111.49 85.7057 109.771 84.9937 107.786 84.9937C105.801 84.9937 104.082 85.7057 102.677 87.1103C101.273 88.515 100.561 90.2339 100.561 92.219C100.561 94.2045 101.273 95.9234 102.678 97.328C104.083 98.7325 105.801 99.4447 107.786 99.4447Z" fill="#5D7C3D"></path>
    <path d="M120.429 108.062C120.389 107.477 120.307 106.839 120.186 106.166C120.064 105.488 119.908 104.846 119.72 104.26C119.526 103.654 119.262 103.056 118.937 102.483C118.598 101.888 118.201 101.369 117.755 100.943C117.289 100.497 116.718 100.138 116.058 99.8767C115.4 99.6164 114.671 99.4846 113.891 99.4846C113.585 99.4846 113.289 99.6103 112.717 99.9826C112.365 100.212 111.953 100.478 111.494 100.771C111.101 101.022 110.568 101.256 109.911 101.469C109.269 101.676 108.618 101.782 107.975 101.782C107.332 101.782 106.681 101.676 106.038 101.469C105.382 101.257 104.849 101.022 104.457 100.772C104.001 100.481 103.589 100.215 103.232 99.9824C102.661 99.61 102.364 99.4844 102.058 99.4844C101.278 99.4844 100.549 99.6164 99.8918 99.8769C99.2322 100.138 98.6612 100.497 98.1945 100.943C97.7488 101.37 97.3513 101.888 97.0134 102.483C96.6877 103.056 96.4241 103.654 96.23 104.26C96.0425 104.847 95.8857 105.488 95.764 106.166C95.6434 106.839 95.5614 107.476 95.5209 108.062C95.4811 108.636 95.4609 109.232 95.4609 109.834C95.4609 111.4 95.9588 112.668 96.9404 113.603C97.91 114.525 99.1928 114.993 100.753 114.993H115.198C116.758 114.993 118.04 114.526 119.01 113.603C119.992 112.668 120.49 111.4 120.49 109.834C120.49 109.229 120.469 108.633 120.429 108.062Z" fill="#5D7C3D"></path>
  </g>
  <path d="M218.488 112.506L215.486 132.646C216.26 132.625 217.08 132.615 217.955 132.615C230.902 132.615 242.74 135.614 252.2 141.292C252.471 141.448 252.734 141.608 253 141.769V112.498L218.488 112.506Z" fill="#5D7C3D"></path>
  <defs>
    <linearGradient id="paint0_linear_921_641" x1="143.652" y1="33.4526" x2="44.9461" y2="131.731" gradientUnits="userSpaceOnUse">
      <stop stop-color="#E6E6E6"></stop>
      <stop offset="0.03" stop-color="#E9E9E9"></stop>
      <stop offset="0.21" stop-color="#F6F6F6"></stop>
      <stop offset="0.45" stop-color="#FDFDFD"></stop>
      <stop offset="1" stop-color="white"></stop>
    </linearGradient>
    <clipPath id="clip0_921_641">
      <rect width="29.9999" height="29.9987" fill="white" transform="translate(109 50.9951)"></rect>
    </clipPath>
    <clipPath id="clip1_921_641">
      <rect width="29.9999" height="29.9987" fill="white" transform="translate(63 84.9937)"></rect>
    </clipPath>
    <clipPath id="clip2_921_641">
      <rect width="29.9999" height="29.9987" fill="white" transform="translate(79 50.9951)"></rect>
    </clipPath>
    <clipPath id="clip3_921_641">
      <rect width="29.9999" height="29.9987" fill="white" transform="translate(49 50.9951)"></rect>
    </clipPath>
    <clipPath id="clip4_921_641">
      <rect width="29.9999" height="29.9987" fill="white" transform="translate(93 84.9937)"></rect>
    </clipPath>
  </defs>
</svg>
