<?xml version="1.0" encoding="UTF-8"?>
<svg xmlns="http://www.w3.org/2000/svg" width="254" height="252" viewBox="0 0 254 252" fill="none">
  <path opacity="0.03" d="M221.596 53.3993H149.639C146.768 49.1848 143.514 45.247 139.918 41.6367C107.999 9.57879 56.2519 9.57879 24.3329 41.6367C-3.04427 69.12 -6.9387 111.241 12.6187 142.903V232.787C12.6187 237.739 14.5772 242.489 18.0634 245.991C21.5497 249.493 26.2782 251.46 31.2089 251.461H164.972C163.297 249.579 161.787 247.555 160.458 245.413C156.16 238.517 153.804 230.314 153.391 220.804H183.242C183.665 224.177 184.597 227.044 186.038 229.404C187.376 231.664 189.288 233.526 191.578 234.8C193.827 236.035 196.429 236.653 199.384 236.655C204.868 236.655 209.104 235.024 212.094 231.764C215.084 228.504 216.579 223.914 216.577 217.994V214.15C216.577 207.933 215.364 203.137 212.938 199.761C210.512 196.385 207.048 194.698 202.546 194.702H189.574V165.022H202.546C206.204 165.022 209.035 163.542 211.04 160.582C213.044 157.622 214.047 153.482 214.047 148.161V145.351C214.047 140.331 212.939 136.452 210.722 133.715C208.506 130.978 205.395 129.61 201.388 129.612C198.855 129.591 196.375 130.334 194.268 131.746C192.122 133.171 190.31 135.232 188.833 137.929C187.356 140.627 186.302 143.891 185.669 147.721H155.921C156.766 137.753 159.28 129.153 163.465 121.921C167.65 114.689 173.118 109.18 179.868 105.395C186.619 101.61 194.144 99.717 202.443 99.717C216.015 99.717 226.511 103.408 233.932 110.791C236.449 113.306 238.56 116.202 240.186 119.372V72.0834C240.187 69.6306 239.707 67.2016 238.773 64.9351C237.839 62.6686 236.47 60.6091 234.744 58.8741C233.018 57.1391 230.968 55.7626 228.712 54.8232C226.456 53.8839 224.038 53.4 221.596 53.3993Z" fill="#EAEAEA"></path>
  <path opacity="0.06" d="M221.965 52.8974H150.008C147.137 48.6829 143.883 44.7451 140.287 41.1347C108.371 9.07684 56.6211 9.07684 24.7047 41.1347C-2.65956 68.6181 -6.56179 110.739 12.9955 142.401V232.285C12.9955 237.238 14.9544 241.988 18.4413 245.49C21.9281 248.992 26.6572 250.959 31.5883 250.959H165.348C163.674 249.077 162.164 247.053 160.835 244.911C156.547 238.015 154.191 229.812 153.768 220.302H183.621C184.042 223.672 184.974 226.538 186.417 228.902C187.754 231.162 189.665 233.024 191.954 234.298C194.203 235.533 196.806 236.151 199.761 236.153C205.248 236.153 209.484 234.523 212.471 231.262C215.458 228.002 216.952 223.405 216.954 217.471V213.648C216.954 207.431 215.74 202.635 213.314 199.259C210.888 195.883 207.426 194.196 202.926 194.2H189.95V164.52H202.926C206.581 164.52 209.411 163.04 211.416 160.08C213.421 157.12 214.423 152.976 214.423 147.646V144.849C214.423 139.827 213.316 135.948 211.102 133.213C208.887 130.478 205.775 129.11 201.765 129.11C199.232 129.089 196.751 129.832 194.644 131.244C192.499 132.669 190.687 134.73 189.21 137.428C187.733 140.125 186.677 143.384 186.043 147.203H156.293C157.139 137.236 159.654 128.636 163.837 121.404C168.02 114.172 173.488 108.663 180.24 104.877C186.992 101.092 194.517 99.1995 202.815 99.1995C216.386 99.1995 226.882 102.891 234.303 110.273C236.821 112.788 238.932 115.684 240.557 118.855V71.5659C240.556 66.6142 238.597 61.8658 235.11 58.365C231.623 54.8641 226.895 52.8974 221.965 52.8974Z" fill="#EAEAEA"></path>
  <path opacity="0.08" d="M222.339 52.3974H150.382C147.509 48.1834 144.254 44.2457 140.658 40.6347C108.742 8.57684 56.9922 8.57684 25.0758 40.6347C-2.28847 68.1181 -6.1907 110.239 13.3667 141.901V231.785C13.3667 236.738 15.3255 241.488 18.8124 244.99C22.2992 248.492 27.0283 250.459 31.9594 250.459H165.722C164.046 248.577 162.535 246.554 161.206 244.411C156.916 237.515 154.561 229.308 154.139 219.789H183.992C184.415 223.162 185.347 226.03 186.788 228.392C188.125 230.652 190.036 232.514 192.326 233.788C194.578 235.022 197.18 235.641 200.133 235.642C205.617 235.642 209.854 234.012 212.842 230.752C215.831 227.491 217.326 222.9 217.327 216.979V213.145C217.327 206.929 216.114 202.132 213.688 198.756C211.262 195.38 207.794 193.694 203.284 193.697H190.309V164.017H203.284C206.938 164.017 209.768 162.537 211.775 159.577C213.781 156.617 214.784 152.473 214.782 147.144V144.354C214.782 139.334 213.675 135.456 211.46 132.721C209.245 129.985 206.133 128.617 202.124 128.615C199.591 128.596 197.11 129.34 195.003 130.752C192.857 132.177 191.046 134.238 189.571 136.935C188.096 139.633 187.041 142.893 186.407 146.716H156.667C157.509 136.749 160.023 128.149 164.208 120.917C168.393 113.685 173.861 108.176 180.611 104.39C187.363 100.605 194.888 98.7124 203.186 98.7124C216.757 98.7124 227.254 102.404 234.674 109.786C237.196 112.297 239.309 115.189 240.939 118.357V71.0685C240.939 68.6158 240.457 66.1872 239.522 63.9214C238.587 61.6556 237.217 59.597 235.49 57.8631C233.762 56.1293 231.712 54.7542 229.456 53.8164C227.199 52.8786 224.781 52.3964 222.339 52.3974Z" fill="#EAEAEA"></path>
  <path opacity="0.11" d="M222.71 51.8925H150.753C147.882 47.6774 144.627 43.7395 141.03 40.1298C109.113 8.07196 57.3633 8.07196 25.4469 40.1298C-1.91742 67.6132 -5.81958 109.734 13.7378 141.396V231.28C13.7385 236.232 15.6976 240.982 19.1844 244.483C22.6711 247.984 27.3998 249.951 32.3305 249.951H166.093C164.417 248.071 162.906 246.048 161.577 243.906C157.287 237.01 154.932 228.807 154.51 219.298H184.364C184.787 222.67 185.719 225.537 187.159 227.897C188.495 230.158 190.407 232.022 192.697 233.296C194.947 234.53 197.55 235.149 200.504 235.15C205.989 235.15 210.226 233.52 213.216 230.26C216.206 226.999 217.7 222.409 217.699 216.487V212.643C217.699 206.426 216.486 201.63 214.059 198.254C211.633 194.878 208.17 193.191 203.668 193.195H190.693V163.523H203.668C207.325 163.523 210.156 162.043 212.161 159.083C214.166 156.123 215.168 151.978 215.166 146.649V143.836C215.166 138.816 214.059 134.938 211.844 132.2C209.629 129.463 206.518 128.097 202.51 128.103C199.977 128.083 197.497 128.828 195.389 130.24C193.243 131.664 191.433 133.725 189.958 136.423C188.482 139.12 187.422 142.38 186.778 146.204H157.038C157.882 136.236 160.396 127.635 164.579 120.401C168.763 113.168 174.23 107.66 180.982 103.878C187.735 100.092 195.259 98.1998 203.557 98.1998C217.129 98.1998 227.625 101.891 235.046 109.273C237.564 111.788 239.674 114.684 241.3 117.855V70.5662C241.3 65.6141 239.341 60.8647 235.855 57.3628C232.369 53.8609 227.64 51.8932 222.71 51.8925Z" fill="#EAEAEA"></path>
  <path opacity="0.14" d="M223.081 51.3897H151.124C148.252 47.1749 144.998 43.2363 141.403 39.6245C109.484 7.56918 57.737 7.56918 25.818 39.6245C-1.54633 67.1104 -5.44849 109.232 14.1089 140.891V230.775C14.1095 235.727 16.0687 240.476 19.5555 243.978C23.0422 247.479 27.771 249.446 32.7017 249.446H166.464C164.788 247.566 163.277 245.543 161.948 243.4C157.658 236.505 155.303 228.302 154.882 218.792H184.735C185.158 222.165 186.09 225.031 187.53 227.392C188.867 229.653 190.779 231.516 193.07 232.788C195.319 234.026 197.921 234.645 200.875 234.645C206.361 234.645 210.599 233.015 213.587 229.755C216.575 226.494 218.07 221.903 218.07 215.982V212.14C218.07 205.923 216.857 201.126 214.43 197.748C212.004 194.371 208.541 192.685 204.039 192.692H191.059V163.004H204.034C207.691 163.004 210.522 161.524 212.527 158.565C214.532 155.605 215.533 151.46 215.532 146.131V143.339C215.532 138.319 214.424 134.44 212.21 131.703C209.995 128.966 206.883 127.598 202.874 127.6C200.34 127.58 197.86 128.325 195.753 129.737C193.607 131.161 191.796 133.223 190.321 135.92C188.846 138.617 187.791 141.878 187.156 145.701H157.409C158.252 135.733 160.765 127.133 164.95 119.899C169.135 112.665 174.606 107.157 181.361 103.375C188.113 99.5897 195.638 97.697 203.936 97.697C217.511 97.697 228.007 101.388 235.424 108.771C237.943 111.286 240.054 114.181 241.681 117.352V70.0634C241.681 67.6106 241.2 65.1819 240.265 62.9159C239.33 60.65 237.959 58.5912 236.232 56.8571C234.505 55.1231 232.454 53.7478 230.198 52.8097C227.941 51.8716 225.523 51.3891 223.081 51.3897Z" fill="#EAEAEA"></path>
  <path opacity="0.17" d="M223.452 50.8873H151.495C148.624 46.6719 145.37 42.7333 141.774 39.122C109.855 7.06674 58.1084 7.06674 26.1894 39.122C-1.17485 66.6054 -5.07449 108.729 14.4828 140.388V230.273C14.4828 235.225 16.4415 239.974 19.9278 243.475C23.4141 246.977 28.1426 248.944 33.073 248.944H166.836C165.16 247.063 163.65 245.041 162.322 242.898C158.024 236.002 155.667 227.795 155.253 218.277H185.101C185.524 221.649 186.456 224.516 187.897 226.877C189.234 229.137 191.146 230.999 193.436 232.272C195.685 233.511 198.287 234.13 201.241 234.13C206.726 234.13 210.963 232.499 213.953 229.239C216.943 225.979 218.437 221.388 218.436 215.466V211.638C218.436 205.421 217.223 200.624 214.797 197.246C212.37 193.868 208.907 192.182 204.405 192.187H191.433V162.51H204.405C208.063 162.51 210.894 161.03 212.898 158.07C214.903 155.11 215.906 150.965 215.906 145.636V142.836C215.906 137.816 214.797 133.938 212.581 131.2C210.365 128.463 207.254 127.096 203.247 127.097C200.714 127.077 198.233 127.821 196.126 129.234C193.981 130.659 192.169 132.72 190.692 135.417C189.215 138.115 188.16 141.375 187.528 145.199H157.78C158.625 135.231 161.138 126.63 165.322 119.396C169.505 112.162 174.973 106.654 181.727 102.873C188.478 99.0872 196.003 97.1946 204.302 97.1946C217.873 97.1946 228.37 100.886 235.79 108.268C238.309 110.783 240.419 113.679 242.045 116.85V69.561C242.044 64.6086 240.085 59.8593 236.598 56.3575C233.112 52.8556 228.383 50.888 223.452 50.8873Z" fill="#EAEAEA"></path>
  <path opacity="0.19" d="M223.824 50.3849H151.867C148.996 46.1695 145.742 42.2309 142.147 38.6196C110.23 6.5643 58.4805 6.5643 26.5615 38.6196C-0.80278 66.103 -4.70242 108.227 14.8549 139.886V229.77C14.8549 234.722 16.8136 239.471 20.2999 242.973C23.7862 246.474 28.5147 248.441 33.4451 248.441H167.203C165.528 246.56 164.018 244.538 162.689 242.395C158.391 235.5 156.035 227.293 155.622 217.774H185.489C185.91 221.147 186.842 224.014 188.284 226.374C189.621 228.635 191.532 230.497 193.822 231.77C196.071 233.008 198.673 233.626 201.629 233.625C207.112 233.625 211.348 231.994 214.338 228.734C217.328 225.474 218.823 220.884 218.821 214.964V211.135C218.821 204.919 217.608 200.121 215.182 196.744C212.756 193.366 209.292 191.679 204.791 191.685H191.818V162.007H204.791C208.448 162.007 211.279 160.527 213.284 157.567C215.288 154.608 216.291 150.463 216.291 145.134V142.334C216.291 137.314 215.183 133.435 212.966 130.698C210.75 127.961 207.639 126.593 203.633 126.595C201.099 126.574 198.618 127.319 196.512 128.732C194.366 130.157 192.554 132.218 191.077 134.915C189.6 137.612 188.546 140.872 187.913 144.693H158.15C158.993 134.729 161.507 126.129 165.694 118.894C169.881 111.658 175.348 106.149 182.097 102.368C188.847 98.5857 196.372 96.6939 204.672 96.6921C218.243 96.6921 228.739 100.383 236.16 107.766C238.678 110.281 240.789 113.177 242.415 116.348V69.0585C242.415 66.6064 241.934 64.1782 241 61.9126C240.066 59.647 238.697 57.5885 236.971 55.8544C235.244 54.1204 233.195 52.7448 230.939 51.8064C228.683 50.8679 226.266 50.3849 223.824 50.3849Z" fill="#EAEAEA"></path>
  <path opacity="0.22" d="M224.196 49.8819H152.238C149.366 45.6671 146.111 41.7286 142.515 38.1167C110.599 6.06137 58.849 6.06137 26.9326 38.1167C-0.43433 65.6078 -4.33392 107.724 15.2209 139.383V229.267C15.2205 231.72 15.7012 234.148 16.6355 236.414C17.5697 238.68 18.9392 240.738 20.6658 242.472C22.3923 244.206 24.4421 245.582 26.6981 246.52C28.954 247.459 31.3719 247.941 33.8136 247.941H167.574C165.899 246.06 164.389 244.037 163.06 241.895C158.77 235 156.415 226.797 155.994 217.287H185.847C186.268 220.66 187.2 223.526 188.643 225.887C189.979 228.147 191.89 230.01 194.18 231.283C196.429 232.521 199.031 233.139 201.987 233.137C207.473 233.137 211.71 231.507 214.697 228.247C217.683 224.986 219.178 220.396 219.182 214.477V210.63C219.182 204.413 217.969 199.617 215.543 196.241C213.117 192.865 209.653 191.178 205.151 191.182H192.176V161.504H205.151C208.807 161.504 211.637 160.024 213.642 157.065C215.647 154.105 216.649 149.96 216.649 144.631V141.831C216.649 136.811 215.542 132.932 213.327 130.195C211.113 127.458 208 126.09 203.991 126.092C201.458 126.071 198.977 126.816 196.87 128.229C194.724 129.654 192.914 131.715 191.438 134.412C189.963 137.109 188.908 140.369 188.274 144.191H158.524C159.37 134.225 161.884 125.625 166.068 118.391C170.251 111.157 175.719 105.648 182.471 101.865C189.223 98.0828 196.748 96.191 205.046 96.1892C218.617 96.1892 229.113 99.8804 236.534 107.263C239.052 109.777 241.163 112.672 242.788 115.842V68.5556C242.789 66.1033 242.308 63.6749 241.374 61.4091C240.439 59.1434 239.07 57.0847 237.343 55.3506C235.617 53.6165 233.567 52.241 231.311 51.3027C229.055 50.3644 226.637 49.8816 224.196 49.8819Z" fill="#EAEAEA"></path>
  <path opacity="0.25" d="M224.569 49.3794H152.612C149.74 45.1641 146.485 41.2255 142.889 37.6142C110.972 5.55887 59.2227 5.55887 27.3063 37.6142C-0.0580456 65.0975 -3.96021 107.221 15.5971 138.88V228.765C15.5971 233.717 17.556 238.467 21.0429 241.969C24.5297 245.471 29.2588 247.438 34.1899 247.438H167.95C166.273 245.557 164.762 243.534 163.434 241.39C159.144 234.496 156.789 226.294 156.367 216.782H186.22C186.643 220.155 187.575 223.021 189.016 225.382C190.352 227.642 192.264 229.504 194.553 230.777C196.804 232.016 199.407 232.634 202.36 232.632C207.845 232.632 212.083 231.002 215.073 227.742C218.063 224.481 219.557 219.891 219.555 213.971V210.127C219.555 203.911 218.342 199.114 215.916 195.738C213.49 192.362 210.026 190.676 205.525 190.679H192.55V161.002H205.525C209.18 161.002 212.012 159.522 214.018 156.562C216.025 153.602 217.026 149.458 217.023 144.128V141.328C217.023 136.308 215.915 132.43 213.701 129.693C211.486 126.955 208.374 125.588 204.364 125.589C201.831 125.569 199.35 126.313 197.244 127.726C195.098 129.149 193.287 131.21 191.812 133.907C190.337 136.604 189.282 139.865 188.647 143.688H158.897C159.742 133.724 162.255 125.124 166.439 117.888C170.622 110.653 176.09 105.144 182.842 101.362C189.594 97.5802 197.119 95.6884 205.417 95.6867C218.988 95.6867 229.484 99.3779 236.905 106.76C239.424 109.275 241.534 112.171 243.159 115.342V68.0531C243.16 65.601 242.679 63.1728 241.745 60.9072C240.811 58.6416 239.442 56.583 237.715 54.849C235.989 53.1149 233.94 51.7394 231.684 50.8009C229.428 49.8625 227.011 49.3794 224.569 49.3794Z" fill="#EAEAEA"></path>
  <path opacity="0.28" d="M224.949 48.8768H152.992C150.118 44.6613 146.859 40.7235 143.259 37.1142C111.34 5.05887 59.5899 5.05887 27.6735 37.1142C0.309181 64.5975 -3.59304 106.719 15.9643 138.38V228.265C15.9643 233.217 17.9232 237.967 21.41 241.469C24.8968 244.971 29.626 246.938 34.5571 246.938H168.32C166.644 245.057 165.133 243.033 163.804 240.89C159.514 233.996 157.158 225.794 156.737 216.282H186.59C187.013 219.655 187.945 222.521 189.386 224.882C190.723 227.142 192.634 229.004 194.923 230.277C197.176 231.512 199.778 232.13 202.73 232.132C208.217 232.132 212.454 230.502 215.443 227.242C218.431 223.981 219.925 219.391 219.925 213.471V209.63C219.925 203.413 218.712 198.617 216.286 195.241C213.86 191.865 210.396 190.178 205.895 190.182H192.919V160.499H205.895C209.552 160.499 212.383 159.018 214.388 156.057C216.393 153.095 217.394 148.955 217.392 143.636V140.826C217.392 135.806 216.285 131.927 214.071 129.19C211.856 126.453 208.744 125.085 204.734 125.087C202.201 125.067 199.721 125.81 197.613 127.221C195.467 128.646 193.657 130.707 192.182 133.404C190.706 136.102 189.652 139.362 189.017 143.185H159.27C160.112 133.22 162.626 124.62 166.811 117.386C170.996 110.152 176.464 104.643 183.214 100.86C189.966 97.0777 197.491 95.1859 205.789 95.1841C219.36 95.1841 229.856 98.8745 237.277 106.255C239.795 108.771 241.906 111.667 243.534 114.837V67.5479C243.534 62.5971 241.575 57.8493 238.09 54.3481C234.605 50.8469 229.879 48.8789 224.949 48.8768Z" fill="#EAEAEA"></path>
  <path opacity="0.31" d="M225.312 48.3746H153.355C150.485 44.1587 147.231 40.22 143.635 36.6093C111.716 4.55398 59.9684 4.55398 28.0494 36.6093C0.685037 64.0927 -3.21461 106.214 16.3402 137.876V227.763C16.3409 232.715 18.3 237.464 21.7866 240.966C25.2733 244.468 30.0021 246.435 34.933 246.436H168.696C167.02 244.554 165.51 242.531 164.182 240.388C159.884 233.496 157.527 225.293 157.113 215.78H186.966C187.389 219.152 188.321 222.019 189.762 224.38C191.099 226.63 193.006 228.484 195.289 229.752C197.538 230.988 200.139 231.607 203.093 231.607C208.578 231.607 212.816 229.976 215.806 226.716C218.796 223.456 220.296 218.866 220.306 212.946V209.112C220.306 202.895 219.093 198.099 216.667 194.723C214.241 191.347 210.774 189.667 206.266 189.685H193.29V159.997H206.266C209.923 159.997 212.754 158.516 214.759 155.555C216.763 152.593 217.765 148.448 217.763 143.121V140.323C217.763 135.303 216.656 131.425 214.441 128.688C212.227 125.951 209.115 124.583 205.105 124.585C202.572 124.564 200.092 125.308 197.984 126.719C195.84 128.144 194.029 130.205 192.552 132.902C191.075 135.6 190.021 138.86 189.388 142.683H159.64C160.485 132.716 162.998 124.116 167.182 116.884C171.365 109.651 176.833 104.143 183.585 100.357C190.337 96.5754 197.862 94.6836 206.16 94.6818C219.734 94.6818 230.231 98.3722 237.648 105.753C240.166 108.268 242.278 111.164 243.905 114.335V67.0456C243.904 62.0935 241.945 57.3445 238.458 53.843C234.972 50.3416 230.243 48.3746 225.312 48.3746Z" fill="#EAEAEA"></path>
  <path opacity="0.33" d="M225.684 47.8722H153.727C150.856 43.6563 147.602 39.7176 144.006 36.1069C112.087 4.04901 60.3398 4.04901 28.4209 36.1069C1.05656 63.5903 -2.84302 105.712 16.7143 137.373V227.245C16.7143 232.197 18.6728 236.946 22.1591 240.448C25.6454 243.95 30.3738 245.917 35.3045 245.918H169.067C167.392 244.036 165.882 242.013 164.554 239.87C160.255 232.978 157.899 224.775 157.484 215.262H187.337C187.76 218.634 188.692 221.501 190.133 223.862C191.472 226.121 193.384 227.983 195.673 229.257C197.922 230.492 200.524 231.11 203.478 231.112C208.964 231.112 213.202 229.482 216.19 226.221C219.178 222.961 220.672 218.371 220.672 212.451V208.62C220.672 202.403 219.459 197.607 217.033 194.231C214.607 190.855 211.142 189.167 206.637 189.167H193.664V159.495H206.637C210.294 159.495 213.125 158.014 215.13 155.052C217.135 152.09 218.137 147.95 218.137 142.631V139.821C218.137 134.801 217.029 130.922 214.813 128.185C212.596 125.448 209.485 124.08 205.479 124.082C202.945 124.062 200.464 124.808 198.358 126.222C196.212 127.646 194.401 129.707 192.924 132.405C191.447 135.102 190.392 138.363 189.759 142.186H160.012C160.856 132.218 163.37 123.618 167.553 116.386C171.736 109.154 177.205 103.645 183.959 99.86C190.708 96.0764 198.233 94.1837 206.534 94.182C220.105 94.182 230.601 97.8732 238.022 105.256C240.54 107.771 242.65 110.667 244.276 113.837V66.5432C244.276 61.5911 242.317 56.8421 238.83 53.3406C235.343 49.8392 230.614 47.8722 225.684 47.8722Z" fill="#EAEAEA"></path>
  <path opacity="0.36" d="M226.056 47.3692H154.099C151.229 43.1534 147.974 39.2147 144.378 35.604C112.462 3.54608 60.7118 3.54608 28.7953 35.604C1.42844 63.0873 -2.47115 105.209 17.0862 136.87V226.755C17.0862 231.707 19.0447 236.456 22.531 239.958C26.0173 243.46 30.7457 245.427 35.6764 245.428H169.439C167.765 243.546 166.255 241.522 164.926 239.38C160.627 232.488 158.272 224.285 157.859 214.772H187.707C188.128 218.144 189.06 221.011 190.503 223.372C191.84 225.631 193.751 227.493 196.04 228.767C198.291 229.997 200.893 230.612 203.847 230.612C209.33 230.612 213.567 228.981 216.557 225.721C219.547 222.461 221.041 217.871 221.039 211.951V208.117C221.039 201.9 219.826 197.104 217.4 193.728C214.974 190.352 211.511 188.666 207.012 188.669H194.036V158.992H207.012C210.667 158.992 213.497 157.511 215.502 154.549C217.507 151.588 218.509 147.443 218.509 142.116V139.318C218.509 134.298 217.402 130.419 215.187 127.682C212.973 124.945 209.865 123.577 205.864 123.579C203.331 123.558 200.85 124.301 198.743 125.714C196.597 127.138 194.786 129.199 193.309 131.897C191.832 134.594 190.773 137.855 190.131 141.678H160.384C161.226 131.71 163.741 123.11 167.928 115.878C172.115 108.646 177.582 103.137 184.331 99.3519C191.08 95.5683 198.605 93.6756 206.906 93.6739C220.477 93.6739 230.973 97.3651 238.394 104.748C240.912 107.263 243.022 110.159 244.648 113.329V66.0403C244.648 63.5882 244.168 61.16 243.233 58.8946C242.299 56.6291 240.929 54.5707 239.203 52.8369C237.476 51.1031 235.426 49.7279 233.171 48.7897C230.915 47.8516 228.497 47.3689 226.056 47.3692Z" fill="#EAEAEA"></path>
  <path opacity="0.39" d="M226.428 46.8642H154.471C151.599 42.6502 148.344 38.7125 144.748 35.1015C112.832 3.04363 61.082 3.04363 29.1656 35.1015C1.80133 62.5849 -2.10082 104.706 17.4565 136.368V226.252C17.4565 231.205 19.4154 235.954 22.9022 239.456C26.389 242.958 31.1182 244.926 36.0493 244.926H169.809C168.135 243.043 166.625 241.02 165.296 238.877C161.006 231.982 158.65 223.779 158.229 214.269H188.067C188.488 217.642 189.42 220.508 190.862 222.869C192.199 225.129 194.11 226.991 196.4 228.265C198.649 229.5 201.251 230.118 204.207 230.119C209.692 230.119 213.928 228.489 216.917 225.229C219.905 221.969 221.403 217.373 221.412 211.443V207.615C221.412 201.398 220.199 196.602 217.773 193.225C215.347 189.849 211.883 188.163 207.382 188.167H194.406V158.487H207.382C211.037 158.487 213.867 157.007 215.872 154.047C217.877 151.087 218.879 146.947 218.879 141.626V138.816C218.879 133.794 217.772 129.915 215.557 127.18C213.343 124.444 210.231 123.077 206.221 123.077C203.688 123.055 201.207 123.799 199.1 125.211C196.954 126.636 195.144 128.697 193.668 131.394C192.193 134.092 191.138 137.352 190.504 141.175H160.754C161.6 131.208 164.115 122.608 168.298 115.376C172.481 108.144 177.949 102.635 184.701 98.8495C191.453 95.0659 198.978 93.1732 207.276 93.1715C220.847 93.1715 231.343 96.8627 238.764 104.245C241.282 106.76 243.393 109.656 245.018 112.827V65.5379C245.018 60.5858 243.06 55.8364 239.574 52.3345C236.087 48.8326 231.359 46.8649 226.428 46.8642Z" fill="#EAEAEA"></path>
  <path opacity="0.42" d="M226.8 46.3618H154.843C151.972 42.1472 148.717 38.2095 145.12 34.5991C113.204 2.54125 61.4541 2.54125 29.5377 34.5991C2.17344 62.0825 -1.72878 104.204 17.8286 135.865V225.75C17.8292 230.702 19.7884 235.451 23.275 238.953C26.7617 242.455 31.4904 244.423 36.4213 244.423H170.184C168.508 242.542 166.997 240.518 165.668 238.375C161.378 231.48 159.022 223.277 158.601 213.767H188.454C188.877 217.139 189.809 220.007 191.25 222.369C192.587 224.629 194.498 226.491 196.787 227.765C199.04 229.001 201.642 229.62 204.594 229.62C210.081 229.62 214.318 227.989 217.307 224.729C220.295 221.469 221.788 216.867 221.784 210.925V207.112C221.784 200.896 220.571 196.099 218.145 192.723C215.719 189.347 212.255 187.661 207.754 187.664H194.773V157.984H207.749C211.404 157.984 214.235 156.504 216.242 153.544C218.248 150.584 219.25 146.44 219.246 141.111V138.311C219.246 133.291 218.139 129.413 215.924 126.677C213.71 123.942 210.598 122.574 206.588 122.572C204.055 122.552 201.574 123.297 199.467 124.709C197.321 126.134 195.511 128.195 194.035 130.892C192.56 133.589 191.505 136.85 190.871 140.673H161.129C161.971 130.705 164.485 122.106 168.67 114.873C172.855 107.641 178.323 102.132 185.073 98.3471C191.825 94.5618 199.35 92.6691 207.648 92.6691C221.219 92.6691 231.715 96.3603 239.136 103.743C241.655 106.258 243.765 109.153 245.391 112.324V65.0355C245.391 60.0834 243.432 55.334 239.946 51.8321C236.46 48.3302 231.731 46.3625 226.8 46.3618Z" fill="#EAEAEA"></path>
  <path opacity="0.44" d="M227.171 45.8594H155.214C152.344 41.6448 149.089 37.7071 145.494 34.0967C113.575 2.03881 61.8277 2.03881 29.9088 34.0967C2.5445 61.5801 -1.35766 103.701 18.1997 135.363V225.247C18.2004 230.199 20.1595 234.948 23.6463 238.45C27.133 241.951 31.8617 243.918 36.7924 243.918H170.555C168.878 242.038 167.367 240.015 166.039 237.873C161.749 230.977 159.393 222.774 158.972 213.264H188.825C189.248 216.637 190.18 219.504 191.621 221.864C192.959 224.117 194.868 225.974 197.153 227.244C199.404 228.479 202.006 229.097 204.96 229.099C210.445 229.099 214.683 227.469 217.673 224.209C220.663 220.948 222.157 216.357 222.155 210.436V206.61C222.155 200.393 220.942 195.597 218.516 192.221C216.09 188.845 212.626 187.158 208.125 187.162H195.149V157.482H208.125C211.782 157.482 214.613 156.002 216.618 153.042C218.623 150.082 219.624 145.938 219.622 140.608V137.808C219.622 132.788 218.515 128.91 216.3 126.172C214.086 123.435 210.974 122.07 206.964 122.077C204.431 122.058 201.95 122.802 199.843 124.214C197.697 125.639 195.887 127.7 194.412 130.397C192.936 133.095 191.882 136.355 191.247 140.178H161.502C162.347 130.211 164.86 121.61 169.044 114.376C173.227 107.142 178.695 101.634 185.447 97.8524C192.199 94.0671 199.724 92.1744 208.022 92.1744C221.593 92.1744 232.089 95.8656 239.51 103.248C242.028 105.764 244.139 108.659 245.767 111.83V64.533C245.766 59.5802 243.807 54.8305 240.319 51.3286C236.832 47.8267 232.103 45.8594 227.171 45.8594Z" fill="#EAEAEA"></path>
  <path opacity="0.47" d="M227.543 45.3566H155.57C152.699 41.1417 149.445 37.2032 145.85 33.5913C113.931 1.53604 62.1834 1.53604 30.2644 33.5913C2.91046 61.0773 -0.981377 103.199 18.5682 134.858V224.742C18.5682 229.694 20.5269 234.443 24.0132 237.944C27.4995 241.446 32.2279 243.413 37.1584 243.413H170.921C169.245 241.533 167.735 239.51 166.408 237.367C162.109 230.472 159.753 222.269 159.338 212.759H189.191C189.614 216.132 190.546 218.998 191.987 221.359C193.328 223.609 195.24 225.461 197.527 226.726C199.776 227.964 202.377 228.583 205.331 228.583C210.818 228.583 215.055 226.953 218.044 223.693C221.032 220.433 222.526 215.842 222.526 209.92V206.107C222.526 199.89 221.313 195.093 218.887 191.715C216.461 188.338 212.997 186.652 208.496 186.659H195.52V156.979H208.496C212.153 156.979 214.984 155.499 216.989 152.539C218.994 149.579 219.995 145.435 219.994 140.106V137.305C219.994 132.285 218.886 128.407 216.672 125.67C214.457 122.933 211.346 121.562 207.338 121.559C204.804 121.539 202.323 122.284 200.214 123.696C198.072 125.121 196.262 127.182 194.783 129.879C193.304 132.576 192.249 135.837 191.618 139.66H161.871C162.715 129.692 165.229 121.092 169.412 113.858C173.596 106.624 179.063 101.116 185.815 97.3341C192.567 93.5488 200.092 91.6561 208.39 91.6561C221.963 91.6561 232.459 95.3473 239.878 102.73C242.397 105.245 244.509 108.14 246.135 111.312V64.0303C246.135 59.0779 244.176 54.3286 240.689 50.8268C237.202 47.3249 232.474 45.3573 227.543 45.3566Z" fill="#EAEAEA"></path>
  <path opacity="0.5" d="M227.915 44.8541H155.958C153.087 40.6387 149.833 36.7001 146.237 33.0888C114.318 1.03354 62.5713 1.03354 30.6523 33.0888C3.288 60.5722 -0.611572 102.696 18.9458 134.355V224.239C18.9458 229.191 20.9044 233.94 24.3907 237.442C27.8771 240.943 32.6055 242.911 37.536 242.911H171.304C169.628 241.03 168.118 239.007 166.79 236.865C162.492 229.969 160.136 221.762 159.724 212.244H189.564C189.987 215.616 190.919 218.483 192.359 220.844C193.697 223.104 195.609 224.966 197.899 226.239C200.148 227.477 202.751 228.096 205.706 228.096C211.189 228.096 215.426 226.466 218.416 223.206C221.406 219.946 222.9 215.355 222.899 209.433V205.605C222.899 199.388 221.686 194.591 219.26 191.213C216.833 187.835 213.37 186.15 208.868 186.156H195.895V156.476H208.868C212.525 156.476 215.356 154.997 217.361 152.037C219.366 149.077 220.369 144.932 220.369 139.603V136.803C220.369 131.783 219.26 127.904 217.044 125.167C214.828 122.43 211.716 121.062 207.71 121.064C205.177 121.044 202.696 121.788 200.589 123.201C198.444 124.626 196.632 126.687 195.155 129.384C193.678 132.082 192.623 135.345 191.991 139.173H162.243C163.086 129.206 165.6 120.605 169.785 113.371C173.97 106.137 179.438 100.629 186.19 96.8472C192.941 93.0618 200.466 91.1692 208.765 91.1692C222.336 91.1692 232.833 94.8604 240.253 102.243C242.772 104.758 244.882 107.654 246.508 110.825V63.5355C246.508 61.0827 246.028 58.6538 245.094 56.3875C244.16 54.1211 242.791 52.0618 241.064 50.327C239.337 48.5922 237.288 47.216 235.032 46.277C232.775 45.3379 230.357 44.8544 227.915 44.8541Z" fill="#EAEAEA"></path>
  <path opacity="0.53" d="M228.286 44.3517H156.329C153.458 40.1363 150.204 36.1976 146.609 32.5864C114.692 0.531097 62.9424 0.531097 31.026 32.5864C3.66172 60.0698 -0.240503 102.194 19.3168 133.853V223.737C19.3168 226.189 19.7978 228.617 20.7322 230.883C21.6666 233.148 23.0362 235.207 24.7627 236.94C26.4892 238.674 28.5389 240.049 30.7947 240.988C33.0504 241.926 35.4681 242.408 37.9096 242.408H171.665C169.99 240.527 168.479 238.504 167.151 236.362C162.853 229.467 160.497 221.264 160.084 211.754H189.938C190.359 215.127 191.291 217.993 192.733 220.354C194.07 222.614 195.981 224.477 198.271 225.75C200.52 226.988 203.122 227.606 206.078 227.604C211.561 227.604 215.797 225.974 218.787 222.714C221.777 219.453 223.272 214.863 223.27 208.944V205.102C223.27 198.885 222.057 194.088 219.631 190.71C217.205 187.333 213.742 185.646 209.242 185.651H196.267V155.974H209.242C212.898 155.974 215.728 154.494 217.733 151.534C219.737 148.574 220.74 144.43 220.74 139.101V136.3C220.74 131.28 219.632 127.402 217.418 124.665C215.203 121.928 212.091 120.56 208.082 120.562C205.549 120.542 203.069 121.286 200.963 122.699C198.817 124.123 197.006 126.184 195.529 128.882C194.052 131.579 192.997 134.837 192.364 138.655H162.615C163.46 128.688 165.975 120.087 170.158 112.853C174.342 105.619 179.809 100.111 186.561 96.3292C193.314 92.5438 200.839 90.6512 209.136 90.6512C222.708 90.6512 233.204 94.3424 240.625 101.725C243.141 104.242 245.249 107.141 246.871 110.314V63.0176C246.87 58.0675 244.911 53.3205 241.426 49.8203C237.941 46.32 233.215 44.353 228.286 44.3517Z" fill="#EAEAEA"></path>
  <path opacity="0.56" d="M228.66 43.8492H156.703C153.83 39.6344 150.575 35.6958 146.98 32.084C115.063 0.0286551 63.3135 0.0286551 31.3971 32.084C4.03282 59.5673 0.130592 101.691 19.6879 133.35V223.235C19.6876 225.687 20.1683 228.115 21.1025 230.381C22.0368 232.647 23.4063 234.706 25.1329 236.44C26.8595 238.174 28.9093 239.549 31.1652 240.487C33.4211 241.426 35.839 241.909 38.2807 241.908H172.043C170.367 240.028 168.856 238.005 167.527 235.862C163.238 228.967 160.882 220.76 160.461 211.241H190.314C190.737 214.614 191.669 217.481 193.11 219.841C194.446 222.097 196.355 223.956 198.642 225.227C200.891 226.465 203.493 227.083 206.449 227.081C211.935 227.081 216.172 225.451 219.158 222.191C222.145 218.93 223.64 214.34 223.644 208.42V204.6C223.644 198.383 222.431 193.586 220.004 190.208C217.578 186.83 214.115 185.144 209.613 185.149H196.638V155.472H209.613C213.269 155.472 216.099 153.992 218.104 151.032C220.108 148.072 221.111 143.927 221.111 138.598V135.806C221.111 130.786 220.004 126.907 217.789 124.17C215.574 121.433 212.459 120.063 208.442 120.059C205.909 120.039 203.428 120.783 201.321 122.196C199.176 123.621 197.365 125.682 195.89 128.379C194.415 131.077 193.36 134.336 192.725 138.158H162.988C163.831 128.192 166.344 119.592 170.529 112.358C174.714 105.124 180.182 99.6155 186.933 95.8319C193.685 92.05 201.21 90.1582 209.507 90.1565C223.079 90.1565 233.575 93.8477 240.996 101.23C243.515 103.745 245.625 106.64 247.25 109.812V62.5229C247.25 60.0708 246.77 57.6426 245.836 55.377C244.902 53.1114 243.532 51.0528 241.806 49.3188C240.08 47.5847 238.03 46.2092 235.775 45.2707C233.519 44.3323 231.101 43.8492 228.66 43.8492Z" fill="#EAEAEA"></path>
  <path opacity="0.58" d="M229.031 43.3463H157.074C154.203 39.1302 150.948 35.1915 147.351 31.581C115.434 -0.474275 63.6846 -0.474275 31.7682 31.581C4.40387 59.0644 0.501707 101.188 20.0591 132.847V222.732C20.0591 227.684 22.0179 232.434 25.5047 235.936C28.9915 239.438 33.7207 241.405 38.6518 241.405H172.415C170.737 239.525 169.226 237.501 167.899 235.357C163.609 228.465 161.253 220.262 160.832 210.749H190.685C191.108 214.121 192.04 216.988 193.481 219.349C194.817 221.609 196.728 223.471 199.018 224.744C201.269 225.982 203.871 226.601 206.825 226.599C212.31 226.599 216.547 224.969 219.537 221.708C222.527 218.448 224.022 213.858 224.02 207.938V204.094C224.02 197.877 222.807 193.081 220.381 189.705C217.955 186.329 214.491 184.643 209.99 184.646H197.014V154.974H209.99C213.647 154.974 216.478 153.494 218.482 150.534C220.487 147.574 221.489 143.43 221.487 138.1V135.287C221.487 130.267 220.38 126.389 218.165 123.652C215.951 120.915 212.839 119.547 208.829 119.549C206.296 119.528 203.815 120.272 201.708 121.686C199.562 123.109 197.752 125.169 196.276 127.866C194.801 130.563 193.746 133.824 193.112 137.647H163.359C164.202 127.681 166.716 119.081 170.901 111.847C175.086 104.614 180.553 99.1048 187.304 95.3212C194.056 91.5393 201.581 89.6475 209.879 89.6458C223.45 89.6458 233.946 93.337 241.367 100.719C243.885 103.233 245.996 106.128 247.621 109.299V62.02C247.622 59.5678 247.141 57.1396 246.207 54.8741C245.273 52.6085 243.903 50.5499 242.177 48.8158C240.451 47.0818 238.401 45.7063 236.146 44.7678C233.89 43.8293 231.473 43.3463 229.031 43.3463Z" fill="#EAEAEA"></path>
  <path opacity="0.61" d="M229.402 42.8439H157.445C154.575 38.628 151.321 34.6893 147.725 31.0786C115.801 -0.963713 64.0534 -0.963713 32.1344 31.0786C4.77008 58.562 0.867919 100.683 20.4253 132.345V222.229C20.4253 227.182 22.3842 231.932 25.871 235.434C29.3578 238.936 34.087 240.903 39.0181 240.903H172.781C171.105 239.021 169.594 236.998 168.265 234.855C163.977 227.961 161.621 219.758 161.198 210.246H191.051C191.474 213.619 192.406 216.486 193.847 218.846C195.184 221.107 197.096 222.969 199.387 224.242C201.636 225.48 204.237 226.098 207.191 226.097C212.678 226.097 216.915 224.466 219.904 221.206C222.892 217.946 224.386 213.356 224.386 207.436V203.592C224.386 197.375 223.173 192.579 220.747 189.203C218.321 185.827 214.857 184.14 210.356 184.144H197.38V154.456H210.356C214.013 154.456 216.844 152.975 218.849 150.014C220.854 147.052 221.855 142.915 221.853 137.603V134.793C221.853 129.773 220.746 125.894 218.531 123.157C216.317 120.42 213.205 119.052 209.195 119.054C206.662 119.034 204.182 119.777 202.074 121.188C199.928 122.613 198.118 124.674 196.643 127.371C195.167 130.069 194.114 133.329 193.483 137.153H163.731C164.575 127.187 167.089 118.587 171.272 111.353C175.455 104.119 180.923 98.6102 187.675 94.8266C194.427 91.0447 201.952 89.1529 210.25 89.1512C223.823 89.1512 234.319 92.8415 241.738 100.222C244.256 102.738 246.367 105.634 247.995 108.804V61.515C247.994 56.5629 246.035 51.8138 242.549 48.3124C239.062 44.8109 234.333 42.8439 229.402 42.8439Z" fill="#EAEAEA"></path>
  <path opacity="0.64" d="M229.774 42.3414H157.817C154.945 38.1253 151.689 34.1866 148.091 30.5761C116.172 -1.48176 64.4248 -1.48176 32.5058 30.5761C5.14156 58.0595 1.24192 100.181 20.7993 131.842V221.727C20.7993 226.679 22.7578 231.428 26.244 234.93C29.7303 238.432 34.4588 240.4 39.3895 240.4H173.152C171.477 238.519 169.967 236.495 168.639 234.352C164.34 227.458 161.984 219.256 161.569 209.744H191.42C191.843 213.117 192.775 215.983 194.216 218.344C195.554 220.604 197.465 222.466 199.756 223.739C202.005 224.974 204.606 225.592 207.56 225.594C213.045 225.594 217.282 223.964 220.272 220.704C223.262 217.443 224.757 212.853 224.755 206.933V203.089C224.755 196.873 223.542 192.076 221.116 188.7C218.69 185.324 215.226 183.638 210.725 183.641H197.752V153.964H210.725C214.382 153.964 217.213 152.483 219.217 149.521C221.222 146.56 222.225 142.415 222.225 137.088V134.29C222.225 129.27 221.117 125.392 218.9 122.654C216.684 119.917 213.573 118.55 209.566 118.551C207.033 118.531 204.551 119.274 202.443 120.686C200.299 122.111 198.488 124.172 197.011 126.869C195.534 129.566 194.48 132.827 193.847 136.65H164.102C164.945 126.682 167.458 118.083 171.643 110.85C175.828 103.618 181.297 98.1094 188.049 94.3241C194.799 90.5422 202.324 88.6504 210.624 88.6487C224.195 88.6487 234.69 92.339 242.11 99.7197C244.629 102.235 246.74 105.13 248.367 108.301V61.0125C248.366 56.0604 246.407 51.3113 242.92 47.8099C239.433 44.3084 234.704 42.3414 229.774 42.3414Z" fill="#EAEAEA"></path>
  <path opacity="0.67" d="M230.146 41.839H158.189C155.318 37.6231 152.064 33.6844 148.468 30.0737C116.551 -1.9842 64.8018 -1.9842 32.8828 30.0737C5.51851 57.5571 1.61887 99.6784 21.1762 131.34V221.224C21.1762 226.176 23.1348 230.926 26.621 234.428C30.1073 237.93 34.8358 239.897 39.7664 239.898H173.529C171.855 238.016 170.345 235.992 169.016 233.85C164.717 226.958 162.362 218.755 161.949 209.241H191.802C192.223 212.614 193.155 215.481 194.598 217.841C195.935 220.101 197.846 221.963 200.135 223.237C202.384 224.472 204.986 225.09 207.942 225.092C213.425 225.092 217.662 223.462 220.652 220.201C223.642 216.941 225.136 212.351 225.134 206.431V202.587C225.134 196.37 223.921 191.574 221.495 188.198C219.069 184.822 215.605 183.135 211.104 183.139H198.126V153.461H211.099C214.756 153.461 217.587 151.981 219.592 149.019C221.597 146.057 222.599 141.913 222.599 136.585V133.788C222.599 128.768 221.491 124.889 219.275 122.152C217.058 119.415 213.947 118.047 209.941 118.049C207.408 118.028 204.927 118.771 202.82 120.183C200.674 121.608 198.863 123.669 197.386 126.367C195.909 129.064 194.854 132.324 194.221 136.148H164.474C165.318 126.18 167.833 117.58 172.018 110.348C176.203 103.116 181.67 97.607 188.421 93.8217C195.171 90.0363 202.696 88.1437 210.996 88.1437C224.567 88.1437 235.063 91.8349 242.484 99.2173C245.002 101.733 247.112 104.628 248.738 107.799V60.51C248.738 58.0579 248.257 55.6298 247.323 53.3643C246.389 51.0989 245.019 49.0405 243.292 47.3067C241.566 45.5729 239.516 44.1976 237.261 43.2595C235.005 42.3213 232.587 41.8386 230.146 41.839Z" fill="#EAEAEA"></path>
  <path opacity="0.69" d="M230.517 41.337H158.56C155.69 37.1211 152.435 33.1824 148.839 29.5717C116.923 -2.48615 65.1729 -2.48615 33.2565 29.5717C5.89215 57.0551 1.98999 99.1764 21.5473 130.838V220.722C21.5473 225.675 23.5062 230.425 26.993 233.927C30.4798 237.429 35.209 239.396 40.1401 239.396H173.9C172.226 237.514 170.716 235.49 169.387 233.348C165.097 226.456 162.741 218.253 162.32 208.739H192.168C192.589 212.112 193.521 214.979 194.964 217.339C196.301 219.599 198.212 221.461 200.501 222.735C202.75 223.97 205.352 224.588 208.308 224.59C213.795 224.59 218.031 222.959 221.018 219.699C224.004 216.439 225.499 211.849 225.5 205.929V202.085C225.5 195.868 224.288 191.072 221.864 187.696C219.439 184.32 215.976 182.633 211.473 182.637H198.497V152.959H211.473C215.128 152.959 217.958 151.479 219.963 148.517C221.968 145.555 222.97 141.411 222.97 136.083V133.286C222.97 128.266 221.863 124.387 219.648 121.65C217.434 118.913 214.322 117.545 210.312 117.547C207.779 117.526 205.298 118.269 203.191 119.681C201.045 121.106 199.234 123.167 197.757 125.865C196.28 128.562 195.226 131.822 194.595 135.646H164.855C165.701 125.678 168.216 117.078 172.399 109.846C176.582 102.614 182.05 97.105 188.802 93.3197C195.554 89.5343 203.079 87.6417 211.377 87.6417C224.948 87.6417 235.444 91.3329 242.865 98.7153C245.384 101.23 247.494 104.126 249.12 107.297V60.0081C249.12 57.5551 248.639 55.1261 247.703 52.86C246.768 50.5938 245.398 48.535 243.67 46.801C241.943 45.0671 239.892 43.6921 237.635 42.7545C235.378 41.817 232.959 41.3353 230.517 41.337Z" fill="#EAEAEA"></path>
  <path opacity="0.72" d="M230.881 40.8315H158.924C156.051 36.6175 152.796 32.6798 149.2 29.0688C117.284 -2.98908 65.5342 -2.98908 33.6178 29.0688C6.25348 56.5522 2.35132 98.6735 21.9087 130.335V220.219C21.9093 225.172 23.8685 229.921 27.3551 233.423C30.8418 236.925 35.5706 238.892 40.5014 238.893H174.269C172.594 237.008 171.083 234.981 169.756 232.834C165.468 225.939 163.112 217.736 162.689 208.226H192.542C192.965 211.599 193.897 214.465 195.338 216.826C196.675 219.086 198.586 220.948 200.875 222.222C203.126 223.456 205.728 224.075 208.682 224.076C214.167 224.076 218.405 222.446 221.395 219.186C224.385 215.925 225.879 211.335 225.877 205.416V201.582C225.877 195.365 224.664 190.569 222.238 187.193C219.812 183.817 216.348 182.13 211.847 182.134H198.871V152.454H211.847C215.502 152.454 218.332 150.974 220.337 148.014C222.342 145.054 223.344 140.91 223.344 135.58V132.783C223.344 127.761 222.237 123.883 220.023 121.147C217.808 118.412 214.696 117.044 210.686 117.044C208.153 117.024 205.673 117.767 203.565 119.178C201.419 120.603 199.609 122.664 198.134 125.362C196.658 128.059 195.604 131.319 194.969 135.143H165.219C166.062 125.175 168.575 116.575 172.76 109.343C176.945 102.111 182.413 96.6021 189.164 92.8167C195.916 89.0314 203.441 87.1387 211.738 87.1387C225.31 87.1387 235.806 90.83 243.227 98.2124C245.745 100.727 247.855 103.623 249.481 106.794V59.5051C249.481 57.0522 249 54.6233 248.065 52.3572C247.13 50.0911 245.76 48.0322 244.033 46.2981C242.305 44.564 240.255 43.1887 237.998 42.2507C235.741 41.3127 233.323 40.8305 230.881 40.8315Z" fill="#EAEAEA"></path>
  <path opacity="0.75" d="M231.262 40.329H159.305C156.432 36.1143 153.176 32.1765 149.579 28.5664C117.657 -3.49152 65.9102 -3.49152 33.9938 28.5664C6.62949 56.0497 2.72727 98.171 22.2846 129.833V219.717C22.2874 224.668 24.2474 229.415 27.7338 232.915C31.2203 236.416 35.9479 238.382 40.8774 238.383H174.64C172.964 236.501 171.453 234.477 170.124 232.334C165.836 225.439 163.48 217.236 163.057 207.726H192.911C193.333 211.099 194.265 213.966 195.706 216.329C197.043 218.589 198.954 220.451 201.244 221.724C203.496 222.959 206.098 223.577 209.051 223.579C214.537 223.579 218.775 221.949 221.763 218.689C224.751 215.428 226.243 210.832 226.238 204.9V201.082C226.238 194.865 225.025 190.069 222.599 186.693C220.173 183.317 216.709 181.63 212.207 181.634H199.232V151.951H212.207C215.865 151.951 218.696 150.471 220.7 147.512C222.705 144.552 223.707 140.407 223.705 135.078V132.278C223.705 127.258 222.598 123.38 220.383 120.645C218.169 117.909 215.056 116.542 211.047 116.542C208.514 116.521 206.033 117.265 203.926 118.676C201.78 120.101 199.97 122.162 198.494 124.859C197.019 127.557 195.964 130.817 195.33 134.64H165.59C166.434 124.673 168.948 116.073 173.131 108.841C177.315 101.608 182.782 96.0996 189.534 92.3143C196.287 88.529 203.812 86.6363 212.109 86.6363C225.681 86.6363 236.177 90.3275 243.598 97.71C246.116 100.225 248.227 103.121 249.855 106.292V59.0027C249.854 54.0503 247.895 49.301 244.408 45.7992C240.921 42.2973 236.193 40.3297 231.262 40.329Z" fill="#EAEAEA"></path>
  <path opacity="0.78" d="M231.633 39.8266H159.676C156.805 35.6121 153.551 31.6743 149.956 28.0639C118.037 -3.99396 66.2895 -3.99396 34.3705 28.0639C7.01396 55.5473 3.10142 97.6686 22.6562 129.33V219.214C22.6569 224.167 24.616 228.916 28.1026 232.418C31.5893 235.92 36.3181 237.887 41.249 237.888H175.012C173.336 236.006 171.826 233.983 170.498 231.84C166.2 224.944 163.843 216.737 163.429 207.219H193.282C193.705 210.591 194.637 213.458 196.078 215.819C197.415 218.08 199.327 219.943 201.618 221.217C203.867 222.452 206.468 223.07 209.422 223.071C214.907 223.071 219.144 221.441 222.134 218.181C225.124 214.921 226.619 210.33 226.617 204.408V200.577C226.617 194.36 225.404 189.564 222.978 186.188C220.552 182.812 217.088 181.128 212.587 181.137H199.611V151.449H212.587C216.244 151.449 219.075 149.969 221.08 147.009C223.084 144.049 224.086 139.905 224.084 134.576V131.775C224.084 126.755 222.977 122.877 220.762 120.14C218.548 117.403 215.436 116.035 211.426 116.037C208.893 116.017 206.412 116.762 204.305 118.174C202.159 119.598 200.349 121.659 198.873 124.357C197.398 127.054 196.343 130.314 195.709 134.138H165.962C166.804 124.17 169.318 115.569 173.503 108.336C177.688 101.102 183.155 95.5937 189.906 91.8119C196.658 88.0265 204.183 86.1339 212.481 86.1339C226.055 86.1339 236.552 89.8251 243.969 97.2075C246.486 99.7232 248.597 102.619 250.223 105.789V58.5003C250.223 53.5484 248.264 48.7994 244.778 45.2977C241.292 41.7959 236.564 39.828 231.633 39.8266Z" fill="#EAEAEA"></path>
  <path opacity="0.81" d="M232.005 39.3238H160.048C157.176 35.109 153.922 31.1704 150.327 27.5586C118.408 -4.49673 66.6611 -4.49673 34.7421 27.5586C7.37785 55.0445 3.47827 97.1658 23.0356 128.825V218.696C23.0356 221.148 23.5164 223.576 24.4507 225.841C25.3849 228.107 26.7542 230.165 28.4805 231.899C30.2068 233.632 32.2561 235.008 34.5116 235.946C36.7671 236.884 39.1844 237.367 41.6257 237.367H175.388C173.713 235.487 172.202 233.464 170.875 231.321C166.576 224.426 164.22 216.223 163.806 206.713H193.659C194.082 210.086 195.014 212.953 196.454 215.313C197.793 217.571 199.705 219.431 201.994 220.704C204.243 221.938 206.845 222.557 209.799 222.558C215.285 222.558 219.523 220.928 222.511 217.668C225.5 214.407 226.994 209.817 226.994 203.895V200.074C226.994 193.858 225.781 189.061 223.355 185.685C220.928 182.309 217.463 180.62 212.958 180.618H199.985V150.946H212.958C216.615 150.946 219.446 149.466 221.451 146.506C223.456 143.546 224.458 139.402 224.458 134.073V131.273C224.458 126.253 223.35 122.374 221.134 119.637C218.918 116.9 215.805 115.532 211.795 115.534C209.262 115.513 206.781 116.258 204.674 117.671C202.528 119.096 200.717 121.157 199.24 123.854C197.763 126.551 196.708 129.812 196.075 133.635H166.333C167.177 123.667 169.694 115.066 173.882 107.83C178.071 100.595 183.539 95.0866 190.288 91.3065C197.038 87.5212 204.563 85.6285 212.863 85.6285C226.434 85.6285 236.93 89.3197 244.351 96.7021C246.869 99.2176 248.979 102.113 250.605 105.284V57.9975C250.605 55.5447 250.124 53.1159 249.189 50.85C248.254 48.584 246.883 46.5253 245.156 44.7912C243.429 43.0572 241.378 41.6818 239.122 40.7437C236.865 39.8056 234.447 39.3231 232.005 39.3238Z" fill="#EAEAEA"></path>
  <path opacity="0.83" d="M232.376 38.8214H160.419C157.547 34.6065 154.293 30.6679 150.698 27.0561C118.782 -4.99918 67.0321 -4.99918 35.1156 27.0561C7.74875 54.5395 3.84917 96.6634 23.4065 128.322V218.207C23.4065 220.659 23.8874 223.087 24.8216 225.352C25.7559 227.617 27.1252 229.675 28.8514 231.409C30.5777 233.143 32.6271 234.518 34.8825 235.457C37.138 236.395 39.5554 236.878 41.9967 236.878H175.759C174.084 234.997 172.574 232.974 171.246 230.832C166.947 223.936 164.592 215.729 164.179 206.211H194.032C194.452 209.583 195.384 212.45 196.828 214.811C198.164 217.072 200.075 218.934 202.365 220.206C204.614 221.445 207.217 222.064 210.172 222.064C215.656 222.064 219.892 220.434 222.882 217.173C225.872 213.913 227.367 209.322 227.365 203.4V199.572C227.365 193.355 226.152 188.558 223.726 185.18C221.3 181.802 217.838 180.117 213.342 180.124H200.367V150.444H213.342C216.998 150.444 219.828 148.964 221.833 146.004C223.837 143.044 224.84 138.9 224.84 133.57V130.77C224.84 125.75 223.732 121.872 221.515 119.134C219.299 116.397 216.188 115.03 212.182 115.031C209.648 115.012 207.168 115.756 205.061 117.168C202.915 118.593 201.103 120.654 199.626 123.352C198.15 126.049 197.095 129.309 196.462 133.133H166.704C167.547 123.165 170.061 114.564 174.248 107.33C178.435 100.096 183.903 94.5885 190.651 90.8066C197.402 87.023 204.927 85.1304 213.226 85.1287C226.797 85.1287 237.293 88.8199 244.714 96.2023C247.232 98.7174 249.343 101.613 250.969 104.784V57.495C250.969 52.5425 249.01 47.7928 245.523 44.2908C242.036 40.7888 237.307 38.8214 232.376 38.8214Z" fill="#EAEAEA"></path>
  <path opacity="0.86" d="M232.748 38.3189H160.791C157.919 34.1041 154.664 30.1656 151.068 26.5537C119.151 -5.50162 67.4017 -5.50162 35.4853 26.5537C8.11848 54.037 4.21633 96.1739 23.7788 127.82V217.704C23.7788 220.156 24.2598 222.585 25.1942 224.85C26.1286 227.115 27.4981 229.174 29.2247 230.908C30.9512 232.641 33.0009 234.017 35.2566 234.955C37.5124 235.893 39.9301 236.376 42.3716 236.375H176.126C174.451 234.494 172.941 232.472 171.613 230.33C167.325 223.434 164.969 215.231 164.546 205.721H194.399C194.819 209.094 195.751 211.961 197.195 214.321C198.531 216.582 200.442 218.445 202.732 219.717C204.981 220.955 207.584 221.573 210.539 221.572C216.024 221.572 220.261 219.942 223.249 216.684C226.238 213.425 227.733 208.829 227.734 202.895V199.069C227.734 192.853 226.521 188.055 224.095 184.678C221.669 181.3 218.205 179.614 213.704 179.619H200.729V149.941H213.704C217.359 149.941 220.19 148.461 222.194 145.501C224.199 142.542 225.202 138.397 225.202 133.068V130.268C225.202 125.248 224.094 121.369 221.88 118.632C219.665 115.895 216.553 114.527 212.543 114.529C210.01 114.508 207.529 115.253 205.422 116.666C203.277 118.091 201.466 120.152 199.991 122.849C198.516 125.546 197.464 128.807 196.837 132.63H167.076C167.922 122.663 170.437 114.062 174.62 106.828C178.804 99.594 184.271 94.0861 191.023 90.3042C197.775 86.5206 205.3 84.6279 213.598 84.6262C227.169 84.6262 237.666 88.3174 245.086 95.6999C247.605 98.2143 249.716 101.11 251.341 104.282V56.9926C251.341 52.04 249.382 47.2903 245.895 43.7883C242.408 40.2863 237.679 38.3189 232.748 38.3189Z" fill="#EAEAEA"></path>
  <path opacity="0.89" d="M233.122 37.8165H161.165C158.293 33.6011 155.038 29.6625 151.442 26.0512C119.525 -6.00406 67.7755 -6.00406 35.859 26.0512C8.49473 53.5346 4.5925 95.6585 24.1499 127.317V217.202C24.1499 222.154 26.1088 226.904 29.5956 230.406C33.0824 233.908 37.8116 235.876 42.7427 235.876H176.505C174.829 233.995 173.318 231.972 171.989 229.83C167.701 222.934 165.346 214.727 164.923 205.209H194.773C195.196 208.581 196.128 211.448 197.569 213.809C198.905 216.069 200.816 217.931 203.106 219.204C205.359 220.442 207.961 221.061 210.913 221.059C216.4 221.059 220.637 219.429 223.626 216.168C226.614 212.908 228.107 208.311 228.106 202.377V198.567C228.106 192.35 226.893 187.553 224.466 184.175C222.04 180.797 218.577 179.111 214.075 179.116H201.1V149.439H214.075C217.731 149.439 220.562 147.959 222.568 144.999C224.575 142.039 225.576 137.895 225.573 132.565V129.765C225.573 124.745 224.466 120.867 222.251 118.13C220.036 115.392 216.924 114.025 212.915 114.027C210.381 114.006 207.9 114.75 205.794 116.164C203.648 117.588 201.837 119.649 200.362 122.347C198.887 125.044 197.832 128.304 197.198 132.125H167.45C168.294 122.161 170.808 113.561 174.991 106.325C179.175 99.0898 184.642 93.5811 191.395 89.7992C198.147 86.0173 205.672 84.1255 213.969 84.1238C227.541 84.1238 238.037 87.815 245.458 95.1974C247.977 97.7118 250.087 100.608 251.712 103.779V56.4902C251.712 54.038 251.232 51.6098 250.298 49.3443C249.364 47.0787 247.994 45.0201 246.268 43.286C244.542 41.552 242.492 40.1765 240.237 39.238C237.981 38.2995 235.563 37.8165 233.122 37.8165Z" fill="#EAEAEA"></path>
  <path opacity="0.92" d="M233.493 37.3141H161.536C158.665 33.0987 155.411 29.16 151.815 25.5488C119.896 -6.5065 68.1491 -6.5065 36.2301 25.5488C8.86582 53.0322 4.9636 95.156 24.521 126.815V216.699C24.5237 221.651 26.4849 226.4 29.9731 229.9C33.4613 233.4 38.1908 235.365 43.1215 235.363H176.884C175.203 233.483 173.688 231.46 172.355 229.317C168.065 222.421 165.71 214.219 165.289 204.709H195.142C195.565 208.081 196.497 210.948 197.937 213.309C199.275 215.565 201.186 217.425 203.475 218.697C205.727 219.935 208.33 220.553 211.282 220.551C216.767 220.551 221.004 218.921 223.994 215.661C226.984 212.4 228.478 207.81 228.477 201.89V198.062C228.477 191.845 227.264 187.049 224.838 183.673C222.411 180.297 218.948 178.61 214.446 178.614H201.479V148.936H214.454C218.111 148.936 220.942 147.456 222.947 144.497C224.952 141.537 225.953 137.392 225.952 132.063V129.263C225.952 124.243 224.844 120.364 222.63 117.627C220.415 114.89 217.301 113.524 213.286 113.529C210.752 113.509 208.271 114.253 206.165 115.666C204.019 117.089 202.208 119.149 200.733 121.847C199.258 124.544 198.203 127.805 197.569 131.628H167.821C168.664 121.662 171.178 113.062 175.363 105.828C179.548 98.5943 185.015 93.0855 191.766 89.3019C198.518 85.52 206.043 83.6282 214.341 83.6265C227.912 83.6265 238.408 87.3177 245.829 94.7001C248.347 97.2146 250.458 100.109 252.086 103.279V55.9877C252.086 51.0352 250.127 46.2854 246.64 42.7834C243.153 39.2815 238.424 37.3141 233.493 37.3141Z" fill="#EAEAEA"></path>
  <path opacity="0.94" d="M233.865 36.8111H161.908C159.038 32.5953 155.783 28.6566 152.187 25.0459C120.268 -7.00943 68.521 -7.00943 36.602 25.0459C9.23774 52.5292 5.33815 94.6505 24.8929 126.312V216.196C24.8929 221.149 26.8517 225.899 30.3386 229.401C33.8254 232.903 38.5545 234.87 43.4856 234.87H177.235C175.56 232.988 174.05 230.965 172.722 228.822C168.423 221.93 166.067 213.727 165.653 204.214H195.506C195.929 207.586 196.861 210.453 198.302 212.813C199.646 215.063 201.56 216.914 203.849 218.178C206.098 219.416 208.7 220.034 211.654 220.033C217.138 220.033 221.376 218.403 224.366 215.142C227.356 211.882 228.85 207.292 228.848 201.372V197.559C228.848 191.342 227.635 186.546 225.209 183.17C222.783 179.794 219.319 178.107 214.818 178.111H201.843V148.433H214.818C218.475 148.433 221.306 146.954 223.311 143.994C225.316 141.034 226.317 136.889 226.316 131.56V128.76C226.316 123.74 225.208 119.861 222.994 117.124C220.779 114.387 217.667 113.016 213.658 113.011C211.125 112.991 208.644 113.734 206.537 115.145C204.394 116.57 202.584 118.631 201.105 121.328C199.626 124.026 198.571 127.286 197.94 131.109H168.193C169.037 121.145 171.551 112.545 175.734 105.31C179.918 98.0741 185.385 92.5653 192.137 88.7835C198.89 85.0016 206.415 83.1098 214.712 83.108C228.287 83.108 238.783 86.7993 246.201 94.1817C248.719 96.6962 250.83 99.5909 252.458 102.761V55.4848C252.458 50.5322 250.499 45.7825 247.012 42.2805C243.525 38.7785 238.796 36.8111 233.865 36.8111Z" fill="#EAEAEA"></path>
  <path opacity="0.97" d="M234.234 36.3087H162.277C159.406 32.0928 156.152 28.1541 152.556 24.5434C120.637 -7.51187 68.8897 -7.51187 36.9707 24.5434C9.60636 52.0268 5.70678 94.1481 25.2641 125.81V215.694C25.2641 220.646 27.2226 225.395 30.7089 228.897C34.1952 232.399 38.9237 234.367 43.8543 234.368H177.617C175.942 232.486 174.432 230.462 173.104 228.319C168.805 221.426 166.449 213.223 166.034 203.711H195.887C196.31 207.084 197.242 209.95 198.683 212.311C200.021 214.571 201.933 216.433 204.223 217.707C206.472 218.941 209.074 219.56 212.027 219.561C217.514 219.561 221.752 217.931 224.74 214.671C227.728 211.41 229.222 206.82 229.222 200.901V197.057C229.222 190.84 228.009 186.043 225.583 182.667C223.157 179.291 219.693 177.605 215.192 177.608H202.219V147.931H215.192C218.849 147.931 221.68 146.45 223.685 143.489C225.69 140.527 226.692 136.387 226.692 131.068V128.258C226.692 123.237 225.584 119.359 223.368 116.622C221.152 113.885 218.04 112.517 214.034 112.519C211.501 112.497 209.02 113.241 206.913 114.653C204.767 116.078 202.956 118.139 201.479 120.836C200.002 123.534 198.946 126.797 198.312 130.625H168.564C169.407 120.659 171.921 112.059 176.106 104.825C180.291 97.5915 185.759 92.0827 192.511 88.2991C199.262 84.5173 206.787 82.6255 215.086 82.6237C228.658 82.6237 239.154 86.3141 246.575 93.6948C249.092 96.2102 251.203 99.1058 252.829 102.277V54.9875C252.83 52.5346 252.349 50.1056 251.415 47.8392C250.481 45.5729 249.111 43.5136 247.384 41.779C245.657 40.0444 243.607 38.6685 241.351 37.7299C239.094 36.7913 236.676 36.3083 234.234 36.3087Z" fill="#EAEAEA"></path>
  <path d="M234.607 35.8194H162.65C159.78 31.6036 156.526 27.6649 152.93 24.0542C121.013 -8.00373 69.2635 -8.00373 37.3471 24.0542C9.98024 51.5375 6.08059 93.6588 25.6379 125.32V215.205C25.6379 220.157 27.5965 224.906 31.0827 228.408C34.569 231.91 39.2975 233.878 44.2281 233.878H177.991C176.316 231.996 174.806 229.972 173.477 227.83C169.179 220.936 166.823 212.734 166.411 203.222H196.264C196.683 206.594 197.615 209.461 199.06 211.822C200.396 214.082 202.307 215.944 204.597 217.217C206.846 218.452 209.448 219.07 212.404 219.072C217.887 219.072 222.124 217.442 225.114 214.182C228.104 210.921 229.596 206.32 229.591 200.378V196.554C229.591 190.338 228.378 185.541 225.952 182.165C223.526 178.789 220.063 177.103 215.563 177.106H202.588V147.429H215.563C219.219 147.429 222.049 145.948 224.054 142.986C226.058 140.025 227.061 135.88 227.061 130.553V127.755C227.061 122.735 225.954 118.857 223.739 116.12C221.524 113.382 218.412 112.015 214.403 112.016C211.87 111.995 209.389 112.739 207.282 114.151C205.136 115.576 203.324 117.637 201.848 120.334C200.371 123.031 199.317 126.289 198.686 130.107H168.936C169.78 120.14 172.294 111.54 176.479 104.308C180.665 97.0755 186.132 91.5667 192.883 87.7814C199.635 83.996 207.16 82.1042 215.457 82.106C229.029 82.106 239.525 85.7963 246.946 93.177C249.463 95.6925 251.574 98.5881 253.2 101.759V54.4698C253.195 49.521 251.233 44.7769 247.747 41.2798C244.261 37.7827 239.535 35.8187 234.607 35.8194Z" fill="#EAEAEA"></path>
  <path opacity="0.03" d="M244.978 182.746V158.914C244.813 159.194 244.648 159.471 244.462 159.743C240.882 165.371 235.787 169.567 229.176 172.33C235.782 173.945 241.049 177.417 244.978 182.746Z" fill="#EAEAEA"></path>
  <path opacity="0.06" d="M245.212 182.448V158.616C245.047 158.893 244.882 159.171 244.696 159.443C241.111 165.064 236.013 169.261 229.402 172.035C236.012 173.648 241.282 177.119 245.212 182.448Z" fill="#EAEAEA"></path>
  <path opacity="0.08" d="M245.447 182.153V158.321C245.282 158.598 245.116 158.875 244.931 159.147C241.346 164.768 236.248 168.966 229.637 171.739C236.246 173.342 241.516 176.813 245.447 182.153Z" fill="#EAEAEA"></path>
  <path opacity="0.11" d="M245.682 181.855V158.023C245.517 158.3 245.352 158.577 245.166 158.849C241.581 164.471 236.483 168.668 229.872 171.441C236.483 173.053 241.753 176.524 245.682 181.855Z" fill="#EAEAEA"></path>
  <path opacity="0.14" d="M245.919 181.557V157.725C245.751 158.002 245.586 158.279 245.403 158.554C241.818 164.175 236.72 168.372 230.109 171.144C236.72 172.757 241.99 176.228 245.919 181.557Z" fill="#EAEAEA"></path>
  <path opacity="0.17" d="M246.154 181.259V157.427C245.986 157.704 245.821 157.982 245.638 158.254C242.053 163.875 236.955 168.072 230.344 170.846C236.955 172.459 242.225 175.93 246.154 181.259Z" fill="#EAEAEA"></path>
  <path opacity="0.19" d="M246.389 180.961V157.129C246.221 157.407 246.056 157.684 245.873 157.956C242.286 163.577 237.187 167.774 230.576 170.548C237.187 172.161 242.458 175.632 246.389 180.961Z" fill="#EAEAEA"></path>
  <path opacity="0.22" d="M246.613 180.666V156.834C246.448 157.112 246.28 157.389 246.097 157.661C242.511 163.282 237.412 167.479 230.801 170.253C237.42 171.864 242.691 175.335 246.613 180.666Z" fill="#EAEAEA"></path>
  <path opacity="0.25" d="M246.871 180.361V156.529C246.706 156.806 246.538 157.083 246.355 157.358C242.769 162.976 237.67 167.172 231.059 169.947C237.663 171.564 242.934 175.035 246.871 180.361Z" fill="#EAEAEA"></path>
  <path opacity="0.28" d="M247.093 180.07V156.238C246.928 156.515 246.76 156.793 246.577 157.067C242.989 162.688 237.89 166.886 231.28 169.659C237.891 171.267 243.162 174.737 247.093 180.07Z" fill="#EAEAEA"></path>
  <path opacity="0.31" d="M247.327 179.772V155.94C247.162 156.218 246.994 156.495 246.811 156.767C243.225 162.388 238.126 166.585 231.515 169.359C238.127 170.972 243.398 174.443 247.327 179.772Z" fill="#EAEAEA"></path>
  <path opacity="0.33" d="M247.562 179.478V155.646C247.397 155.923 247.23 156.2 247.047 156.472C243.46 162.093 238.361 166.29 231.75 169.064C238.363 170.675 243.634 174.146 247.562 179.478Z" fill="#EAEAEA"></path>
  <path opacity="0.36" d="M247.797 179.179V155.347C247.632 155.624 247.467 155.902 247.281 156.174C243.693 161.795 238.594 165.992 231.984 168.766C238.596 170.377 243.866 173.848 247.797 179.179Z" fill="#EAEAEA"></path>
  <path opacity="0.39" d="M248.032 178.881V155.049C247.867 155.326 247.701 155.604 247.516 155.878C243.929 161.5 238.831 165.696 232.222 168.468C238.831 170.079 244.101 173.55 248.032 178.881Z" fill="#EAEAEA"></path>
  <path opacity="0.42" d="M248.266 178.583V154.751C248.101 155.031 247.936 155.308 247.75 155.58C244.165 161.202 239.067 165.399 232.456 168.173C239.065 169.782 244.335 173.252 248.266 178.583Z" fill="#EAEAEA"></path>
  <path opacity="0.44" d="M248.502 178.288V154.456C248.336 154.733 248.171 155.01 247.986 155.282C244.401 160.904 239.303 165.101 232.691 167.875C239.304 169.486 244.574 172.957 248.502 178.288Z" fill="#EAEAEA"></path>
  <path opacity="0.47" d="M248.738 177.99V154.158C248.57 154.435 248.405 154.713 248.222 154.985C244.637 160.606 239.539 164.803 232.928 167.577C239.539 169.191 244.809 172.663 248.738 177.99Z" fill="#EAEAEA"></path>
  <path opacity="0.5" d="M248.973 177.692V153.86C248.805 154.138 248.64 154.415 248.457 154.687C244.872 160.308 239.774 164.505 233.163 167.279C239.772 168.89 245.042 172.361 248.973 177.692Z" fill="#EAEAEA"></path>
  <path opacity="0.53" d="M249.207 177.394V153.562C249.04 153.84 248.875 154.117 248.691 154.391C245.106 160.013 240.008 164.209 233.397 166.981C240.008 168.594 245.278 172.065 249.207 177.394Z" fill="#EAEAEA"></path>
  <path opacity="0.56" d="M249.45 177.097V153.265C249.285 153.542 249.117 153.819 248.934 154.091C245.346 159.712 240.247 163.909 233.638 166.683C240.245 168.294 245.516 171.765 249.45 177.097Z" fill="#EAEAEA"></path>
  <path opacity="0.58" d="M249.677 176.799V152.967C249.512 153.244 249.344 153.521 249.161 153.793C245.574 159.414 240.475 163.612 233.864 166.385C240.472 167.998 245.743 171.469 249.677 176.799Z" fill="#EAEAEA"></path>
  <path opacity="0.61" d="M249.912 176.503V152.671C249.747 152.949 249.579 153.226 249.396 153.498C245.81 159.119 240.711 163.316 234.1 166.09C240.712 167.701 245.983 171.172 249.912 176.503Z" fill="#EAEAEA"></path>
  <path opacity="0.64" d="M250.146 176.216V152.384C249.981 152.661 249.814 152.938 249.631 153.213C246.044 158.832 240.945 163.029 234.334 165.802C240.947 167.407 246.218 170.878 250.146 176.216Z" fill="#EAEAEA"></path>
  <path opacity="0.67" d="M250.381 175.908V152.076C250.216 152.353 250.048 152.63 249.865 152.905C246.277 158.526 241.178 162.723 234.568 165.497C241.179 167.108 246.45 170.578 250.381 175.908Z" fill="#EAEAEA"></path>
  <path opacity="0.69" d="M250.615 175.61V151.778C250.45 152.055 250.283 152.332 250.099 152.604C246.513 158.225 241.414 162.423 234.803 165.196C241.416 166.809 246.686 170.28 250.615 175.61Z" fill="#EAEAEA"></path>
  <path opacity="0.72" d="M250.851 175.314V151.482C250.685 151.76 250.52 152.037 250.335 152.309C246.748 157.93 241.649 162.127 235.038 164.901C241.651 166.512 246.922 169.983 250.851 175.314Z" fill="#EAEAEA"></path>
  <path opacity="0.75" d="M251.085 175.017V151.185C250.92 151.462 250.755 151.739 250.57 152.011C246.985 157.632 241.887 161.83 235.275 164.603C241.885 166.214 247.155 169.685 251.085 175.017Z" fill="#EAEAEA"></path>
  <path opacity="0.78" d="M251.32 174.719V150.887C251.155 151.164 250.99 151.441 250.805 151.716C247.227 157.342 242.133 161.537 235.523 164.3C242.128 165.916 247.393 169.389 251.32 174.719Z" fill="#EAEAEA"></path>
  <path opacity="0.81" d="M251.554 174.421V150.589C251.389 150.866 251.224 151.143 251.038 151.415C247.453 157.036 242.355 161.234 235.744 164.007C242.357 165.62 247.627 169.091 251.554 174.421Z" fill="#EAEAEA"></path>
  <path opacity="0.83" d="M251.792 174.123V150.291C251.625 150.568 251.46 150.845 251.277 151.117C247.692 156.739 242.594 160.936 235.982 163.709C242.594 165.322 247.864 168.794 251.792 174.123Z" fill="#EAEAEA"></path>
  <path opacity="0.86" d="M252.029 173.828V149.996C251.861 150.273 251.696 150.55 251.513 150.822C247.928 156.443 242.83 160.641 236.219 163.414C242.828 165.025 248.098 168.496 252.029 173.828Z" fill="#EAEAEA"></path>
  <path opacity="0.89" d="M252.262 173.53V149.698C252.094 149.975 251.929 150.252 251.746 150.527C248.159 156.145 243.06 160.341 236.449 163.116C243.053 164.726 248.324 168.197 252.262 173.53Z" fill="#EAEAEA"></path>
  <path opacity="0.92" d="M252.496 173.232V149.4C252.331 149.677 252.163 149.954 251.98 150.229C248.394 155.85 243.295 160.047 236.684 162.818C243.303 164.431 248.574 167.903 252.496 173.232Z" fill="#EAEAEA"></path>
  <path opacity="0.94" d="M252.73 172.934V149.102C252.565 149.379 252.398 149.657 252.214 149.929C248.626 155.55 243.527 159.747 236.918 162.521C243.531 164.134 248.801 167.605 252.73 172.934Z" fill="#EAEAEA"></path>
  <path opacity="0.97" d="M252.965 172.636V148.804C252.8 149.081 252.633 149.359 252.449 149.631C248.863 155.252 243.764 159.449 237.153 162.223C243.764 163.836 249.035 167.307 252.965 172.636Z" fill="#EAEAEA"></path>
  <path d="M253.2 172.331V148.499C253.035 148.776 252.867 149.053 252.684 149.325C249.098 154.946 243.999 159.143 237.388 161.917C244 163.535 249.271 167.006 253.2 172.331Z" fill="#EAEAEA"></path>
  <path d="M253.2 172.331V148.499C253.035 148.776 252.867 149.053 252.684 149.325C249.098 154.946 243.999 159.143 237.388 161.917C244 163.535 249.271 167.006 253.2 172.331Z" fill="#6B873E"></path>
  <path d="M234.607 35.8194H162.65C159.78 31.6036 156.526 27.6649 152.93 24.0542C121.013 -8.00373 69.2635 -8.00373 37.3471 24.0542C9.98024 51.5375 6.08059 93.6588 25.6379 125.32V215.205C25.6379 220.157 27.5965 224.906 31.0827 228.408C34.569 231.91 39.2975 233.878 44.2281 233.878H177.991C176.316 231.996 174.806 229.972 173.477 227.83C169.179 220.936 166.823 212.734 166.411 203.222H196.264C196.683 206.594 197.615 209.461 199.06 211.822C200.396 214.082 202.307 215.944 204.597 217.217C206.846 218.452 209.448 219.07 212.404 219.072C217.887 219.072 222.124 217.442 225.114 214.182C228.104 210.921 229.596 206.32 229.591 200.378V196.554C229.591 190.338 228.378 185.541 225.952 182.165C223.526 178.789 220.063 177.103 215.563 177.106H202.588V147.429H215.563C219.219 147.429 222.049 145.948 224.054 142.986C226.058 140.025 227.061 135.88 227.061 130.553V127.755C227.061 122.735 225.954 118.857 223.739 116.12C221.524 113.382 218.412 112.015 214.403 112.016C211.87 111.995 209.389 112.739 207.282 114.151C205.136 115.576 203.324 117.637 201.848 120.334C200.371 123.031 199.317 126.289 198.686 130.107H168.936C169.78 120.14 172.294 111.54 176.479 104.308C180.665 97.0755 186.132 91.5667 192.883 87.7814C199.635 83.996 207.16 82.1042 215.457 82.106C229.029 82.106 239.525 85.7963 246.946 93.177C249.463 95.6925 251.574 98.5881 253.2 101.759V54.4698C253.195 49.521 251.233 44.7769 247.747 41.2798C244.261 37.7827 239.535 35.8187 234.607 35.8194Z" fill="#6B873E"></path>
  <path d="M94.951 152.59C133.332 152.59 164.445 121.341 164.445 82.7934C164.445 44.2459 133.332 12.997 94.951 12.997C56.5706 12.997 25.457 44.2459 25.457 82.7934C25.457 121.341 56.5706 152.59 94.951 152.59Z" fill="url(#paint0_linear_921_506)"></path>
  <g clip-path="url(#clip0_921_506)">
    <path d="M124.786 80.4462C126.772 80.4462 128.491 79.7342 129.895 78.3293C131.3 76.9246 132.012 75.206 132.012 73.2204C132.012 71.2356 131.3 69.5167 129.895 68.1116C128.49 66.7072 126.771 65.9951 124.786 65.9951C122.801 65.9951 121.082 66.7072 119.677 68.1118C118.273 69.5165 117.561 71.2353 117.561 73.2204C117.561 75.206 118.273 76.9249 119.678 78.3295C121.083 79.7339 122.801 80.4462 124.786 80.4462Z" fill="#6B873E"></path>
    <path d="M137.429 89.0632C137.389 88.4786 137.307 87.8409 137.186 87.1676C137.064 86.4892 136.908 85.8478 136.72 85.2617C136.526 84.6558 136.262 84.0575 135.937 83.4842C135.598 82.8891 135.201 82.3709 134.755 81.9445C134.289 81.4984 133.718 81.1398 133.058 80.8781C132.4 80.6179 131.671 80.4861 130.891 80.4861C130.585 80.4861 130.289 80.6117 129.717 80.9841C129.365 81.2137 128.953 81.4792 128.494 81.7728C128.101 82.0232 127.568 82.2578 126.911 82.4702C126.269 82.6778 125.618 82.7831 124.975 82.7831C124.332 82.7831 123.681 82.6778 123.038 82.4702C122.382 82.2581 121.849 82.0235 121.457 81.7731C121.001 81.4822 120.589 81.2167 120.232 80.9839C119.661 80.6115 119.364 80.4858 119.058 80.4858C118.278 80.4858 117.549 80.6179 116.892 80.8784C116.232 81.1395 115.661 81.4982 115.194 81.9447C114.749 82.3714 114.351 82.8893 114.013 83.4842C113.688 84.0575 113.424 84.6556 113.23 85.2619C113.043 85.8481 112.886 86.4892 112.764 87.1676C112.643 87.84 112.561 88.4779 112.521 89.0638C112.481 89.6379 112.461 90.2337 112.461 90.8354C112.461 92.4014 112.959 93.6692 113.94 94.6041C114.91 95.5268 116.193 95.9948 117.753 95.9948H132.198C133.758 95.9948 135.04 95.527 136.01 94.6041C136.992 93.6698 137.49 92.4018 137.49 90.8351C137.49 90.2307 137.469 89.6344 137.429 89.0632Z" fill="#6B873E"></path>
  </g>
  <g clip-path="url(#clip1_921_506)">
    <path d="M94.7863 80.4462C96.7716 80.4462 98.4908 79.7342 99.8954 78.3293C101.3 76.9246 102.012 75.206 102.012 73.2204C102.012 71.2356 101.3 69.5167 99.8952 68.1116C98.4903 66.7072 96.7714 65.9951 94.7863 65.9951C92.8008 65.9951 91.0821 66.7072 89.6775 68.1118C88.2728 69.5165 87.5605 71.2353 87.5605 73.2204C87.5605 75.206 88.2728 76.9249 89.6777 78.3295C91.0826 79.7339 92.8015 80.4462 94.7863 80.4462Z" fill="#6B873E"></path>
    <path d="M107.429 89.0632C107.389 88.4786 107.307 87.8409 107.186 87.1676C107.064 86.4892 106.908 85.8478 106.72 85.2617C106.526 84.6558 106.262 84.0575 105.937 83.4842C105.598 82.8891 105.201 82.3709 104.755 81.9445C104.289 81.4984 103.718 81.1398 103.058 80.8781C102.4 80.6179 101.671 80.4861 100.891 80.4861C100.585 80.4861 100.289 80.6117 99.717 80.9841C99.3649 81.2137 98.9532 81.4792 98.4936 81.7728C98.1006 82.0232 97.5682 82.2578 96.9106 82.4702C96.2691 82.6778 95.6177 82.7831 94.9748 82.7831C94.3318 82.7831 93.6807 82.6778 93.0384 82.4702C92.3816 82.2581 91.8492 82.0235 91.4566 81.7731C91.0014 81.4822 90.5894 81.2167 90.2321 80.9839C89.6608 80.6115 89.3644 80.4858 89.0582 80.4858C88.2782 80.4858 87.5494 80.6179 86.8918 80.8784C86.2322 81.1395 85.6612 81.4982 85.1945 81.9447C84.7488 82.3714 84.3513 82.8893 84.0134 83.4842C83.6877 84.0575 83.4241 84.6556 83.23 85.2619C83.0425 85.8481 82.8857 86.4892 82.764 87.1676C82.6434 87.84 82.5614 88.4779 82.5209 89.0638C82.4811 89.6379 82.4609 90.2337 82.4609 90.8354C82.4609 92.4014 82.9588 93.6692 83.9404 94.6041C84.91 95.5268 86.1928 95.9948 87.7529 95.9948H102.198C103.758 95.9948 105.04 95.527 106.01 94.6041C106.992 93.6698 107.49 92.4018 107.49 90.8351C107.49 90.2307 107.469 89.6344 107.429 89.0632Z" fill="#6B873E"></path>
  </g>
  <g clip-path="url(#clip2_921_506)">
    <path d="M64.7863 80.4462C66.7716 80.4462 68.4908 79.7342 69.8954 78.3293C71.3 76.9246 72.0121 75.206 72.0121 73.2204C72.0121 71.2356 71.3 69.5167 69.8952 68.1116C68.4903 66.7072 66.7714 65.9951 64.7863 65.9951C62.8008 65.9951 61.0821 66.7072 59.6775 68.1118C58.2728 69.5165 57.5605 71.2353 57.5605 73.2204C57.5605 75.206 58.2728 76.9249 59.6777 78.3295C61.0826 79.7339 62.8015 80.4462 64.7863 80.4462Z" fill="#6B873E"></path>
    <path d="M77.4293 89.0632C77.3888 88.4786 77.3069 87.8409 77.1863 87.1676C77.0645 86.4892 76.9077 85.8478 76.72 85.2617C76.5262 84.6558 76.2625 84.0575 75.9366 83.4842C75.5983 82.8891 75.2009 82.3709 74.7551 81.9445C74.2889 81.4984 73.718 81.1398 73.0579 80.8781C72.4001 80.6179 71.6711 80.4861 70.8913 80.4861C70.5851 80.4861 70.2889 80.6117 69.717 80.9841C69.3649 81.2137 68.9532 81.4792 68.4936 81.7728C68.1006 82.0232 67.5682 82.2578 66.9106 82.4702C66.2691 82.6778 65.6177 82.7831 64.9748 82.7831C64.3318 82.7831 63.6807 82.6778 63.0384 82.4702C62.3816 82.2581 61.8492 82.0235 61.4566 81.7731C61.0014 81.4822 60.5894 81.2167 60.2321 80.9839C59.6608 80.6115 59.3644 80.4858 59.0582 80.4858C58.2782 80.4858 57.5494 80.6179 56.8918 80.8784C56.2322 81.1395 55.6612 81.4982 55.1945 81.9447C54.7488 82.3714 54.3513 82.8893 54.0134 83.4842C53.6877 84.0575 53.4241 84.6556 53.23 85.2619C53.0425 85.8481 52.8857 86.4892 52.764 87.1676C52.6434 87.84 52.5614 88.4779 52.5209 89.0638C52.4811 89.6379 52.4609 90.2337 52.4609 90.8354C52.4609 92.4014 52.9588 93.6692 53.9404 94.6041C54.91 95.5268 56.1928 95.9948 57.7529 95.9948H72.198C73.7581 95.9948 75.0405 95.527 76.0103 94.6041C76.9922 93.6698 77.49 92.4018 77.49 90.8351C77.4897 90.2307 77.4694 89.6344 77.4293 89.0632Z" fill="#6B873E"></path>
  </g>
  <path d="M142.6 34.4103C169.423 61.3497 169.732 104.852 143.516 132.174C143.828 131.871 144.143 131.568 144.452 131.257C171.592 103.999 171.592 59.8059 144.452 32.5504C117.312 5.29503 73.3127 5.29244 46.1728 32.5504C45.8633 32.8613 45.5615 33.1773 45.2598 33.4907C72.4641 7.16006 115.772 7.46313 142.6 34.4103Z" fill="white"></path>
  <path d="M44.6143 188.134C43.9717 188.134 43.3952 188.011 42.8848 187.765C42.3743 187.519 41.9391 187.172 41.5791 186.726C41.2236 186.275 40.9502 185.741 40.7588 185.126C40.5719 184.511 40.4785 183.832 40.4785 183.089V182.945C40.4785 182.207 40.5719 181.53 40.7588 180.915C40.9502 180.295 41.2236 179.76 41.5791 179.309C41.9391 178.858 42.3743 178.509 42.8848 178.263C43.3952 178.017 43.9717 177.894 44.6143 177.894C45.2933 177.894 45.8903 178.017 46.4053 178.263C46.9202 178.509 47.3509 178.858 47.6973 179.309C48.0482 179.76 48.3125 180.295 48.4902 180.915C48.668 181.53 48.7568 182.207 48.7568 182.945V183.089C48.7568 183.832 48.668 184.511 48.4902 185.126C48.3125 185.741 48.0482 186.275 47.6973 186.726C47.3509 187.172 46.9202 187.519 46.4053 187.765C45.8903 188.011 45.2933 188.134 44.6143 188.134ZM44.6143 187.013C45.2751 187.013 45.8083 186.849 46.2139 186.521C46.624 186.193 46.9248 185.734 47.1162 185.147C47.3076 184.554 47.4033 183.868 47.4033 183.089V182.932C47.4033 182.157 47.3053 181.478 47.1094 180.895C46.918 180.307 46.6172 179.849 46.207 179.521C45.7969 179.188 45.266 179.022 44.6143 179.022C44.0173 179.022 43.5114 179.188 43.0967 179.521C42.682 179.853 42.3675 180.314 42.1533 180.901C41.9391 181.485 41.832 182.162 41.832 182.932V183.089C41.832 183.864 41.9391 184.547 42.1533 185.14C42.3675 185.728 42.682 186.188 43.0967 186.521C43.5114 186.849 44.0173 187.013 44.6143 187.013ZM52.1133 187.99V187.129L53.2275 186.938V181.64H51.6689L51.5664 182.795H50.418V180.594H57.418V182.795H56.2627L56.1602 181.64H54.5742V186.938L55.6885 187.129V187.99H52.1133ZM64.9717 188.134C64.6253 188.134 64.2699 188.1 63.9053 188.031C63.5452 187.968 63.2217 187.867 62.9346 187.731L63.1396 186.712C63.4176 186.844 63.7002 186.94 63.9873 186.999C64.279 187.054 64.6071 187.081 64.9717 187.081C65.6188 187.081 66.1292 186.835 66.5029 186.343C66.8812 185.846 67.0771 185.049 67.0908 183.95L67.0635 183.916C66.8812 184.221 66.626 184.456 66.2979 184.62C65.9697 184.784 65.6006 184.866 65.1904 184.866C64.5433 184.866 63.985 184.732 63.5156 184.463C63.0462 184.194 62.6839 183.804 62.4287 183.294C62.1781 182.784 62.0527 182.166 62.0527 181.442C62.0527 180.749 62.1895 180.136 62.4629 179.603C62.7409 179.069 63.1123 178.652 63.5771 178.352C64.0465 178.046 64.5661 177.894 65.1357 177.894C65.8285 177.894 66.4255 178.04 66.9268 178.331C67.4281 178.618 67.8132 179.049 68.082 179.623C68.3555 180.193 68.4922 180.901 68.4922 181.749V183.547C68.4922 184.582 68.3464 185.438 68.0547 186.117C67.763 186.796 67.3529 187.302 66.8242 187.635C66.3001 187.968 65.6826 188.134 64.9717 188.134ZM65.1904 183.807C65.6872 183.807 66.0996 183.7 66.4277 183.485C66.7604 183.271 66.9997 182.998 67.1455 182.665V181.612C67.1455 180.733 66.9769 180.07 66.6396 179.623C66.307 179.177 65.8193 178.953 65.1768 178.953C64.8441 178.953 64.5433 179.06 64.2744 179.275C64.0055 179.484 63.7913 179.776 63.6318 180.15C63.4769 180.523 63.3994 180.954 63.3994 181.442C63.3994 181.92 63.4701 182.337 63.6113 182.693C63.7572 183.043 63.9645 183.317 64.2334 183.513C64.5023 183.709 64.8213 183.807 65.1904 183.807ZM71.8076 187.99L71.917 186.917C72.0446 185.869 72.252 184.901 72.5391 184.012C72.8262 183.123 73.1976 182.278 73.6533 181.476C74.109 180.674 74.6559 179.881 75.2939 179.097H71.1377L71.0352 180.238H69.8867V178.037H76.6133V179.097C76.0117 179.812 75.515 180.478 75.123 181.093C74.7311 181.704 74.4144 182.307 74.1729 182.904C73.9359 183.497 73.749 184.117 73.6123 184.764C73.4756 185.411 73.3594 186.129 73.2637 186.917L73.1543 187.99H71.8076ZM80.7012 188.134C80.0951 188.134 79.555 188.025 79.0811 187.806C78.6071 187.582 78.2357 187.268 77.9668 186.862C77.7025 186.452 77.5771 185.967 77.5908 185.406L77.6113 185.365H78.8965C78.8965 185.716 78.9694 186.019 79.1152 186.275C79.2611 186.53 79.4684 186.728 79.7373 186.869C80.0062 187.011 80.3275 187.081 80.7012 187.081C81.2708 187.081 81.7174 186.926 82.041 186.616C82.3646 186.306 82.5264 185.848 82.5264 185.242C82.5264 184.627 82.3828 184.174 82.0957 183.882C81.8086 183.59 81.3551 183.444 80.7354 183.444H79.5596V182.392H80.7354C81.1318 182.392 81.4508 182.326 81.6924 182.193C81.9339 182.057 82.1071 181.863 82.2119 181.612C82.3213 181.357 82.376 181.052 82.376 180.696C82.376 180.127 82.2347 179.694 81.9521 179.398C81.6696 179.101 81.2526 178.953 80.7012 178.953C80.3503 178.953 80.0449 179.024 79.7852 179.165C79.5254 179.302 79.3226 179.498 79.1768 179.753C79.0355 180.004 78.9648 180.3 78.9648 180.642H77.6729L77.6592 180.601C77.6455 180.099 77.764 179.644 78.0146 179.234C78.2699 178.823 78.6276 178.498 79.0879 178.256C79.5527 178.014 80.0905 177.894 80.7012 177.894C81.6217 177.894 82.3555 178.14 82.9023 178.632C83.4492 179.12 83.7227 179.817 83.7227 180.724C83.7227 181.134 83.5973 181.544 83.3467 181.954C83.1006 182.36 82.7292 182.67 82.2324 182.884C82.8294 183.08 83.251 183.387 83.4971 183.807C83.7477 184.226 83.873 184.695 83.873 185.215C83.873 185.821 83.7363 186.343 83.4629 186.78C83.194 187.213 82.8203 187.548 82.3418 187.785C81.8633 188.018 81.3164 188.134 80.7012 188.134ZM90.8867 188.134C90.235 188.134 89.6654 188.027 89.1777 187.813C88.6947 187.594 88.3187 187.275 88.0498 186.856C87.7809 186.432 87.6465 185.912 87.6465 185.297C87.6465 184.736 87.8151 184.242 88.1523 183.814C88.4896 183.385 88.9453 183.071 89.5195 182.87C89.0228 182.679 88.6331 182.389 88.3506 182.002C88.068 181.61 87.9268 181.154 87.9268 180.635C87.9268 180.052 88.0498 179.557 88.2959 179.151C88.542 178.741 88.8861 178.429 89.3281 178.215C89.7702 178.001 90.2852 177.894 90.873 177.894C91.4564 177.894 91.9714 178.001 92.418 178.215C92.8646 178.429 93.2132 178.741 93.4639 179.151C93.7191 179.557 93.8467 180.052 93.8467 180.635C93.8467 181.154 93.7008 181.61 93.4092 182.002C93.1175 182.389 92.7233 182.679 92.2266 182.87C92.8008 183.071 93.2588 183.385 93.6006 183.814C93.9469 184.242 94.1201 184.736 94.1201 185.297C94.1201 185.912 93.9834 186.432 93.71 186.856C93.4365 187.275 93.056 187.594 92.5684 187.813C92.0853 188.027 91.5247 188.134 90.8867 188.134ZM90.8867 187.081C91.2604 187.081 91.5885 187.008 91.8711 186.862C92.1582 186.717 92.3815 186.509 92.541 186.24C92.7005 185.967 92.7803 185.643 92.7803 185.27C92.7803 184.905 92.6982 184.582 92.5342 184.299C92.3701 184.016 92.1445 183.795 91.8574 183.636C91.5703 183.476 91.2422 183.397 90.873 183.397C90.5039 183.397 90.1781 183.476 89.8955 183.636C89.613 183.795 89.3919 184.016 89.2324 184.299C89.0729 184.577 88.9932 184.901 88.9932 185.27C88.9932 185.835 89.1641 186.279 89.5059 186.603C89.8522 186.922 90.3125 187.081 90.8867 187.081ZM90.8867 182.337C91.2012 182.337 91.4792 182.269 91.7207 182.132C91.9668 181.991 92.1582 181.795 92.2949 181.544C92.4316 181.293 92.5 180.999 92.5 180.662C92.5 180.334 92.4294 180.042 92.2881 179.787C92.1468 179.527 91.9531 179.325 91.707 179.179C91.4655 179.028 91.1875 178.953 90.873 178.953C90.3945 178.953 90.0072 179.11 89.7109 179.425C89.4193 179.735 89.2734 180.147 89.2734 180.662C89.2734 181.168 89.4215 181.574 89.7178 181.879C90.014 182.184 90.4036 182.337 90.8867 182.337ZM98.7549 188.134C97.7796 188.134 97.0072 187.794 96.4375 187.115C95.8678 186.436 95.583 185.463 95.583 184.196V181.838C95.583 180.571 95.8656 179.598 96.4307 178.919C96.9958 178.235 97.766 177.894 98.7412 177.894C99.721 177.894 100.496 178.235 101.065 178.919C101.635 179.598 101.92 180.571 101.92 181.838V184.196C101.92 185.468 101.637 186.443 101.072 187.122C100.507 187.797 99.7347 188.134 98.7549 188.134ZM98.7549 187.081C99.3519 187.081 99.8031 186.862 100.108 186.425C100.418 185.987 100.573 185.336 100.573 184.47V181.551C100.573 180.69 100.416 180.042 100.102 179.609C99.7917 179.172 99.3382 178.953 98.7412 178.953C98.1533 178.953 97.7044 179.172 97.3945 179.609C97.0846 180.042 96.9297 180.69 96.9297 181.551V184.47C96.9297 185.331 97.0869 185.983 97.4014 186.425C97.7158 186.862 98.167 187.081 98.7549 187.081ZM106.739 188.134C105.764 188.134 104.992 187.794 104.422 187.115C103.852 186.436 103.567 185.463 103.567 184.196V181.838C103.567 180.571 103.85 179.598 104.415 178.919C104.98 178.235 105.75 177.894 106.726 177.894C107.705 177.894 108.48 178.235 109.05 178.919C109.619 179.598 109.904 180.571 109.904 181.838V184.196C109.904 185.468 109.622 186.443 109.057 187.122C108.492 187.797 107.719 188.134 106.739 188.134ZM106.739 187.081C107.336 187.081 107.787 186.862 108.093 186.425C108.403 185.987 108.558 185.336 108.558 184.47V181.551C108.558 180.69 108.4 180.042 108.086 179.609C107.776 179.172 107.323 178.953 106.726 178.953C106.138 178.953 105.689 179.172 105.379 179.609C105.069 180.042 104.914 180.69 104.914 181.551V184.47C104.914 185.331 105.071 185.983 105.386 186.425C105.7 186.862 106.151 187.081 106.739 187.081ZM111.025 190.834V189.966L112.071 189.775V181.653L110.957 181.462V180.594H113.227L113.35 181.496C113.596 181.159 113.894 180.901 114.245 180.724C114.601 180.546 115.011 180.457 115.476 180.457C116.086 180.457 116.608 180.623 117.041 180.956C117.474 181.284 117.804 181.747 118.032 182.344C118.26 182.936 118.374 183.631 118.374 184.429V184.572C118.374 185.283 118.258 185.905 118.025 186.439C117.798 186.972 117.469 187.389 117.041 187.69C116.613 187.986 116.098 188.134 115.496 188.134C115.04 188.134 114.639 188.059 114.293 187.908C113.951 187.753 113.66 187.526 113.418 187.225V189.775L114.594 189.966V190.834H111.025ZM115.079 187.081C115.717 187.081 116.2 186.849 116.528 186.384C116.856 185.919 117.021 185.315 117.021 184.572V184.429C117.021 183.864 116.948 183.367 116.802 182.939C116.656 182.506 116.437 182.166 116.146 181.92C115.858 181.674 115.498 181.551 115.065 181.551C114.683 181.551 114.354 181.637 114.081 181.811C113.808 181.984 113.587 182.221 113.418 182.522V186.124C113.587 186.429 113.805 186.666 114.074 186.835C114.348 186.999 114.683 187.081 115.079 187.081ZM122.688 188.845L126.844 178.037H127.979L123.829 188.845H122.688ZM132.47 187.99V187.129L133.584 186.938V181.653L132.47 181.462V180.594H133.584H135.32L137.727 186.227H137.768L140.181 180.594H141.869H142.983V181.462L141.869 181.653V186.938L142.983 187.129V187.99H139.408V187.129L140.522 186.938V182.857L140.481 182.843L138.212 187.99H137.282L134.972 182.734L134.931 182.747V186.938L136.045 187.129V187.99H132.47ZM147.468 188.134C146.784 188.134 146.189 187.979 145.684 187.669C145.178 187.355 144.786 186.919 144.508 186.363C144.234 185.807 144.098 185.165 144.098 184.436V184.135C144.098 183.433 144.241 182.806 144.528 182.255C144.82 181.699 145.205 181.262 145.684 180.943C146.167 180.619 146.693 180.457 147.263 180.457C147.928 180.457 148.484 180.594 148.931 180.867C149.382 181.141 149.721 181.526 149.949 182.023C150.177 182.515 150.291 183.096 150.291 183.766V184.607H145.492L145.472 184.641C145.481 185.115 145.563 185.536 145.718 185.905C145.877 186.27 146.105 186.557 146.401 186.767C146.698 186.976 147.053 187.081 147.468 187.081C147.924 187.081 148.322 187.017 148.664 186.89C149.01 186.758 149.309 186.578 149.56 186.35L150.086 187.225C149.822 187.48 149.471 187.696 149.033 187.874C148.6 188.047 148.078 188.134 147.468 188.134ZM145.533 183.554H148.944V183.376C148.944 183.021 148.881 182.704 148.753 182.426C148.63 182.143 148.443 181.922 148.192 181.763C147.946 181.599 147.636 181.517 147.263 181.517C146.962 181.517 146.688 181.606 146.442 181.783C146.196 181.957 145.993 182.193 145.834 182.494C145.674 182.795 145.57 183.137 145.52 183.52L145.533 183.554ZM154.96 188.134C154.29 188.134 153.707 187.979 153.21 187.669C152.713 187.355 152.328 186.919 152.055 186.363C151.781 185.807 151.645 185.165 151.645 184.436V184.149C151.645 183.447 151.777 182.818 152.041 182.262C152.305 181.706 152.686 181.266 153.183 180.943C153.679 180.619 154.272 180.457 154.96 180.457C155.557 180.457 156.079 180.555 156.525 180.751C156.977 180.947 157.355 181.216 157.66 181.558L157.694 183.335H156.642L156.409 182.043C156.254 181.884 156.061 181.756 155.828 181.66C155.596 181.565 155.322 181.517 155.008 181.517C154.607 181.517 154.254 181.635 153.948 181.872C153.647 182.109 153.413 182.426 153.244 182.822C153.076 183.219 152.991 183.661 152.991 184.149V184.436C152.991 184.973 153.069 185.441 153.224 185.837C153.383 186.234 153.609 186.541 153.9 186.76C154.197 186.974 154.548 187.081 154.953 187.081C155.409 187.081 155.787 186.956 156.088 186.705C156.389 186.455 156.573 186.11 156.642 185.673H157.852L157.865 185.714C157.842 186.138 157.717 186.534 157.489 186.903C157.261 187.273 156.936 187.571 156.512 187.799C156.092 188.022 155.575 188.134 154.96 188.134ZM159.403 187.99V186.609H160.75V187.99H159.403ZM40.6631 207.99V207.129L41.7773 206.938V201.653L40.6631 201.462V200.594H48.8799V201.462L47.7656 201.653V206.938L48.8799 207.129V207.99H45.3047V207.129L46.4189 206.938V201.66H43.124V206.938L44.2383 207.129V207.99H40.6631ZM49.8438 210.834V209.966L50.8896 209.775V201.653L49.7754 201.462V200.594H52.0449L52.168 201.496C52.4141 201.159 52.7126 200.901 53.0635 200.724C53.4189 200.546 53.8291 200.457 54.2939 200.457C54.9046 200.457 55.4264 200.623 55.8594 200.956C56.2923 201.284 56.6227 201.747 56.8506 202.344C57.0785 202.936 57.1924 203.631 57.1924 204.429V204.572C57.1924 205.283 57.0762 205.905 56.8438 206.439C56.6159 206.972 56.2878 207.389 55.8594 207.69C55.431 207.986 54.916 208.134 54.3145 208.134C53.8587 208.134 53.4577 208.059 53.1113 207.908C52.7695 207.753 52.4779 207.526 52.2363 207.225V209.775L53.4121 209.966V210.834H49.8438ZM53.8975 207.081C54.5355 207.081 55.0186 206.849 55.3467 206.384C55.6748 205.919 55.8389 205.315 55.8389 204.572V204.429C55.8389 203.864 55.766 203.367 55.6201 202.939C55.4743 202.506 55.2555 202.166 54.9639 201.92C54.6768 201.674 54.3167 201.551 53.8838 201.551C53.501 201.551 53.1729 201.637 52.8994 201.811C52.626 201.984 52.4049 202.221 52.2363 202.522V206.124C52.4049 206.429 52.6237 206.666 52.8926 206.835C53.166 206.999 53.501 207.081 53.8975 207.081ZM58.6826 207.99V207.129L59.7969 206.938V201.653L58.6826 201.462V200.594H61.1367H62.251V201.462L61.1367 201.653V205.83L61.1777 205.844L64.4385 200.594H65.7852H66.8994V201.462L65.7852 201.653V206.938L66.8994 207.129V207.99H63.3242V207.129L64.4385 206.938V202.754L64.3975 202.74L61.1367 207.99H58.6826ZM74.6719 208.134C74.0658 208.134 73.5257 208.025 73.0518 207.806C72.5778 207.582 72.2064 207.268 71.9375 206.862C71.6732 206.452 71.5479 205.967 71.5615 205.406L71.582 205.365H72.8672C72.8672 205.716 72.9401 206.019 73.0859 206.275C73.2318 206.53 73.4391 206.728 73.708 206.869C73.9769 207.011 74.2982 207.081 74.6719 207.081C75.2415 207.081 75.6882 206.926 76.0117 206.616C76.3353 206.306 76.4971 205.848 76.4971 205.242C76.4971 204.627 76.3535 204.174 76.0664 203.882C75.7793 203.59 75.3258 203.444 74.7061 203.444H73.5303V202.392H74.7061C75.1025 202.392 75.4215 202.326 75.6631 202.193C75.9046 202.057 76.0778 201.863 76.1826 201.612C76.292 201.357 76.3467 201.052 76.3467 200.696C76.3467 200.127 76.2054 199.694 75.9229 199.398C75.6403 199.101 75.2233 198.953 74.6719 198.953C74.321 198.953 74.0156 199.024 73.7559 199.165C73.4961 199.302 73.2933 199.498 73.1475 199.753C73.0062 200.004 72.9355 200.3 72.9355 200.642H71.6436L71.6299 200.601C71.6162 200.099 71.7347 199.644 71.9854 199.234C72.2406 198.823 72.5983 198.498 73.0586 198.256C73.5234 198.014 74.0612 197.894 74.6719 197.894C75.5924 197.894 76.3262 198.14 76.873 198.632C77.4199 199.12 77.6934 199.817 77.6934 200.724C77.6934 201.134 77.568 201.544 77.3174 201.954C77.0713 202.36 76.6999 202.67 76.2031 202.884C76.8001 203.08 77.2217 203.387 77.4678 203.807C77.7184 204.226 77.8438 204.695 77.8438 205.215C77.8438 205.821 77.707 206.343 77.4336 206.78C77.1647 207.213 76.791 207.548 76.3125 207.785C75.834 208.018 75.2871 208.134 74.6719 208.134ZM82.7588 207.99V207.129L83.873 206.938V201.653L82.7588 201.462V200.594H86.334V201.462L85.2197 201.653V203.718H85.9307L87.4756 201.647C87.7536 201.259 88.0247 200.965 88.2891 200.765C88.5579 200.564 88.8587 200.464 89.1914 200.464C89.401 200.464 89.5742 200.491 89.7109 200.546C89.8477 200.596 90.0026 200.676 90.1758 200.785L89.9844 201.701C89.7884 201.669 89.6745 201.651 89.6426 201.647C89.6152 201.642 89.556 201.64 89.4648 201.64C89.2962 201.64 89.1299 201.701 88.9658 201.824C88.8063 201.947 88.665 202.093 88.542 202.262L87.1133 204.114L89.4443 206.958L90.3945 207.129V207.99H88.5967L86.0947 204.853H85.2197V206.938L86.334 207.129V207.99H82.7588ZM94.2295 208.134C93.5459 208.134 92.9557 207.974 92.459 207.655C91.9668 207.332 91.5863 206.887 91.3174 206.322C91.0485 205.753 90.9141 205.103 90.9141 204.374V204.224C90.9141 203.495 91.0485 202.847 91.3174 202.282C91.5863 201.713 91.9668 201.266 92.459 200.943C92.9557 200.619 93.5413 200.457 94.2158 200.457C94.8994 200.457 95.4873 200.619 95.9795 200.943C96.4762 201.266 96.859 201.71 97.1279 202.276C97.3968 202.841 97.5312 203.49 97.5312 204.224V204.374C97.5312 205.108 97.3968 205.76 97.1279 206.329C96.859 206.894 96.4785 207.336 95.9863 207.655C95.4941 207.974 94.9085 208.134 94.2295 208.134ZM94.2295 207.081C94.6579 207.081 95.0156 206.965 95.3027 206.733C95.5944 206.496 95.8132 206.174 95.959 205.769C96.1094 205.359 96.1846 204.894 96.1846 204.374V204.224C96.1846 203.704 96.1094 203.242 95.959 202.836C95.8132 202.426 95.5944 202.105 95.3027 201.872C95.0111 201.635 94.6488 201.517 94.2158 201.517C93.7874 201.517 93.4274 201.635 93.1357 201.872C92.8441 202.105 92.6253 202.426 92.4795 202.836C92.3337 203.242 92.2607 203.704 92.2607 204.224V204.374C92.2607 204.894 92.3337 205.359 92.4795 205.769C92.6253 206.174 92.8441 206.496 93.1357 206.733C93.432 206.965 93.7965 207.081 94.2295 207.081ZM98.9053 207.99V207.129L100.02 206.938V201.653L98.9053 201.462V200.594H100.02H101.756L104.162 206.227H104.203L106.616 200.594H108.305H109.419V201.462L108.305 201.653V206.938L109.419 207.129V207.99H105.844V207.129L106.958 206.938V202.857L106.917 202.843L104.647 207.99H103.718L101.407 202.734L101.366 202.747V206.938L102.48 207.129V207.99H98.9053ZM112.926 208.134C112.156 208.134 111.57 207.947 111.169 207.573C110.768 207.195 110.567 206.664 110.567 205.981C110.567 205.511 110.695 205.103 110.95 204.757C111.21 204.406 111.584 204.135 112.071 203.943C112.559 203.748 113.142 203.65 113.821 203.65H115.141V202.925C115.141 202.478 115.004 202.132 114.73 201.886C114.462 201.64 114.081 201.517 113.589 201.517C113.279 201.517 113.01 201.555 112.782 201.633C112.554 201.706 112.347 201.808 112.16 201.941L112.017 202.973H110.978V201.277C111.31 201.009 111.698 200.806 112.14 200.669C112.582 200.528 113.072 200.457 113.609 200.457C114.507 200.457 115.211 200.671 115.722 201.1C116.232 201.528 116.487 202.141 116.487 202.939V206.5C116.487 206.596 116.487 206.689 116.487 206.78C116.492 206.872 116.499 206.963 116.508 207.054L117.226 207.129V207.99H115.291C115.25 207.79 115.218 207.61 115.195 207.45C115.173 207.291 115.157 207.131 115.147 206.972C114.888 207.304 114.562 207.582 114.17 207.806C113.783 208.025 113.368 208.134 112.926 208.134ZM113.124 207.006C113.571 207.006 113.979 206.899 114.348 206.685C114.717 206.47 114.981 206.213 115.141 205.912V204.572H113.773C113.154 204.572 112.689 204.72 112.379 205.017C112.069 205.313 111.914 205.643 111.914 206.008C111.914 206.332 112.014 206.58 112.215 206.753C112.415 206.922 112.718 207.006 113.124 207.006ZM118.429 207.99V207.129L119.543 206.938V201.653L118.429 201.462V200.594H122.004V201.462L120.89 201.653V203.793H124.178V201.653L123.063 201.462V200.594H124.178H125.531H126.646V201.462L125.531 201.653V206.938L126.646 207.129V207.99H123.063V207.129L124.178 206.938V204.846H120.89V206.938L122.004 207.129V207.99H118.429ZM127.89 210.164L127.76 206.938H128.341C128.532 206.719 128.699 206.502 128.84 206.288C128.981 206.069 129.104 205.83 129.209 205.57C129.314 205.306 129.398 204.998 129.462 204.648C129.53 204.292 129.58 203.868 129.612 203.376L129.681 201.647L128.607 201.462V200.594H134.555H135.669V201.462L134.555 201.653V206.938H135.539L135.402 210.164H134.192V207.99H129.1V210.164H127.89ZM129.893 206.938H133.208V201.79H131.021L130.959 203.376C130.909 204.196 130.79 204.896 130.604 205.475C130.421 206.054 130.184 206.541 129.893 206.938ZM140.099 208.134C139.415 208.134 138.82 207.979 138.314 207.669C137.809 207.355 137.417 206.919 137.139 206.363C136.865 205.807 136.729 205.165 136.729 204.436V204.135C136.729 203.433 136.872 202.806 137.159 202.255C137.451 201.699 137.836 201.262 138.314 200.943C138.798 200.619 139.324 200.457 139.894 200.457C140.559 200.457 141.115 200.594 141.562 200.867C142.013 201.141 142.352 201.526 142.58 202.023C142.808 202.515 142.922 203.096 142.922 203.766V204.607H138.123L138.103 204.641C138.112 205.115 138.194 205.536 138.349 205.905C138.508 206.27 138.736 206.557 139.032 206.767C139.328 206.976 139.684 207.081 140.099 207.081C140.554 207.081 140.953 207.017 141.295 206.89C141.641 206.758 141.94 206.578 142.19 206.35L142.717 207.225C142.452 207.48 142.102 207.696 141.664 207.874C141.231 208.047 140.709 208.134 140.099 208.134ZM138.164 203.554H141.575V203.376C141.575 203.021 141.511 202.704 141.384 202.426C141.261 202.143 141.074 201.922 140.823 201.763C140.577 201.599 140.267 201.517 139.894 201.517C139.593 201.517 139.319 201.606 139.073 201.783C138.827 201.957 138.624 202.193 138.465 202.494C138.305 202.795 138.201 203.137 138.15 203.52L138.164 203.554Z" fill="white"></path>
  <defs>
    <linearGradient id="paint0_linear_921_506" x1="144.107" y1="33.4507" x2="45.3991" y2="131.731" gradientUnits="userSpaceOnUse">
      <stop stop-color="#E6E6E6"></stop>
      <stop offset="0.03" stop-color="#E9E9E9"></stop>
      <stop offset="0.21" stop-color="#F6F6F6"></stop>
      <stop offset="0.45" stop-color="#FDFDFD"></stop>
      <stop offset="1" stop-color="white"></stop>
    </linearGradient>
    <clipPath id="clip0_921_506">
      <rect width="29.9999" height="29.9987" fill="white" transform="translate(110 65.9951)"></rect>
    </clipPath>
    <clipPath id="clip1_921_506">
      <rect width="29.9999" height="29.9987" fill="white" transform="translate(80 65.9951)"></rect>
    </clipPath>
    <clipPath id="clip2_921_506">
      <rect width="29.9999" height="29.9987" fill="white" transform="translate(50 65.9951)"></rect>
    </clipPath>
  </defs>
</svg>
