<?xml version="1.0" encoding="UTF-8"?>
<svg xmlns="http://www.w3.org/2000/svg" width="254" height="252" viewBox="0 0 254 252" fill="none">
  <path opacity="0.03" d="M215.035 231.666H155.79V204.661L197.664 99.862H226.641L185.891 203.377H215.035V163.942H240.586V71.8243C240.585 66.8722 238.626 62.1232 235.139 58.6217C231.653 55.1203 226.924 53.1533 221.993 53.1533H149.858C147.032 49.0316 143.838 45.1768 140.316 41.6367C108.397 9.57879 56.6468 9.57879 24.7303 41.6367C-2.55144 69.0372 -6.50774 110.985 12.8484 142.613V232.777C12.8484 237.729 14.8069 242.478 18.2932 245.98C21.7795 249.482 26.5079 251.45 31.4386 251.451H215.04L215.035 231.666Z" fill="#EAEAEA"></path>
  <path opacity="0.06" d="M215.411 231.164H156.161V204.16L198.035 99.3577H227.017L186.267 202.875H215.411V163.44H240.962V71.3226C240.96 66.3723 239.001 61.6253 235.515 58.1252C232.03 54.625 227.303 52.6581 222.374 52.6567H150.229C147.402 48.535 144.208 44.6802 140.686 41.1401C108.767 9.08221 57.0201 9.08221 25.1011 41.1401C-2.18586 68.5354 -6.1345 110.483 13.2088 142.111V232.275C13.2088 237.227 15.1673 241.977 18.6536 245.479C22.1398 248.98 26.8683 250.948 31.799 250.949H215.411V231.164Z" fill="#EAEAEA"></path>
  <path opacity="0.08" d="M215.778 230.661H156.533V203.657L198.41 98.855H227.386L186.631 202.377H215.775V162.937H241.326V70.8199C241.327 68.3672 240.847 65.9384 239.913 63.672C238.98 61.4057 237.611 59.3463 235.884 57.6115C234.158 55.8767 232.108 54.5005 229.852 53.5614C227.596 52.6223 225.178 52.1388 222.736 52.1385H150.601C147.775 48.0175 144.581 44.1636 141.059 40.6245C109.14 8.56658 57.3925 8.56658 25.4735 40.6245C-1.80823 68.025 -5.7646 109.973 13.5916 141.601V231.773C13.5916 236.725 15.5505 241.475 19.0373 244.977C22.5241 248.479 27.2532 250.446 32.1843 250.446H215.783L215.778 230.661Z" fill="#EAEAEA"></path>
  <path opacity="0.11" d="M216.149 230.159H156.904V203.155L198.781 98.3526H227.757L187.002 201.859H216.146V162.435H241.697V70.3175C241.697 65.3654 239.739 60.6161 236.252 57.1142C232.766 53.6122 228.038 51.6445 223.107 51.6438H150.969C148.144 47.5223 144.95 43.6683 141.427 40.1298C109.51 8.07195 57.7607 8.07195 25.8443 40.1298C-1.43748 67.5277 -5.39642 109.478 13.9597 141.106V231.27C13.9604 236.222 15.9197 240.971 19.4064 244.473C22.8931 247.974 27.6219 249.941 32.5525 249.941H216.151L216.149 230.159Z" fill="#EAEAEA"></path>
  <path opacity="0.14" d="M216.523 229.656H157.276V202.652L199.163 97.8498H228.14L187.39 201.367H216.534V161.932H242.082V69.8147C242.082 64.8626 240.124 60.1133 236.637 56.6114C233.151 53.1095 228.423 51.1418 223.492 51.1411H151.354C148.528 47.0192 145.334 43.1644 141.812 39.6245C109.895 7.56918 58.1455 7.56918 26.2291 39.6245C-1.05271 67.025 -5.01166 108.975 14.3445 140.603V230.767C14.3452 235.719 16.3044 240.468 19.7912 243.97C23.2779 247.471 28.0067 249.438 32.9373 249.438H216.539L216.523 229.656Z" fill="#EAEAEA"></path>
  <path opacity="0.17" d="M216.894 229.154H157.639V202.149L199.524 97.3474H228.5L187.75 200.862H216.894V161.43H242.443V69.3123C242.443 64.3602 240.484 59.6109 236.998 56.1089C233.512 52.607 228.783 50.6393 223.852 50.6386H151.707C148.88 46.5175 145.686 42.6627 142.164 39.122C110.248 7.06674 58.4984 7.06674 26.5819 39.122C-0.699838 66.5225 -4.6562 108.473 14.7 140.101V230.265C14.7 235.217 16.6586 239.966 20.1449 243.467C23.6313 246.969 28.3598 248.936 33.2902 248.936H216.891L216.894 229.154Z" fill="#EAEAEA"></path>
  <path opacity="0.19" d="M217.265 228.651H158.021V201.647L199.895 96.845H228.871L188.121 200.36H217.265V160.932H242.816V68.8099C242.816 63.8573 240.857 59.1076 237.371 55.6056C233.884 52.1036 229.155 50.1362 224.224 50.1362H152.089C149.261 46.0155 146.067 42.1609 142.546 38.6196C110.627 6.5643 58.8798 6.5643 26.9608 38.6196C-0.320931 66.0201 -4.2773 107.97 15.0789 139.598V229.762C15.0789 234.714 17.0375 239.463 20.5238 242.965C24.0102 246.466 28.7387 248.434 33.6691 248.434H217.27L217.265 228.651Z" fill="#EAEAEA"></path>
  <path opacity="0.22" d="M217.637 228.148H158.392V201.144L200.267 96.3421H229.245L188.496 199.857H217.639V160.414H243.191V68.3069C243.191 65.8546 242.71 63.4262 241.776 61.1604C240.842 58.8947 239.472 56.836 237.746 55.1019C236.019 53.3678 233.969 51.9923 231.713 51.054C229.457 50.1157 227.04 49.6329 224.598 49.6333H152.46C149.633 45.5126 146.439 41.6579 142.918 38.1167C110.999 6.06137 59.2516 6.06137 27.3326 38.1167C0.0560198 65.5172 -3.91066 107.468 15.4455 139.095V229.26C15.4455 231.712 15.9265 234.14 16.8609 236.405C17.7953 238.671 19.1649 240.729 20.8914 242.463C22.6179 244.197 24.6676 245.572 26.9233 246.51C29.1791 247.448 31.5968 247.931 34.0383 247.931H217.637V228.148Z" fill="#EAEAEA"></path>
  <path opacity="0.25" d="M218.008 227.646H158.764V200.642L200.641 95.8395H229.617L188.867 199.354H218.011V159.922H243.562V67.8018C243.562 65.3497 243.081 62.9216 242.147 60.6561C241.212 58.3907 239.843 56.3323 238.116 54.5985C236.39 52.8647 234.34 51.4894 232.084 50.5513C229.829 49.6131 227.411 49.1304 224.969 49.1308H152.832C150.006 45.0089 146.812 41.1541 143.289 37.6142C111.373 5.55887 59.623 5.55887 27.7066 37.6142C0.424828 65.0146 -3.53412 106.965 15.8221 138.59V228.754C15.8221 233.707 17.7809 238.457 21.2678 241.959C24.7546 245.461 29.4837 247.428 34.4148 247.428H218.014L218.008 227.646Z" fill="#EAEAEA"></path>
  <path opacity="0.28" d="M218.379 227.143H159.135V200.139L201.012 95.3371H229.988L189.238 198.852H218.382V159.417H243.933V67.2994C243.933 62.3475 241.974 57.5985 238.488 54.097C235.002 50.5954 230.273 48.6283 225.343 48.6283H153.203C150.377 44.5064 147.183 40.6516 143.66 37.1117C111.744 5.05643 59.994 5.05643 28.0776 37.1117C0.795882 64.5122 -3.163 106.463 16.1932 138.088V228.252C16.1932 233.205 18.152 237.954 21.6388 241.456C25.1256 244.958 29.8548 246.926 34.7859 246.926H218.385L218.379 227.143Z" fill="#EAEAEA"></path>
  <path opacity="0.31" d="M218.764 226.638H159.509V199.637L201.383 94.8347H230.37L189.62 198.349H218.764V158.914H244.297V66.797C244.297 61.8451 242.338 57.096 238.852 53.5945C235.366 50.093 230.637 48.1259 225.707 48.1259H153.577C150.75 44.0047 147.556 40.15 144.034 36.6093C112.118 4.55398 60.3682 4.55398 28.4518 36.6093C1.16228 64.0098 -2.78119 105.958 16.5621 137.585V227.763C16.5618 230.215 17.0423 232.643 17.9764 234.908C18.9105 237.174 20.2798 239.233 22.0061 240.967C23.7324 242.701 25.7819 244.076 28.0375 245.015C30.2932 245.953 32.7108 246.436 35.1523 246.436H218.764V226.638Z" fill="#EAEAEA"></path>
  <path opacity="0.33" d="M219.125 226.136H159.88V199.132L201.754 94.3323H230.73L189.981 197.847H219.125V158.412H244.676V66.2946C244.675 61.3424 242.716 56.5934 239.229 53.092C235.742 49.5905 231.014 47.6235 226.083 47.6235H153.948C151.121 43.5023 147.927 39.6476 144.405 36.1069C112.486 4.04901 60.7392 4.04901 28.8202 36.1069C1.53844 63.5074 -2.41792 105.455 16.9383 137.083V227.245C16.9383 232.197 18.8968 236.946 22.383 240.448C25.8693 243.95 30.5978 245.917 35.5285 245.918H219.125V226.136Z" fill="#EAEAEA"></path>
  <path opacity="0.36" d="M219.497 225.633H160.252V198.629L202.126 93.8423H231.105L190.355 197.357H219.499V157.909H245.05V65.7916C245.05 60.8395 243.09 56.0905 239.604 52.589C236.117 49.0876 231.388 47.1206 226.458 47.1206H154.32C151.494 42.9989 148.3 39.1441 144.777 35.604C112.858 3.54608 61.1112 3.54608 29.1922 35.604C1.90526 63.0174 -2.0511 104.952 17.3051 136.583V226.744C17.3051 231.696 19.2636 236.446 22.7499 239.948C26.2362 243.449 30.9646 245.417 35.8953 245.418H219.497V225.633Z" fill="#EAEAEA"></path>
  <path opacity="0.39" d="M219.868 225.131H160.623V198.126L202.5 93.3243H231.476L190.727 196.842H219.87V157.406H245.422V65.2892C245.422 62.8371 244.941 60.4089 244.006 58.1435C243.072 55.878 241.702 53.8196 239.976 52.0858C238.249 50.352 236.2 48.9768 233.944 48.0386C231.688 47.1005 229.27 46.6178 226.829 46.6181H154.691C151.867 42.4952 148.672 38.6403 145.149 35.1015C113.232 3.04363 61.4824 3.04363 29.5634 35.1015C2.2791 62.4994 -1.67979 104.463 17.6764 136.078V226.242C17.6771 231.194 19.6361 235.943 23.1228 239.445C26.6095 242.947 31.3382 244.915 36.2691 244.915H219.868V225.131Z" fill="#EAEAEA"></path>
  <path opacity="0.42" d="M220.239 224.628H160.992V197.624L202.869 92.8219H231.845L191.095 196.339H220.239V156.904H245.79V64.7868C245.79 59.8347 243.832 55.0854 240.345 51.5835C236.859 48.0815 232.131 46.1138 227.2 46.1131H155.06C152.234 41.9916 149.04 38.1376 145.517 34.5991C113.601 2.54125 61.851 2.54125 29.9346 34.5991C2.65023 61.9996 -1.30872 103.945 18.0475 135.575V225.739C18.0481 230.692 20.0073 235.441 23.4939 238.943C26.9806 242.445 31.7094 244.412 36.6403 244.413H220.239V224.628Z" fill="#EAEAEA"></path>
  <path opacity="0.44" d="M220.613 224.136H161.368V197.122L203.243 92.3195H232.219L191.469 195.837H220.613V156.402H246.161V64.2844C246.161 59.3323 244.203 54.5829 240.717 51.081C237.23 47.5791 232.502 45.6114 227.571 45.6107H155.436C152.61 41.4898 149.416 37.6359 145.894 34.0967C113.977 2.03881 62.2278 2.03881 30.3114 34.0967C3.02966 61.4946 -0.926701 103.445 18.4295 135.073V225.237C18.4295 230.189 20.3881 234.938 23.8744 238.439C27.3607 241.941 32.0892 243.908 37.0196 243.908H220.621L220.613 224.136Z" fill="#EAEAEA"></path>
  <path opacity="0.47" d="M220.984 223.618H161.739V196.619L203.614 91.8169H232.59L191.84 195.334H220.984V155.899H246.535V63.7948C246.535 58.8424 244.575 54.0931 241.089 50.5913C237.602 47.0894 232.873 45.1218 227.942 45.1211H155.807C152.98 41.0004 149.786 37.1458 146.265 33.6045C114.346 1.54923 62.5986 1.54923 30.6796 33.6045C3.39782 61.005 -0.558548 102.955 18.7976 134.583V224.734C18.7976 229.686 20.7563 234.435 24.2426 237.937C27.7289 241.438 32.4574 243.405 37.3878 243.405H220.989L220.984 223.618Z" fill="#EAEAEA"></path>
  <path opacity="0.5" d="M221.355 223.12H162.111V196.116L203.985 91.3142H232.961L192.199 194.829H221.343V155.396H246.894V63.2765C246.892 58.3255 244.934 53.5776 241.448 50.0765C237.963 46.5754 233.236 44.6075 228.306 44.6054H156.179C153.351 40.4847 150.157 36.6301 146.636 33.0888C114.717 1.03354 62.97 1.03354 31.051 33.0888C3.76411 60.4893 -0.202509 102.44 19.164 134.068V224.232C19.164 226.684 19.6448 229.111 20.579 231.377C21.5133 233.642 22.8826 235.7 24.6089 237.434C26.3351 239.168 28.3845 240.543 30.64 241.482C32.8955 242.42 35.3128 242.903 37.7541 242.903H221.355V223.12Z" fill="#EAEAEA"></path>
  <path opacity="0.53" d="M221.727 222.618H162.483V195.613L204.36 90.8115H233.336L192.586 194.326H221.73V154.894H247.281V62.7764C247.281 60.3242 246.8 57.8962 245.865 55.6308C244.93 53.3655 243.56 51.3073 241.834 49.5738C240.107 47.8402 238.057 46.4652 235.801 45.5274C233.545 44.5895 231.127 44.1072 228.686 44.1079H156.551C153.725 39.986 150.531 36.1312 147.008 32.5913C115.092 0.535981 63.342 0.535981 31.423 32.5913C4.14376 59.9917 0.184812 101.942 19.541 133.57V223.729C19.541 226.181 20.022 228.609 20.9564 230.875C21.8908 233.14 23.2603 235.198 24.9868 236.932C26.7134 238.666 28.7631 240.041 31.0188 240.979C33.2746 241.918 35.6922 242.4 38.1337 242.4H221.733L221.727 222.618Z" fill="#EAEAEA"></path>
  <path opacity="0.56" d="M222.099 222.115H162.854V195.124L204.731 90.3219H233.707L192.952 193.829H222.096V154.391H247.65V62.2738C247.651 59.8208 247.172 57.3915 246.238 55.1247C245.305 52.858 243.936 50.7982 242.209 49.063C240.483 47.3279 238.433 45.9514 236.177 45.0123C233.92 44.0732 231.502 43.5898 229.06 43.5898H156.922C154.096 39.4679 150.902 35.6131 147.379 32.0732C115.463 0.0179138 63.7132 0.0179138 31.7967 32.0732C4.50982 59.4841 0.550878 101.434 19.9148 133.062V223.226C19.9155 228.179 21.8746 232.928 25.3614 236.429C28.8481 239.93 33.5769 241.897 38.5076 241.897H222.106L222.099 222.115Z" fill="#EAEAEA"></path>
  <path opacity="0.58" d="M222.473 221.613H163.228V194.606L205.095 89.8064H234.071L193.324 193.311H222.468V153.889H248.016V61.7687C248.016 56.8168 246.058 52.0678 242.571 48.5662C239.085 45.0647 234.357 43.0976 229.426 43.0976H157.296C154.469 38.9764 151.275 35.1217 147.754 31.581C115.837 -0.474275 64.0874 -0.474275 32.1709 31.581C4.88915 58.9815 0.930206 100.932 20.289 132.557V222.721C20.2886 225.173 20.7692 227.602 21.7033 229.867C22.6374 232.133 24.0067 234.191 25.733 235.925C27.4593 237.659 29.5088 239.035 31.7644 239.973C34.0201 240.912 36.4377 241.395 38.8792 241.395H222.481L222.473 221.613Z" fill="#EAEAEA"></path>
  <path opacity="0.61" d="M222.843 221.11H163.599V194.106L205.473 89.304H234.449L193.7 192.819H222.843V153.384H248.395V61.2663C248.394 56.3142 246.435 51.5651 242.948 48.0637C239.461 44.5623 234.733 42.5952 229.802 42.5952H157.667C154.839 38.4745 151.645 34.6199 148.124 31.0786C116.2 -0.963714 64.453 -0.963714 32.534 31.0786C5.25227 58.4791 1.29597 100.429 20.6521 132.055V222.219C20.6518 224.671 21.1324 227.099 22.0665 229.365C23.0006 231.63 24.3699 233.689 26.0961 235.423C27.8224 237.157 29.8719 238.533 32.1275 239.471C34.3831 240.41 36.8008 240.893 39.2423 240.893H222.843V221.11Z" fill="#EAEAEA"></path>
  <path opacity="0.64" d="M223.215 220.605H163.971V193.604L205.845 88.8015H234.821L194.071 192.316H223.215V152.881H248.766V60.7638C248.766 55.8117 246.807 51.0626 243.32 47.5612C239.833 44.0598 235.104 42.0927 230.174 42.0927H158.039C155.211 37.972 152.017 34.1174 148.496 30.5761C116.572 -1.48176 64.825 -1.48176 32.9061 30.5761C5.62439 57.9766 1.66803 99.9244 21.0242 131.552V221.716C21.0238 224.169 21.5044 226.597 22.4385 228.862C23.3726 231.128 24.7419 233.186 26.4682 234.921C28.1945 236.655 30.244 238.03 32.4996 238.969C34.7552 239.907 37.1728 240.39 39.6143 240.39H223.215V220.605Z" fill="#EAEAEA"></path>
  <path opacity="0.67" d="M223.587 220.103H164.345V193.099L206.219 88.2991H235.195L194.445 191.814H223.589V152.384H249.14V60.2614C249.14 57.8092 248.66 55.3811 247.725 53.1157C246.791 50.8502 245.421 48.7918 243.695 47.058C241.968 45.3242 239.918 43.9489 237.663 43.0108C235.407 42.0726 232.989 41.5899 230.548 41.5903H158.413C155.586 37.4685 152.392 33.6137 148.87 30.0737C116.954 -1.9842 65.2038 -1.9842 33.2848 30.0737C5.98757 57.4742 2.03894 99.4219 21.3951 131.05V221.214C21.3951 223.666 21.876 226.094 22.8104 228.36C23.7448 230.626 25.1143 232.684 26.8408 234.418C28.5673 236.152 30.617 237.528 32.8728 238.466C35.1285 239.405 37.5463 239.888 39.9879 239.888H223.587V220.103Z" fill="#EAEAEA"></path>
  <path opacity="0.69" d="M223.958 219.601H164.713V192.597L206.59 87.7971H235.566L194.817 191.312H223.961V151.866H249.512V59.7594C249.512 54.8075 247.553 50.0585 244.067 46.557C240.58 43.0555 235.852 41.0883 230.922 41.0883H158.784C155.959 36.9654 152.765 33.1105 149.241 29.5717C117.325 -2.48615 65.5752 -2.48615 33.6587 29.5717C6.37697 56.9722 2.41803 98.92 21.7742 130.548V220.712C21.7749 225.664 23.734 230.414 27.2207 233.915C30.7073 237.417 35.4361 239.385 40.367 239.386H223.966L223.958 219.601Z" fill="#EAEAEA"></path>
  <path opacity="0.72" d="M224.332 219.098H165.085V192.094L206.962 87.2916H235.938L195.189 190.809H224.332V151.374H249.881V59.2565C249.881 54.3046 247.922 49.5555 244.436 46.054C240.95 42.5525 236.221 40.5854 231.291 40.5854H159.153C156.328 36.4625 153.134 32.6076 149.611 29.0688C117.694 -2.98908 65.9443 -2.98908 34.0279 29.0688C6.74611 56.4693 2.78716 98.417 22.1434 130.045V220.209C22.144 225.161 24.1032 229.911 27.5898 233.413C31.0765 236.914 35.8053 238.882 40.7362 238.883H224.338L224.332 219.098Z" fill="#EAEAEA"></path>
  <path opacity="0.75" d="M224.696 218.595H165.459V191.591L207.333 86.7891H236.302L195.552 190.306H224.696V150.871H250.247V58.754C250.246 53.8026 248.288 49.054 244.802 45.5523C241.317 42.0507 236.59 40.0824 231.66 40.0804H159.527C156.701 35.9595 153.507 32.1056 149.984 28.5664C118.068 -3.49152 66.3182 -3.49152 34.4018 28.5664C7.11232 55.9668 3.15085 97.9146 22.5122 129.542V219.707C22.5122 224.659 24.4707 229.408 27.957 232.91C31.4432 236.412 36.1717 238.38 41.1023 238.38H224.696V218.595Z" fill="#EAEAEA"></path>
  <path opacity="0.78" d="M225.075 218.093H165.83V191.089L207.705 86.2867H236.681L195.931 189.804H225.075V150.369H250.626V58.2516C250.625 53.2992 248.666 48.5499 245.18 45.0481C241.693 41.5462 236.964 39.5786 232.033 39.5779H159.898C157.071 35.4576 153.877 31.6037 150.356 28.0639C118.437 -3.99396 66.6894 -3.99396 34.7704 28.0639C7.48864 55.4618 3.53227 97.4121 22.8885 129.04V219.214C22.8885 224.167 24.847 228.916 28.3332 232.418C31.8195 235.92 36.548 237.887 41.4787 237.888H225.08L225.075 218.093Z" fill="#EAEAEA"></path>
  <path opacity="0.81" d="M225.446 217.59H166.202V190.586L208.079 85.784H237.055L196.305 189.301H225.449V149.866H251.003V57.7488C251.003 52.7963 249.044 48.0465 245.557 44.5445C242.07 41.0426 237.341 39.0752 232.41 39.0752H160.27C157.443 34.9539 154.249 31.0991 150.727 27.5586C118.808 -4.49674 67.0608 -4.49674 35.1418 27.5586C7.85482 54.959 3.89846 96.9094 23.2676 128.537V218.696C23.2662 223.645 25.2214 228.393 28.7034 231.895C32.1854 235.397 36.9094 237.367 41.8371 237.372H225.436L225.446 217.59Z" fill="#EAEAEA"></path>
  <path opacity="0.83" d="M225.818 217.088H166.573V190.083L208.448 85.2944H237.424L196.674 188.809H225.818V149.364H251.369V57.2464C251.369 52.2943 249.411 47.5449 245.924 44.043C242.438 40.5411 237.71 38.5734 232.779 38.5727H160.641C157.815 34.4508 154.621 30.596 151.099 27.0561C119.182 -4.99917 67.4325 -4.99917 35.5161 27.0561C8.22914 54.4695 4.27019 96.4069 23.6264 128.035V218.199C23.6271 223.151 25.5863 227.9 29.073 231.402C32.5598 234.903 37.2885 236.87 42.2192 236.87H225.818V217.088Z" fill="#EAEAEA"></path>
  <path opacity="0.86" d="M226.191 216.585H166.944V189.581L208.821 84.7765H237.797L197.048 188.291H226.191V148.861H251.74V56.7439C251.74 54.2918 251.26 51.8636 250.326 49.598C249.391 47.3325 248.022 45.2739 246.296 43.5398C244.57 41.8058 242.52 40.4302 240.265 39.4918C238.009 38.5533 235.591 38.0703 233.15 38.0703H161.012C158.186 33.9484 154.992 30.0936 151.47 26.5537C119.553 -5.50162 67.8035 -5.50162 35.8871 26.5537C8.6002 53.9516 4.64132 95.9149 23.9975 127.532V217.696C23.9982 222.649 25.9573 227.398 29.4441 230.899C32.9308 234.401 37.6595 236.368 42.5902 236.368H226.191V216.585Z" fill="#EAEAEA"></path>
  <path opacity="0.89" d="M226.563 216.083H167.318V189.079L209.192 84.2766H238.169L197.419 187.791H226.563V148.359H252.111V56.2415C252.112 53.7894 251.631 51.3612 250.697 49.0956C249.763 46.83 248.394 44.7714 246.667 43.0374C244.941 41.3033 242.892 39.9278 240.636 38.9893C238.38 38.0509 235.963 37.5678 233.521 37.5678H161.386C158.559 33.4466 155.365 29.5919 151.844 26.0512C119.927 -6.00406 68.1774 -6.00406 36.261 26.0512C8.97145 53.4517 5.01514 95.3969 24.3713 127.03V217.194C24.3713 222.146 26.3299 226.895 29.8163 230.396C33.3026 233.898 38.0311 235.865 42.9615 235.865H226.563V216.083Z" fill="#EAEAEA"></path>
  <path opacity="0.92" d="M226.934 215.588H167.697V188.576L209.572 83.7742H238.548L197.798 187.289H226.942V147.856H252.493V55.7365C252.493 50.7843 250.533 46.0353 247.047 42.5339C243.56 39.0324 238.831 37.0654 233.901 37.0654H161.766C158.938 32.9447 155.744 29.09 152.223 25.5488C120.304 -6.5065 68.5567 -6.5065 36.6377 25.5488C9.34042 52.9493 5.38662 94.8996 24.7428 126.525V216.689C24.7425 219.141 25.2231 221.569 26.1572 223.835C27.0913 226.1 28.4605 228.159 30.1868 229.893C31.9131 231.627 33.9626 233.003 36.2183 233.941C38.4739 234.88 40.8915 235.363 43.333 235.363H226.934V215.588Z" fill="#EAEAEA"></path>
  <path opacity="0.94" d="M227.305 215.07H168.061V188.074L209.935 83.2715H238.914L198.164 186.786H227.308V147.354H252.859V55.2467C252.859 52.7946 252.378 50.3665 251.444 48.101C250.509 45.8356 249.14 43.7772 247.413 42.0434C245.687 40.3096 243.637 38.9343 241.381 37.9962C239.125 37.058 236.708 36.5753 234.266 36.5756H162.129C159.301 32.455 156.107 28.6003 152.586 25.059C120.667 -6.99625 68.9199 -6.99625 37.0009 25.059C9.71911 52.4595 5.76274 94.4099 25.1189 126.035V216.186C25.1186 218.639 25.5993 221.067 26.5335 223.333C27.4678 225.599 28.8373 227.657 30.5639 229.391C32.2904 231.125 34.3403 232.501 36.5962 233.439C38.8521 234.378 41.27 234.86 43.7117 234.86H227.31L227.305 215.07Z" fill="#EAEAEA"></path>
  <path opacity="0.97" d="M227.677 214.573H168.433V187.571L210.31 82.7689H239.286L198.536 186.284H227.68V146.848H253.231V54.7287C253.231 52.2765 252.75 49.8484 251.816 47.583C250.881 45.3175 249.512 43.2591 247.785 41.5253C246.059 39.7915 244.009 38.4162 241.753 37.4781C239.497 36.5399 237.08 36.0572 234.638 36.0576H162.501C159.675 31.9357 156.481 28.0809 152.958 24.541C121.042 -7.51431 69.2919 -7.51431 37.3755 24.541C10.0937 51.9415 6.13485 93.8892 25.491 125.517V215.684C25.491 218.136 25.9719 220.564 26.9063 222.83C27.8406 225.096 29.2102 227.154 30.9367 228.888C32.6632 230.622 34.7128 231.998 36.9686 232.936C39.2244 233.874 41.6421 234.357 44.0837 234.357H227.682L227.677 214.573Z" fill="#EAEAEA"></path>
  <path d="M228.048 214.07H168.803V187.068L210.68 82.2662H239.654L198.904 185.781H228.048V146.346H253.599V54.2285C253.598 49.2775 251.64 44.5295 248.154 41.0286C244.669 37.5278 239.941 35.5607 235.012 35.56H162.874C160.049 31.4376 156.854 27.5828 153.331 24.0434C121.415 -8.01447 69.6653 -8.01447 37.7489 24.0434C10.4594 51.4413 6.50307 93.3891 25.8463 125.017V215.181C25.847 220.133 27.8061 224.883 31.2928 228.385C34.7795 231.886 39.5082 233.854 44.4391 233.855H228.048V214.07Z" fill="#EAEAEA"></path>
  <path d="M228.048 214.07H168.803V187.068L210.68 82.2662H239.654L198.904 185.781H228.048V146.346H253.599V54.2285C253.598 49.2775 251.64 44.5295 248.154 41.0286C244.669 37.5278 239.941 35.5607 235.012 35.56H162.874C160.049 31.4376 156.854 27.5828 153.331 24.0434C121.415 -8.01447 69.6653 -8.01447 37.7489 24.0434C10.4594 51.4413 6.50307 93.3891 25.8463 125.017V215.181C25.847 220.133 27.8061 224.883 31.2928 228.385C34.7795 231.886 39.5082 233.854 44.4391 233.855H228.048V214.07Z" fill="#617F3B"></path>
  <path d="M95.494 152.59C133.874 152.59 164.988 121.341 164.988 82.7934C164.988 44.2459 133.874 12.997 95.494 12.997C57.1135 12.997 26 44.2459 26 82.7934C26 121.341 57.1135 152.59 95.494 152.59Z" fill="url(#paint0_linear_921_736)"></path>
  <g clip-path="url(#clip0_921_736)">
    <path d="M109.786 64.4462C111.772 64.4462 113.491 63.7342 114.895 62.3293C116.3 60.9246 117.012 59.206 117.012 57.2204C117.012 55.2356 116.3 53.5167 114.895 52.1116C113.49 50.7072 111.771 49.9951 109.786 49.9951C107.801 49.9951 106.082 50.7072 104.677 52.1118C103.273 53.5165 102.561 55.2353 102.561 57.2204C102.561 59.206 103.273 60.9249 104.678 62.3295C106.083 63.7339 107.801 64.4462 109.786 64.4462Z" fill="#617F3B"></path>
    <path d="M122.429 73.0632C122.389 72.4786 122.307 71.8409 122.186 71.1676C122.064 70.4892 121.908 69.8478 121.72 69.2617C121.526 68.6558 121.262 68.0575 120.937 67.4842C120.598 66.8891 120.201 66.3709 119.755 65.9445C119.289 65.4984 118.718 65.1398 118.058 64.8781C117.4 64.6179 116.671 64.4861 115.891 64.4861C115.585 64.4861 115.289 64.6117 114.717 64.9841C114.365 65.2137 113.953 65.4792 113.494 65.7728C113.101 66.0232 112.568 66.2578 111.911 66.4702C111.269 66.6778 110.618 66.7831 109.975 66.7831C109.332 66.7831 108.681 66.6778 108.038 66.4702C107.382 66.2581 106.849 66.0235 106.457 65.7731C106.001 65.4822 105.589 65.2167 105.232 64.9839C104.661 64.6115 104.364 64.4858 104.058 64.4858C103.278 64.4858 102.549 64.6179 101.892 64.8784C101.232 65.1395 100.661 65.4982 100.194 65.9447C99.7488 66.3714 99.3513 66.8893 99.0134 67.4842C98.6877 68.0575 98.4241 68.6556 98.23 69.2619C98.0425 69.8481 97.8857 70.4892 97.764 71.1676C97.6434 71.84 97.5614 72.4779 97.5209 73.0638C97.4811 73.6379 97.4609 74.2337 97.4609 74.8354C97.4609 76.4014 97.9588 77.6692 98.9404 78.6041C99.91 79.5268 101.193 79.9948 102.753 79.9948H117.198C118.758 79.9948 120.04 79.527 121.01 78.6041C121.992 77.6698 122.49 76.4018 122.49 74.8351C122.49 74.2307 122.469 73.6344 122.429 73.0632Z" fill="#617F3B"></path>
  </g>
  <g clip-path="url(#clip1_921_736)">
    <path d="M79.7863 99.4447C81.7716 99.4447 83.4908 98.7327 84.8954 97.3278C86.3 95.9232 87.0121 94.2045 87.0121 92.219C87.0121 90.2341 86.3 88.5152 84.8952 87.1101C83.4903 85.7057 81.7714 84.9937 79.7863 84.9937C77.8008 84.9937 76.0821 85.7057 74.6775 87.1103C73.2728 88.515 72.5605 90.2339 72.5605 92.219C72.5605 94.2045 73.2728 95.9234 74.6777 97.328C76.0826 98.7325 77.8015 99.4447 79.7863 99.4447Z" fill="#617F3B"></path>
    <path d="M92.4293 108.062C92.3888 107.477 92.3069 106.839 92.1863 106.166C92.0645 105.488 91.9077 104.846 91.72 104.26C91.5262 103.654 91.2625 103.056 90.9366 102.483C90.5983 101.888 90.2009 101.369 89.7551 100.943C89.2889 100.497 88.718 100.138 88.0579 99.8767C87.4001 99.6164 86.6711 99.4846 85.8913 99.4846C85.5851 99.4846 85.2889 99.6103 84.717 99.9826C84.3649 100.212 83.9532 100.478 83.4936 100.771C83.1006 101.022 82.5682 101.256 81.9106 101.469C81.2691 101.676 80.6177 101.782 79.9748 101.782C79.3318 101.782 78.6807 101.676 78.0384 101.469C77.3816 101.257 76.8492 101.022 76.4566 100.772C76.0014 100.481 75.5894 100.215 75.2321 99.9824C74.6608 99.61 74.3644 99.4844 74.0582 99.4844C73.2782 99.4844 72.5494 99.6164 71.8918 99.8769C71.2322 100.138 70.6612 100.497 70.1945 100.943C69.7488 101.37 69.3513 101.888 69.0134 102.483C68.6877 103.056 68.4241 103.654 68.23 104.26C68.0425 104.847 67.8857 105.488 67.764 106.166C67.6434 106.839 67.5614 107.476 67.5209 108.062C67.4811 108.636 67.4609 109.232 67.4609 109.834C67.4609 111.4 67.9588 112.668 68.9404 113.603C69.91 114.525 71.1928 114.993 72.7529 114.993H87.198C88.7581 114.993 90.0405 114.526 91.0103 113.603C91.9922 112.668 92.49 111.4 92.49 109.834C92.4897 109.229 92.4694 108.633 92.4293 108.062Z" fill="#617F3B"></path>
  </g>
  <g clip-path="url(#clip2_921_736)">
    <path d="M79.7863 64.4462C81.7716 64.4462 83.4908 63.7342 84.8954 62.3293C86.3 60.9246 87.0121 59.206 87.0121 57.2204C87.0121 55.2356 86.3 53.5167 84.8952 52.1116C83.4903 50.7072 81.7714 49.9951 79.7863 49.9951C77.8008 49.9951 76.0821 50.7072 74.6775 52.1118C73.2728 53.5165 72.5605 55.2353 72.5605 57.2204C72.5605 59.206 73.2728 60.9249 74.6777 62.3295C76.0826 63.7339 77.8015 64.4462 79.7863 64.4462Z" fill="#617F3B"></path>
    <path d="M92.4293 73.0632C92.3888 72.4786 92.3069 71.8409 92.1863 71.1676C92.0645 70.4892 91.9077 69.8478 91.72 69.2617C91.5262 68.6558 91.2625 68.0575 90.9366 67.4842C90.5983 66.8891 90.2009 66.3709 89.7551 65.9445C89.2889 65.4984 88.718 65.1398 88.0579 64.8781C87.4001 64.6179 86.6711 64.4861 85.8913 64.4861C85.5851 64.4861 85.2889 64.6117 84.717 64.9841C84.3649 65.2137 83.9532 65.4792 83.4936 65.7728C83.1006 66.0232 82.5682 66.2578 81.9106 66.4702C81.2691 66.6778 80.6177 66.7831 79.9748 66.7831C79.3318 66.7831 78.6807 66.6778 78.0384 66.4702C77.3816 66.2581 76.8492 66.0235 76.4566 65.7731C76.0014 65.4822 75.5894 65.2167 75.2321 64.9839C74.6608 64.6115 74.3644 64.4858 74.0582 64.4858C73.2782 64.4858 72.5494 64.6179 71.8918 64.8784C71.2322 65.1395 70.6612 65.4982 70.1945 65.9447C69.7488 66.3714 69.3513 66.8893 69.0134 67.4842C68.6877 68.0575 68.4241 68.6556 68.23 69.2619C68.0425 69.8481 67.8857 70.4892 67.764 71.1676C67.6434 71.84 67.5614 72.4779 67.5209 73.0638C67.4811 73.6379 67.4609 74.2337 67.4609 74.8354C67.4609 76.4014 67.9588 77.6692 68.9404 78.6041C69.91 79.5268 71.1928 79.9948 72.7529 79.9948H87.198C88.7581 79.9948 90.0405 79.527 91.0103 78.6041C91.9922 77.6698 92.49 76.4018 92.49 74.8351C92.4897 74.2307 92.4694 73.6344 92.4293 73.0632Z" fill="#617F3B"></path>
  </g>
  <g clip-path="url(#clip3_921_736)">
    <path d="M109.786 99.4447C111.772 99.4447 113.491 98.7327 114.895 97.3278C116.3 95.9232 117.012 94.2045 117.012 92.219C117.012 90.2341 116.3 88.5152 114.895 87.1101C113.49 85.7057 111.771 84.9937 109.786 84.9937C107.801 84.9937 106.082 85.7057 104.677 87.1103C103.273 88.515 102.561 90.2339 102.561 92.219C102.561 94.2045 103.273 95.9234 104.678 97.328C106.083 98.7325 107.801 99.4447 109.786 99.4447Z" fill="#617F3B"></path>
    <path d="M122.429 108.062C122.389 107.477 122.307 106.839 122.186 106.166C122.064 105.488 121.908 104.846 121.72 104.26C121.526 103.654 121.262 103.056 120.937 102.483C120.598 101.888 120.201 101.369 119.755 100.943C119.289 100.497 118.718 100.138 118.058 99.8767C117.4 99.6164 116.671 99.4846 115.891 99.4846C115.585 99.4846 115.289 99.6103 114.717 99.9826C114.365 100.212 113.953 100.478 113.494 100.771C113.101 101.022 112.568 101.256 111.911 101.469C111.269 101.676 110.618 101.782 109.975 101.782C109.332 101.782 108.681 101.676 108.038 101.469C107.382 101.257 106.849 101.022 106.457 100.772C106.001 100.481 105.589 100.215 105.232 99.9824C104.661 99.61 104.364 99.4844 104.058 99.4844C103.278 99.4844 102.549 99.6164 101.892 99.8769C101.232 100.138 100.661 100.497 100.194 100.943C99.7488 101.37 99.3513 101.888 99.0134 102.483C98.6877 103.056 98.4241 103.654 98.23 104.26C98.0425 104.847 97.8857 105.488 97.764 106.166C97.6434 106.839 97.5614 107.476 97.5209 108.062C97.4811 108.636 97.4609 109.232 97.4609 109.834C97.4609 111.4 97.9588 112.668 98.9404 113.603C99.91 114.525 101.193 114.993 102.753 114.993H117.198C118.758 114.993 120.04 114.526 121.01 113.603C121.992 112.668 122.49 111.4 122.49 109.834C122.49 109.229 122.469 108.633 122.429 108.062Z" fill="#617F3B"></path>
  </g>
  <path d="M143.031 34.4103C169.854 61.3497 170.163 104.852 143.946 132.174C144.261 131.871 144.573 131.568 144.883 131.257C172.023 103.999 172.023 59.8059 144.883 32.5504C117.743 5.29503 73.7433 5.29244 46.6034 32.5504C46.2939 32.8613 45.9922 33.1773 45.6904 33.4907C72.8948 7.16006 116.203 7.46313 143.031 34.4103Z" fill="white"></path>
  <path d="M41.6143 188.134C40.9717 188.134 40.3952 188.011 39.8848 187.765C39.3743 187.519 38.9391 187.172 38.5791 186.726C38.2236 186.275 37.9502 185.741 37.7588 185.126C37.5719 184.511 37.4785 183.832 37.4785 183.089V182.945C37.4785 182.207 37.5719 181.53 37.7588 180.915C37.9502 180.295 38.2236 179.76 38.5791 179.309C38.9391 178.858 39.3743 178.509 39.8848 178.263C40.3952 178.017 40.9717 177.894 41.6143 177.894C42.2933 177.894 42.8903 178.017 43.4053 178.263C43.9202 178.509 44.3509 178.858 44.6973 179.309C45.0482 179.76 45.3125 180.295 45.4902 180.915C45.668 181.53 45.7568 182.207 45.7568 182.945V183.089C45.7568 183.832 45.668 184.511 45.4902 185.126C45.3125 185.741 45.0482 186.275 44.6973 186.726C44.3509 187.172 43.9202 187.519 43.4053 187.765C42.8903 188.011 42.2933 188.134 41.6143 188.134ZM41.6143 187.013C42.2751 187.013 42.8083 186.849 43.2139 186.521C43.624 186.193 43.9248 185.734 44.1162 185.147C44.3076 184.554 44.4033 183.868 44.4033 183.089V182.932C44.4033 182.157 44.3053 181.478 44.1094 180.895C43.918 180.307 43.6172 179.849 43.207 179.521C42.7969 179.188 42.266 179.022 41.6143 179.022C41.0173 179.022 40.5114 179.188 40.0967 179.521C39.682 179.853 39.3675 180.314 39.1533 180.901C38.9391 181.485 38.832 182.162 38.832 182.932V183.089C38.832 183.864 38.9391 184.547 39.1533 185.14C39.3675 185.728 39.682 186.188 40.0967 186.521C40.5114 186.849 41.0173 187.013 41.6143 187.013ZM49.1133 187.99V187.129L50.2275 186.938V181.64H48.6689L48.5664 182.795H47.418V180.594H54.418V182.795H53.2627L53.1602 181.64H51.5742V186.938L52.6885 187.129V187.99H49.1133ZM59.3057 187.99V187.129L60.8438 186.938V179.48L59.2783 179.507V178.666L62.1904 178.037V186.938L63.7217 187.129V187.99H59.3057ZM67.29 187.99V187.068L70.5508 183.444C70.9382 183.012 71.2412 182.642 71.46 182.337C71.6787 182.027 71.8314 181.747 71.918 181.496C72.0046 181.246 72.0479 180.986 72.0479 180.717C72.0479 180.22 71.8975 179.803 71.5967 179.466C71.2959 179.124 70.8652 178.953 70.3047 178.953C69.7214 178.953 69.2656 179.129 68.9375 179.48C68.6139 179.831 68.4521 180.327 68.4521 180.97H67.1602L67.1465 180.929C67.1328 180.355 67.2536 179.84 67.5088 179.384C67.764 178.924 68.1331 178.561 68.6162 178.297C69.1038 178.028 69.6826 177.894 70.3525 177.894C70.9814 177.894 71.5215 178.014 71.9727 178.256C72.4284 178.493 72.7793 178.819 73.0254 179.234C73.2715 179.648 73.3945 180.124 73.3945 180.662C73.3945 181.027 73.3216 181.389 73.1758 181.749C73.0345 182.109 72.8249 182.478 72.5469 182.857C72.2734 183.235 71.943 183.634 71.5557 184.053L68.9375 186.903L68.9512 186.938H72.4854L72.5947 185.796H73.7363V187.99H67.29ZM77.8584 188.134C77.512 188.134 77.1566 188.1 76.792 188.031C76.432 187.968 76.1084 187.867 75.8213 187.731L76.0264 186.712C76.3044 186.844 76.5869 186.94 76.874 186.999C77.1657 187.054 77.4938 187.081 77.8584 187.081C78.5055 187.081 79.016 186.835 79.3896 186.343C79.7679 185.846 79.9639 185.049 79.9775 183.95L79.9502 183.916C79.7679 184.221 79.5127 184.456 79.1846 184.62C78.8564 184.784 78.4873 184.866 78.0771 184.866C77.43 184.866 76.8717 184.732 76.4023 184.463C75.9329 184.194 75.5706 183.804 75.3154 183.294C75.0648 182.784 74.9395 182.166 74.9395 181.442C74.9395 180.749 75.0762 180.136 75.3496 179.603C75.6276 179.069 75.999 178.652 76.4639 178.352C76.9333 178.046 77.4528 177.894 78.0225 177.894C78.7152 177.894 79.3122 178.04 79.8135 178.331C80.3148 178.618 80.6999 179.049 80.9688 179.623C81.2422 180.193 81.3789 180.901 81.3789 181.749V183.547C81.3789 184.582 81.2331 185.438 80.9414 186.117C80.6497 186.796 80.2396 187.302 79.7109 187.635C79.1868 187.968 78.5693 188.134 77.8584 188.134ZM78.0771 183.807C78.5739 183.807 78.9863 183.7 79.3145 183.485C79.6471 183.271 79.8864 182.998 80.0322 182.665V181.612C80.0322 180.733 79.8636 180.07 79.5264 179.623C79.1937 179.177 78.7061 178.953 78.0635 178.953C77.7308 178.953 77.43 179.06 77.1611 179.275C76.8923 179.484 76.6781 179.776 76.5186 180.15C76.3636 180.523 76.2861 180.954 76.2861 181.442C76.2861 181.92 76.3568 182.337 76.498 182.693C76.6439 183.043 76.8512 183.317 77.1201 183.513C77.389 183.709 77.708 183.807 78.0771 183.807ZM86.123 188.134C85.4714 188.134 84.9017 188.027 84.4141 187.813C83.931 187.594 83.555 187.275 83.2861 186.856C83.0173 186.432 82.8828 185.912 82.8828 185.297C82.8828 184.736 83.0514 184.242 83.3887 183.814C83.7259 183.385 84.1816 183.071 84.7559 182.87C84.2591 182.679 83.8695 182.389 83.5869 182.002C83.3044 181.61 83.1631 181.154 83.1631 180.635C83.1631 180.052 83.2861 179.557 83.5322 179.151C83.7783 178.741 84.1224 178.429 84.5645 178.215C85.0065 178.001 85.5215 177.894 86.1094 177.894C86.6927 177.894 87.2077 178.001 87.6543 178.215C88.1009 178.429 88.4495 178.741 88.7002 179.151C88.9554 179.557 89.083 180.052 89.083 180.635C89.083 181.154 88.9372 181.61 88.6455 182.002C88.3538 182.389 87.9596 182.679 87.4629 182.87C88.0371 183.071 88.4951 183.385 88.8369 183.814C89.1833 184.242 89.3564 184.736 89.3564 185.297C89.3564 185.912 89.2197 186.432 88.9463 186.856C88.6729 187.275 88.2923 187.594 87.8047 187.813C87.3216 188.027 86.7611 188.134 86.123 188.134ZM86.123 187.081C86.4967 187.081 86.8249 187.008 87.1074 186.862C87.3945 186.717 87.6178 186.509 87.7773 186.24C87.9368 185.967 88.0166 185.643 88.0166 185.27C88.0166 184.905 87.9346 184.582 87.7705 184.299C87.6064 184.016 87.3809 183.795 87.0938 183.636C86.8066 183.476 86.4785 183.397 86.1094 183.397C85.7402 183.397 85.4144 183.476 85.1318 183.636C84.8493 183.795 84.6283 184.016 84.4688 184.299C84.3092 184.577 84.2295 184.901 84.2295 185.27C84.2295 185.835 84.4004 186.279 84.7422 186.603C85.0885 186.922 85.5488 187.081 86.123 187.081ZM86.123 182.337C86.4375 182.337 86.7155 182.269 86.957 182.132C87.2031 181.991 87.3945 181.795 87.5312 181.544C87.668 181.293 87.7363 180.999 87.7363 180.662C87.7363 180.334 87.6657 180.042 87.5244 179.787C87.3831 179.527 87.1895 179.325 86.9434 179.179C86.7018 179.028 86.4238 178.953 86.1094 178.953C85.6309 178.953 85.2435 179.11 84.9473 179.425C84.6556 179.735 84.5098 180.147 84.5098 180.662C84.5098 181.168 84.6579 181.574 84.9541 181.879C85.2503 182.184 85.64 182.337 86.123 182.337ZM93.7793 187.99V187.129L94.8936 186.938V185.693H90.4229V184.935L94.8115 178.037H96.2334V184.641H97.6074V185.693H96.2334V186.938L97.3477 187.129V187.99H93.7793ZM91.8584 184.641H94.8936V179.958L94.8525 179.944L94.7158 180.307L91.8584 184.641ZM102.112 188.134C101.137 188.134 100.365 187.794 99.7949 187.115C99.2253 186.436 98.9404 185.463 98.9404 184.196V181.838C98.9404 180.571 99.223 179.598 99.7881 178.919C100.353 178.235 101.123 177.894 102.099 177.894C103.078 177.894 103.853 178.235 104.423 178.919C104.993 179.598 105.277 180.571 105.277 181.838V184.196C105.277 185.468 104.995 186.443 104.43 187.122C103.865 187.797 103.092 188.134 102.112 188.134ZM102.112 187.081C102.709 187.081 103.16 186.862 103.466 186.425C103.776 185.987 103.931 185.336 103.931 184.47V181.551C103.931 180.69 103.773 180.042 103.459 179.609C103.149 179.172 102.696 178.953 102.099 178.953C101.511 178.953 101.062 179.172 100.752 179.609C100.442 180.042 100.287 180.69 100.287 181.551V184.47C100.287 185.331 100.444 185.983 100.759 186.425C101.073 186.862 101.524 187.081 102.112 187.081ZM110.097 188.134C109.121 188.134 108.349 187.794 107.779 187.115C107.21 186.436 106.925 185.463 106.925 184.196V181.838C106.925 180.571 107.207 179.598 107.772 178.919C108.338 178.235 109.108 177.894 110.083 177.894C111.063 177.894 111.838 178.235 112.407 178.919C112.977 179.598 113.262 180.571 113.262 181.838V184.196C113.262 185.468 112.979 186.443 112.414 187.122C111.849 187.797 111.076 188.134 110.097 188.134ZM110.097 187.081C110.694 187.081 111.145 186.862 111.45 186.425C111.76 185.987 111.915 185.336 111.915 184.47V181.551C111.915 180.69 111.758 180.042 111.443 179.609C111.133 179.172 110.68 178.953 110.083 178.953C109.495 178.953 109.046 179.172 108.736 179.609C108.426 180.042 108.271 180.69 108.271 181.551V184.47C108.271 185.331 108.429 185.983 108.743 186.425C109.058 186.862 109.509 187.081 110.097 187.081ZM114.383 190.834V189.966L115.429 189.775V181.653L114.314 181.462V180.594H116.584L116.707 181.496C116.953 181.159 117.252 180.901 117.603 180.724C117.958 180.546 118.368 180.457 118.833 180.457C119.444 180.457 119.965 180.623 120.398 180.956C120.831 181.284 121.162 181.747 121.39 182.344C121.618 182.936 121.731 183.631 121.731 184.429V184.572C121.731 185.283 121.615 185.905 121.383 186.439C121.155 186.972 120.827 187.389 120.398 187.69C119.97 187.986 119.455 188.134 118.854 188.134C118.398 188.134 117.997 188.059 117.65 187.908C117.309 187.753 117.017 187.526 116.775 187.225V189.775L117.951 189.966V190.834H114.383ZM118.437 187.081C119.075 187.081 119.558 186.849 119.886 186.384C120.214 185.919 120.378 185.315 120.378 184.572V184.429C120.378 183.864 120.305 183.367 120.159 182.939C120.013 182.506 119.795 182.166 119.503 181.92C119.216 181.674 118.856 181.551 118.423 181.551C118.04 181.551 117.712 181.637 117.438 181.811C117.165 181.984 116.944 182.221 116.775 182.522V186.124C116.944 186.429 117.163 186.666 117.432 186.835C117.705 186.999 118.04 187.081 118.437 187.081ZM126.045 188.845L130.201 178.037H131.336L127.187 188.845H126.045ZM135.827 187.99V187.129L136.941 186.938V181.653L135.827 181.462V180.594H136.941H138.678L141.084 186.227H141.125L143.538 180.594H145.227H146.341V181.462L145.227 181.653V186.938L146.341 187.129V187.99H142.766V187.129L143.88 186.938V182.857L143.839 182.843L141.569 187.99H140.64L138.329 182.734L138.288 182.747V186.938L139.402 187.129V187.99H135.827ZM150.825 188.134C150.142 188.134 149.547 187.979 149.041 187.669C148.535 187.355 148.143 186.919 147.865 186.363C147.592 185.807 147.455 185.165 147.455 184.436V184.135C147.455 183.433 147.599 182.806 147.886 182.255C148.177 181.699 148.562 181.262 149.041 180.943C149.524 180.619 150.05 180.457 150.62 180.457C151.285 180.457 151.841 180.594 152.288 180.867C152.739 181.141 153.079 181.526 153.307 182.023C153.535 182.515 153.648 183.096 153.648 183.766V184.607H148.85L148.829 184.641C148.838 185.115 148.92 185.536 149.075 185.905C149.235 186.27 149.463 186.557 149.759 186.767C150.055 186.976 150.41 187.081 150.825 187.081C151.281 187.081 151.68 187.017 152.021 186.89C152.368 186.758 152.666 186.578 152.917 186.35L153.443 187.225C153.179 187.48 152.828 187.696 152.391 187.874C151.958 188.047 151.436 188.134 150.825 188.134ZM148.891 183.554H152.302V183.376C152.302 183.021 152.238 182.704 152.11 182.426C151.987 182.143 151.8 181.922 151.55 181.763C151.304 181.599 150.994 181.517 150.62 181.517C150.319 181.517 150.046 181.606 149.8 181.783C149.554 181.957 149.351 182.193 149.191 182.494C149.032 182.795 148.927 183.137 148.877 183.52L148.891 183.554ZM158.317 188.134C157.647 188.134 157.064 187.979 156.567 187.669C156.071 187.355 155.686 186.919 155.412 186.363C155.139 185.807 155.002 185.165 155.002 184.436V184.149C155.002 183.447 155.134 182.818 155.398 182.262C155.663 181.706 156.043 181.266 156.54 180.943C157.037 180.619 157.629 180.457 158.317 180.457C158.914 180.457 159.436 180.555 159.883 180.751C160.334 180.947 160.712 181.216 161.018 181.558L161.052 183.335H159.999L159.767 182.043C159.612 181.884 159.418 181.756 159.186 181.66C158.953 181.565 158.68 181.517 158.365 181.517C157.964 181.517 157.611 181.635 157.306 181.872C157.005 182.109 156.77 182.426 156.602 182.822C156.433 183.219 156.349 183.661 156.349 184.149V184.436C156.349 184.973 156.426 185.441 156.581 185.837C156.741 186.234 156.966 186.541 157.258 186.76C157.554 186.974 157.905 187.081 158.311 187.081C158.766 187.081 159.145 186.956 159.445 186.705C159.746 186.455 159.931 186.11 159.999 185.673H161.209L161.223 185.714C161.2 186.138 161.075 186.534 160.847 186.903C160.619 187.273 160.293 187.571 159.869 187.799C159.45 188.022 158.933 188.134 158.317 188.134ZM162.761 187.99V186.609H164.107V187.99H162.761ZM37.6631 207.99V207.129L38.7773 206.938V201.653L37.6631 201.462V200.594H45.8799V201.462L44.7656 201.653V206.938L45.8799 207.129V207.99H42.3047V207.129L43.4189 206.938V201.66H40.124V206.938L41.2383 207.129V207.99H37.6631ZM46.8438 210.834V209.966L47.8896 209.775V201.653L46.7754 201.462V200.594H49.0449L49.168 201.496C49.4141 201.159 49.7126 200.901 50.0635 200.724C50.4189 200.546 50.8291 200.457 51.2939 200.457C51.9046 200.457 52.4264 200.623 52.8594 200.956C53.2923 201.284 53.6227 201.747 53.8506 202.344C54.0785 202.936 54.1924 203.631 54.1924 204.429V204.572C54.1924 205.283 54.0762 205.905 53.8438 206.439C53.6159 206.972 53.2878 207.389 52.8594 207.69C52.431 207.986 51.916 208.134 51.3145 208.134C50.8587 208.134 50.4577 208.059 50.1113 207.908C49.7695 207.753 49.4779 207.526 49.2363 207.225V209.775L50.4121 209.966V210.834H46.8438ZM50.8975 207.081C51.5355 207.081 52.0186 206.849 52.3467 206.384C52.6748 205.919 52.8389 205.315 52.8389 204.572V204.429C52.8389 203.864 52.766 203.367 52.6201 202.939C52.4743 202.506 52.2555 202.166 51.9639 201.92C51.6768 201.674 51.3167 201.551 50.8838 201.551C50.501 201.551 50.1729 201.637 49.8994 201.811C49.626 201.984 49.4049 202.221 49.2363 202.522V206.124C49.4049 206.429 49.6237 206.666 49.8926 206.835C50.166 206.999 50.501 207.081 50.8975 207.081ZM55.6826 207.99V207.129L56.7969 206.938V201.653L55.6826 201.462V200.594H58.1367H59.251V201.462L58.1367 201.653V205.83L58.1777 205.844L61.4385 200.594H62.7852H63.8994V201.462L62.7852 201.653V206.938L63.8994 207.129V207.99H60.3242V207.129L61.4385 206.938V202.754L61.3975 202.74L58.1367 207.99H55.6826ZM71.8359 207.99V207.129L72.9502 206.938V205.693H68.4795V204.935L72.8682 198.037H74.29V204.641H75.6641V205.693H74.29V206.938L75.4043 207.129V207.99H71.8359ZM69.915 204.641H72.9502V199.958L72.9092 199.944L72.7725 200.307L69.915 204.641ZM80.3193 207.99V207.129L81.4336 206.938V201.653L80.3193 201.462V200.594H83.8945V201.462L82.7803 201.653V203.718H83.4912L85.0361 201.647C85.3141 201.259 85.5853 200.965 85.8496 200.765C86.1185 200.564 86.4193 200.464 86.752 200.464C86.9616 200.464 87.1348 200.491 87.2715 200.546C87.4082 200.596 87.5632 200.676 87.7363 200.785L87.5449 201.701C87.349 201.669 87.235 201.651 87.2031 201.647C87.1758 201.642 87.1165 201.64 87.0254 201.64C86.8568 201.64 86.6904 201.701 86.5264 201.824C86.3669 201.947 86.2256 202.093 86.1025 202.262L84.6738 204.114L87.0049 206.958L87.9551 207.129V207.99H86.1572L83.6553 204.853H82.7803V206.938L83.8945 207.129V207.99H80.3193ZM91.79 208.134C91.1064 208.134 90.5163 207.974 90.0195 207.655C89.5273 207.332 89.1468 206.887 88.8779 206.322C88.609 205.753 88.4746 205.103 88.4746 204.374V204.224C88.4746 203.495 88.609 202.847 88.8779 202.282C89.1468 201.713 89.5273 201.266 90.0195 200.943C90.5163 200.619 91.1019 200.457 91.7764 200.457C92.46 200.457 93.0479 200.619 93.54 200.943C94.0368 201.266 94.4196 201.71 94.6885 202.276C94.9574 202.841 95.0918 203.49 95.0918 204.224V204.374C95.0918 205.108 94.9574 205.76 94.6885 206.329C94.4196 206.894 94.0391 207.336 93.5469 207.655C93.0547 207.974 92.4691 208.134 91.79 208.134ZM91.79 207.081C92.2184 207.081 92.5762 206.965 92.8633 206.733C93.1549 206.496 93.3737 206.174 93.5195 205.769C93.6699 205.359 93.7451 204.894 93.7451 204.374V204.224C93.7451 203.704 93.6699 203.242 93.5195 202.836C93.3737 202.426 93.1549 202.105 92.8633 201.872C92.5716 201.635 92.2093 201.517 91.7764 201.517C91.348 201.517 90.988 201.635 90.6963 201.872C90.4046 202.105 90.1859 202.426 90.04 202.836C89.8942 203.242 89.8213 203.704 89.8213 204.224V204.374C89.8213 204.894 89.8942 205.359 90.04 205.769C90.1859 206.174 90.4046 206.496 90.6963 206.733C90.9925 206.965 91.3571 207.081 91.79 207.081ZM96.4658 207.99V207.129L97.5801 206.938V201.653L96.4658 201.462V200.594H97.5801H99.3164L101.723 206.227H101.764L104.177 200.594H105.865H106.979V201.462L105.865 201.653V206.938L106.979 207.129V207.99H103.404V207.129L104.519 206.938V202.857L104.478 202.843L102.208 207.99H101.278L98.9678 202.734L98.9268 202.747V206.938L100.041 207.129V207.99H96.4658ZM110.486 208.134C109.716 208.134 109.131 207.947 108.729 207.573C108.328 207.195 108.128 206.664 108.128 205.981C108.128 205.511 108.256 205.103 108.511 204.757C108.771 204.406 109.144 204.135 109.632 203.943C110.119 203.748 110.703 203.65 111.382 203.65H112.701V202.925C112.701 202.478 112.564 202.132 112.291 201.886C112.022 201.64 111.642 201.517 111.149 201.517C110.84 201.517 110.571 201.555 110.343 201.633C110.115 201.706 109.908 201.808 109.721 201.941L109.577 202.973H108.538V201.277C108.871 201.009 109.258 200.806 109.7 200.669C110.142 200.528 110.632 200.457 111.17 200.457C112.068 200.457 112.772 200.671 113.282 201.1C113.793 201.528 114.048 202.141 114.048 202.939V206.5C114.048 206.596 114.048 206.689 114.048 206.78C114.052 206.872 114.059 206.963 114.068 207.054L114.786 207.129V207.99H112.852C112.811 207.79 112.779 207.61 112.756 207.45C112.733 207.291 112.717 207.131 112.708 206.972C112.448 207.304 112.122 207.582 111.73 207.806C111.343 208.025 110.928 208.134 110.486 208.134ZM110.685 207.006C111.131 207.006 111.539 206.899 111.908 206.685C112.277 206.47 112.542 206.213 112.701 205.912V204.572H111.334C110.714 204.572 110.249 204.72 109.939 205.017C109.63 205.313 109.475 205.643 109.475 206.008C109.475 206.332 109.575 206.58 109.775 206.753C109.976 206.922 110.279 207.006 110.685 207.006ZM115.989 207.99V207.129L117.104 206.938V201.653L115.989 201.462V200.594H119.564V201.462L118.45 201.653V203.793H121.738V201.653L120.624 201.462V200.594H121.738H123.092H124.206V201.462L123.092 201.653V206.938L124.206 207.129V207.99H120.624V207.129L121.738 206.938V204.846H118.45V206.938L119.564 207.129V207.99H115.989ZM125.45 210.164L125.32 206.938H125.901C126.093 206.719 126.259 206.502 126.4 206.288C126.542 206.069 126.665 205.83 126.77 205.57C126.874 205.306 126.959 204.998 127.022 204.648C127.091 204.292 127.141 203.868 127.173 203.376L127.241 201.647L126.168 201.462V200.594H132.115H133.229V201.462L132.115 201.653V206.938H133.1L132.963 210.164H131.753V207.99H126.66V210.164H125.45ZM127.453 206.938H130.769V201.79H128.581L128.52 203.376C128.469 204.196 128.351 204.896 128.164 205.475C127.982 206.054 127.745 206.541 127.453 206.938ZM137.659 208.134C136.976 208.134 136.381 207.979 135.875 207.669C135.369 207.355 134.977 206.919 134.699 206.363C134.426 205.807 134.289 205.165 134.289 204.436V204.135C134.289 203.433 134.433 202.806 134.72 202.255C135.011 201.699 135.396 201.262 135.875 200.943C136.358 200.619 136.884 200.457 137.454 200.457C138.119 200.457 138.675 200.594 139.122 200.867C139.573 201.141 139.913 201.526 140.141 202.023C140.368 202.515 140.482 203.096 140.482 203.766V204.607H135.684L135.663 204.641C135.672 205.115 135.754 205.536 135.909 205.905C136.069 206.27 136.297 206.557 136.593 206.767C136.889 206.976 137.244 207.081 137.659 207.081C138.115 207.081 138.514 207.017 138.855 206.89C139.202 206.758 139.5 206.578 139.751 206.35L140.277 207.225C140.013 207.48 139.662 207.696 139.225 207.874C138.792 208.047 138.27 208.134 137.659 208.134ZM135.725 203.554H139.136V203.376C139.136 203.021 139.072 202.704 138.944 202.426C138.821 202.143 138.634 201.922 138.384 201.763C138.138 201.599 137.828 201.517 137.454 201.517C137.153 201.517 136.88 201.606 136.634 201.783C136.388 201.957 136.185 202.193 136.025 202.494C135.866 202.795 135.761 203.137 135.711 203.52L135.725 203.554Z" fill="white"></path>
  <defs>
    <linearGradient id="paint0_linear_921_736" x1="144.652" y1="33.4526" x2="45.9461" y2="131.731" gradientUnits="userSpaceOnUse">
      <stop stop-color="#E6E6E6"></stop>
      <stop offset="0.03" stop-color="#E9E9E9"></stop>
      <stop offset="0.21" stop-color="#F6F6F6"></stop>
      <stop offset="0.45" stop-color="#FDFDFD"></stop>
      <stop offset="1" stop-color="white"></stop>
    </linearGradient>
    <clipPath id="clip0_921_736">
      <rect width="29.9999" height="29.9987" fill="white" transform="translate(95 49.9951)"></rect>
    </clipPath>
    <clipPath id="clip1_921_736">
      <rect width="29.9999" height="29.9987" fill="white" transform="translate(65 84.9937)"></rect>
    </clipPath>
    <clipPath id="clip2_921_736">
      <rect width="29.9999" height="29.9987" fill="white" transform="translate(65 49.9951)"></rect>
    </clipPath>
    <clipPath id="clip3_921_736">
      <rect width="29.9999" height="29.9987" fill="white" transform="translate(95 84.9937)"></rect>
    </clipPath>
  </defs>
</svg>
