<svg width="20" height="30" viewBox="0 0 20 30" fill="none" xmlns="http://www.w3.org/2000/svg">
<path fill-rule="evenodd" clip-rule="evenodd" d="M3.14055 0H16.7246L17.0716 0.187527C17.3774 0.351614 17.495 0.468819 17.9889 1.13689C18.5299 1.85769 18.5711 1.90458 18.8769 2.01006C19.0827 2.08624 19.2885 2.21517 19.465 2.39098C19.6237 2.5492 19.7766 2.77775 19.8413 2.95356C19.9236 3.18211 19.953 3.47512 20.0001 5.41486L19.8472 5.60824C19.7296 5.75475 19.6473 5.79577 19.4885 5.79577C19.3297 5.79577 19.2533 5.75475 19.165 5.63754C19.0533 5.48518 19.0416 5.39141 19.0474 4.40104C19.0474 3.61576 19.0239 3.29345 18.9651 3.17625C18.9239 3.08248 18.8122 2.95942 18.7181 2.89496C18.5476 2.77775 18.4535 2.77775 9.99139 2.77775C1.52928 2.77775 1.4352 2.77775 1.26466 2.89496C1.17057 2.95942 1.05884 3.08248 1.01768 3.17625C0.94711 3.30517 0.935349 4.79367 0.935349 12.0779C0.94123 20.7862 0.94123 20.8273 0.817738 20.9855C0.72953 21.1086 0.653083 21.1496 0.494308 21.1496C0.364936 21.1496 0.241444 21.1027 0.170878 21.0324C0.106192 20.9679 0.0356252 20.8566 0.0179836 20.7804C0.000341914 20.7101 0.000341914 16.7368 0.012103 11.949C0.0356252 3.63334 0.0415057 3.23485 0.141475 2.95356C0.206161 2.78361 0.364936 2.54334 0.523711 2.39098C0.700127 2.20345 0.894185 2.08038 1.10588 2.01006C1.41167 1.90458 1.44108 1.87527 1.87624 1.22479C2.1291 0.855594 2.39372 0.49226 2.47017 0.421937C2.54662 0.351614 2.72892 0.228549 2.87593 0.146506L3.14055 0ZM2.7936 1.44748L2.5231 1.84011C8.33308 1.86355 11.685 1.86355 13.7138 1.85183L17.4068 1.84011C16.9892 1.24823 16.7834 1.0314 16.6776 0.972799C16.5012 0.879035 16.0719 0.873175 9.93259 0.873175C4.23434 0.879035 3.35225 0.890755 3.217 0.966938C3.12879 1.01382 2.94062 1.23065 2.7936 1.44748Z" fill="#F6DE63"/>
<path d="M17.166 25.3107C17.1719 24.7071 17.1837 24.6485 17.313 24.5196C17.3895 24.4375 17.4953 24.373 17.5483 24.373C17.5953 24.373 17.7011 24.4082 17.7835 24.4434C17.8658 24.4844 17.954 24.5782 17.9893 24.6485C18.0187 24.7247 18.0481 25.0294 18.0481 25.3283C18.054 25.7795 18.0305 25.8908 17.9305 26.0256C17.8423 26.1487 17.7658 26.1897 17.6071 26.1897C17.4777 26.1897 17.3542 26.1428 17.2836 26.0725C17.1778 25.967 17.166 25.8791 17.166 25.3107Z" fill="#F6DE63"/>
<path d="M15.2549 25.3102C15.2549 24.6655 15.2549 24.6538 15.4195 24.5132C15.5136 24.437 15.6312 24.3725 15.6842 24.3725C15.7371 24.3667 15.8547 24.4194 15.9429 24.4897C16.1076 24.6069 16.1076 24.6128 16.1076 25.2809C16.1076 25.8786 16.0958 25.9665 15.99 26.072C15.9253 26.1364 15.8018 26.1892 15.7077 26.1892C15.6195 26.195 15.4842 26.1423 15.4019 26.0778C15.2608 25.9724 15.2549 25.9372 15.2549 25.3102Z" fill="#F6DE63"/>
<path fill-rule="evenodd" clip-rule="evenodd" d="M2.17563 21.5596H13.9602L14.2307 21.8233L14.2249 23.8744C14.2249 25.8493 14.2249 25.9313 13.9896 26.1892H2.16975L2.05213 26.0251C1.93452 25.8727 1.92864 25.7848 1.92864 23.8685C1.92276 21.8995 1.92276 21.8643 2.05213 21.7119L2.17563 21.5596ZM2.81073 25.3101H13.3369V22.4386H2.81073V25.3101Z" fill="#F6DE63"/>
<path d="M3.87549 15.9512C3.87549 15.8399 3.92254 15.711 3.9931 15.6406C4.11072 15.5234 4.18716 15.5234 12.1083 15.5234L12.2259 15.6817C12.2964 15.7754 12.3494 15.8809 12.3435 15.9161C12.3435 15.9571 12.3082 16.0567 12.2729 16.1388C12.2318 16.2208 12.1318 16.3146 12.0495 16.3439C11.9554 16.3849 10.5088 16.3966 8.0154 16.3908L7.97317 16.3906C4.21586 16.3732 4.12202 16.3727 3.99898 16.256C3.91666 16.1798 3.86961 16.0684 3.87549 15.9512Z" fill="#F6DE63"/>
<path fill-rule="evenodd" clip-rule="evenodd" d="M17.8129 14.7031L17.9364 14.8672C18.0481 15.0137 18.054 15.0899 18.0364 16.1213C18.0187 17.0824 18.007 17.2347 17.9129 17.3226C17.8247 17.4164 17.6718 17.4281 15.6077 17.4692L15.2549 17.1761V16.0627C15.2549 15.0547 15.2666 14.9375 15.3666 14.8262C15.4725 14.709 15.5313 14.7031 17.8129 14.7031ZM16.137 16.5491L17.1661 16.5784V15.5822H16.1017L16.137 16.5491Z" fill="#F6DE63"/>
<path d="M3.8639 12.1544C3.85802 12.0079 3.89331 11.92 3.99328 11.832C4.13441 11.7148 4.19321 11.7148 12.0496 11.7148L12.1966 11.8613C12.279 11.9434 12.3437 12.0723 12.3437 12.1544C12.3437 12.2364 12.279 12.3653 12.0555 12.5939H8.0979C4.21086 12.5939 4.14029 12.5939 4.01092 12.4767C3.92271 12.4064 3.86978 12.2833 3.8639 12.1544Z" fill="#F6DE63"/>
<path d="M3.97547 8.07531C4.03427 8.02257 4.12248 7.96397 4.16952 7.94638C4.21657 7.9288 5.98661 7.91122 8.09185 7.91122C11.0556 7.90536 11.9671 7.92294 12.0789 7.98155C12.1612 8.01671 12.2494 8.11047 12.2847 8.18665C12.3141 8.25698 12.3435 8.35074 12.3435 8.39176C12.3494 8.42692 12.2964 8.53241 12.1083 8.7844H8.10949C4.18717 8.7844 4.11072 8.7844 3.99311 8.66719C3.92254 8.59687 3.8755 8.46795 3.8755 8.36246C3.86962 8.25112 3.91666 8.12805 3.97547 8.07531Z" fill="#F6DE63"/>
<path fill-rule="evenodd" clip-rule="evenodd" d="M16.6124 7.08496C17.3122 7.08496 17.6826 7.1084 17.7826 7.16114C17.8649 7.19631 17.9532 7.29007 17.9884 7.36625C18.0237 7.4483 18.0472 8.59104 18.0472 13.3554L17.9002 13.5019C17.7591 13.6484 17.7532 13.6484 16.6359 13.6484C15.5951 13.6484 15.5127 13.6426 15.401 13.5312C15.3363 13.4668 15.2716 13.3261 15.2481 13.2206C15.2305 13.121 15.2246 11.7556 15.254 7.36625L15.4186 7.22561C15.5774 7.09082 15.6127 7.08496 16.6124 7.08496V7.08496ZM16.0949 10.4077L16.1067 12.7694H17.1652V7.964C16.4066 7.964 16.1655 7.98158 16.1361 8.00502C16.1067 8.0226 16.089 9.10674 16.0949 10.4077Z" fill="#F6DE63"/>
<path d="M1.92285 4.1143L2.05222 3.95608L2.17572 3.80371H13.9897L14.1073 3.9385C14.225 4.06742 14.225 4.12602 14.225 12.1545C14.225 20.1831 14.225 20.2417 13.9897 20.5054H2.16983L2.05222 20.3471C1.93461 20.1889 1.92873 20.1069 1.93461 14.4693L2.08163 14.3228C2.15807 14.2408 2.28156 14.1763 2.35801 14.1763C2.43446 14.1705 2.56383 14.2232 2.81669 14.4107V19.6263H13.3429V4.68275H2.81669V12.7699L2.65792 12.8871C2.56383 12.9574 2.43446 13.0101 2.36389 13.0043C2.28745 13.0043 2.16395 12.9398 1.93461 12.7113L1.92285 4.1143Z" fill="#F6DE63"/>
<path fill-rule="evenodd" clip-rule="evenodd" d="M19.4766 6.97341C19.5001 6.96755 19.5825 6.99685 19.6648 7.02615C19.7471 7.06131 19.853 7.1668 19.9 7.26056C19.9765 7.41293 19.9882 8.60256 19.9706 17.094C19.9529 26.3708 19.9471 26.7576 19.8412 27.0388C19.7765 27.2088 19.6177 27.4432 19.4649 27.6014C19.3178 27.7479 19.0944 27.9062 18.7533 28.0351V28.8555C18.7592 29.5939 18.7474 29.6935 18.5181 29.9983H17.3831C16.2952 29.9983 16.2482 29.9924 16.1188 29.8635C15.9953 29.7404 15.9836 29.6935 15.9894 28.123H3.99313V28.9317C3.99313 29.6818 3.98137 29.7404 3.85788 29.8693C3.73439 29.9983 3.6991 30.0041 1.46449 29.9983L1.34688 29.84C1.23515 29.6935 1.22339 29.5939 1.22927 28.0351L1.01169 27.953C0.888201 27.9062 0.66474 27.7479 0.517726 27.6014C0.364832 27.4432 0.206057 27.2088 0.141371 27.0388C0.0414021 26.781 0.029641 26.529 0.00611882 24.812C-0.00564228 23.7513 0.00023827 22.8195 0.0178799 22.7492C0.0355216 22.673 0.106088 22.5616 0.170774 22.4972C0.241341 22.4268 0.364832 22.38 0.494204 22.38C0.652979 22.38 0.729426 22.421 0.817635 22.5441C0.935245 22.6964 0.941126 22.7785 0.935245 24.683C0.935245 26.2419 0.952887 26.6931 1.01757 26.822C1.05874 26.9099 1.17047 27.033 1.26456 27.0975C1.43509 27.2147 1.52918 27.2147 9.99129 27.2147C18.4534 27.2147 18.5475 27.2147 18.718 27.0975C18.8121 27.033 18.9238 26.9099 18.965 26.822C19.0356 26.6872 19.0473 25.0581 19.0473 17.0179C19.0473 9.42299 19.065 7.34847 19.1179 7.23126C19.1591 7.14922 19.2473 7.06131 19.312 7.03201C19.3766 7.00271 19.4472 6.97341 19.4707 6.97341H19.4766ZM2.11724 29.1192H3.11693V28.123H2.11724V29.1192ZM16.8774 29.1192H17.8771V28.123H16.8774V29.1192Z" fill="#F6DE63"/>
</svg>
