<svg width="20" height="29" viewBox="0 0 20 29" fill="none" xmlns="http://www.w3.org/2000/svg">
<path fill-rule="evenodd" clip-rule="evenodd" d="M16.3271 0L16.6141 0.130332C16.7747 0.203998 17.0043 0.362663 17.1248 0.487328C17.2511 0.606327 17.4175 0.84999 17.6471 1.33165V20.1448L17.4978 20.4564C17.4175 20.6264 17.2396 20.8758 17.0961 21.0118C16.9584 21.1478 16.7116 21.3008 16.5394 21.3631C16.2468 21.4764 16.0631 21.4764 1.34864 21.4764L1.06169 21.3461C0.901004 21.2724 0.677188 21.1251 0.550932 21.0174C0.430416 20.9098 0.263988 20.6944 0.0286944 20.2581L0 1.33165L0.149211 1.01999C0.229555 0.84999 0.373027 0.623326 0.476327 0.521327C0.579627 0.413662 0.734577 0.288997 0.832137 0.237997C0.923959 0.186998 1.07891 0.113332 1.17647 0.0736658C1.30273 0.0226664 3.24247 0.0056666 16.3271 0V0ZM1.23386 1.51865V19.9464L1.5495 20.2581C14.4333 20.2864 15.9598 20.2751 16.0918 20.2184C16.1836 20.1788 16.2927 20.0938 16.3386 20.0314C16.4017 19.9351 16.4132 18.3711 16.4132 10.7552C16.4132 4.75428 16.396 1.54698 16.3558 1.47332C16.3214 1.41098 16.2181 1.32032 16.1262 1.27499C15.977 1.20132 15.0416 1.18999 8.78049 1.18999H1.60689L1.23386 1.51865Z" fill="#F6DE63"/>
<path fill-rule="evenodd" clip-rule="evenodd" d="M14.9788 16.8577L15.2944 17.1694V18.8807L14.9788 19.1527H13.5441C12.1323 19.1527 12.1094 19.1527 11.9716 19.028C11.8856 18.943 11.8224 18.7957 11.7937 18.6144C11.7708 18.4614 11.7593 18.0874 11.7708 17.7927C11.788 17.3791 11.8167 17.2147 11.9028 17.0957C11.9602 17.0164 12.0864 16.9201 12.1897 16.8917C12.2873 16.8577 12.953 16.8407 14.9788 16.8577ZM10.2729 16.8577L10.5886 17.1694V18.0137C10.5886 18.841 10.5828 18.8637 10.3016 19.1584H7.43218L7.11654 18.8694V18.0364C7.11654 17.3564 7.13376 17.1751 7.20837 17.0731C7.26002 16.9994 7.38053 16.9201 7.47809 16.8917C7.58139 16.8577 8.2471 16.8407 10.2729 16.8577ZM5.52114 16.8577L5.85399 17.2261V18.0194C5.85399 18.7844 5.84825 18.8184 5.56705 19.1527L2.66891 19.1584L2.34754 18.841L2.35327 18.0194C2.35327 17.3621 2.37049 17.1751 2.4451 17.0731C2.49675 16.9994 2.61726 16.9201 2.71482 16.8917C2.81812 16.8577 3.48957 16.8407 5.52114 16.8577ZM13.5556 13.3784C14.5599 13.3728 14.8985 13.3898 15.019 13.4521C15.1108 13.4918 15.2141 13.5938 15.2485 13.6788C15.2944 13.7694 15.3231 14.0868 15.3231 14.5344C15.3231 15.0161 15.3002 15.2938 15.2428 15.3958C15.2026 15.4864 15.0936 15.5884 15.0018 15.6281C14.8755 15.6791 14.491 15.6961 12.1094 15.6677L11.9544 15.5091C11.7937 15.3561 11.7937 15.3561 11.7937 14.5401C11.7937 13.8318 11.8052 13.7071 11.897 13.5994C11.9544 13.5258 12.0577 13.4521 12.1266 13.4238C12.1955 13.4011 12.8382 13.3784 13.5556 13.3784ZM8.84969 13.3784C9.85399 13.3728 10.1926 13.3898 10.3131 13.4521C10.4049 13.4918 10.5082 13.5938 10.5427 13.6788C10.5886 13.7694 10.6173 14.0868 10.6173 14.5344C10.6173 15.0161 10.5943 15.2938 10.5369 15.4014C10.4967 15.4864 10.3877 15.5884 10.2959 15.6281C10.1696 15.6791 9.78512 15.6961 7.41497 15.6677L7.26576 15.5261C7.11654 15.3844 7.11081 15.3788 7.11081 14.5344C7.11081 13.7241 7.12228 13.6788 7.2428 13.5654C7.31741 13.4974 7.41497 13.4294 7.46088 13.4124C7.50679 13.3954 8.13233 13.3784 8.84969 13.3784ZM4.08642 13.3784C5.09072 13.3728 5.42931 13.3898 5.54983 13.4521C5.64165 13.4918 5.74495 13.5938 5.77939 13.6788C5.8253 13.7694 5.85399 14.0868 5.85399 14.5344C5.85399 15.0161 5.83104 15.2938 5.77365 15.4014C5.73347 15.4864 5.62444 15.5884 5.53261 15.6281C5.40636 15.6791 5.02185 15.6961 2.62874 15.6677L2.49101 15.5148C2.35901 15.3618 2.35327 15.3221 2.35327 14.5514C2.35327 13.8998 2.37049 13.7128 2.4451 13.6108C2.49675 13.5371 2.59431 13.4578 2.66317 13.4294C2.7263 13.4011 3.36906 13.3784 4.08642 13.3784ZM14.9788 9.91615L15.2944 10.1881V11.8995L14.9788 12.2111L13.7277 12.2281C12.953 12.2395 12.3906 12.2281 12.2356 12.1885C12.0807 12.1488 11.9602 12.0751 11.8913 11.9731C11.8224 11.8598 11.788 11.6671 11.7708 11.2761C11.7593 10.9815 11.7708 10.6131 11.7937 10.4545C11.8224 10.2731 11.8856 10.1258 11.9716 10.0465C12.1036 9.91615 12.1266 9.91615 14.9788 9.91615ZM7.42071 9.91615L10.3016 9.91048L10.4451 10.0635C10.5828 10.2051 10.5886 10.2278 10.5886 11.8995L10.2729 12.2111L9.07924 12.2281C8.42501 12.2395 7.77652 12.2281 7.63304 12.2055C7.47809 12.1828 7.32314 12.1148 7.2428 12.0355C7.12228 11.9051 7.11654 11.8485 7.09933 10.2165L7.42071 9.91615ZM2.65744 9.91615H5.57279L5.71626 10.0861C5.84825 10.2448 5.85973 10.2845 5.85973 11.0211C5.85973 11.4405 5.83104 11.8428 5.7966 11.9108C5.76791 11.9845 5.68182 12.0751 5.61296 12.1261C5.50966 12.1941 5.23419 12.2111 4.31023 12.2281C3.66174 12.2395 3.01325 12.2281 2.87551 12.2055C2.71482 12.1828 2.56561 12.1148 2.48527 12.0298C2.36475 11.9051 2.35327 11.8485 2.3418 10.2108L2.65744 9.91615ZM14.2614 2.29457L14.5713 2.46456C14.7378 2.5609 14.9559 2.73656 15.0477 2.86123C15.1395 2.98589 15.2371 3.18989 15.2715 3.31455C15.3117 3.46189 15.3231 4.31188 15.3117 5.63786C15.2944 7.64384 15.2887 7.74584 15.1739 7.96117C15.1051 8.08583 14.9386 8.28983 14.8009 8.40316C14.6632 8.52216 14.4566 8.64683 14.3475 8.67516C14.227 8.70916 12.029 8.72049 3.29445 8.69783L3.00751 8.52783C2.81812 8.4145 2.66317 8.25583 2.34754 7.7345L2.38197 3.18422L2.55987 2.94056C2.6517 2.80456 2.83534 2.62323 2.9616 2.53823C3.08211 2.45323 3.30019 2.3569 3.44366 2.32857C3.58713 2.30023 6.06633 2.28323 14.2614 2.29457ZM3.54696 5.52453C3.5527 6.94685 3.57566 7.41151 3.62731 7.46817C3.68469 7.52484 4.7636 7.54184 8.80951 7.54184C12.9186 7.54184 13.9286 7.53051 13.986 7.46817C14.0434 7.41717 14.0548 6.92985 14.0434 5.46786L14.0319 3.54122C4.8956 3.51855 3.67896 3.52989 3.61583 3.58088C3.5527 3.63755 3.53548 3.97755 3.54696 5.52453Z" fill="#F6DE63"/>
<path d="M18.8805 8.44851C18.9436 8.34085 19.0526 8.21618 19.1215 8.17651C19.2019 8.12552 19.3453 8.10852 19.4831 8.12552C19.6265 8.14252 19.7643 8.21051 19.9996 8.44285V20.0537L19.879 20.2124C19.8102 20.2974 19.6724 20.3937 19.5634 20.422C19.4142 20.456 19.3109 20.4447 19.1387 20.3654C18.9723 20.286 18.892 20.2067 18.8403 20.0594C18.7887 19.912 18.7714 18.4444 18.7714 14.2511C18.7657 8.74318 18.7657 8.63551 18.8805 8.44851Z" fill="#F6DE63"/>
<path d="M2.89858 27.4262C2.82972 27.1712 2.8125 26.6499 2.8125 24.5816V22.043H4.01766L4.02914 24.5476C4.04636 26.7632 4.05784 27.0806 4.14392 27.2279C4.19557 27.3186 4.31035 27.4659 4.40217 27.5509C4.48825 27.6359 4.63172 27.7322 4.71781 27.7606C4.82111 27.8002 5.59012 27.8229 8.78093 27.8229V22.043H11.7652V27.8229H12.2243C12.5112 27.8229 12.7637 27.7889 12.8957 27.7322C13.0162 27.6869 13.1654 27.6019 13.2228 27.5509C13.2802 27.4999 13.3778 27.3526 13.4352 27.2279C13.5327 27.0182 13.5442 26.8086 13.5442 22.043H14.8068L14.7895 24.6609C14.7781 27.1372 14.7723 27.3016 14.6633 27.5679C14.6002 27.7209 14.4509 27.9759 14.3419 28.1346C14.2271 28.2876 13.9976 28.5086 13.8254 28.6219C13.6532 28.7352 13.3835 28.8712 13.2286 28.9222C12.9703 29.0072 12.494 29.0129 4.44808 28.9846L4.13244 28.8429C3.96028 28.7636 3.69055 28.5822 3.5356 28.4462C3.38639 28.3046 3.197 28.0892 3.1224 27.9646C3.04779 27.8399 2.94449 27.5962 2.89858 27.4262Z" fill="#F6DE63"/>
</svg>
