<svg width="33" height="36" viewBox="0 0 33 36" fill="none" xmlns="http://www.w3.org/2000/svg">
<path fill-rule="evenodd" clip-rule="evenodd" d="M6.58235 9.98535C6.68926 9.98535 6.95297 10.0716 7.45901 10.2656C7.85458 10.4201 9.78966 11.1855 11.7604 11.9616C13.7311 12.7377 15.6483 13.4923 16.019 13.6396C16.3896 13.7833 17.0809 14.0564 17.5513 14.2433C18.346 14.5559 18.4173 14.5918 18.5599 14.7427C18.6418 14.8325 18.7202 14.9511 18.7309 15.005C18.7452 15.0625 18.7487 15.1954 18.738 15.3032C18.7274 15.4541 18.2498 16.7333 16.6604 20.8547C14.7253 25.8815 14.5935 26.2193 14.4545 26.363C14.3725 26.4456 14.2443 26.5462 14.1659 26.5858C14.0875 26.6253 13.9734 26.6576 13.9164 26.6576C13.8594 26.6576 11.3648 25.7126 8.37488 24.5556C5.38495 23.3986 2.74783 22.3746 2.51263 22.2812C2.22041 22.1662 2.03866 22.0728 1.94244 21.9829C1.86404 21.9111 1.77851 21.8069 1.75357 21.7494C1.72149 21.6847 1.7108 21.5589 1.71793 21.4116C1.73219 21.2068 1.97452 20.5564 3.79199 15.8422C5.18895 12.2167 5.88387 10.4561 5.96227 10.3447C6.02285 10.2584 6.15471 10.1399 6.25093 10.086C6.36853 10.0177 6.47544 9.98535 6.58235 9.98535V9.98535ZM5.90525 14.2971C5.36357 15.7093 4.56887 17.7861 4.13767 18.9144C3.71003 20.0426 3.36791 20.9732 3.3786 20.9876C3.39286 20.9984 5.64154 21.8751 8.37488 22.9315C11.1082 23.9879 13.3712 24.8646 13.3997 24.8754C13.4424 24.8934 13.8059 23.9843 15.2243 20.3085C16.1971 17.7825 16.999 15.6949 17.0061 15.6661C17.0132 15.6338 16.5179 15.4218 15.3419 14.9583C14.4189 14.5918 13.3213 14.1606 12.9007 13.9917C12.4802 13.8264 10.9799 13.2336 9.56871 12.6766C8.15749 12.1197 6.98504 11.6598 6.96366 11.649C6.94584 11.6418 6.91733 11.6562 6.90664 11.6813C6.89595 11.7065 6.44337 12.885 5.90525 14.2971Z" fill="#F6DE63"/>
<path fill-rule="evenodd" clip-rule="evenodd" d="M9.56165 2.30011C9.57591 2.29651 9.67926 2.32526 9.78973 2.36478C9.90377 2.40072 12.4162 3.38524 15.3776 4.55302C18.3354 5.71721 20.8941 6.72689 21.0616 6.79156C21.2826 6.8778 21.4037 6.94966 21.5142 7.06464C21.614 7.16525 21.6817 7.27305 21.7067 7.37366C21.728 7.4563 21.7316 7.58924 21.7209 7.66829C21.7067 7.74734 21.2363 8.98339 20.6803 10.4171C20.1208 11.8507 19.6433 13.0616 19.6183 13.1119C19.5934 13.1622 19.5328 13.2377 19.4865 13.2808C19.4437 13.3239 19.3439 13.385 19.2691 13.4138C19.1978 13.4461 19.0802 13.4713 19.0125 13.4713C18.9412 13.4713 18.5492 13.3383 18.0753 13.1515C17.6298 12.9754 16.0475 12.3502 14.5579 11.7645C13.0683 11.1788 10.8232 10.2913 9.56878 9.79904C8.31437 9.30678 7.25596 8.88278 7.21675 8.86482C7.17755 8.84326 7.09203 8.77858 7.02788 8.71391C6.96017 8.65282 6.88177 8.55581 6.85326 8.49472C6.82475 8.43364 6.7998 8.30069 6.7998 8.1893C6.80337 8.01683 6.93166 7.65752 7.80476 5.42257C8.35713 4.01045 8.83823 2.79237 8.87743 2.72051C8.91306 2.64505 9.00572 2.54085 9.07699 2.48695C9.14827 2.42946 9.28012 2.36838 9.37278 2.34323C9.46187 2.32167 9.54384 2.30011 9.55809 2.30011H9.56165ZM8.55313 7.80124C8.56382 7.81202 10.8339 8.71391 13.5993 9.80263C16.3611 10.8914 18.6276 11.7789 18.6312 11.7717C18.6348 11.7681 18.9412 10.9489 19.3154 9.94995C19.6861 8.95105 19.9783 8.12463 19.9676 8.11025C19.9533 8.09588 19.5257 7.91982 19.0161 7.72219C18.5065 7.52097 17.2057 7.00715 16.1295 6.58316C15.0497 6.15557 13.8488 5.68487 13.4568 5.53036C13.0647 5.37586 12.1061 4.99857 11.3257 4.68956C10.5488 4.38055 9.90377 4.12903 9.89664 4.12903C9.88951 4.12903 9.57947 4.94827 9.20885 5.95436C8.83466 6.95685 8.53888 7.78687 8.55313 7.80124Z" fill="#F6DE63"/>
<path fill-rule="evenodd" clip-rule="evenodd" d="M32.1554 9.33358e-05C32.1697 -0.00349983 32.2409 0.0971088 32.3193 0.222869C32.3942 0.345037 32.5795 0.636083 33 1.29004L32.387 1.68169C32.0485 1.89369 30.5446 2.84947 29.0443 3.80525C27.544 4.75744 26.0615 5.70244 25.7444 5.90366C25.2276 6.23064 25.1635 6.28094 25.1171 6.4103C25.0851 6.48935 24.13 9.02971 22.9932 12.0516C21.8564 15.0734 20.0745 19.8128 19.034 22.5795C17.9934 25.3463 17.1452 27.61 17.1523 27.6136C17.1559 27.6136 17.2414 27.6459 17.3376 27.6818C17.4374 27.7178 17.6512 27.8148 17.8187 27.901C17.9862 27.9837 18.2393 28.1346 18.3818 28.2352C18.5208 28.3358 18.7702 28.5514 18.927 28.7167C19.0874 28.8783 19.3012 29.1406 19.4046 29.2987C19.5079 29.4568 19.6433 29.6868 19.7039 29.8126C19.7645 29.9347 19.8607 30.1755 19.9213 30.3515C19.9783 30.524 20.0496 30.8079 20.0817 30.9875C20.1102 31.1672 20.1351 31.4978 20.1351 31.7241C20.1351 31.9505 20.1102 32.2811 20.0817 32.4607C20.0496 32.6404 19.9783 32.9243 19.9213 33.1003C19.8607 33.2728 19.7645 33.5135 19.7039 33.6393C19.6398 33.7615 19.5115 33.9842 19.4117 34.1316C19.3119 34.2789 19.0803 34.5555 18.8914 34.746C18.7025 34.9364 18.4281 35.17 18.282 35.2706C18.1359 35.3712 17.915 35.5005 17.7938 35.5652C17.6691 35.6263 17.4303 35.7233 17.2592 35.7844C17.0846 35.8419 16.8031 35.9138 16.6249 35.9461C16.4503 35.9748 16.1189 36 15.8944 36C15.6698 36 15.342 35.9748 15.1638 35.9461C14.9892 35.9138 14.7005 35.8383 14.5223 35.7808C14.3477 35.7197 14.0733 35.6048 13.9165 35.5221C13.7597 35.4395 13.5103 35.2814 13.3641 35.17C13.218 35.0586 12.9686 34.8322 12.8118 34.6669C12.655 34.5017 12.4518 34.2537 12.3592 34.1136C12.2701 33.9735 12.1454 33.7579 12.0812 33.6285C12.0171 33.4992 11.9173 33.2584 11.8603 33.0895C11.8033 32.9207 11.7355 32.6476 11.707 32.4787C11.675 32.3098 11.6536 31.9577 11.6536 31.699C11.6536 31.3612 11.675 31.1133 11.7284 30.8546C11.7676 30.6498 11.8567 30.3444 11.9244 30.1719C11.9921 29.9958 12.042 29.8485 12.0385 29.8413C12.0313 29.8305 11.2331 29.5107 10.2637 29.1263C9.29443 28.7418 6.61454 27.6782 4.31241 26.7656C2.01027 25.8529 0.0894519 25.0912 0.0466878 25.0732C-0.0352768 25.0409 -0.0317131 25.0373 0.24269 24.3402C0.392364 23.9557 0.534911 23.6395 0.55273 23.6395C0.574112 23.6395 1.42227 23.9701 2.44148 24.3761C3.46069 24.7785 5.21758 25.4756 6.3437 25.9212C7.46982 26.3703 9.41203 27.1393 10.6558 27.6351C11.8995 28.1274 12.9365 28.5406 12.9543 28.5478C12.9757 28.5586 13.104 28.4723 13.2394 28.3645C13.3784 28.2531 13.61 28.095 13.7561 28.0088C13.9023 27.9262 14.1446 27.8076 14.2907 27.7465C14.4368 27.6854 14.6863 27.6028 14.8431 27.5633C14.9999 27.5237 15.2208 27.4806 15.3349 27.4698C15.4774 27.4555 15.5487 27.4303 15.5701 27.3872C15.5879 27.3513 16.6392 24.5809 17.9078 21.2321C19.1765 17.8833 20.7303 13.7763 21.3646 12.1055C21.9954 10.4346 22.8293 8.22844 23.2177 7.20079C23.6062 6.17315 23.9411 5.31079 23.9625 5.28923C23.9839 5.26408 25.8299 4.06396 28.0643 2.6231C30.2987 1.18224 32.1376 9.33358e-05 32.1554 9.33358e-05ZM15.0925 29.0832C14.9749 29.1155 14.7504 29.2089 14.5936 29.2916C14.3727 29.4065 14.2301 29.5179 13.97 29.7838C13.7063 30.0461 13.5958 30.1899 13.4817 30.4126C13.3998 30.5707 13.2964 30.8294 13.2537 30.9875C13.1895 31.2139 13.1717 31.3648 13.1717 31.7062C13.1717 32.008 13.1931 32.2128 13.2359 32.3889C13.2715 32.529 13.3499 32.7446 13.4069 32.8739C13.4639 33.0033 13.5815 33.2045 13.6635 33.3231C13.749 33.4417 13.9201 33.6321 14.0448 33.7507C14.1695 33.8657 14.3762 34.0238 14.5045 34.0992C14.6328 34.1747 14.8573 34.2753 15.0034 34.3256C15.1495 34.3723 15.4061 34.4334 15.5736 34.4549C15.8017 34.4873 15.9549 34.4873 16.1973 34.4549C16.3755 34.4334 16.6392 34.3723 16.7853 34.3256C16.9314 34.2753 17.1666 34.1675 17.302 34.0848C17.441 34.0022 17.6548 33.8369 17.7795 33.7183C17.9043 33.5998 18.0789 33.3914 18.168 33.2512C18.2606 33.1147 18.3782 32.8811 18.4317 32.741C18.4851 32.5973 18.5564 32.3206 18.5921 32.1302C18.6384 31.8355 18.6419 31.7205 18.6099 31.4367C18.5885 31.2498 18.5243 30.966 18.4709 30.8079C18.4174 30.6498 18.3141 30.4234 18.2464 30.3048C18.1787 30.1863 17.9791 29.9455 17.8009 29.7659C17.5622 29.5251 17.4089 29.403 17.1951 29.2916C17.0383 29.2089 16.7888 29.1083 16.6427 29.0652C16.4788 29.0185 16.2329 28.9861 16.0013 28.9754C15.7946 28.9682 15.5558 28.9754 15.4667 28.9897C15.3776 29.0077 15.2101 29.0472 15.0925 29.0832Z" fill="#F6DE63"/>
</svg>
