<svg width="15" height="30" viewBox="0 0 15 30" fill="none" xmlns="http://www.w3.org/2000/svg">
<path fill-rule="evenodd" clip-rule="evenodd" d="M7.5033 0C11.035 0 12.9069 0.0175781 12.9251 0.0585938C12.9432 0.0878906 13.0462 0.134766 13.1553 0.158203C13.2583 0.175781 13.4703 0.263672 13.6217 0.345703C13.7732 0.427734 14.0337 0.626953 14.2033 0.791016C14.3729 0.949219 14.5849 1.22461 14.6697 1.39453C14.7606 1.55859 14.8757 1.86914 14.9242 2.08008C15.0029 2.41406 15.015 4.08984 14.9847 28.6641L14.8151 28.8047C14.6637 28.9336 14.6031 28.9453 13.3794 28.9453V30H12.289V28.9453H2.7176V30H1.62719V28.9453H0.991113C0.403502 28.9453 0.342924 28.9336 0.0218582 28.6641L0.00368469 15.6328C-0.00843101 6.70898 0.00974253 2.49023 0.0521474 2.22656C0.0884945 2.01562 0.197536 1.68164 0.294461 1.48242C0.397445 1.27148 0.615527 0.978516 0.791205 0.802734C0.966882 0.632812 1.23343 0.427734 1.38487 0.345703C1.53632 0.263672 1.74229 0.175781 1.84527 0.152344C1.9422 0.128906 2.05124 0.0820312 2.07547 0.0527344C2.0997 0.0234375 4.28658 0 7.5033 0V0ZM2.02095 1.18945C1.85133 1.26562 1.61507 1.44141 1.48786 1.58789C1.36064 1.72852 1.22131 1.98047 1.16679 2.13867C1.10015 2.36719 1.08198 2.80078 1.08198 4.06055V5.68359H3.20223V3.10547H4.29264V5.68359H13.9246C13.9246 2.80078 13.9064 2.36719 13.8398 2.13867C13.7853 1.98047 13.646 1.72852 13.5187 1.58789C13.3915 1.44141 13.1553 1.26562 12.9856 1.18945L12.6828 1.05469H2.32384L2.02095 1.18945ZM1.08198 10.8398H4.83785V7.26562H5.92826V10.8398H9.07834C8.18783 8.27344 7.92735 7.5 7.92735 7.4707C7.92735 7.43555 8.10908 7.35352 8.33322 7.27734C8.56342 7.20703 8.78756 7.14844 8.83602 7.14844C8.90266 7.14844 9.10257 7.6582 9.56296 8.99414L10.199 10.8457L13.9246 10.8398V6.73828H1.08198V10.8398ZM1.08198 16.5234H2.7176V12.9492H3.74743V16.5234H4.29264V13.9453L5.35276 13.9746L5.38305 16.5234H10.1687V13.9453H11.2592V16.5234H11.8044V13.9453H12.8342V16.5234H13.9246V11.8945H1.08198V16.5234ZM1.08198 22.2656L2.68731 22.2363L2.7176 18.6328H3.74743L3.77772 22.2363L4.29264 22.2656V18.6328H5.38305V22.2656H13.9246V17.5781H1.08198V22.2656ZM1.08198 27.9492H13.9246V23.2617H1.08198V27.9492Z" fill="#F6DE63"/>
<path d="M10.7139 27.4219V25.6055V23.7891H11.8043V27.4219H10.7139Z" fill="#F6DE63"/>
</svg>
