<svg width="28" height="27" viewBox="0 0 28 27" fill="none" xmlns="http://www.w3.org/2000/svg">
<path fill-rule="evenodd" clip-rule="evenodd" d="M14.2429 0.00231147C14.6686 0.00518265 15.4143 0.0224097 15.9 0.0396368C16.3857 0.0539927 16.98 0.0884468 17.2143 0.111416C17.4514 0.134386 17.8543 0.180325 18.1143 0.211907C18.3743 0.24349 18.8371 0.309528 19.1429 0.355466C19.4486 0.404276 20.0171 0.504768 20.4086 0.585161C20.7971 0.662682 21.3886 0.794757 21.7229 0.880892C22.0543 0.967027 22.56 1.11059 22.8429 1.19959C23.1257 1.2886 23.5371 1.43216 23.7571 1.51542C23.9771 1.59869 24.3514 1.75373 24.5857 1.85709C24.8229 1.96045 25.1829 2.13847 25.3857 2.25044C25.5886 2.36242 25.9 2.54905 26.0714 2.66676C26.2429 2.78161 26.4886 2.95963 26.6143 3.06012C26.74 3.16348 26.9657 3.37307 27.1171 3.52812C27.2686 3.68603 27.4629 3.92147 27.5514 4.05642C27.6371 4.19136 27.7457 4.37799 27.7857 4.47274C27.8286 4.56748 27.8914 4.74263 27.9229 4.86034C27.9829 5.06994 27.9829 5.13598 28 10.0428L27.8543 10.3443C27.7771 10.5108 27.6371 10.7549 27.5486 10.8898C27.46 11.0248 27.2571 11.2631 27.1 11.4239C26.9429 11.5818 26.7114 11.7885 26.5857 11.8832C26.46 11.978 26.26 12.1216 26.1429 12.2019C26.0257 12.2823 25.76 12.4403 25.5571 12.5551C25.3543 12.67 25.0057 12.848 24.7857 12.9513C24.5657 13.0518 24.2571 13.1868 24.1 13.2499C23.9429 13.3131 23.6543 13.4222 23.4571 13.494C23.26 13.5629 22.8886 13.6863 22.6286 13.7639C22.3686 13.8443 21.9314 13.9649 21.6571 14.0338C21.3829 14.1027 20.9714 14.2003 20.7429 14.2491C20.5143 14.2979 20.0714 14.3812 19.7571 14.4357C19.4429 14.4903 18.9543 14.5678 18.6714 14.6051C18.3886 14.6453 17.9314 14.7056 17.6571 14.7401C17.3829 14.7717 16.94 14.8061 16.6714 14.8147C16.3657 14.8233 16.1657 14.8434 16.1286 14.8635C16.0971 14.8836 16.0514 14.9554 16.0286 15.0272C15.9943 15.1334 15.9857 15.6761 15.9686 21.9582L16.1629 21.9955C16.2686 22.0156 16.5629 22.0817 16.8143 22.1448C17.0657 22.2051 17.4714 22.32 17.7143 22.4004C17.9571 22.4808 18.3171 22.6272 18.5143 22.7219C18.7114 22.8167 18.96 22.9603 19.0714 23.0349C19.1829 23.1124 19.3543 23.256 19.4543 23.3565C19.5543 23.457 19.6857 23.6149 19.7486 23.7096C19.8086 23.8044 19.8829 23.9451 19.9114 24.0255C19.94 24.103 19.9743 24.2322 19.9857 24.3126C19.9943 24.3901 19.9914 24.5337 19.9743 24.6284C19.9571 24.7232 19.8971 24.8897 19.8429 25.0017C19.7886 25.1136 19.6829 25.2744 19.6057 25.3606C19.5286 25.4467 19.3714 25.5903 19.2543 25.6793C19.1371 25.7683 18.94 25.9003 18.8143 25.9721C18.6886 26.0439 18.4714 26.1559 18.3286 26.2162C18.1857 26.2793 17.9171 26.3827 17.7286 26.4459C17.54 26.509 17.2257 26.6009 17.0286 26.6497C16.8314 26.6985 16.4857 26.7703 16.2571 26.8076C16.0286 26.8478 15.7343 26.8938 15.6 26.9081C15.4657 26.9254 15.2086 26.9512 15.0286 26.9684C14.8486 26.9856 14.3857 27 14 27C13.6143 27 13.14 26.9856 12.9429 26.9684C12.7457 26.9512 12.3914 26.911 12.1571 26.8794C11.92 26.8478 11.5486 26.7847 11.3286 26.7387C11.1086 26.6928 10.7743 26.6095 10.5857 26.555C10.3971 26.5004 10.1143 26.4085 9.95714 26.3511C9.8 26.2908 9.55429 26.1846 9.41429 26.1128C9.27429 26.0439 9.04 25.9061 8.9 25.8085C8.76 25.7137 8.54571 25.5357 8.42857 25.418C8.28571 25.2744 8.18286 25.1395 8.12286 25.016C8.06857 24.9098 8.01714 24.7433 8 24.6284C7.97714 24.4791 7.97714 24.3786 8.00286 24.2408C8.02 24.1374 8.06 23.9967 8.09143 23.925C8.12286 23.8532 8.18857 23.7383 8.23714 23.6666C8.28571 23.5948 8.40571 23.4598 8.50286 23.3651C8.6 23.2703 8.77143 23.1297 8.88857 23.0493C9.00571 22.9717 9.21714 22.8454 9.35714 22.7708C9.49714 22.6961 9.76857 22.5755 9.95714 22.5037C10.1457 22.432 10.4343 22.3343 10.6 22.2884C10.7657 22.2396 11.1314 22.1506 11.9286 21.9812L11.9486 19.5292C11.96 18.1797 11.9686 16.5862 11.9571 14.898L11.8286 14.875C11.7571 14.8635 11.3771 14.8262 10.9857 14.7946C10.5914 14.763 10.0086 14.7027 9.68571 14.6625C9.36286 14.6224 8.86857 14.5506 8.58571 14.5046C8.30286 14.4587 7.87143 14.3812 7.62857 14.3324C7.38571 14.2836 6.91714 14.1802 6.58571 14.1027C6.25429 14.0251 5.78 13.9017 5.52857 13.8299C5.27714 13.7553 4.85143 13.6232 4.58571 13.5313C4.32 13.4394 3.92571 13.2901 3.71429 13.2011C3.50286 13.1121 3.17429 12.9628 2.98571 12.8709C2.79714 12.7791 2.5 12.6211 2.32857 12.5206C2.15714 12.4202 1.91143 12.268 1.78571 12.1847C1.66 12.0986 1.44286 11.9378 1.3 11.823C1.15714 11.711 0.948571 11.5215 0.831429 11.4038C0.714286 11.286 0.545714 11.0937 0.46 10.976C0.371429 10.8582 0.231429 10.6285 0 10.172V4.81728L0.168571 4.47274C0.26 4.28324 0.411429 4.02483 0.505714 3.8985C0.6 3.77217 0.82 3.53386 0.991429 3.36733C1.16286 3.2008 1.40571 2.99121 1.53143 2.9022C1.65429 2.81319 1.89143 2.65528 2.05714 2.55192C2.22286 2.44568 2.54286 2.2648 2.77143 2.14995C3 2.03223 3.36 1.86284 3.57143 1.77383C3.78286 1.68195 4.14286 1.53839 4.37143 1.45513C4.6 1.37186 4.98 1.24553 5.21429 1.17088C5.45143 1.0991 5.91143 0.967027 6.24286 0.883763C6.57429 0.797628 7.06286 0.682781 7.32857 0.625357C7.59714 0.567934 8.11143 0.470314 8.47143 0.410019C8.83143 0.349724 9.38571 0.26646 9.7 0.226263C10.0143 0.186067 10.56 0.125772 10.9143 0.091318C11.34 0.0511215 11.88 0.0224097 12.5143 0.010925C13.04 0.00231147 13.8171 -0.00343088 14.2429 0.00231147ZM10.0857 1.3288C9.65429 1.37761 9.12 1.44364 8.9 1.47523C8.68 1.50394 8.30571 1.56423 8.07143 1.60443C7.83429 1.64175 7.45714 1.71353 7.22857 1.75947C7 1.80541 6.60857 1.89442 6.35714 1.95758C6.10571 2.02075 5.68857 2.1356 5.42857 2.21599C5.16857 2.29351 4.81714 2.41123 4.64286 2.47152C4.46857 2.53469 4.18 2.64667 4 2.72132C3.82 2.79597 3.51143 2.93666 3.31429 3.03428C3.11714 3.13477 2.84286 3.28694 2.7 3.37307C2.55714 3.46208 2.32857 3.62287 2.18571 3.73197C2.04286 3.84395 1.82857 4.04206 1.70286 4.17413C1.58 4.30621 1.42857 4.49858 1.36857 4.60194C1.30857 4.7053 1.23143 4.86609 1.2 4.96084C1.16571 5.05558 1.13143 5.22498 1.12286 5.33409C1.11429 5.46903 1.12286 5.60111 1.15429 5.73605C1.18286 5.84516 1.24571 6.02891 1.3 6.13802C1.35429 6.24712 1.48 6.44236 1.58286 6.5687C1.68286 6.69503 1.86571 6.88165 1.98571 6.98502C2.10571 7.08838 2.33714 7.25778 2.49429 7.36688C2.65429 7.47312 2.98571 7.66262 3.22857 7.78608C3.47143 7.91241 3.88286 8.09616 4.14286 8.19953C4.40286 8.30289 4.82 8.45219 5.07143 8.53545C5.32286 8.61585 5.77429 8.74505 6.07143 8.82257C6.36857 8.90009 6.79429 9.00346 7.01429 9.05227C7.23429 9.0982 7.62 9.17573 7.87143 9.22167C8.12286 9.27048 8.59714 9.34513 8.92857 9.39394C9.26 9.43987 9.76571 9.50591 10.0571 9.53749C10.3486 9.56908 10.8486 9.61502 11.1714 9.64086C11.4943 9.66383 12.0343 9.69541 12.3714 9.71264C12.7086 9.72699 13.4229 9.74135 13.9571 9.74135C14.4914 9.74135 15.2171 9.72699 15.5714 9.71264C15.9257 9.69541 16.4657 9.66383 16.7714 9.64086C17.0771 9.61502 17.5714 9.57195 17.8714 9.53749C18.1714 9.50591 18.64 9.44849 18.9143 9.41116C19.1886 9.37097 19.64 9.29919 19.9143 9.25325C20.1886 9.20444 20.6571 9.11256 20.9571 9.04652C21.2571 8.98336 21.7314 8.86851 22.0143 8.79099C22.2971 8.71634 22.74 8.58426 23 8.49813C23.26 8.41199 23.6314 8.27705 23.8286 8.19665C24.0257 8.11913 24.34 7.98132 24.5286 7.88944C24.7171 7.80043 25.02 7.63965 25.2 7.53054C25.38 7.42431 25.6314 7.25778 25.7571 7.16303C25.8829 7.06828 26.0943 6.87591 26.2286 6.73522C26.3629 6.59454 26.5143 6.40791 26.5629 6.32177C26.6143 6.23564 26.6886 6.08921 26.7286 5.99446C26.7657 5.89971 26.8114 5.74467 26.8314 5.64992C26.8486 5.55517 26.8571 5.39438 26.8486 5.29102C26.84 5.18766 26.8057 5.02687 26.7714 4.93212C26.7343 4.83738 26.64 4.65649 26.5571 4.53016C26.4686 4.39809 26.2886 4.18562 26.1257 4.0277C25.9629 3.86979 25.7029 3.66019 25.5143 3.53386C25.3343 3.41327 25.0257 3.22952 24.8286 3.12615C24.6314 3.02279 24.3229 2.87636 24.1429 2.79884C23.9629 2.72132 23.6543 2.59786 23.4571 2.52608C23.26 2.4543 22.9057 2.33658 22.6714 2.26193C22.4343 2.19015 21.9914 2.06669 21.6857 1.98917C21.38 1.91165 20.9114 1.80254 20.6429 1.74799C20.3743 1.69344 19.88 1.60156 19.5429 1.54701C19.2057 1.48958 18.6857 1.41206 18.3857 1.37473C18.0857 1.33454 17.6429 1.2886 17.4 1.27424C17.1571 1.25702 16.6029 1.23118 16.1714 1.21395C15.74 1.19672 14.5629 1.17949 13.5571 1.17088C12.12 1.16227 11.6371 1.16801 11.3 1.19959C11.0629 1.22256 10.5171 1.27999 10.0857 1.3288ZM26.6429 7.81192C26.5171 7.90379 26.3 8.05597 26.1571 8.15359C26.0143 8.24833 25.7314 8.42061 25.5286 8.53545C25.3257 8.6503 24.9829 8.82544 24.7714 8.92306C24.56 9.02068 24.2314 9.16424 24.0429 9.23889C23.8543 9.31354 23.4943 9.44562 23.2429 9.53175C22.9914 9.61502 22.6114 9.73561 22.4 9.79877C22.1886 9.85907 21.7829 9.96817 21.5 10.04C21.2171 10.1089 20.76 10.2122 20.4857 10.2668C20.2114 10.3242 19.7486 10.4075 19.4571 10.4563C19.1657 10.5051 18.6771 10.5769 18.3714 10.6142C18.0657 10.6544 17.5314 10.7118 17.1857 10.7434C16.84 10.775 16.3143 10.818 16.0143 10.8381C15.68 10.8611 14.8829 10.8755 13.9429 10.8726C12.7886 10.8726 12.2429 10.8611 11.7143 10.8238C11.3286 10.7951 10.7629 10.7463 10.4571 10.7147C10.1514 10.6831 9.66286 10.6257 9.37143 10.5855C9.08 10.5481 8.61714 10.4764 8.34286 10.4276C8.06857 10.3787 7.63714 10.2984 7.38571 10.2438C7.13429 10.1893 6.74286 10.1031 6.51429 10.0457C6.28571 9.99114 5.85429 9.87629 5.55714 9.78729C5.26 9.70115 4.81429 9.56046 4.57143 9.47433C4.32857 9.38819 4.00571 9.27048 3.85714 9.21018C3.70857 9.14989 3.43143 9.03217 3.24286 8.94603C3.05429 8.86277 2.75143 8.7106 2.57143 8.61298C2.39143 8.51536 1.98857 8.26556 1.67714 8.05597C1.36857 7.84637 1.10571 7.68271 1.09143 7.69133C1.08 7.69994 1.07429 8.09042 1.08 8.55842C1.08286 9.02642 1.1 9.51453 1.11714 9.64086C1.13429 9.77293 1.18 9.94233 1.22571 10.0428C1.26857 10.1376 1.34571 10.2783 1.4 10.3587C1.45429 10.4362 1.55429 10.5711 1.62571 10.6544C1.69714 10.7405 1.86571 10.8984 2 11.0133C2.13429 11.1253 2.37714 11.3061 2.54286 11.4124C2.70857 11.5215 3.04286 11.711 3.28571 11.8344C3.52857 11.955 3.90286 12.1244 4.11429 12.2106C4.32571 12.2938 4.66571 12.4202 4.87143 12.4891C5.07714 12.558 5.42286 12.6671 5.64286 12.7302C5.86286 12.7963 6.24857 12.8968 6.5 12.9571C6.75143 13.0202 7.15143 13.1092 7.38571 13.1581C7.62 13.2069 8.07714 13.2901 8.4 13.3447C8.72286 13.3964 9.24857 13.4739 9.57143 13.5141C9.89429 13.5543 10.3829 13.606 10.6571 13.6289C10.9314 13.6548 11.4457 13.6892 11.8 13.7093C12.1629 13.7294 13.1229 13.7438 14 13.7438C14.8971 13.7438 15.8229 13.7294 16.1857 13.7093C16.5314 13.6892 17.04 13.6519 17.3143 13.6289C17.5886 13.606 18.02 13.5629 18.2714 13.5313C18.5229 13.4997 18.9857 13.4337 19.3 13.3849C19.6143 13.3361 20.1286 13.2442 20.4429 13.181C20.7571 13.1207 21.2914 12.9973 21.6286 12.9111C21.9657 12.8279 22.4229 12.7015 22.6429 12.6326C22.8629 12.5637 23.1771 12.4575 23.3429 12.3972C23.5086 12.3398 23.7971 12.2249 23.9857 12.1474C24.1743 12.067 24.4971 11.9177 24.7 11.8172C24.9029 11.7138 25.1943 11.5502 25.3429 11.4554C25.4914 11.3636 25.7171 11.2056 25.8429 11.1052C25.9686 11.0075 26.1686 10.8238 26.2857 10.7003C26.4057 10.574 26.5514 10.4017 26.6086 10.3156C26.6686 10.2294 26.7429 10.0744 26.7743 9.97104C26.8114 9.84758 26.8429 9.63511 26.86 9.35374C26.8743 9.11543 26.8829 8.63594 26.88 8.28279L26.8714 7.64252L26.6429 7.81192ZM13.1429 23.5804C14.4371 23.5546 14.8171 23.546 14.82 23.5431C14.82 23.5402 14.8314 21.6108 14.84 19.2536L14.8571 14.9669H13.1429V23.5804ZM10.9857 23.3392C10.7657 23.3909 10.4829 23.4685 10.3571 23.5086C10.2314 23.5517 9.98286 23.6551 9.80571 23.7412C9.57429 23.8532 9.44286 23.9393 9.33143 24.0484C9.23714 24.1403 9.16571 24.2437 9.14286 24.3126C9.11143 24.4102 9.11143 24.4475 9.15143 24.5566C9.18286 24.6485 9.24857 24.7346 9.37714 24.8524C9.49714 24.9615 9.65429 25.0648 9.84286 25.1596C10 25.2371 10.2457 25.3405 10.3857 25.3893C10.5257 25.441 10.7714 25.5099 10.9286 25.5472C11.0857 25.5845 11.3829 25.6419 11.5857 25.6735C11.7886 25.708 12.1429 25.7539 12.3714 25.7769C12.6 25.7998 13.0743 25.8343 13.4286 25.8515C13.7829 25.8688 14.2771 25.8745 14.5286 25.863C14.78 25.8544 15.1771 25.8286 15.4143 25.8056C15.6486 25.7798 16.0343 25.7309 16.2714 25.6907C16.5057 25.6505 16.8486 25.5788 17.0286 25.5328C17.2086 25.4869 17.4914 25.4036 17.6571 25.3462C17.8229 25.2888 18.0343 25.2026 18.1286 25.1538C18.2229 25.1079 18.3771 25.0131 18.4714 24.9471C18.5657 24.8782 18.6771 24.7748 18.7229 24.7117C18.7657 24.6514 18.8086 24.548 18.8171 24.4848C18.8314 24.4016 18.82 24.3384 18.7743 24.2494C18.7429 24.1834 18.6543 24.08 18.5771 24.0197C18.5029 23.9594 18.3286 23.8503 18.1857 23.7785C18.0429 23.7039 17.8 23.5977 17.6429 23.5374C17.4857 23.4799 17.1886 23.3881 16.9857 23.3364C16.7829 23.2847 16.48 23.2273 16.3143 23.21C16.1486 23.1899 16.0114 23.1813 16.0057 23.1842C16.0029 23.1899 15.9857 23.3881 15.9714 23.6235C15.9571 23.8618 15.9314 24.1403 15.9143 24.2408C15.8971 24.3442 15.86 24.4705 15.8286 24.5222C15.7914 24.5825 15.7343 24.6284 15.6629 24.6485C15.5886 24.6715 15.0686 24.6858 13.9143 24.6916L12.2714 24.7002C12.0829 24.4619 12.02 24.347 12.0029 24.2695C11.9857 24.2006 11.9714 23.9537 11.9686 23.724C11.9686 23.4972 11.9571 23.2761 11.9457 23.2359C11.9314 23.1871 11.9029 23.1641 11.8571 23.1584C11.8171 23.1555 11.6971 23.1727 11.5857 23.1957C11.4743 23.2215 11.2057 23.2847 10.9857 23.3392Z" fill="#F6DE63"/>
<path d="M10.1856 3.78373C10.4198 3.64304 10.7741 3.43919 10.9713 3.33008C11.2998 3.15207 11.3398 3.13484 11.457 3.1492C11.5284 3.15781 11.6341 3.19801 11.6913 3.2382C11.7513 3.2784 11.8341 3.35879 11.877 3.41622C11.9198 3.47651 11.9598 3.577 11.9684 3.64017C11.9741 3.70333 11.9627 3.79808 11.9398 3.85264C11.917 3.90719 11.8341 4.00768 11.757 4.07946C11.6798 4.14837 11.4456 4.31777 11.2427 4.45558C11.0398 4.59627 10.517 4.92646 10.0856 5.19635C9.65412 5.46337 8.86841 5.94285 8.3427 6.25868C7.81698 6.57451 7.23698 6.91618 7.05698 7.01955C6.87698 7.12291 6.65127 7.24637 6.55698 7.29231C6.4627 7.34112 6.35127 7.38706 6.30555 7.39854C6.2627 7.40715 6.16841 7.40141 6.09127 7.38418C6.01698 7.36696 5.9227 7.32963 5.87698 7.29805C5.83412 7.26934 5.77127 7.18894 5.73984 7.12004C5.69412 7.02816 5.67984 6.96212 5.68841 6.83579C5.69698 6.6951 5.71412 6.65778 5.79984 6.56877C5.85412 6.51135 6.11984 6.31611 6.38555 6.14096C6.65127 5.96295 7.15984 5.63564 7.51412 5.41456C7.86841 5.19348 8.51698 4.79438 8.95698 4.52449C9.39698 4.2546 9.94841 3.92154 10.1856 3.78373Z" fill="#F6DE63"/>
<path d="M6.88555 3.28127C7.4427 2.94534 7.95127 2.64674 8.01412 2.61803C8.07698 2.58932 8.18841 2.56348 8.2627 2.56348C8.3427 2.56348 8.44555 2.58645 8.50555 2.61803C8.56555 2.64674 8.63698 2.69555 8.6627 2.72426C8.68841 2.75585 8.73698 2.83624 8.76841 2.90802C8.79984 2.9798 8.82841 3.0889 8.82841 3.15207C8.82841 3.2382 8.80555 3.2985 8.73698 3.39325C8.67412 3.47938 8.51412 3.60284 8.2427 3.78373C8.0227 3.92729 7.57412 4.2144 7.2427 4.41539C6.91127 4.61924 6.39698 4.92358 6.09984 5.09586C5.8027 5.26525 5.51984 5.41456 5.47127 5.42317C5.4227 5.43178 5.33412 5.42604 5.27127 5.40881C5.20841 5.39159 5.10555 5.33703 5.04555 5.28535C4.9827 5.23367 4.90841 5.13892 4.87984 5.07576C4.85412 5.01259 4.82841 4.90349 4.82841 4.83171C4.82555 4.71973 4.8427 4.68528 4.94841 4.56182C5.0227 4.47855 5.23412 4.31202 5.47127 4.15698C5.69127 4.01055 6.32841 3.6172 6.88555 3.28127Z" fill="#F6DE63"/>
</svg>
