<svg width="33" height="21" viewBox="0 0 33 21" fill="none" xmlns="http://www.w3.org/2000/svg">
<path fill-rule="evenodd" clip-rule="evenodd" d="M16.2473 0.00368177C17.0251 0.0104363 17.4696 0.0306997 17.7289 0.0678494C17.9309 0.0982445 18.2576 0.162412 18.4529 0.206316C18.6482 0.253598 18.958 0.341406 19.1432 0.395442C19.3284 0.452855 19.6853 0.584567 19.9345 0.685885C20.1837 0.787202 20.5777 0.966196 20.81 1.08778C21.0424 1.20936 21.4431 1.44914 21.7024 1.62138C21.9616 1.797 22.3017 2.04016 22.46 2.16849C22.6183 2.29345 22.9348 2.58052 23.1638 2.80679C23.3928 3.02969 23.6992 3.35728 23.8474 3.5329C23.9955 3.70852 24.2211 3.99896 24.3457 4.17458C24.4703 4.35019 24.6623 4.64064 24.7666 4.81625C24.8744 4.99187 25.0798 5.38025 25.2246 5.67745C25.366 5.97465 25.5378 6.36303 25.6017 6.53865C25.6691 6.71426 25.7768 7.04185 25.8442 7.26475C25.9115 7.48765 26.0025 7.85239 26.0462 8.07529C26.09 8.29819 26.1439 8.67306 26.1607 8.91285C26.1809 9.14925 26.1978 9.61869 26.1978 9.95979C26.1978 10.2975 26.1809 10.7501 26.1641 10.9628C26.1473 11.1756 26.1136 11.4559 26.0934 11.5876C26.0732 11.7193 25.9991 12.0537 25.9284 12.3306C25.8577 12.6109 25.7398 13.0027 25.6657 13.2087C25.5916 13.4147 25.4771 13.7085 25.4098 13.8673C25.3391 14.026 25.1943 14.3299 25.0832 14.5427C24.9687 14.7555 24.7532 15.1202 24.6016 15.3532C24.4467 15.5863 24.2144 15.9139 24.0864 16.0794C23.9551 16.2448 23.7228 16.5218 23.5679 16.6906C23.413 16.8561 23.1402 17.1297 22.9651 17.2952C22.79 17.4606 22.5105 17.7004 22.3421 17.8288C22.1738 17.9605 21.864 18.18 21.6518 18.3218C21.4363 18.4637 21.0525 18.6866 20.7932 18.8217C20.5339 18.9534 20.187 19.1189 20.0187 19.1898C19.8503 19.2573 19.5405 19.3722 19.3284 19.4465C19.1162 19.5174 18.7593 19.6221 18.537 19.6795C18.3148 19.7369 17.9882 19.8045 17.8131 19.8348C17.6043 19.8686 17.1531 19.8923 16.5166 19.9024C15.897 19.9125 15.3852 19.9058 15.1192 19.8821C14.8868 19.8585 14.5467 19.8112 14.3615 19.7707C14.1763 19.7335 13.8194 19.6423 13.5702 19.568C13.321 19.4937 12.9405 19.3654 12.7284 19.281C12.5162 19.1965 12.1593 19.0378 11.937 18.9297C11.7148 18.8217 11.368 18.6325 11.1626 18.511C10.9571 18.386 10.6642 18.1935 10.5059 18.0787C10.3477 17.9672 10.0547 17.7342 9.84929 17.562C9.64388 17.3931 9.32062 17.0858 9.12531 16.8865C8.93001 16.6839 8.67072 16.3901 8.54276 16.2313C8.41817 16.0726 8.23297 15.8294 8.13531 15.691C8.03429 15.5525 7.86929 15.2992 7.76827 15.1337C7.66725 14.9682 7.47195 14.6035 7.33052 14.3232C7.19246 14.0463 7.01062 13.641 6.92643 13.4282C6.84225 13.2155 6.72776 12.8811 6.67052 12.6852C6.61664 12.4893 6.53246 12.155 6.48531 11.9422C6.44154 11.7295 6.38429 11.3884 6.36072 11.1824C6.33715 10.9662 6.32031 10.436 6.32031 9.91589C6.32031 9.30461 6.33715 8.88583 6.37419 8.59876C6.4045 8.36573 6.48531 7.95709 6.55266 7.68691C6.62001 7.41673 6.7345 7.02497 6.80521 6.81896C6.87929 6.60957 7.02072 6.24482 7.12174 6.00842C7.22613 5.76863 7.40123 5.41065 7.51235 5.20463C7.62348 4.99862 7.82888 4.66765 7.96358 4.46164C8.10164 4.25901 8.34409 3.92128 8.50909 3.71865C8.67072 3.51601 9.00072 3.14789 9.24317 2.90811C9.48225 2.66495 9.84592 2.33398 10.0513 2.17187C10.2567 2.00976 10.5867 1.76322 10.7921 1.62814C10.9976 1.49305 11.3175 1.29717 11.5094 1.19247C11.698 1.0844 12.001 0.932423 12.1795 0.85137C12.3613 0.770316 12.6476 0.652112 12.8126 0.584567C12.9776 0.5204 13.3278 0.405574 13.587 0.331274C13.8463 0.256975 14.2639 0.155658 14.5131 0.108376C14.7623 0.0610949 15.0047 0.0171907 15.0518 0.00705901C15.099 0.000304526 15.6378 -0.00307272 16.2473 0.00368177ZM14.5299 1.19923C14.2504 1.25326 13.8059 1.37146 13.5365 1.45927C13.2671 1.5437 12.8732 1.6923 12.661 1.78687C12.4489 1.88143 12.1223 2.04354 11.937 2.14485C11.7518 2.24279 11.4252 2.44543 11.2131 2.58727C11.0009 2.73249 10.6608 2.99592 10.4554 3.16816C10.25 3.34377 9.94358 3.63759 9.76848 3.82334C9.59674 4.00571 9.32399 4.33331 9.16235 4.54607C9.00072 4.75884 8.78184 5.07968 8.67072 5.25529C8.56297 5.43091 8.37103 5.7889 8.24643 6.04895C8.11848 6.30899 7.94001 6.75141 7.84909 7.02835C7.7548 7.30866 7.64031 7.70042 7.59654 7.90643C7.54939 8.11244 7.48541 8.4603 7.45174 8.68319C7.40797 8.98377 7.3945 9.30123 7.3945 9.91589C7.3945 10.4157 7.41133 10.8683 7.43827 11.0641C7.46184 11.2398 7.51909 11.5741 7.56623 11.8071C7.61337 12.0402 7.70092 12.3948 7.76154 12.6008C7.82552 12.8068 7.94337 13.1412 8.02419 13.3438C8.10501 13.5498 8.23633 13.8436 8.31715 14.0023C8.3946 14.1611 8.55623 14.4481 8.67072 14.644C8.78858 14.8399 8.98725 15.1371 9.11521 15.3093C9.2398 15.4782 9.48225 15.772 9.64725 15.9612C9.81225 16.1503 10.0648 16.4069 10.2029 16.5319C10.3409 16.6569 10.6002 16.873 10.7753 17.0115C10.9504 17.1499 11.2232 17.3458 11.3814 17.4438C11.5397 17.5451 11.8663 17.7308 12.1054 17.8592C12.3445 17.9841 12.7486 18.1631 12.9978 18.2611C13.2469 18.3556 13.6409 18.4873 13.8733 18.5481C14.1056 18.6123 14.476 18.6967 14.6983 18.7339C14.998 18.7845 15.3179 18.8082 15.9442 18.8217C16.4695 18.8352 16.9578 18.8251 17.2406 18.8014C17.4898 18.7778 17.877 18.7237 18.0993 18.6798C18.3215 18.6359 18.7223 18.5279 18.9916 18.44C19.261 18.3556 19.655 18.207 19.8671 18.1158C20.0793 18.0246 20.4059 17.8659 20.5911 17.7612C20.7763 17.6599 21.0727 17.4775 21.2478 17.3593C21.4229 17.2411 21.6956 17.0452 21.8539 16.9169C22.0121 16.792 22.3219 16.5083 22.5442 16.282C22.7698 16.0591 23.0493 15.7551 23.1671 15.6065C23.2884 15.4579 23.514 15.1472 23.6689 14.9142C23.8238 14.6812 24.0696 14.2489 24.2144 13.9517C24.3861 13.5971 24.5478 13.2019 24.6791 12.8034C24.7902 12.4691 24.9114 12.0368 24.9485 11.8409C24.9855 11.645 25.036 11.3411 25.0596 11.1655C25.0798 10.9865 25.1 10.4495 25.1 9.94966C25.1 9.43294 25.0798 8.91285 25.0562 8.71697C25.0327 8.53122 24.9788 8.21376 24.935 8.00775C24.8912 7.80511 24.7936 7.44037 24.7128 7.19721C24.6353 6.95742 24.504 6.59944 24.4232 6.40356C24.3424 6.20768 24.1976 5.90372 24.1066 5.72811C24.0124 5.55249 23.8103 5.21814 23.6554 4.98511C23.5005 4.75208 23.2715 4.43462 23.1436 4.27589C23.019 4.12054 22.7563 3.8301 22.561 3.63422C22.3657 3.43834 22.0559 3.15803 21.8707 3.00943C21.6855 2.85745 21.4195 2.65819 21.2814 2.56701C21.1434 2.47245 20.8706 2.30358 20.6753 2.18876C20.48 2.07731 20.1702 1.91858 19.985 1.83415C19.7998 1.74972 19.4967 1.62814 19.3115 1.56397C19.1263 1.4998 18.7627 1.39173 18.5034 1.32756C18.2441 1.26002 17.8501 1.18234 17.6279 1.15532C17.4056 1.12493 16.951 1.08778 16.6177 1.06751C16.2843 1.05063 15.9509 1.03712 15.8768 1.0405C15.8028 1.0405 15.5839 1.054 15.3886 1.07089C15.1933 1.0844 14.806 1.14181 14.5299 1.19923Z" fill="#F6DE63"/>
<path fill-rule="evenodd" clip-rule="evenodd" d="M16.3656 3.65121C16.7932 3.66134 17.0895 3.68498 17.3084 3.73226C17.4835 3.76604 17.7495 3.8302 17.8977 3.87073C18.0459 3.91126 18.3355 4.01257 18.5375 4.09701C18.7395 4.17806 19.0224 4.30977 19.1605 4.38407C19.2985 4.46175 19.541 4.61035 19.6992 4.71504C19.8575 4.81973 20.1202 5.02237 20.2885 5.16084C20.4569 5.2993 20.696 5.52558 20.8239 5.66405C20.9519 5.80251 21.1472 6.03554 21.2617 6.18414C21.3728 6.33274 21.5412 6.5759 21.6321 6.7245C21.723 6.8731 21.8712 7.14665 21.9587 7.3324C22.0463 7.51815 22.1709 7.82886 22.2349 8.02474C22.2988 8.22062 22.383 8.53808 22.4234 8.73396C22.4638 8.92984 22.511 9.28783 22.5278 9.52761C22.5514 9.81805 22.5514 10.1085 22.5278 10.3888C22.511 10.6218 22.4638 10.9697 22.4234 11.1656C22.383 11.3615 22.2988 11.6789 22.2349 11.8748C22.1709 12.0707 22.0294 12.4118 21.9217 12.6347C21.8139 12.8576 21.6355 13.1784 21.5243 13.3439C21.4132 13.5094 21.1943 13.7998 21.0394 13.9822C20.8879 14.1679 20.632 14.4347 20.4737 14.5766C20.3155 14.7151 20.0966 14.9008 19.9855 14.9852C19.8743 15.073 19.6622 15.2183 19.514 15.3094C19.3659 15.404 19.1167 15.5425 18.9584 15.6235C18.8002 15.7012 18.5577 15.8127 18.4197 15.8667C18.2816 15.9174 18.0324 16.0018 17.864 16.0457C17.6957 16.093 17.433 16.1538 17.2748 16.1808C17.1165 16.2112 16.7629 16.2449 16.4834 16.2551C16.1703 16.2686 15.8436 16.2585 15.6248 16.2348C15.4294 16.2112 15.1432 16.1639 14.985 16.1301C14.8267 16.0963 14.5708 16.0254 14.4125 15.9748C14.2542 15.9275 13.9815 15.8228 13.8064 15.7451C13.6313 15.6674 13.3417 15.5188 13.1666 15.4141C12.9915 15.3128 12.7187 15.1305 12.5605 15.0123C12.4022 14.8974 12.116 14.6475 11.924 14.4618C11.7321 14.2726 11.4897 14.016 11.3819 13.8843C11.2775 13.7525 11.0957 13.5026 10.9778 13.327C10.8633 13.1514 10.7084 12.8846 10.6343 12.736C10.5603 12.5874 10.4458 12.3375 10.3818 12.1787C10.3178 12.02 10.2168 11.6924 10.1528 11.4526C10.0922 11.2129 10.0215 10.8616 9.99792 10.6759C9.97435 10.4564 9.96424 10.1254 9.97771 9.73024C9.99118 9.25405 10.0148 9.03791 10.0821 8.73396C10.1292 8.52119 10.2168 8.20035 10.274 8.02474C10.3313 7.84912 10.4727 7.50802 10.5906 7.26486C10.7084 7.0217 10.8802 6.71099 10.9711 6.57252C11.0654 6.43406 11.2405 6.19765 11.3583 6.04905C11.4762 5.90045 11.7489 5.61339 11.9611 5.40737C12.1732 5.20136 12.483 4.93794 12.648 4.82311C12.813 4.70491 13.0925 4.52591 13.2676 4.42797C13.4427 4.33003 13.7525 4.17806 13.9579 4.09701C14.1633 4.01257 14.5034 3.89775 14.7156 3.84033C14.9277 3.78292 15.2476 3.712 15.4227 3.68498C15.6517 3.65121 15.9211 3.64108 16.3656 3.65121ZM15.1028 4.85351C14.9176 4.89403 14.6516 4.96158 14.5135 5.00886C14.3755 5.05276 14.1566 5.1372 14.0253 5.19461C13.8939 5.25202 13.6751 5.36685 13.537 5.45128C13.3989 5.53233 13.1632 5.69444 13.0151 5.81264C12.8669 5.93085 12.6447 6.1301 12.5201 6.25844C12.3988 6.3834 12.1901 6.63331 12.0587 6.80893C11.9274 6.98455 11.7388 7.2885 11.6378 7.48438C11.5368 7.68026 11.4021 7.99096 11.3381 8.17671C11.2741 8.36246 11.1866 8.67992 11.1462 8.88593C11.1024 9.10545 11.0654 9.45331 11.0553 9.73024C11.0418 10.0106 11.0519 10.3415 11.0755 10.5408C11.099 10.7265 11.1529 11.0305 11.1967 11.2162C11.2405 11.402 11.3314 11.7059 11.3987 11.8917C11.4661 12.0774 11.5873 12.351 11.6681 12.4996C11.7489 12.6482 11.9005 12.8846 12.0049 13.0231C12.1126 13.1615 12.3349 13.4182 12.5066 13.5904C12.675 13.766 12.9275 13.9957 13.0656 14.1004C13.2036 14.2085 13.3821 14.3368 13.4629 14.3841C13.5404 14.4347 13.7525 14.5496 13.9343 14.6408C14.1128 14.7319 14.4058 14.8535 14.5809 14.9109C14.756 14.9717 15.0523 15.0528 15.2375 15.0899C15.5136 15.1507 15.6887 15.1642 16.2309 15.1642C16.7798 15.1676 16.9481 15.1541 17.2579 15.0933C17.46 15.0528 17.7866 14.9616 17.9819 14.8974C18.1772 14.8299 18.4937 14.6914 18.689 14.5901C18.8843 14.4854 19.1638 14.3165 19.312 14.2118C19.4602 14.1072 19.7464 13.8539 19.9518 13.6478C20.1572 13.4418 20.4131 13.1413 20.5276 12.9724C20.6421 12.8069 20.8105 12.5165 20.9048 12.3307C20.9957 12.145 21.1169 11.8647 21.1741 11.7059C21.228 11.5472 21.3055 11.2703 21.3459 11.0879C21.3829 10.9089 21.4334 10.5746 21.4536 10.3483C21.4806 10.0443 21.4806 9.82143 21.4536 9.51748C21.4334 9.2912 21.3863 8.96361 21.3459 8.79475C21.3088 8.62251 21.2415 8.36584 21.1943 8.22737C21.1472 8.0889 21.0462 7.83561 20.9654 7.67013C20.8879 7.50464 20.7398 7.23784 20.6354 7.07911C20.5343 6.92038 20.3424 6.67046 20.2111 6.52186C20.0798 6.37327 19.8306 6.12673 19.6588 5.97137C19.4871 5.81602 19.248 5.62352 19.1268 5.54246C19.0056 5.46141 18.7867 5.33983 18.6385 5.26891C18.4904 5.20136 18.194 5.08654 17.9819 5.01561C17.7698 4.94469 17.4364 4.85688 17.2411 4.81636C17.0155 4.76908 16.7158 4.73868 16.4161 4.73193C16.1568 4.72517 15.8302 4.73193 15.6921 4.74881C15.554 4.7657 15.288 4.81298 15.1028 4.85351Z" fill="#F6DE63"/>
<path d="M12.186 9.57849C12.2163 9.53459 12.2938 9.47718 12.3577 9.45354C12.4217 9.42989 12.5295 9.41301 12.5935 9.41301C12.6574 9.41301 12.7753 9.44678 12.8527 9.49406C12.9571 9.55485 13.0177 9.6224 13.0683 9.73722C13.1221 9.85543 13.1356 9.9331 13.1188 10.0175C13.1087 10.0817 13.0649 10.1898 13.0211 10.2539C12.9773 10.3181 12.8864 10.3992 12.8191 10.4296C12.7517 10.4633 12.6372 10.4903 12.5699 10.4903C12.4992 10.4903 12.3881 10.4633 12.3241 10.4262C12.2601 10.3924 12.1725 10.3046 12.1321 10.2337C12.0884 10.1628 12.0547 10.0446 12.0547 9.97363C12.0547 9.90609 12.0715 9.80815 12.0917 9.75411C12.1119 9.70345 12.1523 9.62577 12.186 9.57849Z" fill="#F6DE63"/>
<path d="M14.6307 5.92769C14.7789 5.85677 14.9607 5.78585 15.0348 5.76896C15.1089 5.7487 15.1964 5.73519 15.2267 5.73181C15.2604 5.72844 15.3379 5.7487 15.3951 5.77234C15.4557 5.79936 15.5466 5.8669 15.5971 5.92432C15.6544 5.98849 15.6982 6.0898 15.7116 6.17423C15.7251 6.25529 15.715 6.37349 15.6948 6.43766C15.6746 6.50183 15.6173 6.59639 15.5668 6.64705C15.513 6.69771 15.3513 6.78889 15.2032 6.84968C15.055 6.91385 14.8496 7.01854 14.7486 7.08609C14.6475 7.15363 14.4859 7.28197 14.3916 7.37315C14.3007 7.46096 14.1492 7.6332 14.0616 7.75478C13.9707 7.87636 13.8394 8.09588 13.7653 8.24448C13.6879 8.39308 13.5835 8.57883 13.533 8.65651C13.4791 8.73756 13.3882 8.82537 13.3343 8.85239C13.2804 8.8794 13.1827 8.90305 13.1255 8.90305C13.0649 8.90305 12.9538 8.87265 12.8797 8.83888C12.8056 8.8051 12.7113 8.74094 12.6743 8.69703C12.6339 8.65313 12.5901 8.5687 12.58 8.51466C12.5665 8.45725 12.5834 8.32216 12.6137 8.21071C12.6406 8.09926 12.7248 7.8865 12.7955 7.7379C12.8662 7.5893 13.0144 7.34614 13.1221 7.19754C13.2333 7.04894 13.4589 6.79902 13.6239 6.64029C13.7889 6.48156 14.0212 6.28231 14.1424 6.20125C14.2637 6.1202 14.4825 5.99524 14.6307 5.92769Z" fill="#F6DE63"/>
<path fill-rule="evenodd" clip-rule="evenodd" d="M2.64337 1.53041C2.70061 1.54054 2.81847 1.58782 2.90939 1.63848C2.99694 1.68576 3.08786 1.75668 3.10806 1.79383C3.135 1.84112 3.14847 2.61113 3.16531 6.77527H4.17551L4.18561 4.40107C4.19571 2.4963 4.20918 1.99647 4.24622 1.86476C4.27653 1.75668 4.32704 1.67563 4.38765 1.62835C4.46173 1.57431 4.53245 1.55743 4.67388 1.5608C4.79847 1.5608 4.91296 1.58782 5.00051 1.63173C5.07459 1.66888 5.15878 1.72967 5.18571 1.76006C5.22949 1.8141 5.23622 2.26665 5.2598 8.75095L5.1251 9.02113C5.05102 9.16973 4.9298 9.37237 4.85235 9.46693C4.77827 9.56487 4.61327 9.73035 4.48531 9.83505C4.36071 9.93637 4.13173 10.085 3.97347 10.166C3.8152 10.2471 3.56939 10.3383 3.16531 10.4396V13.0907H4.20918L4.21255 19.9972L4.08122 20.1998C4.01051 20.3113 3.88592 20.4666 3.80173 20.5477C3.72092 20.6253 3.56939 20.7334 3.46837 20.7874C3.36735 20.8415 3.19224 20.9124 3.08112 20.9428C2.96327 20.9766 2.76796 21.0002 2.60969 21.0002C2.43796 20.9968 2.25949 20.9732 2.12143 20.9293C2.0002 20.8921 1.81163 20.8043 1.70051 20.7402C1.58939 20.6726 1.46143 20.5848 1.41765 20.5443C1.37388 20.5038 1.27286 20.3687 1.04388 20.0141V13.0907H2.08775V10.4227H2.00357C1.95643 10.4227 1.80153 10.3855 1.65673 10.3383C1.51531 10.2944 1.26949 10.1762 1.11122 10.0782C0.93949 9.97352 0.717245 9.79452 0.555612 9.62904C0.370408 9.44329 0.242449 9.27105 0 8.8185L0.00673469 5.33318C0.0168367 1.86813 0.0168367 1.84787 0.087551 1.75331C0.124592 1.70265 0.208776 1.63173 0.272755 1.60133C0.336735 1.56756 0.447857 1.54054 0.521939 1.54054C0.616224 1.54054 0.707143 1.57094 0.818265 1.64186C0.905816 1.69589 0.99 1.77357 1.0102 1.81072C1.03041 1.85125 1.05398 2.81376 1.09439 6.77527H2.08775L2.08439 1.82761L2.22918 1.70265C2.31 1.6351 2.41102 1.56418 2.45816 1.5473C2.50531 1.53041 2.58612 1.52028 2.64337 1.53041ZM1.07755 8.25112C1.07418 8.63613 1.07755 8.65301 1.17184 8.78473C1.22235 8.85903 1.32673 8.9671 1.40082 9.02789C1.47153 9.0853 1.61633 9.17311 1.71735 9.22039C1.81837 9.26767 2.03051 9.33184 2.18878 9.36223C2.39082 9.40276 2.56592 9.41289 2.77806 9.39938C2.94643 9.38588 3.17878 9.34873 3.3 9.31158C3.42122 9.27443 3.6098 9.18324 3.72092 9.11232C3.83204 9.03802 3.95663 8.94346 3.99704 8.89955C4.03745 8.85565 4.08796 8.77122 4.10816 8.71718C4.12837 8.65977 4.15531 8.44362 4.16878 8.23424L4.19235 7.85598H1.07755V8.25112ZM2.12816 16.9137C2.13827 19.4433 2.145 19.6662 2.19888 19.7844C2.23929 19.8756 2.28306 19.9161 2.35041 19.9262C2.40092 19.933 2.54908 19.9364 2.67704 19.933C2.80837 19.9296 2.93296 19.9127 2.95653 19.9026C2.9801 19.8891 3.02388 19.8216 3.05755 19.7506C3.11143 19.6324 3.11816 19.4129 3.1249 16.8969L3.135 14.1681H2.11806L2.12816 16.9137Z" fill="#F6DE63"/>
<path fill-rule="evenodd" clip-rule="evenodd" d="M29.9527 1.55722C30.2153 1.56397 30.3938 1.59099 30.5588 1.64165C30.6901 1.68218 30.8921 1.76661 31.0134 1.8274C31.1346 1.88819 31.3467 2.02666 31.4848 2.13811C31.6229 2.24956 31.8215 2.44544 31.9259 2.57377C32.0303 2.70211 32.1751 2.89799 32.2458 3.00943C32.3165 3.12088 32.4512 3.38093 32.5489 3.58357C32.6465 3.7862 32.7644 4.06989 32.8115 4.20836C32.8587 4.34682 32.9193 4.60012 32.9496 4.7656C32.9833 4.97499 33.0001 5.28232 33.0001 5.745C33.0001 6.20768 32.9833 6.51501 32.9496 6.7244C32.9193 6.88989 32.8587 7.14318 32.8115 7.28165C32.7644 7.42011 32.6331 7.73082 32.5152 7.97398C32.3973 8.21714 32.2121 8.5346 32.101 8.6832C31.9899 8.8318 31.7879 9.06145 31.6498 9.18979C31.5117 9.3215 31.2962 9.49036 31.1649 9.56804C31.0336 9.64571 30.8181 9.75716 30.4375 9.93278L30.4409 13.0905H31.4848V19.997L31.34 20.2131C31.2625 20.3313 31.1245 20.4968 31.0302 20.5778C30.9393 20.6623 30.7878 20.7636 30.6935 20.8075C30.6025 20.8514 30.4274 20.9122 30.3062 20.9426C30.1547 20.9831 29.9897 20.9966 29.7674 20.9865C29.4711 20.9764 29.4273 20.9662 29.1546 20.8311C28.9896 20.7535 28.7875 20.6251 28.7034 20.5441C28.6192 20.4664 28.4912 20.3077 28.2858 19.9801V13.0905H29.3297L29.3331 9.93278L29.0536 9.80107C28.8987 9.72677 28.6596 9.59506 28.5215 9.50725C28.3801 9.41944 28.1478 9.22356 27.9996 9.06483C27.8514 8.91285 27.6629 8.68658 27.5854 8.565C27.5046 8.44342 27.3564 8.17999 27.2588 7.97398C27.1578 7.76797 27.0231 7.44375 26.9591 7.24787C26.8951 7.05199 26.8278 6.77506 26.8075 6.62984C26.7873 6.48799 26.7705 6.08948 26.7705 5.745C26.7705 5.40052 26.7873 5.00201 26.8075 4.85679C26.8278 4.71494 26.8917 4.44476 26.9557 4.25901C27.0163 4.07327 27.1308 3.7862 27.2083 3.61734C27.2857 3.44848 27.4036 3.2222 27.4675 3.11075C27.5349 2.9993 27.6528 2.82369 27.7302 2.72237C27.8077 2.62105 27.9524 2.45557 28.0535 2.35763C28.1545 2.25631 28.3262 2.11109 28.4373 2.03003C28.5485 1.94898 28.7673 1.82065 28.9256 1.74635C29.0839 1.67205 29.296 1.59437 29.397 1.57748C29.4981 1.55722 29.7506 1.55047 29.9527 1.55722ZM29.1445 2.81693C29.0536 2.86759 28.8818 2.9993 28.764 3.11075C28.6461 3.2222 28.4778 3.42146 28.3936 3.54979C28.306 3.67813 28.1882 3.90778 28.1275 4.05638C28.0669 4.20498 27.9895 4.44814 27.9491 4.59674C27.912 4.74534 27.8649 4.99525 27.8447 5.15398C27.8211 5.32622 27.8144 5.63693 27.8245 5.93075C27.838 6.20431 27.875 6.55554 27.912 6.7244C27.9457 6.88989 28.0232 7.15669 28.0804 7.31542C28.1377 7.47415 28.2454 7.70042 28.3161 7.822C28.3868 7.94358 28.535 8.13947 28.6428 8.25767C28.7539 8.37587 28.9323 8.53123 29.0435 8.60552C29.1546 8.67645 29.3432 8.76763 29.4644 8.80478C29.589 8.84193 29.7809 8.86895 29.9122 8.86895C30.0503 8.86895 30.2187 8.84193 30.35 8.79803C30.4645 8.7575 30.6362 8.67645 30.7271 8.61566C30.8214 8.55824 30.9932 8.40289 31.1144 8.27118C31.2356 8.14284 31.3871 7.94696 31.4511 7.83551C31.5151 7.72744 31.6195 7.50117 31.6835 7.3323C31.7441 7.16682 31.8283 6.88313 31.8653 6.70751C31.9225 6.44747 31.936 6.27185 31.936 5.76189C31.936 5.2553 31.9192 5.07631 31.8653 4.81626C31.8249 4.64064 31.7609 4.39748 31.7205 4.2759C31.6801 4.15432 31.5892 3.9348 31.5185 3.7862C31.4444 3.6376 31.2996 3.41133 31.1918 3.28299C31.0841 3.15466 30.9056 2.98579 30.7945 2.90812C30.6834 2.83382 30.5083 2.74263 30.4072 2.70886C30.3062 2.67509 30.1008 2.64132 29.9527 2.63456C29.7775 2.62443 29.6193 2.64132 29.4981 2.67509C29.397 2.70211 29.2388 2.76627 29.1445 2.81693ZM29.3735 16.846C29.3869 18.9298 29.4004 19.5613 29.4374 19.693C29.4678 19.8112 29.5048 19.872 29.5654 19.9024C29.6159 19.926 29.7573 19.9396 29.9223 19.9362C30.1075 19.9328 30.2119 19.9125 30.2523 19.8788C30.2827 19.8517 30.3231 19.7606 30.3433 19.6761C30.3702 19.5748 30.387 18.6123 30.3938 16.8494L30.4106 14.1712H29.3533L29.3735 16.846Z" fill="#F6DE63"/>
</svg>
