<svg width="28" height="28" viewBox="0 0 28 28" fill="none" xmlns="http://www.w3.org/2000/svg">
<path fill-rule="evenodd" clip-rule="evenodd" d="M16.2857 0.0002732C16.3086 -0.00258654 16.4514 0.0174316 16.5999 0.0403096C16.7485 0.0660472 16.9542 0.111803 17.057 0.14612C17.1598 0.177577 17.2998 0.234772 17.3712 0.269089C17.4426 0.306265 17.5826 0.394917 17.6854 0.47213C17.7883 0.546484 17.9397 0.680892 18.0225 0.766684C18.1053 0.855336 18.231 1.00976 18.2996 1.11271C18.3681 1.21566 18.4567 1.37581 18.4938 1.47018C18.5338 1.56455 18.5852 1.74186 18.6109 1.86482C18.6366 1.98493 18.6566 2.20799 18.6566 2.62838L18.7652 2.64267C18.8223 2.65125 19.0308 2.70559 19.2279 2.75992C19.425 2.81712 19.7964 2.94581 20.0563 3.0459C20.3163 3.14885 20.7705 3.35189 21.0704 3.5006C21.4017 3.6636 21.7817 3.88094 22.0416 4.05253C22.2787 4.20981 22.5843 4.43287 22.7272 4.54726C22.87 4.66165 23.1071 4.85897 23.2556 4.99052C23.4042 5.11921 23.7127 5.41662 23.9412 5.64826C24.1697 5.88276 24.4439 6.18303 24.5525 6.31744C24.6582 6.45185 24.8781 6.7607 25.0409 7.00378C25.2038 7.24686 25.4294 7.61576 25.538 7.8188C25.6494 8.02185 25.8094 8.345 25.895 8.53374C25.9807 8.72248 26.1121 9.05135 26.1921 9.26297C26.2692 9.47459 26.3807 9.80918 26.4349 10.0065C26.4921 10.2038 26.5692 10.5127 26.6092 10.6928C26.6492 10.873 26.7006 11.1761 26.7263 11.3649C26.7491 11.5536 26.792 11.9597 26.872 12.8234L26.9548 12.8405C27.0034 12.8519 27.1519 12.8605 27.2919 12.8634C27.429 12.8634 27.5832 12.8834 27.6347 12.9034C27.6832 12.9263 27.7746 12.9978 27.8346 13.0607C27.8918 13.1265 27.9546 13.2151 27.9717 13.2609C27.9889 13.3038 28.0003 13.4039 28.0003 13.4811C28.0003 13.5697 27.9746 13.6698 27.9346 13.7499C27.8975 13.8185 27.8289 13.8986 27.7832 13.9244C27.7375 13.9529 27.6204 13.9901 27.5261 14.0073C27.4319 14.0244 27.1605 14.0387 26.4921 14.0387L24.1554 16.3837L16.8285 16.3809C12.7979 16.3809 9.27584 16.3723 8.49601 16.3408L8.30177 16.1692C8.19322 16.0749 7.65905 15.5573 6.13082 14.0416L5.65949 14.0387C5.39955 14.0387 5.14246 14.0273 5.08819 14.0159C5.03392 14.0044 4.94822 13.9615 4.89966 13.9244C4.8511 13.8843 4.77969 13.8071 4.74255 13.7528C4.70542 13.6984 4.67114 13.5955 4.66543 13.524C4.65686 13.4325 4.67114 13.3524 4.7197 13.2409C4.75683 13.1551 4.82253 13.055 4.86538 13.0178C4.91109 12.9835 5.01392 12.932 5.0939 12.9091C5.18531 12.8834 5.35956 12.8662 5.8166 12.8662L5.8366 12.4316C5.84802 12.1913 5.87659 11.8396 5.9023 11.6509C5.92515 11.4621 5.97085 11.159 6.00227 10.9788C6.03655 10.7987 6.10511 10.4755 6.15938 10.2639C6.21366 10.0523 6.31363 9.70909 6.38219 9.50605C6.45075 9.30301 6.57072 8.98558 6.64499 8.80542C6.72212 8.62525 6.87066 8.30782 6.97349 8.10478C7.07918 7.90174 7.26771 7.56429 7.3934 7.36125C7.52194 7.1582 7.73904 6.83505 7.87901 6.64631C8.01897 6.45757 8.21607 6.20591 8.31605 6.08866C8.41603 5.97141 8.65312 5.71404 8.84451 5.51957C9.03304 5.32511 9.35582 5.02198 9.56149 4.84753C9.76716 4.67309 10.0814 4.42715 10.2613 4.29846C10.4413 4.17264 10.7384 3.97531 10.9212 3.86378C11.1069 3.74939 11.4211 3.57495 11.621 3.47486C11.8239 3.37477 12.1152 3.2375 12.2723 3.17173C12.4294 3.10309 12.7379 2.9887 12.9579 2.91435C13.1778 2.84 13.4921 2.74562 13.9577 2.6198L13.9919 2.27377C14.0148 2.03927 14.0519 1.83909 14.1119 1.65606C14.1605 1.50736 14.2519 1.29574 14.3119 1.18421C14.3747 1.07554 14.489 0.912531 14.5661 0.826738C14.6432 0.740946 14.7946 0.603679 14.9032 0.523606C15.0117 0.440673 15.1888 0.332003 15.3002 0.274808C15.4116 0.220473 15.5773 0.151839 15.6716 0.126102C15.7658 0.0975044 15.9315 0.057468 16.0429 0.0374498C16.1543 0.0202914 16.2629 0.0002732 16.2857 0.0002732ZM15.8001 1.35579C15.7458 1.38153 15.6544 1.43872 15.6002 1.48162C15.5459 1.52166 15.4545 1.63319 15.3916 1.72756C15.3317 1.82193 15.2574 1.98207 15.226 2.08502C15.1945 2.18797 15.1717 2.29379 15.1717 2.32238C15.1717 2.36814 15.2402 2.371 16.2857 2.36528C17.2284 2.3567 17.4055 2.35098 17.4426 2.3138C17.4855 2.27377 17.4855 2.25661 17.4426 2.11362C17.4169 2.02783 17.3626 1.89342 17.3198 1.81621C17.2769 1.74186 17.1741 1.61603 17.0913 1.53881C17.0113 1.4616 16.8742 1.36723 16.7913 1.32719C16.6971 1.2843 16.5685 1.25284 16.4428 1.24426C16.3229 1.23282 16.1743 1.24426 16.0715 1.26714C15.9772 1.28716 15.8544 1.32719 15.8001 1.35579ZM15.0431 3.64358C14.8718 3.66932 14.549 3.72938 14.329 3.77799C14.1091 3.82375 13.7549 3.92098 13.5435 3.98961C13.3321 4.05825 13.0036 4.17549 12.8151 4.25271C12.6265 4.32992 12.3409 4.46147 12.1781 4.54154C12.0181 4.62161 11.7496 4.77032 11.5782 4.87041C11.4097 4.9705 11.1497 5.13923 11.0012 5.2479C10.8526 5.35371 10.5956 5.55103 10.4299 5.68544C10.2642 5.81985 9.96712 6.09152 9.77002 6.28884C9.57292 6.48617 9.31583 6.7607 9.19872 6.90369C9.0816 7.04381 8.88735 7.30119 8.76167 7.47564C8.63884 7.64722 8.45602 7.92747 8.35604 8.0962C8.25607 8.26778 8.09896 8.55662 8.00469 8.73964C7.91328 8.92552 7.76474 9.25725 7.67905 9.47745C7.5905 9.69765 7.46767 10.0523 7.40768 10.2639C7.34484 10.4755 7.262 10.8101 7.22201 11.0074C7.18202 11.2047 7.12774 11.5136 7.10489 11.6938C7.07918 11.8739 7.04776 12.1971 7.03062 12.4087C7.01634 12.6203 7.00205 12.8119 7.00205 12.8291C7.00205 12.8577 8.8845 12.8662 16.3229 12.8662H25.6408C25.6294 12.546 25.6123 12.2771 25.5951 12.0655C25.578 11.8539 25.5408 11.5307 25.5094 11.3506C25.478 11.1704 25.4094 10.8473 25.3552 10.6356C25.3037 10.424 25.2009 10.0809 25.1324 9.87782C25.0609 9.67478 24.9381 9.35163 24.8553 9.16288C24.7753 8.97414 24.6325 8.67101 24.5353 8.49084C24.4411 8.31068 24.2697 8.01327 24.1526 7.8331C24.0383 7.65294 23.8326 7.36411 23.6955 7.18966C23.5556 7.01522 23.2185 6.64917 22.9414 6.37464C22.6672 6.09724 22.313 5.76551 22.1559 5.63396C21.9988 5.50241 21.7017 5.28507 21.4989 5.14781C21.2961 5.01054 20.959 4.8075 20.7562 4.69311C20.5534 4.58158 20.222 4.41857 20.0192 4.32992C19.8192 4.24413 19.5107 4.12402 19.3336 4.06111C19.1594 4.00105 18.8337 3.90382 18.6138 3.84948C18.3938 3.79515 18.0539 3.7208 17.8568 3.68934C17.6597 3.65788 17.2941 3.60927 17.0427 3.58639C16.7913 3.56351 16.4371 3.54635 16.2572 3.54635C16.0772 3.54921 15.8001 3.56065 15.643 3.57495C15.4859 3.58925 15.2145 3.61785 15.0431 3.64358ZM9.0159 15.2112H23.6413L24.7467 14.0959H7.90186L9.0159 15.2112Z" fill="#F6DE63"/>
<path d="M15.1429 4.7763C15.26 4.75914 15.4086 4.73912 15.4714 4.7334C15.5343 4.72768 15.8114 4.72482 16.0856 4.72768C16.5655 4.73054 16.5912 4.7334 16.6712 4.79632C16.7197 4.83349 16.7854 4.90499 16.8226 4.9536C16.8597 5.00508 16.8968 5.10231 16.9054 5.1738C16.914 5.2453 16.9054 5.36827 16.8883 5.44548C16.8683 5.54271 16.8254 5.61706 16.7626 5.67998C16.714 5.72859 16.6112 5.78865 16.5369 5.81439C16.4598 5.84012 16.177 5.88016 15.9085 5.90304C15.6371 5.92878 15.3 5.96881 15.1572 5.99169C15.0144 6.01457 14.7773 6.06604 14.6288 6.10322C14.4802 6.1404 14.2546 6.20617 14.1289 6.24621C14.0032 6.2891 13.7918 6.36632 13.6575 6.42351C13.5233 6.47785 13.2862 6.58938 13.1291 6.66945C12.972 6.75238 12.6949 6.91539 12.5149 7.0355C12.335 7.1556 12.0636 7.35865 11.9151 7.48447C11.7665 7.60744 11.4837 7.87626 11.2866 8.0793C11.0895 8.28234 10.8296 8.58262 10.7068 8.74848C10.5839 8.91435 10.4011 9.18888 10.3011 9.36332C10.2012 9.53777 10.0555 9.8266 9.97835 10.0068C9.90123 10.1869 9.77268 10.5215 9.6927 10.7503C9.61272 10.9791 9.50989 11.2479 9.46418 11.3508C9.42133 11.4538 9.34421 11.5653 9.2985 11.6025C9.2528 11.6368 9.16996 11.6826 9.11569 11.6997C9.05856 11.7169 8.95858 11.7226 8.88716 11.7112C8.81575 11.6997 8.71006 11.6626 8.65007 11.6282C8.59009 11.5939 8.50725 11.5138 8.4644 11.4538C8.41013 11.3737 8.38442 11.2965 8.37585 11.1821C8.37014 11.0706 8.39299 10.9247 8.45297 10.6931C8.49868 10.5129 8.58437 10.2355 8.64436 10.0783C8.70149 9.92097 8.85003 9.58638 8.97 9.33473C9.09283 9.08307 9.28422 8.72274 9.39848 8.534C9.51274 8.34526 9.69842 8.06786 9.80982 7.91916C9.92122 7.77045 10.2383 7.42156 10.5125 7.14703C10.7896 6.86963 11.1438 6.54362 11.3009 6.41779C11.458 6.29196 11.7037 6.1118 11.8437 6.01743C11.9865 5.92306 12.2693 5.76005 12.4721 5.65424C12.6778 5.54843 13.0034 5.39972 13.2005 5.32251C13.3976 5.2453 13.6861 5.13949 13.8432 5.08801C14.0003 5.0394 14.3088 4.9536 14.5288 4.90213C14.7487 4.85065 15.0258 4.79346 15.1429 4.7763Z" fill="#F6DE63"/>
<path fill-rule="evenodd" clip-rule="evenodd" d="M0.646007 14.0391C0.740272 14.0391 1.24302 14.0791 1.76005 14.1249C2.27993 14.1735 2.93408 14.245 3.21687 14.2821C3.49967 14.3193 3.911 14.3851 4.13096 14.4251C4.35091 14.4652 4.70511 14.5395 4.9165 14.5853C5.12788 14.6339 5.4878 14.734 5.71632 14.8083C5.94484 14.8855 6.24478 15.0028 6.38475 15.0714C6.52472 15.1401 6.70182 15.2545 6.77894 15.3259C6.85607 15.3974 6.93891 15.5061 6.96462 15.569C6.9989 15.6605 7.00461 15.7606 6.99033 16.0638C6.97319 16.4355 6.97319 16.4412 7.03889 16.4698C7.07317 16.4841 8.77851 16.8731 10.8295 17.3278C12.8805 17.7853 15.0657 18.2772 15.6856 18.4173C16.3054 18.5603 16.9624 18.7119 17.1424 18.7576C17.3223 18.8034 17.568 18.8749 17.6851 18.9149C17.8022 18.9578 18.0136 19.0493 18.1564 19.1208C18.2993 19.1923 18.4907 19.3038 18.5849 19.3668C18.6792 19.4325 18.8449 19.5698 18.9534 19.6728C19.0591 19.7757 19.2076 19.9358 19.2791 20.0302C19.3505 20.1246 19.4562 20.3048 19.5161 20.4306C19.5761 20.5564 19.6733 20.8338 19.7332 21.0483C19.8161 21.3457 19.8532 21.4372 19.8846 21.4286C19.9075 21.4229 20.3531 21.3142 20.8701 21.1884C21.3872 21.0654 22.147 20.8796 22.5555 20.7766C22.964 20.6765 23.4667 20.5593 23.6695 20.5164C23.9095 20.4649 24.1694 20.4334 24.3979 20.4249C24.6522 20.4134 24.8521 20.4249 25.0835 20.4592C25.2635 20.4849 25.5348 20.545 25.6834 20.5936C25.8319 20.6422 26.069 20.7394 26.2118 20.8081C26.3546 20.8796 26.546 20.9911 26.6403 21.054C26.7346 21.1198 26.9002 21.2513 27.0116 21.3457C27.1202 21.4401 27.2916 21.6145 27.3916 21.7318C27.4944 21.849 27.6486 22.0549 27.7343 22.1893C27.8229 22.3237 27.9172 22.4925 27.9457 22.5697C27.9743 22.644 27.9971 22.7727 27.9971 22.8528C27.9971 22.9958 27.9886 23.0129 27.86 23.133C27.7686 23.2217 27.5715 23.3418 27.2402 23.5105C26.9717 23.6449 26.4146 23.9137 25.9976 24.1054C25.5805 24.297 24.7836 24.6601 24.2265 24.9118C23.6695 25.1635 22.884 25.5152 22.4841 25.6925C22.0842 25.8698 21.4529 26.1443 21.0844 26.3016C20.7159 26.4589 20.1874 26.682 19.9132 26.7935C19.639 26.9079 19.1705 27.0938 18.8706 27.2082C18.5706 27.3226 18.1107 27.4884 17.8422 27.5799C17.5737 27.6686 17.1881 27.7858 16.9853 27.8373C16.7825 27.8916 16.4997 27.9488 16.3568 27.966C16.214 27.986 15.8741 28.0003 15.5999 28.0003C15.3256 28.0003 15.0171 27.9889 14.9143 27.9689C14.8115 27.9517 14.3944 27.8287 13.9859 27.6972C13.5775 27.5656 11.7664 26.968 9.95825 26.3703C8.15293 25.7726 6.39046 25.1921 6.04482 25.0805C5.69918 24.969 5.29927 24.846 5.1593 24.806C5.01933 24.766 4.88508 24.7402 4.86794 24.7488C4.84794 24.7574 4.80224 24.8489 4.77081 24.9547C4.73654 25.0634 4.67369 25.2264 4.6337 25.3207C4.58514 25.4294 4.51373 25.5266 4.44232 25.5838C4.38233 25.6353 4.26807 25.6925 4.18809 25.7125C4.08239 25.7411 3.63392 25.7497 2.41705 25.7468C1.28872 25.7468 0.723133 25.7354 0.574594 25.7097C0.457477 25.6925 0.314651 25.6525 0.260377 25.6267C0.206103 25.601 0.137547 25.5324 0.106125 25.478C0.0661342 25.4094 0.0432821 25.2864 0.026143 25.0777C0.0147169 24.9118 0.00329088 22.6211 0.000434369 19.9873C-0.00242215 16.6986 0.00900391 15.0771 0.0289995 14.8112C0.0461386 14.5996 0.0775603 14.3737 0.0975559 14.3136C0.114695 14.2507 0.163256 14.182 0.203247 14.1563C0.243238 14.1306 0.320364 14.0963 0.374638 14.0762C0.428912 14.0562 0.551742 14.0419 0.646007 14.0391V14.0391ZM1.17446 24.5343H3.64535C4.07668 23.1273 4.2595 22.5182 4.32805 22.2751C4.39947 22.032 4.55943 21.4515 4.68798 20.9882C4.81366 20.525 5.01933 19.7385 5.14502 19.2438C5.26785 18.7491 5.42781 18.0541 5.49923 17.6995C5.57064 17.3449 5.66205 16.8702 5.70204 16.6414C5.74203 16.4126 5.77345 16.1982 5.77345 16.161C5.77345 16.1124 5.73917 16.0838 5.61634 16.0266C5.53065 15.9865 5.25071 15.9036 4.99648 15.8407C4.73939 15.7778 4.35662 15.6977 4.14524 15.6577C3.93386 15.6176 3.53394 15.5547 3.25972 15.5118C2.98549 15.4718 2.54845 15.4146 2.2885 15.3831C2.02856 15.3517 1.67435 15.3202 1.5001 15.3088L1.18303 15.2888L1.17446 24.5343ZM6.61612 18.2429C6.57328 18.4402 6.44473 18.9864 6.32762 19.4583C6.2105 19.9301 6.03054 20.6308 5.9277 21.0168C5.82487 21.4029 5.62491 22.1236 5.48494 22.6183C5.34497 23.113 5.23357 23.522 5.23643 23.522C5.24214 23.5248 6.13337 23.8222 7.21599 24.1854C8.30147 24.5486 10.4353 25.2635 11.9578 25.7726C13.4832 26.2845 14.8372 26.7249 14.9714 26.7535C15.1514 26.7935 15.3285 26.8078 15.6427 26.8049C15.9912 26.8049 16.1369 26.7878 16.4283 26.7277C16.6254 26.6848 16.9567 26.6019 17.1652 26.5361C17.3709 26.4732 17.7508 26.3474 18.0079 26.253C18.2621 26.1615 18.7163 25.9899 19.0134 25.8698C19.3133 25.7526 19.8846 25.5152 20.2845 25.3408C20.6845 25.1663 21.5328 24.7945 22.1698 24.5114C22.8069 24.2283 23.7381 23.8108 24.2408 23.5849C24.7436 23.3561 25.4548 23.0301 25.8205 22.8585C26.1861 22.6869 26.486 22.5354 26.486 22.5182C26.486 22.5039 26.4289 22.4324 26.3632 22.3638C26.2947 22.2951 26.1433 22.175 26.0261 22.0978C25.909 22.0206 25.7234 21.9119 25.6119 21.8605C25.5034 21.8061 25.3092 21.7375 25.1835 21.7032C25.0578 21.6717 24.815 21.6374 24.6407 21.6288C24.3694 21.6117 24.2751 21.6202 23.9409 21.6889C23.7295 21.7289 22.4041 22.0521 20.9987 22.4067C19.5933 22.7584 18.2507 23.0844 18.0136 23.133C17.7794 23.1788 17.4366 23.2331 17.2566 23.2503C17.071 23.2703 16.7825 23.276 16.5939 23.2646C16.4083 23.256 16.0798 23.2217 15.8655 23.1874C15.6484 23.1559 14.7201 22.9758 13.8003 22.7899C12.8805 22.604 11.9378 22.4124 11.7007 22.3638C11.4665 22.3152 11.1751 22.2522 11.058 22.2236C10.9409 22.1979 10.8095 22.1521 10.7666 22.1236C10.7209 22.0978 10.6467 22.0206 10.601 21.9548C10.5524 21.8862 10.5067 21.7861 10.4953 21.7318C10.4867 21.6774 10.4953 21.5745 10.5124 21.503C10.5324 21.4315 10.5781 21.3343 10.6181 21.2828C10.6552 21.2313 10.7295 21.1627 10.7809 21.1312C10.8466 21.0912 10.9237 21.074 11.058 21.074C11.1608 21.074 11.4294 21.1055 11.6579 21.1455C11.8864 21.1856 12.5862 21.32 13.2147 21.4458C13.8431 21.5716 14.6601 21.7289 15.0286 21.8004C15.3971 21.8719 15.9341 21.9691 16.2226 22.0177C16.5082 22.0635 16.811 22.1035 16.8939 22.1035C16.9738 22.1035 17.1909 22.0778 17.3709 22.0463C17.5509 22.0149 17.9051 21.9405 18.1564 21.8805L18.6135 21.7689C18.6049 21.4744 18.5735 21.3228 18.5278 21.1884C18.4849 21.0712 18.4078 20.9024 18.3564 20.8166C18.3021 20.7309 18.205 20.6079 18.1364 20.5421C18.0679 20.4763 17.9565 20.3848 17.8851 20.3391C17.8137 20.2905 17.688 20.219 17.608 20.1761C17.5252 20.136 17.3623 20.0703 17.2509 20.0331C17.1367 19.993 16.5425 19.8472 15.9284 19.7042C15.3171 19.5641 13.0176 19.0493 10.8238 18.5603C8.62711 18.0713 6.81037 17.6709 6.78751 17.6709C6.76466 17.6709 6.7361 17.7167 6.71896 17.7796C6.70182 17.8368 6.65611 18.0456 6.61612 18.2429Z" fill="#F6DE63"/>
</svg>
