<svg width="22" height="26" viewBox="0 0 22 26" fill="none" xmlns="http://www.w3.org/2000/svg">
<path d="M0.227019 8.34561C0.26861 8.31964 0.341394 8.28502 0.389917 8.26944C0.436707 8.25213 0.504293 8.23828 0.537219 8.23828C0.570146 8.23828 0.641197 8.2504 0.693186 8.26598C0.745175 8.28156 0.821426 8.31618 0.863017 8.34388C0.902875 8.37157 0.960063 8.42697 0.98779 8.46678C1.01725 8.50833 1.05191 8.5793 1.06577 8.62777C1.08137 8.6849 1.09697 8.89782 1.1091 9.25096C1.1195 9.54524 1.13856 9.90877 1.15242 10.0559C1.16629 10.203 1.19401 10.4489 1.21481 10.6012C1.23387 10.7535 1.272 11.0097 1.29972 11.1724C1.32745 11.3352 1.37424 11.5792 1.4037 11.7177C1.43316 11.8562 1.48862 12.0899 1.52501 12.2371C1.5614 12.3842 1.62725 12.6265 1.67058 12.7737C1.7139 12.9208 1.79882 13.1891 1.85947 13.3709C1.92013 13.5527 2.01197 13.8054 2.0605 13.9335C2.11075 14.0616 2.20607 14.2953 2.27192 14.4528C2.3395 14.6104 2.48334 14.9219 2.59252 15.1453C2.70343 15.3686 2.8438 15.6455 2.90618 15.7598C2.96857 15.874 3.10374 16.1077 3.20772 16.2791C3.30996 16.4505 3.47806 16.7153 3.58031 16.8677C3.68255 17.02 3.82985 17.2312 3.90784 17.3351C3.98582 17.4389 4.11406 17.6034 4.19204 17.6986C4.28043 17.8076 4.34454 17.9029 4.36187 17.9582C4.3792 18.0084 4.39134 18.0933 4.39134 18.1573C4.3896 18.2335 4.37747 18.2975 4.35148 18.3564C4.33068 18.4031 4.27696 18.4793 4.2319 18.526C4.18685 18.571 4.11233 18.6247 4.0638 18.6438C4.01701 18.6645 3.93903 18.6853 3.89051 18.6888C3.83679 18.6957 3.76747 18.687 3.70855 18.6714C3.65656 18.6559 3.58031 18.6212 3.54045 18.5953C3.50059 18.5693 3.41568 18.4845 3.35156 18.4083C3.28744 18.3322 3.16093 18.1694 3.06735 18.0448C2.97377 17.9202 2.81607 17.6986 2.71729 17.5514C2.61678 17.4043 2.47468 17.1879 2.40189 17.0702C2.32911 16.9542 2.19047 16.7205 2.09516 16.5509C1.99811 16.383 1.82308 16.0575 1.7087 15.829C1.5926 15.6005 1.4349 15.2699 1.35691 15.0933C1.27893 14.9168 1.18708 14.7038 1.15242 14.6173C1.11776 14.5307 1.04151 14.3368 0.984325 14.1845C0.927137 14.0322 0.838755 13.7794 0.785033 13.6219C0.733045 13.4644 0.648129 13.1926 0.597873 13.016C0.547617 12.8395 0.4731 12.5642 0.433241 12.4015C0.393383 12.2388 0.327531 11.9359 0.285939 11.7264C0.244348 11.5169 0.185427 11.1811 0.1577 10.982C0.128239 10.783 0.0883813 10.4627 0.0693186 10.2723C0.050256 10.0819 0.0277275 9.7824 0.0173297 9.60583C0.00866483 9.42926 0 9.15056 0 8.9861C0 8.72817 0.0051989 8.67624 0.0346593 8.59661C0.0537219 8.54814 0.0883813 8.48063 0.11091 8.44947C0.133438 8.41831 0.185427 8.37157 0.227019 8.34561Z" fill="#F6DE63"/>
<path fill-rule="evenodd" clip-rule="evenodd" d="M9.29783 0C9.48326 0 9.7484 0.0103864 9.90437 0.024235C10.0569 0.0398146 10.2215 0.0623186 10.2683 0.0761671C10.3168 0.0882846 10.3931 0.126368 10.4416 0.157528C10.4884 0.188687 10.549 0.245812 10.575 0.283896C10.6028 0.321979 10.8263 0.804948 11.0759 1.35716C11.3237 1.90937 11.6373 2.60699 11.7708 2.90647C11.9059 3.20594 12.1416 3.73046 12.5731 4.69293L14.644 5.39229C15.7826 5.77832 16.7461 6.11068 16.7842 6.13319C16.8224 6.15569 16.8796 6.20243 16.9108 6.23705C16.9402 6.27167 16.9766 6.32014 16.9905 6.34784C17.0043 6.37381 17.0581 6.52268 17.1135 6.6802C17.1672 6.83773 17.2539 7.1147 17.3059 7.29473C17.3596 7.47477 17.4428 7.78636 17.4948 7.98716C17.545 8.18797 17.6351 8.56015 17.6923 8.81808C17.7495 9.07601 17.8396 9.50358 17.8916 9.77017C17.9436 10.0368 18.025 10.4764 18.0736 10.7482C18.1204 11.02 18.2018 11.522 18.2555 11.8648C18.3075 12.2075 18.382 12.7182 18.4219 12.9986C18.46 13.279 18.5224 13.762 18.5605 14.0719C18.5987 14.3817 18.6558 14.8838 18.6905 15.1884C18.7234 15.4931 18.7737 15.9795 18.8032 16.2703C18.8309 16.5612 18.8811 17.1099 18.9141 17.4907C18.9487 17.8716 18.9955 18.448 19.0198 18.7717C19.0423 19.0954 19.0787 19.5905 19.0978 19.871C19.1168 20.1514 19.1463 20.643 19.1653 20.9615C19.1844 21.2801 19.2139 21.7751 19.2277 22.0608C19.2503 22.471 19.252 22.5957 19.2364 22.658C19.2243 22.7013 19.2017 22.7636 19.1844 22.7965C19.1671 22.8294 19.1237 22.8865 19.0856 22.9228C19.0492 22.9609 18.992 23.0042 18.9591 23.0215C18.9262 23.0388 18.2469 23.2708 17.4514 23.5374C16.656 23.804 15.1553 24.3077 14.1155 24.6574C12.334 25.2546 12.2213 25.291 12.1226 25.2858C12.0602 25.2806 11.9805 25.2615 11.9233 25.2356C11.8713 25.2113 11.8002 25.1646 11.7673 25.1317C11.7344 25.0988 11.6287 24.9517 11.5351 24.8045C11.4398 24.6574 11.192 24.2679 10.9823 23.939C10.7726 23.6101 10.4641 23.1237 10.2978 22.8571C10.1314 22.5905 9.82812 22.1041 9.6271 21.7751C9.42607 21.4462 9.09334 20.8975 8.88712 20.5547C8.68263 20.212 8.40536 19.7446 8.27192 19.5161C8.13848 19.2876 7.88893 18.8548 7.71737 18.5554C7.54581 18.2559 7.28759 17.7989 7.14549 17.5427C7.00165 17.2847 6.77464 16.8693 6.63773 16.6166C6.50083 16.3638 6.27034 15.9276 6.12304 15.6472C5.97574 15.3667 5.72099 14.863 5.55636 14.5306C5.39 14.1965 5.16644 13.7343 5.05553 13.5006C4.94636 13.2669 4.77826 12.8965 4.67948 12.6784C4.58243 12.4603 4.44206 12.1331 4.36755 11.9513C4.29303 11.7696 4.18732 11.5047 4.1336 11.3628C4.07987 11.2191 3.99323 10.975 3.94124 10.8175C3.87538 10.6201 3.84766 10.5059 3.84766 10.4453C3.84766 10.3968 3.86325 10.3189 3.87885 10.2722C3.89965 10.2151 4.32422 9.5936 5.13005 8.4459C5.8475 7.42283 6.35006 6.69232 6.34833 6.67155C6.34659 6.65251 6.13344 5.60002 5.87523 4.3346C5.46105 2.30579 5.40559 2.01843 5.41252 1.9111C5.41772 1.82628 5.43332 1.76396 5.46278 1.70337C5.48877 1.65317 5.56503 1.56143 5.64301 1.48699C5.71926 1.41602 5.86483 1.28792 5.97054 1.20483C6.07625 1.12 6.27381 0.976324 6.41245 0.882846C6.55108 0.7911 6.74517 0.668194 6.84569 0.612799C6.9462 0.555674 7.12469 0.465658 7.24427 0.411995C7.36384 0.356601 7.55447 0.282165 7.66885 0.244081C7.78322 0.205998 7.96692 0.155796 8.07609 0.131561C8.18527 0.107326 8.36896 0.0744361 8.48334 0.0588564C8.59772 0.0450079 8.75368 0.0259661 8.82993 0.0173107C8.90618 0.00865536 9.11587 0.00173107 9.29783 0V0ZM8.54399 1.16674C8.44348 1.18059 8.28405 1.21348 8.18874 1.23772C8.09342 1.26195 7.92186 1.32081 7.80748 1.36755C7.69311 1.41429 7.50941 1.5043 7.40024 1.56662C7.29106 1.63067 7.12643 1.7328 7.03631 1.79512C6.9462 1.85917 6.80063 1.9665 6.71571 2.03574L6.55975 2.16211C6.72785 2.99995 6.90807 3.88626 7.06924 4.67216C7.22867 5.45807 7.36731 6.09857 7.37597 6.09683C7.38464 6.09683 8.29445 5.80428 9.39835 5.44768C11.244 4.85392 11.4051 4.79853 11.3982 4.76737C11.393 4.74833 11.0256 3.92607 10.582 2.94109C10.1383 1.95611 9.76747 1.14424 9.76054 1.13731C9.7536 1.13039 9.60803 1.12 9.43647 1.11654C9.26491 1.11135 9.03442 1.11481 8.92525 1.12347C8.81607 1.13212 8.64451 1.15116 8.54399 1.16674ZM7.68618 7.15279L7.28759 7.28089C6.13864 8.92194 5.80764 9.40318 5.80937 9.40837C5.81284 9.41357 6.04852 9.34432 6.33446 9.25258C6.6204 9.16256 8.61331 8.53072 10.7622 7.84868C12.9111 7.1649 14.6822 6.60057 14.696 6.59192C14.7186 6.5798 14.7186 6.57807 14.696 6.56942C14.6822 6.56422 14.1068 6.36861 13.4188 6.13492C12.7291 5.90122 12.1642 5.7108 12.1624 5.71254C12.159 5.71254 11.2405 6.00855 10.121 6.37034C9.0015 6.73041 7.90453 7.08354 7.68618 7.15279ZM12.8764 8.32992C11.8141 8.66921 9.65656 9.35471 8.08476 9.85326C6.51122 10.3535 5.20803 10.7673 5.18551 10.7725C5.16471 10.7777 5.14738 10.7967 5.14738 10.8123C5.14738 10.8296 5.18724 10.9594 5.23576 11.1031C5.28428 11.245 5.3692 11.4753 5.42466 11.6138C5.48011 11.7522 5.57542 11.9807 5.63781 12.1244C5.69846 12.2664 5.83883 12.578 5.94974 12.8169C6.05892 13.054 6.26168 13.4799 6.39858 13.7603C6.53549 14.0407 6.77637 14.5168 6.93234 14.8162C7.0883 15.1157 7.29972 15.5208 7.40544 15.7164C7.50941 15.912 7.66538 16.1994 7.75203 16.3569C7.83694 16.5144 8.03623 16.8728 8.19393 17.1532C8.35163 17.4336 8.62891 17.9201 8.80914 18.2351C8.98937 18.5502 9.3013 19.0833 9.50232 19.4209C9.70335 19.7584 10.0534 20.3436 10.2822 20.7192C10.5109 21.0948 10.906 21.7336 11.159 22.1387C11.4121 22.5437 11.7777 23.1237 11.9718 23.4283C12.1676 23.733 12.3392 24.003 12.3548 24.0307C12.3721 24.0602 12.3912 24.074 12.4085 24.0671C12.4224 24.0619 13.1554 23.8161 14.0375 23.5201C14.9196 23.2258 16.1898 22.7999 16.8622 22.5766C17.5346 22.3516 18.0926 22.1612 18.1013 22.1525C18.1129 22.1421 18.1111 22.0031 18.0961 21.7353C18.084 21.5138 18.0545 21.0221 18.0302 20.6413C18.0077 20.2605 17.9731 19.7273 17.954 19.4555C17.9332 19.1837 17.902 18.7631 17.8847 18.5207C17.8656 18.2784 17.8292 17.8491 17.805 17.5686C17.7824 17.2882 17.7426 16.8554 17.72 16.6079C17.6958 16.3604 17.6559 15.9674 17.6334 15.7337C17.6091 15.5 17.5658 15.1036 17.5364 14.8509C17.5086 14.5981 17.4532 14.1429 17.415 13.8382C17.3769 13.5335 17.3007 12.9605 17.2435 12.5658C17.1863 12.1712 17.0892 11.548 17.0286 11.181C16.9662 10.814 16.8813 10.3345 16.838 10.1164C16.7946 9.89654 16.7357 9.60052 16.7063 9.45857C16.6768 9.3149 16.6144 9.031 16.5676 8.82673C16.5191 8.62247 16.4463 8.32645 16.403 8.16893C16.3597 8.0114 16.2852 7.76559 16.2366 7.62364C16.1881 7.47996 16.1413 7.35013 16.1327 7.33282C16.124 7.31724 16.1119 7.30339 16.1049 7.30512C16.0963 7.30512 15.8034 7.39687 15.4499 7.51112C15.0963 7.62364 13.9387 7.99236 12.8764 8.32992Z" fill="#F6DE63"/>
<path d="M18.8909 3.43746C18.9446 3.38899 19.0174 3.34398 19.0625 3.3284C19.1075 3.31455 19.1959 3.3059 19.2704 3.30936C19.3606 3.31282 19.4247 3.32494 19.4784 3.3509C19.5217 3.37168 19.591 3.42188 19.6326 3.46342C19.6725 3.50497 19.7747 3.64692 19.8562 3.78021C19.9376 3.9135 20.0728 4.15412 20.156 4.31684C20.2392 4.47956 20.357 4.71672 20.4142 4.84482C20.4731 4.97292 20.5702 5.19969 20.6308 5.34683C20.6915 5.49397 20.792 5.75536 20.8526 5.92674C20.915 6.09811 21.0173 6.40105 21.0779 6.60186C21.1403 6.80266 21.2339 7.1281 21.2876 7.32891C21.3396 7.52971 21.4176 7.84823 21.4609 8.03864C21.5025 8.22906 21.5614 8.5095 21.5909 8.66183C21.6203 8.81416 21.6619 9.05478 21.6862 9.19846C21.7105 9.34041 21.7486 9.59834 21.7728 9.76972C21.7971 9.94109 21.8352 10.2648 21.8595 10.4881C21.8838 10.7114 21.9149 11.0594 21.9288 11.2584C21.9444 11.4575 21.9635 11.7899 21.9739 11.9941C21.9825 12.1984 21.9929 12.581 21.9999 13.3184L21.9444 13.4309C21.9149 13.4932 21.8612 13.5694 21.8231 13.6023C21.7867 13.6352 21.7139 13.6819 21.6619 13.7044C21.5961 13.7339 21.5337 13.7477 21.4626 13.7477C21.4055 13.7477 21.3205 13.7356 21.272 13.72C21.22 13.7027 21.149 13.6594 21.0935 13.6092C21.0363 13.559 20.9826 13.4881 20.9549 13.4309C20.9116 13.3409 20.9081 13.3201 20.9046 13.0501C20.9012 12.8926 20.8908 12.5429 20.8821 12.2711C20.8717 11.9993 20.8526 11.6133 20.8388 11.4142C20.8232 11.2152 20.792 10.8638 20.7695 10.6353C20.7452 10.4068 20.7053 10.0796 20.6811 9.9082C20.6568 9.73683 20.6187 9.4789 20.5944 9.33695C20.5702 9.19327 20.5199 8.91803 20.4818 8.72242C20.4437 8.52681 20.3691 8.19271 20.3172 7.97806C20.2652 7.7634 20.1802 7.43969 20.1283 7.25966C20.0763 7.07963 19.981 6.7715 19.9134 6.57589C19.8475 6.38028 19.7366 6.07215 19.6638 5.89212C19.5928 5.71208 19.4853 5.45415 19.4247 5.32086C19.364 5.18757 19.2652 4.98157 19.2046 4.86213C19.1439 4.74268 19.0504 4.57131 18.9966 4.48129C18.9446 4.39128 18.8684 4.2701 18.8285 4.21298C18.7904 4.15585 18.7436 4.06584 18.7263 4.0139C18.702 3.94466 18.6968 3.88754 18.702 3.80617C18.7072 3.7352 18.7263 3.6625 18.754 3.6071C18.7783 3.55863 18.8407 3.48246 18.8909 3.43746Z" fill="#F6DE63"/>
</svg>
