<svg width="26" height="26" viewBox="0 0 26 26" fill="none" xmlns="http://www.w3.org/2000/svg">
<path d="M19.0266 12.3237C19.1048 12.2454 19.1599 12.2062 19.2239 12.1866C19.2737 12.1706 19.359 12.1564 19.4158 12.1564C19.4781 12.1546 19.5669 12.1706 19.6451 12.1973C19.7162 12.2205 19.9028 12.2934 20.0592 12.3593C20.2156 12.4233 20.5036 12.555 20.6991 12.6529C20.8946 12.749 21.1825 12.9056 21.3389 12.9999C21.4953 13.0925 21.7228 13.2419 21.8454 13.3291C21.968 13.4163 22.144 13.5498 22.2364 13.6263C22.3288 13.7029 22.4924 13.8541 22.6008 13.9609C22.7092 14.0695 22.862 14.2367 22.9402 14.3346C23.0167 14.4325 23.1322 14.5927 23.1944 14.6905C23.2584 14.7884 23.3508 14.9575 23.4023 15.0643C23.4539 15.1728 23.5196 15.3365 23.5481 15.4291C23.5783 15.5216 23.6209 15.6818 23.6423 15.785C23.6743 15.9363 23.6814 16.0306 23.6831 16.2744C23.6831 16.5218 23.676 16.6143 23.6423 16.7816C23.6209 16.8937 23.5783 17.0592 23.5481 17.1464C23.5196 17.2354 23.4485 17.4062 23.3899 17.529C23.3312 17.6518 23.2246 17.8404 23.1517 17.9472C23.0806 18.0558 22.958 18.2195 22.8798 18.312C22.8034 18.4046 22.6505 18.5665 22.5403 18.6733C22.4319 18.7783 22.2577 18.9331 22.1529 19.0168C22.0463 19.1004 21.8365 19.2517 21.6855 19.3513C21.5344 19.4528 21.3176 19.588 21.2056 19.6503C21.0936 19.7144 20.8928 19.8211 20.7613 19.887C20.6297 19.9528 20.4182 20.0525 20.2903 20.1094C20.1623 20.1664 19.9473 20.2554 19.8104 20.3105C19.6736 20.3639 19.4176 20.4582 19.2417 20.5187C19.0657 20.5792 18.7707 20.6718 18.5841 20.7252C18.3975 20.7803 18.1024 20.8586 17.9265 20.9031C17.7505 20.9476 17.4111 21.0224 17.1711 21.0704C16.9312 21.1202 16.5562 21.1861 16.3358 21.2217C16.1154 21.2555 15.7635 21.3035 15.5538 21.3267C15.3441 21.3516 15.0241 21.3836 14.8429 21.3996C14.6616 21.4139 14.3737 21.4335 14.203 21.4441C14.0324 21.453 13.6361 21.4673 13.3233 21.4726C12.9874 21.4797 12.5377 21.4762 12.2213 21.4637C11.9281 21.453 11.5246 21.4317 11.3238 21.4174C11.123 21.4032 10.8439 21.3783 10.7018 21.364C10.5596 21.348 10.2876 21.316 10.0975 21.2911C9.9073 21.2662 9.58206 21.2181 9.37767 21.1843C9.17328 21.1487 8.86936 21.0936 8.7023 21.0597C8.53523 21.0241 8.26864 20.9654 8.1069 20.9263C7.94517 20.8871 7.65724 20.8106 7.46707 20.7572C7.2769 20.7038 6.9641 20.6077 6.77393 20.5437C6.58376 20.4796 6.29939 20.3764 6.14299 20.3141C5.98658 20.2536 5.73954 20.1486 5.59202 20.0827C5.44629 20.0169 5.26145 19.9315 5.18325 19.8923C5.10504 19.8514 4.93265 19.7588 4.80113 19.6859C4.66961 19.6129 4.48477 19.5026 4.39235 19.4439C4.29993 19.3851 4.15597 19.289 4.07243 19.2285C3.9889 19.1698 3.85383 19.0684 3.77029 19.0007C3.68676 18.9349 3.53924 18.8068 3.44327 18.716C3.34552 18.6252 3.19089 18.4633 3.09847 18.3565C3.00606 18.2497 2.87276 18.0718 2.80167 17.965C2.7288 17.8582 2.63815 17.7087 2.59905 17.6358C2.55995 17.5628 2.49597 17.4222 2.45865 17.3244C2.41955 17.2265 2.37156 17.0859 2.35023 17.0129C2.33068 16.94 2.30224 16.8083 2.28625 16.7193C2.27025 16.625 2.25781 16.4523 2.25781 16.3011C2.25781 16.1587 2.2667 15.9825 2.27736 15.9096C2.28803 15.8366 2.3218 15.6853 2.35023 15.5768C2.37867 15.4664 2.43732 15.292 2.48175 15.1888C2.52618 15.0856 2.60083 14.9326 2.64882 14.8471C2.69681 14.7599 2.78212 14.6265 2.83721 14.5482C2.89409 14.4699 2.98117 14.3542 3.03271 14.2901C3.08426 14.2261 3.22289 14.0801 3.33841 13.9662C3.45393 13.8523 3.60856 13.7082 3.68143 13.6477C3.7543 13.5872 3.8716 13.4946 3.93914 13.4448C4.00667 13.3932 4.14708 13.2971 4.25016 13.2277C4.35325 13.1583 4.5452 13.0408 4.67672 12.9643C4.80824 12.886 5.08372 12.7419 5.28988 12.6422C5.49605 12.5408 5.70222 12.45 5.75198 12.4393C5.81596 12.4251 5.86928 12.4251 5.94215 12.4376C5.99903 12.4482 6.07723 12.4732 6.11633 12.4927C6.15543 12.5123 6.21586 12.5568 6.24962 12.5906C6.28339 12.6244 6.33316 12.6956 6.35982 12.7472C6.40247 12.8273 6.40958 12.8611 6.40958 12.991C6.40958 13.1103 6.40069 13.1583 6.3687 13.2224C6.34738 13.2669 6.3065 13.3327 6.27628 13.3701C6.23363 13.4235 6.15187 13.4697 5.86395 13.6103C5.66489 13.7064 5.41607 13.8363 5.30766 13.8986C5.19924 13.9591 5.02862 14.0659 4.92554 14.1353C4.82245 14.2029 4.65894 14.3204 4.56119 14.3951C4.46344 14.4681 4.27149 14.6425 4.13464 14.7795C3.99068 14.9237 3.83605 15.0981 3.77029 15.1924C3.70631 15.2831 3.621 15.4237 3.58012 15.5038C3.53747 15.5857 3.4877 15.7031 3.46638 15.7672C3.44505 15.8313 3.41661 15.9434 3.40417 16.0163C3.39173 16.0893 3.37929 16.2103 3.37929 16.2833C3.37929 16.3562 3.39173 16.4844 3.40772 16.568C3.42372 16.6517 3.45571 16.7762 3.48059 16.8439C3.50548 16.9133 3.56235 17.0361 3.60678 17.1197C3.65121 17.2033 3.74541 17.3475 3.8165 17.44C3.88582 17.5326 4.02622 17.6927 4.12753 17.7942C4.22884 17.8956 4.3959 18.0469 4.49899 18.1287C4.60207 18.2106 4.77269 18.3369 4.8811 18.4081C4.98952 18.4811 5.14059 18.5772 5.21879 18.6235C5.29699 18.6697 5.46584 18.7623 5.59202 18.8281C5.71821 18.8957 5.93149 18.999 6.06301 19.0559C6.19453 19.1146 6.4078 19.2036 6.53399 19.2552C6.66018 19.3068 6.94099 19.4065 7.15605 19.4777C7.3711 19.5506 7.70701 19.6521 7.90251 19.7055C8.09801 19.7588 8.42148 19.8389 8.62232 19.8834C8.82315 19.9297 9.11818 19.9902 9.27992 20.0187C9.44165 20.0489 9.70469 20.0934 9.86643 20.1165C10.0282 20.1415 10.2912 20.1771 10.4529 20.1966C10.6147 20.2162 10.8351 20.2411 10.9417 20.25C11.0483 20.2607 11.3007 20.2821 11.5015 20.2981C11.7059 20.3123 12.2213 20.3301 12.6746 20.3354C13.1882 20.3426 13.645 20.3372 13.9276 20.3248C14.171 20.3123 14.5123 20.2927 14.6829 20.2767C14.8535 20.2625 15.1095 20.2393 15.2516 20.2233C15.3938 20.2091 15.6817 20.1735 15.8915 20.1432C16.1012 20.113 16.4247 20.0614 16.6113 20.0276C16.7979 19.9938 17.1089 19.9297 17.3044 19.887C17.4999 19.8425 17.8074 19.7677 17.9887 19.7197C18.17 19.6699 18.4419 19.5916 18.593 19.5417C18.744 19.4937 18.984 19.4118 19.1262 19.362C19.2683 19.3104 19.5207 19.2107 19.686 19.1395C19.8513 19.0684 20.0912 18.958 20.2192 18.894C20.3472 18.8317 20.5302 18.7338 20.628 18.6768C20.7257 18.6217 20.9088 18.506 21.0367 18.4224C21.1647 18.3369 21.3478 18.2053 21.4455 18.127C21.5433 18.0486 21.7068 17.9009 21.8099 17.7977C21.913 17.6927 22.0569 17.529 22.1316 17.4311C22.2044 17.3332 22.3057 17.1731 22.3555 17.0752C22.4053 16.9773 22.4692 16.8261 22.4959 16.7371C22.5403 16.5912 22.5457 16.5502 22.5457 16.2922C22.5474 16.0448 22.5421 15.9879 22.5066 15.8651C22.4835 15.7868 22.4319 15.6515 22.3893 15.5625C22.3484 15.4753 22.2631 15.3259 22.2009 15.2333C22.1369 15.1408 21.9894 14.9664 21.8721 14.8436C21.7548 14.7226 21.5628 14.5464 21.4455 14.4521C21.3282 14.3578 21.1327 14.2154 21.0101 14.1371C20.8875 14.057 20.7079 13.9467 20.6102 13.8897C20.5124 13.8328 20.3329 13.7367 20.2103 13.6762C20.0877 13.6157 19.8922 13.5231 19.7749 13.4715C19.6576 13.4199 19.4692 13.3434 19.3572 13.2989C19.2452 13.2544 19.119 13.1939 19.0764 13.1636C19.0337 13.1316 18.9804 13.0782 18.9573 13.0444C18.9342 13.0106 18.9022 12.9465 18.8862 12.902C18.872 12.8575 18.8596 12.7739 18.8596 12.7152C18.8596 12.6565 18.872 12.5693 18.8898 12.5194C18.9111 12.4554 18.9502 12.4002 19.0266 12.3237Z" fill="#F6DE63"/>
<path d="M8.14172 5.77843C8.17549 5.75707 8.23237 5.73038 8.26614 5.71792C8.30524 5.70368 8.38344 5.69657 8.47053 5.70013C8.58072 5.70546 8.63226 5.71614 8.70157 5.75173C8.75134 5.77843 8.82776 5.83716 8.87219 5.8852C8.91663 5.93147 8.9895 6.01867 9.03393 6.0774C9.07836 6.13613 9.17434 6.27672 9.2472 6.38883C9.32007 6.50095 9.41605 6.65755 9.46048 6.73585C9.50491 6.81416 9.5689 6.93339 9.60444 7.0028C9.63821 7.0722 9.70397 7.21457 9.75018 7.32312C9.79461 7.4299 9.8586 7.5954 9.89236 7.68794C9.92436 7.78048 9.97945 7.96912 10.0132 8.10615C10.047 8.24318 10.0896 8.44783 10.1039 8.55995C10.1199 8.67206 10.1376 8.8696 10.1447 8.99595C10.1501 9.1223 10.1465 9.3234 10.1341 9.44085C10.1234 9.55831 10.1021 9.72559 10.0879 9.81457C10.0719 9.90355 10.0363 10.0691 10.0079 10.1829C9.97767 10.2986 9.92258 10.4908 9.8817 10.6101C9.8426 10.7311 9.71463 11.0816 9.59911 11.3895C9.48359 11.6974 9.3574 12.0551 9.31652 12.1814C9.27564 12.3078 9.21521 12.5249 9.18144 12.6619C9.14768 12.799 9.10324 13.0196 9.08369 13.1513C9.06237 13.283 9.03926 13.5161 9.03215 13.6674C9.02326 13.8187 9.02326 14.0678 9.03215 14.2191C9.03926 14.3704 9.06592 14.6355 9.0908 14.8064C9.11568 14.9772 9.16545 15.2584 9.20099 15.4292C9.24543 15.6499 9.2632 15.7691 9.25609 15.8385C9.25254 15.8919 9.23299 15.972 9.21344 16.0165C9.19566 16.061 9.14768 16.1322 9.1068 16.1766C9.06237 16.2283 8.99305 16.2763 8.92196 16.3083C8.81888 16.3546 8.79399 16.3582 8.66603 16.351C8.56828 16.3457 8.50074 16.3315 8.4492 16.3048C8.40654 16.2834 8.34434 16.2389 8.30879 16.2069C8.27325 16.1766 8.22526 16.1179 8.20215 16.0788C8.17905 16.0378 8.13639 15.9026 8.10796 15.7673C8.07774 15.6356 8.03331 15.4025 8.0102 15.2513C7.98532 15.1 7.95155 14.8597 7.93378 14.7174C7.91068 14.5287 7.90357 14.3259 7.90357 13.961C7.90357 13.5873 7.91068 13.4005 7.93378 13.2136C7.95155 13.0766 7.9871 12.8595 8.0102 12.7331C8.03509 12.6068 8.08307 12.3932 8.11684 12.2615C8.15061 12.1298 8.21993 11.8967 8.26969 11.7454C8.31945 11.5942 8.44209 11.2489 8.54162 10.9802C8.64292 10.7115 8.75845 10.3912 8.79755 10.2684C8.83843 10.1456 8.89174 9.96939 8.91485 9.87685C8.93795 9.78431 8.96995 9.63127 8.98594 9.53873C9.00016 9.44619 9.0126 9.26289 9.0126 9.13298C9.0126 8.97993 9.00016 8.82867 8.97883 8.69698C8.95928 8.58842 8.92196 8.4247 8.89708 8.3375C8.87042 8.24852 8.81532 8.08835 8.77444 7.98158C8.73179 7.87302 8.63759 7.66481 8.56294 7.51888C8.4883 7.37117 8.371 7.16118 8.30346 7.05084C8.23414 6.94229 8.1204 6.77323 8.05108 6.67713C7.96933 6.56323 7.91601 6.47069 7.89824 6.40663C7.88046 6.34612 7.87335 6.27138 7.87868 6.21087C7.88402 6.15748 7.90357 6.0774 7.92312 6.03291C7.94267 5.98842 7.98532 5.92258 8.01909 5.88342C8.05286 5.84605 8.10796 5.798 8.14172 5.77843Z" fill="#F6DE63"/>
<path d="M16.5061 5.8569C16.5452 5.81241 16.6216 5.75546 16.6821 5.72699C16.7798 5.67894 16.8011 5.67538 16.9398 5.6825C17.05 5.68606 17.1104 5.69852 17.1655 5.72699C17.2081 5.74835 17.2739 5.79817 17.313 5.83733C17.3521 5.87648 17.3983 5.93876 17.4179 5.97436C17.4356 6.01173 17.489 6.1541 17.5334 6.29112C17.5796 6.42815 17.656 6.67196 17.704 6.8339C17.7502 6.99585 17.8178 7.25567 17.8533 7.41227C17.8871 7.56888 17.9315 7.78955 17.9511 7.90167C17.9706 8.01378 17.999 8.22199 18.015 8.36436C18.0381 8.55834 18.0435 8.71494 18.0364 8.99612C18.031 9.27196 18.0186 9.42501 17.9884 9.58339C17.967 9.70084 17.9279 9.88592 17.8995 9.9927C17.8729 10.0995 17.8142 10.297 17.7698 10.4287C17.7253 10.5604 17.5938 10.9252 17.4765 11.2384C17.3592 11.5516 17.2295 11.9129 17.1904 12.0392C17.1495 12.1656 17.0926 12.3631 17.0642 12.4752C17.0357 12.5874 16.9949 12.7849 16.9718 12.9112C16.938 13.1088 16.9327 13.2084 16.9327 13.5875C16.9309 13.8402 16.9415 14.1178 16.954 14.2282C16.9664 14.3349 16.9931 14.52 17.0126 14.6375C17.0322 14.7549 17.0677 14.94 17.0944 15.0468C17.1193 15.1535 17.1442 15.303 17.1477 15.376C17.1548 15.4863 17.1495 15.529 17.1157 15.6162C17.0891 15.6856 17.0464 15.7515 16.9931 15.8031C16.9433 15.8547 16.874 15.8992 16.81 15.9241C16.7443 15.949 16.6696 15.9633 16.5985 15.9633C16.5363 15.9633 16.451 15.9526 16.4066 15.9384C16.3621 15.9223 16.2839 15.8725 16.2306 15.8262C16.1791 15.78 16.1187 15.7088 16.0991 15.6696C16.0813 15.6305 16.0458 15.5219 16.0227 15.4294C16.0014 15.3368 15.9623 15.1535 15.9374 15.0236C15.9125 14.8955 15.8752 14.6659 15.8556 14.5164C15.8378 14.3687 15.813 14.0982 15.8023 13.9167C15.7899 13.6889 15.7899 13.495 15.8023 13.285C15.813 13.1177 15.8361 12.8828 15.8556 12.76C15.8734 12.6372 15.9089 12.445 15.9356 12.3329C15.9605 12.2208 16.0156 12.0072 16.06 11.8613C16.1027 11.7136 16.1826 11.4733 16.236 11.3274C16.2893 11.1797 16.3977 10.8843 16.4777 10.6689C16.5577 10.4536 16.6536 10.1813 16.6927 10.0639C16.7318 9.94643 16.7834 9.77025 16.8083 9.67237C16.8331 9.57449 16.8651 9.43034 16.8793 9.35204C16.8936 9.27374 16.9096 9.12603 16.9149 9.02281C16.922 8.91782 16.9167 8.7452 16.906 8.6313C16.8936 8.51919 16.8633 8.30563 16.8402 8.15971C16.8154 8.012 16.7443 7.69167 16.6821 7.44787C16.6199 7.20228 16.5274 6.87128 16.4759 6.70933C16.4261 6.54739 16.3764 6.38366 16.3675 6.34451C16.3586 6.30536 16.3533 6.2324 16.3586 6.18435C16.3621 6.13452 16.3817 6.05978 16.4012 6.01529C16.4208 5.9708 16.467 5.89961 16.5061 5.8569Z" fill="#F6DE63"/>
<path d="M12.6421 0.112115C12.6741 0.0889801 12.7399 0.0551677 12.7896 0.0373717C12.8394 0.017796 12.9212 0.0017796 12.9727 0C13.0225 0 13.1078 0.0160164 13.1593 0.0338125C13.2091 0.0533881 13.2908 0.103217 13.3388 0.145927C13.3868 0.188638 13.4437 0.254483 13.4668 0.293634C13.4899 0.332786 13.5183 0.412868 13.529 0.471595C13.545 0.558795 13.5432 0.597947 13.5183 0.694045C13.497 0.784805 13.4561 0.861328 13.3335 1.04107C13.2482 1.1692 13.1344 1.3436 13.0829 1.43258C13.0314 1.52156 12.9443 1.68528 12.8874 1.7974C12.8323 1.90951 12.7434 2.10527 12.6919 2.2334C12.6404 2.36153 12.571 2.56441 12.539 2.6872C12.5053 2.80999 12.4644 2.98261 12.4484 3.06981C12.4289 3.17303 12.4182 3.32964 12.4182 3.51472C12.4164 3.72827 12.4253 3.83682 12.4484 3.95072C12.4662 4.03436 12.5248 4.23012 12.5764 4.38672C12.6279 4.54333 12.7186 4.78357 12.7772 4.9206C12.8359 5.05763 12.962 5.33703 13.0562 5.54346C13.1522 5.7499 13.3033 6.07734 13.3939 6.2731C13.4846 6.46886 13.6108 6.76071 13.6747 6.92266C13.7387 7.0846 13.8276 7.33374 13.872 7.47789C13.9165 7.62382 13.9769 7.85873 14.0053 8.00287C14.0355 8.1488 14.0675 8.36591 14.08 8.48871C14.0924 8.62574 14.096 8.83039 14.0906 9.02259C14.0835 9.19343 14.0675 9.41054 14.0533 9.50308C14.0373 9.59562 14.0142 9.73265 13.9982 9.80561C13.984 9.87858 13.9413 10.0387 13.9076 10.1615C13.872 10.2843 13.8063 10.4801 13.7618 10.5975C13.7174 10.715 13.6072 10.9908 13.5148 11.2115C13.4224 11.4322 13.3122 11.7098 13.2677 11.8308C13.2251 11.95 13.1664 12.1333 13.138 12.2383C13.1096 12.3451 13.0722 12.4946 13.058 12.5729C13.042 12.6512 13.0171 12.8203 13.0029 12.9466C12.9887 13.073 12.9763 13.3292 12.9763 13.5161C12.9763 13.7029 12.9834 13.9592 12.994 14.0856C13.0047 14.2119 13.0278 14.4611 13.0474 14.6372C13.0687 14.8134 13.1131 15.1462 13.1469 15.3758C13.1806 15.6053 13.2482 16.0093 13.2962 16.2745C13.3442 16.5396 13.417 16.9151 13.4597 17.1109C13.5148 17.3671 13.5361 17.506 13.5361 17.6092C13.5343 17.7213 13.5254 17.7676 13.4952 17.8281C13.4739 17.869 13.4259 17.9348 13.3904 17.9758C13.353 18.0149 13.2784 18.0701 13.2251 18.095C13.1433 18.1342 13.1024 18.1431 12.9851 18.1431C12.8803 18.1431 12.8216 18.1324 12.763 18.1057C12.7186 18.0861 12.6475 18.0381 12.6048 17.9989C12.5621 17.9615 12.5088 17.8939 12.4875 17.8494C12.4626 17.8014 12.404 17.5647 12.34 17.2621C12.2813 16.9827 12.1996 16.5788 12.1605 16.3634C12.1214 16.1481 12.0663 15.8153 12.0361 15.6249C12.0059 15.4345 11.9668 15.1462 11.9472 14.9843C11.9277 14.8223 11.8974 14.5465 11.8814 14.3703C11.8601 14.1603 11.8512 13.8845 11.8495 13.5695C11.8495 13.2224 11.8583 13.0214 11.8797 12.8487C11.8974 12.717 11.9312 12.5088 11.9561 12.386C11.981 12.2632 12.0272 12.0675 12.061 11.95C12.0929 11.8326 12.1551 11.6404 12.196 11.5229C12.2369 11.4055 12.3666 11.078 12.4822 10.7933C12.5995 10.5086 12.7292 10.1722 12.7719 10.0459C12.8145 9.91951 12.8696 9.71485 12.8945 9.59206C12.9194 9.46927 12.9478 9.26105 12.9585 9.12936C12.9692 8.99767 12.9727 8.82149 12.9674 8.73785C12.9603 8.65421 12.9443 8.51006 12.9301 8.41752C12.9158 8.32498 12.8838 8.17194 12.8607 8.0794C12.8376 7.98686 12.7772 7.7911 12.7257 7.64339C12.6759 7.49747 12.5764 7.2412 12.5053 7.07392C12.4342 6.90664 12.2618 6.53114 12.1232 6.23751C11.9845 5.94387 11.8352 5.62355 11.7908 5.52567C11.7464 5.42779 11.6682 5.23915 11.6166 5.10746C11.5633 4.97577 11.4922 4.77112 11.4567 4.65366C11.4211 4.53621 11.3731 4.34401 11.35 4.22656C11.3269 4.1091 11.2985 3.91335 11.2896 3.79055C11.2772 3.64107 11.2772 3.4809 11.2896 3.30116C11.2985 3.15524 11.3234 2.94168 11.3429 2.82957C11.3625 2.71745 11.4051 2.51814 11.4389 2.38823C11.4727 2.2601 11.5384 2.05188 11.5829 1.92731C11.6291 1.80096 11.7108 1.59986 11.7677 1.47707C11.8228 1.35428 11.9277 1.1514 11.9987 1.02327C12.0698 0.89514 12.1836 0.708282 12.2529 0.605065C12.3222 0.501848 12.4235 0.3577 12.4804 0.284736C12.5373 0.211773 12.6101 0.13347 12.6421 0.112115Z" fill="#F6DE63"/>
<path d="M0.261486 17.0312C0.298809 17.008 0.362792 16.9778 0.401893 16.9653C0.44277 16.9529 0.528081 16.9458 0.597395 16.9475C0.679151 16.9529 0.746688 16.9671 0.796453 16.992C0.839108 17.0134 0.904868 17.0614 0.945746 17.0988C0.984846 17.1344 1.03817 17.2091 1.06482 17.2625C1.10215 17.3444 1.11281 17.3978 1.12525 17.5829C1.13236 17.7056 1.15014 17.8658 1.16613 17.9388C1.18035 18.0117 1.21056 18.1239 1.23189 18.1879C1.25144 18.252 1.30298 18.3766 1.34386 18.4638C1.38474 18.5527 1.45228 18.6809 1.49493 18.7485C1.53581 18.8161 1.61223 18.93 1.66377 18.9976C1.71532 19.0653 1.82373 19.1987 1.90549 19.2913C1.98724 19.382 2.14187 19.5386 2.25028 19.6347C2.3587 19.7326 2.54887 19.8892 2.67683 19.9853C2.8048 20.0814 3.0003 20.2184 3.11227 20.2914C3.22424 20.3644 3.40375 20.4747 3.51216 20.537C3.62058 20.5993 3.85518 20.7239 4.03647 20.8146C4.21775 20.9054 4.50567 21.0388 4.67629 21.1118C4.84692 21.1848 5.12773 21.2969 5.29835 21.361C5.46897 21.425 5.74978 21.5211 5.9204 21.5781C6.09102 21.6332 6.38428 21.7222 6.56912 21.7738C6.75396 21.8272 7.00278 21.8931 7.12008 21.9233C7.23738 21.9518 7.49687 22.0123 7.6977 22.0568C7.89854 22.1013 8.21845 22.1671 8.40862 22.2009C8.59879 22.2365 8.9347 22.2917 9.15509 22.3255C9.37547 22.3593 9.72738 22.4056 9.9371 22.4305C10.1468 22.4554 10.5112 22.4928 10.7458 22.5124C10.9804 22.5319 11.3038 22.5551 11.4656 22.5657C11.6273 22.5764 12.1623 22.5907 12.6564 22.596C13.2233 22.6031 13.7263 22.5978 14.0249 22.5853C14.2844 22.5746 14.6647 22.5533 14.8691 22.5373C15.0735 22.523 15.3987 22.4946 15.5889 22.4768C15.7791 22.4572 16.0919 22.4198 16.2821 22.3967C16.4722 22.3718 16.7566 22.3308 16.913 22.3077C17.0694 22.2828 17.3484 22.2347 17.535 22.1991C17.7217 22.1653 18.0043 22.1084 18.166 22.0746C18.3277 22.039 18.6032 21.9749 18.7792 21.9322C18.9551 21.8877 19.227 21.8165 19.3834 21.772C19.5398 21.7275 19.8402 21.635 20.0499 21.5656C20.2596 21.4962 20.5476 21.3965 20.6898 21.3432C20.8319 21.2898 21.0914 21.1866 21.2674 21.1118C21.4433 21.0371 21.7472 20.8947 21.9427 20.795C22.1382 20.6954 22.4066 20.5495 22.5381 20.4711C22.6697 20.3911 22.8598 20.2718 22.9594 20.2042C23.0589 20.1384 23.2366 20.0067 23.3575 19.9141C23.4766 19.8216 23.6703 19.6525 23.7876 19.5404C23.9049 19.4283 24.0613 19.2646 24.1342 19.1756C24.207 19.0884 24.3137 18.9478 24.3688 18.8642C24.4239 18.7805 24.4967 18.6613 24.5323 18.5972C24.5678 18.5332 24.6247 18.4104 24.6585 18.3214C24.694 18.2342 24.7402 18.09 24.7598 18.0011C24.7811 17.9139 24.8042 17.7412 24.8131 17.6184C24.822 17.4957 24.8415 17.3604 24.8557 17.3159C24.87 17.2714 24.9179 17.1967 24.9606 17.1469C25.0139 17.0846 25.0726 17.0419 25.1525 17.0063C25.2361 16.9689 25.2947 16.9564 25.3729 16.9547C25.4316 16.9547 25.5187 16.9671 25.5684 16.9831C25.6235 17.0009 25.6946 17.0436 25.7515 17.097C25.8048 17.1451 25.8652 17.2216 25.8901 17.2714C25.915 17.3213 25.9381 17.4102 25.9434 17.4761C25.9488 17.5401 25.9452 17.6843 25.9346 17.7964C25.9221 17.9085 25.8972 18.0776 25.8777 18.1701C25.8564 18.2627 25.8101 18.4353 25.771 18.5527C25.7337 18.6702 25.652 18.8695 25.588 18.9976C25.5258 19.1258 25.4103 19.3251 25.3338 19.4425C25.2556 19.56 25.1454 19.7166 25.0868 19.7896C25.0281 19.8625 24.9126 19.996 24.8309 20.0832C24.7473 20.1722 24.5998 20.3181 24.5021 20.4106C24.4043 20.5032 24.2479 20.6402 24.1555 20.715C24.0631 20.7897 23.8978 20.9161 23.7911 20.9926C23.6845 21.0709 23.4997 21.1937 23.3824 21.2684C23.2651 21.3432 23.0891 21.4499 22.9914 21.5069C22.8936 21.5638 22.6945 21.6724 22.547 21.7489C22.4013 21.8254 22.14 21.95 21.9694 22.0283C21.7988 22.1066 21.502 22.2312 21.3118 22.3077C21.1216 22.3842 20.7289 22.5248 20.4409 22.6209C20.153 22.717 19.7247 22.8469 19.4901 22.911C19.2555 22.9751 18.8911 23.0676 18.6814 23.1156C18.4717 23.1637 18.1518 23.2331 17.9705 23.2687C17.7892 23.3043 17.4497 23.3648 17.2151 23.4022C16.9805 23.4413 16.6322 23.4929 16.442 23.5178C16.2518 23.541 15.939 23.5783 15.7489 23.5961C15.5587 23.6157 15.2388 23.6442 15.0379 23.6584C14.8371 23.6744 14.5172 23.694 14.327 23.7047C14.1369 23.7136 13.7085 23.726 13.3762 23.7332C13.0207 23.7403 12.5177 23.7367 12.1587 23.7243C11.821 23.7136 11.3696 23.6922 11.1545 23.6762C10.9395 23.662 10.6285 23.6388 10.4614 23.6246C10.2943 23.6086 9.99042 23.5766 9.78603 23.5516C9.58164 23.5267 9.24928 23.4822 9.04845 23.4538C8.84761 23.4235 8.49215 23.3648 8.25755 23.3221C8.02295 23.2794 7.69948 23.2153 7.53774 23.1797C7.37601 23.1441 7.08631 23.0747 6.89436 23.0267C6.70064 22.9786 6.36473 22.8879 6.1479 22.8256C5.92929 22.7615 5.58805 22.6547 5.38721 22.5853C5.18638 22.5177 4.87002 22.402 4.68518 22.3291C4.50034 22.2561 4.24441 22.1511 4.11645 22.0941C3.98848 22.039 3.72189 21.9108 3.52105 21.8094C3.32022 21.7098 3.03763 21.5567 2.89011 21.4713C2.74437 21.3859 2.52754 21.2506 2.41024 21.1723C2.29294 21.094 2.1081 20.9641 2.00146 20.884C1.89482 20.8022 1.71709 20.6616 1.61046 20.569C1.50382 20.4747 1.32253 20.3039 1.21056 20.1882C1.09682 20.0707 0.940414 19.8963 0.86399 19.7985C0.785789 19.7006 0.677374 19.5529 0.622278 19.4692C0.567181 19.3856 0.487203 19.2539 0.44277 19.1756C0.398338 19.0973 0.330801 18.962 0.2917 18.8731C0.2526 18.7859 0.199281 18.6488 0.172621 18.5705C0.145962 18.4922 0.108638 18.3641 0.0890881 18.2858C0.0695378 18.2075 0.0411011 18.0669 0.0268827 17.9744C0.0144416 17.8818 0.0020005 17.7163 0.000223202 17.6095C-0.0015541 17.4743 0.00733239 17.3853 0.0251054 17.3248C0.0411011 17.2768 0.0855335 17.2002 0.122857 17.1557C0.16018 17.1113 0.222385 17.0561 0.261486 17.0312Z" fill="#F6DE63"/>
<path d="M24.9111 21.7132C25.0479 21.6046 25.1919 21.5032 25.231 21.4907C25.2701 21.4765 25.3554 21.464 25.4229 21.464C25.5011 21.4623 25.574 21.4747 25.6362 21.4961C25.686 21.5156 25.7677 21.5655 25.814 21.6082C25.8619 21.6509 25.9206 21.7256 25.9437 21.7737C25.9668 21.8235 25.9917 21.9036 25.997 21.9516C26.0041 22.0015 25.9988 22.0851 25.9881 22.1385C25.9775 22.1919 25.9455 22.272 25.9188 22.3165C25.8922 22.361 25.8015 22.4535 25.7198 22.5229C25.6362 22.5923 25.4887 22.708 25.391 22.7827C25.2932 22.8557 25.1137 22.9856 24.9911 23.0675C24.8684 23.1511 24.6534 23.2899 24.5112 23.3735C24.369 23.459 24.1859 23.5622 24.1042 23.6031C23.9673 23.6707 23.9425 23.6779 23.8198 23.6779C23.7221 23.6779 23.6616 23.6672 23.6048 23.6405C23.5603 23.6209 23.4892 23.5729 23.4448 23.5319C23.4004 23.4928 23.3471 23.4252 23.3257 23.3824C23.3026 23.3397 23.2777 23.2597 23.2706 23.2063C23.2618 23.1529 23.26 23.0728 23.2671 23.0283C23.2742 22.9838 23.2973 22.9144 23.3186 22.8735C23.3382 22.8308 23.3826 22.7685 23.4128 22.7329C23.4448 22.6973 23.5674 22.6137 23.6847 22.5478C23.802 22.4802 23.9904 22.3663 24.1024 22.2951C24.2144 22.2239 24.3868 22.1065 24.4845 22.0371C24.5823 21.9677 24.7742 21.8217 24.9111 21.7132Z" fill="#F6DE63"/>
<path d="M18.6815 24.2991C18.8913 24.2564 19.1081 24.2084 19.1614 24.1959C19.2147 24.1817 19.3303 24.171 19.4191 24.1692C19.5631 24.1675 19.5897 24.1728 19.6857 24.2191C19.7444 24.2475 19.819 24.3009 19.8528 24.3401C19.8865 24.3774 19.9345 24.4522 19.9594 24.5056C19.9932 24.5803 20.0038 24.6337 20.0038 24.728C20.0038 24.8223 19.9932 24.8757 19.9594 24.9505C19.9345 25.0039 19.883 25.0804 19.8457 25.1195C19.8066 25.1587 19.739 25.2085 19.6946 25.2299C19.6502 25.2512 19.5346 25.2868 19.4369 25.3064C19.3391 25.3278 19.0672 25.3847 18.8326 25.4327C18.598 25.4808 18.1892 25.5555 17.9262 25.6C17.6614 25.6427 17.2988 25.6997 17.1175 25.7228C16.9362 25.7477 16.6039 25.7887 16.3799 25.8136L16.3425 25.8175C16.121 25.8403 15.8215 25.8713 15.6601 25.8848C15.4895 25.899 15.1412 25.9221 14.887 25.9382C14.6329 25.9524 14.2561 25.972 14.0517 25.9826C13.8473 25.9915 13.4972 26.0004 13.2732 26.0004C12.9035 26.0004 12.8609 25.9969 12.7667 25.9613C12.6956 25.9346 12.6352 25.8937 12.5659 25.8243C12.493 25.7513 12.4592 25.6997 12.4343 25.6267C12.4166 25.5733 12.4023 25.4808 12.4023 25.4221C12.4041 25.3473 12.4166 25.2833 12.4503 25.2085C12.4752 25.1498 12.5268 25.0733 12.5623 25.0359C12.5996 25.0003 12.6618 24.9558 12.7009 24.9345C12.74 24.9149 12.8111 24.89 12.8609 24.8811C12.9089 24.8722 13.2377 24.8597 13.5896 24.8544C13.9415 24.849 14.3734 24.8366 14.5493 24.8259C14.7253 24.8152 15.0327 24.7957 15.2336 24.7796C15.4344 24.7654 15.7543 24.7369 15.9445 24.7173C16.1347 24.6978 16.4795 24.6586 16.7087 24.6284C16.938 24.5999 17.2775 24.5518 17.4641 24.5216C17.6507 24.4931 17.9137 24.4486 18.0506 24.4237C18.1874 24.3988 18.4718 24.3436 18.6815 24.2991Z" fill="#F6DE63"/>
</svg>
