<svg width="24" height="24" viewBox="0 0 24 24" fill="none" xmlns="http://www.w3.org/2000/svg">
<path fill-rule="evenodd" clip-rule="evenodd" d="M16.4601 0L16.7123 0.0881633C16.8495 0.137143 17.0552 0.213061 17.1703 0.262041C17.2854 0.308571 17.4544 0.391837 17.5499 0.445714C17.6454 0.502041 17.7874 0.597551 17.8683 0.658776C17.9491 0.72 18.1573 0.908571 18.3311 1.07755C18.5026 1.24653 18.7254 1.49143 18.8258 1.62367C18.9263 1.75347 19.0561 1.96408 19.1173 2.08653C19.1761 2.21143 19.274 2.45143 19.443 2.92653L19.8667 2.95592C20.1018 2.97061 20.3443 2.9951 20.4079 3.0098C20.4741 3.02449 20.5671 3.05633 20.6161 3.08327C20.6675 3.10776 20.7459 3.16653 20.7924 3.21061C20.839 3.25714 20.9051 3.3551 20.9394 3.42857C21.0006 3.56082 21.003 3.57551 21.003 4.0898C21.003 4.51592 20.9957 4.64327 20.9614 4.75102C20.9394 4.82449 20.8953 4.92245 20.8635 4.96898C20.8316 5.01551 20.7581 5.07918 20.6969 5.10857C20.6357 5.13796 20.5255 5.17469 20.452 5.18939C20.3785 5.20408 20.1949 5.22122 20.0479 5.22857C19.901 5.23592 19.7222 5.24816 19.5336 5.26776L19.514 6.10531C19.5042 6.56571 19.4846 7.13388 19.4699 7.36408C19.4577 7.61143 19.4332 7.82204 19.4161 7.86857C19.3965 7.9102 19.3352 7.98857 19.2814 8.03755C19.225 8.08898 19.1369 8.1502 19.0854 8.17714C19.0365 8.20163 18.9581 8.22857 18.914 8.23837C18.8528 8.25061 18.8307 8.2702 18.8136 8.33143C18.8014 8.37551 18.7842 8.54449 18.7744 8.70612C18.7671 8.86775 18.7475 9.06612 18.7303 9.14694C18.7132 9.24735 18.6716 9.34041 18.6054 9.43837C18.5466 9.52408 18.4707 9.60245 18.4193 9.62694C18.3728 9.65143 18.2626 9.68326 18.1744 9.69551C18.0862 9.7102 17.6503 9.73224 17.207 9.74694C16.7637 9.75918 16.3401 9.77143 16.1417 9.77143V10.4449L16.2935 10.4645C16.3792 10.4743 16.9327 10.4816 17.5254 10.4816C18.1181 10.4841 19.3254 10.4939 20.2071 10.5061C21.0888 10.5184 21.8823 10.5404 21.9704 10.5551C22.0765 10.5714 22.1606 10.6016 22.2227 10.6457C22.2741 10.6849 22.3427 10.7535 22.3721 10.8C22.4039 10.8465 22.448 10.9469 22.4725 11.0204C22.5019 11.1135 22.5166 11.2776 22.541 11.9633L23.0211 11.9927C23.4668 12.0196 23.5109 12.0269 23.6358 12.0906C23.7337 12.1396 23.7925 12.1935 23.8513 12.2816C23.8954 12.3478 23.9444 12.4433 23.9615 12.4898C23.9811 12.551 23.9909 13.129 23.9982 14.4735C24.0031 15.8008 23.9982 16.4351 23.9786 16.5796C23.9615 16.6947 23.9297 16.8269 23.9052 16.8735C23.8807 16.92 23.817 17.0008 23.7656 17.0498C23.7141 17.0988 23.6382 17.1527 23.599 17.1698C23.555 17.1869 23.2807 17.2065 22.9255 17.2188C22.5949 17.2286 22.2104 17.2384 21.8112 17.2408L21.6888 17.4784C21.6202 17.6082 21.4806 17.8408 21.3778 17.9976C21.2749 18.1543 21.1279 18.3576 21.052 18.4531C20.9761 18.5486 20.8243 18.7225 20.7141 18.8424C20.6039 18.9625 20.3981 19.1657 20.2561 19.2955C20.114 19.4229 19.8765 19.6163 19.7295 19.7265C19.5826 19.8367 19.3499 19.9935 19.2152 20.0743C19.0805 20.1576 18.9287 20.2433 18.7867 20.3143V21.7102L20.1508 21.7273C20.9026 21.7371 21.5786 21.7567 21.652 21.7714C21.7255 21.7837 21.8455 21.8327 21.919 21.8767C21.9925 21.9184 22.1198 22.0212 22.2006 22.102C22.2839 22.1829 22.377 22.298 22.4064 22.3592C22.4382 22.4253 22.4676 22.5502 22.4798 22.6653C22.4896 22.7731 22.4921 22.9494 22.4798 23.0571C22.4676 23.1967 22.4406 23.2947 22.3892 23.4C22.3451 23.4906 22.2668 23.5935 22.1859 23.6694C22.1125 23.7355 21.9655 23.8384 21.6643 24L11.7456 23.9902C4.64095 23.9853 1.73393 23.9755 1.49637 23.9559C1.31514 23.9388 1.08248 23.9118 0.982069 23.8922C0.881658 23.8751 0.769001 23.8433 0.729817 23.8261C0.693081 23.8065 0.558383 23.6767 0.428584 23.5347C0.301233 23.3927 0.168984 23.2212 0.137147 23.1551C0.105309 23.0865 0.0612262 22.9616 0.0416338 22.8735C0.0195924 22.7853 0.00244905 22.6188 0.00244905 22.4988C0.00244905 22.3812 0.0146943 22.2269 0.0293886 22.1559C0.0440829 22.0873 0.097962 21.9404 0.149392 21.8327C0.200822 21.7249 0.296335 21.578 0.362459 21.5045C0.426135 21.4335 0.555934 21.3208 0.651447 21.2596C0.74696 21.1959 0.893903 21.12 0.982069 21.0906C1.07023 21.0612 1.23922 21.022 1.36167 21C1.48412 20.9804 1.62127 20.9535 1.6678 20.9388C1.71433 20.9241 1.7976 20.8873 1.85148 20.8555C1.90536 20.8237 1.99353 20.7502 2.04985 20.6914C2.13557 20.5984 2.15516 20.5543 2.20414 20.351C2.23353 20.2237 2.307 19.8759 2.36578 19.5796C2.42456 19.2833 2.55191 18.6392 2.64497 18.1469C2.73804 17.6547 2.95355 16.5159 3.12254 15.6122C3.29152 14.7086 3.57316 13.1878 3.74705 12.2327C3.92093 11.2751 4.1193 10.1731 4.18787 9.78367C4.25645 9.39429 4.33482 8.92408 4.35931 8.74286C4.38625 8.56163 4.41564 8.33633 4.42298 8.24082C4.43278 8.13061 4.42788 8.0302 4.41074 7.95918C4.3887 7.88327 4.34461 7.81469 4.26624 7.73878C4.19522 7.66776 4.09971 7.60653 4.00664 7.5698C3.90134 7.53061 3.77154 7.50857 3.54133 7.49143C3.36499 7.47918 3.12254 7.44735 3.00253 7.42041C2.88008 7.39592 2.68416 7.33959 2.56171 7.29796C2.43925 7.25388 2.24333 7.17306 2.12088 7.11429C1.99842 7.05551 1.77801 6.92571 1.63107 6.8302C1.44494 6.70776 1.2784 6.56816 1.08983 6.38204C0.913495 6.20327 0.761654 6.02204 0.648998 5.85306C0.555934 5.71102 0.433482 5.50286 0.377154 5.38775C0.320825 5.27265 0.237558 5.06449 0.188577 4.92245C0.142045 4.78041 0.0857167 4.57714 0.0636753 4.46939C0.0416338 4.36163 0.0146943 4.15347 0.00734715 4.00408C-0.00244905 3.85469 -0.00244905 3.61469 0.00734715 3.46531C0.0146943 3.31592 0.0416338 3.10776 0.0636753 3C0.0857167 2.89224 0.139596 2.69388 0.183679 2.55918C0.230211 2.42449 0.318376 2.20898 0.382052 2.08163C0.445727 1.95429 0.526546 1.8049 0.563281 1.75102C0.597568 1.69714 0.688183 1.5698 0.764103 1.46939C0.840024 1.36898 0.999212 1.1902 1.11922 1.0702C1.23922 0.952653 1.42535 0.79102 1.5331 0.710204C1.64086 0.629388 1.81719 0.514286 1.92495 0.453061C2.03271 0.391837 2.23108 0.298776 2.36578 0.247347C2.50048 0.193469 2.69885 0.127347 2.80661 0.0979592C2.94621 0.0612245 3.11764 0.0391837 3.39438 0.0269388C3.6099 0.0171429 6.63692 0.00489796 16.4601 0V0ZM3.50459 0.820408C3.12254 0.835102 3.01968 0.847347 2.85559 0.898776C2.74783 0.933061 2.5715 1.00408 2.46374 1.05796C2.35599 1.11184 2.18455 1.21469 2.08414 1.28571C1.98373 1.35673 1.82944 1.47918 1.74372 1.56C1.65801 1.63837 1.51596 1.7902 1.43024 1.89796C1.34453 2.00571 1.22452 2.17714 1.16575 2.27755C1.10697 2.37796 1.0237 2.54449 0.982069 2.6449C0.940435 2.74531 0.884107 2.91673 0.857167 3.02449C0.82533 3.14939 0.803288 3.34776 0.793492 3.57551C0.783696 3.79592 0.791043 4.02367 0.808186 4.17551C0.82533 4.3151 0.874311 4.53061 0.923292 4.67755C0.969824 4.81959 1.05309 5.01796 1.10697 5.11837C1.1633 5.21878 1.26861 5.38775 1.34453 5.49551C1.4229 5.60082 1.57229 5.7698 1.68005 5.87265C1.78781 5.97306 1.96414 6.11265 2.0719 6.18367C2.17965 6.25469 2.33394 6.34531 2.41476 6.38694C2.49558 6.42612 2.65477 6.49224 2.76987 6.53388C2.88498 6.57306 3.06131 6.62449 3.16172 6.64653C3.26213 6.66857 3.49479 6.70286 3.67602 6.72245C3.85725 6.74449 4.07767 6.77878 4.16583 6.80082C4.254 6.82286 4.39115 6.87429 4.47196 6.91592C4.56013 6.96 4.69483 7.06531 4.80259 7.17551C4.92259 7.29551 5.0181 7.42041 5.07688 7.53061C5.12586 7.62612 5.18464 7.77306 5.20913 7.86122C5.23607 7.96898 5.24341 8.06449 5.23362 8.1551C5.22382 8.22857 5.15035 8.66939 5.06953 9.13469C4.98871 9.6 4.81728 10.5649 4.68993 11.2776C4.56258 11.9902 4.33727 13.2416 4.18787 14.0571C4.04093 14.8727 3.79113 16.2269 3.63684 17.0694C3.48255 17.9118 3.27193 19.0335 3.17152 19.5624C3.04907 20.2065 2.9658 20.5886 2.91437 20.7257C2.87518 20.8359 2.78947 21.0024 2.72579 21.0955C2.66212 21.1886 2.55681 21.3135 2.48823 21.3722C2.42211 21.4335 2.27762 21.5241 2.16986 21.5755C2.02047 21.6465 1.88087 21.6882 1.59433 21.7469C1.36167 21.7935 1.17799 21.8449 1.11677 21.8792C1.06289 21.911 0.982069 21.9845 0.937986 22.0433C0.893903 22.102 0.840024 22.2122 0.817982 22.2857C0.793492 22.3714 0.783696 22.4718 0.791043 22.5673C0.79839 22.6482 0.82533 22.7633 0.852269 22.8245C0.879209 22.8857 0.942884 22.9763 0.996763 23.0278C1.04819 23.0792 1.13146 23.1331 1.17799 23.1453C1.22697 23.16 1.85638 23.1796 2.68416 23.1918C3.4654 23.2041 8.03533 23.2139 12.8428 23.2139L21.5786 23.2163C21.6912 23.0424 21.7157 22.9714 21.7206 22.8882C21.7255 22.7951 21.7157 22.7437 21.679 22.6849C21.6496 22.6408 21.5982 22.5918 21.5614 22.5747C21.5124 22.5527 21.2259 22.5429 20.5745 22.538C20.07 22.5331 18.6373 22.5184 17.3907 22.5061C16.1441 22.4914 15.02 22.4694 14.8927 22.4571C14.7653 22.4424 14.5278 22.4082 14.3661 22.3812C14.2045 22.3543 13.962 22.3053 13.8273 22.2735C13.6926 22.2416 13.4551 22.1755 13.3008 22.1265C13.1465 22.0751 12.9089 21.9918 12.7742 21.938C12.6395 21.8841 12.3701 21.7641 12.1742 21.671C11.9783 21.5755 11.682 21.4163 11.513 21.3159C11.344 21.2155 11.0917 21.0514 10.9497 20.9486C10.8077 20.8482 10.5823 20.6743 10.4476 20.5616C10.3129 20.449 10.0876 20.2433 9.94804 20.1037C9.80599 19.9641 9.60272 19.7437 9.49251 19.6163C9.38231 19.489 9.21332 19.2784 9.12026 19.151C9.02475 19.0237 8.8876 18.8253 8.81413 18.7102C8.74066 18.5951 8.60596 18.3698 8.51534 18.2082C8.42718 18.0465 8.28268 17.7527 8.19452 17.5518C8.10635 17.3535 7.98635 17.0449 7.92512 16.8686C7.8639 16.6898 7.78063 16.4155 7.74144 16.2612C7.70226 16.1069 7.65328 15.8865 7.63369 15.7714C7.61165 15.6563 7.57736 15.4359 7.55777 15.2816C7.53572 15.1273 7.50879 14.6424 7.49654 14.2041C7.48429 13.7657 7.4745 12.8571 7.4745 12.1837C7.4745 11.5102 7.48429 10.5943 7.49654 10.151C7.51613 9.44816 7.52593 9.31837 7.57001 9.15918C7.5994 9.05878 7.66308 8.88735 7.71695 8.77959C7.76838 8.67184 7.8639 8.51265 7.93247 8.42449C7.99859 8.33633 8.14064 8.18204 8.2484 8.08163C8.3586 7.97633 8.53004 7.84898 8.65004 7.78041C8.7627 7.71673 8.96107 7.63102 9.08842 7.58939C9.31863 7.51347 9.33088 7.51347 10.0436 7.49388C10.4403 7.48163 12.5661 7.47184 14.7653 7.47184L18.7622 7.46939V6.78367H5.97813V4.48163C14.7188 4.48163 17.5915 4.47429 18.0005 4.46449L18.745 4.4449C18.7205 3.66612 18.696 3.34041 18.6764 3.22041C18.6569 3.09796 18.6128 2.91673 18.5785 2.81633C18.5442 2.71592 18.4683 2.53469 18.4095 2.41224C18.3507 2.2898 18.2356 2.10367 18.1573 1.99592C18.0764 1.88816 17.9172 1.71184 17.8046 1.60408C17.6919 1.49633 17.5034 1.34694 17.3907 1.27102C17.2756 1.1951 17.114 1.09714 17.0307 1.05551C16.945 1.01388 16.7809 0.947755 16.6633 0.906122C16.4503 0.835102 16.4429 0.835102 15.6151 0.808163C15.1572 0.795918 13.0461 0.778776 10.9252 0.773878C8.80433 0.76898 6.36753 0.771429 5.51281 0.783673C4.65809 0.793469 3.75439 0.810612 3.50459 0.820408ZM19.4969 4.48163H20.2561V3.74694H19.4969V4.48163ZM6.78632 5.97551H18.7622C18.7377 5.43429 18.7254 5.27265 18.7205 5.26531C18.7132 5.25796 16.029 5.24816 12.7522 5.24327L6.79366 5.23347L6.78632 5.97551ZM9.32108 8.32653C9.2672 8.34367 9.1472 8.39755 9.05169 8.44653C8.95862 8.49551 8.82148 8.59592 8.74311 8.66939C8.66718 8.74531 8.55943 8.87755 8.5031 8.96327C8.44677 9.05143 8.37575 9.20082 8.34636 9.29388L8.29248 9.46531C8.29493 13.6996 8.30717 14.7747 8.32432 15.0245C8.33901 15.24 8.3684 15.5167 8.39044 15.6367C8.41004 15.7592 8.47126 16.0041 8.52514 16.1829C8.57902 16.3616 8.67453 16.6482 8.73821 16.8196C8.79943 16.991 8.94883 17.3241 9.06638 17.5592C9.18394 17.7967 9.37741 18.1371 9.49741 18.3184C9.61742 18.502 9.80844 18.7665 9.9211 18.9061C10.0338 19.0482 10.2591 19.3004 10.4207 19.4669C10.5823 19.6335 10.8199 19.8588 10.9497 19.9665C11.0771 20.0718 11.2852 20.2359 11.415 20.3265C11.5424 20.4196 11.7628 20.5641 11.9048 20.6473C12.0444 20.7306 12.282 20.858 12.4314 20.9314C12.6126 21.0196 12.7081 21.0514 12.7253 21.0343C12.7375 21.022 12.7522 20.8604 12.7571 20.6743L12.7644 20.3388C12.451 20.1698 12.233 20.0351 12.0763 19.9347C11.922 19.8318 11.6844 19.6604 11.5497 19.5527C11.415 19.4424 11.1824 19.2343 11.033 19.0873C10.8836 18.9404 10.6803 18.7224 10.5799 18.6C10.4795 18.48 10.3301 18.2865 10.2493 18.1714C10.1685 18.0588 10.0411 17.8653 9.96518 17.7429C9.89171 17.6229 9.7766 17.4196 9.71293 17.2898C9.64925 17.1624 9.5415 16.92 9.47292 16.751C9.4068 16.5845 9.31618 16.32 9.2721 16.1633C9.22557 16.009 9.16679 15.7616 9.1374 15.6122C9.10801 15.4653 9.07128 15.2106 9.05169 15.049C9.03209 14.8873 9.0027 14.5029 8.98801 14.1918C8.96842 13.8147 8.96352 13.2416 8.97577 12.4531C8.98311 11.8065 9.00026 11.2065 9.01495 11.1184C9.02964 11.0131 9.06638 10.9151 9.12026 10.8245C9.16434 10.751 9.23781 10.6653 9.28435 10.6359C9.33088 10.6041 9.41904 10.5673 9.48027 10.5551C9.53905 10.5404 10.0362 10.5184 10.5823 10.5061C11.126 10.4963 12.4314 10.4841 13.4771 10.4841L15.3825 10.4816V9.74694C13.5359 9.73224 13.34 9.7249 13.2396 9.69306C13.1685 9.66857 13.0632 9.60735 12.9947 9.54612C12.9261 9.4849 12.8526 9.39184 12.8281 9.33551C12.7963 9.25714 12.7816 9.13469 12.7718 8.79918C12.7644 8.55918 12.7522 8.33878 12.7473 8.30939L12.7375 8.25306C11.3048 8.26041 10.5579 8.2702 10.1538 8.28C9.68844 8.2898 9.38231 8.30694 9.32108 8.32653ZM13.4967 8.96327H17.9785V8.25306H13.4967V8.96327ZM9.74967 11.9755H21.7255V11.2408H9.74967V11.9755ZM9.74967 13.0359C9.74967 13.1731 9.75946 13.6114 9.77416 14.0082C9.7864 14.4073 9.80844 14.8482 9.82314 14.9878C9.83783 15.1298 9.87212 15.3551 9.89906 15.4898C9.926 15.6245 10.0044 15.9012 10.0705 16.102C10.1391 16.3053 10.2517 16.5918 10.3203 16.7388C10.3913 16.8882 10.5089 17.1086 10.5823 17.2286C10.6534 17.351 10.7832 17.5494 10.8713 17.6694C10.957 17.7918 11.104 17.978 11.1946 18.0857C11.2852 18.1935 11.486 18.4041 11.6379 18.551C11.7922 18.7004 12.042 18.9159 12.1987 19.031C12.353 19.1486 12.5391 19.2808 12.6151 19.3273C12.6885 19.3739 12.8649 19.4743 13.0069 19.5502C13.1465 19.6261 13.389 19.7388 13.5457 19.8C13.7 19.8637 13.9375 19.9445 14.0722 19.9837C14.2069 20.0229 14.42 20.0767 14.5498 20.1037C14.6772 20.1306 14.8853 20.1673 15.0151 20.1845C15.1498 20.2016 15.4584 20.2163 15.7498 20.2139C16.0854 20.2139 16.3401 20.1992 16.5213 20.1722C16.6682 20.1478 16.9156 20.1012 17.0723 20.0669C17.2266 20.0327 17.496 19.9543 17.6723 19.8955C17.8462 19.8343 18.167 19.6996 18.3826 19.5943C18.5981 19.489 18.8993 19.3176 19.0561 19.2122C19.2103 19.1094 19.4479 18.9331 19.5826 18.8229C19.7173 18.7102 19.9255 18.5167 20.0479 18.3894C20.1704 18.2645 20.3394 18.071 20.4251 17.9633C20.5108 17.8555 20.643 17.6743 20.7214 17.5592C20.7973 17.4465 20.91 17.2629 20.9712 17.1551C21.0324 17.0473 21.1402 16.8343 21.2088 16.6776C21.2798 16.5233 21.3851 16.2539 21.4439 16.0776C21.5002 15.9037 21.5712 15.6441 21.6006 15.502C21.6276 15.3624 21.6618 15.1567 21.6765 15.049C21.6937 14.9412 21.7084 14.3902 21.7157 13.8196L21.7255 12.7837H9.74967V13.0359ZM22.5337 13.3176C22.5313 13.6114 22.5215 14.0939 22.5068 14.3902C22.4945 14.7061 22.4627 15.0514 22.4333 15.2229C22.4064 15.3845 22.35 15.6539 22.3108 15.8229C22.2717 15.9918 22.2153 16.2 22.1884 16.2882C22.159 16.3763 22.1468 16.4547 22.1565 16.4645C22.1688 16.4743 22.4112 16.4914 22.6978 16.5012L23.2194 16.5208V12.7861H22.5337V13.3176ZM16.7662 20.9143C16.5409 20.9486 16.2445 20.9731 15.909 20.9804C15.5882 20.9902 15.2674 20.9829 15.0641 20.9657C14.8804 20.9486 14.6159 20.9143 14.4763 20.8898C14.3343 20.8629 14.0649 20.8041 13.8763 20.7576C13.6877 20.711 13.531 20.6767 13.5285 20.6792C13.5261 20.6816 13.5212 20.7429 13.5163 20.8163C13.5139 20.8922 13.5114 21.0514 13.5139 21.1714L13.5188 21.3918C14.1555 21.5535 14.4567 21.6171 14.5988 21.6367C14.7384 21.6563 15.0421 21.6833 15.2723 21.698C15.5 21.7127 16.2029 21.7224 16.8323 21.7224H17.9785C17.9785 20.7673 17.9711 20.6473 17.9466 20.6473C17.9295 20.6498 17.7336 20.6988 17.5132 20.7576C17.2903 20.8139 16.9548 20.8873 16.7662 20.9143Z" fill="#F6DE63"/>
<path d="M5.68962 11.0202C5.72146 10.9737 5.78513 10.9149 5.83167 10.8928C5.8782 10.8684 5.94922 10.8488 5.99085 10.8488C6.03249 10.8488 6.11086 10.8708 6.16719 10.8977C6.24311 10.932 6.28719 10.9761 6.32148 11.0447C6.34842 11.0986 6.37046 11.1892 6.37046 11.2455C6.37046 11.3165 6.35331 11.3802 6.31413 11.4365C6.28474 11.4831 6.22106 11.5467 6.17453 11.5786C6.12555 11.6104 6.05208 11.6324 6.0031 11.6324C5.95167 11.6324 5.87575 11.6055 5.81452 11.5663C5.75819 11.5271 5.69452 11.4684 5.67248 11.4292C5.65289 11.3924 5.63574 11.3043 5.63574 11.2333C5.63574 11.1402 5.65044 11.0839 5.68962 11.0202Z" fill="#F6DE63"/>
<path d="M10.1836 2.75734C10.2081 2.72305 10.2718 2.67407 10.3257 2.64713C10.3796 2.61774 10.4506 2.5957 10.4849 2.5957C10.5191 2.5957 10.5902 2.61774 10.644 2.64223C10.6979 2.66427 10.7738 2.72305 10.813 2.76958C10.8743 2.84305 10.8816 2.86754 10.8743 2.98999C10.8669 3.0904 10.8473 3.14917 10.7983 3.21529C10.7592 3.26427 10.693 3.32305 10.6514 3.34509C10.5951 3.37203 10.5363 3.37938 10.4604 3.36958C10.3991 3.36223 10.311 3.3304 10.2644 3.29856C10.2081 3.26183 10.1665 3.20795 10.1469 3.14672C10.1273 3.08795 10.12 3.00223 10.1273 2.93121C10.1346 2.86754 10.1616 2.78917 10.1836 2.75734Z" fill="#F6DE63"/>
</svg>
