<svg width="27" height="27" viewBox="0 0 27 27" fill="none" xmlns="http://www.w3.org/2000/svg">
<path d="M17.4932 16.7235L17.8246 16.392C18.0054 16.2112 18.1621 16.0605 18.1712 16.0605C18.1802 16.0605 18.8371 16.7114 21.0791 18.9534L20.4011 19.6314L17.4932 16.7235Z" fill="#F6DE63"/>
<path fill-rule="evenodd" clip-rule="evenodd" d="M19.5869 14.1016C19.596 14.1016 20.7169 15.2166 22.079 16.5788C24.1793 18.6854 24.559 19.0742 24.5741 19.1646C24.5861 19.2218 24.5861 19.3243 24.5741 19.3906C24.556 19.4961 24.4777 19.5865 23.206 20.8673L23.8599 21.4399C24.2185 21.7533 24.9598 22.4043 25.5052 22.8865C26.0506 23.3657 26.5509 23.8298 26.6111 23.9112C26.6744 23.9955 26.7648 24.1492 26.816 24.2577C26.8673 24.3662 26.9306 24.547 26.9547 24.6646C26.9788 24.7821 26.9999 24.9629 26.9999 25.0714C26.9999 25.1799 26.9788 25.3607 26.9547 25.4783C26.9306 25.5958 26.8522 25.8038 26.7829 25.9454C26.6865 26.1413 26.6051 26.2558 26.4303 26.4306C26.2556 26.6054 26.141 26.6868 25.9452 26.7832C25.8035 26.8525 25.5956 26.9309 25.4781 26.955C25.3606 26.9791 25.1798 27.0002 25.0713 27.0002C24.9628 27.0002 24.782 26.9791 24.6645 26.955C24.547 26.9309 24.3601 26.8646 24.2426 26.8073C24.1251 26.7501 23.9624 26.6506 23.881 26.5873C23.7966 26.521 23.2904 25.9665 22.754 25.3547C22.2146 24.7429 21.5727 24.0106 20.8676 23.206L20.1896 23.881C19.5869 24.4777 19.4965 24.5561 19.391 24.5742C19.3247 24.5862 19.2223 24.5862 19.165 24.5742C19.0746 24.5591 18.6196 24.1161 13.1533 18.6523L13.8313 17.9742L19.2856 23.429L23.429 19.2851L18.9089 14.7646L19.2404 14.4331C19.4212 14.2522 19.5779 14.1016 19.5869 14.1016V14.1016ZM21.5788 22.5279C21.5848 22.549 22.2086 23.2662 22.9619 24.1251C23.7153 24.9871 24.3752 25.7284 24.4234 25.7766C24.4716 25.8218 24.5891 25.8972 24.6795 25.9394C24.8121 26.0027 24.8935 26.0177 25.0713 26.0207C25.2521 26.0207 25.3304 26.0057 25.463 25.9424C25.5534 25.9002 25.683 25.8128 25.7463 25.7465C25.8126 25.6832 25.9 25.5536 25.9422 25.4632C26.0054 25.3306 26.0205 25.2523 26.0205 25.0714C26.0175 24.8906 26.0024 24.8123 25.9391 24.6797C25.897 24.5892 25.8277 24.4777 25.7885 24.4355C25.7523 24.3903 25.2189 23.9172 24.6072 23.3807C23.9925 22.8443 23.2783 22.2175 23.0162 21.9884C22.754 21.7624 22.531 21.5755 22.5159 21.5755C22.5039 21.5755 22.2869 21.7835 22.0308 22.0336C21.7777 22.2868 21.5758 22.5098 21.5788 22.5279Z" fill="#F6DE63"/>
<path d="M7.36816 6.59752L7.69964 6.26604C7.88044 6.08524 8.03714 5.93457 8.04618 5.93457C8.05522 5.93457 8.71214 6.58546 10.9541 8.82743L10.2761 9.50544L7.36816 6.59752Z" fill="#F6DE63"/>
<path fill-rule="evenodd" clip-rule="evenodd" d="M21.3802 0.0126302C21.7357 0.0186576 22.1395 0.0427672 22.2992 0.0698905C22.4559 0.0940001 22.7271 0.15126 22.9019 0.193452C23.0767 0.238658 23.3479 0.323041 23.5046 0.380302C23.6613 0.440576 23.9114 0.549069 24.0621 0.624411C24.2127 0.69674 24.4267 0.820302 24.5442 0.895644C24.6617 0.967973 24.8425 1.09756 24.951 1.18496C25.0595 1.26934 25.2403 1.42606 25.3548 1.53455C25.4663 1.64304 25.6501 1.84496 25.7646 1.9866C25.8761 2.12825 26.0298 2.33921 26.1021 2.45373C26.1775 2.56825 26.301 2.78825 26.3734 2.93592C26.4487 3.08359 26.5572 3.33674 26.6174 3.49345C26.6747 3.65017 26.753 3.88825 26.7862 4.02085C26.8193 4.15346 26.8675 4.36441 26.8917 4.48798C26.9158 4.61154 26.9519 4.88277 26.97 5.09072C26.9941 5.32578 27.0001 5.66633 26.9911 5.99483C26.9821 6.28414 26.9519 6.65181 26.9278 6.80853C26.9037 6.96524 26.8555 7.20935 26.8193 7.35099C26.7832 7.49264 26.7199 7.70962 26.6777 7.83318C26.6385 7.95675 26.53 8.20688 26.4427 8.39072C26.3553 8.57455 26.1865 8.86387 26.072 9.03866C25.9575 9.21346 25.7345 9.50277 25.5778 9.68661C25.4211 9.87045 25.159 10.1417 24.9932 10.2894C24.8305 10.44 24.5653 10.6661 24.4086 10.7896C24.2519 10.9132 24.0078 11.097 23.8662 11.1995C23.7246 11.2989 23.4594 11.4767 23.2786 11.5913C23.0978 11.7088 22.7181 11.9348 22.4348 12.0976C22.1516 12.2603 21.6242 12.5406 21.2596 12.7244C20.895 12.9052 20.3194 13.1795 19.9789 13.3332C19.6384 13.4869 19.1111 13.7189 18.8037 13.8455C18.4963 13.9751 18.0413 14.1589 17.7942 14.2584C17.5441 14.3578 17.0439 14.5507 16.6793 14.6894C16.3146 14.825 15.6155 15.0811 15.1274 15.2559C14.6392 15.4277 14.1782 15.5904 14.1028 15.6146C13.9823 15.6537 13.9672 15.6688 13.9732 15.7472C13.9763 15.7954 13.9793 15.937 13.9823 16.0606C13.9853 16.1841 13.9702 16.3499 13.9552 16.4283C13.9371 16.5096 13.8798 16.6543 13.8316 16.7537C13.7774 16.8622 13.6388 17.0431 13.4911 17.1968C13.3555 17.3414 12.572 18.1581 11.7524 19.014C10.9327 19.8669 9.78463 21.0603 9.20304 21.6661C8.62146 22.2718 7.39199 23.5526 6.46989 24.514C5.5478 25.4754 4.71007 26.3343 4.6046 26.4187C4.49914 26.5061 4.29121 26.6387 4.14355 26.711C3.9959 26.7833 3.78496 26.8677 3.67648 26.8948C3.568 26.922 3.34501 26.9521 3.17927 26.9611C2.97134 26.9732 2.80259 26.9642 2.63686 26.931C2.50427 26.9069 2.29936 26.8496 2.18485 26.8044C2.07034 26.7592 1.86543 26.6507 1.73284 26.5633C1.59724 26.4729 1.36822 26.274 1.20248 26.1083C1.04579 25.9425 0.867997 25.7285 0.810742 25.6291C0.750474 25.5296 0.669113 25.3609 0.626925 25.2524C0.581724 25.1439 0.527483 24.951 0.500363 24.8214C0.473242 24.6948 0.452148 24.4839 0.452148 24.3573C0.452148 24.2277 0.479269 24.0017 0.509403 23.851C0.539537 23.6973 0.614872 23.4683 0.68418 23.3236C0.750474 23.182 0.858956 22.9981 0.922238 22.9137C0.985519 22.8294 2.52536 21.202 4.33943 19.2973C6.15349 17.3926 8.08507 15.3674 8.62748 14.7948C9.17291 14.2222 9.72436 13.6496 9.85695 13.5231C9.98652 13.3935 10.1583 13.2548 10.2366 13.2157C10.318 13.1765 10.4476 13.1222 10.5319 13.0951C10.6163 13.065 10.7821 13.0409 10.9086 13.0409C11.0322 13.0409 11.1768 13.0499 11.3154 13.08L11.4782 12.6189C11.5655 12.3658 11.7765 11.7721 11.9482 11.2989C12.12 10.8258 12.3912 10.1025 12.5539 9.68661C12.7136 9.27373 12.9668 8.64086 13.1144 8.28524C13.2651 7.92962 13.5062 7.36606 13.6568 7.03455C13.8075 6.70305 14.0908 6.11236 14.2866 5.72359C14.4825 5.33483 14.7658 4.79839 14.9194 4.53318C15.0701 4.26798 15.3021 3.88222 15.4347 3.67428C15.5673 3.46633 15.8295 3.09565 16.0163 2.84551C16.2032 2.59839 16.4924 2.24578 16.6582 2.06195C16.8209 1.88112 17.0831 1.61893 17.2398 1.48332C17.3965 1.3477 17.5984 1.18195 17.6888 1.11263C17.7792 1.04332 17.975 0.910713 18.1257 0.820302C18.2764 0.726877 18.5265 0.588247 18.6832 0.515918C18.8399 0.443589 19.105 0.33811 19.2708 0.283863C19.4365 0.229617 19.7228 0.154274 19.9036 0.121123C20.0844 0.084959 20.3496 0.0457809 20.4912 0.0307124C20.6328 0.0156439 21.0336 0.00660276 21.3802 0.0126302ZM20.0392 1.08249C19.8644 1.11866 19.5932 1.194 19.4365 1.25427C19.2798 1.31154 19.0357 1.42003 18.8941 1.49537C18.7525 1.5677 18.5084 1.71838 18.3517 1.82989C18.189 1.94441 17.8816 2.21565 17.6405 2.45373C17.4055 2.68578 17.1132 3.00523 16.9896 3.16195C16.8691 3.31866 16.6853 3.56277 16.5828 3.70441C16.4834 3.84606 16.2996 4.12332 16.176 4.32222C16.0495 4.52113 15.8506 4.85263 15.7331 5.06058C15.6125 5.26852 15.3624 5.74168 15.1756 6.11537C14.9857 6.48907 14.7025 7.07675 14.5458 7.42633C14.3891 7.77592 14.145 8.33647 14.0034 8.67702C13.8617 9.01757 13.6357 9.57812 13.5032 9.92771C13.3675 10.2773 13.244 10.5907 13.2289 10.6299C13.2109 10.6661 13.1988 10.7022 13.1988 10.7113C13.1988 10.7203 13.4278 10.3828 13.7081 9.96688C13.9883 9.54798 14.4042 8.94524 14.6332 8.63181C14.8652 8.31839 15.1937 7.87538 15.3684 7.65236C15.5432 7.42935 15.8385 7.05565 16.0284 6.82359C16.2182 6.59154 16.4985 6.26003 16.6461 6.08524C16.7968 5.91044 17.1011 5.56688 17.3241 5.31674C17.5501 5.06962 18.0052 4.59346 18.3366 4.26195C18.6681 3.93044 19.1171 3.50551 19.3311 3.31565C19.548 3.12578 19.8855 2.8425 20.0844 2.68277C20.2833 2.52304 20.5756 2.30304 20.7323 2.19154C20.889 2.08304 21.1481 1.91126 21.3048 1.81181C21.4615 1.71236 21.7538 1.54962 21.9527 1.45318C22.1516 1.35373 22.3806 1.24825 22.465 1.21811C22.5463 1.18797 22.6247 1.15482 22.6367 1.14578C22.6488 1.13674 22.5403 1.10359 22.3957 1.07647C22.251 1.04633 21.9828 1.01017 21.802 0.992083C21.6212 0.977014 21.335 0.96496 21.1692 0.96496C21.0035 0.967973 20.7534 0.980028 20.6117 0.995097C20.4701 1.00715 20.214 1.04633 20.0392 1.08249ZM22.9773 2.06195C22.8447 2.10715 22.5735 2.22469 22.3746 2.32414C22.1757 2.42359 21.8352 2.6225 21.6212 2.76113C21.4073 2.90277 21.0668 3.14387 20.8679 3.29756C20.669 3.45126 20.3285 3.72852 20.1145 3.91839C19.9006 4.10524 19.5088 4.46989 19.2437 4.72606C18.9815 4.98524 18.5898 5.38606 18.3698 5.61811C18.1528 5.85017 17.7912 6.25099 17.5652 6.50716C17.3422 6.76332 16.9896 7.1762 16.7878 7.42633C16.5859 7.67346 16.2303 8.1225 16.0043 8.42086C15.7752 8.71921 15.4317 9.18031 15.2419 9.44551C15.052 9.71072 14.7356 10.1718 14.5367 10.4702C14.3348 10.7685 14.0456 11.2236 13.8859 11.4798C13.7292 11.7359 13.5092 12.1036 13.4037 12.2935C13.2952 12.4833 13.1205 12.8088 13.012 13.0167C12.9065 13.2247 12.804 13.4357 12.783 13.4839C12.7588 13.5351 15.2419 11.0759 18.5325 7.78798L24.3182 2.00167C24.1675 1.93838 24.0139 1.91729 23.8813 1.90825C23.7487 1.90222 23.5438 1.91729 23.4293 1.93839C23.3117 1.95948 23.1098 2.01674 22.9773 2.06195ZM13.4248 14.2554C13.7985 14.0776 14.0094 13.9721 14.133 13.9088C14.2565 13.8455 14.5488 13.6828 14.7808 13.5502C15.0129 13.4206 15.3986 13.1885 15.6396 13.0378C15.8807 12.8902 16.3478 12.5828 16.6793 12.3598C17.0107 12.1367 17.4778 11.8113 17.7189 11.6365C17.96 11.4617 18.3848 11.1422 18.6681 10.9252C18.9484 10.7083 19.3702 10.3767 19.6023 10.1869C19.8343 9.99702 20.2893 9.61127 20.6117 9.32798C20.9342 9.04469 21.567 8.44798 22.016 7.99894C22.465 7.55291 22.9622 7.02853 23.1249 6.83866C23.2876 6.6488 23.5468 6.32935 23.7005 6.13044C23.8542 5.93154 24.0741 5.62715 24.1917 5.45236C24.3062 5.27757 24.4779 5.00031 24.5713 4.83455C24.6617 4.6688 24.7943 4.39154 24.8636 4.21674C24.933 4.04195 25.0173 3.77071 25.0475 3.614C25.0896 3.4151 25.1017 3.25839 25.0927 3.10167C25.0836 2.97811 25.0595 2.83044 25.0354 2.77619L24.9962 2.67976L13.4248 14.2554ZM25.7375 4.63866C25.6652 4.81346 25.5266 5.10277 25.4271 5.28661C25.3247 5.46743 25.1559 5.75373 25.0444 5.91948C24.936 6.08524 24.728 6.37757 24.5864 6.56743C24.4418 6.75729 24.1977 7.06168 24.047 7.24551C23.8933 7.42633 23.5498 7.81209 23.2816 8.1014C23.0134 8.39072 22.5584 8.85181 22.2661 9.12606C21.9768 9.40031 21.5278 9.81017 21.2717 10.0332C21.0155 10.2592 20.6449 10.5787 20.446 10.7444C20.2471 10.9102 19.9217 11.1754 19.7228 11.3321C19.5239 11.4918 19.1713 11.763 18.9393 11.9378C18.7073 12.1096 18.2914 12.414 18.0202 12.6099C17.746 12.8058 17.2367 13.1554 16.8902 13.3874C16.5407 13.6195 16.2845 13.7973 16.3177 13.7883C16.3508 13.7762 16.5738 13.6918 16.8149 13.5984C17.0529 13.505 17.5019 13.3302 17.8093 13.2066C18.1136 13.0831 18.6109 12.8751 18.9092 12.7455C19.2075 12.6159 19.6264 12.4291 19.8433 12.3296C20.0573 12.2302 20.5123 12.0102 20.8528 11.8414C21.1903 11.6726 21.6604 11.4225 21.8924 11.2899C22.1245 11.1573 22.4951 10.9343 22.7211 10.7957C22.9441 10.654 23.2635 10.44 23.4293 10.3195C23.595 10.1989 23.8572 9.99099 24.0169 9.85839C24.1736 9.7288 24.4508 9.4636 24.6346 9.27373C24.8154 9.08387 25.0565 8.80058 25.168 8.64387C25.2795 8.48716 25.4452 8.2099 25.5356 8.02907C25.626 7.84524 25.7436 7.57401 25.7918 7.42633C25.84 7.27565 25.9093 6.99839 25.9424 6.80853C25.9756 6.61866 26.0117 6.27811 26.0208 6.0551C26.0359 5.80496 26.0298 5.49154 26.0057 5.2414C25.9876 5.01839 25.9485 4.72003 25.9183 4.57839L25.8671 4.32524L25.7375 4.63866ZM9.97447 14.7858L9.35672 15.4307L11.6469 17.7181C12.572 16.7718 12.8794 16.4343 12.9276 16.3589C12.9969 16.2565 13.018 16.1902 13.018 16.0817C13.018 16.0033 13.0029 15.9069 12.9848 15.8707C12.9668 15.8346 12.569 15.4187 12.1019 14.9485C11.6348 14.4814 11.216 14.0776 11.1708 14.0535C11.1256 14.0294 11.0231 14.0113 10.9448 14.0113C10.8544 14.0113 10.764 14.0324 10.6977 14.0746C10.6374 14.1107 10.312 14.4302 9.97447 14.7858ZM3.67347 21.3979C2.17581 22.965 1.6786 23.5074 1.60628 23.6431C1.55204 23.7395 1.48574 23.9143 1.45862 24.0288C1.42547 24.1765 1.41342 24.3061 1.42547 24.4507C1.43451 24.5683 1.46766 24.737 1.50081 24.8274C1.53094 24.9209 1.60326 25.0685 1.66353 25.1589C1.7238 25.2524 1.87146 25.4211 1.99199 25.5357C2.13965 25.6713 2.2873 25.7768 2.42592 25.8431C2.54043 25.8973 2.73027 25.9576 2.8478 25.9787C3.01052 26.0058 3.10695 26.0058 3.28474 25.9787C3.40829 25.9576 3.58306 25.9063 3.67648 25.8642C3.76688 25.822 3.89344 25.7466 3.95974 25.6924C4.02603 25.6411 4.73719 24.9118 5.54177 24.074C6.34634 23.2392 7.84701 21.6781 8.87157 20.6083C9.89612 19.5414 10.7911 18.6072 10.8604 18.5378L10.984 18.4083C9.23016 16.6573 8.71186 16.148 8.70282 16.148C8.69076 16.148 7.99768 16.8652 7.16297 17.7392C6.32826 18.6132 4.75829 20.2587 3.67347 21.3979Z" fill="#F6DE63"/>
<path d="M2.85929 23.6151C2.93463 23.5368 3.05215 23.4524 3.11844 23.4253C3.19378 23.3982 3.30829 23.3861 3.41978 23.3921C3.51922 23.3982 3.63976 23.4253 3.69099 23.4494C3.74222 23.4765 3.82659 23.5428 3.88384 23.5971C3.93809 23.6543 4.00438 23.7417 4.0315 23.7899C4.05561 23.8381 4.08273 23.9496 4.08876 24.031C4.0978 24.1154 4.08876 24.2419 4.06766 24.3173C4.04355 24.4137 3.9863 24.4981 3.8748 24.6065C3.77536 24.706 3.67893 24.7753 3.60059 24.7964C3.53429 24.8145 3.43184 24.8295 3.37458 24.8295C3.31733 24.8295 3.21487 24.8145 3.14858 24.7964C3.07023 24.7753 2.9738 24.709 2.87436 24.6065C2.7719 24.5071 2.70561 24.4107 2.68451 24.3323C2.66643 24.266 2.65137 24.1636 2.65137 24.1063C2.65137 24.0491 2.66643 23.9466 2.68451 23.8803C2.70561 23.808 2.77793 23.6995 2.85929 23.6151Z" fill="#F6DE63"/>
<path fill-rule="evenodd" clip-rule="evenodd" d="M1.92857 0.000254332C2.05815 -0.00275937 2.251 0.0213502 2.38058 0.0545009C2.50413 0.084638 2.68795 0.150939 2.78739 0.202172C2.88683 0.250392 3.0375 0.343816 3.11886 0.410118C3.20324 0.476419 3.66127 0.976693 4.1404 1.52217C4.62254 2.06765 5.2644 2.79998 6.13225 3.79149L6.81027 3.11642C7.36172 2.56793 7.50938 2.43834 7.59375 2.42327C7.651 2.41122 7.75346 2.41122 7.81975 2.42327C7.93125 2.44135 8.13616 2.63724 12.8823 7.38081L12.2042 8.05889L7.71429 3.56848L3.57087 7.71231L9.02511 13.1671L8.3471 13.8452L5.39699 10.8918C2.88382 8.37834 2.44085 7.92327 2.42578 7.83286C2.41373 7.7756 2.41373 7.67314 2.42578 7.60683C2.44386 7.49834 2.52221 7.41094 3.79688 6.13012L3.39911 5.78053C3.17913 5.59067 2.71507 5.18382 2.36551 4.87642C2.01596 4.57204 1.45547 4.07779 1.11797 3.77944C0.777455 3.48108 0.452009 3.17067 0.388728 3.08628C0.32846 3.00491 0.241071 2.86026 0.195871 2.76985C0.15067 2.67943 0.0873884 2.50163 0.0572545 2.37806C0.0241071 2.2545 0 2.0556 0 1.94108C0 1.82656 0.0210938 1.63368 0.0452009 1.51916C0.069308 1.40464 0.147656 1.19368 0.216964 1.05204C0.313393 0.856145 0.394754 0.741625 0.569531 0.56683C0.744308 0.395049 0.858817 0.310666 1.05469 0.214227C1.19632 0.141898 1.39821 0.0665557 1.5067 0.0454598C1.61518 0.0213502 1.80502 0.000254332 1.92857 0.000254332ZM1.47656 1.08217C1.41027 1.11532 1.3048 1.19368 1.24453 1.25697C1.18426 1.31724 1.09989 1.44382 1.0577 1.53423C0.997433 1.66382 0.982366 1.7482 0.982366 1.92601C0.979353 2.1008 0.997433 2.18519 1.04866 2.30272C1.08783 2.38711 1.1481 2.48656 1.18426 2.52875C1.22042 2.57094 1.60312 2.91752 2.03404 3.29724C2.46496 3.67697 3.18817 4.30985 3.64018 4.70464C4.08917 5.09944 4.46886 5.4219 4.48393 5.4219C4.49598 5.4219 4.71295 5.21396 4.96908 4.96382C5.22221 4.71067 5.42411 4.48765 5.42109 4.46656C5.41507 4.44848 5.33371 4.34601 5.24029 4.24053C5.14687 4.13505 4.52009 3.4208 3.84509 2.6493C3.14297 1.84765 2.55837 1.20573 2.47701 1.14847C2.39866 1.09423 2.26607 1.02793 2.18471 1.00382C2.10033 0.979707 1.98583 0.961625 1.92857 0.964639C1.87132 0.967652 1.77188 0.979707 1.70859 0.994776C1.64833 1.00984 1.54286 1.04902 1.47656 1.08217Z" fill="#F6DE63"/>
</svg>
