<svg width="30" height="26" viewBox="0 0 30 26" fill="none" xmlns="http://www.w3.org/2000/svg">
<path d="M6.62797 2.29977C6.62797 2.26852 6.79067 2.13727 6.99091 2.00602C7.1849 1.86852 7.36637 1.75602 7.39766 1.75602C7.42269 1.74977 7.56036 1.92477 7.70429 2.14352C7.84822 2.35602 8.00466 2.62477 8.04846 2.73727C8.09226 2.84352 8.12981 3.08727 8.12981 3.26852C8.12981 3.44977 8.07349 3.70602 8.01092 3.84352C7.94834 3.98102 7.77938 4.19977 7.63545 4.33102C7.45398 4.49352 7.37889 4.61227 7.37889 4.73727C7.37889 4.83102 7.49153 5.07477 7.6292 5.28102C7.76687 5.48727 7.8795 5.67477 7.8795 5.70602C7.8795 5.73102 7.70429 5.86852 7.09729 6.26852L6.97214 6.10602C6.90331 6.01852 6.74686 5.78102 6.62797 5.58102C6.45901 5.29977 6.40895 5.13727 6.39018 4.84352C6.3714 4.60602 6.40269 4.38102 6.46527 4.21852C6.51533 4.08102 6.69054 3.84977 6.84699 3.70602C7.04723 3.51227 7.12858 3.38727 7.12858 3.26852C7.12858 3.16852 7.01594 2.92477 6.87828 2.71852C6.74061 2.51227 6.62797 2.32477 6.62797 2.29977Z" fill="#F6DE63"/>
<path d="M4.12406 2.29977C4.12406 2.26852 4.28676 2.13727 4.48701 2.00602C4.681 1.86852 4.86247 1.75602 4.89376 1.75602C4.91879 1.74977 5.05646 1.92477 5.20038 2.14352C5.34431 2.35602 5.50075 2.62477 5.54455 2.73727C5.58836 2.84352 5.6259 3.08727 5.6259 3.26852C5.6259 3.44977 5.56959 3.70602 5.50701 3.84352C5.44443 3.98102 5.27547 4.19977 5.13155 4.33102C4.95008 4.49352 4.87498 4.61227 4.87498 4.73727C4.87498 4.83102 4.98762 5.07477 5.12529 5.28102C5.26296 5.48727 5.3756 5.67477 5.3756 5.70602C5.3756 5.73102 5.20038 5.86852 4.59339 6.26852L4.46823 6.10602C4.3994 6.01852 4.24296 5.78102 4.12406 5.58102C3.9551 5.29977 3.90504 5.13727 3.88627 4.84352C3.8675 4.60602 3.89879 4.38102 3.96136 4.21852C4.01142 4.08102 4.18664 3.84977 4.34308 3.70602C4.54333 3.51227 4.62468 3.38727 4.62468 3.26852C4.62468 3.16852 4.51204 2.92477 4.37437 2.71852C4.2367 2.51227 4.12406 2.32477 4.12406 2.29977Z" fill="#F6DE63"/>
<path fill-rule="evenodd" clip-rule="evenodd" d="M14.5122 0H15.5135V0.96875L16.1205 1.0125C16.521 1.0375 16.8776 1.1 17.1405 1.2C17.3657 1.28125 17.6786 1.425 17.8476 1.51875C18.0103 1.6125 18.2981 1.85 18.4921 2.05C18.6861 2.24375 18.9177 2.53125 19.0053 2.6875C19.0991 2.84375 19.2431 3.15 19.3244 3.375C19.4558 3.73125 19.4808 3.90625 19.5309 5.96875L19.8188 6.0625C20.0065 6.125 20.1692 6.2375 20.4883 6.6375L20.5196 12H22.5847L22.5534 11.8625C22.5346 11.7812 22.5221 11.5562 22.5221 11H21.5208V10H22.0527C22.5721 10 22.5847 9.99375 22.5534 9.8625C22.5346 9.78125 22.5221 9.55625 22.5221 9H21.5208V8H22.0527C22.5721 8 22.5847 7.99375 22.5534 7.8625C22.5346 7.78125 22.5221 7.55625 22.5221 7H21.5208V6H29.0301V7H28.0288V7.3625C28.0288 7.55625 28.0163 7.78125 27.9975 7.8625C27.9663 7.99375 27.9788 8 29.0301 8V9H28.0288V9.3625C28.0288 9.55625 28.0163 9.78125 27.9975 9.8625C27.9663 9.99375 27.9788 10 29.0301 10V11H28.0288V11.3625C28.0288 11.5563 28.0163 11.7812 27.9975 11.8625C27.9663 12 27.9788 12 28.592 12C28.9612 12 29.2991 12.0312 29.4243 12.0813C29.5307 12.125 29.7121 12.275 30 12.6438V13.5063C30 14.2875 29.9875 14.3812 29.8686 14.5437C29.7935 14.6375 29.6558 14.775 29.5682 14.8438C29.4118 14.9563 29.2866 14.9688 27.0276 15V18.3625C27.0276 20.8438 27.0026 21.7812 26.9463 21.9625C26.9087 22.1 26.7585 22.3375 26.6146 22.4937C26.4477 22.6854 26.26 22.8187 26.0514 22.8937C25.8386 22.9688 25.5633 23 24.5245 23V26H23.5233V23H6.50242V26H5.50119V23H4.88794C4.55628 23 4.1683 22.9625 4.03063 22.925C3.88045 22.875 3.65517 22.725 3.46744 22.5312C3.27345 22.3438 3.12327 22.1187 3.07321 21.9688C3.02315 21.7875 2.99812 20.7875 2.99812 15L0.638971 14.9688L0.401179 14.7812C0.269768 14.6812 0.119583 14.4937 0.0695218 14.375C0.00694505 14.2188 -0.011828 13.95 0.00694505 13.3938C0.0257181 12.7375 0.0444911 12.6125 0.157129 12.4563C0.232222 12.3625 0.36989 12.225 0.457498 12.1562C0.582652 12.0688 0.764124 12.025 1.09578 12C1.52756 11.9688 1.56511 11.9563 1.53382 11.8438C1.51505 11.775 1.49627 10.9937 1.49627 8.5H0.495044V7.5H2.30977L2.02192 6.64375C1.83419 6.075 1.684 5.73125 1.58388 5.64375C1.45873 5.51875 1.36486 5.5 0.495044 5.5V4.5L1.1083 4.51875C1.6402 4.53125 1.75284 4.55625 2.01566 4.70625C2.17836 4.8 2.37861 4.96875 2.45996 5.08125C2.54756 5.1875 2.7791 5.775 3.3548 7.46875L8.50487 7.5V8.5H7.50364V10.1125C7.50364 10.9938 7.49113 11.7812 7.44107 12H9.5061V9.40625C9.5061 7.3875 9.52488 6.76875 9.58745 6.60625C9.63751 6.5 9.76267 6.33125 9.86905 6.23125C9.98169 6.1375 10.1694 6.05 10.5073 6V5.10625C10.5073 4.61875 10.5386 4.05 10.5762 3.84375C10.6137 3.6375 10.7514 3.24375 10.8828 2.96875C11.058 2.6 11.2332 2.35625 11.5461 2.0375C11.8652 1.725 12.1093 1.55 12.4785 1.375C12.7538 1.24375 13.1481 1.10625 13.3546 1.06875C13.5611 1.03125 13.9053 1 14.5122 1V0ZM12.7976 2.33125C12.5974 2.44375 12.3158 2.65625 12.1781 2.8125C12.0342 2.96875 11.834 3.275 11.7338 3.5C11.5461 3.89375 11.5398 3.93125 11.5273 4.95625L11.5086 6H18.5172C18.4859 3.93125 18.4796 3.89375 18.2919 3.5C18.1918 3.275 17.979 2.95625 17.8288 2.79375C17.6473 2.59375 17.3845 2.40625 17.0842 2.2625L16.6148 2.03125C14.3308 2.0125 13.5548 2.0375 13.4172 2.06875C13.2795 2.10625 13.0041 2.21875 12.7976 2.33125ZM10.5073 9H19.5184V7H10.5073V9ZM23.5233 7.34375C23.5233 7.625 23.5483 7.7125 23.6797 7.84375L23.8362 8H26.721C27.0026 7.71875 27.0276 7.625 27.0276 7.34375V7H23.5233V7.34375ZM2.4975 11.6875L2.81039 12H6.19579L6.50242 11.6875V8.5H2.4975V11.6875ZM23.5233 9.34375C23.5233 9.625 23.5483 9.7125 23.6797 9.84375L23.8362 10H26.721C27.0026 9.71875 27.0276 9.625 27.0276 9.34375V9H23.5233V9.34375ZM10.5073 12L11.6525 11.9688L12.3221 10H10.5073V12ZM13.0104 11.075L12.6975 12H17.3282L16.6586 10.0312C13.7488 10 13.3796 10.0125 13.3546 10.075C13.3358 10.1187 13.1856 10.5688 13.0104 11.0813V11.075ZM18.3732 11.9625L19.5184 11.9937V9.99375H17.7162L18.3732 11.9625ZM23.5233 11.3375C23.5233 11.6187 23.5546 11.7062 23.6797 11.8375L23.8362 11.9937H26.721C27.0026 11.7125 27.0276 11.6187 27.0276 11.3375V10.9937H23.5233V11.3375ZM0.995658 13.9937H2.99812V12.9937H0.995658V13.9937ZM3.99934 21.6812L4.31223 21.9937H25.7197L26.0264 21.6812V12.9937H3.99934V21.6812ZM27.0276 13.9937H29.0301V12.9937H27.0276V13.9937Z" fill="#F6DE63"/>
</svg>
