<svg width="29" height="28" viewBox="0 0 29 28" fill="none" xmlns="http://www.w3.org/2000/svg">
<path fill-rule="evenodd" clip-rule="evenodd" d="M14.4838 0.000718374C23.6899 -0.00252266 24.9584 0.00395941 25.1234 0.0460928C25.2237 0.0720211 25.3855 0.133601 25.4761 0.182216C25.57 0.227591 25.7285 0.347509 25.8288 0.447981C25.9518 0.568979 26.0521 0.710505 26.1298 0.872556C26.1913 1.00544 26.2592 1.20962 26.2786 1.3263C26.298 1.46242 26.311 3.17369 26.311 10.9522L28.3269 10.9684L29 13.464L26.311 24.2404V25.3521C26.311 25.9614 26.2948 26.5545 26.2786 26.6712C26.2592 26.7879 26.1913 26.992 26.1298 27.1249C26.0489 27.2902 25.955 27.4263 25.8288 27.5463C25.7285 27.6435 25.5732 27.7634 25.4858 27.812C25.3952 27.8606 25.2367 27.9222 25.1299 27.9481C24.9551 27.9968 23.8711 28 14.5 28C5.12888 28 4.04486 27.9968 3.87012 27.9481C3.76333 27.9222 3.60154 27.8606 3.51417 27.812C3.42357 27.7634 3.27148 27.6435 3.17117 27.5463C3.04497 27.4263 2.95113 27.2902 2.87023 27.1249C2.80875 26.992 2.74079 26.7879 2.72138 26.6712C2.7052 26.5545 2.68902 25.9614 2.68902 24.2404L0 13.464L0.673064 10.9684L2.68902 10.9522V6.24295C2.68902 3.17369 2.70196 1.46242 2.72138 1.3263C2.74079 1.20962 2.80875 1.00544 2.87023 0.872556C2.95113 0.707264 3.04497 0.57114 3.17117 0.451222C3.27148 0.353991 3.42357 0.234073 3.51417 0.185457C3.60154 0.136842 3.75686 0.0752621 3.85394 0.0493339C4.00926 0.00720044 5.32627 0.000718374 14.4838 0.000718374ZM3.92513 1.17397C3.88306 1.21286 3.82805 1.28417 3.80216 1.33602C3.76333 1.40733 3.75686 1.76708 3.75686 3.40056V5.37759H25.2431L25.2464 1.40733C25.1299 1.23555 25.0555 1.15453 25.0069 1.11887L24.9163 1.05081C7.68523 1.04109 4.13546 1.05081 4.08045 1.07026C4.03515 1.08971 3.96396 1.13508 3.92513 1.17397ZM3.75686 10.9522L4.56907 10.936C4.75999 10.4336 4.87001 10.1776 4.93796 10.0447C5.00268 9.9118 5.13535 9.68493 5.22595 9.54232C5.31979 9.39971 5.50424 9.1534 5.64015 8.99134C5.77282 8.83253 5.99933 8.59918 6.13847 8.47602C6.28085 8.3561 6.51707 8.17136 6.66916 8.06765C6.82125 7.96718 7.07364 7.81485 7.23544 7.73382C7.394 7.65604 7.67875 7.53612 7.86644 7.4713C8.05412 7.40648 8.35182 7.31897 8.52979 7.28332C8.79837 7.22498 8.96017 7.21202 9.48438 7.21202C10.0086 7.21202 10.1704 7.22498 10.439 7.28332C10.6169 7.31897 10.9146 7.40648 11.1023 7.4713C11.29 7.53612 11.5683 7.6528 11.7236 7.73058L12.0084 7.87319C12.4484 7.6528 12.7041 7.54584 12.8659 7.49075C13.0244 7.43565 13.3092 7.35786 13.4969 7.31573C13.7881 7.25415 13.9337 7.24443 14.5 7.24443C15.0598 7.24443 15.2151 7.25415 15.4869 7.31573C15.6649 7.35138 15.927 7.42268 16.0694 7.46806C16.2118 7.51343 16.4739 7.62363 16.6519 7.70789L16.9755 7.86346C17.4252 7.63983 17.7262 7.51667 17.93 7.44861C18.1339 7.38055 18.4413 7.29952 18.6096 7.26711C18.8328 7.22822 19.0788 7.21202 19.5156 7.21202C20.0107 7.21202 20.1725 7.22498 20.454 7.28656C20.6417 7.32545 20.9394 7.40648 21.1174 7.46482C21.2954 7.5264 21.5704 7.63983 21.7322 7.72086C21.8908 7.79864 22.1529 7.95421 22.3147 8.06117C22.4732 8.16812 22.7224 8.35934 22.8648 8.4825C23.0071 8.6089 23.2175 8.82281 23.334 8.95893C23.4505 9.0983 23.622 9.32193 23.7158 9.45805C23.8129 9.59418 23.9747 9.87939 24.0782 10.0933C24.1818 10.3072 24.3015 10.5892 24.3436 10.7188L24.418 10.9522H25.2431V6.44713H3.75686V10.9522ZM8.43272 8.11626C8.27092 8.15516 8.03147 8.23294 7.89879 8.29128C7.76612 8.34638 7.53961 8.45657 7.39723 8.5376C7.25485 8.61862 7.03158 8.77095 6.89891 8.87142C6.76623 8.9719 6.54296 9.17932 6.39734 9.33165C6.25173 9.48398 6.03816 9.75299 5.91843 9.93124C5.79871 10.1095 5.64338 10.3785 5.57543 10.5308C5.50424 10.6832 5.43952 10.8387 5.42658 10.8809C5.40716 10.9522 5.41364 10.9522 5.68869 10.9522H5.97344C6.22261 10.4628 6.37793 10.21 6.47824 10.0771C6.57855 9.94421 6.77594 9.72382 6.91832 9.59093C7.05746 9.45805 7.27427 9.2798 7.39723 9.19553C7.52343 9.11126 7.76289 8.97838 7.93115 8.89735C8.09942 8.81633 8.38418 8.71262 8.56215 8.66724C8.80484 8.60242 8.99576 8.57649 9.32258 8.56353C9.58146 8.5538 9.85974 8.56029 10.0021 8.58297C10.1348 8.60242 10.384 8.65752 10.5522 8.70289L10.8596 8.78716C11.2609 8.37879 11.2641 8.37555 11.1897 8.33665C11.1509 8.31397 10.9858 8.25239 10.8273 8.20053C10.6655 8.14867 10.4195 8.08061 10.2772 8.05144C10.1348 8.02227 9.83709 7.9931 9.61381 7.98662C9.39054 7.98014 9.09931 7.98986 8.96664 8.00607C8.83397 8.02552 8.59127 8.07413 8.43272 8.11626ZM18.5449 8.0871C18.4122 8.11626 18.1857 8.18109 18.0433 8.23294C17.9009 8.28804 17.6615 8.39499 17.5094 8.47602C17.3573 8.55704 17.1211 8.70613 16.9787 8.8066C16.8395 8.90708 16.5904 9.13071 16.4286 9.29924C16.2668 9.46778 16.0403 9.7465 15.927 9.91504C15.8138 10.0836 15.6617 10.3558 15.584 10.5146C15.5096 10.6734 15.4384 10.8387 15.4255 10.8809C15.406 10.9522 15.4125 10.9522 15.6876 10.9522H15.9723C16.0823 10.6896 16.2021 10.479 16.3056 10.3202C16.4124 10.1614 16.613 9.90531 16.7522 9.75623C16.8946 9.6039 17.1243 9.39647 17.2667 9.28952C17.4091 9.18256 17.6841 9.02051 17.8815 8.92328C18.0757 8.82605 18.3831 8.70937 18.561 8.66076C18.8587 8.57973 18.9299 8.57325 19.4994 8.57325C20.0625 8.57325 20.1401 8.58297 20.4378 8.66076C20.6158 8.70937 20.92 8.82605 21.1174 8.92328C21.3115 9.01727 21.5898 9.18581 21.7322 9.28952C21.8746 9.39647 22.1043 9.60714 22.2467 9.75623C22.3859 9.90531 22.5735 10.1387 22.6609 10.2716C22.7515 10.4044 22.868 10.6119 22.923 10.735L23.0266 10.9522C23.4666 10.9522 23.5928 10.9457 23.5928 10.936C23.5928 10.9262 23.5443 10.8063 23.4861 10.6702C23.4278 10.5308 23.321 10.3169 23.2466 10.1905C23.1754 10.0641 23.0266 9.84698 22.923 9.70437C22.8162 9.56177 22.5994 9.32193 22.4409 9.1696C22.2823 9.01727 22.0299 8.80984 21.8778 8.70937C21.7257 8.6089 21.4992 8.47602 21.3763 8.41444C21.2501 8.35286 21.0397 8.26211 20.9071 8.21674C20.7744 8.16812 20.5187 8.10006 20.3408 8.06441C20.1628 8.02876 19.836 7.9931 19.6127 7.98662C19.3894 7.98014 19.1144 7.98662 18.9979 8.00283C18.8814 8.01903 18.6775 8.05793 18.5449 8.0871ZM13.1571 8.21025C12.9791 8.26859 12.73 8.36907 12.607 8.43389C12.4808 8.49547 12.2414 8.63807 12.0731 8.75151C11.9016 8.86494 11.6362 9.08857 11.4744 9.25063C11.3127 9.41268 11.0991 9.659 10.9988 9.8016C10.8985 9.94421 10.7367 10.2197 10.6364 10.4174C10.5393 10.6151 10.4519 10.8128 10.4422 10.8647L10.4228 10.9522H10.9729C11.1023 10.6637 11.2156 10.4628 11.3094 10.3202C11.4033 10.1776 11.5651 9.96041 11.6718 9.83401C11.7786 9.70761 11.9857 9.51315 12.1281 9.39647C12.2705 9.2798 12.5035 9.12099 12.6426 9.03996C12.785 8.95893 13.0212 8.84874 13.1733 8.7904C13.3254 8.7353 13.5972 8.65752 13.7784 8.62187C13.9984 8.57649 14.2379 8.5538 14.4741 8.5538C14.6747 8.5538 14.9627 8.57325 15.1148 8.59918C15.2669 8.62835 15.4837 8.67696 15.6002 8.71262L15.8105 8.78068L16.2636 8.36582C16.0629 8.28156 15.8914 8.22322 15.7523 8.18108C15.6164 8.13571 15.3769 8.07737 15.2184 8.05144C15.0501 8.02227 14.7589 8.00283 14.4838 8.00607C14.2347 8.00931 13.9078 8.02876 13.7557 8.05468C13.6037 8.08061 13.3351 8.15192 13.1571 8.21025ZM8.35182 9.57149C8.19973 9.63631 7.99587 9.73678 7.89879 9.79512C7.80172 9.85022 7.57844 10.0447 7.39723 10.2229C7.21926 10.4012 7.01863 10.6378 6.95068 10.7512L6.83095 10.9522L9.58793 10.936C9.74972 10.4855 9.85974 10.2294 9.9374 10.0771C10.0118 9.92476 10.1251 9.72382 10.1833 9.63307C10.2448 9.53908 10.2901 9.45481 10.2836 9.44509C10.2804 9.43536 10.1607 9.4062 10.0183 9.38027C9.87592 9.35434 9.62676 9.33489 9.4682 9.33489C9.30641 9.33489 9.05401 9.36082 8.90192 9.39323C8.74983 9.42564 8.50391 9.50343 8.35182 9.57149ZM13.7396 9.43212C13.5972 9.46777 13.3642 9.55204 13.2218 9.6201C13.0794 9.69141 12.8465 9.83401 12.7041 9.93773C12.5617 10.0447 12.3805 10.2035 12.3028 10.291C12.2252 10.3785 12.0893 10.5503 12.0019 10.6767C11.9178 10.8031 11.8466 10.9133 11.8466 10.9295C11.8466 10.9424 12.4614 10.9522 13.2121 10.9522H14.5809C14.6715 10.6637 14.7589 10.4401 14.8333 10.2716C14.9077 10.103 15.0404 9.84698 15.1245 9.70437C15.2087 9.56177 15.2766 9.44185 15.2701 9.43861C15.2637 9.43536 15.1472 9.40944 15.008 9.38027C14.8721 9.35434 14.6327 9.33489 14.4741 9.33489C14.3188 9.33813 14.1473 9.34786 14.0955 9.35434C14.0405 9.36082 13.8819 9.39647 13.7396 9.43212ZM18.561 9.48074C18.4704 9.50991 18.2957 9.58445 18.1727 9.64927C18.0465 9.71085 17.8588 9.82429 17.7521 9.89883C17.6453 9.97662 17.4673 10.1322 17.3573 10.2456C17.2473 10.3558 17.0822 10.56 16.9916 10.6929L16.8266 10.936C18.9235 10.9489 20.1272 10.9489 20.852 10.9457L22.1723 10.936C21.9166 10.56 21.7516 10.3558 21.6416 10.2456C21.5316 10.1322 21.3536 9.97662 21.2468 9.89883C21.14 9.82105 20.9297 9.69789 20.7776 9.62659C20.6255 9.55528 20.3861 9.46453 20.2437 9.42564C20.069 9.38027 19.8554 9.35434 19.5803 9.34462C19.3085 9.33813 19.1014 9.34786 18.9493 9.38027C18.8231 9.4062 18.6484 9.45157 18.561 9.48074ZM1.34936 12.4592C1.28465 12.6894 1.23287 12.8903 1.23287 12.9033C1.23287 12.9195 7.20308 12.9292 14.5 12.9292C21.7969 12.9292 27.7671 12.9195 27.7671 12.9033C27.7671 12.8903 27.7154 12.6894 27.6506 12.4592C27.5859 12.2291 27.5309 12.0282 27.5212 12.012C27.5147 11.999 21.6545 11.9893 14.5 11.9893C7.34869 11.9893 1.48851 11.999 1.4788 12.012C1.47233 12.0282 1.41408 12.2291 1.34936 12.4592ZM2.38808 18.7404C3.03526 21.3462 3.57889 23.5339 3.59507 23.5987L3.62743 23.7218H25.3726C25.4211 23.5339 25.9647 21.3462 26.6087 18.7404L27.7833 13.9987H1.21346L2.38808 18.7404ZM3.75363 25.6762C3.75363 26.5772 3.75686 26.5934 3.82805 26.7036C3.86688 26.7619 3.94131 26.843 3.99308 26.8818L4.08369 26.9467H24.9131C25.0555 26.843 25.1299 26.7619 25.1719 26.7036C25.2431 26.5934 25.2431 26.5772 25.2431 25.6762V24.759H3.75686L3.75363 25.6762Z" fill="#F6DE63"/>
<path fill-rule="evenodd" clip-rule="evenodd" d="M3.93813 20.0594C4.05139 20.0594 4.10316 20.0789 4.18729 20.1534C4.28437 20.2442 4.30378 20.2993 4.77946 22.2147L5.53989 22.2309C6.19031 22.2439 6.31327 22.2569 6.38769 22.3022C6.43623 22.3346 6.49771 22.4157 6.52684 22.4805C6.5592 22.555 6.5689 22.6458 6.5592 22.7074C6.54625 22.7754 6.49771 22.8532 6.31327 23.0088L4.16464 22.9926L3.85076 21.7124C3.59189 20.6558 3.54012 20.4127 3.566 20.3252C3.58218 20.2701 3.64043 20.1858 3.69544 20.1405C3.76663 20.0821 3.83458 20.0594 3.93813 20.0594ZM14.5001 15.2303C19.2147 15.2303 19.273 15.2303 19.3798 15.2951C19.4348 15.3308 19.5124 15.4086 19.548 15.4637C19.5869 15.5285 19.6128 15.629 19.6128 15.7067C19.6128 15.7845 19.5836 15.9012 19.548 15.966C19.5124 16.0341 19.2762 16.3809 19.0238 16.7341C18.7682 17.0907 18.519 17.4115 18.3799 17.5152H10.6202L10.5296 17.4472C10.4811 17.4115 10.2319 17.0907 9.97629 16.7341C9.72389 16.3809 9.48767 16.0341 9.45208 15.966C9.41648 15.9012 9.38736 15.7845 9.38736 15.7067C9.38736 15.629 9.41325 15.5285 9.45208 15.4637C9.48767 15.4086 9.56533 15.3308 9.62358 15.2951C9.72713 15.2303 9.78537 15.2303 14.5001 15.2303ZM10.4908 16.1119C10.5361 16.1702 10.6591 16.3387 10.7658 16.4878L10.9568 16.7568H18.0434C18.3411 16.3387 18.464 16.1702 18.5093 16.1119L18.5935 16.0049L10.4099 16.0082L10.4908 16.1119ZM2.57582 14.3714C2.6276 14.3812 2.70526 14.4103 2.74409 14.4363C2.78615 14.4622 2.83793 14.5238 2.86058 14.5724C2.88647 14.621 3.13563 15.5933 3.41715 16.7374C3.80869 18.332 3.92195 18.8311 3.90254 18.9089C3.88959 18.9607 3.83782 19.045 3.78604 19.0936C3.71485 19.1649 3.66632 19.1844 3.54012 19.1844C3.43657 19.1844 3.35783 19.1638 3.3039 19.1228C3.25859 19.0904 3.20358 19.0223 3.18093 18.9705C3.16152 18.9186 2.91559 17.9657 2.64054 16.8573C2.36549 15.7489 2.13898 14.7928 2.13574 14.7344C2.13574 14.6761 2.16487 14.5886 2.20046 14.5367C2.23605 14.4849 2.31048 14.4233 2.37196 14.3974C2.43021 14.3747 2.52081 14.3617 2.57582 14.3714Z" fill="#F6DE63"/>
<path fill-rule="evenodd" clip-rule="evenodd" d="M18.9004 3.35169C18.9813 3.36141 19.1107 3.41003 19.1884 3.45865C19.2822 3.51374 19.3599 3.59801 19.4084 3.692C19.4569 3.78923 19.4828 3.89294 19.4828 3.9999C19.4828 4.10685 19.4569 4.21057 19.4084 4.3078C19.3566 4.40503 19.279 4.48605 19.1754 4.55087C19.046 4.62866 18.9845 4.6481 18.8389 4.64486C18.7386 4.64486 18.6124 4.61894 18.5606 4.58977C18.5088 4.56384 18.4247 4.49902 18.3762 4.44716C18.3276 4.39855 18.2661 4.30131 18.2403 4.23649C18.2111 4.16843 18.1885 4.05824 18.1885 3.99342C18.1885 3.92535 18.2176 3.81192 18.25 3.74062C18.2823 3.66931 18.3503 3.57208 18.402 3.52023C18.4538 3.47161 18.5541 3.41003 18.6253 3.3841C18.7062 3.35493 18.8098 3.34197 18.9004 3.35169ZM22.2819 1.74738C23.6442 1.74738 23.7801 1.75386 23.8998 1.80572C23.971 1.83813 24.0778 1.9224 24.1328 1.9937C24.204 2.07472 24.2525 2.18168 24.2752 2.29836C24.2978 2.41179 24.3075 2.79099 24.2881 4.20084L24.191 4.35965C24.1263 4.46012 24.039 4.54763 23.8027 4.68052L22.3951 4.69024C21.6218 4.69672 20.9293 4.69348 20.8581 4.68376C20.7869 4.67403 20.6704 4.62866 20.5992 4.58004C20.528 4.53467 20.4342 4.44716 20.308 4.26566L20.2983 3.29011C20.2918 2.66783 20.3015 2.26919 20.3209 2.1914C20.3403 2.12658 20.3953 2.02611 20.4439 1.96777C20.4957 1.91267 20.5927 1.83813 20.6639 1.80896C20.7837 1.75386 20.9163 1.74738 22.2819 1.74738ZM21.0684 3.88646H23.4953V2.52523H21.0684V3.88646ZM18.868 1.72145C19.0298 1.73118 19.1042 1.75062 19.1884 1.8122C19.2498 1.85758 19.3372 1.94184 19.3825 2.00342C19.4472 2.08769 19.4699 2.16223 19.4796 2.31132C19.4893 2.46041 19.4764 2.54143 19.4278 2.63866C19.3922 2.70997 19.321 2.80396 19.2693 2.84933C19.2175 2.89471 19.1172 2.95304 19.046 2.97573C18.9683 3.00166 18.8518 3.01138 18.7548 3.00166C18.6512 2.99194 18.5477 2.95304 18.4668 2.89147C18.3956 2.84285 18.3082 2.74238 18.2726 2.67107C18.2241 2.58033 18.2047 2.47985 18.2047 2.34049C18.2047 2.16871 18.2176 2.12334 18.305 2.00018C18.36 1.92564 18.4603 1.82841 18.5315 1.78627C18.635 1.72469 18.6965 1.71497 18.868 1.72145Z" fill="#F6DE63"/>
</svg>
