<svg width="23" height="27" viewBox="0 0 23 27" fill="none" xmlns="http://www.w3.org/2000/svg">
<path fill-rule="evenodd" clip-rule="evenodd" d="M11.5055 0.000342804C17.9677 -0.00148549 21.2281 0.00399938 21.2336 0.0167974C21.2391 0.0259389 21.2611 0.0350803 21.285 0.0350803C21.307 0.0350803 21.3987 0.0551915 21.4905 0.0807876C21.5822 0.106384 21.7382 0.168545 21.8391 0.216081C21.94 0.265445 22.0813 0.349546 22.151 0.402567C22.2207 0.455587 22.3381 0.556143 22.4079 0.627446C22.4776 0.69875 22.5858 0.832215 22.6464 0.921801C22.7069 1.01322 22.7858 1.15582 22.8225 1.24175C22.8611 1.32768 22.9069 1.46297 22.9271 1.54342C22.9491 1.62386 22.9748 1.7555 22.9858 1.83595C23.0005 1.94199 23.0042 5.3554 22.995 26.5727L22.9546 26.655C22.9326 26.7007 22.8886 26.7683 22.8574 26.8049C22.8244 26.847 22.7546 26.8981 22.5546 26.9932L11.5459 26.9987C3.21777 27.0024 0.516953 26.9987 0.45457 26.9822C0.4087 26.9713 0.338978 26.942 0.298613 26.9201C0.258247 26.8981 0.192195 26.8433 0.153664 26.7994C0.113298 26.7555 0.0692634 26.6897 0.0564199 26.655C0.0417415 26.6202 0.0233936 26.5745 0.0123849 26.5544C0.00137609 26.5307 -0.00229349 22.1483 0.00137609 14.2043C0.00688047 5.04094 0.0123849 1.85789 0.028898 1.76281C0.0399067 1.69334 0.0710982 1.5617 0.0967853 1.47029C0.122472 1.37887 0.177516 1.23627 0.217882 1.15034C0.260082 1.06441 0.335308 0.934599 0.386683 0.859639C0.439892 0.784679 0.544475 0.662184 0.619701 0.587224C0.694928 0.512264 0.827033 0.406223 0.913268 0.349546C0.999503 0.292869 1.14078 0.214253 1.23069 0.177687C1.31876 0.139293 1.46738 0.089929 1.56095 0.0698178C1.65269 0.0478783 1.74259 0.0241106 1.75727 0.0149691C1.77195 0.00765597 6.15894 0.000342804 11.5055 0.000342804ZM1.59214 1.14485C1.50224 1.18873 1.416 1.25089 1.34444 1.3222C1.28206 1.38436 1.205 1.4904 1.16647 1.5617C1.12794 1.63118 1.08574 1.74819 1.07106 1.81766C1.04721 1.9237 1.0417 2.12847 1.0417 3.02068V4.09388C15.7164 4.09388 18.4832 4.1012 18.5273 4.114C18.5621 4.12314 18.6337 4.16336 18.6832 4.20175C18.7475 4.24746 18.7933 4.30414 18.8355 4.38275C18.8814 4.47234 18.8942 4.51805 18.8942 4.60215C18.8942 4.66431 18.8796 4.73561 18.8594 4.77949C18.841 4.81972 18.7933 4.88919 18.7548 4.93307C18.7144 4.97512 18.6374 5.03363 18.5823 5.06105L18.4814 5.10859L1.0417 5.11773V25.9602L21.9675 25.9511L21.9767 5.11773C20.5639 5.11773 20.3896 5.11224 20.3162 5.09213C20.2667 5.0775 20.1841 5.03363 20.1327 4.99523C20.0685 4.94587 20.0226 4.88919 19.9804 4.80692C19.9364 4.71916 19.9217 4.66431 19.9217 4.59666C19.9217 4.53999 19.9382 4.47051 19.9658 4.41384C19.9896 4.36447 20.041 4.29134 20.0795 4.25112C20.1199 4.21272 20.1841 4.16336 20.2245 4.14142C20.296 4.10485 20.3254 4.10303 21.1327 4.09388L21.9675 4.08474C21.9675 1.9749 21.9657 1.88165 21.9345 1.7811C21.9143 1.72076 21.8703 1.61472 21.8336 1.54525C21.7895 1.46298 21.7235 1.37887 21.6464 1.30757C21.5804 1.24541 21.4776 1.17228 21.4171 1.14302C21.3565 1.11377 21.2666 1.07538 21.2153 1.06075C21.1327 1.03516 20.1804 1.0315 11.5642 1.02784C3.53519 1.02601 1.98295 1.02967 1.86736 1.04978C1.78846 1.06441 1.67104 1.10463 1.59214 1.14485Z" fill="#F6DE63"/>
<path fill-rule="evenodd" clip-rule="evenodd" d="M11.454 7.15037C11.6155 7.14671 11.8834 7.15402 12.0503 7.16499C12.2173 7.17596 12.4815 7.20156 12.6375 7.22167C12.7934 7.24178 13.0613 7.28566 13.2338 7.3204C13.4063 7.35513 13.6613 7.41547 13.8026 7.45569C13.9439 7.49591 14.1842 7.57087 14.3347 7.62389C14.487 7.67508 14.7255 7.7665 14.8668 7.82683C15.008 7.88717 15.2557 8.00418 15.4172 8.08645C15.5787 8.16872 15.83 8.31133 15.9768 8.40092C16.1236 8.4905 16.3291 8.6258 16.4355 8.70076C16.5419 8.77572 16.7107 8.90187 16.8116 8.98231C16.9125 9.06276 17.1015 9.22182 17.2318 9.33883C17.3621 9.45584 17.5712 9.65878 17.6942 9.78859C17.8171 9.9184 17.9749 10.0921 18.0409 10.1725C18.1088 10.253 18.2318 10.4102 18.3162 10.5199C18.3987 10.6296 18.5382 10.8289 18.6244 10.9587C18.7088 11.0885 18.8281 11.2786 18.885 11.3792C18.9437 11.4798 19.0464 11.6736 19.1143 11.8088C19.1822 11.9441 19.2849 12.1672 19.3436 12.3025C19.4005 12.4378 19.4959 12.6937 19.5547 12.8693C19.6152 13.0448 19.6868 13.2843 19.7179 13.3995C19.7473 13.5146 19.7932 13.7121 19.8189 13.8383C19.8445 13.9644 19.8812 14.182 19.9014 14.3227C19.9216 14.4635 19.9491 14.6866 19.9601 14.8164C19.9711 14.9462 19.9822 15.2643 19.9803 15.5203C19.9803 15.8165 19.9693 16.0998 19.951 16.2973C19.9326 16.4692 19.8959 16.7525 19.8666 16.9281C19.8354 17.1036 19.7748 17.3924 19.7308 17.568C19.6868 17.7435 19.6042 18.0232 19.5491 18.1896C19.4941 18.356 19.4005 18.6028 19.3436 18.7381C19.2868 18.8734 19.1859 19.0909 19.1235 19.2226C19.0593 19.3542 18.9473 19.5626 18.8739 19.6888C18.8024 19.8149 18.6758 20.0197 18.5914 20.1459C18.5088 20.272 18.3712 20.4658 18.2886 20.5755C18.2042 20.6852 18.0446 20.8827 17.9309 21.0143C17.8171 21.1459 17.5969 21.3763 17.4428 21.5262C17.2868 21.678 17.0869 21.8644 16.9951 21.9394C16.9034 22.0162 16.7309 22.1515 16.6098 22.2429C16.4887 22.3343 16.2942 22.4696 16.1786 22.5464C16.063 22.6214 15.8557 22.7475 15.7199 22.8261C15.5842 22.9029 15.3566 23.0218 15.2154 23.0894C15.0741 23.157 14.8356 23.2631 14.6833 23.3234C14.5328 23.3838 14.2888 23.4715 14.142 23.5172C13.9952 23.5648 13.764 23.6306 13.6283 23.6653C13.4925 23.6982 13.2705 23.7476 13.1384 23.7732C13.0044 23.7988 12.7678 23.8372 12.6155 23.8573C12.4613 23.8774 12.1568 23.903 11.9403 23.914C11.6394 23.9304 11.4522 23.9304 11.1513 23.9158C10.9348 23.903 10.621 23.8774 10.4541 23.8573C10.2871 23.8372 10.0119 23.7915 9.83942 23.7567C9.66695 23.722 9.40825 23.6617 9.26146 23.6214C9.11468 23.5812 8.87065 23.5062 8.7202 23.4532C8.56791 23.402 8.33122 23.3106 8.19178 23.2521C8.05417 23.1918 7.84684 23.0985 7.73492 23.0419C7.62116 22.9852 7.43218 22.8846 7.31658 22.8188C7.20099 22.7548 6.99733 22.6305 6.86706 22.5446C6.73679 22.4605 6.54964 22.3307 6.45423 22.2594C6.35882 22.1881 6.18085 22.0473 6.05975 21.9485C5.93866 21.848 5.6983 21.6268 5.52766 21.4549C5.35519 21.283 5.13502 21.0472 5.03961 20.932C4.9442 20.8168 4.81576 20.6559 4.75338 20.5755C4.69283 20.4951 4.55706 20.2976 4.45064 20.1367C4.34422 19.9758 4.21762 19.7711 4.16625 19.6796C4.11487 19.5882 4.02497 19.4164 3.96442 19.2957C3.90387 19.175 3.8158 18.9904 3.76993 18.8843C3.72406 18.7783 3.647 18.59 3.60113 18.4638C3.55342 18.3377 3.48003 18.1165 3.436 17.9702C3.39196 17.8239 3.32775 17.5734 3.29105 17.4126C3.25435 17.2517 3.20481 16.9811 3.18096 16.8092C3.15527 16.6374 3.12592 16.3869 3.11491 16.2516C3.1039 16.1163 3.09473 15.8073 3.09473 15.566C3.09473 15.3247 3.1039 15.0193 3.11491 14.8895C3.12592 14.7597 3.14243 14.586 3.15344 14.5056C3.16261 14.4251 3.1883 14.2606 3.20848 14.1399C3.22867 14.0193 3.27087 13.809 3.30206 13.6737C3.33141 13.5384 3.3938 13.3062 3.43783 13.1581C3.48187 13.0082 3.56076 12.7742 3.61214 12.6371C3.66351 12.4981 3.75892 12.2659 3.82497 12.1197C3.88919 11.9734 4.00478 11.7394 4.08184 11.5986C4.15891 11.4578 4.28551 11.2403 4.3644 11.1141C4.44146 10.9879 4.57357 10.7905 4.65614 10.6753C4.7387 10.5601 4.85246 10.4084 4.90934 10.3371C4.96622 10.2658 5.06529 10.1469 5.12951 10.072C5.19373 9.99701 5.3717 9.8087 5.52399 9.65329C5.67811 9.49972 5.90563 9.28581 6.03223 9.17794C6.15883 9.0719 6.34414 8.92198 6.44506 8.84519C6.54597 8.7684 6.72762 8.64042 6.84871 8.55998C6.96981 8.47953 7.18081 8.34972 7.31658 8.27111C7.45236 8.19066 7.69639 8.06451 7.85785 7.98589C8.01931 7.90911 8.25416 7.80489 8.38076 7.7537C8.50736 7.70251 8.72204 7.62389 8.85781 7.58001C8.99359 7.53431 9.23394 7.463 9.3899 7.42278C9.54586 7.38256 9.78622 7.32771 9.92199 7.30211C10.0578 7.27652 10.2981 7.23812 10.4541 7.21801C10.61 7.1979 10.8339 7.17596 10.9495 7.16865C11.0651 7.16133 11.2926 7.15219 11.454 7.15037ZM10.5275 8.24185C10.3715 8.26379 10.111 8.3095 9.94951 8.34424C9.78805 8.37898 9.54402 8.44114 9.40825 8.48319C9.27247 8.52341 9.04129 8.60203 8.89451 8.6587C8.74772 8.71355 8.5037 8.81959 8.35324 8.8909C8.20095 8.96403 7.99913 9.06641 7.90372 9.11943C7.80831 9.17245 7.60098 9.30043 7.44502 9.40465C7.28906 9.50703 7.07072 9.66244 6.9588 9.75019C6.84688 9.83795 6.65422 10.0025 6.52946 10.114C6.40469 10.2274 6.21204 10.4175 6.10012 10.5382C5.99003 10.6589 5.82857 10.8435 5.74417 10.9496C5.65977 11.0556 5.5295 11.2275 5.4561 11.3335C5.38088 11.4395 5.26345 11.6169 5.19556 11.7266C5.12768 11.8363 5.00842 12.052 4.93135 12.2019C4.85429 12.3537 4.74787 12.5786 4.69467 12.7047C4.64146 12.8309 4.5644 13.0283 4.52586 13.1435C4.4855 13.2587 4.42679 13.4397 4.39743 13.5457C4.36807 13.6518 4.3222 13.8291 4.29652 13.9388C4.27266 14.0485 4.23597 14.235 4.21578 14.3502C4.19744 14.4654 4.17175 14.6336 4.16074 14.725C4.14973 14.8164 4.13322 15.0413 4.12405 15.2278C4.11304 15.4435 4.11304 15.6921 4.12405 15.9134C4.13505 16.1053 4.15524 16.3595 4.17175 16.4801C4.18643 16.6008 4.21945 16.8074 4.24331 16.9372C4.26716 17.067 4.3167 17.2864 4.35156 17.4217C4.38642 17.557 4.45431 17.7837 4.50201 17.9245C4.54788 18.0653 4.63228 18.2883 4.68733 18.4181C4.74421 18.5479 4.83411 18.7472 4.88915 18.8569C4.94603 18.9666 5.04144 19.1439 5.10199 19.25C5.16254 19.356 5.29281 19.5608 5.39189 19.7071C5.48913 19.8533 5.65977 20.0837 5.76802 20.219C5.87811 20.3543 6.11113 20.6102 6.2891 20.7858C6.46524 20.9613 6.7111 21.188 6.83587 21.2885C6.96063 21.3891 7.15879 21.539 7.27622 21.6213C7.39365 21.7036 7.60281 21.8388 7.73859 21.9211C7.87436 22.0016 8.11839 22.1332 8.27985 22.2118C8.44131 22.2904 8.68901 22.4001 8.83029 22.455C8.97157 22.5098 9.18257 22.5848 9.29816 22.6214C9.41375 22.6579 9.62475 22.7164 9.76603 22.7512C9.90731 22.7859 10.1422 22.8353 10.2889 22.859C10.4357 22.8846 10.6999 22.9175 10.8761 22.934C11.1219 22.9578 11.3091 22.9632 11.6742 22.9559C11.9366 22.9504 12.254 22.934 12.3806 22.9175C12.5072 22.9029 12.7256 22.8682 12.8668 22.8426C13.0081 22.817 13.2338 22.7676 13.3659 22.7329C13.4998 22.6981 13.6907 22.6433 13.7879 22.6122C13.887 22.5811 14.0796 22.5117 14.2154 22.4586C14.3512 22.4038 14.5585 22.316 14.6741 22.2612C14.7897 22.2082 14.9934 22.104 15.1236 22.0308C15.2539 21.9577 15.4576 21.8352 15.5732 21.7602C15.6887 21.6834 15.8502 21.5719 15.9309 21.5116C16.0117 21.4513 16.164 21.3306 16.2704 21.2447C16.3768 21.1587 16.5951 20.9558 16.7584 20.7949C16.9199 20.634 17.1144 20.4292 17.1914 20.3378C17.2667 20.2464 17.4061 20.0709 17.4978 19.9447C17.5914 19.8186 17.7345 19.6102 17.8171 19.4785C17.8978 19.3469 18.0208 19.1348 18.0887 19.0032C18.1584 18.8715 18.2519 18.6796 18.2978 18.5735C18.3437 18.4675 18.3804 18.3797 18.3804 18.3779C18.3804 18.3742 18.2171 18.3688 18.0171 18.3669C17.6887 18.3596 17.641 18.356 17.4942 18.3121C17.4061 18.2847 17.3235 18.2627 17.3107 18.2627C17.2997 18.2645 17.2557 18.3358 17.2153 18.4218C17.1749 18.5095 17.0758 18.6924 16.9933 18.8295C16.9125 18.9648 16.7933 19.1494 16.7291 19.2408C16.6667 19.3323 16.5383 19.5005 16.4447 19.6156C16.3511 19.7308 16.1768 19.9246 16.0575 20.0471C15.9364 20.1678 15.7768 20.3214 15.7016 20.3872C15.6264 20.453 15.4557 20.5883 15.3218 20.687C15.1897 20.7876 14.9952 20.921 14.8906 20.9869C14.7879 21.0509 14.5897 21.1624 14.4539 21.2319C14.3182 21.3013 14.1237 21.3946 14.0228 21.4403C13.9218 21.4842 13.7072 21.5646 13.5457 21.6176C13.3842 21.6725 13.1494 21.7419 13.0228 21.7712C12.8962 21.8023 12.6907 21.8425 12.5641 21.8626C12.4375 21.8827 12.2393 21.9083 12.1237 21.9211C12.0081 21.9339 11.7439 21.9431 11.5366 21.9431C11.3293 21.9431 11.0614 21.9339 10.9403 21.9211C10.8192 21.9083 10.6045 21.8791 10.4633 21.8553C10.322 21.8315 10.1073 21.7877 9.98621 21.7566C9.86511 21.7273 9.65411 21.6652 9.51834 21.6195C9.38256 21.5737 9.17156 21.4951 9.05046 21.4439C8.92937 21.3927 8.72204 21.294 8.59177 21.2264C8.46149 21.1587 8.26701 21.049 8.16426 20.985C8.05968 20.921 7.86519 20.7876 7.73308 20.687C7.59914 20.5883 7.41199 20.4384 7.31658 20.3561C7.22118 20.272 7.06338 20.1221 6.96614 20.0234C6.87073 19.9246 6.72578 19.7656 6.64505 19.6705C6.56432 19.5754 6.45974 19.4474 6.4157 19.3871C6.36983 19.3268 6.28176 19.2043 6.22121 19.1129C6.16067 19.0215 6.0726 18.8843 6.02673 18.8075C5.97902 18.7289 5.88361 18.5516 5.81389 18.4145C5.74417 18.2755 5.65059 18.0707 5.60472 17.961C5.55885 17.8513 5.4873 17.6521 5.4451 17.5223C5.4029 17.3924 5.34418 17.1859 5.31483 17.0652C5.28547 16.9445 5.24694 16.7507 5.22676 16.6355C5.20657 16.5204 5.18089 16.3339 5.16804 16.2242C5.15336 16.1108 5.14419 15.8201 5.14419 15.5568C5.14419 15.2259 5.15336 15.0175 5.17722 14.8347C5.19373 14.6939 5.23226 14.4599 5.26162 14.3136C5.29097 14.1673 5.34418 13.9461 5.38088 13.82C5.41757 13.6938 5.48913 13.4799 5.54051 13.3446C5.59004 13.2093 5.69096 12.9753 5.76435 12.8235C5.83774 12.6736 5.96434 12.4378 6.04507 12.3025C6.12764 12.1672 6.25974 11.9643 6.34047 11.8546C6.42121 11.7449 6.55515 11.5712 6.63955 11.4706C6.72395 11.3701 6.89642 11.1854 7.02302 11.0592C7.14962 10.9331 7.3386 10.7594 7.44502 10.6735C7.55144 10.5857 7.73308 10.4468 7.84867 10.3645C7.96427 10.2822 8.15142 10.1597 8.2615 10.0939C8.37159 10.0281 8.57525 9.92022 8.71103 9.85258C8.8468 9.7831 9.07432 9.68255 9.21559 9.6277C9.35687 9.57102 9.58806 9.4924 9.72934 9.45035C9.87062 9.41013 10.1018 9.35163 10.2431 9.32237C10.3844 9.29495 10.6119 9.25473 10.7476 9.23644C10.9403 9.21085 11.1146 9.20354 11.5366 9.20354C11.8779 9.20354 12.1421 9.21268 12.2522 9.2273C12.3476 9.2401 12.5219 9.26753 12.6375 9.28764C12.7531 9.30775 12.9604 9.35163 13.0962 9.38636C13.232 9.4211 13.4521 9.48509 13.5824 9.5308C13.7127 9.57468 13.92 9.65512 14.0411 9.70631C14.1622 9.75751 14.3402 9.84161 14.4356 9.89097C14.531 9.94216 14.6943 10.0336 14.7989 10.0957C14.9035 10.1579 15.0851 10.2786 15.2062 10.3645C15.3255 10.4504 15.5053 10.5876 15.6043 10.6698C15.7034 10.7521 15.8924 10.9294 16.0263 11.0629C16.1585 11.1964 16.3364 11.3883 16.419 11.4889C16.5016 11.5895 16.6282 11.754 16.6997 11.8546C16.7713 11.9551 16.8942 12.1434 16.9731 12.2751C17.052 12.4049 17.1566 12.5968 17.208 12.7011C17.2813 12.8528 17.3034 12.8857 17.329 12.8766C17.3474 12.8711 17.441 12.8455 17.5364 12.8199C17.6813 12.7815 17.7657 12.7724 18.0318 12.765C18.2079 12.7596 18.3584 12.7504 18.3657 12.7431C18.3712 12.7376 18.318 12.6042 18.2446 12.4488C18.1731 12.2933 18.0648 12.0794 18.0061 11.9734C17.9474 11.8674 17.8391 11.6864 17.7657 11.5712C17.6905 11.456 17.5584 11.2622 17.4685 11.1415C17.3786 11.0209 17.2226 10.8271 17.1217 10.7119C17.0226 10.5967 16.8483 10.412 16.7382 10.3023C16.6282 10.1926 16.4245 10.008 16.2887 9.89463C16.1529 9.77945 15.9401 9.6149 15.8153 9.52714C15.6924 9.43938 15.4777 9.30043 15.3383 9.21633C15.2007 9.13223 14.9622 9.00425 14.8117 8.93112C14.6594 8.85616 14.4337 8.7556 14.3071 8.70441C14.1805 8.65505 13.9585 8.5746 13.8118 8.52707C13.665 8.47953 13.4301 8.41371 13.2888 8.37898C13.1476 8.34607 12.9035 8.2967 12.7476 8.27294C12.5916 8.24734 12.3806 8.21809 12.2797 8.20712C12.1788 8.19615 11.8981 8.18518 11.6559 8.18152C11.4137 8.17604 11.1238 8.17969 11.0137 8.18883C10.9036 8.19615 10.6834 8.22174 10.5275 8.24185ZM10.6192 10.2201C10.4926 10.2402 10.2816 10.2859 10.1513 10.3188C10.0211 10.3517 9.80456 10.4175 9.67429 10.4651C9.54402 10.5126 9.32018 10.6058 9.1789 10.6735C9.03762 10.7411 8.83579 10.849 8.72937 10.913C8.62296 10.977 8.467 11.0794 8.38076 11.1397C8.29453 11.2 8.14591 11.3152 8.0505 11.3957C7.95509 11.4743 7.8028 11.6114 7.7129 11.6973C7.62483 11.7833 7.4652 11.9569 7.35878 12.0831C7.2542 12.2092 7.09824 12.414 7.01384 12.5402C6.92944 12.6663 6.81018 12.8601 6.74963 12.9698C6.68909 13.0795 6.59368 13.2733 6.53863 13.3995C6.48542 13.5256 6.40469 13.7359 6.36249 13.8657C6.32029 13.9955 6.26158 14.2057 6.23406 14.3319C6.2047 14.458 6.16617 14.6555 6.14782 14.7707C6.12213 14.9371 6.1148 15.0925 6.1148 15.5111C6.1148 15.939 6.12213 16.0797 6.14782 16.2425C6.16617 16.3521 6.1992 16.5222 6.21938 16.6173C6.23956 16.7123 6.2836 16.886 6.31662 17.0012C6.35148 17.1164 6.42304 17.323 6.47808 17.4583C6.53313 17.5936 6.61569 17.7819 6.6634 17.8751C6.70927 17.9665 6.80284 18.1366 6.87073 18.2499C6.93862 18.3614 7.0799 18.5699 7.18631 18.7106C7.31658 18.8843 7.47988 19.0672 7.69272 19.2774C7.86335 19.4493 8.0872 19.6522 8.18811 19.729C8.28902 19.804 8.45416 19.921 8.55507 19.9868C8.65598 20.0526 8.83763 20.1605 8.95872 20.2263C9.07982 20.2921 9.28715 20.3908 9.41742 20.4439C9.54769 20.4987 9.73851 20.57 9.83942 20.6011C9.94034 20.634 10.122 20.6852 10.2431 20.7144C10.3642 20.7437 10.5752 20.7839 10.711 20.8059C10.8687 20.8296 11.0981 20.8461 11.344 20.8534C11.632 20.8607 11.8008 20.8552 12.0137 20.8333C12.1696 20.8168 12.4173 20.7784 12.5641 20.7492C12.7109 20.7181 12.9219 20.6669 13.032 20.6322C13.1421 20.5993 13.3164 20.5408 13.4173 20.5024C13.5182 20.464 13.6998 20.3872 13.8209 20.3305C13.942 20.272 14.1273 20.1733 14.2338 20.1111C14.3402 20.0471 14.509 19.9356 14.6099 19.8643C14.7108 19.793 14.8631 19.676 14.9493 19.6047C15.0356 19.5334 15.2025 19.3761 15.32 19.2573C15.4392 19.1385 15.5988 18.9611 15.6759 18.866C15.753 18.771 15.8759 18.6009 15.9493 18.4912C16.0227 18.3816 16.1236 18.217 16.175 18.1256C16.2263 18.0342 16.2979 17.8971 16.3328 17.8203L16.3988 17.6777C16.2759 17.5149 16.2062 17.4107 16.164 17.3394C16.1218 17.2681 16.063 17.1493 16.0318 17.0743C16.0007 16.9994 15.9548 16.8677 15.9309 16.7818C15.9052 16.6959 15.8741 16.5533 15.8575 16.4618C15.8355 16.3284 15.83 16.1254 15.83 15.4106C15.83 14.6208 15.8337 14.5056 15.8649 14.3593C15.8832 14.2679 15.9273 14.1253 15.9621 14.0394C15.997 13.9534 16.0594 13.8273 16.0997 13.756C16.1401 13.6847 16.2245 13.5604 16.2869 13.4781L16.3988 13.3263C16.1768 12.8949 16.0502 12.6736 15.9731 12.5584C15.8961 12.4433 15.7621 12.2623 15.6777 12.1562C15.5915 12.0502 15.4209 11.8637 15.2961 11.7412C15.1713 11.6187 14.9989 11.4596 14.9126 11.3883C14.8264 11.317 14.6484 11.1872 14.5181 11.0995C14.3879 11.0099 14.1934 10.8892 14.087 10.8307C13.9806 10.7722 13.7952 10.679 13.6741 10.6241C13.553 10.5711 13.3219 10.4815 13.1604 10.4285C12.9989 10.3755 12.7714 10.3097 12.6558 10.2841C12.5402 10.2585 12.3586 10.2237 12.2522 10.2091C12.1458 10.1926 11.9568 10.1725 11.8302 10.1634C11.7036 10.1542 11.5274 10.1469 11.4357 10.1488C11.344 10.1488 11.1752 10.1579 11.0596 10.1652C10.944 10.1744 10.7458 10.1981 10.6192 10.2201ZM17.6281 13.9041C17.5822 13.9205 17.5089 13.9553 17.463 13.9809C17.4171 14.0065 17.3364 14.065 17.2813 14.1107C17.2281 14.1564 17.1437 14.2514 17.0979 14.3227C17.0502 14.3941 16.9914 14.5074 16.9658 14.5787L16.9217 14.7067C16.9217 16.4948 16.9217 16.4984 16.9639 16.6173C16.9878 16.6831 17.0355 16.7818 17.0703 16.8366C17.1034 16.8915 17.1676 16.9756 17.2098 17.0231C17.2538 17.0688 17.3015 17.1109 17.3162 17.1145C17.3309 17.1164 17.3547 17.1347 17.3712 17.1511C17.3859 17.1676 17.4722 17.2114 17.5639 17.2498C17.6556 17.2864 17.7767 17.3394 17.8336 17.3687L17.94 17.4217C18.6886 17.4217 18.6923 17.4217 18.7088 17.3815C18.718 17.3577 18.7455 17.2169 18.7712 17.0652C18.7969 16.9153 18.8281 16.7178 18.8372 16.6264C18.8483 16.535 18.8666 16.354 18.8758 16.2242C18.8868 16.0944 18.8941 15.8256 18.8941 15.63C18.8941 15.4343 18.885 15.1619 18.8758 15.0266C18.8648 14.8913 18.8391 14.6573 18.8189 14.5056C18.7987 14.3557 18.7657 14.1491 18.7437 14.0485C18.7235 13.9479 18.7033 13.8602 18.6996 13.8529C18.696 13.8437 18.5217 13.8401 18.3107 13.8401C18.1015 13.8419 17.8813 13.8492 17.8208 13.8584C17.7602 13.8675 17.674 13.8876 17.6281 13.9041Z" fill="#F6DE63"/>
<path d="M10.8305 11.2887C10.9315 11.2722 11.0966 11.2521 11.1975 11.243C11.2984 11.2338 11.447 11.2302 11.5278 11.2338C11.636 11.2393 11.6984 11.2539 11.7663 11.2868C11.8177 11.3106 11.8892 11.3673 11.9277 11.4093C11.9699 11.4587 12.0085 11.5282 12.0268 11.5903C12.0452 11.658 12.0525 11.7238 12.0433 11.7915C12.0378 11.8481 12.0121 11.9249 11.9883 11.9651C11.9644 12.0054 11.9167 12.0657 11.8819 12.1004C11.8488 12.1352 11.781 12.1809 11.7296 12.2046C11.658 12.2376 11.5883 12.2485 11.4085 12.2577C11.2819 12.265 11.0837 12.2869 10.9681 12.3052C10.8526 12.3253 10.6838 12.3637 10.592 12.3893C10.5003 12.4149 10.348 12.4697 10.2526 12.5081C10.1572 12.5465 10.0159 12.6124 9.94067 12.6544C9.86544 12.6965 9.74618 12.7678 9.67462 12.8153C9.60306 12.8628 9.47279 12.9634 9.38105 13.0383C9.28931 13.1133 9.17372 13.2193 9.12418 13.2742C9.07281 13.329 8.98474 13.4296 8.92786 13.5009C8.87282 13.5722 8.78842 13.6856 8.74255 13.7569C8.69668 13.8282 8.62328 13.958 8.57741 14.0494C8.53154 14.1408 8.46366 14.2871 8.4288 14.3785C8.39394 14.4699 8.3444 14.6253 8.31871 14.7259C8.29486 14.8264 8.26 14.9946 8.24532 15.1007C8.2288 15.2067 8.21596 15.3621 8.21596 15.448C8.21596 15.534 8.20312 15.6473 8.18844 15.6985C8.17009 15.7662 8.13339 15.8247 8.07285 15.8905C8.02331 15.9435 7.94258 16.0075 7.89304 16.0313C7.83432 16.0605 7.76827 16.0751 7.70222 16.077C7.62883 16.0788 7.57378 16.066 7.50039 16.0294C7.44535 16.0038 7.36829 15.9453 7.32792 15.9033C7.28939 15.8594 7.24169 15.7899 7.22334 15.7497C7.19582 15.693 7.18848 15.6327 7.18848 15.47C7.18848 15.3584 7.20132 15.1646 7.21783 15.0422C7.23251 14.9178 7.26737 14.7259 7.29122 14.6162C7.31691 14.5065 7.36829 14.32 7.40682 14.2048C7.44535 14.0896 7.52241 13.8958 7.57745 13.7751C7.63066 13.6545 7.72974 13.4662 7.79396 13.3583C7.86001 13.2486 7.97744 13.0731 8.05633 12.9689C8.13339 12.8647 8.29486 12.6782 8.41228 12.5575C8.53154 12.435 8.71135 12.2686 8.81227 12.1882C8.91318 12.1077 9.0618 11.998 9.14253 11.945C9.22326 11.8938 9.35537 11.8152 9.4361 11.7713C9.51683 11.7256 9.65627 11.6562 9.74801 11.6141C9.83975 11.5721 9.99938 11.5081 10.1058 11.4715C10.2122 11.4349 10.3773 11.3856 10.4728 11.3618C10.5682 11.338 10.7296 11.3051 10.8305 11.2887Z" fill="#F6DE63"/>
<path d="M9.47265 2.14313C9.52219 2.10839 9.59008 2.07365 9.61944 2.06451C9.64879 2.0572 9.92218 2.04805 10.2249 2.04805C10.6616 2.04623 10.7937 2.05171 10.8671 2.07365C10.9185 2.08828 10.9919 2.12667 11.0304 2.15958C11.0689 2.19249 11.1203 2.25282 11.1442 2.29304C11.168 2.33327 11.1974 2.41188 11.2084 2.46673C11.2249 2.54901 11.2249 2.58557 11.201 2.66784C11.1845 2.72452 11.1405 2.80862 11.1001 2.85981C11.0597 2.91284 10.9882 2.975 10.8304 3.06093L9.65613 3.0719L9.54238 3.01522C9.45798 2.975 9.4066 2.93477 9.35156 2.8653C9.30936 2.81045 9.26532 2.72452 9.24881 2.66784C9.22679 2.5874 9.22496 2.54901 9.23964 2.47587C9.25064 2.42468 9.28734 2.34424 9.32037 2.29487C9.35339 2.24551 9.42128 2.17786 9.47265 2.14313Z" fill="#F6DE63"/>
<path d="M2.84905 2.11753C2.8674 2.10473 2.91327 2.08279 2.94997 2.06999C2.99767 2.05354 3.58664 2.04805 5.39024 2.04623C7.41402 2.04623 7.77914 2.04988 7.85804 2.07182C7.90941 2.08828 7.98464 2.13033 8.03234 2.17055C8.08005 2.21077 8.13142 2.27842 8.15527 2.33144C8.17729 2.3808 8.20114 2.45393 8.20848 2.49416C8.21582 2.53986 8.21032 2.60385 8.19197 2.66784C8.17546 2.72635 8.13142 2.80862 8.08922 2.86347C8.03418 2.93477 7.9828 2.975 7.78465 3.07007L2.95914 3.06093L2.88575 3.02253C2.84538 3.00059 2.78117 2.95123 2.7408 2.91284C2.70227 2.87261 2.6509 2.80314 2.62704 2.75377C2.59585 2.69344 2.58301 2.63676 2.58301 2.56363C2.58301 2.4905 2.59769 2.42834 2.62704 2.36618C2.6509 2.31498 2.70227 2.24551 2.7408 2.20894C2.78117 2.17421 2.82887 2.13216 2.84905 2.11753Z" fill="#F6DE63"/>
<path d="M18.5274 1.60561C18.5824 1.58367 18.6613 1.56173 18.7017 1.55259C18.742 1.54527 18.8246 1.53796 18.8851 1.53613C18.9457 1.53613 19.0484 1.54527 19.1145 1.5599C19.1805 1.5727 19.2888 1.60926 19.3585 1.64217C19.4264 1.67325 19.5273 1.74273 19.5879 1.79575C19.6447 1.8506 19.7218 1.93836 19.7567 1.99321C19.7915 2.04805 19.8392 2.14495 19.8631 2.21077C19.8924 2.29 19.9102 2.38751 19.9163 2.5033C19.9236 2.63128 19.9181 2.70807 19.8961 2.79582C19.8796 2.86164 19.8392 2.96768 19.808 3.0335C19.7695 3.11212 19.7071 3.19622 19.6209 3.28215C19.5347 3.36625 19.4503 3.43024 19.3714 3.46864C19.3053 3.50154 19.1934 3.53994 19.1237 3.55457C19.0539 3.56919 18.9494 3.58199 18.8943 3.58199C18.8393 3.58199 18.7347 3.56919 18.665 3.55274C18.5952 3.53811 18.4778 3.49606 18.4081 3.45767C18.3347 3.41927 18.232 3.34248 18.1696 3.28032C18.109 3.21999 18.0338 3.12126 18.0008 3.06093C17.9696 3.00059 17.9292 2.90187 17.9109 2.84153C17.8888 2.77023 17.8778 2.6715 17.8778 2.55815C17.8778 2.43017 17.8888 2.35155 17.9182 2.25648C17.9402 2.187 17.9824 2.08828 18.0118 2.03708C18.0411 1.98772 18.0925 1.91276 18.1274 1.87254C18.1622 1.83232 18.243 1.76467 18.309 1.72079C18.3732 1.67691 18.4723 1.62572 18.5274 1.60561Z" fill="#F6DE63"/>
<path d="M15.61 1.57453C15.6559 1.56356 15.7091 1.55076 15.7293 1.54527C15.7495 1.54162 15.8119 1.53796 15.8669 1.53613C15.922 1.53613 16.0265 1.5471 16.0963 1.56356C16.1678 1.57818 16.2834 1.62023 16.3531 1.65863C16.432 1.70068 16.5311 1.77381 16.61 1.85426C16.7017 1.94567 16.7586 2.02063 16.8063 2.11936C16.843 2.19432 16.8815 2.30036 16.8926 2.35338C16.9036 2.40457 16.9127 2.50147 16.9127 2.56729C16.9127 2.63311 16.9036 2.73001 16.8926 2.78303C16.8815 2.83422 16.843 2.94026 16.8082 3.01522C16.7586 3.1176 16.7091 3.18525 16.6118 3.28032C16.5403 3.35162 16.4412 3.43024 16.3898 3.45767C16.3403 3.48509 16.232 3.52348 16.1513 3.54542C16.0706 3.56553 15.955 3.58199 15.8944 3.58199C15.8339 3.58199 15.7275 3.56919 15.6559 3.55274C15.5862 3.53811 15.4706 3.49606 15.399 3.45767C15.3256 3.41927 15.2229 3.34248 15.1605 3.28032C15.1 3.21999 15.0247 3.12126 14.9917 3.06093C14.9605 3.00059 14.9202 2.90187 14.9018 2.84153C14.8816 2.77023 14.8706 2.66967 14.8706 2.55815C14.8706 2.44662 14.8816 2.34607 14.9018 2.27476C14.9202 2.21443 14.9605 2.1157 14.9917 2.05537C15.0247 1.99503 15.1 1.89631 15.1605 1.83597C15.2266 1.77015 15.322 1.69885 15.399 1.66046C15.4706 1.62389 15.5642 1.5855 15.61 1.57453Z" fill="#F6DE63"/>
</svg>
