<svg width="33" height="30" viewBox="0 0 33 30" fill="none" xmlns="http://www.w3.org/2000/svg">
<path fill-rule="evenodd" clip-rule="evenodd" d="M26.4839 0L26.871 0.458515V3.47162L26.4323 3.93013H23.129L23.2581 4.19214C23.329 4.33624 23.4839 4.5524 23.6 4.67031C23.7097 4.78821 23.9355 4.94542 24.0968 5.03057C24.2581 5.10917 24.5484 5.19432 24.7419 5.21397C24.9355 5.24017 25.1742 5.29913 25.2774 5.34498C25.3742 5.39738 25.4774 5.49563 25.5161 5.56769C25.5548 5.63974 25.5806 5.80349 25.5806 5.92795C25.5806 6.08515 25.529 6.20961 25.4194 6.32096C25.329 6.41266 25.1806 6.50437 25.0839 6.53057C24.9806 6.55022 24.7032 6.53712 24.4516 6.49782C24.2 6.45851 23.8129 6.32751 23.5806 6.21616C23.3484 6.1048 23.0516 5.92795 22.6774 5.63319V6.12445C22.6774 6.41921 22.6387 6.71397 22.5742 6.86463C22.5226 6.99563 22.4129 7.17904 22.3355 7.25764C22.2581 7.34279 22.0839 7.4738 21.9548 7.5393C21.8194 7.6048 21.6387 7.66376 21.3871 7.66376V14.1026C21.3871 19.4935 21.3677 20.607 21.2903 20.9935C21.2387 21.2489 21.071 21.7009 20.9226 22.0087C20.7226 22.4214 20.5355 22.6834 20.2 23.0306C19.8581 23.3712 19.6 23.5611 19.1935 23.7642C18.8903 23.9214 18.4581 24.0786 17.8065 24.2162L17.7677 24.7664C17.7484 25.0677 17.6839 25.4083 17.6323 25.5131C17.5742 25.6179 17.4452 25.7948 17.3484 25.8996C17.2452 26.0044 17.0452 26.1419 16.9032 26.2074C16.6968 26.3057 16.4839 26.3319 15.0323 26.3319L14.8065 26.6397C14.671 26.8166 14.4387 27.0196 14.2258 27.1376C13.9871 27.2751 13.7419 27.3472 13.071 27.4127L13.0323 29.6004L12.8387 29.8035C12.6903 29.9541 12.5871 30 12.4065 30C12.2194 30 12.1161 29.9541 11.7742 29.607V27.3799H9.03226L8.83871 27.8188C8.73548 28.0677 8.51613 28.441 8.35484 28.6507C8.19355 28.8668 7.89032 29.1681 7.67742 29.3188C7.46452 29.476 7.04516 29.6921 6.74194 29.8035C6.29677 29.9607 6.09032 30 5.64516 30C5.22581 30 4.9871 29.9607 4.6129 29.8362C4.34839 29.7445 4.02581 29.607 3.90323 29.5284C3.78065 29.4498 3.54839 29.286 3.3871 29.155C3.23226 29.024 2.97419 28.7424 2.81935 28.5262C2.66452 28.31 2.48387 27.9694 2.28387 27.4127L1.7871 27.3734C1.40645 27.3472 1.2129 27.2948 0.941935 27.1441C0.754839 27.0393 0.522581 26.8624 0.432258 26.7576C0.348387 26.6528 0.212903 26.4432 0 26.0371V18.4061C0 11.1616 0.00645161 10.7555 0.116129 10.4476C0.180645 10.2707 0.335484 9.98253 0.458064 9.81223C0.580645 9.63537 0.812903 9.39956 0.974194 9.28821C1.13548 9.17031 1.40645 9.0131 1.56774 8.94105C1.85806 8.81659 2.03226 8.81004 9.90323 8.77729V3.0786L9.15484 3.0655C8.43226 3.04585 8.40645 3.0393 8.25161 2.869C8.14194 2.73799 8.09677 2.60699 8.09677 2.42358C8.09677 2.24017 8.14194 2.10917 8.40645 1.80131L12.5484 1.76856L12.7613 1.95852C12.929 2.11572 12.9677 2.20087 12.9677 2.42358C12.9677 2.64629 12.929 2.73144 12.7613 2.88865C12.5548 3.07205 12.529 3.0786 11.1935 3.0786V8.77729H12.0839C12.6645 8.77729 13.0968 8.81004 13.3419 8.87555C13.5419 8.92795 13.8645 9.07205 14.0516 9.18996C14.2323 9.30786 14.471 9.51092 14.5742 9.63537C14.6774 9.75983 14.8516 10.048 15.1613 10.7096L15.1935 20.8297H15.9226C16.5613 20.8297 16.6839 20.8493 16.9677 20.9869C17.1548 21.0786 17.3613 21.2489 17.4645 21.3996C17.5613 21.5371 17.671 21.7533 17.7097 21.8777C17.7419 22.0022 17.7742 22.2838 17.7742 22.893L18.0129 22.8472C18.1484 22.821 18.4194 22.7162 18.6129 22.6179C18.8065 22.5196 19.1032 22.3035 19.2645 22.1397C19.4258 21.976 19.6323 21.714 19.729 21.5502C19.8194 21.3865 19.9419 21.0786 20 20.8624C20.0839 20.5218 20.0968 19.6507 20.0968 7.69651L19.8258 7.65065C19.671 7.62445 19.4452 7.51965 19.3226 7.41485C19.2 7.31659 19.0323 7.10044 18.9484 6.93668C18.8129 6.65502 18.8065 6.58952 18.8065 4.80131C18.8065 3.70087 18.8323 2.81004 18.8774 2.60699C18.9161 2.41703 19.0323 2.08297 19.129 1.86681C19.2258 1.65066 19.4516 1.31004 19.6258 1.11354C19.8065 0.917031 20.0903 0.661572 20.2645 0.543668C20.4387 0.425764 20.7677 0.262009 21 0.170306C21.4194 0.0131004 21.4323 0.0131004 26.4839 0V0ZM20.8387 1.73581C20.6968 1.84716 20.5032 2.06332 20.4065 2.22707C20.3032 2.39083 20.1935 2.62664 20.1613 2.75109C20.1226 2.87555 20.0968 3.74017 20.0968 4.67031V6.35371H21.3871C21.3871 3.51747 21.4065 3.1048 21.4774 2.96725C21.5226 2.86245 21.6387 2.74454 21.7355 2.70524C21.8258 2.65939 22.1355 2.62009 22.4194 2.62009H22.9355V1.31004C21.9484 1.31659 21.6258 1.3559 21.4129 1.42795C21.2387 1.4869 20.9742 1.631 20.8387 1.73581ZM24.2258 2.62009H25.5806V1.31004H24.2258V2.62009ZM1.47097 10.631L1.29032 10.893L1.25806 13.4279H4.87097C5.25161 13.7751 5.29032 13.8603 5.29032 14.083C5.29032 14.3057 5.25161 14.3908 5.08387 14.548L4.87097 14.738H1.25806C1.25806 23.6725 1.28387 25.6638 1.32258 25.762C1.36129 25.8406 1.45806 25.9454 1.54839 25.9847C1.63871 26.0306 1.8129 26.0699 1.93548 26.0699C2.09677 26.0699 2.16774 26.0371 2.1871 25.952C2.20645 25.893 2.23871 25.7358 2.25806 25.6114C2.28387 25.4869 2.4 25.1659 2.52258 24.9039C2.67097 24.583 2.87097 24.3013 3.14839 24.0197C3.36774 23.7904 3.70968 23.5153 3.90323 23.3974C4.09677 23.286 4.50323 23.1288 4.80645 23.0502C5.23871 22.9389 5.46452 22.9192 5.87097 22.9454C6.19355 22.9651 6.55484 23.0437 6.83871 23.155C7.09032 23.2467 7.46452 23.4563 7.67742 23.607C7.89032 23.7642 8.1871 24.0459 8.33548 24.2424C8.48387 24.4389 8.69032 24.786 8.8 25.0218C8.90968 25.2576 9.01935 25.5852 9.04516 25.762L9.09677 26.0699H13.529L13.9032 25.6769V14.738C10.8452 14.738 10.3097 14.7183 10.1871 14.6528C10.0903 14.6135 9.97419 14.4956 9.92903 14.3908C9.87742 14.2926 9.83871 14.155 9.83871 14.083C9.83871 14.0109 9.87742 13.8734 9.92903 13.7686C9.97419 13.6703 10.0903 13.5524 10.1871 13.5065C10.3097 13.4476 10.8452 13.4279 12.129 13.4279H13.9032L13.871 10.893C13.5677 10.4672 13.3677 10.2838 13.2258 10.2118C12.9806 10.0939 12.7548 10.0873 7.58065 10.0873C2.2 10.0873 2.19355 10.0873 1.92258 10.2249C1.77419 10.3035 1.57419 10.4869 1.47097 10.631ZM15.1935 25.0218L16.4516 24.9891V22.1725L15.2 22.1332L15.1935 25.0218ZM4.58065 24.5109C4.47097 24.5699 4.25806 24.7467 4.09677 24.9039C3.94194 25.0611 3.73548 25.3493 3.64516 25.5459C3.50968 25.8472 3.48387 26.0044 3.48387 26.4629C3.48387 26.9214 3.50968 27.0852 3.64516 27.3799C3.73548 27.583 3.94194 27.8712 4.09677 28.0284C4.25806 28.1921 4.54194 28.3952 4.74194 28.4869C5.03871 28.631 5.18064 28.6572 5.64516 28.6572C6.07097 28.6572 6.25806 28.6179 6.49677 28.5065C6.66452 28.4279 6.95484 28.2249 7.12903 28.0546C7.31613 27.8777 7.53548 27.583 7.63226 27.3799C7.77419 27.0786 7.8 26.9345 7.8 26.4629C7.8 25.9978 7.77419 25.8472 7.63226 25.5459C7.53548 25.3493 7.31613 25.048 7.12903 24.8777C6.95484 24.7074 6.66452 24.5044 6.49677 24.4258C6.30968 24.3406 6.0129 24.2751 5.74194 24.262C5.47097 24.2489 5.1871 24.2751 5.03226 24.3275C4.89032 24.3734 4.68387 24.4585 4.58065 24.5109Z" fill="#F6DE63"/>
<path d="M5.10323 26.1417C5.16129 26.0565 5.27097 25.9452 5.34194 25.8993C5.41935 25.8535 5.56129 25.8142 5.66452 25.8076C5.78065 25.8076 5.91398 25.884 6.06452 26.0369C6.21935 26.1941 6.29032 26.3251 6.29032 26.4626C6.29032 26.6002 6.21935 26.7312 6.07097 26.8884C5.92903 27.0325 5.79355 27.1177 5.68387 27.1177C5.59355 27.1177 5.43871 27.0784 5.34839 27.0391C5.25161 26.9932 5.13548 26.8753 5.09032 26.777C5.03871 26.6722 5 26.5281 5 26.4495C5.00645 26.3644 5.05161 26.2268 5.10323 26.1417Z" fill="#F6DE63"/>
<path d="M7.03877 13.7619C7.09684 13.6768 7.20651 13.5654 7.27748 13.513C7.36135 13.4606 7.50974 13.4409 7.64522 13.4606C7.7678 13.4803 7.93555 13.5589 8.01942 13.644C8.09684 13.7226 8.18071 13.8733 8.20651 13.9846C8.23232 14.1156 8.20006 14.2532 8.12264 14.3907C8.05168 14.5086 7.93555 14.6331 7.85813 14.6724C7.77426 14.7051 7.62587 14.7379 7.51619 14.7379C7.38716 14.7379 7.25813 14.6724 7.1291 14.5414C6.99361 14.4038 6.93555 14.2859 6.93555 14.1287C6.942 14.0174 6.98716 13.8471 7.03877 13.7619Z" fill="#F6DE63"/>
<path d="M28.2321 0.373362C28.2708 0.29476 28.3676 0.176856 28.445 0.117904C28.5676 0.0131004 28.7805 0 30.5805 0C32.3805 0 32.5934 0.0131004 32.716 0.117904C32.7934 0.176856 32.8902 0.29476 32.9289 0.373362C32.9676 0.458515 32.9998 0.582969 32.9998 0.655022C32.9998 0.727074 32.9611 0.864629 32.9224 0.956332C32.8773 1.05459 32.7611 1.17249 32.6644 1.21834C32.5224 1.29039 32.0708 1.31004 30.5805 1.31004C29.1934 1.31004 28.6321 1.29039 28.5095 1.22489C28.4127 1.18559 28.2966 1.06769 28.2515 0.969432C28.1998 0.864629 28.1611 0.727074 28.1611 0.655022C28.1611 0.582969 28.1934 0.458515 28.2321 0.373362Z" fill="#F6DE63"/>
<path d="M28.2644 2.95418C28.3224 2.86903 28.4321 2.75767 28.5031 2.71182C28.6127 2.64632 29.0902 2.62667 30.5611 2.62012C32.0708 2.62012 32.5224 2.63977 32.6579 2.71182C32.7611 2.75767 32.8773 2.87558 32.916 2.97383C32.9611 3.06553 32.9998 3.20309 32.9998 3.27514C32.9998 3.34719 32.9611 3.48475 32.916 3.57645C32.8773 3.6747 32.7611 3.79261 32.6579 3.83846C32.5224 3.91051 32.0708 3.93016 30.5805 3.93016C29.1934 3.93016 28.6321 3.91051 28.5095 3.84501C28.4127 3.80571 28.2966 3.6878 28.2515 3.583C28.1998 3.48475 28.1611 3.34064 28.1611 3.25549C28.1676 3.17689 28.2127 3.03933 28.2644 2.95418Z" fill="#F6DE63"/>
</svg>
