<svg width="74" height="74" viewBox="0 0 74 74" fill="none" xmlns="http://www.w3.org/2000/svg">
<path d="M5.28571 7.92859H15.8571L22.94 43.3164C23.1817 44.5332 23.8436 45.6262 24.8099 46.4041C25.7763 47.182 26.9854 47.5952 28.2257 47.5714H53.9143C55.1546 47.5952 56.3637 47.182 57.3301 46.4041C58.2964 45.6262 58.9583 44.5332 59.2 43.3164L63.4286 21.1429H18.5M29.0714 60.7857C29.0714 62.2453 27.8882 63.4286 26.4286 63.4286C24.969 63.4286 23.7857 62.2453 23.7857 60.7857C23.7857 59.3261 24.969 58.1429 26.4286 58.1429C27.8882 58.1429 29.0714 59.3261 29.0714 60.7857ZM58.1428 60.7857C58.1428 62.2453 56.9596 63.4286 55.5 63.4286C54.0404 63.4286 52.8571 62.2453 52.8571 60.7857C52.8571 59.3261 54.0404 58.1429 55.5 58.1429C56.9596 58.1429 58.1428 59.3261 58.1428 60.7857Z" stroke="#898A8D" stroke-width="4" stroke-linecap="round" stroke-linejoin="round"/>
</svg>
