<svg width="74" height="74" viewBox="0 0 74 74" fill="none" xmlns="http://www.w3.org/2000/svg">
<path d="M47.5714 47.5714V13.2142H7.92859V47.5714H47.5714ZM47.5714 47.5714H66.0714V34.3571L58.1429 26.4285H47.5714V47.5714ZM26.4286 54.1785C26.4286 57.8275 23.4705 60.7857 19.8214 60.7857C16.1724 60.7857 13.2143 57.8275 13.2143 54.1785C13.2143 50.5295 16.1724 47.5714 19.8214 47.5714C23.4705 47.5714 26.4286 50.5295 26.4286 54.1785ZM60.7857 54.1785C60.7857 57.8275 57.8276 60.7857 54.1786 60.7857C50.5296 60.7857 47.5714 57.8275 47.5714 54.1785C47.5714 50.5295 50.5296 47.5714 54.1786 47.5714C57.8276 47.5714 60.7857 50.5295 60.7857 54.1785Z" stroke="#898A8D" stroke-width="4" stroke-linecap="round" stroke-linejoin="round"/>
</svg>
