<svg width="74" height="75" viewBox="0 0 74 75" fill="none" xmlns="http://www.w3.org/2000/svg">
<path d="M37 13.3928C32.0935 13.3928 27.3879 15.3683 23.9185 18.8846C20.4491 22.4009 18.5 27.17 18.5 32.1428V45.5357C18.5 47.6669 17.6647 49.7108 16.1778 51.2178C14.6909 52.7248 12.6742 53.5714 10.5714 53.5714H63.4286C61.3258 53.5714 59.3091 52.7248 57.8222 51.2178C56.3353 49.7108 55.5 47.6669 55.5 45.5357V32.1428C55.5 27.17 53.5509 22.4009 50.0815 18.8846C46.612 15.3683 41.9065 13.3928 37 13.3928ZM37 13.3928V5.35712M41.5721 64.2857C41.1075 65.0975 40.4406 65.7714 39.6382 66.2398C38.8357 66.7082 37.926 66.9548 37 66.9548C36.074 66.9548 35.1642 66.7082 34.3618 66.2398C33.5594 65.7714 32.8925 65.0975 32.4278 64.2857" stroke="#898A8D" stroke-width="4" stroke-linecap="round" stroke-linejoin="round"/>
</svg>
