<svg width="74" height="74" viewBox="0 0 74 74" fill="none" xmlns="http://www.w3.org/2000/svg">
<path d="M37 23.7857C37 20.982 35.8862 18.2931 33.9037 16.3106C31.9212 14.3281 29.2323 13.2143 26.4286 13.2143H10.5714V52.8572H29.0714C31.1742 52.8572 33.1909 53.6925 34.6778 55.1794C36.1647 56.6663 37 58.6829 37 60.7857M37 23.7857V60.7857M37 23.7857C37 20.982 38.1138 18.2931 40.0963 16.3106C42.0788 14.3281 44.7677 13.2143 47.5714 13.2143H63.4286V52.8572H44.9286C42.8258 52.8572 40.8091 53.6925 39.3222 55.1794C37.8353 56.6663 37 58.6829 37 60.7857" stroke="#898A8D" stroke-width="4" stroke-linecap="round" stroke-linejoin="round"/>
</svg>
