<svg width="66" height="16" viewBox="0 0 66 16" fill="none" xmlns="http://www.w3.org/2000/svg">
<path d="M50.0002 0H66.0002V2H50.0002V0Z" fill="white"/>
<path d="M50.0002 7H66.0002V9H50.0002V7Z" fill="white"/>
<path d="M50.0002 14H66.0002V16H50.0002V14Z" fill="white"/>
<path d="M6.94613 4.125H8.49196L8.50654 12H6.72738V7.42083L4.75863 10.6H3.76696L1.79821 7.42083V12H0.019043V4.125H1.57946L4.26279 8.42708L6.94613 4.125Z" fill="white"/>
<path d="M11.9172 8.68958C11.9853 9.20486 12.136 9.61806 12.3693 9.92917C12.7387 10.4347 13.2929 10.6875 14.0318 10.6875C14.5276 10.6875 14.9457 10.5951 15.286 10.4104C15.636 10.2257 15.9665 9.94375 16.2776 9.56458L17.561 10.4396C16.7832 11.6257 15.636 12.2188 14.1193 12.2188C13.5165 12.2188 12.9381 12.1069 12.3839 11.8833C11.8394 11.65 11.3971 11.3243 11.0568 10.9062C10.4249 10.1285 10.1089 9.20972 10.1089 8.15C10.1089 6.94444 10.4249 5.9625 11.0568 5.20417C11.7762 4.33889 12.7679 3.90625 14.0318 3.90625C15.286 3.90625 16.2776 4.33889 17.0068 5.20417C17.7554 6.11806 18.0617 7.27986 17.9256 8.68958H11.9172ZM14.0318 5.42292C13.2929 5.42292 12.7387 5.67569 12.3693 6.18125C12.1749 6.44375 12.0387 6.75972 11.961 7.12917H16.1026C16.0151 6.76944 15.8742 6.45347 15.6797 6.18125C15.3103 5.67569 14.761 5.42292 14.0318 5.42292Z" fill="white"/>
<path d="M24.8499 4.125H26.5999V12H24.8499V8.77708H21.3062V12H19.5562V4.125H21.3062V7.0125H24.8499V4.125Z" fill="white"/>
<path d="M38.4479 5.20417C39.0896 5.9625 39.4104 6.91528 39.4104 8.0625C39.4104 9.16111 39.0896 10.109 38.4479 10.9062C37.7188 11.7813 36.7271 12.2188 35.4729 12.2188C34.2188 12.2188 33.2271 11.7813 32.4979 10.9062C32.0313 10.3424 31.7445 9.68611 31.6375 8.9375H30.3979V12H28.6479V4.125H30.3979V7.1875H31.6375C31.7542 6.41944 32.041 5.75833 32.4979 5.20417C32.8479 4.78611 33.2854 4.46528 33.8104 4.24167C34.3354 4.01806 34.8896 3.90625 35.4729 3.90625C36.7368 3.90625 37.7285 4.33889 38.4479 5.20417ZM37.0625 9.84167C37.3834 9.41389 37.5438 8.82083 37.5438 8.0625C37.5438 7.29444 37.3834 6.69653 37.0625 6.26875C36.7028 5.79236 36.1729 5.55417 35.4729 5.55417C34.7729 5.55417 34.2479 5.79236 33.8979 6.26875C33.5771 6.69653 33.4167 7.29444 33.4167 8.0625C33.4167 8.82083 33.5771 9.41389 33.8979 9.84167C34.2479 10.3278 34.7729 10.5708 35.4729 10.5708C36.1632 10.5708 36.6931 10.3278 37.0625 9.84167Z" fill="white"/>
</svg>
