<svg width="67" height="18" viewBox="0 0 67 18" fill="none" xmlns="http://www.w3.org/2000/svg">
<path d="M6.94564 5.125H8.49147L8.50605 13H6.72689V8.42083L4.75814 11.6H3.76647L1.79772 8.42083V13H0.0185547V5.125H1.57897L4.2623 9.42708L6.94564 5.125Z" fill="white"/>
<path d="M11.9167 9.68958C11.9848 10.2049 12.1355 10.6181 12.3688 10.9292C12.7383 11.4347 13.2924 11.6875 14.0313 11.6875C14.5271 11.6875 14.9452 11.5951 15.2855 11.4104C15.6355 11.2257 15.966 10.9438 16.2771 10.5646L17.5605 11.4396C16.7827 12.6257 15.6355 13.2188 14.1188 13.2188C13.516 13.2188 12.9376 13.1069 12.3834 12.8833C11.839 12.65 11.3966 12.3243 11.0563 11.9063C10.4244 11.1285 10.1084 10.2097 10.1084 9.15C10.1084 7.94444 10.4244 6.9625 11.0563 6.20417C11.7758 5.33889 12.7674 4.90625 14.0313 4.90625C15.2855 4.90625 16.2771 5.33889 17.0063 6.20417C17.7549 7.11806 18.0612 8.27986 17.9251 9.68958H11.9167ZM14.0313 6.42292C13.2924 6.42292 12.7383 6.6757 12.3688 7.18125C12.1744 7.44375 12.0383 7.75972 11.9605 8.12917H16.1021C16.0146 7.76944 15.8737 7.45347 15.6792 7.18125C15.3098 6.6757 14.7605 6.42292 14.0313 6.42292Z" fill="white"/>
<path d="M24.8494 5.125H26.5994V13H24.8494V9.77708H21.3057V13H19.5557V5.125H21.3057V8.0125H24.8494V5.125Z" fill="white"/>
<path d="M38.4475 6.20417C39.0891 6.9625 39.41 7.91528 39.41 9.0625C39.41 10.1611 39.0891 11.109 38.4475 11.9063C37.7183 12.7813 36.7266 13.2188 35.4725 13.2188C34.2183 13.2188 33.2266 12.7813 32.4975 11.9063C32.0308 11.3424 31.744 10.6861 31.637 9.9375H30.3975V13H28.6475V5.125H30.3975V8.1875H31.637C31.7537 7.41944 32.0405 6.75833 32.4975 6.20417C32.8475 5.78611 33.285 5.46528 33.81 5.24167C34.335 5.01806 34.8891 4.90625 35.4725 4.90625C36.7364 4.90625 37.728 5.33889 38.4475 6.20417ZM37.062 10.8417C37.3829 10.4139 37.5433 9.82083 37.5433 9.0625C37.5433 8.29445 37.3829 7.69653 37.062 7.26875C36.7023 6.79236 36.1725 6.55417 35.4725 6.55417C34.7725 6.55417 34.2475 6.79236 33.8975 7.26875C33.5766 7.69653 33.4162 8.29445 33.4162 9.0625C33.4162 9.82083 33.5766 10.4139 33.8975 10.8417C34.2475 11.3278 34.7725 11.5708 35.4725 11.5708C36.1627 11.5708 36.6926 11.3278 37.062 10.8417Z" fill="white"/>
<path d="M66 1L50 17" stroke="white" stroke-width="2" stroke-linecap="round"/>
<path d="M66 17L50 0.999999" stroke="white" stroke-width="2" stroke-linecap="round"/>
</svg>
