<svg width="16" height="16" viewBox="0 0 16 16" fill="none" xmlns="http://www.w3.org/2000/svg">
<g clip-path="url(#clip0_177_4594)">
<path d="M7.21249 11.2698C5.97212 11.1405 4.85374 10.835 3.89623 10.0861C3.77742 9.99293 3.65476 9.90312 3.54634 9.79905C3.12724 9.39654 3.08501 8.93555 3.41664 8.46048C3.70034 8.05395 4.17658 7.9452 4.67159 8.17863C4.76744 8.22387 4.85877 8.28034 4.94624 8.341C6.73072 9.56713 9.18214 9.60098 10.9733 8.39614C11.1508 8.26007 11.3405 8.14913 11.5603 8.09249C11.9878 7.98273 12.3865 8.13975 12.6159 8.51377C12.878 8.94091 12.8746 9.35783 12.5517 9.68946C12.0563 10.1979 11.4606 10.5657 10.7987 10.8224C10.1728 11.0651 9.48729 11.1872 8.80879 11.2683C8.91117 11.3798 8.95943 11.4346 9.02345 11.4989C9.94476 12.4246 10.8701 13.3464 11.7884 14.2749C12.1013 14.5913 12.1666 14.9836 11.9943 15.3516C11.806 15.7537 11.3844 16.0183 10.971 15.99C10.7091 15.9719 10.5048 15.8416 10.3233 15.6587C9.62805 14.9591 8.91972 14.2724 8.23854 13.5595C8.0403 13.3523 7.94495 13.3915 7.77 13.5714C7.07056 14.2915 6.35971 15.0005 5.64468 15.7055C5.32361 16.022 4.94155 16.079 4.5692 15.8982C4.17339 15.7063 3.92153 15.3023 3.94097 14.8963C3.95438 14.6216 4.08944 14.4118 4.27796 14.2236C5.18972 13.3132 6.09897 12.4004 7.00855 11.4885C7.06871 11.4279 7.12485 11.3635 7.21249 11.2698Z" fill="white"/>
<path d="M7.96852 8.09851C5.75573 8.09097 3.94125 6.25655 3.95415 4.04024C3.96689 1.79946 5.78254 -0.00630634 8.01712 -0.000106152C10.2562 0.00592646 12.0534 1.83766 12.0422 4.10174C12.0308 6.31353 10.2038 8.10622 7.96852 8.09851ZM9.97956 4.0456C9.97571 2.94515 9.0993 2.06908 8.00103 2.06807C6.89355 2.0669 6.00926 2.95889 6.01781 4.06939C6.02602 5.16565 6.90997 6.03552 8.01125 6.0315C9.10919 6.02765 9.98325 5.14588 9.97956 4.0456Z" fill="white"/>
</g>
<defs>
<clipPath id="clip0_177_4594">
<rect width="16" height="16" fill="white"/>
</clipPath>
</defs>
</svg>
