<svg width="16" height="16" viewBox="0 0 16 16" fill="none" xmlns="http://www.w3.org/2000/svg">
<path d="M8.8976 4.25018H0V14.0002H2.47649V10.8281H7.22182L9.38694 14.0002H12.16L9.77248 10.8136C10.514 10.6966 11.0478 10.4189 11.3741 9.98032C11.7003 9.54183 11.8634 8.84016 11.8634 7.90461V7.17375C11.8634 6.61825 11.8042 6.17974 11.7003 5.8435C11.5965 5.5073 11.4186 5.21495 11.1665 4.95183C10.8995 4.70333 10.6029 4.52792 10.247 4.41097C9.89114 4.30865 9.44621 4.25018 8.8976 4.25018ZM8.49722 8.67935H2.47649V6.39897H8.49722C8.83827 6.39897 9.07552 6.45745 9.19418 6.55977C9.31277 6.66209 9.38694 6.85213 9.38694 7.12988V7.94849C9.38694 8.24086 9.31277 8.43085 9.19418 8.53316C9.07552 8.63547 8.83827 8.67935 8.49722 8.67935Z" fill="white"/>
<path d="M14.4011 4.25C15.2843 4.25 16.0008 3.52246 16.0008 2.625C16.0008 1.72754 15.2843 1 14.4011 1C13.5173 1 12.8008 1.72754 12.8008 2.625C12.8008 3.52246 13.5173 4.25 14.4011 4.25Z" fill="white"/>
</svg>
