<svg width="34" height="8" viewBox="0 0 34 8" fill="none" xmlns="http://www.w3.org/2000/svg">
<path d="M33 1C32.3159 1.55931 31.6213 2.03396 30.9185 2.42848C30.1731 2.84724 29.4199 3.17395 28.6636 3.41477C24.8097 4.63859 20.8098 3.64983 17.0002 1.06411C16.3165 1.62301 15.6211 2.09848 14.9183 2.49341C14.1725 2.91094 13.4201 3.23847 12.6634 3.47805C8.80996 4.70229 4.80914 3.71435 1 1.12822" stroke="#00AEEF" stroke-miterlimit="10"/>
<path d="M33 4C32.3159 4.55931 31.6213 5.03396 30.9185 5.42848C30.1731 5.84724 29.4199 6.17395 28.6636 6.41477C24.8097 7.63859 20.8098 6.64983 17.0002 4.06411C16.3165 4.62301 15.6211 5.09848 14.9183 5.49341C14.1725 5.91094 13.4201 6.23847 12.6634 6.47805C8.80996 7.70229 4.80914 6.71435 1 4.12822" stroke="#00AEEF" stroke-miterlimit="10"/>
</svg>
