<svg width="50" height="12" viewBox="0 0 50 12" fill="none" xmlns="http://www.w3.org/2000/svg">
<path d="M49 2C47.9738 2.83896 46.932 3.55094 45.8778 4.14271C44.7597 4.77086 43.6299 5.26092 42.4955 5.62215C36.7146 7.45788 30.7147 5.97475 25.0003 2.09616C23.9748 2.93451 22.9317 3.64772 21.8775 4.24011C20.7587 4.86641 19.6302 5.3577 18.4951 5.71708C12.7149 7.55343 6.71371 6.07153 1 2.19233" stroke="#00AEEF" stroke-width="2" stroke-miterlimit="10"/>
<path d="M49 6.5C47.9738 7.33896 46.932 8.05094 45.8778 8.64271C44.7597 9.27086 43.6299 9.76092 42.4955 10.1222C36.7146 11.9579 30.7147 10.4747 25.0003 6.59616C23.9748 7.43451 22.9317 8.14772 21.8775 8.74011C20.7587 9.36641 19.6302 9.8577 18.4951 10.2171C12.7149 12.0534 6.71371 10.5715 1 6.69233" stroke="#00AEEF" stroke-width="2" stroke-miterlimit="10"/>
</svg>
