<svg width="17" height="17" viewBox="0 0 17 17" fill="none" xmlns="http://www.w3.org/2000/svg">
<path d="M1.77776 9.29628C2.7596 10.2781 4.35148 10.2781 5.33332 9.29628C6.31516 8.31444 6.31516 6.72257 5.33332 5.74073C4.35148 4.75889 2.7596 4.75889 1.77776 5.74073C0.795925 6.72257 0.795925 8.31444 1.77776 9.29628Z" stroke="white" stroke-width="2" stroke-miterlimit="10"/>
<path d="M7.70379 15.2222C8.68563 16.2041 10.2775 16.2041 11.2593 15.2222C12.2412 14.2404 12.2412 12.6485 11.2593 11.6667C10.2775 10.6849 8.68563 10.6849 7.70379 11.6667C6.72195 12.6485 6.72195 14.2404 7.70379 15.2222Z" stroke="white" stroke-width="2" stroke-miterlimit="10"/>
<path d="M5.33301 9.29633L7.70338 11.6667" stroke="white" stroke-width="2" stroke-miterlimit="10"/>
<path d="M1.77775 5.74073L5.33331 2.18518C5.72837 1.79012 6.75553 1.23704 7.70368 2.18518" stroke="white" stroke-width="2" stroke-linecap="round"/>
<path d="M11.2593 15.2222L14.8148 11.6667C15.2099 11.2716 15.763 10.2445 14.8148 9.29632" stroke="white" stroke-width="2" stroke-linecap="round"/>
</svg>
