<svg width="16" height="16" viewBox="0 0 16 16" fill="none" xmlns="http://www.w3.org/2000/svg">
<g clip-path="url(#clip0_177_4599)">
<path d="M15.9152 11.6798C15.8958 11.6381 15.8777 11.6035 15.861 11.5757C15.5834 11.0757 15.0529 10.4621 14.2698 9.73452L14.2533 9.71786L14.245 9.70969L14.2366 9.70131H14.2282C13.8728 9.36253 13.6478 9.13474 13.5535 9.01811C13.3811 8.79595 13.3425 8.57107 13.4367 8.34322C13.5033 8.17107 13.7534 7.80752 14.1865 7.25205C14.4143 6.95768 14.5947 6.72174 14.7279 6.54399C15.6888 5.26658 16.1053 4.45029 15.9775 4.09482L15.9279 4.01175C15.8946 3.96174 15.8085 3.91598 15.6698 3.87426C15.5308 3.83262 15.3531 3.82574 15.1365 3.85348L12.7373 3.87006C12.6985 3.85629 12.643 3.85757 12.5707 3.87426C12.4985 3.89095 12.4623 3.89932 12.4623 3.89932L12.4206 3.92019L12.3874 3.94525C12.3597 3.96182 12.3291 3.99097 12.2958 4.03264C12.2626 4.07416 12.2348 4.12289 12.2127 4.17841C11.9515 4.85041 11.6545 5.4752 11.3212 6.05275C11.1157 6.39714 10.927 6.6956 10.7546 6.94831C10.5825 7.20093 10.4381 7.38706 10.3215 7.50637C10.2048 7.62579 10.0995 7.72147 10.0049 7.79374C9.91046 7.86605 9.83836 7.8966 9.78844 7.88542C9.7384 7.87425 9.69128 7.86316 9.64666 7.85207C9.56896 7.80206 9.50646 7.73404 9.45934 7.64797C9.41201 7.56189 9.38015 7.45356 9.36349 7.32304C9.34692 7.19244 9.33711 7.08011 9.33431 6.98566C9.33171 6.89133 9.33291 6.75789 9.33854 6.58574C9.34432 6.41351 9.34692 6.29697 9.34692 6.23587C9.34692 6.0248 9.35103 5.79572 9.35929 5.54858C9.36769 5.30144 9.37449 5.10563 9.38018 4.96137C9.38584 4.81697 9.38847 4.6642 9.38847 4.50313C9.38847 4.34207 9.37866 4.21576 9.35929 4.12408C9.34015 4.03252 9.31077 3.94364 9.27205 3.85748C9.23309 3.77141 9.17608 3.70482 9.10127 3.65755C9.02631 3.61034 8.93311 3.57288 8.82221 3.54504C8.52783 3.47843 8.15298 3.4424 7.69748 3.43679C6.66455 3.42571 6.00084 3.49241 5.70649 3.63681C5.58987 3.69782 5.48433 3.78118 5.38997 3.88663C5.28998 4.00886 5.27603 4.07556 5.34821 4.08653C5.68149 4.13645 5.91742 4.25588 6.05628 4.44469L6.10632 4.54474C6.14524 4.61693 6.18411 4.74473 6.223 4.92797C6.26184 5.1112 6.2869 5.3139 6.29793 5.53595C6.32565 5.94143 6.32565 6.28854 6.29793 6.57728C6.27012 6.86614 6.24386 7.09102 6.2188 7.25208C6.19374 7.41315 6.15627 7.54366 6.10632 7.64359C6.05628 7.74356 6.02299 7.80466 6.0063 7.82683C5.98964 7.84901 5.97575 7.86298 5.96472 7.86847C5.89253 7.89613 5.81746 7.91022 5.73975 7.91022C5.66194 7.91022 5.56757 7.8713 5.45652 7.79351C5.3455 7.71572 5.23028 7.60887 5.11085 7.47278C4.99143 7.33667 4.85674 7.14646 4.70674 6.90212C4.55685 6.65778 4.40133 6.36901 4.24027 6.0358L4.10701 5.79414C4.02371 5.63868 3.90991 5.41232 3.76551 5.11526C3.62102 4.81808 3.49331 4.53062 3.38229 4.25293C3.33791 4.13631 3.27124 4.04752 3.18239 3.98642L3.14069 3.96136C3.11297 3.93918 3.06848 3.91563 3.00744 3.89054C2.94631 3.86548 2.88253 3.8475 2.81582 3.83644L0.533257 3.85302C0.300008 3.85302 0.141747 3.90586 0.0584144 4.0114L0.0250639 4.06132C0.00840327 4.08913 0 4.13354 0 4.19466C0 4.25576 0.0166606 4.33075 0.0500111 4.41954C0.383224 5.20268 0.745586 5.95795 1.1371 6.68547C1.52861 7.413 1.86882 7.99904 2.15754 8.44307C2.44631 8.88742 2.74066 9.3068 3.04058 9.70099C3.3405 10.0953 3.53903 10.348 3.63617 10.4591C3.73342 10.5703 3.8098 10.6535 3.86533 10.709L4.07363 10.9089C4.20692 11.0422 4.40264 11.2019 4.6609 11.3879C4.91921 11.574 5.20518 11.7572 5.51896 11.9379C5.8328 12.1182 6.19791 12.2654 6.61448 12.3792C7.031 12.4932 7.4364 12.5389 7.83074 12.5168H8.78877C8.98307 12.5 9.13027 12.4389 9.23032 12.3335L9.26347 12.2917C9.28576 12.2586 9.30662 12.2071 9.32588 12.1378C9.34537 12.0684 9.35506 11.9919 9.35506 11.9087C9.34937 11.67 9.36755 11.4548 9.40909 11.2632C9.45061 11.0717 9.49794 10.9273 9.55087 10.83C9.60377 10.7328 9.66347 10.6509 9.72991 10.5844C9.79649 10.5178 9.84394 10.4774 9.87177 10.4635C9.89943 10.4496 9.92152 10.4401 9.93818 10.4344C10.0715 10.39 10.2283 10.433 10.409 10.5636C10.5895 10.6941 10.7588 10.8553 10.9172 11.0468C11.0755 11.2385 11.2657 11.4536 11.4878 11.6923C11.71 11.9312 11.9044 12.1087 12.0709 12.2255L12.2375 12.3255C12.3487 12.3922 12.4931 12.4533 12.6708 12.5088C12.8483 12.5643 13.0037 12.5782 13.1372 12.5505L15.2698 12.5172C15.4807 12.5172 15.6448 12.4823 15.7612 12.413C15.8779 12.3436 15.9472 12.2671 15.9695 12.1839C15.9918 12.1006 15.993 12.0061 15.9738 11.9005C15.954 11.7952 15.9346 11.7215 15.9152 11.6798Z" fill="white"/>
</g>
<defs>
<clipPath id="clip0_177_4599">
<rect width="16" height="16" fill="white"/>
</clipPath>
</defs>
</svg>
