<svg width="87" height="12" viewBox="0 0 87 12" fill="none" xmlns="http://www.w3.org/2000/svg">
<g clip-path="url(#clip0_481_183)">
<mask id="mask0_481_183" style="mask-type:luminance" maskUnits="userSpaceOnUse" x="0" y="0" width="87" height="12">
<path d="M0 0H87V12H0V0Z" fill="white"/>
</mask>
<g mask="url(#mask0_481_183)">
<path fill-rule="evenodd" clip-rule="evenodd" d="M-480.58 9.16246V281.242H1439.42V6.41164C1438 5.6635 1436.59 4.78159 1435.2 3.77547C1433.95 4.86507 1432.67 5.78987 1431.39 6.55787C1430.02 7.37067 1428.64 8.00828 1427.26 8.47468C1420.2 10.8587 1412.87 8.85227 1405.89 3.81787C1404.9 4.68405 1403.89 5.2656 1402.87 5.85309C1402.61 6.00463 1402.35 6.15656 1402.08 6.31387C1400.72 7.12667 1399.34 7.76348 1397.95 8.23228C1390.9 10.6155 1383.57 8.69067 1376.59 3.65707C1375.34 4.74667 1374.07 5.66987 1372.78 6.43787C1371.42 7.25227 1370.04 7.88907 1368.65 8.35787C1361.59 10.7395 1354.27 8.81547 1347.29 3.78187C1346.04 4.87067 1344.77 5.79548 1343.48 6.56428C1342.11 7.37708 1340.74 8.01467 1339.35 8.48107C1332.29 10.8635 1324.97 8.94107 1317.99 3.90667C1317.06 4.71879 1316.16 5.2207 1315.23 5.74167C1314.92 5.91967 1314.6 6.09989 1314.27 6.29547C1312.9 7.10827 1311.52 7.74508 1310.14 8.21387C1303.08 10.5963 1295.75 8.67227 1288.78 3.63867C1287.53 4.72827 1286.25 5.65068 1284.97 6.41948C1283.6 7.23388 1282.22 7.86987 1280.84 8.33947C1273.78 10.7211 1266.45 8.79708 1259.48 3.76348C1258.22 4.85228 1256.95 5.77708 1255.66 6.54588C1254.3 7.35868 1252.92 7.99548 1251.53 8.46268C1244.48 10.8459 1237.15 8.83947 1230.17 3.80507C1229.18 4.67007 1228.17 5.25121 1227.16 5.83828C1226.89 5.99072 1226.63 6.14356 1226.36 6.30187C1224.99 7.11467 1223.62 7.75068 1222.23 8.21947C1215.17 10.6027 1207.85 8.67867 1200.87 3.64507C1199.62 4.73467 1198.34 5.65707 1197.06 6.42587C1195.69 7.23947 1194.31 7.87627 1192.93 8.34507C1185.87 10.7275 1178.54 8.80347 1171.57 3.76987C1170.32 4.85867 1169.04 5.78347 1167.76 6.55148C1166.39 7.36428 1165.01 8.00187 1163.63 8.46827C1156.57 10.8523 1149.24 8.81068 1142.26 3.77628C1141.22 4.68643 1140.16 5.30689 1139.09 5.93372C1138.88 6.0573 1138.66 6.18113 1138.45 6.30748C1137.09 7.12028 1135.71 7.75707 1134.32 8.22587C1127.27 10.6091 1119.94 8.68427 1112.96 3.65067C1111.71 4.74107 1110.44 5.66348 1109.15 6.43148C1107.79 7.24588 1106.41 7.88268 1105.02 8.35148C1097.96 10.7339 1090.64 8.80907 1083.66 3.77547C1082.41 4.86507 1081.13 5.78987 1079.85 6.55787C1078.48 7.37067 1077.1 8.00828 1075.72 8.47468C1068.66 10.8587 1061.33 8.85227 1054.36 3.81787C1053.36 4.68367 1052.35 5.26509 1051.34 5.85232C1051.07 6.00411 1050.81 6.15629 1050.54 6.31387C1049.18 7.12667 1047.8 7.76348 1046.41 8.23228C1039.36 10.6155 1032.03 8.69067 1025.05 3.65707C1023.8 4.74667 1022.53 5.66987 1021.24 6.43787C1019.88 7.25227 1018.5 7.88907 1017.11 8.35787C1010.06 10.7395 1002.73 8.81547 995.754 3.78187C994.501 4.87067 993.227 5.79548 991.94 6.56428C990.574 7.37708 989.196 8.01467 987.811 8.48107C980.753 10.8635 973.426 8.94107 966.45 3.90667C965.521 4.71372 964.674 5.17231 963.782 5.65425C963.411 5.85499 963.033 6.05977 962.638 6.29547C961.272 7.10827 959.894 7.74508 958.507 8.21387C951.451 10.5963 944.124 8.67227 937.146 3.63867C935.895 4.72827 934.623 5.65068 933.336 6.41948C931.971 7.23388 930.592 7.86987 929.205 8.33947C922.149 10.7211 914.822 8.79708 907.844 3.76348C906.593 4.85228 905.32 5.77708 904.032 6.54588C902.668 7.35868 901.289 7.99548 899.902 8.46268C892.846 10.8459 885.518 8.83947 878.541 3.80507C877.547 4.67012 876.541 5.25128 875.524 5.83839C875.26 5.99079 874.996 6.1436 874.73 6.30187C873.364 7.11467 871.986 7.75068 870.601 8.21947C863.543 10.6027 856.216 8.67867 849.24 3.64507C847.987 4.73467 846.713 5.65707 845.428 6.42587C844.063 7.23947 842.683 7.87627 841.298 8.34507C834.24 10.7275 826.914 8.80347 819.938 3.76987C818.685 4.85867 817.412 5.78347 816.124 6.55148C814.758 7.36428 813.38 8.00187 811.995 8.46827C804.937 10.8523 797.61 8.81068 790.632 3.77628C789.587 4.68645 788.527 5.30691 787.456 5.93376C787.244 6.05733 787.033 6.18114 786.821 6.30748C785.456 7.12028 784.077 7.75707 782.69 8.22587C775.635 10.6091 768.308 8.68427 761.33 3.65067C760.079 4.74107 758.805 5.66348 757.518 6.43148C756.154 7.24588 754.774 7.88268 753.389 8.35148C746.331 10.7339 739.004 8.80907 732.027 3.77547C730.775 4.86507 729.503 5.78987 728.215 6.55787C726.85 7.37067 725.472 8.00828 724.085 8.47468C717.029 10.8587 709.701 8.85227 702.724 3.81787C701.73 4.68355 700.722 5.26493 699.704 5.85208C699.441 6.00395 699.177 6.15621 698.913 6.31387C697.548 7.12667 696.169 7.76348 694.783 8.23228C687.727 10.6155 680.4 8.69067 673.423 3.65707C672.17 4.74667 670.897 5.66987 669.611 6.43787C668.247 7.25227 666.866 7.88907 665.481 8.35787C658.423 10.7395 651.098 8.81547 644.12 3.78187C642.869 4.87067 641.595 5.79548 640.308 6.56428C638.942 7.37708 637.565 8.01467 636.178 8.48107C629.122 10.8635 621.794 8.94107 614.818 3.90667C613.885 4.7186 612.991 5.22047 612.063 5.7413C611.746 5.91942 611.425 6.09976 611.097 6.29547C609.732 7.10827 608.353 7.74508 606.967 8.21387C599.91 10.5963 592.584 8.67227 585.607 3.63867C584.355 4.72827 583.082 5.65068 581.795 6.41948C580.431 7.23388 579.052 7.86987 577.666 8.33947C570.609 10.7211 563.282 8.79708 556.305 3.76348C555.053 4.85228 553.78 5.77708 552.493 6.54588C551.128 7.35868 549.749 7.99548 548.362 8.46268C541.306 10.8459 533.979 8.83947 527.001 3.80507C526.008 4.66957 525.002 5.25055 523.986 5.83728C523.721 5.99005 523.456 6.14321 523.19 6.30187C521.823 7.11467 520.445 7.75068 519.06 8.21947C512.002 10.6027 504.675 8.67867 497.7 3.64507C496.447 4.73467 495.174 5.65707 493.887 6.42587C492.523 7.23947 491.143 7.87627 489.758 8.34507C482.7 10.7275 475.374 8.80347 468.397 3.76987C467.145 4.85867 465.872 5.78347 464.585 6.55148C463.219 7.36428 461.841 8.00187 460.455 8.46827C453.398 10.8523 446.071 8.81068 439.093 3.77628C438.048 4.68635 436.988 5.30677 435.917 5.93355C435.706 6.05718 435.494 6.18107 435.282 6.30748C433.917 7.12028 432.538 7.75707 431.152 8.22587C424.096 10.6091 416.769 8.68427 409.792 3.65067C408.54 4.74107 407.267 5.66348 405.979 6.43148C404.615 7.24588 403.235 7.88268 401.85 8.35148C394.793 10.7339 387.466 8.80907 380.489 3.77547C379.237 4.86507 377.964 5.78987 376.677 6.55787C375.311 7.37067 373.933 8.00828 372.546 8.47468C365.49 10.8587 358.162 8.85227 351.185 3.81787C350.191 4.68355 349.183 5.26493 348.166 5.85208C347.903 6.00395 347.639 6.15621 347.374 6.31387C346.009 7.12667 344.63 7.76348 343.245 8.23228C336.188 10.6155 328.861 8.69067 321.884 3.65707C320.631 4.74667 319.359 5.66987 318.072 6.43787C316.708 7.25227 315.328 7.88907 313.943 8.35787C306.885 10.7395 299.559 8.81547 292.582 3.78187C291.33 4.87067 290.057 5.79548 288.77 6.56428C287.404 7.37708 286.026 8.01467 284.639 8.48107C277.583 10.8635 270.256 8.94107 263.279 3.90667C262.385 4.68396 261.482 5.17708 260.57 5.67471C260.204 5.87466 259.836 6.07534 259.467 6.29547C258.101 7.10827 256.723 7.74508 255.337 8.21387C248.28 10.5963 240.953 8.67227 233.975 3.63867C232.724 4.72827 231.452 5.65068 230.165 6.41948C228.801 7.23388 227.421 7.86987 226.035 8.33947C218.978 10.7211 211.651 8.79708 204.674 3.76348C203.422 4.85228 202.149 5.77708 200.862 6.54588C199.497 7.35868 198.118 7.99548 196.731 8.46268C189.675 10.8459 182.348 8.83947 175.37 3.80507C174.377 4.67012 173.37 5.25128 172.354 5.83839C172.09 5.99079 171.825 6.1436 171.56 6.30187C170.193 7.11467 168.815 7.75068 167.43 8.21947C160.372 10.6027 153.045 8.67867 146.069 3.64507C144.816 4.73467 143.543 5.65707 142.257 6.42587C140.893 7.23947 139.512 7.87627 138.127 8.34507C131.069 10.7275 123.743 8.80347 116.767 3.76987C115.514 4.85867 114.241 5.78347 112.954 6.55148C111.587 7.36428 110.209 8.00187 108.824 8.46827C101.766 10.8523 94.439 8.81068 87.4622 3.77628C86.4172 4.68625 85.3571 5.30663 84.2862 5.93333C84.0749 6.05704 83.8631 6.181 83.6509 6.30748C82.2858 7.12028 80.9071 7.75707 79.5206 8.22587C72.4649 10.6091 65.138 8.68427 58.1603 3.65067C56.909 4.74107 55.6354 5.66348 54.3483 6.43148C52.9839 7.24588 51.6037 7.88268 50.2187 8.35148C43.1614 10.7339 35.8344 8.80907 28.8576 3.77547C27.6055 4.86507 26.3327 5.78987 25.0456 6.55787C23.6796 7.37067 22.3018 8.00828 20.9152 8.47468C13.8588 10.8587 6.53095 8.85227 -0.445862 3.81787C-1.44006 4.68355 -2.44772 5.26493 -3.46539 5.85208C-3.72863 6.00395 -3.99253 6.15621 -4.25702 6.31387C-5.62214 7.12667 -7.00068 7.76348 -8.38654 8.23228C-15.4429 10.6155 -22.7701 8.69067 -29.7469 3.65707C-30.9998 4.74667 -32.2727 5.66987 -33.5589 6.43787C-34.9233 7.25227 -36.3034 7.88907 -37.6884 8.35787C-44.7464 10.7395 -52.0719 8.81547 -59.0495 3.78187C-60.3009 4.87067 -61.5744 5.79548 -62.8615 6.56428C-64.2275 7.37708 -65.6053 8.01467 -66.9919 8.48107C-74.0483 10.8635 -81.3753 8.94107 -88.3521 3.90667C-89.2851 4.71855 -90.1788 5.2204 -91.1062 5.7412C-91.4234 5.91935 -91.7446 6.09972 -92.0727 6.29547C-93.4378 7.10827 -94.8165 7.74508 -96.2031 8.21387C-103.259 10.5963 -110.586 8.67227 -117.563 3.63867C-118.815 4.72827 -120.087 5.65068 -121.374 6.41948C-122.739 7.23388 -124.118 7.86987 -125.504 8.33947C-132.561 10.7211 -139.888 8.79708 -146.865 3.76348C-148.117 4.85228 -149.39 5.77708 -150.677 6.54588C-152.042 7.35868 -153.421 7.99548 -154.807 8.46268C-161.864 10.8459 -169.191 8.83947 -176.169 3.80507C-177.161 4.66955 -178.168 5.25051 -179.184 5.83722C-179.448 5.99001 -179.714 6.14319 -179.98 6.30187C-181.346 7.11467 -182.724 7.75068 -184.109 8.21947C-191.167 10.6027 -198.494 8.67867 -205.47 3.64507C-206.723 4.73467 -207.996 5.65707 -209.282 6.42587C-210.647 7.23947 -212.027 7.87627 -213.412 8.34507C-220.47 10.7275 -227.795 8.80347 -234.772 3.76987C-236.024 4.85867 -237.298 5.78347 -238.585 6.55148C-239.951 7.36428 -241.329 8.00187 -242.715 8.46827C-249.772 10.8523 -257.099 8.81068 -264.076 3.77628C-265.121 4.68615 -266.181 5.3065 -267.252 5.93313C-267.463 6.05691 -267.675 6.18093 -267.888 6.30748C-269.254 7.12028 -270.632 7.75707 -272.018 8.22587C-279.075 10.6091 -286.402 8.68427 -293.378 3.65067C-294.63 4.74107 -295.902 5.66348 -297.19 6.43148C-298.555 7.24588 -299.934 7.88268 -301.319 8.35148C-308.377 10.7339 -315.704 8.80907 -322.682 3.77547C-323.933 4.86507 -325.206 5.78987 -326.493 6.55787C-327.858 7.37067 -329.237 8.00828 -330.623 8.47468C-337.679 10.8587 -345.008 8.85227 -351.984 3.81787C-352.978 4.68331 -353.986 5.26461 -355.003 5.85159C-355.267 6.00363 -355.531 6.15604 -355.796 6.31387C-357.162 7.12667 -358.539 7.76348 -359.925 8.23228C-366.982 10.6155 -374.31 8.69067 -381.286 3.65707C-382.538 4.74667 -383.81 5.66987 -385.098 6.43787C-386.462 7.25227 -387.841 7.88907 -389.227 8.35787C-396.284 10.7395 -403.611 8.81547 -410.587 3.78187C-411.84 4.87067 -413.114 5.79548 -414.401 6.56428C-415.767 7.37708 -417.145 8.01467 -418.531 8.48107C-425.588 10.8635 -432.916 8.94107 -439.892 3.90667C-440.82 4.71384 -441.668 5.17244 -442.559 5.65446C-442.93 5.85513 -443.309 6.05985 -443.704 6.29547C-445.07 7.10827 -446.447 7.74508 -447.834 8.21387C-454.89 10.5963 -462.218 8.67227 -469.195 3.63867C-470.446 4.72827 -471.718 5.65068 -473.005 6.41948C-474.37 7.23388 -475.749 7.86987 -477.136 8.33947C-478.278 8.72485 -479.427 8.99749 -480.58 9.16246Z" fill="#00AEEF"/>
<path d="M1552.68 4C1551.43 5.0896 1550.16 6.0136 1548.87 6.7816C1547.5 7.5952 1546.13 8.232 1544.74 8.7C1537.68 11.0832 1530.36 9.1584 1523.38 4.1248C1522.13 5.2136 1520.86 6.1368 1519.57 6.9056C1518.2 7.7208 1516.82 8.356 1515.44 8.8256C1508.38 11.208 1501.05 9.2832 1494.08 4.2496C1492.83 5.3376 1491.55 6.2632 1490.27 7.032C1488.9 7.8448 1487.52 8.4816 1486.13 8.9488C1479.08 11.332 1471.75 9.3256 1464.77 4.2912C1463.52 5.3808 1462.25 6.02 1460.96 6.788C1459.6 7.6016 1458.22 8.2376 1456.83 8.7056C1449.78 11.0888 1442.45 9.1648 1435.47 4.1312C1434.22 5.22 1432.95 6.1432 1431.66 6.912C1430.3 7.7264 1428.92 8.3624 1427.53 8.8312C1420.47 11.2144 1413.15 9.2896 1406.17 4.256C1404.92 5.344 1403.64 6.2696 1402.36 7.0376C1400.99 7.8504 1399.61 8.488 1398.23 8.9544C1391.17 11.3376 1383.84 9.2968 1376.86 4.2624C1375.61 5.352 1374.34 6.0264 1373.05 6.7936C1371.69 7.6072 1370.31 8.244 1368.92 8.712C1361.87 11.0952 1354.54 9.1704 1347.56 4.1368C1346.31 5.2264 1345.04 6.1496 1343.75 6.9176C1342.39 7.7328 1341.01 8.3688 1339.62 8.8376C1332.57 11.2208 1325.24 9.2952 1318.26 4.2616C1317.01 5.3504 1315.74 6.276 1314.45 7.044C1313.08 7.8568 1311.7 8.4944 1310.32 8.9608C1303.26 11.344 1295.93 9.3384 1288.96 4.304C1287.71 5.3936 1286.43 6.0328 1285.15 6.8C1283.78 7.6136 1282.4 8.2504 1281.02 8.7184C1273.96 11.1016 1266.63 9.1768 1259.66 4.1432C1258.4 5.232 1257.13 6.156 1255.84 6.924C1254.48 7.7392 1253.1 8.3752 1251.71 8.844C1244.66 11.2264 1237.33 9.3016 1230.35 4.268C1229.1 5.356 1227.83 6.2816 1226.54 7.0504C1225.17 7.8632 1223.8 8.5008 1222.41 8.9672C1215.35 11.3504 1208.03 9.4272 1201.05 4.3928C1199.8 5.4824 1198.62 6.0136 1197.33 6.7816C1195.96 7.5952 1194.59 8.232 1193.2 8.7C1186.14 11.0832 1178.82 9.1584 1171.84 4.1248C1170.59 5.2136 1169.32 6.1368 1168.03 6.9056C1166.66 7.7208 1165.29 8.356 1163.9 8.8256C1156.84 11.208 1149.52 9.2832 1142.54 4.2496C1141.29 5.3376 1140.01 6.2632 1138.73 7.032C1137.36 7.8448 1135.98 8.4816 1134.6 8.9488C1127.54 11.332 1120.21 9.3256 1113.23 4.2912C1111.98 5.3808 1110.71 6.02 1109.42 6.788C1108.06 7.6016 1106.68 8.2376 1105.29 8.7056C1098.24 11.0888 1090.91 9.1648 1083.93 4.1312C1082.68 5.22 1081.41 6.1432 1080.12 6.912C1078.76 7.7264 1077.38 8.3624 1075.99 8.8312C1068.93 11.2144 1061.61 9.2896 1054.63 4.256C1053.38 5.344 1052.1 6.2696 1050.82 7.0376C1049.45 7.8504 1048.07 8.488 1046.69 8.9544C1039.63 11.3376 1032.3 9.2968 1025.33 4.2624C1024.07 5.352 1022.8 6.0264 1021.52 6.7936C1020.15 7.6072 1018.77 8.244 1017.38 8.712C1010.33 11.0952 1003 9.1704 996.023 4.1368C994.772 5.2264 993.5 6.1496 992.213 6.9176C990.848 7.7328 989.469 8.3688 988.084 8.8376C981.026 11.2208 973.698 9.2952 966.721 4.2616C965.469 5.3504 964.196 6.276 962.909 7.044C961.544 7.8568 960.165 8.4944 958.778 8.9608C951.724 11.344 944.395 9.3384 937.419 4.304C936.166 5.3936 934.894 6.0328 933.607 6.8C932.24 7.6136 930.863 8.2504 929.477 8.7184C922.42 11.1016 915.093 9.1768 908.117 4.1432C906.864 5.232 905.592 6.156 904.305 6.924C902.94 7.7392 901.561 8.3752 900.175 8.844C893.118 11.2264 885.791 9.3016 878.815 4.268C877.562 5.356 876.289 6.2816 875.002 7.0504C873.635 7.8632 872.258 8.5008 870.872 8.9672C863.814 11.3504 856.487 9.4272 849.511 4.3928C848.258 5.4824 846.986 6.0136 845.699 6.7816C844.332 7.5952 842.955 8.232 841.569 8.7C834.512 11.0832 827.185 9.1584 820.208 4.1248C818.956 5.2136 817.684 6.1368 816.397 6.9056C815.032 7.7208 813.653 8.356 812.267 8.8256C805.21 11.208 797.883 9.2832 790.906 4.2496C789.654 5.3376 788.381 6.2632 787.094 7.032C785.729 7.8448 784.35 8.4816 782.963 8.9488C775.907 11.332 768.58 9.3256 761.602 4.2912C760.351 5.3808 759.079 6.02 757.792 6.788C756.425 7.6016 755.048 8.2376 753.662 8.7056C746.604 11.0888 739.277 9.1648 732.301 4.1312C731.048 5.22 729.775 6.1432 728.489 6.912C727.124 7.7264 725.744 8.3624 724.359 8.8312C717.301 11.2144 709.975 9.2896 702.999 4.256C701.746 5.344 700.473 6.2696 699.186 7.0376C697.819 7.8504 696.442 8.488 695.056 8.9544C687.998 11.3376 680.671 9.2968 673.694 4.2624C672.442 5.352 671.169 6.0264 669.882 6.7936C668.516 7.6072 667.139 8.244 665.752 8.712C658.696 11.0952 651.369 9.1704 644.392 4.1368C643.14 5.2264 641.867 6.1496 640.58 6.9176C639.215 7.7328 637.836 8.3688 636.45 8.8376C629.393 11.2208 622.066 9.2952 615.089 4.2616C613.837 5.3504 612.564 6.276 611.277 7.044C609.91 7.8568 608.533 8.4944 607.147 8.9608C600.09 11.344 592.762 9.3384 585.786 4.304C584.534 5.3936 583.261 6.0328 581.974 6.8C580.608 7.6136 579.231 8.2504 577.845 8.7184C570.788 11.1016 563.461 9.1768 556.484 4.1432C555.232 5.232 553.959 6.156 552.672 6.924C551.307 7.7392 549.928 8.3752 548.543 8.844C541.485 11.2264 534.159 9.3016 527.182 4.268C525.931 5.356 524.657 6.2816 523.37 7.0504C522.003 7.8632 520.626 8.5008 519.239 8.9672C512.183 11.3504 504.856 9.4272 497.879 4.3928C496.627 5.4824 495.446 6.0136 494.159 6.7816C492.793 7.5952 491.415 8.232 490.028 8.7C482.972 11.0832 475.646 9.1584 468.668 4.1248C467.417 5.2136 466.144 6.1368 464.857 6.9056C463.492 7.7208 462.113 8.356 460.727 8.8256C453.67 11.208 446.343 9.2832 439.366 4.2496C438.114 5.3376 436.841 6.2632 435.554 7.032C434.188 7.8448 432.81 8.4816 431.424 8.9488C424.367 11.332 417.04 9.3256 410.063 4.2912C408.811 5.3808 407.539 6.02 406.252 6.788C404.885 7.6016 403.508 8.2376 402.122 8.7056C395.064 11.0888 387.737 9.1648 380.762 4.1312C379.508 5.22 378.235 6.1432 376.949 6.912C375.584 7.7264 374.204 8.3624 372.819 8.8312C365.761 11.2144 358.436 9.2896 351.459 4.256C350.207 5.344 348.933 6.2696 347.646 7.0376C346.28 7.8504 344.903 8.488 343.517 8.9544C336.46 11.3376 329.132 9.2968 322.155 4.2624C320.904 5.352 319.631 6.0264 318.344 6.7936C316.978 7.6072 315.6 8.244 314.213 8.712C307.158 11.0952 299.831 9.1704 292.853 4.1368C291.602 5.2264 290.328 6.1496 289.041 6.9176C287.677 7.7328 286.297 8.3688 284.911 8.8376C277.854 11.2208 270.527 9.2952 263.55 4.2616C262.298 5.3504 261.025 6.276 259.738 7.044C258.372 7.8568 256.995 8.4944 255.608 8.9608C248.552 11.344 241.224 9.3384 234.247 4.304C232.996 5.3936 231.723 6.0328 230.436 6.8C229.07 7.6136 227.692 8.2504 226.306 8.7184C219.25 11.1016 211.923 9.1768 204.946 4.1432C203.693 5.232 202.42 6.156 201.134 6.924C199.769 7.7392 198.389 8.3752 197.004 8.844C189.946 11.2264 182.621 9.3016 175.643 4.268C174.392 5.356 173.118 6.2816 171.831 7.0504C170.464 7.8632 169.087 8.5008 167.701 8.9672C160.644 11.3504 153.317 9.4272 146.341 4.3928C145.088 5.4824 143.816 6.0136 142.528 6.7816C141.162 7.5952 139.785 8.232 138.398 8.7C131.342 11.0832 124.015 9.1584 117.037 4.1248C115.786 5.2136 114.514 6.1368 113.227 6.9056C111.861 7.7208 110.483 8.356 109.096 8.8256C102.04 11.208 94.7127 9.2832 87.7351 4.2496C86.4838 5.3376 85.2103 6.2632 83.9232 7.032C82.5581 7.8448 81.1794 8.4816 79.7928 8.9488C72.7364 11.332 65.4092 9.3256 58.4316 4.2912C57.1803 5.3808 55.9084 6.02 54.6213 6.788C53.2546 7.6016 51.8776 8.2376 50.4917 8.7056C43.4337 11.0888 36.1066 9.1648 29.1306 4.1312C27.8777 5.22 26.6042 6.1432 25.3187 6.912C23.9536 7.7264 22.5734 8.3624 21.1884 8.8312C14.1304 11.2144 6.80489 9.2896 -0.171143 4.256C-1.42402 5.344 -2.69762 6.2696 -3.98474 7.0376C-5.35144 7.8504 -6.72857 8.488 -8.11438 8.9544C-15.1724 11.3376 -22.4994 9.2968 -29.4762 4.2624C-30.7275 5.352 -32.0003 6.0264 -33.2874 6.7936C-34.6533 7.6072 -36.0312 8.244 -37.4178 8.712C-44.4735 11.0952 -51.8005 9.1704 -58.7781 4.1368C-60.0294 5.2264 -61.3029 6.1496 -62.59 6.9176C-63.9544 7.7328 -65.3339 8.3688 -66.7197 8.8376C-73.7769 11.2208 -81.1039 9.2952 -88.0808 4.2616C-89.3329 5.3504 -90.6057 6.276 -91.8928 7.044C-93.2595 7.8568 -94.6365 8.4944 -96.0231 8.9608C-103.08 11.344 -110.407 9.3384 -117.384 4.304C-118.635 5.3936 -119.908 6.0328 -121.195 6.8C-122.561 7.6136 -123.939 8.2504 -125.325 8.7184C-132.381 11.1016 -139.708 9.1768 -146.685 4.1432C-147.938 5.232 -149.211 6.156 -150.497 6.924C-151.862 7.7392 -153.242 8.3752 -154.627 8.844C-161.685 11.2264 -169.01 9.3016 -175.988 4.268C-177.239 5.356 -178.513 6.2816 -179.8 7.0504C-181.167 7.8632 -182.544 8.5008 -183.93 8.9672C-190.987 11.3504 -198.314 9.4272 -205.291 4.3928C-206.543 5.4824 -207.724 6.0136 -209.011 6.7816C-210.377 7.5952 -211.755 8.232 -213.141 8.7C-220.198 11.0832 -227.524 9.1584 -234.502 4.1248C-235.753 5.2136 -237.026 6.1368 -238.313 6.9056C-239.678 7.7208 -241.057 8.356 -242.443 8.8256C-249.5 11.208 -256.827 9.2832 -263.804 4.2496C-265.056 5.3376 -266.328 6.2632 -267.616 7.032C-268.982 7.8448 -270.359 8.4816 -271.746 8.9488C-278.802 11.332 -286.129 9.3256 -293.107 4.2912C-294.358 5.3808 -295.631 6.02 -296.918 6.788C-298.285 7.6016 -299.662 8.2376 -301.048 8.7056C-308.106 11.0888 -315.433 9.1648 -322.408 4.1312C-323.662 5.22 -324.935 6.1432 -326.221 6.912C-327.586 7.7264 -328.965 8.3624 -330.35 8.8312C-337.408 11.2144 -344.734 9.2896 -351.711 4.256C-352.963 5.344 -354.236 6.2696 -355.524 7.0376C-356.89 7.8504 -358.267 8.488 -359.653 8.9544C-366.71 11.3376 -374.037 9.2968 -381.014 4.2624C-382.266 5.352 -383.539 6.0264 -384.826 6.7936C-386.193 7.6072 -387.57 8.244 -388.957 8.712C-396.013 11.0952 -403.34 9.1704 -410.317 4.1368C-411.569 5.2264 -412.841 6.1496 -414.128 6.9176C-415.493 7.7328 -416.872 8.3688 -418.258 8.8376C-425.316 11.2208 -432.643 9.2952 -439.62 4.2616C-440.872 5.3504 -442.144 6.276 -443.431 7.044C-444.797 7.8568 -446.175 8.4944 -447.562 8.9608C-454.618 11.344 -461.946 9.3384 -468.922 4.304C-470.174 5.3936 -471.447 6.0328 -472.734 6.8C-474.101 7.6136 -475.478 8.2504 -476.864 8.7184C-483.921 11.1016 -491.248 9.1768 -498.224 4.1432C-499.477 5.232 -500.749 6.156 -502.036 6.924C-503.401 7.7392 -504.78 8.3752 -506.166 8.844C-513.223 11.2264 -520.549 9.3016 -527.526 4.268C-528.779 5.356 -530.052 6.2816 -531.339 7.0504C-532.705 7.8632 -534.082 8.5008 -535.469 8.9672C-542.526 11.3504 -549.854 9.4272 -556.83 4.3928C-558.083 5.4824 -559.355 6.0136 -560.642 6.7816C-562.009 7.5952 -563.386 8.232 -564.773 8.7C-571.829 11.0832 -579.156 9.1584 -586.134 4.1248C-587.385 5.2136 -588.657 6.1368 -589.944 6.9056C-591.309 7.7208 -592.688 8.356 -594.074 8.8256C-601.131 11.208 -608.458 9.2832 -615.435 4.2496C-616.687 5.3376 -617.96 6.2632 -619.247 7.032C-620.613 7.8448 -621.991 8.4816 -623.378 8.9488C-630.434 11.332 -637.761 9.3256 -644.739 4.2912C-645.99 5.3808 -647.262 6.02 -648.549 6.788C-649.916 7.6016 -651.293 8.2376 -652.679 8.7056C-659.737 11.0888 -667.064 9.1648 -674.04 4.1312C-675.293 5.22 -676.566 6.1432 -677.852 6.912C-679.217 7.7264 -680.597 8.3624 -681.982 8.8312C-689.04 11.2144 -696.366 9.2896 -703.342 4.256C-704.595 5.344 -705.868 6.2696 -707.155 7.0376C-708.522 7.8504 -709.899 8.488 -711.285 8.9544C-718.343 11.3376 -725.67 9.2968 -732.647 4.2624C-733.898 5.352 -735.171 6.0264 -736.458 6.7936C-737.824 7.6072 -739.202 8.244 -740.588 8.712C-747.644 11.0952 -754.971 9.1704 -761.949 4.1368C-763.2 5.2264 -764.474 6.1496 -765.761 6.9176C-767.125 7.7328 -768.504 8.3688 -769.89 8.8376C-776.948 11.2208 -784.275 9.2952 -791.251 4.2616C-792.503 5.3504 -793.776 6.276 -795.063 7.044C-796.43 7.8568 -797.807 8.4944 -799.194 8.9608C-806.25 11.344 -813.578 9.3384 -820.555 4.304C-821.806 5.3936 -823.079 6.0328 -824.366 6.8C-825.732 7.6136 -827.11 8.2504 -828.496 8.7184C-835.552 11.1016 -842.879 9.1768 -849.856 4.1432C-851.109 5.232 -852.382 6.156 -853.668 6.924C-855.033 7.7392 -856.412 8.3752 -857.798 8.844C-864.856 11.2264 -872.181 9.3016 -879.159 4.268C-880.41 5.356 -881.683 6.2816 -882.971 7.0504C-884.337 7.8632 -885.714 8.5008 -887.101 8.9672C-894.157 11.3504 -901.484 9.4272 -908.461 4.3928C-909.713 5.4824 -910.895 6.0136 -912.182 6.7816C-913.548 7.5952 -914.925 8.232 -916.312 8.7C-923.368 11.0832 -930.695 9.1584 -937.672 4.1248C-938.924 5.2136 -940.196 6.1368 -941.484 6.9056C-942.849 7.7208 -944.227 8.356 -945.613 8.8256C-952.67 11.208 -959.997 9.2832 -966.974 4.2496C-968.226 5.3376 -969.499 6.2632 -970.786 7.032C-972.152 7.8448 -973.53 8.4816 -974.917 8.9488C-981.973 11.332 -989.3 9.3256 -996.278 4.2912C-997.529 5.3808 -998.802 6.02 -1000.09 6.788C-1001.46 7.6016 -1002.83 8.2376 -1004.22 8.7056C-1011.28 11.0888 -1018.6 9.1648 -1025.58 4.1312C-1026.83 5.22 -1028.11 6.1432 -1029.39 6.912C-1030.76 7.7264 -1032.14 8.3624 -1033.52 8.8312C-1040.58 11.2144 -1047.9 9.2896 -1054.88 4.256C-1056.13 5.344 -1057.41 6.2696 -1058.69 7.0376C-1060.06 7.8504 -1061.44 8.488 -1062.82 8.9544C-1069.88 11.3376 -1077.21 9.2968 -1084.18 4.2624C-1085.44 5.352 -1086.71 6.0264 -1088 6.7936C-1089.36 7.6072 -1090.74 8.244 -1092.13 8.712C-1099.18 11.0952 -1106.51 9.1704 -1113.49 4.1368C-1114.74 5.2264 -1116.01 6.1496 -1117.3 6.9176C-1118.66 7.7328 -1120.04 8.3688 -1121.43 8.8376C-1128.49 11.2208 -1135.81 9.2952 -1142.79 4.2616C-1144.04 5.3504 -1145.32 6.276 -1146.6 7.044C-1147.97 7.8568 -1149.35 8.4944 -1150.73 8.9608C-1157.79 11.344 -1165.12 9.3384 -1172.09 4.304C-1173.35 5.3936 -1174.62 6.0328 -1175.91 6.8C-1177.27 7.6136 -1178.65 8.2504 -1180.04 8.7184C-1187.09 11.1016 -1194.42 9.1768 -1201.4 4.1432C-1202.65 5.232 -1203.92 6.156 -1205.21 6.924C-1206.57 7.7392 -1207.95 8.3752 -1209.34 8.844C-1216.4 11.2264 -1223.72 9.3016 -1230.7 4.268C-1231.95 5.356 -1233.22 6.2816 -1234.51 7.0504C-1235.88 7.8632 -1237.25 8.5008 -1238.64 8.9672C-1245.7 11.3504 -1253.02 9.4272 -1260 4.3928" stroke="#10192E" stroke-miterlimit="10"/>
<path d="M1552.68 1C1551.43 2.0896 1550.16 3.0136 1548.87 3.7816C1547.5 4.5952 1546.13 5.232 1544.74 5.7C1537.68 8.0832 1530.36 6.1584 1523.38 1.1248C1522.13 2.2136 1520.86 3.1368 1519.57 3.9056C1518.2 4.7208 1516.82 5.356 1515.44 5.8256C1508.38 8.208 1501.05 6.2832 1494.08 1.2496C1492.83 2.3376 1491.55 3.2632 1490.27 4.032C1488.9 4.8448 1487.52 5.4816 1486.13 5.9488C1479.08 8.332 1471.75 6.3256 1464.77 1.2912C1463.52 2.3808 1462.25 3.02 1460.96 3.788C1459.6 4.6016 1458.22 5.2376 1456.83 5.7056C1449.78 8.0888 1442.45 6.1648 1435.47 1.1312C1434.22 2.22 1432.95 3.1432 1431.66 3.912C1430.3 4.7264 1428.92 5.3624 1427.53 5.8312C1420.47 8.2144 1413.15 6.2896 1406.17 1.256C1404.92 2.344 1403.64 3.2696 1402.36 4.0376C1400.99 4.8504 1399.61 5.488 1398.23 5.9544C1391.17 8.3376 1383.84 6.2968 1376.86 1.2624C1375.61 2.352 1374.34 3.0264 1373.05 3.7936C1371.69 4.6072 1370.31 5.244 1368.92 5.712C1361.87 8.0952 1354.54 6.1704 1347.56 1.1368C1346.31 2.2264 1345.04 3.1496 1343.75 3.9176C1342.39 4.7328 1341.01 5.3688 1339.62 5.8376C1332.57 8.2208 1325.24 6.2952 1318.26 1.2616C1317.01 2.3504 1315.74 3.276 1314.45 4.044C1313.08 4.8568 1311.7 5.4944 1310.32 5.9608C1303.26 8.344 1295.93 6.3384 1288.96 1.304C1287.71 2.3936 1286.43 3.0328 1285.15 3.8C1283.78 4.6136 1282.4 5.2504 1281.02 5.7184C1273.96 8.1016 1266.63 6.1768 1259.66 1.1432C1258.4 2.232 1257.13 3.156 1255.84 3.924C1254.48 4.7392 1253.1 5.3752 1251.71 5.844C1244.66 8.2264 1237.33 6.3016 1230.35 1.268C1229.1 2.356 1227.83 3.2816 1226.54 4.0504C1225.17 4.8632 1223.8 5.5008 1222.41 5.9672C1215.35 8.3504 1208.03 6.4272 1201.05 1.3928C1199.8 2.4824 1198.62 3.0136 1197.33 3.7816C1195.96 4.5952 1194.59 5.232 1193.2 5.7C1186.14 8.0832 1178.82 6.1584 1171.84 1.1248C1170.59 2.2136 1169.32 3.1368 1168.03 3.9056C1166.66 4.7208 1165.29 5.356 1163.9 5.8256C1156.84 8.208 1149.52 6.2832 1142.54 1.2496C1141.29 2.3376 1140.01 3.2632 1138.73 4.032C1137.36 4.8448 1135.98 5.4816 1134.6 5.9488C1127.54 8.332 1120.21 6.3256 1113.23 1.2912C1111.98 2.3808 1110.71 3.02 1109.42 3.788C1108.06 4.6016 1106.68 5.2376 1105.29 5.7056C1098.24 8.0888 1090.91 6.1648 1083.93 1.1312C1082.68 2.22 1081.41 3.1432 1080.12 3.912C1078.76 4.7264 1077.38 5.3624 1075.99 5.8312C1068.93 8.2144 1061.61 6.2896 1054.63 1.256C1053.38 2.344 1052.1 3.2696 1050.82 4.0376C1049.45 4.8504 1048.07 5.488 1046.69 5.9544C1039.63 8.3376 1032.3 6.2968 1025.33 1.2624C1024.07 2.352 1022.8 3.0264 1021.52 3.7936C1020.15 4.6072 1018.77 5.244 1017.38 5.712C1010.33 8.0952 1003 6.1704 996.023 1.1368C994.772 2.2264 993.5 3.1496 992.213 3.9176C990.848 4.7328 989.469 5.3688 988.084 5.8376C981.026 8.2208 973.698 6.2952 966.721 1.2616C965.469 2.3504 964.196 3.276 962.909 4.044C961.544 4.8568 960.165 5.4944 958.778 5.9608C951.724 8.344 944.395 6.3384 937.419 1.304C936.166 2.3936 934.894 3.0328 933.607 3.8C932.24 4.6136 930.863 5.2504 929.477 5.7184C922.42 8.1016 915.093 6.1768 908.117 1.1432C906.864 2.232 905.592 3.156 904.305 3.924C902.94 4.7392 901.561 5.3752 900.175 5.844C893.118 8.2264 885.791 6.3016 878.815 1.268C877.562 2.356 876.289 3.2816 875.002 4.0504C873.635 4.8632 872.258 5.5008 870.872 5.9672C863.814 8.3504 856.487 6.4272 849.511 1.3928C848.258 2.4824 846.986 3.0136 845.699 3.7816C844.332 4.5952 842.955 5.232 841.569 5.7C834.512 8.0832 827.185 6.1584 820.208 1.1248C818.956 2.2136 817.684 3.1368 816.397 3.9056C815.032 4.7208 813.653 5.356 812.267 5.8256C805.21 8.208 797.883 6.2832 790.906 1.2496C789.654 2.3376 788.381 3.2632 787.094 4.032C785.729 4.8448 784.35 5.4816 782.963 5.9488C775.907 8.332 768.58 6.3256 761.602 1.2912C760.351 2.3808 759.079 3.02 757.792 3.788C756.425 4.6016 755.048 5.2376 753.662 5.7056C746.604 8.0888 739.277 6.1648 732.301 1.1312C731.048 2.22 729.775 3.1432 728.489 3.912C727.124 4.7264 725.744 5.3624 724.359 5.8312C717.301 8.2144 709.975 6.2896 702.999 1.256C701.746 2.344 700.473 3.2696 699.186 4.0376C697.819 4.8504 696.442 5.488 695.056 5.9544C687.998 8.3376 680.671 6.2968 673.694 1.2624C672.442 2.352 671.169 3.0264 669.882 3.7936C668.516 4.6072 667.139 5.244 665.752 5.712C658.696 8.0952 651.369 6.1704 644.392 1.1368C643.14 2.2264 641.867 3.1496 640.58 3.9176C639.215 4.7328 637.836 5.3688 636.45 5.8376C629.393 8.2208 622.066 6.2952 615.089 1.2616C613.837 2.3504 612.564 3.276 611.277 4.044C609.91 4.8568 608.533 5.4944 607.147 5.9608C600.09 8.344 592.762 6.3384 585.786 1.304C584.534 2.3936 583.261 3.0328 581.974 3.8C580.608 4.6136 579.231 5.2504 577.845 5.7184C570.788 8.1016 563.461 6.1768 556.484 1.1432C555.232 2.232 553.959 3.156 552.672 3.924C551.307 4.7392 549.928 5.3752 548.543 5.844C541.485 8.2264 534.159 6.3016 527.182 1.268C525.931 2.356 524.657 3.2816 523.37 4.0504C522.003 4.8632 520.626 5.5008 519.239 5.9672C512.183 8.3504 504.856 6.4272 497.879 1.3928C496.627 2.4824 495.446 3.0136 494.159 3.7816C492.793 4.5952 491.415 5.232 490.028 5.7C482.972 8.0832 475.646 6.1584 468.668 1.1248C467.417 2.2136 466.144 3.1368 464.857 3.9056C463.492 4.7208 462.113 5.356 460.727 5.8256C453.67 8.208 446.343 6.2832 439.366 1.2496C438.114 2.3376 436.841 3.2632 435.554 4.032C434.188 4.8448 432.81 5.4816 431.424 5.9488C424.367 8.332 417.04 6.3256 410.063 1.2912C408.811 2.3808 407.539 3.02 406.252 3.788C404.885 4.6016 403.508 5.2376 402.122 5.7056C395.064 8.0888 387.737 6.1648 380.762 1.1312C379.508 2.22 378.235 3.1432 376.949 3.912C375.584 4.7264 374.204 5.3624 372.819 5.8312C365.761 8.2144 358.436 6.2896 351.459 1.256C350.207 2.344 348.933 3.2696 347.646 4.0376C346.28 4.8504 344.903 5.488 343.517 5.9544C336.46 8.3376 329.132 6.2968 322.155 1.2624C320.904 2.352 319.631 3.0264 318.344 3.7936C316.978 4.6072 315.6 5.244 314.213 5.712C307.158 8.0952 299.831 6.1704 292.853 1.1368C291.602 2.2264 290.328 3.1496 289.041 3.9176C287.677 4.7328 286.297 5.3688 284.911 5.8376C277.854 8.2208 270.527 6.2952 263.55 1.2616C262.298 2.3504 261.025 3.276 259.738 4.044C258.372 4.8568 256.995 5.4944 255.608 5.9608C248.552 8.344 241.224 6.3384 234.247 1.304C232.996 2.3936 231.723 3.0328 230.436 3.8C229.07 4.6136 227.692 5.2504 226.306 5.7184C219.25 8.1016 211.923 6.1768 204.946 1.1432C203.693 2.232 202.42 3.156 201.134 3.924C199.769 4.7392 198.389 5.3752 197.004 5.844C189.946 8.2264 182.621 6.3016 175.643 1.268C174.392 2.356 173.118 3.2816 171.831 4.0504C170.464 4.8632 169.087 5.5008 167.701 5.9672C160.644 8.3504 153.317 6.4272 146.341 1.3928C145.088 2.4824 143.816 3.0136 142.528 3.7816C141.162 4.5952 139.785 5.232 138.398 5.7C131.342 8.0832 124.015 6.1584 117.037 1.1248C115.786 2.2136 114.514 3.1368 113.227 3.9056C111.861 4.7208 110.483 5.356 109.096 5.8256C102.04 8.208 94.7127 6.2832 87.7351 1.2496C86.4838 2.3376 85.2103 3.2632 83.9232 4.032C82.5581 4.8448 81.1794 5.4816 79.7928 5.9488C72.7364 8.332 65.4092 6.3256 58.4316 1.2912C57.1803 2.3808 55.9084 3.02 54.6213 3.788C53.2546 4.6016 51.8776 5.2376 50.4917 5.7056C43.4337 8.0888 36.1066 6.1648 29.1306 1.1312C27.8777 2.22 26.6042 3.1432 25.3187 3.912C23.9536 4.7264 22.5734 5.3624 21.1884 5.8312C14.1304 8.2144 6.80489 6.2896 -0.171143 1.256C-1.42402 2.344 -2.69762 3.2696 -3.98474 4.0376C-5.35144 4.8504 -6.72857 5.488 -8.11438 5.9544C-15.1724 8.3376 -22.4994 6.2968 -29.4762 1.2624C-30.7275 2.352 -32.0003 3.0264 -33.2874 3.7936C-34.6533 4.6072 -36.0312 5.244 -37.4178 5.712C-44.4735 8.0952 -51.8005 6.1704 -58.7781 1.1368C-60.0294 2.2264 -61.3029 3.1496 -62.59 3.9176C-63.9544 4.7328 -65.3339 5.3688 -66.7197 5.8376C-73.7769 8.2208 -81.1039 6.2952 -88.0808 1.2616C-89.3329 2.3504 -90.6057 3.276 -91.8928 4.044C-93.2595 4.8568 -94.6365 5.4944 -96.0231 5.9608C-103.08 8.344 -110.407 6.3384 -117.384 1.304C-118.635 2.3936 -119.908 3.0328 -121.195 3.8C-122.561 4.6136 -123.939 5.2504 -125.325 5.7184C-132.381 8.1016 -139.708 6.1768 -146.685 1.1432C-147.938 2.232 -149.211 3.156 -150.497 3.924C-151.862 4.7392 -153.242 5.3752 -154.627 5.844C-161.685 8.2264 -169.01 6.3016 -175.988 1.268C-177.239 2.356 -178.513 3.2816 -179.8 4.0504C-181.167 4.8632 -182.544 5.5008 -183.93 5.9672C-190.987 8.3504 -198.314 6.4272 -205.291 1.3928C-206.543 2.4824 -207.724 3.0136 -209.011 3.7816C-210.377 4.5952 -211.755 5.232 -213.141 5.7C-220.198 8.0832 -227.524 6.1584 -234.502 1.1248C-235.753 2.2136 -237.026 3.1368 -238.313 3.9056C-239.678 4.7208 -241.057 5.356 -242.443 5.8256C-249.5 8.208 -256.827 6.2832 -263.804 1.2496C-265.056 2.3376 -266.328 3.2632 -267.616 4.032C-268.982 4.8448 -270.359 5.4816 -271.746 5.9488C-278.802 8.332 -286.129 6.3256 -293.107 1.2912C-294.358 2.3808 -295.631 3.02 -296.918 3.788C-298.285 4.6016 -299.662 5.2376 -301.048 5.7056C-308.106 8.0888 -315.433 6.1648 -322.408 1.1312C-323.662 2.22 -324.935 3.1432 -326.221 3.912C-327.586 4.7264 -328.965 5.3624 -330.35 5.8312C-337.408 8.2144 -344.734 6.2896 -351.711 1.256C-352.963 2.344 -354.236 3.2696 -355.524 4.0376C-356.89 4.8504 -358.267 5.488 -359.653 5.9544C-366.71 8.3376 -374.037 6.2968 -381.014 1.2624C-382.266 2.352 -383.539 3.0264 -384.826 3.7936C-386.193 4.6072 -387.57 5.244 -388.957 5.712C-396.013 8.0952 -403.34 6.1704 -410.317 1.1368C-411.569 2.2264 -412.841 3.1496 -414.128 3.9176C-415.493 4.7328 -416.872 5.3688 -418.258 5.8376C-425.316 8.2208 -432.643 6.2952 -439.62 1.2616C-440.872 2.3504 -442.144 3.276 -443.431 4.044C-444.797 4.8568 -446.175 5.4944 -447.562 5.9608C-454.618 8.344 -461.946 6.3384 -468.922 1.304C-470.174 2.3936 -471.447 3.0328 -472.734 3.8C-474.101 4.6136 -475.478 5.2504 -476.864 5.7184C-483.921 8.1016 -491.248 6.1768 -498.224 1.1432C-499.477 2.232 -500.749 3.156 -502.036 3.924C-503.401 4.7392 -504.78 5.3752 -506.166 5.844C-513.223 8.2264 -520.549 6.3016 -527.526 1.268C-528.779 2.356 -530.052 3.2816 -531.339 4.0504C-532.705 4.8632 -534.082 5.5008 -535.469 5.9672C-542.526 8.3504 -549.854 6.4272 -556.83 1.3928C-558.083 2.4824 -559.355 3.0136 -560.642 3.7816C-562.009 4.5952 -563.386 5.232 -564.773 5.7C-571.829 8.0832 -579.156 6.1584 -586.134 1.1248C-587.385 2.2136 -588.657 3.1368 -589.944 3.9056C-591.309 4.7208 -592.688 5.356 -594.074 5.8256C-601.131 8.208 -608.458 6.2832 -615.435 1.2496C-616.687 2.3376 -617.96 3.2632 -619.247 4.032C-620.613 4.8448 -621.991 5.4816 -623.378 5.9488C-630.434 8.332 -637.761 6.3256 -644.739 1.2912C-645.99 2.3808 -647.262 3.02 -648.549 3.788C-649.916 4.6016 -651.293 5.2376 -652.679 5.7056C-659.737 8.0888 -667.064 6.1648 -674.04 1.1312C-675.293 2.22 -676.566 3.1432 -677.852 3.912C-679.217 4.7264 -680.597 5.3624 -681.982 5.8312C-689.04 8.2144 -696.366 6.2896 -703.342 1.256C-704.595 2.344 -705.868 3.2696 -707.155 4.0376C-708.522 4.8504 -709.899 5.488 -711.285 5.9544C-718.343 8.3376 -725.67 6.2968 -732.647 1.2624C-733.898 2.352 -735.171 3.0264 -736.458 3.7936C-737.824 4.6072 -739.202 5.244 -740.588 5.712C-747.644 8.0952 -754.971 6.1704 -761.949 1.1368C-763.2 2.2264 -764.474 3.1496 -765.761 3.9176C-767.125 4.7328 -768.504 5.3688 -769.89 5.8376C-776.948 8.2208 -784.275 6.2952 -791.251 1.2616C-792.503 2.3504 -793.776 3.276 -795.063 4.044C-796.43 4.8568 -797.807 5.4944 -799.194 5.9608C-806.25 8.344 -813.578 6.3384 -820.555 1.304C-821.806 2.3936 -823.079 3.0328 -824.366 3.8C-825.732 4.6136 -827.11 5.2504 -828.496 5.7184C-835.552 8.1016 -842.879 6.1768 -849.856 1.1432C-851.109 2.232 -852.382 3.156 -853.668 3.924C-855.033 4.7392 -856.412 5.3752 -857.798 5.844C-864.856 8.2264 -872.181 6.3016 -879.159 1.268C-880.41 2.356 -881.683 3.2816 -882.971 4.0504C-884.337 4.8632 -885.714 5.5008 -887.101 5.9672C-894.157 8.3504 -901.484 6.4272 -908.461 1.3928C-909.713 2.4824 -910.895 3.0136 -912.182 3.7816C-913.548 4.5952 -914.925 5.232 -916.312 5.7C-923.368 8.0832 -930.695 6.1584 -937.672 1.1248C-938.924 2.2136 -940.196 3.1368 -941.484 3.9056C-942.849 4.7208 -944.227 5.356 -945.613 5.8256C-952.67 8.208 -959.997 6.2832 -966.974 1.2496C-968.226 2.3376 -969.499 3.2632 -970.786 4.032C-972.152 4.8448 -973.53 5.4816 -974.917 5.9488C-981.973 8.332 -989.3 6.3256 -996.278 1.2912C-997.529 2.3808 -998.802 3.02 -1000.09 3.788C-1001.46 4.6016 -1002.83 5.2376 -1004.22 5.7056C-1011.28 8.0888 -1018.6 6.1648 -1025.58 1.1312C-1026.83 2.22 -1028.11 3.1432 -1029.39 3.912C-1030.76 4.7264 -1032.14 5.3624 -1033.52 5.8312C-1040.58 8.2144 -1047.9 6.2896 -1054.88 1.256C-1056.13 2.344 -1057.41 3.2696 -1058.69 4.0376C-1060.06 4.8504 -1061.44 5.488 -1062.82 5.9544C-1069.88 8.3376 -1077.21 6.2968 -1084.18 1.2624C-1085.44 2.352 -1086.71 3.0264 -1088 3.7936C-1089.36 4.6072 -1090.74 5.244 -1092.13 5.712C-1099.18 8.0952 -1106.51 6.1704 -1113.49 1.1368C-1114.74 2.2264 -1116.01 3.1496 -1117.3 3.9176C-1118.66 4.7328 -1120.04 5.3688 -1121.43 5.8376C-1128.49 8.2208 -1135.81 6.2952 -1142.79 1.2616C-1144.04 2.3504 -1145.32 3.276 -1146.6 4.044C-1147.97 4.8568 -1149.35 5.4944 -1150.73 5.9608C-1157.79 8.344 -1165.12 6.3384 -1172.09 1.304C-1173.35 2.3936 -1174.62 3.0328 -1175.91 3.8C-1177.27 4.6136 -1178.65 5.2504 -1180.04 5.7184C-1187.09 8.1016 -1194.42 6.1768 -1201.4 1.1432C-1202.65 2.232 -1203.92 3.156 -1205.21 3.924C-1206.57 4.7392 -1207.95 5.3752 -1209.34 5.844C-1216.4 8.2264 -1223.72 6.3016 -1230.7 1.268C-1231.95 2.356 -1233.22 3.2816 -1234.51 4.0504C-1235.88 4.8632 -1237.25 5.5008 -1238.64 5.9672C-1245.7 8.3504 -1253.02 6.4272 -1260 1.3928" stroke="#10192E" stroke-miterlimit="10"/>
</g>
</g>
<defs>
<clipPath id="clip0_481_183">
<rect width="87" height="12" fill="white"/>
</clipPath>
</defs>
</svg>
