<svg width="26" height="8" viewBox="0 0 26 8" fill="none" xmlns="http://www.w3.org/2000/svg">
<path d="M25 1C24.4869 1.55931 23.966 2.03396 23.4389 2.42848C22.8798 2.84724 22.3149 3.17395 21.7477 3.41477C18.8573 4.63859 15.8573 3.64983 13.0002 1.06411C12.4874 1.62301 11.9658 2.09848 11.4387 2.49341C10.8794 2.91094 10.3151 3.23847 9.74757 3.47805C6.85747 4.70229 3.85686 3.71435 1 1.12822" stroke="#00AEEF" stroke-miterlimit="10"/>
<path d="M25 4C24.4869 4.55931 23.966 5.03396 23.4389 5.42848C22.8798 5.84724 22.3149 6.17395 21.7477 6.41477C18.8573 7.63859 15.8573 6.64983 13.0002 4.06411C12.4874 4.62301 11.9658 5.09848 11.4387 5.49341C10.8794 5.91094 10.3151 6.23847 9.74757 6.47805C6.85747 7.70229 3.85686 6.71435 1 4.12822" stroke="#00AEEF" stroke-miterlimit="10"/>
</svg>
