<svg width="88" height="11" viewBox="0 0 88 11" fill="none" xmlns="http://www.w3.org/2000/svg">
<g clip-path="url(#clip0_409_145)">
<path d="M-58.9995 6.56814V8H2752.84L2754 6.95935C2752.75 5.87334 2751.47 4.95387 2750.19 4.18897C2748.82 3.37944 2747.44 2.74521 2746.06 2.2783C2739 -0.0945015 2731.67 1.82174 2724.69 6.83506C2723.44 5.74985 2722.17 4.83116 2720.88 4.06546C2719.52 3.25434 2718.14 2.62091 2716.75 2.15321C2709.69 -0.218797 2702.37 1.69744 2695.39 6.71075C2694.14 5.62634 2692.86 4.70527 2691.58 3.93957C2690.21 3.13004 2688.83 2.49581 2687.44 2.03049C2680.39 -0.343102 2673.06 1.65521 2666.08 6.66933C2664.83 5.58412 2663.56 4.9475 2662.27 4.18259C2660.9 3.37307 2659.53 2.73963 2658.14 2.27272C2651.08 -0.10088 2643.75 1.81537 2636.78 6.82868C2635.52 5.74347 2634.25 4.82479 2632.96 4.05909C2631.6 3.24877 2630.22 2.61454 2628.83 2.14762C2621.77 -0.225174 2614.45 1.69107 2607.47 6.70438C2606.22 5.61997 2604.94 4.6989 2603.66 3.93399C2602.29 3.12447 2600.91 2.48944 2599.53 2.02492C2592.47 -0.349471 2585.14 1.6839 2578.16 6.69801C2576.91 5.6128 2575.64 4.94112 2574.35 4.17701C2572.99 3.36749 2571.61 2.73326 2570.22 2.26635C2563.16 -0.10725 2555.84 1.80979 2548.86 6.8231C2547.61 5.7371 2546.33 4.81842 2545.04 4.05351C2543.68 3.24239 2542.3 2.60816 2540.91 2.14125C2533.86 -0.231552 2526.53 1.68549 2519.55 6.69881C2518.3 5.6136 2517.03 4.69253 2515.74 3.92762C2514.37 3.1181 2512.99 2.48306 2511.61 2.01854C2504.55 -0.355849 2497.22 1.64247 2490.24 6.65658C2488.99 5.57137 2487.72 4.93475 2486.43 4.17064C2485.07 3.36111 2483.69 2.72688 2482.3 2.25997C2475.25 -0.113628 2467.92 1.80342 2460.94 6.81673C2459.69 5.73152 2458.41 4.81204 2457.13 4.04714C2455.76 3.23602 2454.38 2.60179 2453 2.13488C2445.94 -0.237123 2438.61 1.67912 2431.63 6.69244C2430.38 5.60802 2429.11 4.68695 2427.82 3.92124C2426.46 3.11172 2425.08 2.4767 2423.69 2.01218C2416.63 -0.360622 2409.31 1.55403 2402.33 6.56814C2401.08 5.48293 2399.9 4.95387 2398.61 4.18897C2397.24 3.37944 2395.86 2.74521 2394.48 2.2783C2387.42 -0.0945015 2380.09 1.82174 2373.11 6.83506C2371.86 5.74985 2370.59 4.83116 2369.3 4.06546C2367.94 3.25434 2366.56 2.62091 2365.17 2.15321C2358.11 -0.218797 2350.79 1.69744 2343.81 6.71075C2342.56 5.62634 2341.28 4.70527 2340 3.93957C2338.63 3.13004 2337.25 2.49581 2335.86 2.03049C2328.81 -0.343102 2321.48 1.65521 2314.5 6.66933C2313.25 5.58412 2311.98 4.9475 2310.69 4.18259C2309.32 3.37307 2307.95 2.73963 2306.56 2.27272C2299.5 -0.10088 2292.17 1.81537 2285.2 6.82868C2283.94 5.74347 2282.67 4.82479 2281.39 4.05909C2280.02 3.24877 2278.64 2.61454 2277.25 2.14762C2270.2 -0.225174 2262.87 1.69107 2255.89 6.70438C2254.64 5.61997 2253.37 4.6989 2252.08 3.93399C2250.71 3.12447 2249.33 2.48944 2247.95 2.02492C2240.89 -0.349471 2233.56 1.6839 2226.58 6.69801C2225.33 5.6128 2224.06 4.94112 2222.77 4.17701C2221.41 3.36749 2220.03 2.73326 2218.64 2.26635C2211.58 -0.10725 2204.26 1.80979 2197.28 6.8231C2196.03 5.7371 2194.75 4.81842 2193.47 4.05351C2192.1 3.24239 2190.72 2.60816 2189.34 2.14125C2182.28 -0.231552 2174.95 1.68549 2167.97 6.69881C2166.72 5.6136 2165.45 4.69253 2164.16 3.92762C2162.79 3.1181 2161.42 2.48306 2160.03 2.01854C2152.97 -0.355849 2145.64 1.64247 2138.67 6.65658C2137.41 5.57137 2136.14 4.93475 2134.85 4.17064C2133.49 3.36111 2132.11 2.72688 2130.72 2.25997C2123.67 -0.113628 2116.34 1.80342 2109.36 6.81673C2108.11 5.73152 2106.84 4.81204 2105.55 4.04714C2104.18 3.23602 2102.8 2.60179 2101.42 2.13488C2094.36 -0.237123 2087.03 1.67912 2080.06 6.69244C2078.8 5.60802 2077.53 4.68695 2076.24 3.92124C2074.88 3.11172 2073.5 2.4767 2072.11 2.01218C2065.05 -0.360622 2057.73 1.55403 2050.75 6.56814C2049.43 5.42954 2048.28 4.98734 2046.94 4.18897C2045.57 3.37944 2044.19 2.74521 2042.81 2.2783C2035.75 -0.0945015 2028.42 1.82174 2021.44 6.83506C2020.19 5.74985 2018.92 4.83116 2017.63 4.06546C2016.27 3.25434 2014.89 2.62091 2013.5 2.15321C2006.44 -0.218797 1999.12 1.69744 1992.14 6.71075C1990.89 5.62634 1989.61 4.70527 1988.33 3.93957C1986.96 3.13004 1985.58 2.49581 1984.19 2.03049C1977.14 -0.343102 1969.81 1.65521 1962.83 6.66933C1961.58 5.58412 1960.31 4.9475 1959.02 4.18259C1957.65 3.37307 1956.27 2.73963 1954.89 2.27272C1947.83 -0.10088 1940.5 1.81537 1933.53 6.82868C1932.27 5.74347 1931 4.82479 1929.71 4.05909C1928.35 3.24877 1926.97 2.61454 1925.58 2.14762C1918.52 -0.225174 1911.2 1.69107 1904.22 6.70438C1902.97 5.61997 1901.69 4.6989 1900.41 3.93399C1899.04 3.12447 1897.66 2.48944 1896.28 2.02492C1889.22 -0.349471 1881.89 1.6839 1874.91 6.69801C1873.66 5.6128 1872.39 4.94112 1871.1 4.17701C1869.73 3.36749 1868.36 2.73326 1866.97 2.26635C1859.91 -0.10725 1852.58 1.80979 1845.61 6.8231C1844.35 5.7371 1843.08 4.81842 1841.79 4.05351C1840.43 3.24239 1839.05 2.60816 1837.66 2.14125C1830.61 -0.231552 1823.28 1.68549 1816.3 6.69881C1815.05 5.6136 1813.78 4.69253 1812.49 3.92762C1811.12 3.1181 1809.74 2.48306 1808.36 2.01854C1801.3 -0.355849 1793.97 1.64247 1786.99 6.65658C1785.74 5.57137 1784.47 4.93475 1783.18 4.17064C1781.82 3.36111 1780.44 2.72688 1779.05 2.25997C1771.99 -0.113628 1764.67 1.80342 1757.69 6.81673C1756.44 5.73152 1755.16 4.81204 1753.88 4.04714C1752.51 3.23602 1751.13 2.60179 1749.75 2.13488C1742.69 -0.237123 1735.36 1.67912 1728.38 6.69244C1727.13 5.60802 1725.86 4.68695 1724.57 3.92124C1723.2 3.11172 1721.83 2.4767 1720.44 2.01218C1713.38 -0.360622 1706.05 1.55403 1699.08 6.56814C1697.83 5.48293 1696.64 4.95387 1695.36 4.18897C1693.99 3.37944 1692.61 2.74521 1691.23 2.2783C1684.17 -0.0945015 1676.84 1.82174 1669.86 6.83506C1668.61 5.74985 1667.34 4.83116 1666.05 4.06546C1664.69 3.25434 1663.31 2.62091 1661.92 2.15321C1654.86 -0.218797 1647.54 1.69744 1640.56 6.71075C1639.31 5.62634 1638.03 4.70527 1636.75 3.93957C1635.38 3.13004 1634 2.49581 1632.61 2.03049C1625.56 -0.343102 1618.23 1.65521 1611.25 6.66933C1610 5.58412 1608.73 4.9475 1607.44 4.18259C1606.07 3.37307 1604.69 2.73963 1603.31 2.27272C1596.25 -0.10088 1588.92 1.81537 1581.95 6.82868C1580.69 5.74347 1579.42 4.82479 1578.13 4.05909C1576.77 3.24877 1575.39 2.61454 1574 2.14762C1566.94 -0.225174 1559.62 1.69107 1552.64 6.70438C1551.39 5.61997 1550.11 4.6989 1548.83 3.93399C1547.46 3.12447 1546.08 2.48944 1544.7 2.02492C1537.64 -0.349471 1530.31 1.6839 1523.33 6.69801C1522.08 5.6128 1520.81 4.94112 1519.52 4.17701C1518.16 3.36749 1516.78 2.73326 1515.39 2.26635C1508.33 -0.10725 1501.01 1.80979 1494.03 6.8231C1492.78 5.7371 1491.5 4.81842 1490.22 4.05351C1488.85 3.24239 1487.47 2.60816 1486.09 2.14125C1479.03 -0.231552 1471.7 1.68549 1464.72 6.69881C1463.47 5.6136 1462.2 4.69253 1460.91 3.92762C1459.54 3.1181 1458.17 2.48306 1456.78 2.01854C1449.72 -0.355849 1442.39 1.64247 1435.42 6.65658C1434.16 5.57137 1432.89 4.93475 1431.6 4.17064C1430.24 3.36111 1428.86 2.72688 1427.47 2.25997C1420.42 -0.113628 1413.09 1.80342 1406.11 6.81673C1404.86 5.73152 1403.58 4.81204 1402.3 4.04714C1400.93 3.23602 1399.55 2.60179 1398.17 2.13488C1391.11 -0.237123 1383.78 1.67912 1376.81 6.69244C1375.55 5.60802 1374.28 4.68695 1372.99 3.92124C1371.63 3.11172 1370.25 2.4767 1368.86 2.01218C1361.8 -0.360622 1354.48 1.55403 1347.5 6.56814C1346.25 5.48293 1344.97 4.95387 1343.69 4.18897C1342.32 3.37944 1340.94 2.74521 1339.56 2.2783C1332.5 -0.0945015 1325.17 1.82174 1318.19 6.83506C1316.94 5.74985 1315.67 4.83116 1314.38 4.06546C1313.02 3.25434 1311.64 2.62091 1310.25 2.15321C1303.19 -0.218797 1295.87 1.69744 1288.89 6.71075C1287.64 5.62634 1286.36 4.70527 1285.07 3.93957C1283.71 3.13004 1282.33 2.49581 1280.94 2.03049C1273.89 -0.343102 1266.56 1.65521 1259.58 6.66933C1258.33 5.58412 1257.06 4.9475 1255.77 4.18259C1254.4 3.37307 1253.02 2.73963 1251.64 2.27272C1244.58 -0.10088 1237.25 1.81537 1230.28 6.82868C1229.02 5.74347 1227.75 4.82479 1226.46 4.05909C1225.1 3.24877 1223.72 2.61454 1222.33 2.14762C1215.27 -0.225174 1207.95 1.69107 1200.97 6.70438C1199.72 5.61997 1198.44 4.6989 1197.16 3.93399C1195.79 3.12447 1194.41 2.48944 1193.03 2.02492C1185.97 -0.349471 1178.64 1.6839 1171.66 6.69801C1170.41 5.6128 1169.14 4.94112 1167.85 4.17701C1166.49 3.36749 1165.11 2.73326 1163.72 2.26635C1156.66 -0.10725 1149.34 1.80979 1142.36 6.8231C1141.11 5.7371 1139.83 4.81842 1138.54 4.05351C1137.18 3.24239 1135.8 2.60816 1134.41 2.14125C1127.36 -0.231552 1120.03 1.68549 1113.05 6.69881C1111.8 5.6136 1110.53 4.69253 1109.24 3.92762C1107.87 3.1181 1106.49 2.48306 1105.11 2.01854C1098.05 -0.355849 1090.72 1.64247 1083.74 6.65658C1082.49 5.57137 1081.22 4.93475 1079.93 4.17064C1078.57 3.36111 1077.19 2.72688 1075.8 2.25997C1068.75 -0.113628 1061.42 1.80342 1054.44 6.81673C1053.19 5.73152 1051.91 4.81204 1050.63 4.04714C1049.26 3.23602 1047.88 2.60179 1046.5 2.13488C1039.44 -0.237123 1032.11 1.67912 1025.13 6.69244C1023.88 5.60802 1022.61 4.68695 1021.32 3.92124C1019.96 3.11172 1018.58 2.4767 1017.19 2.01218C1010.13 -0.360622 1002.81 1.55403 995.828 6.56814C994.576 5.48293 993.395 4.95387 992.107 4.18897C990.742 3.37944 989.363 2.74521 987.976 2.2783C980.919 -0.0945015 973.592 1.82174 966.614 6.83506C965.362 5.74985 964.09 4.83116 962.802 4.06546C961.438 3.25434 960.059 2.62091 958.673 2.15321C951.615 -0.218797 944.287 1.69744 937.309 6.71075C936.057 5.62634 934.784 4.70527 933.497 3.93957C932.131 3.13004 930.753 2.49581 929.366 2.03049C922.309 -0.343102 914.981 1.65521 908.002 6.66933C906.751 5.58412 905.478 4.9475 904.191 4.18259C902.824 3.37307 901.446 2.73963 900.061 2.27272C893.002 -0.10088 885.674 1.81537 878.698 6.82868C877.444 5.74347 876.171 4.82479 874.885 4.05909C873.52 3.24877 872.14 2.61454 870.755 2.14762C863.696 -0.225174 856.37 1.69107 849.392 6.70438C848.14 5.61997 846.866 4.6989 845.579 3.93399C844.213 3.12447 842.835 2.48944 841.449 2.02492C834.391 -0.349471 827.063 1.6839 820.085 6.69801C818.833 5.6128 817.56 4.94112 816.273 4.17701C814.907 3.36749 813.529 2.73326 812.142 2.26635C805.085 -0.10725 797.757 1.80979 790.779 6.8231C789.527 5.7371 788.255 4.81842 786.968 4.05351C785.603 3.24239 784.223 2.60816 782.838 2.14125C775.779 -0.231552 768.451 1.68549 761.473 6.69881C760.221 5.6136 758.948 4.69253 757.661 3.92762C756.296 3.1181 754.917 2.48306 753.53 2.01854C746.474 -0.355849 739.144 1.64247 732.167 6.65658C730.915 5.57137 729.642 4.93475 728.355 4.17064C726.989 3.36111 725.611 2.72688 724.225 2.25997C717.167 -0.113628 709.839 1.80342 702.862 6.81673C701.609 5.73152 700.337 4.81204 699.05 4.04714C697.685 3.23602 696.306 2.60179 694.92 2.13488C687.862 -0.237123 680.535 1.67912 673.557 6.69244C672.304 5.60802 671.03 4.68695 669.743 3.92124C668.377 3.11172 666.999 2.4767 665.613 2.01218C658.555 -0.360622 651.226 1.55403 644.25 6.56814C642.934 5.42954 641.781 4.98734 640.437 4.18897C639.071 3.37944 637.693 2.74521 636.306 2.2783C629.249 -0.0945015 621.921 1.82174 614.943 6.83506C613.691 5.74985 612.419 4.83116 611.132 4.06546C609.768 3.25434 608.388 2.62091 607.001 2.15321C599.944 -0.218797 592.616 1.69744 585.638 6.71075C584.386 5.62634 583.112 4.70527 581.825 3.93957C580.461 3.13004 579.081 2.49581 577.694 2.03049C570.637 -0.343102 563.309 1.65521 556.331 6.66933C555.079 5.58412 553.807 4.9475 552.52 4.18259C551.153 3.37307 549.775 2.73963 548.39 2.27272C541.331 -0.10088 534.003 1.81537 527.026 6.82868C525.773 5.74347 524.5 4.82479 523.214 4.05909C521.85 3.24877 520.468 2.61454 519.083 2.14762C512.024 -0.225174 504.698 1.69107 497.721 6.70438C496.468 5.61997 495.195 4.6989 493.907 3.93399C492.54 3.12447 491.162 2.48944 489.777 2.02492C482.718 -0.349471 475.391 1.6839 468.413 6.69801C467.161 5.6128 465.889 4.94112 464.601 4.17701C463.236 3.36749 461.857 2.73326 460.471 2.26635C453.414 -0.10725 446.086 1.80979 439.108 6.8231C437.856 5.7371 436.583 4.81842 435.295 4.05351C433.931 3.24239 432.551 2.60816 431.165 2.14125C424.107 -0.231552 416.779 1.68549 409.802 6.69881C408.55 5.6136 407.277 4.69253 405.989 3.92762C404.623 3.1181 403.245 2.48306 401.859 2.01854C394.801 -0.355849 387.473 1.64247 380.495 6.65658C379.244 5.57137 377.971 4.93475 376.684 4.17064C375.318 3.36111 373.939 2.72688 372.553 2.25997C365.496 -0.113628 358.168 1.80342 351.191 6.81673C349.938 5.73152 348.665 4.81204 347.378 4.04714C346.014 3.23602 344.633 2.60179 343.248 2.13488C336.189 -0.237123 328.863 1.67912 321.885 6.69244C320.633 5.60802 319.36 4.68695 318.072 3.92124C316.706 3.11172 315.328 2.4767 313.941 2.01218C306.884 -0.360622 299.556 1.55403 292.579 6.56814C291.327 5.48293 290.145 4.95387 288.858 4.18897C287.493 3.37944 286.114 2.74521 284.727 2.2783C277.67 -0.0945015 270.343 1.82174 263.364 6.83506C262.113 5.74985 260.84 4.83116 259.553 4.06546C258.188 3.25434 256.809 2.62091 255.423 2.15321C248.365 -0.218797 241.037 1.69744 234.059 6.71075C232.807 5.62634 231.534 4.70527 230.247 3.93957C228.882 3.13004 227.503 2.49581 226.116 2.03049C219.059 -0.343102 211.731 1.65521 204.752 6.66933C203.501 5.58412 202.228 4.9475 200.941 4.18259C199.574 3.37307 198.196 2.73963 196.811 2.27272C189.752 -0.10088 182.424 1.81537 175.448 6.82868C174.194 5.74347 172.921 4.82479 171.635 4.05909C170.271 3.24877 168.89 2.61454 167.505 2.14762C160.446 -0.225174 153.12 1.69107 146.142 6.70438C144.89 5.61997 143.616 4.6989 142.329 3.93399C140.963 3.12447 139.585 2.48944 138.199 2.02492C131.141 -0.349471 123.813 1.6839 116.835 6.69801C115.583 5.6128 114.31 4.94112 113.023 4.17701C111.657 3.36749 110.279 2.73326 108.892 2.26635C101.835 -0.10725 94.5071 1.80979 87.5295 6.8231C86.2773 5.7371 85.0044 4.81842 83.7171 4.05351C82.3519 3.24239 80.9722 2.60816 79.5871 2.14125C72.5283 -0.231552 65.2004 1.68549 58.2228 6.69881C56.9705 5.6136 55.6976 4.69253 54.4104 3.92762C53.0443 3.1181 51.6663 2.48306 50.2795 2.01854C43.2231 -0.355849 35.8936 1.64247 28.9168 6.65658C27.6646 5.57137 26.3917 4.93475 25.1044 4.17064C23.7383 3.36111 22.3603 2.72688 20.9743 2.25997C13.9163 -0.113628 6.58839 1.80342 -0.388416 6.81673C-1.64144 5.73152 -2.91357 4.81204 -4.20082 4.04714C-5.5653 3.23602 -6.9449 2.60179 -8.33087 2.13488C-15.3889 -0.237123 -22.716 1.67912 -29.6936 6.69244C-30.9458 5.60802 -32.2195 4.68695 -33.5068 3.92124C-34.8728 3.11172 -36.25 2.4767 -37.6368 2.01218C-44.694 -0.360622 -52.0227 1.55403 -58.9995 6.56814Z" fill="white"/>
<path d="M2725 7C2723.75 5.90735 2722.47 4.98076 2721.19 4.21062C2719.82 3.39474 2718.44 2.75616 2717.06 2.28686C2710 -0.103009 2702.67 1.82718 2695.69 6.87485C2694.44 5.78301 2693.17 4.85722 2691.88 4.08627C2690.52 3.26879 2689.14 2.63182 2687.75 2.16091C2680.69 -0.228156 2673.37 1.70202 2666.39 6.7497C2665.14 5.65866 2663.86 4.73047 2662.58 3.95952C2661.21 3.14445 2659.83 2.50586 2658.44 2.03736C2651.39 -0.352509 2644.06 1.65951 2637.08 6.70799C2635.83 5.61534 2634.56 4.97435 2633.27 4.2042C2631.9 3.38833 2630.53 2.75055 2629.14 2.28124C2622.08 -0.108628 2614.75 1.82075 2607.78 6.86843C2606.52 5.77659 2605.25 4.85081 2603.96 4.07986C2602.6 3.26318 2601.22 2.6254 2599.83 2.15529C2592.77 -0.234578 2585.45 1.69561 2578.47 6.74328C2577.22 5.65224 2575.95 4.72405 2574.66 3.9539C2573.29 3.13883 2571.91 2.49945 2570.53 2.03174C2563.47 -0.358122 2556.14 1.68838 2549.16 6.73686C2547.91 5.64422 2546.64 4.96793 2545.35 4.19858C2543.98 3.38271 2542.61 2.74413 2541.22 2.27482C2534.16 -0.115042 2526.84 1.81514 2519.86 6.86282C2518.61 5.77017 2517.33 4.84439 2516.05 4.07424C2514.68 3.25676 2513.3 2.61898 2511.92 2.14887C2504.86 -0.240998 2497.53 1.68999 2490.55 6.73767C2489.3 5.64582 2488.03 4.71763 2486.74 3.94749C2485.37 3.13241 2484 2.49303 2482.61 2.02532C2475.55 -0.364542 2468.22 1.64667 2461.24 6.69515C2459.99 5.6025 2458.72 4.96151 2457.43 4.19217C2456.07 3.37629 2454.69 2.73771 2453.3 2.2684C2446.25 -0.121463 2438.92 1.80872 2431.94 6.8564C2430.69 5.76455 2429.41 4.83797 2428.13 4.06782C2426.76 3.25034 2425.38 2.61256 2424 2.14245C2416.94 -0.24661 2409.61 1.68357 2402.63 6.73125C2401.38 5.64021 2400.11 4.71202 2398.82 3.94107C2397.46 3.12599 2396.08 2.48661 2394.69 2.01891C2387.63 -0.370956 2380.31 1.55762 2373.33 6.6061C2372.08 5.51345 2370.9 4.98076 2369.61 4.21062C2368.24 3.39474 2366.86 2.75616 2365.48 2.28686C2358.42 -0.103009 2351.09 1.82718 2344.11 6.87485C2342.86 5.78301 2341.59 4.85722 2340.3 4.08627C2338.94 3.26879 2337.56 2.63182 2336.17 2.16091C2329.12 -0.228156 2321.79 1.70202 2314.81 6.7497C2313.56 5.65866 2312.28 4.73047 2311 3.95952C2309.63 3.14445 2308.25 2.50586 2306.87 2.03736C2299.81 -0.352509 2292.48 1.65951 2285.5 6.70799C2284.25 5.61534 2282.98 4.97435 2281.69 4.2042C2280.32 3.38833 2278.95 2.75055 2277.56 2.28124C2270.5 -0.108628 2263.17 1.82075 2256.2 6.86843C2254.94 5.77659 2253.67 4.85081 2252.39 4.07986C2251.02 3.26318 2249.64 2.6254 2248.25 2.15529C2241.2 -0.234578 2233.87 1.69561 2226.89 6.74328C2225.64 5.65224 2224.37 4.72405 2223.08 3.9539C2221.71 3.13883 2220.33 2.49945 2218.95 2.03174C2211.89 -0.358122 2204.56 1.68838 2197.59 6.73686C2196.33 5.64422 2195.06 4.96793 2193.77 4.19858C2192.41 3.38271 2191.03 2.74413 2189.64 2.27482C2182.58 -0.115042 2175.26 1.81514 2168.28 6.86282C2167.03 5.77017 2165.75 4.84439 2164.47 4.07424C2163.1 3.25676 2161.72 2.61898 2160.34 2.14887C2153.28 -0.240998 2145.95 1.68999 2138.97 6.73767C2137.72 5.64582 2136.45 4.71763 2135.16 3.94749C2133.79 3.13241 2132.42 2.49303 2131.03 2.02532C2123.97 -0.364542 2116.64 1.64667 2109.67 6.69515C2108.41 5.6025 2107.14 4.96151 2105.85 4.19217C2104.49 3.37629 2103.11 2.73771 2101.72 2.2684C2094.67 -0.121463 2087.34 1.80872 2080.36 6.8564C2079.11 5.76455 2077.84 4.83797 2076.55 4.06782C2075.18 3.25034 2073.81 2.61256 2072.42 2.14245C2065.36 -0.24661 2058.03 1.68357 2051.06 6.73125C2049.8 5.64021 2048.53 4.71202 2047.24 3.94107C2045.88 3.12599 2044.5 2.48661 2043.11 2.01891C2036.05 -0.370956 2028.73 1.55762 2021.75 6.6061C2020.5 5.51345 2019.22 4.98076 2017.94 4.21062C2016.57 3.39474 2015.19 2.75616 2013.81 2.28686C2006.75 -0.103009 1999.42 1.82718 1992.44 6.87485C1991.19 5.78301 1989.92 4.85722 1988.63 4.08627C1987.27 3.26879 1985.89 2.63182 1984.5 2.16091C1977.44 -0.228156 1970.12 1.70202 1963.14 6.7497C1961.89 5.65866 1960.61 4.73047 1959.32 3.95952C1957.96 3.14445 1956.58 2.50586 1955.19 2.03736C1948.14 -0.352509 1940.81 1.65951 1933.83 6.70799C1932.58 5.61534 1931.31 4.97435 1930.02 4.2042C1928.65 3.38833 1927.28 2.75055 1925.89 2.28124C1918.83 -0.108628 1911.5 1.82075 1904.53 6.86843C1903.27 5.77659 1902 4.85081 1900.71 4.07986C1899.35 3.26318 1897.97 2.6254 1896.58 2.15529C1889.52 -0.234578 1882.2 1.69561 1875.22 6.74328C1873.97 5.65224 1872.69 4.72405 1871.41 3.9539C1870.04 3.13883 1868.66 2.49945 1867.28 2.03174C1860.22 -0.358122 1852.89 1.68838 1845.91 6.73686C1844.66 5.64422 1843.39 4.96793 1842.1 4.19858C1840.73 3.38271 1839.36 2.74413 1837.97 2.27482C1830.91 -0.115042 1823.59 1.81514 1816.61 6.86282C1815.36 5.77017 1814.08 4.84439 1812.79 4.07424C1811.43 3.25676 1810.05 2.61898 1808.66 2.14887C1801.61 -0.240998 1794.28 1.68999 1787.3 6.73767C1786.05 5.64582 1784.78 4.71763 1783.49 3.94749C1782.12 3.13241 1780.74 2.49303 1779.36 2.02532C1772.3 -0.364542 1764.97 1.64667 1757.99 6.69515C1756.74 5.6025 1755.47 4.96151 1754.18 4.19217C1752.82 3.37629 1751.44 2.73771 1750.05 2.2684C1743 -0.121463 1735.67 1.80872 1728.69 6.8564C1727.44 5.76455 1726.16 4.83797 1724.88 4.06782C1723.51 3.25034 1722.13 2.61256 1720.75 2.14245C1713.69 -0.24661 1706.36 1.68357 1699.38 6.73125C1698.13 5.64021 1696.86 4.71202 1695.57 3.94107C1694.2 3.12599 1692.83 2.48661 1691.44 2.01891C1684.38 -0.370956 1677.06 1.55762 1670.08 6.6061C1668.83 5.51345 1667.64 4.98076 1666.36 4.21062C1664.99 3.39474 1663.61 2.75616 1662.23 2.28686C1655.17 -0.103009 1647.84 1.82718 1640.86 6.87485C1639.61 5.78301 1638.34 4.85722 1637.05 4.08627C1635.69 3.26879 1634.31 2.63182 1632.92 2.16091C1625.86 -0.228156 1618.54 1.70202 1611.56 6.7497C1610.31 5.65866 1609.03 4.73047 1607.75 3.95952C1606.38 3.14445 1605 2.50586 1603.61 2.03736C1596.56 -0.352509 1589.23 1.65951 1582.25 6.70799C1581 5.61534 1579.73 4.97435 1578.44 4.2042C1577.07 3.38833 1575.7 2.75055 1574.31 2.28124C1567.25 -0.108628 1559.92 1.82075 1552.95 6.86843C1551.69 5.77659 1550.42 4.85081 1549.13 4.07986C1547.77 3.26318 1546.39 2.6254 1545 2.15529C1537.94 -0.234578 1530.62 1.69561 1523.64 6.74328C1522.39 5.65224 1521.12 4.72405 1519.83 3.9539C1518.46 3.13883 1517.08 2.49945 1515.7 2.03174C1508.64 -0.358122 1501.31 1.68838 1494.33 6.73686C1493.08 5.64422 1491.81 4.96793 1490.52 4.19858C1489.16 3.38271 1487.78 2.74413 1486.39 2.27482C1479.33 -0.115042 1472.01 1.81514 1465.03 6.86282C1463.78 5.77017 1462.5 4.84439 1461.22 4.07424C1459.85 3.25676 1458.47 2.61898 1457.09 2.14887C1450.03 -0.240998 1442.7 1.68999 1435.72 6.73767C1434.47 5.64582 1433.2 4.71763 1431.91 3.94749C1430.54 3.13241 1429.17 2.49303 1427.78 2.02532C1420.72 -0.364542 1413.39 1.64667 1406.42 6.69515C1405.16 5.6025 1403.89 4.96151 1402.6 4.19217C1401.24 3.37629 1399.86 2.73771 1398.47 2.2684C1391.42 -0.121463 1384.09 1.80872 1377.11 6.8564C1375.86 5.76455 1374.59 4.83797 1373.3 4.06782C1371.93 3.25034 1370.55 2.61256 1369.17 2.14245C1362.11 -0.24661 1354.78 1.68357 1347.81 6.73125C1346.55 5.64021 1345.28 4.71202 1343.99 3.94107C1342.63 3.12599 1341.25 2.48661 1339.86 2.01891C1332.8 -0.370956 1325.48 1.55762 1318.5 6.6061C1317.25 5.51345 1315.97 4.98076 1314.69 4.21062C1313.32 3.39474 1311.94 2.75616 1310.56 2.28686C1303.5 -0.103009 1296.17 1.82718 1289.19 6.87485C1287.94 5.78301 1286.67 4.85722 1285.38 4.08627C1284.02 3.26879 1282.64 2.63182 1281.25 2.16091C1274.19 -0.228156 1266.87 1.70202 1259.89 6.7497C1258.64 5.65866 1257.36 4.73047 1256.07 3.95952C1254.71 3.14445 1253.33 2.50586 1251.94 2.03736C1244.89 -0.352509 1237.56 1.65951 1230.58 6.70799C1229.33 5.61534 1228.06 4.97435 1226.77 4.2042C1225.4 3.38833 1224.03 2.75055 1222.64 2.28124C1215.58 -0.108628 1208.25 1.82075 1201.28 6.86843C1200.02 5.77659 1198.75 4.85081 1197.46 4.07986C1196.1 3.26318 1194.72 2.6254 1193.33 2.15529C1186.27 -0.234578 1178.95 1.69561 1171.97 6.74328C1170.72 5.65224 1169.44 4.72405 1168.16 3.9539C1166.79 3.13883 1165.41 2.49945 1164.03 2.03174C1156.97 -0.358122 1149.64 1.68838 1142.66 6.73686C1141.41 5.64422 1140.14 4.96793 1138.85 4.19858C1137.49 3.38271 1136.11 2.74413 1134.72 2.27482C1127.66 -0.115042 1120.34 1.81514 1113.36 6.86282C1112.11 5.77017 1110.83 4.84439 1109.55 4.07424C1108.18 3.25676 1106.8 2.61898 1105.42 2.14887C1098.36 -0.240998 1091.03 1.68999 1084.05 6.73767C1082.8 5.64582 1081.53 4.71763 1080.24 3.94749C1078.87 3.13241 1077.5 2.49303 1076.11 2.02532C1069.05 -0.364542 1061.72 1.64667 1054.74 6.69515C1053.49 5.6025 1052.22 4.96151 1050.93 4.19217C1049.57 3.37629 1048.19 2.73771 1046.8 2.2684C1039.75 -0.121463 1032.42 1.80872 1025.44 6.8564C1024.19 5.76455 1022.91 4.83797 1021.63 4.06782C1020.26 3.25034 1018.88 2.61256 1017.5 2.14245C1010.44 -0.24661 1003.11 1.68357 996.134 6.73125C994.883 5.64021 993.609 4.71202 992.322 3.94107C990.955 3.12599 989.578 2.48661 988.191 2.01891C981.134 -0.370956 973.806 1.55762 966.829 6.6061C965.576 5.51345 964.395 4.98076 963.108 4.21062C961.742 3.39474 960.364 2.75616 958.977 2.28686C951.92 -0.103009 944.593 1.82718 937.614 6.87485C936.363 5.78301 935.09 4.85722 933.802 4.08627C932.437 3.26879 931.058 2.63182 929.672 2.16091C922.614 -0.228156 915.287 1.70202 908.309 6.7497C907.057 5.65866 905.784 4.73047 904.496 3.95952C903.13 3.14445 901.752 2.50586 900.366 2.03736C893.308 -0.352509 885.981 1.65951 879.002 6.70799C877.751 5.61534 876.478 4.97435 875.191 4.2042C873.824 3.38833 872.446 2.75055 871.06 2.28124C864.002 -0.108628 856.674 1.82075 849.698 6.86843C848.444 5.77659 847.171 4.85081 845.885 4.07986C844.519 3.26318 843.14 2.6254 841.755 2.15529C834.696 -0.234578 827.369 1.69561 820.392 6.74328C819.14 5.65224 817.866 4.72405 816.579 3.9539C815.212 3.13883 813.835 2.49945 812.449 2.03174C805.391 -0.358122 798.063 1.68838 791.085 6.73686C789.833 5.64422 788.56 4.96793 787.273 4.19858C785.906 3.38271 784.529 2.74413 783.142 2.27482C776.085 -0.115042 768.757 1.81514 761.779 6.86282C760.527 5.77017 759.255 4.84439 757.967 4.07424C756.602 3.25676 755.223 2.61898 753.837 2.14887C746.779 -0.240998 739.451 1.68999 732.472 6.73767C731.221 5.64582 729.948 4.71763 728.661 3.94749C727.295 3.13241 725.917 2.49303 724.53 2.02532C717.473 -0.364542 710.144 1.64667 703.167 6.69515C701.915 5.6025 700.642 4.96151 699.355 4.19217C697.988 3.37629 696.611 2.73771 695.225 2.2684C688.167 -0.121463 680.839 1.80872 673.862 6.8564C672.609 5.76455 671.337 4.83797 670.05 4.06782C668.684 3.25034 667.305 2.61256 665.92 2.14245C658.861 -0.24661 651.534 1.68357 644.557 6.73125C643.304 5.64021 642.03 4.71202 640.743 3.94107C639.377 3.12599 638 2.48661 636.613 2.01891C629.555 -0.370956 622.226 1.55762 615.249 6.6061C613.996 5.51345 612.724 4.98076 611.437 4.21062C610.07 3.39474 608.693 2.75616 607.306 2.28686C600.249 -0.103009 592.921 1.82718 585.942 6.87485C584.691 5.78301 583.419 4.85722 582.132 4.08627C580.766 3.26879 579.388 2.63182 578.001 2.16091C570.944 -0.228156 563.616 1.70202 556.637 6.7497C555.386 5.65866 554.112 4.73047 552.825 3.95952C551.46 3.14445 550.081 2.50586 548.694 2.03736C541.637 -0.352509 534.309 1.65951 527.331 6.70799C526.079 5.61534 524.807 4.97435 523.52 4.2042C522.153 3.38833 520.776 2.75055 519.39 2.28124C512.331 -0.108628 505.003 1.82075 498.026 6.86843C496.773 5.77659 495.499 4.85081 494.214 4.07986C492.848 3.26318 491.468 2.6254 490.083 2.15529C483.024 -0.234578 475.698 1.69561 468.721 6.74328C467.468 5.65224 466.194 4.72405 464.907 3.9539C463.54 3.13883 462.163 2.49945 460.777 2.03174C453.718 -0.358122 446.39 1.68838 439.413 6.73686C438.161 5.64422 436.888 4.96793 435.601 4.19858C434.235 3.38271 432.857 2.74413 431.47 2.27482C424.414 -0.115042 417.086 1.81514 410.107 6.86282C408.856 5.77017 407.582 4.84439 406.295 4.07424C404.931 3.25676 403.551 2.61898 402.165 2.14887C395.107 -0.240998 387.779 1.68999 380.802 6.73767C379.549 5.64582 378.276 4.71763 376.989 3.94749C375.622 3.13241 374.245 2.49303 372.858 2.02532C365.801 -0.364542 358.472 1.64667 351.495 6.69515C350.243 5.6025 348.97 4.96151 347.683 4.19217C346.317 3.37629 344.939 2.73771 343.553 2.2684C336.496 -0.121463 329.168 1.80872 322.19 6.8564C320.937 5.76455 319.664 4.83797 318.378 4.06782C317.013 3.25034 315.633 2.61256 314.248 2.14245C307.189 -0.24661 299.863 1.68357 292.884 6.73125C291.633 5.64021 290.359 4.71202 289.072 3.94107C287.705 3.12599 286.328 2.48661 284.941 2.01891C277.884 -0.370956 270.556 1.55762 263.578 6.6061C262.326 5.51345 261.145 4.98076 259.858 4.21062C258.492 3.39474 257.114 2.75616 255.727 2.28686C248.67 -0.103009 241.342 1.82718 234.364 6.87485C233.113 5.78301 231.84 4.85722 230.552 4.08627C229.187 3.26879 227.808 2.63182 226.422 2.16091C219.364 -0.228156 212.036 1.70202 205.059 6.7497C203.807 5.65866 202.534 4.73047 201.246 3.95952C199.88 3.14445 198.502 2.50586 197.116 2.03736C190.058 -0.352509 182.731 1.65951 175.752 6.70799C174.501 5.61534 173.228 4.97435 171.94 4.2042C170.574 3.38833 169.196 2.75055 167.81 2.28124C160.752 -0.108628 153.424 1.82075 146.448 6.86843C145.194 5.77659 143.921 4.85081 142.635 4.07986C141.269 3.26318 139.89 2.6254 138.504 2.15529C131.446 -0.234578 124.119 1.69561 117.142 6.74328C115.89 5.65224 114.616 4.72405 113.329 3.9539C111.962 3.13883 110.584 2.49945 109.198 2.03174C102.14 -0.358122 94.8126 1.68838 87.835 6.73686C86.5828 5.64422 85.3106 4.96793 84.0226 4.19858C82.6565 3.38271 81.2785 2.74413 79.8917 2.27482C72.8345 -0.115042 65.5066 1.81514 58.529 6.86282C57.2768 5.77017 56.0047 4.84439 54.7166 4.07424C53.3521 3.25676 51.9725 2.61898 50.5866 2.14887C43.5278 -0.240998 36.1999 1.68999 29.2223 6.73767C27.97 5.64582 26.6979 4.71763 25.4099 3.94749C24.0438 3.13241 22.6658 2.49303 21.279 2.02532C14.2218 -0.364542 6.89312 1.64667 -0.0836923 6.69515C-1.33592 5.6025 -2.60805 4.96151 -3.8961 4.19217C-5.26217 3.37629 -6.64018 2.73771 -8.02615 2.2684C-15.0842 -0.121463 -22.4121 1.80872 -29.3889 6.8564C-30.6419 5.76455 -31.914 4.83797 -33.2013 4.06782C-34.5665 3.25034 -35.9461 2.61256 -37.3313 2.14245C-44.3901 -0.24661 -51.7164 1.68357 -58.694 6.73125C-59.9463 5.64021 -61.22 4.71202 -62.5072 3.94107C-63.8733 3.12599 -65.2513 2.48661 -66.6373 2.01891C-73.6953 -0.370956 -81.0232 1.55762 -88 6.6061" stroke="#10192E" stroke-miterlimit="10"/>
<path d="M-58.9995 9.56814V11H2752.84L2754 9.95935C2752.75 8.87334 2751.47 7.95387 2750.19 7.18897C2748.82 6.37944 2747.44 5.74521 2746.06 5.2783C2739 2.9055 2731.67 4.82174 2724.69 9.83506C2723.44 8.74985 2722.17 7.83116 2720.88 7.06546C2719.52 6.25434 2718.14 5.62091 2716.75 5.15321C2709.69 2.7812 2702.37 4.69744 2695.39 9.71075C2694.14 8.62634 2692.86 7.70527 2691.58 6.93957C2690.21 6.13004 2688.83 5.49581 2687.44 5.03049C2680.39 2.6569 2673.06 4.65521 2666.08 9.66933C2664.83 8.58412 2663.56 7.9475 2662.27 7.18259C2660.9 6.37307 2659.53 5.73963 2658.14 5.27272C2651.08 2.89912 2643.75 4.81537 2636.78 9.82868C2635.52 8.74347 2634.25 7.82479 2632.96 7.05909C2631.6 6.24877 2630.22 5.61454 2628.83 5.14762C2621.77 2.77483 2614.45 4.69107 2607.47 9.70438C2606.22 8.61997 2604.94 7.6989 2603.66 6.93399C2602.29 6.12447 2600.91 5.48944 2599.53 5.02492C2592.47 2.65053 2585.14 4.6839 2578.16 9.69801C2576.91 8.6128 2575.64 7.94112 2574.35 7.17701C2572.99 6.36749 2571.61 5.73326 2570.22 5.26635C2563.16 2.89275 2555.84 4.80979 2548.86 9.8231C2547.61 8.7371 2546.33 7.81842 2545.04 7.05351C2543.68 6.24239 2542.3 5.60816 2540.91 5.14125C2533.86 2.76845 2526.53 4.68549 2519.55 9.69881C2518.3 8.6136 2517.03 7.69253 2515.74 6.92762C2514.37 6.1181 2512.99 5.48306 2511.61 5.01854C2504.55 2.64415 2497.22 4.64247 2490.24 9.65658C2488.99 8.57137 2487.72 7.93475 2486.43 7.17064C2485.07 6.36111 2483.69 5.72688 2482.3 5.25997C2475.25 2.88637 2467.92 4.80342 2460.94 9.81673C2459.69 8.73152 2458.41 7.81204 2457.13 7.04714C2455.76 6.23602 2454.38 5.60179 2453 5.13488C2445.94 2.76288 2438.61 4.67912 2431.63 9.69244C2430.38 8.60802 2429.11 7.68695 2427.82 6.92124C2426.46 6.11172 2425.08 5.4767 2423.69 5.01218C2416.63 2.63938 2409.31 4.55403 2402.33 9.56814C2401.08 8.48293 2399.9 7.95387 2398.61 7.18897C2397.24 6.37944 2395.86 5.74521 2394.48 5.2783C2387.42 2.9055 2380.09 4.82174 2373.11 9.83506C2371.86 8.74985 2370.59 7.83116 2369.3 7.06546C2367.94 6.25434 2366.56 5.62091 2365.17 5.15321C2358.11 2.7812 2350.79 4.69744 2343.81 9.71075C2342.56 8.62634 2341.28 7.70527 2340 6.93957C2338.63 6.13004 2337.25 5.49581 2335.86 5.03049C2328.81 2.6569 2321.48 4.65521 2314.5 9.66933C2313.25 8.58412 2311.98 7.9475 2310.69 7.18259C2309.32 6.37307 2307.95 5.73963 2306.56 5.27272C2299.5 2.89912 2292.17 4.81537 2285.2 9.82868C2283.94 8.74347 2282.67 7.82479 2281.39 7.05909C2280.02 6.24877 2278.64 5.61454 2277.25 5.14762C2270.2 2.77483 2262.87 4.69107 2255.89 9.70438C2254.64 8.61997 2253.37 7.6989 2252.08 6.93399C2250.71 6.12447 2249.33 5.48944 2247.95 5.02492C2240.89 2.65053 2233.56 4.6839 2226.58 9.69801C2225.33 8.6128 2224.06 7.94112 2222.77 7.17701C2221.41 6.36749 2220.03 5.73326 2218.64 5.26635C2211.58 2.89275 2204.26 4.80979 2197.28 9.8231C2196.03 8.7371 2194.75 7.81842 2193.47 7.05351C2192.1 6.24239 2190.72 5.60816 2189.34 5.14125C2182.28 2.76845 2174.95 4.68549 2167.97 9.69881C2166.72 8.6136 2165.45 7.69253 2164.16 6.92762C2162.79 6.1181 2161.42 5.48306 2160.03 5.01854C2152.97 2.64415 2145.64 4.64247 2138.67 9.65658C2137.41 8.57137 2136.14 7.93475 2134.85 7.17064C2133.49 6.36111 2132.11 5.72688 2130.72 5.25997C2123.67 2.88637 2116.34 4.80342 2109.36 9.81673C2108.11 8.73152 2106.84 7.81204 2105.55 7.04714C2104.18 6.23602 2102.8 5.60179 2101.42 5.13488C2094.36 2.76288 2087.03 4.67912 2080.06 9.69244C2078.8 8.60802 2077.53 7.68695 2076.24 6.92124C2074.88 6.11172 2073.5 5.4767 2072.11 5.01218C2065.05 2.63938 2057.73 4.55403 2050.75 9.56814C2049.43 8.42954 2048.28 7.98734 2046.94 7.18897C2045.57 6.37944 2044.19 5.74521 2042.81 5.2783C2035.75 2.9055 2028.42 4.82174 2021.44 9.83506C2020.19 8.74985 2018.92 7.83116 2017.63 7.06546C2016.27 6.25434 2014.89 5.62091 2013.5 5.15321C2006.44 2.7812 1999.12 4.69744 1992.14 9.71075C1990.89 8.62634 1989.61 7.70527 1988.33 6.93957C1986.96 6.13004 1985.58 5.49581 1984.19 5.03049C1977.14 2.6569 1969.81 4.65521 1962.83 9.66933C1961.58 8.58412 1960.31 7.9475 1959.02 7.18259C1957.65 6.37307 1956.27 5.73963 1954.89 5.27272C1947.83 2.89912 1940.5 4.81537 1933.53 9.82868C1932.27 8.74347 1931 7.82479 1929.71 7.05909C1928.35 6.24877 1926.97 5.61454 1925.58 5.14762C1918.52 2.77483 1911.2 4.69107 1904.22 9.70438C1902.97 8.61997 1901.69 7.6989 1900.41 6.93399C1899.04 6.12447 1897.66 5.48944 1896.28 5.02492C1889.22 2.65053 1881.89 4.6839 1874.91 9.69801C1873.66 8.6128 1872.39 7.94112 1871.1 7.17701C1869.73 6.36749 1868.36 5.73326 1866.97 5.26635C1859.91 2.89275 1852.58 4.80979 1845.61 9.8231C1844.35 8.7371 1843.08 7.81842 1841.79 7.05351C1840.43 6.24239 1839.05 5.60816 1837.66 5.14125C1830.61 2.76845 1823.28 4.68549 1816.3 9.69881C1815.05 8.6136 1813.78 7.69253 1812.49 6.92762C1811.12 6.1181 1809.74 5.48306 1808.36 5.01854C1801.3 2.64415 1793.97 4.64247 1786.99 9.65658C1785.74 8.57137 1784.47 7.93475 1783.18 7.17064C1781.82 6.36111 1780.44 5.72688 1779.05 5.25997C1771.99 2.88637 1764.67 4.80342 1757.69 9.81673C1756.44 8.73152 1755.16 7.81204 1753.88 7.04714C1752.51 6.23602 1751.13 5.60179 1749.75 5.13488C1742.69 2.76288 1735.36 4.67912 1728.38 9.69244C1727.13 8.60802 1725.86 7.68695 1724.57 6.92124C1723.2 6.11172 1721.83 5.4767 1720.44 5.01218C1713.38 2.63938 1706.05 4.55403 1699.08 9.56814C1697.83 8.48293 1696.64 7.95387 1695.36 7.18897C1693.99 6.37944 1692.61 5.74521 1691.23 5.2783C1684.17 2.9055 1676.84 4.82174 1669.86 9.83506C1668.61 8.74985 1667.34 7.83116 1666.05 7.06546C1664.69 6.25434 1663.31 5.62091 1661.92 5.15321C1654.86 2.7812 1647.54 4.69744 1640.56 9.71075C1639.31 8.62634 1638.03 7.70527 1636.75 6.93957C1635.38 6.13004 1634 5.49581 1632.61 5.03049C1625.56 2.6569 1618.23 4.65521 1611.25 9.66933C1610 8.58412 1608.73 7.9475 1607.44 7.18259C1606.07 6.37307 1604.69 5.73963 1603.31 5.27272C1596.25 2.89912 1588.92 4.81537 1581.95 9.82868C1580.69 8.74347 1579.42 7.82479 1578.13 7.05909C1576.77 6.24877 1575.39 5.61454 1574 5.14762C1566.94 2.77483 1559.62 4.69107 1552.64 9.70438C1551.39 8.61997 1550.11 7.6989 1548.83 6.93399C1547.46 6.12447 1546.08 5.48944 1544.7 5.02492C1537.64 2.65053 1530.31 4.6839 1523.33 9.69801C1522.08 8.6128 1520.81 7.94112 1519.52 7.17701C1518.16 6.36749 1516.78 5.73326 1515.39 5.26635C1508.33 2.89275 1501.01 4.80979 1494.03 9.8231C1492.78 8.7371 1491.5 7.81842 1490.22 7.05351C1488.85 6.24239 1487.47 5.60816 1486.09 5.14125C1479.03 2.76845 1471.7 4.68549 1464.72 9.69881C1463.47 8.6136 1462.2 7.69253 1460.91 6.92762C1459.54 6.1181 1458.17 5.48306 1456.78 5.01854C1449.72 2.64415 1442.39 4.64247 1435.42 9.65658C1434.16 8.57137 1432.89 7.93475 1431.6 7.17064C1430.24 6.36111 1428.86 5.72688 1427.47 5.25997C1420.42 2.88637 1413.09 4.80342 1406.11 9.81673C1404.86 8.73152 1403.58 7.81204 1402.3 7.04714C1400.93 6.23602 1399.55 5.60179 1398.17 5.13488C1391.11 2.76288 1383.78 4.67912 1376.81 9.69244C1375.55 8.60802 1374.28 7.68695 1372.99 6.92124C1371.63 6.11172 1370.25 5.4767 1368.86 5.01218C1361.8 2.63938 1354.48 4.55403 1347.5 9.56814C1346.25 8.48293 1344.97 7.95387 1343.69 7.18897C1342.32 6.37944 1340.94 5.74521 1339.56 5.2783C1332.5 2.9055 1325.17 4.82174 1318.19 9.83506C1316.94 8.74985 1315.67 7.83116 1314.38 7.06546C1313.02 6.25434 1311.64 5.62091 1310.25 5.15321C1303.19 2.7812 1295.87 4.69744 1288.89 9.71075C1287.64 8.62634 1286.36 7.70527 1285.07 6.93957C1283.71 6.13004 1282.33 5.49581 1280.94 5.03049C1273.89 2.6569 1266.56 4.65521 1259.58 9.66933C1258.33 8.58412 1257.06 7.9475 1255.77 7.18259C1254.4 6.37307 1253.02 5.73963 1251.64 5.27272C1244.58 2.89912 1237.25 4.81537 1230.28 9.82868C1229.02 8.74347 1227.75 7.82479 1226.46 7.05909C1225.1 6.24877 1223.72 5.61454 1222.33 5.14762C1215.27 2.77483 1207.95 4.69107 1200.97 9.70438C1199.72 8.61997 1198.44 7.6989 1197.16 6.93399C1195.79 6.12447 1194.41 5.48944 1193.03 5.02492C1185.97 2.65053 1178.64 4.6839 1171.66 9.69801C1170.41 8.6128 1169.14 7.94112 1167.85 7.17701C1166.49 6.36749 1165.11 5.73326 1163.72 5.26635C1156.66 2.89275 1149.34 4.80979 1142.36 9.8231C1141.11 8.7371 1139.83 7.81842 1138.54 7.05351C1137.18 6.24239 1135.8 5.60816 1134.41 5.14125C1127.36 2.76845 1120.03 4.68549 1113.05 9.69881C1111.8 8.6136 1110.53 7.69253 1109.24 6.92762C1107.87 6.1181 1106.49 5.48306 1105.11 5.01854C1098.05 2.64415 1090.72 4.64247 1083.74 9.65658C1082.49 8.57137 1081.22 7.93475 1079.93 7.17064C1078.57 6.36111 1077.19 5.72688 1075.8 5.25997C1068.75 2.88637 1061.42 4.80342 1054.44 9.81673C1053.19 8.73152 1051.91 7.81204 1050.63 7.04714C1049.26 6.23602 1047.88 5.60179 1046.5 5.13488C1039.44 2.76288 1032.11 4.67912 1025.13 9.69244C1023.88 8.60802 1022.61 7.68695 1021.32 6.92124C1019.96 6.11172 1018.58 5.4767 1017.19 5.01218C1010.13 2.63938 1002.81 4.55403 995.828 9.56814C994.576 8.48293 993.395 7.95387 992.107 7.18897C990.742 6.37944 989.363 5.74521 987.976 5.2783C980.919 2.9055 973.592 4.82174 966.614 9.83506C965.362 8.74985 964.09 7.83116 962.802 7.06546C961.438 6.25434 960.059 5.62091 958.673 5.15321C951.615 2.7812 944.287 4.69744 937.309 9.71075C936.057 8.62634 934.784 7.70527 933.497 6.93957C932.131 6.13004 930.753 5.49581 929.366 5.03049C922.309 2.6569 914.981 4.65521 908.002 9.66933C906.751 8.58412 905.478 7.9475 904.191 7.18259C902.824 6.37307 901.446 5.73963 900.061 5.27272C893.002 2.89912 885.674 4.81537 878.698 9.82868C877.444 8.74347 876.171 7.82479 874.885 7.05909C873.52 6.24877 872.14 5.61454 870.755 5.14762C863.696 2.77483 856.37 4.69107 849.392 9.70438C848.14 8.61997 846.866 7.6989 845.579 6.93399C844.213 6.12447 842.835 5.48944 841.449 5.02492C834.391 2.65053 827.063 4.6839 820.085 9.69801C818.833 8.6128 817.56 7.94112 816.273 7.17701C814.907 6.36749 813.529 5.73326 812.142 5.26635C805.085 2.89275 797.757 4.80979 790.779 9.8231C789.527 8.7371 788.255 7.81842 786.968 7.05351C785.603 6.24239 784.223 5.60816 782.838 5.14125C775.779 2.76845 768.451 4.68549 761.473 9.69881C760.221 8.6136 758.948 7.69253 757.661 6.92762C756.296 6.1181 754.917 5.48306 753.53 5.01854C746.474 2.64415 739.144 4.64247 732.167 9.65658C730.915 8.57137 729.642 7.93475 728.355 7.17064C726.989 6.36111 725.611 5.72688 724.225 5.25997C717.167 2.88637 709.839 4.80342 702.862 9.81673C701.609 8.73152 700.337 7.81204 699.05 7.04714C697.685 6.23602 696.306 5.60179 694.92 5.13488C687.862 2.76288 680.535 4.67912 673.557 9.69244C672.304 8.60802 671.03 7.68695 669.743 6.92124C668.377 6.11172 666.999 5.4767 665.613 5.01218C658.555 2.63938 651.226 4.55403 644.25 9.56814C642.934 8.42954 641.781 7.98734 640.437 7.18897C639.071 6.37944 637.693 5.74521 636.306 5.2783C629.249 2.9055 621.921 4.82174 614.943 9.83506C613.691 8.74985 612.419 7.83116 611.132 7.06546C609.768 6.25434 608.388 5.62091 607.001 5.15321C599.944 2.7812 592.616 4.69744 585.638 9.71075C584.386 8.62634 583.112 7.70527 581.825 6.93957C580.461 6.13004 579.081 5.49581 577.694 5.03049C570.637 2.6569 563.309 4.65521 556.331 9.66933C555.079 8.58412 553.807 7.9475 552.52 7.18259C551.153 6.37307 549.775 5.73963 548.39 5.27272C541.331 2.89912 534.003 4.81537 527.026 9.82868C525.773 8.74347 524.5 7.82479 523.214 7.05909C521.85 6.24877 520.468 5.61454 519.083 5.14762C512.024 2.77483 504.698 4.69107 497.721 9.70438C496.468 8.61997 495.195 7.6989 493.907 6.93399C492.54 6.12447 491.162 5.48944 489.777 5.02492C482.718 2.65053 475.391 4.6839 468.413 9.69801C467.161 8.6128 465.889 7.94112 464.601 7.17701C463.236 6.36749 461.857 5.73326 460.471 5.26635C453.414 2.89275 446.086 4.80979 439.108 9.8231C437.856 8.7371 436.583 7.81842 435.295 7.05351C433.931 6.24239 432.551 5.60816 431.165 5.14125C424.107 2.76845 416.779 4.68549 409.802 9.69881C408.55 8.6136 407.277 7.69253 405.989 6.92762C404.623 6.1181 403.245 5.48306 401.859 5.01854C394.801 2.64415 387.473 4.64247 380.495 9.65658C379.244 8.57137 377.971 7.93475 376.684 7.17064C375.318 6.36111 373.939 5.72688 372.553 5.25997C365.496 2.88637 358.168 4.80342 351.191 9.81673C349.938 8.73152 348.665 7.81204 347.378 7.04714C346.014 6.23602 344.633 5.60179 343.248 5.13488C336.189 2.76288 328.863 4.67912 321.885 9.69244C320.633 8.60802 319.36 7.68695 318.072 6.92124C316.706 6.11172 315.328 5.4767 313.941 5.01218C306.884 2.63938 299.556 4.55403 292.579 9.56814C291.327 8.48293 290.145 7.95387 288.858 7.18897C287.493 6.37944 286.114 5.74521 284.727 5.2783C277.67 2.9055 270.343 4.82174 263.364 9.83506C262.113 8.74985 260.84 7.83116 259.553 7.06546C258.188 6.25434 256.809 5.62091 255.423 5.15321C248.365 2.7812 241.037 4.69744 234.059 9.71075C232.807 8.62634 231.534 7.70527 230.247 6.93957C228.882 6.13004 227.503 5.49581 226.116 5.03049C219.059 2.6569 211.731 4.65521 204.752 9.66933C203.501 8.58412 202.228 7.9475 200.941 7.18259C199.574 6.37307 198.196 5.73963 196.811 5.27272C189.752 2.89912 182.424 4.81537 175.448 9.82868C174.194 8.74347 172.921 7.82479 171.635 7.05909C170.271 6.24877 168.89 5.61454 167.505 5.14762C160.446 2.77483 153.12 4.69107 146.142 9.70438C144.89 8.61997 143.616 7.6989 142.329 6.93399C140.963 6.12447 139.585 5.48944 138.199 5.02492C131.141 2.65053 123.813 4.6839 116.835 9.69801C115.583 8.6128 114.31 7.94112 113.023 7.17701C111.657 6.36749 110.279 5.73326 108.892 5.26635C101.835 2.89275 94.5071 4.80979 87.5295 9.8231C86.2773 8.7371 85.0044 7.81842 83.7171 7.05351C82.3519 6.24239 80.9722 5.60816 79.5871 5.14125C72.5283 2.76845 65.2004 4.68549 58.2228 9.69881C56.9705 8.6136 55.6976 7.69253 54.4104 6.92762C53.0443 6.1181 51.6663 5.48306 50.2795 5.01854C43.2231 2.64415 35.8936 4.64247 28.9168 9.65658C27.6646 8.57137 26.3917 7.93475 25.1044 7.17064C23.7383 6.36111 22.3603 5.72688 20.9743 5.25997C13.9163 2.88637 6.58839 4.80342 -0.388416 9.81673C-1.64144 8.73152 -2.91357 7.81204 -4.20082 7.04714C-5.5653 6.23602 -6.9449 5.60179 -8.33087 5.13488C-15.3889 2.76288 -22.716 4.67912 -29.6936 9.69244C-30.9458 8.60802 -32.2195 7.68695 -33.5068 6.92124C-34.8728 6.11172 -36.25 5.4767 -37.6368 5.01218C-44.694 2.63938 -52.0227 4.55403 -58.9995 9.56814Z" fill="white"/>
<path d="M2725 10C2723.75 8.90735 2722.47 7.98076 2721.19 7.21062C2719.82 6.39474 2718.44 5.75616 2717.06 5.28686C2710 2.89699 2702.67 4.82718 2695.69 9.87485C2694.44 8.78301 2693.17 7.85722 2691.88 7.08627C2690.52 6.26879 2689.14 5.63182 2687.75 5.16091C2680.69 2.77184 2673.37 4.70202 2666.39 9.7497C2665.14 8.65866 2663.86 7.73047 2662.58 6.95952C2661.21 6.14445 2659.83 5.50586 2658.44 5.03736C2651.39 2.64749 2644.06 4.65951 2637.08 9.70799C2635.83 8.61534 2634.56 7.97435 2633.27 7.2042C2631.9 6.38833 2630.53 5.75055 2629.14 5.28124C2622.08 2.89137 2614.75 4.82075 2607.78 9.86843C2606.52 8.77659 2605.25 7.85081 2603.96 7.07986C2602.6 6.26318 2601.22 5.6254 2599.83 5.15529C2592.77 2.76542 2585.45 4.69561 2578.47 9.74328C2577.22 8.65224 2575.95 7.72405 2574.66 6.9539C2573.29 6.13883 2571.91 5.49945 2570.53 5.03174C2563.47 2.64188 2556.14 4.68838 2549.16 9.73686C2547.91 8.64422 2546.64 7.96793 2545.35 7.19858C2543.98 6.38271 2542.61 5.74413 2541.22 5.27482C2534.16 2.88496 2526.84 4.81514 2519.86 9.86282C2518.61 8.77017 2517.33 7.84439 2516.05 7.07424C2514.68 6.25676 2513.3 5.61898 2511.92 5.14887C2504.86 2.759 2497.53 4.68999 2490.55 9.73767C2489.3 8.64582 2488.03 7.71763 2486.74 6.94749C2485.37 6.13241 2484 5.49303 2482.61 5.02532C2475.55 2.63546 2468.22 4.64667 2461.24 9.69515C2459.99 8.6025 2458.72 7.96151 2457.43 7.19217C2456.07 6.37629 2454.69 5.73771 2453.3 5.2684C2446.25 2.87854 2438.92 4.80872 2431.94 9.8564C2430.69 8.76455 2429.41 7.83797 2428.13 7.06782C2426.76 6.25034 2425.38 5.61256 2424 5.14245C2416.94 2.75339 2409.61 4.68357 2402.63 9.73125C2401.38 8.64021 2400.11 7.71202 2398.82 6.94107C2397.46 6.12599 2396.08 5.48661 2394.69 5.01891C2387.63 2.62904 2380.31 4.55762 2373.33 9.6061C2372.08 8.51345 2370.9 7.98076 2369.61 7.21062C2368.24 6.39474 2366.86 5.75616 2365.48 5.28686C2358.42 2.89699 2351.09 4.82718 2344.11 9.87485C2342.86 8.78301 2341.59 7.85722 2340.3 7.08627C2338.94 6.26879 2337.56 5.63182 2336.17 5.16091C2329.12 2.77184 2321.79 4.70202 2314.81 9.7497C2313.56 8.65866 2312.28 7.73047 2311 6.95952C2309.63 6.14445 2308.25 5.50586 2306.87 5.03736C2299.81 2.64749 2292.48 4.65951 2285.5 9.70799C2284.25 8.61534 2282.98 7.97435 2281.69 7.2042C2280.32 6.38833 2278.95 5.75055 2277.56 5.28124C2270.5 2.89137 2263.17 4.82075 2256.2 9.86843C2254.94 8.77659 2253.67 7.85081 2252.39 7.07986C2251.02 6.26318 2249.64 5.6254 2248.25 5.15529C2241.2 2.76542 2233.87 4.69561 2226.89 9.74328C2225.64 8.65224 2224.37 7.72405 2223.08 6.9539C2221.71 6.13883 2220.33 5.49945 2218.95 5.03174C2211.89 2.64188 2204.56 4.68838 2197.59 9.73686C2196.33 8.64422 2195.06 7.96793 2193.77 7.19858C2192.41 6.38271 2191.03 5.74413 2189.64 5.27482C2182.58 2.88496 2175.26 4.81514 2168.28 9.86282C2167.03 8.77017 2165.75 7.84439 2164.47 7.07424C2163.1 6.25676 2161.72 5.61898 2160.34 5.14887C2153.28 2.759 2145.95 4.68999 2138.97 9.73767C2137.72 8.64582 2136.45 7.71763 2135.16 6.94749C2133.79 6.13241 2132.42 5.49303 2131.03 5.02532C2123.97 2.63546 2116.64 4.64667 2109.67 9.69515C2108.41 8.6025 2107.14 7.96151 2105.85 7.19217C2104.49 6.37629 2103.11 5.73771 2101.72 5.2684C2094.67 2.87854 2087.34 4.80872 2080.36 9.8564C2079.11 8.76455 2077.84 7.83797 2076.55 7.06782C2075.18 6.25034 2073.81 5.61256 2072.42 5.14245C2065.36 2.75339 2058.03 4.68357 2051.06 9.73125C2049.8 8.64021 2048.53 7.71202 2047.24 6.94107C2045.88 6.12599 2044.5 5.48661 2043.11 5.01891C2036.05 2.62904 2028.73 4.55762 2021.75 9.6061C2020.5 8.51345 2019.22 7.98076 2017.94 7.21062C2016.57 6.39474 2015.19 5.75616 2013.81 5.28686C2006.75 2.89699 1999.42 4.82718 1992.44 9.87485C1991.19 8.78301 1989.92 7.85722 1988.63 7.08627C1987.27 6.26879 1985.89 5.63182 1984.5 5.16091C1977.44 2.77184 1970.12 4.70202 1963.14 9.7497C1961.89 8.65866 1960.61 7.73047 1959.32 6.95952C1957.96 6.14445 1956.58 5.50586 1955.19 5.03736C1948.14 2.64749 1940.81 4.65951 1933.83 9.70799C1932.58 8.61534 1931.31 7.97435 1930.02 7.2042C1928.65 6.38833 1927.28 5.75055 1925.89 5.28124C1918.83 2.89137 1911.5 4.82075 1904.53 9.86843C1903.27 8.77659 1902 7.85081 1900.71 7.07986C1899.35 6.26318 1897.97 5.6254 1896.58 5.15529C1889.52 2.76542 1882.2 4.69561 1875.22 9.74328C1873.97 8.65224 1872.69 7.72405 1871.41 6.9539C1870.04 6.13883 1868.66 5.49945 1867.28 5.03174C1860.22 2.64188 1852.89 4.68838 1845.91 9.73686C1844.66 8.64422 1843.39 7.96793 1842.1 7.19858C1840.73 6.38271 1839.36 5.74413 1837.97 5.27482C1830.91 2.88496 1823.59 4.81514 1816.61 9.86282C1815.36 8.77017 1814.08 7.84439 1812.79 7.07424C1811.43 6.25676 1810.05 5.61898 1808.66 5.14887C1801.61 2.759 1794.28 4.68999 1787.3 9.73767C1786.05 8.64582 1784.78 7.71763 1783.49 6.94749C1782.12 6.13241 1780.74 5.49303 1779.36 5.02532C1772.3 2.63546 1764.97 4.64667 1757.99 9.69515C1756.74 8.6025 1755.47 7.96151 1754.18 7.19217C1752.82 6.37629 1751.44 5.73771 1750.05 5.2684C1743 2.87854 1735.67 4.80872 1728.69 9.8564C1727.44 8.76455 1726.16 7.83797 1724.88 7.06782C1723.51 6.25034 1722.13 5.61256 1720.75 5.14245C1713.69 2.75339 1706.36 4.68357 1699.38 9.73125C1698.13 8.64021 1696.86 7.71202 1695.57 6.94107C1694.2 6.12599 1692.83 5.48661 1691.44 5.01891C1684.38 2.62904 1677.06 4.55762 1670.08 9.6061C1668.83 8.51345 1667.64 7.98076 1666.36 7.21062C1664.99 6.39474 1663.61 5.75616 1662.23 5.28686C1655.17 2.89699 1647.84 4.82718 1640.86 9.87485C1639.61 8.78301 1638.34 7.85722 1637.05 7.08627C1635.69 6.26879 1634.31 5.63182 1632.92 5.16091C1625.86 2.77184 1618.54 4.70202 1611.56 9.7497C1610.31 8.65866 1609.03 7.73047 1607.75 6.95952C1606.38 6.14445 1605 5.50586 1603.61 5.03736C1596.56 2.64749 1589.23 4.65951 1582.25 9.70799C1581 8.61534 1579.73 7.97435 1578.44 7.2042C1577.07 6.38833 1575.7 5.75055 1574.31 5.28124C1567.25 2.89137 1559.92 4.82075 1552.95 9.86843C1551.69 8.77659 1550.42 7.85081 1549.13 7.07986C1547.77 6.26318 1546.39 5.6254 1545 5.15529C1537.94 2.76542 1530.62 4.69561 1523.64 9.74328C1522.39 8.65224 1521.12 7.72405 1519.83 6.9539C1518.46 6.13883 1517.08 5.49945 1515.7 5.03174C1508.64 2.64188 1501.31 4.68838 1494.33 9.73686C1493.08 8.64422 1491.81 7.96793 1490.52 7.19858C1489.16 6.38271 1487.78 5.74413 1486.39 5.27482C1479.33 2.88496 1472.01 4.81514 1465.03 9.86282C1463.78 8.77017 1462.5 7.84439 1461.22 7.07424C1459.85 6.25676 1458.47 5.61898 1457.09 5.14887C1450.03 2.759 1442.7 4.68999 1435.72 9.73767C1434.47 8.64582 1433.2 7.71763 1431.91 6.94749C1430.54 6.13241 1429.17 5.49303 1427.78 5.02532C1420.72 2.63546 1413.39 4.64667 1406.42 9.69515C1405.16 8.6025 1403.89 7.96151 1402.6 7.19217C1401.24 6.37629 1399.86 5.73771 1398.47 5.2684C1391.42 2.87854 1384.09 4.80872 1377.11 9.8564C1375.86 8.76455 1374.59 7.83797 1373.3 7.06782C1371.93 6.25034 1370.55 5.61256 1369.17 5.14245C1362.11 2.75339 1354.78 4.68357 1347.81 9.73125C1346.55 8.64021 1345.28 7.71202 1343.99 6.94107C1342.63 6.12599 1341.25 5.48661 1339.86 5.01891C1332.8 2.62904 1325.48 4.55762 1318.5 9.6061C1317.25 8.51345 1315.97 7.98076 1314.69 7.21062C1313.32 6.39474 1311.94 5.75616 1310.56 5.28686C1303.5 2.89699 1296.17 4.82718 1289.19 9.87485C1287.94 8.78301 1286.67 7.85722 1285.38 7.08627C1284.02 6.26879 1282.64 5.63182 1281.25 5.16091C1274.19 2.77184 1266.87 4.70202 1259.89 9.7497C1258.64 8.65866 1257.36 7.73047 1256.07 6.95952C1254.71 6.14445 1253.33 5.50586 1251.94 5.03736C1244.89 2.64749 1237.56 4.65951 1230.58 9.70799C1229.33 8.61534 1228.06 7.97435 1226.77 7.2042C1225.4 6.38833 1224.03 5.75055 1222.64 5.28124C1215.58 2.89137 1208.25 4.82075 1201.28 9.86843C1200.02 8.77659 1198.75 7.85081 1197.46 7.07986C1196.1 6.26318 1194.72 5.6254 1193.33 5.15529C1186.27 2.76542 1178.95 4.69561 1171.97 9.74328C1170.72 8.65224 1169.44 7.72405 1168.16 6.9539C1166.79 6.13883 1165.41 5.49945 1164.03 5.03174C1156.97 2.64188 1149.64 4.68838 1142.66 9.73686C1141.41 8.64422 1140.14 7.96793 1138.85 7.19858C1137.49 6.38271 1136.11 5.74413 1134.72 5.27482C1127.66 2.88496 1120.34 4.81514 1113.36 9.86282C1112.11 8.77017 1110.83 7.84439 1109.55 7.07424C1108.18 6.25676 1106.8 5.61898 1105.42 5.14887C1098.36 2.759 1091.03 4.68999 1084.05 9.73767C1082.8 8.64582 1081.53 7.71763 1080.24 6.94749C1078.87 6.13241 1077.5 5.49303 1076.11 5.02532C1069.05 2.63546 1061.72 4.64667 1054.74 9.69515C1053.49 8.6025 1052.22 7.96151 1050.93 7.19217C1049.57 6.37629 1048.19 5.73771 1046.8 5.2684C1039.75 2.87854 1032.42 4.80872 1025.44 9.8564C1024.19 8.76455 1022.91 7.83797 1021.63 7.06782C1020.26 6.25034 1018.88 5.61256 1017.5 5.14245C1010.44 2.75339 1003.11 4.68357 996.134 9.73125C994.883 8.64021 993.609 7.71202 992.322 6.94107C990.955 6.12599 989.578 5.48661 988.191 5.01891C981.134 2.62904 973.806 4.55762 966.829 9.6061C965.576 8.51345 964.395 7.98076 963.108 7.21062C961.742 6.39474 960.364 5.75616 958.977 5.28686C951.92 2.89699 944.593 4.82718 937.614 9.87485C936.363 8.78301 935.09 7.85722 933.802 7.08627C932.437 6.26879 931.058 5.63182 929.672 5.16091C922.614 2.77184 915.287 4.70202 908.309 9.7497C907.057 8.65866 905.784 7.73047 904.496 6.95952C903.13 6.14445 901.752 5.50586 900.366 5.03736C893.308 2.64749 885.981 4.65951 879.002 9.70799C877.751 8.61534 876.478 7.97435 875.191 7.2042C873.824 6.38833 872.446 5.75055 871.06 5.28124C864.002 2.89137 856.674 4.82075 849.698 9.86843C848.444 8.77659 847.171 7.85081 845.885 7.07986C844.519 6.26318 843.14 5.6254 841.755 5.15529C834.696 2.76542 827.369 4.69561 820.392 9.74328C819.14 8.65224 817.866 7.72405 816.579 6.9539C815.212 6.13883 813.835 5.49945 812.449 5.03174C805.391 2.64188 798.063 4.68838 791.085 9.73686C789.833 8.64422 788.56 7.96793 787.273 7.19858C785.906 6.38271 784.529 5.74413 783.142 5.27482C776.085 2.88496 768.757 4.81514 761.779 9.86282C760.527 8.77017 759.255 7.84439 757.967 7.07424C756.602 6.25676 755.223 5.61898 753.837 5.14887C746.779 2.759 739.451 4.68999 732.472 9.73767C731.221 8.64582 729.948 7.71763 728.661 6.94749C727.295 6.13241 725.917 5.49303 724.53 5.02532C717.473 2.63546 710.144 4.64667 703.167 9.69515C701.915 8.6025 700.642 7.96151 699.355 7.19217C697.988 6.37629 696.611 5.73771 695.225 5.2684C688.167 2.87854 680.839 4.80872 673.862 9.8564C672.609 8.76455 671.337 7.83797 670.05 7.06782C668.684 6.25034 667.305 5.61256 665.92 5.14245C658.861 2.75339 651.534 4.68357 644.557 9.73125C643.304 8.64021 642.03 7.71202 640.743 6.94107C639.377 6.12599 638 5.48661 636.613 5.01891C629.555 2.62904 622.226 4.55762 615.249 9.6061C613.996 8.51345 612.724 7.98076 611.437 7.21062C610.07 6.39474 608.693 5.75616 607.306 5.28686C600.249 2.89699 592.921 4.82718 585.942 9.87485C584.691 8.78301 583.419 7.85722 582.132 7.08627C580.766 6.26879 579.388 5.63182 578.001 5.16091C570.944 2.77184 563.616 4.70202 556.637 9.7497C555.386 8.65866 554.112 7.73047 552.825 6.95952C551.46 6.14445 550.081 5.50586 548.694 5.03736C541.637 2.64749 534.309 4.65951 527.331 9.70799C526.079 8.61534 524.807 7.97435 523.52 7.2042C522.153 6.38833 520.776 5.75055 519.39 5.28124C512.331 2.89137 505.003 4.82075 498.026 9.86843C496.773 8.77659 495.499 7.85081 494.214 7.07986C492.848 6.26318 491.468 5.6254 490.083 5.15529C483.024 2.76542 475.698 4.69561 468.721 9.74328C467.468 8.65224 466.194 7.72405 464.907 6.9539C463.54 6.13883 462.163 5.49945 460.777 5.03174C453.718 2.64188 446.39 4.68838 439.413 9.73686C438.161 8.64422 436.888 7.96793 435.601 7.19858C434.235 6.38271 432.857 5.74413 431.47 5.27482C424.414 2.88496 417.086 4.81514 410.107 9.86282C408.856 8.77017 407.582 7.84439 406.295 7.07424C404.931 6.25676 403.551 5.61898 402.165 5.14887C395.107 2.759 387.779 4.68999 380.802 9.73767C379.549 8.64582 378.276 7.71763 376.989 6.94749C375.622 6.13241 374.245 5.49303 372.858 5.02532C365.801 2.63546 358.472 4.64667 351.495 9.69515C350.243 8.6025 348.97 7.96151 347.683 7.19217C346.317 6.37629 344.939 5.73771 343.553 5.2684C336.496 2.87854 329.168 4.80872 322.19 9.8564C320.937 8.76455 319.664 7.83797 318.378 7.06782C317.013 6.25034 315.633 5.61256 314.248 5.14245C307.189 2.75339 299.863 4.68357 292.884 9.73125C291.633 8.64021 290.359 7.71202 289.072 6.94107C287.705 6.12599 286.328 5.48661 284.941 5.01891C277.884 2.62904 270.556 4.55762 263.578 9.6061C262.326 8.51345 261.145 7.98076 259.858 7.21062C258.492 6.39474 257.114 5.75616 255.727 5.28686C248.67 2.89699 241.342 4.82718 234.364 9.87485C233.113 8.78301 231.84 7.85722 230.552 7.08627C229.187 6.26879 227.808 5.63182 226.422 5.16091C219.364 2.77184 212.036 4.70202 205.059 9.7497C203.807 8.65866 202.534 7.73047 201.246 6.95952C199.88 6.14445 198.502 5.50586 197.116 5.03736C190.058 2.64749 182.731 4.65951 175.752 9.70799C174.501 8.61534 173.228 7.97435 171.94 7.2042C170.574 6.38833 169.196 5.75055 167.81 5.28124C160.752 2.89137 153.424 4.82075 146.448 9.86843C145.194 8.77659 143.921 7.85081 142.635 7.07986C141.269 6.26318 139.89 5.6254 138.504 5.15529C131.446 2.76542 124.119 4.69561 117.142 9.74328C115.89 8.65224 114.616 7.72405 113.329 6.9539C111.962 6.13883 110.584 5.49945 109.198 5.03174C102.14 2.64188 94.8126 4.68838 87.835 9.73686C86.5828 8.64422 85.3106 7.96793 84.0226 7.19858C82.6565 6.38271 81.2785 5.74413 79.8917 5.27482C72.8345 2.88496 65.5066 4.81514 58.529 9.86282C57.2768 8.77017 56.0047 7.84439 54.7166 7.07424C53.3521 6.25676 51.9725 5.61898 50.5866 5.14887C43.5278 2.759 36.1999 4.68999 29.2223 9.73767C27.97 8.64582 26.6979 7.71763 25.4099 6.94749C24.0438 6.13241 22.6658 5.49303 21.279 5.02532C14.2218 2.63546 6.89312 4.64667 -0.0836923 9.69515C-1.33592 8.6025 -2.60805 7.96151 -3.8961 7.19217C-5.26217 6.37629 -6.64018 5.73771 -8.02615 5.2684C-15.0842 2.87854 -22.4121 4.80872 -29.3889 9.8564C-30.6419 8.76455 -31.914 7.83797 -33.2013 7.06782C-34.5665 6.25034 -35.9461 5.61256 -37.3313 5.14245C-44.3901 2.75339 -51.7164 4.68357 -58.694 9.73125C-59.9463 8.64021 -61.22 7.71202 -62.5072 6.94107C-63.8733 6.12599 -65.2513 5.48661 -66.6373 5.01891C-73.6953 2.62904 -81.0232 4.55762 -88 9.6061" stroke="#10192E" stroke-miterlimit="10"/>
</g>
<defs>
<clipPath id="clip0_409_145">
<rect width="88" height="11" fill="white" transform="matrix(1 0 0 -1 0 11)"/>
</clipPath>
</defs>
</svg>
