<svg width="36" height="36" viewBox="0 0 36 36" fill="none" xmlns="http://www.w3.org/2000/svg">
<rect width="36" height="36" rx="8" fill="white"/>
<g clip-path="url(#clip0_31_2385)">
<path d="M24.8333 25.5403C24.8333 25.7613 24.7455 25.9733 24.5893 26.1296C24.433 26.2858 24.221 26.3736 24 26.3736H12.3333C12.1123 26.3736 11.9004 26.2858 11.7441 26.1296C11.5878 25.9733 11.5 25.7613 11.5 25.5403V18.0403H9L17.6058 10.217C17.7593 10.0774 17.9592 10 18.1667 10C18.3741 10 18.5741 10.0774 18.7275 10.217L27.3333 18.0403H24.8333V25.5403ZM18.1667 21.3736C18.7192 21.3736 19.2491 21.1541 19.6398 20.7634C20.0305 20.3727 20.25 19.8428 20.25 19.2903C20.25 18.7378 20.0305 18.2079 19.6398 17.8172C19.2491 17.4265 18.7192 17.207 18.1667 17.207C17.6141 17.207 17.0842 17.4265 16.6935 17.8172C16.3028 18.2079 16.0833 18.7378 16.0833 19.2903C16.0833 19.8428 16.3028 20.3727 16.6935 20.7634C17.0842 21.1541 17.6141 21.3736 18.1667 21.3736Z" fill="#8D9FBB"/>
</g>
<defs>
<clipPath id="clip0_31_2385">
<rect width="20" height="20" fill="white" transform="translate(8 8)"/>
</clipPath>
</defs>
</svg>
