<svg width="25" height="24" viewBox="0 0 25 24" fill="none" xmlns="http://www.w3.org/2000/svg">
<path d="M8.42477 10.0226L8.42494 10.0225C8.40717 9.90548 8.41507 9.78597 8.44807 9.67228C8.48108 9.55859 8.53841 9.45343 8.61609 9.36409C8.69378 9.27476 8.78995 9.20338 8.89796 9.15491C9.00538 9.1067 9.12194 9.08229 9.23966 9.08334M8.42477 10.0226L9.2399 9.23335M8.42477 10.0226L8.42617 10.0295C8.61493 10.9706 9.12407 11.8172 9.86689 12.425C10.6095 13.0327 11.5397 13.3643 12.4993 13.3634L8.42477 10.0226ZM9.23966 9.08334C9.24031 9.08334 9.24096 9.08335 9.2416 9.08336L9.2399 9.23335M9.23966 9.08334C9.23902 9.08335 9.23837 9.08336 9.23772 9.08336L9.2399 9.23335M9.23966 9.08334C9.43353 9.08098 9.62195 9.14768 9.77118 9.27154C9.92017 9.3952 10.0204 9.56775 10.0539 9.75839M9.2399 9.23335C9.39873 9.23104 9.55315 9.28551 9.67538 9.38696C9.7976 9.4884 9.87959 9.63015 9.90657 9.78668M10.0539 9.75839C10.0537 9.75757 10.0536 9.75675 10.0534 9.75592L9.90657 9.78668M10.0539 9.75839C10.0541 9.75932 10.0542 9.76026 10.0544 9.7612L9.90657 9.78668M10.0539 9.75839C10.1728 10.323 10.482 10.8296 10.9299 11.1934C11.3785 11.5577 11.9387 11.7565 12.5166 11.7565C13.0944 11.7565 13.6547 11.5577 14.1032 11.1934C14.5511 10.8296 14.8604 10.323 14.9792 9.75839C15.0128 9.56775 15.113 9.3952 15.262 9.27154C15.4112 9.14768 15.5996 9.08098 15.7935 9.08334C15.7941 9.08335 15.7948 9.08336 15.7954 9.08336L15.7932 9.23335C15.8899 9.23225 15.9856 9.25218 16.0738 9.29175C16.1619 9.33133 16.2404 9.38959 16.3039 9.46252C16.3673 9.53545 16.4141 9.62129 16.441 9.7141C16.468 9.80691 16.4744 9.90447 16.4599 10L9.90657 9.78668M8.35004 6.34333V6C8.35004 4.89935 8.78727 3.84378 9.56555 3.06551C10.3438 2.28723 11.3994 1.85 12.5 1.85C13.6007 1.85 14.6563 2.28723 15.4345 3.06551C16.2128 3.84378 16.65 4.89935 16.65 6V6.34333H17.8931H17.8933V6.49333L8.35004 6.34333ZM8.35004 6.34333H7.10673H7.10659V6.49333C6.59084 6.49284 6.09483 6.69162 5.72216 7.04815C5.34948 7.40468 5.12894 7.89139 5.10659 8.40666M8.35004 6.34333L4.95674 8.39988L4.95675 8.39962L5.10659 8.40666M5.10659 8.40666L4.95673 8.40016L4.41678 19.8925L4.56659 19.9M5.10659 8.40666L4.56659 19.9M4.56659 19.9L4.41675 19.893L4.41676 19.8927L20.0431 8.4C20.0431 8.40005 20.0431 8.40011 20.0431 8.40016L20.5831 19.8925C20.5831 19.8926 20.5831 19.8928 20.5831 19.8929L20.5831 19.893L20.4333 19.9M4.56659 19.9C4.55302 20.1709 4.59472 20.4418 4.68914 20.6961C4.78356 20.9504 4.92873 21.1829 5.11581 21.3793C5.3029 21.5758 5.52799 21.7321 5.7774 21.8388C6.02681 21.9455 6.29532 22.0003 6.56659 22M6.56659 22V22.15H6.56678H18.4331H18.4333V22M6.56659 22H18.4333M6.56659 22H18.4333M18.4333 22C18.7045 22.0003 18.973 21.9455 19.2225 21.8388C19.4719 21.7321 19.697 21.5758 19.884 21.3793C20.0711 21.1829 20.2163 20.9504 20.3107 20.6961C20.4051 20.4418 20.4468 20.1709 20.4333 19.9M20.4333 19.9L19.8933 8.40666L20.4333 19.9ZM15.0167 6V6.34333H9.98338V6C9.98338 5.33254 10.2485 4.69242 10.7205 4.22045C11.1925 3.74848 11.8326 3.48333 12.5 3.48333C13.1675 3.48333 13.8076 3.74848 14.2796 4.22045C14.7516 4.69242 15.0167 5.33254 15.0167 6ZM7.10659 7.98333L7.10696 7.98333L17.8933 7.95666C17.8933 7.95666 17.8934 7.95666 17.8934 7.95666C18.0304 7.9567 18.1617 8.01113 18.2586 8.10799C18.3555 8.20488 18.4099 8.3363 18.4099 8.47333H18.4098L18.4101 8.48037L18.9501 19.9737L18.9501 19.9742C18.9536 20.0442 18.9429 20.1141 18.9185 20.1798C18.8941 20.2455 18.8566 20.3056 18.8082 20.3563C18.7599 20.4071 18.7018 20.4475 18.6373 20.475C18.5729 20.5026 18.5035 20.5168 18.4335 20.5167H18.4333H6.56659H6.5664C6.49632 20.5168 6.42696 20.5026 6.36253 20.475C6.2981 20.4475 6.23995 20.4071 6.19162 20.3563C6.14329 20.3056 6.10579 20.2455 6.08139 20.1798C6.057 20.1141 6.04623 20.0442 6.04974 19.9742L6.04976 19.9737L6.58976 8.50705L6.58992 8.50706V8.49999C6.58992 8.36296 6.64436 8.23155 6.74125 8.13465C6.83815 8.03776 6.96956 7.98333 7.10659 7.98333Z" fill="#494F54" stroke="#494F54" stroke-width="0.3"/>
</svg>
