<svg width="20" height="20" viewBox="0 0 20 20" fill="none" xmlns="http://www.w3.org/2000/svg">
<g clip-path="url(#clip0_30_1427)">
<path d="M1.25 5H5.62531C5.87395 5 6.11241 5.09877 6.28823 5.27459C6.46404 5.4504 6.56281 5.68886 6.56281 5.9375V9.37531C6.56281 9.62395 6.46404 9.86241 6.28823 10.0382C6.11241 10.214 5.87395 10.3128 5.62531 10.3128H1.25031C1.12717 10.3129 1.00523 10.2886 0.891451 10.2415C0.777672 10.1944 0.674286 10.1254 0.587198 10.0383C0.50011 9.95128 0.431026 9.84791 0.383893 9.73415C0.33676 9.62039 0.3125 9.49845 0.3125 9.37531V5.93781C0.3125 5.68917 0.411272 5.45071 0.587087 5.2749C0.762903 5.09908 1.00136 5 1.25 5Z" fill="#8D9FBB"/>
<path d="M10.3132 3.75C11.1762 3.75 11.8757 3.05044 11.8757 2.1875C11.8757 1.32456 11.1762 0.625 10.3132 0.625C9.45029 0.625 8.75073 1.32456 8.75073 2.1875C8.75073 3.05044 9.45029 3.75 10.3132 3.75Z" fill="#8D9FBB"/>
<path d="M3.75098 11.2037C3.75103 11.689 3.94183 12.1548 4.28223 12.5006H9.36254V11.2022C9.36254 11.1196 9.32975 11.0405 9.27138 10.9821C9.21301 10.9237 9.13384 10.8909 9.05129 10.8909H4.06191C3.97925 10.8913 3.90012 10.9245 3.84184 10.9831C3.78357 11.0417 3.75089 11.1211 3.75098 11.2037Z" fill="#8D9FBB"/>
<path d="M19.2929 16.0497C19.1405 15.4863 18.7988 14.9925 18.3252 14.6513C17.8516 14.3102 17.2749 14.1426 16.6922 14.1766C16.7412 13.994 16.7664 13.8059 16.7672 13.6169C16.7613 13.3172 16.6827 13.0235 16.5382 12.7609C16.3936 12.4983 16.1875 12.2747 15.9376 12.1094C15.2666 11.6641 14.7647 10.5319 14.6888 9.34126H15.2876C15.535 9.34135 15.7724 9.24329 15.9476 9.06859C16.1228 8.89389 16.2216 8.65682 16.2222 8.40939V7.78876C16.2216 7.54133 16.1228 7.30426 15.9476 7.12957C15.7724 6.95487 15.535 6.85681 15.2876 6.85689H13.1501C11.3432 6.33658 10.7994 5.7372 10.4747 5.37814C10.4681 5.37089 10.4616 5.3636 10.4551 5.35626C10.4875 5.11668 10.4441 4.87295 10.331 4.65927C10.2179 4.44558 10.0408 4.27264 9.82444 4.1647C9.66997 4.09096 9.50086 4.05302 9.3297 4.05372C9.15854 4.05442 8.98974 4.09374 8.83589 4.16874C8.68203 4.24375 8.54709 4.3525 8.44111 4.48691C8.33514 4.62132 8.26086 4.77791 8.22381 4.94501L7.32725 9.22939C7.30087 9.35663 7.30139 9.48798 7.32876 9.61501C7.35614 9.74204 7.40978 9.86195 7.48623 9.96703C7.56267 10.0721 7.66025 10.16 7.77269 10.2252C7.88512 10.2903 8.00994 10.3313 8.13912 10.3453L9.67569 10.5153C9.75486 10.5238 9.82776 10.5623 9.87934 10.623C9.93093 10.6836 9.95725 10.7618 9.95287 10.8413L9.711 14.9369C9.45968 14.7173 9.28098 14.4265 9.19856 14.103C9.11614 13.7796 9.13388 13.4388 9.24944 13.1256H4.47287C3.96912 13.9603 3.16256 15.5253 3.48881 16.5431C3.54965 16.7348 3.65537 16.9091 3.79719 17.0516C3.939 17.1941 4.1128 17.3007 4.30412 17.3625C4.44466 17.4054 4.59205 17.4213 4.7385 17.4094C4.77427 17.9146 5.00019 18.3874 5.37074 18.7327C5.74129 19.0779 6.22892 19.2699 6.73537 19.2699C7.24183 19.2699 7.72946 19.0779 8.10001 18.7327C8.47055 18.3874 8.69648 17.9146 8.73225 17.4094H14.0885C14.1406 17.4065 14.1915 17.3934 14.2385 17.3707C14.2854 17.348 14.3274 17.3162 14.3619 17.2772C14.3999 17.4618 14.4616 17.6406 14.5454 17.8094C14.5688 17.8585 14.6048 17.9006 14.6496 17.9315C14.6945 17.9624 14.7466 17.981 14.8009 17.9855C14.8552 17.9899 14.9097 17.98 14.9589 17.9568C15.0082 17.9336 15.0505 17.8978 15.0816 17.8531C15.1182 17.8006 15.1576 17.75 15.1991 17.6997C15.2409 17.9693 15.3374 18.2276 15.4827 18.4585C15.628 18.6895 15.819 18.8883 16.044 19.0426C16.269 19.197 16.5232 19.3037 16.791 19.3562C17.0587 19.4086 17.3344 19.4058 17.601 19.3477C17.8676 19.2897 18.1195 19.1777 18.3413 19.0186C18.563 18.8596 18.7498 18.6569 18.8902 18.423C19.0307 18.189 19.1218 17.9288 19.1579 17.6584C19.1941 17.3879 19.1745 17.1129 19.1004 16.8503C19.181 16.8416 19.2549 16.8014 19.3061 16.7385C19.3573 16.6756 19.3816 16.5951 19.3738 16.5144C19.3619 16.3572 19.335 16.2016 19.2929 16.0497ZM6.73537 18.6491C6.39392 18.6491 6.06465 18.5222 5.81144 18.2932C5.55823 18.0641 5.39915 17.7491 5.36506 17.4094H8.10569C8.0716 17.7491 7.91251 18.0641 7.6593 18.2932C7.4061 18.5222 7.07682 18.6491 6.73537 18.6491ZM12.7938 15.2356H11.5797L12.1166 10.1606C12.1381 9.95511 12.0906 9.74828 11.9816 9.57269C11.8726 9.3971 11.7084 9.2627 11.5147 9.19064L9.9835 8.61908C9.91311 8.59292 9.8546 8.54211 9.81885 8.47607C9.7831 8.41003 9.77254 8.33325 9.78912 8.26001L10.0219 7.25533C10.8186 7.89061 11.7804 8.28457 12.7938 8.39064V15.2356ZM17.3519 18.7413C17.1447 18.7685 16.9339 18.7482 16.7356 18.682C16.5373 18.6158 16.3566 18.5054 16.2073 18.3591C16.0579 18.2128 15.9438 18.0344 15.8735 17.8375C15.8033 17.6406 15.7787 17.4303 15.8016 17.2225L15.8966 17.1038C16.6123 16.6601 17.465 16.4924 18.2954 16.6319L18.3691 16.6891C18.4826 16.8854 18.5458 17.1066 18.553 17.3332C18.5603 17.5598 18.5114 17.7847 18.4107 17.9879C18.31 18.191 18.1606 18.3661 17.9759 18.4975C17.7912 18.629 17.5768 18.7127 17.3519 18.7413Z" fill="#8D9FBB"/>
</g>
<defs>
<clipPath id="clip0_30_1427">
<rect width="20" height="20" fill="white"/>
</clipPath>
</defs>
</svg>
