<svg width="120" height="36" viewBox="0 0 120 36" fill="none" xmlns="http://www.w3.org/2000/svg">
<g clip-path="url(#clip0_3_2498)">
<path d="M111.034 0.383545H8.96551C4.22501 0.383545 0.382065 4.24127 0.382065 9.00001V26.9993C0.382065 31.7581 4.22501 35.6158 8.96551 35.6158H111.034C115.774 35.6158 119.617 31.7581 119.617 26.9993V9.00001C119.617 4.24127 115.774 0.383545 111.034 0.383545Z" fill="black"/>
<path fill-rule="evenodd" clip-rule="evenodd" d="M95.3366 26.845H96.971V15.7556H95.3366V26.845ZM110.068 19.7502L108.194 24.5583H108.138L106.191 19.7502H104.43L107.348 26.4698L105.684 30.2082H107.39L111.888 19.7502H110.068ZM100.792 25.5857C100.257 25.5857 99.509 25.3143 99.509 24.6442C99.509 23.7885 100.44 23.4603 101.244 23.4603C101.961 23.4603 102.301 23.6175 102.737 23.8314C102.61 24.8581 101.737 25.5857 100.792 25.5857ZM100.99 19.5086C99.8055 19.5086 98.5786 20.0369 98.0717 21.2069L99.5235 21.8189C99.8338 21.2069 100.412 21.0061 101.018 21.0061C101.863 21.0061 102.723 21.5198 102.737 22.4322V22.5465C102.441 22.3755 101.807 22.1193 101.032 22.1193C99.4662 22.1193 97.8731 22.9889 97.8731 24.6151C97.8731 26.0994 99.1566 27.0555 100.595 27.0555C101.694 27.0555 102.301 26.5563 102.681 25.9713H102.737V26.8263H104.317V22.5755C104.317 20.6066 102.863 19.5086 100.99 19.5086ZM90.8807 21.1009H88.5545V17.3002H90.8807C92.1034 17.3002 92.7972 18.3248 92.7972 19.1999C92.7972 20.059 92.1034 21.1009 90.8807 21.1009ZM90.8379 15.7563H86.92V26.845H88.5545V22.6441H90.8386C92.651 22.6441 94.4331 21.3162 94.4331 19.1999C94.4331 17.0842 92.651 15.7563 90.8386 15.7563H90.8379ZM69.4669 25.5892C68.3365 25.5892 67.391 24.631 67.391 23.3163C67.391 21.9871 68.3372 21.0151 69.4669 21.0151C70.5814 21.0151 71.4579 21.9864 71.4579 23.317C71.4579 24.6303 70.5814 25.5892 69.4669 25.5892ZM71.3448 20.3719H71.2883C70.9214 19.9295 70.2145 19.5287 69.3262 19.5287C67.4614 19.5287 65.7538 21.1875 65.7538 23.3156C65.7538 25.4306 67.4614 27.0749 69.3262 27.0749C70.2145 27.0749 70.9214 26.6754 71.2883 26.2178H71.3448V26.7599C71.3448 28.204 70.5814 28.9752 69.3538 28.9752C68.351 28.9752 67.7297 28.2462 67.4752 27.6322L66.0497 28.2324C66.4579 29.2321 67.5448 30.4616 69.3538 30.4616C71.2745 30.4616 72.8986 29.3179 72.8986 26.5321V19.7565H71.3448V20.3719ZM74.029 26.845H75.6669V15.7563H74.029V26.845ZM78.0807 23.1875C78.0386 21.7295 79.1966 20.9867 80.031 20.9867C80.68 20.9867 81.231 21.3155 81.4152 21.787L78.0807 23.1875ZM83.1655 21.9296C82.8545 21.0871 81.9083 19.5287 79.9738 19.5287C78.0538 19.5287 76.4572 21.0587 76.4572 23.3018C76.4572 25.4168 78.0386 27.0749 80.1572 27.0749C81.8655 27.0749 82.8545 26.0177 83.2648 25.4029L81.9938 24.5445C81.569 25.1738 80.9903 25.5885 80.1572 25.5885C79.3241 25.5885 78.731 25.2022 78.3503 24.4448L83.3352 22.3582L83.1648 21.9296H83.1655ZM43.4483 20.6869V22.2875H47.2338C47.1207 23.1875 46.8234 23.8452 46.3717 24.3022C45.8207 24.8602 44.9586 25.4742 43.4483 25.4742C41.1179 25.4742 39.2966 23.5732 39.2966 21.2159C39.2966 18.8579 41.1179 16.9568 43.4483 16.9568C44.7055 16.9568 45.6234 17.4573 46.3014 18.1005L47.4172 16.9713C46.4703 16.0568 45.2145 15.3555 43.4483 15.3555C40.2572 15.3555 37.5738 17.9862 37.5738 21.2159C37.5738 24.4448 40.2572 27.0749 43.4483 27.0749C45.171 27.0749 46.4703 26.5023 47.4869 25.4306C48.5324 24.3742 48.8572 22.8878 48.8572 21.6866C48.8611 21.3514 48.8327 21.0166 48.7724 20.6869H43.4483ZM53.16 25.5892C52.031 25.5892 51.0566 24.6449 51.0566 23.3018C51.0566 21.9435 52.031 21.0151 53.16 21.0151C54.2897 21.0151 55.2648 21.9435 55.2648 23.3018C55.2648 24.6449 54.2897 25.5892 53.16 25.5892ZM53.16 19.528C51.0979 19.528 49.4172 21.1155 49.4172 23.3018C49.4172 25.4756 51.0972 27.0749 53.16 27.0749C55.2221 27.0749 56.9021 25.4742 56.9021 23.3018C56.9021 21.1155 55.2221 19.528 53.16 19.528ZM61.3241 25.5892C60.1938 25.5892 59.2193 24.6449 59.2193 23.3018C59.2193 21.9435 60.1938 21.0151 61.3241 21.0151C62.4545 21.0151 63.4283 21.9435 63.4283 23.3018C63.4283 24.6449 62.4538 25.5892 61.3241 25.5892ZM61.3241 19.528C59.2621 19.528 57.5814 21.1155 57.5814 23.3018C57.5814 25.4756 59.2628 27.0749 61.3241 27.0749C63.3862 27.0749 65.0669 25.4742 65.0669 23.3018C65.0669 21.1155 63.3869 19.528 61.3241 19.528Z" fill="white"/>
<mask id="mask0_3_2498" style="mask-type:alpha" maskUnits="userSpaceOnUse" x="10" y="6" width="12" height="24">
<path d="M10.7428 6.91961C10.4876 7.19376 10.3379 7.61676 10.3379 8.16576V27.7858C10.3379 28.3355 10.489 28.7591 10.7428 29.0319L10.8076 29.0956L21.669 18.1052V17.8463L10.8076 6.85522L10.7428 6.91961Z" fill="white"/>
</mask>
<g mask="url(#mask0_3_2498)">
<path d="M10.7428 6.91961C10.4876 7.19376 10.3379 7.61676 10.3379 8.16576V27.7858C10.3379 28.3355 10.489 28.7591 10.7428 29.0319L10.8076 29.0956L21.669 18.1052V17.8463L10.8076 6.85522L10.7428 6.91961Z" fill="#00C7FF"/>
</g>
<mask id="mask1_3_2498" style="mask-type:alpha" maskUnits="userSpaceOnUse" x="21" y="14" width="10" height="8">
<path d="M21.669 17.8455V18.1052L25.2883 21.7695L25.371 21.7232L29.66 19.2578C30.8848 18.5517 30.8848 17.399 29.66 16.6956L25.371 14.2282L25.2896 14.1812L21.669 17.8455Z" fill="white"/>
</mask>
<g mask="url(#mask1_3_2498)">
<path fill-rule="evenodd" clip-rule="evenodd" d="M21.669 17.8455V18.1052L25.2883 21.7695L25.371 21.7232L29.66 19.2578C30.8848 18.5517 30.8848 17.399 29.66 16.6956L25.371 14.2282L25.2896 14.1812L21.669 17.8455Z" fill="#FFCE00"/>
</g>
<mask id="mask2_3_2498" style="mask-type:alpha" maskUnits="userSpaceOnUse" x="10" y="17" width="16" height="13">
<path d="M10.7435 29.0312C11.1469 29.4632 11.8145 29.5173 12.5655 29.0866L25.371 21.7233L21.669 17.9751L10.7435 29.0312Z" fill="white"/>
</mask>
<g mask="url(#mask2_3_2498)">
<path fill-rule="evenodd" clip-rule="evenodd" d="M10.7435 29.0312C11.1469 29.4632 11.8145 29.5173 12.5655 29.0866L25.371 21.7233L21.669 17.9751L10.7435 29.0312Z" fill="url(#paint0_linear_3_2498)"/>
</g>
<mask id="mask3_3_2498" style="mask-type:alpha" maskUnits="userSpaceOnUse" x="10" y="6" width="16" height="12">
<path d="M10.7441 6.92022L21.6683 17.9764L25.371 14.2296L12.5669 6.86691C12.2131 6.66406 11.8793 6.56714 11.5835 6.56714C11.2455 6.56714 10.9579 6.69037 10.7435 6.92022" fill="white"/>
</mask>
<g mask="url(#mask3_3_2498)">
<path d="M10.7441 6.92022L21.6683 17.9764L25.371 14.2296L12.5669 6.86691C12.2131 6.66406 11.8793 6.56714 11.5835 6.56714C11.2455 6.56714 10.9579 6.69037 10.7435 6.92022" fill="#00F076"/>
</g>
<path fill-rule="evenodd" clip-rule="evenodd" d="M12.5655 6.99515L29.6593 16.8238C30.2152 17.1423 30.5269 17.5549 30.5786 17.9751C30.5786 17.5113 30.2724 17.0468 29.6593 16.6944L12.5655 6.86569C11.3407 6.16161 10.3379 6.74661 10.3379 8.16653V8.2953C10.3379 6.87607 11.3407 6.29107 12.5655 6.99515ZM41.6531 7.8273C41.6531 7.57253 41.5572 7.36969 41.3676 7.21807C41.1772 7.06853 40.9193 6.99307 40.5924 6.99307C40.3138 6.99307 40.0786 7.06853 39.8924 7.21669C39.8028 7.28368 39.7305 7.37126 39.6815 7.47208C39.6326 7.5729 39.6084 7.68402 39.611 7.79615H38.6393C38.6393 7.48669 38.7241 7.21184 38.8945 6.96953C39.0641 6.72792 39.2979 6.5403 39.5993 6.40599C39.9126 6.26987 40.251 6.20146 40.5924 6.20523C41.2338 6.20523 41.7338 6.34784 42.0903 6.6303C42.4448 6.91415 42.6228 7.31015 42.6228 7.81969C42.6228 8.07653 42.5469 8.3133 42.3924 8.5293C42.2253 8.75419 42.0016 8.93031 41.7441 9.03953C42.0586 9.14892 42.2972 9.31438 42.4635 9.5373C42.629 9.75815 42.7117 10.0358 42.7117 10.366C42.7117 10.8741 42.5186 11.2791 42.1338 11.5796C41.7476 11.8794 41.2345 12.0296 40.5931 12.0296C40.2241 12.035 39.8581 11.9618 39.5193 11.815C39.2007 11.6717 38.9607 11.4778 38.8 11.23C38.6371 10.9773 38.5531 10.6815 38.5586 10.3805H39.529C39.529 10.6256 39.6297 10.8305 39.8303 10.9988C40.0303 11.1663 40.2841 11.2501 40.5924 11.2501C40.9372 11.2501 41.2145 11.1677 41.4228 11.005C41.6331 10.8409 41.7379 10.6277 41.7379 10.3653C41.7379 10.0455 41.6455 9.81353 41.4614 9.66953C41.2779 9.52553 41.009 9.45353 40.6545 9.45353H39.9959V8.67399H40.62C41.3076 8.67399 41.6524 8.39153 41.6524 7.82661L41.6531 7.8273ZM44.8572 9.83846H46.4828L45.6703 7.48461L44.8572 9.83846ZM46.7572 10.6339H44.5835L44.1283 11.9555H43.1172L45.2345 6.2793H46.109L48.2324 11.9548H47.2138L46.7566 10.6332L46.7572 10.6339ZM52.4538 7.07546H49.8655V11.9555H48.8938V6.2793H52.4545V7.07407L52.4538 7.07546ZM54.2372 9.05546H55.4083C55.7559 9.05546 56.0193 8.97238 56.2028 8.80761C56.3841 8.64284 56.4759 8.40399 56.4759 8.09246C56.4759 7.78576 56.3828 7.54069 56.1986 7.35723C56.0131 7.17446 55.7593 7.0803 55.4352 7.07476H54.2372V9.05546ZM54.2372 9.85022V11.9548H53.2628V6.2793H55.4076C56.0352 6.2793 56.5324 6.44546 56.9007 6.77569C57.2697 7.10592 57.4538 7.54276 57.4538 8.08623C57.4538 8.64423 57.2731 9.07623 56.9131 9.38569C56.5517 9.69584 56.0455 9.84953 55.3966 9.84953H54.2366L54.2372 9.85022ZM60.3248 9.24584L61.449 6.27999H62.531L60.5793 10.9877L60.4021 11.3435C60.1448 11.806 59.729 12.0372 59.1538 12.0372L58.7538 12.0137L58.7607 11.2341C58.8221 11.2445 58.9303 11.2501 59.0883 11.2501C59.3655 11.2501 59.56 11.1303 59.6745 10.8915L59.8745 10.4124L57.9552 6.27999H59.0186L60.3248 9.24584ZM66.0786 7.8273C66.0786 7.57253 65.9835 7.36969 65.7931 7.21807C65.6035 7.06853 65.3448 6.99307 65.0186 6.99307C64.7393 6.99307 64.5048 7.06853 64.3186 7.21669C64.229 7.28368 64.1567 7.37126 64.1078 7.47208C64.0588 7.5729 64.0346 7.68402 64.0372 7.79615H63.0648C63.0648 7.48669 63.1503 7.21184 63.32 6.96953C63.4992 6.72027 63.7433 6.52531 64.0255 6.40599C64.3389 6.26989 64.6772 6.20148 65.0186 6.20523C65.66 6.20523 66.16 6.34784 66.5166 6.6303C66.871 6.91415 67.049 7.31015 67.049 7.81969C67.049 8.07653 66.9724 8.3133 66.8186 8.5293C66.6515 8.75419 66.4278 8.93031 66.1703 9.03953C66.4848 9.14892 66.7234 9.31438 66.8897 9.5373C67.0552 9.75815 67.1379 10.0358 67.1379 10.366C67.1379 10.8741 66.9448 11.2791 66.56 11.5796C66.1738 11.8794 65.6607 12.0296 65.0193 12.0296C64.6503 12.035 64.2843 11.9618 63.9455 11.815C63.6262 11.6717 63.3869 11.4778 63.2262 11.23C63.0633 10.9773 62.9793 10.6815 62.9848 10.3805H63.9552C63.9552 10.6256 64.0559 10.8305 64.2566 10.9988C64.4566 11.1663 64.7104 11.2501 65.0186 11.2501C65.3635 11.2501 65.64 11.1677 65.849 11.005C66.0593 10.8409 66.1641 10.6277 66.1641 10.3653C66.1641 10.0455 66.0717 9.81353 65.8876 9.66953C65.7041 9.52553 65.4352 9.45353 65.0807 9.45353H64.4214V8.67399H65.0462C65.7338 8.67399 66.0786 8.39222 66.0786 7.8273ZM71.4807 6.2793H72.4538V11.9555H71.4807V7.91246L69.0179 11.9555H68.0448V6.2793H69.0186V10.3265L71.4807 6.2793ZM77.5621 7.07546H75.8138V11.9555H74.8469V7.07476H73.1124V6.27999H77.5628L77.5621 7.07476V7.07546ZM81.5766 9.42169H79.2717V11.1684H81.9648V11.9555H78.2986V6.2793H81.9379V7.07407H79.2717V8.64215H81.5772L81.5766 9.42169ZM85.6972 9.39399V11.1684H86.78C87.0862 11.1684 87.3248 11.0908 87.4972 10.9378C87.6697 10.7841 87.7559 10.5709 87.7559 10.2995C87.7559 9.7083 87.4572 9.40715 86.8621 9.39469L85.6972 9.39399ZM85.6972 8.66984H86.6531C86.9566 8.66984 87.1931 8.59992 87.3641 8.46076C87.5345 8.3223 87.62 8.12499 87.62 7.87023C87.62 7.58915 87.5421 7.38699 87.3835 7.26099C87.2262 7.13776 86.9793 7.07476 86.6462 7.07476H85.6972V8.66984ZM84.7241 11.9555V6.2793H86.6469C87.28 6.2793 87.7621 6.40807 88.0938 6.66492C88.4248 6.92246 88.591 7.30599 88.591 7.81415C88.591 8.07515 88.5221 8.30846 88.3828 8.51615C88.2441 8.72522 88.0421 8.88584 87.7745 9.00007C88.0772 9.08315 88.3117 9.2403 88.4772 9.46876C88.6428 9.6993 88.7262 9.97553 88.7262 10.2988C88.7262 10.8305 88.5572 11.2404 88.2193 11.5263C87.8807 11.8115 87.3972 11.9548 86.7697 11.9548L84.7241 11.9555Z" fill="white"/>
<path d="M111.034 0.383545H8.96551C4.22501 0.383545 0.382065 4.24127 0.382065 9.00001V26.9993C0.382065 31.7581 4.22501 35.6158 8.96551 35.6158H111.034C115.774 35.6158 119.617 31.7581 119.617 26.9993V9.00001C119.617 4.24127 115.774 0.383545 111.034 0.383545Z" stroke="#B3B1B1" stroke-width="1.27962"/>
</g>
<defs>
<linearGradient id="paint0_linear_3_2498" x1="23.3586" y1="21.5003" x2="7.27001" y2="37.3983" gradientUnits="userSpaceOnUse">
<stop stop-color="#FF3A44"/>
<stop offset="1" stop-color="#C31162"/>
</linearGradient>
<clipPath id="clip0_3_2498">
<rect width="120" height="36" fill="white"/>
</clipPath>
</defs>
</svg>
