<svg width="20" height="20" viewBox="0 0 20 20" fill="none" xmlns="http://www.w3.org/2000/svg">
<g clip-path="url(#clip0_3_84)">
<path d="M14.9363 6.86028C10.9903 4.65289 7.04483 2.44462 3.09982 0.235471C2.70986 -0.0220683 2.26119 -0.0558183 1.87354 0.0753926L11.7974 9.99922L14.9363 6.86028Z" fill="#32BBFF"/>
<path d="M1.87352 0.0753937C1.80087 0.100003 1.73016 0.129691 1.66255 0.16555C1.23446 0.397112 0.919891 0.842698 0.919891 1.40625V18.5922C0.919891 19.1557 1.23442 19.6013 1.66255 19.8329C1.73029 19.8685 1.80076 19.8988 1.87329 19.9232L11.7974 9.99922L1.87352 0.0753937Z" fill="#32BBFF"/>
<path d="M11.7974 9.99924L1.87329 19.9233C2.26106 20.0554 2.70974 20.0243 3.09981 19.763C8.70911 16.622 12.3961 14.56 14.7464 13.2495L14.9393 13.1412L11.7974 9.99924Z" fill="#32BBFF"/>
<path d="M0.919891 9.99924V18.5922C0.919891 19.1558 1.23442 19.6013 1.66255 19.8329C1.73029 19.8685 1.80076 19.8988 1.87329 19.9233L11.7974 9.99924H0.919891Z" fill="#2C9FD9"/>
<path d="M3.0998 0.235465C2.63672 -0.070316 2.09062 -0.0616051 1.66254 0.165582L11.6467 10.1498L14.9362 6.86027C10.9903 4.65287 7.0448 2.4446 3.0998 0.235465Z" fill="#29CC5E"/>
<path d="M11.6468 9.84869L1.66254 19.8329C2.09066 20.06 2.63672 20.0731 3.0998 19.763C8.7091 16.622 12.3961 14.56 14.7464 13.2495L14.9393 13.1412L11.6468 9.84869Z" fill="#D93F21"/>
<path d="M19.0801 9.99924C19.0801 9.52306 18.8398 9.04252 18.3636 8.77603C18.3636 8.77603 17.473 8.27912 14.7432 6.75224L11.4962 9.99924L14.7464 13.2494C17.4462 11.7335 18.3636 11.2224 18.3636 11.2224C18.8398 10.956 19.0801 10.4754 19.0801 9.99924Z" fill="#FFD500"/>
<path d="M18.3636 11.2224C18.8398 10.956 19.0801 10.4754 19.0801 9.99924H11.4962L14.7464 13.2494C17.4463 11.7336 18.3636 11.2224 18.3636 11.2224Z" fill="#FFAA00"/>
</g>
<defs>
<clipPath id="clip0_3_84">
<rect width="20" height="20" fill="white"/>
</clipPath>
</defs>
</svg>
