<svg width="18" height="18" viewBox="0 0 18 18" fill="none" xmlns="http://www.w3.org/2000/svg">
<path fill-rule="evenodd" clip-rule="evenodd" d="M9.75 9C8.35212 9 7.17755 8.04392 6.84451 6.75H1.5V5.25H6.84451C7.17755 3.95608 8.35212 3 9.75 3C11.4069 3 12.75 4.34315 12.75 6C12.75 7.65685 11.4069 9 9.75 9ZM11.25 6C11.25 6.82843 10.5784 7.5 9.75 7.5C8.92157 7.5 8.25 6.82843 8.25 6C8.25 5.17157 8.92157 4.5 9.75 4.5C10.5784 4.5 11.25 5.17157 11.25 6Z" fill="#494F54"/>
<path d="M13.5 5.25H16.5V6.75H13.5V5.25Z" fill="#494F54"/>
<path fill-rule="evenodd" clip-rule="evenodd" d="M6 15C4.60212 15 3.42755 14.0439 3.09451 12.75H1.5V11.25H3.09451C3.42755 9.95608 4.60212 9 6 9C7.65685 9 9 10.3431 9 12C9 13.6569 7.65685 15 6 15ZM7.5 12C7.5 12.8284 6.82843 13.5 6 13.5C5.17157 13.5 4.5 12.8284 4.5 12C4.5 11.1716 5.17157 10.5 6 10.5C6.82843 10.5 7.5 11.1716 7.5 12Z" fill="#494F54"/>
<path d="M9.75 12.75H16.5V11.25H9.75V12.75Z" fill="#494F54"/>
</svg>
