<svg width="53" height="59" viewBox="0 0 53 59" fill="none" xmlns="http://www.w3.org/2000/svg">
<path d="M0.699145 0.0105374C0.490133 0.0851481 0.309848 0.225213 0.18427 0.410547C0.0586923 0.59588 -0.0056921 0.816912 0.000395101 1.04179V52.5383C0.000395101 53.0787 0.483833 53.5695 1.01602 53.5695H5.6493C5.91795 53.5629 6.174 53.4526 6.36534 53.261C6.55667 53.0694 6.66889 52.8109 6.67915 52.5383C6.66889 52.2656 6.55667 52.0072 6.36534 51.8156C6.174 51.624 5.91795 51.5137 5.6493 51.507H2.03165V2.0751H27.4223C27.6909 2.06848 27.947 1.95813 28.1383 1.76654C28.3296 1.57495 28.4419 1.31651 28.4521 1.04385C28.4419 0.771191 28.3296 0.512752 28.1383 0.321159C27.947 0.129565 27.6909 0.0192227 27.4223 0.0126H1.01602C0.911043 -0.00420001 0.804122 -0.00420001 0.699145 0.0126V0.0105374ZM31.1679 0.5901C30.9589 0.664711 30.7786 0.804775 30.653 0.990109C30.5274 1.17544 30.4631 1.39647 30.4691 1.62135V9.87135C30.4691 10.4117 30.9526 10.9026 31.4848 10.9026H39.6098C40.3857 10.8717 40.8427 9.73316 40.3085 9.16185L32.1835 0.91185C32.0711 0.790323 31.9317 0.697751 31.777 0.641799C31.6223 0.585847 31.4566 0.568124 31.2938 0.5901C31.2519 0.58746 31.2098 0.58746 31.1679 0.5901ZM32.5004 4.0716L37.1987 8.8401H32.5004V4.0716ZM6.09415 8.25641V10.3189H24.3754V8.25641H6.09415ZM39.3559 12.3814C39.1239 12.4481 38.9216 12.5937 38.7829 12.7939C38.6442 12.994 38.5776 13.2366 38.5941 13.4807V15.4153C38.6007 15.6881 38.7093 15.9481 38.898 16.1424C39.0867 16.3367 39.3412 16.4506 39.6098 16.461C39.8786 16.4506 40.1335 16.3364 40.3222 16.1416C40.5109 15.9469 40.6194 15.6864 40.6254 15.4133V13.4807C40.666 12.8743 40.077 12.3072 39.4818 12.3855C39.4399 12.3829 39.3978 12.3829 39.3559 12.3855V12.3814ZM47.2899 12.3814C46.2479 12.3814 45.2241 12.7423 44.434 13.5426L42.5937 15.4772C42.4714 15.5405 42.3629 15.6282 42.2748 15.735C42.1697 15.8239 42.0834 15.9333 42.0209 16.0568L10.9854 47.5759C10.6685 47.8977 10.5852 48.205 10.4126 48.4793L7.55664 56.9871C7.31289 57.7255 8.17415 58.5608 8.88915 58.2762L17.459 55.3742C17.7434 55.2092 17.8206 55.2298 18.0298 54.8586L49.1952 23.2157C49.2628 23.1798 49.3262 23.1362 49.3841 23.0858L49.4491 23.0218C49.5542 22.933 49.6405 22.8235 49.7031 22.7001L51.6063 20.8315C51.982 20.4508 52.2801 19.9986 52.4834 19.5009C52.6868 19.0031 52.7915 18.4695 52.7915 17.9306C52.7915 17.3917 52.6868 16.858 52.4834 16.3603C52.2801 15.8625 51.982 15.4103 51.6063 15.0297L50.2109 13.5467C49.4207 12.7465 48.332 12.3876 47.2899 12.3876V12.3814ZM47.2899 14.382C47.8059 14.382 48.3462 14.6151 48.7504 15.0255L50.2109 16.5085C50.4024 16.6966 50.5547 16.9219 50.6587 17.171C50.7628 17.4201 50.8164 17.6878 50.8164 17.9584C50.8164 18.229 50.7628 18.4968 50.6587 18.7459C50.5547 18.995 50.4024 19.2203 50.2109 19.4083L48.7504 20.8913L47.2899 19.4083L46.5932 18.6349L45.8945 17.9254L44.434 16.5085L45.8945 15.0255C46.2987 14.6151 46.774 14.38 47.2899 14.38V14.382ZM6.09415 14.4439V16.5064H28.4379V14.4439H6.09415ZM42.9735 17.9254L44.434 19.4083L14.2821 50.0241L12.8216 48.5412L42.9735 17.9254ZM6.09415 20.6376V22.7001H32.5004V20.6376H6.09415ZM45.8945 20.8954L47.2899 22.3123L17.1401 52.9281L15.7426 51.5091L45.8945 20.8954ZM39.3559 35.0751C39.1247 35.1416 38.9229 35.2866 38.7843 35.4859C38.6457 35.6852 38.5785 35.9268 38.5941 36.1703V51.507H23.3598C23.0911 51.5137 22.8351 51.624 22.6437 51.8156C22.4524 52.0072 22.3402 52.2656 22.3299 52.5383C22.3402 52.8109 22.4524 53.0694 22.6437 53.261C22.8351 53.4526 23.0911 53.5629 23.3598 53.5695H39.6098C39.8759 53.5593 40.1284 53.4474 40.3168 53.2562C40.5051 53.0649 40.6153 52.8085 40.6254 52.5383V36.1682C40.666 35.5618 40.077 34.9947 39.4818 35.073C39.4399 35.0704 39.3978 35.0725 39.3559 35.0751ZM11.871 50.5438L15.2977 53.9593L10.1566 55.698L11.871 50.5438Z" fill="white"/>
</svg>
