<?xml version="1.0" encoding="utf-8"?>
<!-- Generator: Adobe Illustrator 13.0.0, SVG Export Plug-In . SVG Version: 6.00 Build 14948)  -->
<!DOCTYPE svg PUBLIC "-//W3C//DTD SVG 1.1//EN" "http://www.w3.org/Graphics/SVG/1.1/DTD/svg11.dtd">
<svg version="1.1" id="Layer_1" xmlns="http://www.w3.org/2000/svg" xmlns:xlink="http://www.w3.org/1999/xlink" x="0px" y="0px"
	 width="161.363px" height="130.999px" viewBox="0 0 161.363 130.999" enable-background="new 0 0 161.363 130.999"
	 xml:space="preserve">
<g>
	<g>
		<path fill="#fff" d="M158.363,130.999H5.428c-1.657,0-3-1.343-3-3s1.343-3,3-3h152.936c1.657,0,3,1.343,3,3
			S160.021,130.999,158.363,130.999z"/>
	</g>
	<g>
		<path fill="#fff" d="M3,130.999c-1.657,0-3-1.343-3-3V3c0-1.657,1.343-3,3-3s3,1.343,3,3v124.999
			C6,129.656,4.657,130.999,3,130.999z"/>
	</g>
	<g>
		<path fill="#fff" d="M44.173,130.968c-1.657,0-3-1.343-3-3V75.09c0-1.657,1.343-3,3-3s3,1.343,3,3v52.878
			C47.173,129.625,45.83,130.968,44.173,130.968z"/>
	</g>
	<g>
		<path fill="#fff" d="M19.894,130.968c-1.657,0-3-1.343-3-3V90.469c0-1.657,1.343-3,3-3s3,1.343,3,3v37.499
			C22.894,129.625,21.551,130.968,19.894,130.968z"/>
	</g>
	<g>
		<path fill="#fff" d="M86.444,129.33c-1.657,0-3-1.343-3-3V69.027c0-1.657,1.343-3,3-3s3,1.343,3,3v57.303
			C89.444,127.987,88.102,129.33,86.444,129.33z"/>
	</g>
	<g>
		<path fill="#fff" d="M62.166,130.815c-1.657,0-3-1.343-3-3v-64.97c0-1.657,1.343-3,3-3s3,1.343,3,3v64.97
			C65.166,129.473,63.823,130.815,62.166,130.815z"/>
	</g>
	<g>
		<path fill="#fff" d="M128.717,129.784c-1.657,0-3-1.343-3-3V39.977c0-1.657,1.343-3,3-3s3,1.343,3,3v86.808
			C131.717,128.441,130.374,129.784,128.717,129.784z"/>
	</g>
	<g>
		<path fill="#fff" d="M104.438,129.784c-1.657,0-3-1.343-3-3V57.998c0-1.657,1.343-3,3-3s3,1.343,3,3v68.786
			C107.438,128.441,106.096,129.784,104.438,129.784z"/>
	</g>
	<g>
		<path fill="#fff" d="M3.636,102.425c-0.971,0-1.923-0.47-2.501-1.339c-0.918-1.38-0.543-3.242,0.837-4.159l68.253-45.385
			c0.92-0.613,2.105-0.668,3.078-0.146c0.975,0.522,1.583,1.538,1.583,2.644v18.357l73.845-55.616
			c1.321-0.997,3.203-0.733,4.201,0.592c0.997,1.323,0.731,3.204-0.592,4.201L73.69,80.81c-0.909,0.686-2.127,0.797-3.144,0.288
			c-1.018-0.508-1.661-1.547-1.661-2.685V59.638L5.294,101.923C4.783,102.263,4.206,102.425,3.636,102.425z"/>
	</g>
	<g>
		<g>
			<path fill="#fff" d="M128.972,19.912c-1.555,0-2.87-1.2-2.988-2.775c-0.124-1.652,1.114-3.092,2.767-3.216l23.865-1.792
				c1.65-0.118,3.092,1.115,3.216,2.767c0.124,1.652-1.114,3.092-2.767,3.216l-23.865,1.792
				C129.123,19.909,129.047,19.912,128.972,19.912z"/>
		</g>
		<g>
			<path fill="#fff" d="M149.227,42.698c-0.19,0-0.384-0.018-0.577-0.056c-1.626-0.317-2.688-1.893-2.37-3.519l4.583-23.491
				c0.316-1.627,1.896-2.69,3.519-2.37c1.626,0.317,2.688,1.893,2.37,3.519l-4.583,23.491
				C151.889,41.704,150.633,42.698,149.227,42.698z"/>
		</g>
	</g>
</g>
</svg>
