<?xml version="1.0" encoding="UTF-8"?>
<svg xmlns="http://www.w3.org/2000/svg" width="30" height="30" viewBox="0 0 30 30" fill="none">
  <g clip-path="url(#clip0_297_1820)">
    <path d="M29.7361 5.96094L20.6377 15.0007L29.7361 24.0405C29.9005 23.6967 30.0003 23.3167 30.0003 22.9109V7.09057C30.0003 6.68469 29.9005 6.30471 29.7361 5.96094Z" fill="#5B7B3B"></path>
    <path d="M27.364 4.45312H2.63744C2.23156 4.45312 1.85158 4.55291 1.50781 4.71738L13.1365 16.2875C14.1647 17.3157 15.8367 17.3157 16.8649 16.2875L28.4936 4.71738C28.1499 4.55291 27.7699 4.45312 27.364 4.45312Z" fill="#5B7B3B"></path>
    <path d="M0.264258 5.96094C0.0997852 6.30471 0 6.68469 0 7.09057V22.9109C0 23.3167 0.0997852 23.6968 0.264258 24.0405L9.36264 15.0007L0.264258 5.96094Z" fill="#5B7B3B"></path>
    <path d="M19.3943 16.2422L18.1068 17.5297C16.3936 19.2429 13.6059 19.2429 11.8926 17.5297L10.6052 16.2422L1.50684 25.282C1.85061 25.4464 2.23059 25.5462 2.63646 25.5462H27.363C27.7689 25.5462 28.1489 25.4464 28.4926 25.282L19.3943 16.2422Z" fill="#5B7B3B"></path>
  </g>
  <defs>
    <clipPath id="clip0_297_1820">
      <rect width="30" height="30" fill="white"></rect>
    </clipPath>
  </defs>
</svg>
