<?xml version="1.0" encoding="UTF-8"?>
<svg xmlns="http://www.w3.org/2000/svg" width="17" height="17" viewBox="0 0 17 17" fill="none">
  <path d="M8.37878 8.18895C9.5038 8.18895 10.478 7.78545 11.2739 6.98936C12.0699 6.1934 12.4734 5.21948 12.4734 4.09434C12.4734 2.96959 12.0699 1.99555 11.2738 1.19933C10.4777 0.403494 9.50367 0 8.37878 0C7.25364 0 6.27973 0.403494 5.48377 1.19946C4.6878 1.99542 4.28418 2.96946 4.28418 4.09434C4.28418 5.21948 4.6878 6.19353 5.4839 6.98949C6.27999 7.78532 7.25403 8.18895 8.37878 8.18895Z" fill="#5B7B3B"></path>
  <path d="M15.5433 13.0714C15.5203 12.7402 15.4739 12.3788 15.4055 11.9972C15.3365 11.6128 15.2477 11.2494 15.1413 10.9172C15.0315 10.5739 14.8821 10.2349 14.6974 9.91C14.5057 9.57278 14.2805 9.27914 14.0279 9.03751C13.7637 8.78473 13.4402 8.58149 13.0662 8.43324C12.6934 8.28577 12.2803 8.21107 11.8384 8.21107C11.6649 8.21107 11.4971 8.28227 11.1729 8.49329C10.9735 8.62338 10.7401 8.77383 10.4797 8.94024C10.257 9.08213 9.95533 9.21507 9.5827 9.33543C9.21915 9.45307 8.85003 9.51273 8.48571 9.51273C8.12138 9.51273 7.75239 9.45307 7.38845 9.33543C7.01621 9.2152 6.71453 9.08226 6.4921 8.94037C6.23413 8.77552 6.00067 8.62507 5.79821 8.49316C5.47448 8.28214 5.30652 8.21094 5.13298 8.21094C4.69097 8.21094 4.278 8.28577 3.90538 8.43337C3.53158 8.58136 3.20799 8.7846 2.94353 9.03764C2.691 9.2794 2.46572 9.57291 2.27428 9.91C2.08972 10.2349 1.94031 10.5738 1.83032 10.9174C1.7241 11.2495 1.63525 11.6128 1.56625 11.9972C1.4979 12.3783 1.45147 12.7398 1.42851 13.0718C1.40594 13.3971 1.39453 13.7347 1.39453 14.0757C1.39453 14.9631 1.67663 15.6815 2.23291 16.2113C2.78231 16.7341 3.50928 16.9994 4.39331 16.9994H12.5789C13.4629 16.9994 14.1896 16.7343 14.7392 16.2113C15.2956 15.6819 15.5777 14.9633 15.5777 14.0755C15.5775 13.733 15.566 13.3951 15.5433 13.0714Z" fill="#5B7B3B"></path>
</svg>
