<?xml version="1.0" encoding="UTF-8"?>
<svg xmlns="http://www.w3.org/2000/svg" width="17" height="17" viewBox="0 0 17 17" fill="none">
  <path d="M16.8501 3.37695L11.6943 8.49949L16.8501 13.622C16.9433 13.4272 16.9998 13.2119 16.9998 12.9819V4.01708C16.9998 3.78708 16.9433 3.57176 16.8501 3.37695Z" fill="#5B7B3B"></path>
  <path d="M15.5063 2.52344H1.49461C1.26462 2.52344 1.04929 2.57998 0.854492 2.67318L7.44408 9.22959C8.02673 9.81224 8.97421 9.81224 9.55686 9.22959L16.1464 2.67318C15.9516 2.57998 15.7363 2.52344 15.5063 2.52344Z" fill="#5B7B3B"></path>
  <path d="M0.149746 3.37793C0.0565449 3.57273 0 3.78805 0 4.01805V12.9829C0 13.2129 0.0565449 13.4282 0.149746 13.623L5.30549 8.50047L0.149746 3.37793Z" fill="#5B7B3B"></path>
  <path d="M10.9907 9.2041L10.2611 9.93367C9.29031 10.9045 7.7106 10.9045 6.73978 9.93367L6.01024 9.2041L0.854492 14.3266C1.04929 14.4198 1.26462 14.4764 1.49461 14.4764H15.5063C15.7363 14.4764 15.9516 14.4198 16.1464 14.3266L10.9907 9.2041Z" fill="#5B7B3B"></path>
</svg>
