<?xml version="1.0" encoding="UTF-8"?>
<svg xmlns="http://www.w3.org/2000/svg" width="254" height="254" viewBox="0 0 254 254" fill="none">
  <path opacity="0.03" d="M221.597 54.438H149.614C134.893 32.8243 110.154 18.6396 82.1141 18.6396C36.9798 18.6396 0.384863 55.3912 0.384863 100.727C0.361392 115.997 4.60016 130.968 12.6201 143.942V233.826C12.6201 238.778 14.579 243.528 18.0658 247.03C21.5526 250.532 26.2818 252.5 31.2129 252.5H216.749V127.327L189.606 142.706V117.155L216.749 100.445H240.2V73.109C240.2 70.656 239.719 68.2271 238.784 65.9609C237.849 63.6948 236.478 61.636 234.751 59.902C233.023 58.1681 230.972 56.793 228.715 55.8555C226.458 54.9179 224.04 54.4363 221.597 54.438Z" fill="#EAEAEA"></path>
  <path opacity="0.06" d="M221.978 53.9329H149.995C135.274 32.3218 110.535 18.1372 82.495 18.1372C37.3606 18.1372 0.765718 54.8862 0.765718 100.222C0.742714 115.492 4.98048 130.463 12.9984 143.437V233.321C12.9984 238.273 14.9573 243.023 18.4441 246.525C21.9309 250.027 26.6601 251.995 31.5912 251.995H217.117V126.822L189.987 142.201V116.65L217.117 99.9397H240.571V72.6066C240.571 70.1543 240.09 67.7261 239.156 65.4605C238.221 63.1949 236.852 61.1363 235.125 59.4023C233.399 57.6683 231.349 56.2928 229.093 55.3544C226.837 54.4159 224.42 53.9329 221.978 53.9329Z" fill="#EAEAEA"></path>
  <path opacity="0.08" d="M222.36 53.4276H150.38C135.658 31.8165 110.919 17.6318 82.8921 17.6318C37.7578 17.6318 1.16028 54.3808 1.16028 99.7167C1.13385 114.986 5.36901 129.957 13.3852 142.931V232.815C13.3852 237.767 15.3438 242.516 18.8302 246.018C22.3165 249.519 27.045 251.487 31.9754 251.487H217.498V126.319L190.371 141.698V116.158L217.498 99.4473H240.953V72.1012C240.953 67.1487 238.994 62.399 235.507 58.897C232.02 55.395 227.291 53.4276 222.36 53.4276Z" fill="#EAEAEA"></path>
  <path opacity="0.11" d="M222.745 52.9227H150.762C136.04 31.3116 111.302 17.127 83.2615 17.127C38.1272 17.127 1.5323 53.8785 1.5323 99.2118C1.51162 114.482 5.75209 129.453 13.7727 142.426V232.311C13.7734 237.263 15.7326 242.012 19.2193 245.513C22.7061 249.015 27.4348 250.982 32.3655 250.982H217.883V125.814L190.753 141.193V115.64L217.883 98.9321H241.335V71.6041C241.336 69.1514 240.856 66.7226 239.922 64.4562C238.988 62.1899 237.619 60.1305 235.893 58.3957C234.167 56.6609 232.117 55.2847 229.861 54.3456C227.605 53.4065 225.187 52.923 222.745 52.9227Z" fill="#EAEAEA"></path>
  <path opacity="0.14" d="M223.126 52.4173H151.143C136.421 30.8062 111.683 16.6216 83.6427 16.6216C38.5058 16.6216 1.90829 53.3731 1.90829 98.7065C1.88579 113.977 6.12448 128.947 14.1436 141.921V231.805C14.1442 236.758 16.1033 241.507 19.59 245.009C23.0767 248.511 27.8054 250.478 32.7363 250.479H218.264V125.309L191.135 140.688V115.137L218.264 98.4267H241.719V71.0858C241.717 66.1343 239.757 61.3864 236.27 57.8856C232.784 54.3849 228.056 52.418 223.126 52.4173Z" fill="#EAEAEA"></path>
  <path opacity="0.17" d="M223.507 51.9179H151.527C136.806 30.3043 112.067 16.1196 84.0268 16.1196C38.8925 16.1196 2.29498 52.8712 2.29498 98.2071C2.27643 113.477 6.52061 128.447 14.5457 141.416V231.301C14.5485 236.247 16.5054 240.991 19.9869 244.49C23.4684 247.989 28.19 249.958 33.1153 249.964H218.648V124.805L191.519 140.183V114.632L218.648 97.9221H242.1V70.5864C242.1 68.1345 241.619 65.7067 240.684 63.4415C239.75 61.1764 238.38 59.1183 236.653 57.3847C234.927 55.6512 232.877 54.2762 230.622 53.3382C228.366 52.4002 225.949 51.9176 223.507 51.9179Z" fill="#EAEAEA"></path>
  <path opacity="0.19" d="M223.892 51.3999H151.909C137.188 29.7862 112.449 15.6016 84.409 15.6016C39.2747 15.6016 2.67977 52.3531 2.67977 97.689C2.65754 112.959 6.89621 127.93 14.915 140.903V230.785C14.9157 235.738 16.8748 240.487 20.3615 243.989C23.8482 247.491 28.5769 249.458 33.5078 249.459H219.031V124.299L191.901 139.678V114.127L219.031 97.4171H242.482V70.0813C242.484 67.6285 242.004 65.1995 241.07 62.933C240.137 60.6666 238.767 58.6071 237.041 56.8722C235.315 55.1373 233.265 53.7611 231.009 52.8221C228.753 51.8832 226.334 51.3999 223.892 51.3999Z" fill="#EAEAEA"></path>
  <path opacity="0.22" d="M224.274 50.9051H152.291C137.57 29.294 112.833 15.1094 84.7934 15.1094C39.6591 15.1094 3.06161 51.8583 3.06161 97.1943C3.03938 112.464 7.27805 127.435 15.2969 140.409V230.293C15.3003 235.243 17.2607 239.99 20.7471 243.489C24.2336 246.988 28.9608 248.954 33.8896 248.954H219.412V123.794L192.283 139.173V113.622L219.412 96.9119H242.867V69.5788C242.867 64.6262 240.908 59.8765 237.421 56.3745C233.934 52.8725 229.205 50.9051 224.274 50.9051Z" fill="#EAEAEA"></path>
  <path opacity="0.25" d="M224.656 50.4H152.675C137.954 28.7889 113.215 14.6172 85.1751 14.6172C40.0356 14.6172 3.45618 51.3558 3.45618 96.6891C3.42961 111.958 7.66478 126.929 15.6811 139.904V229.788C15.6811 234.74 17.6397 239.489 21.1261 242.99C24.6124 246.492 29.3409 248.459 34.2713 248.459H219.797V123.292L192.667 138.671V113.12L219.797 96.4094H243.248V69.0736C243.248 64.1211 241.29 59.3713 237.803 55.8694C234.316 52.3674 229.587 50.4 224.656 50.4Z" fill="#EAEAEA"></path>
  <path opacity="0.28" d="M225.04 49.8949H153.057C138.343 28.2838 113.597 14.0991 85.5565 14.0991C40.4221 14.0991 3.82724 50.8507 3.82724 96.184C3.80501 111.454 8.04367 126.425 16.0625 139.398V229.283C16.0659 234.234 18.0274 238.982 21.5155 242.481C25.0036 245.981 29.7328 247.946 34.663 247.944H220.178V122.787L193.048 138.176V112.614L220.178 95.9042H243.63V68.5685C243.63 63.6164 241.671 58.8671 238.185 55.3652C234.699 51.8632 229.97 49.8955 225.04 49.8949Z" fill="#EAEAEA"></path>
  <path opacity="0.31" d="M225.421 49.39H153.439C138.72 27.7789 113.978 13.5942 85.9409 13.5942C40.8066 13.5942 4.20907 50.3458 4.20907 95.6791C4.18657 110.949 8.42526 125.92 16.4443 138.894V228.778C16.445 233.73 18.4041 238.48 21.8908 241.981C25.3775 245.483 30.1062 247.451 35.0371 247.452H220.56V122.282L193.43 137.658V112.11L220.56 95.3994H244.014V68.0636C244.013 63.1113 242.054 58.362 238.568 54.8601C235.081 51.3583 230.352 49.3907 225.421 49.39Z" fill="#EAEAEA"></path>
  <path opacity="0.33" d="M225.804 48.8872H153.818C139.102 27.2735 114.358 13.0889 86.3231 13.0889C41.1888 13.0889 4.59385 49.8404 4.59385 95.1763C4.57003 110.446 8.80884 125.416 16.8291 138.388V228.273C16.8291 233.225 18.788 237.975 22.2748 241.477C24.0013 243.211 26.051 244.586 28.3067 245.525C30.5625 246.463 32.9803 246.946 35.4219 246.946H220.945V121.776L193.815 137.155V111.604L220.945 94.894H244.396V67.5583C244.396 65.1061 243.916 62.678 242.981 60.4125C242.047 58.1471 240.677 56.0887 238.951 54.3549C237.224 52.6211 235.174 51.2459 232.919 50.3077C230.663 49.3695 228.245 48.8868 225.804 48.8872Z" fill="#EAEAEA"></path>
  <path opacity="0.36" d="M226.187 48.3822H154.204C139.483 26.7686 114.744 12.5839 86.7039 12.5839C41.5696 12.5839 4.9747 49.3355 4.9747 94.6714C4.95247 109.941 9.19114 124.912 17.21 137.886V227.77C17.21 232.723 19.1688 237.472 22.6557 240.974C26.1425 244.476 30.8716 246.444 35.8027 246.444H221.325V121.271L194.196 136.65V111.099L221.325 94.3994H244.777V67.0533C244.777 62.1014 242.819 57.3524 239.332 53.8509C235.846 50.3494 231.117 48.3822 226.187 48.3822Z" fill="#EAEAEA"></path>
  <path opacity="0.39" d="M226.569 47.8767H154.591C139.867 26.2734 115.131 12.081 87.0883 12.081C41.954 12.081 5.35653 48.83 5.35653 94.1659C5.33398 109.436 9.57363 124.407 17.5944 137.38V227.265C17.5951 232.216 19.554 236.964 23.0402 240.465C26.5265 243.966 31.2546 245.933 36.1846 245.933H221.707V120.766L194.567 136.145V110.596L221.707 93.8809H245.162V66.5504C245.162 61.5978 243.203 56.8481 239.716 53.3461C236.229 49.8441 231.5 47.8767 226.569 47.8767Z" fill="#EAEAEA"></path>
  <path opacity="0.42" d="M226.951 47.3718H154.971C140.249 25.7607 115.511 11.5761 87.4705 11.5761C42.3362 11.5761 5.74132 48.3277 5.74132 93.661C5.71688 108.933 9.95568 123.906 17.9766 136.881V226.765C17.9821 231.714 19.9434 236.458 23.4297 239.955C26.916 243.452 31.642 245.416 36.5693 245.415H222.092V120.264L194.962 135.642V110.091L222.092 93.3812H245.544V66.0455C245.544 63.5933 245.063 61.165 244.129 58.8994C243.194 56.6338 241.825 54.5752 240.098 52.8412C238.372 51.1072 236.322 49.7317 234.066 48.7933C231.81 47.8549 229.393 47.3718 226.951 47.3718Z" fill="#EAEAEA"></path>
  <path opacity="0.44" d="M227.335 46.8665H155.365C140.644 25.2554 115.905 11.0708 87.8651 11.0708C42.7308 11.0708 6.13585 47.8224 6.13585 93.1557C6.11119 108.422 10.3453 123.39 18.3582 136.362V226.247C18.3589 231.199 20.3181 235.948 23.8048 239.449C27.2916 242.951 32.0203 244.918 36.951 244.918H222.474V119.758L195.342 135.137V109.586L222.471 92.8759H245.923V65.5402C245.923 60.5885 243.965 55.8396 240.479 52.3378C236.993 48.8359 232.266 46.8679 227.335 46.8665Z" fill="#EAEAEA"></path>
  <path opacity="0.47" d="M227.716 46.3616H155.734C141.015 24.7505 116.273 10.5659 88.2358 10.5659C43.1015 10.5659 6.504 47.3175 6.504 92.6508C6.48103 107.921 10.7207 122.893 18.7418 135.865V225.729C18.7418 230.681 20.7004 235.43 24.1866 238.932C27.6729 242.434 32.4014 244.402 37.332 244.402H222.855V119.266L195.725 134.632V109.081L222.855 92.371H246.309V65.0353C246.308 60.083 244.349 55.3336 240.863 51.8318C237.376 48.3299 232.647 46.3623 227.716 46.3616Z" fill="#EAEAEA"></path>
  <path opacity="0.5" d="M228.096 45.8589H156.118C141.397 24.2452 116.658 10.0605 88.618 10.0605C43.4837 10.0605 6.88877 46.8121 6.88877 92.148C6.86496 107.417 11.1038 122.388 19.124 135.36V225.244C19.124 230.197 21.0829 234.946 24.5697 238.448C28.0566 241.95 32.7857 243.918 37.7168 243.918H223.24V118.748L196.115 134.127V108.576L223.245 91.8657H246.696V64.5299C246.696 62.0771 246.215 59.6484 245.28 57.3824C244.346 55.1165 242.975 53.0577 241.248 51.3238C239.521 49.5899 237.47 48.2148 235.213 47.2771C232.957 46.3394 230.538 45.8575 228.096 45.8589Z" fill="#EAEAEA"></path>
  <path opacity="0.53" d="M228.483 45.354H156.5C141.779 23.7404 117.04 9.55573 88.9999 9.55573C43.8655 9.55573 7.27059 46.3073 7.27059 91.6432C7.24836 106.913 11.487 121.884 19.5059 134.858V224.729C19.5059 229.682 21.4647 234.431 24.9516 237.933C28.4384 241.435 33.1675 243.403 38.0986 243.403H223.621V118.243L196.492 133.622V108.071L223.621 91.3608H247.073V64.0251C247.073 61.5732 246.592 59.1453 245.658 56.88C244.724 54.6147 243.355 52.5564 241.628 50.8227C239.902 49.0889 237.853 47.7136 235.597 46.7753C233.342 45.837 230.924 45.354 228.483 45.354Z" fill="#EAEAEA"></path>
  <path opacity="0.56" d="M228.87 44.849H156.882C142.163 23.2379 117.422 9.05328 89.3843 9.05328C44.2499 9.05328 7.65243 45.8023 7.65243 91.1382C7.62987 106.409 11.8695 121.38 19.8903 134.353V224.237C19.8899 226.689 20.3705 229.117 21.3046 231.383C22.2387 233.648 23.608 235.707 25.3343 237.441C27.0606 239.175 29.1101 240.551 31.3657 241.489C33.6213 242.428 36.0389 242.911 38.4805 242.911H224.003V117.738L196.874 133.117V107.569L224.003 90.8558H247.458V63.5227C247.458 58.571 245.499 53.8221 242.014 50.3202C238.528 46.8184 233.8 44.8504 228.87 44.849Z" fill="#EAEAEA"></path>
  <path opacity="0.58" d="M229.246 44.3436H157.266C142.544 22.7325 117.805 8.54791 89.7655 8.54791C44.6311 8.54791 8.03623 45.2995 8.03623 90.6328C8.01276 105.903 12.2515 120.874 20.2715 133.847V223.732C20.2715 226.184 20.7524 228.612 21.6868 230.877C22.6212 233.143 23.9908 235.201 25.7174 236.935C27.4439 238.669 29.4936 240.044 31.7493 240.982C34.0051 241.92 36.4228 242.403 38.8643 242.403H224.387V117.235L197.257 132.614V107.063L224.387 90.353H247.839V63.0173C247.839 58.0648 245.88 53.315 242.393 49.813C238.906 46.311 234.177 44.3436 229.246 44.3436Z" fill="#EAEAEA"></path>
  <path opacity="0.61" d="M229.643 43.8382H157.648C142.926 22.2271 118.187 8.04248 90.1473 8.04248C45.013 8.04248 8.41806 44.7941 8.41806 90.1274C8.39555 105.397 12.6342 120.368 20.6533 133.342V223.226C20.654 228.179 22.6131 232.928 26.0998 236.43C29.5864 239.932 34.3152 241.899 39.2461 241.9H224.769V116.73L197.639 132.109V106.558L224.769 89.8476H248.213V62.5119C248.212 57.5636 246.256 52.8178 242.775 49.3166C239.293 45.8154 234.57 43.8451 229.643 43.8382Z" fill="#EAEAEA"></path>
  <path opacity="0.64" d="M230.012 43.3333H158.032C143.31 21.7222 118.572 7.5376 90.5317 7.5376C45.3974 7.5376 8.79989 44.2892 8.79989 89.6251C8.77727 104.895 13.0169 119.865 21.0377 132.837V222.721C21.0377 227.673 22.9963 232.423 26.4825 235.925C29.9688 239.426 34.6973 241.394 39.6279 241.395H225.151V116.225L198.024 131.604V106.055L225.151 89.3453H248.605V62.0199C248.606 59.5667 248.126 57.1372 247.193 54.8703C246.259 52.6033 244.89 50.5434 243.163 48.808C241.436 47.0727 239.386 45.6961 237.13 44.7567C234.873 43.8173 232.455 43.3337 230.012 43.3333Z" fill="#EAEAEA"></path>
  <path opacity="0.67" d="M230.396 42.8305H158.413C143.692 21.2169 118.953 7.03223 90.9129 7.03223C45.7786 7.03223 9.18369 43.7838 9.18369 89.1197C9.16022 104.39 13.399 119.361 21.419 132.334V222.206C21.419 227.158 23.3778 231.908 26.8647 235.41C30.3515 238.912 35.0806 240.879 40.0117 240.879H225.534V115.72L198.405 131.099V105.537L225.534 88.827H248.986V61.5016C248.986 56.5497 247.028 51.8007 243.541 48.2992C240.055 44.7977 235.326 42.8305 230.396 42.8305Z" fill="#EAEAEA"></path>
  <path opacity="0.69" d="M230.779 42.3333H158.796C144.075 20.7222 119.336 6.5376 91.2957 6.5376C46.1614 6.5376 9.56648 43.2866 9.56648 88.6225C9.5457 103.89 13.7843 118.858 21.8018 131.829V221.714C21.8018 226.666 23.7606 231.416 27.2474 234.918C30.7343 238.42 35.4634 240.387 40.3945 240.387H225.917V115.215L198.788 130.594V105.043L225.917 88.3324H249.372V60.9992C249.37 56.048 247.41 51.3003 243.923 47.8C240.437 44.2997 235.709 42.3333 230.779 42.3333Z" fill="#EAEAEA"></path>
  <path opacity="0.72" d="M231.16 41.8153H159.179C144.458 20.2042 119.719 6.01953 91.6792 6.01953C46.5449 6.01953 9.94736 42.7685 9.94736 88.1044C9.9248 103.375 14.1644 118.346 22.1852 131.319V221.203C22.1852 226.155 24.1438 230.904 27.6301 234.406C31.1165 237.907 35.845 239.874 40.7754 239.874H226.29V114.712L199.171 130.088V104.54L226.29 87.8272H249.76V60.4941C249.761 58.0408 249.28 55.6113 248.346 53.3446C247.411 51.0779 246.041 49.0184 244.314 47.2837C242.586 45.5491 240.535 44.1733 238.278 43.235C236.021 42.2967 233.602 41.8142 231.16 41.8153Z" fill="#EAEAEA"></path>
  <path opacity="0.75" d="M231.544 41.3153H159.562C144.84 19.7042 120.101 5.51953 92.0613 5.51953C46.927 5.51953 10.3321 42.2711 10.3321 87.6044C10.3099 102.874 14.5486 117.845 22.5674 130.819V220.703C22.5674 223.155 23.0483 225.583 23.9827 227.849C24.9171 230.114 26.2867 232.173 28.0132 233.907C29.7398 235.64 31.7894 237.016 34.0452 237.954C36.301 238.892 38.7186 239.375 41.1602 239.374H226.683V114.207L199.553 129.586V104.035L226.683 87.3247H250.135V59.9889C250.135 55.0368 248.176 50.2875 244.69 46.7856C241.204 43.2836 236.475 41.316 231.544 41.3153Z" fill="#EAEAEA"></path>
  <path opacity="0.78" d="M231.925 40.8104H159.943C145.221 19.1993 120.482 5.01465 92.4422 5.01465C47.3079 5.01465 10.713 41.7662 10.713 87.0995C10.6905 102.37 14.9292 117.341 22.9483 130.314V220.198C22.9489 225.151 24.908 229.9 28.3947 233.402C31.8814 236.904 36.6101 238.871 41.541 238.872H227.064V113.702L199.934 129.081V103.53L227.064 86.8198H250.518V59.4841C250.517 54.5317 248.558 49.7824 245.072 46.2805C241.585 42.7787 236.856 40.8111 231.925 40.8104Z" fill="#EAEAEA"></path>
  <path opacity="0.81" d="M232.308 40.3083H160.328C145.606 18.6946 120.868 4.51514 92.8276 4.51514C47.6933 4.51514 11.0958 41.2667 11.0958 86.6026C11.0738 101.871 15.3135 116.839 23.3336 129.809V219.694C23.3336 224.646 25.2922 229.395 28.7784 232.897C32.2647 236.399 36.9932 238.367 41.9238 238.367H227.449V113.197L200.32 128.576V103.025L227.449 86.3151H250.901V58.9793C250.901 56.5272 250.42 54.0991 249.486 51.8336C248.551 49.5682 247.182 47.5098 245.455 45.776C243.729 44.0422 241.679 42.6669 239.423 41.7288C237.167 40.7906 234.75 40.3079 232.308 40.3083Z" fill="#EAEAEA"></path>
  <path opacity="0.83" d="M232.692 39.8032H160.709C145.988 18.1895 121.249 3.99707 93.2088 3.99707C48.0745 3.99707 11.4796 40.7486 11.4796 86.0845C11.4573 101.355 15.696 116.325 23.7149 129.299V219.183C23.7155 224.136 25.6746 228.885 29.1613 232.387C32.648 235.889 37.3767 237.856 42.3076 237.857H227.838V112.692L200.701 128.074V102.52L227.838 85.8099H251.29V58.4742C251.29 56.0217 250.809 53.5931 249.874 51.3273C248.939 49.0615 247.569 47.0029 245.842 45.269C244.115 43.5352 242.065 42.16 239.808 41.2222C237.552 40.2843 235.134 39.8021 232.692 39.8032Z" fill="#EAEAEA"></path>
  <path opacity="0.86" d="M233.074 39.2977H161.091C146.369 17.6866 121.631 3.50195 93.5933 3.50195C48.4589 3.50195 11.8614 40.2509 11.8614 85.5868C11.8369 100.856 16.0729 115.827 24.089 128.801V218.686C24.089 223.638 26.0478 228.388 29.5347 231.89C33.0215 235.392 37.7506 237.359 42.6817 237.359H228.204V112.187L201.083 127.555V102.015L228.212 85.3045H251.667V57.9713C251.667 55.5191 251.186 53.0908 250.251 50.8252C249.317 48.5597 247.947 46.5011 246.221 44.7671C244.494 43.0331 242.445 41.6576 240.189 40.7191C237.933 39.7807 235.515 39.2977 233.074 39.2977Z" fill="#EAEAEA"></path>
  <path opacity="0.89" d="M233.456 38.7928H161.475C146.754 17.1817 122.015 2.99707 93.9828 2.99707C48.8485 2.99707 12.2433 39.7434 12.2433 85.0742C12.2207 100.345 16.4603 115.316 24.4811 128.289V218.173C24.4811 223.125 26.4397 227.874 29.926 231.375C33.4124 234.877 38.1409 236.844 43.0713 236.844H228.597V111.685L201.467 127.063V101.512L228.597 84.7996H252.048V57.4665C252.049 55.0141 251.568 52.5857 250.634 50.32C249.7 48.0542 248.33 45.9955 246.603 44.2614C244.877 42.5274 242.827 41.1519 240.571 40.2136C238.315 39.2752 235.897 38.7925 233.456 38.7928Z" fill="#EAEAEA"></path>
  <path opacity="0.92" d="M233.839 38.2874H161.857C147.135 16.6763 122.396 2.4917 94.3563 2.4917C49.222 2.4917 12.627 39.2433 12.627 84.5766C12.6048 99.8466 16.8435 114.817 24.8623 127.791V217.675C24.8623 222.628 26.8212 227.378 30.308 230.88C33.7948 234.382 38.524 236.349 43.4551 236.349H228.978V111.179L201.848 126.558V101.007L228.978 84.2968H252.43V56.9611C252.43 52.009 250.471 47.2596 246.985 43.7577C243.499 40.2558 238.77 38.2881 233.839 38.2874Z" fill="#EAEAEA"></path>
  <path opacity="0.94" d="M234.221 37.7825H162.238C147.52 16.1714 122.781 1.98682 94.7407 1.98682C49.6064 1.98682 13.0089 38.7384 13.0089 84.0717C12.9845 99.3453 17.2232 114.32 25.2442 127.296V217.181C25.251 222.129 27.2128 226.872 30.6988 230.369C34.1848 233.866 38.9101 235.83 43.8369 235.831H229.36V110.674L202.23 126.053V100.502L229.36 83.7919H252.814V56.4562C252.813 51.5039 250.854 46.7545 247.368 43.2527C243.881 39.7509 239.152 37.7832 234.221 37.7825Z" fill="#EAEAEA"></path>
  <path opacity="0.97" d="M234.603 37.2798H162.623C147.902 15.6661 123.163 1.48145 95.1229 1.48145C49.9885 1.48145 13.3936 38.233 13.3936 83.5689C13.3726 98.8383 17.6141 113.808 25.6366 126.778V216.663C25.6366 221.615 27.5955 226.365 31.0823 229.867C34.5692 233.369 39.2983 235.336 44.2294 235.336H229.752V110.169L202.615 125.548V99.9968L229.744 83.2866H253.196V55.9508C253.196 53.4987 252.715 51.0706 251.781 48.8051C250.846 46.5397 249.477 44.4813 247.75 42.7475C246.024 41.0137 243.974 39.6384 241.718 38.7003C239.463 37.7621 237.045 37.2794 234.603 37.2798Z" fill="#EAEAEA"></path>
  <path d="M234.988 36.7749H163.005C148.284 15.1612 123.545 0.976562 95.5047 0.976562C50.3704 0.976562 13.7755 37.7281 13.7755 83.064C13.7532 98.3341 17.9919 113.305 26.0107 126.278V216.145C26.0114 221.097 27.9705 225.846 31.4572 229.348C34.9439 232.85 39.6726 234.818 44.6035 234.818H230.126V109.664L202.997 125.043V99.4919L230.126 82.7817H253.578V55.4459C253.578 50.4941 251.619 45.745 248.133 42.2435C244.647 38.742 239.918 36.7749 234.988 36.7749Z" fill="#EAEAEA"></path>
  <path d="M235.212 36.8447H163.23C148.5 15.231 123.772 1.04639 95.7319 1.04639C50.5976 1.04639 14.0001 37.7979 14.0001 83.1339C13.981 98.4048 18.2252 113.375 26.2508 126.346V216.23C26.2535 221.177 28.2104 225.92 31.6919 229.419C35.1734 232.918 39.8951 234.887 44.8204 234.893H230.343V109.734L203.221 125.113V99.5617L230.351 82.8515H253.805V55.5158C253.805 50.5637 251.845 45.8146 248.359 42.3132C244.872 38.8117 240.143 36.8447 235.212 36.8447Z" fill="#7C9440"></path>
  <path d="M95.494 151.592C133.874 151.592 164.988 120.343 164.988 81.7958C164.988 43.2483 133.874 11.9995 95.494 11.9995C57.1135 11.9995 26 43.2483 26 81.7958C26 120.343 57.1135 151.592 95.494 151.592Z" fill="url(#paint0_linear_921_596)"></path>
  <g clip-path="url(#clip0_921_596)">
    <path d="M94.7863 81.4482C96.7716 81.4482 98.4908 80.7362 99.8954 79.3313C101.3 77.9267 102.012 76.208 102.012 74.2224C102.012 72.2376 101.3 70.5187 99.8952 69.1136C98.4903 67.7092 96.7714 66.9971 94.7863 66.9971C92.8008 66.9971 91.0821 67.7092 89.6775 69.1138C88.2728 70.5185 87.5605 72.2374 87.5605 74.2224C87.5605 76.208 88.2728 77.9269 89.6777 79.3315C91.0826 80.7359 92.8015 81.4482 94.7863 81.4482Z" fill="#7C9440"></path>
    <path d="M107.429 90.0651C107.389 89.4805 107.307 88.8429 107.186 88.1695C107.064 87.4911 106.908 86.8498 106.72 86.2636C106.526 85.6578 106.262 85.0595 105.937 84.4861C105.598 83.891 105.201 83.3729 104.755 82.9465C104.289 82.5004 103.718 82.1417 103.058 81.8801C102.4 81.6199 101.671 81.488 100.891 81.488C100.585 81.488 100.289 81.6137 99.717 81.9861C99.3649 82.2156 98.9532 82.4811 98.4936 82.7748C98.1006 83.0252 97.5682 83.2598 96.9106 83.4722C96.2691 83.6798 95.6177 83.7851 94.9748 83.7851C94.3318 83.7851 93.6807 83.6798 93.0384 83.4722C92.3816 83.26 91.8492 83.0254 91.4566 82.775C91.0014 82.4841 90.5894 82.2186 90.2321 81.9858C89.6608 81.6134 89.3644 81.4878 89.0582 81.4878C88.2782 81.4878 87.5494 81.6199 86.8918 81.8803C86.2322 82.1415 85.6612 82.5001 85.1945 82.9467C84.7488 83.3733 84.3513 83.8913 84.0134 84.4861C83.6877 85.0595 83.4241 85.6575 83.23 86.2639C83.0425 86.85 82.8857 87.4911 82.764 88.1695C82.6434 88.842 82.5614 89.4799 82.5209 90.0658C82.4811 90.6398 82.4609 91.2356 82.4609 91.8373C82.4609 93.4033 82.9588 94.6711 83.9404 95.6061C84.91 96.5287 86.1928 96.9968 87.7529 96.9968H102.198C103.758 96.9968 105.04 96.5289 106.01 95.6061C106.992 94.6718 107.49 93.4038 107.49 91.8371C107.49 91.2326 107.469 90.6364 107.429 90.0651Z" fill="#7C9440"></path>
  </g>
  <path d="M143.102 35.4591C169.925 62.3985 170.232 105.9 144.015 133.223C144.33 132.92 144.644 132.617 144.954 132.306C172.091 105.048 172.091 60.8547 144.954 33.5993C117.816 6.34386 73.8117 6.34127 46.6744 33.5993C46.3649 33.9101 46.0597 34.2235 45.7588 34.5396C72.9658 8.20889 116.272 8.51196 143.102 35.4591Z" fill="white"></path>
  <path d="M43.476 181.981C43.476 184.893 45.688 187.161 48.544 187.161C51.4 187.161 53.626 184.893 53.626 181.981C53.626 179.139 51.4 176.941 48.544 176.941C45.688 176.941 43.476 179.139 43.476 181.981ZM44.932 181.981C44.932 179.867 46.542 178.243 48.544 178.243C50.546 178.243 52.17 179.867 52.17 181.981C52.17 184.165 50.546 185.845 48.544 185.845C46.542 185.845 44.932 184.165 44.932 181.981ZM54.5916 183.451C54.5916 185.649 55.7956 187.161 57.7136 187.161C59.4496 187.161 60.0376 185.873 60.0376 185.873H60.0656C60.0656 185.873 60.0516 186.027 60.0516 186.237C60.0516 186.713 60.2896 186.993 60.9196 186.993H62.2216V185.831H61.6476C61.4516 185.831 61.3396 185.733 61.3396 185.523V178.005C61.3396 177.375 61.0736 177.109 60.4296 177.109H59.0996V178.271H59.6736C59.8696 178.271 59.9816 178.369 59.9816 178.579V180.357C59.9816 180.623 59.9956 180.833 59.9956 180.833H59.9676C59.9676 180.833 59.4216 179.741 57.7836 179.741C55.9216 179.741 54.5916 181.197 54.5916 183.451ZM55.9636 183.451C55.9636 181.841 56.9016 180.917 58.0076 180.917C59.3656 180.917 60.0096 182.177 60.0096 183.437C60.0096 185.243 59.0296 185.985 57.9796 185.985C56.7896 185.985 55.9636 184.991 55.9636 183.451ZM66.7875 185.859C66.7875 186.657 66.9555 186.993 67.7255 186.993H72.7935C73.4235 186.993 73.6895 186.727 73.6895 186.097V184.851H72.4015V185.481C72.4015 185.677 72.2895 185.789 72.0935 185.789H68.5795C68.3415 185.789 68.2295 185.719 68.2295 185.523C68.2295 183.241 73.2415 183.185 73.2415 179.783C73.2415 178.089 71.9395 176.941 70.1335 176.941C68.9855 176.941 67.2635 177.473 67.2635 178.761V179.601H68.5515V179.167C68.5515 178.677 69.1955 178.229 70.0775 178.229C71.1415 178.229 71.8135 178.887 71.8135 179.797C71.8135 182.471 66.7875 182.219 66.7875 185.859ZM78.4399 187.161C81.0859 187.161 81.9399 184.893 81.9399 182.037C81.9399 179.195 81.0859 176.941 78.4399 176.941C75.8079 176.941 74.9539 179.195 74.9539 182.037C74.9539 184.893 75.8079 187.161 78.4399 187.161ZM78.4399 185.887C76.8299 185.887 76.3679 184.193 76.3679 182.037C76.3679 179.895 76.8299 178.215 78.4399 178.215C80.0639 178.215 80.5259 179.895 80.5259 182.037C80.5259 184.193 80.0639 185.887 78.4399 185.887ZM90.5805 187.161C93.2265 187.161 94.0805 184.893 94.0805 182.037C94.0805 179.195 93.2265 176.941 90.5805 176.941C87.9485 176.941 87.0945 179.195 87.0945 182.037C87.0945 184.893 87.9485 187.161 90.5805 187.161ZM90.5805 185.887C88.9705 185.887 88.5085 184.193 88.5085 182.037C88.5085 179.895 88.9705 178.215 90.5805 178.215C92.2045 178.215 92.6665 179.895 92.6665 182.037C92.6665 184.193 92.2045 185.887 90.5805 185.887ZM98.9614 187.161C101.607 187.161 102.461 184.893 102.461 182.037C102.461 179.195 101.607 176.941 98.9614 176.941C96.3294 176.941 95.4754 179.195 95.4754 182.037C95.4754 184.893 96.3294 187.161 98.9614 187.161ZM98.9614 185.887C97.3514 185.887 96.8894 184.193 96.8894 182.037C96.8894 179.895 97.3514 178.215 98.9614 178.215C100.585 178.215 101.047 179.895 101.047 182.037C101.047 184.193 100.585 185.887 98.9614 185.887ZM107.342 187.161C109.988 187.161 110.842 184.893 110.842 182.037C110.842 179.195 109.988 176.941 107.342 176.941C104.71 176.941 103.856 179.195 103.856 182.037C103.856 184.893 104.71 187.161 107.342 187.161ZM107.342 185.887C105.732 185.887 105.27 184.193 105.27 182.037C105.27 179.895 105.732 178.215 107.342 178.215C108.966 178.215 109.428 179.895 109.428 182.037C109.428 184.193 108.966 185.887 107.342 185.887ZM115.815 186.993H121.191C121.821 186.993 122.087 186.727 122.087 186.097V185.047H120.841V185.523C120.841 185.719 120.729 185.831 120.533 185.831H118.279C117.817 185.831 117.593 185.859 117.593 185.859V185.831C117.593 185.831 117.887 185.551 118.181 185.187L121.807 180.693V179.909H116.753C116.123 179.909 115.843 180.175 115.843 180.805V181.855H117.089V181.379C117.089 181.183 117.201 181.071 117.397 181.071H119.343C119.805 181.071 120.015 181.043 120.015 181.043V181.071C120.015 181.071 119.735 181.351 119.441 181.729L115.815 186.209V186.993ZM123.608 186.097C123.608 186.727 123.874 186.993 124.504 186.993H125.848V185.831H125.274C125.078 185.831 124.966 185.733 124.966 185.523V181.729L126.058 181.085V179.727L124.966 180.357V178.005C124.966 177.375 124.7 177.109 124.07 177.109H122.726V178.271H123.3C123.496 178.271 123.608 178.369 123.608 178.579V181.127L122.558 181.743V183.101L123.608 182.499V186.097ZM130.471 187.581H131.675L135.231 176.577H134.027L130.471 187.581ZM136.926 186.993H138.284V183.759C138.284 183.437 138.312 183.129 138.382 182.849C138.648 181.841 139.39 180.973 140.412 180.973C141.49 180.973 141.63 181.827 141.63 182.751V186.993H142.988V183.759C142.988 183.395 143.03 183.087 143.114 182.793C143.352 181.827 144.108 180.973 145.088 180.973C146.138 180.973 146.334 181.757 146.334 182.751V186.097C146.334 186.727 146.6 186.993 147.23 186.993H148.574V185.831H148C147.804 185.831 147.692 185.733 147.692 185.523V182.457C147.692 180.651 146.95 179.741 145.354 179.741C144.206 179.741 143.226 180.497 142.848 181.351H142.82C142.568 180.287 141.882 179.741 140.678 179.741C139.572 179.741 138.592 180.539 138.256 181.365H138.228C138.228 181.365 138.242 181.183 138.242 180.959V180.693C138.242 180.175 137.962 179.909 137.346 179.909H136.044V181.071H136.618C136.814 181.071 136.926 181.169 136.926 181.379V186.993ZM150.011 178.523H151.229V177.109H150.011V178.523ZM149.983 186.097C149.983 186.727 150.249 186.993 150.879 186.993H152.223V185.831H151.649C151.453 185.831 151.341 185.733 151.341 185.523V180.805C151.341 180.175 151.075 179.909 150.431 179.909H149.101V181.071H149.675C149.871 181.071 149.983 181.169 149.983 181.379V186.097ZM152.974 183.451C152.974 185.551 154.514 187.161 156.74 187.161C158.084 187.161 159.148 186.433 159.484 186.153L158.91 185.159C158.672 185.327 157.902 185.985 156.824 185.985C155.55 185.985 154.458 185.159 154.374 183.633H159.54C159.554 183.521 159.582 183.255 159.582 183.059C159.582 181.239 158.532 179.741 156.53 179.741C154.514 179.741 152.974 181.197 152.974 183.451ZM154.43 182.653C154.626 181.477 155.452 180.791 156.502 180.791C157.426 180.791 158.182 181.435 158.224 182.653H154.43ZM160.451 185.915C160.451 185.915 161.389 187.161 163.279 187.161C164.763 187.161 165.883 186.349 165.883 185.089C165.883 182.723 162.005 183.017 162.005 181.673C162.005 181.113 162.537 180.833 163.335 180.833C163.755 180.833 164.399 181.015 164.399 181.435V181.785H165.617V181.113C165.617 180.035 164.133 179.741 163.293 179.741C161.851 179.741 160.661 180.371 160.661 181.729C160.661 184.011 164.511 183.871 164.511 185.145C164.511 185.761 163.951 186.055 163.293 186.055C161.991 186.055 161.137 185.005 161.137 185.005L160.451 185.915ZM167.174 186.993H168.56V185.551H167.174V186.993ZM44.19 209.793H45.548V206.643C45.548 206.279 45.52 206.027 45.52 206.027H45.548C45.548 206.027 46.15 207.161 47.718 207.161C49.58 207.161 50.938 205.705 50.938 203.451C50.938 201.253 49.734 199.741 47.816 199.741C46.052 199.741 45.464 201.001 45.464 201.001H45.436C45.436 201.001 45.45 200.833 45.45 200.623C45.45 200.175 45.212 199.909 44.582 199.909H43.308V201.071H43.882C44.078 201.071 44.19 201.169 44.19 201.379V209.793ZM45.506 203.479C45.506 201.673 46.5 200.931 47.55 200.931C48.726 200.931 49.552 201.925 49.552 203.465C49.552 205.075 48.628 205.999 47.522 205.999C46.192 205.999 45.506 204.739 45.506 203.479ZM52.5982 206.993H53.9562V204.095C53.9562 203.661 53.9982 203.227 54.1242 202.821C54.4602 201.771 55.2442 201.155 56.1262 201.155C56.3362 201.155 56.5182 201.197 56.5182 201.197V199.853C56.5182 199.853 56.3362 199.825 56.1542 199.825C55.0622 199.825 54.2502 200.637 53.9142 201.673H53.8862C53.8862 201.673 53.9142 201.463 53.9142 201.183V200.735C53.9142 200.161 53.6202 199.909 53.0182 199.909H51.7162V201.071H52.2902C52.4862 201.071 52.5982 201.169 52.5982 201.379V206.993ZM57.1899 206.993H62.5659C63.1959 206.993 63.4619 206.727 63.4619 206.097V205.047H62.2159V205.523C62.2159 205.719 62.1039 205.831 61.9079 205.831H59.6539C59.1919 205.831 58.9679 205.859 58.9679 205.859V205.831C58.9679 205.831 59.2619 205.551 59.5559 205.187L63.1819 200.693V199.909H58.1279C57.4979 199.909 57.2179 200.175 57.2179 200.805V201.855H58.4639V201.379C58.4639 201.183 58.5759 201.071 58.7719 201.071H60.7179C61.1799 201.071 61.3899 201.043 61.3899 201.043V201.071C61.3899 201.071 61.1099 201.351 60.8159 201.729L57.1899 206.209V206.993ZM65.571 209.933C66.565 209.933 67.419 209.359 67.867 208.267L70.653 201.351C70.751 201.127 70.877 201.071 71.101 201.071H71.283V199.909H70.471C69.897 199.909 69.645 200.063 69.449 200.623L67.965 204.613C67.839 204.977 67.727 205.467 67.727 205.467H67.699C67.699 205.467 67.587 204.977 67.447 204.613L65.851 200.623C65.627 200.063 65.403 199.909 64.829 199.909H64.031V201.071H64.213C64.437 201.071 64.549 201.127 64.647 201.351L67.069 206.965L66.747 207.735C66.481 208.365 66.047 208.757 65.501 208.757C64.913 208.757 64.479 208.295 64.465 208.253L63.905 209.233C63.905 209.233 64.521 209.933 65.571 209.933ZM75.8543 206.993H81.5663V205.789H79.4243V197.109H78.1363L75.7843 199.405L76.6103 200.273L77.5483 199.363C77.8983 199.013 78.0103 198.803 78.0103 198.803H78.0383C78.0383 198.803 78.0243 199.097 78.0243 199.405V205.789H75.8543V206.993ZM86.0239 206.993H91.3999C92.0299 206.993 92.2959 206.727 92.2959 206.097V205.047H91.0499V205.523C91.0499 205.719 90.9379 205.831 90.7419 205.831H88.4879C88.0259 205.831 87.8019 205.859 87.8019 205.859V205.831C87.8019 205.831 88.0959 205.551 88.3899 205.187L92.0159 200.693V199.909H86.9619C86.3319 199.909 86.0519 200.175 86.0519 200.805V201.855H87.2979V201.379C87.2979 201.183 87.4099 201.071 87.6059 201.071H89.5519C90.0139 201.071 90.2239 201.043 90.2239 201.043V201.071C90.2239 201.071 89.9439 201.351 89.6499 201.729L86.0239 206.209V206.993ZM93.1729 203.451C93.1729 205.551 94.7129 207.161 96.9389 207.161C98.2829 207.161 99.3469 206.433 99.6829 206.153L99.1089 205.159C98.8709 205.327 98.1009 205.985 97.0229 205.985C95.7489 205.985 94.6569 205.159 94.5729 203.633H99.7389C99.7529 203.521 99.7809 203.255 99.7809 203.059C99.7809 201.239 98.7309 199.741 96.7289 199.741C94.7129 199.741 93.1729 201.197 93.1729 203.451ZM94.6289 202.653C94.8249 201.477 95.6509 200.791 96.7009 200.791C97.6249 200.791 98.3809 201.435 98.4229 202.653H94.6289ZM100.65 205.915C100.65 205.915 101.588 207.161 103.478 207.161C104.962 207.161 106.082 206.349 106.082 205.089C106.082 202.723 102.204 203.017 102.204 201.673C102.204 201.113 102.736 200.833 103.534 200.833C103.954 200.833 104.598 201.015 104.598 201.435V201.785H105.816V201.113C105.816 200.035 104.332 199.741 103.492 199.741C102.05 199.741 100.86 200.371 100.86 201.729C100.86 204.011 104.71 203.871 104.71 205.145C104.71 205.761 104.15 206.055 103.492 206.055C102.19 206.055 101.336 205.005 101.336 205.005L100.65 205.915ZM107.737 209.793H109.095V206.643C109.095 206.279 109.067 206.027 109.067 206.027H109.095C109.095 206.027 109.697 207.161 111.265 207.161C113.127 207.161 114.485 205.705 114.485 203.451C114.485 201.253 113.281 199.741 111.363 199.741C109.599 199.741 109.011 201.001 109.011 201.001H108.983C108.983 201.001 108.997 200.833 108.997 200.623C108.997 200.175 108.759 199.909 108.129 199.909H106.855V201.071H107.429C107.625 201.071 107.737 201.169 107.737 201.379V209.793ZM109.053 203.479C109.053 201.673 110.047 200.931 111.097 200.931C112.273 200.931 113.099 201.925 113.099 203.465C113.099 205.075 112.175 205.999 111.069 205.999C109.739 205.999 109.053 204.739 109.053 203.479ZM115.417 203.437C115.417 205.593 117.111 207.161 119.225 207.161C121.339 207.161 123.047 205.593 123.047 203.437C123.047 201.295 121.339 199.741 119.225 199.741C117.111 199.741 115.417 201.295 115.417 203.437ZM116.789 203.437C116.789 201.967 117.895 200.917 119.225 200.917C120.569 200.917 121.661 201.967 121.661 203.437C121.661 204.921 120.569 205.985 119.225 205.985C117.895 205.985 116.789 204.921 116.789 203.437ZM124.452 206.097C124.452 206.727 124.732 206.993 125.362 206.993H126.692V205.831H126.118C125.922 205.831 125.81 205.733 125.81 205.523V198.005C125.81 197.375 125.544 197.109 124.914 197.109H123.584V198.271H124.144C124.34 198.271 124.452 198.369 124.452 198.579V206.097ZM127.462 203.451C127.462 205.551 129.002 207.161 131.228 207.161C132.572 207.161 133.636 206.433 133.972 206.153L133.398 205.159C133.16 205.327 132.39 205.985 131.312 205.985C130.038 205.985 128.946 205.159 128.862 203.633H134.028C134.042 203.521 134.07 203.255 134.07 203.059C134.07 201.239 133.02 199.741 131.018 199.741C129.002 199.741 127.462 201.197 127.462 203.451ZM128.918 202.653C129.114 201.477 129.94 200.791 130.99 200.791C131.914 200.791 132.67 201.435 132.712 202.653H128.918Z" fill="white"></path>
  <defs>
    <linearGradient id="paint0_linear_921_596" x1="144.645" y1="32.4534" x2="45.9386" y2="130.732" gradientUnits="userSpaceOnUse">
      <stop stop-color="#E6E6E6"></stop>
      <stop offset="0.03" stop-color="#E9E9E9"></stop>
      <stop offset="0.21" stop-color="#F6F6F6"></stop>
      <stop offset="0.45" stop-color="#FDFDFD"></stop>
      <stop offset="1" stop-color="white"></stop>
    </linearGradient>
    <clipPath id="clip0_921_596">
      <rect width="29.9999" height="29.9987" fill="white" transform="translate(80 66.9971)"></rect>
    </clipPath>
  </defs>
</svg>
