<?xml version="1.0" encoding="UTF-8"?>
<svg xmlns="http://www.w3.org/2000/svg" width="20" height="20" viewBox="0 0 20 20" fill="none">
  <path d="M19.8234 3.97348L13.7578 10L19.8234 16.0265C19.933 15.7973 19.9996 15.544 19.9996 15.2734V4.72657C19.9996 4.45598 19.933 4.20266 19.8234 3.97348Z" fill="#5B7B3B"></path>
  <path d="M18.2423 2.96875H1.75797C1.48738 2.96875 1.23406 3.03527 1.00488 3.14492L8.75734 10.8583C9.44281 11.5438 10.5575 11.5438 11.243 10.8583L18.9954 3.14492C18.7662 3.03527 18.5129 2.96875 18.2423 2.96875Z" fill="#5B7B3B"></path>
  <path d="M0.176172 3.97348C0.0665234 4.20266 0 4.45598 0 4.72657V15.2734C0 15.544 0.0665234 15.7974 0.176172 16.0265L6.24176 10L0.176172 3.97348Z" fill="#5B7B3B"></path>
  <path d="M12.9298 10.8286L12.0715 11.6869C10.9294 12.829 9.0709 12.829 7.92875 11.6869L7.07047 10.8286L1.00488 16.8551C1.23406 16.9647 1.48738 17.0312 1.75797 17.0312H18.2423C18.5129 17.0312 18.7662 16.9647 18.9954 16.8551L12.9298 10.8286Z" fill="#5B7B3B"></path>
</svg>
