<?xml version="1.0" encoding="UTF-8"?>
<svg xmlns="http://www.w3.org/2000/svg" width="254" height="252" viewBox="0 0 254 252" fill="none">
  <path opacity="0.03" d="M222.19 53.4379H150.218C135.496 31.8217 110.758 17.6318 82.7098 17.6318C37.5755 17.6318 0.980568 54.3834 0.980568 99.7167C0.956821 114.987 5.19559 129.958 13.2158 142.931V232.815C13.2158 237.768 15.1747 242.518 18.6615 246.02C22.1484 249.522 26.8775 251.489 31.8086 251.489H163.307V235.261L216.315 161.799C218.625 158.691 220.502 155.281 221.894 151.663C223.204 148.192 223.859 144.963 223.859 141.975V141.753C223.859 137.349 222.514 133.952 219.823 131.562C217.132 129.172 213.307 127.977 208.348 127.977C203.534 127.977 199.639 129.638 196.662 132.961C193.686 136.283 191.881 141.006 191.246 147.127V147.239H161.393V147.127C162.031 136.977 164.352 128.242 168.357 120.924C172.361 113.605 177.761 108.024 184.556 104.18C191.358 100.336 199.22 98.4138 208.142 98.4138C217.771 98.4138 226.003 100.074 232.839 103.395C235.697 104.769 238.368 106.503 240.788 108.555V72.1116C240.788 69.6589 240.307 67.2302 239.372 64.9643C238.438 62.6984 237.068 60.6396 235.341 58.9055C233.614 57.1714 231.563 55.796 229.307 54.8579C227.051 53.9198 224.632 53.4372 222.19 53.4379Z" fill="#EAEAEA"></path>
  <path opacity="0.06" d="M222.564 52.9355H150.589C135.867 31.3192 111.129 17.1294 83.0808 17.1294C37.9465 17.1294 1.35165 53.881 1.35165 99.2143C1.32915 114.484 5.56785 129.455 13.5869 142.429V232.313C13.5876 237.265 15.5467 242.015 19.0334 245.517C22.52 249.018 27.2488 250.986 32.1797 250.987H163.678V234.758L216.689 161.294C218.997 158.187 220.873 154.779 222.265 151.163C223.575 147.692 224.23 144.463 224.23 141.475V141.253C224.23 136.847 222.885 133.451 220.194 131.062C217.503 128.674 213.678 127.479 208.719 127.477C203.905 127.477 200.01 129.139 197.033 132.461C194.057 135.784 192.252 140.506 191.617 146.628V146.739H161.764V146.628C162.402 136.475 164.723 127.74 168.728 120.421C172.732 113.103 178.135 107.521 184.935 103.677C191.733 99.8334 199.594 97.9113 208.518 97.9113C218.147 97.9113 226.38 99.5717 233.218 102.893C236.072 104.267 238.741 106.001 241.159 108.052V71.6092C241.159 69.1567 240.678 66.7282 239.744 64.4625C238.809 62.1967 237.439 60.138 235.713 58.404C233.986 56.6699 231.936 55.2945 229.68 54.3562C227.424 53.4179 225.006 52.9352 222.564 52.9355Z" fill="#EAEAEA"></path>
  <path opacity="0.08" d="M222.936 52.433H150.961C136.24 30.8168 111.501 16.627 83.453 16.627C38.3186 16.627 1.72372 53.3785 1.72372 98.7118C1.70122 113.982 5.93989 128.953 13.959 141.926V231.811C13.9597 236.763 15.9189 241.512 19.4056 245.013C22.8924 248.515 27.6211 250.482 32.5518 250.482H164.045V234.256L217.056 160.792C219.365 157.685 221.241 154.275 222.632 150.658C223.942 147.187 224.597 143.958 224.597 140.97V140.748C224.597 136.342 223.252 132.945 220.561 130.555C217.87 128.165 214.045 126.971 209.086 126.972C204.272 126.972 200.378 128.634 197.403 131.956C194.428 135.279 192.623 140.001 191.987 146.123V146.242H162.136V146.13C162.772 135.98 165.094 127.244 169.1 119.924C173.106 112.604 178.507 107.023 185.302 103.183C192.1 99.3387 199.961 97.4158 208.885 97.4141C218.514 97.4141 226.747 99.0753 233.585 102.398C236.441 103.772 239.111 105.506 241.531 107.558V71.1067C241.531 68.6542 241.05 66.2258 240.116 63.96C239.181 61.6943 237.812 59.6356 236.085 57.9015C234.358 56.1675 232.308 54.792 230.052 53.8538C227.796 52.9155 225.378 52.4327 222.936 52.433Z" fill="#EAEAEA"></path>
  <path opacity="0.11" d="M223.307 51.9306H151.332C136.613 30.3143 111.872 16.1245 83.8266 16.1245C38.6923 16.1245 2.09481 52.8761 2.09481 98.2094C2.07258 113.479 6.31127 128.45 14.3301 141.424V231.308C14.3308 236.26 16.29 241.009 19.7767 244.511C23.2634 248.012 27.9922 249.979 32.9229 249.979H164.421V233.753L217.432 160.289C219.741 157.182 221.617 153.773 223.008 150.156C224.318 146.685 224.973 143.455 224.973 140.468V140.245C224.973 135.84 223.628 132.442 220.937 130.052C218.246 127.662 214.421 126.468 209.463 126.47C204.648 126.47 200.754 128.131 197.779 131.454C194.805 134.776 192.999 139.498 192.363 145.62V145.724H162.51V145.612C163.148 135.458 165.469 126.723 169.474 119.406C173.478 112.089 178.878 106.509 185.673 102.665C192.471 98.8207 200.333 96.8978 209.256 96.8961C218.885 96.8961 227.118 98.5573 233.956 101.88C236.813 103.255 239.484 104.989 241.905 107.04V70.6043C241.905 68.1517 241.423 65.7231 240.489 63.4574C239.554 61.1916 238.184 59.1329 236.457 57.3989C234.73 55.6649 232.68 54.2895 230.424 53.3513C228.167 52.413 225.749 51.9303 223.307 51.9306Z" fill="#EAEAEA"></path>
  <path opacity="0.14" d="M223.678 51.4355H151.703C136.984 29.8192 112.243 15.6294 84.1977 15.6294C39.0634 15.6294 2.46588 52.381 2.46588 97.7143C2.44786 112.983 6.69105 127.951 14.714 140.921V230.805C14.714 235.757 16.6726 240.506 20.159 244.008C23.6453 247.509 28.3738 249.476 33.3042 249.476H164.792V233.251L217.803 159.786C220.112 156.679 221.988 153.27 223.379 149.653C224.689 146.18 225.345 142.951 225.347 139.965V139.742C225.347 135.337 224.001 131.939 221.308 129.549C218.615 127.159 214.792 125.965 209.836 125.967C205.022 125.967 201.127 127.628 198.15 130.951C195.174 134.273 193.369 138.995 192.734 145.117V145.229H162.881V145.117C163.519 134.963 165.84 126.228 169.845 118.911C173.849 111.594 179.249 106.014 186.044 102.17C192.842 98.3256 200.704 96.4027 209.627 96.401C219.256 96.401 227.489 98.0622 234.327 101.385C237.184 102.759 239.854 104.492 242.276 106.542V70.1014C242.273 65.1495 240.313 60.4014 236.825 56.9011C233.338 53.4007 228.609 51.4348 223.678 51.4355Z" fill="#EAEAEA"></path>
  <path opacity="0.17" d="M224.05 50.9179H152.075C137.356 29.299 112.615 15.1118 84.5698 15.1118C39.4355 15.1118 2.83798 51.8634 2.83798 97.1967C2.81542 112.467 7.05509 127.438 15.0758 140.411V230.295C15.0758 235.247 17.0344 239.996 20.5208 243.498C24.0071 246.999 28.7356 248.966 33.666 248.966H165.164V232.759L218.175 159.295C220.484 156.187 222.361 152.778 223.754 149.161C225.064 145.687 225.719 142.457 225.719 139.473V139.248C225.719 134.844 224.373 131.448 221.68 129.058C218.988 126.668 215.164 125.47 210.211 125.465C205.397 125.465 201.501 127.126 198.525 130.449C195.549 133.771 193.743 138.493 193.109 144.615V144.727H163.253V144.615C163.891 134.461 166.212 125.726 170.217 118.409C174.221 111.092 179.621 105.512 186.416 101.668C193.216 97.8235 201.077 95.9007 209.999 95.8989C219.628 95.8989 227.861 97.5602 234.699 100.883C237.556 102.257 240.227 103.99 242.648 106.04V69.5993C242.65 67.1459 242.169 64.7162 241.235 62.4492C240.301 60.1823 238.931 58.1224 237.204 56.3874C235.477 54.6525 233.426 53.2764 231.169 52.3379C228.912 51.3994 226.493 50.9169 224.05 50.9179Z" fill="#EAEAEA"></path>
  <path opacity="0.19" d="M224.424 50.4233H152.439C137.717 28.8044 112.978 14.6172 84.9305 14.6172C39.7962 14.6172 3.20127 51.3662 3.20127 96.7021C3.1778 111.972 7.41658 126.943 15.4366 139.916V229.801C15.4362 232.253 15.9169 234.682 16.8511 236.947C17.7854 239.213 19.1549 241.272 20.8815 243.006C22.608 244.74 24.6578 246.115 26.9138 247.054C29.1697 247.992 31.5876 248.475 34.0293 248.475H165.528V232.241L218.536 158.777C220.854 155.672 222.739 152.264 224.138 148.646C225.448 145.175 226.103 141.946 226.103 138.961V138.73C226.103 134.327 224.757 130.93 222.067 128.54C219.376 126.15 215.551 124.956 210.592 124.957C205.778 124.957 201.883 126.619 198.906 129.941C195.93 133.264 194.125 137.986 193.49 144.108V144.219H163.624V144.108C164.26 133.954 166.582 125.218 170.588 117.901C174.594 110.584 179.992 105.008 186.782 101.17C193.582 97.3263 201.444 95.4034 210.368 95.4017C219.996 95.4017 228.229 97.063 235.065 100.385C237.922 101.759 240.593 103.492 243.014 105.543V69.0969C243.014 66.6448 242.534 64.2166 241.6 61.951C240.666 59.6855 239.296 57.6269 237.57 55.8928C235.844 54.1588 233.794 52.7832 231.539 51.8448C229.283 50.9063 226.865 50.4233 224.424 50.4233Z" fill="#EAEAEA"></path>
  <path opacity="0.22" d="M224.795 49.9208H152.82C138.099 28.302 113.36 14.1147 85.3123 14.1147C40.178 14.1147 3.58309 50.8637 3.58309 96.1996C3.56086 111.47 7.79955 126.44 15.8184 139.414V229.298C15.8184 234.251 17.7772 239.001 21.2641 242.503C24.7509 246.005 29.48 247.972 34.4111 247.972H165.909V231.744L218.92 158.279C221.23 155.172 223.106 151.762 224.496 148.143C225.805 144.672 226.459 141.448 226.459 138.471V138.246C226.459 133.842 225.113 130.445 222.423 128.055C219.732 125.665 215.907 124.471 210.948 124.473C206.134 124.473 202.239 126.133 199.262 129.454C196.286 132.775 194.481 137.497 193.846 143.621V143.735H163.996V143.621C164.632 133.468 166.953 124.734 170.959 117.417C174.965 110.1 180.364 104.512 187.156 100.652C193.954 96.8083 201.816 94.8854 210.739 94.8837C220.368 94.8837 228.601 96.545 235.439 99.8675C238.295 101.241 240.965 102.974 243.386 105.025V68.5945C243.386 66.1424 242.905 63.7142 241.971 61.4486C241.037 59.183 239.668 57.1244 237.942 55.3904C236.215 53.6563 234.166 52.2808 231.91 51.3423C229.654 50.4039 227.237 49.9208 224.795 49.9208Z" fill="#EAEAEA"></path>
  <path opacity="0.25" d="M225.169 49.4181H153.191C138.47 27.7992 113.731 13.6094 85.6834 13.6094C40.5491 13.6094 3.95419 50.3609 3.95419 95.6968C3.93196 110.967 8.17061 125.938 16.1894 138.911V228.796C16.1894 233.748 18.1483 238.498 21.6352 242C25.122 245.502 29.8511 247.469 34.7822 247.469H166.28V231.241L219.291 157.777C221.601 154.669 223.477 151.259 224.867 147.641C226.178 144.17 226.833 140.941 226.833 137.955V137.73C226.833 133.327 225.487 129.93 222.796 127.54C220.105 125.15 216.281 123.958 211.322 123.965C206.508 123.965 202.613 125.625 199.639 128.946C196.664 132.267 194.859 136.989 194.222 143.113V143.227H164.367V143.113C165.003 132.962 167.324 124.228 171.33 116.909C175.337 109.59 180.737 104.009 187.532 100.165C194.331 96.3211 202.192 94.3991 211.116 94.3991C220.744 94.3991 228.978 96.0603 235.816 99.3829C238.67 100.757 241.339 102.489 243.759 104.538V68.0891C243.759 63.1375 241.8 58.3888 238.314 54.8874C234.827 51.3861 230.099 49.4187 225.169 49.4181Z" fill="#EAEAEA"></path>
  <path opacity="0.28" d="M225.538 48.9156H153.563C138.844 27.2967 114.102 13.1069 86.0571 13.1069C40.9228 13.1069 4.32528 49.8585 4.32528 95.1944C4.30305 110.464 8.54174 125.435 16.5606 138.409V228.293C16.5613 233.246 18.5203 237.995 22.007 241.497C25.4937 244.999 30.2224 246.966 35.1533 246.967H166.652V230.738L219.663 157.274C221.972 154.166 223.848 150.756 225.239 147.138C226.549 143.667 227.204 140.439 227.204 137.453V137.228C227.204 132.824 225.858 129.427 223.168 127.037C220.477 124.647 216.653 123.451 211.696 123.447C206.881 123.447 202.986 125.108 200.01 128.431C197.033 131.753 195.228 136.476 194.594 142.597V142.709H164.74V142.616C165.378 132.463 167.7 123.729 171.704 116.412C175.709 109.095 181.108 103.514 187.903 99.6679C194.702 95.8238 202.563 93.9018 211.487 93.9018C221.115 93.9018 229.349 95.5631 236.187 98.8856C239.041 100.252 241.71 101.977 244.13 104.02V67.5867C244.13 62.6346 242.171 57.8855 238.684 54.3841C235.197 50.8827 230.468 48.9156 225.538 48.9156Z" fill="#EAEAEA"></path>
  <path opacity="0.31" d="M225.91 48.4132H153.935C139.216 26.7943 114.474 12.6045 86.4292 12.6045C41.2948 12.6045 4.69736 49.356 4.69736 94.692C4.6748 109.962 8.91444 124.934 16.9352 137.906V227.791C16.9352 232.743 18.8937 237.492 22.38 240.994C25.8663 244.496 30.5947 246.464 35.5254 246.464H167.024V230.236L220.034 156.772C222.344 153.664 224.22 150.254 225.61 146.636C226.921 143.165 227.577 139.935 227.578 136.948V136.725C227.578 132.322 226.232 128.925 223.539 126.535C220.847 124.145 217.023 122.95 212.068 122.95C207.253 122.95 203.358 124.611 200.382 127.934C197.405 131.256 195.6 135.978 194.966 142.1V142.212H165.112V142.098C165.749 131.947 168.07 123.212 172.076 115.894C176.082 108.575 181.482 102.994 188.275 99.1499C195.07 95.3162 202.93 93.3994 211.854 93.3994C221.482 93.3994 229.716 95.0606 236.554 98.3832C239.414 99.7509 242.088 101.48 244.513 103.528V67.0843C244.512 64.6313 244.031 62.2025 243.096 59.9366C242.161 57.6706 240.79 55.6119 239.062 53.878C237.335 52.1441 235.284 50.7691 233.027 49.8314C230.771 48.8937 228.352 48.4118 225.91 48.4132Z" fill="#EAEAEA"></path>
  <path opacity="0.33" d="M226.28 47.9107H154.305C139.586 26.2919 114.845 12.1021 86.7997 12.1021C41.6653 12.1021 5.07041 48.8536 5.07041 94.1895C5.0466 109.459 9.28542 124.429 17.3057 137.401V227.286C17.3057 232.238 19.2646 236.988 22.7514 240.49C26.2382 243.992 30.9674 245.959 35.8985 245.959H167.397V229.731L220.408 156.269C222.717 153.161 224.594 149.751 225.986 146.133C227.296 142.662 227.952 139.433 227.952 136.446V136.223C227.952 131.819 226.605 128.422 223.913 126.032C221.22 123.642 217.396 122.447 212.441 122.447C207.626 122.447 203.731 124.109 200.755 127.431C197.779 130.754 195.973 135.476 195.339 141.598V141.709H165.483V141.598C166.119 131.445 168.44 122.711 172.447 115.394C176.453 108.077 181.853 102.496 188.646 98.6501C195.444 94.8043 203.305 92.8814 212.227 92.8814C221.855 92.8814 230.088 94.5427 236.924 97.8652C239.782 99.2371 242.453 100.97 244.873 103.023V66.5818C244.873 64.1297 244.392 61.7015 243.458 59.4361C242.523 57.1707 241.154 55.1123 239.427 53.3784C237.701 51.6446 235.651 50.2694 233.395 49.3312C231.139 48.3931 228.722 47.9104 226.28 47.9107Z" fill="#EAEAEA"></path>
  <path opacity="0.36" d="M226.655 47.4051H154.68C139.958 25.7889 115.219 11.5991 87.1717 11.5991C42.0374 11.5991 5.44248 48.3506 5.44248 93.6865C5.41908 108.956 9.65784 123.926 17.6777 136.898V226.783C17.6777 231.735 19.6366 236.485 23.1234 239.987C26.6102 243.489 31.3394 245.456 36.2705 245.456H167.769V229.228L220.785 155.766C223.095 152.658 224.972 149.248 226.363 145.63C227.674 142.159 228.329 138.93 228.329 135.943V135.72C228.329 131.316 226.983 127.919 224.292 125.529C221.601 123.139 217.777 121.944 212.818 121.944C208.004 121.944 204.108 123.606 201.132 126.928C198.156 130.251 196.35 134.973 195.716 141.095V141.206H165.85V141.095C166.486 130.944 168.807 122.209 172.813 114.891C176.82 107.572 182.219 101.991 189.013 98.1471C195.815 94.303 203.677 92.381 212.599 92.381C222.227 92.381 230.461 94.0423 237.299 97.3648C240.155 98.7374 242.826 100.47 245.245 102.522V66.0788C245.245 61.1267 243.286 56.3774 239.8 52.8755C236.314 49.3735 231.585 47.4058 226.655 47.4051Z" fill="#EAEAEA"></path>
  <path opacity="0.39" d="M227.026 46.9027H155.051C140.329 25.2864 115.591 11.0966 87.5428 11.0966C42.4085 11.0966 5.81357 47.8482 5.81357 93.1815C5.79058 108.452 10.0293 123.424 18.0489 136.398V226.283C18.0495 231.235 20.0086 235.984 23.4953 239.486C26.982 242.988 31.7107 244.956 36.6416 244.956H168.14V228.725L221.151 155.264C223.456 152.155 225.329 148.745 226.716 145.128C228.027 141.657 228.682 138.428 228.682 135.44V135.217C228.682 130.81 227.336 127.413 224.645 125.027C221.955 122.64 218.13 121.445 213.171 121.442C208.357 121.442 204.461 123.103 201.485 126.426C198.509 129.748 196.703 134.47 196.069 140.592V140.704H166.226V140.592C166.862 130.44 169.184 121.705 173.19 114.388C177.196 107.072 182.597 101.49 189.392 97.6446C196.19 93.8006 204.051 91.8785 212.975 91.8785C222.604 91.8785 230.837 93.5389 237.675 96.8597C240.531 98.2342 243.201 99.9681 245.621 102.02V65.5764C245.621 63.1239 245.14 60.6954 244.206 58.4297C243.271 56.1639 241.901 54.1052 240.175 52.3712C238.448 50.6371 236.398 49.2617 234.142 48.3234C231.886 47.3851 229.468 46.9024 227.026 46.9027Z" fill="#EAEAEA"></path>
  <path opacity="0.42" d="M227.398 46.4003H155.423C140.704 24.784 115.963 10.5942 87.9148 10.5942C42.7805 10.5942 6.18564 47.3457 6.18564 92.6791C6.16313 107.949 10.4018 122.92 18.4209 135.893V225.778C18.4216 230.73 20.3807 235.48 23.8673 238.981C27.354 242.483 32.0828 244.451 37.0136 244.452H168.512V228.223L221.523 154.759C223.832 151.652 225.708 148.243 227.099 144.625C228.409 141.154 229.064 137.925 229.064 134.938V134.715C229.064 130.31 227.719 126.913 225.028 124.525C222.337 122.136 218.516 120.941 213.564 120.94C208.749 120.94 204.855 122.601 201.88 125.923C198.906 129.246 197.1 133.968 196.464 140.09V140.201H166.598V140.09C167.234 129.937 169.556 121.202 173.562 113.883C177.568 106.565 182.969 100.985 189.764 97.1422C196.562 93.2981 204.423 91.3761 213.347 91.3761C222.976 91.3761 231.209 93.0365 238.047 96.3573C240.904 97.7323 243.575 99.4661 245.996 101.517V65.0739C245.996 62.6213 245.514 60.1928 244.579 57.927C243.645 55.6613 242.275 53.6026 240.548 51.8686C238.821 50.1346 236.771 48.7592 234.514 47.8209C232.258 46.8827 229.84 46.3999 227.398 46.4003Z" fill="#EAEAEA"></path>
  <path opacity="0.44" d="M227.769 45.8979H155.791C141.072 24.2816 116.331 10.0918 88.2856 10.0918C43.1513 10.0918 6.5538 46.8434 6.5538 92.1767C6.53124 107.447 10.7709 122.418 18.7917 135.391V225.275C18.7917 230.227 20.7503 234.976 24.2366 238.478C27.7229 241.979 32.4514 243.947 37.3818 243.947H168.88V227.721L221.894 154.256C224.203 151.149 226.079 147.74 227.47 144.123C228.78 140.652 229.435 137.423 229.435 134.435V134.213C229.435 129.807 228.089 126.41 225.399 124.02C222.708 121.63 218.884 120.435 213.927 120.437C209.112 120.437 205.217 122.098 202.241 125.421C199.264 128.743 197.459 133.466 196.825 139.587V139.699H166.972V139.587C167.608 129.433 169.929 120.698 173.935 113.381C177.941 106.064 183.341 100.484 190.134 96.6398C196.933 92.7958 204.794 90.8729 213.718 90.8711C223.346 90.8711 231.58 92.5324 238.418 95.8549C241.274 97.2299 243.945 98.9637 246.367 101.015V64.5716C246.366 62.119 245.885 59.6904 244.95 57.4247C244.015 55.1589 242.645 53.1002 240.918 51.3662C239.191 49.6322 237.141 48.2568 234.885 47.3185C232.629 46.3803 230.211 45.8975 227.769 45.8979Z" fill="#EAEAEA"></path>
  <path opacity="0.47" d="M228.14 45.3954H156.165C141.446 23.7792 116.705 9.58936 88.6596 9.58936C43.5253 9.58936 6.92782 46.3409 6.92782 91.6742C6.90527 106.945 11.1449 121.916 19.1657 134.889V224.773C19.1657 229.725 21.1243 234.474 24.6106 237.975C28.0969 241.477 32.8254 243.444 37.7558 243.444H169.254V227.218L222.265 153.754C224.574 150.647 226.45 147.238 227.841 143.621C229.151 140.148 229.807 136.919 229.809 133.933V133.71C229.809 129.305 228.463 125.907 225.77 123.517C223.077 121.127 219.253 119.933 214.298 119.935C209.484 119.935 205.588 121.596 202.612 124.918C199.636 128.241 197.831 132.963 197.196 139.085V139.196H167.343V139.085C167.979 128.931 170.3 120.195 174.307 112.879C178.313 105.562 183.713 99.9814 190.506 96.1374C197.304 92.2933 205.166 90.3704 214.089 90.3687C223.718 90.3687 231.951 92.03 238.789 95.3525C241.646 96.7264 244.317 98.4594 246.738 100.51V64.0691C246.738 61.6164 246.257 59.1877 245.322 56.9218C244.388 54.6559 243.018 52.5971 241.291 50.863C239.564 49.1289 237.513 47.7535 235.257 46.8154C233.001 45.8773 230.582 45.3948 228.14 45.3954Z" fill="#EAEAEA"></path>
  <path opacity="0.5" d="M228.522 44.8925H156.539C141.818 23.2736 117.079 9.08643 89.0311 9.08643C43.8968 9.08643 7.30185 45.838 7.30185 91.1713C7.27838 106.442 11.5171 121.413 19.5371 134.386V224.27C19.5371 226.722 20.0181 229.15 20.9525 231.416C21.8869 233.681 23.2564 235.74 24.983 237.473C26.7095 239.207 28.7592 240.582 31.0149 241.521C33.2707 242.459 35.6884 242.941 38.1299 242.941H169.625V226.715L222.636 153.251C224.947 150.144 226.823 146.735 228.215 143.118C229.525 139.643 230.18 136.414 230.18 133.43V133.207C230.18 128.802 228.835 125.404 226.144 123.014C223.453 120.624 219.628 119.43 214.67 119.432C209.855 119.432 205.96 121.093 202.984 124.416C200.007 127.738 198.202 132.46 197.567 138.582V138.693H167.714V138.582C168.351 128.428 170.672 119.692 174.678 112.376C178.684 105.059 184.08 99.4785 190.867 95.6344C197.669 91.7904 205.531 89.8675 214.453 89.8657C224.081 89.8657 232.314 91.527 239.15 94.8495C242.007 96.2234 244.678 97.9564 247.099 100.007V63.5662C247.099 58.6163 245.142 53.8689 241.659 50.3674C238.175 46.8658 233.45 44.8966 228.522 44.8925Z" fill="#EAEAEA"></path>
  <path opacity="0.53" d="M228.885 44.3901H156.91C142.189 22.7713 117.45 8.58405 89.4022 8.58405C44.2679 8.58405 7.67294 45.333 7.67294 90.6689C7.65071 105.939 11.8894 120.91 19.9082 133.883V223.768C19.9082 228.72 21.8671 233.47 25.3539 236.972C28.8407 240.474 33.5699 242.441 38.501 242.441H169.999V226.213L223.01 152.749C225.319 149.641 227.195 146.232 228.586 142.615C229.896 139.144 230.551 135.916 230.551 132.93V132.705C230.551 128.301 229.206 124.904 226.515 122.514C223.824 120.124 219.999 118.93 215.041 118.932C210.226 118.932 206.331 120.593 203.355 123.916C200.378 127.238 198.573 131.96 197.939 138.082V138.194H168.086V138.082C168.722 127.928 171.043 119.193 175.049 111.876C179.055 104.559 184.456 98.9787 191.251 95.1347C198.05 91.2906 205.911 89.3677 214.834 89.366C224.463 89.366 232.696 91.0273 239.534 94.3498C242.39 95.7243 245.06 97.4573 247.481 99.5071V63.0638C247.481 60.6112 247 58.1826 246.066 55.9167C245.131 53.6508 243.762 51.592 242.035 49.8579C240.308 48.1237 238.258 46.7483 236.002 45.8102C233.745 44.872 231.327 44.3895 228.885 44.3901Z" fill="#EAEAEA"></path>
  <path opacity="0.56" d="M229.257 43.8877H157.282C142.561 22.2688 117.822 8.0816 89.7742 8.0816C44.6399 8.0816 8.04501 44.8306 8.04501 90.1665C8.02278 105.437 12.2614 120.407 20.2803 133.381V223.265C20.2803 228.218 22.2392 232.967 25.726 236.469C29.2128 239.971 33.9419 241.939 38.8731 241.939H170.371V225.71L223.382 152.246C225.692 149.139 227.568 145.728 228.958 142.11C230.268 138.639 230.923 135.411 230.923 132.425V132.2C230.923 127.796 229.578 124.399 226.887 122.009C224.196 119.619 220.372 118.425 215.413 118.427C210.598 118.427 206.704 120.087 203.729 123.408C200.755 126.729 198.949 131.451 198.313 137.575V137.694H168.458V137.58C169.095 127.429 171.417 118.695 175.421 111.376C179.426 104.058 184.826 98.4771 191.623 94.6348C198.422 90.7907 206.283 88.8678 215.206 88.8661C224.835 88.8661 233.068 90.5274 239.906 93.8499C242.762 95.2235 245.433 96.9565 247.853 99.0072V62.5743C247.855 60.1206 247.375 57.6906 246.442 55.4232C245.508 53.1558 244.138 51.0955 242.411 49.36C240.684 47.6245 238.634 46.2479 236.377 45.3089C234.12 44.37 231.7 43.887 229.257 43.8877Z" fill="#EAEAEA"></path>
  <path opacity="0.58" d="M229.628 43.3849H157.653C142.934 21.766 118.193 7.57623 90.1479 7.57623C45.0136 7.57623 8.41612 44.3278 8.41612 89.6637C8.39234 104.933 12.6292 119.904 20.6462 132.878V222.762C20.6462 227.715 22.6051 232.465 26.0919 235.967C29.5787 239.469 34.3079 241.436 39.239 241.436H170.75V225.208L223.761 151.743C226.071 148.636 227.947 145.226 229.337 141.607C230.647 138.136 231.302 134.908 231.302 131.922V131.697C231.302 127.293 229.957 123.897 227.266 121.507C224.575 119.117 220.75 117.922 215.792 117.924C210.977 117.924 207.083 119.585 204.108 122.905C201.134 126.226 199.328 130.948 198.692 137.072V137.175H168.831V137.061C169.467 126.909 171.789 118.175 175.795 110.858C179.801 103.541 185.201 97.9605 191.994 94.1165C198.793 90.269 206.654 88.3461 215.578 88.3478C225.206 88.3478 233.44 90.0091 240.278 93.3316C243.134 94.7057 245.805 96.4387 248.226 98.4889V62.056C248.226 59.6035 247.745 57.1751 246.81 54.9095C245.875 52.6438 244.505 50.5854 242.778 48.8516C241.051 47.1178 239.001 45.7426 236.745 44.8046C234.488 43.8666 232.07 43.3842 229.628 43.3849Z" fill="#EAEAEA"></path>
  <path opacity="0.61" d="M230 42.8878H158.025C143.306 21.2689 118.564 7.0791 90.519 7.0791C45.3847 7.0791 8.7872 43.8307 8.7872 89.1666C8.76464 104.437 13.0043 119.408 21.025 132.381V222.265C21.025 227.217 22.9836 231.967 26.4698 235.469C29.9561 238.971 34.6846 240.938 39.6152 240.939H171.113V224.705L224.137 151.241C226.447 148.134 228.323 144.723 229.713 141.105C231.023 137.634 231.679 134.406 231.681 131.42V131.195C231.681 126.791 230.335 123.394 227.642 121.004C224.95 118.614 221.126 117.419 216.17 117.419C211.356 117.419 207.461 119.081 204.484 122.403C201.508 125.726 199.703 130.448 199.068 136.57V136.681H169.202V136.57C169.839 126.419 172.16 117.684 176.166 110.366C180.172 103.047 185.572 97.466 192.365 93.6219C199.164 89.7779 207.025 87.8559 215.949 87.8559C225.577 87.8559 233.811 89.5171 240.649 92.8397C243.506 94.2128 246.177 95.9459 248.598 97.997V61.5537C248.595 56.6016 246.635 51.8531 243.147 48.3526C239.66 44.8521 234.93 42.8864 230 42.8878Z" fill="#EAEAEA"></path>
  <path opacity="0.64" d="M230.372 42.3697H158.397C143.678 20.7508 118.936 6.56104 90.8911 6.56104C45.7568 6.56104 9.15927 43.3126 9.15927 88.6485C9.13671 103.919 13.3764 118.89 21.3971 131.863V221.747C21.3971 226.699 23.3556 231.449 26.8419 234.951C30.3282 238.453 35.0567 240.42 39.9873 240.421H171.486V224.211L224.496 150.746C226.805 147.635 228.68 144.223 230.07 140.603C231.38 137.132 232.035 133.902 232.035 130.915V130.7C232.035 126.296 230.689 122.9 227.996 120.51C225.304 118.12 221.48 116.925 216.524 116.925C211.71 116.925 207.815 118.586 204.839 121.908C201.862 125.231 200.057 129.953 199.422 136.075V136.186H169.574V136.075C170.211 125.922 172.532 117.188 176.538 109.871C180.544 102.554 185.944 96.973 192.737 93.1272C199.538 89.2831 207.399 87.3611 216.321 87.3611C225.949 87.3611 234.183 89.0224 241.021 92.3449C243.878 93.7169 246.55 95.45 248.97 97.5022V61.0512C248.971 58.5977 248.491 56.168 247.557 53.9011C246.623 51.6341 245.253 49.5742 243.526 47.8393C241.798 46.1043 239.748 44.7282 237.491 43.7897C235.234 42.8512 232.814 42.3687 230.372 42.3697Z" fill="#EAEAEA"></path>
  <path opacity="0.67" d="M230.746 41.8775H158.771C144.049 20.2587 119.31 6.06885 91.2625 6.06885C46.1282 6.06885 9.5333 42.8204 9.5333 88.1563C9.50949 103.426 13.7483 118.396 21.7686 131.368V221.253C21.7686 226.205 23.7275 230.955 27.2143 234.457C30.7011 237.959 35.4302 239.926 40.3613 239.926H171.86V223.693L224.868 150.228C227.178 147.12 229.055 143.71 230.446 140.092C231.757 136.621 232.412 133.392 232.412 130.405V130.182C232.412 125.778 231.066 122.381 228.375 119.991C225.685 117.601 221.86 116.406 216.901 116.406C212.087 116.406 208.191 118.068 205.215 121.39C202.239 124.713 200.433 129.435 199.799 135.557V135.668H169.946V135.557C170.582 125.406 172.903 116.672 176.909 109.353C180.916 102.034 186.314 96.4575 193.104 92.622C199.904 88.778 207.766 86.856 216.69 86.856C226.318 86.856 234.551 88.5172 241.387 91.8398C244.245 93.2117 246.916 94.9449 249.336 96.9971V60.5486C249.336 58.0967 248.855 55.6688 247.921 53.4035C246.986 51.1382 245.617 49.0799 243.891 47.3462C242.165 45.6124 240.115 44.2371 237.86 43.2988C235.604 42.3605 233.187 41.8775 230.746 41.8775Z" fill="#EAEAEA"></path>
  <path opacity="0.69" d="M231.116 41.3725H159.144C144.422 19.7562 119.683 5.56641 91.6356 5.56641C46.5012 5.56641 9.90634 42.318 9.90634 87.6539C9.88418 102.923 14.1229 117.893 22.1416 130.866V220.75C22.1423 225.702 24.1014 230.452 27.5881 233.954C31.0747 237.455 35.8035 239.423 40.7344 239.424H172.233V223.195L225.243 149.734C227.553 146.626 229.429 143.216 230.819 139.598C232.13 136.127 232.785 132.897 232.785 129.91V129.687C232.785 125.284 231.439 121.887 228.748 119.497C226.058 117.107 222.233 115.912 217.274 115.912C212.46 115.912 208.564 117.573 205.588 120.896C202.612 124.218 200.806 128.94 200.172 135.062V135.173H170.316V135.062C170.954 124.91 173.275 116.175 177.28 108.858C181.284 101.541 186.683 95.9567 193.477 92.1041C200.275 88.26 208.136 86.338 217.06 86.338C226.689 86.338 234.922 87.9993 241.76 91.3218C244.616 92.6944 247.287 94.4275 249.706 96.4791V60.0462C249.706 55.0941 247.748 50.3447 244.261 46.8428C240.775 43.3409 236.047 41.3732 231.116 41.3725Z" fill="#EAEAEA"></path>
  <path opacity="0.72" d="M231.488 40.8696H159.513C144.791 19.2533 120.052 5.06348 92.0047 5.06348C46.8704 5.06348 10.2755 41.815 10.2755 87.1483C10.253 102.418 14.4916 117.389 22.5107 130.363V220.247C22.5114 225.199 24.4705 229.949 27.9572 233.451C31.4439 236.952 36.1726 238.92 41.1035 238.921H172.602V222.692L225.613 149.231C227.922 146.122 229.798 142.712 231.189 139.095C232.499 135.624 233.154 132.394 233.154 129.407V129.184C233.154 124.781 231.809 121.384 229.118 118.994C226.427 116.604 222.602 115.411 217.643 115.417C212.829 115.417 208.934 117.078 205.96 120.4C202.985 123.723 201.18 128.445 200.544 134.567V134.678H170.688V134.567C171.326 124.416 173.647 115.682 177.652 108.363C181.656 101.045 187.057 95.4633 193.854 91.6192C200.652 87.7752 208.513 85.8532 217.437 85.8532C227.066 85.8532 235.299 87.5136 242.137 90.8344C244.991 92.2081 247.661 93.9402 250.081 95.9891V59.5432C250.08 54.5909 248.121 49.8416 244.634 46.3397C241.147 42.8379 236.419 40.8703 231.488 40.8696Z" fill="#EAEAEA"></path>
  <path opacity="0.75" d="M231.859 40.3672H159.884C145.165 18.751 120.421 4.55078 92.3784 4.55078C47.2441 4.55078 10.6466 41.3023 10.6466 86.6357C10.6241 101.906 14.8628 116.877 22.8819 129.85V219.734C22.8825 224.687 24.8416 229.436 28.3283 232.938C31.815 236.44 36.5437 238.407 41.4746 238.408H172.973V222.19L225.984 148.726C228.293 145.619 230.169 142.209 231.56 138.592C232.87 135.121 233.525 131.892 233.525 128.905V128.682C233.525 124.277 232.18 120.88 229.489 118.491C226.798 116.103 222.974 114.906 218.017 114.899C213.202 114.899 209.307 116.56 206.331 119.882C203.355 123.205 201.553 127.933 200.925 134.067V134.179H171.062V134.067C171.698 123.915 174.019 115.179 178.025 107.861C182.031 100.542 187.43 94.9584 194.219 91.1091C201.018 87.2651 208.879 85.3431 217.803 85.3431C227.431 85.3431 235.665 87.0035 242.503 90.3243C245.357 91.6998 248.025 93.4336 250.444 95.4842V59.0409C250.443 54.0899 248.485 49.3417 245 45.8401C241.515 42.3385 236.788 40.37 231.859 40.3672Z" fill="#EAEAEA"></path>
  <path opacity="0.78" d="M232.231 39.8647H160.256C145.537 18.2484 120.796 4.05859 92.7504 4.05859C47.6161 4.05859 11.0186 40.8102 11.0186 86.1435C10.9961 101.414 15.2357 116.385 23.2565 129.358V219.242C23.2565 224.194 25.2151 228.943 28.7014 232.445C32.1877 235.946 36.9162 237.913 41.8467 237.913H173.345V221.688L226.356 148.223C228.665 145.116 230.541 141.707 231.932 138.09C233.242 134.619 233.898 131.39 233.9 128.402V128.179C233.9 123.774 232.553 120.376 229.861 117.986C227.168 115.596 223.344 114.402 218.389 114.404C213.575 114.404 209.679 116.065 206.703 119.388C203.727 122.71 201.921 127.432 201.287 133.554V133.666H171.434V133.549C172.07 123.395 174.391 114.66 178.397 107.343C182.404 100.026 187.803 94.4455 194.597 90.6014C201.395 86.7677 209.255 84.8509 218.175 84.8509C227.804 84.8509 236.037 86.5122 242.875 89.8347C245.732 91.2091 248.403 92.943 250.824 94.9946V58.5384C250.823 53.586 248.864 48.8367 245.377 45.3348C241.891 41.833 237.162 39.8654 232.231 39.8647Z" fill="#EAEAEA"></path>
  <path opacity="0.81" d="M232.602 39.3627H160.627C145.908 17.7465 121.167 3.55664 93.1216 3.55664C47.9872 3.55664 11.3897 40.3082 11.3897 85.6415C11.3672 100.912 15.6069 115.883 23.6276 128.856V218.74C23.6276 221.192 24.1085 223.621 25.0429 225.886C25.9773 228.151 27.3469 230.21 29.0735 231.944C30.8 233.677 32.8497 235.053 35.1054 235.991C37.3612 236.929 39.7789 237.412 42.2204 237.411H173.716V221.186L226.717 147.721C229.026 144.614 230.903 141.205 232.295 137.588C233.605 134.113 234.261 130.884 234.261 127.9V127.677C234.261 123.272 232.914 119.874 230.222 117.484C227.529 115.094 223.705 113.9 218.75 113.902C213.936 113.902 210.04 115.563 207.064 118.886C204.088 122.208 202.282 126.93 201.648 133.052V133.164H171.805V133.052C172.443 122.898 174.764 114.163 178.769 106.846C182.773 99.5291 188.173 93.9487 194.968 90.1046C201.766 86.2571 209.627 84.3334 218.549 84.3334C228.177 84.3334 236.41 85.9947 243.246 89.3172C246.103 90.691 248.774 92.4249 251.195 94.4771V58.0364C251.195 55.5841 250.714 53.1559 249.78 50.8903C248.845 48.6247 247.476 46.5661 245.749 44.8321C244.023 43.0981 241.973 41.7226 239.717 40.7842C237.462 39.8457 235.044 39.3627 232.602 39.3627Z" fill="#EAEAEA"></path>
  <path opacity="0.83" d="M232.976 38.8598H161.001C146.28 17.2435 121.541 3.05371 93.493 3.05371C48.3587 3.05371 11.7638 39.8053 11.7638 85.1386C11.7403 100.409 15.979 115.38 23.999 128.353V218.237C23.999 220.69 24.4799 223.118 25.4144 225.383C26.3488 227.649 27.7183 229.707 29.4449 231.441C31.1714 233.175 33.2211 234.55 35.4768 235.488C37.7326 236.426 40.1503 236.909 42.5918 236.908H174.103V220.683L227.111 147.218C229.421 144.111 231.298 140.702 232.69 137.085C234 133.612 234.655 130.383 234.655 127.397V127.174C234.655 122.769 233.31 119.371 230.619 116.981C227.928 114.591 224.103 113.397 219.144 113.399C214.33 113.399 210.435 115.06 207.458 118.383C204.482 121.705 202.677 126.428 202.042 132.549V132.661H172.176V132.549C172.814 122.395 175.135 113.66 179.14 106.343C183.144 99.0262 188.544 93.4458 195.339 89.6017C202.141 85.7577 210.003 83.8348 218.925 83.8331C228.554 83.8331 236.787 85.4943 243.625 88.8169C246.481 90.1914 249.151 91.9243 251.572 93.9742V57.5335C251.572 55.081 251.09 52.6525 250.156 50.3868C249.221 48.121 247.852 46.0623 246.125 44.3283C244.398 42.5942 242.348 41.2188 240.092 40.2805C237.836 39.3422 235.418 38.8595 232.976 38.8598Z" fill="#EAEAEA"></path>
  <path opacity="0.86" d="M233.347 38.3574H161.372C146.651 16.7385 121.912 2.55127 93.8641 2.55127C48.7298 2.55127 12.1349 39.3002 12.1349 84.6361C12.1126 99.9062 16.3513 114.877 24.3701 127.851V217.735C24.3701 222.687 26.329 227.437 29.8158 230.939C33.3026 234.441 38.0318 236.409 42.9629 236.409H174.461V220.18L227.472 146.716C229.781 143.609 231.657 140.2 233.048 136.583C234.358 133.108 235.013 129.879 235.013 126.895V126.669C235.013 122.266 233.668 118.869 230.977 116.479C228.286 114.089 224.459 112.895 219.495 112.897C214.681 112.897 210.785 114.558 207.809 117.88C204.833 121.203 203.027 125.925 202.393 132.047V132.158H172.555V132.047C173.193 121.893 175.514 113.157 179.519 105.841C183.523 98.5238 188.924 92.9433 195.721 89.0993C202.519 85.2552 210.38 83.3323 219.304 83.3306C228.933 83.3306 237.166 84.9919 244.004 88.3144C246.859 89.6889 249.53 91.4219 251.95 93.4717V57.031C251.951 54.5778 251.47 52.1486 250.535 49.8821C249.6 47.6157 248.229 45.5565 246.502 43.8223C244.774 42.0881 242.723 40.7128 240.466 39.7751C238.209 38.8374 235.79 38.3557 233.347 38.3574Z" fill="#EAEAEA"></path>
  <path opacity="0.89" d="M233.719 37.8549H161.744C147.023 16.2361 122.284 2.04883 94.2362 2.04883C49.1018 2.04883 12.5069 38.7978 12.5069 84.1337C12.4847 99.4038 16.7234 114.375 24.7422 127.348V217.232C24.7422 222.185 26.7011 226.935 30.1879 230.437C33.6747 233.939 38.4039 235.906 43.335 235.906H174.833V219.678L227.844 146.213C230.155 143.106 232.032 139.696 233.423 136.078C234.733 132.607 235.388 129.378 235.388 126.392V126.167C235.388 121.763 234.043 118.367 231.352 115.977C228.661 113.587 224.836 112.392 219.877 112.394C215.063 112.394 211.168 114.055 208.194 117.375C205.219 120.696 203.414 125.418 202.778 131.542V131.656H172.919V131.542C173.557 121.39 175.879 112.655 179.883 105.338C183.888 98.0213 189.288 92.4409 196.085 88.5968C202.883 84.7528 210.745 82.8299 219.668 82.8282C229.297 82.8282 237.53 84.4894 244.368 87.812C247.225 89.1861 249.896 90.9191 252.317 92.9693V56.5286C252.317 54.0759 251.836 51.6472 250.901 49.3813C249.967 47.1154 248.597 45.0566 246.87 43.3225C245.143 41.5884 243.092 40.213 240.836 39.2749C238.58 38.3367 236.161 37.8542 233.719 37.8549Z" fill="#EAEAEA"></path>
  <path opacity="0.92" d="M234.09 37.3525H162.115C147.396 15.7336 122.655 1.54639 94.6099 1.54639C49.4755 1.54639 12.878 38.2954 12.878 83.6313C12.8555 98.9017 17.0951 113.873 25.1159 126.846V216.73C25.1155 219.182 25.5961 221.61 26.5302 223.876C27.4643 226.142 28.8336 228.2 30.5599 229.934C32.2862 231.668 34.3357 233.044 36.5913 233.982C38.8469 234.921 41.2646 235.404 43.7061 235.404H175.204V219.175L228.215 145.724C230.525 142.616 232.401 139.206 233.791 135.588C235.101 132.117 235.757 128.889 235.757 125.903V125.677C235.757 121.274 234.411 117.877 231.72 115.487C229.029 113.097 225.205 111.903 220.248 111.905C215.434 111.905 211.539 113.565 208.562 116.886C205.586 120.207 203.781 124.929 203.146 131.052V131.166H173.293V131.052C173.931 120.902 176.252 112.167 180.257 104.849C184.261 97.5301 189.661 91.9497 196.456 88.1073C203.255 84.2616 211.116 82.3387 220.04 82.3387C229.668 82.3387 237.902 84 244.74 87.3225C247.596 88.6966 250.267 90.4296 252.688 92.4798V56.0261C252.688 53.5734 252.207 51.1448 251.273 48.8788C250.338 46.6129 248.968 44.5541 247.241 42.82C245.514 41.086 243.464 39.7106 241.207 38.7724C238.951 37.8343 236.533 37.3518 234.09 37.3525Z" fill="#EAEAEA"></path>
  <path opacity="0.94" d="M234.454 36.8497H162.497C147.778 15.2308 123.037 1.04102 94.9917 1.04102C49.8574 1.04102 13.2599 37.7926 13.2599 83.1285C13.2373 98.399 17.477 113.37 25.4977 126.343V216.227C25.4977 221.179 27.4562 225.929 30.9425 229.431C34.4288 232.932 39.1572 234.9 44.0879 234.901H175.586V218.672L228.587 145.206C230.897 142.098 232.773 138.688 234.163 135.07C235.473 131.599 236.129 128.37 236.131 125.384V125.159C236.131 120.756 234.784 117.359 232.092 114.969C229.399 112.579 225.575 111.384 220.62 111.384C215.806 111.384 211.91 113.045 208.934 116.368C205.958 119.69 204.152 124.412 203.518 130.534V130.648H173.665V130.534C174.303 120.382 176.624 111.647 180.628 104.33C184.633 97.0135 190.033 91.4322 196.828 87.5864C203.626 83.7424 211.487 81.8203 220.411 81.8203C230.04 81.8203 238.273 83.4816 245.111 86.8041C247.968 88.1777 250.639 89.9107 253.06 91.9615V55.5208C253.06 53.0676 252.578 50.6386 251.643 48.3725C250.707 46.1063 249.337 44.0475 247.609 42.3136C245.881 40.5797 243.83 39.2047 241.573 38.2672C239.316 37.3297 236.897 36.848 234.454 36.8497Z" fill="#EAEAEA"></path>
  <path opacity="0.97" d="M234.833 36.3472H162.861C148.139 14.7284 123.4 0.538574 95.3524 0.538574C50.2181 0.538574 13.6231 37.2901 13.6231 82.626C13.5997 97.8963 17.8384 112.867 25.8584 125.84V215.725C25.8584 220.677 27.8173 225.427 31.3041 228.929C34.7909 232.431 39.5201 234.398 44.4512 234.398H175.947V218.17L228.958 144.706C231.267 141.597 233.144 138.187 234.536 134.57C235.847 131.099 236.502 127.87 236.502 124.882V124.659C236.502 120.256 235.156 116.859 232.465 114.469C229.775 112.079 225.95 110.884 220.991 110.884C216.177 110.884 212.281 112.545 209.305 115.868C206.329 119.19 204.523 123.912 203.889 130.034V130.146H174.036V130.034C174.674 119.884 176.995 111.149 180.999 103.83C185.004 96.5119 190.404 90.9306 197.199 87.0866C204.001 83.2425 211.863 81.3205 220.785 81.3205C230.413 81.3205 238.646 82.9818 245.482 86.3043C248.34 87.6762 251.011 89.4094 253.431 91.4616V55.0183C253.431 52.5657 252.95 50.1372 252.015 47.8714C251.08 45.6056 249.71 43.547 247.983 41.8131C246.256 40.0793 244.206 38.7041 241.95 37.7663C239.693 36.8284 237.275 36.3462 234.833 36.3472Z" fill="#EAEAEA"></path>
  <path d="M235.207 35.8448H163.232C148.51 14.2259 123.771 0.0361328 95.7235 0.0361328C50.5891 0.0361328 13.9942 36.7877 13.9942 82.1236C13.9717 97.3929 18.2104 112.363 26.2295 125.335V215.22C26.2302 220.172 28.1893 224.921 31.676 228.423C35.1626 231.925 39.8914 233.893 44.8223 233.893H176.32V217.668L229.329 144.203C231.639 141.096 233.516 137.685 234.907 134.067C236.218 130.596 236.873 127.367 236.873 124.38V124.157C236.873 119.753 235.527 116.357 232.836 113.966C230.146 111.576 226.321 110.381 221.362 110.381C216.548 110.381 212.652 112.043 209.676 115.365C206.7 118.688 204.894 123.41 204.26 129.532V129.643H174.407V129.532C175.045 119.379 177.366 110.645 181.37 103.328C185.375 96.0112 190.776 90.4299 197.572 86.5841C204.371 82.7401 212.232 80.8181 221.156 80.8181C230.784 80.8181 239.018 82.4793 245.856 85.8019C248.71 87.1749 251.379 88.9079 253.797 90.9592V54.5159C253.797 49.564 251.838 44.815 248.352 41.3134C244.865 37.8119 240.137 35.8448 235.207 35.8448Z" fill="#EAEAEA"></path>
  <path opacity="0.03" d="M242.467 178.893C242.173 179.304 241.884 179.724 241.582 180.131L203.551 230.748H242.449C242.449 230.567 242.464 230.388 242.464 230.207L242.467 178.893Z" fill="#EAEAEA"></path>
  <path opacity="0.06" d="M242.789 178.466C242.495 178.878 242.209 179.297 241.907 179.704L203.873 230.322H242.776C242.776 230.14 242.789 229.962 242.789 229.78V178.466Z" fill="#EAEAEA"></path>
  <path opacity="0.08" d="M243.114 178.036C242.82 178.45 242.534 178.867 242.23 179.276L204.198 229.894H243.099C243.099 229.713 243.114 229.534 243.114 229.35V178.036Z" fill="#EAEAEA"></path>
  <path opacity="0.11" d="M243.437 177.608C243.143 178.023 242.856 178.44 242.555 178.847L204.521 229.467H243.424C243.424 229.285 243.424 229.107 243.424 228.923L243.437 177.608Z" fill="#EAEAEA"></path>
  <path opacity="0.14" d="M243.762 177.181C243.468 177.595 243.181 178.012 242.877 178.419L204.846 229.036H243.739C243.739 228.858 243.752 228.676 243.752 228.495L243.762 177.181Z" fill="#EAEAEA"></path>
  <path opacity="0.17" d="M244.084 176.753C243.793 177.168 243.504 177.585 243.202 177.992L205.171 228.614H244.072C244.072 228.436 244.084 228.254 244.084 228.073V176.753Z" fill="#EAEAEA"></path>
  <path opacity="0.19" d="M244.409 176.326C244.115 176.738 243.829 177.158 243.525 177.564L205.493 228.182H244.396C244.396 228.001 244.396 227.822 244.396 227.641L244.409 176.326Z" fill="#EAEAEA"></path>
  <path opacity="0.22" d="M244.735 175.898C244.441 176.31 244.152 176.73 243.85 177.137L205.826 227.754H244.719C244.719 227.573 244.735 227.394 244.735 227.213V175.898Z" fill="#EAEAEA"></path>
  <path opacity="0.25" d="M245.057 175.469C244.763 175.883 244.477 176.3 244.175 176.707L206.141 227.319H245.044C245.044 227.138 245.057 226.959 245.057 226.775V175.469Z" fill="#EAEAEA"></path>
  <path opacity="0.28" d="M245.382 175.041C245.088 175.455 244.802 175.873 244.497 176.279L206.466 226.899H245.366C245.366 226.718 245.382 226.537 245.382 226.355V175.041Z" fill="#EAEAEA"></path>
  <path opacity="0.31" d="M245.704 174.614C245.41 175.028 245.124 175.445 244.822 175.852L206.788 226.469H245.691C245.691 226.291 245.691 226.109 245.691 225.928L245.704 174.614Z" fill="#EAEAEA"></path>
  <path opacity="0.33" d="M246.029 174.187C245.735 174.598 245.448 175.018 245.144 175.425L207.115 226.042H246.016C246.016 225.861 246.031 225.682 246.031 225.501L246.029 174.187Z" fill="#EAEAEA"></path>
  <path opacity="0.36" d="M246.351 173.759C246.06 174.171 245.771 174.59 245.469 174.997L207.438 225.615H246.338C246.338 225.433 246.351 225.255 246.351 225.073V173.759Z" fill="#EAEAEA"></path>
  <path opacity="0.39" d="M246.677 173.332C246.383 173.743 246.096 174.163 245.792 174.57L207.761 225.187H246.664C246.664 225.006 246.664 224.827 246.664 224.646L246.677 173.332Z" fill="#EAEAEA"></path>
  <path opacity="0.42" d="M246.998 172.901C246.707 173.316 246.418 173.733 246.116 174.14L208.085 224.76H246.986C246.986 224.578 246.986 224.4 246.986 224.216L246.998 172.901Z" fill="#EAEAEA"></path>
  <path opacity="0.44" d="M247.324 172.474C247.03 172.889 246.744 173.306 246.439 173.712L208.405 224.332H247.309C247.309 224.151 247.321 223.97 247.321 223.788L247.324 172.474Z" fill="#EAEAEA"></path>
  <path opacity="0.47" d="M247.648 172.047C247.354 172.461 247.066 172.878 246.764 173.285L208.732 223.903H247.633C247.633 223.724 247.648 223.543 247.648 223.361V172.047Z" fill="#EAEAEA"></path>
  <path opacity="0.5" d="M247.971 171.627C247.677 172.039 247.39 172.458 247.089 172.865L209.055 223.475H247.958C247.958 223.294 247.958 223.115 247.958 222.934L247.971 171.627Z" fill="#EAEAEA"></path>
  <path opacity="0.53" d="M248.296 171.192C248.002 171.604 247.716 172.023 247.411 172.43L209.38 223.048H248.281C248.281 222.866 248.296 222.688 248.296 222.506V171.192Z" fill="#EAEAEA"></path>
  <path opacity="0.56" d="M248.618 170.762C248.324 171.176 248.038 171.593 247.736 172.003L209.694 222.62H248.595C248.595 222.439 248.608 222.26 248.608 222.076L248.618 170.762Z" fill="#EAEAEA"></path>
  <path opacity="0.58" d="M248.943 170.332C248.649 170.746 248.363 171.163 248.059 171.57L210.027 222.193H248.931C248.931 222.011 248.931 221.83 248.931 221.649L248.943 170.332Z" fill="#EAEAEA"></path>
  <path opacity="0.61" d="M249.266 169.907C248.975 170.321 248.686 170.738 248.384 171.145L210.353 221.763H249.253C249.253 221.584 249.253 221.402 249.253 221.221L249.266 169.907Z" fill="#EAEAEA"></path>
  <path opacity="0.64" d="M249.591 169.479C249.297 169.891 249.011 170.311 248.706 170.718L210.675 221.335H249.578C249.578 221.157 249.591 220.975 249.591 220.794V169.479Z" fill="#EAEAEA"></path>
  <path opacity="0.67" d="M249.929 169.052C249.635 169.464 249.346 169.884 249.044 170.29L211 220.908H249.9C249.9 220.727 249.916 220.548 249.916 220.367L249.929 169.052Z" fill="#EAEAEA"></path>
  <path opacity="0.69" d="M250.238 168.625C249.944 169.036 249.658 169.456 249.356 169.863L211.322 220.48H250.225C250.225 220.299 250.225 220.12 250.225 219.939L250.238 168.625Z" fill="#EAEAEA"></path>
  <path opacity="0.72" d="M250.563 168.195C250.269 168.609 249.982 169.026 249.678 169.433L211.646 220.066H250.547C250.547 219.885 250.563 219.706 250.563 219.522V168.195Z" fill="#EAEAEA"></path>
  <path opacity="0.75" d="M250.885 167.767C250.591 168.182 250.305 168.599 250.003 169.005L211.972 219.625H250.872C250.872 219.444 250.885 219.263 250.885 219.081V167.767Z" fill="#EAEAEA"></path>
  <path opacity="0.78" d="M251.218 167.34C250.924 167.754 250.638 168.171 250.333 168.578L212.294 219.196H251.197C251.197 219.017 251.197 218.836 251.197 218.654L251.218 167.34Z" fill="#EAEAEA"></path>
  <path opacity="0.81" d="M251.533 166.913C251.241 167.325 250.952 167.745 250.651 168.151L212.619 218.771H251.52C251.52 218.59 251.52 218.411 251.52 218.23L251.533 166.913Z" fill="#EAEAEA"></path>
  <path opacity="0.83" d="M251.858 166.485C251.563 166.897 251.277 167.317 250.973 167.724L212.941 218.341H251.845C251.845 218.16 251.858 217.981 251.858 217.8V166.485Z" fill="#EAEAEA"></path>
  <path opacity="0.86" d="M252.183 166.058C251.889 166.47 251.6 166.887 251.298 167.296L213.267 217.914H252.167C252.167 217.733 252.183 217.554 252.183 217.37V166.058Z" fill="#EAEAEA"></path>
  <path opacity="0.89" d="M252.508 165.628C252.214 166.042 251.927 166.459 251.626 166.866L213.589 217.476H252.492C252.492 217.295 252.492 217.116 252.492 216.932L252.508 165.628Z" fill="#EAEAEA"></path>
  <path opacity="0.92" d="M252.83 165.201C252.536 165.615 252.25 166.032 251.945 166.439L213.914 217.059H252.815C252.815 216.878 252.83 216.696 252.83 216.515V165.201Z" fill="#EAEAEA"></path>
  <path opacity="0.94" d="M253.152 164.773C252.858 165.187 252.572 165.604 252.27 166.011L214.236 216.629H253.14C253.14 216.45 253.152 216.269 253.152 216.087V164.773Z" fill="#EAEAEA"></path>
  <path opacity="0.97" d="M253.478 164.346C253.184 164.758 252.897 165.177 252.593 165.584L214.562 216.201H253.465C253.465 216.02 253.478 215.841 253.478 215.66V164.346Z" fill="#EAEAEA"></path>
  <path d="M253.798 163.918C253.506 164.33 253.217 164.75 252.916 165.157L214.887 215.774H253.798C253.798 215.593 253.811 215.414 253.811 215.233L253.798 163.918Z" fill="#EAEAEA"></path>
  <path d="M253.797 163.905C253.503 164.32 253.217 164.737 252.915 165.143L214.881 215.761H253.797C253.797 215.582 253.81 215.401 253.81 215.22L253.797 163.905Z" fill="#748E3F"></path>
  <path d="M235.207 35.8448H163.232C148.51 14.2259 123.771 0.0361328 95.7235 0.0361328C50.5891 0.0361328 13.9942 36.7877 13.9942 82.1236C13.9717 97.3929 18.2104 112.363 26.2295 125.335V215.22C26.2295 220.172 28.1884 224.922 31.6752 228.424C35.162 231.926 39.8912 233.893 44.8223 233.893H176.32V217.668L229.329 144.203C231.639 141.096 233.516 137.685 234.907 134.067C236.218 130.596 236.873 127.367 236.873 124.38V124.157C236.873 119.753 235.527 116.357 232.836 113.966C230.146 111.576 226.321 110.381 221.362 110.381C216.548 110.381 212.652 112.043 209.676 115.365C206.7 118.688 204.894 123.41 204.26 129.532V129.643H174.407V129.532C175.045 119.379 177.366 110.645 181.37 103.328C185.375 96.0112 190.776 90.4299 197.572 86.5841C204.371 82.7401 212.232 80.8181 221.156 80.8181C230.784 80.8181 239.018 82.4793 245.856 85.8019C248.71 87.1748 251.379 88.9079 253.797 90.9592V54.5159C253.797 49.564 251.838 44.815 248.352 41.3134C244.865 37.8119 240.137 35.8448 235.207 35.8448Z" fill="#748E3F"></path>
  <path d="M95.5437 150.592C133.924 150.592 165.038 119.343 165.038 80.7958C165.038 42.2483 133.924 10.9995 95.5437 10.9995C57.1633 10.9995 26.0498 42.2483 26.0498 80.7958C26.0498 119.343 57.1633 150.592 95.5437 150.592Z" fill="url(#paint0_linear_921_419)"></path>
  <g clip-path="url(#clip0_921_419)">
    <path d="M110.786 80.4482C112.772 80.4482 114.491 79.7362 115.895 78.3313C117.3 76.9267 118.012 75.208 118.012 73.2224C118.012 71.2376 117.3 69.5187 115.895 68.1136C114.49 66.7092 112.771 65.9971 110.786 65.9971C108.801 65.9971 107.082 66.7092 105.677 68.1138C104.273 69.5185 103.561 71.2374 103.561 73.2224C103.561 75.208 104.273 76.9269 105.678 78.3315C107.083 79.7359 108.801 80.4482 110.786 80.4482Z" fill="#748E3F"></path>
    <path d="M123.429 89.0651C123.389 88.4805 123.307 87.8429 123.186 87.1695C123.064 86.4911 122.908 85.8498 122.72 85.2636C122.526 84.6578 122.262 84.0595 121.937 83.4861C121.598 82.891 121.201 82.3729 120.755 81.9465C120.289 81.5004 119.718 81.1417 119.058 80.8801C118.4 80.6199 117.671 80.488 116.891 80.488C116.585 80.488 116.289 80.6137 115.717 80.9861C115.365 81.2156 114.953 81.4811 114.494 81.7748C114.101 82.0252 113.568 82.2598 112.911 82.4722C112.269 82.6798 111.618 82.7851 110.975 82.7851C110.332 82.7851 109.681 82.6798 109.038 82.4722C108.382 82.26 107.849 82.0254 107.457 81.775C107.001 81.4841 106.589 81.2186 106.232 80.9858C105.661 80.6134 105.364 80.4878 105.058 80.4878C104.278 80.4878 103.549 80.6199 102.892 80.8803C102.232 81.1415 101.661 81.5001 101.194 81.9467C100.749 82.3733 100.351 82.8913 100.013 83.4861C99.6877 84.0595 99.4241 84.6575 99.23 85.2639C99.0425 85.85 98.8857 86.4911 98.764 87.1695C98.6434 87.842 98.5614 88.4799 98.5209 89.0658C98.4811 89.6398 98.4609 90.2356 98.4609 90.8373C98.4609 92.4033 98.9588 93.6711 99.9404 94.6061C100.91 95.5287 102.193 95.9968 103.753 95.9968H118.198C119.758 95.9968 121.04 95.5289 122.01 94.6061C122.992 93.6718 123.49 92.4038 123.49 90.8371C123.49 90.2326 123.469 89.6364 123.429 89.0651Z" fill="#748E3F"></path>
  </g>
  <g clip-path="url(#clip1_921_419)">
    <path d="M80.7863 80.4482C82.7716 80.4482 84.4908 79.7362 85.8954 78.3313C87.3 76.9267 88.0121 75.208 88.0121 73.2224C88.0121 71.2376 87.3 69.5187 85.8952 68.1136C84.4903 66.7092 82.7714 65.9971 80.7863 65.9971C78.8008 65.9971 77.0821 66.7092 75.6775 68.1138C74.2728 69.5185 73.5605 71.2374 73.5605 73.2224C73.5605 75.208 74.2728 76.9269 75.6777 78.3315C77.0826 79.7359 78.8015 80.4482 80.7863 80.4482Z" fill="#748E3F"></path>
    <path d="M93.4293 89.0651C93.3888 88.4805 93.3069 87.8429 93.1863 87.1695C93.0645 86.4911 92.9077 85.8498 92.72 85.2636C92.5262 84.6578 92.2625 84.0595 91.9366 83.4861C91.5983 82.891 91.2009 82.3729 90.7551 81.9465C90.2889 81.5004 89.718 81.1417 89.0579 80.8801C88.4001 80.6199 87.6711 80.488 86.8913 80.488C86.5851 80.488 86.2889 80.6137 85.717 80.9861C85.3649 81.2156 84.9532 81.4811 84.4936 81.7748C84.1006 82.0252 83.5682 82.2598 82.9106 82.4722C82.2691 82.6798 81.6177 82.7851 80.9748 82.7851C80.3318 82.7851 79.6807 82.6798 79.0384 82.4722C78.3816 82.26 77.8492 82.0254 77.4566 81.775C77.0014 81.4841 76.5894 81.2186 76.2321 80.9858C75.6608 80.6134 75.3644 80.4878 75.0582 80.4878C74.2782 80.4878 73.5494 80.6199 72.8918 80.8803C72.2322 81.1415 71.6612 81.5001 71.1945 81.9467C70.7488 82.3733 70.3513 82.8913 70.0134 83.4861C69.6877 84.0595 69.4241 84.6575 69.23 85.2639C69.0425 85.85 68.8857 86.4911 68.764 87.1695C68.6434 87.842 68.5614 88.4799 68.5209 89.0658C68.4811 89.6398 68.4609 90.2356 68.4609 90.8373C68.4609 92.4033 68.9588 93.6711 69.9404 94.6061C70.91 95.5287 72.1928 95.9968 73.7529 95.9968H88.198C89.7581 95.9968 91.0405 95.5289 92.0103 94.6061C92.9922 93.6718 93.49 92.4038 93.49 90.8371C93.4897 90.2326 93.4694 89.6364 93.4293 89.0651Z" fill="#748E3F"></path>
  </g>
  <path d="M143.192 34.4484C170.015 61.3878 170.324 104.89 144.108 132.213C144.42 131.909 144.734 131.606 145.044 131.296C172.184 104.038 172.184 59.844 145.044 32.5885C117.904 5.33311 73.9045 5.33052 46.7646 32.5885C46.4551 32.8994 46.1533 33.2128 45.8516 33.5288C73.0559 7.19815 116.362 7.50121 143.192 34.4484Z" fill="white"></path>
  <path d="M41.476 180.981C41.476 183.893 43.688 186.161 46.544 186.161C49.4 186.161 51.626 183.893 51.626 180.981C51.626 178.139 49.4 175.941 46.544 175.941C43.688 175.941 41.476 178.139 41.476 180.981ZM42.932 180.981C42.932 178.867 44.542 177.243 46.544 177.243C48.546 177.243 50.17 178.867 50.17 180.981C50.17 183.165 48.546 184.845 46.544 184.845C44.542 184.845 42.932 183.165 42.932 180.981ZM52.5916 182.451C52.5916 184.649 53.7956 186.161 55.7136 186.161C57.4496 186.161 58.0376 184.873 58.0376 184.873H58.0656C58.0656 184.873 58.0516 185.027 58.0516 185.237C58.0516 185.713 58.2896 185.993 58.9196 185.993H60.2216V184.831H59.6476C59.4516 184.831 59.3396 184.733 59.3396 184.523V177.005C59.3396 176.375 59.0736 176.109 58.4296 176.109H57.0996V177.271H57.6736C57.8696 177.271 57.9816 177.369 57.9816 177.579V179.357C57.9816 179.623 57.9956 179.833 57.9956 179.833H57.9676C57.9676 179.833 57.4216 178.741 55.7836 178.741C53.9216 178.741 52.5916 180.197 52.5916 182.451ZM53.9636 182.451C53.9636 180.841 54.9016 179.917 56.0076 179.917C57.3656 179.917 58.0096 181.177 58.0096 182.437C58.0096 184.243 57.0296 184.985 55.9796 184.985C54.7896 184.985 53.9636 183.991 53.9636 182.451ZM64.7875 184.859C64.7875 185.657 64.9555 185.993 65.7255 185.993H70.7935C71.4235 185.993 71.6895 185.727 71.6895 185.097V183.851H70.4015V184.481C70.4015 184.677 70.2895 184.789 70.0935 184.789H66.5795C66.3415 184.789 66.2295 184.719 66.2295 184.523C66.2295 182.241 71.2415 182.185 71.2415 178.783C71.2415 177.089 69.9395 175.941 68.1335 175.941C66.9855 175.941 65.2635 176.473 65.2635 177.761V178.601H66.5515V178.167C66.5515 177.677 67.1955 177.229 68.0775 177.229C69.1415 177.229 69.8135 177.887 69.8135 178.797C69.8135 181.471 64.7875 181.219 64.7875 184.859ZM76.4399 186.161C79.0859 186.161 79.9399 183.893 79.9399 181.037C79.9399 178.195 79.0859 175.941 76.4399 175.941C73.8079 175.941 72.9539 178.195 72.9539 181.037C72.9539 183.893 73.8079 186.161 76.4399 186.161ZM76.4399 184.887C74.8299 184.887 74.3679 183.193 74.3679 181.037C74.3679 178.895 74.8299 177.215 76.4399 177.215C78.0639 177.215 78.5259 178.895 78.5259 181.037C78.5259 183.193 78.0639 184.887 76.4399 184.887ZM88.5805 186.161C91.2265 186.161 92.0805 183.893 92.0805 181.037C92.0805 178.195 91.2265 175.941 88.5805 175.941C85.9485 175.941 85.0945 178.195 85.0945 181.037C85.0945 183.893 85.9485 186.161 88.5805 186.161ZM88.5805 184.887C86.9705 184.887 86.5085 183.193 86.5085 181.037C86.5085 178.895 86.9705 177.215 88.5805 177.215C90.2045 177.215 90.6665 178.895 90.6665 181.037C90.6665 183.193 90.2045 184.887 88.5805 184.887ZM96.9614 186.161C99.6074 186.161 100.461 183.893 100.461 181.037C100.461 178.195 99.6074 175.941 96.9614 175.941C94.3294 175.941 93.4754 178.195 93.4754 181.037C93.4754 183.893 94.3294 186.161 96.9614 186.161ZM96.9614 184.887C95.3514 184.887 94.8894 183.193 94.8894 181.037C94.8894 178.895 95.3514 177.215 96.9614 177.215C98.5854 177.215 99.0474 178.895 99.0474 181.037C99.0474 183.193 98.5854 184.887 96.9614 184.887ZM105.342 186.161C107.988 186.161 108.842 183.893 108.842 181.037C108.842 178.195 107.988 175.941 105.342 175.941C102.71 175.941 101.856 178.195 101.856 181.037C101.856 183.893 102.71 186.161 105.342 186.161ZM105.342 184.887C103.732 184.887 103.27 183.193 103.27 181.037C103.27 178.895 103.732 177.215 105.342 177.215C106.966 177.215 107.428 178.895 107.428 181.037C107.428 183.193 106.966 184.887 105.342 184.887ZM113.815 185.993H119.191C119.821 185.993 120.087 185.727 120.087 185.097V184.047H118.841V184.523C118.841 184.719 118.729 184.831 118.533 184.831H116.279C115.817 184.831 115.593 184.859 115.593 184.859V184.831C115.593 184.831 115.887 184.551 116.181 184.187L119.807 179.693V178.909H114.753C114.123 178.909 113.843 179.175 113.843 179.805V180.855H115.089V180.379C115.089 180.183 115.201 180.071 115.397 180.071H117.343C117.805 180.071 118.015 180.043 118.015 180.043V180.071C118.015 180.071 117.735 180.351 117.441 180.729L113.815 185.209V185.993ZM121.608 185.097C121.608 185.727 121.874 185.993 122.504 185.993H123.848V184.831H123.274C123.078 184.831 122.966 184.733 122.966 184.523V180.729L124.058 180.085V178.727L122.966 179.357V177.005C122.966 176.375 122.7 176.109 122.07 176.109H120.726V177.271H121.3C121.496 177.271 121.608 177.369 121.608 177.579V180.127L120.558 180.743V182.101L121.608 181.499V185.097ZM128.471 186.581H129.675L133.231 175.577H132.027L128.471 186.581ZM134.926 185.993H136.284V182.759C136.284 182.437 136.312 182.129 136.382 181.849C136.648 180.841 137.39 179.973 138.412 179.973C139.49 179.973 139.63 180.827 139.63 181.751V185.993H140.988V182.759C140.988 182.395 141.03 182.087 141.114 181.793C141.352 180.827 142.108 179.973 143.088 179.973C144.138 179.973 144.334 180.757 144.334 181.751V185.097C144.334 185.727 144.6 185.993 145.23 185.993H146.574V184.831H146C145.804 184.831 145.692 184.733 145.692 184.523V181.457C145.692 179.651 144.95 178.741 143.354 178.741C142.206 178.741 141.226 179.497 140.848 180.351H140.82C140.568 179.287 139.882 178.741 138.678 178.741C137.572 178.741 136.592 179.539 136.256 180.365H136.228C136.228 180.365 136.242 180.183 136.242 179.959V179.693C136.242 179.175 135.962 178.909 135.346 178.909H134.044V180.071H134.618C134.814 180.071 134.926 180.169 134.926 180.379V185.993ZM148.011 177.523H149.229V176.109H148.011V177.523ZM147.983 185.097C147.983 185.727 148.249 185.993 148.879 185.993H150.223V184.831H149.649C149.453 184.831 149.341 184.733 149.341 184.523V179.805C149.341 179.175 149.075 178.909 148.431 178.909H147.101V180.071H147.675C147.871 180.071 147.983 180.169 147.983 180.379V185.097ZM150.974 182.451C150.974 184.551 152.514 186.161 154.74 186.161C156.084 186.161 157.148 185.433 157.484 185.153L156.91 184.159C156.672 184.327 155.902 184.985 154.824 184.985C153.55 184.985 152.458 184.159 152.374 182.633H157.54C157.554 182.521 157.582 182.255 157.582 182.059C157.582 180.239 156.532 178.741 154.53 178.741C152.514 178.741 150.974 180.197 150.974 182.451ZM152.43 181.653C152.626 180.477 153.452 179.791 154.502 179.791C155.426 179.791 156.182 180.435 156.224 181.653H152.43ZM158.451 184.915C158.451 184.915 159.389 186.161 161.279 186.161C162.763 186.161 163.883 185.349 163.883 184.089C163.883 181.723 160.005 182.017 160.005 180.673C160.005 180.113 160.537 179.833 161.335 179.833C161.755 179.833 162.399 180.015 162.399 180.435V180.785H163.617V180.113C163.617 179.035 162.133 178.741 161.293 178.741C159.851 178.741 158.661 179.371 158.661 180.729C158.661 183.011 162.511 182.871 162.511 184.145C162.511 184.761 161.951 185.055 161.293 185.055C159.991 185.055 159.137 184.005 159.137 184.005L158.451 184.915ZM165.174 185.993H166.56V184.551H165.174V185.993ZM42.19 208.793H43.548V205.643C43.548 205.279 43.52 205.027 43.52 205.027H43.548C43.548 205.027 44.15 206.161 45.718 206.161C47.58 206.161 48.938 204.705 48.938 202.451C48.938 200.253 47.734 198.741 45.816 198.741C44.052 198.741 43.464 200.001 43.464 200.001H43.436C43.436 200.001 43.45 199.833 43.45 199.623C43.45 199.175 43.212 198.909 42.582 198.909H41.308V200.071H41.882C42.078 200.071 42.19 200.169 42.19 200.379V208.793ZM43.506 202.479C43.506 200.673 44.5 199.931 45.55 199.931C46.726 199.931 47.552 200.925 47.552 202.465C47.552 204.075 46.628 204.999 45.522 204.999C44.192 204.999 43.506 203.739 43.506 202.479ZM50.5982 205.993H51.9562V203.095C51.9562 202.661 51.9982 202.227 52.1242 201.821C52.4602 200.771 53.2442 200.155 54.1262 200.155C54.3362 200.155 54.5182 200.197 54.5182 200.197V198.853C54.5182 198.853 54.3362 198.825 54.1542 198.825C53.0622 198.825 52.2502 199.637 51.9142 200.673H51.8862C51.8862 200.673 51.9142 200.463 51.9142 200.183V199.735C51.9142 199.161 51.6202 198.909 51.0182 198.909H49.7162V200.071H50.2902C50.4862 200.071 50.5982 200.169 50.5982 200.379V205.993ZM55.1899 205.993H60.5659C61.1959 205.993 61.4619 205.727 61.4619 205.097V204.047H60.2159V204.523C60.2159 204.719 60.1039 204.831 59.9079 204.831H57.6539C57.1919 204.831 56.9679 204.859 56.9679 204.859V204.831C56.9679 204.831 57.2619 204.551 57.5559 204.187L61.1819 199.693V198.909H56.1279C55.4979 198.909 55.2179 199.175 55.2179 199.805V200.855H56.4639V200.379C56.4639 200.183 56.5759 200.071 56.7719 200.071H58.7179C59.1799 200.071 59.3899 200.043 59.3899 200.043V200.071C59.3899 200.071 59.1099 200.351 58.8159 200.729L55.1899 205.209V205.993ZM63.571 208.933C64.565 208.933 65.419 208.359 65.867 207.267L68.653 200.351C68.751 200.127 68.877 200.071 69.101 200.071H69.283V198.909H68.471C67.897 198.909 67.645 199.063 67.449 199.623L65.965 203.613C65.839 203.977 65.727 204.467 65.727 204.467H65.699C65.699 204.467 65.587 203.977 65.447 203.613L63.851 199.623C63.627 199.063 63.403 198.909 62.829 198.909H62.031V200.071H62.213C62.437 200.071 62.549 200.127 62.647 200.351L65.069 205.965L64.747 206.735C64.481 207.365 64.047 207.757 63.501 207.757C62.913 207.757 62.479 207.295 62.465 207.253L61.905 208.233C61.905 208.233 62.521 208.933 63.571 208.933ZM73.7563 204.859C73.7563 205.657 73.9243 205.993 74.6943 205.993H79.7623C80.3923 205.993 80.6583 205.727 80.6583 205.097V203.851H79.3703V204.481C79.3703 204.677 79.2583 204.789 79.0623 204.789H75.5483C75.3103 204.789 75.1983 204.719 75.1983 204.523C75.1983 202.241 80.2103 202.185 80.2103 198.783C80.2103 197.089 78.9083 195.941 77.1023 195.941C75.9543 195.941 74.2323 196.473 74.2323 197.761V198.601H75.5203V198.167C75.5203 197.677 76.1643 197.229 77.0463 197.229C78.1103 197.229 78.7823 197.887 78.7823 198.797C78.7823 201.471 73.7563 201.219 73.7563 204.859ZM85.5004 205.993H90.8764C91.5064 205.993 91.7724 205.727 91.7724 205.097V204.047H90.5264V204.523C90.5264 204.719 90.4144 204.831 90.2184 204.831H87.9644C87.5024 204.831 87.2784 204.859 87.2784 204.859V204.831C87.2784 204.831 87.5724 204.551 87.8664 204.187L91.4924 199.693V198.909H86.4384C85.8084 198.909 85.5284 199.175 85.5284 199.805V200.855H86.7744V200.379C86.7744 200.183 86.8864 200.071 87.0824 200.071H89.0284C89.4904 200.071 89.7004 200.043 89.7004 200.043V200.071C89.7004 200.071 89.4204 200.351 89.1264 200.729L85.5004 205.209V205.993ZM92.6495 202.451C92.6495 204.551 94.1895 206.161 96.4155 206.161C97.7595 206.161 98.8235 205.433 99.1595 205.153L98.5855 204.159C98.3475 204.327 97.5775 204.985 96.4995 204.985C95.2255 204.985 94.1335 204.159 94.0495 202.633H99.2155C99.2295 202.521 99.2575 202.255 99.2575 202.059C99.2575 200.239 98.2075 198.741 96.2055 198.741C94.1895 198.741 92.6495 200.197 92.6495 202.451ZM94.1055 201.653C94.3015 200.477 95.1275 199.791 96.1775 199.791C97.1015 199.791 97.8575 200.435 97.8995 201.653H94.1055ZM100.126 204.915C100.126 204.915 101.064 206.161 102.954 206.161C104.438 206.161 105.558 205.349 105.558 204.089C105.558 201.723 101.68 202.017 101.68 200.673C101.68 200.113 102.212 199.833 103.01 199.833C103.43 199.833 104.074 200.015 104.074 200.435V200.785H105.292V200.113C105.292 199.035 103.808 198.741 102.968 198.741C101.526 198.741 100.336 199.371 100.336 200.729C100.336 203.011 104.186 202.871 104.186 204.145C104.186 204.761 103.626 205.055 102.968 205.055C101.666 205.055 100.812 204.005 100.812 204.005L100.126 204.915ZM107.213 208.793H108.571V205.643C108.571 205.279 108.543 205.027 108.543 205.027H108.571C108.571 205.027 109.173 206.161 110.741 206.161C112.603 206.161 113.961 204.705 113.961 202.451C113.961 200.253 112.757 198.741 110.839 198.741C109.075 198.741 108.487 200.001 108.487 200.001H108.459C108.459 200.001 108.473 199.833 108.473 199.623C108.473 199.175 108.235 198.909 107.605 198.909H106.331V200.071H106.905C107.101 200.071 107.213 200.169 107.213 200.379V208.793ZM108.529 202.479C108.529 200.673 109.523 199.931 110.573 199.931C111.749 199.931 112.575 200.925 112.575 202.465C112.575 204.075 111.651 204.999 110.545 204.999C109.215 204.999 108.529 203.739 108.529 202.479ZM114.894 202.437C114.894 204.593 116.588 206.161 118.702 206.161C120.816 206.161 122.524 204.593 122.524 202.437C122.524 200.295 120.816 198.741 118.702 198.741C116.588 198.741 114.894 200.295 114.894 202.437ZM116.266 202.437C116.266 200.967 117.372 199.917 118.702 199.917C120.046 199.917 121.138 200.967 121.138 202.437C121.138 203.921 120.046 204.985 118.702 204.985C117.372 204.985 116.266 203.921 116.266 202.437ZM124.096 205.097C124.096 205.727 124.362 205.993 124.992 205.993H126.336V204.831H125.762C125.566 204.831 125.454 204.733 125.454 204.523V200.729L126.546 200.085V198.727L125.454 199.357V197.005C125.454 196.375 125.188 196.109 124.558 196.109H123.214V197.271H123.788C123.984 197.271 124.096 197.369 124.096 197.579V200.127L123.046 200.743V202.101L124.096 201.499V205.097ZM127.074 204.061C127.074 205.419 128.222 206.161 129.454 206.161C131.134 206.161 131.75 204.761 131.736 204.761H131.764C131.764 204.761 131.75 204.929 131.75 205.181C131.75 205.685 131.988 205.993 132.618 205.993H133.906V204.831H133.332C133.136 204.831 133.024 204.733 133.024 204.523V201.513C133.024 199.931 132.408 198.741 130.07 198.741C129.426 198.741 127.648 198.923 127.648 200.057V200.771H128.936V200.365C128.936 199.903 129.762 199.819 130.098 199.819C131.19 199.819 131.666 200.267 131.666 201.485V201.583H131.358C130.168 201.583 127.074 201.681 127.074 204.061ZM128.432 203.935C128.432 202.661 130.28 202.563 131.302 202.563H131.666V202.829C131.666 203.879 130.938 205.083 129.762 205.083C128.88 205.083 128.432 204.509 128.432 203.935ZM134.554 202.451C134.554 204.579 136.108 206.161 138.334 206.161C140.21 206.161 141.204 204.943 141.204 204.943L140.63 203.977C140.63 203.977 139.762 204.957 138.432 204.957C137.102 204.957 135.926 204.047 135.926 202.437C135.926 200.939 136.976 199.903 138.362 199.903C138.866 199.903 139.678 200.127 139.678 200.631V201.023H140.91V200.295C140.91 199.091 139.216 198.741 138.362 198.741C136.08 198.741 134.554 200.365 134.554 202.451ZM142.454 205.993H143.812V202.675C143.812 202.339 143.84 202.017 143.924 201.737C144.218 200.715 145.1 199.987 146.178 199.987C147.312 199.987 147.508 200.771 147.508 201.765V205.097C147.508 205.727 147.774 205.993 148.404 205.993H149.748V204.831H149.174C148.978 204.831 148.866 204.733 148.866 204.523V201.457C148.866 199.651 148.096 198.741 146.43 198.741C145.016 198.741 144.12 199.637 143.812 200.323H143.784C143.784 200.323 143.812 200.071 143.812 199.735V196.977C143.812 196.375 143.532 196.109 142.902 196.109H141.572V197.271H142.146C142.342 197.271 142.454 197.369 142.454 197.579V205.993Z" fill="white"></path>
  <defs>
    <linearGradient id="paint0_linear_921_419" x1="144.695" y1="31.4535" x2="45.9889" y2="129.732" gradientUnits="userSpaceOnUse">
      <stop stop-color="#E6E6E6"></stop>
      <stop offset="0.03" stop-color="#E9E9E9"></stop>
      <stop offset="0.21" stop-color="#F6F6F6"></stop>
      <stop offset="0.45" stop-color="#FDFDFD"></stop>
      <stop offset="1" stop-color="white"></stop>
    </linearGradient>
    <clipPath id="clip0_921_419">
      <rect width="29.9999" height="29.9987" fill="white" transform="translate(96 65.9971)"></rect>
    </clipPath>
    <clipPath id="clip1_921_419">
      <rect width="29.9999" height="29.9987" fill="white" transform="translate(66 65.9971)"></rect>
    </clipPath>
  </defs>
</svg>
