<?xml version="1.0" encoding="UTF-8"?>
<svg xmlns="http://www.w3.org/2000/svg" width="253" height="253" viewBox="0 0 253 253" fill="none">
  <path opacity="0.03" d="M163.866 248.158L158.889 244.933L168.509 215.564L176.728 220.457C180.953 222.97 191.233 227.223 202.973 227.223C215.353 227.223 228.806 220.035 228.713 204.252C228.623 188.513 217.437 180.533 195.814 180.533C188.822 180.533 183.251 181.237 178.338 181.859L167.356 183.239L178.704 98.6626H240.182V71.9201C240.181 66.9679 238.222 62.2189 234.735 58.7175C231.249 55.216 226.52 53.249 221.589 53.249H149.454C146.626 49.1283 143.432 45.2737 139.911 41.7324C107.992 9.67709 56.2451 9.67709 24.3261 41.7324C-2.95574 69.1329 -6.91205 111.083 12.4442 142.709V232.873C12.4438 235.325 12.9244 237.753 13.8585 240.019C14.7926 242.284 16.1618 244.343 17.8881 246.077C19.6144 247.811 21.6639 249.186 23.9196 250.125C26.1752 251.063 28.5929 251.546 31.0344 251.546H170.237C168.031 250.581 165.901 249.448 163.866 248.158Z" fill="#EAEAEA"></path>
  <path opacity="0.06" d="M164.243 247.654L159.265 244.429L168.867 215.073L177.086 219.963C181.311 222.465 191.591 226.729 203.326 226.729C215.706 226.729 229.159 219.541 229.066 203.758C228.975 188.019 217.79 180.038 196.167 180.038C189.175 180.038 183.604 180.743 178.691 181.365L167.709 182.745L179.057 98.1686H240.553V71.4157C240.552 66.4636 238.593 61.7145 235.107 58.2131C231.62 54.7116 226.891 52.7446 221.96 52.7446H149.82C146.992 48.6239 143.798 44.7693 140.278 41.228C108.359 9.1727 56.6113 9.1727 24.6923 41.228C-2.58953 68.6285 -6.54583 110.576 12.8104 142.204V232.368C12.81 234.82 13.2906 237.249 14.2247 239.514C15.1588 241.78 16.528 243.838 18.2543 245.572C19.9806 247.306 22.0301 248.682 24.2857 249.62C26.5414 250.559 28.9591 251.042 31.4006 251.042H170.598C168.397 250.076 166.272 248.943 164.243 247.654Z" fill="#EAEAEA"></path>
  <path opacity="0.08" d="M164.609 247.148L159.631 243.923L169.233 214.554L177.453 219.445C181.677 221.96 191.958 226.213 203.698 226.213C216.078 226.213 229.53 219.025 229.437 203.242C229.347 187.501 218.161 179.523 196.538 179.523C189.546 179.523 183.975 180.227 179.062 180.849L168.08 182.23L179.428 97.6528H240.925V70.9103C240.924 65.9582 238.965 61.2091 235.478 57.7077C231.991 54.2063 227.262 52.2392 222.332 52.2392H150.197C147.37 48.1175 144.176 44.2628 140.654 40.7226C108.735 8.66473 56.9879 8.66473 25.0689 40.7226C-2.22832 68.1231 -6.18464 110.071 13.1715 141.699V231.863C13.1715 236.815 15.1301 241.564 18.6164 245.066C22.1026 248.568 26.8311 250.536 31.7618 250.537H170.964C168.763 249.571 166.639 248.438 164.609 247.148Z" fill="#EAEAEA"></path>
  <path opacity="0.11" d="M164.975 246.643L159.997 243.419L169.599 214.049L177.819 218.94C182.044 221.455 192.324 225.708 204.064 225.708C216.444 225.708 229.896 218.52 229.803 202.735C229.713 186.996 218.528 179.018 196.904 179.018C189.912 179.018 184.342 179.722 179.428 180.344L168.446 181.725L179.795 97.1479H241.291V70.4054C241.29 65.4533 239.331 60.7042 235.844 57.2028C232.357 53.7014 227.629 51.7343 222.698 51.7343H150.553C147.726 47.6126 144.532 43.7579 141.01 40.2177C109.086 8.15985 57.3491 8.15985 25.4198 40.2255C-1.86191 67.626 -5.81833 109.574 13.5378 141.202V231.358C13.5378 236.31 15.4964 241.059 18.9827 244.561C22.4689 248.063 27.1974 250.031 32.128 250.032H171.33C169.129 249.066 167.005 247.933 164.975 246.643Z" fill="#EAEAEA"></path>
  <path opacity="0.14" d="M165.341 246.138L160.364 242.911L169.966 213.541L178.185 218.44C182.41 220.952 192.69 225.208 204.43 225.208C216.81 225.208 230.263 218.018 230.17 202.235C230.08 186.496 218.894 178.518 197.271 178.518C190.279 178.518 184.708 179.222 179.795 179.844L168.813 181.222L180.161 96.6478H241.657V69.9C241.657 64.9477 239.697 60.1984 236.211 56.6965C232.724 53.1947 227.995 51.2271 223.064 51.2264H150.919C148.092 47.106 144.898 43.2522 141.376 39.7124C109.457 7.65447 57.71 7.65447 25.791 39.7124C-1.49082 67.1128 -5.44725 109.061 13.909 140.689V230.853C13.909 235.805 15.8679 240.555 19.3547 244.057C22.8415 247.559 27.5707 249.526 32.5018 249.526H171.701C169.499 248.561 167.373 247.428 165.341 246.138Z" fill="#EAEAEA"></path>
  <path opacity="0.17" d="M165.708 245.638L160.73 242.411L170.332 213.041L178.551 217.922C182.776 220.434 193.056 224.69 204.797 224.69C217.176 224.69 230.629 217.499 230.536 201.717C230.446 185.978 219.26 177.999 197.637 177.999C190.645 177.999 185.074 178.704 180.161 179.326L169.179 180.704L180.527 96.1296H242.013V69.3948C242.012 64.4425 240.053 59.6931 236.566 56.1913C233.08 52.6895 228.351 50.7218 223.42 50.7212H151.285C148.458 46.6005 145.264 42.7458 141.743 39.2046C109.824 7.14926 58.0764 7.14926 26.1574 39.2046C-1.12949 66.605 -5.08585 108.555 14.2781 140.183V230.355C14.2781 232.807 14.759 235.235 15.6934 237.501C16.6278 239.766 17.9974 241.825 19.7239 243.559C21.4504 245.292 23.5001 246.668 25.7558 247.606C28.0116 248.544 30.4293 249.027 32.8708 249.026H172.07C169.866 248.062 167.739 246.929 165.708 245.638Z" fill="#EAEAEA"></path>
  <path opacity="0.19" d="M166.074 245.12L161.096 241.895L170.698 212.526L178.917 217.419C183.142 219.932 193.422 224.188 205.165 224.188C217.545 224.188 230.995 216.997 230.902 201.214C230.812 185.475 219.626 177.495 198.003 177.495C191.011 177.495 185.44 178.202 180.527 178.823L169.54 180.207L180.888 95.6299H242.384V68.8899C242.383 63.9376 240.424 59.1883 236.938 55.6864C233.451 52.1846 228.722 50.217 223.791 50.2163H151.651C148.824 46.095 145.63 42.2403 142.108 38.6997C110.189 6.64438 58.4423 6.64438 26.5233 38.6997C-0.758471 66.1001 -4.71477 108.05 14.6414 139.678V229.837C14.6414 232.289 15.1224 234.718 16.0568 236.983C16.9912 239.248 18.3607 241.307 20.0872 243.041C21.8138 244.774 23.8634 246.15 26.1192 247.088C28.3749 248.026 30.7926 248.509 33.2341 248.508H172.428C170.227 247.545 168.102 246.412 166.074 245.12Z" fill="#EAEAEA"></path>
  <path opacity="0.22" d="M166.445 244.62L161.467 241.395L171.069 212.026L179.289 216.919C183.513 219.432 193.794 223.685 205.536 223.685C217.916 223.685 231.366 216.497 231.273 200.714C231.181 184.975 219.992 176.994 198.369 176.994C191.377 176.994 185.806 177.699 180.893 178.323L169.911 179.701L181.259 95.1245H242.756V68.3846C242.756 63.432 240.797 58.6823 237.31 55.1803C233.823 51.6783 229.094 49.7109 224.163 49.7109H152.017C149.191 45.5896 145.997 41.7349 142.475 38.1943C110.556 6.13901 58.8085 6.13901 26.8894 38.1943C-0.397513 65.5948 -4.35382 107.545 15.0024 139.176V229.337C15.0024 231.789 15.4833 234.217 16.4177 236.483C17.3521 238.748 18.7217 240.807 20.4482 242.54C22.1748 244.274 24.2244 245.65 26.4802 246.588C28.7359 247.526 31.1536 248.009 33.5951 248.008H172.795C170.595 247.044 168.472 245.911 166.445 244.62Z" fill="#EAEAEA"></path>
  <path opacity="0.25" d="M166.806 244.115L161.828 240.89L171.43 211.521L179.65 216.414C183.874 218.927 194.155 223.18 205.897 223.18C218.277 223.18 231.727 215.992 231.634 200.209C231.544 184.47 220.358 176.489 198.735 176.489C191.743 176.489 186.172 177.194 181.259 177.816L170.28 179.196L181.615 94.6222H243.111V67.877C243.11 62.9249 241.151 58.1759 237.664 54.6744C234.178 51.173 229.449 49.206 224.518 49.206H152.383C149.557 45.0847 146.362 41.2299 142.841 37.6894C110.922 5.63406 59.1746 5.63406 27.2556 37.6894C-0.0312965 65.0924 -3.9876 107.04 15.3686 138.658V228.83C15.3682 231.282 15.8489 233.71 16.7832 235.976C17.7174 238.242 19.087 240.301 20.8135 242.035C22.5401 243.769 24.5899 245.144 26.8458 246.083C29.1018 247.021 31.5196 247.504 33.9613 247.503H173.15C170.953 246.537 168.832 245.404 166.806 244.115Z" fill="#EAEAEA"></path>
  <path opacity="0.28" d="M167.174 243.61L162.194 240.385L171.796 211.016L180.016 215.906C184.24 218.421 194.521 222.675 206.263 222.675C218.643 222.675 232.093 215.487 232 199.704C231.91 183.965 220.724 175.984 199.104 175.984C192.109 175.984 186.538 176.689 181.625 177.31L170.646 178.691L181.981 94.1038H243.477V67.3717C243.477 64.9195 242.996 62.4914 242.062 60.226C241.127 57.9605 239.758 55.9021 238.031 54.1683C236.305 52.4345 234.255 51.0593 231.999 50.1211C229.744 49.1829 227.326 48.7002 224.884 48.7006H152.75C149.923 44.5793 146.729 40.7246 143.207 37.184C111.288 5.12869 59.541 5.12869 27.6221 37.184C0.350681 64.5741 -3.62122 106.537 15.7349 138.16V228.324C15.7346 230.777 16.2153 233.205 17.1495 235.471C18.0838 237.736 19.4533 239.795 21.1799 241.529C22.9064 243.263 24.9562 244.639 27.2122 245.577C29.4681 246.515 31.886 246.998 34.3277 246.998H173.527C171.327 246.033 169.203 244.9 167.174 243.61Z" fill="#EAEAEA"></path>
  <path opacity="0.31" d="M167.541 243.105L162.561 239.88L172.163 210.511L180.372 215.401C184.597 217.916 194.877 222.17 206.62 222.17C218.999 222.17 232.45 214.982 232.357 199.199C232.266 183.457 221.081 175.479 199.46 175.479C192.466 175.479 186.895 176.184 181.982 176.805L171.002 178.186L182.338 93.6093H243.844V66.8668C243.844 64.4144 243.363 61.9861 242.428 59.7205C241.494 57.4548 240.124 55.3963 238.397 53.6625C236.67 51.9286 234.62 50.5535 232.364 49.6154C230.108 48.6774 227.69 48.195 225.249 48.1957H153.116C150.291 44.0733 147.097 40.2184 143.574 36.6791C111.655 4.62121 59.9075 4.62121 27.9886 36.6791C0.704224 64.0796 -3.25994 106.02 16.1014 137.655V227.819C16.1014 232.772 18.0603 237.522 21.5471 241.024C25.0339 244.526 29.7631 246.493 34.6942 246.493H173.894C171.693 245.528 169.57 244.395 167.541 243.105Z" fill="#EAEAEA"></path>
  <path opacity="0.33" d="M167.908 242.6L162.927 239.375L172.529 210.005L180.749 214.896C184.973 217.411 195.254 221.664 206.996 221.664C219.376 221.664 232.826 214.476 232.736 198.693C232.643 182.952 221.458 174.974 199.837 174.974C192.842 174.974 187.272 175.678 182.358 176.3L171.379 177.681L182.714 93.104H244.21V66.3615C244.21 63.9093 243.729 61.4812 242.795 59.2157C241.861 56.9503 240.491 54.8919 238.765 53.1581C237.038 51.4243 234.988 50.049 232.733 49.1109C230.477 48.1727 228.059 47.69 225.618 47.6904H153.483C150.658 43.5675 147.464 39.7125 143.94 36.1738C112.021 4.1159 60.2737 4.1159 28.3547 36.1738C1.07544 63.5743 -2.88358 105.522 16.4726 137.15V227.314C16.4726 232.267 18.4315 237.016 21.9183 240.518C25.4052 244.02 30.1344 245.988 35.0655 245.988H174.26C172.06 245.022 169.936 243.89 167.908 242.6Z" fill="#EAEAEA"></path>
  <path opacity="0.36" d="M168.273 242.094L163.293 238.867L172.893 209.498L181.112 214.391C185.337 216.904 195.617 221.159 207.36 221.159C219.739 221.159 233.189 213.969 233.099 198.186C233.006 182.447 221.821 174.469 200.2 174.469C193.206 174.469 187.635 175.173 182.721 175.795L171.742 177.176L183.077 92.5989H244.574V65.8693C244.574 60.9167 242.615 56.167 239.128 52.665C235.641 49.163 230.912 47.1956 225.981 47.1956H153.849C151.023 43.074 147.829 39.2201 144.306 35.6816C112.387 3.62371 60.6397 3.62371 28.7207 35.6816C1.44157 63.0821 -2.5173 105.03 16.8389 136.658V226.809C16.8389 231.761 18.797 236.51 22.2827 240.011C25.7684 243.513 30.4962 245.481 35.4264 245.483H174.626C172.426 244.517 170.302 243.385 168.273 242.094Z" fill="#EAEAEA"></path>
  <path opacity="0.39" d="M168.64 241.589L163.66 238.362L173.262 208.993L181.481 213.886C185.706 216.398 195.986 220.654 207.729 220.654C220.108 220.654 233.559 213.464 233.468 197.681C233.375 181.942 222.19 173.964 200.569 173.964C193.575 173.964 188.004 174.668 183.091 175.29L172.119 176.668L183.454 92.0937H244.95V65.3512C244.95 60.3986 242.992 55.6489 239.505 52.1469C236.018 48.6449 231.289 46.6775 226.358 46.6775H154.215C151.389 42.556 148.195 38.702 144.672 35.1635C112.753 3.10564 61.006 3.10564 29.087 35.1635C1.80778 62.5614 -2.1511 104.512 17.2051 136.14V226.304C17.2051 228.756 17.686 231.184 18.6204 233.449C19.5549 235.715 20.9244 237.773 22.6509 239.507C24.3775 241.241 26.4271 242.616 28.6829 243.554C30.9386 244.492 33.3563 244.975 35.7978 244.975H174.997C172.795 244.012 170.669 242.88 168.64 241.589Z" fill="#EAEAEA"></path>
  <path opacity="0.42" d="M169.006 241.082L164.028 237.857L173.628 208.488L181.848 213.381C186.072 215.894 196.352 220.149 208.095 220.149C220.475 220.149 233.925 212.959 233.835 197.176C233.742 181.437 222.556 173.456 200.935 173.456C193.941 173.456 188.37 174.163 183.457 174.785L172.478 176.163L183.813 91.5864H245.309V64.8464C245.306 59.8957 243.346 55.1486 239.86 51.6488C236.373 48.1491 231.646 46.1831 226.716 46.1831H154.581C151.755 42.0612 148.561 38.2064 145.038 34.6665C113.122 2.61124 61.3721 2.61124 29.4557 34.6665C2.17384 62.067 -1.78511 104.017 17.5711 135.645V225.799C17.5711 228.251 18.0521 230.679 18.9865 232.945C19.9209 235.21 21.2904 237.269 23.017 239.002C24.7435 240.736 26.7931 242.111 29.0489 243.05C31.3047 243.988 33.7223 244.47 36.1639 244.47H175.364C173.161 243.507 171.035 242.374 169.006 241.082Z" fill="#EAEAEA"></path>
  <path opacity="0.44" d="M169.372 240.577L164.394 237.352L173.994 207.983L182.213 212.876C186.438 215.388 196.718 219.642 208.461 219.642C220.841 219.642 234.291 212.454 234.2 196.671C234.108 180.932 222.922 172.951 201.301 172.951C194.307 172.951 188.736 173.656 183.823 174.28L172.844 175.658L184.179 91.0812H245.675V64.3413C245.676 61.8887 245.195 59.4601 244.261 57.194C243.327 54.928 241.957 52.869 240.231 51.1346C238.504 49.4002 236.454 48.0245 234.198 47.0861C231.942 46.1476 229.524 45.6647 227.082 45.6651H154.947C152.121 41.5432 148.927 37.6884 145.404 34.1485C113.488 2.09317 61.7383 2.09317 29.8218 34.1485C2.54006 61.5489 -1.41889 103.499 17.9373 135.127V225.294C17.9373 227.746 18.4183 230.174 19.3527 232.44C20.2871 234.705 21.6566 236.763 23.3831 238.497C25.1097 240.231 27.1593 241.606 29.4151 242.544C31.6708 243.483 34.0885 243.965 36.53 243.965H175.73C173.527 243.002 171.401 241.869 169.372 240.577Z" fill="#EAEAEA"></path>
  <path opacity="0.47" d="M169.738 240.071L164.761 236.846L174.36 207.477L182.58 212.37C186.804 214.883 197.085 219.136 208.827 219.136C221.207 219.136 234.657 211.948 234.567 196.165C234.474 180.426 223.288 172.446 201.668 172.446C194.673 172.446 189.102 173.15 184.189 173.774L173.21 175.153L184.558 90.5757H246.054V63.8332C246.054 61.3811 245.573 58.9529 244.639 56.6875C243.704 54.422 242.335 52.3637 240.608 50.6298C238.882 48.896 236.832 47.5208 234.576 46.5826C232.321 45.6445 229.903 45.1618 227.461 45.1621H155.313C152.487 41.0402 149.293 37.1855 145.771 33.6455C113.854 1.59024 62.1045 1.59024 30.1881 33.6455C2.90627 61.046 -1.05268 102.996 18.3035 134.622V224.788C18.3042 229.74 20.2634 234.49 23.7501 237.991C27.2369 241.492 31.9657 243.459 36.8964 243.459H176.091C173.89 242.495 171.766 241.362 169.738 240.071Z" fill="#EAEAEA"></path>
  <path opacity="0.5" d="M170.104 239.566L165.127 236.341L174.726 206.972L182.951 211.865C187.176 214.378 197.456 218.631 209.199 218.631C221.578 218.631 235.028 211.443 234.938 195.66C234.845 179.921 223.66 171.941 202.039 171.941C195.044 171.941 189.474 172.645 184.56 173.267L173.581 174.648L184.929 90.0708H246.397V63.3283C246.397 58.38 244.441 53.6341 240.959 50.1331C237.477 46.6322 232.754 44.6627 227.827 44.6572H155.679C152.853 40.5353 149.659 36.6805 146.137 33.1406C114.22 1.0853 62.4706 1.0853 30.5542 33.1406C3.26722 60.5411 -0.681354 102.491 18.6619 134.117V224.281C18.6619 226.733 19.1428 229.161 20.0772 231.427C21.0115 233.693 22.3812 235.751 24.1077 237.485C25.8342 239.219 27.8838 240.595 30.1396 241.533C32.3954 242.471 34.813 242.955 37.2547 242.955H176.454C174.255 241.989 172.132 240.856 170.104 239.566Z" fill="#EAEAEA"></path>
  <path opacity="0.53" d="M170.471 239.061L165.493 235.836L175.095 206.467L183.312 211.357C187.537 213.873 197.817 218.126 209.56 218.126C221.939 218.126 235.389 210.938 235.299 195.155C235.206 179.416 224.021 171.435 202.4 171.435C195.406 171.435 189.837 172.14 184.922 172.762L173.942 174.145L185.29 89.5681H246.786V62.8229C246.786 60.3708 246.306 57.9427 245.371 55.6772C244.437 53.4118 243.067 51.3534 241.341 49.6196C239.614 47.8858 237.564 46.5105 235.309 45.5724C233.053 44.6342 230.635 44.1515 228.194 44.1519H156.046C153.22 40.0295 150.026 36.1746 146.503 32.6353C114.582 0.592929 62.8319 0.592929 30.9155 32.6353C3.63373 60.0358 -0.325085 101.984 19.0311 133.611V223.775C19.0311 228.728 20.9899 233.478 24.4767 236.98C27.9635 240.482 32.6927 242.449 37.6238 242.449H176.823C174.623 241.484 172.499 240.351 170.471 239.061Z" fill="#EAEAEA"></path>
  <path opacity="0.56" d="M170.829 238.556L165.852 235.331L175.472 205.962L183.689 210.853C187.913 213.368 198.194 217.621 209.936 217.621C222.316 217.621 235.766 210.433 235.676 194.65C235.583 178.909 224.398 170.93 202.777 170.93C195.782 170.93 190.214 171.635 185.298 172.257L174.309 173.627L185.644 89.0502H247.14V62.318C247.14 59.8659 246.659 57.4378 245.725 55.1723C244.79 52.9069 243.421 50.8485 241.694 49.1147C239.968 47.3808 237.918 46.0056 235.662 45.0674C233.406 44.1293 230.989 43.6466 228.547 43.6469H156.412C153.587 39.524 150.393 35.6691 146.87 32.1303C114.948 0.0750418 63.1982 0.0750418 31.2818 32.1303C4.00002 59.5308 0.0410695 101.479 19.3973 133.106V223.271C19.3979 228.223 21.3571 232.972 24.8437 236.474C28.3304 239.976 33.0591 241.944 37.99 241.944H177.19C174.987 240.979 172.86 239.847 170.829 238.556Z" fill="#EAEAEA"></path>
  <path opacity="0.58" d="M171.203 238.051L166.226 234.826L175.828 205.454L184.045 210.347C188.269 212.862 198.55 217.116 210.292 217.116C222.672 217.116 236.122 209.925 236.032 194.142C235.939 178.403 224.753 170.425 203.133 170.425C196.138 170.425 190.57 171.13 185.654 171.751L174.675 173.132L186.01 88.5551H247.506V61.8126C247.506 59.3604 247.025 56.9323 246.091 54.6669C245.157 52.4014 243.787 50.343 242.06 48.6092C240.334 46.8754 238.284 45.5002 236.028 44.562C233.773 43.6239 231.355 43.1412 228.913 43.1415H156.778C153.954 39.0186 150.759 35.1637 147.236 31.6249C115.314 -0.443331 63.5645 -0.443331 31.648 31.6249C4.36623 59.0254 0.40728 100.973 19.7635 132.601V222.765C19.7642 227.717 21.7233 232.467 25.2099 235.969C28.6966 239.471 33.4253 241.438 38.3562 241.439H177.556C175.356 240.473 173.232 239.341 171.203 238.051Z" fill="#EAEAEA"></path>
  <path opacity="0.61" d="M171.569 237.546L166.592 234.318L176.194 204.949L184.411 209.842C188.635 212.355 198.916 216.611 210.658 216.611C223.038 216.611 236.488 209.42 236.398 193.637C236.305 177.898 225.119 169.92 203.499 169.92C196.504 169.92 190.936 170.625 186.02 171.246L175.041 172.624L186.376 88.0503H247.872V61.3078C247.872 56.3552 245.913 51.6055 242.427 48.1035C238.94 44.6015 234.211 42.6341 229.279 42.6341H157.144C154.319 38.5125 151.125 34.6585 147.602 31.1201C115.685 -0.937812 63.9356 -0.937812 32.0192 31.1201C4.73485 58.518 0.773321 100.468 20.1295 132.096V222.26C20.1302 227.213 22.0893 231.962 25.576 235.464C29.0626 238.966 33.7913 240.933 38.7222 240.934H177.922C175.722 239.969 173.598 238.836 171.569 237.546Z" fill="#EAEAEA"></path>
  <path opacity="0.64" d="M171.936 237.041L166.96 233.813L176.56 204.452L184.779 209.345C189.001 211.857 199.282 216.113 211.024 216.113C223.404 216.113 236.854 208.923 236.764 193.14C236.671 177.401 225.488 169.42 203.865 169.42C196.87 169.42 191.302 170.127 186.386 170.749L175.407 172.127L186.742 87.5502H248.238V60.8025C248.238 55.8504 246.28 51.1011 242.794 47.5992C239.307 44.0973 234.579 42.1296 229.648 42.1289H157.511C154.684 38.007 151.49 34.1522 147.968 30.6123C116.051 -1.44302 64.3017 -1.44302 32.3853 30.6123C5.10354 58.0128 1.14459 99.9631 20.5008 131.591V221.755C20.5015 226.707 22.4606 231.456 25.9474 234.958C29.4341 238.459 34.163 240.426 39.0936 240.426H178.293C176.091 239.463 173.965 238.331 171.936 237.041Z" fill="#EAEAEA"></path>
  <path opacity="0.67" d="M172.303 236.533L167.325 233.308L176.927 203.933L185.147 208.827C189.369 211.339 199.649 215.595 211.392 215.595C223.771 215.595 237.221 208.404 237.131 192.621C237.038 176.883 225.855 168.902 204.232 168.902C197.237 168.902 191.669 169.609 186.754 170.231L175.774 171.609L187.109 87.032H248.606V60.2972C248.606 55.3451 246.647 50.5957 243.161 47.0938C239.674 43.5919 234.946 41.6242 230.015 41.6235H157.878C155.052 37.5016 151.858 33.6468 148.335 30.1069C116.419 -1.9484 64.6689 -1.9484 32.7525 30.1069C5.47072 57.5074 1.51178 99.4577 20.868 131.086V221.25C20.8686 226.202 22.8278 230.951 26.3146 234.452C29.8013 237.954 34.5302 239.921 39.4608 239.921H178.66C176.457 238.958 174.332 237.825 172.303 236.533Z" fill="#EAEAEA"></path>
  <path opacity="0.69" d="M172.668 236.028L167.69 232.803L177.292 203.434L185.512 208.338C189.734 210.85 200.014 215.104 211.757 215.104C224.136 215.104 237.587 207.916 237.496 192.133C237.403 176.394 226.22 168.413 204.597 168.413C197.603 168.413 192.034 169.118 187.119 169.742L176.139 171.12L187.475 86.5432H248.976V59.7929C248.976 57.3408 248.496 54.9126 247.561 52.647C246.627 50.3814 245.258 48.3229 243.532 46.5888C241.805 44.8548 239.756 43.4792 237.5 42.5408C235.245 41.6023 232.827 41.1193 230.386 41.1193H158.243C155.417 36.9974 152.223 33.1426 148.7 29.6027C116.779 -2.45262 65.0291 -2.45262 33.105 29.6053C5.83099 57.0032 1.87207 98.9535 21.2411 130.581V220.745C21.2404 225.694 23.1958 230.441 26.6776 233.943C30.1595 237.445 34.8831 239.416 39.8107 239.422H179.01C176.812 238.456 174.692 237.322 172.668 236.028Z" fill="#EAEAEA"></path>
  <path opacity="0.72" d="M173.035 235.536L168.057 232.311L177.659 202.942L185.879 207.819C190.101 210.332 200.381 214.585 212.124 214.585C224.503 214.585 237.953 207.397 237.863 191.614C237.77 175.875 226.587 167.895 204.964 167.895C197.97 167.895 192.401 168.599 187.486 169.221L176.504 170.604L187.852 86.0273H249.338V59.2848C249.338 54.3329 247.379 49.5839 243.893 46.0824C240.406 42.5809 235.678 40.6137 230.747 40.6137H158.61C155.784 36.4918 152.59 32.637 149.067 29.0971C117.151 -2.95816 65.4013 -2.95816 33.4849 29.0971C6.20315 56.4976 2.24421 98.448 21.6004 130.073V220.237C21.6004 222.69 22.0812 225.118 23.0156 227.383C23.95 229.649 25.3196 231.708 27.0461 233.442C28.7726 235.176 30.8222 236.551 33.078 237.49C35.3338 238.428 37.7514 238.911 40.1931 238.911H179.392C177.191 237.95 175.065 236.822 173.035 235.536Z" fill="#EAEAEA"></path>
  <path opacity="0.75" d="M173.409 235.018L168.431 231.793L178.033 202.424L186.253 207.314C190.475 209.83 200.755 214.083 212.498 214.083C224.877 214.083 238.327 206.895 238.237 191.112C238.144 175.373 226.961 167.392 205.338 167.392C198.343 167.392 192.775 168.097 187.859 168.719L176.88 170.099L188.215 85.5225H249.712V58.7799C249.712 53.8281 247.753 49.079 244.267 45.5775C240.78 42.076 236.052 40.1089 231.121 40.1089H158.966C156.14 35.987 152.945 32.1322 149.423 28.5923C117.507 -3.46304 65.7568 -3.46304 33.8404 28.5923C6.55861 55.9927 2.59966 97.9405 21.9559 129.568V219.735C21.9559 224.688 23.9148 229.437 27.4016 232.939C30.8884 236.441 35.6175 238.409 40.5486 238.409H179.753C177.556 237.442 175.435 236.309 173.409 235.018Z" fill="#EAEAEA"></path>
  <path opacity="0.78" d="M173.768 234.513L168.79 231.288L178.392 201.919L186.611 206.809C190.833 209.324 201.114 213.578 212.856 213.578C225.236 213.578 238.686 206.389 238.596 190.607C238.506 174.865 227.312 166.892 205.697 166.892C198.702 166.892 193.134 167.597 188.218 168.218L177.239 169.599L188.574 85.0223H250.07V58.2745C250.07 53.3227 248.112 48.5736 244.625 45.0721C241.139 41.5706 236.411 39.6035 231.48 39.6035H159.343C156.517 35.4811 153.323 31.6262 149.8 28.0869C117.883 -3.97102 66.1337 -3.97102 34.2173 28.0869C6.93032 55.4874 2.97136 97.4351 22.3276 129.073V219.217C22.3282 224.169 24.2874 228.918 27.774 232.42C31.2607 235.922 35.9894 237.89 40.9203 237.89H180.115C177.917 236.928 175.795 235.799 173.768 234.513Z" fill="#EAEAEA"></path>
  <path opacity="0.81" d="M174.133 234.008L169.155 230.783L178.757 201.414L186.977 206.304C191.199 208.819 201.479 213.073 213.222 213.073C225.602 213.073 239.052 205.885 238.961 190.102C238.871 174.36 227.686 166.382 206.062 166.382C199.068 166.382 193.499 167.087 188.584 167.708L177.604 169.089L188.94 84.52H250.436V57.7697C250.436 52.8178 248.477 48.0687 244.991 44.5672C241.505 41.0657 236.776 39.0986 231.846 39.0986H159.708C156.883 34.9757 153.689 31.1208 150.165 27.582C118.249 -4.4759 66.499 -4.4759 34.5825 27.582C7.29555 54.9902 3.33659 96.9302 22.6928 128.556V218.722C22.6935 223.675 24.6526 228.424 28.1393 231.926C31.626 235.428 36.3548 237.395 41.2857 237.396H180.485C178.285 236.431 176.161 235.298 174.133 234.008Z" fill="#EAEAEA"></path>
  <path opacity="0.83" d="M174.5 233.502L169.522 230.275L179.124 200.906L187.336 205.799C191.558 208.311 201.838 212.567 213.581 212.567C225.961 212.567 239.411 205.377 239.321 189.594C239.23 173.855 228.045 165.877 206.422 165.877C199.427 165.877 193.859 166.581 188.943 167.203L177.964 168.581L189.312 84.0068H250.808V57.2643C250.808 54.8118 250.327 52.3833 249.392 50.1176C248.458 47.8518 247.088 45.7931 245.361 44.0591C243.635 42.3251 241.585 40.9496 239.329 40.0113C237.072 39.073 234.654 38.5903 232.213 38.5906H160.075C157.249 34.4691 154.055 30.6151 150.532 27.0766C118.616 -4.98127 66.8661 -4.98127 34.9497 27.0766C7.66274 54.4719 3.70379 96.4352 23.06 128.053V218.217C23.0607 223.169 25.0198 227.919 28.5064 231.42C31.9931 234.922 36.7219 236.89 41.6528 236.891H180.852C178.652 235.925 176.528 234.793 174.5 233.502Z" fill="#EAEAEA"></path>
  <path opacity="0.86" d="M174.866 232.998L169.888 229.77L179.49 200.401L187.71 205.294C191.932 207.807 202.212 212.063 213.955 212.063C226.334 212.063 239.784 204.872 239.694 189.089C239.604 173.35 228.418 165.372 206.795 165.372C199.801 165.372 194.232 166.076 189.319 166.698L178.337 168.076L189.685 83.502H251.169V56.7594C251.169 51.8073 249.21 47.058 245.724 43.5561C242.238 40.0541 237.509 38.0864 232.578 38.0858H160.441C157.615 33.9642 154.421 30.1102 150.898 26.5717C118.982 -5.48615 67.2322 -5.48615 35.3158 26.5717C8.02888 53.9696 4.07006 95.9174 23.4262 127.548V217.712C23.4269 222.664 25.3861 227.413 28.8728 230.915C32.3595 234.416 37.0883 236.383 42.0189 236.383H181.218C179.018 235.42 176.894 234.288 174.866 232.998Z" fill="#EAEAEA"></path>
  <path opacity="0.89" d="M175.232 232.49L170.255 229.265L179.857 199.896L188.077 204.789C192.299 207.301 202.579 211.557 214.321 211.557C226.701 211.557 240.151 204.367 240.061 188.584C239.971 172.845 228.785 164.864 207.162 164.864C200.167 164.864 194.599 165.571 189.686 166.193L178.704 167.571L190.039 82.9941H251.535V56.2542C251.535 51.3021 249.577 46.5528 246.091 43.0508C242.604 39.5489 237.876 37.5812 232.945 37.5805H160.808C157.981 33.4586 154.787 29.6039 151.265 26.0639C119.348 -5.99136 67.5987 -5.99136 35.6822 26.0639C8.40041 53.4644 4.44146 95.4148 23.7977 127.043V217.207C23.7983 222.159 25.7575 226.908 29.2443 230.409C32.731 233.911 37.4597 235.878 42.3904 235.878H181.585C179.384 234.915 177.26 233.782 175.232 232.49Z" fill="#EAEAEA"></path>
  <path opacity="0.92" d="M175.598 231.985L170.621 228.76L180.223 199.391L188.442 204.284C192.664 206.796 202.945 211.05 214.687 211.05C227.067 211.05 240.517 203.862 240.427 188.079C240.336 172.34 229.151 164.359 207.528 164.359C200.533 164.359 194.965 165.064 190.052 165.688L179.083 167.066L190.418 82.4893H251.914V55.7493C251.914 53.2972 251.434 50.869 250.5 48.6034C249.566 46.3378 248.196 44.2792 246.47 42.5452C244.744 40.8111 242.694 39.4356 240.439 38.4971C238.183 37.5587 235.765 37.0756 233.324 37.0756H161.186C158.36 32.9538 155.166 29.099 151.644 25.5591C119.727 -6.49625 67.9774 -6.49625 36.061 25.5591C8.77919 52.9595 4.82283 94.9099 24.1764 126.538V216.702C24.1771 221.654 26.1363 226.403 29.623 229.904C33.1098 233.406 37.8386 235.373 42.7693 235.373H181.969C179.761 234.411 177.632 233.278 175.598 231.985Z" fill="#EAEAEA"></path>
  <path opacity="0.94" d="M175.965 231.479L170.987 228.255L180.589 198.885L188.809 203.779C193.031 206.291 203.311 210.544 215.054 210.544C227.434 210.544 240.884 203.356 240.793 187.573C240.703 171.835 229.517 163.854 207.894 163.854C200.9 163.854 195.331 164.558 190.418 165.18L179.436 166.561L190.771 81.9839H252.268V55.2492C252.268 50.2973 250.309 45.5482 246.823 42.0467C243.337 38.5452 238.608 36.5781 233.678 36.5781H161.545C158.719 32.4562 155.525 28.6014 152.002 25.0615C120.086 -6.99381 68.3361 -6.99381 36.4196 25.0615C9.11974 52.4542 5.17109 94.4045 24.5247 126.03V216.194C24.5247 221.147 26.4836 225.896 29.9704 229.398C33.4573 232.9 38.1864 234.868 43.1175 234.868H182.317C180.117 233.902 177.993 232.77 175.965 231.479Z" fill="#EAEAEA"></path>
  <path opacity="0.97" d="M176.331 230.974L171.346 227.749L180.948 198.38L189.167 203.271C193.389 205.786 203.669 210.039 215.412 210.039C227.792 210.039 241.242 202.851 241.152 187.068C241.061 171.329 229.876 163.349 208.253 163.349C201.258 163.349 195.69 164.053 190.777 164.675L179.795 166.056L191.13 81.4788H252.626V54.7311C252.626 49.7792 250.667 45.0302 247.181 41.5287C243.695 38.0271 238.966 36.06 234.036 36.06H161.906C159.08 31.9381 155.886 28.0833 152.363 24.5434C120.447 -7.51187 68.6971 -7.51187 36.7807 24.5434C9.49892 51.9439 5.54255 93.8917 24.8962 125.52V215.689C24.8962 220.641 26.8551 225.391 30.3419 228.893C33.8287 232.395 38.5578 234.363 43.4889 234.363H182.694C180.49 233.398 178.363 232.265 176.331 230.974Z" fill="#EAEAEA"></path>
  <path d="M176.697 230.469L171.719 227.247L181.321 197.878L189.541 202.768C193.763 205.283 204.043 209.537 215.786 209.537C228.165 209.537 241.499 202.348 241.525 186.566C241.316 170.827 230.249 162.846 208.626 162.846C201.632 162.846 196.063 163.551 191.15 164.172L180.168 165.553L191.503 80.9761H253V54.2309C252.999 49.2795 251.04 44.5311 247.554 41.0302C244.068 37.5292 239.339 35.5625 234.409 35.5625H162.275C159.448 31.4407 156.254 27.586 152.732 24.0459C120.815 -8.01203 69.0657 -8.01203 37.1493 24.0459C9.86759 51.4463 5.91116 93.3941 25.2673 125.022V215.184C25.2673 220.136 27.2259 224.885 30.7122 228.387C34.1984 231.889 38.9269 233.856 43.8575 233.857H183.057C180.854 232.892 178.728 231.76 176.697 230.469Z" fill="#EAEAEA"></path>
  <path opacity="0.03" d="M205.671 130.198L202.669 150.337C203.443 150.317 204.263 150.306 205.137 150.306C218.082 150.306 229.866 153.402 239.38 158.984L240.182 159.461V130.19L205.671 130.198Z" fill="#EAEAEA"></path>
  <path opacity="0.06" d="M206.037 129.692L203.035 149.832C203.809 149.811 204.629 149.801 205.503 149.801C218.448 149.801 230.232 152.894 239.746 158.479L240.548 158.955V129.685L206.037 129.692Z" fill="#EAEAEA"></path>
  <path opacity="0.08" d="M206.403 129.187L203.401 149.327C204.175 149.307 204.995 149.294 205.87 149.294C218.814 149.294 230.598 152.402 240.112 157.974L240.914 158.45V129.18L206.403 129.187Z" fill="#EAEAEA"></path>
  <path opacity="0.11" d="M206.77 128.682L203.768 148.822C204.541 148.801 205.361 148.788 206.236 148.788C219.18 148.788 230.964 151.884 240.478 157.468L241.281 157.945V128.674L206.77 128.682Z" fill="#EAEAEA"></path>
  <path opacity="0.14" d="M207.136 128.177L204.134 148.317C204.908 148.296 205.728 148.283 206.602 148.283C219.547 148.283 231.33 151.392 240.845 156.964C241.116 157.119 241.379 157.28 241.647 157.44V128.169L207.136 128.177Z" fill="#EAEAEA"></path>
  <path opacity="0.17" d="M207.502 127.672L204.5 147.812C205.274 147.788 206.094 147.778 206.968 147.778C219.913 147.778 231.697 150.873 241.211 156.456C241.469 156.614 241.745 156.774 242.013 156.935V127.664L207.502 127.672Z" fill="#EAEAEA"></path>
  <path opacity="0.19" d="M207.868 127.167L204.874 147.304C205.648 147.284 206.468 147.273 207.342 147.273C220.287 147.273 232.071 150.382 241.585 155.951C241.843 156.109 242.122 156.269 242.387 156.427V127.157L207.868 127.167Z" fill="#EAEAEA"></path>
  <path opacity="0.22" d="M208.227 126.659L205.225 146.799C205.998 146.778 206.819 146.768 207.693 146.768C220.637 146.768 232.421 149.876 241.936 155.445C242.206 155.603 242.472 155.764 242.738 155.922V126.651L208.227 126.659Z" fill="#EAEAEA"></path>
  <path opacity="0.25" d="M208.601 126.154L205.599 146.294C206.372 146.273 207.192 146.263 208.067 146.263C221.011 146.263 232.795 149.359 242.309 154.941C242.58 155.099 242.846 155.259 243.111 155.417V126.147L208.601 126.154Z" fill="#EAEAEA"></path>
  <path opacity="0.28" d="M208.967 125.649L205.965 145.789C206.739 145.768 207.559 145.758 208.433 145.758C221.38 145.758 233.161 148.851 242.676 154.435C242.946 154.593 243.212 154.754 243.478 154.912V125.641L208.967 125.649Z" fill="#EAEAEA"></path>
  <path opacity="0.31" d="M209.333 125.144L206.331 145.284C207.105 145.263 207.925 145.253 208.799 145.253C221.746 145.253 233.528 148.346 243.042 153.93C243.313 154.088 243.578 154.246 243.844 154.407V125.136L209.333 125.144Z" fill="#EAEAEA"></path>
  <path opacity="0.33" d="M209.699 124.639L206.697 144.778C207.471 144.758 208.291 144.745 209.166 144.745C222.113 144.745 233.894 147.853 243.408 153.425C243.679 153.583 243.945 153.741 244.21 153.902V124.631L209.699 124.639Z" fill="#EAEAEA"></path>
  <path opacity="0.36" d="M210.065 124.133L207.063 144.273C207.837 144.252 208.657 144.239 209.532 144.239C222.479 144.239 234.26 147.348 243.774 152.92C244.045 153.078 244.311 153.236 244.577 153.396V124.125L210.065 124.133Z" fill="#EAEAEA"></path>
  <path opacity="0.39" d="M210.432 123.633L207.43 143.773C208.203 143.752 209.024 143.739 209.898 143.739C222.845 143.739 234.626 146.835 244.141 152.417C244.411 152.575 244.677 152.736 244.943 152.896V123.633H210.432Z" fill="#EAEAEA"></path>
  <path opacity="0.42" d="M210.806 123.115L207.804 143.255C208.577 143.232 209.398 143.221 210.272 143.221C223.219 143.221 235 146.33 244.515 151.899C244.786 152.057 245.051 152.218 245.317 152.378V123.115H210.806Z" fill="#EAEAEA"></path>
  <path opacity="0.44" d="M211.164 122.616L208.162 142.755C208.936 142.735 209.756 142.724 210.63 142.724C223.577 142.724 235.359 145.82 244.873 151.402C245.144 151.56 245.409 151.721 245.675 151.879V122.608L211.164 122.616Z" fill="#EAEAEA"></path>
  <path opacity="0.47" d="M211.53 122.111L208.528 142.251C209.302 142.23 210.122 142.22 210.997 142.22C223.944 142.22 235.725 145.328 245.239 150.897C245.51 151.055 245.776 151.216 246.041 151.374V122.103L211.53 122.111Z" fill="#EAEAEA"></path>
  <path opacity="0.5" d="M211.897 121.606L208.895 141.746C209.668 141.725 210.489 141.715 211.363 141.715C224.31 141.715 236.091 144.807 245.606 150.392C245.864 150.55 246.142 150.711 246.408 150.869V121.598L211.897 121.606Z" fill="#EAEAEA"></path>
  <path opacity="0.53" d="M212.262 121.101L209.258 141.248C210.032 141.227 210.852 141.217 211.726 141.217C224.673 141.217 236.454 144.31 245.969 149.895C246.227 150.053 246.505 150.211 246.771 150.371V121.101H212.262Z" fill="#EAEAEA"></path>
  <path opacity="0.56" d="M212.629 120.595L209.627 140.73C210.401 140.709 211.221 140.696 212.095 140.696C225.042 140.696 236.824 143.805 246.338 149.377C246.596 149.535 246.874 149.693 247.14 149.853V120.583L212.629 120.595Z" fill="#EAEAEA"></path>
  <path opacity="0.58" d="M212.995 120.09L209.993 140.23C210.767 140.209 211.587 140.196 212.461 140.196C225.409 140.196 237.19 143.292 246.704 148.877C246.975 149.035 247.241 149.193 247.506 149.353V120.083L212.995 120.09Z" fill="#EAEAEA"></path>
  <path opacity="0.61" d="M213.362 119.585L210.359 139.725C211.133 139.704 211.953 139.692 212.828 139.692C225.775 139.692 237.556 142.8 247.07 148.369C247.341 148.527 247.607 148.688 247.873 148.848V119.578L213.362 119.585Z" fill="#EAEAEA"></path>
  <path opacity="0.64" d="M213.728 119.08L210.726 139.22C211.499 139.196 212.319 139.186 213.194 139.186C226.141 139.186 237.922 142.295 247.437 147.864C247.707 148.022 247.973 148.182 248.239 148.343V119.072L213.728 119.08Z" fill="#EAEAEA"></path>
  <path opacity="0.67" d="M214.094 118.572L211.092 138.712C211.866 138.691 212.686 138.681 213.56 138.681C226.507 138.681 238.289 141.776 247.803 147.358C248.074 147.516 248.339 147.677 248.605 147.835V118.564L214.094 118.572Z" fill="#EAEAEA"></path>
  <path opacity="0.69" d="M214.46 118.067L211.458 138.207C212.232 138.186 213.052 138.176 213.926 138.176C226.873 138.176 238.655 141.269 248.172 146.854L248.971 147.33V118.059L214.46 118.067Z" fill="#EAEAEA"></path>
  <path opacity="0.72" d="M214.826 117.562L211.837 137.702C212.611 137.681 213.431 137.671 214.305 137.671C227.252 137.671 239.034 140.764 248.551 146.348L249.35 146.825V117.554L214.826 117.562Z" fill="#EAEAEA"></path>
  <path opacity="0.75" d="M215.19 117.057L212.188 137.197C212.961 137.176 213.781 137.166 214.656 137.166C227.603 137.166 239.387 140.259 248.901 145.843L249.701 146.32V117.049L215.19 117.057Z" fill="#EAEAEA"></path>
  <path opacity="0.78" d="M215.559 116.552L212.557 136.691C213.33 136.671 214.15 136.658 215.025 136.658C227.972 136.658 239.756 139.766 249.27 145.338L250.07 145.815V116.544L215.559 116.552Z" fill="#EAEAEA"></path>
  <path opacity="0.81" d="M215.925 116.047L212.923 136.187C213.697 136.166 214.517 136.153 215.391 136.153C228.338 136.153 240.122 139.248 249.636 144.833L250.436 145.31V116.039L215.925 116.047Z" fill="#EAEAEA"></path>
  <path opacity="0.83" d="M216.291 115.541L213.289 135.681C214.063 135.661 214.883 135.648 215.757 135.648C228.704 135.648 240.488 138.756 250.003 144.328L250.802 144.804V115.534L216.291 115.541Z" fill="#EAEAEA"></path>
  <path opacity="0.86" d="M216.657 115.037L213.655 135.176C214.429 135.156 215.249 135.143 216.124 135.143C229.071 135.143 240.855 138.251 250.369 143.82C250.627 143.978 250.903 144.139 251.168 144.299V115.029L216.657 115.037Z" fill="#EAEAEA"></path>
  <path opacity="0.89" d="M217.023 114.531L214.021 134.669C214.795 134.648 215.615 134.637 216.49 134.637C229.437 134.637 241.221 137.733 250.735 143.315C250.993 143.473 251.269 143.634 251.534 143.794V114.524L217.023 114.531Z" fill="#EAEAEA"></path>
  <path opacity="0.92" d="M217.39 114.024L214.388 134.163C215.161 134.143 215.982 134.132 216.856 134.132C229.803 134.132 241.587 137.225 251.101 142.81L251.901 143.286V114.016L217.39 114.024Z" fill="#EAEAEA"></path>
  <path opacity="0.94" d="M217.77 113.531L214.768 133.671C215.541 133.65 216.362 133.64 217.236 133.64C230.183 133.64 241.967 136.733 251.481 142.318L252.281 142.794V113.531H217.77Z" fill="#EAEAEA"></path>
  <path opacity="0.97" d="M218.122 113.013L215.12 133.153C215.894 133.132 216.714 133.122 217.588 133.122C230.535 133.122 242.319 136.215 251.834 141.799L252.633 142.276V113.013H218.122Z" fill="#EAEAEA"></path>
  <path d="M218.488 112.508L215.486 132.648C216.26 132.627 217.08 132.617 217.955 132.617C230.902 132.617 242.74 135.617 252.2 141.295C252.471 141.45 252.734 141.611 253 141.771V112.5L218.488 112.508Z" fill="#EAEAEA"></path>
  <path d="M176.697 230.469L171.719 227.247L181.321 197.878L189.541 202.768C193.763 205.283 204.043 209.537 215.786 209.537C228.165 209.537 241.499 202.348 241.525 186.566C241.316 170.827 230.249 162.846 208.626 162.846C201.632 162.846 196.063 163.55 191.15 164.172L180.168 165.553L191.503 80.9761H253V54.2309C252.999 49.2795 251.04 44.5311 247.554 41.0302C244.068 37.5292 239.339 35.5625 234.409 35.5625H162.275C159.448 31.4407 156.254 27.586 152.732 24.0459C120.815 -8.01203 69.0657 -8.01203 37.1493 24.0459C9.86759 51.4463 5.91116 93.3941 25.2673 125.022V215.183C25.2673 220.136 27.2259 224.885 30.7122 228.387C34.1984 231.889 38.9269 233.856 43.8575 233.857H183.057C180.854 232.892 178.728 231.759 176.697 230.469Z" fill="#5D7C3D"></path>
  <path d="M41.476 182.981C41.476 185.893 43.688 188.161 46.544 188.161C49.4 188.161 51.626 185.893 51.626 182.981C51.626 180.139 49.4 177.941 46.544 177.941C43.688 177.941 41.476 180.139 41.476 182.981ZM42.932 182.981C42.932 180.867 44.542 179.243 46.544 179.243C48.546 179.243 50.17 180.867 50.17 182.981C50.17 185.165 48.546 186.845 46.544 186.845C44.542 186.845 42.932 185.165 42.932 182.981ZM52.5916 184.451C52.5916 186.649 53.7956 188.161 55.7136 188.161C57.4496 188.161 58.0376 186.873 58.0376 186.873H58.0656C58.0656 186.873 58.0516 187.027 58.0516 187.237C58.0516 187.713 58.2896 187.993 58.9196 187.993H60.2216V186.831H59.6476C59.4516 186.831 59.3396 186.733 59.3396 186.523V179.005C59.3396 178.375 59.0736 178.109 58.4296 178.109H57.0996V179.271H57.6736C57.8696 179.271 57.9816 179.369 57.9816 179.579V181.357C57.9816 181.623 57.9956 181.833 57.9956 181.833H57.9676C57.9676 181.833 57.4216 180.741 55.7836 180.741C53.9216 180.741 52.5916 182.197 52.5916 184.451ZM53.9636 184.451C53.9636 182.841 54.9016 181.917 56.0076 181.917C57.3656 181.917 58.0096 183.177 58.0096 184.437C58.0096 186.243 57.0296 186.985 55.9796 186.985C54.7896 186.985 53.9636 185.991 53.9636 184.451ZM64.8855 187.993H70.5975V186.789H68.4555V178.109H67.1675L64.8155 180.405L65.6415 181.273L66.5795 180.363C66.9295 180.013 67.0415 179.803 67.0415 179.803H67.0695C67.0695 179.803 67.0555 180.097 67.0555 180.405V186.789H64.8855V187.993ZM74.9633 188.161C77.6093 188.161 78.4633 185.893 78.4633 183.037C78.4633 180.195 77.6093 177.941 74.9633 177.941C72.3313 177.941 71.4773 180.195 71.4773 183.037C71.4773 185.893 72.3313 188.161 74.9633 188.161ZM74.9633 186.887C73.3533 186.887 72.8913 185.193 72.8913 183.037C72.8913 180.895 73.3533 179.215 74.9633 179.215C76.5873 179.215 77.0493 180.895 77.0493 183.037C77.0493 185.193 76.5873 186.887 74.9633 186.887ZM83.3442 188.161C85.9902 188.161 86.8442 185.893 86.8442 183.037C86.8442 180.195 85.9902 177.941 83.3442 177.941C80.7122 177.941 79.8582 180.195 79.8582 183.037C79.8582 185.893 80.7122 188.161 83.3442 188.161ZM83.3442 186.887C81.7342 186.887 81.2722 185.193 81.2722 183.037C81.2722 180.895 81.7342 179.215 83.3442 179.215C84.9682 179.215 85.4302 180.895 85.4302 183.037C85.4302 185.193 84.9682 186.887 83.3442 186.887ZM95.4848 188.161C98.1308 188.161 98.9848 185.893 98.9848 183.037C98.9848 180.195 98.1308 177.941 95.4848 177.941C92.8528 177.941 91.9988 180.195 91.9988 183.037C91.9988 185.893 92.8528 188.161 95.4848 188.161ZM95.4848 186.887C93.8748 186.887 93.4128 185.193 93.4128 183.037C93.4128 180.895 93.8748 179.215 95.4848 179.215C97.1088 179.215 97.5708 180.895 97.5708 183.037C97.5708 185.193 97.1088 186.887 95.4848 186.887ZM103.866 188.161C106.512 188.161 107.366 185.893 107.366 183.037C107.366 180.195 106.512 177.941 103.866 177.941C101.234 177.941 100.38 180.195 100.38 183.037C100.38 185.893 101.234 188.161 103.866 188.161ZM103.866 186.887C102.256 186.887 101.794 185.193 101.794 183.037C101.794 180.895 102.256 179.215 103.866 179.215C105.49 179.215 105.952 180.895 105.952 183.037C105.952 185.193 105.49 186.887 103.866 186.887ZM112.247 188.161C114.893 188.161 115.747 185.893 115.747 183.037C115.747 180.195 114.893 177.941 112.247 177.941C109.615 177.941 108.761 180.195 108.761 183.037C108.761 185.893 109.615 188.161 112.247 188.161ZM112.247 186.887C110.637 186.887 110.175 185.193 110.175 183.037C110.175 180.895 110.637 179.215 112.247 179.215C113.871 179.215 114.333 180.895 114.333 183.037C114.333 185.193 113.871 186.887 112.247 186.887ZM120.719 187.993H126.095C126.725 187.993 126.991 187.727 126.991 187.097V186.047H125.745V186.523C125.745 186.719 125.633 186.831 125.437 186.831H123.183C122.721 186.831 122.497 186.859 122.497 186.859V186.831C122.497 186.831 122.791 186.551 123.085 186.187L126.711 181.693V180.909H121.657C121.027 180.909 120.747 181.175 120.747 181.805V182.855H121.993V182.379C121.993 182.183 122.105 182.071 122.301 182.071H124.247C124.709 182.071 124.919 182.043 124.919 182.043V182.071C124.919 182.071 124.639 182.351 124.345 182.729L120.719 187.209V187.993ZM128.512 187.097C128.512 187.727 128.778 187.993 129.408 187.993H130.752V186.831H130.178C129.982 186.831 129.87 186.733 129.87 186.523V182.729L130.962 182.085V180.727L129.87 181.357V179.005C129.87 178.375 129.604 178.109 128.974 178.109H127.63V179.271H128.204C128.4 179.271 128.512 179.369 128.512 179.579V182.127L127.462 182.743V184.101L128.512 183.499V187.097ZM135.375 188.581H136.579L140.135 177.577H138.931L135.375 188.581ZM141.831 187.993H143.189V184.759C143.189 184.437 143.217 184.129 143.287 183.849C143.553 182.841 144.295 181.973 145.317 181.973C146.395 181.973 146.535 182.827 146.535 183.751V187.993H147.893V184.759C147.893 184.395 147.935 184.087 148.019 183.793C148.257 182.827 149.013 181.973 149.993 181.973C151.043 181.973 151.239 182.757 151.239 183.751V187.097C151.239 187.727 151.505 187.993 152.135 187.993H153.479V186.831H152.905C152.709 186.831 152.597 186.733 152.597 186.523V183.457C152.597 181.651 151.855 180.741 150.259 180.741C149.111 180.741 148.131 181.497 147.753 182.351H147.725C147.473 181.287 146.787 180.741 145.583 180.741C144.477 180.741 143.497 181.539 143.161 182.365H143.133C143.133 182.365 143.147 182.183 143.147 181.959V181.693C143.147 181.175 142.867 180.909 142.251 180.909H140.949V182.071H141.523C141.719 182.071 141.831 182.169 141.831 182.379V187.993ZM154.915 179.523H156.133V178.109H154.915V179.523ZM154.887 187.097C154.887 187.727 155.153 187.993 155.783 187.993H157.127V186.831H156.553C156.357 186.831 156.245 186.733 156.245 186.523V181.805C156.245 181.175 155.979 180.909 155.335 180.909H154.005V182.071H154.579C154.775 182.071 154.887 182.169 154.887 182.379V187.097ZM157.878 184.451C157.878 186.551 159.418 188.161 161.644 188.161C162.988 188.161 164.052 187.433 164.388 187.153L163.814 186.159C163.576 186.327 162.806 186.985 161.728 186.985C160.454 186.985 159.362 186.159 159.278 184.633H164.444C164.458 184.521 164.486 184.255 164.486 184.059C164.486 182.239 163.436 180.741 161.434 180.741C159.418 180.741 157.878 182.197 157.878 184.451ZM159.334 183.653C159.53 182.477 160.356 181.791 161.406 181.791C162.33 181.791 163.086 182.435 163.128 183.653H159.334ZM165.355 186.915C165.355 186.915 166.293 188.161 168.183 188.161C169.667 188.161 170.787 187.349 170.787 186.089C170.787 183.723 166.909 184.017 166.909 182.673C166.909 182.113 167.441 181.833 168.239 181.833C168.659 181.833 169.303 182.015 169.303 182.435V182.785H170.521V182.113C170.521 181.035 169.037 180.741 168.197 180.741C166.755 180.741 165.565 181.371 165.565 182.729C165.565 185.011 169.415 184.871 169.415 186.145C169.415 186.761 168.855 187.055 168.197 187.055C166.895 187.055 166.041 186.005 166.041 186.005L165.355 186.915ZM172.078 187.993H173.464V186.551H172.078V187.993ZM42.19 210.793H43.548V207.643C43.548 207.279 43.52 207.027 43.52 207.027H43.548C43.548 207.027 44.15 208.161 45.718 208.161C47.58 208.161 48.938 206.705 48.938 204.451C48.938 202.253 47.734 200.741 45.816 200.741C44.052 200.741 43.464 202.001 43.464 202.001H43.436C43.436 202.001 43.45 201.833 43.45 201.623C43.45 201.175 43.212 200.909 42.582 200.909H41.308V202.071H41.882C42.078 202.071 42.19 202.169 42.19 202.379V210.793ZM43.506 204.479C43.506 202.673 44.5 201.931 45.55 201.931C46.726 201.931 47.552 202.925 47.552 204.465C47.552 206.075 46.628 206.999 45.522 206.999C44.192 206.999 43.506 205.739 43.506 204.479ZM50.5982 207.993H51.9562V205.095C51.9562 204.661 51.9982 204.227 52.1242 203.821C52.4602 202.771 53.2442 202.155 54.1262 202.155C54.3362 202.155 54.5182 202.197 54.5182 202.197V200.853C54.5182 200.853 54.3362 200.825 54.1542 200.825C53.0622 200.825 52.2502 201.637 51.9142 202.673H51.8862C51.8862 202.673 51.9142 202.463 51.9142 202.183V201.735C51.9142 201.161 51.6202 200.909 51.0182 200.909H49.7162V202.071H50.2902C50.4862 202.071 50.5982 202.169 50.5982 202.379V207.993ZM55.1899 207.993H60.5659C61.1959 207.993 61.4619 207.727 61.4619 207.097V206.047H60.2159V206.523C60.2159 206.719 60.1039 206.831 59.9079 206.831H57.6539C57.1919 206.831 56.9679 206.859 56.9679 206.859V206.831C56.9679 206.831 57.2619 206.551 57.5559 206.187L61.1819 201.693V200.909H56.1279C55.4979 200.909 55.2179 201.175 55.2179 201.805V202.855H56.4639V202.379C56.4639 202.183 56.5759 202.071 56.7719 202.071H58.7179C59.1799 202.071 59.3899 202.043 59.3899 202.043V202.071C59.3899 202.071 59.1099 202.351 58.8159 202.729L55.1899 207.209V207.993ZM63.571 210.933C64.565 210.933 65.419 210.359 65.867 209.267L68.653 202.351C68.751 202.127 68.877 202.071 69.101 202.071H69.283V200.909H68.471C67.897 200.909 67.645 201.063 67.449 201.623L65.965 205.613C65.839 205.977 65.727 206.467 65.727 206.467H65.699C65.699 206.467 65.587 205.977 65.447 205.613L63.851 201.623C63.627 201.063 63.403 200.909 62.829 200.909H62.031V202.071H62.213C62.437 202.071 62.549 202.127 62.647 202.351L65.069 207.965L64.747 208.735C64.481 209.365 64.047 209.757 63.501 209.757C62.913 209.757 62.479 209.295 62.465 209.253L61.905 210.233C61.905 210.233 62.521 210.933 63.571 210.933ZM73.7563 206.775C73.7563 206.775 74.7783 208.161 76.8223 208.161C78.9783 208.161 80.3783 206.635 80.3783 204.899C80.3783 203.093 78.9923 201.651 76.8503 201.651C76.1223 201.651 75.5763 201.945 75.5763 201.945H75.5483C75.5483 201.945 75.5903 201.735 75.6183 201.427L75.8143 199.621C75.8423 199.411 75.9263 199.313 76.1223 199.313H78.1943C78.3903 199.313 78.5023 199.411 78.5023 199.621V200.251H79.7763V199.005C79.7763 198.375 79.5103 198.109 78.8943 198.109H75.4363C74.8063 198.109 74.5963 198.375 74.5403 199.005L74.1483 203.093L74.7223 203.359C74.7223 203.359 75.5063 202.855 76.6123 202.855C77.8863 202.855 78.9503 203.639 78.9503 204.871C78.9503 205.977 78.0683 206.845 76.8223 206.845C75.3103 206.845 74.5263 205.753 74.5263 205.753L73.7563 206.775ZM85.186 207.993H90.562C91.192 207.993 91.458 207.727 91.458 207.097V206.047H90.212V206.523C90.212 206.719 90.1 206.831 89.904 206.831H87.65C87.188 206.831 86.964 206.859 86.964 206.859V206.831C86.964 206.831 87.258 206.551 87.552 206.187L91.178 201.693V200.909H86.124C85.494 200.909 85.214 201.175 85.214 201.805V202.855H86.46V202.379C86.46 202.183 86.572 202.071 86.768 202.071H88.714C89.176 202.071 89.386 202.043 89.386 202.043V202.071C89.386 202.071 89.106 202.351 88.812 202.729L85.186 207.209V207.993ZM92.335 204.451C92.335 206.551 93.875 208.161 96.101 208.161C97.445 208.161 98.509 207.433 98.845 207.153L98.271 206.159C98.033 206.327 97.263 206.985 96.185 206.985C94.911 206.985 93.819 206.159 93.735 204.633H98.901C98.915 204.521 98.943 204.255 98.943 204.059C98.943 202.239 97.893 200.741 95.891 200.741C93.875 200.741 92.335 202.197 92.335 204.451ZM93.791 203.653C93.987 202.477 94.813 201.791 95.863 201.791C96.787 201.791 97.543 202.435 97.585 203.653H93.791ZM99.8119 206.915C99.8119 206.915 100.75 208.161 102.64 208.161C104.124 208.161 105.244 207.349 105.244 206.089C105.244 203.723 101.366 204.017 101.366 202.673C101.366 202.113 101.898 201.833 102.696 201.833C103.116 201.833 103.76 202.015 103.76 202.435V202.785H104.978V202.113C104.978 201.035 103.494 200.741 102.654 200.741C101.212 200.741 100.022 201.371 100.022 202.729C100.022 205.011 103.872 204.871 103.872 206.145C103.872 206.761 103.312 207.055 102.654 207.055C101.352 207.055 100.498 206.005 100.498 206.005L99.8119 206.915ZM106.899 210.793H108.257V207.643C108.257 207.279 108.229 207.027 108.229 207.027H108.257C108.257 207.027 108.859 208.161 110.427 208.161C112.289 208.161 113.647 206.705 113.647 204.451C113.647 202.253 112.443 200.741 110.525 200.741C108.761 200.741 108.173 202.001 108.173 202.001H108.145C108.145 202.001 108.159 201.833 108.159 201.623C108.159 201.175 107.921 200.909 107.291 200.909H106.017V202.071H106.591C106.787 202.071 106.899 202.169 106.899 202.379V210.793ZM108.215 204.479C108.215 202.673 109.209 201.931 110.259 201.931C111.435 201.931 112.261 202.925 112.261 204.465C112.261 206.075 111.337 206.999 110.231 206.999C108.901 206.999 108.215 205.739 108.215 204.479ZM114.579 204.437C114.579 206.593 116.273 208.161 118.387 208.161C120.501 208.161 122.209 206.593 122.209 204.437C122.209 202.295 120.501 200.741 118.387 200.741C116.273 200.741 114.579 202.295 114.579 204.437ZM115.951 204.437C115.951 202.967 117.057 201.917 118.387 201.917C119.731 201.917 120.823 202.967 120.823 204.437C120.823 205.921 119.731 206.985 118.387 206.985C117.057 206.985 115.951 205.921 115.951 204.437ZM123.782 207.097C123.782 207.727 124.048 207.993 124.678 207.993H126.022V206.831H125.448C125.252 206.831 125.14 206.733 125.14 206.523V202.729L126.232 202.085V200.727L125.14 201.357V199.005C125.14 198.375 124.874 198.109 124.244 198.109H122.9V199.271H123.474C123.67 199.271 123.782 199.369 123.782 199.579V202.127L122.732 202.743V204.101L123.782 203.499V207.097ZM126.759 206.061C126.759 207.419 127.907 208.161 129.139 208.161C130.819 208.161 131.435 206.761 131.421 206.761H131.449C131.449 206.761 131.435 206.929 131.435 207.181C131.435 207.685 131.673 207.993 132.303 207.993H133.591V206.831H133.017C132.821 206.831 132.709 206.733 132.709 206.523V203.513C132.709 201.931 132.093 200.741 129.755 200.741C129.111 200.741 127.333 200.923 127.333 202.057V202.771H128.621V202.365C128.621 201.903 129.447 201.819 129.783 201.819C130.875 201.819 131.351 202.267 131.351 203.485V203.583H131.043C129.853 203.583 126.759 203.681 126.759 206.061ZM128.117 205.935C128.117 204.661 129.965 204.563 130.987 204.563H131.351V204.829C131.351 205.879 130.623 207.083 129.447 207.083C128.565 207.083 128.117 206.509 128.117 205.935ZM134.239 204.451C134.239 206.579 135.793 208.161 138.019 208.161C139.895 208.161 140.889 206.943 140.889 206.943L140.315 205.977C140.315 205.977 139.447 206.957 138.117 206.957C136.787 206.957 135.611 206.047 135.611 204.437C135.611 202.939 136.661 201.903 138.047 201.903C138.551 201.903 139.363 202.127 139.363 202.631V203.023H140.595V202.295C140.595 201.091 138.901 200.741 138.047 200.741C135.765 200.741 134.239 202.365 134.239 204.451ZM142.139 207.993H143.497V204.675C143.497 204.339 143.525 204.017 143.609 203.737C143.903 202.715 144.785 201.987 145.863 201.987C146.997 201.987 147.193 202.771 147.193 203.765V207.097C147.193 207.727 147.459 207.993 148.089 207.993H149.433V206.831H148.859C148.663 206.831 148.551 206.733 148.551 206.523V203.457C148.551 201.651 147.781 200.741 146.115 200.741C144.701 200.741 143.805 201.637 143.497 202.323H143.469C143.469 202.323 143.497 202.071 143.497 201.735V198.977C143.497 198.375 143.217 198.109 142.587 198.109H141.257V199.271H141.831C142.027 199.271 142.139 199.369 142.139 199.579V207.993Z" fill="white"></path>
  <path d="M94.494 152.592C132.874 152.592 163.988 121.343 163.988 82.7958C163.988 44.2483 132.874 12.9995 94.494 12.9995C56.1135 12.9995 25 44.2483 25 82.7958C25 121.343 56.1135 152.592 94.494 152.592Z" fill="url(#paint0_linear_921_641)"></path>
  <g clip-path="url(#clip0_921_641)">
    <path d="M123.786 65.4486C125.772 65.4486 127.491 64.7366 128.895 63.3317C130.3 61.9271 131.012 60.2084 131.012 58.2229C131.012 56.238 130.3 54.5191 128.895 53.114C127.49 51.7096 125.771 50.9976 123.786 50.9976C121.801 50.9976 120.082 51.7096 118.677 53.1142C117.273 54.5189 116.561 56.2378 116.561 58.2229C116.561 60.2084 117.273 61.9273 118.678 63.332C120.083 64.7364 121.801 65.4486 123.786 65.4486Z" fill="#5D7C3D"></path>
    <path d="M136.429 74.0656C136.389 73.481 136.307 72.8434 136.186 72.17C136.064 71.4916 135.908 70.8503 135.72 70.2641C135.526 69.6583 135.262 69.06 134.937 68.4866C134.598 67.8915 134.201 67.3733 133.755 66.9469C133.289 66.5009 132.718 66.1422 132.058 65.8806C131.4 65.6203 130.671 65.4885 129.891 65.4885C129.585 65.4885 129.289 65.6142 128.717 65.9866C128.365 66.2161 127.953 66.4816 127.494 66.7753C127.101 67.0257 126.568 67.2603 125.911 67.4727C125.269 67.6803 124.618 67.7856 123.975 67.7856C123.332 67.7856 122.681 67.6803 122.038 67.4727C121.382 67.2605 120.849 67.0259 120.457 66.7755C120.001 66.4846 119.589 66.2191 119.232 65.9863C118.661 65.6139 118.364 65.4883 118.058 65.4883C117.278 65.4883 116.549 65.6203 115.892 65.8808C115.232 66.142 114.661 66.5006 114.194 66.9472C113.749 67.3738 113.351 67.8918 113.013 68.4866C112.688 69.06 112.424 69.658 112.23 70.2643C112.043 70.8505 111.886 71.4916 111.764 72.17C111.643 72.8425 111.561 73.4803 111.521 74.0663C111.481 74.6403 111.461 75.2361 111.461 75.8378C111.461 77.4038 111.959 78.6716 112.94 79.6066C113.91 80.5292 115.193 80.9973 116.753 80.9973H131.198C132.758 80.9973 134.04 80.5294 135.01 79.6066C135.992 78.6723 136.49 77.4043 136.49 75.8376C136.49 75.2331 136.469 74.6369 136.429 74.0656Z" fill="#5D7C3D"></path>
  </g>
  <g clip-path="url(#clip1_921_641)">
    <path d="M77.7863 99.4472C79.7716 99.4472 81.4908 98.7351 82.8954 97.3303C84.3 95.9256 85.0121 94.2069 85.0121 92.2214C85.0121 90.2366 84.3 88.5177 82.8952 87.1126C81.4903 85.7081 79.7714 84.9961 77.7863 84.9961C75.8008 84.9961 74.0821 85.7081 72.6775 87.1128C71.2728 88.5174 70.5605 90.2363 70.5605 92.2214C70.5605 94.2069 71.2728 95.9258 72.6777 97.3305C74.0826 98.7349 75.8015 99.4472 77.7863 99.4472Z" fill="#5D7C3D"></path>
    <path d="M90.4293 108.064C90.3888 107.48 90.3069 106.842 90.1863 106.169C90.0645 105.49 89.9077 104.849 89.72 104.263C89.5262 103.657 89.2625 103.059 88.9366 102.485C88.5983 101.89 88.2009 101.372 87.7551 100.945C87.2889 100.499 86.718 100.141 86.0579 99.8791C85.4001 99.6189 84.6711 99.487 83.8913 99.487C83.5851 99.487 83.2889 99.6127 82.717 99.9851C82.3649 100.215 81.9532 100.48 81.4936 100.774C81.1006 101.024 80.5682 101.259 79.9106 101.471C79.2691 101.679 78.6177 101.784 77.9748 101.784C77.3318 101.784 76.6807 101.679 76.0384 101.471C75.3816 101.259 74.8492 101.024 74.4566 100.774C74.0014 100.483 73.5894 100.218 73.2321 99.9849C72.6608 99.6125 72.3644 99.4868 72.0582 99.4868C71.2782 99.4868 70.5494 99.6189 69.8918 99.8793C69.2322 100.141 68.6612 100.499 68.1945 100.946C67.7488 101.372 67.3513 101.89 67.0134 102.485C66.6877 103.059 66.4241 103.657 66.23 104.263C66.0425 104.849 65.8857 105.49 65.764 106.169C65.6434 106.841 65.5614 107.479 65.5209 108.065C65.4811 108.639 65.4609 109.235 65.4609 109.836C65.4609 111.402 65.9588 112.67 66.9404 113.605C67.91 114.528 69.1928 114.996 70.7529 114.996H85.198C86.7581 114.996 88.0405 114.528 89.0103 113.605C89.9922 112.671 90.49 111.403 90.49 109.836C90.4897 109.232 90.4694 108.635 90.4293 108.064Z" fill="#5D7C3D"></path>
  </g>
  <g clip-path="url(#clip2_921_641)">
    <path d="M93.7863 65.4486C95.7716 65.4486 97.4908 64.7366 98.8954 63.3317C100.3 61.9271 101.012 60.2084 101.012 58.2229C101.012 56.238 100.3 54.5191 98.8952 53.114C97.4903 51.7096 95.7714 50.9976 93.7863 50.9976C91.8008 50.9976 90.0821 51.7096 88.6775 53.1142C87.2728 54.5189 86.5605 56.2378 86.5605 58.2229C86.5605 60.2084 87.2728 61.9273 88.6777 63.332C90.0826 64.7364 91.8015 65.4486 93.7863 65.4486Z" fill="#5D7C3D"></path>
    <path d="M106.429 74.0656C106.389 73.481 106.307 72.8434 106.186 72.17C106.064 71.4916 105.908 70.8503 105.72 70.2641C105.526 69.6583 105.262 69.06 104.937 68.4866C104.598 67.8915 104.201 67.3733 103.755 66.9469C103.289 66.5009 102.718 66.1422 102.058 65.8806C101.4 65.6203 100.671 65.4885 99.8913 65.4885C99.5851 65.4885 99.2889 65.6142 98.717 65.9866C98.3649 66.2161 97.9532 66.4816 97.4936 66.7753C97.1006 67.0257 96.5682 67.2603 95.9106 67.4727C95.2691 67.6803 94.6177 67.7856 93.9748 67.7856C93.3318 67.7856 92.6807 67.6803 92.0384 67.4727C91.3816 67.2605 90.8492 67.0259 90.4566 66.7755C90.0014 66.4846 89.5894 66.2191 89.2321 65.9863C88.6608 65.6139 88.3644 65.4883 88.0582 65.4883C87.2782 65.4883 86.5494 65.6203 85.8918 65.8808C85.2322 66.142 84.6612 66.5006 84.1945 66.9472C83.7488 67.3738 83.3513 67.8918 83.0134 68.4866C82.6877 69.06 82.4241 69.658 82.23 70.2643C82.0425 70.8505 81.8857 71.4916 81.764 72.17C81.6434 72.8425 81.5614 73.4803 81.5209 74.0663C81.4811 74.6403 81.4609 75.2361 81.4609 75.8378C81.4609 77.4038 81.9588 78.6716 82.9404 79.6066C83.91 80.5292 85.1928 80.9973 86.7529 80.9973H101.198C102.758 80.9973 104.04 80.5294 105.01 79.6066C105.992 78.6723 106.49 77.4043 106.49 75.8376C106.49 75.2331 106.469 74.6369 106.429 74.0656Z" fill="#5D7C3D"></path>
  </g>
  <g clip-path="url(#clip3_921_641)">
    <path d="M63.7863 65.4486C65.7716 65.4486 67.4908 64.7366 68.8954 63.3317C70.3 61.9271 71.0121 60.2084 71.0121 58.2229C71.0121 56.238 70.3 54.5191 68.8952 53.114C67.4903 51.7096 65.7714 50.9976 63.7863 50.9976C61.8008 50.9976 60.0821 51.7096 58.6775 53.1142C57.2728 54.5189 56.5605 56.2378 56.5605 58.2229C56.5605 60.2084 57.2728 61.9273 58.6777 63.332C60.0826 64.7364 61.8015 65.4486 63.7863 65.4486Z" fill="#5D7C3D"></path>
    <path d="M76.4293 74.0656C76.3888 73.481 76.3069 72.8434 76.1863 72.17C76.0645 71.4916 75.9077 70.8503 75.72 70.2641C75.5262 69.6583 75.2625 69.06 74.9366 68.4866C74.5983 67.8915 74.2009 67.3733 73.7551 66.9469C73.2889 66.5009 72.718 66.1422 72.0579 65.8806C71.4001 65.6203 70.6711 65.4885 69.8913 65.4885C69.5851 65.4885 69.2889 65.6142 68.717 65.9866C68.3649 66.2161 67.9532 66.4816 67.4936 66.7753C67.1006 67.0257 66.5682 67.2603 65.9106 67.4727C65.2691 67.6803 64.6177 67.7856 63.9748 67.7856C63.3318 67.7856 62.6807 67.6803 62.0384 67.4727C61.3816 67.2605 60.8492 67.0259 60.4566 66.7755C60.0014 66.4846 59.5894 66.2191 59.2321 65.9863C58.6608 65.6139 58.3644 65.4883 58.0582 65.4883C57.2782 65.4883 56.5494 65.6203 55.8918 65.8808C55.2322 66.142 54.6612 66.5006 54.1945 66.9472C53.7488 67.3738 53.3513 67.8918 53.0134 68.4866C52.6877 69.06 52.4241 69.658 52.23 70.2643C52.0425 70.8505 51.8857 71.4916 51.764 72.17C51.6434 72.8425 51.5614 73.4803 51.5209 74.0663C51.4811 74.6403 51.4609 75.2361 51.4609 75.8378C51.4609 77.4038 51.9588 78.6716 52.9404 79.6066C53.91 80.5292 55.1928 80.9973 56.7529 80.9973H71.198C72.7581 80.9973 74.0405 80.5294 75.0103 79.6066C75.9922 78.6723 76.49 77.4043 76.49 75.8376C76.4897 75.2331 76.4694 74.6369 76.4293 74.0656Z" fill="#5D7C3D"></path>
  </g>
  <g clip-path="url(#clip4_921_641)">
    <path d="M107.786 99.4472C109.772 99.4472 111.491 98.7351 112.895 97.3303C114.3 95.9256 115.012 94.2069 115.012 92.2214C115.012 90.2366 114.3 88.5177 112.895 87.1126C111.49 85.7081 109.771 84.9961 107.786 84.9961C105.801 84.9961 104.082 85.7081 102.677 87.1128C101.273 88.5174 100.561 90.2363 100.561 92.2214C100.561 94.2069 101.273 95.9258 102.678 97.3305C104.083 98.7349 105.801 99.4472 107.786 99.4472Z" fill="#5D7C3D"></path>
    <path d="M120.429 108.064C120.389 107.48 120.307 106.842 120.186 106.169C120.064 105.49 119.908 104.849 119.72 104.263C119.526 103.657 119.262 103.059 118.937 102.485C118.598 101.89 118.201 101.372 117.755 100.945C117.289 100.499 116.718 100.141 116.058 99.8791C115.4 99.6189 114.671 99.487 113.891 99.487C113.585 99.487 113.289 99.6127 112.717 99.9851C112.365 100.215 111.953 100.48 111.494 100.774C111.101 101.024 110.568 101.259 109.911 101.471C109.269 101.679 108.618 101.784 107.975 101.784C107.332 101.784 106.681 101.679 106.038 101.471C105.382 101.259 104.849 101.024 104.457 100.774C104.001 100.483 103.589 100.218 103.232 99.9849C102.661 99.6125 102.364 99.4868 102.058 99.4868C101.278 99.4868 100.549 99.6189 99.8918 99.8793C99.2322 100.141 98.6612 100.499 98.1945 100.946C97.7488 101.372 97.3513 101.89 97.0134 102.485C96.6877 103.059 96.4241 103.657 96.23 104.263C96.0425 104.849 95.8857 105.49 95.764 106.169C95.6434 106.841 95.5614 107.479 95.5209 108.065C95.4811 108.639 95.4609 109.235 95.4609 109.836C95.4609 111.402 95.9588 112.67 96.9404 113.605C97.91 114.528 99.1928 114.996 100.753 114.996H115.198C116.758 114.996 118.04 114.528 119.01 113.605C119.992 112.671 120.49 111.403 120.49 109.836C120.49 109.232 120.469 108.635 120.429 108.064Z" fill="#5D7C3D"></path>
  </g>
  <path d="M218.488 112.508L215.486 132.648C216.26 132.627 217.08 132.617 217.955 132.617C230.902 132.617 242.74 135.617 252.2 141.295C252.471 141.45 252.734 141.611 253 141.771V112.5L218.488 112.508Z" fill="#5D7C3D"></path>
  <defs>
    <linearGradient id="paint0_linear_921_641" x1="143.652" y1="33.455" x2="44.9461" y2="131.733" gradientUnits="userSpaceOnUse">
      <stop stop-color="#E6E6E6"></stop>
      <stop offset="0.03" stop-color="#E9E9E9"></stop>
      <stop offset="0.21" stop-color="#F6F6F6"></stop>
      <stop offset="0.45" stop-color="#FDFDFD"></stop>
      <stop offset="1" stop-color="white"></stop>
    </linearGradient>
    <clipPath id="clip0_921_641">
      <rect width="29.9999" height="29.9987" fill="white" transform="translate(109 50.9976)"></rect>
    </clipPath>
    <clipPath id="clip1_921_641">
      <rect width="29.9999" height="29.9987" fill="white" transform="translate(63 84.9961)"></rect>
    </clipPath>
    <clipPath id="clip2_921_641">
      <rect width="29.9999" height="29.9987" fill="white" transform="translate(79 50.9976)"></rect>
    </clipPath>
    <clipPath id="clip3_921_641">
      <rect width="29.9999" height="29.9987" fill="white" transform="translate(49 50.9976)"></rect>
    </clipPath>
    <clipPath id="clip4_921_641">
      <rect width="29.9999" height="29.9987" fill="white" transform="translate(93 84.9961)"></rect>
    </clipPath>
  </defs>
</svg>
