<?xml version="1.0" encoding="UTF-8"?>
<svg xmlns="http://www.w3.org/2000/svg" width="160" height="160" viewBox="0 0 160 160" fill="none">
  <circle cx="80" cy="80" r="78.5" fill="white" stroke="#5B7B3B" stroke-width="3"></circle>
  <g clip-path="url(#clip0_295_917)">
    <path d="M67.0003 55.4165C60.852 55.4165 55.667 59.3123 55.667 63.9165C55.667 68.5207 60.852 72.4165 67.0003 72.4165C73.1487 72.4165 78.3337 68.5207 78.3337 63.9165C78.3337 59.3123 73.1487 55.4165 67.0003 55.4165ZM67.0003 69.5832C62.467 69.5832 58.5003 66.934 58.5003 63.9165C58.5003 60.899 62.467 58.2498 67.0003 58.2498C71.5337 58.2498 75.5003 60.899 75.5003 63.9165C75.5003 66.934 71.5337 69.5832 67.0003 69.5832Z" fill="#5B7B3B"></path>
    <path d="M88.2497 80.9163C89.0321 80.9163 89.6663 80.2821 89.6663 79.4997C89.6663 78.7173 89.0321 78.083 88.2497 78.083C87.4673 78.083 86.833 78.7173 86.833 79.4997C86.833 80.2821 87.4673 80.9163 88.2497 80.9163Z" fill="#5B7B3B"></path>
    <path d="M50 95.0831C50 102.889 57.6217 109.25 67 109.25C79.495 109.25 87.5983 98.4123 82.4275 89.1331L88.0942 86.1723L100.844 93.1423C94.795 98.299 90.46 105 89.7375 118.798C89.6749 119.84 90.1901 120.832 91.0785 121.38C91.967 121.928 93.0847 121.943 93.9875 121.419L98.1667 118.982L102.417 121.575C103.261 122.066 104.298 122.087 105.161 121.633C106.025 121.178 106.594 120.31 106.667 119.336C106.757 115.918 107.513 112.55 108.891 109.42C110.407 106.586 114.388 104.036 117.83 101.529C121.627 102.818 127.662 104.476 131.388 103.045C133.654 102.166 134.093 100.75 134.788 99.2056C135.091 98.5273 134.819 97.7294 134.164 97.3781L126.783 93.4115C130.566 88.949 132.365 84.2598 132.167 79.4998C132.23 74.4827 130.427 69.6209 127.109 65.8573L134.306 61.5365C134.919 61.1634 135.157 60.3904 134.858 59.7373L134.278 58.4623C132.606 54.6656 127.194 54.3398 117.943 57.4423C114.388 54.864 110.478 52.2998 108.962 49.5231C107.584 46.3932 106.828 43.025 106.738 39.6065C106.664 38.6182 106.079 37.7403 105.196 37.2913C104.312 36.8424 103.258 36.8876 102.417 37.4106L98.1667 40.0315L94.03 37.5806C93.1317 37.0603 92.0206 37.0729 91.1343 37.6135C90.2481 38.1542 89.7284 39.1362 89.78 40.1731C90.5025 53.9006 94.8375 60.7006 100.873 65.8431L88.1225 72.8273L82.4558 69.8806C87.6408 60.5165 79.3958 49.7498 67 49.7498C57.6217 49.7498 50 56.1106 50 63.9165C50 73.734 61.6025 80.3073 72.1567 77.4031L75.9817 79.4998L72.1567 81.5965C61.5317 78.6781 50 85.3081 50 95.0831H50ZM111.512 74.1023C114.997 77.2048 115.167 78.5648 115.167 78.9615V80.0806C115.167 80.4915 114.968 81.8373 111.313 85.0531L101 79.4998L111.512 74.1023ZM106.483 108.102C104.57 111.63 104.06 117.041 103.933 119.195L99.6825 116.602C98.7845 116.063 97.6621 116.063 96.7642 116.602L92.6417 119.025C92.7766 113.369 94.1245 107.809 96.5942 102.719C98.3674 99.6014 100.741 96.8665 103.578 94.6723C112.574 99.6165 111.37 99.0498 114.784 100.41C111.823 102.45 108.211 105 106.483 108.06V108.102ZM130.453 100.438C126.571 101.855 118.043 98.5965 117.901 98.5681C112.702 96.6981 114.005 97.1515 91.1825 84.6565L97.9683 81.1431L131.713 99.3331C131.456 99.8446 131 100.229 130.453 100.396V100.438ZM131.77 59.8506L125.239 63.7748C123.816 62.3117 122.302 60.9395 120.706 59.6665C123.667 58.7031 130.495 56.9606 131.77 59.8081V59.8506ZM96.5375 56.3515C94.0685 51.2515 92.7208 45.6818 92.585 40.0173L96.75 42.4823C97.6266 42.9884 98.7067 42.9884 99.5833 42.4823L103.833 39.8615C103.975 42.029 104.485 47.4406 106.398 50.9681C107.984 53.8015 111.03 56.0681 114.274 58.4056C121.825 63.789 129.702 70.2065 129.333 79.4998C129.503 83.7498 127.917 87.8865 124.304 91.9806L113.963 86.4273C118.468 82.3331 118 80.6615 118 79.1173C118.255 75.2498 111.512 70.334 108.31 68.0106C103.621 64.5965 99.3567 61.5506 96.5375 56.3515ZM73.5308 74.924C72.8851 74.5729 72.1282 74.4866 71.42 74.6831C62.6225 77.0631 52.8333 71.8215 52.8333 63.9165C52.8333 57.669 59.1942 52.5831 67 52.5831C74.8058 52.5831 81.1667 57.669 81.1667 63.9165C81.1667 67.9115 79.0558 68.5206 79.75 70.6881C79.9655 71.434 80.4776 72.0588 81.1667 72.4165L85.19 74.499L78.9708 77.9131L73.5308 74.924ZM103.281 67.7698C105.618 69.5548 107.134 70.6031 109.174 72.1473L81.1667 86.5831C80.4806 86.9376 79.9689 87.5567 79.75 88.2973C79.1125 90.4648 81.1667 91.0456 81.1667 95.0548C81.1667 101.302 74.8058 106.388 67 106.388C59.1942 106.388 52.8333 101.331 52.8333 95.0831C52.8333 87.0648 62.75 81.9506 71.4058 84.3165C72.1122 84.5173 72.869 84.4361 73.5167 84.0898C128.767 53.8298 86.8333 76.7798 103.238 67.7698H103.281Z" fill="#5B7B3B"></path>
    <path d="M55.667 95.0832C55.667 99.6874 60.852 103.583 67.0003 103.583C73.1487 103.583 78.3337 99.6874 78.3337 95.0832C78.3337 91.6124 75.5003 88.9066 72.3553 87.6032C64.4928 84.4157 55.667 89.0624 55.667 95.0832ZM74.2253 92.2499C77.937 96.1599 72.9787 100.75 67.0003 100.75C62.467 100.75 58.5003 98.1007 58.5003 95.0832C58.5003 92.0657 62.467 89.4165 67.0003 89.4165C69.6936 89.3403 72.3019 90.3632 74.2253 92.2499Z" fill="#5B7B3B"></path>
  </g>
  <defs>
    <clipPath id="clip0_295_917">
      <rect width="85" height="85" fill="white" transform="translate(50 37)"></rect>
    </clipPath>
  </defs>
</svg>
