<?xml version="1.0" encoding="UTF-8"?>
<svg xmlns="http://www.w3.org/2000/svg" width="160" height="160" viewBox="0 0 160 160" fill="none">
  <circle cx="80" cy="80" r="78.5" fill="white" stroke="#5B7B3B" stroke-width="3"></circle>
  <path d="M107.062 112.703C106.329 112.703 105.734 112.107 105.734 111.375H103.078C103.078 113.104 104.192 114.565 105.734 115.115V116.688H108.391V115.115C109.933 114.565 111.047 113.104 111.047 111.375C111.047 109.178 109.259 107.391 107.062 107.391C106.329 107.391 105.734 106.794 105.734 106.062C105.734 105.331 106.329 104.734 107.062 104.734C107.796 104.734 108.391 105.331 108.391 106.062H111.047C111.047 104.333 109.933 102.872 108.391 102.322V100.75H105.734V102.322C104.192 102.872 103.078 104.333 103.078 106.062C103.078 108.259 104.866 110.047 107.062 110.047C107.796 110.047 108.391 110.643 108.391 111.375C108.391 112.107 107.796 112.703 107.062 112.703Z" fill="#5B7B3B"></path>
  <path d="M68.5469 108.719C68.5469 115.309 73.9085 120.672 80.5 120.672C87.0915 120.672 92.4531 115.309 92.4531 108.719C92.4531 104.093 89.8062 100.079 85.9506 98.0938C89.8062 96.1082 92.4531 92.0946 92.4531 87.4688C92.4531 80.8786 87.0915 75.5156 80.5 75.5156C73.9085 75.5156 68.5469 80.8786 68.5469 87.4688C68.5469 92.0946 71.1938 96.1082 75.0494 98.0938C71.1938 100.079 68.5469 104.093 68.5469 108.719ZM71.2031 87.4688C71.2031 82.3422 75.3748 78.1719 80.5 78.1719C85.6252 78.1719 89.7969 82.3422 89.7969 87.4688C89.7969 92.5953 85.6252 96.7656 80.5 96.7656C75.3748 96.7656 71.2031 92.5953 71.2031 87.4688ZM80.5 99.4219C85.6252 99.4219 89.7969 103.592 89.7969 108.719C89.7969 113.845 85.6252 118.016 80.5 118.016C75.3748 118.016 71.2031 113.845 71.2031 108.719C71.2031 103.592 75.3748 99.4219 80.5 99.4219Z" fill="#5B7B3B"></path>
  <path d="M80.5 112.703C79.7669 112.703 79.1719 112.107 79.1719 111.375H76.5156C76.5156 113.104 77.6299 114.565 79.1719 115.115V116.688H81.8281V115.115C83.3701 114.565 84.4844 113.104 84.4844 111.375C84.4844 109.178 82.6967 107.391 80.5 107.391C79.7669 107.391 79.1719 106.794 79.1719 106.062C79.1719 105.331 79.7669 104.734 80.5 104.734C81.2331 104.734 81.8281 105.331 81.8281 106.062H84.4844C84.4844 104.333 83.3701 102.872 81.8281 102.322V100.75H79.1719V102.322C77.6299 102.872 76.5156 104.333 76.5156 106.062C76.5156 108.259 78.3033 110.047 80.5 110.047C81.2331 110.047 81.8281 110.643 81.8281 111.375C81.8281 112.107 81.2331 112.703 80.5 112.703Z" fill="#5B7B3B"></path>
  <path d="M107.062 91.4531C106.329 91.4531 105.734 90.8568 105.734 90.125H103.078C103.078 91.8542 104.192 93.3152 105.734 93.865V95.4375H108.391V93.865C109.933 93.3152 111.047 91.8542 111.047 90.125C111.047 87.9283 109.259 86.1406 107.062 86.1406C106.329 86.1406 105.734 85.5443 105.734 84.8125C105.734 84.0807 106.329 83.4844 107.062 83.4844C107.796 83.4844 108.391 84.0807 108.391 84.8125H111.047C111.047 83.0833 109.933 81.6223 108.391 81.0725V79.5H105.734V81.0725C104.192 81.6223 103.078 83.0833 103.078 84.8125C103.078 87.0092 104.866 88.7969 107.062 88.7969C107.796 88.7969 108.391 89.3932 108.391 90.125C108.391 90.8568 107.796 91.4531 107.062 91.4531Z" fill="#5B7B3B"></path>
  <path d="M119.016 66.2188C119.016 59.6286 113.654 54.2656 107.062 54.2656C100.471 54.2656 95.1094 59.6286 95.1094 66.2188C95.1094 70.8446 97.7563 74.8582 101.612 76.8438C97.7563 78.8293 95.1094 82.8429 95.1094 87.4688C95.1094 92.0946 97.7563 96.1082 101.612 98.0938C97.7563 100.079 95.1094 104.093 95.1094 108.719C95.1094 115.309 100.471 120.672 107.062 120.672C113.654 120.672 119.016 115.309 119.016 108.719C119.016 104.093 116.369 100.079 112.513 98.0938C116.369 96.1082 119.016 92.0946 119.016 87.4688C119.016 82.8429 116.369 78.8293 112.513 76.8438C116.369 74.8582 119.016 70.8446 119.016 66.2188ZM116.359 108.719C116.359 113.845 112.188 118.016 107.062 118.016C101.937 118.016 97.7656 113.845 97.7656 108.719C97.7656 103.592 101.937 99.4219 107.062 99.4219C112.188 99.4219 116.359 103.592 116.359 108.719ZM116.359 87.4688C116.359 92.5953 112.188 96.7656 107.062 96.7656C101.937 96.7656 97.7656 92.5953 97.7656 87.4688C97.7656 82.3422 101.937 78.1719 107.062 78.1719C112.188 78.1719 116.359 82.3422 116.359 87.4688ZM107.062 75.5156C101.937 75.5156 97.7656 71.3453 97.7656 66.2188C97.7656 61.0922 101.937 56.9219 107.062 56.9219C112.188 56.9219 116.359 61.0922 116.359 66.2188C116.359 71.3453 112.188 75.5156 107.062 75.5156Z" fill="#5B7B3B"></path>
  <path d="M107.062 62.2344C107.796 62.2344 108.391 62.8307 108.391 63.5625H111.047C111.047 61.8333 109.933 60.3723 108.391 59.8225V58.25H105.734V59.8225C104.192 60.3723 103.078 61.8333 103.078 63.5625C103.078 65.7592 104.866 67.5469 107.062 67.5469C107.796 67.5469 108.391 68.1432 108.391 68.875C108.391 69.6068 107.796 70.2031 107.062 70.2031C106.329 70.2031 105.734 69.6068 105.734 68.875H103.078C103.078 70.6042 104.192 72.0652 105.734 72.615V74.1875H108.391V72.615C109.933 72.0652 111.047 70.6042 111.047 68.875C111.047 66.6783 109.259 64.8906 107.062 64.8906C106.329 64.8906 105.734 64.2943 105.734 63.5625C105.734 62.8307 106.329 62.2344 107.062 62.2344Z" fill="#5B7B3B"></path>
  <path d="M80.5 83.4844C81.2331 83.4844 81.8281 84.0807 81.8281 84.8125H84.4844C84.4844 83.0833 83.3701 81.6223 81.8281 81.0725V79.5H79.1719V81.0725C77.6299 81.6223 76.5156 83.0833 76.5156 84.8125C76.5156 87.0092 78.3033 88.7969 80.5 88.7969C81.2331 88.7969 81.8281 89.3932 81.8281 90.125C81.8281 90.8568 81.2331 91.4531 80.5 91.4531C79.7669 91.4531 79.1719 90.8568 79.1719 90.125H76.5156C76.5156 91.8542 77.6299 93.3152 79.1719 93.865V95.4375H81.8281V93.865C83.3701 93.3152 84.4844 91.8542 84.4844 90.125C84.4844 87.9283 82.6967 86.1406 80.5 86.1406C79.7669 86.1406 79.1719 85.5443 79.1719 84.8125C79.1719 84.0807 79.7669 83.4844 80.5 83.4844Z" fill="#5B7B3B"></path>
  <path d="M65.8906 108.719C65.8906 102.129 60.529 96.7656 53.9375 96.7656C47.346 96.7656 41.9844 102.129 41.9844 108.719C41.9844 115.309 47.346 120.672 53.9375 120.672C60.529 120.672 65.8906 115.309 65.8906 108.719ZM53.9375 118.016C48.8123 118.016 44.6406 113.845 44.6406 108.719C44.6406 103.592 48.8123 99.4219 53.9375 99.4219C59.0627 99.4219 63.2344 103.592 63.2344 108.719C63.2344 113.845 59.0627 118.016 53.9375 118.016Z" fill="#5B7B3B"></path>
  <path d="M53.9375 104.734C54.6706 104.734 55.2656 105.331 55.2656 106.062H57.9219C57.9219 104.333 56.8076 102.872 55.2656 102.322V100.75H52.6094V102.322C51.0674 102.872 49.9531 104.333 49.9531 106.062C49.9531 108.259 51.7408 110.047 53.9375 110.047C54.6706 110.047 55.2656 110.643 55.2656 111.375C55.2656 112.107 54.6706 112.703 53.9375 112.703C53.2044 112.703 52.6094 112.107 52.6094 111.375H49.9531C49.9531 113.104 51.0674 114.565 52.6094 115.115V116.688H55.2656V115.115C56.8076 114.565 57.9219 113.104 57.9219 111.375C57.9219 109.178 56.1342 107.391 53.9375 107.391C53.2044 107.391 52.6094 106.794 52.6094 106.062C52.6094 105.331 53.2044 104.734 53.9375 104.734Z" fill="#5B7B3B"></path>
  <path d="M44.0446 87.2493L105.363 46.8053L107.286 49.69C107.533 50.0592 107.947 50.281 108.391 50.281H108.436C108.897 50.265 109.315 50.0114 109.544 49.6129L114.856 40.316C115.106 39.8791 115.087 39.3385 114.808 38.9202C114.53 38.5018 114.043 38.2721 113.539 38.3385L102.914 39.6666C102.457 39.7237 102.062 40.0132 101.871 40.4316C101.679 40.85 101.718 41.3374 101.973 41.7212L103.889 44.5953L42.5811 85.0314L44.0446 87.2493ZM111.233 41.3028L108.305 46.4281L105.376 42.0346L111.233 41.3028Z" fill="#5B7B3B"></path>
  <path d="M51.2812 47.625V52.9375H45.9688V55.5938H51.2812V60.9062H53.9375V55.5938H59.25V52.9375H53.9375V47.625H51.2812Z" fill="#5B7B3B"></path>
</svg>
