<?xml version="1.0" encoding="UTF-8"?>
<svg xmlns="http://www.w3.org/2000/svg" width="100" height="100" viewBox="0 0 100 100" fill="none">
  <circle cx="50" cy="50" r="49" fill="white" stroke="#5B7B3B" stroke-width="2"></circle>
  <g clip-path="url(#clip0_297_1593)">
    <path d="M74.6168 59.7417C74.1546 58.7471 73.3159 57.9774 72.2853 57.6025C71.2547 57.2276 70.117 57.2785 69.1239 57.7435L58.4032 62.7346C59.1143 61.4531 59.0941 59.8916 58.3511 58.6287C57.6077 57.3658 56.2519 56.5905 54.7866 56.5901H42.3755C40.1385 56.5885 38.1015 57.8777 37.1456 59.8997H34.9289V57.4175C34.9289 56.9606 34.5584 56.5901 34.1015 56.5901H25.8274C25.3705 56.5901 25 56.9606 25 57.4175V73.9656C25 74.4225 25.3705 74.793 25.8274 74.793H34.1015C34.5584 74.793 34.9289 74.4225 34.9289 73.9656V72.3108H56.5347C57.1391 72.3104 57.7358 72.1779 58.284 71.9237L72.6214 65.2407C74.6827 64.2658 75.5731 61.8119 74.6168 59.7417ZM33.274 73.1382H26.6548V58.2449H33.274V73.1382ZM71.9197 63.7422L57.5847 70.4237C57.2559 70.5764 56.8975 70.6556 56.5347 70.656H34.9289V61.5545H37.7007C38.0526 61.5545 38.3661 61.3311 38.4817 60.9986C39.0626 59.3466 40.6241 58.2421 42.3755 58.2449H54.7866C56.1574 58.2449 57.2688 59.3563 57.2688 60.7271C57.2688 62.0983 56.1574 63.2093 54.7866 63.2093H47.3399V64.8641H56.8345C57.4377 64.8633 58.0332 64.7312 58.5802 64.4771L69.8245 59.242C71.0616 58.6626 72.5342 59.1963 73.1127 60.4334C73.2654 60.7643 73.3446 61.1242 73.3454 61.4883C73.345 62.4518 72.7899 63.3289 71.9197 63.7422Z" fill="#5B7B3B"></path>
    <path d="M55.6139 32.5956V30.9408C55.6139 27.7422 53.021 25.1489 49.8221 25.1489C46.6232 25.1489 44.0303 27.7422 44.0303 30.9408V32.5956C44.0303 35.7945 46.6232 38.3874 49.8221 38.3874C53.021 38.3874 55.6139 35.7945 55.6139 32.5956ZM49.8221 26.8037C51.7872 26.8062 53.4804 28.1887 53.8763 30.1133H50.3336L49.7393 28.9163C49.6205 28.6787 49.3947 28.5131 49.1325 28.4703C48.8703 28.4278 48.6036 28.5135 48.4154 28.7009L46.9973 30.1133H45.7679C46.1638 28.1887 47.857 26.8062 49.8221 26.8037ZM49.8221 36.7326C47.5383 36.7302 45.6879 34.8794 45.6851 32.5956V31.7682H47.3399C47.5593 31.7682 47.7698 31.6809 47.9249 31.5258L48.7681 30.6826L49.0816 31.3108C49.2218 31.5912 49.5086 31.7686 49.8221 31.7682H53.9591V32.5956C53.9563 34.8794 52.106 36.7302 49.8221 36.7326Z" fill="#5B7B3B"></path>
    <path d="M40.7212 54.9353H58.9241C59.838 54.9353 60.5789 54.1943 60.5789 53.2805V47.4887C60.5789 46.1171 60.2678 44.7628 59.6687 43.529C58.1391 40.3959 54.9636 38.403 51.4775 38.3872H48.1679C43.1436 38.3933 39.0725 42.4644 39.0664 47.4887V53.2805C39.0664 54.1943 39.8074 54.9353 40.7212 54.9353ZM58.1795 44.253C58.672 45.2602 58.9269 46.3671 58.9241 47.4887V53.2805H50.6501V45.349L55.0255 40.9737C56.3918 41.7126 57.4939 42.8587 58.1795 44.253ZM51.4775 40.042C52.1134 40.0461 52.746 40.1325 53.3597 40.2994L49.8227 43.8364L46.2864 40.2994C46.8997 40.1325 47.5324 40.0461 48.1679 40.042H51.4775ZM40.7212 47.4887C40.7176 46.3667 40.9721 45.2589 41.4658 44.2509C42.151 42.8575 43.2535 41.7118 44.6199 40.9737L48.9953 45.349V53.2805H40.7212V47.4887Z" fill="#5B7B3B"></path>
    <path d="M53.1318 45.834H56.4415V47.4888H53.1318V45.834Z" fill="#5B7B3B"></path>
  </g>
  <defs>
    <clipPath id="clip0_297_1593">
      <rect width="50" height="50" fill="white" transform="translate(25 25)"></rect>
    </clipPath>
  </defs>
</svg>
