<?xml version="1.0" encoding="UTF-8"?>
<svg xmlns="http://www.w3.org/2000/svg" width="100" height="100" viewBox="0 0 100 100" fill="none">
  <circle cx="50" cy="50" r="49" fill="white" stroke="#5B7B3B" stroke-width="2"></circle>
  <g clip-path="url(#clip0_297_1408)">
    <path d="M69.1421 30.8579C61.3314 23.0474 48.6227 23.0474 40.8121 30.8579C33.2332 38.437 33.0085 50.6279 40.1382 58.4805L37.4376 61.1811L35.9807 59.7242C35.7974 59.541 35.549 59.4381 35.29 59.4381C35.031 59.4381 34.7825 59.541 34.5994 59.7242L26.1757 68.1479C25.4176 68.906 25 69.914 25 70.9861C25 72.0583 25.4176 73.0662 26.1756 73.8244C26.9338 74.5824 27.9418 75 29.0138 75C30.086 75 31.0939 74.5824 31.8521 73.8244L40.2758 65.4007C40.459 65.2176 40.5619 64.9691 40.5619 64.7101C40.5619 64.451 40.459 64.2025 40.2758 64.0194L38.8189 62.5625L41.5195 59.8619C45.3258 63.3178 50.1515 65.0458 54.9771 65.0458C60.1069 65.0458 65.2367 63.0932 69.1421 59.1878C76.9526 51.3772 76.9526 38.6685 69.1421 30.8579ZM30.4708 72.443C30.0816 72.8321 29.5642 73.0465 29.0138 73.0465C28.4635 73.0465 27.9461 72.8322 27.557 72.443C27.1678 72.0538 26.9535 71.5364 26.9535 70.9861C26.9535 70.4358 27.1678 69.9184 27.557 69.5292L35.29 61.7961L38.2038 64.71L30.4708 72.443ZM67.7607 57.8064C60.7119 64.8554 49.2424 64.8554 42.1936 57.8065C35.1447 50.7575 35.1447 39.2881 42.1935 32.2392C45.7179 28.7147 50.3475 26.9525 54.9771 26.9525C59.6067 26.9525 64.2363 28.7147 67.7607 32.2392C74.8096 39.2881 74.8096 50.7575 67.7607 57.8064Z" fill="#5B7B3B"></path>
    <path d="M70.6852 44.8322C70.6096 44.4297 70.2691 44.1153 69.8667 44.0567C69.4612 43.9976 69.0445 44.2099 68.8596 44.5768C68.6757 44.9418 68.7343 45.3907 69.0152 45.6904C69.2908 45.9843 69.7288 46.0785 70.1011 45.9252C70.5256 45.7505 70.7765 45.2824 70.6852 44.8322Z" fill="#5B7B3B"></path>
    <path d="M69.336 48.5546C68.8214 48.3923 68.2729 48.6778 68.1107 49.1923C67.4418 51.3121 66.3017 53.1879 64.7219 54.7677C62.1191 57.3706 58.6584 58.8041 54.9772 58.8041C51.2962 58.8041 47.8354 57.3706 45.2324 54.7677C39.8593 49.3944 39.8593 40.6516 45.2324 35.2783C47.8354 32.6754 51.2962 31.2419 54.9772 31.2419C58.6584 31.2419 62.1191 32.6754 64.7219 35.2783C66.2839 36.8403 67.4577 38.7745 68.1162 40.8716C68.2778 41.3863 68.8261 41.6724 69.3408 41.5107C69.8554 41.3492 70.1416 40.8008 69.98 40.2862C69.2275 37.89 67.887 35.6806 66.1032 33.8969C63.1314 30.925 59.1801 29.2883 54.9772 29.2883C50.7744 29.2883 46.8231 30.925 43.8511 33.8969C37.7163 40.0318 37.7163 50.0141 43.8511 56.149C46.8231 59.1209 50.7743 60.7576 54.9772 60.7576C59.1802 60.7576 63.1314 59.121 66.1032 56.149C67.8818 54.3706 69.2201 52.1682 69.9736 49.7801C70.1358 49.2655 69.8504 48.7169 69.336 48.5546Z" fill="#5B7B3B"></path>
    <path d="M57.5772 40.013L53.7909 43.7994L52.3768 42.3851C51.114 41.1223 49.0594 41.1223 47.7967 42.3851C46.5339 43.6478 46.5339 45.7025 47.7967 46.9652L52.0946 51.2632C52.5624 51.7309 53.1767 51.9647 53.791 51.9647C54.4054 51.9647 55.0198 51.7309 55.4875 51.2632L62.1574 44.5931C63.4202 43.3304 63.4202 41.2758 62.1574 40.0129C62.1574 40.0129 62.1574 40.0129 62.1574 40.0128C60.8945 38.7502 58.8399 38.7503 57.5772 40.013ZM60.776 43.2118L54.106 49.8819C53.9324 50.0556 53.6497 50.0556 53.4759 49.882L49.1781 45.584C48.677 45.0829 48.677 44.2676 49.1781 43.7666C49.4286 43.516 49.7577 43.3907 50.0868 43.3907C50.4159 43.3907 50.7451 43.516 50.9955 43.7665L53.1004 45.8714C53.2836 46.0546 53.532 46.1574 53.791 46.1574C54.0501 46.1574 54.2986 46.0545 54.4817 45.8714L58.9586 41.3944C59.4597 40.8933 60.2751 40.8934 60.776 41.3943C61.2771 41.8954 61.2771 42.7107 60.776 43.2118Z" fill="#5B7B3B"></path>
  </g>
  <defs>
    <clipPath id="clip0_297_1408">
      <rect width="50" height="50" fill="white" transform="translate(25 25)"></rect>
    </clipPath>
  </defs>
</svg>
