<?xml version="1.0" encoding="UTF-8"?>
<svg xmlns="http://www.w3.org/2000/svg" width="160" height="160" viewBox="0 0 160 160" fill="none">
  <circle cx="80" cy="80" r="78.5" fill="white" stroke="#5B7B3B" stroke-width="3"></circle>
  <path d="M47.625 106.062H44.9688V119.344H47.625V106.062Z" fill="#5B7B3B"></path>
  <path d="M78.3605 106.076L69.3611 104.79L62.6461 100.313C61.7736 99.732 60.7487 99.422 59.7003 99.4221H56.4597C57.7337 98.532 58.6906 97.2587 59.1913 95.7875C59.692 94.3162 59.7104 92.7236 59.2438 91.2411C58.7773 89.7587 57.85 88.4637 56.597 87.5444C55.3439 86.6251 53.8302 86.1294 52.2761 86.1294C50.722 86.1294 49.2083 86.6251 47.9552 87.5444C46.7021 88.4637 45.7749 89.7587 45.3084 91.2411C44.8418 92.7236 44.8602 94.3162 45.3609 95.7875C45.8616 97.2587 46.8185 98.532 48.0925 99.4221H46.2969C44.5363 99.4242 42.8485 100.124 41.6036 101.369C40.3587 102.614 39.6584 104.302 39.6562 106.063V119.344H42.3125V106.063C42.3125 105.006 42.7323 103.993 43.4795 103.245C44.2267 102.498 45.2402 102.078 46.2969 102.078H59.7003C60.2246 102.078 60.7372 102.233 61.1732 102.525L68.1379 107.173C68.3028 107.283 68.4902 107.355 68.6864 107.383L76.8438 108.542V110.047H69.1884L61.4999 106.196C61.2969 106.094 61.0712 106.046 60.8445 106.057C60.6178 106.067 60.3975 106.136 60.2048 106.256C60.012 106.376 59.8532 106.543 59.7435 106.742C59.6338 106.94 59.5769 107.164 59.5781 107.391V119.344H62.2344V109.54L68.2813 112.571C68.4663 112.66 68.6695 112.706 68.875 112.703H78.1719C78.5241 112.703 78.8619 112.563 79.111 112.314C79.3601 112.065 79.5 111.727 79.5 111.375V107.391C79.5 107.071 79.3848 106.762 79.1755 106.521C78.9662 106.279 78.6768 106.121 78.3605 106.076ZM52.2734 98.0939C51.3541 98.0939 50.4553 97.8213 49.6909 97.3105C48.9265 96.7998 48.3307 96.0738 47.9788 95.2244C47.627 94.375 47.535 93.4404 47.7143 92.5386C47.8937 91.6369 48.3364 90.8087 48.9865 90.1586C49.6366 89.5085 50.4649 89.0658 51.3666 88.8864C52.2683 88.707 53.2029 88.7991 54.0523 89.1509C54.9017 89.5027 55.6277 90.0985 56.1385 90.863C56.6493 91.6274 56.9219 92.5261 56.9219 93.4455C56.9219 94.6783 56.4321 95.8607 55.5604 96.7324C54.6886 97.6042 53.5063 98.0939 52.2734 98.0939Z" fill="#5B7B3B"></path>
  <path d="M114.031 99.4221H110.249C111.523 98.532 112.48 97.2587 112.98 95.7875C113.481 94.3162 113.499 92.7236 113.033 91.2411C112.566 89.7587 111.639 88.4637 110.386 87.5444C109.133 86.6251 107.619 86.1294 106.065 86.1294C104.511 86.1294 102.997 86.6251 101.744 87.5444C100.491 88.4637 99.564 89.7587 99.0974 91.2411C98.6308 92.7236 98.6493 94.3162 99.15 95.7875C99.6507 97.2587 100.608 98.532 101.882 99.4221H98.0938C96.6848 99.4221 95.3335 99.9818 94.3372 100.978C93.341 101.974 92.7812 103.326 92.7812 104.735V119.344H95.4375V104.735C95.4375 104.03 95.7174 103.354 96.2155 102.856C96.7136 102.358 97.3893 102.078 98.0938 102.078H114.031C114.736 102.078 115.411 102.358 115.91 102.856C116.408 103.354 116.688 104.03 116.688 104.735V119.344H119.344V104.735C119.344 103.326 118.784 101.974 117.788 100.978C116.791 99.9818 115.44 99.4221 114.031 99.4221ZM106.062 98.0939C105.143 98.0939 104.244 97.8213 103.48 97.3105C102.716 96.7998 102.12 96.0738 101.768 95.2244C101.416 94.375 101.324 93.4404 101.503 92.5386C101.683 91.6369 102.125 90.8087 102.776 90.1586C103.426 89.5085 104.254 89.0658 105.156 88.8864C106.057 88.707 106.992 88.7991 107.841 89.1509C108.691 89.5027 109.417 90.0985 109.928 90.863C110.438 91.6274 110.711 92.5261 110.711 93.4455C110.711 94.6783 110.221 95.8607 109.349 96.7324C108.478 97.6042 107.295 98.0939 106.062 98.0939Z" fill="#5B7B3B"></path>
  <path d="M114.031 106.062H111.375V119.344H114.031V106.062Z" fill="#5B7B3B"></path>
  <path d="M100.75 106.062H98.0938V119.344H100.75V106.062Z" fill="#5B7B3B"></path>
  <path d="M95.4375 88.7969C95.7897 88.7969 96.1276 88.6569 96.3766 88.4079C96.6257 88.1588 96.7656 87.821 96.7656 87.4688V82.1562H106.062C107.119 82.1562 108.133 81.7365 108.88 80.9893C109.627 80.242 110.047 79.2286 110.047 78.1719V54.2656C110.047 53.2089 109.627 52.1955 108.88 51.4482C108.133 50.701 107.119 50.2812 106.062 50.2812H88.7969V43.6406C88.7969 42.5839 88.3771 41.5705 87.6299 40.8232C86.8827 40.076 85.8692 39.6562 84.8125 39.6562H50.2812C49.2245 39.6562 48.2111 40.076 47.4639 40.8232C46.7167 41.5705 46.2969 42.5839 46.2969 43.6406V72.8594C46.2969 73.9161 46.7167 74.9295 47.4639 75.6768C48.2111 76.424 49.2245 76.8438 50.2812 76.8438H56.9219V82.1562C56.9217 82.4315 57.0072 82.7001 57.1663 82.9247C57.3255 83.1493 57.5505 83.3189 57.8102 83.4101C58.07 83.5012 58.3516 83.5094 58.6162 83.4335C58.8809 83.3576 59.1153 83.2013 59.2873 82.9863L64.2 76.8438H70.2031V78.1719C70.2031 79.2286 70.6229 80.242 71.3701 80.9893C72.1173 81.7365 73.1308 82.1562 74.1875 82.1562H89.4875L94.4016 88.2988C94.5259 88.4541 94.6836 88.5795 94.8629 88.6657C95.0422 88.7519 95.2385 88.7967 95.4375 88.7969ZM63.5625 74.1875C63.3633 74.1874 63.1667 74.2322 62.9871 74.3184C62.8076 74.4046 62.6497 74.5301 62.5252 74.6855L59.5781 78.3698V75.5156C59.5781 75.1634 59.4382 74.8256 59.1891 74.5765C58.9401 74.3274 58.6022 74.1875 58.25 74.1875H50.2812C49.929 74.1875 49.5912 74.0476 49.3421 73.7985C49.0931 73.5494 48.9531 73.2116 48.9531 72.8594V43.6406C48.9531 43.2884 49.0931 42.9506 49.3421 42.7015C49.5912 42.4524 49.929 42.3125 50.2812 42.3125H84.8125C85.1647 42.3125 85.5026 42.4524 85.7516 42.7015C86.0007 42.9506 86.1406 43.2884 86.1406 43.6406V72.8594C86.1406 73.2116 86.0007 73.5494 85.7516 73.7985C85.5026 74.0476 85.1647 74.1875 84.8125 74.1875H63.5625ZM94.1094 83.6823L91.1623 79.998C91.0378 79.8426 90.8799 79.7171 90.7004 79.6309C90.5208 79.5446 90.3242 79.4999 90.125 79.5H74.1875C73.8353 79.5 73.4974 79.3601 73.2484 79.111C72.9993 78.8619 72.8594 78.5241 72.8594 78.1719V76.8438H84.8125C85.8692 76.8438 86.8827 76.424 87.6299 75.6768C88.3771 74.9295 88.7969 73.9161 88.7969 72.8594V52.9375H106.062C106.415 52.9375 106.753 53.0774 107.002 53.3265C107.251 53.5756 107.391 53.9134 107.391 54.2656V78.1719C107.391 78.5241 107.251 78.8619 107.002 79.111C106.753 79.3601 106.415 79.5 106.062 79.5H95.4375C95.0853 79.5 94.7474 79.6399 94.4984 79.889C94.2493 80.1381 94.1094 80.4759 94.1094 80.8281V83.6823Z" fill="#5B7B3B"></path>
  <path d="M80.7448 55.0693C80.8311 54.7529 80.8521 54.4223 80.8064 54.0976C80.7608 53.7729 80.6494 53.4609 80.4791 53.1807L78.5547 49.9932C78.2079 49.435 77.6604 49.0308 77.0248 48.8639C76.3892 48.6969 75.7138 48.7797 75.1374 49.0954L74.4919 49.4646C73.7219 48.9016 72.8856 48.4354 72.0017 48.0767V47.4445C71.9937 46.781 71.7228 46.1477 71.2485 45.6836C70.7742 45.2195 70.1352 44.9625 69.4716 44.9689H65.6201C64.9577 44.9643 64.3204 45.2221 63.8475 45.686C63.3747 46.1499 63.1047 46.7821 63.0966 47.4445V48.0767C62.2205 48.4224 61.4009 48.8969 60.6648 49.4845L59.9623 49.098C59.3864 48.7811 58.7109 48.6973 58.0751 48.8639C57.4392 49.0305 56.8916 49.4347 56.545 49.9932L54.6179 53.1807C54.4482 53.4609 54.3371 53.7726 54.2914 54.097C54.2458 54.4215 54.2665 54.7518 54.3523 55.0679C54.4388 55.3912 54.5902 55.6934 54.7973 55.9562C55.0044 56.219 55.2628 56.4369 55.5569 56.5966L56.1479 56.9233C56.0341 57.8051 56.0341 58.6978 56.1479 59.5796L55.5555 59.9063C55.2619 60.0663 55.0037 60.2843 54.7969 60.547C54.59 60.8098 54.4388 61.1119 54.3523 61.435C54.2663 61.7513 54.2455 62.0819 54.2912 62.4065C54.3368 62.7312 54.448 63.0432 54.6179 63.3236L56.5423 66.5111C56.8891 67.0692 57.4366 67.4734 58.0722 67.6404C58.7078 67.8074 59.3832 67.7245 59.9596 67.4089L60.6051 67.0396C61.3738 67.6024 62.2089 68.0685 63.0913 68.4275V69.0597C63.1004 69.7228 63.3719 70.3552 63.8464 70.8185C64.3209 71.2818 64.9596 71.5381 65.6227 71.5314H69.4743C70.1367 71.536 70.774 71.2782 71.2468 70.8143C71.7197 70.3504 71.9897 69.7181 71.9977 69.0557V68.4236C72.8738 68.0778 73.6934 67.6033 74.4295 67.0157L75.1321 67.4022C75.708 67.7188 76.3834 67.8024 77.0192 67.6358C77.6549 67.4693 78.2026 67.0653 78.5494 66.5071L80.4765 63.3196C80.6465 63.0395 80.7577 62.7277 80.8034 62.4033C80.849 62.0788 80.8282 61.7484 80.7421 61.4323C80.656 61.1091 80.5049 60.8068 80.298 60.5439C80.0911 60.2811 79.8328 60.0632 79.5388 59.9036L78.9505 59.5782C79.0643 58.6965 79.0643 57.8038 78.9505 56.922L79.5428 56.5953C79.8362 56.4358 80.0941 56.2182 80.3007 55.9559C80.5074 55.6935 80.6584 55.3919 80.7448 55.0693ZM76.3792 58.2501C76.3792 58.6266 76.3517 59.0026 76.2969 59.375C76.2335 59.8661 76.3205 60.3648 76.5465 60.8054C76.7725 61.246 77.1268 61.6077 77.5626 61.8427L78.0938 62.1349L76.342 65.0342L75.7191 64.6929C75.2823 64.4542 74.7861 64.3459 74.2896 64.381C73.7931 64.4161 73.317 64.593 72.9181 64.8907C72.3141 65.3326 71.6568 65.6968 70.9618 65.9745C70.4918 66.1529 70.0864 66.4686 69.7981 66.8805C69.5099 67.2924 69.3522 67.7814 69.3455 68.2841V68.8751H65.7489V68.2868C65.7422 67.7841 65.5845 67.295 65.2963 66.8832C65.008 66.4713 64.6026 66.1556 64.1326 65.9771C63.4377 65.6989 62.7808 65.3338 62.1776 64.8907C61.7803 64.5949 61.3067 64.4186 60.8127 64.3826C60.3186 64.3466 59.8245 64.4524 59.3885 64.6875L58.7616 65.0315L57.0085 62.1322L57.5398 61.8414C57.976 61.6062 58.3306 61.2441 58.5566 60.803C58.7826 60.3619 58.8694 59.8625 58.8055 59.3711C58.7487 59 58.7185 58.6254 58.7151 58.2501C58.7152 57.8736 58.7427 57.4977 58.7975 57.1252C58.8609 56.6341 58.7738 56.1354 58.5478 55.6948C58.3219 55.2543 57.9676 54.8926 57.5318 54.6575L57.0005 54.3653L58.7537 51.4661L59.3766 51.8074C59.8133 52.0455 60.3092 52.1534 60.8054 52.1183C61.3016 52.0832 61.7773 51.9067 62.1762 51.6095C62.7803 51.1676 63.4376 50.8035 64.1326 50.5257C64.6026 50.3473 65.008 50.0316 65.2963 49.6197C65.5845 49.2079 65.7422 48.7188 65.7489 48.2161V47.6251H69.3455V48.2135C69.3522 48.7162 69.5099 49.2052 69.7981 49.6171C70.0864 50.029 70.4918 50.3446 70.9618 50.5231C71.6566 50.8014 72.3135 51.1664 72.9168 51.6095C73.3141 51.9054 73.7876 52.0817 74.2817 52.1177C74.7758 52.1537 75.2698 52.0479 75.7059 51.8127L76.3327 51.4687L78.0845 54.368L77.5599 54.6589C77.1236 54.8941 76.7691 55.2562 76.5431 55.6973C76.317 56.1384 76.2303 56.6377 76.2942 57.1292C76.3492 57.5003 76.3776 57.8749 76.3792 58.2501Z" fill="#5B7B3B"></path>
  <path d="M67.5469 51.6094C66.2335 51.6094 64.9496 51.9988 63.8575 52.7285C62.7655 53.4582 61.9144 54.4953 61.4117 55.7087C60.9091 56.9222 60.7776 58.2574 61.0339 59.5455C61.2901 60.8337 61.9225 62.0169 62.8512 62.9456C63.78 63.8743 64.9632 64.5068 66.2514 64.763C67.5395 65.0193 68.8747 64.8878 70.0881 64.3851C71.3016 63.8825 72.3387 63.0314 73.0684 61.9393C73.798 60.8473 74.1875 59.5634 74.1875 58.25C74.1854 56.4894 73.4851 54.8016 72.2402 53.5567C70.9953 52.3118 69.3074 51.6115 67.5469 51.6094ZM67.5469 62.2344C66.7588 62.2344 65.9885 62.0007 65.3333 61.5629C64.6781 61.1251 64.1674 60.5028 63.8658 59.7748C63.5642 59.0467 63.4853 58.2456 63.6391 57.4727C63.7928 56.6998 64.1723 55.9898 64.7295 55.4326C65.2867 54.8754 65.9967 54.4959 66.7696 54.3422C67.5425 54.1884 68.3436 54.2673 69.0716 54.5689C69.7997 54.8705 70.422 55.3812 70.8598 56.0364C71.2976 56.6916 71.5313 57.462 71.5313 58.25C71.5313 59.3067 71.1115 60.3202 70.3643 61.0674C69.617 61.8146 68.6036 62.2344 67.5469 62.2344Z" fill="#5B7B3B"></path>
</svg>
