<?xml version="1.0" encoding="UTF-8"?>
<svg xmlns="http://www.w3.org/2000/svg" width="80" height="80" viewBox="0 0 80 80" fill="none">
  <circle cx="40" cy="40" r="39" fill="white" stroke="#5B7B3B" stroke-width="2"></circle>
  <path d="M45.7892 32.721C41.8991 26.9979 36.7035 23.9561 33.9826 25.8199C33.683 26.0308 33.4227 26.2927 33.2134 26.5935C33.2134 26.6155 26.9145 39.3627 26.9145 39.3627L23.398 41.7451C22.8582 42.1116 22.3958 42.5808 22.0374 43.126C21.679 43.6712 21.4314 44.2816 21.309 44.9225C21.1865 45.5634 21.1915 46.2221 21.3237 46.861C21.4559 47.4999 21.7126 48.1066 22.0793 48.6462L22.2376 48.8792C22.9788 49.9589 24.1157 50.7028 25.4019 50.9497C26.688 51.1966 28.0196 50.9264 29.1079 50.1979L34.7563 58.5188C35.587 59.5429 37.1826 60.5627 39.1519 59.3627C39.5007 59.1365 39.7983 58.8397 40.0254 58.4914C40.2526 58.1432 40.4042 57.7512 40.4705 57.3407C40.5501 56.9325 40.5479 56.5125 40.4642 56.1051C40.3804 55.6977 40.2168 55.3109 39.9826 54.9671L35.0068 47.6264C35.0068 47.6264 46.7694 46.6902 46.8134 46.6726C47.1807 46.5957 47.5289 46.4463 47.8376 46.233C49.2354 45.2836 49.7365 43.2924 49.253 40.6242C48.8178 38.1671 47.5826 35.3847 45.7892 32.721ZM23.5167 48.0133L23.3585 47.7803C23.1055 47.4078 22.9284 46.9891 22.8374 46.5482C22.7464 46.1072 22.7433 45.6526 22.8283 45.2104C22.9132 44.7683 23.0845 44.3472 23.3323 43.9713C23.5802 43.5954 23.8998 43.2721 24.2727 43.0199L27.3101 40.9539L31.3189 46.8572L28.2815 48.9232C27.909 49.1765 27.4902 49.3539 27.049 49.4453C26.6079 49.5366 26.1531 49.5402 25.7105 49.4557C25.268 49.3712 24.8465 49.2003 24.4701 48.9528C24.0936 48.7053 23.7697 48.386 23.5167 48.0133ZM38.7167 55.833C38.9569 56.1905 39.0456 56.6287 38.9632 57.0514C38.8808 57.4741 38.634 57.8469 38.2771 58.088C37.919 58.3285 37.4801 58.4172 37.0567 58.3348C36.6332 58.2524 36.2597 58.0056 36.0178 57.6484L30.387 49.3539L32.6508 47.8155L33.2486 47.7671L38.7167 55.833ZM32.7738 46.2594L28.4046 39.8242L32.5716 31.3275C32.976 33.7144 34.1585 36.5495 36.0486 39.3319C37.9387 42.1144 40.1365 44.2594 42.2024 45.5166L32.7738 46.2594ZM45.7409 45.2352C43.6398 45.099 40.22 42.7297 37.3233 38.4616C34.4266 34.1935 33.4859 30.1539 34.1321 28.1451C34.2488 27.7681 34.4816 27.4375 34.7974 27.2007C35.1132 26.9639 35.4957 26.8329 35.8903 26.8264C37.9738 26.8264 41.5211 29.2089 44.5013 33.6001C46.1804 36.0704 47.4024 38.655 47.7365 40.9144C48.3914 45.2352 45.7409 45.2352 45.7409 45.2352Z" fill="#5B7B3B"></path>
  <path d="M40.2946 32.8835C39.7561 32.7778 39.202 32.7805 38.6647 32.8914C38.1273 33.0024 37.6174 33.2193 37.1649 33.5297C37.0815 33.5874 37.0103 33.661 36.9553 33.7462C36.9003 33.8315 36.8627 33.9267 36.8445 34.0265C36.8264 34.1263 36.828 34.2287 36.8494 34.3279C36.8708 34.427 36.9116 34.521 36.9693 34.6044C37.027 34.6878 37.1006 34.759 37.1859 34.814C37.2711 34.869 37.3663 34.9066 37.4661 34.9248C37.5659 34.9429 37.6683 34.9413 37.7675 34.9199C37.8666 34.8984 37.9606 34.8577 38.044 34.8C38.3306 34.6055 38.6527 34.4693 38.992 34.3992C39.3312 34.3292 39.6809 34.3267 40.0211 34.3918C40.3613 34.4569 40.6854 34.5883 40.9747 34.7787C41.2641 34.969 41.5132 35.2145 41.7078 35.5011C41.9023 35.7877 42.0385 36.1098 42.1085 36.449C42.1785 36.7882 42.1811 37.1379 42.116 37.4782C42.0509 37.8184 41.9194 38.1424 41.7291 38.4318C41.5387 38.7212 41.2933 38.9703 41.0067 39.1648C40.8715 39.2581 40.7698 39.3923 40.7164 39.5476C40.6629 39.7029 40.6606 39.8712 40.7098 40.0279C40.7589 40.1846 40.8569 40.3215 40.9894 40.4185C41.1219 40.5155 41.282 40.5675 41.4462 40.567C41.6029 40.57 41.7566 40.5238 41.8858 40.4351C42.5695 39.972 43.1003 39.3164 43.4111 38.5513C43.7218 37.7862 43.7985 36.9461 43.6314 36.1374C43.4643 35.3287 43.0609 34.5878 42.4724 34.0085C41.8838 33.4293 41.1366 33.0377 40.3253 32.8835H40.2946Z" fill="#5B7B3B"></path>
  <path d="M46.7386 27.3713H46.8133C47.0036 27.3712 47.1871 27.3006 47.3283 27.1732C47.4696 27.0457 47.5586 26.8704 47.5782 26.6812L48.1716 20.9142C48.1851 20.8122 48.178 20.7085 48.1507 20.6093C48.1235 20.5102 48.0766 20.4174 48.0129 20.3367C47.9492 20.2559 47.8699 20.1888 47.7798 20.1392C47.6896 20.0896 47.5905 20.0586 47.4881 20.048C47.3858 20.0374 47.2824 20.0475 47.1841 20.0776C47.0857 20.1077 46.9943 20.1572 46.9154 20.2232C46.8365 20.2892 46.7717 20.3703 46.7247 20.4618C46.6777 20.5533 46.6496 20.6533 46.6419 20.7559L46.0529 26.5273C46.032 26.7302 46.0925 26.933 46.2211 27.0913C46.3496 27.2495 46.5358 27.3502 46.7386 27.3713Z" fill="#5B7B3B"></path>
  <path d="M56.6819 26.1848C56.5689 26.0146 56.3932 25.8959 56.1931 25.8547C55.993 25.8136 55.7847 25.8532 55.6138 25.9651L50.2555 29.4815C50.1164 29.5734 50.0109 29.708 49.9549 29.865C49.8989 30.0221 49.8954 30.1931 49.945 30.3523C49.9946 30.5114 50.0945 30.6502 50.2298 30.7476C50.3651 30.8451 50.5284 30.8959 50.6951 30.8925C50.8506 30.8961 51.0036 30.8533 51.1346 30.7695L56.4929 27.253C56.6591 27.136 56.7723 26.958 56.8077 26.7579C56.8431 26.5578 56.7979 26.3517 56.6819 26.1848Z" fill="#5B7B3B"></path>
  <path d="M58.3213 35.5735L52.0883 34.4526C51.8872 34.4164 51.68 34.4617 51.5122 34.5783C51.3445 34.695 51.2299 34.8735 51.1938 35.0746C51.1577 35.2757 51.2029 35.4829 51.3195 35.6506C51.4362 35.8184 51.6147 35.9329 51.8158 35.9691L58.0443 37.0899H58.1806C58.3766 37.0957 58.5674 37.0263 58.714 36.8961C58.8606 36.7659 58.9519 36.5846 58.9693 36.3893C58.9867 36.194 58.9288 35.9994 58.8076 35.8453C58.6863 35.6912 58.5108 35.5893 58.3169 35.5603L58.3213 35.5735Z" fill="#5B7B3B"></path>
</svg>
