<?xml version="1.0" encoding="UTF-8"?>
<svg xmlns="http://www.w3.org/2000/svg" width="160" height="160" viewBox="0 0 160 160" fill="none">
  <circle cx="80" cy="80" r="78.5" fill="white" stroke="#5B7B3B" stroke-width="3"></circle>
  <path d="M118.2 48.4265L114.567 45.2281L118.2 42.0304C118.765 41.5323 118.958 40.7561 118.693 40.0518C118.426 39.3469 117.768 38.8917 117.015 38.8917H101.984V38.2458C101.984 37.5577 101.426 37 100.738 37C100.05 37 99.4925 37.5577 99.4925 38.2458V55.047L89.2611 60.6027C89.2047 60.1526 89.0698 59.7104 88.8565 59.294L87.4149 56.4796C86.4252 54.547 84.0479 53.7812 82.1166 54.7701L81.0019 55.3408C80.0654 55.8207 79.3722 56.6352 79.0492 57.6365C78.7263 58.6371 78.8125 59.7039 79.2924 60.6397L80.734 63.4548C81.0706 64.1117 81.568 64.6318 82.1529 64.9963C81.3877 66.0267 81.0246 67.2939 80.651 68.6103L80.3825 69.561C80.1951 70.2232 80.5803 70.9119 81.2425 71.0986C81.3553 71.1311 81.4694 71.146 81.5816 71.146C82.1251 71.146 82.6244 70.788 82.78 70.2387L83.0485 69.29C83.5946 67.3646 83.9298 66.3335 84.9973 65.7537L86.911 64.7142L87.147 64.5936C87.2255 64.5534 87.2988 64.508 87.3733 64.4632L101.013 57.0567C100.926 58.7616 100.009 60.3725 98.4977 61.2901L89.6282 66.6791C89.6178 66.685 89.6074 66.6908 89.5977 66.6973L86.837 68.3743C86.2495 68.7316 86.0621 69.4981 86.4194 70.0863C86.756 70.6408 87.4564 70.8379 88.0277 70.5597L85.933 76.8917L84.4019 77.5194L80.2386 79.2256L81.4383 74.9844C81.6251 74.3223 81.2405 73.6336 80.5784 73.4462C79.9156 73.2581 79.2276 73.644 79.0402 74.3061L77.1446 81.0096C77.12 81.0959 77.1037 81.1905 77.0999 81.2807L76.6038 90.3934C76.5888 90.741 76.6628 91.3979 76.5019 91.7371L70.9923 103.328H66.9885C64.6429 103.328 62.735 105.236 62.735 107.581V111.177C62.198 110.931 61.6021 110.794 60.9737 110.794H50.8059C48.4609 110.794 46.553 112.701 46.553 115.047V119.508H43.5622C42.8741 119.508 42.3164 120.066 42.3164 120.754C42.3164 121.442 42.8741 122 43.5622 122H117.014C117.702 122 118.259 121.442 118.259 120.754C118.259 120.066 117.702 119.508 117.014 119.508H113.774V87.398C113.774 85.053 111.866 83.1451 109.521 83.1451H101.984V61.412C103.365 59.5398 103.877 57.0859 103.236 54.7539C103.135 54.3875 102.872 54.0866 102.522 53.9381C102.35 53.8648 102.166 53.8324 101.984 53.8395V51.5652H117.014C117.768 51.5652 118.426 51.11 118.692 50.4057C118.958 49.7015 118.765 48.9246 118.2 48.4265ZM81.4208 58.4017C81.5395 58.034 81.7937 57.7344 82.1374 57.5587L83.2521 56.988C83.4623 56.8803 83.6866 56.8291 83.9084 56.8291C84.4337 56.8291 84.9415 57.1164 85.197 57.6151L86.6392 60.4302C86.9758 61.0878 86.7579 61.8848 86.1594 62.2875L85.7534 62.5073L84.8967 62.9464C84.1879 63.3095 83.3151 63.0281 82.9519 62.3186L81.5096 59.5042C81.3339 59.1604 81.3021 58.7688 81.4208 58.4017ZM78.9176 103.712C78.4941 103.518 78.0337 103.392 77.5499 103.347L78.9176 101.531V103.712ZM84.8325 93.6735C85.4317 92.9556 85.5971 92.1171 85.7307 91.4413C85.7644 91.2805 86.3792 87.9226 86.3792 87.9226C86.3792 87.9226 86.9609 88.2851 87.0219 88.311C87.064 88.3299 87.0938 88.3714 87.0984 88.42L87.7761 95.309H83.601L84.8325 93.6735ZM92.1995 86.7975L91.1476 95.3031H90.2793L89.5782 88.1762C89.4887 87.2631 88.9297 86.4661 88.1107 86.0698L86.8578 85.2754L87.6924 80.6497C87.6924 80.6497 91.2086 84.8267 91.2903 84.933C92.0179 85.8792 92.2669 86.2579 92.1995 86.7975ZM78.7431 92.8265C78.9948 92.0691 79.1115 91.298 79.092 90.514L79.5447 82.2029L85.3066 79.8417L84.2593 85.6431C84.256 85.6587 84.2528 85.6749 84.2508 85.6905L83.3844 90.4874C83.2716 90.9842 83.173 91.7377 82.863 92.1469L74.4449 103.328H73.751L78.7431 92.8265ZM49.0446 115.046C49.0446 114.075 49.8344 113.285 50.8059 113.285H60.9737C61.9451 113.285 62.7356 114.075 62.7356 115.046V119.508H49.0446V115.046ZM65.2265 115.046V107.581C65.2265 106.61 66.017 105.82 66.9885 105.82H77.1563C78.1277 105.82 78.9176 106.61 78.9176 107.581V119.508H65.2272V115.046H65.2265ZM111.282 87.398V119.508H97.5917V112.039C97.5917 111.351 97.034 110.793 96.346 110.793C95.6572 110.793 95.0995 111.351 95.0995 112.039V119.508H81.4091V99.5612C81.4091 98.5904 82.199 97.8005 83.1704 97.8005H93.3382C94.3097 97.8005 95.0995 98.5904 95.0995 99.5612V105.806C95.0995 106.494 95.6572 107.052 96.3453 107.052C97.034 107.052 97.5911 106.494 97.5911 105.806V87.398C97.5911 86.4265 98.3816 85.6366 99.353 85.6366H100.725C100.729 85.6366 100.734 85.6373 100.738 85.6373C100.742 85.6373 100.747 85.6366 100.751 85.6366H109.52C110.492 85.6366 111.282 86.4272 111.282 87.398ZM99.353 83.1451C97.0081 83.1451 95.1002 85.053 95.1002 87.398V95.6922C94.654 95.4886 94.1677 95.3596 93.656 95.322L94.6722 87.1042C94.8719 85.5024 94.0548 84.4408 93.2649 83.4136C93.1813 83.3046 88.339 77.5551 88.339 77.5551L91.3097 68.5734L99.4925 63.602V83.1451H99.353ZM101.984 49.0731V41.3838H115.163L112.325 43.8831C111.938 44.2236 111.717 44.7139 111.717 45.2288C111.717 45.7437 111.938 46.234 112.325 46.5744L115.163 49.0737H101.984V49.0731Z" fill="#5B7B3B"></path>
</svg>
