<?xml version="1.0" encoding="UTF-8"?>
<svg xmlns="http://www.w3.org/2000/svg" width="100" height="100" viewBox="0 0 100 100" fill="none">
  <circle cx="50" cy="50" r="49" fill="white" stroke="#5B7B3B" stroke-width="2"></circle>
  <g clip-path="url(#clip0_297_1444)">
    <path d="M71.289 25H42.2619C40.5613 25 39.1777 26.384 39.1777 28.0849V37.3321H38.2129C37.9116 37.3321 37.6148 37.2833 37.3306 37.1879L36.6249 36.9499C36.4242 36.8828 36.2419 36.7676 36.0973 36.6161C36.095 36.6138 36.0931 36.6112 36.0908 36.6089C35.8585 36.3628 35.7303 36.0416 35.7303 35.7021V34.3624L36.1511 34.106C36.898 33.651 37.3619 32.8243 37.3619 31.9488V29.7367C37.3619 29.734 37.3619 29.7314 37.3619 29.7291V27.7988C37.3619 26.2554 36.108 25 34.5661 25H32.0122C30.4706 25 29.2164 26.2554 29.2164 27.7988V29.4632V29.4651V31.9488C29.2164 32.8243 29.6802 33.651 30.4272 34.106L30.8475 34.3624V35.7021C30.8475 36.0676 30.6942 36.42 30.4272 36.6688C30.2906 36.7954 30.1311 36.8904 29.953 36.9503L28.7048 37.3703C26.8394 37.9986 25.5859 39.7449 25.5859 41.716V51.781C25.5859 53.5556 26.8509 55.0399 28.5263 55.3806V58.496C28.5263 58.9004 28.8544 59.2284 29.2587 59.2284C29.6635 59.2284 29.9911 58.9004 29.9911 58.496V52.4902H36.3746V70.9838H33.9153V55.4687C33.9153 55.0643 33.5876 54.7363 33.1829 54.7363C32.7785 54.7363 32.4505 55.0643 32.4505 55.4687V70.9838H29.9911V61.3933C29.9911 60.9885 29.6635 60.6609 29.2587 60.6609C28.8544 60.6609 28.5263 60.9885 28.5263 61.3933V71.7162C28.5263 71.9825 28.669 72.2152 28.8818 72.3433C28.6564 72.737 28.5263 73.1929 28.5263 73.6785V74.0912C28.5263 74.5925 28.9341 74.9999 29.435 74.9999H33.0067C33.0669 74.9999 33.1257 74.9938 33.1829 74.9824C33.2401 74.9938 33.2989 74.9999 33.3591 74.9999H36.9308C37.4317 74.9999 37.8395 74.5925 37.8395 74.0912V73.6785C37.8395 73.1929 37.7098 72.737 37.484 72.3433C37.6968 72.2152 37.8395 71.9829 37.8395 71.7162V51.7654C37.8395 51.7627 37.8399 51.7604 37.8399 51.7578V42.4247C37.8399 42.2847 37.9532 42.1707 38.0928 42.1707H46.3886C48.4386 42.1707 50.1064 40.5037 50.1064 38.454V38.1611C50.1064 37.7041 49.7348 37.3321 49.2786 37.3321H47.948L48.9959 36.3521C49.2725 36.4887 49.5822 36.5677 49.9115 36.5677C50.4322 36.5677 50.9071 36.3735 51.2718 36.0554L53.1986 37.0903C53.1867 37.1795 53.1784 37.2699 53.1784 37.3623C53.1784 38.5059 54.1091 39.4363 55.2528 39.4363C56.3964 39.4363 57.3268 38.5059 57.3268 37.3623C57.3268 36.9842 57.2234 36.6302 57.0461 36.3247L58.7608 34.2239C58.9679 34.2937 59.1888 34.333 59.4196 34.333C59.7041 34.333 59.9754 34.2754 60.2222 34.1713L61.621 35.6479C61.4879 35.9215 61.4112 36.2274 61.4112 36.5513C61.4112 37.6949 62.3416 38.6253 63.4856 38.6253C64.6293 38.6253 65.5597 37.6949 65.5597 36.5513C65.5597 36.1683 65.4536 35.8104 65.2721 35.5022L67.8969 32.2479C68.1045 32.3177 68.3257 32.3574 68.5565 32.3574C69.7002 32.3574 70.6306 31.427 70.6306 30.283C70.6306 29.1393 69.7002 28.2089 68.5565 28.2089C67.4125 28.2089 66.4821 29.1393 66.4821 30.283C66.4821 30.6614 66.5855 31.015 66.7628 31.3206L64.1322 34.5817C63.9285 34.5146 63.7115 34.4772 63.4853 34.4772C63.2007 34.4772 62.9295 34.5348 62.6827 34.639L61.2838 33.1619C61.4166 32.8884 61.4936 32.5828 61.4936 32.259C61.4936 31.1153 60.5628 30.1849 59.4192 30.1849C58.2755 30.1849 57.3451 31.1153 57.3451 32.259C57.3451 32.6374 57.4485 32.9914 57.6263 33.2973L55.912 35.3973C55.7044 35.3275 55.4832 35.2882 55.2528 35.2882C54.7321 35.2882 54.2571 35.4824 53.8925 35.8001L51.9657 34.7652C51.9771 34.6763 51.9855 34.5859 51.9855 34.4936C51.9855 33.35 51.0551 32.4196 49.9111 32.4196C48.7674 32.4196 47.837 33.35 47.837 34.4936C47.837 34.7732 47.8935 35.0399 47.9942 35.2833L45.8038 37.3321H40.6425V28.0849C40.6425 27.1915 41.3688 26.4648 42.2615 26.4648H71.289C72.1824 26.4648 72.9091 27.1915 72.9091 28.0849V52.3693C72.9091 53.2623 72.1824 53.9894 71.289 53.9894H42.2615C41.3688 53.9894 40.6425 53.2623 40.6425 52.3693V44.4351C40.6425 44.0303 40.3148 43.7027 39.9101 43.7027C39.5054 43.7027 39.1777 44.0303 39.1777 44.4351V52.3693C39.1777 54.0702 40.5613 55.4542 42.2615 55.4542H45.6897C45.4429 55.8711 45.3006 56.3571 45.3006 56.8759V58.5403V58.5422V61.0259C45.3006 61.9014 45.7649 62.728 46.5118 63.1831L46.9326 63.4399V64.7792C46.9326 65.145 46.7792 65.4971 46.5118 65.7458C46.3752 65.8729 46.2158 65.9675 46.038 66.0274L44.7898 66.4474C42.9241 67.0756 41.671 68.822 41.671 70.7931V74.2675C41.671 74.6722 41.9986 74.9999 42.4034 74.9999C42.8077 74.9999 43.1358 74.6722 43.1358 74.2675V70.7931C43.1358 69.4514 43.988 68.2628 45.2568 67.8359L46.5053 67.4159C46.7365 67.3377 46.9532 67.2317 47.1534 67.0989C47.5437 67.216 47.9408 67.2999 48.3428 67.3492L47.0607 71.8818C46.9925 72.1232 47.0523 72.383 47.2202 72.5699L48.748 74.2736C48.8826 74.4235 49.073 74.5116 49.2748 74.5166C49.2809 74.5166 49.287 74.517 49.2931 74.517C49.488 74.517 49.6753 74.4391 49.813 74.3003L51.5026 72.5966C51.6937 72.404 51.7627 72.1213 51.6818 71.8623L50.2628 67.3263C50.6813 67.2652 51.094 67.1668 51.498 67.0322C51.7253 67.1966 51.9771 67.3267 52.243 67.4159L53.4908 67.8355C54.7595 68.2632 55.6121 69.4514 55.6121 70.7931V74.2675C55.6121 74.6718 55.9402 74.9999 56.3445 74.9999C56.7493 74.9999 57.077 74.6718 57.077 74.2675V70.7931C57.077 70.1354 57.2795 69.5056 57.6629 68.9715C57.8986 68.6431 57.8235 68.1853 57.4951 67.9496C57.1662 67.7138 56.7088 67.789 56.4727 68.1174C56.4285 68.1792 56.3861 68.2426 56.3449 68.3059C55.7956 67.4541 54.9667 66.7869 53.9581 66.4474L52.7088 66.027C52.5058 65.9591 52.3281 65.8466 52.1808 65.6921C51.9451 65.4456 51.8154 65.1214 51.8154 64.7792V63.4395L52.2361 63.1831H52.2357C52.9827 62.728 53.4465 61.9014 53.4465 61.0259V58.8134C53.4465 58.8111 53.4465 58.8084 53.4465 58.8062V56.8759C53.4465 56.3571 53.3042 55.8711 53.0574 55.4538H59.6317C59.3848 55.8711 59.2426 56.3571 59.2426 56.8759V58.5403V58.5422V61.0259C59.2426 61.9014 59.7068 62.728 60.4533 63.1831L60.8737 63.4395V64.7792C60.8737 65.1446 60.7208 65.4975 60.4545 65.7458C60.3183 65.8721 60.1585 65.9671 59.9792 66.0274L59.3135 66.2517C58.9301 66.3806 58.7241 66.796 58.8531 67.1794C58.9561 67.4853 59.2414 67.6784 59.547 67.6784C59.6248 67.6784 59.7034 67.6658 59.7812 67.6398L60.4465 67.4155C60.6784 67.3377 60.8951 67.2313 61.0954 67.0989C61.4856 67.216 61.8827 67.2999 62.2848 67.3492L61.0023 71.8814C60.934 72.1232 60.9943 72.383 61.1617 72.5699L62.6899 74.2736C62.8246 74.4235 63.0149 74.5116 63.2167 74.5166C63.2228 74.5166 63.2289 74.517 63.235 74.517C63.4299 74.517 63.6172 74.4391 63.755 74.3003L65.4445 72.5966C65.6356 72.404 65.7046 72.1213 65.6234 71.8623L64.2043 67.3263C64.6228 67.2652 65.0355 67.1664 65.4399 67.0322C65.6665 67.1962 65.9183 67.3263 66.1853 67.4155L67.4319 67.8355C67.8802 67.9862 68.278 68.23 68.6153 68.5603C68.9426 68.8804 69.1997 69.276 69.3591 69.7043C69.4888 70.0534 69.5548 70.4196 69.5548 70.7927V74.2671C69.5548 74.6718 69.8825 74.9995 70.2872 74.9995C70.6916 74.9995 71.0197 74.6718 71.0197 74.2671V70.7927C71.0197 70.2445 70.9228 69.7066 70.732 69.1939C70.4982 68.5645 70.1202 67.9832 69.6399 67.5132C69.1436 67.0276 68.5584 66.669 67.8996 66.4474L66.6511 66.0266C66.45 65.9595 66.2681 65.8443 66.1227 65.6913C65.8874 65.4456 65.7581 65.1218 65.7581 64.7788V63.4387L66.1777 63.1828C66.9246 62.7277 67.3885 61.901 67.3885 61.0255V58.813C67.3885 58.8107 67.3885 58.8081 67.3885 58.8058V56.8755C67.3885 56.3567 67.2462 55.8708 66.9994 55.4538H71.289C72.9899 55.4538 74.3739 54.0698 74.3739 52.3689V28.0849C74.3739 26.384 72.9899 25 71.289 25V25ZM68.5565 29.6738C68.8922 29.6738 69.1657 29.9473 69.1657 30.2833C69.1657 30.619 68.8922 30.8926 68.5565 30.8926C68.4104 30.8926 68.2765 30.8411 68.1716 30.7552C68.1693 30.7533 68.1674 30.751 68.1651 30.7491C68.1644 30.7487 68.164 30.7484 68.1636 30.748C68.0312 30.6362 67.9473 30.4695 67.9473 30.283C67.9469 29.9473 68.2204 29.6738 68.5565 29.6738ZM64.0948 36.5513C64.0948 36.8873 63.8213 37.1605 63.4853 37.1605C63.1496 37.1605 62.8761 36.8873 62.8761 36.5513C62.8761 36.2152 63.1496 35.9421 63.4853 35.9421C63.8213 35.9421 64.0948 36.2152 64.0948 36.5513ZM59.4192 31.6494C59.7553 31.6494 60.0288 31.9229 60.0288 32.2586C60.0288 32.5947 59.7553 32.8682 59.4192 32.8682C59.2742 32.8682 59.1411 32.8171 59.0362 32.732C59.0358 32.7316 59.035 32.7309 59.0343 32.7305C59.0331 32.7293 59.032 32.7286 59.0305 32.7274C58.8958 32.6156 58.81 32.447 58.81 32.2586C58.81 31.9229 59.0835 31.6494 59.4192 31.6494ZM55.2528 36.7531C55.5885 36.7531 55.862 37.0262 55.862 37.3623C55.862 37.6983 55.5885 37.9715 55.2528 37.9715C54.9167 37.9715 54.6432 37.6983 54.6432 37.3623C54.6432 37.2593 54.6691 37.1628 54.7145 37.0773C54.7149 37.0762 54.7161 37.075 54.7164 37.0739C54.7176 37.072 54.7183 37.0701 54.7191 37.0682C54.8232 36.8805 55.0231 36.7531 55.2528 36.7531ZM49.9111 33.884C50.2471 33.884 50.5207 34.1575 50.5207 34.4936C50.5207 34.5955 50.4951 34.6916 50.4508 34.7759C50.4497 34.7778 50.4486 34.7797 50.4474 34.7812C50.4463 34.7839 50.4451 34.7862 50.444 34.7885C50.3402 34.9758 50.1403 35.1028 49.9111 35.1028C49.736 35.1028 49.578 35.0281 49.4667 34.9094C49.4667 34.909 49.4667 34.909 49.4667 34.909C49.4667 34.9087 49.4663 34.9087 49.4663 34.9087C49.3644 34.7999 49.3019 34.6538 49.3019 34.4936C49.3019 34.1575 49.5754 33.884 49.9111 33.884ZM33.2447 41.3032L34.0996 45.3331L33.2352 46.2043L32.4684 45.3495L33.2447 41.3032ZM33.2599 36.8603C32.8693 36.8686 32.4814 36.8358 32.0999 36.7656C32.238 36.4311 32.3124 36.0698 32.3124 35.7021V35.2222C32.6252 35.3542 32.9571 35.421 33.2889 35.421C33.6212 35.421 33.9527 35.3542 34.2655 35.2222V35.7021C34.2655 36.0508 34.3304 36.3903 34.4524 36.7073C34.0614 36.7992 33.6628 36.8515 33.2599 36.8603ZM32.0122 26.4648H34.5661C35.3 26.4648 35.897 27.0634 35.897 27.7988V28.7212L32.4234 27.6031C32.2368 27.5433 32.0339 27.5604 31.86 27.6512L30.6812 28.2665V27.7988C30.6812 27.0634 31.2782 26.4648 32.0122 26.4648ZM30.6812 29.919L32.2662 29.0913L35.897 30.2601V31.9488C35.897 32.317 35.7025 32.6641 35.3889 32.8552C35.3885 32.8552 35.3885 32.8552 35.3885 32.8552L33.839 33.8001C33.4999 34.0069 33.0784 34.0069 32.7392 33.8001L31.1897 32.8552C30.8758 32.6641 30.6812 32.3166 30.6812 31.9485V29.919ZM29.9995 73.5351C30.0709 72.9243 30.5912 72.4486 31.221 72.4486C31.8504 72.4486 32.3711 72.9243 32.4421 73.5351H29.9995ZM33.9237 73.5351C33.995 72.9243 34.5154 72.4486 35.1448 72.4486C35.7746 72.4486 36.2953 72.9243 36.3663 73.5351H33.9237ZM46.3886 40.7058H38.0928C37.1456 40.7058 36.375 41.4772 36.375 42.4247V51.0253H29.9911V42.7852C29.9911 42.3805 29.6635 42.0528 29.2587 42.0528C28.8544 42.0528 28.5263 42.3805 28.5263 42.7852V53.8638C27.668 53.561 27.0508 52.7419 27.0508 51.781V41.716C27.0508 40.3743 27.9034 39.1861 29.1721 38.7584L30.4203 38.3384C30.6518 38.2606 30.8685 38.1542 31.0684 38.0218C31.4831 38.1458 31.9054 38.232 32.333 38.2801L30.9616 45.43C30.9185 45.6546 30.983 45.8866 31.1355 46.0571L32.6633 47.7603C32.798 47.9106 32.9883 47.9984 33.1901 48.0037H33.2085C33.4034 48.0037 33.5907 47.9259 33.7284 47.787L35.4179 46.0838C35.5919 45.9083 35.6659 45.6573 35.6148 45.4158L34.0965 38.2602C34.5428 38.2004 34.983 38.0985 35.4133 37.9551C35.6403 38.1195 35.8925 38.2496 36.1587 38.3384L36.8629 38.5761C37.2978 38.7226 37.7521 38.797 38.2129 38.797H48.6156C48.45 39.8765 47.5143 40.7058 46.3886 40.7058ZM51.9817 57.7983L48.508 56.6802C48.3215 56.6203 48.1185 56.6375 47.9446 56.7283L46.7659 57.3436V56.8759C46.7659 56.1405 47.3629 55.5419 48.0968 55.5419H50.6507C51.3847 55.5419 51.9817 56.1405 51.9817 56.8759V57.7983ZM50.3505 64.2993V64.7792C50.3505 65.1279 50.4154 65.4674 50.5374 65.784C50.1464 65.8763 49.7474 65.9286 49.3446 65.9373C48.9547 65.9454 48.5668 65.9129 48.1845 65.8427C48.323 65.5082 48.3974 65.1469 48.3974 64.7792V64.2993C48.7102 64.4313 49.0417 64.4981 49.374 64.4981C49.7058 64.4981 50.0377 64.4313 50.3505 64.2993ZM49.3198 72.7172L48.5801 71.8925L49.3286 69.2466L50.1518 71.8783L49.3198 72.7172ZM51.4736 61.9323L49.9237 62.8772C49.5845 63.084 49.163 63.084 48.8239 62.8772L47.2744 61.9323C46.9604 61.7412 46.7659 61.3937 46.7659 61.0259V58.9961L48.3509 58.1683L51.9817 59.3372V61.0259C51.9817 61.394 51.7871 61.7412 51.4736 61.9323ZM65.9236 57.7983L62.45 56.6802C62.263 56.6203 62.0601 56.6375 61.8865 56.7283L60.7078 57.3436V56.8759C60.7078 56.1405 61.3048 55.5419 62.0387 55.5419H64.5927C65.3266 55.5419 65.9236 56.1405 65.9236 56.8759V57.7983ZM64.2928 64.2989V64.7792C64.2928 65.1279 64.3577 65.4678 64.4794 65.784C64.088 65.8763 63.6893 65.9286 63.2861 65.9373C62.8951 65.9457 62.5076 65.9129 62.1261 65.8427C62.2642 65.5082 62.3386 65.1469 62.3386 64.7792V64.2993C62.6518 64.4313 62.9836 64.4981 63.3155 64.4981C63.6478 64.4981 63.98 64.4313 64.2928 64.2989ZM63.2617 72.7172L62.5217 71.8925L63.2701 69.2466L64.0937 71.8783L63.2617 72.7172ZM65.4151 61.9323L63.8656 62.8772C63.5265 63.084 63.1049 63.084 62.7658 62.8772L61.2159 61.9323C60.9023 61.7412 60.7078 61.394 60.7078 61.0259V58.9961L62.2928 58.1687L65.9236 59.3372V61.0259C65.9236 61.394 65.7291 61.7412 65.4151 61.9323Z" fill="#5B7B3B"></path>
    <path d="M44 45.8936H69.0011C69.4055 45.8936 69.7336 45.5655 69.7336 45.1611C69.7336 44.7564 69.4055 44.4287 69.0011 44.4287H44C43.5956 44.4287 43.2676 44.7564 43.2676 45.1611C43.2676 45.5655 43.5956 45.8936 44 45.8936Z" fill="#5B7B3B"></path>
    <path d="M44 49.2383H57.242C57.6463 49.2383 57.9744 48.9106 57.9744 48.5059C57.9744 48.1015 57.6463 47.7734 57.242 47.7734H44C43.5956 47.7734 43.2676 48.1015 43.2676 48.5059C43.2676 48.9106 43.5956 49.2383 44 49.2383Z" fill="#5B7B3B"></path>
  </g>
  <defs>
    <clipPath id="clip0_297_1444">
      <rect width="50" height="50" fill="white" transform="translate(25 25)"></rect>
    </clipPath>
  </defs>
</svg>
