<?xml version="1.0" encoding="UTF-8"?>
<svg xmlns="http://www.w3.org/2000/svg" width="80" height="80" viewBox="0 0 80 80" fill="none">
  <circle cx="40" cy="40" r="39" fill="white" stroke="#5B7B3B" stroke-width="2"></circle>
  <g clip-path="url(#clip0_902_112)">
    <path d="M58.6934 47.7933C58.3237 46.9976 57.6527 46.3819 56.8282 46.0819C56.0037 45.782 55.0936 45.8227 54.2992 46.1947L45.7226 50.1876C46.2914 49.1624 46.2753 47.9132 45.6809 46.9029C45.0862 45.8925 44.0015 45.2723 42.8293 45.272H32.9004C31.1108 45.2707 29.4812 46.302 28.7165 47.9197H26.9431V45.9339C26.9431 45.5684 26.6467 45.272 26.2812 45.272H19.6619C19.2964 45.272 19 45.5684 19 45.9339V59.1724C19 59.5379 19.2964 59.8343 19.6619 59.8343H26.2812C26.6467 59.8343 26.9431 59.5379 26.9431 59.1724V57.8485H44.2278C44.7113 57.8482 45.1887 57.7422 45.6272 57.5389L57.0971 52.1924C58.7461 51.4125 59.4585 49.4494 58.6934 47.7933ZM25.6192 58.5104H20.3238V46.5958H25.6192V58.5104ZM56.5357 50.9937L45.0678 56.3388C44.8047 56.461 44.518 56.5243 44.2278 56.5247H26.9431V49.2435H29.1606C29.4421 49.2435 29.6929 49.0648 29.7853 48.7988C30.2501 47.4772 31.4993 46.5936 32.9004 46.5958H42.8293C43.9259 46.5958 44.815 47.485 44.815 48.5816C44.815 49.6785 43.9259 50.5674 42.8293 50.5674H36.8719V51.8912H44.4676C44.9501 51.8906 45.4265 51.7849 45.8642 51.5816L54.8596 47.3935C55.8492 46.93 57.0273 47.357 57.4902 48.3466C57.6123 48.6113 57.6757 48.8993 57.6763 49.1905C57.676 49.9614 57.2319 50.663 56.5357 50.9937Z" fill="#5B7B3B"></path>
    <path d="M43.4915 26.0764V24.7526C43.4915 22.1938 41.4172 20.1191 38.8581 20.1191C36.2989 20.1191 34.2246 22.1938 34.2246 24.7526V26.0764C34.2246 28.6356 36.2989 30.7099 38.8581 30.7099C41.4172 30.7099 43.4915 28.6356 43.4915 26.0764ZM38.8581 21.443C40.4301 21.4449 41.7847 22.5509 42.1014 24.0907H39.2673L38.7918 23.133C38.6968 22.943 38.5161 22.8105 38.3064 22.7762C38.0966 22.7423 37.8833 22.8108 37.7327 22.9608L36.5982 24.0907H35.6147C35.9315 22.5509 37.286 21.4449 38.8581 21.443ZM38.8581 29.3861C37.031 29.3841 35.5507 27.9035 35.5485 26.0764V25.4145H36.8723C37.0478 25.4145 37.2162 25.3447 37.3403 25.2206L38.0148 24.5461L38.2656 25.0487C38.3778 25.273 38.6073 25.4148 38.8581 25.4145H42.1677V26.0764C42.1654 27.9035 40.6852 29.3841 38.8581 29.3861Z" fill="#5B7B3B"></path>
    <path d="M31.5768 43.9484H46.1391C46.8702 43.9484 47.4629 43.3557 47.4629 42.6246V37.9911C47.4629 36.8938 47.2141 35.8105 46.7348 34.8234C45.5111 32.3169 42.9707 30.7226 40.1818 30.71H37.5341C33.5147 30.7148 30.2578 33.9717 30.2529 37.9911V42.6246C30.2529 43.3557 30.8457 43.9484 31.5768 43.9484ZM45.5434 35.4026C45.9374 36.2083 46.1414 37.0939 46.1391 37.9911V42.6246H39.5199V36.2794L43.0202 32.7791C44.1132 33.3703 44.9949 34.2872 45.5434 35.4026ZM40.1818 32.0338C40.6905 32.037 41.1966 32.1062 41.6876 32.2397L38.8579 35.0693L36.0289 32.2397C36.5195 32.1062 37.0257 32.037 37.5341 32.0338H40.1818ZM31.5768 37.9911C31.5739 37.0936 31.7775 36.2074 32.1724 35.401C32.7206 34.2862 33.6026 33.3696 34.6957 32.7791L38.196 36.2794V42.6246H31.5768V37.9911Z" fill="#5B7B3B"></path>
    <path d="M41.5059 36.667H44.1536V37.9908H41.5059V36.667Z" fill="#5B7B3B"></path>
  </g>
  <defs>
    <clipPath id="clip0_902_112">
      <rect width="40" height="40" fill="white" transform="translate(19 20)"></rect>
    </clipPath>
  </defs>
</svg>
