<?xml version="1.0" encoding="UTF-8"?>
<svg xmlns="http://www.w3.org/2000/svg" width="160" height="160" viewBox="0 0 160 160" fill="none">
  <circle cx="80" cy="80" r="78.5" fill="white" stroke="#5B7B3B" stroke-width="3"></circle>
  <g clip-path="url(#clip0_295_966)">
    <path d="M121.755 95.6981H108.226C106.814 94.325 104.991 93.277 102.77 92.5727C99.7221 91.6065 96.8746 91.6191 96.0722 91.6465C95.3149 91.6679 94.5939 91.3366 94.1485 90.7471L87.7522 82.2856C86.7042 80.8982 85.0986 80.0829 83.4102 80.0075V47.957H100.309L91.6722 74.2992H91.1949C90.7169 74.2992 90.258 74.5062 89.9363 74.8673C89.6006 75.2439 89.4418 75.7512 89.5 76.2594C90.0289 80.8575 95.5035 84.3251 102.235 84.3251C108.966 84.3251 114.441 80.8575 114.969 76.2595C115.028 75.7512 114.869 75.2439 114.533 74.8673C114.211 74.5062 113.753 74.2992 113.275 74.2992H112.81L104.562 47.957H107.071C109.312 47.957 111.135 46.134 111.135 43.8862C111.135 41.6453 109.312 39.8223 107.071 39.8223H82.7404C81.4855 38.1126 79.4627 37 77.1842 37C74.9056 37 72.8829 38.1126 71.6279 39.8223H59.4671C58.7795 39.8223 58.222 40.3796 58.222 41.0674C58.222 41.7552 58.7795 42.3125 59.4671 42.3125H70.4788C70.3596 42.8193 70.2945 43.3469 70.2945 43.8896C70.2945 44.4324 70.3596 44.96 70.4788 45.4668H51.3832C51.3793 45.4668 51.3755 45.4668 51.3717 45.4668H47.2985C46.4308 45.4668 45.7247 44.7607 45.7247 43.8862C45.7247 43.0184 46.4308 42.3125 47.2985 42.3125H53.8482C54.5358 42.3125 55.0933 41.7552 55.0933 41.0674C55.0933 40.3796 54.5358 39.8223 53.8482 39.8223H47.2985C45.0575 39.8223 43.2345 41.6453 43.2345 43.893C43.2345 46.134 45.0575 47.957 47.2985 47.957H48.8205L40.1824 74.2992H39.7066C39.2287 74.2992 38.7698 74.5062 38.4481 74.8673C38.1124 75.2439 37.9533 75.7512 38.0119 76.2594C38.5407 80.8575 44.0154 84.3251 50.7467 84.3251C57.4779 84.3251 62.9526 80.8575 63.4816 76.2592C63.5398 75.7509 63.3808 75.2435 63.0451 74.867C62.7234 74.5062 62.2647 74.2992 61.7867 74.2992H61.3224L53.0737 47.957H70.9591V95.3645H68.8357C67.3122 95.3645 65.8368 95.8185 64.5869 96.6584L57.8546 91.3761C55.8905 89.8348 53.2789 89.6675 51.1863 90.731L48.8801 89.5273C45.8424 87.9429 42.0795 89.1258 40.4925 92.1627C39.7221 93.6352 39.5717 95.3188 40.0689 96.9033C40.5656 98.4862 41.6493 99.7805 43.1199 100.547L61.0494 109.902C61.2601 110.012 61.4774 110.105 61.6961 110.189L67.0499 114.39C67.278 114.568 67.5488 114.655 67.8177 114.655C68.1871 114.655 68.5525 114.492 68.7982 114.179C69.2227 113.638 69.1282 112.855 68.5872 112.431L51.7097 99.1881C50.9268 98.5739 50.4304 97.6918 50.3119 96.7047C50.1933 95.7182 50.4668 94.7444 51.0814 93.963C52.3515 92.3481 54.7005 92.0667 56.3175 93.3352L63.8352 99.2336C63.8372 99.2351 63.839 99.2368 63.841 99.2383L75.8537 108.663C76.2799 108.998 76.8735 109.018 77.3219 108.714C77.4151 108.651 84.6539 103.769 91.6449 101.3C91.6514 101.298 91.6577 101.296 91.6642 101.293C93.6692 100.586 95.6532 100.078 97.4419 99.9398C101.544 99.6231 105.131 100.68 107.545 102.915C109.66 104.874 110.779 107.637 110.779 110.906C110.779 111.594 111.336 112.151 112.024 112.151C112.712 112.151 113.269 111.594 113.269 110.906C113.269 106.925 111.875 103.53 109.237 101.088C106.307 98.3758 102.052 97.0852 97.2501 97.4571C95.5247 97.5904 93.6642 98.02 91.7861 98.6248C90.5408 96.8317 88.5989 95.6674 86.4234 95.4163L83.4106 91.4457V82.4991C84.3283 82.5708 85.1934 83.029 85.766 83.7865L92.1621 92.2478C93.0953 93.4833 94.5891 94.1877 96.1576 94.1349C97.041 94.1037 104.886 93.997 107.93 99.3375C108.16 99.7405 108.58 99.9662 109.013 99.9662C109.222 99.9662 109.434 99.9136 109.628 99.8027C110.198 99.4778 110.413 98.7713 110.136 98.188H120.51V106.058C120.51 106.746 121.067 107.303 121.755 107.303C122.443 107.303 123 106.746 123 106.058V96.9433C123 96.2556 122.443 95.6981 121.755 95.6981ZM51.2039 101.956L44.2717 98.3393C43.3912 97.8801 42.7424 97.1051 42.4451 96.1575C42.1472 95.2082 42.2375 94.1994 42.6996 93.3162C43.6512 91.4945 45.9075 90.7852 47.7285 91.735L49.1024 92.4522C48.0919 93.7521 47.643 95.3659 47.8394 97.0017C48.0373 98.6497 48.8659 100.122 50.1726 101.147L51.2039 101.956ZM102.235 81.8347C97.4005 81.8347 93.1378 79.6365 92.1599 76.7893H112.309C111.332 79.6365 107.069 81.8347 102.235 81.8347ZM94.2929 74.2992L102.43 49.4811L110.201 74.2992H94.2929ZM107.071 42.3125C107.939 42.3125 108.645 43.0186 108.645 43.893C108.645 44.7609 107.939 45.4668 107.071 45.4668H102.872C102.868 45.4668 102.864 45.4668 102.86 45.4668H102.049C102.046 45.4668 102.043 45.4668 102.04 45.4668H83.8894C84.0086 44.96 84.0736 44.4324 84.0736 43.8896C84.0736 43.3469 84.0086 42.8193 83.8894 42.3125H107.071ZM77.1842 39.4902C79.61 39.4902 81.5834 41.4638 81.5834 43.8896C81.5834 46.3155 79.61 48.2891 77.1842 48.2891C74.7583 48.2891 72.7847 46.3155 72.7847 43.8896C72.7847 41.4638 74.7583 39.4902 77.1842 39.4902ZM50.7465 81.8347C45.9123 81.8347 41.6497 79.6365 40.6717 76.7893H60.8213C59.8435 79.6365 55.5807 81.8347 50.7465 81.8347ZM42.803 74.2992L50.9414 49.4809L58.7126 74.2992H42.803ZM73.4493 49.6746C74.5262 50.3722 75.8082 50.7793 77.1842 50.7793C78.5606 50.7793 79.8429 50.3719 80.92 49.6738V81.3766V81.3796V95.3643H73.4493V49.6746ZM89.3134 99.5122C83.8123 101.677 78.6057 104.906 76.6849 106.151L66.7038 98.3194C67.3673 98.0161 68.0928 97.8547 68.8357 97.8547H85.5336C87.0005 97.8547 88.3573 98.4671 89.3134 99.5122Z" fill="#5B7B3B"></path>
    <path d="M121.755 110.126C121.067 110.126 120.51 110.683 120.51 111.371V114.883L107.789 115.301C107.743 115.303 107.698 115.307 107.653 115.313C107.651 115.313 107.65 115.313 107.648 115.314L79.444 119.47C79.2647 119.497 79.0814 119.51 78.8995 119.51C78.0679 119.51 77.2496 119.227 76.5958 118.714L72.7657 115.709C72.2247 115.284 71.4421 115.379 71.0176 115.92C70.5931 116.461 70.6875 117.244 71.2286 117.668L75.0589 120.674C76.1494 121.529 77.5134 122 78.8996 122C79.2028 122 79.5083 121.978 79.8074 121.934L107.941 117.788L111.371 117.675C111.371 117.675 111.372 117.675 111.373 117.675L121.796 117.333C122.467 117.311 123 116.76 123 116.088V111.371C123 110.683 122.443 110.126 121.755 110.126Z" fill="#5B7B3B"></path>
  </g>
  <defs>
    <clipPath id="clip0_295_966">
      <rect width="85" height="85" fill="white" transform="translate(38 37)"></rect>
    </clipPath>
  </defs>
</svg>
