<?xml version="1.0" encoding="UTF-8"?>
<svg xmlns="http://www.w3.org/2000/svg" width="160" height="160" viewBox="0 0 160 160" fill="none">
  <circle cx="80" cy="80" r="78.5" fill="white" stroke="#5B7B3B" stroke-width="3"></circle>
  <path d="M93.1905 58.1287C92.4162 57.3551 91.387 56.9284 90.2923 56.9284C89.1977 56.9284 88.1685 57.3551 87.3948 58.1287C86.6205 58.903 86.1938 59.9322 86.1938 61.0269C86.1938 62.1215 86.6205 63.1507 87.3942 63.9244L94.3759 70.9061C95.1496 71.6798 96.1794 72.1065 97.2741 72.1065C98.3687 72.1065 99.3972 71.6798 100.172 70.9061L115.088 55.9893C115.863 55.215 116.289 54.1859 116.289 53.0918C116.289 51.9972 115.863 50.968 115.088 50.1937C114.315 49.4194 113.285 48.9933 112.19 48.9933C111.096 48.9933 110.066 49.4194 109.293 50.1937L107.648 51.8383C106.43 50.9083 105.092 50.1626 103.675 49.623V47.7586C103.675 45.4986 101.837 43.6601 99.5775 43.6601H86.7269V42.2373C86.7269 39.3495 84.3774 37 81.4896 37H67.1584C64.2707 37 61.9212 39.3495 61.9212 42.2373V48.1548C61.9212 49.7592 63.2266 51.0646 64.831 51.0646H83.8171C85.4215 51.0646 86.7269 49.7592 86.7269 48.1548V46.1542H99.5769C100.461 46.1542 101.181 46.874 101.181 47.7586V48.9071C100.155 48.6996 99.1041 48.5893 98.0412 48.5893C89.3066 48.5893 82.2004 55.6956 82.2004 64.4302C82.2004 73.1648 89.3066 80.2711 98.0412 80.2711C99.1067 80.2711 100.157 80.1641 101.181 79.9585V117.902C101.181 118.787 100.461 119.506 99.5769 119.506H49.0705C48.186 119.506 47.4668 118.787 47.4668 117.902V47.7586C47.4668 46.874 48.186 46.1542 49.0705 46.1542H57.3603C58.049 46.1542 58.6073 45.5958 58.6073 44.9071C58.6073 44.2184 58.049 43.6601 57.3603 43.6601H49.0705C46.8111 43.6601 44.9727 45.4986 44.9727 47.7586V117.902C44.9727 120.162 46.8111 122 49.0705 122H99.5775C101.837 122 103.675 120.162 103.675 117.902V79.2374C105.661 78.4819 107.492 77.3288 109.059 75.812C112.022 72.9437 113.732 69.0981 113.873 64.9834C113.896 64.2953 113.358 63.7181 112.669 63.6941C111.986 63.6714 111.404 64.2091 111.38 64.8978C111.181 70.6895 107.372 75.4715 102.142 77.1401C102.07 77.157 102 77.179 101.934 77.2082C100.703 77.5785 99.3966 77.7769 98.0412 77.7769C90.6821 77.7769 84.6945 71.7894 84.6945 64.4302C84.6945 57.071 90.6821 51.0834 98.0412 51.0834C100.868 51.0834 103.6 51.9771 105.867 53.6197L97.2741 62.213L93.1905 58.1287ZM84.2328 48.1548C84.2328 48.3844 84.0466 48.5705 83.8171 48.5705H64.831C64.6014 48.5705 64.4153 48.3844 64.4153 48.1548V42.2373C64.4153 40.7243 65.6455 39.4941 67.1584 39.4941H81.4896C83.0019 39.4941 84.2328 40.7243 84.2328 42.2373V48.1548ZM111.057 51.9576C111.359 51.6541 111.762 51.4875 112.19 51.4875C112.619 51.4875 113.022 51.6548 113.325 51.9576C113.95 52.5828 113.95 53.6009 113.325 54.2261L98.4076 69.1428C98.1048 69.4457 97.7021 69.613 97.2734 69.613C96.8448 69.613 96.442 69.4457 96.1392 69.1428L89.1575 62.1611C88.8546 61.8582 88.6879 61.4555 88.6879 61.0269C88.6879 60.5982 88.8546 60.1955 89.1581 59.8926C89.461 59.5898 89.8637 59.4225 90.2923 59.4225C90.7203 59.4225 91.1237 59.5898 91.4266 59.8926L96.3921 64.8582C96.8791 65.3452 97.6684 65.3452 98.1554 64.8582L111.057 51.9576Z" fill="#5B7B3B"></path>
  <path d="M78.9121 68.3018H63.7171C63.0284 68.3018 62.4707 68.8601 62.4707 69.5488C62.4707 70.2369 63.0284 70.7952 63.7171 70.7952H78.9121C79.6008 70.7952 80.1591 70.2369 80.1591 69.5488C80.1591 68.8601 79.6008 68.3018 78.9121 68.3018Z" fill="#5B7B3B"></path>
  <path d="M61.3372 55.4297H52.9463C52.2576 55.4297 51.6992 55.988 51.6992 56.6768C51.6992 57.3655 52.2576 57.9238 52.9463 57.9238H61.3372C62.0259 57.9238 62.5843 57.3655 62.5843 56.6768C62.5843 55.988 62.0259 55.4297 61.3372 55.4297Z" fill="#5B7B3B"></path>
  <path d="M63.7171 76.5804H78.9121C79.6008 76.5804 80.1591 76.022 80.1591 75.3333C80.1591 74.6453 79.6008 74.0869 78.9121 74.0869H63.7171C63.0284 74.0869 62.4707 74.6453 62.4707 75.3333C62.4707 76.022 63.0284 76.5804 63.7171 76.5804Z" fill="#5B7B3B"></path>
  <path d="M84.161 83.4258H63.7171C63.0284 83.4258 62.4707 83.9841 62.4707 84.6728C62.4707 85.3615 63.0284 85.9199 63.7171 85.9199H84.161C84.8497 85.9199 85.4081 85.3615 85.4081 84.6728C85.4081 83.9841 84.8497 83.4258 84.161 83.4258Z" fill="#5B7B3B"></path>
  <path d="M63.7171 91.7051H73.9394C74.6281 91.7051 75.1858 91.1467 75.1858 90.458C75.1858 89.7693 74.6281 89.2109 73.9394 89.2109H63.7171C63.0284 89.2109 62.4707 89.7693 62.4707 90.458C62.4707 91.1467 63.0284 91.7051 63.7171 91.7051Z" fill="#5B7B3B"></path>
  <path d="M63.7171 101.061H78.9121C79.6008 101.061 80.1591 100.502 80.1591 99.8135C80.1591 99.1248 79.6008 98.5664 78.9121 98.5664H63.7171C63.0284 98.5664 62.4707 99.1248 62.4707 99.8135C62.4707 100.502 63.0284 101.061 63.7171 101.061Z" fill="#5B7B3B"></path>
  <path d="M63.7171 106.845H84.161C84.8497 106.845 85.4081 106.287 85.4081 105.598C85.4081 104.91 84.8497 104.352 84.161 104.352H63.7171C63.0284 104.352 62.4707 104.91 62.4707 105.598C62.4707 106.287 63.0284 106.845 63.7171 106.845Z" fill="#5B7B3B"></path>
  <path d="M55.5935 67.2207C52.816 67.2207 50.5566 69.4801 50.5566 72.2576C50.5566 75.0351 52.816 77.2945 55.5935 77.2945C58.371 77.2945 60.6304 75.0351 60.6304 72.2576C60.6304 69.4801 58.371 67.2207 55.5935 67.2207ZM55.5935 74.8004C54.1915 74.8004 53.0508 73.6596 53.0508 72.2576C53.0508 70.8555 54.1915 69.7148 55.5935 69.7148C56.9956 69.7148 58.1363 70.8555 58.1363 72.2576C58.1363 73.6596 56.9956 74.8004 55.5935 74.8004Z" fill="#5B7B3B"></path>
  <path d="M55.5935 82.5283C52.816 82.5283 50.5566 84.7883 50.5566 87.5652C50.5566 90.3427 52.816 92.6021 55.5935 92.6021C58.371 92.6021 60.6304 90.3427 60.6304 87.5652C60.6304 84.7883 58.371 82.5283 55.5935 82.5283ZM55.5935 90.1086C54.1915 90.1086 53.0508 88.9679 53.0508 87.5659C53.0508 86.1632 54.1915 85.0224 55.5935 85.0224C56.9956 85.0224 58.1363 86.1632 58.1363 87.5659C58.1363 88.9679 56.9956 90.1086 55.5935 90.1086Z" fill="#5B7B3B"></path>
  <path d="M55.5935 97.6689C52.816 97.6689 50.5566 99.9283 50.5566 102.706C50.5566 105.483 52.816 107.743 55.5935 107.743C58.371 107.743 60.6304 105.483 60.6304 102.706C60.6304 99.9283 58.371 97.6689 55.5935 97.6689ZM55.5935 105.249C54.1915 105.249 53.0508 104.108 53.0508 102.706C53.0508 101.304 54.1915 100.163 55.5935 100.163C56.9956 100.163 58.1363 101.304 58.1363 102.706C58.1363 104.108 56.9956 105.249 55.5935 105.249Z" fill="#5B7B3B"></path>
</svg>
