<?xml version="1.0" encoding="UTF-8"?>
<svg xmlns="http://www.w3.org/2000/svg" width="100" height="100" viewBox="0 0 100 100" fill="none">
  <circle cx="50" cy="50" r="49" fill="white" stroke="#5B7B3B" stroke-width="2"></circle>
  <g clip-path="url(#clip0_297_1557)">
    <path d="M50.0082 34.7754C48.1223 34.7754 46.3038 35.4593 44.8875 36.7011C44.4819 37.0567 44.4415 37.6735 44.7969 38.079C45.1524 38.4844 45.7693 38.5249 46.1748 38.1695C47.2348 37.24 48.5962 36.7283 50.0081 36.7283C53.2171 36.7283 55.8277 39.3385 55.8277 42.547C55.8277 43.8929 55.3811 45.157 54.5362 46.2023C54.1971 46.6216 54.2624 47.2365 54.6818 47.5753C54.8626 47.7214 55.0796 47.7925 55.295 47.7925C55.5798 47.7925 55.862 47.6685 56.055 47.4298C57.1678 46.0532 57.7806 44.3192 57.7806 42.547C57.7806 38.2617 54.2939 34.7754 50.0082 34.7754Z" fill="#5B7B3B"></path>
    <path d="M45.6472 46.3985C44.707 45.3352 44.1893 43.9674 44.1893 42.5469C44.1893 41.9053 44.2927 41.2758 44.4966 40.6759C44.6702 40.1653 44.397 39.6106 43.8864 39.4371C43.3759 39.2639 42.8212 39.5367 42.6477 40.0473C42.3747 40.85 42.2363 41.6909 42.2363 42.5469C42.2363 44.4444 42.928 46.2716 44.1843 47.6922C44.3773 47.9105 44.646 48.0219 44.9161 48.0219C45.146 48.0219 45.3768 47.9412 45.5625 47.7769C45.9664 47.4197 46.0043 46.8026 45.6472 46.3985Z" fill="#5B7B3B"></path>
    <path d="M59.7286 34.6126C59.3874 34.195 58.7724 34.133 58.3547 34.4741C57.9371 34.8153 57.8751 35.4304 58.2162 35.848C59.7548 37.7316 60.6022 40.1106 60.6022 42.5468C60.6022 45.3466 59.5203 47.9867 57.5563 49.9808C57.1777 50.3651 57.1824 50.9834 57.5666 51.3617C57.7568 51.549 58.0043 51.6424 58.2517 51.6424C58.504 51.6424 58.7563 51.5452 58.9474 51.3512C61.2737 48.9894 62.555 45.8626 62.555 42.5468C62.5549 39.6617 61.5511 36.8441 59.7286 34.6126Z" fill="#5B7B3B"></path>
    <path d="M56.9032 32.0625C54.8539 30.713 52.4695 29.9995 50.0073 29.9995C43.0892 29.9995 37.4609 35.6282 37.4609 42.5469C37.4609 43.6799 37.6124 44.8042 37.9109 45.8888C38.0302 46.322 38.4232 46.6064 38.8518 46.6064C38.9376 46.6064 39.0248 46.595 39.1116 46.5711C39.6315 46.4279 39.937 45.8904 39.7938 45.3705C39.5416 44.4548 39.4138 43.5049 39.4138 42.547C39.4138 36.7051 44.1659 31.9524 50.0073 31.9524C52.0863 31.9524 54.0993 32.5545 55.8288 33.6936C56.2793 33.9902 56.8848 33.8655 57.1814 33.415C57.4782 32.9647 57.3536 32.3593 56.9032 32.0625Z" fill="#5B7B3B"></path>
    <path d="M44.6822 51.7065C43.2728 50.8858 42.0524 49.7305 41.1533 48.3652C40.8565 47.9147 40.2511 47.7904 39.8008 48.0867C39.3505 48.3834 39.2258 48.9889 39.5224 49.4393C40.5865 51.0551 42.031 52.4226 43.6996 53.3941C43.8542 53.4842 44.0233 53.527 44.19 53.527C44.5262 53.527 44.8533 53.3531 45.0347 53.0417C45.3061 52.5757 45.1483 51.9778 44.6822 51.7065Z" fill="#5B7B3B"></path>
    <path d="M66.4339 44.9503C65.9053 44.8419 65.3894 45.1817 65.2806 45.7098C64.8169 47.9619 63.8347 50.1236 62.44 51.9611C62.1139 52.3907 62.1978 53.0033 62.6275 53.3292C62.8039 53.4632 63.0113 53.528 63.217 53.528C63.512 53.528 63.8034 53.3949 63.9955 53.1417C65.5655 51.0733 66.6712 48.6396 67.1933 46.1036C67.3022 45.5755 66.9621 45.0592 66.4339 44.9503Z" fill="#5B7B3B"></path>
    <path d="M62.1537 29.8824C58.8713 26.734 54.5579 25 50.0082 25C44.7529 25 39.8179 27.327 36.4686 31.3844C36.1253 31.8002 36.184 32.4158 36.6001 32.759C37.0159 33.1023 37.6314 33.0437 37.9747 32.6276C40.9517 29.0212 45.3379 26.9528 50.0082 26.9528C58.3747 26.9528 65.2179 33.4946 65.5874 41.8458C65.6106 42.3699 66.0427 42.7792 66.5621 42.7791C66.5767 42.7791 66.5914 42.7788 66.6061 42.7782C67.1448 42.7543 67.5622 42.2983 67.5384 41.7594C67.3383 37.2394 65.4261 33.0212 62.1537 29.8824Z" fill="#5B7B3B"></path>
    <path d="M39.6006 54.1289C38.9241 53.5019 38.2985 52.8448 37.7411 52.1755C35.5955 49.5989 34.4139 46.1794 34.4139 42.5467C34.4139 40.0244 35.0294 37.5201 36.1941 35.3047C36.445 34.8274 36.2614 34.237 35.7841 33.9861C35.3068 33.7352 34.7163 33.9188 34.4654 34.3959C33.1542 36.8905 32.4609 39.7091 32.4609 42.5467C32.4609 46.6351 33.8031 50.4985 36.2403 53.4253C36.8512 54.1589 37.5351 54.8774 38.2731 55.5613C38.461 55.7354 38.699 55.8216 38.9365 55.8216C39.1989 55.8216 39.4606 55.7165 39.6529 55.5088C40.0196 55.1134 39.9962 54.4956 39.6006 54.1289Z" fill="#5B7B3B"></path>
    <path d="M62.3097 54.7783L53.4434 52.9188V42.378C53.4434 40.4839 51.9024 38.9429 50.0082 38.9429C49.0921 38.9429 48.2299 39.2997 47.5789 39.9493C46.931 40.5986 46.574 41.4612 46.574 42.378V62.9575L42.5873 58.9707C41.9387 58.3221 41.0762 57.9648 40.1588 57.9648C39.2414 57.9648 38.3789 58.3221 37.7296 58.9714C37.0815 59.6207 36.7246 60.4833 36.7246 61.4003C36.7246 62.3178 37.0818 63.1803 37.7303 63.8289L46.7541 72.8526L47.6007 74.4754C47.769 74.798 48.1026 75.0002 48.4664 75.0002H65.112C65.632 75.0002 66.0609 74.5926 66.0872 74.0731L66.7716 60.567C66.913 57.7849 65.0366 55.3503 62.3097 54.7783ZM64.8211 60.4682L64.1836 73.0474H49.0583L48.4162 71.8166C48.3702 71.7285 48.3112 71.6479 48.2409 71.5777L39.1111 62.4479C38.8314 62.1683 38.6775 61.7962 38.6775 61.4002C38.6775 61.0042 38.8318 60.6315 39.1111 60.3515C39.391 60.0716 39.763 59.9176 40.1588 59.9176C40.5546 59.9176 40.9266 60.0717 41.2065 60.3515L46.8601 66.0051C47.1394 66.2843 47.5592 66.3677 47.9242 66.2169C48.2892 66.0657 48.527 65.7097 48.527 65.3147V42.378C48.527 41.982 48.6813 41.6095 48.9598 41.3303C49.2406 41.0501 49.6129 40.8959 50.0082 40.8959C50.8255 40.8959 51.4905 41.5608 51.4905 42.3781V53.7118C51.4905 54.1737 51.8143 54.5725 52.2664 54.6674L61.9088 56.6897C63.6888 57.063 64.9135 58.6521 64.8211 60.4682Z" fill="#5B7B3B"></path>
    <path d="M58.7965 69.7568H54.4774C53.9382 69.7568 53.501 70.194 53.501 70.7333C53.501 71.2725 53.9382 71.7098 54.4774 71.7098H58.7965C59.3358 71.7098 59.773 71.2726 59.773 70.7333C59.773 70.1941 59.3358 69.7568 58.7965 69.7568Z" fill="#5B7B3B"></path>
    <path d="M62.0272 69.7568C60.7706 69.7567 60.7686 71.7098 62.0272 71.7098C63.2837 71.7098 63.2858 69.7568 62.0272 69.7568Z" fill="#5B7B3B"></path>
  </g>
  <defs>
    <clipPath id="clip0_297_1557">
      <rect width="50" height="50" fill="white" transform="translate(25 25)"></rect>
    </clipPath>
  </defs>
</svg>
