<?xml version="1.0" encoding="UTF-8"?>
<svg xmlns="http://www.w3.org/2000/svg" width="160" height="160" viewBox="0 0 160 160" fill="none">
  <circle cx="80" cy="80" r="78.5" fill="white" stroke="#5B7B3B" stroke-width="3"></circle>
  <path d="M81.6101 83.3892C81.4528 83.3551 81.2914 83.349 81.1321 83.3728C79.5357 83.187 78.3314 81.8363 78.3287 80.2297C78.3287 79.4597 77.7044 78.8354 76.9344 78.8354C76.1645 78.8354 75.5402 79.4597 75.5402 80.2297C75.5443 82.9126 77.3388 85.2627 79.9258 85.9727V87.367C79.9258 88.137 80.5501 88.7612 81.32 88.7612C82.09 88.7612 82.7143 88.137 82.7143 87.367V86.0572C85.7002 85.4322 87.7296 82.6512 87.4158 79.617C87.1013 76.5827 84.5449 74.2769 81.4943 74.2762C79.7461 74.2762 78.3287 72.8588 78.3287 71.1106C78.3287 69.3623 79.7461 67.9449 81.4943 67.9449C83.2426 67.9449 84.66 69.3623 84.66 71.1106C84.66 71.8805 85.2842 72.5048 86.0542 72.5048C86.8242 72.5048 87.4485 71.8805 87.4485 71.1106C87.4444 68.2935 85.4708 65.8638 82.7143 65.2824V64.0134C82.7143 63.2434 82.09 62.6191 81.32 62.6191C80.5501 62.6191 79.9258 63.2434 79.9258 64.0134V65.3675C77.0488 66.1531 75.1971 68.9463 75.5933 71.9023C75.9895 74.8583 78.5118 77.0647 81.4943 77.064C83.2194 77.064 84.6266 78.4453 84.6579 80.1697C84.6899 81.8942 83.3338 83.3265 81.6101 83.3892Z" fill="#5B7B3B"></path>
  <path d="M61.2764 75.7775C61.2764 86.9437 70.3281 95.9954 81.4943 95.9954C92.6605 95.9954 101.712 86.9437 101.712 75.7775C101.712 64.6113 92.6605 55.5596 81.4943 55.5596C70.3335 55.5718 61.2893 64.6167 61.2764 75.7775ZM81.4943 58.3481C91.1206 58.3481 98.9237 66.1512 98.9237 75.7775C98.9237 85.4038 91.1206 93.2069 81.4943 93.2069C71.868 93.2069 64.0649 85.4038 64.0649 75.7775C64.0758 66.156 71.8728 58.359 81.4943 58.3481Z" fill="#5B7B3B"></path>
  <path d="M108.585 99.4325L97.6634 104.593C96.1554 101.788 93.2628 100.003 90.0794 99.9131L79.997 99.636C78.4006 99.5904 76.8341 99.186 75.4147 98.4528L74.3887 97.9212C69.1358 95.183 62.8746 95.1898 57.6271 97.9389L57.6911 95.6147C57.7122 94.8447 57.1057 94.2034 56.3357 94.1823L45.2798 93.878C44.5098 93.8569 43.8692 94.4634 43.8481 95.2334L43.1802 119.495C43.1591 120.265 43.7657 120.906 44.5357 120.928L55.5916 121.232H55.6297C56.3854 121.232 57.0035 120.631 57.024 119.876L57.056 118.715L59.9282 117.177C61.0556 116.571 62.3736 116.426 63.6051 116.775L80.7568 121.589C80.7867 121.597 80.8167 121.604 80.8473 121.611C82.087 121.87 83.3506 122 84.6168 122C87.2991 122.001 89.9501 121.423 92.388 120.304C92.4479 120.277 92.5057 120.245 92.5609 120.209L117.429 104.123C118.049 103.722 118.249 102.909 117.886 102.266C116.04 98.99 111.945 97.7421 108.585 99.4325ZM46.0062 118.179L46.5971 96.7039L54.8652 96.9313L54.2743 118.407L46.0062 118.179ZM91.1319 117.814C88.1031 119.181 84.7203 119.558 81.4648 118.893L64.3594 114.091C62.4342 113.547 60.3734 113.773 58.6122 114.719L57.1445 115.506L57.5373 101.228C62.1884 98.1342 68.1534 97.8163 73.1068 100.397L74.1327 100.929C75.9259 101.855 77.9036 102.365 79.9208 102.424L90.0039 102.701C92.8359 102.783 95.2411 104.799 95.8157 107.574L80.7969 107.159C80.027 107.138 79.3864 107.746 79.3646 108.515C79.3435 109.285 79.9507 109.926 80.72 109.947L97.2944 110.403H97.3332C98.0882 110.403 98.7056 109.802 98.7261 109.047C98.7431 108.441 98.6981 107.835 98.5913 107.238L109.794 101.945C109.804 101.94 109.815 101.935 109.826 101.93C111.415 101.126 113.336 101.395 114.643 102.604L91.1319 117.814Z" fill="#5B7B3B"></path>
  <path d="M82.8881 51.6396V38.3942C82.8881 37.6243 82.2638 37 81.4939 37C80.7239 37 80.0996 37.6243 80.0996 38.3942V51.6396C80.0996 52.4095 80.7239 53.0338 81.4939 53.0338C82.2638 53.0338 82.8881 52.4095 82.8881 51.6396Z" fill="#5B7B3B"></path>
  <path d="M93.3451 51.6395V45.3654C93.3451 44.5955 92.7209 43.9712 91.9509 43.9712C91.1809 43.9712 90.5566 44.5955 90.5566 45.3654V51.6395C90.5566 52.4095 91.1809 53.0338 91.9509 53.0338C92.7209 53.0338 93.3451 52.4095 93.3451 51.6395Z" fill="#5B7B3B"></path>
  <path d="M72.4311 51.6395V45.3654C72.4311 44.5955 71.8068 43.9712 71.0368 43.9712C70.2669 43.9712 69.6426 44.5955 69.6426 45.3654V51.6395C69.6426 52.4095 70.2669 53.0338 71.0368 53.0338C71.8068 53.0338 72.4311 52.4095 72.4311 51.6395Z" fill="#5B7B3B"></path>
</svg>
