<?xml version="1.0" encoding="UTF-8"?>
<svg xmlns="http://www.w3.org/2000/svg" width="161" height="160" viewBox="0 0 161 160" fill="none">
  <circle cx="80.5" cy="80" r="78.5" fill="white" stroke="#5B7B3B" stroke-width="3"></circle>
  <path d="M83.5799 80.0311C84.8958 79.3423 85.9428 78.2321 86.5534 76.8781C87.1641 75.5241 87.3032 74.0045 86.9485 72.5621C86.5938 71.1198 85.7657 69.838 84.5968 68.9216C83.4278 68.0053 81.9853 67.5073 80.5 67.5073C79.0147 67.5073 77.5722 68.0053 76.4032 68.9216C75.2343 69.838 74.4062 71.1198 74.0515 72.5621C73.6968 74.0045 73.8359 75.5241 74.4465 76.8781C75.0572 78.2321 76.1042 79.3423 77.4201 80.0311C75.6046 80.67 74.0319 81.856 72.9185 83.4259C71.8051 84.9957 71.2058 86.8722 71.2031 88.7968C71.2031 89.149 71.3431 89.4868 71.5921 89.7359C71.8412 89.985 72.179 90.1249 72.5312 90.1249H88.4688C88.821 90.1249 89.1588 89.985 89.4079 89.7359C89.6569 89.4868 89.7969 89.149 89.7969 88.7968C89.7942 86.8722 89.1949 84.9957 88.0815 83.4259C86.9681 81.856 85.3954 80.67 83.5799 80.0311ZM80.5 70.203C81.288 70.203 82.0584 70.4367 82.7136 70.8745C83.3688 71.3123 83.8795 71.9346 84.1811 72.6626C84.4826 73.3907 84.5616 74.1918 84.4078 74.9647C84.2541 75.7376 83.8746 76.4475 83.3174 77.0048C82.7602 77.562 82.0502 77.9415 81.2773 78.0952C80.5044 78.2489 79.7033 78.17 78.9752 77.8685C78.2472 77.5669 77.6249 77.0562 77.1871 76.401C76.7493 75.7458 76.5156 74.9754 76.5156 74.1874C76.5156 73.1307 76.9354 72.1172 77.6826 71.37C78.4298 70.6228 79.4433 70.203 80.5 70.203ZM73.9922 87.4686C74.297 85.9675 75.1114 84.6179 76.2975 83.6485C77.4835 82.6791 78.9682 82.1495 80.5 82.1495C82.0318 82.1495 83.5165 82.6791 84.7025 83.6485C85.8886 84.6179 86.703 85.9675 87.0078 87.4686H73.9922Z" fill="#5B7B3B"></path>
  <path d="M108.391 94.1091C105.328 94.1068 102.359 95.1682 99.9917 97.112L93.5981 90.7184C96.1249 87.7763 97.5816 84.0657 97.7313 80.1904L111.294 79.6883C111.672 80.9144 112.484 81.9605 113.578 82.631C114.672 83.3015 115.973 83.5503 117.237 83.3309C118.501 83.1115 119.642 82.4389 120.446 81.439C121.25 80.4391 121.662 79.1805 121.605 77.8988C121.548 76.617 121.026 75.3999 120.136 74.4754C119.247 73.5509 118.05 72.9823 116.772 72.8761C115.493 72.7698 114.22 73.1332 113.19 73.8982C112.16 74.6632 111.444 75.7773 111.176 77.0321L97.6449 77.5328C97.3551 75.0179 96.5158 72.5974 95.1865 70.443C93.8571 68.2885 92.0702 66.4527 89.9524 65.0657L92.4905 60.4518C94.3796 61.1112 96.4476 61.0367 98.2844 60.2432C100.121 59.4497 101.593 57.9951 102.408 56.1676C103.223 54.3401 103.321 52.2732 102.684 50.3765C102.046 48.4798 100.72 46.8917 98.9667 45.9272C97.2136 44.9626 95.1621 44.6918 93.2188 45.1686C91.2755 45.6453 89.5823 46.8348 88.4747 48.5012C87.3671 50.1676 86.926 52.1893 87.2388 54.1656C87.5516 56.1419 88.5955 57.9286 90.1636 59.1715L87.6242 63.788C84.6379 62.4205 81.3216 61.9396 78.0698 62.4025C74.818 62.8654 71.7676 64.2526 69.2815 66.3991L62.8879 60.0055C65.0483 57.3634 66.1104 53.9919 65.8547 50.5885C65.599 47.1852 64.045 44.0103 61.5141 41.7206C58.9832 39.4309 55.669 38.2016 52.2571 38.2869C48.8452 38.3722 45.5966 39.7656 43.1833 42.1789C40.77 44.5923 39.3766 47.8408 39.2913 51.2527C39.206 54.6646 40.4353 57.9788 42.725 60.5097C45.0147 63.0406 48.1896 64.5946 51.5929 64.8503C54.9963 65.106 58.3678 64.0439 61.0099 61.8835L67.4035 68.2771C65.7116 70.2304 64.4851 72.5422 63.8163 75.0383C63.1475 77.5344 63.054 80.1497 63.5427 82.6873L51.8777 85.8269C51.1383 84.3921 49.8979 83.2786 48.3919 82.6978C46.8859 82.1169 45.2191 82.1091 43.7077 82.6758C42.1963 83.2425 40.9455 84.3443 40.1926 85.7721C39.4398 87.1999 39.2372 88.8544 39.6234 90.4217C40.0096 91.9889 40.9577 93.3599 42.2878 94.2745C43.6179 95.189 45.2374 95.5835 46.839 95.3831C48.4407 95.1826 49.913 94.4012 50.9767 93.1871C52.0404 91.973 52.6214 90.4107 52.6095 88.7966C52.6095 88.6638 52.5777 88.531 52.5684 88.3982L64.2413 85.2559C65.5851 89.0288 68.1939 92.22 71.6243 94.2871L68.8127 99.8998C66.579 99.1517 64.1448 99.2775 62.0002 100.252C59.8555 101.226 58.1596 102.977 57.2537 105.151C56.3478 107.326 56.2991 109.763 57.1176 111.971C57.9361 114.18 59.5609 115.997 61.665 117.056C63.7691 118.115 66.1963 118.338 68.458 117.68C70.7198 117.021 72.6481 115.531 73.855 113.508C75.0619 111.485 75.4577 109.08 74.9627 106.777C74.4678 104.474 73.1188 102.444 71.1874 101.095L73.9924 95.4824C76.9255 96.6849 80.1343 97.0518 83.2631 96.5424C86.3919 96.033 89.3186 94.6672 91.7188 92.5964L98.1124 98.99C96.2067 101.325 95.1522 104.239 95.1225 107.253C95.0927 110.267 96.0894 113.201 97.9488 115.573C99.8081 117.945 102.419 119.614 105.353 120.305C108.287 120.996 111.368 120.668 114.091 119.375C116.813 118.082 119.015 115.901 120.333 113.191C121.652 110.481 122.009 107.403 121.346 104.462C120.682 101.522 119.038 98.8955 116.684 97.0139C114.329 95.1323 111.405 94.1079 108.391 94.1091ZM116.36 75.5154C116.885 75.5154 117.398 75.6712 117.835 75.963C118.272 76.2549 118.613 76.6698 118.814 77.1551C119.015 77.6405 119.067 78.1746 118.965 78.6898C118.862 79.2051 118.609 79.6784 118.238 80.0499C117.866 80.4214 117.393 80.6744 116.878 80.7768C116.362 80.8793 115.828 80.8267 115.343 80.6257C114.858 80.4246 114.443 80.0842 114.151 79.6474C113.859 79.2105 113.703 78.697 113.703 78.1716C113.703 77.4672 113.983 76.7915 114.481 76.2934C114.979 75.7952 115.655 75.5154 116.36 75.5154ZM95.1095 47.6248C96.1603 47.6248 97.1874 47.9363 98.061 48.5201C98.9347 49.1038 99.6156 49.9335 100.018 50.9043C100.42 51.875 100.525 52.9431 100.32 53.9737C100.115 55.0042 99.609 55.9508 98.866 56.6938C98.1231 57.4367 97.1765 57.9427 96.146 58.1477C95.1154 58.3527 94.0473 58.2475 93.0765 57.8454C92.1058 57.4433 91.2761 56.7624 90.6924 55.8887C90.1086 55.0151 89.797 53.988 89.797 52.9373C89.797 51.5283 90.3568 50.177 91.353 49.1808C92.3493 48.1845 93.7006 47.6248 95.1095 47.6248ZM45.9689 92.781C45.1809 92.781 44.4105 92.5473 43.7553 92.1095C43.1001 91.6717 42.5894 91.0494 42.2878 90.3214C41.9863 89.5933 41.9074 88.7922 42.0611 88.0193C42.2148 87.2464 42.5943 86.5365 43.1515 85.9793C43.7088 85.422 44.4187 85.0426 45.1916 84.8888C45.9645 84.7351 46.7656 84.814 47.4937 85.1156C48.2217 85.4171 48.844 85.9278 49.2818 86.583C49.7196 87.2383 49.9533 88.0086 49.9533 88.7966C49.9533 89.8534 49.5335 90.8668 48.7863 91.614C48.0391 92.3612 47.0256 92.781 45.9689 92.781ZM72.5314 108.719C72.5314 110.032 72.142 111.316 71.4123 112.408C70.6826 113.5 69.6455 114.351 68.432 114.854C67.2186 115.356 65.8834 115.488 64.5953 115.232C63.3071 114.975 62.1239 114.343 61.1952 113.414C60.2665 112.485 59.634 111.302 59.3778 110.014C59.1215 108.726 59.253 107.391 59.7557 106.177C60.2583 104.964 61.1094 103.927 62.2015 103.197C63.2935 102.467 64.5774 102.078 65.8908 102.078C67.6513 102.08 69.3392 102.78 70.5841 104.025C71.829 105.27 72.5293 106.958 72.5314 108.719ZM41.9845 51.6091C41.9804 49.8828 42.397 48.1814 43.1983 46.6523C43.9995 45.1231 45.1613 43.8123 46.5832 42.8331C48.005 41.8539 49.644 41.236 51.3583 41.0327C53.0726 40.8294 54.8107 41.0469 56.4221 41.6663C58.0335 42.2858 59.4696 43.2886 60.6063 44.5879C61.743 45.8872 62.546 47.444 62.9457 49.1234C63.3455 50.8029 63.33 52.5544 62.9006 54.2265C62.4712 55.8986 61.6408 57.4409 60.4813 58.7199C60.5426 58.5706 60.5755 58.4111 60.5783 58.2498C60.5816 57.2029 60.3772 56.1657 59.9769 55.1984C59.5766 54.2311 58.9883 53.3529 58.2461 52.6145C57.7168 52.0853 57.116 51.6329 56.4611 51.2705C57.1789 50.5179 57.66 49.5712 57.8448 48.5477C58.0296 47.5242 57.9099 46.469 57.5006 45.5129C57.0913 44.5568 56.4103 43.7419 55.5422 43.1693C54.674 42.5966 53.6569 42.2913 52.6168 42.2913C51.5768 42.2913 50.5597 42.5966 49.6915 43.1693C48.8234 43.7419 48.1424 44.5568 47.7331 45.5129C47.3238 46.469 47.2041 47.5242 47.3889 48.5477C47.5736 49.5712 48.0548 50.5179 48.7726 51.2705C47.5222 51.9574 46.4791 52.9674 45.7523 54.1951C45.0255 55.4228 44.6417 56.8231 44.6408 58.2498C44.6435 58.4095 44.675 58.5674 44.7338 58.7159C42.9659 56.771 41.9858 54.2374 41.9845 51.6091ZM52.6095 50.281C52.0842 50.281 51.5706 50.1252 51.1338 49.8333C50.697 49.5415 50.3565 49.1266 50.1555 48.6413C49.9544 48.1559 49.9018 47.6218 50.0043 47.1065C50.1068 46.5913 50.3598 46.118 50.7313 45.7465C51.1028 45.375 51.5761 45.122 52.0913 45.0195C52.6066 44.9171 53.1407 44.9697 53.626 45.1707C54.1114 45.3717 54.5263 45.7122 54.8181 46.149C55.11 46.5858 55.2658 47.0994 55.2658 47.6248C55.2658 48.3292 54.9859 49.0049 54.4878 49.503C53.9897 50.0012 53.314 50.281 52.6095 50.281ZM52.6095 52.9373C53.7873 52.9373 54.9317 53.3286 55.8628 54.0498C56.7939 54.7711 57.4589 55.7813 57.7534 56.9216H47.4644C47.7603 55.7818 48.4259 54.7724 49.357 54.0514C50.2881 53.3304 51.432 52.9386 52.6095 52.9373ZM45.5041 59.4849C45.6521 59.5439 45.8096 59.5754 45.9689 59.5779H59.2502C59.4119 59.5756 59.5718 59.5432 59.7217 59.4823C57.7778 61.2508 55.2442 62.2308 52.6162 62.2308C49.9882 62.2308 47.4546 61.2508 45.5107 59.4823L45.5041 59.4849ZM65.8908 79.4998C65.8908 76.6103 66.7476 73.7857 68.3529 71.3832C69.9582 68.9807 72.2399 67.1082 74.9094 66.0025C77.5789 64.8967 80.5164 64.6074 83.3503 65.1711C86.1843 65.7348 88.7874 67.1262 90.8306 69.1694C92.8737 71.2125 94.2651 73.8157 94.8288 76.6496C95.3925 79.4836 95.1032 82.421 93.9975 85.0905C92.8917 87.76 91.0192 90.0417 88.6167 91.647C86.2142 93.2523 83.3896 94.1091 80.5002 94.1091C76.6269 94.1046 72.9136 92.5639 70.1748 89.8251C67.436 87.0863 65.8954 83.373 65.8908 79.4998ZM101.285 115.266C101.433 115.325 101.591 115.357 101.75 115.359H115.031C115.193 115.357 115.353 115.324 115.503 115.264C113.559 117.032 111.025 118.012 108.397 118.012C105.769 118.012 103.236 117.032 101.292 115.264L101.285 115.266ZM108.391 106.062C107.865 106.062 107.352 105.906 106.915 105.615C106.478 105.323 106.138 104.908 105.937 104.423C105.736 103.937 105.683 103.403 105.786 102.888C105.888 102.373 106.141 101.899 106.513 101.528C106.884 101.156 107.357 100.903 107.873 100.801C108.388 100.698 108.922 100.751 109.407 100.952C109.893 101.153 110.308 101.493 110.599 101.93C110.891 102.367 111.047 102.881 111.047 103.406C111.047 104.11 110.767 104.786 110.269 105.284C109.771 105.782 109.095 106.062 108.391 106.062ZM108.391 108.719C109.569 108.718 110.713 109.11 111.644 109.831C112.575 110.552 113.24 111.563 113.535 112.703H103.246C103.542 111.563 104.207 110.554 105.138 109.833C106.069 109.112 107.213 108.72 108.391 108.719ZM116.261 114.501C116.323 114.352 116.356 114.192 116.36 114.031C116.363 112.984 116.158 111.947 115.758 110.98C115.358 110.012 114.77 109.134 114.027 108.396C113.498 107.867 112.897 107.414 112.242 107.052C112.96 106.299 113.441 105.352 113.626 104.329C113.811 103.305 113.691 102.25 113.282 101.294C112.873 100.338 112.192 99.5232 111.323 98.9505C110.455 98.3778 109.438 98.0726 108.398 98.0726C107.358 98.0726 106.341 98.3778 105.473 98.9505C104.605 99.5232 103.924 100.338 103.514 101.294C103.105 102.25 102.985 103.305 103.17 104.329C103.355 105.352 103.836 106.299 104.554 107.052C103.303 107.739 102.26 108.749 101.534 109.976C100.807 111.204 100.423 112.604 100.422 114.031C100.425 114.191 100.456 114.349 100.515 114.497C99.1339 112.973 98.225 111.081 97.8985 109.05C97.572 107.019 97.842 104.937 98.6757 103.057C99.5094 101.176 100.871 99.5784 102.595 98.4568C104.319 97.3352 106.332 96.7382 108.389 96.7382C110.446 96.7382 112.458 97.3352 114.183 98.4568C115.907 99.5784 117.268 101.176 118.102 103.057C118.936 104.937 119.206 107.019 118.879 109.05C118.553 111.081 117.644 112.973 116.263 114.497L116.261 114.501Z" fill="#5B7B3B"></path>
</svg>
