<?xml version="1.0" encoding="UTF-8"?>
<svg xmlns="http://www.w3.org/2000/svg" width="100" height="100" viewBox="0 0 100 100" fill="none">
  <circle cx="50" cy="50" r="49" fill="white" stroke="#5B7B3B" stroke-width="2"></circle>
  <g clip-path="url(#clip0_297_1453)">
    <path d="M46.6663 68.3332C50.9806 68.3384 55.197 67.0483 58.7696 64.6298L67.9713 73.8007C68.3702 74.2038 68.8481 74.52 69.3751 74.7295C69.9021 74.9389 70.4667 75.0371 71.0334 75.0178C71.6002 74.9985 72.1568 74.8621 72.6683 74.6173C73.1798 74.3724 73.6351 74.0244 74.0056 73.5951C74.3761 73.1658 74.6538 72.6645 74.8212 72.1227C74.9885 71.5809 75.042 71.0103 74.9782 70.4468C74.9144 69.8833 74.7347 69.3392 74.4504 68.8485C74.1661 68.3578 73.7834 67.9313 73.3263 67.5957L63.4688 60.3265C66.5663 56.511 68.2739 51.7555 68.3111 46.8411C68.3482 41.9267 66.7127 37.1459 63.6733 33.284C60.6339 29.4221 56.3713 26.7089 51.5858 25.5901C46.8003 24.4713 41.7766 25.0135 37.3401 27.1276C32.9035 29.2417 29.318 32.8019 27.1726 37.2234C25.0271 41.6449 24.4494 46.6646 25.5343 51.4579C26.6191 56.2511 29.3021 60.5328 33.1424 63.5996C36.9827 66.6663 41.7518 68.3355 46.6663 68.3332ZM72.3396 68.939C72.6225 69.1463 72.8571 69.4124 73.0273 69.719C73.1976 70.0256 73.2994 70.3654 73.3257 70.7151C73.3521 71.0648 73.3024 71.4161 73.1801 71.7447C73.0578 72.0734 72.8657 72.3716 72.6171 72.619C72.1482 73.0625 71.5272 73.3096 70.8817 73.3096C70.2363 73.3096 69.6153 73.0625 69.1463 72.619L60.1246 63.6282C60.9162 62.9986 61.6635 62.3153 62.3613 61.5832L72.3396 68.939ZM46.6663 26.6665C50.6219 26.6665 54.4887 27.8395 57.7777 30.0371C61.0667 32.2347 63.6301 35.3583 65.1439 39.0128C66.6577 42.6674 67.0537 46.6887 66.282 50.5683C65.5103 54.4479 63.6055 58.0116 60.8084 60.8086C58.0114 63.6057 54.4477 65.5105 50.5681 66.2822C46.6885 67.0539 42.6672 66.6578 39.0126 65.1441C35.3581 63.6303 32.2345 61.0669 30.0369 57.7779C27.8393 54.4889 26.6663 50.6221 26.6663 46.6665C26.6725 41.3641 28.7816 36.2806 32.531 32.5312C36.2804 28.7818 41.3639 26.6727 46.6663 26.6665Z" fill="#5B7B3B"></path>
    <path d="M35.833 39.1668V54.1668C35.833 55.0509 36.1842 55.8987 36.8093 56.5239C37.4344 57.149 38.2823 57.5002 39.1663 57.5002H54.1663C55.0504 57.5002 55.8982 57.149 56.5234 56.5239C57.1485 55.8987 57.4997 55.0509 57.4997 54.1668V39.1668C57.4997 38.2828 57.1485 37.4349 56.5234 36.8098C55.8982 36.1847 55.0504 35.8335 54.1663 35.8335H39.1663C38.2823 35.8335 37.4344 36.1847 36.8093 36.8098C36.1842 37.4349 35.833 38.2828 35.833 39.1668ZM54.1663 55.8335H39.1663C38.7243 55.8335 38.3004 55.6579 37.9878 55.3453C37.6753 55.0328 37.4997 54.6089 37.4997 54.1668V44.1668H55.833V54.1668C55.833 54.6089 55.6574 55.0328 55.3449 55.3453C55.0323 55.6579 54.6084 55.8335 54.1663 55.8335ZM55.833 39.1668V42.5002H37.4997V39.1668C37.4997 38.7248 37.6753 38.3009 37.9878 37.9883C38.3004 37.6758 38.7243 37.5002 39.1663 37.5002H54.1663C54.6084 37.5002 55.0323 37.6758 55.3449 37.9883C55.6574 38.3009 55.833 38.7248 55.833 39.1668Z" fill="#5B7B3B"></path>
    <path d="M46.6667 64.9999C51.529 64.9999 56.1922 63.0684 59.6304 59.6302C63.0685 56.192 65.0001 51.5289 65.0001 46.6666C65.0001 41.8043 63.0685 37.1411 59.6304 33.703C56.1922 30.2648 51.529 28.3333 46.6667 28.3333C46.4457 28.3333 46.2337 28.421 46.0775 28.5773C45.9212 28.7336 45.8334 28.9456 45.8334 29.1666C45.8334 29.3876 45.9212 29.5996 46.0775 29.7558C46.2337 29.9121 46.4457 29.9999 46.6667 29.9999C50.8659 30.0016 54.9096 31.5889 57.9886 34.4442C61.0677 37.2995 62.955 41.2121 63.273 45.3992C63.5909 49.5864 62.316 53.7391 59.7034 57.0266C57.0908 60.3141 53.3332 62.4938 49.1824 63.1295C45.0316 63.7653 40.7939 62.8102 37.3171 60.4555C33.8403 58.1007 31.3809 54.5199 30.431 50.4295C29.4811 46.3392 30.1108 42.041 32.1941 38.3951C34.2774 34.7491 37.6606 32.0242 41.6667 30.7658C41.8776 30.6994 42.0534 30.5521 42.1557 30.3561C42.2579 30.1601 42.278 29.9316 42.2117 29.7208C42.1454 29.5099 41.9981 29.334 41.8021 29.2318C41.6061 29.1296 41.3776 29.1094 41.1667 29.1758C36.9868 30.4886 33.4153 33.255 31.099 36.9739C28.7826 40.6927 27.8747 45.1182 28.5395 49.4487C29.2044 53.7792 31.3981 57.7284 34.7233 60.5811C38.0486 63.4338 42.2855 65.0014 46.6667 64.9999Z" fill="#5B7B3B"></path>
    <path d="M40.0003 40.8332H40.8337C41.0547 40.8332 41.2666 40.7454 41.4229 40.5891C41.5792 40.4328 41.667 40.2209 41.667 39.9998C41.667 39.7788 41.5792 39.5669 41.4229 39.4106C41.2666 39.2543 41.0547 39.1665 40.8337 39.1665H40.0003C39.7793 39.1665 39.5673 39.2543 39.4111 39.4106C39.2548 39.5669 39.167 39.7788 39.167 39.9998C39.167 40.2209 39.2548 40.4328 39.4111 40.5891C39.5673 40.7454 39.7793 40.8332 40.0003 40.8332Z" fill="#5B7B3B"></path>
    <path d="M44.1663 40.8332H44.9997C45.2207 40.8332 45.4327 40.7454 45.5889 40.5891C45.7452 40.4328 45.833 40.2209 45.833 39.9998C45.833 39.7788 45.7452 39.5669 45.5889 39.4106C45.4327 39.2543 45.2207 39.1665 44.9997 39.1665H44.1663C43.9453 39.1665 43.7334 39.2543 43.5771 39.4106C43.4208 39.5669 43.333 39.7788 43.333 39.9998C43.333 40.2209 43.4208 40.4328 43.5771 40.5891C43.7334 40.7454 43.9453 40.8332 44.1663 40.8332Z" fill="#5B7B3B"></path>
    <path d="M52.5 52.4999H51.6667V49.1666C51.6667 48.9456 51.5789 48.7336 51.4226 48.5773C51.2663 48.421 51.0543 48.3333 50.8333 48.3333C50.6123 48.3333 50.4004 48.421 50.2441 48.5773C50.0878 48.7336 50 48.9456 50 49.1666V52.4999H48.3333V47.4999C48.3333 47.2789 48.2455 47.0669 48.0893 46.9107C47.933 46.7544 47.721 46.6666 47.5 46.6666C47.279 46.6666 47.067 46.7544 46.9107 46.9107C46.7545 47.0669 46.6667 47.2789 46.6667 47.4999V52.4999H45V49.9999C45 49.7789 44.9122 49.5669 44.7559 49.4107C44.5996 49.2544 44.3877 49.1666 44.1667 49.1666C43.9457 49.1666 43.7337 49.2544 43.5774 49.4107C43.4211 49.5669 43.3333 49.7789 43.3333 49.9999V52.4999H41.6667V46.6666C41.6667 46.4456 41.5789 46.2336 41.4226 46.0773C41.2663 45.921 41.0543 45.8333 40.8333 45.8333C40.6123 45.8333 40.4004 45.921 40.2441 46.0773C40.0878 46.2336 40 46.4456 40 46.6666V53.3333C40 53.5543 40.0878 53.7662 40.2441 53.9225C40.4004 54.0788 40.6123 54.1666 40.8333 54.1666H52.5C52.721 54.1666 52.933 54.0788 53.0893 53.9225C53.2455 53.7662 53.3333 53.5543 53.3333 53.3333C53.3333 53.1122 53.2455 52.9003 53.0893 52.744C52.933 52.5877 52.721 52.4999 52.5 52.4999Z" fill="#5B7B3B"></path>
  </g>
  <defs>
    <clipPath id="clip0_297_1453">
      <rect width="50" height="50" fill="white" transform="translate(25 25)"></rect>
    </clipPath>
  </defs>
</svg>
