<?xml version="1.0" encoding="UTF-8"?>
<svg xmlns="http://www.w3.org/2000/svg" width="160" height="160" viewBox="0 0 160 160" fill="none">
  <circle cx="80" cy="80" r="78.5" fill="white" stroke="#5B7B3B" stroke-width="3"></circle>
  <path d="M48.625 104.734H76.5156V107.391H48.625V104.734Z" fill="#5B7B3B"></path>
  <path d="M121.283 92.5063L105.952 77.1758L107.062 76.0655L107.452 76.4546C107.711 76.7136 108.051 76.8438 108.391 76.8438C108.731 76.8438 109.071 76.7136 109.33 76.4546L113.314 72.4702C113.833 71.9509 113.833 71.1116 113.314 70.5923L104.017 61.2954C103.498 60.7761 102.658 60.7761 102.139 61.2954L98.1548 65.2798C97.6355 65.7991 97.6355 66.6384 98.1548 67.1577L98.5439 67.5469L95.1094 70.9814V39.6562C95.1094 38.9231 94.5144 38.3281 93.7812 38.3281H40.6562C39.9231 38.3281 39.3281 38.9231 39.3281 39.6562V106.062C39.3281 109.724 42.3071 112.703 45.9688 112.703H76.5156V110.047H45.9688C43.772 110.047 41.9844 108.259 41.9844 106.062C41.9844 103.866 43.772 102.078 45.9688 102.078H76.5156V99.4219H52.6094V40.9844H92.4531V73.6377L91.125 74.9658L90.7359 74.5766C90.2166 74.0573 89.3772 74.0573 88.8579 74.5766L84.8735 78.561C84.3542 79.0803 84.3542 79.9197 84.8735 80.439L94.1704 89.7359C94.4294 89.9948 94.7694 90.125 95.1094 90.125C95.4494 90.125 95.7894 89.9948 96.0484 89.7359L100.033 85.7515C100.552 85.2322 100.552 84.3928 100.033 83.8735L99.6436 83.4844L100.754 82.3741L116.084 97.7046C116.343 97.9636 116.683 98.0938 117.023 98.0938C117.363 98.0938 117.703 97.9636 117.962 97.7046L121.283 94.3843C121.802 93.865 121.802 93.0256 121.283 92.5063ZM49.9531 99.4219H45.9688C44.468 99.4219 43.0973 99.9412 41.9844 100.785V40.9844H49.9531V99.4219ZM103.078 64.1123L110.497 71.5312L108.391 73.6377L100.972 66.2188L103.078 64.1123ZM95.1094 86.9189L87.6905 79.5L89.7969 77.3936L97.2158 84.8125L95.1094 86.9189ZM93.003 76.8438L100.422 69.4248L105.185 74.1875L97.7656 81.6064L93.003 76.8438ZM117.023 94.8877L102.632 80.4961L104.074 79.0537L118.466 93.4453L117.023 94.8877Z" fill="#5B7B3B"></path>
  <path d="M100.422 112.703H99.0938V108.719C99.0938 107.984 98.4988 107.391 97.7656 107.391H81.8281C81.095 107.391 80.5 107.984 80.5 108.719V112.703H79.1719C78.4388 112.703 77.8438 113.297 77.8438 114.031V119.344C77.8438 120.078 78.4388 120.672 79.1719 120.672H100.422C101.155 120.672 101.75 120.078 101.75 119.344V114.031C101.75 113.297 101.155 112.703 100.422 112.703ZM83.1562 110.047H96.4375V112.703H83.1562V110.047ZM99.0938 118.016H80.5V115.359H99.0938V118.016Z" fill="#5B7B3B"></path>
  <path d="M94.2009 91.5223C93.659 91.3391 93.0613 91.5277 92.7187 91.9859L89.7968 95.8799L86.8749 91.9845C86.5323 91.5263 85.9346 91.3377 85.3927 91.521C84.8495 91.703 84.4843 92.209 84.4843 92.7814V97.8017L79.4321 96.791C78.8796 96.6768 78.3258 96.9252 78.0376 97.4033C77.7467 97.8788 77.7866 98.487 78.1345 98.924L83.447 105.565L85.5216 103.904L82.4868 100.111L85.5521 100.725C85.9426 100.801 86.3463 100.701 86.6545 100.45C86.9626 100.196 87.1405 99.8205 87.1405 99.422V96.7658L88.7343 98.8908C89.235 99.5602 90.3586 99.5602 90.8593 98.8908L92.453 96.7658V99.422C92.453 99.8205 92.631 100.196 92.9391 100.449C93.2459 100.7 93.6497 100.799 94.0415 100.724L97.1068 100.11L94.072 103.903L96.1466 105.563L101.459 98.9227C101.808 98.487 101.847 97.8788 101.556 97.402C101.265 96.9238 100.707 96.6742 100.161 96.7897L95.1093 97.8017V92.7814C95.1093 92.209 94.7441 91.703 94.2009 91.5223Z" fill="#5B7B3B"></path>
  <path d="M71.2027 72.8594H68.5464C65.6166 72.8594 63.2339 75.242 63.2339 78.1719V79.5C63.2339 80.2331 63.8289 80.8281 64.562 80.8281H80.4995C81.2327 80.8281 81.8277 80.2331 81.8277 79.5V78.1719C81.8277 75.242 79.445 72.8594 76.5152 72.8594H73.8589V56.9219H79.6788L76.6559 62.9688L76.6679 62.9755C76.5776 63.1534 76.5152 63.3487 76.5152 63.5625V64.8906C76.5152 67.8205 78.8978 70.2031 81.8277 70.2031C84.7575 70.2031 87.1402 67.8205 87.1402 64.8906V63.5625C87.1402 63.3487 87.0777 63.1534 86.9874 62.9741L86.9994 62.9675L83.9766 56.9219H87.1402C87.4921 56.9219 87.8308 56.7824 88.0791 56.5327L90.7354 53.8765L88.8574 51.9985L86.5903 54.2656H73.8589V51.365C75.4009 50.8152 76.5152 49.3542 76.5152 47.625C76.5152 45.4283 74.7275 43.6406 72.5308 43.6406C70.3341 43.6406 68.5464 45.4283 68.5464 47.625C68.5464 49.3542 69.6607 50.8152 71.2027 51.365V54.2656H58.4712L56.2041 51.9985L54.3262 53.8765L56.9824 56.5327C57.2308 56.7824 57.5695 56.9219 57.9214 56.9219H61.085L58.0622 62.9688L58.0741 62.9755C57.9838 63.1534 57.9214 63.3487 57.9214 63.5625V64.8906C57.9214 67.8205 60.3041 70.2031 63.2339 70.2031C66.1637 70.2031 68.5464 67.8205 68.5464 64.8906V63.5625C68.5464 63.3487 68.484 63.1534 68.3937 62.9741L68.4056 62.9675L65.3828 56.9219H71.2027V72.8594ZM79.1714 78.1719H65.8902C65.8902 76.707 67.0815 75.5156 68.5464 75.5156H76.5152C77.9801 75.5156 79.1714 76.707 79.1714 78.1719ZM81.8277 58.5634L83.6631 62.2344H79.9922L81.8277 58.5634ZM81.8277 67.5469C80.3627 67.5469 79.1714 66.3555 79.1714 64.8906H84.4839C84.4839 66.3555 83.2926 67.5469 81.8277 67.5469ZM72.5308 46.2969C73.2626 46.2969 73.8589 46.8932 73.8589 47.625C73.8589 48.3568 73.2626 48.9531 72.5308 48.9531C71.799 48.9531 71.2027 48.3568 71.2027 47.625C71.2027 46.8932 71.799 46.2969 72.5308 46.2969ZM63.2339 58.5634L65.0694 62.2344H61.3984L63.2339 58.5634ZM63.2339 67.5469C61.769 67.5469 60.5777 66.3555 60.5777 64.8906H65.8902C65.8902 66.3555 64.6988 67.5469 63.2339 67.5469Z" fill="#5B7B3B"></path>
</svg>
