<?xml version="1.0" encoding="UTF-8"?>
<svg xmlns="http://www.w3.org/2000/svg" width="254" height="252" viewBox="0 0 254 252" fill="none">
  <path opacity="0.03" d="M221.596 53.4018H149.639C146.768 49.1873 143.514 45.2495 139.918 41.6391C107.999 9.58123 56.2519 9.58123 24.3329 41.6391C-3.04427 69.1225 -6.9387 111.244 12.6187 142.905V232.79C12.6187 237.742 14.5772 242.491 18.0634 245.993C21.5497 249.495 26.2782 251.463 31.2089 251.463H164.972C163.297 249.581 161.787 247.557 160.458 245.415C156.16 238.52 153.804 230.317 153.391 220.807H183.242C183.665 224.179 184.597 227.046 186.038 229.407C187.376 231.666 189.288 233.528 191.578 234.802C193.827 236.037 196.429 236.655 199.384 236.657C204.868 236.657 209.104 235.027 212.094 231.767C215.084 228.506 216.579 223.916 216.577 217.996V214.152C216.577 207.936 215.364 203.139 212.938 199.763C210.512 196.387 207.048 194.701 202.546 194.704H189.574V165.024H202.546C206.204 165.024 209.035 163.544 211.04 160.584C213.044 157.624 214.047 153.484 214.047 148.164V145.353C214.047 140.333 212.939 136.455 210.722 133.717C208.506 130.98 205.395 129.613 201.388 129.614C198.855 129.593 196.375 130.337 194.268 131.749C192.122 133.174 190.31 135.235 188.833 137.932C187.356 140.629 186.302 143.893 185.669 147.723H155.921C156.766 137.756 159.28 129.156 163.465 121.924C167.65 114.692 173.118 109.183 179.868 105.397C186.619 101.612 194.144 99.7194 202.443 99.7194C216.015 99.7194 226.511 103.411 233.932 110.793C236.449 113.309 238.56 116.204 240.186 119.375V72.0858C240.187 69.633 239.707 67.204 238.773 64.9375C237.839 62.6711 236.47 60.6115 234.744 58.8765C233.018 57.1415 230.968 55.765 228.712 54.8257C226.456 53.8863 224.038 53.4025 221.596 53.4018Z" fill="#EAEAEA"></path>
  <path opacity="0.06" d="M221.965 52.8998H150.008C147.137 48.6853 143.883 44.7475 140.287 41.1372C108.371 9.07928 56.6211 9.07928 24.7047 41.1372C-2.65956 68.6205 -6.56179 110.742 12.9955 142.403V232.288C12.9955 237.24 14.9544 241.99 18.4413 245.492C21.9281 248.994 26.6572 250.961 31.5883 250.961H165.348C163.674 249.079 162.164 247.055 160.835 244.913C156.547 238.018 154.191 229.815 153.768 220.305H183.621C184.042 223.674 184.974 226.541 186.417 228.905C187.754 231.165 189.665 233.027 191.954 234.3C194.203 235.535 196.806 236.153 199.761 236.155C205.248 236.155 209.484 234.525 212.471 231.265C215.458 228.004 216.952 223.407 216.954 217.474V213.65C216.954 207.434 215.74 202.637 213.314 199.261C210.888 195.885 207.426 194.199 202.926 194.202H189.95V164.522H202.926C206.581 164.522 209.411 163.042 211.416 160.082C213.421 157.123 214.423 152.978 214.423 147.649V144.851C214.423 139.829 213.316 135.951 211.102 133.216C208.887 130.48 205.775 129.112 201.765 129.112C199.232 129.091 196.751 129.835 194.644 131.247C192.499 132.672 190.687 134.733 189.21 137.43C187.733 140.127 186.677 143.386 186.043 147.206H156.293C157.139 137.238 159.654 128.638 163.837 121.406C168.02 114.174 173.488 108.665 180.24 104.88C186.992 101.095 194.517 99.2019 202.815 99.2019C216.386 99.2019 226.882 102.893 234.303 110.276C236.821 112.79 238.932 115.686 240.557 118.857V71.5683C240.556 66.6167 238.597 61.8683 235.11 58.3674C231.623 54.8665 226.895 52.8998 221.965 52.8998Z" fill="#EAEAEA"></path>
  <path opacity="0.08" d="M222.339 52.3998H150.382C147.509 48.1859 144.254 44.2482 140.658 40.6372C108.742 8.57928 56.9922 8.57928 25.0758 40.6372C-2.28847 68.1205 -6.1907 110.242 13.3667 141.903V231.788C13.3667 236.74 15.3255 241.49 18.8124 244.992C22.2992 248.494 27.0283 250.461 31.9594 250.461H165.722C164.046 248.58 162.535 246.556 161.206 244.413C156.916 237.518 154.561 229.311 154.139 219.792H183.992C184.415 223.165 185.347 226.032 186.788 228.394C188.125 230.654 190.036 232.516 192.326 233.79C194.578 235.025 197.18 235.643 200.133 235.645C205.617 235.645 209.854 234.015 212.842 230.754C215.831 227.494 217.326 222.903 217.327 216.981V213.148C217.327 206.931 216.114 202.135 213.688 198.758C211.262 195.382 207.794 193.696 203.284 193.7H190.309V164.02H203.284C206.938 164.02 209.768 162.54 211.775 159.58C213.781 156.62 214.784 152.475 214.782 147.146V144.356C214.782 139.336 213.675 135.459 211.46 132.723C209.245 129.988 206.133 128.619 202.124 128.618C199.591 128.598 197.11 129.343 195.003 130.755C192.857 132.179 191.046 134.24 189.571 136.938C188.096 139.635 187.041 142.896 186.407 146.719H156.667C157.509 136.751 160.023 128.151 164.208 120.919C168.393 113.687 173.861 108.178 180.611 104.393C187.363 100.608 194.888 98.7149 203.186 98.7149C216.757 98.7149 227.254 102.406 234.674 109.789C237.196 112.3 239.309 115.192 240.939 118.36V71.0709C240.939 68.6182 240.457 66.1896 239.522 63.9238C238.587 61.658 237.217 59.5994 235.49 57.8656C233.762 56.1317 231.712 54.7566 229.456 53.8188C227.199 52.881 224.781 52.3988 222.339 52.3998Z" fill="#EAEAEA"></path>
  <path opacity="0.11" d="M222.71 51.8949H150.753C147.882 47.6798 144.627 43.742 141.03 40.1323C109.113 8.0744 57.3633 8.0744 25.4469 40.1323C-1.91742 67.6156 -5.81958 109.737 13.7378 141.398V231.283C13.7385 236.235 15.6976 240.984 19.1844 244.485C22.6711 247.987 27.3998 249.954 32.3305 249.954H166.093C164.417 248.074 162.906 246.051 161.577 243.908C157.287 237.013 154.932 228.81 154.51 219.3H184.364C184.787 222.673 185.719 225.539 187.159 227.9C188.495 230.161 190.407 232.024 192.697 233.298C194.947 234.533 197.55 235.151 200.504 235.153C205.989 235.153 210.226 233.523 213.216 230.262C216.206 227.002 217.7 222.411 217.699 216.489V212.645C217.699 206.429 216.486 201.632 214.059 198.256C211.633 194.88 208.17 193.194 203.668 193.197H190.693V163.525H203.668C207.325 163.525 210.156 162.045 212.161 159.085C214.166 156.125 215.168 151.981 215.166 146.652V143.839C215.166 138.819 214.059 134.94 211.844 132.203C209.629 129.466 206.518 128.1 202.51 128.105C199.977 128.086 197.497 128.83 195.389 130.242C193.243 131.667 191.433 133.728 189.958 136.425C188.482 139.122 187.422 142.383 186.778 146.206H157.038C157.882 136.239 160.396 127.638 164.579 120.404C168.763 113.17 174.23 107.662 180.982 103.88C187.735 100.095 195.259 98.2022 203.557 98.2022C217.129 98.2022 227.625 101.893 235.046 109.276C237.564 111.791 239.674 114.686 241.3 117.858V70.5686C241.3 65.6165 239.341 60.8672 235.855 57.3653C232.369 53.8633 227.64 51.8956 222.71 51.8949Z" fill="#EAEAEA"></path>
  <path opacity="0.14" d="M223.081 51.3922H151.124C148.252 47.1773 144.998 43.2387 141.403 39.6269C109.484 7.57162 57.737 7.57162 25.818 39.6269C-1.54633 67.1129 -5.44849 109.234 14.1089 140.893V230.778C14.1095 235.73 16.0687 240.479 19.5555 243.98C23.0422 247.482 27.771 249.449 32.7017 249.449H166.464C164.788 247.568 163.277 245.545 161.948 243.403C157.658 236.507 155.303 228.305 154.882 218.795H184.735C185.158 222.167 186.09 225.034 187.53 227.395C188.867 229.656 190.779 231.518 193.07 232.79C195.319 234.028 197.921 234.647 200.875 234.647C206.361 234.647 210.599 233.017 213.587 229.757C216.575 226.497 218.07 221.906 218.07 215.984V212.143C218.07 205.926 216.857 201.129 214.43 197.751C212.004 194.373 208.541 192.688 204.039 192.695H191.059V163.007H204.034C207.691 163.007 210.522 161.527 212.527 158.567C214.532 155.607 215.533 151.463 215.532 146.133V143.341C215.532 138.321 214.424 134.442 212.21 131.705C209.995 128.968 206.883 127.6 202.874 127.602C200.34 127.583 197.86 128.327 195.753 129.739C193.607 131.164 191.796 133.225 190.321 135.922C188.846 138.62 187.791 141.88 187.156 145.703H157.409C158.252 135.736 160.765 127.135 164.95 119.901C169.135 112.667 174.606 107.159 181.361 103.377C188.113 99.5921 195.638 97.6995 203.936 97.6995C217.511 97.6995 228.007 101.391 235.424 108.773C237.943 111.288 240.054 114.184 241.681 117.355V70.0659C241.681 67.613 241.2 65.1843 240.265 62.9184C239.33 60.6524 237.959 58.5936 236.232 56.8596C234.505 55.1255 232.454 53.7502 230.198 52.8121C227.941 51.874 225.523 51.3915 223.081 51.3922Z" fill="#EAEAEA"></path>
  <path opacity="0.17" d="M223.452 50.8898H151.495C148.624 46.6744 145.37 42.7357 141.774 39.1245C109.855 7.06918 58.1084 7.06918 26.1894 39.1245C-1.17485 66.6079 -5.07449 108.732 14.4828 140.391V230.275C14.4828 235.227 16.4415 239.976 19.9278 243.478C23.4141 246.979 28.1426 248.946 33.073 248.946H166.836C165.16 247.066 163.65 245.043 162.322 242.9C158.024 236.005 155.667 227.798 155.253 218.279H185.101C185.524 221.652 186.456 224.519 187.897 226.879C189.234 229.14 191.146 231.002 193.436 232.275C195.685 233.513 198.287 234.132 201.241 234.132C206.726 234.132 210.963 232.502 213.953 229.242C216.943 225.981 218.437 221.39 218.436 215.469V211.64C218.436 205.423 217.223 200.626 214.797 197.248C212.37 193.871 208.907 192.184 204.405 192.189H191.433V162.512H204.405C208.063 162.512 210.894 161.032 212.898 158.072C214.903 155.112 215.906 150.968 215.906 145.639V142.839C215.906 137.819 214.797 133.94 212.581 131.203C210.365 128.466 207.254 127.098 203.247 127.1C200.714 127.079 198.233 127.824 196.126 129.237C193.981 130.661 192.169 132.723 190.692 135.42C189.215 138.117 188.16 141.378 187.528 145.201H157.78C158.625 135.233 161.138 126.633 165.322 119.399C169.505 112.165 174.973 106.657 181.727 102.875C188.478 99.0897 196.003 97.197 204.302 97.197C217.873 97.197 228.37 100.888 235.79 108.271C238.309 110.786 240.419 113.681 242.045 116.852V69.5634C242.044 64.6111 240.085 59.8617 236.598 56.3599C233.112 52.8581 228.383 50.8904 223.452 50.8898Z" fill="#EAEAEA"></path>
  <path opacity="0.19" d="M223.824 50.3873H151.867C148.996 46.1719 145.742 42.2333 142.147 38.622C110.23 6.56674 58.4805 6.56674 26.5615 38.622C-0.80278 66.1054 -4.70242 108.229 14.8549 139.888V229.773C14.8549 234.725 16.8136 239.474 20.2999 242.975C23.7862 246.477 28.5147 248.444 33.4451 248.444H167.203C165.528 246.563 164.018 244.54 162.689 242.398C158.391 235.502 156.035 227.295 155.622 217.777H185.489C185.91 221.149 186.842 224.016 188.284 226.377C189.621 228.637 191.532 230.499 193.822 231.772C196.071 233.011 198.673 233.629 201.629 233.627C207.112 233.627 211.348 231.997 214.338 228.737C217.328 225.476 218.823 220.886 218.821 214.966V211.138C218.821 204.921 217.608 200.124 215.182 196.746C212.756 193.368 209.292 191.682 204.791 191.687H191.818V162.01H204.791C208.448 162.01 211.279 160.53 213.284 157.57C215.288 154.61 216.291 150.465 216.291 145.136V142.336C216.291 137.316 215.183 133.438 212.966 130.7C210.75 127.963 207.639 126.596 203.633 126.597C201.099 126.577 198.618 127.321 196.512 128.734C194.366 130.159 192.554 132.22 191.077 134.917C189.6 137.615 188.546 140.874 187.913 144.696H158.15C158.993 134.732 161.507 126.132 165.694 118.896C169.881 111.661 175.348 106.152 182.097 102.37C188.847 98.5881 196.372 96.6963 204.672 96.6946C218.243 96.6946 228.739 100.386 236.16 107.768C238.678 110.283 240.789 113.179 242.415 116.35V69.061C242.415 66.6088 241.934 64.1806 241 61.9151C240.066 59.6495 238.697 57.5909 236.971 55.8569C235.244 54.1228 233.195 52.7473 230.939 51.8088C228.683 50.8703 226.266 50.3873 223.824 50.3873Z" fill="#EAEAEA"></path>
  <path opacity="0.22" d="M224.196 49.8844H152.238C149.366 45.6696 146.111 41.731 142.515 38.1191C110.599 6.06381 58.849 6.06381 26.9326 38.1191C-0.43433 65.6103 -4.33392 107.726 15.2209 139.385V229.27C15.2205 231.722 15.7012 234.151 16.6355 236.416C17.5697 238.682 18.9392 240.741 20.6658 242.475C22.3923 244.209 24.4421 245.584 26.6981 246.523C28.954 247.461 31.3719 247.944 33.8136 247.943H167.574C165.899 246.062 164.389 244.04 163.06 241.898C158.77 235.002 156.415 226.799 155.994 217.289H185.847C186.268 220.662 187.2 223.529 188.643 225.889C189.979 228.15 191.89 230.012 194.18 231.285C196.429 232.523 199.031 233.141 201.987 233.14C207.473 233.14 211.71 231.51 214.697 228.249C217.683 224.989 219.178 220.399 219.182 214.479V210.632C219.182 204.416 217.969 199.619 215.543 196.243C213.117 192.867 209.653 191.181 205.151 191.184H192.176V161.507H205.151C208.807 161.507 211.637 160.027 213.642 157.067C215.647 154.107 216.649 149.963 216.649 144.633V141.833C216.649 136.813 215.542 132.935 213.327 130.197C211.113 127.46 208 126.093 203.991 126.094C201.458 126.074 198.977 126.818 196.87 128.231C194.724 129.656 192.914 131.717 191.438 134.415C189.963 137.112 188.908 140.371 188.274 144.193H158.524C159.37 134.227 161.884 125.627 166.068 118.393C170.251 111.159 175.719 105.651 182.471 101.867C189.223 98.0852 196.748 96.1934 205.046 96.1917C218.617 96.1917 229.113 99.8829 236.534 107.265C239.052 109.779 241.163 112.674 242.788 115.844V68.5581C242.789 66.1057 242.308 63.6773 241.374 61.4115C240.439 59.1458 239.07 57.0871 237.343 55.353C235.617 53.6189 233.567 52.2435 231.311 51.3051C229.055 50.3668 226.637 49.884 224.196 49.8844Z" fill="#EAEAEA"></path>
  <path opacity="0.25" d="M224.569 49.3819H152.612C149.74 45.1666 146.485 41.2279 142.889 37.6166C110.972 5.56131 59.2227 5.56131 27.3063 37.6166C-0.0580456 65.1 -3.96021 107.224 15.5971 138.883V228.767C15.5971 233.72 17.556 238.47 21.0429 241.971C24.5297 245.473 29.2588 247.441 34.1899 247.441H167.95C166.273 245.56 164.762 243.536 163.434 241.392C159.144 234.499 156.789 226.296 156.367 216.784H186.22C186.643 220.157 187.575 223.024 189.016 225.384C190.352 227.645 192.264 229.507 194.553 230.78C196.804 232.018 199.407 232.636 202.36 232.635C207.845 232.635 212.083 231.004 215.073 227.744C218.063 224.484 219.557 219.894 219.555 213.974V210.13C219.555 203.913 218.342 199.117 215.916 195.741C213.49 192.364 210.026 190.678 205.525 190.682H192.55V161.004H205.525C209.18 161.004 212.012 159.524 214.018 156.564C216.025 153.605 217.026 149.46 217.023 144.131V141.331C217.023 136.311 215.915 132.432 213.701 129.695C211.486 126.958 208.374 125.59 204.364 125.592C201.831 125.571 199.35 126.316 197.244 127.729C195.098 129.152 193.287 131.212 191.812 133.909C190.337 136.607 189.282 139.867 188.647 143.691H158.897C159.742 133.726 162.255 125.127 166.439 117.891C170.622 110.655 176.09 105.146 182.842 101.365C189.594 97.5827 197.119 95.6909 205.417 95.6892C218.988 95.6892 229.484 99.3804 236.905 106.763C239.424 109.278 241.534 112.173 243.159 115.345V68.0555C243.16 65.6034 242.679 63.1752 241.745 60.9096C240.811 58.6441 239.442 56.5855 237.715 54.8514C235.989 53.1174 233.94 51.7418 231.684 50.8034C229.428 49.8649 227.011 49.3819 224.569 49.3819Z" fill="#EAEAEA"></path>
  <path opacity="0.28" d="M224.949 48.8793H152.992C150.118 44.6638 146.859 40.7259 143.259 37.1166C111.34 5.06131 59.5899 5.06131 27.6735 37.1166C0.309181 64.6 -3.59304 106.721 15.9643 138.383V228.267C15.9643 233.22 17.9232 237.97 21.41 241.471C24.8968 244.973 29.626 246.941 34.5571 246.941H168.32C166.644 245.059 165.133 243.036 163.804 240.892C159.514 233.999 157.158 225.796 156.737 216.284H186.59C187.013 219.657 187.945 222.524 189.386 224.884C190.723 227.144 192.634 229.006 194.923 230.28C197.176 231.515 199.778 232.133 202.73 232.135C208.217 232.135 212.454 230.504 215.443 227.244C218.431 223.984 219.925 219.394 219.925 213.474V209.632C219.925 203.416 218.712 198.619 216.286 195.243C213.86 191.867 210.396 190.181 205.895 190.184H192.919V160.502H205.895C209.552 160.502 212.383 159.021 214.388 156.059C216.393 153.098 217.394 148.957 217.392 143.639V140.828C217.392 135.808 216.285 131.929 214.071 129.192C211.856 126.455 208.744 125.088 204.734 125.089C202.201 125.069 199.721 125.813 197.613 127.224C195.467 128.648 193.657 130.709 192.182 133.407C190.706 136.104 189.652 139.365 189.017 143.188H159.27C160.112 133.222 162.626 124.622 166.811 117.388C170.996 110.154 176.464 104.646 183.214 100.862C189.966 97.0801 197.491 95.1883 205.789 95.1866C219.36 95.1866 229.856 98.8769 237.277 106.258C239.795 108.774 241.906 111.669 243.534 114.839V67.5504C243.534 62.5996 241.575 57.8517 238.09 54.3505C234.605 50.8493 229.879 48.8813 224.949 48.8793Z" fill="#EAEAEA"></path>
  <path opacity="0.31" d="M225.312 48.377H153.355C150.485 44.1611 147.231 40.2224 143.635 36.6117C111.716 4.55643 59.9684 4.55643 28.0494 36.6117C0.685037 64.0951 -3.21461 106.216 16.3402 137.878V227.765C16.3409 232.717 18.3 237.467 21.7866 240.968C25.2733 244.47 30.0021 246.438 34.933 246.439H168.696C167.02 244.557 165.51 242.533 164.182 240.39C159.884 233.498 157.527 225.296 157.113 215.782H186.966C187.389 219.155 188.321 222.021 189.762 224.382C191.099 226.632 193.006 228.486 195.289 229.754C197.538 230.991 200.139 231.609 203.093 231.609C208.578 231.609 212.816 229.979 215.806 226.718C218.796 223.458 220.296 218.868 220.306 212.948V209.115C220.306 202.898 219.093 198.101 216.667 194.725C214.241 191.349 210.774 189.67 206.266 189.687H193.29V159.999H206.266C209.923 159.999 212.754 158.519 214.759 155.557C216.763 152.595 217.765 148.451 217.763 143.123V140.326C217.763 135.306 216.656 131.427 214.441 128.69C212.227 125.953 209.115 124.585 205.105 124.587C202.572 124.567 200.092 125.31 197.984 126.721C195.84 128.146 194.029 130.207 192.552 132.905C191.075 135.602 190.021 138.862 189.388 142.686H159.64C160.485 132.718 162.998 124.118 167.182 116.886C171.365 109.654 176.833 104.145 183.585 100.36C190.337 96.5778 197.862 94.686 206.16 94.6843C219.734 94.6843 230.231 98.3746 237.648 105.755C240.166 108.271 242.278 111.166 243.905 114.337V67.0481C243.904 62.096 241.945 57.3469 238.458 53.8455C234.972 50.344 230.243 48.377 225.312 48.377Z" fill="#EAEAEA"></path>
  <path opacity="0.33" d="M225.684 47.8746H153.727C150.856 43.6587 147.602 39.72 144.006 36.1093C112.087 4.05145 60.3398 4.05145 28.4209 36.1093C1.05656 63.5927 -2.84302 105.714 16.7143 137.376V227.247C16.7143 232.199 18.6728 236.948 22.1591 240.45C25.6454 243.952 30.3738 245.92 35.3045 245.921H169.067C167.392 244.039 165.882 242.015 164.554 239.872C160.255 232.98 157.899 224.777 157.484 215.264H187.337C187.76 218.637 188.692 221.503 190.133 223.864C191.472 226.123 193.384 227.985 195.673 229.26C197.922 230.494 200.524 231.113 203.478 231.114C208.964 231.114 213.202 229.484 216.19 226.224C219.178 222.963 220.672 218.373 220.672 212.454V208.622C220.672 202.406 219.459 197.609 217.033 194.233C214.607 190.857 211.142 189.169 206.637 189.169H193.664V159.497H206.637C210.294 159.497 213.125 158.016 215.13 155.055C217.135 152.093 218.137 147.953 218.137 142.634V139.823C218.137 134.803 217.029 130.925 214.813 128.188C212.596 125.451 209.485 124.083 205.479 124.085C202.945 124.065 200.464 124.81 198.358 126.224C196.212 127.649 194.401 129.71 192.924 132.407C191.447 135.105 190.392 138.365 189.759 142.188H160.012C160.856 132.221 163.37 123.621 167.553 116.389C171.736 109.157 177.205 103.648 183.959 99.8624C190.708 96.0788 198.233 94.1862 206.534 94.1844C220.105 94.1844 230.601 97.8757 238.022 105.258C240.54 107.774 242.65 110.669 244.276 113.84V66.5457C244.276 61.5936 242.317 56.8445 238.83 53.3431C235.343 49.8416 230.614 47.8746 225.684 47.8746Z" fill="#EAEAEA"></path>
  <path opacity="0.36" d="M226.056 47.3717H154.099C151.229 43.1558 147.974 39.2171 144.378 35.6064C112.462 3.54852 60.7118 3.54852 28.7953 35.6064C1.42844 63.0898 -2.47115 105.211 17.0862 136.873V226.757C17.0862 231.709 19.0447 236.458 22.531 239.96C26.0173 243.462 30.7457 245.43 35.6764 245.431H169.439C167.765 243.548 166.255 241.525 164.926 239.382C160.627 232.49 158.272 224.288 157.859 214.774H187.707C188.128 218.147 189.06 221.013 190.503 223.374C191.84 225.634 193.751 227.496 196.04 228.77C198.291 229.999 200.893 230.614 203.847 230.614C209.33 230.614 213.567 228.984 216.557 225.723C219.547 222.463 221.041 217.873 221.039 211.953V208.12C221.039 201.903 219.826 197.106 217.4 193.73C214.974 190.354 211.511 188.668 207.012 188.671H194.036V158.994H207.012C210.667 158.994 213.497 157.513 215.502 154.552C217.507 151.59 218.509 147.445 218.509 142.118V139.32C218.509 134.3 217.402 130.422 215.187 127.685C212.973 124.948 209.865 123.58 205.864 123.582C203.331 123.56 200.85 124.304 198.743 125.716C196.597 127.141 194.786 129.202 193.309 131.899C191.832 134.597 190.773 137.857 190.131 141.68H160.384C161.226 131.713 163.741 123.113 167.928 115.881C172.115 108.648 177.582 103.14 184.331 99.3543C191.08 95.5707 198.605 93.6781 206.906 93.6763C220.477 93.6763 230.973 97.3676 238.394 104.75C240.912 107.265 243.022 110.161 244.648 113.332V66.0427C244.648 63.5906 244.168 61.1625 243.233 58.897C242.299 56.6316 240.929 54.5732 239.203 52.8394C237.476 51.1056 235.426 49.7303 233.171 48.7922C230.915 47.854 228.497 47.3713 226.056 47.3717Z" fill="#EAEAEA"></path>
  <path opacity="0.39" d="M226.428 46.8666H154.471C151.599 42.6527 148.344 38.715 144.748 35.104C112.832 3.04607 61.082 3.04607 29.1656 35.104C1.80133 62.5873 -2.10082 104.709 17.4565 136.37V226.255C17.4565 231.207 19.4154 235.957 22.9022 239.459C26.389 242.961 31.1182 244.928 36.0493 244.928H169.809C168.135 243.046 166.625 241.022 165.296 238.88C161.006 231.984 158.65 223.782 158.229 214.272H188.067C188.488 217.644 189.42 220.511 190.862 222.872C192.199 225.131 194.11 226.993 196.4 228.267C198.649 229.502 201.251 230.12 204.207 230.122C209.692 230.122 213.928 228.492 216.917 225.231C219.905 221.971 221.403 217.376 221.412 211.446V207.617C221.412 201.4 220.199 196.604 217.773 193.228C215.347 189.852 211.883 188.166 207.382 188.169H194.406V158.489H207.382C211.037 158.489 213.867 157.009 215.872 154.049C217.877 151.089 218.879 146.949 218.879 141.629V138.818C218.879 133.796 217.772 129.918 215.557 127.182C213.343 124.447 210.231 123.079 206.221 123.079C203.688 123.058 201.207 123.801 199.1 125.214C196.954 126.638 195.144 128.699 193.668 131.397C192.193 134.094 191.138 137.355 190.504 141.178H160.754C161.6 131.21 164.115 122.61 168.298 115.378C172.481 108.146 177.949 102.637 184.701 98.8519C191.453 95.0683 198.978 93.1756 207.276 93.1739C220.847 93.1739 231.343 96.8651 238.764 104.248C241.282 106.762 243.393 109.658 245.018 112.829V65.5403C245.018 60.5882 243.06 55.8389 239.574 52.3369C236.087 48.835 231.359 46.8673 226.428 46.8666Z" fill="#EAEAEA"></path>
  <path opacity="0.42" d="M226.8 46.3643H154.843C151.972 42.1497 148.717 38.2119 145.12 34.6016C113.204 2.5437 61.4541 2.5437 29.5377 34.6016C2.17344 62.0849 -1.72878 104.206 17.8286 135.868V225.752C17.8292 230.704 19.7884 235.454 23.275 238.956C26.7617 242.458 31.4904 244.425 36.4213 244.426H170.184C168.508 242.544 166.997 240.52 165.668 238.377C161.378 231.482 159.022 223.279 158.601 213.769H188.454C188.877 217.142 189.809 220.009 191.25 222.372C192.587 224.632 194.498 226.494 196.787 227.767C199.04 229.004 201.642 229.622 204.594 229.622C210.081 229.622 214.318 227.992 217.307 224.732C220.295 221.471 221.788 216.87 221.784 210.928V207.115C221.784 200.898 220.571 196.102 218.145 192.725C215.719 189.349 212.255 187.663 207.754 187.667H194.773V157.987H207.749C211.404 157.987 214.235 156.507 216.242 153.547C218.248 150.587 219.25 146.442 219.246 141.113V138.313C219.246 133.293 218.139 129.415 215.924 126.68C213.71 123.945 210.598 122.576 206.588 122.574C204.055 122.555 201.574 123.299 199.467 124.711C197.321 126.136 195.511 128.197 194.035 130.894C192.56 133.592 191.505 136.852 190.871 140.675H161.129C161.971 130.708 164.485 122.108 168.67 114.876C172.855 107.644 178.323 102.135 185.073 98.3495C191.825 94.5642 199.35 92.6715 207.648 92.6715C221.219 92.6715 231.715 96.3627 239.136 103.745C241.655 106.26 243.765 109.156 245.391 112.327V65.0379C245.391 60.0858 243.432 55.3365 239.946 51.8346C236.46 48.3326 231.731 46.3649 226.8 46.3643Z" fill="#EAEAEA"></path>
  <path opacity="0.44" d="M227.171 45.8618H155.214C152.344 41.6473 149.089 37.7095 145.494 34.0991C113.575 2.04125 61.8277 2.04125 29.9088 34.0991C2.5445 61.5825 -1.35766 103.704 18.1997 135.365V225.25C18.2004 230.202 20.1595 234.951 23.6463 238.452C27.133 241.954 31.8617 243.921 36.7924 243.921H170.555C168.878 242.041 167.367 240.018 166.039 237.875C161.749 230.98 159.393 222.777 158.972 213.267H188.825C189.248 216.639 190.18 219.506 191.621 221.867C192.959 224.12 194.868 225.976 197.153 227.247C199.404 228.482 202.006 229.1 204.96 229.102C210.445 229.102 214.683 227.471 217.673 224.211C220.663 220.951 222.157 216.36 222.155 210.438V206.612C222.155 200.396 220.942 195.599 218.516 192.223C216.09 188.847 212.626 187.161 208.125 187.164H195.149V157.484H208.125C211.782 157.484 214.613 156.004 216.618 153.044C218.623 150.084 219.624 145.94 219.622 140.611V137.811C219.622 132.791 218.515 128.912 216.3 126.175C214.086 123.438 210.974 122.073 206.964 122.08C204.431 122.06 201.95 122.805 199.843 124.217C197.697 125.641 195.887 127.702 194.412 130.4C192.936 133.097 191.882 136.357 191.247 140.181H161.502C162.347 130.213 164.86 121.612 169.044 114.379C173.227 107.145 178.695 101.637 185.447 97.8549C192.199 94.0695 199.724 92.1769 208.022 92.1769C221.593 92.1769 232.089 95.8681 239.51 103.251C242.028 105.766 244.139 108.662 245.767 111.832V64.5355C245.766 59.5827 243.807 54.833 240.319 51.331C236.832 47.8291 232.103 45.8618 227.171 45.8618Z" fill="#EAEAEA"></path>
  <path opacity="0.47" d="M227.543 45.3591H155.57C152.699 41.1442 149.445 37.2056 145.85 33.5938C113.931 1.53848 62.1834 1.53848 30.2644 33.5938C2.91046 61.0797 -0.981377 103.201 18.5682 134.86V224.744C18.5682 229.696 20.5269 234.445 24.0132 237.947C27.4995 241.448 32.2279 243.415 37.1584 243.415H170.921C169.245 241.535 167.735 239.512 166.408 237.37C162.109 230.474 159.753 222.271 159.338 212.762H189.191C189.614 216.134 190.546 219.001 191.987 221.361C193.328 223.611 195.24 225.464 197.527 226.729C199.776 227.967 202.377 228.586 205.331 228.586C210.818 228.586 215.055 226.956 218.044 223.695C221.032 220.435 222.526 215.844 222.526 209.923V206.11C222.526 199.893 221.313 195.096 218.887 191.718C216.461 188.34 212.997 186.655 208.496 186.661H195.52V156.981H208.496C212.153 156.981 214.984 155.501 216.989 152.542C218.994 149.582 219.995 145.437 219.994 140.108V137.308C219.994 132.288 218.886 128.409 216.672 125.672C214.457 122.935 211.346 121.565 207.338 121.561C204.804 121.542 202.323 122.286 200.214 123.698C198.072 125.123 196.262 127.184 194.783 129.881C193.304 132.579 192.249 135.839 191.618 139.663H161.871C162.715 129.695 165.229 121.094 169.412 113.86C173.596 106.626 179.063 101.118 185.815 97.3366C192.567 93.5512 200.092 91.6586 208.39 91.6586C221.963 91.6586 232.459 95.3498 239.878 102.732C242.397 105.247 244.509 108.143 246.135 111.314V64.0327C246.135 59.0804 244.176 54.331 240.689 50.8292C237.202 47.3274 232.474 45.3597 227.543 45.3591Z" fill="#EAEAEA"></path>
  <path opacity="0.5" d="M227.915 44.8565H155.958C153.087 40.6412 149.833 36.7025 146.237 33.0913C114.318 1.03598 62.5713 1.03598 30.6523 33.0913C3.288 60.5746 -0.611572 102.699 18.9458 134.358V224.242C18.9458 229.194 20.9044 233.943 24.3907 237.444C27.8771 240.946 32.6055 242.913 37.536 242.913H171.304C169.628 241.033 168.118 239.01 166.79 236.867C162.492 229.972 160.136 221.765 159.724 212.246H189.564C189.987 215.619 190.919 218.485 192.359 220.846C193.697 223.106 195.609 224.969 197.899 226.242C200.148 227.48 202.751 228.099 205.706 228.099C211.189 228.099 215.426 226.469 218.416 223.208C221.406 219.948 222.9 215.357 222.899 209.436V205.607C222.899 199.39 221.686 194.593 219.26 191.215C216.833 187.837 213.37 186.152 208.868 186.159H195.895V156.479H208.868C212.525 156.479 215.356 154.999 217.361 152.039C219.366 149.079 220.369 144.935 220.369 139.606V136.805C220.369 131.785 219.26 127.907 217.044 125.17C214.828 122.433 211.716 121.065 207.71 121.067C205.177 121.046 202.696 121.791 200.589 123.204C198.444 124.628 196.632 126.689 195.155 129.387C193.678 132.084 192.623 135.347 191.991 139.176H162.243C163.086 129.208 165.6 120.607 169.785 113.373C173.97 106.139 179.438 100.631 186.19 96.8496C192.941 93.0643 200.466 91.1716 208.765 91.1716C222.336 91.1716 232.833 94.8628 240.253 102.245C242.772 104.76 244.882 107.656 246.508 110.827V63.538C246.508 61.0852 246.028 58.6562 245.094 56.3899C244.16 54.1236 242.791 52.0642 241.064 50.3294C239.337 48.5947 237.288 47.2185 235.032 46.2794C232.775 45.3404 230.357 44.8569 227.915 44.8565Z" fill="#EAEAEA"></path>
  <path opacity="0.53" d="M228.286 44.3541H156.329C153.458 40.1387 150.204 36.2001 146.609 32.5888C114.692 0.533539 62.9424 0.533539 31.026 32.5888C3.66172 60.0722 -0.240503 102.196 19.3168 133.855V223.739C19.3168 226.192 19.7978 228.62 20.7322 230.885C21.6666 233.151 23.0362 235.209 24.7627 236.943C26.4892 238.677 28.5389 240.052 30.7947 240.99C33.0504 241.928 35.4681 242.411 37.9096 242.41H171.665C169.99 240.53 168.479 238.507 167.151 236.365C162.853 229.469 160.497 221.267 160.084 211.757H189.938C190.359 215.129 191.291 217.996 192.733 220.356C194.07 222.617 195.981 224.479 198.271 225.752C200.52 226.99 203.122 227.609 206.078 227.607C211.561 227.607 215.797 225.977 218.787 222.716C221.777 219.456 223.272 214.866 223.27 208.946V205.105C223.27 198.888 222.057 194.091 219.631 190.713C217.205 187.335 213.742 185.649 209.242 185.654H196.267V155.976H209.242C212.898 155.976 215.728 154.497 217.733 151.537C219.737 148.577 220.74 144.432 220.74 139.103V136.303C220.74 131.283 219.632 127.404 217.418 124.667C215.203 121.93 212.091 120.562 208.082 120.564C205.549 120.544 203.069 121.289 200.963 122.701C198.817 124.126 197.006 126.187 195.529 128.884C194.052 131.582 192.997 134.839 192.364 138.658H162.615C163.46 128.69 165.975 120.089 170.158 112.855C174.342 105.621 179.809 100.113 186.561 96.3316C193.314 92.5463 200.839 90.6536 209.136 90.6536C222.708 90.6536 233.204 94.3448 240.625 101.727C243.141 104.245 245.249 107.143 246.871 110.317V63.02C246.87 58.0699 244.911 53.323 241.426 49.8227C237.941 46.3225 233.215 44.3555 228.286 44.3541Z" fill="#EAEAEA"></path>
  <path opacity="0.56" d="M228.66 43.8517H156.703C153.83 39.6369 150.575 35.6983 146.98 32.0864C115.063 0.0310965 63.3135 0.0310965 31.3971 32.0864C4.03282 59.5698 0.130592 101.694 19.6879 133.353V223.237C19.6876 225.689 20.1683 228.118 21.1025 230.383C22.0368 232.649 23.4063 234.708 25.1329 236.442C26.8595 238.176 28.9093 239.552 31.1652 240.49C33.4211 241.428 35.839 241.911 38.2807 241.911H172.043C170.367 240.03 168.856 238.008 167.527 235.865C163.238 228.969 160.882 220.762 160.461 211.244H190.314C190.737 214.616 191.669 217.483 193.11 219.844C194.446 222.099 196.355 223.958 198.642 225.229C200.891 226.467 203.493 227.085 206.449 227.084C211.935 227.084 216.172 225.453 219.158 222.193C222.145 218.933 223.64 214.343 223.644 208.423V204.602C223.644 198.385 222.431 193.588 220.004 190.21C217.578 186.833 214.115 185.146 209.613 185.151H196.638V155.474H209.613C213.269 155.474 216.099 153.994 218.104 151.034C220.108 148.074 221.111 143.93 221.111 138.601V135.808C221.111 130.788 220.004 126.91 217.789 124.173C215.574 121.435 212.459 120.065 208.442 120.062C205.909 120.041 203.428 120.786 201.321 122.199C199.176 123.623 197.365 125.684 195.89 128.382C194.415 131.079 193.36 134.339 192.725 138.16H162.988C163.831 128.194 166.344 119.595 170.529 112.361C174.714 105.127 180.182 99.618 186.933 95.8343C193.685 92.0525 201.21 90.1607 209.507 90.1589C223.079 90.1589 233.575 93.8502 240.996 101.233C243.515 103.747 245.625 106.643 247.25 109.814V62.5253C247.25 60.0732 246.77 57.645 245.836 55.3794C244.902 53.1138 243.532 51.0553 241.806 49.3212C240.08 47.5872 238.03 46.2116 235.775 45.2732C233.519 44.3347 231.101 43.8517 228.66 43.8517Z" fill="#EAEAEA"></path>
  <path opacity="0.58" d="M229.031 43.3487H157.074C154.203 39.1327 150.948 35.194 147.351 31.5835C115.434 -0.471833 63.6846 -0.471833 31.7682 31.5835C4.40387 59.0668 0.501707 101.191 20.0591 132.85V222.734C20.0591 227.687 22.0179 232.436 25.5047 235.938C28.9915 239.44 33.7207 241.408 38.6518 241.408H172.415C170.737 239.527 169.226 237.503 167.899 235.359C163.609 228.467 161.253 220.265 160.832 210.751H190.685C191.108 214.124 192.04 216.99 193.481 219.351C194.817 221.611 196.728 223.474 199.018 224.747C201.269 225.985 203.871 226.603 206.825 226.601C212.31 226.601 216.547 224.971 219.537 221.711C222.527 218.451 224.022 213.86 224.02 207.941V204.097C224.02 197.88 222.807 193.083 220.381 189.707C217.955 186.331 214.491 184.645 209.99 184.648H197.014V154.976H209.99C213.647 154.976 216.478 153.496 218.482 150.536C220.487 147.577 221.489 143.432 221.487 138.103V135.29C221.487 130.27 220.38 126.391 218.165 123.654C215.951 120.917 212.839 119.549 208.829 119.551C206.296 119.53 203.815 120.275 201.708 121.688C199.562 123.111 197.752 125.171 196.276 127.869C194.801 130.566 193.746 133.826 193.112 137.65H163.359C164.202 127.684 166.716 119.084 170.901 111.85C175.086 104.616 180.553 99.1073 187.304 95.3237C194.056 91.5418 201.581 89.65 209.879 89.6482C223.45 89.6482 233.946 93.3395 241.367 100.722C243.885 103.236 245.996 106.131 247.621 109.301V62.0224C247.622 59.5703 247.141 57.1421 246.207 54.8765C245.273 52.6109 243.903 50.5523 242.177 48.8183C240.451 47.0842 238.401 45.7087 236.146 44.7702C233.89 43.8318 231.473 43.3487 229.031 43.3487Z" fill="#EAEAEA"></path>
  <path opacity="0.61" d="M229.402 42.8463H157.445C154.575 38.6305 151.321 34.6918 147.725 31.0811C115.801 -0.961271 64.0534 -0.961271 32.1344 31.0811C4.77008 58.5644 0.867919 100.686 20.4253 132.347V222.232C20.4253 227.184 22.3842 231.934 25.871 235.436C29.3578 238.938 34.087 240.905 39.0181 240.905H172.781C171.105 239.024 169.594 237 168.265 234.857C163.977 227.963 161.621 219.761 161.198 210.249H191.051C191.474 213.621 192.406 216.488 193.847 218.849C195.184 221.109 197.096 222.971 199.387 224.244C201.636 225.483 204.237 226.101 207.191 226.099C212.678 226.099 216.915 224.469 219.904 221.209C222.892 217.948 224.386 213.358 224.386 207.438V203.594C224.386 197.378 223.173 192.581 220.747 189.205C218.321 185.829 214.857 184.143 210.356 184.146H197.38V154.458H210.356C214.013 154.458 216.844 152.978 218.849 150.016C220.854 147.054 221.855 142.918 221.853 137.606V134.795C221.853 129.775 220.746 125.897 218.531 123.159C216.317 120.422 213.205 119.055 209.195 119.056C206.662 119.036 204.182 119.78 202.074 121.191C199.928 122.615 198.118 124.677 196.643 127.374C195.167 130.071 194.114 133.332 193.483 137.155H163.731C164.575 127.189 167.089 118.589 171.272 111.355C175.455 104.121 180.923 98.6126 187.675 94.829C194.427 91.0472 201.952 89.1554 210.25 89.1536C223.823 89.1536 234.319 92.844 241.738 100.225C244.256 102.741 246.367 105.636 247.995 108.806V61.5174C247.994 56.5653 246.035 51.8162 242.549 48.3148C239.062 44.8134 234.333 42.8463 229.402 42.8463Z" fill="#EAEAEA"></path>
  <path opacity="0.64" d="M229.774 42.3438H157.817C154.945 38.1278 151.689 34.189 148.091 30.5786C116.172 -1.47932 64.4248 -1.47932 32.5058 30.5786C5.14156 58.0619 1.24192 100.183 20.7993 131.845V221.729C20.7993 226.681 22.7578 231.431 26.244 234.933C29.7303 238.434 34.4588 240.402 39.3895 240.403H173.152C171.477 238.521 169.967 236.497 168.639 234.354C164.34 227.461 161.984 219.258 161.569 209.746H191.42C191.843 213.119 192.775 215.986 194.216 218.346C195.554 220.606 197.465 222.468 199.756 223.742C202.005 224.977 204.606 225.595 207.56 225.597C213.045 225.597 217.282 223.966 220.272 220.706C223.262 217.446 224.757 212.856 224.755 206.936V203.092C224.755 196.875 223.542 192.079 221.116 188.703C218.69 185.326 215.226 183.64 210.725 183.644H197.752V153.966H210.725C214.382 153.966 217.213 152.485 219.217 149.524C221.222 146.562 222.225 142.418 222.225 137.09V134.293C222.225 129.273 221.117 125.394 218.9 122.657C216.684 119.92 213.573 118.552 209.566 118.554C207.033 118.533 204.551 119.277 202.443 120.688C200.299 122.113 198.488 124.174 197.011 126.871C195.534 129.569 194.48 132.829 193.847 136.652H164.102C164.945 126.685 167.458 118.085 171.643 110.853C175.828 103.621 181.297 98.1119 188.049 94.3265C194.799 90.5446 202.324 88.6528 210.624 88.6511C224.195 88.6511 234.69 92.3415 242.11 99.7222C244.629 102.237 246.74 105.133 248.367 108.304V61.0149C248.366 56.0628 246.407 51.3138 242.92 47.8123C239.433 44.3109 234.704 42.3438 229.774 42.3438Z" fill="#EAEAEA"></path>
  <path opacity="0.67" d="M230.146 41.8414H158.189C155.318 37.6255 152.064 33.6868 148.468 30.0761C116.551 -1.98176 64.8018 -1.98176 32.8828 30.0761C5.51851 57.5595 1.61887 99.6808 21.1762 131.342V221.227C21.1762 226.179 23.1348 230.928 26.621 234.43C30.1073 237.932 34.8358 239.9 39.7664 239.9H173.529C171.855 238.018 170.345 235.994 169.016 233.852C164.717 226.96 162.362 218.757 161.949 209.244H191.802C192.223 212.617 193.155 215.483 194.598 217.844C195.935 220.104 197.846 221.966 200.135 223.239C202.384 224.474 204.986 225.092 207.942 225.094C213.425 225.094 217.662 223.464 220.652 220.204C223.642 216.943 225.136 212.353 225.134 206.433V202.589C225.134 196.373 223.921 191.576 221.495 188.2C219.069 184.824 215.605 183.138 211.104 183.141H198.126V153.464H211.099C214.756 153.464 217.587 151.983 219.592 149.021C221.597 146.06 222.599 141.915 222.599 136.588V133.79C222.599 128.77 221.491 124.892 219.275 122.155C217.058 119.417 213.947 118.05 209.941 118.051C207.408 118.03 204.927 118.774 202.82 120.186C200.674 121.611 198.863 123.672 197.386 126.369C195.909 129.066 194.854 132.327 194.221 136.15H164.474C165.318 126.182 167.833 117.583 172.018 110.35C176.203 103.118 181.67 97.6094 188.421 93.8241C195.171 90.0388 202.696 88.1461 210.996 88.1461C224.567 88.1461 235.063 91.8373 242.484 99.2197C245.002 101.735 247.112 104.631 248.738 107.802V60.5125C248.738 58.0603 248.257 55.6322 247.323 53.3668C246.389 51.1013 245.019 49.0429 243.292 47.3091C241.566 45.5753 239.516 44.2001 237.261 43.2619C235.005 42.3238 232.587 41.8411 230.146 41.8414Z" fill="#EAEAEA"></path>
  <path opacity="0.69" d="M230.517 41.3394H158.56C155.69 37.1236 152.435 33.1849 148.839 29.5742C116.923 -2.48371 65.1729 -2.48371 33.2565 29.5742C5.89215 57.0575 1.98999 99.1788 21.5473 130.84V220.725C21.5473 225.677 23.5062 230.427 26.993 233.929C30.4798 237.431 35.209 239.398 40.1401 239.398H173.9C172.226 237.516 170.716 235.492 169.387 233.35C165.097 226.458 162.741 218.255 162.32 208.742H192.168C192.589 212.114 193.521 214.981 194.964 217.342C196.301 219.602 198.212 221.464 200.501 222.737C202.75 223.972 205.352 224.59 208.308 224.592C213.795 224.592 218.031 222.962 221.018 219.702C224.004 216.441 225.499 211.851 225.5 205.931V202.087C225.5 195.871 224.288 191.074 221.864 187.698C219.439 184.322 215.976 182.636 211.473 182.639H198.497V152.962H211.473C215.128 152.962 217.958 151.481 219.963 148.519C221.968 145.558 222.97 141.413 222.97 136.086V133.288C222.97 128.268 221.863 124.39 219.648 121.653C217.434 118.915 214.322 117.548 210.312 117.549C207.779 117.528 205.298 118.272 203.191 119.684C201.045 121.109 199.234 123.17 197.757 125.867C196.28 128.564 195.226 131.825 194.595 135.648H164.855C165.701 125.68 168.216 117.081 172.399 109.848C176.582 102.616 182.05 97.1074 188.802 93.3221C195.554 89.5368 203.079 87.6441 211.377 87.6441C224.948 87.6441 235.444 91.3353 242.865 98.7178C245.384 101.233 247.494 104.128 249.12 107.3V60.0105C249.12 57.5575 248.639 55.1285 247.703 52.8624C246.768 50.5963 245.398 48.5374 243.67 46.8035C241.943 45.0695 239.892 43.6945 237.635 42.757C235.378 41.8194 232.959 41.3377 230.517 41.3394Z" fill="#EAEAEA"></path>
  <path opacity="0.72" d="M230.881 40.8339H158.924C156.051 36.6199 152.796 32.6822 149.2 29.0712C117.284 -2.98664 65.5342 -2.98664 33.6178 29.0712C6.25348 56.5546 2.35132 98.6759 21.9087 130.337V220.222C21.9093 225.174 23.8685 229.923 27.3551 233.425C30.8418 236.927 35.5706 238.895 40.5014 238.895H174.269C172.594 237.01 171.083 234.983 169.756 232.837C165.468 225.941 163.112 217.739 162.689 208.229H192.542C192.965 211.601 193.897 214.468 195.338 216.828C196.675 219.088 198.586 220.95 200.875 222.224C203.126 223.459 205.728 224.077 208.682 224.079C214.167 224.079 218.405 222.449 221.395 219.188C224.385 215.928 225.879 211.338 225.877 205.418V201.584C225.877 195.368 224.664 190.571 222.238 187.195C219.812 183.819 216.348 182.133 211.847 182.136H198.871V152.456H211.847C215.502 152.456 218.332 150.976 220.337 148.016C222.342 145.057 223.344 140.912 223.344 135.583V132.785C223.344 127.764 222.237 123.885 220.023 121.15C217.808 118.414 214.696 117.047 210.686 117.047C208.153 117.026 205.673 117.77 203.565 119.181C201.419 120.606 199.609 122.667 198.134 125.364C196.658 128.061 195.604 131.322 194.969 135.145H165.219C166.062 125.178 168.575 116.578 172.76 109.345C176.945 102.113 182.413 96.6045 189.164 92.8192C195.916 89.0339 203.441 87.1412 211.738 87.1412C225.31 87.1412 235.806 90.8324 243.227 98.2148C245.745 100.73 247.855 103.625 249.481 106.797V59.5076C249.481 57.0547 249 54.6258 248.065 52.3597C247.13 50.0936 245.76 48.0347 244.033 46.3006C242.305 44.5665 240.255 43.1911 237.998 42.2531C235.741 41.3152 233.323 40.8329 230.881 40.8339Z" fill="#EAEAEA"></path>
  <path opacity="0.75" d="M231.262 40.3315H159.305C156.432 36.1167 153.176 32.1789 149.579 28.5688C117.657 -3.48908 65.9102 -3.48908 33.9938 28.5688C6.62949 56.0522 2.72727 98.1735 22.2846 129.835V219.719C22.2874 224.67 24.2474 229.418 27.7338 232.918C31.2203 236.418 35.9479 238.385 40.8774 238.385H174.64C172.964 236.504 171.453 234.48 170.124 232.337C165.836 225.441 163.48 217.239 163.057 207.729H192.911C193.333 211.101 194.265 213.969 195.706 216.331C197.043 218.591 198.954 220.453 201.244 221.727C203.496 222.962 206.098 223.58 209.051 223.582C214.537 223.582 218.775 221.951 221.763 218.691C224.751 215.431 226.243 210.835 226.238 204.903V201.085C226.238 194.868 225.025 190.071 222.599 186.695C220.173 183.319 216.709 181.633 212.207 181.636H199.232V151.954H212.207C215.865 151.954 218.696 150.474 220.7 147.514C222.705 144.554 223.707 140.41 223.705 135.08V132.28C223.705 127.26 222.598 123.383 220.383 120.647C218.169 117.912 215.056 116.544 211.047 116.544C208.514 116.524 206.033 117.267 203.926 118.678C201.78 120.103 199.97 122.164 198.494 124.862C197.019 127.559 195.964 130.819 195.33 134.643H165.59C166.434 124.675 168.948 116.075 173.131 108.843C177.315 101.611 182.782 96.1021 189.534 92.3167C196.287 88.5314 203.812 86.6387 212.109 86.6387C225.681 86.6387 236.177 90.33 243.598 97.7124C246.116 100.228 248.227 103.123 249.855 106.294V59.0051C249.854 54.0528 247.895 49.3035 244.408 45.8016C240.921 42.2998 236.193 40.3322 231.262 40.3315Z" fill="#EAEAEA"></path>
  <path opacity="0.78" d="M231.633 39.829H159.676C156.805 35.6145 153.551 31.6767 149.956 28.0664C118.037 -3.99152 66.2895 -3.99152 34.3705 28.0664C7.01396 55.5497 3.10142 97.671 22.6562 129.333V219.217C22.6569 224.169 24.616 228.919 28.1026 232.42C31.5893 235.922 36.3181 237.89 41.249 237.891H175.012C173.336 236.009 171.826 233.985 170.498 231.842C166.2 224.947 163.843 216.74 163.429 207.221H193.282C193.705 210.594 194.637 213.46 196.078 215.821C197.415 218.082 199.327 219.945 201.618 221.219C203.867 222.454 206.468 223.072 209.422 223.074C214.907 223.074 219.144 221.444 222.134 218.183C225.124 214.923 226.619 210.332 226.617 204.411V200.58C226.617 194.363 225.404 189.566 222.978 186.19C220.552 182.814 217.088 181.13 212.587 181.139H199.611V151.451H212.587C216.244 151.451 219.075 149.971 221.08 147.012C223.084 144.052 224.086 139.907 224.084 134.578V131.778C224.084 126.758 222.977 122.879 220.762 120.142C218.548 117.405 215.436 116.037 211.426 116.039C208.893 116.02 206.412 116.764 204.305 118.176C202.159 119.601 200.349 121.662 198.873 124.359C197.398 127.057 196.343 130.317 195.709 134.14H165.962C166.804 124.173 169.318 115.572 173.503 108.338C177.688 101.104 183.155 95.5962 189.906 91.8143C196.658 88.029 204.183 86.1363 212.481 86.1363C226.055 86.1363 236.552 89.8275 243.969 97.21C246.486 99.7256 248.597 102.621 250.223 105.792V58.5027C250.223 53.5508 248.264 48.8019 244.778 45.3001C241.292 41.7983 236.564 39.8304 231.633 39.829Z" fill="#EAEAEA"></path>
  <path opacity="0.81" d="M232.005 39.3263H160.048C157.176 35.1114 153.922 31.1728 150.327 27.561C118.408 -4.49429 66.6611 -4.49429 34.7421 27.561C7.37785 55.047 3.47827 97.1683 23.0356 128.827V218.699C23.0356 221.151 23.5164 223.578 24.4507 225.844C25.3849 228.109 26.7542 230.167 28.4805 231.901C30.2068 233.635 32.2561 235.01 34.5116 235.948C36.7671 236.887 39.1844 237.37 41.6257 237.37H175.388C173.713 235.489 172.202 233.467 170.875 231.324C166.576 224.428 164.22 216.226 163.806 206.716H193.659C194.082 210.088 195.014 212.955 196.454 215.316C197.793 217.573 199.705 219.434 201.994 220.706C204.243 221.941 206.845 222.559 209.799 222.561C215.285 222.561 219.523 220.931 222.511 217.67C225.5 214.41 226.994 209.819 226.994 203.897V200.077C226.994 193.86 225.781 189.064 223.355 185.688C220.928 182.311 217.463 180.623 212.958 180.621H199.985V150.949H212.958C216.615 150.949 219.446 149.469 221.451 146.509C223.456 143.549 224.458 139.404 224.458 134.075V131.275C224.458 126.255 223.35 122.376 221.134 119.639C218.918 116.902 215.805 115.535 211.795 115.536C209.262 115.516 206.781 116.26 204.674 117.673C202.528 119.098 200.717 121.159 199.24 123.856C197.763 126.554 196.708 129.814 196.075 133.637H166.333C167.177 123.67 169.694 115.068 173.882 107.833C178.071 100.597 183.539 95.0891 190.288 91.3089C197.038 87.5236 204.563 85.6309 212.863 85.6309C226.434 85.6309 236.93 89.3222 244.351 96.7046C246.869 99.22 248.979 102.116 250.605 105.286V57.9999C250.605 55.5471 250.124 53.1184 249.189 50.8524C248.254 48.5865 246.883 46.5277 245.156 44.7937C243.429 43.0596 241.378 41.6843 239.122 40.7462C236.865 39.8081 234.447 39.3256 232.005 39.3263Z" fill="#EAEAEA"></path>
  <path opacity="0.83" d="M232.376 38.8238H160.419C157.547 34.609 154.293 30.6704 150.698 27.0586C118.782 -4.99673 67.0321 -4.99673 35.1156 27.0586C7.74875 54.5419 3.84917 96.6658 23.4065 128.325V218.209C23.4065 220.661 23.8874 223.089 24.8216 225.354C25.7559 227.62 27.1252 229.678 28.8514 231.412C30.5777 233.145 32.6271 234.521 34.8825 235.459C37.138 236.397 39.5554 236.88 41.9967 236.88H175.759C174.084 234.999 172.574 232.976 171.246 230.834C166.947 223.939 164.592 215.732 164.179 206.213H194.032C194.452 209.586 195.384 212.453 196.828 214.813C198.164 217.074 200.075 218.937 202.365 220.209C204.614 221.447 207.217 222.066 210.172 222.066C215.656 222.066 219.892 220.436 222.882 217.176C225.872 213.915 227.367 209.324 227.365 203.403V199.574C227.365 193.358 226.152 188.56 223.726 185.182C221.3 181.805 217.838 180.119 213.342 180.126H200.367V150.446H213.342C216.998 150.446 219.828 148.966 221.833 146.006C223.837 143.046 224.84 138.902 224.84 133.573V130.773C224.84 125.753 223.732 121.874 221.515 119.137C219.299 116.4 216.188 115.032 212.182 115.034C209.648 115.014 207.168 115.759 205.061 117.171C202.915 118.596 201.103 120.657 199.626 123.354C198.15 126.051 197.095 129.312 196.462 133.135H166.704C167.547 123.167 170.061 114.567 174.248 107.333C178.435 100.099 183.903 94.591 190.651 90.8091C197.402 87.0255 204.927 85.1328 213.226 85.1311C226.797 85.1311 237.293 88.8223 244.714 96.2047C247.232 98.7198 249.343 101.615 250.969 104.786V57.4975C250.969 52.5449 249.01 47.7952 245.523 44.2932C242.036 40.7912 237.307 38.8238 232.376 38.8238Z" fill="#EAEAEA"></path>
  <path opacity="0.86" d="M232.748 38.3214H160.791C157.919 34.1066 154.664 30.168 151.068 26.5561C119.151 -5.49918 67.4017 -5.49918 35.4853 26.5561C8.11848 54.0395 4.21633 96.1763 23.7788 127.822V217.707C23.7788 220.159 24.2598 222.587 25.1942 224.852C26.1286 227.118 27.4981 229.176 29.2247 230.91C30.9512 232.644 33.0009 234.019 35.2566 234.957C37.5124 235.895 39.9301 236.378 42.3716 236.378H176.126C174.451 234.497 172.941 232.474 171.613 230.332C167.325 223.437 164.969 215.234 164.546 205.724H194.399C194.819 209.096 195.751 211.963 197.195 214.324C198.531 216.585 200.442 218.447 202.732 219.719C204.981 220.958 207.584 221.576 210.539 221.574C216.024 221.574 220.261 219.945 223.249 216.686C226.238 213.427 227.733 208.831 227.734 202.898V199.072C227.734 192.855 226.521 188.058 224.095 184.68C221.669 181.302 218.205 179.616 213.704 179.621H200.729V149.944H213.704C217.359 149.944 220.19 148.464 222.194 145.504C224.199 142.544 225.202 138.4 225.202 133.07V130.27C225.202 125.25 224.094 121.372 221.88 118.634C219.665 115.897 216.553 114.53 212.543 114.531C210.01 114.511 207.529 115.255 205.422 116.668C203.277 118.093 201.466 120.154 199.991 122.852C198.516 125.549 197.464 128.809 196.837 132.633H167.076C167.922 122.665 170.437 114.064 174.62 106.83C178.804 99.5964 184.271 94.0885 191.023 90.3067C197.775 86.523 205.3 84.6304 213.598 84.6287C227.169 84.6287 237.666 88.3199 245.086 95.7023C247.605 98.2167 249.716 101.113 251.341 104.284V56.9951C251.341 52.0425 249.382 47.2928 245.895 43.7908C242.408 40.2888 237.679 38.3214 232.748 38.3214Z" fill="#EAEAEA"></path>
  <path opacity="0.89" d="M233.122 37.8189H161.165C158.293 33.6035 155.038 29.6649 151.442 26.0537C119.525 -6.00162 67.7755 -6.00162 35.859 26.0537C8.49473 53.537 4.5925 95.6609 24.1499 127.32V217.204C24.1499 222.157 26.1088 226.907 29.5956 230.409C33.0824 233.911 37.8116 235.878 42.7427 235.878H176.505C174.829 233.998 173.318 231.975 171.989 229.832C167.701 222.937 165.346 214.73 164.923 205.211H194.773C195.196 208.584 196.128 211.45 197.569 213.811C198.905 216.071 200.816 217.934 203.106 219.207C205.359 220.445 207.961 221.063 210.913 221.061C216.4 221.061 220.637 219.431 223.626 216.171C226.614 212.91 228.107 208.313 228.106 202.38V198.569C228.106 192.353 226.893 187.555 224.466 184.178C222.04 180.8 218.577 179.114 214.075 179.119H201.1V149.441H214.075C217.731 149.441 220.562 147.961 222.568 145.001C224.575 142.042 225.576 137.897 225.573 132.568V129.768C225.573 124.748 224.466 120.869 222.251 118.132C220.036 115.395 216.924 114.027 212.915 114.029C210.381 114.008 207.9 114.753 205.794 116.166C203.648 117.591 201.837 119.652 200.362 122.349C198.887 125.046 197.832 128.306 197.198 132.128H167.45C168.294 122.163 170.808 113.564 174.991 106.328C179.175 99.0923 184.642 93.5835 191.395 89.8016C198.147 86.0198 205.672 84.1279 213.969 84.1262C227.541 84.1262 238.037 87.8174 245.458 95.1999C247.977 97.7143 250.087 100.61 251.712 103.782V56.4926C251.712 54.0405 251.232 51.6123 250.298 49.3467C249.364 47.0811 247.994 45.0225 246.268 43.2885C244.542 41.5544 242.492 40.1789 240.237 39.2404C237.981 38.302 235.563 37.8189 233.122 37.8189Z" fill="#EAEAEA"></path>
  <path opacity="0.92" d="M233.493 37.3165H161.536C158.665 33.1011 155.411 29.1625 151.815 25.5512C119.896 -6.50406 68.1491 -6.50406 36.2301 25.5512C8.86582 53.0346 4.9636 95.1585 24.521 126.817V216.702C24.5237 221.654 26.4849 226.402 29.9731 229.902C33.4613 233.402 38.1908 235.367 43.1215 235.365H176.884C175.203 233.485 173.688 231.462 172.355 229.319C168.065 222.424 165.71 214.221 165.289 204.711H195.142C195.565 208.084 196.497 210.95 197.937 213.311C199.275 215.568 201.186 217.427 203.475 218.699C205.727 219.937 208.33 220.555 211.282 220.554C216.767 220.554 221.004 218.923 223.994 215.663C226.984 212.403 228.478 207.813 228.477 201.893V198.064C228.477 191.848 227.264 187.051 224.838 183.675C222.411 180.299 218.948 178.613 214.446 178.616H201.479V148.939H214.454C218.111 148.939 220.942 147.459 222.947 144.499C224.952 141.539 225.953 137.395 225.952 132.065V129.265C225.952 124.245 224.844 120.367 222.63 117.63C220.415 114.892 217.301 113.526 213.286 113.532C210.752 113.511 208.271 114.256 206.165 115.669C204.019 117.092 202.208 119.152 200.733 121.849C199.258 124.547 198.203 127.807 197.569 131.63H167.821C168.664 121.664 171.178 113.065 175.363 105.831C179.548 98.5967 185.015 93.088 191.766 89.3044C198.518 85.5225 206.043 83.6307 214.341 83.6289C227.912 83.6289 238.408 87.3202 245.829 94.7026C248.347 97.2171 250.458 100.112 252.086 103.282V55.9902C252.086 51.0376 250.127 46.2879 246.64 42.7859C243.153 39.2839 238.424 37.3165 233.493 37.3165Z" fill="#EAEAEA"></path>
  <path opacity="0.94" d="M233.865 36.8136H161.908C159.038 32.5977 155.783 28.659 152.187 25.0483C120.268 -7.00699 68.521 -7.00699 36.602 25.0483C9.23774 52.5317 5.33815 94.653 24.8929 126.315V216.199C24.8929 221.151 26.8517 225.901 30.3386 229.403C33.8254 232.905 38.5545 234.873 43.4856 234.873H177.235C175.56 232.991 174.05 230.967 172.722 228.824C168.423 221.932 166.067 213.729 165.653 204.216H195.506C195.929 207.589 196.861 210.455 198.302 212.816C199.646 215.065 201.56 216.917 203.849 218.18C206.098 219.419 208.7 220.037 211.654 220.035C217.138 220.035 221.376 218.405 224.366 215.145C227.356 211.884 228.85 207.294 228.848 201.374V197.561C228.848 191.345 227.635 186.548 225.209 183.172C222.783 179.796 219.319 178.11 214.818 178.113H201.843V148.436H214.818C218.475 148.436 221.306 146.956 223.311 143.996C225.316 141.036 226.317 136.892 226.316 131.563V128.762C226.316 123.742 225.208 119.864 222.994 117.127C220.779 114.39 217.667 113.018 213.658 113.013C211.125 112.993 208.644 113.737 206.537 115.148C204.394 116.572 202.584 118.633 201.105 121.331C199.626 124.028 198.571 127.289 197.94 131.112H168.193C169.037 121.148 171.551 112.548 175.734 105.312C179.918 98.0765 185.385 92.5678 192.137 88.7859C198.89 85.004 206.415 83.1122 214.712 83.1105C228.287 83.1105 238.783 86.8017 246.201 94.1841C248.719 96.6986 250.83 99.5933 252.458 102.763V55.4872C252.458 50.5347 250.499 45.785 247.012 42.283C243.525 38.781 238.796 36.8136 233.865 36.8136Z" fill="#EAEAEA"></path>
  <path opacity="0.97" d="M234.234 36.3111H162.277C159.406 32.0953 156.152 28.1566 152.556 24.5459C120.637 -7.50943 68.8897 -7.50943 36.9707 24.5459C9.60636 52.0292 5.70678 94.1505 25.2641 125.812V215.696C25.2641 220.649 27.2226 225.398 30.7089 228.9C34.1952 232.402 38.9237 234.369 43.8543 234.37H177.617C175.942 232.488 174.432 230.465 173.104 228.322C168.805 221.428 166.449 213.225 166.034 203.714H195.887C196.31 207.086 197.242 209.953 198.683 212.313C200.021 214.573 201.933 216.436 204.223 217.709C206.472 218.944 209.074 219.562 212.027 219.564C217.514 219.564 221.752 217.934 224.74 214.673C227.728 211.413 229.222 206.823 229.222 200.903V197.059C229.222 190.842 228.009 186.046 225.583 182.67C223.157 179.294 219.693 177.607 215.192 177.611H202.219V147.933H215.192C218.849 147.933 221.68 146.453 223.685 143.491C225.69 140.529 226.692 136.389 226.692 131.07V128.26C226.692 123.24 225.584 119.361 223.368 116.624C221.152 113.887 218.04 112.519 214.034 112.521C211.501 112.5 209.02 113.243 206.913 114.656C204.767 116.08 202.956 118.141 201.479 120.839C200.002 123.536 198.946 126.799 198.312 130.628H168.564C169.407 120.662 171.921 112.062 176.106 104.828C180.291 97.5939 185.759 92.0852 192.511 88.3016C199.262 84.5197 206.787 82.6279 215.086 82.6262C228.658 82.6262 239.154 86.3165 246.575 93.6972C249.092 96.2127 251.203 99.1083 252.829 102.279V54.99C252.83 52.5371 252.349 50.108 251.415 47.8417C250.481 45.5753 249.111 43.516 247.384 41.7814C245.657 40.0468 243.607 38.6709 241.351 37.7323C239.094 36.7937 236.676 36.3108 234.234 36.3111Z" fill="#EAEAEA"></path>
  <path d="M234.607 35.8219H162.65C159.78 31.606 156.526 27.6673 152.93 24.0566C121.013 -8.00129 69.2635 -8.00129 37.3471 24.0566C9.98024 51.54 6.08059 93.6613 25.6379 125.323V215.207C25.6379 220.159 27.5965 224.909 31.0827 228.411C34.569 231.912 39.2975 233.88 44.2281 233.881H177.991C176.316 231.998 174.806 229.975 173.477 227.832C169.179 220.939 166.823 212.736 166.411 203.224H196.264C196.683 206.597 197.615 209.464 199.06 211.824C200.396 214.084 202.307 215.947 204.597 217.22C206.846 218.455 209.448 219.073 212.404 219.075C217.887 219.075 222.124 217.444 225.114 214.184C228.104 210.924 229.596 206.322 229.591 200.38V196.557C229.591 190.34 228.378 185.544 225.952 182.168C223.526 178.792 220.063 177.105 215.563 177.109H202.588V147.431H215.563C219.219 147.431 222.049 145.95 224.054 142.989C226.058 140.027 227.061 135.883 227.061 130.555V127.758C227.061 122.738 225.954 118.859 223.739 116.122C221.524 113.385 218.412 112.017 214.403 112.019C211.87 111.998 209.389 112.741 207.282 114.153C205.136 115.578 203.324 117.639 201.848 120.336C200.371 123.034 199.317 126.292 198.686 130.11H168.936C169.78 120.142 172.294 111.542 176.479 104.31C180.665 97.0779 186.132 91.5692 192.883 87.7838C199.635 83.9985 207.16 82.1067 215.457 82.1084C229.029 82.1084 239.525 85.7988 246.946 93.1795C249.463 95.6949 251.574 98.5905 253.2 101.761V54.4722C253.195 49.5235 251.233 44.7794 247.747 41.2822C244.261 37.7852 239.535 35.8212 234.607 35.8219Z" fill="#EAEAEA"></path>
  <path opacity="0.03" d="M244.978 182.749V158.917C244.813 159.196 244.648 159.473 244.462 159.745C240.882 165.374 235.787 169.569 229.176 172.332C235.782 173.947 241.049 177.419 244.978 182.749Z" fill="#EAEAEA"></path>
  <path opacity="0.06" d="M245.212 182.451V158.619C245.047 158.896 244.882 159.173 244.696 159.445C241.111 165.066 236.013 169.264 229.402 172.037C236.012 173.65 241.282 177.121 245.212 182.451Z" fill="#EAEAEA"></path>
  <path opacity="0.08" d="M245.447 182.155V158.323C245.282 158.6 245.116 158.878 244.931 159.15C241.346 164.771 236.248 168.968 229.637 171.742C236.246 173.344 241.516 176.815 245.447 182.155Z" fill="#EAEAEA"></path>
  <path opacity="0.11" d="M245.682 181.857V158.025C245.517 158.303 245.352 158.58 245.166 158.852C241.581 164.473 236.483 168.67 229.872 171.444C236.483 173.055 241.753 176.526 245.682 181.857Z" fill="#EAEAEA"></path>
  <path opacity="0.14" d="M245.919 181.56V157.728C245.751 158.005 245.586 158.282 245.403 158.556C241.818 164.178 236.72 168.374 230.109 171.146C236.72 172.759 241.99 176.23 245.919 181.56Z" fill="#EAEAEA"></path>
  <path opacity="0.17" d="M246.154 181.262V157.43C245.986 157.707 245.821 157.984 245.638 158.256C242.053 163.877 236.955 168.075 230.344 170.848C236.955 172.461 242.225 175.932 246.154 181.262Z" fill="#EAEAEA"></path>
  <path opacity="0.19" d="M246.389 180.964V157.132C246.221 157.409 246.056 157.686 245.873 157.958C242.286 163.579 237.187 167.777 230.576 170.55C237.187 172.163 242.458 175.634 246.389 180.964Z" fill="#EAEAEA"></path>
  <path opacity="0.22" d="M246.613 180.669V156.837C246.448 157.114 246.28 157.391 246.097 157.663C242.511 163.285 237.412 167.482 230.801 170.255C237.42 171.867 242.691 175.338 246.613 180.669Z" fill="#EAEAEA"></path>
  <path opacity="0.25" d="M246.871 180.363V156.531C246.706 156.808 246.538 157.086 246.355 157.36C242.769 162.978 237.67 167.174 231.059 169.95C237.663 171.566 242.934 175.037 246.871 180.363Z" fill="#EAEAEA"></path>
  <path opacity="0.28" d="M247.093 180.073V156.241C246.928 156.518 246.76 156.795 246.577 157.07C242.989 162.691 237.89 166.888 231.28 169.662C237.891 171.27 243.162 174.74 247.093 180.073Z" fill="#EAEAEA"></path>
  <path opacity="0.31" d="M247.327 179.775V155.943C247.162 156.22 246.994 156.497 246.811 156.769C243.225 162.39 238.126 166.588 231.515 169.361C238.127 170.974 243.398 174.445 247.327 179.775Z" fill="#EAEAEA"></path>
  <path opacity="0.33" d="M247.562 179.48V155.648C247.397 155.925 247.23 156.202 247.047 156.474C243.46 162.096 238.361 166.293 231.75 169.066C238.363 170.678 243.634 174.149 247.562 179.48Z" fill="#EAEAEA"></path>
  <path opacity="0.36" d="M247.797 179.182V155.35C247.632 155.627 247.467 155.904 247.281 156.176C243.693 161.797 238.594 165.995 231.984 168.768C238.596 170.379 243.866 173.851 247.797 179.182Z" fill="#EAEAEA"></path>
  <path opacity="0.39" d="M248.032 178.884V155.052C247.867 155.329 247.701 155.606 247.516 155.881C243.929 161.502 238.831 165.698 232.222 168.47C238.831 170.081 244.101 173.553 248.032 178.884Z" fill="#EAEAEA"></path>
  <path opacity="0.42" d="M248.266 178.586V154.754C248.101 155.034 247.936 155.311 247.75 155.583C244.165 161.204 239.067 165.401 232.456 168.175C239.065 169.784 244.335 173.255 248.266 178.586Z" fill="#EAEAEA"></path>
  <path opacity="0.44" d="M248.502 178.29V154.458C248.336 154.736 248.171 155.013 247.986 155.285C244.401 160.906 239.303 165.103 232.691 167.877C239.304 169.488 244.574 172.959 248.502 178.29Z" fill="#EAEAEA"></path>
  <path opacity="0.47" d="M248.738 177.993V154.161C248.57 154.438 248.405 154.715 248.222 154.987C244.637 160.608 239.539 164.806 232.928 167.579C239.539 169.194 244.809 172.665 248.738 177.993Z" fill="#EAEAEA"></path>
  <path opacity="0.5" d="M248.973 177.695V153.863C248.805 154.14 248.64 154.417 248.457 154.689C244.872 160.31 239.774 164.508 233.163 167.281C239.772 168.893 245.042 172.364 248.973 177.695Z" fill="#EAEAEA"></path>
  <path opacity="0.53" d="M249.207 177.397V153.565C249.04 153.842 248.875 154.119 248.691 154.394C245.106 160.015 240.008 164.212 233.397 166.983C240.008 168.596 245.278 172.067 249.207 177.397Z" fill="#EAEAEA"></path>
  <path opacity="0.56" d="M249.45 177.099V153.267C249.285 153.544 249.117 153.821 248.934 154.093C245.346 159.715 240.247 163.912 233.638 166.685C240.245 168.297 245.516 171.768 249.45 177.099Z" fill="#EAEAEA"></path>
  <path opacity="0.58" d="M249.677 176.801V152.969C249.512 153.246 249.344 153.524 249.161 153.796C245.574 159.417 240.475 163.614 233.864 166.388C240.472 168.001 245.743 171.472 249.677 176.801Z" fill="#EAEAEA"></path>
  <path opacity="0.61" d="M249.912 176.506V152.674C249.747 152.951 249.579 153.228 249.396 153.5C245.81 159.121 240.711 163.319 234.1 166.092C240.712 167.704 245.983 171.175 249.912 176.506Z" fill="#EAEAEA"></path>
  <path opacity="0.64" d="M250.146 176.218V152.386C249.981 152.663 249.814 152.941 249.631 153.215C246.044 158.835 240.945 163.031 234.334 165.805C240.947 167.409 246.218 170.88 250.146 176.218Z" fill="#EAEAEA"></path>
  <path opacity="0.67" d="M250.381 175.91V152.078C250.216 152.355 250.048 152.632 249.865 152.907C246.277 158.528 241.178 162.726 234.568 165.499C241.179 167.11 246.45 170.581 250.381 175.91Z" fill="#EAEAEA"></path>
  <path opacity="0.69" d="M250.615 175.612V151.78C250.45 152.057 250.283 152.335 250.099 152.607C246.513 158.228 241.414 162.425 234.803 165.199C241.416 166.812 246.686 170.283 250.615 175.612Z" fill="#EAEAEA"></path>
  <path opacity="0.72" d="M250.851 175.317V151.485C250.685 151.762 250.52 152.039 250.335 152.311C246.748 157.932 241.649 162.13 235.038 164.903C241.651 166.515 246.922 169.986 250.851 175.317Z" fill="#EAEAEA"></path>
  <path opacity="0.75" d="M251.085 175.019V151.187C250.92 151.464 250.755 151.741 250.57 152.013C246.985 157.635 241.887 161.832 235.275 164.605C241.885 166.217 247.155 169.688 251.085 175.019Z" fill="#EAEAEA"></path>
  <path opacity="0.78" d="M251.32 174.721V150.889C251.155 151.166 250.99 151.444 250.805 151.718C247.227 157.345 242.133 161.539 235.523 164.302C242.128 165.919 247.393 169.392 251.32 174.721Z" fill="#EAEAEA"></path>
  <path opacity="0.81" d="M251.554 174.423V150.591C251.389 150.868 251.224 151.146 251.038 151.418C247.453 157.039 242.355 161.236 235.744 164.01C242.357 165.623 247.627 169.094 251.554 174.423Z" fill="#EAEAEA"></path>
  <path opacity="0.83" d="M251.792 174.125V150.293C251.625 150.571 251.46 150.848 251.277 151.12C247.692 156.741 242.594 160.938 235.982 163.712C242.594 165.325 247.864 168.796 251.792 174.125Z" fill="#EAEAEA"></path>
  <path opacity="0.86" d="M252.029 173.83V149.998C251.861 150.275 251.696 150.552 251.513 150.824C247.928 156.446 242.83 160.643 236.219 163.416C242.828 165.028 248.098 168.499 252.029 173.83Z" fill="#EAEAEA"></path>
  <path opacity="0.89" d="M252.262 173.532V149.7C252.094 149.977 251.929 150.255 251.746 150.529C248.159 156.147 243.06 160.344 236.449 163.119C243.053 164.728 248.324 168.199 252.262 173.532Z" fill="#EAEAEA"></path>
  <path opacity="0.92" d="M252.496 173.234V149.402C252.331 149.68 252.163 149.957 251.98 150.231C248.394 155.853 243.295 160.049 236.684 162.821C243.303 164.434 248.574 167.905 252.496 173.234Z" fill="#EAEAEA"></path>
  <path opacity="0.94" d="M252.73 172.937V149.105C252.565 149.382 252.398 149.659 252.214 149.931C248.626 155.552 243.527 159.75 236.918 162.523C243.531 164.136 248.801 167.607 252.73 172.937Z" fill="#EAEAEA"></path>
  <path opacity="0.97" d="M252.965 172.639V148.807C252.8 149.084 252.633 149.361 252.449 149.633C248.863 155.254 243.764 159.452 237.153 162.225C243.764 163.838 249.035 167.309 252.965 172.639Z" fill="#EAEAEA"></path>
  <path d="M253.2 172.333V148.501C253.035 148.778 252.867 149.055 252.684 149.327C249.098 154.949 243.999 159.146 237.388 161.919C244 163.538 249.271 167.009 253.2 172.333Z" fill="#EAEAEA"></path>
  <path d="M253.2 172.333V148.501C253.035 148.778 252.867 149.055 252.684 149.327C249.098 154.949 243.999 159.146 237.388 161.919C244 163.538 249.271 167.009 253.2 172.333Z" fill="#6B873E"></path>
  <path d="M234.607 35.8219H162.65C159.78 31.606 156.526 27.6673 152.93 24.0566C121.013 -8.00129 69.2635 -8.00129 37.3471 24.0566C9.98024 51.54 6.08059 93.6613 25.6379 125.323V215.207C25.6379 220.159 27.5965 224.909 31.0827 228.411C34.569 231.912 39.2975 233.88 44.2281 233.881H177.991C176.316 231.998 174.806 229.975 173.477 227.832C169.179 220.939 166.823 212.736 166.411 203.224H196.264C196.683 206.597 197.615 209.464 199.06 211.824C200.396 214.085 202.307 215.947 204.597 217.22C206.846 218.455 209.448 219.073 212.404 219.075C217.887 219.075 222.124 217.444 225.114 214.184C228.104 210.924 229.596 206.322 229.591 200.38V196.557C229.591 190.34 228.378 185.544 225.952 182.168C223.526 178.792 220.063 177.105 215.563 177.109H202.588V147.431H215.563C219.219 147.431 222.049 145.95 224.054 142.989C226.058 140.027 227.061 135.883 227.061 130.555V127.758C227.061 122.738 225.954 118.859 223.739 116.122C221.524 113.385 218.412 112.017 214.403 112.019C211.87 111.998 209.389 112.741 207.282 114.153C205.136 115.578 203.324 117.639 201.848 120.336C200.371 123.034 199.317 126.292 198.686 130.11H168.936C169.78 120.142 172.294 111.542 176.479 104.31C180.665 97.0779 186.132 91.5692 192.883 87.7838C199.635 83.9985 207.16 82.1067 215.457 82.1084C229.029 82.1084 239.525 85.7988 246.946 93.1795C249.463 95.6949 251.574 98.5905 253.2 101.761V54.4722C253.195 49.5235 251.233 44.7794 247.747 41.2823C244.261 37.7852 239.535 35.8212 234.607 35.8219Z" fill="#6B873E"></path>
  <path d="M94.951 152.592C133.332 152.592 164.445 121.343 164.445 82.7958C164.445 44.2483 133.332 12.9995 94.951 12.9995C56.5706 12.9995 25.457 44.2483 25.457 82.7958C25.457 121.343 56.5706 152.592 94.951 152.592Z" fill="url(#paint0_linear_921_506)"></path>
  <g clip-path="url(#clip0_921_506)">
    <path d="M124.786 80.4486C126.772 80.4486 128.491 79.7366 129.895 78.3317C131.3 76.9271 132.012 75.2084 132.012 73.2229C132.012 71.238 131.3 69.5191 129.895 68.114C128.49 66.7096 126.771 65.9976 124.786 65.9976C122.801 65.9976 121.082 66.7096 119.677 68.1142C118.273 69.5189 117.561 71.2378 117.561 73.2229C117.561 75.2084 118.273 76.9273 119.678 78.332C121.083 79.7364 122.801 80.4486 124.786 80.4486Z" fill="#6B873E"></path>
    <path d="M137.429 89.0656C137.389 88.481 137.307 87.8434 137.186 87.17C137.064 86.4916 136.908 85.8503 136.72 85.2641C136.526 84.6583 136.262 84.06 135.937 83.4866C135.598 82.8915 135.201 82.3733 134.755 81.9469C134.289 81.5009 133.718 81.1422 133.058 80.8806C132.4 80.6203 131.671 80.4885 130.891 80.4885C130.585 80.4885 130.289 80.6142 129.717 80.9866C129.365 81.2161 128.953 81.4816 128.494 81.7753C128.101 82.0257 127.568 82.2603 126.911 82.4727C126.269 82.6803 125.618 82.7856 124.975 82.7856C124.332 82.7856 123.681 82.6803 123.038 82.4727C122.382 82.2605 121.849 82.0259 121.457 81.7755C121.001 81.4846 120.589 81.2191 120.232 80.9863C119.661 80.6139 119.364 80.4883 119.058 80.4883C118.278 80.4883 117.549 80.6203 116.892 80.8808C116.232 81.142 115.661 81.5006 115.194 81.9472C114.749 82.3738 114.351 82.8918 114.013 83.4866C113.688 84.06 113.424 84.658 113.23 85.2643C113.043 85.8505 112.886 86.4916 112.764 87.17C112.643 87.8425 112.561 88.4803 112.521 89.0663C112.481 89.6403 112.461 90.2361 112.461 90.8378C112.461 92.4038 112.959 93.6716 113.94 94.6066C114.91 95.5292 116.193 95.9973 117.753 95.9973H132.198C133.758 95.9973 135.04 95.5294 136.01 94.6066C136.992 93.6723 137.49 92.4043 137.49 90.8376C137.49 90.2331 137.469 89.6369 137.429 89.0656Z" fill="#6B873E"></path>
  </g>
  <g clip-path="url(#clip1_921_506)">
    <path d="M94.7863 80.4486C96.7716 80.4486 98.4908 79.7366 99.8954 78.3317C101.3 76.9271 102.012 75.2084 102.012 73.2229C102.012 71.238 101.3 69.5191 99.8952 68.114C98.4903 66.7096 96.7714 65.9976 94.7863 65.9976C92.8008 65.9976 91.0821 66.7096 89.6775 68.1142C88.2728 69.5189 87.5605 71.2378 87.5605 73.2229C87.5605 75.2084 88.2728 76.9273 89.6777 78.332C91.0826 79.7364 92.8015 80.4486 94.7863 80.4486Z" fill="#6B873E"></path>
    <path d="M107.429 89.0656C107.389 88.481 107.307 87.8434 107.186 87.17C107.064 86.4916 106.908 85.8503 106.72 85.2641C106.526 84.6583 106.262 84.06 105.937 83.4866C105.598 82.8915 105.201 82.3733 104.755 81.9469C104.289 81.5009 103.718 81.1422 103.058 80.8806C102.4 80.6203 101.671 80.4885 100.891 80.4885C100.585 80.4885 100.289 80.6142 99.717 80.9866C99.3649 81.2161 98.9532 81.4816 98.4936 81.7753C98.1006 82.0257 97.5682 82.2603 96.9106 82.4727C96.2691 82.6803 95.6177 82.7856 94.9748 82.7856C94.3318 82.7856 93.6807 82.6803 93.0384 82.4727C92.3816 82.2605 91.8492 82.0259 91.4566 81.7755C91.0014 81.4846 90.5894 81.2191 90.2321 80.9863C89.6608 80.6139 89.3644 80.4883 89.0582 80.4883C88.2782 80.4883 87.5494 80.6203 86.8918 80.8808C86.2322 81.142 85.6612 81.5006 85.1945 81.9472C84.7488 82.3738 84.3513 82.8918 84.0134 83.4866C83.6877 84.06 83.4241 84.658 83.23 85.2643C83.0425 85.8505 82.8857 86.4916 82.764 87.17C82.6434 87.8425 82.5614 88.4803 82.5209 89.0663C82.4811 89.6403 82.4609 90.2361 82.4609 90.8378C82.4609 92.4038 82.9588 93.6716 83.9404 94.6066C84.91 95.5292 86.1928 95.9973 87.7529 95.9973H102.198C103.758 95.9973 105.04 95.5294 106.01 94.6066C106.992 93.6723 107.49 92.4043 107.49 90.8376C107.49 90.2331 107.469 89.6369 107.429 89.0656Z" fill="#6B873E"></path>
  </g>
  <g clip-path="url(#clip2_921_506)">
    <path d="M64.7863 80.4486C66.7716 80.4486 68.4908 79.7366 69.8954 78.3317C71.3 76.9271 72.0121 75.2084 72.0121 73.2229C72.0121 71.238 71.3 69.5191 69.8952 68.114C68.4903 66.7096 66.7714 65.9976 64.7863 65.9976C62.8008 65.9976 61.0821 66.7096 59.6775 68.1142C58.2728 69.5189 57.5605 71.2378 57.5605 73.2229C57.5605 75.2084 58.2728 76.9273 59.6777 78.332C61.0826 79.7364 62.8015 80.4486 64.7863 80.4486Z" fill="#6B873E"></path>
    <path d="M77.4293 89.0656C77.3888 88.481 77.3069 87.8434 77.1863 87.17C77.0645 86.4916 76.9077 85.8503 76.72 85.2641C76.5262 84.6583 76.2625 84.06 75.9366 83.4866C75.5983 82.8915 75.2009 82.3733 74.7551 81.9469C74.2889 81.5009 73.718 81.1422 73.0579 80.8806C72.4001 80.6203 71.6711 80.4885 70.8913 80.4885C70.5851 80.4885 70.2889 80.6142 69.717 80.9866C69.3649 81.2161 68.9532 81.4816 68.4936 81.7753C68.1006 82.0257 67.5682 82.2603 66.9106 82.4727C66.2691 82.6803 65.6177 82.7856 64.9748 82.7856C64.3318 82.7856 63.6807 82.6803 63.0384 82.4727C62.3816 82.2605 61.8492 82.0259 61.4566 81.7755C61.0014 81.4846 60.5894 81.2191 60.2321 80.9863C59.6608 80.6139 59.3644 80.4883 59.0582 80.4883C58.2782 80.4883 57.5494 80.6203 56.8918 80.8808C56.2322 81.142 55.6612 81.5006 55.1945 81.9472C54.7488 82.3738 54.3513 82.8918 54.0134 83.4866C53.6877 84.06 53.4241 84.658 53.23 85.2643C53.0425 85.8505 52.8857 86.4916 52.764 87.17C52.6434 87.8425 52.5614 88.4803 52.5209 89.0663C52.4811 89.6403 52.4609 90.2361 52.4609 90.8378C52.4609 92.4038 52.9588 93.6716 53.9404 94.6066C54.91 95.5292 56.1928 95.9973 57.7529 95.9973H72.198C73.7581 95.9973 75.0405 95.5294 76.0103 94.6066C76.9922 93.6723 77.49 92.4043 77.49 90.8376C77.4897 90.2331 77.4694 89.6369 77.4293 89.0656Z" fill="#6B873E"></path>
  </g>
  <path d="M142.6 34.4127C169.423 61.3521 169.732 104.854 143.516 132.177C143.828 131.874 144.143 131.571 144.452 131.26C171.592 104.002 171.592 59.8083 144.452 32.5529C117.312 5.29747 73.3127 5.29488 46.1728 32.5529C45.8633 32.8637 45.5615 33.1797 45.2598 33.4932C72.4641 7.1625 115.772 7.46557 142.6 34.4127Z" fill="white"></path>
  <path d="M40.476 182.981C40.476 185.893 42.688 188.161 45.544 188.161C48.4 188.161 50.626 185.893 50.626 182.981C50.626 180.139 48.4 177.941 45.544 177.941C42.688 177.941 40.476 180.139 40.476 182.981ZM41.932 182.981C41.932 180.867 43.542 179.243 45.544 179.243C47.546 179.243 49.17 180.867 49.17 182.981C49.17 185.165 47.546 186.845 45.544 186.845C43.542 186.845 41.932 185.165 41.932 182.981ZM51.5916 184.451C51.5916 186.649 52.7956 188.161 54.7136 188.161C56.4496 188.161 57.0376 186.873 57.0376 186.873H57.0656C57.0656 186.873 57.0516 187.027 57.0516 187.237C57.0516 187.713 57.2896 187.993 57.9196 187.993H59.2216V186.831H58.6476C58.4516 186.831 58.3396 186.733 58.3396 186.523V179.005C58.3396 178.375 58.0736 178.109 57.4296 178.109H56.0996V179.271H56.6736C56.8696 179.271 56.9816 179.369 56.9816 179.579V181.357C56.9816 181.623 56.9956 181.833 56.9956 181.833H56.9676C56.9676 181.833 56.4216 180.741 54.7836 180.741C52.9216 180.741 51.5916 182.197 51.5916 184.451ZM52.9636 184.451C52.9636 182.841 53.9016 181.917 55.0076 181.917C56.3656 181.917 57.0096 183.177 57.0096 184.437C57.0096 186.243 56.0296 186.985 54.9796 186.985C53.7896 186.985 52.9636 185.991 52.9636 184.451ZM67.5815 188.161C69.4295 188.161 70.7595 186.803 70.7595 184.857C70.7595 183.051 69.5135 181.637 67.6515 181.637C66.7835 181.637 65.8595 182.001 65.4675 182.603H65.4395C65.6495 180.909 66.5875 179.215 68.4075 179.215C69.1915 179.215 69.8075 179.537 69.8075 179.537L70.2555 178.347C70.2555 178.347 69.5135 177.941 68.3375 177.941C65.2855 177.941 63.8855 181.035 63.8855 183.611C63.8855 186.369 65.4815 188.161 67.5815 188.161ZM65.3555 184.199C65.3555 183.485 66.2515 182.813 67.3575 182.813C68.6315 182.813 69.3875 183.667 69.3875 184.857C69.3875 186.005 68.7155 186.887 67.5815 186.887C66.3215 186.887 65.3555 185.459 65.3555 184.199ZM75.4536 188.161C78.0996 188.161 78.9536 185.893 78.9536 183.037C78.9536 180.195 78.0996 177.941 75.4536 177.941C72.8216 177.941 71.9676 180.195 71.9676 183.037C71.9676 185.893 72.8216 188.161 75.4536 188.161ZM75.4536 186.887C73.8436 186.887 73.3816 185.193 73.3816 183.037C73.3816 180.895 73.8436 179.215 75.4536 179.215C77.0776 179.215 77.5396 180.895 77.5396 183.037C77.5396 185.193 77.0776 186.887 75.4536 186.887ZM87.5942 188.161C90.2402 188.161 91.0942 185.893 91.0942 183.037C91.0942 180.195 90.2402 177.941 87.5942 177.941C84.9622 177.941 84.1082 180.195 84.1082 183.037C84.1082 185.893 84.9622 188.161 87.5942 188.161ZM87.5942 186.887C85.9842 186.887 85.5222 185.193 85.5222 183.037C85.5222 180.895 85.9842 179.215 87.5942 179.215C89.2182 179.215 89.6802 180.895 89.6802 183.037C89.6802 185.193 89.2182 186.887 87.5942 186.887ZM95.9751 188.161C98.6211 188.161 99.4751 185.893 99.4751 183.037C99.4751 180.195 98.6211 177.941 95.9751 177.941C93.3431 177.941 92.4891 180.195 92.4891 183.037C92.4891 185.893 93.3431 188.161 95.9751 188.161ZM95.9751 186.887C94.3651 186.887 93.9031 185.193 93.9031 183.037C93.9031 180.895 94.3651 179.215 95.9751 179.215C97.5991 179.215 98.0611 180.895 98.0611 183.037C98.0611 185.193 97.5991 186.887 95.9751 186.887ZM104.356 188.161C107.002 188.161 107.856 185.893 107.856 183.037C107.856 180.195 107.002 177.941 104.356 177.941C101.724 177.941 100.87 180.195 100.87 183.037C100.87 185.893 101.724 188.161 104.356 188.161ZM104.356 186.887C102.746 186.887 102.284 185.193 102.284 183.037C102.284 180.895 102.746 179.215 104.356 179.215C105.98 179.215 106.442 180.895 106.442 183.037C106.442 185.193 105.98 186.887 104.356 186.887ZM112.829 187.993H118.205C118.835 187.993 119.101 187.727 119.101 187.097V186.047H117.855V186.523C117.855 186.719 117.743 186.831 117.547 186.831H115.293C114.831 186.831 114.607 186.859 114.607 186.859V186.831C114.607 186.831 114.901 186.551 115.195 186.187L118.821 181.693V180.909H113.767C113.137 180.909 112.857 181.175 112.857 181.805V182.855H114.103V182.379C114.103 182.183 114.215 182.071 114.411 182.071H116.357C116.819 182.071 117.029 182.043 117.029 182.043V182.071C117.029 182.071 116.749 182.351 116.455 182.729L112.829 187.209V187.993ZM120.622 187.097C120.622 187.727 120.888 187.993 121.518 187.993H122.862V186.831H122.288C122.092 186.831 121.98 186.733 121.98 186.523V182.729L123.072 182.085V180.727L121.98 181.357V179.005C121.98 178.375 121.714 178.109 121.084 178.109H119.74V179.271H120.314C120.51 179.271 120.622 179.369 120.622 179.579V182.127L119.572 182.743V184.101L120.622 183.499V187.097ZM127.485 188.581H128.689L132.245 177.577H131.041L127.485 188.581ZM133.94 187.993H135.298V184.759C135.298 184.437 135.326 184.129 135.396 183.849C135.662 182.841 136.404 181.973 137.426 181.973C138.504 181.973 138.644 182.827 138.644 183.751V187.993H140.002V184.759C140.002 184.395 140.044 184.087 140.128 183.793C140.366 182.827 141.122 181.973 142.102 181.973C143.152 181.973 143.348 182.757 143.348 183.751V187.097C143.348 187.727 143.614 187.993 144.244 187.993H145.588V186.831H145.014C144.818 186.831 144.706 186.733 144.706 186.523V183.457C144.706 181.651 143.964 180.741 142.368 180.741C141.22 180.741 140.24 181.497 139.862 182.351H139.834C139.582 181.287 138.896 180.741 137.692 180.741C136.586 180.741 135.606 181.539 135.27 182.365H135.242C135.242 182.365 135.256 182.183 135.256 181.959V181.693C135.256 181.175 134.976 180.909 134.36 180.909H133.058V182.071H133.632C133.828 182.071 133.94 182.169 133.94 182.379V187.993ZM147.024 179.523H148.242V178.109H147.024V179.523ZM146.996 187.097C146.996 187.727 147.262 187.993 147.892 187.993H149.236V186.831H148.662C148.466 186.831 148.354 186.733 148.354 186.523V181.805C148.354 181.175 148.088 180.909 147.444 180.909H146.114V182.071H146.688C146.884 182.071 146.996 182.169 146.996 182.379V187.097ZM149.987 184.451C149.987 186.551 151.527 188.161 153.753 188.161C155.097 188.161 156.161 187.433 156.497 187.153L155.923 186.159C155.685 186.327 154.915 186.985 153.837 186.985C152.563 186.985 151.471 186.159 151.387 184.633H156.553C156.567 184.521 156.595 184.255 156.595 184.059C156.595 182.239 155.545 180.741 153.543 180.741C151.527 180.741 149.987 182.197 149.987 184.451ZM151.443 183.653C151.639 182.477 152.465 181.791 153.515 181.791C154.439 181.791 155.195 182.435 155.237 183.653H151.443ZM157.464 186.915C157.464 186.915 158.402 188.161 160.292 188.161C161.776 188.161 162.896 187.349 162.896 186.089C162.896 183.723 159.018 184.017 159.018 182.673C159.018 182.113 159.55 181.833 160.348 181.833C160.768 181.833 161.412 182.015 161.412 182.435V182.785H162.63V182.113C162.63 181.035 161.146 180.741 160.306 180.741C158.864 180.741 157.674 181.371 157.674 182.729C157.674 185.011 161.524 184.871 161.524 186.145C161.524 186.761 160.964 187.055 160.306 187.055C159.004 187.055 158.15 186.005 158.15 186.005L157.464 186.915ZM164.187 187.993H165.573V186.551H164.187V187.993ZM44.9498 210.793H46.3078V207.643C46.3078 207.279 46.2798 207.027 46.2798 207.027H46.3078C46.3078 207.027 46.9098 208.161 48.4778 208.161C50.3398 208.161 51.6978 206.705 51.6978 204.451C51.6978 202.253 50.4938 200.741 48.5758 200.741C46.8118 200.741 46.2238 202.001 46.2238 202.001H46.1958C46.1958 202.001 46.2098 201.833 46.2098 201.623C46.2098 201.175 45.9718 200.909 45.3418 200.909H44.0678V202.071H44.6418C44.8378 202.071 44.9498 202.169 44.9498 202.379V210.793ZM46.2658 204.479C46.2658 202.673 47.2598 201.931 48.3098 201.931C49.4858 201.931 50.3118 202.925 50.3118 204.465C50.3118 206.075 49.3878 206.999 48.2818 206.999C46.9518 206.999 46.2658 205.739 46.2658 204.479ZM53.358 207.993H54.716V205.095C54.716 204.661 54.758 204.227 54.884 203.821C55.22 202.771 56.004 202.155 56.886 202.155C57.096 202.155 57.278 202.197 57.278 202.197V200.853C57.278 200.853 57.096 200.825 56.914 200.825C55.822 200.825 55.01 201.637 54.674 202.673H54.646C54.646 202.673 54.674 202.463 54.674 202.183V201.735C54.674 201.161 54.38 200.909 53.778 200.909H52.476V202.071H53.05C53.246 202.071 53.358 202.169 53.358 202.379V207.993ZM57.9496 207.993H63.3256C63.9556 207.993 64.2216 207.727 64.2216 207.097V206.047H62.9756V206.523C62.9756 206.719 62.8636 206.831 62.6676 206.831H60.4136C59.9516 206.831 59.7276 206.859 59.7276 206.859V206.831C59.7276 206.831 60.0216 206.551 60.3156 206.187L63.9416 201.693V200.909H58.8876C58.2576 200.909 57.9776 201.175 57.9776 201.805V202.855H59.2236V202.379C59.2236 202.183 59.3356 202.071 59.5316 202.071H61.4776C61.9396 202.071 62.1496 202.043 62.1496 202.043V202.071C62.1496 202.071 61.8696 202.351 61.5756 202.729L57.9496 207.209V207.993ZM66.3307 210.933C67.3247 210.933 68.1787 210.359 68.6267 209.267L71.4127 202.351C71.5107 202.127 71.6367 202.071 71.8607 202.071H72.0427V200.909H71.2307C70.6567 200.909 70.4047 201.063 70.2087 201.623L68.7247 205.613C68.5987 205.977 68.4867 206.467 68.4867 206.467H68.4587C68.4587 206.467 68.3467 205.977 68.2067 205.613L66.6107 201.623C66.3867 201.063 66.1627 200.909 65.5887 200.909H64.7907V202.071H64.9727C65.1967 202.071 65.3087 202.127 65.4067 202.351L67.8287 207.965L67.5067 208.735C67.2407 209.365 66.8067 209.757 66.2607 209.757C65.6727 209.757 65.2387 209.295 65.2247 209.253L64.6647 210.233C64.6647 210.233 65.2807 210.933 66.3307 210.933ZM76.474 206.775C76.474 206.775 77.692 208.161 79.736 208.161C81.794 208.161 83.138 206.677 83.138 205.025C83.138 203.121 81.612 202.267 80.338 202.127L82.928 198.991V198.109H77.72C77.09 198.109 76.88 198.375 76.88 199.005V200.251H78.154V199.621C78.154 199.411 78.266 199.313 78.462 199.313H80.38C80.926 199.313 81.22 199.271 81.22 199.271V199.299C81.22 199.299 80.926 199.523 80.632 199.943L78.574 202.533L78.882 203.275H79.568C80.716 203.275 81.71 203.933 81.71 205.039C81.71 206.103 80.814 206.845 79.736 206.845C78.224 206.845 77.23 205.725 77.23 205.725L76.474 206.775ZM88.0551 207.993H93.4311C94.0611 207.993 94.3271 207.727 94.3271 207.097V206.047H93.0811V206.523C93.0811 206.719 92.9691 206.831 92.7731 206.831H90.5191C90.0571 206.831 89.8331 206.859 89.8331 206.859V206.831C89.8331 206.831 90.1271 206.551 90.4211 206.187L94.0471 201.693V200.909H88.9931C88.3631 200.909 88.0831 201.175 88.0831 201.805V202.855H89.3291V202.379C89.3291 202.183 89.4411 202.071 89.6371 202.071H91.5831C92.0451 202.071 92.2551 202.043 92.2551 202.043V202.071C92.2551 202.071 91.9751 202.351 91.6811 202.729L88.0551 207.209V207.993ZM95.2042 204.451C95.2042 206.551 96.7442 208.161 98.9702 208.161C100.314 208.161 101.378 207.433 101.714 207.153L101.14 206.159C100.902 206.327 100.132 206.985 99.0542 206.985C97.7802 206.985 96.6882 206.159 96.6042 204.633H101.77C101.784 204.521 101.812 204.255 101.812 204.059C101.812 202.239 100.762 200.741 98.7602 200.741C96.7442 200.741 95.2042 202.197 95.2042 204.451ZM96.6602 203.653C96.8562 202.477 97.6822 201.791 98.7322 201.791C99.6562 201.791 100.412 202.435 100.454 203.653H96.6602ZM102.681 206.915C102.681 206.915 103.619 208.161 105.509 208.161C106.993 208.161 108.113 207.349 108.113 206.089C108.113 203.723 104.235 204.017 104.235 202.673C104.235 202.113 104.767 201.833 105.565 201.833C105.985 201.833 106.629 202.015 106.629 202.435V202.785H107.847V202.113C107.847 201.035 106.363 200.741 105.523 200.741C104.081 200.741 102.891 201.371 102.891 202.729C102.891 205.011 106.741 204.871 106.741 206.145C106.741 206.761 106.181 207.055 105.523 207.055C104.221 207.055 103.367 206.005 103.367 206.005L102.681 206.915ZM109.768 210.793H111.126V207.643C111.126 207.279 111.098 207.027 111.098 207.027H111.126C111.126 207.027 111.728 208.161 113.296 208.161C115.158 208.161 116.516 206.705 116.516 204.451C116.516 202.253 115.312 200.741 113.394 200.741C111.63 200.741 111.042 202.001 111.042 202.001H111.014C111.014 202.001 111.028 201.833 111.028 201.623C111.028 201.175 110.79 200.909 110.16 200.909H108.886V202.071H109.46C109.656 202.071 109.768 202.169 109.768 202.379V210.793ZM111.084 204.479C111.084 202.673 112.078 201.931 113.128 201.931C114.304 201.931 115.13 202.925 115.13 204.465C115.13 206.075 114.206 206.999 113.1 206.999C111.77 206.999 111.084 205.739 111.084 204.479ZM117.448 204.437C117.448 206.593 119.142 208.161 121.256 208.161C123.37 208.161 125.078 206.593 125.078 204.437C125.078 202.295 123.37 200.741 121.256 200.741C119.142 200.741 117.448 202.295 117.448 204.437ZM118.82 204.437C118.82 202.967 119.926 201.917 121.256 201.917C122.6 201.917 123.692 202.967 123.692 204.437C123.692 205.921 122.6 206.985 121.256 206.985C119.926 206.985 118.82 205.921 118.82 204.437ZM126.651 207.097C126.651 207.727 126.917 207.993 127.547 207.993H128.891V206.831H128.317C128.121 206.831 128.009 206.733 128.009 206.523V202.729L129.101 202.085V200.727L128.009 201.357V199.005C128.009 198.375 127.743 198.109 127.113 198.109H125.769V199.271H126.343C126.539 199.271 126.651 199.369 126.651 199.579V202.127L125.601 202.743V204.101L126.651 203.499V207.097ZM129.628 206.061C129.628 207.419 130.776 208.161 132.008 208.161C133.688 208.161 134.304 206.761 134.29 206.761H134.318C134.318 206.761 134.304 206.929 134.304 207.181C134.304 207.685 134.542 207.993 135.172 207.993H136.46V206.831H135.886C135.69 206.831 135.578 206.733 135.578 206.523V203.513C135.578 201.931 134.962 200.741 132.624 200.741C131.98 200.741 130.202 200.923 130.202 202.057V202.771H131.49V202.365C131.49 201.903 132.316 201.819 132.652 201.819C133.744 201.819 134.22 202.267 134.22 203.485V203.583H133.912C132.722 203.583 129.628 203.681 129.628 206.061ZM130.986 205.935C130.986 204.661 132.834 204.563 133.856 204.563H134.22V204.829C134.22 205.879 133.492 207.083 132.316 207.083C131.434 207.083 130.986 206.509 130.986 205.935ZM137.108 204.451C137.108 206.579 138.662 208.161 140.888 208.161C142.764 208.161 143.758 206.943 143.758 206.943L143.184 205.977C143.184 205.977 142.316 206.957 140.986 206.957C139.656 206.957 138.48 206.047 138.48 204.437C138.48 202.939 139.53 201.903 140.916 201.903C141.42 201.903 142.232 202.127 142.232 202.631V203.023H143.464V202.295C143.464 201.091 141.77 200.741 140.916 200.741C138.634 200.741 137.108 202.365 137.108 204.451ZM145.008 207.993H146.366V204.675C146.366 204.339 146.394 204.017 146.478 203.737C146.772 202.715 147.654 201.987 148.732 201.987C149.866 201.987 150.062 202.771 150.062 203.765V207.097C150.062 207.727 150.328 207.993 150.958 207.993H152.302V206.831H151.728C151.532 206.831 151.42 206.733 151.42 206.523V203.457C151.42 201.651 150.65 200.741 148.984 200.741C147.57 200.741 146.674 201.637 146.366 202.323H146.338C146.338 202.323 146.366 202.071 146.366 201.735V198.977C146.366 198.375 146.086 198.109 145.456 198.109H144.126V199.271H144.7C144.896 199.271 145.008 199.369 145.008 199.579V207.993Z" fill="white"></path>
  <defs>
    <linearGradient id="paint0_linear_921_506" x1="144.107" y1="33.4532" x2="45.3991" y2="131.733" gradientUnits="userSpaceOnUse">
      <stop stop-color="#E6E6E6"></stop>
      <stop offset="0.03" stop-color="#E9E9E9"></stop>
      <stop offset="0.21" stop-color="#F6F6F6"></stop>
      <stop offset="0.45" stop-color="#FDFDFD"></stop>
      <stop offset="1" stop-color="white"></stop>
    </linearGradient>
    <clipPath id="clip0_921_506">
      <rect width="29.9999" height="29.9987" fill="white" transform="translate(110 65.9976)"></rect>
    </clipPath>
    <clipPath id="clip1_921_506">
      <rect width="29.9999" height="29.9987" fill="white" transform="translate(80 65.9976)"></rect>
    </clipPath>
    <clipPath id="clip2_921_506">
      <rect width="29.9999" height="29.9987" fill="white" transform="translate(50 65.9976)"></rect>
    </clipPath>
  </defs>
</svg>
