<?xml version="1.0" encoding="UTF-8"?>
<svg xmlns="http://www.w3.org/2000/svg" width="160" height="160" viewBox="0 0 160 160" fill="none">
  <circle cx="80" cy="80" r="78.5" fill="white" stroke="#5B7B3B" stroke-width="3"></circle>
  <g clip-path="url(#clip0_295_734)">
    <path d="M62.083 79.4997C62.083 89.6709 70.3285 97.9163 80.4997 97.9163C90.6709 97.9163 98.9163 89.6709 98.9163 79.4997C98.9163 69.3285 90.6709 61.083 80.4997 61.083C70.3333 61.0948 62.0948 69.3333 62.083 79.4997ZM80.4997 63.9163C89.1062 63.9163 96.083 70.8931 96.083 79.4997C96.083 88.1062 89.1062 95.083 80.4997 95.083C71.8931 95.083 64.9163 88.1062 64.9163 79.4997C64.9267 70.8973 71.8973 63.9267 80.4997 63.9163Z" fill="#5B7B3B"></path>
    <path d="M80.4997 86.5833C78.935 86.5833 77.6663 85.3147 77.6663 83.75H74.833C74.8427 86.326 76.5886 88.5714 79.083 89.2154V92.25H81.9163V89.2154C84.6764 88.505 86.4769 85.8522 86.1172 83.0251C85.7568 80.1973 83.3496 78.0799 80.4997 78.0833C78.935 78.0833 77.6663 76.8147 77.6663 75.25C77.6663 73.6853 78.935 72.4167 80.4997 72.4167C82.0644 72.4167 83.333 73.6853 83.333 75.25H86.1663C86.1567 72.674 84.4107 70.4286 81.9163 69.7846V66.75H79.083V69.7846C76.323 70.495 74.5231 73.1478 74.8828 75.9749C75.2425 78.8027 77.6497 80.9201 80.4997 80.9167C82.0644 80.9167 83.333 82.1853 83.333 83.75C83.333 85.3147 82.0644 86.5833 80.4997 86.5833Z" fill="#5B7B3B"></path>
    <path d="M75.6836 102.45C75.254 102.128 74.6799 102.076 74.1998 102.316C73.7198 102.556 73.4168 103.046 73.4168 103.583V105.476C62.5151 102.499 54.6321 93.0314 53.6796 81.7714C52.7271 70.5107 58.9077 59.8539 69.1543 55.0879C69.5293 54.9136 69.8094 54.5843 69.9215 54.1859C70.0335 53.7881 69.9657 53.3606 69.7361 53.0168L64.9763 45.8768C64.5778 45.2791 63.7948 45.0744 63.1543 45.4009C50.3026 51.9031 42.2141 65.0965 42.2501 79.4998C42.349 97.8577 55.3951 113.592 73.4168 117.09V120.583C73.4168 121.12 73.7198 121.61 74.1998 121.85C74.6799 122.09 75.254 122.039 75.6836 121.716L87.0169 113.216C87.3739 112.949 87.5835 112.529 87.5835 112.083C87.5835 111.637 87.3739 111.217 87.0169 110.95L75.6836 102.45ZM76.2501 117.75V115.894C76.2501 115.195 75.7396 114.6 75.0486 114.494C57.8487 111.724 45.1734 96.9217 45.0835 79.4998C45.0496 66.6142 52.045 54.7351 63.33 48.5144L66.4877 53.2534C55.4179 59.1573 49.2408 71.3719 51.0476 83.7878C52.8544 96.203 62.2564 106.151 74.5505 108.655C74.967 108.736 75.3986 108.629 75.7292 108.363C76.0585 108.094 76.2501 107.692 76.2501 107.267V106.416L83.8052 112.083L76.2501 117.75Z" fill="#5B7B3B"></path>
    <path d="M87.5837 41.9101V38.4168C87.5837 37.88 87.2807 37.3896 86.8006 37.1496C86.3206 36.9095 85.7464 36.9614 85.3169 37.2837L73.9835 45.7838C73.6273 46.0508 73.417 46.4706 73.417 46.9168C73.417 47.363 73.6273 47.7829 73.9835 48.0499L85.3169 56.5499C85.7464 56.8722 86.3206 56.9241 86.8006 56.6841C87.2807 56.444 87.5837 55.9536 87.5837 55.4168V53.5242C98.6023 56.525 106.527 66.1525 107.356 77.5425C108.184 88.9319 101.735 99.6046 91.2671 104.169C90.886 104.334 90.5968 104.659 90.4765 105.057C90.3561 105.454 90.4163 105.885 90.6411 106.234L95.2875 113.459C95.5483 113.865 95.9979 114.11 96.4807 114.11C96.6931 114.108 96.9027 114.06 97.0936 113.968C111.987 106.801 120.592 90.8805 118.43 74.4955C116.268 58.1104 103.826 44.9675 87.5837 41.9101ZM96.9836 110.855L93.9006 106.063C105.217 100.359 111.678 88.1136 109.999 75.5531C108.319 62.9927 98.8672 52.8754 86.4506 50.345C86.0335 50.2599 85.6005 50.3665 85.2712 50.6362C84.9412 50.9053 84.7503 51.3079 84.7503 51.7333V52.5835L77.1952 46.9168L84.7503 41.2501V43.1061C84.751 43.8047 85.2608 44.3996 85.9519 44.5054C103.152 47.2758 115.827 62.0782 115.917 79.5001C115.982 92.6749 108.673 104.779 96.9836 110.855Z" fill="#5B7B3B"></path>
  </g>
  <defs>
    <clipPath id="clip0_295_734">
      <rect width="85" height="85" fill="white" transform="translate(38 37)"></rect>
    </clipPath>
  </defs>
</svg>
