<?xml version="1.0" encoding="UTF-8"?>
<svg xmlns="http://www.w3.org/2000/svg" width="254" height="252" viewBox="0 0 254 252" fill="none">
  <path opacity="0.03" d="M215.035 231.668H155.79V204.664L197.664 99.8645H226.641L185.891 203.379H215.035V163.944H240.586V71.8268C240.585 66.8747 238.626 62.1256 235.139 58.6242C231.653 55.1228 226.924 53.1557 221.993 53.1557H149.858C147.032 49.034 143.838 45.1793 140.316 41.6391C108.397 9.58123 56.6468 9.58123 24.7303 41.6391C-2.55144 69.0396 -6.50774 110.987 12.8484 142.615V232.779C12.8484 237.731 14.8069 242.481 18.2932 245.983C21.7795 249.485 26.5079 251.452 31.4386 251.453H215.04L215.035 231.668Z" fill="#EAEAEA"></path>
  <path opacity="0.06" d="M215.411 231.166H156.161V204.162L198.035 99.3602H227.017L186.267 202.877H215.411V163.442H240.962V71.325C240.96 66.3747 239.001 61.6278 235.515 58.1276C232.03 54.6275 227.303 52.6605 222.374 52.6591H150.229C147.402 48.5374 144.208 44.6827 140.686 41.1425C108.767 9.08465 57.0201 9.08465 25.1011 41.1425C-2.18586 68.5378 -6.1345 110.486 13.2088 142.114V232.278C13.2088 237.23 15.1673 241.979 18.6536 245.481C22.1398 248.983 26.8683 250.951 31.799 250.951H215.411V231.166Z" fill="#EAEAEA"></path>
  <path opacity="0.08" d="M215.778 230.664H156.533V203.66L198.41 98.8575H227.386L186.631 202.38H215.775V162.94H241.326V70.8224C241.327 68.3697 240.847 65.9408 239.913 63.6745C238.98 61.4082 237.611 59.3488 235.884 57.614C234.158 55.8792 232.108 54.5029 229.852 53.5639C227.596 52.6248 225.178 52.1413 222.736 52.1409H150.601C147.775 48.02 144.581 44.166 141.059 40.6269C109.14 8.56902 57.3925 8.56902 25.4735 40.6269C-1.80823 68.0274 -5.7646 109.975 13.5916 141.603V231.775C13.5916 236.728 15.5505 241.477 19.0373 244.979C22.5241 248.481 27.2532 250.449 32.1843 250.449H215.783L215.778 230.664Z" fill="#EAEAEA"></path>
  <path opacity="0.11" d="M216.149 230.161H156.904V203.157L198.781 98.3551H227.757L187.002 201.862H216.146V162.437H241.697V70.32C241.697 65.3678 239.739 60.6185 236.252 57.1166C232.766 53.6147 228.038 51.647 223.107 51.6463H150.969C148.144 47.5247 144.95 43.6707 141.427 40.1323C109.51 8.0744 57.7607 8.0744 25.8443 40.1323C-1.43748 67.5302 -5.39642 109.481 13.9597 141.108V231.273C13.9604 236.225 15.9197 240.974 19.4064 244.475C22.8931 247.977 27.6219 249.944 32.5525 249.944H216.151L216.149 230.161Z" fill="#EAEAEA"></path>
  <path opacity="0.14" d="M216.523 229.658H157.276V202.654L199.163 97.8523H228.14L187.39 201.369H216.534V161.934H242.082V69.8172C242.082 64.8651 240.124 60.1157 236.637 56.6138C233.151 53.1119 228.423 51.1442 223.492 51.1435H151.354C148.528 47.0216 145.334 43.1668 141.812 39.6269C109.895 7.57163 58.1455 7.57163 26.2291 39.6269C-1.05271 67.0274 -5.01166 108.978 14.3445 140.606V230.77C14.3452 235.722 16.3044 240.471 19.7912 243.972C23.2779 247.474 28.0067 249.441 32.9373 249.441H216.539L216.523 229.658Z" fill="#EAEAEA"></path>
  <path opacity="0.17" d="M216.894 229.156H157.639V202.152L199.524 97.3499H228.5L187.75 200.865H216.894V161.432H242.443V69.3147C242.443 64.3626 240.484 59.6133 236.998 56.1114C233.512 52.6095 228.783 50.6418 223.852 50.6411H151.707C148.88 46.5199 145.686 42.6652 142.164 39.1245C110.248 7.06918 58.4984 7.06918 26.5819 39.1245C-0.699838 66.525 -4.6562 108.475 14.7 140.103V230.267C14.7 235.219 16.6586 239.968 20.1449 243.47C23.6313 246.971 28.3598 248.938 33.2902 248.938H216.891L216.894 229.156Z" fill="#EAEAEA"></path>
  <path opacity="0.19" d="M217.265 228.654H158.021V201.649L199.895 96.8474H228.871L188.121 200.362H217.265V160.935H242.816V68.8123C242.816 63.8597 240.857 59.11 237.371 55.608C233.884 52.106 229.155 50.1386 224.224 50.1386H152.089C149.261 46.0179 146.067 42.1633 142.546 38.622C110.627 6.56674 58.8798 6.56674 26.9608 38.622C-0.320931 66.0225 -4.2773 107.973 15.0789 139.601V229.765C15.0789 234.717 17.0375 239.466 20.5238 242.967C24.0102 246.469 28.7387 248.436 33.6691 248.436H217.27L217.265 228.654Z" fill="#EAEAEA"></path>
  <path opacity="0.22" d="M217.637 228.151H158.392V201.147L200.267 96.3445H229.245L188.496 199.859H217.639V160.416H243.191V68.3094C243.191 65.857 242.71 63.4286 241.776 61.1629C240.842 58.8971 239.472 56.8384 237.746 55.1043C236.019 53.3703 233.969 51.9948 231.713 51.0565C229.457 50.1181 227.04 49.6354 224.598 49.6357H152.46C149.633 45.515 146.439 41.6604 142.918 38.1191C110.999 6.06381 59.2516 6.06381 27.3326 38.1191C0.0560198 65.5196 -3.91066 107.47 15.4455 139.098V229.262C15.4455 231.714 15.9265 234.142 16.8609 236.408C17.7953 238.673 19.1649 240.732 20.8914 242.465C22.6179 244.199 24.6676 245.574 26.9233 246.513C29.1791 247.451 31.5968 247.933 34.0383 247.933H217.637V228.151Z" fill="#EAEAEA"></path>
  <path opacity="0.25" d="M218.008 227.648H158.764V200.644L200.641 95.842H229.617L188.867 199.357H218.011V159.924H243.562V67.8043C243.562 65.3521 243.081 62.924 242.147 60.6586C241.212 58.3931 239.843 56.3347 238.116 54.6009C236.39 52.8671 234.34 51.4919 232.084 50.5537C229.829 49.6156 227.411 49.1329 224.969 49.1332H152.832C150.006 45.0113 146.812 41.1565 143.289 37.6166C111.373 5.56131 59.623 5.56131 27.7066 37.6166C0.424828 65.0171 -3.53412 106.967 15.8221 138.593V228.757C15.8221 233.709 17.7809 238.459 21.2678 241.961C24.7546 245.463 29.4837 247.431 34.4148 247.431H218.014L218.008 227.648Z" fill="#EAEAEA"></path>
  <path opacity="0.28" d="M218.379 227.146H159.135V200.142L201.012 95.3395H229.988L189.238 198.854H218.382V159.419H243.933V67.3018C243.933 62.35 241.974 57.6009 238.488 54.0994C235.002 50.5979 230.273 48.6308 225.343 48.6308H153.203C150.377 44.5089 147.183 40.6541 143.66 37.1142C111.744 5.05887 59.994 5.05887 28.0776 37.1142C0.795882 64.5147 -3.163 106.465 16.1932 138.09V228.254C16.1932 233.207 18.152 237.957 21.6388 241.459C25.1256 244.961 29.8548 246.928 34.7859 246.928H218.385L218.379 227.146Z" fill="#EAEAEA"></path>
  <path opacity="0.31" d="M218.764 226.641H159.509V199.639L201.383 94.8371H230.37L189.62 198.352H218.764V158.917H244.297V66.7994C244.297 61.8475 242.338 57.0985 238.852 53.597C235.366 50.0954 230.637 48.1283 225.707 48.1283H153.577C150.75 44.0071 147.556 40.1524 144.034 36.6117C112.118 4.55643 60.3682 4.55643 28.4518 36.6117C1.16228 64.0122 -2.78119 105.96 16.5621 137.588V227.765C16.5618 230.217 17.0423 232.645 17.9764 234.911C18.9105 237.176 20.2798 239.235 22.0061 240.969C23.7324 242.703 25.7819 244.079 28.0375 245.017C30.2932 245.956 32.7108 246.439 35.1523 246.439H218.764V226.641Z" fill="#EAEAEA"></path>
  <path opacity="0.33" d="M219.125 226.138H159.88V199.134L201.754 94.3347H230.73L189.981 197.849H219.125V158.414H244.676V66.297C244.675 61.3449 242.716 56.5958 239.229 53.0944C235.742 49.593 231.014 47.6259 226.083 47.6259H153.948C151.121 43.5047 147.927 39.65 144.405 36.1093C112.486 4.05145 60.7392 4.05145 28.8202 36.1093C1.53844 63.5098 -2.41792 105.458 16.9383 137.085V227.247C16.9383 232.199 18.8968 236.948 22.383 240.45C25.8693 243.952 30.5978 245.92 35.5285 245.921H219.125V226.138Z" fill="#EAEAEA"></path>
  <path opacity="0.36" d="M219.497 225.635H160.252V198.631L202.126 93.8447H231.105L190.355 197.359H219.499V157.911H245.05V65.7941C245.05 60.842 243.09 56.0929 239.604 52.5915C236.117 49.09 231.388 47.123 226.458 47.123H154.32C151.494 43.0013 148.3 39.1465 144.777 35.6064C112.858 3.54852 61.1112 3.54852 29.1922 35.6064C1.90526 63.0198 -2.0511 104.955 17.3051 136.585V226.747C17.3051 231.699 19.2636 236.448 22.7499 239.95C26.2362 243.452 30.9646 245.42 35.8953 245.42H219.497V225.635Z" fill="#EAEAEA"></path>
  <path opacity="0.39" d="M219.868 225.133H160.623V198.129L202.5 93.3267H231.476L190.727 196.844H219.87V157.409H245.422V65.2916C245.422 62.8395 244.941 60.4114 244.006 58.1459C243.072 55.8805 241.702 53.8221 239.976 52.0883C238.249 50.3545 236.2 48.9792 233.944 48.0411C231.688 47.1029 229.27 46.6202 226.829 46.6206H154.691C151.867 42.4976 148.672 38.6427 145.149 35.104C113.232 3.04607 61.4824 3.04607 29.5634 35.104C2.2791 62.5019 -1.67979 104.465 17.6764 136.08V226.244C17.6771 231.197 19.6361 235.946 23.1228 239.448C26.6095 242.95 31.3382 244.917 36.2691 244.918H219.868V225.133Z" fill="#EAEAEA"></path>
  <path opacity="0.42" d="M220.239 224.631H160.992V197.626L202.869 92.8244H231.845L191.095 196.342H220.239V156.906H245.79V64.7893C245.79 59.8371 243.832 55.0878 240.345 51.5859C236.859 48.084 232.131 46.1163 227.2 46.1156H155.06C152.234 41.994 149.04 38.14 145.517 34.6016C113.601 2.54369 61.851 2.54369 29.9346 34.6016C2.65023 62.0021 -1.30872 103.947 18.0475 135.578V225.742C18.0481 230.694 20.0073 235.443 23.4939 238.945C26.9806 242.447 31.7094 244.415 36.6403 244.415H220.239V224.631Z" fill="#EAEAEA"></path>
  <path opacity="0.44" d="M220.613 224.138H161.368V197.124L203.243 92.3219H232.219L191.469 195.839H220.613V156.404H246.161V64.2868C246.161 59.3347 244.203 54.5854 240.717 51.0835C237.23 47.5815 232.502 45.6138 227.571 45.6131H155.436C152.61 41.4923 149.416 37.6383 145.894 34.0991C113.977 2.04125 62.2278 2.04125 30.3114 34.0991C3.02966 61.497 -0.926701 103.447 18.4295 135.075V225.239C18.4295 230.191 20.3881 234.94 23.8744 238.442C27.3607 241.943 32.0892 243.91 37.0196 243.91H220.621L220.613 224.138Z" fill="#EAEAEA"></path>
  <path opacity="0.47" d="M220.984 223.62H161.739V196.621L203.614 91.8194H232.59L191.84 195.337H220.984V155.901H246.535V63.7972C246.535 58.8449 244.575 54.0955 241.089 50.5937C237.602 47.0919 232.873 45.1242 227.942 45.1236H155.807C152.98 41.0029 149.786 37.1482 146.265 33.607C114.346 1.55167 62.5986 1.55167 30.6796 33.607C3.39782 61.0074 -0.558548 102.958 18.7976 134.586V224.737C18.7976 229.689 20.7563 234.438 24.2426 237.939C27.7289 241.441 32.4574 243.408 37.3878 243.408H220.989L220.984 223.62Z" fill="#EAEAEA"></path>
  <path opacity="0.5" d="M221.355 223.123H162.111V196.119L203.985 91.3167H232.961L192.199 194.831H221.343V155.399H246.894V63.279C246.892 58.3279 244.934 53.5801 241.448 50.0789C237.963 46.5778 233.236 44.6099 228.306 44.6079H156.179C153.351 40.4872 150.157 36.6325 146.636 33.0913C114.717 1.03598 62.97 1.03598 31.051 33.0913C3.76411 60.4918 -0.202509 102.442 19.164 134.07V224.234C19.164 226.686 19.6448 229.114 20.579 231.379C21.5133 233.645 22.8826 235.703 24.6089 237.437C26.3351 239.17 28.3845 240.546 30.64 241.484C32.8955 242.422 35.3128 242.905 37.7541 242.905H221.355V223.123Z" fill="#EAEAEA"></path>
  <path opacity="0.53" d="M221.727 222.62H162.483V195.616L204.36 90.8139H233.336L192.586 194.329H221.73V154.896H247.281V62.7788C247.281 60.3267 246.8 57.8986 245.865 55.6333C244.93 53.368 243.56 51.3098 241.834 49.5762C240.107 47.8426 238.057 46.4677 235.801 45.5298C233.545 44.592 231.127 44.1096 228.686 44.1103H156.551C153.725 39.9884 150.531 36.1336 147.008 32.5937C115.092 0.538423 63.342 0.538423 31.423 32.5937C4.14376 59.9942 0.184812 101.945 19.541 133.572V223.731C19.541 226.183 20.022 228.612 20.9564 230.877C21.8908 233.142 23.2603 235.201 24.9868 236.935C26.7134 238.669 28.7631 240.044 31.0188 240.982C33.2746 241.92 35.6922 242.403 38.1337 242.402H221.733L221.727 222.62Z" fill="#EAEAEA"></path>
  <path opacity="0.56" d="M222.099 222.118H162.854V195.126L204.731 90.3243H233.707L192.952 193.831H222.096V154.393H247.65V62.2763C247.651 59.8233 247.172 57.394 246.238 55.1272C245.305 52.8604 243.936 50.8006 242.209 49.0655C240.483 47.3303 238.433 45.9539 236.177 45.0147C233.92 44.0756 231.502 43.5922 229.06 43.5922H156.922C154.096 39.4704 150.902 35.6156 147.379 32.0757C115.463 0.0203552 63.7132 0.0203552 31.7967 32.0757C4.50982 59.4865 0.550878 101.437 19.9148 133.065V223.229C19.9155 228.181 21.8746 232.93 25.3614 236.431C28.8481 239.933 33.5769 241.9 38.5076 241.9H222.106L222.099 222.118Z" fill="#EAEAEA"></path>
  <path opacity="0.58" d="M222.473 221.615H163.228V194.608L205.095 89.8089H234.071L193.324 193.313H222.468V153.891H248.016V61.7711C248.016 56.8193 246.058 52.0702 242.571 48.5687C239.085 45.0672 234.357 43.1001 229.426 43.1001H157.296C154.469 38.9789 151.275 35.1242 147.754 31.5835C115.837 -0.471833 64.0874 -0.471833 32.1709 31.5835C4.88915 58.9839 0.930206 100.934 20.289 132.56V222.724C20.2886 225.176 20.7692 227.604 21.7033 229.87C22.6374 232.135 24.0067 234.194 25.733 235.928C27.4593 237.662 29.5088 239.037 31.7644 239.976C34.0201 240.914 36.4377 241.397 38.8792 241.397H222.481L222.473 221.615Z" fill="#EAEAEA"></path>
  <path opacity="0.61" d="M222.843 221.113H163.599V194.109L205.473 89.3065H234.449L193.7 192.821H222.843V153.386H248.395V61.2688C248.394 56.3166 246.435 51.5676 242.948 48.0662C239.461 44.5647 234.733 42.5977 229.802 42.5977H157.667C154.839 38.477 151.645 34.6223 148.124 31.0811C116.2 -0.961272 64.453 -0.961272 32.534 31.0811C5.25227 58.4816 1.29597 100.432 20.6521 132.057V222.221C20.6518 224.673 21.1324 227.102 22.0665 229.367C23.0006 231.633 24.3699 233.691 26.0961 235.425C27.8224 237.16 29.8719 238.535 32.1275 239.474C34.3831 240.412 36.8008 240.895 39.2423 240.895H222.843V221.113Z" fill="#EAEAEA"></path>
  <path opacity="0.64" d="M223.215 220.608H163.971V193.606L205.845 88.804H234.821L194.071 192.319H223.215V152.883H248.766V60.7662C248.766 55.8141 246.807 51.0651 243.32 47.5636C239.833 44.0622 235.104 42.0952 230.174 42.0952H158.039C155.211 37.9745 152.017 34.1198 148.496 30.5786C116.572 -1.47932 64.825 -1.47932 32.9061 30.5786C5.62439 57.9791 1.66803 99.9268 21.0242 131.555V221.719C21.0238 224.171 21.5044 226.599 22.4385 228.865C23.3726 231.13 24.7419 233.189 26.4682 234.923C28.1945 236.657 30.244 238.033 32.4996 238.971C34.7552 239.909 37.1728 240.392 39.6143 240.392H223.215V220.608Z" fill="#EAEAEA"></path>
  <path opacity="0.67" d="M223.587 220.105H164.345V193.101L206.219 88.3015H235.195L194.445 191.816H223.589V152.386H249.14V60.2638C249.14 57.8117 248.66 55.3835 247.725 53.1181C246.791 50.8526 245.421 48.7943 243.695 47.0604C241.968 45.3266 239.918 43.9514 237.663 43.0132C235.407 42.0751 232.989 41.5924 230.548 41.5927H158.413C155.586 37.4709 152.392 33.6162 148.87 30.0761C116.954 -1.98176 65.2038 -1.98176 33.2848 30.0761C5.98757 57.4766 2.03894 99.4244 21.3951 131.052V221.216C21.3951 223.669 21.876 226.097 22.8104 228.362C23.7448 230.628 25.1143 232.687 26.8408 234.421C28.5673 236.155 30.617 237.53 32.8728 238.469C35.1285 239.407 37.5463 239.89 39.9879 239.89H223.587V220.105Z" fill="#EAEAEA"></path>
  <path opacity="0.69" d="M223.958 219.603H164.713V192.599L206.59 87.7995H235.566L194.817 191.314H223.961V151.869H249.512V59.7618C249.512 54.81 247.553 50.0609 244.067 46.5594C240.58 43.0579 235.852 41.0908 230.922 41.0908H158.784C155.959 36.9678 152.765 33.1129 149.241 29.5742C117.325 -2.48371 65.5752 -2.48371 33.6587 29.5742C6.37697 56.9746 2.41803 98.9224 21.7742 130.55V220.714C21.7749 225.667 23.734 230.416 27.2207 233.918C30.7073 237.42 35.4361 239.387 40.367 239.388H223.966L223.958 219.603Z" fill="#EAEAEA"></path>
  <path opacity="0.72" d="M224.332 219.1H165.085V192.096L206.962 87.294H235.938L195.189 190.811H224.332V151.376H249.881V59.2589C249.881 54.307 247.922 49.558 244.436 46.0565C240.95 42.555 236.221 40.5878 231.291 40.5878H159.153C156.328 36.4649 153.134 32.61 149.611 29.0712C117.694 -2.98664 65.9443 -2.98664 34.0279 29.0712C6.74611 56.4717 2.78716 98.4195 22.1434 130.047V220.211C22.144 225.164 24.1032 229.913 27.5898 233.415C31.0765 236.917 35.8053 238.884 40.7362 238.885H224.338L224.332 219.1Z" fill="#EAEAEA"></path>
  <path opacity="0.75" d="M224.696 218.598H165.459V191.594L207.333 86.7916H236.302L195.552 190.309H224.696V150.874H250.247V58.7565C250.246 53.805 248.288 49.0565 244.802 45.5548C241.317 42.0531 236.59 40.0849 231.66 40.0828H159.527C156.701 35.9619 153.507 32.108 149.984 28.5688C118.068 -3.48908 66.3182 -3.48908 34.4018 28.5688C7.11232 55.9693 3.15085 97.917 22.5122 129.545V219.709C22.5122 224.661 24.4707 229.41 27.957 232.912C31.4432 236.414 36.1717 238.382 41.1023 238.383H224.696V218.598Z" fill="#EAEAEA"></path>
  <path opacity="0.78" d="M225.075 218.095H165.83V191.091L207.705 86.2891H236.681L195.931 189.806H225.075V150.371H250.626V58.254C250.625 53.3017 248.666 48.5524 245.18 45.0505C241.693 41.5487 236.964 39.5811 232.033 39.5804H159.898C157.071 35.46 153.877 31.6062 150.356 28.0664C118.437 -3.99152 66.6894 -3.99152 34.7704 28.0664C7.48864 55.4642 3.53227 97.4146 22.8885 129.042V219.217C22.8885 224.169 24.847 228.918 28.3332 232.42C31.8195 235.922 36.548 237.89 41.4787 237.891H225.08L225.075 218.095Z" fill="#EAEAEA"></path>
  <path opacity="0.81" d="M225.446 217.593H166.202V190.588L208.079 85.7864H237.055L196.305 189.304H225.449V149.868H251.003V57.7513C251.003 52.7987 249.044 48.049 245.557 44.547C242.07 41.045 237.341 39.0776 232.41 39.0776H160.27C157.443 34.9563 154.249 31.1016 150.727 27.561C118.808 -4.49429 67.0608 -4.49429 35.1418 27.561C7.85482 54.9615 3.89846 96.9118 23.2676 128.54V218.699C23.2662 223.648 25.2214 228.395 28.7034 231.897C32.1854 235.399 36.9094 237.369 41.8371 237.375H225.436L225.446 217.593Z" fill="#EAEAEA"></path>
  <path opacity="0.83" d="M225.818 217.09H166.573V190.086L208.448 85.2969H237.424L196.674 188.811H225.818V149.366H251.369V57.2488C251.369 52.2967 249.411 47.5474 245.924 44.0455C242.438 40.5435 237.71 38.5758 232.779 38.5751H160.641C157.815 34.4533 154.621 30.5985 151.099 27.0586C119.182 -4.99673 67.4325 -4.99673 35.5161 27.0586C8.22914 54.472 4.27019 96.4094 23.6264 128.037V218.201C23.6271 223.153 25.5863 227.903 29.073 231.404C32.5598 234.905 37.2885 236.872 42.2192 236.872H225.818V217.09Z" fill="#EAEAEA"></path>
  <path opacity="0.86" d="M226.191 216.588H166.944V189.584L208.821 84.7789H237.797L197.048 188.294H226.191V148.864H251.74V56.7464C251.74 54.2942 251.26 51.8661 250.326 49.6005C249.391 47.3349 248.022 45.2763 246.296 43.5423C244.57 41.8082 242.52 40.4327 240.265 39.4942C238.009 38.5557 235.591 38.0727 233.15 38.0727H161.012C158.186 33.9508 154.992 30.096 151.47 26.5561C119.553 -5.49918 67.8035 -5.49918 35.8871 26.5561C8.6002 53.954 4.64132 95.9173 23.9975 127.535V217.699C23.9982 222.651 25.9573 227.4 29.4441 230.902C32.9308 234.403 37.6595 236.37 42.5902 236.37H226.191V216.588Z" fill="#EAEAEA"></path>
  <path opacity="0.89" d="M226.563 216.085H167.318V189.081L209.192 84.279H238.169L197.419 187.794H226.563V148.361H252.111V56.2439C252.112 53.7918 251.631 51.3636 250.697 49.098C249.763 46.8325 248.394 44.7739 246.667 43.0398C244.941 41.3058 242.892 39.9302 240.636 38.9918C238.38 38.0533 235.963 37.5703 233.521 37.5703H161.386C158.559 33.4491 155.365 29.5944 151.844 26.0537C119.927 -6.00162 68.1774 -6.00162 36.261 26.0537C8.97145 53.4542 5.01514 95.3993 24.3713 127.032V217.196C24.3713 222.148 26.3299 226.897 29.8163 230.399C33.3026 233.9 38.0311 235.868 42.9615 235.868H226.563V216.085Z" fill="#EAEAEA"></path>
  <path opacity="0.92" d="M226.934 215.591H167.697V188.579L209.572 83.7766H238.548L197.798 187.291H226.942V147.859H252.493V55.7389C252.493 50.7868 250.533 46.0377 247.047 42.5363C243.56 39.0349 238.831 37.0678 233.901 37.0678H161.766C158.938 32.9471 155.744 29.0925 152.223 25.5512C120.304 -6.50406 68.5567 -6.50406 36.6377 25.5512C9.34042 52.9517 5.38662 94.902 24.7428 126.527V216.691C24.7425 219.144 25.2231 221.572 26.1572 223.837C27.0913 226.103 28.4605 228.162 30.1868 229.896C31.9131 231.63 33.9626 233.005 36.2183 233.944C38.4739 234.882 40.8915 235.365 43.333 235.365H226.934V215.591Z" fill="#EAEAEA"></path>
  <path opacity="0.94" d="M227.305 215.072H168.061V188.076L209.935 83.2739H238.914L198.164 186.789H227.308V147.356H252.859V55.2492C252.859 52.797 252.378 50.3689 251.444 48.1035C250.509 45.838 249.14 43.7796 247.413 42.0458C245.687 40.312 243.637 38.9367 241.381 37.9986C239.125 37.0604 236.708 36.5777 234.266 36.5781H162.129C159.301 32.4574 156.107 28.6027 152.586 25.0615C120.667 -6.9938 68.9199 -6.9938 37.0009 25.0615C9.71911 52.462 5.76274 94.4123 25.1189 126.038V216.189C25.1186 218.641 25.5993 221.07 26.5335 223.335C27.4678 225.601 28.8373 227.66 30.5639 229.394C32.2904 231.128 34.3403 232.503 36.5962 233.442C38.8521 234.38 41.27 234.863 43.7117 234.862H227.31L227.305 215.072Z" fill="#EAEAEA"></path>
  <path opacity="0.97" d="M227.677 214.575H168.433V187.573L210.31 82.7714H239.286L198.536 186.286H227.68V146.851H253.231V54.7311C253.231 52.279 252.75 49.8508 251.816 47.5854C250.881 45.3199 249.512 43.2615 247.785 41.5277C246.059 39.7939 244.009 38.4187 241.753 37.4805C239.497 36.5424 237.08 36.0597 234.638 36.06H162.501C159.675 31.9381 156.481 28.0833 152.958 24.5434C121.042 -7.51187 69.2919 -7.51187 37.3755 24.5434C10.0937 51.9439 6.13485 93.8917 25.491 125.52V215.686C25.491 218.139 25.9719 220.567 26.9063 222.832C27.8406 225.098 29.2102 227.157 30.9367 228.891C32.6632 230.625 34.7128 232 36.9686 232.938C39.2244 233.877 41.6421 234.36 44.0837 234.36H227.682L227.677 214.575Z" fill="#EAEAEA"></path>
  <path d="M228.048 214.072H168.803V187.071L210.68 82.2686H239.654L198.904 185.783H228.048V146.348H253.599V54.2309C253.598 49.28 251.64 44.532 248.154 41.0311C244.669 37.5302 239.941 35.5631 235.012 35.5625H162.874C160.049 31.4401 156.854 27.5852 153.331 24.0459C121.415 -8.01203 69.6653 -8.01203 37.7489 24.0459C10.4594 51.4437 6.50307 93.3915 25.8463 125.019V215.184C25.847 220.136 27.8061 224.885 31.2928 228.387C34.7795 231.889 39.5082 233.856 44.4391 233.857H228.048V214.072Z" fill="#EAEAEA"></path>
  <path d="M228.048 214.072H168.803V187.071L210.68 82.2686H239.654L198.904 185.783H228.048V146.348H253.599V54.2309C253.598 49.28 251.64 44.532 248.154 41.0311C244.669 37.5302 239.941 35.5631 235.012 35.5625H162.874C160.049 31.4401 156.854 27.5852 153.331 24.0459C121.415 -8.01203 69.6653 -8.01203 37.7489 24.0459C10.4594 51.4437 6.50307 93.3915 25.8463 125.019V215.184C25.847 220.136 27.8061 224.885 31.2928 228.387C34.7795 231.889 39.5082 233.856 44.4391 233.857H228.048V214.072Z" fill="#617F3B"></path>
  <path d="M95.494 152.592C133.874 152.592 164.988 121.343 164.988 82.7958C164.988 44.2483 133.874 12.9995 95.494 12.9995C57.1135 12.9995 26 44.2483 26 82.7958C26 121.343 57.1135 152.592 95.494 152.592Z" fill="url(#paint0_linear_921_736)"></path>
  <g clip-path="url(#clip0_921_736)">
    <path d="M109.786 64.4486C111.772 64.4486 113.491 63.7366 114.895 62.3317C116.3 60.9271 117.012 59.2084 117.012 57.2229C117.012 55.238 116.3 53.5191 114.895 52.114C113.49 50.7096 111.771 49.9976 109.786 49.9976C107.801 49.9976 106.082 50.7096 104.677 52.1142C103.273 53.5189 102.561 55.2378 102.561 57.2229C102.561 59.2084 103.273 60.9273 104.678 62.332C106.083 63.7364 107.801 64.4486 109.786 64.4486Z" fill="#617F3B"></path>
    <path d="M122.429 73.0656C122.389 72.481 122.307 71.8434 122.186 71.17C122.064 70.4916 121.908 69.8503 121.72 69.2641C121.526 68.6583 121.262 68.06 120.937 67.4866C120.598 66.8915 120.201 66.3733 119.755 65.9469C119.289 65.5009 118.718 65.1422 118.058 64.8806C117.4 64.6203 116.671 64.4885 115.891 64.4885C115.585 64.4885 115.289 64.6142 114.717 64.9866C114.365 65.2161 113.953 65.4816 113.494 65.7753C113.101 66.0257 112.568 66.2603 111.911 66.4727C111.269 66.6803 110.618 66.7856 109.975 66.7856C109.332 66.7856 108.681 66.6803 108.038 66.4727C107.382 66.2605 106.849 66.0259 106.457 65.7755C106.001 65.4846 105.589 65.2191 105.232 64.9863C104.661 64.6139 104.364 64.4883 104.058 64.4883C103.278 64.4883 102.549 64.6203 101.892 64.8808C101.232 65.142 100.661 65.5006 100.194 65.9472C99.7488 66.3738 99.3513 66.8918 99.0134 67.4866C98.6877 68.06 98.4241 68.658 98.23 69.2643C98.0425 69.8505 97.8857 70.4916 97.764 71.17C97.6434 71.8425 97.5614 72.4803 97.5209 73.0663C97.4811 73.6403 97.4609 74.2361 97.4609 74.8378C97.4609 76.4038 97.9588 77.6716 98.9404 78.6066C99.91 79.5292 101.193 79.9973 102.753 79.9973H117.198C118.758 79.9973 120.04 79.5294 121.01 78.6066C121.992 77.6723 122.49 76.4043 122.49 74.8376C122.49 74.2331 122.469 73.6369 122.429 73.0656Z" fill="#617F3B"></path>
  </g>
  <g clip-path="url(#clip1_921_736)">
    <path d="M79.7863 99.4472C81.7716 99.4472 83.4908 98.7351 84.8954 97.3303C86.3 95.9256 87.0121 94.2069 87.0121 92.2214C87.0121 90.2366 86.3 88.5177 84.8952 87.1126C83.4903 85.7081 81.7714 84.9961 79.7863 84.9961C77.8008 84.9961 76.0821 85.7081 74.6775 87.1128C73.2728 88.5174 72.5605 90.2363 72.5605 92.2214C72.5605 94.2069 73.2728 95.9258 74.6777 97.3305C76.0826 98.7349 77.8015 99.4472 79.7863 99.4472Z" fill="#617F3B"></path>
    <path d="M92.4293 108.064C92.3888 107.48 92.3069 106.842 92.1863 106.169C92.0645 105.49 91.9077 104.849 91.72 104.263C91.5262 103.657 91.2625 103.059 90.9366 102.485C90.5983 101.89 90.2009 101.372 89.7551 100.945C89.2889 100.499 88.718 100.141 88.0579 99.8791C87.4001 99.6189 86.6711 99.487 85.8913 99.487C85.5851 99.487 85.2889 99.6127 84.717 99.9851C84.3649 100.215 83.9532 100.48 83.4936 100.774C83.1006 101.024 82.5682 101.259 81.9106 101.471C81.2691 101.679 80.6177 101.784 79.9748 101.784C79.3318 101.784 78.6807 101.679 78.0384 101.471C77.3816 101.259 76.8492 101.024 76.4566 100.774C76.0014 100.483 75.5894 100.218 75.2321 99.9849C74.6608 99.6125 74.3644 99.4868 74.0582 99.4868C73.2782 99.4868 72.5494 99.6189 71.8918 99.8793C71.2322 100.141 70.6612 100.499 70.1945 100.946C69.7488 101.372 69.3513 101.89 69.0134 102.485C68.6877 103.059 68.4241 103.657 68.23 104.263C68.0425 104.849 67.8857 105.49 67.764 106.169C67.6434 106.841 67.5614 107.479 67.5209 108.065C67.4811 108.639 67.4609 109.235 67.4609 109.836C67.4609 111.402 67.9588 112.67 68.9404 113.605C69.91 114.528 71.1928 114.996 72.7529 114.996H87.198C88.7581 114.996 90.0405 114.528 91.0103 113.605C91.9922 112.671 92.49 111.403 92.49 109.836C92.4897 109.232 92.4694 108.635 92.4293 108.064Z" fill="#617F3B"></path>
  </g>
  <g clip-path="url(#clip2_921_736)">
    <path d="M79.7863 64.4486C81.7716 64.4486 83.4908 63.7366 84.8954 62.3317C86.3 60.9271 87.0121 59.2084 87.0121 57.2229C87.0121 55.238 86.3 53.5191 84.8952 52.114C83.4903 50.7096 81.7714 49.9976 79.7863 49.9976C77.8008 49.9976 76.0821 50.7096 74.6775 52.1142C73.2728 53.5189 72.5605 55.2378 72.5605 57.2229C72.5605 59.2084 73.2728 60.9273 74.6777 62.332C76.0826 63.7364 77.8015 64.4486 79.7863 64.4486Z" fill="#617F3B"></path>
    <path d="M92.4293 73.0656C92.3888 72.481 92.3069 71.8434 92.1863 71.17C92.0645 70.4916 91.9077 69.8503 91.72 69.2641C91.5262 68.6583 91.2625 68.06 90.9366 67.4866C90.5983 66.8915 90.2009 66.3733 89.7551 65.9469C89.2889 65.5009 88.718 65.1422 88.0579 64.8806C87.4001 64.6203 86.6711 64.4885 85.8913 64.4885C85.5851 64.4885 85.2889 64.6142 84.717 64.9866C84.3649 65.2161 83.9532 65.4816 83.4936 65.7753C83.1006 66.0257 82.5682 66.2603 81.9106 66.4727C81.2691 66.6803 80.6177 66.7856 79.9748 66.7856C79.3318 66.7856 78.6807 66.6803 78.0384 66.4727C77.3816 66.2605 76.8492 66.0259 76.4566 65.7755C76.0014 65.4846 75.5894 65.2191 75.2321 64.9863C74.6608 64.6139 74.3644 64.4883 74.0582 64.4883C73.2782 64.4883 72.5494 64.6203 71.8918 64.8808C71.2322 65.142 70.6612 65.5006 70.1945 65.9472C69.7488 66.3738 69.3513 66.8918 69.0134 67.4866C68.6877 68.06 68.4241 68.658 68.23 69.2643C68.0425 69.8505 67.8857 70.4916 67.764 71.17C67.6434 71.8425 67.5614 72.4803 67.5209 73.0663C67.4811 73.6403 67.4609 74.2361 67.4609 74.8378C67.4609 76.4038 67.9588 77.6716 68.9404 78.6066C69.91 79.5292 71.1928 79.9973 72.7529 79.9973H87.198C88.7581 79.9973 90.0405 79.5294 91.0103 78.6066C91.9922 77.6723 92.49 76.4043 92.49 74.8376C92.4897 74.2331 92.4694 73.6369 92.4293 73.0656Z" fill="#617F3B"></path>
  </g>
  <g clip-path="url(#clip3_921_736)">
    <path d="M109.786 99.4472C111.772 99.4472 113.491 98.7351 114.895 97.3303C116.3 95.9256 117.012 94.2069 117.012 92.2214C117.012 90.2366 116.3 88.5177 114.895 87.1126C113.49 85.7081 111.771 84.9961 109.786 84.9961C107.801 84.9961 106.082 85.7081 104.677 87.1128C103.273 88.5174 102.561 90.2363 102.561 92.2214C102.561 94.2069 103.273 95.9258 104.678 97.3305C106.083 98.7349 107.801 99.4472 109.786 99.4472Z" fill="#617F3B"></path>
    <path d="M122.429 108.064C122.389 107.48 122.307 106.842 122.186 106.169C122.064 105.49 121.908 104.849 121.72 104.263C121.526 103.657 121.262 103.059 120.937 102.485C120.598 101.89 120.201 101.372 119.755 100.945C119.289 100.499 118.718 100.141 118.058 99.8791C117.4 99.6189 116.671 99.487 115.891 99.487C115.585 99.487 115.289 99.6127 114.717 99.9851C114.365 100.215 113.953 100.48 113.494 100.774C113.101 101.024 112.568 101.259 111.911 101.471C111.269 101.679 110.618 101.784 109.975 101.784C109.332 101.784 108.681 101.679 108.038 101.471C107.382 101.259 106.849 101.024 106.457 100.774C106.001 100.483 105.589 100.218 105.232 99.9849C104.661 99.6125 104.364 99.4868 104.058 99.4868C103.278 99.4868 102.549 99.6189 101.892 99.8793C101.232 100.141 100.661 100.499 100.194 100.946C99.7488 101.372 99.3513 101.89 99.0134 102.485C98.6877 103.059 98.4241 103.657 98.23 104.263C98.0425 104.849 97.8857 105.49 97.764 106.169C97.6434 106.841 97.5614 107.479 97.5209 108.065C97.4811 108.639 97.4609 109.235 97.4609 109.836C97.4609 111.402 97.9588 112.67 98.9404 113.605C99.91 114.528 101.193 114.996 102.753 114.996H117.198C118.758 114.996 120.04 114.528 121.01 113.605C121.992 112.671 122.49 111.403 122.49 109.836C122.49 109.232 122.469 108.635 122.429 108.064Z" fill="#617F3B"></path>
  </g>
  <path d="M143.031 34.4127C169.854 61.3521 170.163 104.854 143.946 132.177C144.261 131.874 144.573 131.571 144.883 131.26C172.023 104.002 172.023 59.8083 144.883 32.5529C117.743 5.29747 73.7433 5.29488 46.6034 32.5529C46.2939 32.8637 45.9922 33.1797 45.6904 33.4932C72.8948 7.1625 116.203 7.46557 143.031 34.4127Z" fill="white"></path>
  <path d="M41.476 182.981C41.476 185.893 43.688 188.161 46.544 188.161C49.4 188.161 51.626 185.893 51.626 182.981C51.626 180.139 49.4 177.941 46.544 177.941C43.688 177.941 41.476 180.139 41.476 182.981ZM42.932 182.981C42.932 180.867 44.542 179.243 46.544 179.243C48.546 179.243 50.17 180.867 50.17 182.981C50.17 185.165 48.546 186.845 46.544 186.845C44.542 186.845 42.932 185.165 42.932 182.981ZM52.5916 184.451C52.5916 186.649 53.7956 188.161 55.7136 188.161C57.4496 188.161 58.0376 186.873 58.0376 186.873H58.0656C58.0656 186.873 58.0516 187.027 58.0516 187.237C58.0516 187.713 58.2896 187.993 58.9196 187.993H60.2216V186.831H59.6476C59.4516 186.831 59.3396 186.733 59.3396 186.523V179.005C59.3396 178.375 59.0736 178.109 58.4296 178.109H57.0996V179.271H57.6736C57.8696 179.271 57.9816 179.369 57.9816 179.579V181.357C57.9816 181.623 57.9956 181.833 57.9956 181.833H57.9676C57.9676 181.833 57.4216 180.741 55.7836 180.741C53.9216 180.741 52.5916 182.197 52.5916 184.451ZM53.9636 184.451C53.9636 182.841 54.9016 181.917 56.0076 181.917C57.3656 181.917 58.0096 183.177 58.0096 184.437C58.0096 186.243 57.0296 186.985 55.9796 186.985C54.7896 186.985 53.9636 185.991 53.9636 184.451ZM64.8715 185.165C64.8715 186.999 66.4675 188.161 68.3155 188.161C70.3315 188.161 71.7455 186.803 71.7455 185.263C71.7455 184.199 71.1575 183.513 70.2615 182.995V182.967C70.2615 182.967 71.4655 182.071 71.4655 180.615C71.4655 179.075 70.2615 177.941 68.3715 177.941C66.3835 177.941 65.2915 179.215 65.2915 180.587C65.2915 181.959 66.5095 182.603 66.5095 182.603V182.631C66.5095 182.631 64.8715 183.541 64.8715 185.165ZM68.2875 182.169C67.3915 181.819 66.6635 181.483 66.6635 180.615C66.6635 179.831 67.2935 179.215 68.3715 179.215C69.3795 179.215 70.0935 179.789 70.0935 180.699C70.0935 181.581 69.3795 182.407 69.0435 182.407C68.8755 182.407 68.4695 182.253 68.2875 182.169ZM66.2855 185.095C66.2855 184.045 67.2935 183.233 67.6435 183.233C67.7555 183.233 68.2875 183.443 68.6655 183.597C69.5895 183.975 70.3175 184.353 70.3175 185.221C70.3175 186.201 69.3655 186.887 68.3155 186.887C67.2375 186.887 66.2855 186.201 66.2855 185.095ZM76.563 188.161C79.209 188.161 80.063 185.893 80.063 183.037C80.063 180.195 79.209 177.941 76.563 177.941C73.931 177.941 73.077 180.195 73.077 183.037C73.077 185.893 73.931 188.161 76.563 188.161ZM76.563 186.887C74.953 186.887 74.491 185.193 74.491 183.037C74.491 180.895 74.953 179.215 76.563 179.215C78.187 179.215 78.649 180.895 78.649 183.037C78.649 185.193 78.187 186.887 76.563 186.887ZM88.7036 188.161C91.3496 188.161 92.2036 185.893 92.2036 183.037C92.2036 180.195 91.3496 177.941 88.7036 177.941C86.0716 177.941 85.2176 180.195 85.2176 183.037C85.2176 185.893 86.0716 188.161 88.7036 188.161ZM88.7036 186.887C87.0936 186.887 86.6316 185.193 86.6316 183.037C86.6316 180.895 87.0936 179.215 88.7036 179.215C90.3276 179.215 90.7896 180.895 90.7896 183.037C90.7896 185.193 90.3276 186.887 88.7036 186.887ZM97.0844 188.161C99.7304 188.161 100.584 185.893 100.584 183.037C100.584 180.195 99.7304 177.941 97.0844 177.941C94.4524 177.941 93.5984 180.195 93.5984 183.037C93.5984 185.893 94.4524 188.161 97.0844 188.161ZM97.0844 186.887C95.4744 186.887 95.0124 185.193 95.0124 183.037C95.0124 180.895 95.4744 179.215 97.0844 179.215C98.7084 179.215 99.1704 180.895 99.1704 183.037C99.1704 185.193 98.7084 186.887 97.0844 186.887ZM105.465 188.161C108.111 188.161 108.965 185.893 108.965 183.037C108.965 180.195 108.111 177.941 105.465 177.941C102.833 177.941 101.979 180.195 101.979 183.037C101.979 185.893 102.833 188.161 105.465 188.161ZM105.465 186.887C103.855 186.887 103.393 185.193 103.393 183.037C103.393 180.895 103.855 179.215 105.465 179.215C107.089 179.215 107.551 180.895 107.551 183.037C107.551 185.193 107.089 186.887 105.465 186.887ZM113.938 187.993H119.314C119.944 187.993 120.21 187.727 120.21 187.097V186.047H118.964V186.523C118.964 186.719 118.852 186.831 118.656 186.831H116.402C115.94 186.831 115.716 186.859 115.716 186.859V186.831C115.716 186.831 116.01 186.551 116.304 186.187L119.93 181.693V180.909H114.876C114.246 180.909 113.966 181.175 113.966 181.805V182.855H115.212V182.379C115.212 182.183 115.324 182.071 115.52 182.071H117.466C117.928 182.071 118.138 182.043 118.138 182.043V182.071C118.138 182.071 117.858 182.351 117.564 182.729L113.938 187.209V187.993ZM121.731 187.097C121.731 187.727 121.997 187.993 122.627 187.993H123.971V186.831H123.397C123.201 186.831 123.089 186.733 123.089 186.523V182.729L124.181 182.085V180.727L123.089 181.357V179.005C123.089 178.375 122.823 178.109 122.193 178.109H120.849V179.271H121.423C121.619 179.271 121.731 179.369 121.731 179.579V182.127L120.681 182.743V184.101L121.731 183.499V187.097ZM128.594 188.581H129.798L133.354 177.577H132.15L128.594 188.581ZM135.049 187.993H136.407V184.759C136.407 184.437 136.435 184.129 136.505 183.849C136.771 182.841 137.513 181.973 138.535 181.973C139.613 181.973 139.753 182.827 139.753 183.751V187.993H141.111V184.759C141.111 184.395 141.153 184.087 141.237 183.793C141.475 182.827 142.231 181.973 143.211 181.973C144.261 181.973 144.457 182.757 144.457 183.751V187.097C144.457 187.727 144.723 187.993 145.353 187.993H146.697V186.831H146.123C145.927 186.831 145.815 186.733 145.815 186.523V183.457C145.815 181.651 145.073 180.741 143.477 180.741C142.329 180.741 141.349 181.497 140.971 182.351H140.943C140.691 181.287 140.005 180.741 138.801 180.741C137.695 180.741 136.715 181.539 136.379 182.365H136.351C136.351 182.365 136.365 182.183 136.365 181.959V181.693C136.365 181.175 136.085 180.909 135.469 180.909H134.167V182.071H134.741C134.937 182.071 135.049 182.169 135.049 182.379V187.993ZM148.134 179.523H149.352V178.109H148.134V179.523ZM148.106 187.097C148.106 187.727 148.372 187.993 149.002 187.993H150.346V186.831H149.772C149.576 186.831 149.464 186.733 149.464 186.523V181.805C149.464 181.175 149.198 180.909 148.554 180.909H147.224V182.071H147.798C147.994 182.071 148.106 182.169 148.106 182.379V187.097ZM151.097 184.451C151.097 186.551 152.637 188.161 154.863 188.161C156.207 188.161 157.271 187.433 157.607 187.153L157.033 186.159C156.795 186.327 156.025 186.985 154.947 186.985C153.673 186.985 152.581 186.159 152.497 184.633H157.663C157.677 184.521 157.705 184.255 157.705 184.059C157.705 182.239 156.655 180.741 154.653 180.741C152.637 180.741 151.097 182.197 151.097 184.451ZM152.553 183.653C152.749 182.477 153.575 181.791 154.625 181.791C155.549 181.791 156.305 182.435 156.347 183.653H152.553ZM158.574 186.915C158.574 186.915 159.512 188.161 161.402 188.161C162.886 188.161 164.006 187.349 164.006 186.089C164.006 183.723 160.128 184.017 160.128 182.673C160.128 182.113 160.66 181.833 161.458 181.833C161.878 181.833 162.522 182.015 162.522 182.435V182.785H163.74V182.113C163.74 181.035 162.256 180.741 161.416 180.741C159.974 180.741 158.784 181.371 158.784 182.729C158.784 185.011 162.634 184.871 162.634 186.145C162.634 186.761 162.074 187.055 161.416 187.055C160.114 187.055 159.26 186.005 159.26 186.005L158.574 186.915ZM165.297 187.993H166.683V186.551H165.297V187.993ZM42.19 210.793H43.548V207.643C43.548 207.279 43.52 207.027 43.52 207.027H43.548C43.548 207.027 44.15 208.161 45.718 208.161C47.58 208.161 48.938 206.705 48.938 204.451C48.938 202.253 47.734 200.741 45.816 200.741C44.052 200.741 43.464 202.001 43.464 202.001H43.436C43.436 202.001 43.45 201.833 43.45 201.623C43.45 201.175 43.212 200.909 42.582 200.909H41.308V202.071H41.882C42.078 202.071 42.19 202.169 42.19 202.379V210.793ZM43.506 204.479C43.506 202.673 44.5 201.931 45.55 201.931C46.726 201.931 47.552 202.925 47.552 204.465C47.552 206.075 46.628 206.999 45.522 206.999C44.192 206.999 43.506 205.739 43.506 204.479ZM50.5982 207.993H51.9562V205.095C51.9562 204.661 51.9982 204.227 52.1242 203.821C52.4602 202.771 53.2442 202.155 54.1262 202.155C54.3362 202.155 54.5182 202.197 54.5182 202.197V200.853C54.5182 200.853 54.3362 200.825 54.1542 200.825C53.0622 200.825 52.2502 201.637 51.9142 202.673H51.8862C51.8862 202.673 51.9142 202.463 51.9142 202.183V201.735C51.9142 201.161 51.6202 200.909 51.0182 200.909H49.7162V202.071H50.2902C50.4862 202.071 50.5982 202.169 50.5982 202.379V207.993ZM55.1899 207.993H60.5659C61.1959 207.993 61.4619 207.727 61.4619 207.097V206.047H60.2159V206.523C60.2159 206.719 60.1039 206.831 59.9079 206.831H57.6539C57.1919 206.831 56.9679 206.859 56.9679 206.859V206.831C56.9679 206.831 57.2619 206.551 57.5559 206.187L61.1819 201.693V200.909H56.1279C55.4979 200.909 55.2179 201.175 55.2179 201.805V202.855H56.4639V202.379C56.4639 202.183 56.5759 202.071 56.7719 202.071H58.7179C59.1799 202.071 59.3899 202.043 59.3899 202.043V202.071C59.3899 202.071 59.1099 202.351 58.8159 202.729L55.1899 207.209V207.993ZM63.571 210.933C64.565 210.933 65.419 210.359 65.867 209.267L68.653 202.351C68.751 202.127 68.877 202.071 69.101 202.071H69.283V200.909H68.471C67.897 200.909 67.645 201.063 67.449 201.623L65.965 205.613C65.839 205.977 65.727 206.467 65.727 206.467H65.699C65.699 206.467 65.587 205.977 65.447 205.613L63.851 201.623C63.627 201.063 63.403 200.909 62.829 200.909H62.031V202.071H62.213C62.437 202.071 62.549 202.127 62.647 202.351L65.069 207.965L64.747 208.735C64.481 209.365 64.047 209.757 63.501 209.757C62.913 209.757 62.479 209.295 62.465 209.253L61.905 210.233C61.905 210.233 62.521 210.933 63.571 210.933ZM73.4903 205.375H78.1523V207.993H79.5523V205.375H81.0923V204.171H79.5523V198.109H77.9563L73.4903 204.479V205.375ZM75.0163 204.213V204.185C75.0163 204.185 75.2683 203.919 75.5203 203.555L77.7043 200.587C77.9563 200.223 78.1943 199.761 78.1943 199.761H78.2223C78.2223 199.761 78.1663 200.321 78.1663 200.769V204.171H75.8563C75.4223 204.171 75.0163 204.213 75.0163 204.213ZM85.7192 207.993H91.0952C91.7252 207.993 91.9912 207.727 91.9912 207.097V206.047H90.7452V206.523C90.7452 206.719 90.6332 206.831 90.4372 206.831H88.1832C87.7212 206.831 87.4972 206.859 87.4972 206.859V206.831C87.4972 206.831 87.7912 206.551 88.0852 206.187L91.7112 201.693V200.909H86.6572C86.0272 200.909 85.7472 201.175 85.7472 201.805V202.855H86.9932V202.379C86.9932 202.183 87.1052 202.071 87.3012 202.071H89.2472C89.7092 202.071 89.9192 202.043 89.9192 202.043V202.071C89.9192 202.071 89.6392 202.351 89.3452 202.729L85.7192 207.209V207.993ZM92.8682 204.451C92.8682 206.551 94.4083 208.161 96.6343 208.161C97.9783 208.161 99.0423 207.433 99.3783 207.153L98.8043 206.159C98.5663 206.327 97.7963 206.985 96.7183 206.985C95.4443 206.985 94.3523 206.159 94.2683 204.633H99.4343C99.4483 204.521 99.4762 204.255 99.4762 204.059C99.4762 202.239 98.4263 200.741 96.4243 200.741C94.4083 200.741 92.8682 202.197 92.8682 204.451ZM94.3243 203.653C94.5203 202.477 95.3463 201.791 96.3963 201.791C97.3203 201.791 98.0763 202.435 98.1183 203.653H94.3243ZM100.345 206.915C100.345 206.915 101.283 208.161 103.173 208.161C104.657 208.161 105.777 207.349 105.777 206.089C105.777 203.723 101.899 204.017 101.899 202.673C101.899 202.113 102.431 201.833 103.229 201.833C103.649 201.833 104.293 202.015 104.293 202.435V202.785H105.511V202.113C105.511 201.035 104.027 200.741 103.187 200.741C101.745 200.741 100.555 201.371 100.555 202.729C100.555 205.011 104.405 204.871 104.405 206.145C104.405 206.761 103.845 207.055 103.187 207.055C101.885 207.055 101.031 206.005 101.031 206.005L100.345 206.915ZM107.432 210.793H108.79V207.643C108.79 207.279 108.762 207.027 108.762 207.027H108.79C108.79 207.027 109.392 208.161 110.96 208.161C112.822 208.161 114.18 206.705 114.18 204.451C114.18 202.253 112.976 200.741 111.058 200.741C109.294 200.741 108.706 202.001 108.706 202.001H108.678C108.678 202.001 108.692 201.833 108.692 201.623C108.692 201.175 108.454 200.909 107.824 200.909H106.55V202.071H107.124C107.32 202.071 107.432 202.169 107.432 202.379V210.793ZM108.748 204.479C108.748 202.673 109.742 201.931 110.792 201.931C111.968 201.931 112.794 202.925 112.794 204.465C112.794 206.075 111.87 206.999 110.764 206.999C109.434 206.999 108.748 205.739 108.748 204.479ZM115.112 204.437C115.112 206.593 116.806 208.161 118.92 208.161C121.034 208.161 122.742 206.593 122.742 204.437C122.742 202.295 121.034 200.741 118.92 200.741C116.806 200.741 115.112 202.295 115.112 204.437ZM116.484 204.437C116.484 202.967 117.59 201.917 118.92 201.917C120.264 201.917 121.356 202.967 121.356 204.437C121.356 205.921 120.264 206.985 118.92 206.985C117.59 206.985 116.484 205.921 116.484 204.437ZM124.315 207.097C124.315 207.727 124.581 207.993 125.211 207.993H126.555V206.831H125.981C125.785 206.831 125.673 206.733 125.673 206.523V202.729L126.765 202.085V200.727L125.673 201.357V199.005C125.673 198.375 125.407 198.109 124.777 198.109H123.433V199.271H124.007C124.203 199.271 124.315 199.369 124.315 199.579V202.127L123.265 202.743V204.101L124.315 203.499V207.097ZM127.292 206.061C127.292 207.419 128.44 208.161 129.672 208.161C131.352 208.161 131.968 206.761 131.954 206.761H131.982C131.982 206.761 131.968 206.929 131.968 207.181C131.968 207.685 132.206 207.993 132.836 207.993H134.124V206.831H133.55C133.354 206.831 133.242 206.733 133.242 206.523V203.513C133.242 201.931 132.626 200.741 130.288 200.741C129.644 200.741 127.866 200.923 127.866 202.057V202.771H129.154V202.365C129.154 201.903 129.98 201.819 130.316 201.819C131.408 201.819 131.884 202.267 131.884 203.485V203.583H131.576C130.386 203.583 127.292 203.681 127.292 206.061ZM128.65 205.935C128.65 204.661 130.498 204.563 131.52 204.563H131.884V204.829C131.884 205.879 131.156 207.083 129.98 207.083C129.098 207.083 128.65 206.509 128.65 205.935ZM134.773 204.451C134.773 206.579 136.327 208.161 138.553 208.161C140.429 208.161 141.423 206.943 141.423 206.943L140.849 205.977C140.849 205.977 139.981 206.957 138.651 206.957C137.321 206.957 136.145 206.047 136.145 204.437C136.145 202.939 137.195 201.903 138.581 201.903C139.085 201.903 139.897 202.127 139.897 202.631V203.023H141.129V202.295C141.129 201.091 139.435 200.741 138.581 200.741C136.299 200.741 134.773 202.365 134.773 204.451ZM142.672 207.993H144.03V204.675C144.03 204.339 144.058 204.017 144.142 203.737C144.436 202.715 145.318 201.987 146.396 201.987C147.53 201.987 147.726 202.771 147.726 203.765V207.097C147.726 207.727 147.992 207.993 148.622 207.993H149.966V206.831H149.392C149.196 206.831 149.084 206.733 149.084 206.523V203.457C149.084 201.651 148.314 200.741 146.648 200.741C145.234 200.741 144.338 201.637 144.03 202.323H144.002C144.002 202.323 144.03 202.071 144.03 201.735V198.977C144.03 198.375 143.75 198.109 143.12 198.109H141.79V199.271H142.364C142.56 199.271 142.672 199.369 142.672 199.579V207.993Z" fill="white"></path>
  <defs>
    <linearGradient id="paint0_linear_921_736" x1="144.652" y1="33.455" x2="45.9461" y2="131.733" gradientUnits="userSpaceOnUse">
      <stop stop-color="#E6E6E6"></stop>
      <stop offset="0.03" stop-color="#E9E9E9"></stop>
      <stop offset="0.21" stop-color="#F6F6F6"></stop>
      <stop offset="0.45" stop-color="#FDFDFD"></stop>
      <stop offset="1" stop-color="white"></stop>
    </linearGradient>
    <clipPath id="clip0_921_736">
      <rect width="29.9999" height="29.9987" fill="white" transform="translate(95 49.9976)"></rect>
    </clipPath>
    <clipPath id="clip1_921_736">
      <rect width="29.9999" height="29.9987" fill="white" transform="translate(65 84.9961)"></rect>
    </clipPath>
    <clipPath id="clip2_921_736">
      <rect width="29.9999" height="29.9987" fill="white" transform="translate(65 49.9976)"></rect>
    </clipPath>
    <clipPath id="clip3_921_736">
      <rect width="29.9999" height="29.9987" fill="white" transform="translate(95 84.9961)"></rect>
    </clipPath>
  </defs>
</svg>
