<?xml version="1.0" encoding="UTF-8"?>
<svg xmlns="http://www.w3.org/2000/svg" width="100" height="100" viewBox="0 0 100 100" fill="none">
  <circle cx="50" cy="50" r="49" fill="white" stroke="#5B7B3B" stroke-width="2"></circle>
  <g clip-path="url(#clip0_297_1435)">
    <path d="M49.5478 67.2645C49.3662 67.0829 49.1143 66.9783 48.8574 66.9783C48.6006 66.9783 48.3486 67.0828 48.167 67.2645C47.9854 67.446 47.8809 67.698 47.8809 67.9548C47.8809 68.2127 47.9854 68.4636 48.167 68.6453C48.3486 68.8279 48.6006 68.9314 48.8574 68.9314C49.1143 68.9314 49.3662 68.8279 49.5478 68.6453C49.7295 68.4636 49.834 68.2118 49.834 67.9548C49.834 67.698 49.7294 67.446 49.5478 67.2645Z" fill="#5B7B3B"></path>
    <path d="M54.1974 58.2557V51.07C54.1974 50.7456 54.0363 50.4423 53.7674 50.2607C53.4986 50.0792 53.1571 50.0431 52.856 50.1641L36.0286 56.9412H30.6087C27.5161 56.9412 25 59.4573 25 62.5501C25 65.6428 27.5161 68.1589 30.6089 68.1589H31.2543V74.0234C31.2543 74.5626 31.6915 74.9999 32.2308 74.9999H36.2176C36.7569 74.9999 37.1941 74.5626 37.1941 74.0234V68.63L52.8565 74.9294C52.974 74.9767 53.0977 75 53.2207 75C53.4129 75 53.6038 74.9433 53.7676 74.8326C54.0364 74.6511 54.1974 74.3478 54.1974 74.0235V66.8378C56.1558 66.3922 57.6224 64.6381 57.6224 62.5468C57.6224 60.4555 56.1558 58.7013 54.1974 58.2557ZM35.2409 73.0468H33.2074V68.1588H35.241V73.0468H35.2409ZM35.2411 66.2057H30.6089C28.5931 66.2057 26.9531 64.5658 26.9531 62.5501C26.9531 60.5342 28.5931 58.8943 30.6089 58.8943H35.2415L35.2411 66.2057ZM52.2444 72.578H52.2443L37.1946 66.525V58.5771L47.8808 54.2734V63.9648C47.8808 64.5041 48.318 64.9414 48.8574 64.9414C49.3967 64.9414 49.8339 64.5041 49.8339 63.9648V53.4868L52.2444 52.516V72.578ZM54.1974 64.7914V60.3021C55.0627 60.68 55.6693 61.5437 55.6693 62.5467C55.6693 63.5498 55.0628 64.4134 54.1974 64.7914Z" fill="#5B7B3B"></path>
    <path d="M66.9383 61.5991H61.4092C60.8698 61.5991 60.4326 62.0364 60.4326 62.5757C60.4326 63.1149 60.8698 63.5522 61.4092 63.5522H66.9383C67.4776 63.5522 67.9148 63.1149 67.9148 62.5757C67.9148 62.0364 67.4776 61.5991 66.9383 61.5991Z" fill="#5B7B3B"></path>
    <path d="M62.4045 54.4432C62.0231 54.0619 61.4048 54.0619 61.0233 54.4432L59.1161 56.3504C58.7347 56.7317 58.7347 57.3501 59.1161 57.7315C59.3069 57.9222 59.5568 58.0176 59.8067 58.0176C60.0566 58.0176 60.3066 57.9222 60.4972 57.7315L62.4045 55.8243C62.7858 55.443 62.7858 54.8246 62.4045 54.4432Z" fill="#5B7B3B"></path>
    <path d="M62.476 69.2358L60.5051 67.2647C60.1237 66.8834 59.5053 66.8834 59.1239 67.2647C58.7426 67.646 58.7426 68.2644 59.1239 68.6458L61.095 70.6169C61.2857 70.8076 61.5356 70.903 61.7855 70.903C62.0354 70.903 62.2854 70.8076 62.476 70.6169C62.8574 70.2356 62.8574 69.6172 62.476 69.2358Z" fill="#5B7B3B"></path>
    <path d="M71.0937 25H52.9296C50.7757 25 49.0234 26.7523 49.0234 28.9062V29.2969H32.6172C31.3248 29.2969 30.2734 30.3483 30.2734 31.6406V47.0703C30.2734 48.3626 31.3248 49.414 32.6172 49.414H33.6263V52.4088C33.6263 52.8039 33.8643 53.1599 34.2291 53.3111C34.3499 53.3611 34.4767 53.3854 34.6026 53.3854C34.8567 53.3854 35.1065 53.2862 35.2933 53.0994L38.9787 49.414H58.3769C59.6693 49.414 60.7206 48.3626 60.7206 47.0703V44.1406H71.0937C73.2476 44.1406 74.9999 42.3882 74.9999 40.2343V28.9062C74.9998 26.7523 73.2476 25 71.0937 25ZM58.7675 47.0703C58.7675 47.2857 58.5923 47.4609 58.3769 47.4609H38.5742C38.3152 47.4609 38.0668 47.5638 37.8837 47.7469L35.5795 50.0512V48.4375C35.5795 47.8982 35.1423 47.4609 34.6029 47.4609H32.6172C32.4018 47.4609 32.2266 47.2857 32.2266 47.0703V31.6406C32.2266 31.4252 32.4018 31.25 32.6172 31.25H49.0234V40.2343C49.0234 42.3882 50.7757 44.1406 52.9296 44.1406H58.7675V47.0703ZM73.0468 40.2343C73.0468 41.3113 72.1706 42.1875 71.0937 42.1875H52.9296C51.8527 42.1875 50.9765 41.3113 50.9765 40.2343V28.9062C50.9765 27.8293 51.8527 26.9531 52.9296 26.9531H71.0937C72.1706 26.9531 73.0468 27.8293 73.0468 28.9062V40.2343Z" fill="#5B7B3B"></path>
    <path d="M65.9355 33.7245L59.252 29.8657C58.9498 29.6912 58.5775 29.6912 58.2754 29.8657C57.9732 30.0402 57.7871 30.3626 57.7871 30.7114V38.4289C57.7871 38.7777 57.9732 39.1002 58.2754 39.2746C58.4265 39.3619 58.595 39.4055 58.7637 39.4055C58.9323 39.4055 59.1009 39.3619 59.252 39.2746L65.9355 35.4158C66.2377 35.2414 66.4238 34.919 66.4238 34.5701C66.4238 34.2213 66.2378 33.8989 65.9355 33.7245ZM59.7402 36.7375V32.4029L63.4941 34.5702L59.7402 36.7375Z" fill="#5B7B3B"></path>
    <path d="M45.9482 35.2539H36.1826C35.6433 35.2539 35.2061 35.6912 35.2061 36.2305C35.2061 36.7697 35.6433 37.207 36.1826 37.207H45.9482C46.4876 37.207 46.9248 36.7697 46.9248 36.2305C46.9248 35.6912 46.4876 35.2539 45.9482 35.2539Z" fill="#5B7B3B"></path>
    <path d="M46.6387 41.0088C46.457 40.827 46.2051 40.7227 45.9482 40.7227C45.6914 40.7227 45.4395 40.827 45.2578 41.0088C45.0762 41.1904 44.9717 41.4424 44.9717 41.6992C44.9717 41.9561 45.0762 42.208 45.2578 42.3895C45.4395 42.5712 45.6914 42.6758 45.9482 42.6758C46.2061 42.6758 46.457 42.5713 46.6387 42.3895C46.8203 42.208 46.9248 41.9561 46.9248 41.6992C46.9248 41.4424 46.8203 41.1904 46.6387 41.0088Z" fill="#5B7B3B"></path>
    <path d="M42.285 40.7227H36.1826C35.6433 40.7227 35.2061 41.16 35.2061 41.6992C35.2061 42.2385 35.6433 42.6758 36.1826 42.6758H42.285C42.8244 42.6758 43.2616 42.2385 43.2616 41.6992C43.2616 41.16 42.8244 40.7227 42.285 40.7227Z" fill="#5B7B3B"></path>
  </g>
  <defs>
    <clipPath id="clip0_297_1435">
      <rect width="50" height="50" fill="white" transform="translate(25 25)"></rect>
    </clipPath>
  </defs>
</svg>
