<?xml version="1.0" encoding="UTF-8"?>
<svg xmlns="http://www.w3.org/2000/svg" width="31" height="30" viewBox="0 0 31 30" fill="none">
  <g clip-path="url(#clip0_295_34)">
    <path d="M15.5 18.0762C17.1989 18.0762 18.5762 16.6989 18.5762 15C18.5762 13.3011 17.1989 11.9238 15.5 11.9238C13.8011 11.9238 12.4238 13.3011 12.4238 15C12.4238 16.6989 13.8011 18.0762 15.5 18.0762Z" fill="#5B7B3B"></path>
    <path d="M15.5 0.351562C7.4099 0.351562 0.851562 6.9099 0.851562 15C0.851562 23.0901 7.4099 29.6484 15.5 29.6484C23.5901 29.6484 30.1484 23.0901 30.1484 15C30.1484 6.9099 23.5901 0.351562 15.5 0.351562ZM24.5503 18.723C24.48 20.1157 24.0886 21.489 23.0737 22.4931C22.049 23.5068 20.6691 23.8845 19.2631 23.9541H11.737C10.3307 23.8845 8.95109 23.5071 7.92635 22.4931C6.91139 21.489 6.5201 20.1157 6.44979 18.723V11.277C6.5201 9.8843 6.91145 8.51098 7.92635 7.5068C8.95109 6.49312 10.3309 6.11543 11.737 6.04588H19.263C20.6693 6.11543 22.0489 6.49295 23.0737 7.5068C24.0886 8.51098 24.4799 9.8843 24.5502 11.277L24.5503 18.723Z" fill="#5B7B3B"></path>
    <path d="M19.1677 7.74246C17.3345 7.69219 13.6654 7.69219 11.8322 7.74246C10.8783 7.76865 9.79679 8.00613 9.1171 8.73211C8.41081 9.48674 8.14392 10.3985 8.11685 11.4184C8.06927 13.2086 8.11685 18.5816 8.11685 18.5816C8.14785 19.6014 8.41081 20.5133 9.1171 21.2679C9.79679 21.9941 10.8783 22.2314 11.8322 22.2576C13.6654 22.3078 17.3345 22.3078 19.1677 22.2576C20.1217 22.2314 21.2031 21.9939 21.8828 21.2679C22.5891 20.5133 22.856 19.6016 22.8831 18.5816V11.4184C22.856 10.3985 22.5891 9.48674 21.8828 8.73211C21.2029 8.0059 20.1214 7.76865 19.1677 7.74246ZM15.4997 19.7681C14.5567 19.7681 13.6348 19.4884 12.8507 18.9645C12.0666 18.4406 11.4555 17.6959 11.0946 16.8247C10.7337 15.9534 10.6393 14.9947 10.8233 14.0698C11.0072 13.1449 11.4614 12.2953 12.1282 11.6285C12.795 10.9616 13.6446 10.5075 14.5695 10.3236C15.4944 10.1396 16.4531 10.234 17.3244 10.5949C18.1956 10.9558 18.9403 11.5669 19.4642 12.351C19.9881 13.1351 20.2678 14.057 20.2678 15C20.2678 16.2646 19.7654 17.4774 18.8713 18.3715C17.9771 19.2657 16.7643 19.7681 15.4997 19.7681ZM20.2881 11.2161C20.0995 11.2161 19.9151 11.1601 19.7583 11.0553C19.6015 10.9505 19.4793 10.8015 19.4072 10.6273C19.3351 10.453 19.3162 10.2613 19.353 10.0763C19.3899 9.89137 19.4807 9.72148 19.6141 9.58813C19.7474 9.45479 19.9174 9.36399 20.1023 9.32722C20.2873 9.29044 20.479 9.30934 20.6533 9.38152C20.8275 9.4537 20.9764 9.57593 21.0812 9.73275C21.186 9.88956 21.2419 10.0739 21.2419 10.2625C21.2419 10.3878 21.2172 10.5118 21.1693 10.6275C21.1214 10.7432 21.0511 10.8484 20.9625 10.9369C20.8739 11.0255 20.7688 11.0957 20.6531 11.1436C20.5373 11.1915 20.4133 11.2162 20.2881 11.2161Z" fill="#5B7B3B"></path>
  </g>
  <defs>
    <clipPath id="clip0_295_34">
      <rect width="30" height="30" fill="white" transform="translate(0.5)"></rect>
    </clipPath>
  </defs>
</svg>
