<?xml version="1.0" encoding="UTF-8"?>
<svg xmlns="http://www.w3.org/2000/svg" width="50" height="50" viewBox="0 0 50 50" fill="none">
  <g clip-path="url(#clip0_297_1853)">
    <path d="M25 30.127C27.8315 30.127 30.127 27.8315 30.127 25C30.127 22.1685 27.8315 19.873 25 19.873C22.1685 19.873 19.873 22.1685 19.873 25C19.873 27.8315 22.1685 30.127 25 30.127Z" fill="white"></path>
    <path d="M25 0.585938C11.5165 0.585938 0.585938 11.5165 0.585938 25C0.585938 38.4835 11.5165 49.4141 25 49.4141C38.4835 49.4141 49.4141 38.4835 49.4141 25C49.4141 11.5165 38.4835 0.585938 25 0.585938ZM40.0838 31.2051C39.9666 33.5262 39.3144 35.815 37.6229 37.4886C35.9149 39.178 33.6152 39.8075 31.2718 39.9235H18.7283C16.3846 39.8075 14.0852 39.1784 12.3772 37.4886C10.6856 35.815 10.0335 33.5262 9.91631 31.2051V18.7949C10.0335 16.4738 10.6857 14.185 12.3772 12.5113C14.0852 10.8219 16.3849 10.1924 18.7283 10.0765H31.2717C33.6154 10.1924 35.9148 10.8216 37.6228 12.5113C39.3144 14.185 39.9665 16.4738 40.0837 18.7949L40.0838 31.2051Z" fill="white"></path>
    <path d="M31.1135 12.9046C28.0582 12.8208 21.943 12.8208 18.8877 12.9046C17.2977 12.9483 15.4953 13.3441 14.3625 14.5541C13.1853 15.8118 12.7405 17.3313 12.6954 19.0312C12.6161 22.0148 12.6954 30.9699 12.6954 30.9699C12.7471 32.6696 13.1853 34.1893 14.3625 35.447C15.4953 36.6574 17.2977 37.0528 18.8877 37.0965C21.943 37.1802 28.0582 37.1802 31.1135 37.0965C32.7034 37.0528 34.5058 36.657 35.6387 35.447C36.8158 34.1893 37.2606 32.6698 37.3057 30.9699V19.0312C37.2606 17.3313 36.8158 15.8118 35.6387 14.5541C34.5055 13.3437 32.703 12.9483 31.1135 12.9046ZM25.0002 32.9473C23.4285 32.9473 21.892 32.4813 20.5852 31.6081C19.2783 30.7348 18.2598 29.4937 17.6583 28.0416C17.0568 26.5896 16.8995 24.9917 17.2061 23.4502C17.5127 21.9087 18.2696 20.4927 19.381 19.3813C20.4923 18.2699 21.9083 17.5131 23.4498 17.2065C24.9914 16.8998 26.5892 17.0572 28.0413 17.6587C29.4934 18.2601 30.7345 19.2787 31.6077 20.5855C32.4809 21.8924 32.947 23.4288 32.947 25.0005C32.947 27.1082 32.1097 29.1295 30.6194 30.6198C29.1291 32.1101 27.1078 32.9473 25.0002 32.9473ZM32.9808 18.6941C32.6664 18.694 32.3592 18.6007 32.0979 18.4261C31.8365 18.2514 31.6329 18.0031 31.5127 17.7127C31.3924 17.4223 31.361 17.1027 31.4224 16.7944C31.4837 16.4862 31.6351 16.203 31.8574 15.9808C32.0797 15.7585 32.3629 15.6072 32.6712 15.5459C32.9795 15.4846 33.2991 15.5161 33.5895 15.6364C33.8798 15.7567 34.128 15.9604 34.3027 16.2218C34.4773 16.4831 34.5705 16.7904 34.5705 17.1047C34.5705 17.3135 34.5294 17.5202 34.4495 17.7131C34.3696 17.9059 34.2525 18.0811 34.1048 18.2287C33.9572 18.3763 33.782 18.4934 33.5891 18.5732C33.3962 18.6531 33.1895 18.6941 32.9808 18.6941Z" fill="white"></path>
  </g>
  <defs>
    <clipPath id="clip0_297_1853">
      <rect width="50" height="50" fill="white"></rect>
    </clipPath>
  </defs>
</svg>
