<?xml version="1.0" encoding="UTF-8"?>
<svg xmlns="http://www.w3.org/2000/svg" width="35" height="35" viewBox="0 0 35 35" fill="none">
  <g clip-path="url(#clip0_295_111)">
    <path d="M34.6919 6.95374L24.0771 17.5001L34.6919 28.0466C34.8838 27.6455 35.0002 27.2021 35.0002 26.7287V8.27163C35.0002 7.79811 34.8838 7.3548 34.6919 6.95374Z" fill="white"></path>
    <path d="M31.9234 5.19543H3.07571C2.60219 5.19543 2.15888 5.31185 1.75781 5.50374L15.3246 19.0022C16.5242 20.2018 18.4749 20.2018 19.6745 19.0022L33.2413 5.50374C32.8402 5.31185 32.3969 5.19543 31.9234 5.19543Z" fill="white"></path>
    <path d="M0.308301 6.95374C0.116416 7.3548 0 7.79811 0 8.27163V26.7287C0 27.2022 0.116416 27.6456 0.308301 28.0466L10.9231 17.5001L0.308301 6.95374Z" fill="white"></path>
    <path d="M22.6265 18.9501L21.1244 20.4521C19.1257 22.4509 15.8733 22.4509 13.8746 20.4521L12.3726 18.9501L1.75781 29.4965C2.15888 29.6884 2.60219 29.8048 3.07571 29.8048H31.9234C32.3969 29.8048 32.8402 29.6884 33.2413 29.4965L22.6265 18.9501Z" fill="white"></path>
  </g>
  <defs>
    <clipPath id="clip0_295_111">
      <rect width="35" height="35" fill="white"></rect>
    </clipPath>
  </defs>
</svg>
