<?xml version="1.0" encoding="UTF-8"?>
<svg xmlns="http://www.w3.org/2000/svg" width="35" height="35" viewBox="0 0 35 35" fill="none">
  <path d="M32.8508 24.7189C32.7611 24.6478 26.25 19.9545 24.4628 20.2914C23.6097 20.4423 23.1219 21.0242 22.143 22.189C21.9855 22.3772 21.607 22.8278 21.3128 23.1482C20.6942 22.9465 20.0907 22.7008 19.507 22.4132C16.4943 20.9465 14.0601 18.5124 12.5934 15.4997C12.3056 14.916 12.06 14.3126 11.8584 13.6939C12.18 13.3986 12.6306 13.0201 12.8231 12.8582C13.9825 11.8848 14.5655 11.397 14.7164 10.5417C15.0259 8.76981 10.3359 2.21387 10.2867 2.15481C10.0739 1.85082 9.79623 1.59794 9.4737 1.41445C9.15118 1.23097 8.79191 1.12147 8.42188 1.09387C6.52094 1.09387 1.09375 8.13434 1.09375 9.31997C1.09375 9.38887 1.19328 16.3932 9.83062 25.1793C18.608 33.8068 25.6112 33.9064 25.6802 33.9064C26.8669 33.9064 33.9062 28.4792 33.9062 26.5782C33.879 26.2095 33.7701 25.8514 33.5876 25.5299C33.4051 25.2083 33.1534 24.9313 32.8508 24.7189Z" fill="white"></path>
</svg>
