<?xml version="1.0" encoding="UTF-8"?>
<svg xmlns="http://www.w3.org/2000/svg" width="17" height="17" viewBox="0 0 17 17" fill="none">
  <path d="M8.35523 0.523438C5.30061 0.523438 2.81543 3.00861 2.81543 6.06324C2.81543 9.90257 8.36068 16.4609 8.36068 16.4609C8.36068 16.4609 13.895 9.71376 13.895 6.06324C13.895 3.00861 11.4099 0.523438 8.35523 0.523438ZM10.0267 7.68529C9.56581 8.14608 8.96057 8.37653 8.35523 8.37653C7.74998 8.37653 7.14455 8.14608 6.68385 7.68529C5.76217 6.76371 5.76217 5.26412 6.68385 4.34245C7.13015 3.89595 7.72382 3.65004 8.35523 3.65004C8.98664 3.65004 9.58021 3.89605 10.0267 4.34245C10.9484 5.26412 10.9484 6.76371 10.0267 7.68529Z" fill="#5B7B3B"></path>
</svg>
