<?xml version="1.0" encoding="UTF-8"?>
<svg xmlns="http://www.w3.org/2000/svg" width="165" height="237" viewBox="0 0 165 237" fill="none">
  <path d="M31.9141 18.1641C31.138 18.1641 30.4271 18.0208 29.7812 17.7344C29.1406 17.4479 28.5859 17.0443 28.1172 16.5234C27.6484 16.0026 27.2865 15.3932 27.0312 14.6953C26.7812 13.9922 26.6562 13.2266 26.6562 12.3984V12.2188C26.6562 11.3958 26.7812 10.6354 27.0312 9.9375C27.2865 9.23958 27.6458 8.63021 28.1094 8.10938C28.5781 7.58854 29.1328 7.1849 29.7734 6.89844C30.4193 6.60677 31.1302 6.46094 31.9062 6.46094C32.6771 6.46094 33.3854 6.60677 34.0312 6.89844C34.6771 7.1849 35.2396 7.58854 35.7188 8.10938C36.1979 8.63021 36.5677 9.23958 36.8281 9.9375C37.0885 10.6354 37.2188 11.3958 37.2188 12.2188V12.3984C37.2188 13.2266 37.0885 13.9922 36.8281 14.6953C36.5677 15.3932 36.1979 16.0026 35.7188 16.5234C35.2448 17.0443 34.6849 17.4479 34.0391 17.7344C33.3932 18.0208 32.6849 18.1641 31.9141 18.1641ZM31.9141 16.25C32.5234 16.25 33.0365 16.0885 33.4531 15.7656C33.875 15.4427 34.1927 14.9948 34.4062 14.4219C34.6198 13.8438 34.7266 13.1693 34.7266 12.3984V12.2031C34.7266 11.4479 34.6172 10.7839 34.3984 10.2109C34.1849 9.63802 33.8672 9.1901 33.4453 8.86719C33.0286 8.54427 32.5156 8.38281 31.9062 8.38281C31.2812 8.38281 30.7656 8.54427 30.3594 8.86719C29.9531 9.1849 29.651 9.63021 29.4531 10.2031C29.2552 10.7708 29.1562 11.4375 29.1562 12.2031V12.3984C29.1562 13.1693 29.2552 13.8438 29.4531 14.4219C29.6562 15 29.9609 15.4505 30.3672 15.7734C30.7786 16.0911 31.2943 16.25 31.9141 16.25ZM43.2266 18.1641C42.7109 18.1641 42.2734 18.0625 41.9141 17.8594C41.5547 17.6562 41.2526 17.362 41.0078 16.9766L40.8359 18H38.6797V7.53906L37.4844 7.29688V5.8125H41.1719V10.4141C41.4062 10.0859 41.6979 9.83333 42.0469 9.65625C42.3958 9.47917 42.7995 9.39062 43.2578 9.39062C43.9349 9.39062 44.5078 9.57292 44.9766 9.9375C45.4505 10.2969 45.8099 10.8099 46.0547 11.4766C46.3047 12.138 46.4297 12.9193 46.4297 13.8203V13.9844C46.4297 14.8281 46.3047 15.5651 46.0547 16.1953C45.8099 16.8203 45.4479 17.3047 44.9688 17.6484C44.4948 17.9922 43.9141 18.1641 43.2266 18.1641ZM42.4453 16.2344C42.987 16.2344 43.3698 16.0443 43.5938 15.6641C43.8229 15.2786 43.9375 14.7188 43.9375 13.9844V13.8203C43.9375 13.2943 43.8854 12.8464 43.7812 12.4766C43.6823 12.1068 43.526 11.8229 43.3125 11.625C43.099 11.4219 42.8203 11.3203 42.4766 11.3203C42.1745 11.3203 41.9115 11.3932 41.6875 11.5391C41.4688 11.6797 41.2969 11.8698 41.1719 12.1094V15.5781C41.3177 15.7969 41.4974 15.9609 41.7109 16.0703C41.9245 16.1797 42.1693 16.2344 42.4453 16.2344ZM51.6016 18.1641C50.7839 18.1641 50.0703 17.987 49.4609 17.6328C48.8516 17.2734 48.3776 16.7839 48.0391 16.1641C47.7057 15.5391 47.5391 14.8307 47.5391 14.0391V13.7344C47.5391 12.8906 47.6927 12.1406 48 11.4844C48.3073 10.8281 48.75 10.3151 49.3281 9.94531C49.9062 9.57031 50.599 9.38542 51.4062 9.39062C52.1719 9.39062 52.8177 9.53906 53.3438 9.83594C53.8698 10.1328 54.2682 10.5677 54.5391 11.1406C54.8151 11.7083 54.9531 12.401 54.9531 13.2188V14.5469H50.1328L50.125 14.5938C50.1562 14.9167 50.2448 15.2031 50.3906 15.4531C50.5417 15.6979 50.7474 15.8932 51.0078 16.0391C51.2734 16.1849 51.5964 16.2578 51.9766 16.2578C52.3672 16.2578 52.737 16.2109 53.0859 16.1172C53.4401 16.0234 53.7969 15.8776 54.1562 15.6797L54.7812 17.2031C54.4167 17.4792 53.9635 17.7083 53.4219 17.8906C52.8854 18.0729 52.2786 18.1641 51.6016 18.1641ZM50.1406 12.9453H52.6406V12.7422C52.6406 12.4193 52.6016 12.1458 52.5234 11.9219C52.4505 11.6927 52.3255 11.5182 52.1484 11.3984C51.9766 11.2786 51.7474 11.2188 51.4609 11.2188C51.1693 11.2188 50.9297 11.2917 50.7422 11.4375C50.5547 11.5833 50.4115 11.7839 50.3125 12.0391C50.2188 12.2943 50.1536 12.5833 50.1172 12.9062L50.1406 12.9453ZM56.4375 21.4141C56.2083 21.4141 56 21.4036 55.8125 21.3828C55.6302 21.3672 55.4375 21.3359 55.2344 21.2891L55.3594 19.3984C55.4792 19.4297 55.5964 19.4531 55.7109 19.4688C55.8307 19.4896 55.9661 19.5 56.1172 19.5C56.4141 19.5 56.6432 19.3854 56.8047 19.1562C56.9661 18.9323 57.0469 18.6146 57.0469 18.2031V11.2734L55.8438 11.0312V9.54688H59.5391V18.2031C59.5391 19.2292 59.2656 20.0208 58.7188 20.5781C58.1771 21.1354 57.4167 21.4141 56.4375 21.4141ZM56.9375 7.85156V5.8125H59.5156V7.85156H56.9375ZM61.0547 18V16.5234L62.0938 16.2812V11.2734L60.9062 11.0312V9.54688H64.4375L64.5156 10.5859L64.5312 10.7891C64.7292 10.3151 64.974 9.96354 65.2656 9.73438C65.5573 9.50521 65.9167 9.39062 66.3438 9.39062C66.4688 9.39062 66.6094 9.40104 66.7656 9.42188C66.9271 9.44271 67.0781 9.47396 67.2188 9.51562L66.9609 11.8125L65.8125 11.7578C65.5104 11.7422 65.2708 11.7839 65.0938 11.8828C64.9167 11.9818 64.75 12.1328 64.5938 12.3359V16.2812L65.6406 16.5234V18H61.0547ZM68.0469 18V16.5781L72.3828 11.2578H70.3594L70.0859 12.7109H68.2578V9.54688H75.3672V11.1328L71.3594 16.2266H73.3984L73.7734 14.6406H75.5078V18H68.0469ZM79.1406 21.4141C78.9271 21.4141 78.7031 21.3958 78.4688 21.3594C78.2396 21.3229 78.013 21.2734 77.7891 21.2109L78.0781 19.3984C78.1823 19.4193 78.2865 19.4349 78.3906 19.4453C78.5 19.4609 78.6042 19.4688 78.7031 19.4688C79.0312 19.4688 79.3177 19.3932 79.5625 19.2422C79.8125 19.0964 79.9844 18.8776 80.0781 18.5859L80.2109 18.1719L77.4375 11.1875L76.3516 11.0312V9.54688H81.1172V11.0312L80.0781 11.1875L81.3125 14.7734L81.4062 15.0469H81.4531L82.9141 11.1719L81.9219 11.0312V9.54688H86.3125V11.0312L85.3359 11.1719L82.1406 19.25C81.9896 19.6354 81.7891 19.9922 81.5391 20.3203C81.2891 20.6484 80.9688 20.9115 80.5781 21.1094C80.1927 21.3125 79.7135 21.4141 79.1406 21.4141ZM87.3906 21.4141C87.1615 21.4141 86.9531 21.4036 86.7656 21.3828C86.5833 21.3672 86.3906 21.3359 86.1875 21.2891L86.3125 19.3984C86.4323 19.4297 86.5495 19.4531 86.6641 19.4688C86.7839 19.4896 86.9193 19.5 87.0703 19.5C87.3672 19.5 87.5964 19.3854 87.7578 19.1562C87.9193 18.9323 88 18.6146 88 18.2031V11.2734L86.7969 11.0312V9.54688H90.4922V18.2031C90.4922 19.2292 90.2188 20.0208 89.6719 20.5781C89.1302 21.1354 88.3698 21.4141 87.3906 21.4141ZM87.8906 7.85156V5.8125H90.4688V7.85156H87.8906ZM95.5 18V16.5234L96.6953 16.2812V11.2891H95.4609V9.54688H96.6953V9.07031C96.6953 7.97135 97.0339 7.1276 97.7109 6.53906C98.388 5.94531 99.3438 5.64844 100.578 5.64844C101.005 5.64844 101.422 5.6875 101.828 5.76562C102.24 5.84375 102.716 5.95833 103.258 6.10938L102.914 8.07031C102.529 7.96094 102.169 7.8776 101.836 7.82031C101.508 7.75781 101.177 7.72656 100.844 7.72656C100.292 7.72656 99.8776 7.84375 99.6016 8.07812C99.3307 8.30729 99.1953 8.63802 99.1953 9.07031V9.54688H104.414V16.2812L105.602 16.5234V18H100.859V16.5234L101.914 16.2812V11.2891H99.1953V16.2812L100.25 16.5234V18H95.5ZM106.219 18V16.5234L107.273 16.2812V7.53906L106.062 7.29688V5.8125H109.773V16.2812L110.82 16.5234V18H106.219ZM111.352 18V16.5234L112.406 16.2812V11.2734L111.203 11.0312V9.54688H114.742L114.828 10.6641C115.104 10.263 115.443 9.95052 115.844 9.72656C116.245 9.5026 116.711 9.39062 117.242 9.39062C117.773 9.39062 118.229 9.50781 118.609 9.74219C118.995 9.97656 119.286 10.3307 119.484 10.8047C119.74 10.3568 120.073 10.0104 120.484 9.76562C120.896 9.51562 121.378 9.39062 121.93 9.39062C122.758 9.39062 123.409 9.67188 123.883 10.2344C124.357 10.7917 124.594 11.6484 124.594 12.8047V16.2812L125.648 16.5234V18H121.203V16.5234L122.102 16.2812V12.7969C122.102 12.2344 122.01 11.849 121.828 11.6406C121.651 11.4271 121.388 11.3203 121.039 11.3203C120.742 11.3203 120.484 11.3958 120.266 11.5469C120.047 11.6927 119.872 11.8932 119.742 12.1484V16.2812L120.562 16.5234V18H116.438V16.5234L117.258 16.2812V12.7969C117.258 12.2448 117.167 11.862 116.984 11.6484C116.807 11.4297 116.542 11.3203 116.188 11.3203C115.906 11.3203 115.656 11.3776 115.438 11.4922C115.224 11.6016 115.044 11.763 114.898 11.9766V16.2812L115.797 16.5234V18H111.352ZM134.312 18.1641C133.458 18.1641 132.727 17.9844 132.117 17.625C131.513 17.2604 131.049 16.7552 130.727 16.1094C130.409 15.4583 130.25 14.7057 130.25 13.8516V13.6953C130.25 12.8516 130.409 12.1068 130.727 11.4609C131.049 10.8151 131.513 10.3099 132.117 9.94531C132.721 9.57552 133.448 9.39062 134.297 9.39062C135.146 9.39062 135.872 9.57292 136.477 9.9375C137.081 10.3021 137.542 10.8073 137.859 11.4531C138.182 12.099 138.344 12.8464 138.344 13.6953V13.8516C138.344 14.7005 138.182 15.4505 137.859 16.1016C137.542 16.7474 137.081 17.2526 136.477 17.6172C135.878 17.9818 135.156 18.1641 134.312 18.1641ZM134.312 16.2578C134.677 16.2578 134.971 16.1589 135.195 15.9609C135.424 15.763 135.591 15.4844 135.695 15.125C135.805 14.7656 135.859 14.3411 135.859 13.8516V13.6953C135.859 13.2214 135.805 12.8073 135.695 12.4531C135.591 12.0938 135.424 11.8125 135.195 11.6094C134.966 11.4062 134.667 11.3047 134.297 11.3047C133.932 11.3047 133.635 11.4062 133.406 11.6094C133.177 11.8125 133.01 12.0938 132.906 12.4531C132.802 12.8073 132.75 13.2214 132.75 13.6953V13.8516C132.75 14.3411 132.802 14.7682 132.906 15.1328C133.01 15.4922 133.177 15.7708 133.406 15.9688C133.635 16.1615 133.938 16.2578 134.312 16.2578ZM32.6641 41V39.5781L37 34.2578H34.9766L34.7031 35.7109H32.875V32.5469H39.9844V34.1328L35.9766 39.2266H38.0156L38.3906 37.6406H40.125V41H32.6641ZM44.1328 41.1641C43.2995 41.1641 42.6302 40.9375 42.125 40.4844C41.625 40.026 41.375 39.4089 41.375 38.6328C41.375 38.1068 41.5156 37.6406 41.7969 37.2344C42.0833 36.8281 42.5104 36.5104 43.0781 36.2812C43.6458 36.0521 44.3516 35.9375 45.1953 35.9375H46.2031V35.375C46.2031 35 46.0938 34.6901 45.875 34.4453C45.6615 34.2005 45.3333 34.0781 44.8906 34.0781C44.6771 34.0781 44.4818 34.1042 44.3047 34.1562C44.1328 34.2083 43.974 34.2839 43.8281 34.3828L43.6484 35.4766H41.8672L41.8359 33.2109C42.2943 32.9766 42.7839 32.7812 43.3047 32.625C43.8255 32.4688 44.4036 32.3906 45.0391 32.3906C46.1693 32.3906 47.0625 32.651 47.7188 33.1719C48.375 33.6927 48.7031 34.4349 48.7031 35.3984V38.7109C48.7031 38.8307 48.7031 38.9479 48.7031 39.0625C48.7083 39.1719 48.7214 39.2786 48.7422 39.3828L49.6328 39.5234V41H46.6328C46.5703 40.8802 46.5052 40.7396 46.4375 40.5781C46.3698 40.4167 46.3229 40.2552 46.2969 40.0938C46.0312 40.4219 45.7266 40.6823 45.3828 40.875C45.0391 41.0677 44.6224 41.1641 44.1328 41.1641ZM44.8516 39.3594C45.112 39.3594 45.3646 39.3021 45.6094 39.1875C45.8542 39.0729 46.0521 38.9167 46.2031 38.7188V37.4375H45.2109C44.7734 37.4375 44.4375 37.5365 44.2031 37.7344C43.974 37.9323 43.8594 38.1771 43.8594 38.4688C43.8594 38.75 43.9479 38.9688 44.125 39.125C44.3073 39.2812 44.5495 39.3594 44.8516 39.3594ZM50.1953 41V39.5234L51.25 39.2812V30.5391L50.0391 30.2969V28.8125H53.75V39.2812L54.7969 39.5234V41H50.1953ZM59.3906 41.1641C58.5729 41.1641 57.8594 40.987 57.25 40.6328C56.6406 40.2734 56.1667 39.7839 55.8281 39.1641C55.4948 38.5391 55.3281 37.8307 55.3281 37.0391V36.7344C55.3281 35.8906 55.4818 35.1406 55.7891 34.4844C56.0964 33.8281 56.5391 33.3151 57.1172 32.9453C57.6953 32.5703 58.388 32.3854 59.1953 32.3906C59.9609 32.3906 60.6068 32.5391 61.1328 32.8359C61.6589 33.1328 62.0573 33.5677 62.3281 34.1406C62.6042 34.7083 62.7422 35.401 62.7422 36.2188V37.5469H57.9219L57.9141 37.5938C57.9453 37.9167 58.0339 38.2031 58.1797 38.4531C58.3307 38.6979 58.5365 38.8932 58.7969 39.0391C59.0625 39.1849 59.3854 39.2578 59.7656 39.2578C60.1562 39.2578 60.526 39.2109 60.875 39.1172C61.2292 39.0234 61.5859 38.8776 61.9453 38.6797L62.5703 40.2031C62.2057 40.4792 61.7526 40.7083 61.2109 40.8906C60.6745 41.0729 60.0677 41.1641 59.3906 41.1641ZM57.9297 35.9453H60.4297V35.7422C60.4297 35.4193 60.3906 35.1458 60.3125 34.9219C60.2396 34.6927 60.1146 34.5182 59.9375 34.3984C59.7656 34.2786 59.5365 34.2188 59.25 34.2188C58.9583 34.2188 58.7188 34.2917 58.5312 34.4375C58.3438 34.5833 58.2005 34.7839 58.1016 35.0391C58.0078 35.2943 57.9427 35.5833 57.9062 35.9062L57.9297 35.9453ZM67.1797 41.1719C66.3464 41.1719 65.7083 40.9479 65.2656 40.5C64.8229 40.0469 64.6016 39.3307 64.6016 38.3516V34.2891H63.4922V32.5469H64.6016V30.4688H67.0859V32.5469H68.5625V34.2891H67.0859V38.3438C67.0859 38.6458 67.151 38.862 67.2812 38.9922C67.4167 39.1172 67.599 39.1797 67.8281 39.1797C67.9427 39.1797 68.0599 39.1719 68.1797 39.1562C68.2995 39.1406 68.4089 39.125 68.5078 39.1094L68.6953 40.9453C68.4609 41.013 68.2135 41.0677 67.9531 41.1094C67.6979 41.151 67.4401 41.1719 67.1797 41.1719ZM72.3672 41.1641C71.5339 41.1641 70.8646 40.9375 70.3594 40.4844C69.8594 40.026 69.6094 39.4089 69.6094 38.6328C69.6094 38.1068 69.75 37.6406 70.0312 37.2344C70.3177 36.8281 70.7448 36.5104 71.3125 36.2812C71.8802 36.0521 72.5859 35.9375 73.4297 35.9375H74.4375V35.375C74.4375 35 74.3281 34.6901 74.1094 34.4453C73.8958 34.2005 73.5677 34.0781 73.125 34.0781C72.9115 34.0781 72.7161 34.1042 72.5391 34.1562C72.3672 34.2083 72.2083 34.2839 72.0625 34.3828L71.8828 35.4766H70.1016L70.0703 33.2109C70.5286 32.9766 71.0182 32.7812 71.5391 32.625C72.0599 32.4688 72.638 32.3906 73.2734 32.3906C74.4036 32.3906 75.2969 32.651 75.9531 33.1719C76.6094 33.6927 76.9375 34.4349 76.9375 35.3984V38.7109C76.9375 38.8307 76.9375 38.9479 76.9375 39.0625C76.9427 39.1719 76.9557 39.2786 76.9766 39.3828L77.8672 39.5234V41H74.8672C74.8047 40.8802 74.7396 40.7396 74.6719 40.5781C74.6042 40.4167 74.5573 40.2552 74.5312 40.0938C74.2656 40.4219 73.9609 40.6823 73.6172 40.875C73.2734 41.0677 72.8568 41.1641 72.3672 41.1641ZM73.0859 39.3594C73.3464 39.3594 73.599 39.3021 73.8438 39.1875C74.0885 39.0729 74.2865 38.9167 74.4375 38.7188V37.4375H73.4453C73.0078 37.4375 72.6719 37.5365 72.4375 37.7344C72.2083 37.9323 72.0938 38.1771 72.0938 38.4688C72.0938 38.75 72.1823 38.9688 72.3594 39.125C72.5417 39.2812 72.7839 39.3594 73.0859 39.3594ZM82.5859 41.1641C81.763 41.1641 81.0521 40.9818 80.4531 40.6172C79.8594 40.2474 79.401 39.7422 79.0781 39.1016C78.7604 38.4557 78.6016 37.7188 78.6016 36.8906V36.6797C78.6016 35.8411 78.7656 35.099 79.0938 34.4531C79.4219 33.8073 79.8828 33.3021 80.4766 32.9375C81.0703 32.5729 81.7682 32.3906 82.5703 32.3906C83.3516 32.3906 84.0234 32.5104 84.5859 32.75C85.1484 32.9896 85.599 33.2552 85.9375 33.5469L85.9062 36.0859H84.0312L83.7188 34.5625C83.6146 34.4583 83.4766 34.3724 83.3047 34.3047C83.1328 34.237 82.9714 34.2031 82.8203 34.2031C82.4141 34.2031 82.0833 34.2995 81.8281 34.4922C81.5781 34.6797 81.3932 34.9557 81.2734 35.3203C81.1589 35.6849 81.1016 36.138 81.1016 36.6797V36.8906C81.1016 37.4583 81.1719 37.9167 81.3125 38.2656C81.4531 38.6094 81.638 38.862 81.8672 39.0234C82.1016 39.1797 82.349 39.2578 82.6094 39.2578C82.9792 39.2578 83.2682 39.1641 83.4766 38.9766C83.6901 38.7839 83.8438 38.5104 83.9375 38.1562H86.0547L86.0859 38.2031C85.9766 38.8385 85.7891 39.3776 85.5234 39.8203C85.263 40.2578 84.8958 40.5911 84.4219 40.8203C83.9479 41.0495 83.3359 41.1641 82.5859 41.1641ZM86.9688 41V39.5234L88.0156 39.2812V30.5391L86.8125 30.2969V28.8125H90.5V33.6094C90.7604 33.224 91.0807 32.9245 91.4609 32.7109C91.8464 32.4974 92.2891 32.3906 92.7891 32.3906C93.6224 32.3906 94.2865 32.6771 94.7812 33.25C95.276 33.8229 95.5234 34.7083 95.5234 35.9062V39.2812L96.5703 39.5234V41H92.125V39.5234L93.0234 39.2812V35.8906C93.0234 35.3073 92.9193 34.901 92.7109 34.6719C92.5026 34.4375 92.2005 34.3203 91.8047 34.3203C91.5286 34.3203 91.2786 34.375 91.0547 34.4844C90.8307 34.5885 90.6458 34.7474 90.5 34.9609V39.2812L91.3984 39.5234V41H86.9688ZM104.539 41.1719C103.706 41.1719 103.068 40.9479 102.625 40.5C102.182 40.0469 101.961 39.3307 101.961 38.3516V34.2891H100.852V32.5469H101.961V30.4688H104.445V32.5469H105.922V34.2891H104.445V38.3438C104.445 38.6458 104.51 38.862 104.641 38.9922C104.776 39.1172 104.958 39.1797 105.188 39.1797C105.302 39.1797 105.419 39.1719 105.539 39.1562C105.659 39.1406 105.768 39.125 105.867 39.1094L106.055 40.9453C105.82 41.013 105.573 41.0677 105.312 41.1094C105.057 41.151 104.799 41.1719 104.539 41.1719ZM110.766 41.1641C109.948 41.1641 109.234 40.987 108.625 40.6328C108.016 40.2734 107.542 39.7839 107.203 39.1641C106.87 38.5391 106.703 37.8307 106.703 37.0391V36.7344C106.703 35.8906 106.857 35.1406 107.164 34.4844C107.471 33.8281 107.914 33.3151 108.492 32.9453C109.07 32.5703 109.763 32.3854 110.57 32.3906C111.336 32.3906 111.982 32.5391 112.508 32.8359C113.034 33.1328 113.432 33.5677 113.703 34.1406C113.979 34.7083 114.117 35.401 114.117 36.2188V37.5469H109.297L109.289 37.5938C109.32 37.9167 109.409 38.2031 109.555 38.4531C109.706 38.6979 109.911 38.8932 110.172 39.0391C110.438 39.1849 110.76 39.2578 111.141 39.2578C111.531 39.2578 111.901 39.2109 112.25 39.1172C112.604 39.0234 112.961 38.8776 113.32 38.6797L113.945 40.2031C113.581 40.4792 113.128 40.7083 112.586 40.8906C112.049 41.0729 111.443 41.1641 110.766 41.1641ZM109.305 35.9453H111.805V35.7422C111.805 35.4193 111.766 35.1458 111.688 34.9219C111.615 34.6927 111.49 34.5182 111.312 34.3984C111.141 34.2786 110.911 34.2188 110.625 34.2188C110.333 34.2188 110.094 34.2917 109.906 34.4375C109.719 34.5833 109.576 34.7839 109.477 35.0391C109.383 35.2943 109.318 35.5833 109.281 35.9062L109.305 35.9453ZM118.773 44.4141C118.336 44.4141 117.841 44.3594 117.289 44.25C116.742 44.1406 116.26 43.9818 115.844 43.7734L116.273 42.0234C116.659 42.1849 117.057 42.3099 117.469 42.3984C117.885 42.487 118.268 42.5312 118.617 42.5312C119.206 42.5312 119.638 42.3672 119.914 42.0391C120.19 41.7161 120.328 41.2682 120.328 40.6953V40.2188C120.083 40.5208 119.797 40.7552 119.469 40.9219C119.146 41.0833 118.773 41.1641 118.352 41.1641C117.664 41.1641 117.073 40.9922 116.578 40.6484C116.089 40.2995 115.714 39.8099 115.453 39.1797C115.198 38.5495 115.07 37.8177 115.07 36.9844V36.8203C115.07 35.9349 115.198 35.1615 115.453 34.5C115.714 33.8333 116.083 33.3151 116.562 32.9453C117.042 32.5755 117.617 32.3906 118.289 32.3906C118.784 32.3906 119.208 32.4974 119.562 32.7109C119.922 32.9245 120.227 33.224 120.477 33.6094L120.641 32.5469H122.828V40.7109C122.828 41.4557 122.664 42.1042 122.336 42.6562C122.013 43.2135 121.547 43.6458 120.938 43.9531C120.333 44.2604 119.612 44.4141 118.773 44.4141ZM119.07 39.2344C119.346 39.2344 119.591 39.1823 119.805 39.0781C120.018 38.974 120.193 38.8229 120.328 38.625V35.0156C120.193 34.7917 120.018 34.6198 119.805 34.5C119.591 34.3802 119.349 34.3203 119.078 34.3203C118.719 34.3203 118.427 34.4245 118.203 34.6328C117.979 34.8411 117.818 35.1328 117.719 35.5078C117.62 35.8828 117.57 36.3203 117.57 36.8203V36.9844C117.57 37.6875 117.682 38.2396 117.906 38.6406C118.135 39.0365 118.523 39.2344 119.07 39.2344ZM122.531 34.3125L121.422 32.5469H123.812V34.0391L122.531 34.3125ZM128.492 41.1641C127.638 41.1641 126.906 40.9844 126.297 40.625C125.693 40.2604 125.229 39.7552 124.906 39.1094C124.589 38.4583 124.43 37.7057 124.43 36.8516V36.6953C124.43 35.8516 124.589 35.1068 124.906 34.4609C125.229 33.8151 125.693 33.3099 126.297 32.9453C126.901 32.5755 127.628 32.3906 128.477 32.3906C129.326 32.3906 130.052 32.5729 130.656 32.9375C131.26 33.3021 131.721 33.8073 132.039 34.4531C132.362 35.099 132.523 35.8464 132.523 36.6953V36.8516C132.523 37.7005 132.362 38.4505 132.039 39.1016C131.721 39.7474 131.26 40.2526 130.656 40.6172C130.057 40.9818 129.336 41.1641 128.492 41.1641ZM128.492 39.2578C128.857 39.2578 129.151 39.1589 129.375 38.9609C129.604 38.763 129.771 38.4844 129.875 38.125C129.984 37.7656 130.039 37.3411 130.039 36.8516V36.6953C130.039 36.2214 129.984 35.8073 129.875 35.4531C129.771 35.0938 129.604 34.8125 129.375 34.6094C129.146 34.4062 128.846 34.3047 128.477 34.3047C128.112 34.3047 127.815 34.4062 127.586 34.6094C127.357 34.8125 127.19 35.0938 127.086 35.4531C126.982 35.8073 126.93 36.2214 126.93 36.6953V36.8516C126.93 37.3411 126.982 37.7682 127.086 38.1328C127.19 38.4922 127.357 38.7708 127.586 38.9688C127.815 39.1615 128.117 39.2578 128.492 39.2578ZM58.1484 64.1641C57.6328 64.1641 57.1953 64.0625 56.8359 63.8594C56.4766 63.6562 56.1745 63.362 55.9297 62.9766L55.7578 64H53.6016V53.5391L52.4062 53.2969V51.8125H56.0938V56.4141C56.3281 56.0859 56.6198 55.8333 56.9688 55.6562C57.3177 55.4792 57.7214 55.3906 58.1797 55.3906C58.8568 55.3906 59.4297 55.5729 59.8984 55.9375C60.3724 56.2969 60.7318 56.8099 60.9766 57.4766C61.2266 58.138 61.3516 58.9193 61.3516 59.8203V59.9844C61.3516 60.8281 61.2266 61.5651 60.9766 62.1953C60.7318 62.8203 60.3698 63.3047 59.8906 63.6484C59.4167 63.9922 58.8359 64.1641 58.1484 64.1641ZM57.3672 62.2344C57.9089 62.2344 58.2917 62.0443 58.5156 61.6641C58.7448 61.2786 58.8594 60.7188 58.8594 59.9844V59.8203C58.8594 59.2943 58.8073 58.8464 58.7031 58.4766C58.6042 58.1068 58.4479 57.8229 58.2344 57.625C58.0208 57.4219 57.7422 57.3203 57.3984 57.3203C57.0964 57.3203 56.8333 57.3932 56.6094 57.5391C56.3906 57.6797 56.2188 57.8698 56.0938 58.1094V61.5781C56.2396 61.7969 56.4193 61.9609 56.6328 62.0703C56.8464 62.1797 57.0911 62.2344 57.3672 62.2344ZM62.1094 64V62.5234L63.1562 62.2812V57.2734L61.9609 57.0312V55.5469H65.6562V62.2812L66.7031 62.5234V64H62.1094ZM63.0781 53.8516V51.8125H65.6562V53.8516H63.0781ZM67.5938 64V62.5781L71.9297 57.2578H69.9062L69.6328 58.7109H67.8047V55.5469H74.9141V57.1328L70.9062 62.2266H72.9453L73.3203 60.6406H75.0547V64H67.5938ZM76.0859 64V62.5234L77.1328 62.2812V57.2734L75.9375 57.0312V55.5469H79.4766L79.5781 56.7422C79.8594 56.3151 80.2057 55.9844 80.6172 55.75C81.0286 55.5104 81.4974 55.3906 82.0234 55.3906C82.8359 55.3906 83.4766 55.6589 83.9453 56.1953C84.4141 56.7318 84.6484 57.5781 84.6484 58.7344V62.2812L85.6875 62.5234V64H81.2422V62.5234L82.1406 62.2812V58.7344C82.1406 58.224 82.0365 57.862 81.8281 57.6484C81.625 57.4297 81.3281 57.3203 80.9375 57.3203C80.6458 57.3203 80.3906 57.3802 80.1719 57.5C79.9583 57.6146 79.7786 57.7812 79.6328 58V62.2812L80.4453 62.5234V64H76.0859ZM90.3672 64.1641C89.5495 64.1641 88.8359 63.987 88.2266 63.6328C87.6172 63.2734 87.1432 62.7839 86.8047 62.1641C86.4714 61.5391 86.3047 60.8307 86.3047 60.0391V59.7344C86.3047 58.8906 86.4583 58.1406 86.7656 57.4844C87.0729 56.8281 87.5156 56.3151 88.0938 55.9453C88.6719 55.5703 89.3646 55.3854 90.1719 55.3906C90.9375 55.3906 91.5833 55.5391 92.1094 55.8359C92.6354 56.1328 93.0339 56.5677 93.3047 57.1406C93.5807 57.7083 93.7188 58.401 93.7188 59.2188V60.5469H88.8984L88.8906 60.5938C88.9219 60.9167 89.0104 61.2031 89.1562 61.4531C89.3073 61.6979 89.513 61.8932 89.7734 62.0391C90.0391 62.1849 90.362 62.2578 90.7422 62.2578C91.1328 62.2578 91.5026 62.2109 91.8516 62.1172C92.2057 62.0234 92.5625 61.8776 92.9219 61.6797L93.5469 63.2031C93.1823 63.4792 92.7292 63.7083 92.1875 63.8906C91.651 64.0729 91.0443 64.1641 90.3672 64.1641ZM88.9062 58.9453H91.4062V58.7422C91.4062 58.4193 91.3672 58.1458 91.2891 57.9219C91.2161 57.6927 91.0911 57.5182 90.9141 57.3984C90.7422 57.2786 90.513 57.2188 90.2266 57.2188C89.9349 57.2188 89.6953 57.2917 89.5078 57.4375C89.3203 57.5833 89.1771 57.7839 89.0781 58.0391C88.9844 58.2943 88.9193 58.5833 88.8828 58.9062L88.9062 58.9453ZM98.4141 64.1641C97.7682 64.1641 97.1641 64.1042 96.6016 63.9844C96.0443 63.8646 95.526 63.6953 95.0469 63.4766L95.0156 60.9688H96.7266L97.0391 62.1875C97.1849 62.2656 97.3542 62.3307 97.5469 62.3828C97.7396 62.4349 97.9635 62.4609 98.2188 62.4609C98.6979 62.4609 99.0312 62.388 99.2188 62.2422C99.4062 62.0964 99.5 61.9167 99.5 61.7031C99.5 61.4948 99.3958 61.3073 99.1875 61.1406C98.9792 60.974 98.5547 60.8307 97.9141 60.7109C96.9193 60.5078 96.1849 60.1823 95.7109 59.7344C95.2422 59.2812 95.0078 58.7083 95.0078 58.0156C95.0078 57.5469 95.1224 57.1172 95.3516 56.7266C95.5807 56.3307 95.9401 56.013 96.4297 55.7734C96.9245 55.5286 97.5677 55.4062 98.3594 55.4062C98.9948 55.4062 99.5885 55.4661 100.141 55.5859C100.693 55.7005 101.151 55.849 101.516 56.0312L101.523 58.4531H99.8203L99.5781 57.3594C99.4479 57.2656 99.2969 57.1953 99.125 57.1484C98.9531 57.0964 98.7604 57.0703 98.5469 57.0703C98.1719 57.0703 97.888 57.1432 97.6953 57.2891C97.5078 57.4349 97.4141 57.6198 97.4141 57.8438C97.4141 57.974 97.4505 58.1016 97.5234 58.2266C97.6016 58.3464 97.7474 58.4609 97.9609 58.5703C98.1745 58.6745 98.4896 58.7734 98.9062 58.8672C99.9167 59.0911 100.661 59.3984 101.141 59.7891C101.625 60.1797 101.867 60.7474 101.867 61.4922C101.867 62.2995 101.576 62.9479 100.992 63.4375C100.409 63.9219 99.5495 64.1641 98.4141 64.1641ZM106.383 64.1641C105.503 64.1641 104.81 63.8854 104.305 63.3281C103.799 62.7656 103.547 61.8984 103.547 60.7266V57.2734L102.633 57.0312V55.5469H103.547H106.047V60.7422C106.047 61.2526 106.143 61.6302 106.336 61.875C106.529 62.1146 106.823 62.2344 107.219 62.2344C107.49 62.2344 107.74 62.1823 107.969 62.0781C108.203 61.974 108.401 61.8203 108.562 61.6172V57.2734L107.602 57.0312V55.5469H108.562H111.062V62.2812L112.102 62.5234V64H108.883L108.719 62.9844C108.448 63.3646 108.115 63.6562 107.719 63.8594C107.328 64.0625 106.883 64.1641 106.383 64.1641Z" fill="#433835"></path>
  <circle cx="82.5" cy="154.5" r="82" stroke="#5B7B3B" stroke-opacity="0.2"></circle>
  <circle cx="82.5" cy="154.5" r="65.5" stroke="#6B873E" stroke-opacity="0.5"></circle>
  <g filter="url(#filter0_d_902_16)">
    <circle cx="82.502" cy="154.5" r="49.5" fill="#517D30"></circle>
  </g>
  <path d="M99.1356 151.925C100.512 152.686 100.512 154.665 99.1356 155.426L73.9205 169.36C72.5875 170.097 70.9531 169.133 70.9531 167.61L70.9531 139.74C70.9531 138.217 72.5875 137.253 73.9205 137.99L99.1356 151.925Z" fill="white"></path>
  <defs>
    <filter id="filter0_d_902_16" x="29.002" y="102" width="107" height="107" color-interpolation-filters="sRGB">
      <feFlood flood-opacity="0" result="BackgroundImageFix"></feFlood>
      <feColorMatrix in="SourceAlpha" type="matrix" values="0 0 0 0 0 0 0 0 0 0 0 0 0 0 0 0 0 0 127 0" result="hardAlpha"></feColorMatrix>
      <feOffset dy="1"></feOffset>
      <feGaussianBlur stdDeviation="2"></feGaussianBlur>
      <feComposite in2="hardAlpha" operator="out"></feComposite>
      <feColorMatrix type="matrix" values="0 0 0 0 0.217812 0 0 0 0 0.554997 0 0 0 0 0.6375 0 0 0 1 0"></feColorMatrix>
      <feBlend mode="normal" in2="BackgroundImageFix" result="effect1_dropShadow_902_16"></feBlend>
      <feBlend mode="normal" in="SourceGraphic" in2="effect1_dropShadow_902_16" result="shape"></feBlend>
    </filter>
  </defs>
</svg>
