<?xml version="1.0" encoding="UTF-8"?>
<svg xmlns="http://www.w3.org/2000/svg" width="17" height="17" viewBox="0 0 17 17" fill="none">
  <path d="M15.1475 12.5748C15.313 12.7409 15.4371 12.9436 15.5096 13.1666C15.5822 13.3895 15.6013 13.6264 15.5653 13.8581C15.5293 14.0898 15.4392 14.3098 15.3024 14.5002C15.1656 14.6906 14.9858 14.8461 14.7777 14.9541C13.5885 15.5897 12.2029 15.7522 10.8989 15.4089C7.43797 14.5376 2.46334 9.563 1.59209 6.10208C1.24878 4.79808 1.41123 3.41248 2.04684 2.22325C2.15486 2.01514 2.31037 1.8354 2.50078 1.69857C2.69119 1.56175 2.91114 1.47168 3.14283 1.43568C3.37452 1.39967 3.61143 1.41874 3.83438 1.49133C4.05733 1.56391 4.26006 1.68799 4.42614 1.8535L5.90301 3.32966C6.11599 3.5405 6.26011 3.81092 6.31637 4.10528C6.37264 4.39964 6.33842 4.70414 6.21822 4.97866C6.08668 5.28668 5.89992 5.56803 5.66714 5.80883C3.97847 7.4975 9.50418 13.0232 11.1921 11.3338C11.433 11.1002 11.7146 10.9127 12.023 10.7806C12.2975 10.6602 12.6021 10.6259 12.8965 10.6822C13.1909 10.7384 13.4613 10.8827 13.672 11.0958L15.1475 12.5748Z" fill="#5B7B3B"></path>
</svg>
