<svg width="28" height="27" viewBox="0 0 28 27" fill="none" xmlns="http://www.w3.org/2000/svg">
<path d="M26.2918 13.1365C26.2918 14.6146 25.059 15.8127 23.5383 15.8127C22.0176 15.8127 20.784 14.6146 20.784 13.1365C20.784 11.6585 22.0176 10.4603 23.5383 10.4603C25.059 10.4603 26.2918 11.6585 26.2918 13.1365ZM16.3788 13.1365C16.3788 14.6146 15.146 15.8127 13.6253 15.8127C12.1046 15.8127 10.871 14.6146 10.871 13.1365C10.871 11.6585 12.1046 10.4603 13.6253 10.4603C15.146 10.4603 16.3788 11.6585 16.3788 13.1365ZM21.3349 4.03708C21.3349 5.51513 20.1021 6.7133 18.5814 6.7133C17.0607 6.7133 15.8279 5.51513 15.8279 4.03708C15.8279 2.55903 17.0607 1.36087 18.5814 1.36087C20.1021 1.36087 21.3349 2.55903 21.3349 4.03708ZM11.4227 4.03708C11.4227 5.51513 10.1891 6.7133 8.66838 6.7133C7.14766 6.7133 5.91491 5.51513 5.91491 4.03708C5.91491 2.55903 7.14766 1.36087 8.66838 1.36087C10.1891 1.36087 11.4227 2.55903 11.4227 4.03708ZM21.3349 22.7714C21.3349 24.2494 20.1021 25.4476 18.5814 25.4476C17.0607 25.4476 15.8279 24.2494 15.8279 22.7714C15.8279 21.2933 17.0607 20.0952 18.5814 20.0952C20.1021 20.096 21.3349 21.2933 21.3349 22.7714ZM11.4227 22.7714C11.4227 24.2494 10.1891 25.4476 8.66838 25.4476C7.14766 25.4476 5.91491 24.2494 5.91491 22.7714C5.91491 21.2933 7.14766 20.0952 8.66838 20.0952C10.1891 20.0952 11.4227 21.2933 11.4227 22.7714ZM6.46576 13.1365C6.46576 14.6146 5.23301 15.8127 3.71229 15.8127C2.19157 15.8127 0.958005 14.6146 0.958005 13.1365C0.958005 11.6585 2.19157 10.4603 3.71229 10.4603C5.23301 10.4603 6.46576 11.6585 6.46576 13.1365Z" fill="#1D1D1B"/>
<path d="M18.5811 26.3785C16.5346 26.3785 14.8699 24.7605 14.8699 22.7714C14.8699 21.6071 15.441 20.5685 16.3243 19.9097L14.3425 16.676C13.8661 16.7649 13.3443 16.7649 12.8703 16.6689L10.8966 19.8884C11.7969 20.5465 12.3801 21.5937 12.3801 22.7706C12.3801 24.7597 10.7146 26.3777 8.66811 26.3777C6.62161 26.3777 4.9569 24.7597 4.9569 22.7706C4.9569 20.7815 6.62161 19.1635 8.66811 19.1635C8.8129 19.1635 8.95608 19.1714 9.09682 19.1871L11.1571 15.8277C10.5739 15.3214 10.1557 14.6398 9.99146 13.8685H7.34557C6.99694 15.5085 5.50048 16.7436 3.71202 16.7436C1.66551 16.7436 0 15.1256 0 13.1366C0 11.1475 1.66551 9.52949 3.71202 9.52949C5.35326 9.52949 6.7486 10.5696 7.23718 12.0076H10.0999C10.3053 11.403 10.6717 10.8684 11.149 10.4517L9.38641 7.57579C9.15426 7.6206 8.91401 7.6434 8.66811 7.6434C6.62161 7.6434 4.9569 6.02541 4.9569 4.03633C4.9569 2.04725 6.62161 0.429253 8.66811 0.429253C10.7146 0.429253 12.3801 2.04725 12.3801 4.03633C12.3801 5.11735 11.8883 6.08909 11.1102 6.75028L12.8606 9.60575C13.3427 9.50669 13.8701 9.50511 14.3538 9.59789L16.1132 6.72669C15.3512 6.0655 14.8699 5.10398 14.8699 4.03554C14.8699 2.04646 16.5346 0.428467 18.5811 0.428467C20.6276 0.428467 22.2923 2.04646 22.2923 4.03554C22.2923 6.02462 20.6276 7.64261 18.5811 7.64261C18.3231 7.64261 18.0707 7.61667 17.8272 7.56793L16.0743 10.4273C16.5645 10.8472 16.9407 11.3896 17.1502 12.006H20.012C20.5014 10.5681 21.8968 9.52792 23.538 9.52792C25.5845 9.52792 27.2492 11.1459 27.2492 13.135C27.2492 15.1241 25.5845 16.7421 23.538 16.7421C21.7495 16.7421 20.2523 15.5069 19.9028 13.8677H17.2586C17.0919 14.65 16.6632 15.3411 16.0663 15.8497L18.1152 19.1911C18.2673 19.173 18.4234 19.1628 18.5811 19.1628C20.6276 19.1628 22.2923 20.7808 22.2923 22.7698C22.2923 24.7605 20.6276 26.3785 18.5811 26.3785ZM18.5811 21.0261C17.591 21.0261 16.7854 21.8091 16.7854 22.7714C16.7854 23.7337 17.591 24.5168 18.5811 24.5168C19.5712 24.5168 20.3769 23.7345 20.3769 22.7714C20.3769 21.8083 19.5712 21.0261 18.5811 21.0261ZM8.66811 21.0261C7.67802 21.0261 6.87237 21.8091 6.87237 22.7714C6.87237 23.7337 7.67802 24.5168 8.66811 24.5168C9.6582 24.5168 10.4647 23.7345 10.4647 22.7714C10.4647 21.8083 9.6582 21.0261 8.66811 21.0261ZM23.5388 11.3912C22.5479 11.3912 21.7415 12.1743 21.7415 13.1366C21.7415 14.0989 22.5479 14.8819 23.5388 14.8819C24.5289 14.8819 25.3346 14.0997 25.3346 13.1366C25.3346 12.1735 24.5281 11.3912 23.5388 11.3912ZM12.8032 11.5854C12.2248 11.8755 11.8285 12.4628 11.8285 13.1373C11.8285 14.0997 12.6349 14.8827 13.625 14.8827C13.8766 14.8827 14.1168 14.8316 14.3336 14.7412C14.3611 14.7278 14.3894 14.7145 14.4185 14.7027C15.0115 14.4173 15.4208 13.8229 15.4208 13.1373C15.4208 12.4911 15.0576 11.9266 14.5197 11.6247C14.4396 11.6027 14.3619 11.5705 14.2867 11.5272C14.2697 11.517 14.2527 11.5076 14.2365 11.4966C13.8135 11.3456 13.299 11.3668 12.8905 11.5445C12.8614 11.5594 12.8323 11.5736 12.8032 11.5854ZM3.71202 11.3912C2.72193 11.3912 1.91546 12.1743 1.91546 13.1366C1.91546 14.0989 2.72193 14.8819 3.71202 14.8819C4.7021 14.8819 5.50776 14.0997 5.50776 13.1366C5.50776 12.1735 4.7021 11.3912 3.71202 11.3912ZM18.5811 2.29175C17.591 2.29175 16.7854 3.07481 16.7854 4.03711C16.7854 4.99942 17.591 5.78247 18.5811 5.78247C19.5712 5.78247 20.3769 4.99942 20.3769 4.03711C20.3769 3.07481 19.5712 2.29175 18.5811 2.29175ZM8.66811 2.29175C7.67802 2.29175 6.87237 3.07481 6.87237 4.03711C6.87237 4.99942 7.67802 5.78247 8.66811 5.78247C8.91806 5.78247 9.15668 5.73215 9.37347 5.64253C9.4042 5.6268 9.43494 5.61265 9.46649 5.60086C10.0578 5.31468 10.4647 4.7211 10.4647 4.03711C10.4647 3.07481 9.6582 2.29175 8.66811 2.29175Z" fill="#1D1D1B"/>
</svg>
