<svg width="266" height="332" viewBox="0 0 266 332" fill="none" xmlns="http://www.w3.org/2000/svg">
<path d="M0.308594 90.2862V295.265C0.308594 315.304 16.5474 331.566 36.5864 331.566H229.104C249.167 331.566 265.406 315.304 265.406 295.265V36.5952C265.406 16.5552 249.167 0.294189 229.104 0.294189H90.3254L19.1494 71.4452L0.308594 90.2862Z" fill="white"/>
<path d="M0.308594 90.2862L19.1494 71.4452L90.3254 0.294189H229.104C249.167 0.294189 265.405 16.5562 265.405 36.5952V120.955H0.308594V90.2862Z" fill="#6972B1"/>
<path d="M0.3125 90.2821L44.7405 100.096C64.3695 104.153 83.5765 91.5101 87.6335 71.8811L89.4885 61.6951C88.8995 64.5361 87.9534 67.2481 86.7124 69.8081C80.8384 81.9261 68.4135 90.2821 54.0435 90.2821H0.3125Z" fill="#D7D7D7"/>
<g opacity="0.4">
<path d="M0.3125 90.2821H54.0425C68.4125 90.2821 80.8374 81.9271 86.7114 69.8081C87.9524 67.2481 88.8996 64.5361 89.4875 61.6951C90.0506 59.2131 90.3196 56.6281 90.3196 53.9791V0.287109L19.1475 71.4461L0.3125 90.2821Z" fill="#EFEFEF"/>
</g>
<path d="M132.856 283.239C100.497 283.239 74.1719 256.298 74.1719 223.183C74.1719 190.068 100.496 163.127 132.856 163.127C165.216 163.127 191.54 190.068 191.54 223.183C191.54 256.298 165.216 283.239 132.856 283.239ZM132.856 174.265C106.639 174.265 85.3091 196.209 85.3091 223.183C85.3091 250.157 106.639 272.101 132.856 272.101C159.073 272.101 180.403 250.157 180.403 223.183C180.403 196.209 159.073 174.265 132.856 174.265Z" fill="#6972B1"/>
<path d="M153.803 217.134L126.02 200.679C121.332 197.903 115.406 201.281 115.406 206.728V239.638C115.406 245.085 121.333 248.463 126.02 245.688L153.803 229.232C158.4 226.51 158.4 219.857 153.803 217.134Z" fill="#6972B1"/>
<path d="M153.18 94.4999C153.18 96.9119 153.418 99.7509 153.63 101.066H149.901C149.691 99.9509 149.465 98.0809 149.461 95.7419C148.185 99.2989 144.862 101.69 139.466 101.69C131.642 101.69 129.258 96.0489 129.258 91.3649C129.258 86.1359 132.602 80.4359 144.04 80.4359C146.325 80.4359 147.776 80.4359 149.248 80.4819V76.2799C149.248 72.9439 148.404 69.0099 142.206 69.0099C136.553 69.0099 135.093 72.1119 134.567 75.7939H130.64C131.069 70.1979 134.1 65.6069 142.37 65.6069C149.078 65.6069 153.18 68.6699 153.18 75.8299V94.4999ZM149.346 83.7729C148.108 83.7239 146.233 83.7019 144.065 83.7019C135.547 83.7019 133.367 87.3489 133.367 91.1769C133.367 94.9719 135.586 98.1409 140.114 98.1409C146.883 98.1409 149.346 93.5259 149.346 85.0209V83.7729Z" fill="white"/>
<path d="M162.368 66.2529C166.913 80.7989 170.509 92.7769 171.442 96.9629H171.511C172.08 93.5689 179.056 72.1219 180.903 66.2529H184.924L173.573 101.066H169.021L158.146 66.2529H162.368Z" fill="white"/>
<path d="M190.854 66.253H194.832V101.066H190.854V66.253ZM190.855 50.979H194.833V57.894H190.855V50.979Z" fill="white"/>
</svg>
