<svg width="266" height="332" viewBox="0 0 266 332" fill="none" xmlns="http://www.w3.org/2000/svg">
<path d="M0.451172 90.4338V295.413C0.451172 315.452 16.6901 331.714 36.7291 331.714H229.246C249.309 331.714 265.547 315.452 265.547 295.413V36.7429C265.547 16.7029 249.309 0.440918 229.246 0.440918H90.4672L19.2921 71.5919L0.451172 90.4338Z" fill="white"/>
<path d="M0.451172 90.4338L19.2931 71.5919L90.4681 0.440918H229.247C249.31 0.440918 265.548 16.7029 265.548 36.7429V121.102H0.452148L0.451172 90.4338Z" fill="#50984B"/>
<path d="M0.457031 90.4301L44.885 100.244C64.514 104.301 83.721 91.6581 87.778 72.0291L89.6331 61.843C89.0441 64.684 88.097 67.396 86.856 69.955C80.982 82.073 68.558 90.429 54.188 90.429H0.457031V90.4301Z" fill="#D7D7D7"/>
<g opacity="0.4">
<path d="M0.457031 90.4301H54.187C68.557 90.4301 80.982 82.0751 86.855 69.9561C88.096 67.3961 89.043 64.685 89.632 61.844C90.195 59.362 90.464 56.777 90.464 54.127V0.436035L19.293 71.594L0.457031 90.4301Z" fill="#EFEFEF"/>
</g>
<path d="M89.4452 296.071H87.4161C79.0031 296.071 71.7332 289.789 70.5042 281.46C69.4462 274.285 68.9332 269.46 68.9332 266.708C68.9332 262.53 69.9592 253.069 70.6182 247.432L62.2272 243.213C60.2802 242.234 59.0722 240.273 59.0742 238.094C59.0762 235.916 60.2862 233.957 62.2332 232.982L70.6172 228.765C69.9582 223.13 68.9321 213.671 68.9321 209.489C68.9321 206.739 69.4462 201.913 70.5032 194.737C71.7322 186.407 79.0022 180.126 87.4152 180.126H89.4442V190.616H87.4152C84.1652 190.616 81.3552 193.046 80.8812 196.267C79.6112 204.883 79.4221 208.249 79.4221 209.489C79.4221 213.163 80.5031 223.278 81.4271 230.824C81.7201 233.219 80.4692 235.553 78.3152 236.636L75.4052 238.1L78.3181 239.565C80.4701 240.645 81.7211 242.982 81.4271 245.376C80.5021 252.924 79.4221 263.041 79.4221 266.71C79.4221 267.95 79.6122 271.317 80.8812 279.933C81.3632 283.207 84.1112 285.584 87.4152 285.584H89.4442L89.4452 296.071ZM66.9512 242.35L66.9402 242.356C66.9442 242.354 66.9472 242.352 66.9512 242.35ZM73.6052 227.263C73.6042 227.263 73.6012 227.264 73.6002 227.266L73.6052 227.263Z" fill="#50984B"/>
<path d="M178.58 296.071H176.551V285.582H178.58C181.884 285.582 184.632 283.205 185.113 279.93C186.384 271.311 186.574 267.947 186.574 266.708C186.574 262.723 185.312 251.425 184.567 245.377C184.281 242.973 185.53 240.646 187.673 239.565L190.59 238.098L187.678 236.632C185.531 235.551 184.282 233.225 184.564 230.844C185.312 224.773 186.574 213.477 186.574 209.488C186.574 208.251 186.385 204.887 185.113 196.265C184.632 192.992 181.884 190.615 178.58 190.615H176.551V180.125H178.58C186.993 180.125 194.264 186.406 195.492 194.736C196.55 201.916 197.062 206.741 197.062 209.488C197.062 213.714 196.009 223.37 195.377 228.764L203.769 232.984C205.711 233.96 206.919 235.918 206.921 238.093C206.924 240.269 205.717 242.23 203.775 243.21L195.378 247.431C196.008 252.815 197.063 262.483 197.063 266.707C197.063 269.455 196.55 274.28 195.493 281.459C194.264 289.789 186.993 296.071 178.58 296.071Z" fill="#50984B"/>
<path d="M103.08 246.025C107.458 246.025 111.006 242.476 111.006 238.099C111.006 233.721 107.458 230.173 103.08 230.173C98.7029 230.173 95.1543 233.721 95.1543 238.099C95.1543 242.476 98.7029 246.025 103.08 246.025Z" fill="#50984B"/>
<path d="M132.996 246.025C137.374 246.025 140.922 242.476 140.922 238.099C140.922 233.721 137.374 230.173 132.996 230.173C128.619 230.173 125.07 233.721 125.07 238.099C125.07 242.476 128.619 246.025 132.996 246.025Z" fill="#50984B"/>
<path d="M162.914 246.025C167.292 246.025 170.84 242.476 170.84 238.099C170.84 233.721 167.292 230.173 162.914 230.173C158.537 230.173 154.988 233.721 154.988 238.099C154.988 242.476 158.537 246.025 162.914 246.025Z" fill="#50984B"/>
<path d="M156.166 90.765C155.102 95.608 152.062 101.876 143.745 101.876C134.584 101.876 130.562 94.863 130.562 83.72C130.562 73.981 134.669 65.752 144.083 65.752C152.835 65.752 155.723 72.6 156.127 77.089H152.031C151.477 73.791 149.631 69.2729 144.023 69.2729C137.49 69.2729 134.714 75.362 134.714 83.707C134.714 92.945 137.809 98.3621 143.896 98.3621C149.245 98.3621 151.084 94.308 152.094 90.765H156.166Z" fill="white"/>
<path d="M164.86 91.432C165.464 95.853 168.438 98.457 172.889 98.457C177.979 98.457 179.993 95.468 179.993 92.063C179.993 88.324 177.728 86.413 172.052 84.681C164.417 82.346 162.189 79.524 162.189 74.905C162.189 70.245 165.327 65.752 172.599 65.752C180.31 65.752 183.039 70.448 183.368 75.412H179.411C178.922 72.666 177.687 69.132 172.43 69.132C168.123 69.132 166.253 71.441 166.253 74.656C166.253 77.638 167.498 79.219 173.354 81.01C181.171 83.407 184.07 86.05 184.07 91.774C184.07 97.918 179.651 101.837 172.711 101.837C166.078 101.837 161.356 98.314 160.857 91.432H164.86Z" fill="white"/>
<path d="M192.915 91.432C193.519 95.853 196.493 98.457 200.944 98.457C206.034 98.457 208.048 95.468 208.048 92.063C208.048 88.324 205.783 86.413 200.107 84.681C192.472 82.346 190.244 79.524 190.244 74.905C190.244 70.245 193.382 65.752 200.654 65.752C208.365 65.752 211.094 70.448 211.423 75.412H207.466C206.977 72.666 205.742 69.132 200.485 69.132C196.178 69.132 194.308 71.441 194.308 74.656C194.308 77.638 195.553 79.219 201.409 81.01C209.226 83.407 212.125 86.05 212.125 91.774C212.125 97.918 207.706 101.837 200.766 101.837C194.133 101.837 189.411 98.314 188.912 91.432H192.915Z" fill="white"/>
</svg>
