<svg width="266" height="332" viewBox="0 0 266 332" fill="none" xmlns="http://www.w3.org/2000/svg">
<path d="M0.878906 90.2862V295.265C0.878906 315.304 17.118 331.566 37.157 331.566H229.674C249.737 331.566 265.976 315.304 265.976 295.265V36.5952C265.976 16.5552 249.737 0.294189 229.674 0.294189H90.896L19.7209 71.4452L0.878906 90.2862Z" fill="white"/>
<path d="M0.878906 90.2862L19.7209 71.4452L90.896 0.294189H229.674C249.737 0.294189 265.975 16.5562 265.975 36.5952V120.955H0.878906V90.2862Z" fill="#50984B"/>
<path d="M0.884766 90.2821L45.3127 100.096C64.9417 104.153 84.1488 91.5101 88.2058 71.8811L90.0608 61.6951C89.4718 64.5361 88.5257 67.2481 87.2847 69.8081C81.4107 81.9261 68.9857 90.2821 54.6157 90.2821H0.884766Z" fill="#D7D7D7"/>
<g opacity="0.4">
<path d="M0.884766 90.2821H54.6147C68.9847 90.2821 81.4097 81.9271 87.2837 69.8081C88.5247 67.2481 89.4718 64.5361 90.0598 61.6951C90.6228 59.2131 90.8918 56.6281 90.8918 53.9791V0.287109L19.7197 71.4461L0.884766 90.2821Z" fill="#EFEFEF"/>
</g>
<path d="M220.139 272.664H46.7148V175.588H220.139V272.664ZM57.8528 261.527H209.001V186.725H57.8528V261.527Z" fill="#50984B"/>
<path d="M106.603 181.156H95.4648V267.095H106.603V181.156Z" fill="#50984B"/>
<path d="M214.57 218.557H52.2832V229.695H214.57V218.557Z" fill="#50984B"/>
<path d="M161.781 90.616C160.717 95.459 157.678 101.728 149.361 101.728C140.2 101.728 136.178 94.715 136.178 83.571C136.178 73.832 140.283 65.603 149.698 65.603C158.45 65.603 161.338 72.451 161.742 76.94H157.646C157.092 73.642 155.246 69.123 149.638 69.123C143.105 69.123 140.329 75.213 140.329 83.558C140.329 92.796 143.424 98.213 149.511 98.213C154.86 98.213 156.699 94.159 157.709 90.616H161.781Z" fill="white"/>
<path d="M170.476 91.284C171.08 95.705 174.054 98.309 178.505 98.309C183.595 98.309 185.609 95.32 185.609 91.915C185.609 88.176 183.344 86.265 177.668 84.534C170.033 82.199 167.805 79.376 167.805 74.758C167.805 70.098 170.943 65.604 178.215 65.604C185.926 65.604 188.655 70.301 188.984 75.265H185.027C184.538 72.518 183.303 68.985 178.046 68.985C173.739 68.985 171.869 71.293 171.869 74.509C171.869 77.491 173.114 79.072 178.97 80.863C186.787 83.261 189.686 85.904 189.686 91.627C189.686 97.771 185.267 101.69 178.327 101.69C171.694 101.69 166.972 98.166 166.473 91.284H170.476Z" fill="white"/>
<path d="M197.355 66.2529C201.9 80.7989 205.496 92.7769 206.429 96.9629H206.498C207.067 93.5689 214.042 72.1219 215.889 66.2529H219.91L208.559 101.066H204.007L193.133 66.2529H197.355Z" fill="white"/>
</svg>
