<svg width="266" height="332" viewBox="0 0 266 332" fill="none" xmlns="http://www.w3.org/2000/svg">
<path d="M0.0234375 90.668V295.647C0.0234375 315.687 16.2624 331.948 36.3014 331.948H228.818C248.881 331.948 265.119 315.687 265.119 295.647V36.977C265.119 16.938 248.881 0.676025 228.818 0.676025H90.0394L18.8644 71.827L0.0234375 90.668Z" fill="white"/>
<path d="M0.0234375 90.668L18.8654 71.827L90.0404 0.676025H228.819C248.882 0.676025 265.12 16.938 265.12 36.977V121.337H0.0244141L0.0234375 90.668Z" fill="#6972B1"/>
<path d="M0.0292969 90.6649L44.4573 100.48C64.0863 104.536 83.2932 91.8939 87.3502 72.2649L89.2052 62.0789C88.6162 64.9199 87.6692 67.6329 86.4282 70.1919C80.5542 82.3099 68.1303 90.6659 53.7603 90.6659H0.0292969V90.6649Z" fill="#D7D7D7"/>
<g opacity="0.4">
<path d="M0.0292969 90.6649H53.7593C68.1293 90.6649 80.5542 82.3099 86.4272 70.1909C87.6682 67.6319 88.6152 64.9189 89.2042 62.0779C89.7672 59.5959 90.0363 57.0109 90.0363 54.3619V0.669922L18.8652 71.8289L0.0292969 90.6649Z" fill="#EFEFEF"/>
</g>
<path d="M132.572 258.749C117.91 258.749 105.982 246.821 105.982 232.159C105.982 217.498 117.91 205.57 132.572 205.57C147.233 205.57 159.162 217.498 159.162 232.159C159.162 246.82 147.233 258.749 132.572 258.749ZM132.572 216.707C124.051 216.707 117.12 223.639 117.12 232.159C117.12 240.68 124.052 247.612 132.572 247.612C141.092 247.612 148.024 240.68 148.024 232.159C148.024 223.638 141.093 216.707 132.572 216.707Z" fill="#6972B1"/>
<path d="M145.082 293.164H120.063L116.494 278.473C114.689 277.846 112.918 277.111 111.196 276.274L98.2804 284.141L80.5894 266.45L88.4564 253.534C87.6204 251.811 86.8864 250.041 86.2584 248.237L71.5664 244.669V219.649L86.2584 216.081C86.8854 214.276 87.6194 212.506 88.4564 210.783L80.5894 197.867L98.2804 180.176L111.196 188.043C112.918 187.207 114.688 186.473 116.494 185.846L120.063 171.154H145.082L148.65 185.846C150.456 186.473 152.225 187.207 153.949 188.043L166.864 180.176L184.555 197.867L176.688 210.782C177.525 212.506 178.259 214.275 178.886 216.08L193.577 219.648V244.668L178.886 248.236C178.259 250.041 177.525 251.811 176.688 253.533L184.555 266.449L166.864 284.14L153.949 276.273C152.225 277.11 150.456 277.844 148.65 278.472L145.082 293.164ZM128.819 282.027H136.326L139.349 269.577L142.525 268.716C145.608 267.879 148.587 266.643 151.376 265.044L154.231 263.406L165.178 270.075L170.487 264.766L163.818 253.819L165.455 250.963C167.055 248.174 168.29 245.195 169.127 242.112L169.988 238.936L182.438 235.913V228.406L169.988 225.383L169.127 222.206C168.29 219.123 167.055 216.145 165.455 213.355L163.818 210.5L170.487 199.553L165.178 194.244L154.231 200.913L151.376 199.276C148.589 197.678 145.611 196.443 142.524 195.604L139.349 194.742L136.326 182.293H128.819L125.795 194.742L122.62 195.604C119.533 196.442 116.555 197.678 113.767 199.276L110.912 200.913L99.9653 194.244L94.6564 199.553L101.324 210.5L99.6884 213.355C98.0884 216.146 96.8534 219.125 96.0164 222.208L95.1544 225.384L82.7053 228.407V235.914L95.1544 238.937L96.0164 242.112C96.8534 245.196 98.0894 248.175 99.6884 250.966L101.324 253.821L94.6564 264.768L99.9653 270.077L110.912 263.408L113.767 265.046C116.556 266.645 119.535 267.88 122.618 268.718L125.794 269.579L128.819 282.027Z" fill="#6972B1"/>
<path d="M184.828 51.3608V92.7208C184.828 95.7568 184.834 99.2918 184.943 101.448H181.026C180.948 100.542 180.864 98.1898 180.864 96.0258C179.245 100.078 176.548 102.077 171.026 102.077C162.613 102.077 158.643 94.9478 158.643 83.9448C158.643 73.5718 163.446 65.9888 172.014 65.9888C177.475 65.9888 179.916 68.3428 180.852 70.3978V51.3608H184.828ZM162.802 83.8058C162.802 93.7018 166.515 98.4288 171.853 98.4288C179.241 98.4288 180.942 92.4378 180.942 83.2608C180.942 72.4498 178.149 69.6248 172.254 69.6248C166.549 69.6248 162.802 74.4898 162.802 83.8058Z" fill="white"/>
<path d="M194.918 101.448V51.3608H198.895V101.448H194.918Z" fill="white"/>
<path d="M208.912 101.448V51.3608H212.889V101.448H208.912Z" fill="white"/>
</svg>
