<svg width="266" height="332" viewBox="0 0 266 332" fill="none" xmlns="http://www.w3.org/2000/svg">
<path d="M0.595703 90.2862V295.265C0.595703 315.304 16.8347 331.566 36.8737 331.566H229.391C249.454 331.566 265.692 315.304 265.692 295.265V36.5952C265.692 16.5552 249.454 0.294189 229.391 0.294189H90.6127L19.4377 71.4452L0.595703 90.2862Z" fill="white"/>
<path d="M0.595703 90.2862L19.4377 71.4452L90.6127 0.294189H229.392C249.455 0.294189 265.693 16.5562 265.693 36.5952V120.955H0.595703V90.2862Z" fill="#4F87C2"/>
<path d="M0.601562 90.2821L45.0296 100.096C64.6586 104.153 83.8655 91.5101 87.9225 71.8811L89.7776 61.6951C89.1886 64.5361 88.2415 67.2481 87.0005 69.8081C81.1265 81.9261 68.7026 90.2821 54.3326 90.2821H0.601562Z" fill="#D7D7D7"/>
<g opacity="0.4">
<path d="M0.601562 90.2821H54.3315C68.7015 90.2821 81.1266 81.9271 86.9996 69.8081C88.2406 67.2481 89.1876 64.5361 89.7766 61.6951C90.3396 59.2131 90.6086 56.6281 90.6086 53.9791V0.287109L19.4366 71.4461L0.601562 90.2821Z" fill="#EFEFEF"/>
</g>
<path d="M187.58 192.668H107.074C96.8626 192.668 88.5566 200.975 88.5566 211.186V271.542C88.5566 281.753 96.8626 290.06 107.074 290.06H187.58C197.791 290.06 206.098 281.753 206.098 271.542V211.186C206.098 200.976 197.791 192.668 187.58 192.668ZM107.074 203.806H187.58C191.65 203.806 194.962 207.117 194.962 211.187V263.568L194.649 263.474C193.721 266.565 190.813 268.724 187.58 268.724H107.074C104.158 268.724 101.509 267.002 100.324 264.336L99.6926 264.617V211.187C99.6926 207.117 103.004 203.806 107.074 203.806Z" fill="#4F87C2"/>
<path d="M165.262 178.589L174.378 172.192C170.913 167.252 165.243 164.303 159.214 164.303H78.7084C68.4974 164.303 60.1914 172.61 60.1914 182.821V246.436H71.3275V182.821C71.3275 178.751 74.6384 175.441 78.7084 175.441H159.214C161.618 175.441 163.878 176.618 165.262 178.589Z" fill="#4F87C2"/>
<path d="M143.776 50.979V92.339C143.776 95.375 143.781 98.91 143.89 101.066H139.973C139.895 100.16 139.811 97.808 139.811 95.644C138.192 99.696 135.495 101.695 129.973 101.695C121.56 101.695 117.59 94.566 117.59 83.563C117.59 73.191 122.393 65.607 130.961 65.607C136.422 65.607 138.863 67.961 139.799 70.016V50.979H143.776ZM121.75 83.424C121.75 93.32 125.462 98.047 130.8 98.047C138.188 98.047 139.889 92.056 139.889 82.879C139.889 72.068 137.096 69.243 131.201 69.243C125.496 69.242 121.75 74.107 121.75 83.424Z" fill="white"/>
<path d="M153.802 76.959C153.802 71.077 153.758 67.853 153.688 66.253H157.596C157.701 67.238 157.791 70.007 157.758 71.393C159.197 68.274 161.987 65.606 166.857 65.606C171.067 65.606 173.988 67.3949 175.242 71.5549C176.642 68.3629 179.804 65.606 184.836 65.606C189.516 65.606 194.293 67.9229 194.293 76.7299V101.065H190.339V77.47C190.339 73.05 189.006 69.282 183.904 69.282C178.307 69.282 176.065 74.255 176.065 79.684V101.067H172.146V77.302C172.146 72.505 170.374 69.291 165.867 69.291C160.806 69.291 157.765 73.678 157.765 80.33V101.067H153.802V76.959Z" fill="white"/>
<path d="M228.09 98.8949C228.09 109.057 224.621 115.206 214.77 115.206C205.481 115.206 202.902 109.795 202.482 105.407H206.488C207.09 109.044 209.89 111.725 214.858 111.725C222.468 111.725 224.181 106.479 224.181 98.5729V95.1419C222.592 99.1979 219.616 101.243 214.343 101.243C206.677 101.243 202.039 94.7269 202.039 83.7739C202.039 71.8969 207.665 65.6069 215.171 65.6069C220.411 65.6069 223.231 67.9669 224.085 70.8639C224.066 69.0909 224.238 67.0459 224.316 66.2539H228.206C228.137 67.8949 228.089 71.4769 228.089 76.1489L228.09 98.8949ZM206.208 83.7439C206.208 92.6979 209.582 97.5709 215.158 97.5709C221.992 97.5709 224.269 92.4469 224.269 83.3539C224.269 73.8669 222.208 69.2819 215.551 69.2819C209.498 69.2809 206.208 74.8419 206.208 83.7439Z" fill="white"/>
</svg>
