<svg width="48" height="60" viewBox="0 0 48 60" fill="none" xmlns="http://www.w3.org/2000/svg">
<rect y="19.9999" width="48" height="40" fill="white"/>
<path d="M3.41163 10.8879L0 14.3003L0.000176822 21.9999H48V0.00134277H41.4271H14.299L3.41163 10.8879Z" fill="#4B60C1"/>
<path d="M25.9138 6.63994H27.2218V15.9999H25.9138V6.63994ZM21.3418 13.2399C21.3418 12.6319 21.4658 12.1159 21.7138 11.6919C21.9618 11.2599 22.2898 10.9319 22.6978 10.7079C23.1138 10.4759 23.5578 10.3599 24.0298 10.3599C24.4938 10.3599 24.8978 10.4759 25.2418 10.7079C25.5938 10.9399 25.8698 11.2719 26.0698 11.7039C26.2778 12.1279 26.3818 12.6399 26.3818 13.2399C26.3818 13.8319 26.2778 14.3439 26.0698 14.7759C25.8698 15.2079 25.5938 15.5399 25.2418 15.7719C24.8978 16.0039 24.4938 16.1199 24.0298 16.1199C23.5578 16.1199 23.1138 16.0079 22.6978 15.7839C22.2898 15.5519 21.9618 15.2199 21.7138 14.7879C21.4658 14.3559 21.3418 13.8399 21.3418 13.2399ZM22.6858 13.2399C22.6858 13.6079 22.7618 13.9239 22.9138 14.1879C23.0658 14.4519 23.2658 14.6519 23.5138 14.7879C23.7698 14.9239 24.0458 14.9919 24.3418 14.9919C24.5978 14.9919 24.8458 14.9239 25.0858 14.7879C25.3258 14.6519 25.5218 14.4559 25.6738 14.1999C25.8338 13.9359 25.9138 13.6159 25.9138 13.2399C25.9138 12.8639 25.8338 12.5479 25.6738 12.2919C25.5218 12.0279 25.3258 11.8279 25.0858 11.6919C24.8458 11.5559 24.5978 11.4879 24.3418 11.4879C24.0458 11.4879 23.7698 11.5559 23.5138 11.6919C23.2658 11.8279 23.0658 12.0279 22.9138 12.2919C22.7618 12.5559 22.6858 12.8719 22.6858 13.2399ZM28.6482 13.2399C28.6482 12.6719 28.7762 12.1719 29.0322 11.7399C29.2962 11.3079 29.6522 10.9719 30.1002 10.7319C30.5562 10.4839 31.0642 10.3599 31.6242 10.3599C32.1922 10.3599 32.7002 10.4839 33.1482 10.7319C33.5962 10.9719 33.9482 11.3079 34.2042 11.7399C34.4682 12.1719 34.6002 12.6719 34.6002 13.2399C34.6002 13.7999 34.4682 14.2999 34.2042 14.7399C33.9482 15.1719 33.5962 15.5119 33.1482 15.7599C32.7002 15.9999 32.1922 16.1199 31.6242 16.1199C31.0642 16.1199 30.5562 15.9999 30.1002 15.7599C29.6522 15.5119 29.2962 15.1719 29.0322 14.7399C28.7762 14.2999 28.6482 13.7999 28.6482 13.2399ZM29.9802 13.2399C29.9802 13.5839 30.0522 13.8879 30.1962 14.1519C30.3402 14.4079 30.5362 14.6119 30.7842 14.7639C31.0322 14.9079 31.3122 14.9799 31.6242 14.9799C31.9362 14.9799 32.2162 14.9079 32.4642 14.7639C32.7122 14.6119 32.9082 14.4079 33.0522 14.1519C33.1962 13.8879 33.2682 13.5839 33.2682 13.2399C33.2682 12.8959 33.1962 12.5919 33.0522 12.3279C32.9082 12.0639 32.7122 11.8599 32.4642 11.7159C32.2162 11.5719 31.9362 11.4999 31.6242 11.4999C31.3122 11.4999 31.0322 11.5719 30.7842 11.7159C30.5362 11.8599 30.3402 12.0639 30.1962 12.3279C30.0522 12.5919 29.9802 12.8959 29.9802 13.2399ZM36.9457 13.2399C36.9457 13.5839 37.0217 13.8879 37.1737 14.1519C37.3257 14.4159 37.5297 14.6239 37.7857 14.7759C38.0497 14.9279 38.3417 15.0039 38.6617 15.0039C38.9337 15.0039 39.1857 14.9639 39.4177 14.8839C39.6577 14.7959 39.8697 14.6839 40.0537 14.5479C40.2377 14.4039 40.3737 14.2439 40.4617 14.0679V15.4959C40.2697 15.6879 40.0097 15.8399 39.6817 15.9519C39.3537 16.0639 38.9937 16.1199 38.6017 16.1199C38.0417 16.1199 37.5337 15.9999 37.0777 15.7599C36.6297 15.5119 36.2737 15.1719 36.0097 14.7399C35.7457 14.2999 35.6137 13.7999 35.6137 13.2399C35.6137 12.6719 35.7457 12.1719 36.0097 11.7399C36.2737 11.3079 36.6297 10.9719 37.0777 10.7319C37.5337 10.4839 38.0417 10.3599 38.6017 10.3599C38.9937 10.3599 39.3537 10.4159 39.6817 10.5279C40.0097 10.6399 40.2697 10.7879 40.4617 10.9719V12.4119C40.3737 12.2279 40.2337 12.0679 40.0417 11.9319C39.8577 11.7879 39.6457 11.6759 39.4057 11.5959C39.1657 11.5159 38.9177 11.4759 38.6617 11.4759C38.3417 11.4759 38.0497 11.5519 37.7857 11.7039C37.5297 11.8559 37.3257 12.0639 37.1737 12.3279C37.0217 12.5919 36.9457 12.8959 36.9457 13.2399Z" fill="white"/>
<path opacity="0.4" d="M9.72867 14.2995H0L3.41055 10.888L14.2972 0V14.2995H9.72867Z" fill="#2C3073"/>
<path d="M23.5357 33H12V34.6373H23.5357V33Z" fill="#4B60C1"/>
<path d="M35.9985 33.0001H28.541V34.6373H35.9985V33.0001Z" fill="#4B60C1"/>
<path d="M27.7077 45.3629H12V47H27.7077V45.3629Z" fill="#4B60C1"/>
<path d="M36.0006 39.1815H24.4648V40.8188H36.0006V39.1815Z" fill="#4B60C1"/>
<path d="M19.4574 39.1815H12V40.8187H19.4574V39.1815Z" fill="#4B60C1"/>
</svg>
