<svg width="266" height="332" viewBox="0 0 266 332" fill="none" xmlns="http://www.w3.org/2000/svg">
<path d="M0.167969 90.2862V295.265C0.167969 315.304 16.407 331.566 36.446 331.566H228.963C249.025 331.566 265.264 315.304 265.264 295.265V36.5952C265.264 16.5552 249.025 0.294189 228.963 0.294189H90.185L19.01 71.4452L0.167969 90.2862Z" fill="white"/>
<path d="M0.167969 90.2862L19.01 71.4452L90.185 0.294189H228.964C249.026 0.294189 265.265 16.5562 265.265 36.5952V120.955H0.167969V90.2862Z" fill="#6972B1"/>
<path d="M0.173828 90.2821L44.6018 100.096C64.2308 104.153 83.4378 91.5101 87.4948 71.8811L89.3498 61.6951C88.7608 64.5361 87.8138 67.2481 86.5728 69.8081C80.6988 81.9261 68.2748 90.2821 53.9048 90.2821H0.173828Z" fill="#D7D7D7"/>
<g opacity="0.4">
<path d="M0.173828 90.2821H53.9038C68.2738 90.2821 80.6988 81.9271 86.5718 69.8081C87.8128 67.2481 88.7598 64.5361 89.3488 61.6951C89.9118 59.2131 90.1808 56.6281 90.1808 53.9791V0.287109L19.0088 71.4461L0.173828 90.2821Z" fill="#EFEFEF"/>
</g>
<path d="M129.635 180.712H52.8789V191.85H129.635V180.712Z" fill="#6972B1"/>
<path d="M212.556 180.712H162.936V191.85H212.556V180.712Z" fill="#6972B1"/>
<path d="M157.394 264.814H52.8789V275.951H157.394V264.814Z" fill="#6972B1"/>
<path d="M212.557 222.763H135.801V233.901H212.557V222.763Z" fill="#6972B1"/>
<path d="M102.499 222.763H52.8789V233.901H102.499V222.763Z" fill="#6972B1"/>
<path d="M146.956 50.979V92.339C146.956 95.375 146.961 98.91 147.07 101.066H143.153C143.075 100.16 142.991 97.808 142.991 95.644C141.372 99.696 138.675 101.695 133.153 101.695C124.74 101.695 120.77 94.566 120.77 83.563C120.77 73.191 125.573 65.607 134.141 65.607C139.602 65.607 142.043 67.961 142.979 70.016V50.979H146.956ZM124.93 83.424C124.93 93.32 128.642 98.047 133.98 98.047C141.368 98.047 143.069 92.056 143.069 82.879C143.069 72.068 140.276 69.243 134.381 69.243C128.675 69.242 124.93 74.107 124.93 83.424Z" fill="white"/>
<path d="M181.959 83.1059C181.959 93.8729 177.857 101.659 168.194 101.659C158.801 101.659 154.734 93.7819 154.734 83.2319C154.734 72.9499 159.594 65.6069 168.511 65.6069C177.064 65.6059 181.959 72.3149 181.959 83.1059ZM158.885 83.2669C158.885 92.2849 162.209 98.1189 168.408 98.1189C174.916 98.1189 177.774 92.3619 177.774 83.1249C177.774 74.7119 174.589 69.1509 168.305 69.1509C162.201 69.1499 158.885 74.3719 158.885 83.2669Z" fill="white"/>
<path d="M213.107 90.616C212.043 95.459 209.005 101.728 200.687 101.728C191.526 101.728 187.504 94.715 187.504 83.571C187.504 73.832 191.61 65.603 201.024 65.603C209.776 65.603 212.664 72.451 213.068 76.94H208.972C208.418 73.642 206.571 69.123 200.964 69.123C194.431 69.123 191.655 75.213 191.655 83.558C191.655 92.796 194.749 98.213 200.836 98.213C206.185 98.213 208.025 94.159 209.035 90.616H213.107Z" fill="white"/>
</svg>
