<svg width="266" height="332" viewBox="0 0 266 332" fill="none" xmlns="http://www.w3.org/2000/svg">
<path d="M0.167969 90.668V295.647C0.167969 315.687 16.407 331.948 36.446 331.948H228.963C249.025 331.948 265.264 315.687 265.264 295.647V36.977C265.264 16.938 249.025 0.676025 228.963 0.676025H90.185L19.01 71.827L0.167969 90.668Z" fill="white"/>
<path d="M0.167969 90.668L19.01 71.827L90.185 0.676025H228.964C249.026 0.676025 265.265 16.938 265.265 36.977V121.337H0.167969V90.668Z" fill="#EEB443"/>
<path d="M0.173828 90.6649L44.6018 100.48C64.2308 104.536 83.4378 91.8939 87.4948 72.2649L89.3498 62.0789C88.7608 64.9199 87.8138 67.6329 86.5728 70.1919C80.6988 82.3099 68.2748 90.6659 53.9048 90.6659H0.173828V90.6649Z" fill="#D7D7D7"/>
<g opacity="0.4">
<path d="M0.173828 90.6649H53.9038C68.2738 90.6649 80.6988 82.3099 86.5718 70.1909C87.8128 67.6319 88.7598 64.9189 89.3488 62.0779C89.9118 59.5959 90.1808 57.0109 90.1808 54.3619V0.669922L19.0088 71.8289L0.173828 90.6649Z" fill="#EFEFEF"/>
</g>
<path d="M199.589 265.044H65.8477V272.683H199.589V265.044Z" fill="#EEB443"/>
<path d="M132.719 272.683C91.2017 272.683 57.4176 240.159 55.8066 198.637L63.4397 198.342C64.8917 235.745 95.3207 265.045 132.719 265.045C170.117 265.045 200.547 235.746 201.997 198.342L209.63 198.637C208.02 240.158 174.237 272.683 132.719 272.683Z" fill="#EEB443"/>
<path d="M145.201 258.773H125.02V278.953H145.201V258.773Z" fill="#EEB443"/>
<path d="M146.312 280.067H123.906V257.659H146.312V280.067ZM126.132 277.84H144.086V259.887H126.132V277.84Z" fill="#EEB443"/>
<path d="M69.7142 188.398H49.5332V208.579H69.7142V188.398Z" fill="#EEB443"/>
<path d="M70.8269 209.693H48.4199V187.285H70.8269V209.693ZM50.6459 207.465H68.6019V189.512H50.6459V207.465Z" fill="#EEB443"/>
<path d="M215.901 188.398H195.721V208.579H215.901V188.398Z" fill="#EEB443"/>
<path d="M217.015 209.693H194.609V187.285H217.015V209.693ZM196.834 207.465H214.788V189.512H196.834V207.465Z" fill="#EEB443"/>
<path d="M139.546 84.6198C139.507 92.6888 142.317 98.5758 148.69 98.5758C154.889 98.5758 156.401 93.5338 156.941 91.9218H160.904C160.295 94.5968 157.923 102.113 148.505 102.113C138.073 102.113 135.467 92.9798 135.467 83.9598C135.467 74.5608 139.41 65.9878 148.809 65.9878C158.724 65.9878 161.388 74.1998 161.388 82.1368C161.388 82.3298 161.379 84.2198 161.349 84.6188L139.546 84.6198ZM157.379 81.3378C157.251 74.4088 154.904 69.4948 148.698 69.4948C141.226 69.4948 139.952 77.5368 139.663 81.3378H157.379Z" fill="white"/>
<path d="M172.988 97.0018V115.033H169.016V76.9228C169.016 72.1338 169.022 68.7668 168.908 66.6348H172.825C172.903 67.6358 172.975 70.3628 172.981 72.3538C174.667 68.5558 177.939 65.9878 183.233 65.9878C190.569 65.9878 195.175 72.1218 195.175 83.4658C195.175 95.4028 189.676 102.035 182.039 102.035C177.049 102.036 174.374 99.7968 172.988 97.0018ZM191.024 83.6568C191.024 74.8298 187.954 69.6248 182.157 69.6248C174.949 69.6248 172.815 75.3588 172.815 84.1198C172.815 92.3398 174.069 98.4118 181.75 98.4118C187.593 98.4118 191.024 92.8208 191.024 83.6568Z" fill="white"/>
<path d="M204.125 91.6658C204.729 96.0868 207.703 98.6908 212.155 98.6908C217.245 98.6908 219.258 95.7018 219.258 92.2968C219.258 88.5578 216.993 86.6468 211.317 84.9158C203.682 82.5808 201.454 79.7588 201.454 75.1398C201.454 70.4798 204.592 65.9858 211.864 65.9858C219.576 65.9858 222.305 70.6828 222.633 75.6468H218.676C218.187 72.8998 216.952 69.3668 211.695 69.3668C207.388 69.3668 205.518 71.6748 205.518 74.8908C205.518 77.8728 206.764 79.4538 212.619 81.2448C220.436 83.6428 223.335 86.2858 223.335 92.0088C223.335 98.1528 218.917 102.072 211.976 102.072C205.343 102.072 200.62 98.5478 200.121 91.6658H204.125Z" fill="white"/>
</svg>
