<svg width="266" height="332" viewBox="0 0 266 332" fill="none" xmlns="http://www.w3.org/2000/svg">
<path d="M0.734375 90.4338V295.413C0.734375 315.452 16.9732 331.714 37.0122 331.714H229.529C249.592 331.714 265.831 315.452 265.831 295.413V36.7429C265.831 16.7029 249.592 0.440918 229.529 0.440918H90.7512L19.5762 71.5919L0.734375 90.4338Z" fill="white"/>
<path d="M0.734375 90.4338L19.5762 71.5919L90.7512 0.440918H229.529C249.592 0.440918 265.831 16.7029 265.831 36.7429V121.102H0.734375V90.4338Z" fill="#4F87C2"/>
<path d="M0.738281 90.4301L45.1663 100.244C64.7953 104.301 84.0023 91.6581 88.0593 72.0291L89.9143 61.843C89.3263 64.684 88.3792 67.396 87.1382 69.955C81.2642 82.073 68.8392 90.429 54.4692 90.429H0.738281V90.4301Z" fill="#D7D7D7"/>
<g opacity="0.4">
<path d="M0.738281 90.4301H54.4683C68.8383 90.4301 81.2632 82.0751 87.1372 69.9561C88.3782 67.3961 89.3253 64.685 89.9133 61.844C90.4763 59.362 90.7454 56.777 90.7454 54.127V0.436035L19.5732 71.594L0.738281 90.4301Z" fill="#EFEFEF"/>
</g>
<path d="M187.718 192.816H107.212C97.0014 192.816 88.6934 201.123 88.6934 211.334V271.689C88.6934 281.9 97.0014 290.208 107.212 290.208H187.718C197.929 290.208 206.235 281.9 206.235 271.689V211.334C206.234 201.123 197.929 192.816 187.718 192.816ZM107.212 203.953H187.718C191.788 203.953 195.099 207.264 195.099 211.334V263.714L194.788 263.621C193.857 266.712 190.951 268.871 187.718 268.871H107.212C104.297 268.871 101.647 267.148 100.462 264.482L99.8293 264.763V211.333C99.8293 207.264 103.142 203.953 107.212 203.953Z" fill="#4F87C2"/>
<path d="M165.402 178.737L174.517 172.34C171.051 167.4 165.382 164.451 159.353 164.451H78.8469C68.6359 164.451 60.3281 172.758 60.3281 182.969V246.584H71.4651V182.969C71.4651 178.9 74.7769 175.588 78.8469 175.588H159.353C161.757 175.588 164.018 176.766 165.402 178.737Z" fill="#4F87C2"/>
<path d="M137.289 84.3859C137.25 92.4539 140.06 98.3419 146.433 98.3419C152.632 98.3419 154.145 93.3009 154.684 91.6879H158.647C158.038 94.3639 155.666 101.88 146.249 101.88C135.816 101.88 133.211 92.7459 133.211 83.7269C133.211 74.3279 137.153 65.7549 146.553 65.7549C156.467 65.7549 159.131 73.9658 159.131 81.9028C159.131 82.0958 159.122 83.9869 159.092 84.3849L137.289 84.3859ZM155.121 81.1039C154.993 74.1749 152.645 69.2609 146.44 69.2609C138.968 69.2609 137.694 77.3029 137.406 81.1039H155.121Z" fill="white"/>
<path d="M166.966 66.4009C171.693 74.6779 174.013 78.4189 175.087 80.4219H175.156C176.486 78.0689 179.518 73.1559 183.588 66.4009H187.985L177.37 83.1619L188.134 101.214H183.492C179.348 93.9119 176.278 88.9218 175.002 86.5958H174.933C173.872 88.5998 170.831 93.8429 166.451 101.214H162L172.654 83.7499L162.391 66.4009H166.966Z" fill="white"/>
<path d="M194.646 84.3859C194.607 92.4539 197.417 98.3419 203.79 98.3419C209.989 98.3419 211.502 93.3009 212.041 91.6879H216.004C215.395 94.3639 213.023 101.88 203.606 101.88C193.173 101.88 190.568 92.7459 190.568 83.7269C190.568 74.3279 194.51 65.7549 203.91 65.7549C213.824 65.7549 216.488 73.9658 216.488 81.9028C216.488 82.0958 216.479 83.9869 216.449 84.3849L194.646 84.3859ZM212.478 81.1039C212.349 74.1749 210.002 69.2609 203.797 69.2609C196.325 69.2609 195.051 77.3029 194.763 81.1039H212.478Z" fill="white"/>
</svg>
