<svg width="266" height="332" viewBox="0 0 266 332" fill="none" xmlns="http://www.w3.org/2000/svg">
<path d="M0.734375 90.668V295.647C0.734375 315.687 16.9732 331.948 37.0122 331.948H229.529C249.592 331.948 265.831 315.687 265.831 295.647V36.977C265.831 16.938 249.592 0.676025 229.529 0.676025H90.7512L19.5762 71.827L0.734375 90.668Z" fill="white"/>
<path d="M0.734375 90.668L19.5762 71.827L90.7512 0.676025H229.529C249.592 0.676025 265.831 16.938 265.831 36.977V121.337H0.734375V90.668Z" fill="#DB676A"/>
<path d="M0.738281 90.6649L45.1663 100.48C64.7953 104.536 84.0023 91.8939 88.0593 72.2649L89.9143 62.0789C89.3263 64.9199 88.3792 67.6329 87.1382 70.1919C81.2642 82.3099 68.8392 90.6659 54.4692 90.6659H0.738281V90.6649Z" fill="#D7D7D7"/>
<g opacity="0.4">
<path d="M0.738281 90.6649H54.4683C68.8383 90.6649 81.2632 82.3099 87.1372 70.1909C88.3782 67.6319 89.3253 64.9189 89.9133 62.0779C90.4763 59.5959 90.7454 57.0109 90.7454 54.3619V0.669922L19.5732 71.8289L0.738281 90.6649Z" fill="#EFEFEF"/>
</g>
<path d="M118.093 101.448V70.1249H112.777V66.6349H118.093V61.572C118.093 56.068 119.706 50.8469 126.511 50.8469C127.405 50.8469 128.618 50.9609 129.382 51.2529V54.8809C128.714 54.7029 127.748 54.5519 126.555 54.5519C123.325 54.5519 122.065 56.6879 122.065 61.2159V66.6359H128.503V70.1259H122.065V101.449L118.093 101.448Z" fill="white"/>
<path d="M134.059 101.448V51.3608H138.037V101.448H134.059Z" fill="white"/>
<path d="M169.471 94.8818C169.471 97.2938 169.709 100.133 169.921 101.448H166.192C165.982 100.333 165.756 98.4638 165.752 96.1238C164.476 99.6808 161.153 102.072 155.757 102.072C147.933 102.072 145.549 96.4308 145.549 91.7468C145.549 86.5178 148.893 80.8168 160.331 80.8168C162.616 80.8168 164.067 80.8168 165.539 80.8628V76.6608C165.539 73.3248 164.695 69.3908 158.497 69.3908C152.844 69.3908 151.384 72.4928 150.858 76.1748H146.931C147.36 70.5788 150.391 65.9878 158.661 65.9878C165.369 65.9878 169.471 69.0508 169.471 76.2108V94.8818ZM165.637 84.1558C164.399 84.1068 162.524 84.0848 160.356 84.0848C151.838 84.0848 149.658 87.7318 149.658 91.5598C149.658 95.3548 151.877 98.5238 156.405 98.5238C163.174 98.5238 165.637 93.9088 165.637 85.4038V84.1558Z" fill="white"/>
<path d="M202.867 90.9988C201.803 95.8418 198.764 102.111 190.447 102.111C181.286 102.111 177.264 95.0978 177.264 83.9538C177.264 74.2148 181.369 65.9858 190.784 65.9858C199.536 65.9858 202.424 72.8338 202.828 77.3228H198.732C198.178 74.0248 196.332 69.5058 190.724 69.5058C184.191 69.5058 181.415 75.5958 181.415 83.9408C181.415 93.1788 184.51 98.5958 190.597 98.5958C195.946 98.5958 197.785 94.5418 198.795 90.9988H202.867Z" fill="white"/>
<path d="M104.192 271.829C110.733 271.829 116.036 266.526 116.036 259.985C116.036 253.443 110.733 248.141 104.192 248.141C97.6504 248.141 92.3477 253.443 92.3477 259.985C92.3477 266.526 97.6504 271.829 104.192 271.829Z" fill="#DB676A"/>
<path d="M104.192 274.69C96.0844 274.69 89.4883 268.094 89.4883 259.985C89.4883 251.877 96.0844 245.28 104.192 245.28C112.299 245.28 118.896 251.877 118.896 259.985C118.896 268.094 112.3 274.69 104.192 274.69ZM104.192 251.002C99.2394 251.002 95.2083 255.032 95.2083 259.985C95.2083 264.938 99.2394 268.968 104.192 268.968C109.146 268.968 113.176 264.938 113.176 259.985C113.176 255.032 109.146 251.002 104.192 251.002Z" fill="#DB676A"/>
<path d="M162.321 259.324C168.862 259.324 174.165 254.021 174.165 247.48C174.165 240.938 168.862 235.636 162.321 235.636C155.779 235.636 150.477 240.938 150.477 247.48C150.477 254.021 155.779 259.324 162.321 259.324Z" fill="#DB676A"/>
<path d="M162.321 262.185C154.213 262.185 147.617 255.588 147.617 247.48C147.617 239.372 154.213 232.775 162.321 232.775C170.428 232.775 177.025 239.372 177.025 247.48C177.025 255.588 170.429 262.185 162.321 262.185ZM162.321 238.497C157.368 238.497 153.337 242.527 153.337 247.48C153.337 252.433 157.368 256.463 162.321 256.463C167.275 256.463 171.304 252.433 171.304 247.48C171.305 242.526 167.275 238.497 162.321 238.497Z" fill="#DB676A"/>
<path d="M118.947 259.985H109.471V185.012L177.078 175.799V247.48H167.601V186.655L118.947 193.285V259.985Z" fill="#DB676A"/>
</svg>
