<svg width="266" height="332" viewBox="0 0 266 332" fill="none" xmlns="http://www.w3.org/2000/svg">
<path d="M0.595703 90.668V295.647C0.595703 315.687 16.8347 331.948 36.8737 331.948H229.391C249.454 331.948 265.692 315.687 265.692 295.647V36.977C265.692 16.938 249.454 0.676025 229.391 0.676025H90.6127L19.4377 71.827L0.595703 90.668Z" fill="white"/>
<path d="M0.595703 90.668L19.4377 71.827L90.6127 0.676025H229.392C249.455 0.676025 265.693 16.938 265.693 36.977V121.337H0.595703V90.668Z" fill="#5FB1E2"/>
<path d="M0.601562 90.6649L45.0296 100.48C64.6586 104.536 83.8655 91.8939 87.9225 72.2649L89.7776 62.0789C89.1886 64.9199 88.2415 67.6329 87.0005 70.1919C81.1265 82.3099 68.7026 90.6659 54.3326 90.6659H0.601562V90.6649Z" fill="#D7D7D7"/>
<g opacity="0.4">
<path d="M0.601562 90.6649H54.3315C68.7015 90.6649 81.1266 82.3099 86.9996 70.1909C88.2406 67.6319 89.1876 64.9189 89.7766 62.0779C90.3396 59.5959 90.6086 57.0109 90.6086 54.3619V0.669922L19.4366 71.8289L0.601562 90.6649Z" fill="#EFEFEF"/>
</g>
<path d="M197.493 284.847H68.7939C60.7769 284.847 54.2539 278.325 54.2539 270.308V190.932C54.2539 182.916 60.7759 176.394 68.7939 176.394H197.493C205.51 176.394 212.032 182.916 212.032 190.932V270.308C212.032 278.325 205.51 284.847 197.493 284.847ZM68.7939 187.531C66.9189 187.531 65.3919 189.056 65.3919 190.932V270.308C65.3919 272.183 66.9179 273.709 68.7939 273.709H197.493C199.368 273.709 200.894 272.184 200.894 270.308V190.932C200.894 189.057 199.368 187.531 197.493 187.531H68.7939Z" fill="#5FB1E2"/>
<path d="M100.88 281.26L93.0039 273.384L153.05 213.338C158.437 207.953 167.151 207.656 172.889 212.664L208.148 243.429L200.826 251.822L165.567 221.057C164.224 219.884 162.186 219.954 160.926 221.215L100.88 281.26Z" fill="#5FB1E2"/>
<path d="M65.4044 275.263L56.7754 268.221L78.1414 242.039C80.7014 238.903 84.4864 236.964 88.5274 236.719C92.5644 236.47 96.5604 237.943 99.4784 240.747L116.756 257.348L109.04 265.379L91.7614 248.778C90.8264 247.88 89.7584 247.801 89.1994 247.835C88.6434 247.869 87.5894 248.075 86.7694 249.08L65.4044 275.263Z" fill="#5FB1E2"/>
<path d="M115.238 211.35C115.238 216.973 110.67 221.54 105.048 221.54C99.441 221.54 94.873 216.972 94.873 211.35C94.873 205.728 99.441 201.16 105.048 201.16C110.67 201.16 115.238 205.728 115.238 211.35Z" fill="#5FB1E2"/>
<path d="M161.997 99.277C161.997 109.439 158.528 115.588 148.677 115.588C139.388 115.588 136.809 110.177 136.389 105.789H140.395C140.997 109.426 143.797 112.107 148.765 112.107C156.375 112.107 158.088 106.861 158.088 98.955V95.524C156.5 99.58 153.523 101.625 148.251 101.625C140.585 101.625 135.947 95.109 135.947 84.156C135.947 72.279 141.573 65.989 149.079 65.989C154.319 65.989 157.139 68.349 157.993 71.246C157.974 69.473 158.146 67.428 158.224 66.636H162.114C162.045 68.277 161.997 71.859 161.997 76.531V99.277ZM140.115 84.126C140.115 93.08 143.489 97.953 149.065 97.953C155.899 97.953 158.176 92.829 158.176 83.736C158.176 74.249 156.115 69.664 149.458 69.664C143.405 69.664 140.115 75.224 140.115 84.126Z" fill="white"/>
<path d="M172.012 66.6358H175.989V101.449H172.012V66.6358ZM172.016 51.3608H175.993V58.2758H172.016V51.3608Z" fill="white"/>
<path d="M186.941 101.448V70.1249H181.625V66.6349H186.941V61.572C186.941 56.068 188.554 50.8469 195.359 50.8469C196.253 50.8469 197.466 50.9609 198.23 51.2529V54.8809C197.562 54.7029 196.596 54.5519 195.403 54.5519C192.173 54.5519 190.912 56.6879 190.912 61.2159V66.6359H197.351V70.1259H190.912V101.449L186.941 101.448Z" fill="white"/>
</svg>
