<svg width="266" height="332" viewBox="0 0 266 332" fill="none" xmlns="http://www.w3.org/2000/svg">
<path d="M0.595703 90.0511V295.03C0.595703 315.069 16.8347 331.331 36.8737 331.331H229.391C249.454 331.331 265.692 315.069 265.692 295.03V36.3601C265.692 16.3211 249.454 0.0581055 229.391 0.0581055H90.6127L19.4377 71.2091L0.595703 90.0511Z" fill="white"/>
<path d="M0.595703 90.0511L19.4377 71.2091L90.6127 0.0581055H229.392C249.455 0.0581055 265.693 16.3211 265.693 36.3601V120.72H0.595703V90.0511Z" fill="#50984B"/>
<path d="M0.601562 90.047L45.0296 99.8621C64.6586 103.918 83.8655 91.275 87.9225 71.646L89.7776 61.46C89.1886 64.301 88.2415 67.013 87.0005 69.572C81.1265 81.69 68.7026 90.046 54.3326 90.046L0.601562 90.047Z" fill="#D7D7D7"/>
<g opacity="0.4">
<path d="M0.601562 90.047H54.3315C68.7015 90.047 81.1266 81.692 86.9996 69.573C88.2406 67.013 89.1876 64.3021 89.7766 61.4611C90.3396 58.9791 90.6086 56.394 90.6086 53.745V0.0529785L19.4366 71.2111L0.601562 90.047Z" fill="#EFEFEF"/>
</g>
<path d="M90.9177 270.955L57.6797 237.716L90.9177 204.477L98.7947 212.353L73.4307 237.716L98.7947 263.079L90.9177 270.955Z" fill="#50984B"/>
<path d="M175.37 270.955L167.494 263.079L192.858 237.716L167.494 212.353L175.37 204.477L208.609 237.716L175.37 270.955Z" fill="#50984B"/>
<path d="M155.754 195.579L145.393 191.498L110.614 279.788L120.975 283.87L155.754 195.579Z" fill="#50984B"/>
<path d="M128.696 50.7441V71.1301C130.232 67.7241 133.596 65.3691 138.63 65.3691C143.272 65.3691 148.813 67.8852 148.813 77.1342V100.831H144.825V77.9231C144.825 72.3921 142.681 69.0521 137.522 69.0521C131.689 69.0521 128.696 73.2651 128.696 80.5121V100.831H124.697V50.7441H128.696Z" fill="white"/>
<path d="M153.705 66.019H159.3V55.916H163.25V66.019H170.274V69.5081H163.25V93.392C163.25 96.325 163.972 97.772 166.879 97.772C167.828 97.772 169.085 97.6721 169.746 97.5341V100.752C168.63 101.176 166.95 101.306 165.776 101.306C161.773 101.306 159.3 99.7531 159.3 94.4041V69.509H153.705V66.019Z" fill="white"/>
<path d="M175.805 76.725C175.805 70.843 175.76 67.619 175.691 66.019H179.6C179.705 67.003 179.795 69.773 179.762 71.16C181.201 68.041 183.991 65.373 188.861 65.373C193.071 65.373 195.991 67.162 197.245 71.321C198.645 68.129 201.807 65.373 206.839 65.373C211.519 65.373 216.296 67.689 216.296 76.496V100.832H212.342V77.235C212.342 72.815 211.009 69.047 205.907 69.047C200.31 69.047 198.068 74.02 198.068 79.448V100.831H194.15V77.066C194.15 72.268 192.377 69.0551 187.87 69.0551C182.809 69.0551 179.768 73.442 179.768 80.093V100.83H175.806L175.805 76.725Z" fill="white"/>
<path d="M226.303 100.831V50.7441H230.28V100.831H226.303Z" fill="white"/>
</svg>
