<svg width="266" height="332" viewBox="0 0 266 332" fill="none" xmlns="http://www.w3.org/2000/svg">
<path d="M0.451172 90.2862V295.265C0.451172 315.304 16.6901 331.566 36.7291 331.566H229.246C249.309 331.566 265.547 315.304 265.547 295.265V36.5952C265.547 16.5552 249.309 0.294189 229.246 0.294189H90.4672L19.2921 71.4452L0.451172 90.2862Z" fill="white"/>
<path d="M0.451172 90.2862L19.2931 71.4452L90.4681 0.294189H229.247C249.31 0.294189 265.548 16.5562 265.548 36.5952V120.955H0.452148L0.451172 90.2862Z" fill="#5FB1E2"/>
<path d="M0.457031 90.2821L44.885 100.096C64.514 104.153 83.721 91.5101 87.778 71.8811L89.6331 61.6951C89.0441 64.5361 88.097 67.2481 86.856 69.8081C80.982 81.9261 68.558 90.2821 54.188 90.2821H0.457031Z" fill="#D7D7D7"/>
<g opacity="0.4">
<path d="M0.457031 90.2821H54.187C68.557 90.2821 80.982 81.9271 86.855 69.8081C88.096 67.2481 89.043 64.5361 89.632 61.6951C90.195 59.2131 90.464 56.6281 90.464 53.9791V0.287109L19.293 71.4461L0.457031 90.2821Z" fill="#EFEFEF"/>
</g>
<path d="M197.348 284.464H68.6484C60.6324 284.464 54.1094 277.942 54.1094 269.926V190.55C54.1094 182.534 60.6314 176.011 68.6484 176.011H197.348C205.365 176.011 211.887 182.533 211.887 190.55V269.926C211.887 277.942 205.364 284.464 197.348 284.464ZM68.6484 187.149C66.7734 187.149 65.2474 188.674 65.2474 190.55V269.926C65.2474 271.801 66.7724 273.327 68.6484 273.327H197.348C199.224 273.327 200.749 271.802 200.749 269.926V190.55C200.749 188.675 199.224 187.149 197.348 187.149H68.6484Z" fill="#5FB1E2"/>
<path d="M100.735 280.877L92.8594 273.001L152.904 212.955C158.292 207.57 167.005 207.274 172.744 212.281L208.004 243.046L200.682 251.438L165.422 220.673C164.078 219.5 162.04 219.57 160.781 220.831L100.735 280.877Z" fill="#5FB1E2"/>
<path d="M65.2589 274.88L56.6289 267.838L77.996 241.656C80.555 238.52 84.341 236.581 88.382 236.337C92.425 236.087 96.4149 237.561 99.3329 240.365L116.612 256.966L108.895 264.997L91.616 248.396C90.681 247.498 89.613 247.419 89.054 247.453C88.498 247.486 87.4429 247.693 86.6239 248.698L65.2589 274.88Z" fill="#5FB1E2"/>
<path d="M115.095 210.967C115.095 216.589 110.527 221.157 104.905 221.157C99.2994 221.157 94.7305 216.589 94.7305 210.967C94.7305 205.345 99.2984 200.777 104.905 200.777C110.527 200.777 115.095 205.345 115.095 210.967Z" fill="#5FB1E2"/>
<path d="M143.948 66.253V103.041C143.948 109.853 143.178 115.199 136.184 115.199C135.496 115.199 134.796 115.133 134.299 115.052V111.435C134.88 111.504 135.695 111.504 136.044 111.504C139.644 111.465 139.97 108.673 139.97 104.181V66.253H143.948ZM140.014 57.894V50.979H144.031V57.894H140.014Z" fill="white"/>
<path d="M157.963 96.6199V114.651H153.991V76.541C153.991 71.752 153.997 68.385 153.883 66.253H157.801C157.879 67.254 157.951 69.981 157.956 71.972C159.643 68.174 162.915 65.606 168.208 65.606C175.545 65.606 180.15 71.74 180.15 83.084C180.15 95.022 174.652 101.653 167.014 101.653C162.023 101.653 159.349 99.4149 157.963 96.6199ZM175.999 83.274C175.999 74.447 172.929 69.242 167.132 69.242C159.924 69.242 157.79 74.976 157.79 83.737C157.79 91.957 159.044 98.029 166.725 98.029C172.568 98.029 175.999 92.438 175.999 83.274Z" fill="white"/>
<path d="M211.865 98.8949C211.865 109.057 208.396 115.206 198.545 115.206C189.257 115.206 186.678 109.795 186.258 105.407H190.264C190.866 109.044 193.666 111.725 198.633 111.725C206.243 111.725 207.956 106.479 207.956 98.5729V95.1419C206.367 99.1979 203.391 101.243 198.119 101.243C190.453 101.243 185.814 94.7269 185.814 83.7739C185.814 71.8969 191.441 65.6069 198.947 65.6069C204.187 65.6069 207.007 67.9669 207.86 70.8639C207.841 69.0909 208.014 67.0459 208.092 66.2539H211.982C211.913 67.8949 211.865 71.4769 211.865 76.1489V98.8949ZM189.984 83.7439C189.984 92.6979 193.356 97.5709 198.932 97.5709C205.767 97.5709 208.045 92.4469 208.045 83.3539C208.045 73.8669 205.983 69.2819 199.326 69.2819C193.273 69.2809 189.984 74.8419 189.984 83.7439Z" fill="white"/>
</svg>
