<svg width="266" height="332" viewBox="0 0 266 332" fill="none" xmlns="http://www.w3.org/2000/svg">
<path d="M0.0234375 90.2862V295.265C0.0234375 315.304 16.2624 331.566 36.3014 331.566H228.818C248.881 331.566 265.119 315.304 265.119 295.265V36.5952C265.119 16.5552 248.881 0.294189 228.818 0.294189H90.0394L18.8644 71.4452L0.0234375 90.2862Z" fill="white"/>
<path d="M0.0234375 90.2862L18.8654 71.4452L90.0404 0.294189H228.819C248.882 0.294189 265.12 16.5562 265.12 36.5952V120.955H0.0244141L0.0234375 90.2862Z" fill="#DB676A"/>
<path d="M0.0292969 90.2821L44.4573 100.096C64.0863 104.153 83.2932 91.5101 87.3502 71.8811L89.2052 61.6951C88.6162 64.5361 87.6692 67.2481 86.4282 69.8081C80.5542 81.9261 68.1303 90.2821 53.7603 90.2821H0.0292969Z" fill="#D7D7D7"/>
<g opacity="0.4">
<path d="M0.0292969 90.2821H53.7593C68.1293 90.2821 80.5542 81.9271 86.4272 69.8081C87.6682 67.2481 88.6152 64.5361 89.2042 61.6951C89.7672 59.2131 90.0363 56.6281 90.0363 53.9791V0.287109L18.8652 71.4461L0.0292969 90.2821Z" fill="#EFEFEF"/>
</g>
<path d="M132.572 283.239C100.213 283.239 73.8887 256.298 73.8887 223.183C73.8887 190.068 100.213 163.127 132.572 163.127C164.931 163.127 191.255 190.068 191.255 223.183C191.255 256.298 164.932 283.239 132.572 283.239ZM132.572 174.265C106.355 174.265 85.0247 196.209 85.0247 223.183C85.0247 250.157 106.356 272.101 132.572 272.101C158.788 272.101 180.119 250.157 180.119 223.183C180.12 196.209 158.789 174.265 132.572 174.265Z" fill="#DB676A"/>
<path d="M153.519 217.134L125.735 200.679C121.048 197.903 115.121 201.281 115.121 206.728V239.638C115.121 245.085 121.048 248.463 125.735 245.688L153.519 229.232C158.116 226.51 158.116 219.857 153.519 217.134Z" fill="#DB676A"/>
<path d="M97.7605 76.9592C97.7605 71.0772 97.7165 67.8532 97.6465 66.2532H101.556C101.661 67.2382 101.751 70.0072 101.718 71.3932C103.157 68.2742 105.947 65.6062 110.817 65.6062C115.027 65.6062 117.947 67.3952 119.201 71.5552C120.601 68.3632 123.763 65.6062 128.795 65.6062C133.475 65.6062 138.252 67.9232 138.252 76.7302V101.065H134.297V77.4702C134.297 73.0502 132.965 69.2822 127.863 69.2822C122.266 69.2822 120.024 74.2552 120.024 79.6842V101.067H116.106V77.3022C116.106 72.5052 114.333 69.2912 109.826 69.2912C104.765 69.2912 101.724 73.6782 101.724 80.3302V101.067H97.7605V76.9592Z" fill="white"/>
<path d="M173.241 83.1062C173.241 93.8732 169.139 101.659 159.476 101.659C150.083 101.659 146.016 93.7822 146.016 83.2322C146.016 72.9502 150.876 65.6072 159.793 65.6072C168.346 65.6062 173.241 72.3152 173.241 83.1062ZM150.166 83.2672C150.166 92.2852 153.49 98.1192 159.689 98.1192C166.197 98.1192 169.055 92.3622 169.055 83.1252C169.055 74.7122 165.87 69.1512 159.586 69.1512C153.482 69.1502 150.166 74.3722 150.166 83.2672Z" fill="white"/>
<path d="M181.689 66.2532C185.935 82.7602 188.314 92.0442 189.153 96.8492H189.231C190.067 92.5702 191.733 86.8192 197.189 66.2532H201.292C206.551 86.5992 208.223 92.8572 208.805 96.6082H208.874C209.587 92.6802 211.65 85.1452 216.672 66.2532H220.817L210.9 101.066H206.505C203.437 89.2792 200.106 76.6982 199.091 71.1982H199.022C198.159 76.4692 195.019 87.6712 191.317 101.066H186.713L177.41 66.2532H181.689Z" fill="white"/>
</svg>
