<svg width="266" height="332" viewBox="0 0 266 332" fill="none" xmlns="http://www.w3.org/2000/svg">
<path d="M0.167969 90.0511V295.03C0.167969 315.069 16.407 331.331 36.446 331.331H228.963C249.025 331.331 265.264 315.069 265.264 295.03V36.3601C265.264 16.3211 249.025 0.0581055 228.963 0.0581055H90.185L19.01 71.2091L0.167969 90.0511Z" fill="white"/>
<path d="M0.167969 90.0511L19.01 71.2091L90.185 0.0581055H228.964C249.026 0.0581055 265.265 16.3211 265.265 36.3601V120.72H0.167969V90.0511Z" fill="#DB676A"/>
<path d="M0.173828 90.047L44.6018 99.8621C64.2308 103.918 83.4378 91.275 87.4948 71.646L89.3498 61.46C88.7608 64.301 87.8138 67.013 86.5728 69.572C80.6988 81.69 68.2748 90.046 53.9048 90.046L0.173828 90.047Z" fill="#D7D7D7"/>
<g opacity="0.4">
<path d="M0.173828 90.047H53.9038C68.2738 90.047 80.6988 81.692 86.5718 69.573C87.8128 67.013 88.7598 64.3021 89.3488 61.4611C89.9118 58.9791 90.1808 56.394 90.1808 53.745V0.0529785L19.0088 71.2111L0.173828 90.047Z" fill="#EFEFEF"/>
</g>
<path d="M103.509 76.725C103.509 70.843 103.465 67.619 103.395 66.019H107.304C107.409 67.003 107.499 69.773 107.466 71.16C108.905 68.041 111.695 65.373 116.565 65.373C120.775 65.373 123.695 67.162 124.949 71.321C126.349 68.129 129.511 65.373 134.543 65.373C139.223 65.373 144 67.689 144 76.496V100.832H140.046V77.235C140.046 72.815 138.713 69.047 133.611 69.047C128.014 69.047 125.772 74.02 125.772 79.448V100.831H121.854V77.066C121.854 72.268 120.081 69.0551 115.574 69.0551C110.513 69.0551 107.472 73.442 107.472 80.093V100.83H103.509V76.725Z" fill="white"/>
<path d="M157.978 96.386V114.417H154.006V76.306C154.006 71.518 154.012 68.151 153.898 66.019H157.815C157.893 67.021 157.965 69.747 157.971 71.738C159.657 67.94 162.929 65.373 168.223 65.373C175.559 65.373 180.165 71.506 180.165 82.851C180.165 94.788 174.666 101.42 167.029 101.42C162.039 101.419 159.363 99.181 157.978 96.386ZM176.014 83.0389C176.014 74.2129 172.944 69.0081 167.147 69.0081C159.939 69.0081 157.805 74.741 157.805 83.502C157.805 91.722 159.059 97.7939 166.74 97.7939C172.583 97.7939 176.014 92.2029 176.014 83.0389Z" fill="white"/>
<path d="M186.308 65.5621C186.888 60.0541 190.081 53.9541 198.587 53.9541C206.626 53.9541 210.155 59.0971 210.155 65.4661C210.155 71.2081 207.008 74.2751 204.126 75.3641V75.4811C208.415 76.9061 211.892 80.4822 211.892 87.2852C211.892 94.4062 208.282 101.461 198.232 101.461C189.065 101.461 185.671 95.2852 185.207 89.4152H189.124C189.845 93.8382 192.491 97.9501 198.413 97.9501C205.836 97.9501 207.7 92.3261 207.7 87.4601C207.7 79.5791 203.045 77.4061 197.308 77.4061H194.72V74.0051H197.297C202.829 74.0051 206.086 71.5571 206.086 65.5381C206.086 60.5251 203.351 57.4181 198.411 57.4181C192.864 57.4181 190.801 61.4521 190.055 65.5631L186.308 65.5621Z" fill="white"/>
<path d="M103.625 271.212C110.167 271.212 115.469 265.909 115.469 259.368C115.469 252.827 110.167 247.524 103.625 247.524C97.084 247.524 91.7812 252.827 91.7812 259.368C91.7812 265.909 97.084 271.212 103.625 271.212Z" fill="#DB676A"/>
<path d="M103.625 274.072C95.5179 274.072 88.9219 267.476 88.9219 259.368C88.9219 251.26 95.5179 244.663 103.625 244.663C111.734 244.663 118.33 251.26 118.33 259.368C118.33 267.476 111.734 274.072 103.625 274.072ZM103.625 250.385C98.6719 250.385 94.6419 254.414 94.6419 259.368C94.6419 264.321 98.6719 268.351 103.625 268.351C108.579 268.351 112.61 264.321 112.61 259.368C112.61 254.414 108.579 250.385 103.625 250.385Z" fill="#DB676A"/>
<path d="M161.756 258.706C168.297 258.706 173.6 253.403 173.6 246.862C173.6 240.321 168.297 235.018 161.756 235.018C155.215 235.018 149.912 240.321 149.912 246.862C149.912 253.403 155.215 258.706 161.756 258.706Z" fill="#DB676A"/>
<path d="M161.756 261.567C153.649 261.567 147.053 254.97 147.053 246.862C147.053 238.754 153.649 232.157 161.756 232.157C169.865 232.157 176.461 238.754 176.461 246.862C176.461 254.97 169.865 261.567 161.756 261.567ZM161.756 237.879C156.802 237.879 152.773 241.909 152.773 246.862C152.773 251.815 156.802 255.845 161.756 255.845C166.709 255.845 170.74 251.815 170.74 246.862C170.74 241.909 166.709 237.879 161.756 237.879Z" fill="#DB676A"/>
<path d="M118.381 259.368H108.904V184.395L176.511 175.182V246.862H167.034V186.037L118.381 192.668V259.368Z" fill="#DB676A"/>
</svg>
