<svg width="48" height="60" viewBox="0 0 48 60" fill="none" xmlns="http://www.w3.org/2000/svg">
<rect y="20" width="48" height="40" fill="white"/>
<path d="M3.41163 10.888L0 14.3004L0.000176822 22H48V0.00140381H41.4271H14.299L3.41163 10.888Z" fill="#CD161B"/>
<path d="M23.93 18.64H22.622V10.48H23.93V18.64ZM28.502 13.24C28.502 13.848 28.378 14.372 28.13 14.812C27.882 15.244 27.554 15.576 27.146 15.808C26.738 16.032 26.294 16.144 25.814 16.144C25.35 16.144 24.942 16.028 24.59 15.796C24.246 15.556 23.978 15.22 23.786 14.788C23.594 14.348 23.498 13.832 23.498 13.24C23.498 12.64 23.594 12.124 23.786 11.692C23.978 11.26 24.246 10.924 24.59 10.684C24.942 10.444 25.35 10.324 25.814 10.324C26.294 10.324 26.738 10.44 27.146 10.672C27.554 10.904 27.882 11.236 28.13 11.668C28.378 12.092 28.502 12.616 28.502 13.24ZM27.158 13.24C27.158 12.872 27.082 12.56 26.93 12.304C26.778 12.04 26.578 11.844 26.33 11.716C26.082 11.58 25.806 11.512 25.502 11.512C25.246 11.512 24.998 11.58 24.758 11.716C24.518 11.844 24.318 12.036 24.158 12.292C24.006 12.548 23.93 12.864 23.93 13.24C23.93 13.616 24.006 13.932 24.158 14.188C24.318 14.444 24.518 14.64 24.758 14.776C24.998 14.904 25.246 14.968 25.502 14.968C25.806 14.968 26.082 14.9 26.33 14.764C26.578 14.628 26.778 14.432 26.93 14.176C27.082 13.92 27.158 13.608 27.158 13.24ZM34.1284 6.64H35.4364V16H34.1284V6.64ZM29.5564 13.24C29.5564 12.632 29.6804 12.116 29.9284 11.692C30.1764 11.26 30.5044 10.932 30.9124 10.708C31.3284 10.476 31.7724 10.36 32.2444 10.36C32.7084 10.36 33.1124 10.476 33.4564 10.708C33.8084 10.94 34.0844 11.272 34.2844 11.704C34.4924 12.128 34.5964 12.64 34.5964 13.24C34.5964 13.832 34.4924 14.344 34.2844 14.776C34.0844 15.208 33.8084 15.54 33.4564 15.772C33.1124 16.004 32.7084 16.12 32.2444 16.12C31.7724 16.12 31.3284 16.008 30.9124 15.784C30.5044 15.552 30.1764 15.22 29.9284 14.788C29.6804 14.356 29.5564 13.84 29.5564 13.24ZM30.9004 13.24C30.9004 13.608 30.9764 13.924 31.1284 14.188C31.2804 14.452 31.4804 14.652 31.7284 14.788C31.9844 14.924 32.2604 14.992 32.5564 14.992C32.8124 14.992 33.0604 14.924 33.3004 14.788C33.5404 14.652 33.7364 14.456 33.8884 14.2C34.0484 13.936 34.1284 13.616 34.1284 13.24C34.1284 12.864 34.0484 12.548 33.8884 12.292C33.7364 12.028 33.5404 11.828 33.3004 11.692C33.0604 11.556 32.8124 11.488 32.5564 11.488C32.2604 11.488 31.9844 11.556 31.7284 11.692C31.4804 11.828 31.2804 12.028 31.1284 12.292C30.9764 12.556 30.9004 12.872 30.9004 13.24ZM36.8268 10.48H39.9948V11.62H36.8268V10.48ZM39.8628 8.032C39.7828 7.904 39.6908 7.82 39.5868 7.78C39.4828 7.74 39.3828 7.72 39.2868 7.72C39.1668 7.72 39.0628 7.752 38.9748 7.816C38.8948 7.88 38.8308 7.984 38.7828 8.128C38.7348 8.272 38.7108 8.46 38.7108 8.692V16H37.4268V8.44C37.4268 8.008 37.4948 7.652 37.6308 7.372C37.7748 7.084 37.9788 6.864 38.2428 6.712C38.5068 6.56 38.8348 6.484 39.2268 6.484C39.4428 6.484 39.6308 6.512 39.7908 6.568C39.9508 6.624 40.0868 6.696 40.1988 6.784C40.3108 6.864 40.3988 6.944 40.4628 7.024L39.8628 8.032Z" fill="white"/>
<path opacity="0.3" d="M9.72867 14.2996H0L3.41055 10.8881L14.2972 6.10352e-05V14.2996H9.72867Z" fill="#2C3073"/>
<path d="M16.1883 53.9979C15.7828 53.9979 15.1672 53.8559 14.6555 53.1358C14.1074 52.3643 13.4435 50.7824 15.1538 48.8537C16.2132 47.6589 17.9185 46.6292 19.692 45.7945C21.2822 42.0943 22.6574 38.406 23.5067 35.5551C23.5408 35.4404 23.5739 35.328 23.606 35.2171C22.0695 32.055 21.4482 29.8286 22.1243 28.4247C22.3642 27.9263 22.8806 27.2949 23.9779 27.1182C24.8146 26.9838 25.535 27.2448 26.0065 27.854C26.6028 28.6251 27.0864 30.1466 25.7572 35.0194C26.4889 36.4683 27.2602 37.8364 27.7312 38.6721C28.521 40.0728 29.6143 41.4021 30.7452 42.4842C33.2329 42.1149 35.525 42.0832 36.7309 42.7394C37.6185 43.2226 37.992 44.0742 37.73 45.0173C37.3956 46.2203 36.5969 46.9578 35.4812 47.0936C33.7375 47.3046 31.7188 45.9696 30.332 44.8112C30.2596 44.7507 30.1874 44.6893 30.1155 44.627C29.4254 44.7516 28.6699 44.9103 27.8458 45.1099C25.4572 45.688 23.1555 46.4632 21.2326 47.3119C21.2058 47.3733 21.1795 47.4332 21.1536 47.4919C19.1934 51.9588 17.8057 53.8411 16.3635 53.9889C16.311 53.9945 16.2522 53.9979 16.1883 53.9979ZM18.2852 48.8644C17.914 49.1051 17.5828 49.3458 17.2975 49.5843C15.7122 50.909 16.0572 51.6123 16.2614 51.9133C16.525 51.7242 17.1696 51.0742 18.2852 48.8644ZM32.972 44.2633C33.8856 44.8443 34.6979 45.1575 35.2371 45.0914C35.381 45.0738 35.6195 45.0448 35.7772 44.5107C35.4857 44.3258 34.5775 44.1623 32.972 44.2633ZM24.9259 37.7694C24.1198 40.2299 23.1656 42.6916 22.3452 44.6871C23.9263 44.0987 25.3151 43.6925 26.0431 43.4925C26.7922 43.2869 27.5773 43.0928 28.3705 42.9211C27.4221 41.8766 26.5842 40.7442 25.9749 39.6632C25.6035 39.0048 25.2535 38.374 24.9259 37.7694ZM24.3998 29.1003C24.3768 29.1003 24.3436 29.1023 24.2986 29.1095C24.0103 29.1561 23.9652 29.2497 23.941 29.2999C23.7043 29.7911 23.9339 30.7959 24.3867 31.9915C24.776 29.8001 24.4861 29.203 24.4199 29.101C24.4143 29.1007 24.4077 29.1003 24.3998 29.1003Z" fill="#CD161B"/>
</svg>
