<svg width="266" height="332" viewBox="0 0 266 332" fill="none" xmlns="http://www.w3.org/2000/svg">
<path d="M0.451172 90.668V295.647C0.451172 315.687 16.6901 331.948 36.7291 331.948H229.246C249.309 331.948 265.547 315.687 265.547 295.647V36.977C265.547 16.938 249.309 0.676025 229.246 0.676025H90.4672L19.2921 71.827L0.451172 90.668Z" fill="white"/>
<path d="M0.451172 90.668L19.2931 71.827L90.4681 0.676025H229.247C249.31 0.676025 265.548 16.938 265.548 36.977V121.337H0.452148L0.451172 90.668Z" fill="#DB676A"/>
<path d="M0.457031 90.6649L44.885 100.48C64.514 104.536 83.721 91.8939 87.778 72.2649L89.6331 62.0789C89.0441 64.9199 88.097 67.6329 86.856 70.1919C80.982 82.3099 68.558 90.6659 54.188 90.6659H0.457031V90.6649Z" fill="#D7D7D7"/>
<g opacity="0.4">
<path d="M0.457031 90.6649H54.187C68.557 90.6649 80.982 82.3099 86.855 70.1909C88.096 67.6319 89.043 64.9189 89.632 62.0779C90.195 59.5959 90.464 57.0109 90.464 54.3619V0.669922L19.293 71.8289L0.457031 90.6649Z" fill="#EFEFEF"/>
</g>
<path d="M89.8683 298.81C87.6293 298.81 84.2293 298.026 81.4033 294.05C78.3763 289.79 74.7093 281.056 84.1553 270.407C90.0063 263.81 99.4242 258.125 109.219 253.516C118.001 233.086 125.596 212.722 130.287 196.981C130.475 196.348 130.658 195.727 130.835 195.115C122.349 177.656 118.918 165.363 122.652 157.612C123.977 154.86 126.829 151.374 132.889 150.398C137.51 149.656 141.489 151.097 144.093 154.461C147.386 158.718 150.057 167.119 142.716 194.023C146.757 202.023 151.017 209.577 153.618 214.191C157.98 221.925 164.018 229.264 170.264 235.239C184.003 233.2 196.662 233.025 203.322 236.648C208.224 239.316 210.287 244.018 208.84 249.225C206.993 255.867 202.582 259.939 196.42 260.689C186.79 261.854 175.641 254.483 167.982 248.087C167.582 247.753 167.183 247.414 166.786 247.07C162.975 247.758 158.802 248.634 154.251 249.736C141.059 252.928 128.347 257.208 117.727 261.894C117.579 262.233 117.434 262.564 117.291 262.888C106.465 287.551 98.8013 297.944 90.8363 298.76C90.5463 298.791 90.2213 298.81 89.8683 298.81ZM101.449 270.466C99.3993 271.795 97.5703 273.124 95.9943 274.441C87.2393 281.755 89.1443 285.638 90.2723 287.3C91.7283 286.256 95.2883 282.667 101.449 270.466ZM182.562 245.062C187.608 248.27 192.094 249.999 195.072 249.634C195.867 249.537 197.184 249.377 198.055 246.428C196.445 245.407 191.429 244.504 182.562 245.062ZM138.125 209.207C133.673 222.792 128.403 236.384 123.872 247.402C132.604 244.153 140.274 241.91 144.295 240.806C148.432 239.671 152.768 238.599 157.149 237.651C151.911 231.884 147.283 225.632 143.918 219.663C141.867 216.028 139.934 212.545 138.125 209.207ZM135.219 161.342C135.092 161.342 134.909 161.353 134.66 161.393C133.068 161.65 132.819 162.167 132.685 162.444C131.378 165.156 132.646 170.704 135.147 177.305C137.297 165.206 135.696 161.909 135.33 161.346C135.299 161.344 135.263 161.342 135.219 161.342Z" fill="#DB676A"/>
<path d="M142.414 97.0018V115.033H138.442V76.9228C138.442 72.1338 138.448 68.7668 138.334 66.6348H142.252C142.33 67.6358 142.402 70.3628 142.407 72.3538C144.094 68.5558 147.366 65.9878 152.659 65.9878C159.996 65.9878 164.601 72.1218 164.601 83.4658C164.601 95.4028 159.103 102.035 151.465 102.035C146.475 102.036 143.8 99.7968 142.414 97.0018ZM160.45 83.6568C160.45 74.8298 157.38 69.6248 151.583 69.6248C144.375 69.6248 142.241 75.3588 142.241 84.1198C142.241 92.3398 143.495 98.4118 151.176 98.4118C157.02 98.4118 160.45 92.8208 160.45 83.6568Z" fill="white"/>
<path d="M196.31 51.3608V92.7208C196.31 95.7568 196.316 99.2918 196.424 101.448H192.506C192.428 100.542 192.344 98.1898 192.344 96.0258C190.726 100.078 188.028 102.077 182.507 102.077C174.094 102.077 170.123 94.9478 170.123 83.9448C170.123 73.5718 174.927 65.9888 183.494 65.9888C188.955 65.9888 191.395 68.3428 192.332 70.3978V51.3608H196.31ZM174.283 83.8058C174.283 93.7018 177.996 98.4288 183.334 98.4288C190.723 98.4288 192.424 92.4378 192.424 83.2608C192.424 72.4498 189.631 69.6248 183.736 69.6248C178.029 69.6248 174.283 74.4898 174.283 83.8058Z" fill="white"/>
<path d="M207.267 101.448V70.1249H201.951V66.6349H207.267V61.572C207.267 56.068 208.88 50.8469 215.685 50.8469C216.579 50.8469 217.792 50.9609 218.556 51.2529V54.8809C217.888 54.7029 216.922 54.5519 215.729 54.5519C212.499 54.5519 211.238 56.6879 211.238 61.2159V66.6359H217.677V70.1259H211.238V101.449L207.267 101.448Z" fill="white"/>
</svg>
