<svg width="266" height="332" viewBox="0 0 266 332" fill="none" xmlns="http://www.w3.org/2000/svg">
<path d="M0.734375 90.0511V295.03C0.734375 315.069 16.9732 331.331 37.0122 331.331H229.529C249.592 331.331 265.831 315.069 265.831 295.03V36.3601C265.831 16.3211 249.592 0.0581055 229.529 0.0581055H90.7512L19.5762 71.2091L0.734375 90.0511Z" fill="white"/>
<path d="M0.734375 90.0511L19.5762 71.2091L90.7512 0.0581055H229.529C249.592 0.0581055 265.831 16.3211 265.831 36.3601V120.72H0.734375V90.0511Z" fill="#5FB1E2"/>
<path d="M0.738281 90.047L45.1663 99.8621C64.7953 103.918 84.0023 91.275 88.0593 71.646L89.9143 61.46C89.3263 64.301 88.3792 67.013 87.1382 69.572C81.2642 81.69 68.8392 90.046 54.4692 90.046L0.738281 90.047Z" fill="#D7D7D7"/>
<g opacity="0.4">
<path d="M0.738281 90.047H54.4683C68.8383 90.047 81.2632 81.692 87.1372 69.573C88.3782 67.013 89.3253 64.3021 89.9133 61.4611C90.4763 58.9791 90.7454 56.394 90.7454 53.745V0.0529785L19.5732 71.2111L0.738281 90.047Z" fill="#EFEFEF"/>
</g>
<path d="M78.8579 178.635H57.0879V200.405H78.8579V178.635Z" fill="#5FB1E2"/>
<path d="M79.9714 201.518H55.9766V177.522H79.9714V201.518ZM58.2014 199.291H77.7446V179.749H58.2014V199.291Z" fill="#5FB1E2"/>
<path d="M100.627 200.404H78.8574V222.174H100.627V200.404Z" fill="#5FB1E2"/>
<path d="M101.74 223.288H77.7441V199.291H101.74V223.288ZM79.9709 221.061H99.5142V201.518H79.9709V221.061Z" fill="#5FB1E2"/>
<path d="M122.399 178.635H100.629V200.405H122.399V178.635Z" fill="#5FB1E2"/>
<path d="M123.51 201.518H99.5156V177.522H123.51V201.518ZM101.741 199.291H121.284V179.749H101.741V199.291Z" fill="#5FB1E2"/>
<path d="M144.167 200.404H122.396V222.174H144.167V200.404Z" fill="#5FB1E2"/>
<path d="M145.278 223.288H121.283V199.291H145.278V223.288ZM123.509 221.061H143.053V201.518H123.509V221.061Z" fill="#5FB1E2"/>
<path d="M165.935 178.635H144.166V200.405H165.935V178.635Z" fill="#5FB1E2"/>
<path d="M167.047 201.518H143.053V177.522H167.047V201.518ZM145.278 199.291H164.821V179.749H145.278V199.291Z" fill="#5FB1E2"/>
<path d="M187.706 200.404H165.936V222.174H187.706V200.404Z" fill="#5FB1E2"/>
<path d="M188.817 223.288H164.822V199.291H188.817V223.288ZM167.048 221.061H186.592V201.518H167.048V221.061Z" fill="#5FB1E2"/>
<path d="M78.8579 222.174H57.0879V243.944H78.8579V222.174Z" fill="#5FB1E2"/>
<path d="M79.9714 245.057H55.9766V221.061H79.9714V245.057ZM58.2014 242.83H77.7446V223.288H58.2014V242.83Z" fill="#5FB1E2"/>
<path d="M100.627 243.943H78.8574V265.713H100.627V243.943Z" fill="#5FB1E2"/>
<path d="M101.74 266.826H77.7441V242.83H101.74V266.826ZM79.9709 264.599H99.5142V245.057H79.9709V264.599Z" fill="#5FB1E2"/>
<path d="M122.399 222.174H100.629V243.944H122.399V222.174Z" fill="#5FB1E2"/>
<path d="M123.51 245.057H99.5156V221.061H123.51V245.057ZM101.741 242.83H121.284V223.288H101.741V242.83Z" fill="#5FB1E2"/>
<path d="M144.167 243.943H122.396V265.713H144.167V243.943Z" fill="#5FB1E2"/>
<path d="M145.278 266.826H121.283V242.83H145.278V266.826ZM123.509 264.599H143.053V245.057H123.509V264.599Z" fill="#5FB1E2"/>
<path d="M165.935 222.174H144.166V243.944H165.935V222.174Z" fill="#5FB1E2"/>
<path d="M167.047 245.057H143.053V221.061H167.047V245.057ZM145.278 242.83H164.821V223.288H145.278V242.83Z" fill="#5FB1E2"/>
<path d="M187.706 243.943H165.936V265.713H187.706V243.943Z" fill="#5FB1E2"/>
<path d="M188.817 266.826H164.822V242.83H188.817V266.826ZM167.048 264.599H186.592V245.057H167.048V264.599Z" fill="#5FB1E2"/>
<path d="M78.8579 265.713H57.0879V287.483H78.8579V265.713Z" fill="#5FB1E2"/>
<path d="M79.9714 288.596H55.9766V264.599H79.9714V288.596ZM58.2014 286.368H77.7446V266.826H58.2014V286.368Z" fill="#5FB1E2"/>
<path d="M122.399 265.713H100.629V287.483H122.399V265.713Z" fill="#5FB1E2"/>
<path d="M123.51 288.596H99.5156V264.599H123.51V288.596ZM101.741 286.368H121.284V266.826H101.741V286.368Z" fill="#5FB1E2"/>
<path d="M165.935 265.713H144.166V287.483H165.935V265.713Z" fill="#5FB1E2"/>
<path d="M167.047 288.596H143.053V264.599H167.047V288.596ZM145.278 286.368H164.821V266.826H145.278V286.368Z" fill="#5FB1E2"/>
<path d="M209.475 178.635H187.705V200.405H209.475V178.635Z" fill="#5FB1E2"/>
<path d="M210.588 201.518H186.592V177.522H210.588V201.518ZM188.817 199.291H208.362V179.749H188.817V199.291Z" fill="#5FB1E2"/>
<path d="M209.475 222.174H187.705V243.944H209.475V222.174Z" fill="#5FB1E2"/>
<path d="M210.588 245.057H186.592V221.061H210.588V245.057ZM188.817 242.83H208.362V223.288H188.817V242.83Z" fill="#5FB1E2"/>
<path d="M209.475 265.713H187.705V287.483H209.475V265.713Z" fill="#5FB1E2"/>
<path d="M210.588 288.596H186.592V264.599H210.588V288.596ZM188.817 286.368H208.362V266.826H188.817V286.368Z" fill="#5FB1E2"/>
<path d="M128.529 96.386V114.417H124.557V76.306C124.557 71.518 124.563 68.151 124.449 66.019H128.367C128.445 67.021 128.517 69.747 128.522 71.738C130.209 67.94 133.481 65.373 138.774 65.373C146.111 65.373 150.716 71.506 150.716 82.851C150.716 94.788 145.218 101.42 137.58 101.42C132.59 101.419 129.915 99.181 128.529 96.386ZM146.565 83.0389C146.565 74.2129 143.495 69.0081 137.698 69.0081C130.49 69.0081 128.356 74.741 128.356 83.502C128.356 91.722 129.61 97.7939 137.291 97.7939C143.134 97.7939 146.565 92.2029 146.565 83.0389Z" fill="white"/>
<path d="M158.434 76.8741C158.434 69.6471 158.368 67.5062 158.32 66.0192H162.238C162.316 66.7582 162.438 69.7071 162.399 71.5841C163.771 68.3601 166.623 65.3691 172.194 65.3691C177.793 65.3691 182.549 68.3252 182.549 77.6442V100.831H178.511V78.1862C178.511 72.9622 176.59 69.0511 171.483 69.0511C164.951 69.0511 162.433 73.9601 162.433 81.8451V100.83H158.434V76.8741Z" fill="white"/>
<path d="M216.308 98.6602C216.308 108.821 212.839 114.971 202.988 114.971C193.7 114.971 191.121 109.56 190.701 105.172H194.707C195.309 108.809 198.109 111.49 203.076 111.49C210.686 111.49 212.399 106.244 212.399 98.3381V94.9061C210.81 98.9621 207.834 101.008 202.562 101.008C194.896 101.008 190.258 94.4911 190.258 83.5391C190.258 71.6611 195.884 65.3721 203.39 65.3721C208.63 65.3721 211.451 67.7312 212.304 70.6292C212.285 68.8562 212.457 66.8112 212.535 66.0192H216.425C216.356 67.6612 216.308 71.2422 216.308 75.9152V98.6602ZM194.427 83.5092C194.427 92.4642 197.8 97.3362 203.376 97.3362C210.211 97.3362 212.488 92.2132 212.488 83.1182C212.488 73.6312 210.426 69.0471 203.769 69.0471C197.716 69.0471 194.427 74.6062 194.427 83.5092Z" fill="white"/>
</svg>
