<svg width="266" height="332" viewBox="0 0 266 332" fill="none" xmlns="http://www.w3.org/2000/svg">
<path d="M0.595703 90.4338V295.413C0.595703 315.452 16.8347 331.714 36.8737 331.714H229.391C249.454 331.714 265.692 315.452 265.692 295.413V36.7429C265.692 16.7029 249.454 0.440918 229.391 0.440918H90.6127L19.4377 71.5919L0.595703 90.4338Z" fill="white"/>
<path d="M0.595703 90.4338L19.4377 71.5919L90.6127 0.440918H229.392C249.455 0.440918 265.693 16.7029 265.693 36.7429V121.102H0.595703V90.4338Z" fill="#6972B1"/>
<path d="M0.601562 90.4301L45.0296 100.244C64.6586 104.301 83.8655 91.6581 87.9225 72.0291L89.7776 61.843C89.1886 64.684 88.2415 67.396 87.0005 69.955C81.1265 82.073 68.7026 90.429 54.3326 90.429H0.601562V90.4301Z" fill="#D7D7D7"/>
<g opacity="0.4">
<path d="M0.601562 90.4301H54.3315C68.7015 90.4301 81.1266 82.0751 86.9996 69.9561C88.2406 67.3961 89.1876 64.685 89.7766 61.844C90.3396 59.362 90.6086 56.777 90.6086 54.127V0.436035L19.4366 71.594L0.601562 90.4301Z" fill="#EFEFEF"/>
</g>
<path d="M131.453 294.805C96.6078 294.805 68.2598 266.456 68.2598 231.611C68.2598 196.766 96.6088 168.417 131.453 168.417C132.055 168.417 132.65 168.437 133.246 168.458L138.997 168.648V226.043H194.646V231.611C194.647 266.456 166.299 294.805 131.453 294.805ZM127.86 179.676C100.825 181.528 79.3967 204.114 79.3967 231.611C79.3967 260.315 102.749 283.668 131.453 283.668C158.276 283.668 180.425 263.274 183.214 237.181H127.86V179.676Z" fill="#6972B1"/>
<path d="M198.028 217.144H147.756V165.327L153.512 165.52C178.474 166.364 198.028 186.593 198.028 211.576V217.144ZM158.893 206.006H186.456C184.179 191.59 173.188 180.16 158.893 177.315V206.006Z" fill="#6972B1"/>
<path d="M152.646 96.7689V114.8H148.674V76.6888C148.674 71.9008 148.68 68.5339 148.566 66.4019H152.483C152.561 67.4039 152.633 70.1298 152.639 72.1208C154.325 68.3228 157.597 65.7559 162.891 65.7559C170.227 65.7559 174.833 71.8889 174.833 83.2339C174.833 95.1709 169.334 101.803 161.697 101.803C156.707 101.802 154.032 99.5629 152.646 96.7689ZM170.682 83.4219C170.682 74.5959 167.612 69.3909 161.815 69.3909C154.607 69.3909 152.473 75.1239 152.473 83.8849C152.473 92.1049 153.727 98.1769 161.408 98.1769C167.251 98.1769 170.682 92.5859 170.682 83.4219Z" fill="white"/>
<path d="M186.523 96.7689V114.8H182.551V76.6888C182.551 71.9008 182.557 68.5339 182.443 66.4019H186.36C186.438 67.4039 186.51 70.1298 186.516 72.1208C188.202 68.3228 191.474 65.7559 196.768 65.7559C204.104 65.7559 208.71 71.8889 208.71 83.2339C208.71 95.1709 203.211 101.803 195.574 101.803C190.584 101.802 187.909 99.5629 186.523 96.7689ZM204.559 83.4219C204.559 74.5959 201.489 69.3909 195.692 69.3909C188.484 69.3909 186.35 75.1239 186.35 83.8849C186.35 92.1049 187.604 98.1769 195.285 98.1769C201.128 98.1769 204.559 92.5859 204.559 83.4219Z" fill="white"/>
<path d="M211.855 66.4009H217.45V56.2979H221.4V66.4009H228.424V69.8899H221.4V93.7739C221.4 96.7069 222.122 98.1539 225.029 98.1539C225.978 98.1539 227.235 98.0539 227.896 97.9159V101.134C226.78 101.558 225.1 101.688 223.926 101.688C219.923 101.688 217.45 100.135 217.45 94.7859V69.8909H211.855V66.4009Z" fill="white"/>
</svg>
