<svg width="266" height="332" viewBox="0 0 266 332" fill="none" xmlns="http://www.w3.org/2000/svg">
<path d="M0.734375 90.2862V295.265C0.734375 315.304 16.9732 331.566 37.0122 331.566H229.529C249.592 331.566 265.831 315.304 265.831 295.265V36.5952C265.831 16.5552 249.592 0.294189 229.529 0.294189H90.7512L19.5762 71.4452L0.734375 90.2862Z" fill="white"/>
<path d="M0.734375 90.2862L19.5762 71.4452L90.7512 0.294189H229.529C249.592 0.294189 265.831 16.5562 265.831 36.5952V120.955H0.734375V90.2862Z" fill="#EEB443"/>
<path d="M0.738281 90.2821L45.1663 100.096C64.7953 104.153 84.0023 91.5101 88.0593 71.8811L89.9143 61.6951C89.3263 64.5361 88.3792 67.2481 87.1382 69.8081C81.2642 81.9261 68.8392 90.2821 54.4692 90.2821H0.738281Z" fill="#D7D7D7"/>
<g opacity="0.4">
<path d="M0.738281 90.2821H54.4683C68.8383 90.2821 81.2632 81.9271 87.1372 69.8081C88.3782 67.2481 89.3253 64.5361 89.9133 61.6951C90.4763 59.2131 90.7454 56.6281 90.7454 53.9791V0.287109L19.5732 71.4461L0.738281 90.2821Z" fill="#EFEFEF"/>
</g>
<path d="M197.633 284.464H68.9326C60.9156 284.464 54.3945 277.942 54.3945 269.926V190.55C54.3945 182.534 60.9156 176.011 68.9326 176.011H197.633C205.65 176.011 212.171 182.533 212.171 190.55V269.926C212.171 277.942 205.649 284.464 197.633 284.464ZM68.9326 187.149C67.0566 187.149 65.5305 188.674 65.5305 190.55V269.926C65.5305 271.801 67.0566 273.327 68.9326 273.327H197.633C199.508 273.327 201.033 271.802 201.033 269.926V190.55C201.033 188.675 199.508 187.149 197.633 187.149H68.9326Z" fill="#EEB443"/>
<path d="M101.02 280.877L93.1445 273.001L153.191 212.955C158.577 207.573 167.291 207.273 173.03 212.281L208.289 243.046L200.966 251.438L165.708 220.673C164.367 219.501 162.326 219.57 161.066 220.831L101.02 280.877Z" fill="#EEB443"/>
<path d="M65.5439 274.88L56.9141 267.838L78.28 241.656C80.839 238.52 84.624 236.581 88.666 236.337C92.711 236.087 96.6979 237.561 99.6169 240.366L116.897 256.967L109.18 264.998L91.8999 248.397C90.9629 247.497 89.8951 247.418 89.3381 247.454C88.7831 247.487 87.7289 247.694 86.9089 248.698L65.5439 274.88Z" fill="#EEB443"/>
<path d="M105.194 221.157C99.5758 221.157 95.0059 216.586 95.0059 210.968C95.0059 205.35 99.5758 200.78 105.194 200.78C110.811 200.78 115.382 205.35 115.382 210.968C115.382 216.586 110.811 221.157 105.194 221.157ZM105.194 210.019C104.671 210.019 104.246 210.444 104.246 210.967C104.246 211.49 104.671 211.916 105.194 211.916C105.716 211.916 106.141 211.49 106.141 210.967C106.141 210.444 105.717 210.019 105.194 210.019Z" fill="#EEB443"/>
<path d="M142.242 96.6199V114.651H138.27V76.541C138.27 71.752 138.276 68.385 138.162 66.253H142.08C142.158 67.254 142.23 69.981 142.235 71.972C143.922 68.174 147.194 65.606 152.487 65.606C159.824 65.606 164.429 71.74 164.429 83.084C164.429 95.022 158.931 101.653 151.293 101.653C146.303 101.653 143.628 99.4149 142.242 96.6199ZM160.278 83.274C160.278 74.447 157.208 69.242 151.411 69.242C144.203 69.242 142.069 74.976 142.069 83.737C142.069 91.957 143.323 98.029 151.004 98.029C156.848 98.029 160.278 92.438 160.278 83.274Z" fill="white"/>
<path d="M173.378 91.284C173.982 95.705 176.956 98.309 181.407 98.309C186.497 98.309 188.511 95.32 188.511 91.915C188.511 88.176 186.246 86.265 180.57 84.534C172.935 82.199 170.707 79.376 170.707 74.758C170.707 70.098 173.845 65.604 181.117 65.604C188.828 65.604 191.557 70.301 191.886 75.265H187.929C187.44 72.518 186.205 68.985 180.948 68.985C176.641 68.985 174.771 71.293 174.771 74.509C174.771 77.491 176.016 79.072 181.872 80.863C189.689 83.261 192.588 85.904 192.588 91.627C192.588 97.771 188.169 101.69 181.229 101.69C174.596 101.69 169.874 98.166 169.375 91.284H173.378Z" fill="white"/>
<path d="M224.125 50.979V92.339C224.125 95.375 224.131 98.91 224.239 101.066H220.321C220.243 100.16 220.158 97.808 220.158 95.644C218.54 99.696 215.843 101.695 210.322 101.695C201.909 101.695 197.938 94.566 197.938 83.563C197.938 73.191 202.742 65.607 211.309 65.607C216.77 65.607 219.209 67.961 220.146 70.016V50.979H224.125ZM202.098 83.424C202.098 93.32 205.811 98.047 211.149 98.047C218.538 98.047 220.24 92.056 220.24 82.879C220.24 72.068 217.447 69.243 211.552 69.243C205.845 69.242 202.098 74.107 202.098 83.424Z" fill="white"/>
</svg>
