<svg width="266" height="332" viewBox="0 0 266 332" fill="none" xmlns="http://www.w3.org/2000/svg">
<path d="M0.451172 90.0511V295.03C0.451172 315.069 16.6901 331.331 36.7291 331.331H229.246C249.309 331.331 265.547 315.069 265.547 295.03V36.3601C265.547 16.3211 249.309 0.0581055 229.246 0.0581055H90.4672L19.2921 71.2091L0.451172 90.0511Z" fill="white"/>
<path d="M0.451172 90.0511L19.2931 71.2091L90.4681 0.0581055H229.247C249.31 0.0581055 265.548 16.3211 265.548 36.3601V120.72H0.452148L0.451172 90.0511Z" fill="#EEB443"/>
<path d="M0.457031 90.047L44.885 99.8621C64.514 103.918 83.721 91.275 87.778 71.646L89.6331 61.46C89.0441 64.301 88.097 67.013 86.856 69.572C80.982 81.69 68.558 90.046 54.188 90.046L0.457031 90.047Z" fill="#D7D7D7"/>
<g opacity="0.4">
<path d="M0.457031 90.047H54.187C68.557 90.047 80.982 81.692 86.855 69.573C88.096 67.013 89.043 64.3021 89.632 61.4611C90.195 58.9791 90.464 56.394 90.464 53.745V0.0529785L19.293 71.2111L0.457031 90.047Z" fill="#EFEFEF"/>
</g>
<path d="M196.943 148.861L179.377 131.294L161.81 148.861L179.376 166.428L196.943 148.861Z" fill="#EEB443"/>
<path d="M197.003 183.983L179.436 166.416L161.869 183.982L179.436 201.549L197.003 183.983Z" fill="#EEB443"/>
<path d="M161.899 183.979L144.332 166.412L126.766 183.978L144.333 201.545L161.899 183.979Z" fill="#EEB443"/>
<path d="M161.84 219.12L144.273 201.554L126.707 219.12L144.273 236.687L161.84 219.12Z" fill="#EEB443"/>
<path d="M126.736 219.117L109.17 201.55L91.6034 219.117L109.17 236.683L126.736 219.117Z" fill="#EEB443"/>
<path d="M82.8865 227.857L30.8516 279.892L65.9856 315.026L118.021 262.992L82.8865 227.857ZM83.6106 279.839L66.0396 262.268L83.6106 244.697L101.182 262.268L83.6106 279.839Z" fill="#EEB443"/>
<path d="M137.989 77.8691C137.989 72.3951 137.95 67.8241 137.875 66.0181H141.79C141.87 67.4861 141.903 69.5241 141.903 73.1271C143.639 68.4071 147.577 65.5031 152.655 65.4031V69.6951C145.244 70.1101 141.967 75.3761 141.967 82.3201V100.83H137.989V77.8691Z" fill="white"/>
<path d="M179.082 94.2651C179.082 96.6771 179.32 99.5172 179.532 100.831H175.803C175.593 99.7162 175.367 97.8471 175.363 95.5071C174.087 99.0641 170.764 101.454 165.368 101.454C157.544 101.454 155.16 95.8131 155.16 91.1301C155.16 85.9011 158.504 80.2001 169.942 80.2001C172.227 80.2001 173.678 80.2001 175.15 80.2461V76.0441C175.15 72.7081 174.306 68.7742 168.108 68.7742C162.455 68.7742 160.995 71.8771 160.469 75.5571H156.542C156.971 69.9611 160.002 65.3711 168.272 65.3711C174.98 65.3711 179.082 68.4341 179.082 75.5941V94.2651ZM175.248 83.5381C174.01 83.4891 172.135 83.4681 169.967 83.4681C161.449 83.4681 159.269 87.1151 159.269 90.9431C159.269 94.7391 161.488 97.9071 166.016 97.9071C172.785 97.9071 175.248 93.2921 175.248 84.7881V83.5381Z" fill="white"/>
<path d="M189.114 77.8691C189.114 72.3951 189.075 67.8241 189 66.0181H192.915C192.995 67.4861 193.028 69.5241 193.028 73.1271C194.764 68.4071 198.702 65.5031 203.78 65.4031V69.6951C196.369 70.1101 193.092 75.3761 193.092 82.3201V100.83H189.114V77.8691Z" fill="white"/>
</svg>
