<svg width="266" height="332" viewBox="0 0 266 332" fill="none" xmlns="http://www.w3.org/2000/svg">
<path d="M0.167969 90.4338V295.413C0.167969 315.452 16.407 331.714 36.446 331.714H228.963C249.025 331.714 265.264 315.452 265.264 295.413V36.7429C265.264 16.7029 249.025 0.440918 228.963 0.440918H90.185L19.01 71.5919L0.167969 90.4338Z" fill="white"/>
<path d="M0.167969 90.4338L19.01 71.5919L90.185 0.440918H228.964C249.026 0.440918 265.265 16.7029 265.265 36.7429V121.102H0.167969V90.4338Z" fill="#5FB1E2"/>
<path d="M0.173828 90.4301L44.6018 100.244C64.2308 104.301 83.4378 91.6581 87.4948 72.0291L89.3498 61.843C88.7608 64.684 87.8138 67.396 86.5728 69.955C80.6988 82.073 68.2748 90.429 53.9048 90.429H0.173828V90.4301Z" fill="#D7D7D7"/>
<g opacity="0.4">
<path d="M0.173828 90.4301H53.9038C68.2738 90.4301 80.6988 82.0751 86.5718 69.9561C87.8128 67.3961 88.7598 64.685 89.3488 61.844C89.9118 59.362 90.1808 56.777 90.1808 54.127V0.436035L19.0088 71.594L0.173828 90.4301Z" fill="#EFEFEF"/>
</g>
<path d="M129.636 180.86H52.8789V191.998H129.636V180.86Z" fill="#5FB1E2"/>
<path d="M212.556 180.86H162.936V191.998H212.556V180.86Z" fill="#5FB1E2"/>
<path d="M157.394 264.962H52.8789V276.1H157.394V264.962Z" fill="#5FB1E2"/>
<path d="M212.557 222.911H135.801V234.049H212.557V222.911Z" fill="#5FB1E2"/>
<path d="M102.499 222.911H52.8789V234.049H102.499V222.911Z" fill="#5FB1E2"/>
<path d="M149.292 78.2521C149.292 72.7781 149.253 68.2071 149.178 66.4011H153.092C153.173 67.8691 153.206 69.9071 153.206 73.5101C154.942 68.7901 158.879 65.8861 163.957 65.7861V70.0781C156.547 70.4931 153.269 75.7591 153.269 82.7031V101.213H149.292V78.2521Z" fill="white"/>
<path d="M167.236 66.4009H172.831V56.2979H176.781V66.4009H183.805V69.8899H176.781V93.7739C176.781 96.7069 177.503 98.1539 180.41 98.1539C181.359 98.1539 182.616 98.0539 183.277 97.9159V101.134C182.161 101.558 180.481 101.688 179.307 101.688C175.304 101.688 172.831 100.135 172.831 94.7859V69.8909H167.236V66.4009Z" fill="white"/>
<path d="M189.923 101.214V69.891H184.607V66.402H189.923V61.339C189.923 55.835 191.536 50.614 198.341 50.614C199.235 50.614 200.448 50.727 201.212 51.019V54.647C200.544 54.469 199.578 54.319 198.385 54.319C195.155 54.319 193.894 56.4551 193.894 60.9821V66.402H200.333V69.891H193.894V101.214H189.923Z" fill="white"/>
</svg>
