<svg width="266" height="332" viewBox="0 0 266 332" fill="none" xmlns="http://www.w3.org/2000/svg">
<path d="M0.308594 90.668V295.647C0.308594 315.687 16.5474 331.948 36.5864 331.948H229.104C249.167 331.948 265.406 315.687 265.406 295.647V36.977C265.406 16.938 249.167 0.676025 229.104 0.676025H90.3254L19.1494 71.827L0.308594 90.668Z" fill="white"/>
<path d="M0.308594 90.668L19.1494 71.827L90.3254 0.676025H229.104C249.167 0.676025 265.405 16.938 265.405 36.977V121.337H0.308594V90.668Z" fill="#4F87C2"/>
<path d="M0.3125 90.6649L44.7405 100.48C64.3695 104.536 83.5765 91.8939 87.6335 72.2649L89.4885 62.0789C88.8995 64.9199 87.9534 67.6329 86.7124 70.1919C80.8384 82.3099 68.4135 90.6659 54.0435 90.6659H0.3125V90.6649Z" fill="#D7D7D7"/>
<g opacity="0.4">
<path d="M0.3125 90.6649H54.0425C68.4125 90.6649 80.8374 82.3099 86.7114 70.1909C87.9524 67.6319 88.8996 64.9189 89.4875 62.0779C90.0506 59.5959 90.3196 57.0109 90.3196 54.3619V0.669922L19.1475 71.8289L0.3125 90.6649Z" fill="#EFEFEF"/>
</g>
<path d="M190.85 292.867H74.8633C66.8443 292.867 60.3223 286.344 60.3223 278.325V263.371C60.3223 255.352 66.8443 248.829 74.8633 248.829H190.85C198.87 248.829 205.392 255.353 205.392 263.371V278.325C205.392 286.343 198.869 292.867 190.85 292.867ZM74.8623 259.967C72.9853 259.967 71.4573 261.494 71.4573 263.372V278.326C71.4573 280.203 72.9853 281.73 74.8623 281.73H190.849C192.727 281.73 194.255 280.203 194.255 278.326V263.372C194.255 261.494 192.727 259.967 190.849 259.967H74.8623Z" fill="#4F87C2"/>
<path d="M205.392 242.62H194.256V227.666C194.256 225.788 192.728 224.261 190.85 224.261H74.8633C72.9863 224.261 71.4583 225.788 71.4583 227.666V242.62H60.3223V227.666C60.3223 219.647 66.8443 213.124 74.8633 213.124H190.85C198.87 213.124 205.392 219.648 205.392 227.666V242.62Z" fill="#4F87C2"/>
<path d="M205.392 206.914H194.256V191.96C194.256 190.082 192.728 188.555 190.85 188.555H74.8633C72.9863 188.555 71.4583 190.082 71.4583 191.96V206.914H60.3223V191.96C60.3223 183.941 66.8443 177.418 74.8633 177.418H190.85C198.87 177.418 205.392 183.942 205.392 191.96V206.914Z" fill="#4F87C2"/>
<path d="M136.685 91.6658C137.289 96.0868 140.263 98.6908 144.714 98.6908C149.804 98.6908 151.818 95.7018 151.818 92.2968C151.818 88.5578 149.553 86.6468 143.877 84.9158C136.242 82.5808 134.014 79.7588 134.014 75.1398C134.014 70.4798 137.152 65.9858 144.424 65.9858C152.135 65.9858 154.864 70.6828 155.193 75.6468H151.236C150.747 72.8998 149.512 69.3668 144.255 69.3668C139.948 69.3668 138.078 71.6748 138.078 74.8908C138.078 77.8728 139.323 79.4538 145.179 81.2448C152.996 83.6428 155.895 86.2858 155.895 92.0088C155.895 98.1528 151.476 102.072 144.536 102.072C137.903 102.072 133.181 98.5478 132.682 91.6658H136.685Z" fill="white"/>
<path d="M183.541 96.1198C182.023 99.7708 179.02 102.072 173.659 102.072C166.829 102.072 161.27 96.7288 161.27 83.8798C161.27 72.9258 166.827 65.9858 174.514 65.9858C180.109 65.9858 182.619 68.4188 183.495 71.0418C183.504 68.9588 183.581 67.3488 183.656 66.6358H187.574C187.499 69.1138 187.46 71.7888 187.46 76.6048V115.034H183.54L183.541 96.1198ZM165.437 83.8498C165.437 92.6158 168.403 98.4718 174.594 98.4718C181.657 98.4718 183.567 93.1238 183.567 83.5558C183.567 74.7178 182.039 69.6238 174.881 69.6238C168.687 69.6248 165.437 75.6328 165.437 83.8498Z" fill="white"/>
<path d="M197.383 101.448V51.3608H201.361V101.448H197.383Z" fill="white"/>
</svg>
