<svg width="266" height="332" viewBox="0 0 266 332" fill="none" xmlns="http://www.w3.org/2000/svg">
<path d="M0.308594 90.0511V295.03C0.308594 315.069 16.5474 331.331 36.5864 331.331H229.104C249.167 331.331 265.406 315.069 265.406 295.03V36.3601C265.406 16.3211 249.167 0.0581055 229.104 0.0581055H90.3254L19.1494 71.2091L0.308594 90.0511Z" fill="white"/>
<path d="M0.308594 90.0511L19.1494 71.2091L90.3254 0.0581055H229.104C249.167 0.0581055 265.405 16.3211 265.405 36.3601V120.72H0.308594V90.0511Z" fill="#EEB443"/>
<path d="M0.3125 90.047L44.7405 99.8621C64.3695 103.918 83.5765 91.275 87.6335 71.646L89.4885 61.46C88.8995 64.301 87.9534 67.013 86.7124 69.572C80.8384 81.69 68.4135 90.046 54.0435 90.046L0.3125 90.047Z" fill="#D7D7D7"/>
<g opacity="0.4">
<path d="M0.3125 90.047H54.0425C68.4125 90.047 80.8374 81.692 86.7114 69.573C87.9524 67.013 88.8996 64.3021 89.4875 61.4611C90.0506 58.9791 90.3196 56.394 90.3196 53.745V0.0529785L19.1475 71.2111L0.3125 90.047Z" fill="#EFEFEF"/>
</g>
<path d="M183.428 277.519H82.2852V176.375H183.428V277.519ZM88.3962 271.407H177.316V182.486H88.3962V271.407Z" fill="#EEB443"/>
<path d="M97.2209 167.549H73.459V191.312H97.2209V167.549Z" fill="#EEB443"/>
<path d="M103.872 197.963H66.8066V160.899H103.872V197.963ZM80.1086 184.66H90.5698V174.2H80.1086V184.66Z" fill="#EEB443"/>
<path d="M97.2209 262.582H73.459V286.344H97.2209V262.582Z" fill="#EEB443"/>
<path d="M103.872 292.995H66.8066V255.931H103.872V292.995ZM80.1086 279.693H90.5698V269.232H80.1086V279.693Z" fill="#EEB443"/>
<path d="M192.255 167.549H168.492V191.312H192.255V167.549Z" fill="#EEB443"/>
<path d="M198.905 197.963H161.84V160.899H198.905V197.963ZM175.143 184.66H185.603V174.2H175.143V184.66Z" fill="#EEB443"/>
<path d="M192.255 262.582H168.492V286.344H192.255V262.582Z" fill="#EEB443"/>
<path d="M198.905 292.995H161.84V255.931H198.905V292.995ZM175.143 279.693H185.603V269.232H175.143V279.693Z" fill="#EEB443"/>
<path d="M138.729 91.0491C139.333 95.4701 142.308 98.0741 146.759 98.0741C151.849 98.0741 153.863 95.0852 153.863 91.6802C153.863 87.9412 151.598 86.0301 145.922 84.2981C138.287 81.9631 136.059 79.1411 136.059 74.5221C136.059 69.8621 139.197 65.3691 146.469 65.3691C154.18 65.3691 156.909 70.0652 157.238 75.0292H153.281C152.792 72.2832 151.557 68.7491 146.3 68.7491C141.993 68.7491 140.123 71.0581 140.123 74.2731C140.123 77.2551 141.368 78.8361 147.224 80.6271C155.041 83.0241 157.939 85.6671 157.939 91.3911C157.939 97.5351 153.521 101.454 146.581 101.454C139.948 101.454 135.226 97.9311 134.727 91.0491H138.729Z" fill="white"/>
<path d="M165.609 66.019C170.154 80.565 173.75 92.543 174.683 96.729H174.752C175.321 93.335 182.296 71.887 184.143 66.019H188.164L176.813 100.832H172.261L161.387 66.019H165.609Z" fill="white"/>
<path d="M217.607 98.6602C217.607 108.821 214.138 114.971 204.287 114.971C194.999 114.971 192.42 109.56 192 105.172H196.006C196.608 108.809 199.408 111.49 204.375 111.49C211.985 111.49 213.698 106.244 213.698 98.3381V94.9061C212.109 98.9621 209.133 101.008 203.861 101.008C196.195 101.008 191.557 94.4911 191.557 83.5391C191.557 71.6611 197.183 65.3721 204.689 65.3721C209.929 65.3721 212.75 67.7312 213.603 70.6292C213.584 68.8562 213.756 66.8112 213.834 66.0192H217.724C217.655 67.6612 217.607 71.2422 217.607 75.9152V98.6602ZM195.727 83.5092C195.727 92.4642 199.1 97.3362 204.676 97.3362C211.511 97.3362 213.788 92.2132 213.788 83.1182C213.788 73.6312 211.726 69.0471 205.069 69.0471C199.016 69.0471 195.727 74.6062 195.727 83.5092Z" fill="white"/>
</svg>
