<svg width="266" height="332" viewBox="0 0 266 332" fill="none" xmlns="http://www.w3.org/2000/svg">
<path d="M0.308594 90.4338V295.413C0.308594 315.452 16.5474 331.714 36.5864 331.714H229.104C249.167 331.714 265.406 315.452 265.406 295.413V36.7429C265.406 16.7029 249.167 0.440918 229.104 0.440918H90.3254L19.1494 71.5919L0.308594 90.4338Z" fill="white"/>
<path d="M0.308594 90.4338L19.1494 71.5919L90.3254 0.440918H229.104C249.167 0.440918 265.405 16.7029 265.405 36.7429V121.102H0.308594V90.4338Z" fill="#5FB1E2"/>
<path d="M0.3125 90.4301L44.7405 100.244C64.3695 104.301 83.5765 91.6581 87.6335 72.0291L89.4885 61.843C88.8995 64.684 87.9534 67.396 86.7124 69.955C80.8384 82.073 68.4135 90.429 54.0435 90.429H0.3125V90.4301Z" fill="#D7D7D7"/>
<g opacity="0.4">
<path d="M0.3125 90.4301H54.0425C68.4125 90.4301 80.8374 82.0751 86.7114 69.9561C87.9524 67.3961 88.8996 64.685 89.4875 61.844C90.0506 59.362 90.3196 56.777 90.3196 54.127V0.436035L19.1475 71.594L0.3125 90.4301Z" fill="#EFEFEF"/>
</g>
<path d="M114.846 175.373H53.8789V186.51H114.846V175.373Z" fill="#5FB1E2"/>
<path d="M114.846 206.626H53.8789V217.764H114.846V206.626Z" fill="#5FB1E2"/>
<path d="M114.846 237.879H53.8789V249.017H114.846V237.879Z" fill="#5FB1E2"/>
<path d="M114.846 269.132H53.8789V280.27H114.846V269.132Z" fill="#5FB1E2"/>
<path d="M206.264 269.132H145.297V280.27H206.264V269.132Z" fill="#5FB1E2"/>
<path d="M211.833 247.478H139.729V175.374H211.833V247.478ZM150.865 236.34H200.695V186.51H150.865V236.34Z" fill="#5FB1E2"/>
<path d="M152.106 66.4009H157.701V56.2979H161.651V66.4009H168.676V69.8899H161.651V93.7739C161.651 96.7069 162.374 98.1539 165.281 98.1539C166.229 98.1539 167.487 98.0539 168.147 97.9159V101.134C167.031 101.558 165.35 101.688 164.177 101.688C160.173 101.688 157.7 100.135 157.7 94.7859V69.8909H152.105L152.106 66.4009Z" fill="white"/>
<path d="M177.043 66.4009C181.77 74.6779 184.09 78.4189 185.164 80.4219H185.233C186.563 78.0689 189.595 73.1559 193.665 66.4009H198.062L187.447 83.1619L198.211 101.214H193.569C189.425 93.9119 186.355 88.9218 185.079 86.5958H185.01C183.949 88.5998 180.908 93.8429 176.528 101.214H172.078L182.732 83.7499L172.469 66.4009H177.043Z" fill="white"/>
<path d="M200.739 66.4009H206.334V56.2979H210.284V66.4009H217.308V69.8899H210.284V93.7739C210.284 96.7069 211.007 98.1539 213.914 98.1539C214.862 98.1539 216.12 98.0539 216.78 97.9159V101.134C215.664 101.558 213.983 101.688 212.81 101.688C208.806 101.688 206.333 100.135 206.333 94.7859V69.8909H200.738L200.739 66.4009Z" fill="white"/>
</svg>
