<svg width="266" height="332" viewBox="0 0 266 332" fill="none" xmlns="http://www.w3.org/2000/svg">
<path d="M0.0234375 90.0511V295.03C0.0234375 315.069 16.2624 331.331 36.3014 331.331H228.818C248.881 331.331 265.119 315.069 265.119 295.03V36.3601C265.119 16.3211 248.881 0.0581055 228.818 0.0581055H90.0394L18.8644 71.2091L0.0234375 90.0511Z" fill="white"/>
<path d="M0.0234375 90.0511L18.8654 71.2091L90.0404 0.0581055H228.819C248.882 0.0581055 265.12 16.3211 265.12 36.3601V120.72H0.0244141L0.0234375 90.0511Z" fill="#4F87C2"/>
<path d="M0.0292969 90.047L44.4573 99.8621C64.0863 103.918 83.2932 91.275 87.3502 71.646L89.2052 61.46C88.6162 64.301 87.6692 67.013 86.4282 69.572C80.5542 81.69 68.1303 90.046 53.7603 90.046L0.0292969 90.047Z" fill="#D7D7D7"/>
<g opacity="0.4">
<path d="M0.0292969 90.047H53.7593C68.1293 90.047 80.5542 81.692 86.4272 69.573C87.6682 67.013 88.6152 64.3021 89.2042 61.4611C89.7672 58.9791 90.0363 56.394 90.0363 53.745V0.0529785L18.8652 71.2111L0.0292969 90.047Z" fill="#EFEFEF"/>
</g>
<path d="M88.8557 289.152C81.7937 289.152 74.2408 286.181 68.3168 280.427C62.5338 274.808 59.2188 267.459 59.2188 260.264C59.2188 254.581 61.3278 249.403 65.1598 245.68L106.948 205.076C115.81 196.465 131.646 197.843 142.249 208.144C144.76 210.584 146.81 213.341 148.342 216.339L138.426 221.408C137.447 219.497 136.122 217.72 134.487 216.131C128.269 210.093 119.211 208.686 114.708 213.064L72.9198 253.668C70.7998 255.728 70.3547 258.392 70.3547 260.264C70.3547 264.406 72.4928 268.957 76.0768 272.439C82.2908 278.479 91.3517 279.884 95.8557 275.508L121.748 250.35L129.509 258.338L103.617 283.495C99.7067 287.297 94.4357 289.152 88.8557 289.152Z" fill="#4F87C2"/>
<path d="M143.431 245.307C136.369 245.307 128.816 242.337 122.894 236.582C120.387 234.146 118.336 231.39 116.801 228.39L126.714 223.315C127.695 225.231 129.022 227.006 130.654 228.593C136.871 234.634 145.927 236.039 150.432 231.662L192.221 191.057C194.341 188.997 194.786 186.334 194.786 184.462C194.787 180.32 192.648 175.769 189.064 172.285C182.845 166.247 173.788 164.84 169.285 169.218L143.394 194.375L135.633 186.388L161.525 161.23C170.387 152.62 186.223 153.997 196.826 164.298C202.609 169.918 205.926 177.268 205.924 184.463C205.924 190.145 203.814 195.323 199.983 199.045L158.195 239.65C154.282 243.451 149.011 245.307 143.431 245.307Z" fill="#4F87C2"/>
<path d="M159.957 91.333C159.957 95.399 160.001 99.2031 160.071 100.831H156.256C156.07 99.8831 156.001 97.865 155.992 95.095C154.74 98.81 151.239 101.454 146.206 101.454C141.84 101.454 136.275 99.808 136.275 90.1V66.019H140.268V89.1689C140.268 94.0519 141.756 97.832 147.181 97.832C152.206 97.832 155.881 94.438 155.881 86.048V66.019H159.958L159.957 91.333Z" fill="white"/>
<path d="M169.802 77.8691C169.802 72.3951 169.763 67.8241 169.688 66.0181H173.602C173.683 67.4861 173.716 69.5241 173.716 73.1271C175.452 68.4071 179.389 65.5031 184.467 65.4031V69.6951C177.057 70.1101 173.779 75.3761 173.779 82.3201V100.83H169.802V77.8691Z" fill="white"/>
<path d="M190.516 100.831V50.7441H194.493V100.831H190.516Z" fill="white"/>
</svg>
