<svg width="266" height="332" viewBox="0 0 266 332" fill="none" xmlns="http://www.w3.org/2000/svg">
<path d="M0.0234375 90.4338V295.413C0.0234375 315.452 16.2624 331.714 36.3014 331.714H228.818C248.881 331.714 265.119 315.452 265.119 295.413V36.7429C265.119 16.7029 248.881 0.440918 228.818 0.440918H90.0394L18.8644 71.5919L0.0234375 90.4338Z" fill="white"/>
<path d="M0.0234375 90.4338L18.8654 71.5919L90.0404 0.440918H228.819C248.882 0.440918 265.12 16.7029 265.12 36.7429V121.102H0.0244141L0.0234375 90.4338Z" fill="#DB676A"/>
<path d="M0.0292969 90.4301L44.4573 100.244C64.0863 104.301 83.2932 91.6581 87.3502 72.0291L89.2052 61.843C88.6162 64.684 87.6692 67.396 86.4282 69.955C80.5542 82.073 68.1303 90.429 53.7603 90.429H0.0292969V90.4301Z" fill="#D7D7D7"/>
<g opacity="0.4">
<path d="M0.0292969 90.4301H53.7593C68.1293 90.4301 80.5542 82.0751 86.4272 69.9561C87.6682 67.3961 88.6152 64.685 89.2042 61.844C89.7672 59.362 90.0363 56.777 90.0363 54.127V0.436035L18.8652 71.594L0.0292969 90.4301Z" fill="#EFEFEF"/>
</g>
<path d="M125.42 286.384C116.446 286.385 108.673 280.491 107.361 272.157L98.7792 217.555C98.4762 215.628 97.0411 214.471 96.2131 213.952C94.5351 212.901 92.4101 212.512 90.2231 212.852C88.0721 213.191 86.1172 214.242 84.8582 215.737C84.2292 216.485 83.2191 218.026 83.5221 219.952L83.8901 222.298C85.3541 231.619 78.1881 240.515 67.9161 242.13L63.3511 242.847L61.6211 231.846L66.1862 231.128C70.3222 230.478 73.3902 227.226 72.8892 224.026L72.5201 221.682C71.7861 217.019 73.1421 212.36 76.3391 208.564C79.3441 204.995 83.6622 202.61 88.4932 201.85C93.3332 201.092 98.1671 202.037 102.122 204.51C106.329 207.143 109.049 211.161 109.782 215.825L118.364 270.425C118.867 273.623 122.788 275.778 126.921 275.127C131.057 274.477 134.127 271.226 133.624 268.025L119.489 178.095C118.755 173.433 120.111 168.774 123.308 164.977C126.313 161.408 130.631 159.024 135.462 158.264C140.295 157.505 145.136 158.449 149.091 160.925C153.299 163.558 156.018 167.575 156.751 172.239L166.343 233.262C166.646 235.189 168.081 236.346 168.909 236.864C170.591 237.916 172.715 238.304 174.899 237.964C179.035 237.314 182.105 234.063 181.602 230.863L181.096 227.653C179.631 218.331 186.799 209.434 197.071 207.82L201.798 207.077L203.526 218.081L198.801 218.823C194.667 219.472 191.596 222.723 192.099 225.923L192.605 229.134C194.07 238.456 186.903 247.352 176.63 248.966C171.797 249.729 166.958 248.781 163.001 246.306C158.793 243.673 156.074 239.655 155.341 234.992L145.749 173.969C145.446 172.042 144.011 170.885 143.183 170.367C141.502 169.314 139.374 168.927 137.193 169.266C135.042 169.604 133.087 170.656 131.828 172.151C131.198 172.898 130.188 174.439 130.491 176.366L144.626 266.298C146.091 275.618 138.924 284.515 128.651 286.129C127.563 286.302 126.483 286.384 125.42 286.384Z" fill="#DB676A"/>
<path d="M123.937 66.4009C128.183 82.9089 130.562 92.1918 131.401 96.9968H131.479C132.315 92.7178 133.981 86.9679 139.437 66.4009H143.54C148.799 86.7469 150.471 93.0049 151.053 96.7559H151.122C151.835 92.8269 153.898 85.2929 158.92 66.4009H163.065L153.148 101.214H148.753C145.685 89.4269 142.354 76.8459 141.339 71.3469H141.27C140.407 76.6179 137.267 87.8189 133.565 101.214H128.961L119.658 66.4009H123.937Z" fill="white"/>
<path d="M190.069 94.6469C190.069 97.0589 190.308 99.8989 190.52 101.213H186.791C186.581 100.098 186.354 98.2289 186.349 95.8889C185.073 99.4459 181.75 101.836 176.354 101.836C168.53 101.836 166.146 96.1948 166.146 91.5118C166.146 86.2828 169.49 80.5819 180.928 80.5819C183.214 80.5819 184.665 80.5819 186.136 80.6279V76.4259C186.136 73.0899 185.292 69.1559 179.094 69.1559C173.441 69.1559 171.982 72.2588 171.456 75.9388H167.529C167.957 70.3428 170.988 65.7529 179.26 65.7529C185.968 65.7529 190.068 68.8158 190.068 75.9758L190.069 94.6469ZM186.235 83.9209C184.997 83.8719 183.122 83.8508 180.954 83.8508C172.436 83.8508 170.256 87.4979 170.256 91.3259C170.256 95.1219 172.475 98.2899 177.003 98.2899C183.773 98.2899 186.234 93.6749 186.234 85.1709L186.235 83.9209Z" fill="white"/>
<path d="M199.257 66.4009C203.802 80.9469 207.398 92.9248 208.331 97.1108H208.4C208.969 93.7168 215.944 72.2689 217.791 66.4009H221.812L210.461 101.214H205.909L195.035 66.4009H199.257Z" fill="white"/>
</svg>
