<svg width="266" height="332" viewBox="0 0 266 332" fill="none" xmlns="http://www.w3.org/2000/svg">
<path d="M0.878906 90.0511V295.03C0.878906 315.069 17.118 331.331 37.157 331.331H229.674C249.737 331.331 265.976 315.069 265.976 295.03V36.3601C265.976 16.3211 249.737 0.0581055 229.674 0.0581055H90.896L19.7209 71.2091L0.878906 90.0511Z" fill="white"/>
<path d="M0.878906 90.0511L19.7209 71.2091L90.896 0.0581055H229.674C249.737 0.0581055 265.975 16.3211 265.975 36.3601V120.72H0.878906V90.0511Z" fill="#5FB1E2"/>
<path d="M0.884766 90.047L45.3127 99.8621C64.9417 103.918 84.1488 91.275 88.2058 71.646L90.0608 61.46C89.4718 64.301 88.5257 67.013 87.2847 69.572C81.4107 81.69 68.9857 90.046 54.6157 90.046L0.884766 90.047Z" fill="#D7D7D7"/>
<g opacity="0.4">
<path d="M0.884766 90.047H54.6147C68.9847 90.047 81.4097 81.692 87.2837 69.573C88.5247 67.013 89.4718 64.3021 90.0598 61.4611C90.6228 58.9791 90.8918 56.394 90.8918 53.745V0.0529785L19.7197 71.2111L0.884766 90.047Z" fill="#EFEFEF"/>
</g>
<path d="M220.139 273.312H46.7148V176.236H220.139V273.312ZM57.8528 262.174H209.001V187.373H57.8528V262.174Z" fill="#5FB1E2"/>
<path d="M106.605 181.804H95.4668V267.743H106.605V181.804Z" fill="#5FB1E2"/>
<path d="M214.57 219.204H52.2832V230.342H214.57V219.204Z" fill="#5FB1E2"/>
<path d="M153.612 66.019C158.339 74.296 160.658 78.037 161.732 80.04H161.802C163.132 77.687 166.164 72.774 170.234 66.019H174.631L164.016 82.78L174.78 100.832H170.137C165.993 93.53 162.923 88.54 161.647 86.214H161.579C160.518 88.218 157.476 93.461 153.096 100.832H148.646L159.301 83.368L149.038 66.019H153.612Z" fill="white"/>
<path d="M180.215 100.831V50.7441H184.193V100.831H180.215Z" fill="white"/>
<path d="M194.956 91.0491C195.56 95.4701 198.534 98.0741 202.985 98.0741C208.075 98.0741 210.089 95.0852 210.089 91.6802C210.089 87.9412 207.824 86.0301 202.148 84.2981C194.513 81.9631 192.285 79.1411 192.285 74.5221C192.285 69.8621 195.423 65.3691 202.695 65.3691C210.406 65.3691 213.135 70.0652 213.464 75.0292H209.507C209.018 72.2832 207.783 68.7491 202.526 68.7491C198.219 68.7491 196.349 71.0581 196.349 74.2731C196.349 77.2551 197.594 78.8361 203.45 80.6271C211.267 83.0241 214.166 85.6671 214.166 91.3911C214.166 97.5351 209.747 101.454 202.807 101.454C196.174 101.454 191.452 97.9311 190.953 91.0491H194.956Z" fill="white"/>
</svg>
