<svg width="266" height="332" viewBox="0 0 266 332" fill="none" xmlns="http://www.w3.org/2000/svg">
<path d="M0.878906 90.4338V295.413C0.878906 315.452 17.118 331.714 37.157 331.714H229.674C249.737 331.714 265.976 315.452 265.976 295.413V36.7429C265.976 16.7029 249.737 0.440918 229.674 0.440918H90.896L19.7209 71.5919L0.878906 90.4338Z" fill="white"/>
<path d="M0.878906 90.4338L19.7209 71.5919L90.896 0.440918H229.674C249.737 0.440918 265.975 16.7029 265.975 36.7429V121.102H0.878906V90.4338Z" fill="#6972B1"/>
<path d="M0.884766 90.4301L45.3127 100.244C64.9417 104.301 84.1488 91.6581 88.2058 72.0291L90.0608 61.843C89.4718 64.684 88.5257 67.396 87.2847 69.955C81.4107 82.073 68.9857 90.429 54.6157 90.429H0.884766V90.4301Z" fill="#D7D7D7"/>
<g opacity="0.4">
<path d="M0.884766 90.4301H54.6147C68.9847 90.4301 81.4097 82.0751 87.2837 69.9561C88.5247 67.3961 89.4718 64.685 90.0598 61.844C90.6228 59.362 90.8918 56.777 90.8918 54.127V0.436035L19.7197 71.594L0.884766 90.4301Z" fill="#EFEFEF"/>
</g>
<path d="M91.2009 254.153L57.9609 220.915L91.2 187.676L99.0759 195.552L73.7122 220.915L99.075 246.277L91.2009 254.153Z" fill="#6972B1"/>
<path d="M175.651 298.708L167.775 290.832L193.14 265.469L167.776 240.105L175.65 232.229L208.891 265.469L175.651 298.708Z" fill="#6972B1"/>
<path d="M156.082 200.983L145.721 196.902L110.942 285.191L121.303 289.273L156.082 200.983Z" fill="#6972B1"/>
<path d="M133.321 66.4009C138.048 74.6779 140.368 78.4189 141.442 80.4219H141.51C142.84 78.0689 145.873 73.1559 149.943 66.4009H154.34L143.725 83.1619L154.489 101.214H149.846C145.702 93.9119 142.632 88.9218 141.356 86.5958H141.288C140.227 88.5998 137.185 93.8429 132.805 101.214H128.355L139.01 83.7499L128.747 66.4009H133.321Z" fill="white"/>
<path d="M159.857 77.1069C159.857 71.2249 159.813 68.0009 159.744 66.4009H163.652C163.757 67.3849 163.847 70.1549 163.814 71.5419C165.252 68.4229 168.043 65.7549 172.912 65.7549C177.123 65.7549 180.043 67.5439 181.297 71.7029C182.697 68.5109 185.859 65.7549 190.891 65.7549C195.571 65.7549 200.348 68.0709 200.348 76.8779V101.214H196.394V77.6168C196.394 73.1968 195.061 69.4288 189.959 69.4288C184.362 69.4288 182.12 74.4018 182.12 79.8298V101.213H178.202V77.4479C178.202 72.6499 176.429 69.4369 171.922 69.4369C166.861 69.4369 163.82 73.8239 163.82 80.4749V101.212H159.857V77.1069Z" fill="white"/>
<path d="M210.355 101.214V51.127H214.333V101.214H210.355Z" fill="white"/>
</svg>
