<svg width="266" height="332" viewBox="0 0 266 332" fill="none" xmlns="http://www.w3.org/2000/svg">
<path d="M0.878906 90.668V295.647C0.878906 315.687 17.118 331.948 37.157 331.948H229.674C249.737 331.948 265.976 315.687 265.976 295.647V36.977C265.976 16.938 249.737 0.676025 229.674 0.676025H90.896L19.7209 71.827L0.878906 90.668Z" fill="white"/>
<path d="M0.878906 90.668L19.7209 71.827L90.896 0.676025H229.674C249.737 0.676025 265.975 16.938 265.975 36.977V121.337H0.878906V90.668Z" fill="#EEB443"/>
<path d="M0.884766 90.6649L45.3127 100.48C64.9417 104.536 84.1488 91.8939 88.2058 72.2649L90.0608 62.0789C89.4718 64.9199 88.5257 67.6329 87.2847 70.1919C81.4107 82.3099 68.9857 90.6659 54.6157 90.6659H0.884766V90.6649Z" fill="#D7D7D7"/>
<g opacity="0.4">
<path d="M0.884766 90.6649H54.6147C68.9847 90.6649 81.4097 82.3099 87.2837 70.1909C88.5247 67.6319 89.4718 64.9189 90.0598 62.0779C90.6228 59.5959 90.8918 57.0109 90.8918 54.3619V0.669922L19.7197 71.8289L0.884766 90.6649Z" fill="#EFEFEF"/>
</g>
<path d="M193.679 129.219H171.35V151.55H193.679V129.219Z" fill="#EEB443"/>
<path d="M216.01 151.549H193.68V173.88H216.01V151.549Z" fill="#EEB443"/>
<path d="M193.679 173.88H171.35V196.211H193.679V173.88Z" fill="#EEB443"/>
<path d="M216.01 196.211H193.68V218.542H216.01V196.211Z" fill="#EEB443"/>
<path d="M193.679 218.542H171.35V240.873H193.679V218.542Z" fill="#EEB443"/>
<path d="M171.35 251.957V318.103H216.011V251.957H171.35ZM204.85 284.536H182.512V262.2H204.85V284.536Z" fill="#EEB443"/>
<path d="M145.832 98.1718C150.925 90.8178 158.272 79.1848 164.228 70.2178H146.927V66.6348H168.852V70.0887C163.457 78.1397 156.449 89.1388 150.532 97.8738H169.338L168.601 101.448H145.832V98.1718Z" fill="white"/>
<path d="M175.51 66.6358H179.488V101.449H175.51V66.6358ZM175.513 51.3608H179.491V58.2758H175.513V51.3608Z" fill="white"/>
<path d="M193.475 97.0018V115.033H189.502V76.9228C189.502 72.1338 189.509 68.7668 189.395 66.6348H193.312C193.391 67.6358 193.463 70.3628 193.468 72.3538C195.155 68.5558 198.426 65.9878 203.719 65.9878C211.056 65.9878 215.662 72.1218 215.662 83.4658C215.662 95.4028 210.163 102.035 202.525 102.035C197.534 102.036 194.86 99.7968 193.475 97.0018ZM211.51 83.6568C211.51 74.8298 208.441 69.6248 202.644 69.6248C195.436 69.6248 193.302 75.3588 193.302 84.1198C193.302 92.3398 194.556 98.4118 202.237 98.4118C208.08 98.4118 211.51 92.8208 211.51 83.6568Z" fill="white"/>
</svg>
