<svg width="13" height="13" viewBox="0 0 13 13" fill="none" xmlns="http://www.w3.org/2000/svg">
<path d="M6.45 0C5.17431 0 3.92728 0.378286 2.86658 1.08702C1.80588 1.79576 0.979171 2.80311 0.490986 3.98169C0.0028007 5.16028 -0.124939 6.45716 0.123936 7.70833C0.37281 8.95951 0.987115 10.1088 1.88916 11.0108C2.79121 11.9129 3.94049 12.5272 5.19167 12.7761C6.44285 13.0249 7.73973 12.8972 8.91831 12.409C10.0969 11.9208 11.1042 11.0941 11.813 10.0334C12.5217 8.97273 12.9 7.72569 12.9 6.45C12.9 5.60297 12.7332 4.76424 12.409 3.98169C12.0849 3.19914 11.6098 2.4881 11.0108 1.88916C10.4119 1.29022 9.70086 0.81512 8.91831 0.490977C8.13576 0.166834 7.29703 0 6.45 0ZM6.45 12C5.34243 12 4.25973 11.6716 3.33881 11.0562C2.41789 10.4409 1.70013 9.56629 1.27628 8.54303C0.852429 7.51976 0.741538 6.39379 0.957615 5.30749C1.17369 4.2212 1.70703 3.22338 2.49021 2.4402C3.27338 1.65703 4.27121 1.12368 5.3575 0.907602C6.4438 0.691525 7.56977 0.802424 8.59304 1.22627C9.6163 1.65013 10.4909 2.36789 11.1062 3.28881C11.7216 4.20972 12.05 5.29242 12.05 6.4C12.0566 7.1396 11.9166 7.87318 11.6382 8.55839C11.3597 9.24359 10.9483 9.86685 10.4276 10.3922C9.90692 10.9175 9.28735 11.3344 8.60465 11.619C7.92195 11.9035 7.18963 12.05 6.45 12.05V12Z" fill="black"/>
<path d="M6.58 3.88998C6.5409 3.85007 6.49422 3.81836 6.4427 3.79671C6.39119 3.77507 6.33588 3.76392 6.28 3.76392C6.22412 3.76392 6.16881 3.77507 6.11729 3.79671C6.06578 3.81836 6.0191 3.85007 5.98 3.88998C5.90181 3.97027 5.85806 4.07791 5.85806 4.18998C5.85806 4.30205 5.90181 4.40969 5.98 4.48998L7.52 6.01998H4.36C4.29872 6.01055 4.23614 6.01449 4.17653 6.03151C4.11692 6.04854 4.06169 6.07825 4.01463 6.11862C3.96758 6.15899 3.92981 6.20906 3.90392 6.26539C3.87802 6.32172 3.86462 6.38298 3.86462 6.44498C3.86462 6.50697 3.87802 6.56824 3.90392 6.62457C3.92981 6.6809 3.96758 6.73096 4.01463 6.77133C4.06169 6.8117 4.11692 6.84142 4.17653 6.85844C4.23614 6.87547 4.29872 6.8794 4.36 6.86998H7.52L5.98 8.40998C5.90181 8.49027 5.85806 8.59791 5.85806 8.70998C5.85806 8.82205 5.90181 8.92969 5.98 9.00998C6.0622 9.08494 6.16878 9.12757 6.28 9.12998C6.33545 9.13077 6.39051 9.12058 6.442 9.09998C6.49349 9.07939 6.5404 9.04879 6.58 9.00998L8.84 6.76998C8.87991 6.73087 8.91163 6.6842 8.93327 6.63268C8.95492 6.58117 8.96606 6.52585 8.96606 6.46998C8.96606 6.4141 8.95492 6.35879 8.93327 6.30727C8.91163 6.25576 8.87991 6.20908 8.84 6.16998L6.58 3.88998Z" fill="black"/>
</svg>
