<svg width="5" height="5" viewBox="0 0 5 5" fill="none" xmlns="http://www.w3.org/2000/svg">
<g clip-path="url(#clip0_816_1419)">
<path d="M2.93999 2.22999L4.30999 0.849993C4.35782 0.805103 4.39595 0.750885 4.42201 0.690687C4.44807 0.63049 4.46151 0.565589 4.46151 0.499993C4.46151 0.434396 4.44807 0.369496 4.42201 0.309298C4.39595 0.2491 4.35782 0.194883 4.30999 0.149993C4.2651 0.102162 4.21089 0.0640397 4.15069 0.0379795C4.09049 0.0119192 4.02559 -0.00152588 3.95999 -0.00152588C3.8944 -0.00152588 3.8295 0.0119192 3.7693 0.0379795C3.7091 0.0640397 3.65488 0.102162 3.60999 0.149993L2.22999 1.51999L0.849993 0.149993C0.805103 0.102162 0.750885 0.0640397 0.690687 0.0379795C0.63049 0.0119192 0.565589 -0.00152588 0.499993 -0.00152588C0.434396 -0.00152588 0.369496 0.0119192 0.309298 0.0379795C0.2491 0.0640397 0.194883 0.102162 0.149993 0.149993C0.102162 0.194883 0.0640397 0.2491 0.0379795 0.309298C0.0119192 0.369496 -0.00152588 0.434396 -0.00152588 0.499993C-0.00152588 0.565589 0.0119192 0.63049 0.0379795 0.690687C0.0640397 0.750885 0.102162 0.805103 0.149993 0.849993L1.51999 2.22999L0.149993 3.59999C0.103129 3.64647 0.0659314 3.70178 0.0405471 3.7627C0.0151627 3.82363 0.0020936 3.88899 0.0020936 3.95499C0.0020936 4.021 0.0151627 4.08635 0.0405471 4.14728C0.0659314 4.20821 0.103129 4.26351 0.149993 4.30999C0.194639 4.35803 0.248843 4.39619 0.309121 4.42203C0.3694 4.44786 0.434417 4.46079 0.499993 4.45999C0.565569 4.46079 0.630586 4.44786 0.690864 4.42203C0.751142 4.39619 0.805347 4.35803 0.849993 4.30999L2.22999 2.93999L3.60999 4.30999C3.65903 4.36338 3.71975 4.4047 3.78741 4.43072C3.85506 4.45674 3.92782 4.46676 3.99999 4.45999C4.06539 4.45961 4.13005 4.44614 4.19016 4.42038C4.25027 4.39462 4.30462 4.35709 4.34999 4.30999C4.39686 4.26351 4.43405 4.20821 4.45944 4.14728C4.48482 4.08635 4.49789 4.021 4.49789 3.95499C4.49789 3.88899 4.48482 3.82363 4.45944 3.7627C4.43405 3.70178 4.39686 3.64647 4.34999 3.59999L2.93999 2.22999Z" fill="black"/>
</g>
<defs>
<clipPath id="clip0_816_1419">
<rect width="4.46" height="4.46" fill="white"/>
</clipPath>
</defs>
</svg>
