<svg width="13" height="13" viewBox="0 0 13 13" fill="none" xmlns="http://www.w3.org/2000/svg">
<path d="M8.95461 3.10606H11.3546L9.81461 4.63606C9.73643 4.71635 9.69267 4.82399 9.69267 4.93606C9.69267 5.04813 9.73643 5.15577 9.81461 5.23606C9.85303 5.27715 9.89948 5.30989 9.95109 5.33226C10.0027 5.35462 10.0584 5.36613 10.1146 5.36606C10.1711 5.36739 10.2271 5.35646 10.2789 5.33402C10.3307 5.31157 10.377 5.27815 10.4146 5.23606L12.6746 2.98606C12.7148 2.9461 12.7467 2.89858 12.7685 2.84623C12.7903 2.79389 12.8015 2.73775 12.8015 2.68106C12.8015 2.62437 12.7903 2.56823 12.7685 2.51589C12.7467 2.46355 12.7148 2.41602 12.6746 2.37606L10.4146 0.126061C10.3755 0.0861494 10.3288 0.0544419 10.2773 0.0327958C10.2258 0.0111496 10.1705 0 10.1146 0C10.0587 0 10.0034 0.0111496 9.95191 0.0327958C9.9004 0.0544419 9.85372 0.0861494 9.81461 0.126061C9.73643 0.20635 9.69267 0.313991 9.69267 0.426061C9.69267 0.538131 9.73643 0.645773 9.81461 0.726061L11.3546 2.25606H8.95461C8.64484 2.26529 8.343 2.35615 8.07961 2.51945C7.81622 2.68275 7.60062 2.91271 7.45461 3.18606L5.69462 6.18606L3.92461 9.18606C3.86309 9.33264 3.76426 9.46054 3.63793 9.55704C3.51161 9.65353 3.36221 9.71526 3.20461 9.73606H0.364616C0.263099 9.75168 0.170517 9.80312 0.103638 9.88107C0.0367585 9.95903 0 10.0583 0 10.1611C0 10.2638 0.0367585 10.3631 0.103638 10.441C0.170517 10.519 0.263099 10.5704 0.364616 10.5861H3.20461C3.51438 10.5768 3.81622 10.486 4.07961 10.3227C4.343 10.1594 4.5586 9.92941 4.70461 9.65606L6.46461 6.65606L8.23461 3.65606C8.29527 3.50891 8.39386 3.38047 8.52035 3.28385C8.64683 3.18723 8.79669 3.12588 8.95461 3.10606Z" fill="black"/>
<path d="M0.324615 3.10604H3.20461C3.36505 3.11634 3.51989 3.16896 3.65339 3.25854C3.78689 3.34812 3.89427 3.47148 3.96461 3.61604L4.73461 4.92604C4.772 4.99082 4.82601 5.04444 4.89106 5.08136C4.95611 5.11828 5.02982 5.13715 5.10461 5.13604C5.17889 5.13645 5.25176 5.11563 5.31461 5.07604C5.36374 5.049 5.40695 5.0124 5.4417 4.96838C5.47646 4.92437 5.50205 4.87385 5.51696 4.81979C5.53187 4.76573 5.5358 4.70924 5.52853 4.65363C5.52125 4.59803 5.50293 4.54445 5.47462 4.49604L4.70461 3.18604C4.5586 2.91269 4.343 2.68273 4.07961 2.51943C3.81622 2.35613 3.51438 2.26527 3.20461 2.25604H0.364616C0.263099 2.27166 0.170517 2.3231 0.103638 2.40106C0.0367585 2.47901 0 2.57833 0 2.68104C0 2.78375 0.0367585 2.88307 0.103638 2.96103C0.170517 3.03898 0.263099 3.09042 0.364616 3.10604H0.324615Z" fill="black"/>
<path d="M10.4146 7.59603C10.3755 7.55612 10.3288 7.52441 10.2773 7.50277C10.2258 7.48112 10.1705 7.46997 10.1146 7.46997C10.0587 7.46997 10.0034 7.48112 9.95189 7.50277C9.90037 7.52441 9.85369 7.55612 9.81459 7.59603C9.7364 7.67632 9.69264 7.78396 9.69264 7.89603C9.69264 8.0081 9.7364 8.11574 9.81459 8.19603L11.3546 9.73603H8.95459C8.79387 9.72676 8.63858 9.67456 8.50491 9.58485C8.37124 9.49515 8.26408 9.37124 8.19459 9.22603L7.42459 7.90603C7.36217 7.81943 7.26978 7.75915 7.16537 7.7369C7.06097 7.71465 6.95201 7.73204 6.85971 7.78567C6.76741 7.8393 6.69837 7.92535 6.666 8.02707C6.63363 8.1288 6.64025 8.23892 6.68458 8.33603L7.45459 9.65603C7.6006 9.92939 7.8162 10.1593 8.07959 10.3226C8.34298 10.4859 8.64482 10.5768 8.95459 10.586H11.3546L9.81459 12.116C9.7364 12.1963 9.69264 12.304 9.69264 12.416C9.69264 12.5281 9.7364 12.6357 9.81459 12.716C9.89575 12.7926 10.003 12.8355 10.1146 12.836C10.17 12.8368 10.2251 12.8266 10.2766 12.806C10.3281 12.7854 10.375 12.7548 10.4146 12.716L12.6746 10.456C12.7145 10.4169 12.7462 10.3702 12.7679 10.3187C12.7895 10.2672 12.8006 10.2119 12.8006 10.156C12.8006 10.1002 12.7895 10.0448 12.7679 9.99333C12.7462 9.94181 12.7145 9.89514 12.6746 9.85603L10.4146 7.59603Z" fill="black"/>
</svg>
