<svg width="10" height="12" viewBox="0 0 10 12" fill="none" xmlns="http://www.w3.org/2000/svg">
<g clip-path="url(#clip0_816_1353)">
<path d="M5.46 6.85C6.59361 6.68255 7.62962 6.11425 8.38004 5.24824C9.13046 4.38223 9.54556 3.2759 9.55 2.13V0.4C9.55 0.293913 9.50786 0.192172 9.43284 0.117157C9.35783 0.0421427 9.25609 0 9.15 0L0.4 0C0.293913 0 0.192172 0.0421427 0.117157 0.117157C0.0421427 0.192172 0 0.293913 0 0.4L0 2.13C0.00444513 3.2759 0.419541 4.38223 1.16996 5.24824C1.92038 6.11425 2.95639 6.68255 4.09 6.85H4.49V11H1.17C1.06391 11 0.962172 11.0421 0.887157 11.1172C0.812143 11.1922 0.77 11.2939 0.77 11.4C0.77 11.5061 0.812143 11.6078 0.887157 11.6828C0.962172 11.7579 1.06391 11.8 1.17 11.8H8.61C8.71609 11.8 8.81783 11.7579 8.89284 11.6828C8.96786 11.6078 9.01 11.5061 9.01 11.4C9.01 11.2939 8.96786 11.1922 8.89284 11.1172C8.81783 11.0421 8.71609 11 8.61 11H5.29V6.87L5.46 6.85ZM8.75 2.13C8.73827 3.04492 8.41322 3.92815 7.82907 4.63241C7.24492 5.33667 6.43698 5.81936 5.54 6L6.24 4.39C6.28121 4.30286 6.28869 4.20354 6.26099 4.1112C6.23329 4.01887 6.17238 3.94007 6.09 3.89L4 2.62L5.87 0.8H8.75V2.13ZM0.8 2.13V0.8H4.73L3.11 2.41C3.06859 2.45358 3.03728 2.50573 3.01827 2.56276C2.99926 2.61978 2.99302 2.68029 3 2.74C3.00958 2.79372 3.03061 2.84475 3.06167 2.88961C3.09273 2.93448 3.13309 2.97213 3.18 3L5.37 4.4L4.63 6.09C4.49017 6.09981 4.34983 6.09981 4.21 6.09C3.26121 5.94851 2.39487 5.47076 1.76892 4.74384C1.14297 4.01693 0.7991 3.08928 0.8 2.13Z" fill="black"/>
</g>
<defs>
<clipPath id="clip0_816_1353">
<rect width="9.55" height="11.83" fill="white"/>
</clipPath>
</defs>
</svg>
