<svg width="13" height="14" viewBox="0 0 13 14" fill="none" xmlns="http://www.w3.org/2000/svg">
<path d="M12.24 5.21993H11.65C11.5667 5.21884 11.4858 5.19243 11.4179 5.14419C11.35 5.09596 11.2984 5.0282 11.27 4.94993C11.1947 4.74041 11.1045 4.53656 11 4.33993C10.9666 4.26724 10.9564 4.18604 10.9707 4.10733C10.985 4.02862 11.0231 3.95622 11.08 3.89993L11.51 3.46993C11.6416 3.33642 11.7168 3.15738 11.72 2.96993C11.7143 2.78597 11.6393 2.61095 11.51 2.47993L10.57 1.53993C10.5055 1.47216 10.428 1.4182 10.342 1.38132C10.2561 1.34445 10.1635 1.32543 10.07 1.32543C9.97647 1.32543 9.88392 1.34445 9.79797 1.38132C9.71201 1.4182 9.63445 1.47216 9.57 1.53993L9.14 1.97993C9.08101 2.03599 9.00634 2.07272 8.92593 2.08523C8.84553 2.09773 8.76323 2.08542 8.69 2.04993C8.49369 1.9504 8.2897 1.8668 8.08 1.79993C8.00329 1.77213 7.93661 1.72207 7.88851 1.65615C7.84041 1.59024 7.81308 1.51147 7.81 1.42993V0.819934C7.81132 0.728484 7.79446 0.637683 7.76038 0.552811C7.72629 0.467938 7.67568 0.390688 7.61147 0.325553C7.54727 0.260418 7.47076 0.208697 7.38638 0.173397C7.30201 0.138098 7.21146 0.119924 7.12 0.119934H5.81C5.71854 0.119924 5.62799 0.138098 5.54362 0.173397C5.45924 0.208697 5.38273 0.260418 5.31853 0.325553C5.25432 0.390688 5.20371 0.467938 5.16962 0.552811C5.13554 0.637683 5.11868 0.728484 5.12 0.819934V1.42993C5.11693 1.51147 5.08959 1.59024 5.04149 1.65615C4.99339 1.72207 4.92671 1.77213 4.85 1.79993C4.6403 1.8668 4.43631 1.9504 4.24 2.04993C4.16677 2.08542 4.08447 2.09773 4.00407 2.08523C3.92366 2.07272 3.84899 2.03599 3.79 1.97993L3.36 1.53993C3.22702 1.40803 3.0473 1.33402 2.86 1.33402C2.6727 1.33402 2.49298 1.40803 2.36 1.53993L1.42 2.47993C1.35222 2.54439 1.29826 2.62195 1.26139 2.7079C1.22452 2.79385 1.2055 2.88641 1.2055 2.97993C1.2055 3.07346 1.22452 3.16602 1.26139 3.25197C1.29826 3.33792 1.35222 3.41548 1.42 3.47993L1.85 3.89993C1.90572 3.95929 1.94146 4.0346 1.95222 4.1153C1.96298 4.196 1.94822 4.27805 1.91 4.34993C1.81641 4.54891 1.73297 4.7525 1.66 4.95993C1.63158 5.0382 1.57999 5.10596 1.51211 5.15419C1.44423 5.20243 1.36326 5.22884 1.28 5.22993H0.690002C0.511168 5.23233 0.340028 5.30308 0.211716 5.42767C0.0834033 5.55227 0.00764904 5.72125 3.80506e-09 5.89993V7.24993C-9.6018e-06 7.34139 0.0181674 7.43194 0.0534668 7.51632C0.0887662 7.60069 0.140484 7.6772 0.20562 7.74141C0.270755 7.80561 0.348004 7.85623 0.432877 7.89031C0.517749 7.92439 0.608547 7.94126 0.699997 7.93993H1.28C1.36447 7.94176 1.44632 7.96965 1.51434 8.01977C1.58236 8.06989 1.63323 8.1398 1.66 8.21993C1.73201 8.43245 1.81889 8.63963 1.92 8.83993C1.95328 8.91195 1.96439 8.99223 1.95193 9.07058C1.93946 9.14893 1.90398 9.2218 1.85 9.27993L1.43 9.69993C1.36091 9.76361 1.30577 9.84092 1.26806 9.92698C1.23034 10.013 1.21087 10.106 1.21087 10.1999C1.21087 10.2939 1.23034 10.3868 1.26806 10.4729C1.30577 10.5589 1.36091 10.6363 1.43 10.6999L2.37 11.6399C2.43446 11.7077 2.51202 11.7617 2.59797 11.7985C2.68392 11.8354 2.77647 11.8544 2.87 11.8544C2.96353 11.8544 3.05608 11.8354 3.14204 11.7985C3.22799 11.7617 3.30555 11.7077 3.37 11.6399L3.78 11.2299C3.83578 11.1721 3.90889 11.1339 3.98828 11.1213C4.06767 11.1087 4.14901 11.1222 4.22 11.1599C4.43 11.2599 4.63 11.3399 4.85 11.4199C4.93014 11.4467 5.00005 11.4976 5.05017 11.5656C5.10029 11.6336 5.12817 11.7155 5.13 11.7999V12.3699C5.13 12.5529 5.2027 12.7284 5.3321 12.8578C5.4615 12.9872 5.637 13.0599 5.82 13.0599H7.15C7.333 13.0599 7.5085 12.9872 7.6379 12.8578C7.7673 12.7284 7.84 12.5529 7.84 12.3699V11.7999C7.84033 11.7151 7.86764 11.6325 7.91798 11.5642C7.96831 11.4959 8.03906 11.4454 8.12 11.4199C8.33 11.3399 8.54 11.2599 8.74 11.1599C8.8125 11.1214 8.89553 11.1074 8.97665 11.1201C9.05777 11.1327 9.13262 11.1712 9.19 11.2299L9.6 11.6399C9.66445 11.7077 9.74201 11.7617 9.82796 11.7985C9.91392 11.8354 10.0065 11.8544 10.1 11.8544C10.1935 11.8544 10.2861 11.8354 10.372 11.7985C10.458 11.7617 10.5355 11.7077 10.6 11.6399L11.54 10.6999C11.6065 10.6348 11.6594 10.557 11.6954 10.4711C11.7315 10.3853 11.7501 10.2931 11.7501 10.1999C11.7501 10.1068 11.7315 10.0146 11.6954 9.92876C11.6594 9.8429 11.6065 9.76511 11.54 9.69993L11.12 9.27993C11.0576 9.22755 11.0126 9.15735 10.9911 9.07871C10.9697 9.00008 10.9728 8.91677 11 8.83993C11.1011 8.63963 11.188 8.43245 11.26 8.21993C11.2787 8.12822 11.329 8.04598 11.4021 7.98751C11.4751 7.92904 11.5664 7.89805 11.66 7.89993H12.24C12.423 7.89993 12.5985 7.82724 12.7279 7.69784C12.8573 7.56844 12.93 7.39293 12.93 7.20993V5.89993C12.9249 5.71949 12.8502 5.548 12.7216 5.42129C12.5931 5.29458 12.4205 5.22244 12.24 5.21993ZM12.13 7.13993H11.66C11.4079 7.13957 11.1622 7.21858 10.9575 7.36577C10.7529 7.51296 10.5998 7.72084 10.52 7.95993C10.4632 8.1398 10.3895 8.3139 10.3 8.47993C10.1798 8.7097 10.1372 8.97223 10.1786 9.22822C10.2201 9.48421 10.3434 9.71988 10.53 9.89993L10.87 10.2399L10.08 11.0299L9.74 10.6899C9.56574 10.5141 9.3402 10.3981 9.09582 10.3585C8.85144 10.319 8.60081 10.358 8.38 10.4699C8.20775 10.5535 8.03079 10.627 7.85 10.6899C7.61397 10.7631 7.40599 10.9068 7.25404 11.1016C7.10208 11.2965 7.01343 11.5332 7 11.7799V12.2399H5.92V11.7799C5.91887 11.5282 5.83928 11.2831 5.6923 11.0788C5.54532 10.8745 5.33827 10.7211 5.1 10.6399C4.91921 10.577 4.74224 10.5035 4.57 10.4199C4.34633 10.3131 4.09542 10.2769 3.85068 10.3162C3.60593 10.3555 3.37897 10.4684 3.2 10.6399L2.87 10.9799L2.08 10.1899L2.42 9.84993C2.59667 9.67409 2.71312 9.44681 2.75265 9.20069C2.79217 8.95457 2.75273 8.70226 2.64 8.47993C2.55973 8.31093 2.48961 8.13729 2.43 7.95993C2.34887 7.72166 2.19546 7.51462 1.99113 7.36764C1.78679 7.22066 1.5417 7.14106 1.29 7.13993H0.82V6.02993H1.3C1.55171 6.0288 1.79679 5.94921 2.00112 5.80223C2.20546 5.65525 2.35888 5.44821 2.44 5.20993C2.49962 5.03584 2.56975 4.86553 2.65 4.69993C2.76274 4.47761 2.80216 4.2253 2.76264 3.97918C2.72312 3.73306 2.60667 3.50578 2.43 3.32993L2.08 2.96993L2.87 2.18993L3.23 2.54993C3.40665 2.72184 3.63195 2.83518 3.87528 2.87455C4.11861 2.91391 4.36816 2.87738 4.59 2.76993C4.76 2.68993 4.93 2.60993 5.1 2.54993C5.3375 2.47385 5.54478 2.32448 5.6921 2.12326C5.83942 1.92204 5.91921 1.67932 5.92 1.42993V0.899934H7V1.40993C7.0001 1.65808 7.07843 1.89987 7.22385 2.10095C7.36926 2.30202 7.57437 2.45213 7.81 2.52993C7.98752 2.59294 8.16116 2.6664 8.33 2.74993C8.55151 2.85884 8.80141 2.89617 9.04507 2.85675C9.28874 2.81734 9.51412 2.70312 9.69 2.52993L10.05 2.16993L10.84 2.94993L10.49 3.30993C10.3138 3.4908 10.2002 3.72343 10.166 3.97363C10.1318 4.22383 10.1788 4.47841 10.3 4.69993C10.3803 4.86553 10.4504 5.03584 10.51 5.20993C10.5898 5.44903 10.7429 5.65691 10.9475 5.8041C11.1522 5.95129 11.3979 6.0303 11.65 6.02993H12.13V7.13993Z" fill="#232020"/>
<path d="M6.47 3.69997C5.89799 3.69997 5.33884 3.86972 4.86337 4.18772C4.38789 4.50573 4.01748 4.95767 3.79904 5.48634C3.5806 6.015 3.52396 6.59659 3.63629 7.15747C3.74861 7.71834 4.02485 8.23327 4.43003 8.63705C4.8352 9.04082 5.35109 9.31527 5.91235 9.42565C6.47361 9.53603 7.055 9.47737 7.5829 9.2571C8.1108 9.03683 8.56147 8.66485 8.87782 8.18828C9.19417 7.71171 9.36198 7.15198 9.36 6.57997C9.36 6.20092 9.28518 5.8256 9.13983 5.47553C8.99447 5.12545 8.78143 4.80752 8.51293 4.53996C8.24444 4.27239 7.92578 4.06046 7.5752 3.91632C7.22463 3.77217 6.84905 3.69865 6.47 3.69997ZM6.47 8.74997C6.04082 8.74997 5.62127 8.6227 5.26441 8.38426C4.90756 8.14581 4.62942 7.80691 4.46518 7.41039C4.30094 7.01388 4.25797 6.57756 4.3417 6.15662C4.42543 5.73568 4.6321 5.34903 4.93558 5.04555C5.23906 4.74207 5.62572 4.53539 6.04666 4.45166C6.46759 4.36793 6.90391 4.41091 7.30042 4.57515C7.69694 4.73939 8.03585 5.01753 8.27429 5.37438C8.51274 5.73124 8.64 6.15078 8.64 6.57997C8.64 7.15549 8.41138 7.70744 8.00443 8.11439C7.59747 8.52134 7.04552 8.74997 6.47 8.74997Z" fill="#232020"/>
</svg>
