<svg width="13" height="14" viewBox="0 0 13 14" fill="none" xmlns="http://www.w3.org/2000/svg">
<path d="M12.475 6.15999H9.65498V4.15999C9.66441 4.09871 9.66047 4.03612 9.64345 3.97651C9.62642 3.91689 9.5967 3.86167 9.55634 3.81462C9.51597 3.76756 9.4659 3.72979 9.40957 3.7039C9.35324 3.67801 9.29198 3.6646 9.22998 3.6646C9.16798 3.6646 9.10672 3.67801 9.05039 3.7039C8.99406 3.72979 8.94399 3.76756 8.90363 3.81462C8.86326 3.86167 8.83354 3.91689 8.81652 3.97651C8.79949 4.03612 8.79555 4.09871 8.80498 4.15999V6.15999H6.87498V2.89999C6.88441 2.83871 6.88047 2.77612 6.86345 2.71651C6.84642 2.65689 6.8167 2.60167 6.77634 2.55462C6.73597 2.50756 6.6859 2.46979 6.62957 2.4439C6.57324 2.41801 6.51198 2.4046 6.44998 2.4046C6.38799 2.4046 6.32672 2.41801 6.27039 2.4439C6.21406 2.46979 6.16399 2.50756 6.12363 2.55462C6.08326 2.60167 6.05354 2.65689 6.03652 2.71651C6.01949 2.77612 6.01556 2.83871 6.02498 2.89999V6.15999H4.09498V4.15999C4.10441 4.09871 4.10047 4.03612 4.08345 3.97651C4.06642 3.91689 4.03671 3.86167 3.99634 3.81462C3.95597 3.76756 3.9059 3.72979 3.84957 3.7039C3.79324 3.67801 3.73198 3.6646 3.66998 3.6646C3.60799 3.6646 3.54672 3.67801 3.49039 3.7039C3.43406 3.72979 3.384 3.76756 3.34363 3.81462C3.30326 3.86167 3.27354 3.91689 3.25652 3.97651C3.23949 4.03612 3.23555 4.09871 3.24498 4.15999V6.15999H0.42498C0.323462 6.1756 0.230888 6.22704 0.164009 6.305C0.0971299 6.38295 0.0603638 6.48227 0.0603638 6.58499C0.0603638 6.6877 0.0971299 6.78702 0.164009 6.86497C0.230888 6.94293 0.323462 6.99437 0.42498 7.00999H3.24498V9.00998C3.2606 9.1115 3.31204 9.20408 3.39 9.27096C3.46795 9.33784 3.56727 9.3746 3.66998 9.3746C3.7727 9.3746 3.87202 9.33784 3.94997 9.27096C4.02793 9.20408 4.07936 9.1115 4.09498 9.00998V7.00999H6.02498V10.27C6.0406 10.3715 6.09204 10.4641 6.16999 10.531C6.24795 10.5978 6.34727 10.6346 6.44998 10.6346C6.55269 10.6346 6.65201 10.5978 6.72997 10.531C6.80792 10.4641 6.85936 10.3715 6.87498 10.27V7.00999H8.80498V9.00998C8.8206 9.1115 8.87204 9.20408 8.94999 9.27096C9.02795 9.33784 9.12727 9.3746 9.22998 9.3746C9.33269 9.3746 9.43201 9.33784 9.50997 9.27096C9.58792 9.20408 9.63937 9.1115 9.65498 9.00998V7.00999H12.475C12.5363 7.01941 12.5989 7.01548 12.6585 6.99845C12.7181 6.98142 12.7733 6.95171 12.8204 6.91134C12.8674 6.87097 12.9052 6.82091 12.9311 6.76458C12.957 6.70825 12.9704 6.64698 12.9704 6.58499C12.9704 6.52299 12.957 6.46173 12.9311 6.40539C12.9052 6.34906 12.8674 6.299 12.8204 6.25863C12.7733 6.21826 12.7181 6.18855 12.6585 6.17152C12.5989 6.15449 12.5363 6.15056 12.475 6.15999Z" fill="#232020"/>
<path d="M0.425 4.05999C0.539043 4.05999 0.648417 4.01469 0.729058 3.93405C0.809699 3.85341 0.855 3.74404 0.855 3.62999V1.62999C0.855 1.45495 0.924536 1.28708 1.04831 1.1633C1.17208 1.03953 1.33996 0.969992 1.515 0.969992H3.515C3.57147 0.969992 3.62738 0.95887 3.67955 0.93726C3.73172 0.915651 3.77913 0.883977 3.81906 0.844048C3.85899 0.804119 3.89066 0.756716 3.91227 0.704546C3.93388 0.652376 3.945 0.59646 3.945 0.539992C3.94502 0.483985 3.93383 0.428541 3.9121 0.376921C3.89037 0.325302 3.85854 0.278549 3.81847 0.239415C3.7784 0.200281 3.73092 0.169555 3.6788 0.149046C3.62668 0.128537 3.57099 0.118659 3.515 0.119992H1.515C1.11533 0.122613 0.732779 0.282543 0.450166 0.565157C0.167552 0.847771 0.00762275 1.23032 0.0050019 1.62999V3.62999C0.0036684 3.68598 0.0135455 3.74168 0.0340546 3.79379C0.0545638 3.84591 0.0852906 3.8934 0.124425 3.93346C0.163559 3.97353 0.21031 4.00536 0.261929 4.02709C0.313549 4.04882 0.368993 4.06001 0.425 4.05999Z" fill="#232020"/>
<path d="M11.385 0.129944H9.385C9.28348 0.145562 9.19091 0.197002 9.12403 0.274957C9.05715 0.352912 9.02039 0.452232 9.02039 0.554944C9.02039 0.657656 9.05715 0.756976 9.12403 0.834931C9.19091 0.912885 9.28348 0.964326 9.385 0.979944H11.385C11.5627 0.979944 11.7331 1.05053 11.8588 1.17618C11.9844 1.30183 12.055 1.47225 12.055 1.64994V3.64994C12.0706 3.75146 12.1221 3.84404 12.2 3.91091C12.278 3.97779 12.3773 4.01456 12.48 4.01456C12.5827 4.01456 12.682 3.97779 12.76 3.91091C12.8379 3.84404 12.8894 3.75146 12.905 3.64994V1.64994C12.905 1.24681 12.7449 0.860197 12.4598 0.575142C12.1747 0.290086 11.7881 0.129944 11.385 0.129944Z" fill="#232020"/>
<path d="M12.475 9.10998C12.3636 9.10998 12.2568 9.15423 12.178 9.233C12.0993 9.31176 12.055 9.41859 12.055 9.52998V11.53C12.055 11.7077 11.9844 11.8781 11.8588 12.0037C11.7331 12.1294 11.5627 12.2 11.385 12.2H9.38503C9.32376 12.1906 9.26117 12.1945 9.20155 12.2115C9.14194 12.2285 9.08671 12.2583 9.03966 12.2986C8.99261 12.339 8.95484 12.3891 8.92895 12.4454C8.90305 12.5017 8.88965 12.563 8.88965 12.625C8.88965 12.687 8.90305 12.7482 8.92895 12.8046C8.95484 12.8609 8.99261 12.911 9.03966 12.9513C9.08671 12.9917 9.14194 13.0214 9.20155 13.0384C9.26117 13.0555 9.32376 13.0594 9.38503 13.05H11.385C11.7882 13.05 12.1748 12.8898 12.4598 12.6048C12.7449 12.3197 12.905 11.9331 12.905 11.53V9.52998C12.905 9.47398 12.8939 9.41853 12.8721 9.36691C12.8504 9.31529 12.8186 9.26854 12.7785 9.22941C12.7384 9.19027 12.6909 9.15955 12.6388 9.13904C12.5867 9.11853 12.531 9.10865 12.475 9.10998Z" fill="#232020"/>
<path d="M3.515 12.18H1.515C1.34076 12.1774 1.17438 12.107 1.05117 11.9838C0.927946 11.8606 0.85758 11.6942 0.854998 11.52V9.51998C0.864425 9.4587 0.860493 9.39611 0.843466 9.3365C0.82644 9.27689 0.796722 9.22166 0.756354 9.17461C0.715986 9.12756 0.665922 9.08979 0.609591 9.0639C0.553261 9.038 0.491996 9.0246 0.429999 9.0246C0.368002 9.0246 0.306737 9.038 0.250407 9.0639C0.194076 9.08979 0.144012 9.12756 0.103644 9.17461C0.063276 9.22166 0.0335621 9.27689 0.0165354 9.3365C-0.000491325 9.39611 -0.00442716 9.4587 0.00499972 9.51998V11.52C0.00762058 11.9196 0.16755 12.3022 0.450163 12.5848C0.732777 12.8674 1.11533 13.0274 1.515 13.03H3.515C3.61652 13.0144 3.70909 12.9629 3.77597 12.885C3.84285 12.807 3.87961 12.7077 3.87961 12.605C3.87961 12.5023 3.84285 12.4029 3.77597 12.325C3.70909 12.247 3.61652 12.1956 3.515 12.18Z" fill="#232020"/>
</svg>
