<svg width="13" height="13" viewBox="0 0 13 13" fill="none" xmlns="http://www.w3.org/2000/svg">
<g clip-path="url(#clip0_816_1398)">
<path d="M12.53 1.88003V11.05C12.5349 11.0832 12.5349 11.1169 12.53 11.15C12.5072 11.5224 12.3436 11.8721 12.0725 12.1283C11.8014 12.3846 11.443 12.5282 11.07 12.53H1.88001C1.50524 12.5307 1.14436 12.3883 0.871129 12.1318C0.597898 11.8753 0.432952 11.5241 0.410008 11.15C0.405079 11.1169 0.405079 11.0832 0.410008 11.05V1.88003C0.405079 1.84688 0.405079 1.81318 0.410008 1.78003C0.432952 1.40596 0.597898 1.05479 0.871129 0.798287C1.14436 0.541784 1.50524 0.399324 1.88001 0.400027H11.06C11.433 0.401865 11.7914 0.545458 12.0625 0.801706C12.3336 1.05795 12.4972 1.40769 12.52 1.78003C12.5283 1.81268 12.5316 1.84638 12.53 1.88003Z" stroke="black" stroke-width="0.8" stroke-linecap="round" stroke-linejoin="round"/>
<path d="M5.64997 0.400027V5.64003H0.409973V1.78003C0.432917 1.40596 0.597864 1.05479 0.871095 0.798287C1.14433 0.541784 1.50521 0.399324 1.87997 0.400027H5.64997Z" stroke="black" stroke-width="0.8" stroke-linecap="round" stroke-linejoin="round"/>
<path d="M12.52 1.78003V11.15C12.4971 11.5224 12.3336 11.8721 12.0625 12.1283C11.7914 12.3846 11.433 12.5282 11.06 12.53H1.87997C1.50521 12.5307 1.14433 12.3883 0.871095 12.1318C0.597864 11.8753 0.432917 11.5241 0.409973 11.15V1.78003C0.432917 1.40596 0.597864 1.05479 0.871095 0.798287C1.14433 0.541784 1.50521 0.399324 1.87997 0.400027H11.06C11.433 0.401865 11.7914 0.545458 12.0625 0.801706C12.3336 1.05795 12.4971 1.40769 12.52 1.78003Z" stroke="black" stroke-width="0.8" stroke-linecap="round" stroke-linejoin="round"/>
<path d="M12.52 1.78002V5.64002H7.28003V0.400024H11.06C11.4331 0.401863 11.7914 0.545456 12.0626 0.801703C12.3337 1.05795 12.4972 1.40768 12.52 1.78002Z" stroke="black" stroke-width="0.8" stroke-linecap="round" stroke-linejoin="round"/>
<path d="M5.64997 7.28003V12.53H1.87997C1.50521 12.5307 1.14433 12.3883 0.871095 12.1318C0.597864 11.8753 0.432917 11.5241 0.409973 11.15V7.28003H5.64997Z" stroke="black" stroke-width="0.8" stroke-linecap="round" stroke-linejoin="round"/>
<path d="M12.52 7.28003V11.15C12.4972 11.5224 12.3337 11.8721 12.0626 12.1284C11.7914 12.3846 11.4331 12.5282 11.06 12.53H7.28003V7.28003H12.52Z" stroke="black" stroke-width="0.8" stroke-linecap="round" stroke-linejoin="round"/>
</g>
<defs>
<clipPath id="clip0_816_1398">
<rect width="12.93" height="12.93" fill="white"/>
</clipPath>
</defs>
</svg>
