<svg width="48" height="48" viewBox="0 0 48 48" fill="none" xmlns="http://www.w3.org/2000/svg">
<mask id="path-1-inside-1_110_5614" fill="white">
<path fill-rule="evenodd" clip-rule="evenodd" d="M0 0V24V48H0.745281C13.5882 48 24.0004 37.5885 24.0004 24.745V24V23.2543C24.0004 10.4115 13.5889 0 0.745281 0H0Z"/>
</mask>
<path d="M0 0V-2H-2V0H0ZM0 48H-2V50H0V48ZM2 24V0H-2V24H2ZM2 48V24H-2V48H2ZM0.745281 46H0V50H0.745281V46ZM22.0004 24.745C22.0004 36.4839 12.4837 46 0.745281 46V50C14.6927 50 26.0004 38.6931 26.0004 24.745H22.0004ZM22.0004 24V24.745H26.0004V24H22.0004ZM22.0004 23.2543V24H26.0004V23.2543H22.0004ZM0.745281 2C12.4843 2 22.0004 11.5161 22.0004 23.2543H26.0004C26.0004 9.30688 14.6934 -2 0.745281 -2V2ZM0 2H0.745281V-2H0V2Z" fill="#344154" mask="url(#path-1-inside-1_110_5614)"/>
<path d="M25.0228 1.02237C36.9117 1.543 46.4578 11.0887 46.9778 22.9777C35.0889 22.4577 25.5428 12.912 25.0228 1.02237Z" stroke="#00AEEF" stroke-width="2"/>
<path d="M46.9778 25.0223C46.4578 36.912 36.9117 46.4577 25.0228 46.9777C25.5428 35.0886 35.0889 25.5424 46.9778 25.0223Z" stroke="#344154" stroke-width="2"/>
</svg>
