<?xml version="1.0" encoding="utf-8"?>
<!-- Generator: Adobe Illustrator 26.4.1, SVG Export Plug-In . SVG Version: 6.00 Build 0)  -->
<svg version="1.1" id="Capa_1" xmlns="http://www.w3.org/2000/svg" xmlns:xlink="http://www.w3.org/1999/xlink" x="0px" y="0px"
	 viewBox="0 0 512 512" style="enable-background:new 0 0 512 512;" xml:space="preserve">
<g>
	<g>
		<path class="st0" d="M449.6,0H62.4C28,0,0,28,0,62.4v387.3C0,484,28,512,62.4,512h198.5c8.3,0,15.1-6.8,15.1-15.1V313.6
			c0-8.3-6.8-15.1-15.1-15.1h-54.3v-43h54.3c8.3,0,15.1-6.8,15.1-15.1v-61.2c0-33.1,26.9-60.1,60.1-60.1h52.4v43H336
			c-9.4,0-17,7.6-17,17v61.2c0,8.3,6.8,15.1,15.1,15.1h54.3v43h-54.3c-8.3,0-15.1,6.8-15.1,15.1v183.3c0,8.3,6.8,15.1,15.1,15.1
			h115.5c34.4,0,62.4-28,62.4-62.4V62.4C512,28,484,0,449.6,0z M481.8,449.6c0,17.7-14.4,32.1-32.1,32.1H349.2l0,0v-153h54.3
			c8.3,0,15.1-6.8,15.1-15.1v-73.3c0-8.3-6.8-15.1-15.1-15.1h-54.3v-32.9h54.3c8.3,0,15.1-6.8,15.1-15.1v-73.3
			c0-8.3-6.8-15.1-15.1-15.1H336c-49.8,0-90.3,40.5-90.3,90.3v46.1h-54.3c-8.3,0-15.1,6.8-15.1,15.1v73.3c0,8.3,6.8,15.1,15.1,15.1
			h54.3v153.1H62.4c-17.7,0-32.1-14.4-32.1-32.1V62.4c0-17.7,14.4-32.1,32.1-32.1h387.3c17.7,0,32.1,14.4,32.1,32.1V449.6z"/>
	</g>
</g>
</svg>
