<svg width="512" height="512" viewBox="0 0 512 512" fill="none" xmlns="http://www.w3.org/2000/svg">
<path fill-rule="evenodd" clip-rule="evenodd" d="M315.068 1.05955C269.056 9.82755 236.022 45.9576 232.208 91.6836L231.545 99.6296H192.64C150.44 99.6296 149.468 99.7466 147.028 105.102C146.145 107.04 145.833 123.1 145.833 166.677V225.63H76.7826C1.42262 225.63 3.37762 225.483 0.957621 231.333C0.0966212 233.413 -0.131379 266.832 0.0666211 361.63C0.331621 488.878 0.336621 489.139 2.43862 493.681C5.51662 500.334 10.2136 505.179 16.6506 508.34L22.3326 511.13H255.833H489.333L495.015 508.34C501.452 505.179 506.149 500.334 509.227 493.681L511.333 489.13L511.597 298.63C511.794 156.385 511.568 107.421 510.706 105.333C508.416 99.7846 507.25 99.6296 467.883 99.6296H431.833V95.7606C431.833 90.0676 429.093 75.3406 426.721 68.2826C415.813 35.8296 388.631 10.7826 355.333 2.50255C344.829 -0.109449 324.94 -0.822449 315.068 1.05955ZM350.848 21.9766C360.829 24.7006 367.644 27.6735 375.176 32.5905C395.935 46.1425 409.179 68.1306 411.49 92.8796L412.12 99.6296H331.977H251.833L251.846 95.8796C251.853 93.8176 252.721 87.9546 253.774 82.8526C259.972 52.8146 284.463 28.1246 314.58 21.5506C324.824 19.3136 341.822 19.5136 350.848 21.9766ZM231.833 142.63V165.63H225.88C218.728 165.63 215.168 167.081 213.258 170.775C210.604 175.908 212.221 181.745 216.978 184.205C220.609 186.083 262.318 186.277 266.361 184.435C269.227 183.129 271.833 178.936 271.833 175.63C271.833 172.324 269.227 168.131 266.361 166.825C264.919 166.168 261.06 165.63 257.786 165.63H251.833V142.63V119.63H331.833H411.833V142.63V165.63H405.783C402.456 165.63 398.494 166.271 396.978 167.055C390.323 170.497 390.323 180.763 396.978 184.205C400.969 186.269 442.697 186.269 446.688 184.205C453.343 180.763 453.343 170.497 446.688 167.055C445.172 166.271 441.21 165.63 437.883 165.63H431.833V142.63V119.63H461.833H491.833V272.63V425.63H381.833H271.833V329.677C271.833 257.414 271.538 233.077 270.638 231.102C268.148 225.636 268.09 225.63 214.883 225.63H165.833V172.63V119.63H198.833H231.833V142.63ZM251.833 335.63V425.63H135.833H19.8326V335.63V245.63H135.833H251.833V335.63ZM456.943 247.026C451.948 249.794 451.906 250.19 451.868 295.333C451.83 340.694 451.924 341.592 456.978 344.205C462.155 346.882 468.42 345.026 470.638 340.158C471.504 338.258 471.833 325.99 471.833 295.63C471.833 265.27 471.504 253.002 470.638 251.102C468.449 246.296 461.819 244.323 456.943 247.026ZM70.9426 287.026C63.7316 291.022 64.5836 301.964 72.3226 304.763L75.8326 306.032V319.171C75.8326 341.772 80.4966 354.362 93.7986 367.664C102.461 376.326 110.133 380.765 121.429 383.655C131.233 386.162 140.433 386.162 150.237 383.655C161.533 380.765 169.205 376.326 177.867 367.664C191.169 354.362 195.833 341.772 195.833 319.171V306.032L199.343 304.763C202.981 303.447 205.833 299.434 205.833 295.63C205.833 292.324 203.227 288.131 200.361 286.825C196.876 285.237 174.79 285.237 171.305 286.825C163.729 290.277 164.455 301.918 172.427 304.8L176.039 306.106L175.668 320.618C175.315 334.432 175.146 335.451 172.151 341.81C167.777 351.093 162.105 356.892 152.993 361.395C145.861 364.92 144.9 365.13 135.885 365.13C127.235 365.13 125.702 364.831 119.653 361.965C110.358 357.562 104.566 351.892 100.07 342.795C96.3546 335.278 96.3356 335.174 95.9816 320.674L95.6266 306.106L99.2386 304.8C102.982 303.447 105.833 299.482 105.833 295.63C105.833 292.324 103.227 288.131 100.361 286.825C96.6586 285.138 74.0706 285.292 70.9426 287.026ZM456.943 367.026C448.274 371.831 451.901 385.63 461.833 385.63C466.9 385.63 471.833 380.745 471.833 375.727C471.833 368.219 463.536 363.371 456.943 367.026ZM251.833 464.583C251.833 485.155 251.298 487.821 246.688 490.205C242.558 492.34 29.1076 492.34 24.9776 490.205C20.3676 487.821 19.8326 485.155 19.8326 464.583V445.63H135.833H251.833V464.583ZM491.833 464.583C491.833 477.147 491.43 484.42 490.638 486.158C488.032 491.878 493.185 491.63 376.952 491.63H269.973L270.903 488.387C271.414 486.603 271.833 476.253 271.833 465.387V445.63H381.833H491.833V464.583Z" fill="#FE0847"/>
</svg>
