<svg width="512" height="512" viewBox="0 0 512 512" fill="none" xmlns="http://www.w3.org/2000/svg">
<g clip-path="url(#clip0_2261_17056)">
<path d="M486.4 68.2667H367.275C377.722 50.0527 383.47 29.5241 384 8.53334C384 7.02297 383.599 5.53973 382.838 4.23512C382.076 2.93051 380.983 1.85127 379.668 1.10762C378.354 0.363972 376.865 -0.0174322 375.355 0.00235946C373.845 0.0221511 372.367 0.44243 371.072 1.22027L333.329 23.8933L303.787 1.70667C302.519 0.755826 301.011 0.176803 299.433 0.0344846C297.855 -0.107834 296.268 0.192174 294.85 0.900892C293.433 1.60961 292.241 2.69904 291.408 4.0471C290.575 5.39516 290.133 6.9486 290.133 8.53334C290.133 37.6149 276.864 52.3093 260.975 68.2667H118.016C114.57 68.2726 111.161 68.9706 107.991 70.3192C104.82 71.6678 101.953 73.6395 99.5584 76.1173L6.69013 179.2C2.41304 183.858 0.0274464 189.943 0 196.267V486.4C0 493.19 2.69714 499.701 7.49807 504.502C12.299 509.303 18.8105 512 25.6 512H384C390.358 511.981 396.479 509.579 401.152 505.267L504.465 412.16C509.312 407.356 512.026 400.811 512 393.984V93.8667C512 87.0771 509.303 80.5657 504.502 75.7647C499.701 70.9638 493.19 68.2667 486.4 68.2667ZM394.965 173.227C391.552 171.554 387.797 170.684 384 170.667H268.066L353.399 85.3333H482.867L394.965 173.227ZM170.667 187.733H238.933V297.975L210.133 274.935C208.62 273.724 206.739 273.063 204.8 273.063C202.861 273.063 200.98 273.724 199.467 274.935L170.667 297.975V187.733ZM305.911 24.6272L327.68 40.96C329.038 41.978 330.668 42.568 332.363 42.6546C334.058 42.7413 335.74 42.3206 337.195 41.4464L365.227 24.6187C362.839 41.7901 355.381 57.8584 343.808 70.7669L243.934 170.667H182.733L270.566 82.8331C285.107 68.2667 301.286 52.1131 305.911 24.6272ZM111.932 87.8933C112.725 87.084 113.672 86.4408 114.716 86.0012C115.761 85.5617 116.883 85.3346 118.016 85.3333H243.934L158.601 170.667H37.248L111.932 87.8933ZM25.6 494.933C23.3368 494.933 21.1663 494.034 19.566 492.434C17.9657 490.834 17.0667 488.663 17.0667 486.4V196.267C17.0667 194.031 17.9371 191.881 19.5072 190.293L19.6267 190.157C21.2243 188.599 23.3686 187.729 25.6 187.733H153.6V315.733C153.599 317.341 154.053 318.917 154.909 320.278C155.765 321.639 156.988 322.731 158.437 323.428C159.886 324.124 161.503 324.397 163.1 324.215C164.698 324.033 166.211 323.403 167.467 322.398L204.8 292.531L242.133 322.398C243.389 323.403 244.902 324.033 246.5 324.215C248.097 324.397 249.714 324.124 251.163 323.428C252.612 322.731 253.835 321.639 254.691 320.278C255.547 318.917 256.001 317.341 256 315.733V187.733H384C386.263 187.733 388.434 188.632 390.034 190.233C391.634 191.833 392.533 194.003 392.533 196.267V486.4C392.533 488.663 391.634 490.834 390.034 492.434C388.434 494.034 386.263 494.933 384 494.933H25.6ZM492.715 399.77L409.6 474.82V196.267C409.585 192.465 408.71 188.716 407.04 185.301L494.933 97.3995V393.984C494.958 396.125 494.164 398.194 492.715 399.77Z" fill="#FE0847"/>
<path d="M366.933 460.8H332.799C330.536 460.8 328.366 461.699 326.766 463.299C325.165 464.9 324.266 467.07 324.266 469.333C324.266 471.597 325.165 473.767 326.766 475.367C328.366 476.968 330.536 477.867 332.799 477.867H366.933C369.196 477.867 371.367 476.968 372.967 475.367C374.567 473.767 375.466 471.597 375.466 469.333C375.466 467.07 374.567 464.9 372.967 463.299C371.367 461.699 369.196 460.8 366.933 460.8ZM355.899 412.1C354.299 410.501 352.129 409.602 349.866 409.602C347.603 409.602 345.433 410.501 343.833 412.1L326.766 429.167C325.212 430.776 324.352 432.932 324.371 435.169C324.391 437.407 325.288 439.547 326.87 441.129C328.453 442.711 330.593 443.609 332.83 443.628C335.068 443.648 337.223 442.788 338.833 441.233L341.333 438.733V443.733C341.333 445.997 342.232 448.167 343.832 449.767C345.432 451.368 347.603 452.267 349.866 452.267C352.129 452.267 354.3 451.368 355.9 449.767C357.5 448.167 358.399 445.997 358.399 443.733V438.733L360.9 441.233C362.509 442.788 364.665 443.648 366.902 443.628C369.14 443.609 371.28 442.711 372.862 441.129C374.444 439.547 375.342 437.407 375.361 435.169C375.38 432.932 374.52 430.776 372.966 429.167L355.899 412.1ZM187.733 409.6H51.1995C46.6731 409.6 42.3321 411.398 39.1315 414.599C35.9309 417.799 34.1328 422.14 34.1328 426.667V460.8C34.1328 465.326 35.9309 469.667 39.1315 472.868C42.3321 476.069 46.6731 477.867 51.1995 477.867H187.733C192.259 477.867 196.6 476.069 199.801 472.868C203.001 469.667 204.799 465.326 204.799 460.8V426.667C204.799 422.14 203.001 417.799 199.801 414.599C196.6 411.398 192.259 409.6 187.733 409.6ZM187.733 460.8H51.1995V426.667H187.733V460.8Z" fill="#FE0847"/>
</g>
<defs>
<clipPath id="clip0_2261_17056">
<rect width="512" height="512" fill="white"/>
</clipPath>
</defs>
</svg>
