<svg width="512" height="512" viewBox="0 0 512 512" fill="none" xmlns="http://www.w3.org/2000/svg">
<path fill-rule="evenodd" clip-rule="evenodd" d="M147.589 2.3703C140.543 6.6353 140.085 8.5263 140.038 33.5713C139.997 55.3793 140.024 55.6733 142.31 57.8213C145.585 60.8973 150.302 60.6933 152.923 57.3603C154.862 54.8953 154.996 53.4433 154.996 34.8603V14.9953H188.996H222.996V42.4793V69.9633L225.778 73.0783C227.888 75.4383 229.655 76.3153 233.083 76.7013C237.011 77.1443 238.814 76.6043 246.801 72.5933L255.996 67.9753L265.191 72.5933C273.178 76.6043 274.981 77.1443 278.909 76.7013C282.337 76.3153 284.104 75.4383 286.214 73.0783L288.996 69.9633V42.4793V14.9953H322.996H356.996V115.995V216.995H255.996H154.996V151.56C154.996 114.364 154.601 85.0863 154.08 83.7163C152.144 78.6233 143.628 78.0773 141.057 82.8813C140.34 84.2213 139.996 106.263 139.996 150.893V216.923L90.7458 217.209L41.4958 217.495L38.1287 219.896C36.2777 221.217 33.9247 224.142 32.9007 226.396C31.1257 230.306 31.0387 235.176 31.0177 332.137L30.9958 433.779L19.5627 434.142C7.23275 434.533 3.99975 435.761 1.26075 441.091C-0.42025 444.362 -0.42025 468.628 1.26075 471.899C3.91775 477.07 7.27675 478.418 18.5378 478.835L28.9958 479.222L28.9978 490.358C28.9998 509.505 31.7347 511.995 52.7627 511.995C74.5607 511.995 76.9858 509.868 76.9918 490.745L76.9958 478.995H255.996H434.996L435 490.745C435.006 509.868 437.431 511.995 459.229 511.995C480.257 511.995 482.992 509.505 482.994 490.358L482.996 479.222L493.454 478.835C504.715 478.418 508.074 477.07 510.731 471.899C512.412 468.628 512.412 444.362 510.731 441.091C507.996 435.769 504.753 434.533 492.497 434.144L481.131 433.783L480.813 417.799C480.507 402.39 480.411 401.745 478.135 399.904C474.937 397.318 470.824 397.485 468.17 400.309C466.129 402.483 465.996 403.581 465.996 418.309V433.995H364.491H262.986L263.241 333.245L263.496 232.495L297.246 232.232L330.996 231.968V258.081C330.996 286.862 331.488 289.647 337.081 292.539C341.909 295.035 346.409 294.31 356.011 289.487L364.987 284.98L373.323 289.487C385.429 296.033 392.579 295.569 396.502 287.984C397.717 285.633 397.996 280.143 397.996 258.545V231.995H431.996H465.996V303.422V374.85L468.631 376.922C470.08 378.062 471.859 378.995 472.584 378.995C475.228 378.995 478.802 376.715 479.886 374.338C480.667 372.624 480.989 350.928 480.974 301.198C480.953 234.41 480.849 230.268 479.091 226.396C478.067 224.142 475.714 221.217 473.863 219.896L470.496 217.495L421.246 217.209L371.996 216.923V114.419C371.996 13.6603 371.962 11.8483 369.983 7.9693C368.687 5.4283 366.563 3.3043 364.022 2.0083C360.141 0.0293001 358.34 -0.00470001 255.786 0.000299985L151.496 0.00529998L147.589 2.3703ZM273.996 37.5083V60.0203L266.75 56.3713C257.579 51.7533 254.413 51.7533 245.242 56.3713L237.996 60.0203V37.5083V14.9953H255.996H273.996V37.5083ZM216.329 141.092C214.587 141.597 212 143.391 210.579 145.079L207.996 148.148V167.621C207.996 188.863 208.516 191.33 213.562 194.03C217.624 196.204 294.368 196.204 298.43 194.03C303.476 191.33 303.996 188.863 303.996 167.621C303.996 148.179 303.992 148.144 301.432 145.101C300.021 143.425 297.209 141.593 295.182 141.03C290.57 139.749 220.778 139.804 216.329 141.092ZM288.996 167.995V180.995H255.996H222.996V167.995V154.995H255.996H288.996V167.995ZM113.996 258.545C113.996 280.143 114.275 285.633 115.49 287.984C119.404 295.553 126.654 296.024 138.808 289.499L147.119 285.037L156.038 289.516C165.582 294.309 170.091 295.032 174.911 292.539C180.504 289.647 180.996 286.862 180.996 258.081V231.968L214.746 232.232L248.496 232.495L248.751 333.245L249.006 433.995H147.501H45.9958V332.995V231.995H79.9958H113.996V258.545ZM165.996 254.495C165.996 266.87 165.76 276.995 165.471 276.995C165.182 276.995 161.819 275.42 157.996 273.495C153.95 271.457 149.563 269.995 147.496 269.995C145.429 269.995 141.042 271.457 136.996 273.495C133.173 275.42 129.81 276.995 129.521 276.995C129.232 276.995 128.996 266.87 128.996 254.495V231.995H147.496H165.996V254.495ZM382.996 254.495C382.996 266.87 382.76 276.995 382.471 276.995C382.182 276.995 378.819 275.42 374.996 273.495C370.95 271.457 366.563 269.995 364.496 269.995C362.429 269.995 358.042 271.457 353.996 273.495C350.173 275.42 346.81 276.995 346.521 276.995C346.232 276.995 345.996 266.87 345.996 254.495V231.995H364.496H382.996V254.495ZM104.759 359.56C99.5888 362.366 98.9958 365.08 98.9958 385.96V405.024L102.418 408.76L105.841 412.495L145.904 412.778C190.265 413.091 190.127 413.108 194.036 406.696C195.78 403.838 195.989 401.585 195.992 385.646C195.996 365.846 195.139 362.155 189.911 359.451C185.698 357.272 108.793 357.371 104.759 359.56ZM321.877 359.498C316.848 362.231 315.996 366.024 316 385.646C316.003 401.585 316.212 403.838 317.956 406.696C321.864 413.107 321.737 413.091 365.992 412.778L405.959 412.495L409.228 409.228L412.496 405.961L412.805 386.542C413.147 365.004 412.588 362.387 407.029 359.512C402.806 357.328 325.893 357.316 321.877 359.498ZM180.996 385.495V397.995H147.496H113.996V385.495V372.995H147.496H180.996V385.495ZM397.996 385.495V397.995H364.496H330.996V385.495V372.995H364.496H397.996V385.495ZM496.79 456.245L496.496 463.495H255.996H15.4958L15.2018 456.245L14.9078 448.995H255.996H497.084L496.79 456.245ZM61.9958 487.995V496.995H52.9958H43.9958V487.995V478.995H52.9958H61.9958V487.995ZM467.996 487.995V496.995H458.996H449.996V487.995V478.995H458.996H467.996V487.995Z" fill="#FE0847"/>
</svg>
