<svg width="512" height="512" viewBox="0 0 512 512" fill="none" xmlns="http://www.w3.org/2000/svg">
<path fill-rule="evenodd" clip-rule="evenodd" d="M269.287 1.39865C259.423 4.48065 252.38 10.5006 247.249 20.2346L244.501 25.4476L244.228 104.703C243.987 174.473 244.139 184.314 245.495 186.936C248.46 192.67 256.711 194.678 262.501 191.073C264.151 190.045 270.676 184.63 277.001 179.038C283.326 173.446 289.847 168.145 291.493 167.259C293.139 166.372 297.526 165.429 301.243 165.163L308.001 164.679V288.814V412.948H292.636C278.606 412.948 277.042 413.128 274.636 415.021C272.725 416.524 272.001 418.015 272.001 420.448C272.001 422.881 272.725 424.372 274.636 425.875C277.042 427.768 278.606 427.948 292.636 427.948H308.001V438.462V448.975L275.292 448.712L242.582 448.448L241.965 445.448C241.626 443.798 240.799 441.425 240.127 440.174C239.039 438.15 239.231 437.625 241.875 435.401C248.663 429.689 251.272 417.311 247.467 408.873L245.669 404.886L248.723 401.667C254.939 395.115 257.041 387.451 254.978 378.853C253.373 372.16 245.589 363.71 239.501 362.05C236.989 361.365 223.132 360.957 202.251 360.954L169.001 360.948V334.986C169.001 304.168 168.332 301.149 159.566 292.383C151.994 284.811 146.245 282.948 130.449 282.948H117.972L114.236 286.369L110.501 289.791L110.001 322.619C109.525 353.863 109.397 355.641 107.339 359.448C102.925 367.612 95.7566 372.489 86.5866 373.567L81.0006 374.223L80.9566 370.336C80.9036 365.604 78.8386 359.532 76.3456 356.775C75.3306 355.653 72.8306 353.883 70.7906 352.842C67.4016 351.112 64.5856 350.949 38.2906 350.963C6.7686 350.979 6.1796 351.075 2.2806 356.86L0.000601689 360.244V429.195C0.000601689 505.492 -0.193398 503.139 6.3856 506.742C9.2646 508.319 17.3316 508.448 113.001 508.448C198.107 508.448 217.191 508.204 220.382 507.077C225.358 505.32 231.581 499.691 234.18 494.598C236.831 489.401 236.975 480.435 234.496 474.937L232.669 470.886L236.039 467.409L239.409 463.932L295.876 464.19L352.343 464.448L353.675 470.314C357.538 487.325 372.205 503.076 389.811 509.122C399.297 512.38 414.705 512.38 424.191 509.122C441.971 503.017 455.816 488.015 460.347 469.948L461.726 464.448L481.113 463.948C499.103 463.484 500.766 463.283 504.18 461.16C506.34 459.817 508.714 457.106 509.93 454.595C511.963 450.396 512.001 449.066 511.979 382.882C511.958 318.76 511.864 315.252 510.06 311.448C508.085 307.285 424.449 211.023 419.924 207.705C418.506 206.666 415.581 205.406 413.424 204.905C411.266 204.405 390.039 203.985 366.251 203.972L323.001 203.948V184.448V164.948H365.342C412.399 164.948 413.272 164.848 422.605 158.421C425.494 156.431 429.449 152.474 431.396 149.626C437.222 141.103 438.001 136.037 438.001 106.692V80.8566L435.546 78.4026C432.547 75.4026 429.131 75.2706 425.636 78.0206L423.001 80.0926L422.995 105.771C422.992 120.602 422.547 133.044 421.941 135.225C420.715 139.638 416.015 145.332 411.603 147.749C408.817 149.275 402.598 149.499 350.501 149.948L292.501 150.448L286.001 153.581C282.057 155.482 275.689 160.102 269.807 165.331C264.475 170.07 259.863 173.948 259.557 173.948C259.251 173.948 259.001 141.619 259.001 102.105V30.2626L261.328 25.8546C262.607 23.4306 265.571 20.0976 267.913 18.4476L272.172 15.4476L338.836 15.1636C413.48 14.8466 410.754 14.6116 417.371 21.9356C421.775 26.8096 422.988 31.1826 422.995 42.1976C423 49.6096 423.307 51.2536 425.001 52.9476C428.027 55.9736 433.328 55.6136 436.035 52.1976C438.044 49.6616 438.181 48.5906 437.79 38.4476C437.429 29.0636 436.951 26.5246 434.533 21.1656C430.502 12.2296 422.208 4.70965 413.375 1.98165C407.023 0.0196453 404.437 -0.0503545 340.146 0.0146455C287.974 0.0666455 272.586 0.367645 269.287 1.39865ZM336.292 37.3826C333.665 38.5566 332.079 40.8196 327.544 49.8626C323.366 58.1936 321.45 61.0256 319.752 61.3846C318.514 61.6466 313.001 62.5326 307.501 63.3526C298.51 64.6936 297.223 65.1536 294.751 67.9116C291.526 71.5086 291.139 76.1936 293.758 79.9476C294.716 81.3226 298.846 85.6586 302.934 89.5826L310.367 96.7176L308.684 106.141C306.195 120.075 306.399 123.499 309.924 127.025C314.388 131.488 318.217 131.014 330.379 124.49L340.554 119.032L351.027 124.457C363.742 131.042 366.797 131.352 371.601 126.548C375.592 122.557 375.673 121.475 373.023 107.448L371.134 97.4476L379.515 88.9476C388.98 79.3496 390.352 76.8016 388.894 71.5236C387.468 66.3566 384.219 64.7486 371.233 62.7836C364.928 61.8296 359.648 60.9136 359.5 60.7486C359.352 60.5826 356.98 55.9476 354.228 50.4476C351.477 44.9476 348.358 39.6656 347.298 38.7096C344.572 36.2516 340.043 35.7056 336.292 37.3826ZM344.692 64.9666C348.586 73.4336 351.535 75.4966 361.122 76.4596C364.91 76.8406 368.235 77.5176 368.512 77.9656C368.789 78.4136 366.587 80.8556 363.618 83.3916C355.595 90.2466 355.192 91.8076 357.59 106.782L358.283 111.115L351.167 107.532C342.026 102.928 338.64 102.934 330.362 107.563C326.806 109.551 323.739 111.014 323.544 110.813C323.35 110.612 323.804 106.939 324.553 102.65C326.244 92.9657 325.677 91.2616 318.265 83.7356C312.024 77.3996 311.868 77.6886 322.385 76.0906C330.736 74.8216 333.165 72.8566 337.087 64.1976C338.644 60.7606 340.274 57.9656 340.709 57.9876C341.145 58.0096 342.937 61.1506 344.692 64.9666ZM10.5006 140.821C5.7406 143.016 3.6096 145.247 1.5386 150.202C0.193602 153.421 0.000601689 164.996 0.000601689 242.305C0.000601689 327.207 0.0746017 330.818 1.8716 333.037C4.1836 335.892 10.1686 336.209 12.7646 333.613C14.3786 331.999 14.5356 325.647 15.0006 243.163L15.5006 154.448L70.7506 154.19L126.001 153.931L126.008 186.69C126.014 217.386 126.136 219.633 127.947 222.381C130.463 226.196 133.598 227.869 138.317 227.913C142.964 227.956 144.135 227.351 153.743 219.951L161.33 214.108L168.915 219.87C173.087 223.039 177.484 226.153 178.685 226.79C182.258 228.684 188.412 228.199 191.487 225.78C196.739 221.65 197.001 219.731 197.001 185.48V153.948H209.046C220.502 153.948 221.212 153.828 223.546 151.493C226.491 148.549 226.689 145.019 224.089 141.809L222.178 139.448L118.339 139.213C19.2586 138.988 14.3176 139.062 10.5006 140.821ZM182.001 181.948C182.001 197.348 181.734 209.948 181.407 209.948C181.08 209.948 177.424 207.473 173.282 204.448C167.172 199.986 165.007 198.948 161.81 198.948C157.18 198.948 155.417 199.787 147.827 205.601C144.706 207.992 141.894 209.948 141.577 209.948C141.26 209.948 141.001 197.348 141.001 181.948V153.948H161.501H182.001V181.948ZM411.899 220.698C413.064 221.661 432.669 243.823 455.464 269.948L496.909 317.448L496.955 335.698L497.001 353.948H478.902C451.98 353.948 451.001 354.72 451.001 375.948C451.001 397.176 451.98 397.948 478.902 397.948H497.001V405.448V412.948H469.078H441.155L433.811 408.987C423.345 403.341 415.658 401.592 404.002 402.202C393.74 402.739 386.132 405.043 377.89 410.112L373.28 412.948H348.14H323.001V316.531C323.001 240.334 323.263 220.009 324.251 219.61C324.939 219.333 344.464 219.07 367.64 219.027C406.368 218.954 409.951 219.09 411.899 220.698ZM347.644 239.943C346.072 240.432 343.872 241.646 342.756 242.64C338.196 246.699 338.001 248.631 338.003 289.666C338.004 333.138 338.094 333.746 345.001 337.196C348.202 338.795 353.063 338.945 401.85 338.946C448.49 338.948 455.619 338.749 458.541 337.362C462.774 335.353 464.648 332.488 465.516 326.695C467.068 316.349 467.528 317.052 434.164 278.777C417.299 259.431 402.232 242.667 400.68 241.525C398.032 239.575 396.411 239.436 374.18 239.251C361.157 239.143 349.215 239.455 347.644 239.943ZM421.843 287.386C437.88 305.776 451.001 321.526 451.001 322.386C451.001 323.781 445.759 323.948 402.001 323.948H353.001V289.615C353.001 270.731 353.301 254.981 353.668 254.615C354.034 254.248 362.963 253.948 373.509 253.948H392.684L421.843 287.386ZM145.445 300.215C153.199 304.607 153.436 305.666 154.001 338.448C154.446 364.266 154.699 367.74 156.31 370.112C160.142 375.757 161.57 375.948 199.979 375.948H235.155L238.078 378.871C242.008 382.801 242.008 387.095 238.078 391.025L235.155 393.948H207.032H178.91L176.456 396.403C175.106 397.753 174.001 400.023 174.001 401.448C174.001 402.873 175.106 405.143 176.456 406.493L178.91 408.948H203.005C232.103 408.948 234.001 409.499 234.001 417.948C234.001 426.049 232.934 426.361 203.161 426.948C178.015 427.444 177.806 427.466 175.911 429.809C173.313 433.02 173.512 436.55 176.456 439.493C178.903 441.941 178.972 441.948 199.505 441.948C222.191 441.948 224.739 442.487 226.918 447.747C228.467 451.486 227.429 455.466 224.254 457.964C221.925 459.796 220.163 459.948 201.3 459.948C187.686 459.948 180.141 460.336 178.685 461.111C173.731 463.75 172.708 468.035 176.026 472.253L178.051 474.827L197.006 475.138C215.945 475.448 215.962 475.45 218.581 478.071C222.191 481.684 222.19 487.213 218.579 490.825L215.956 493.448L148.479 493.725L81.0006 494.002V441.69V389.377L88.9266 388.316C106.42 385.974 119.158 374.968 123.449 358.488C124.668 353.806 125.001 346.675 125.001 325.238V297.948L133.251 297.964C139.925 297.978 142.254 298.408 145.445 300.215ZM340.912 356.819C339.239 358.173 338.601 359.728 338.601 362.448C338.601 368.703 341.148 369.948 353.937 369.948C363.845 369.948 364.816 369.774 366.827 367.634C369.715 364.559 369.653 359.909 366.687 357.122C364.611 355.173 363.278 354.948 353.797 354.948C344.955 354.948 342.844 355.255 340.912 356.819ZM65.5076 368.198C65.8076 369.436 65.9286 398.123 65.7766 431.948L65.5006 493.448L40.2506 493.715L15.0006 493.982V429.965V365.948H39.9816H64.9626L65.5076 368.198ZM497.001 375.948V382.948H481.501H466.001V375.948V368.948H481.501H497.001V375.948ZM423.219 420.176C444.065 429.773 452.703 454.004 442.58 474.486C438.279 483.188 432.337 488.946 423.181 493.283C417.14 496.145 415.592 496.448 407.001 496.448C398.426 496.448 396.856 496.142 390.878 493.31C374.715 485.652 366.069 471.257 367.266 453.998C368.402 437.627 379.519 423.481 395.287 418.342C402.262 416.069 416.301 416.991 423.219 420.176ZM357.494 432.963C356.096 435.721 354.35 440.333 353.614 443.213L352.275 448.448L337.638 448.725L323.001 449.001V438.475V427.948H341.518H360.035L357.494 432.963ZM496.786 438.198L496.501 448.448L478.868 448.721L461.235 448.993L460.584 444.652C460.226 442.265 458.617 437.53 457.009 434.13L454.086 427.948H475.578H497.071L496.786 438.198ZM399.995 431.822C385.776 436.488 378.299 450.143 382.345 464.058C385.596 475.243 395.106 482.277 407.001 482.295C417.612 482.311 425.257 477.384 430.4 467.215C436.086 455.971 431.147 441.22 419.388 434.329C414.599 431.522 404.777 430.253 399.995 431.822ZM412.034 447.465C415.022 449.01 418.001 453.52 418.001 456.497C418.001 460.02 414.763 464.833 411.28 466.486C406.396 468.804 400.714 467.165 397.957 462.644C395.613 458.8 395.491 455.836 397.514 451.924C400.301 446.534 406.533 444.62 412.034 447.465Z" fill="#FE0847"/>
</svg>
