<svg width="512" height="512" viewBox="0 0 512 512" fill="none" xmlns="http://www.w3.org/2000/svg">
<path d="M301.676 195.469C296.189 195.469 291.738 199.919 291.738 205.406V205.548C291.738 211.035 296.188 215.485 301.676 215.485C307.163 215.485 311.613 211.035 311.613 205.548V205.406C311.613 199.918 307.164 195.469 301.676 195.469Z" fill="#FE0847"/>
<path d="M358.981 239.257V157.691C358.981 156.137 358.616 154.605 357.916 153.217C357.217 151.83 356.201 150.626 354.952 149.702C353.703 148.778 352.254 148.16 350.722 147.897C349.191 147.635 347.619 147.735 346.133 148.19L123.268 216.441H66.392C29.784 216.441 0 246.223 0 282.832C0 317.47 26.668 345.98 60.548 348.951L82.421 453.818C86.016 471.056 101.407 483.568 119.016 483.568C130.32 483.568 140.893 478.537 148.023 469.766C155.153 460.994 157.919 449.618 155.61 438.551L150.817 415.575C171.779 409.105 187.66 391.699 192.281 370.358L346.131 417.473C347.617 417.928 349.189 418.028 350.72 417.766C352.252 417.503 353.701 416.884 354.95 415.96C356.2 415.036 357.215 413.832 357.915 412.444C358.614 411.057 358.979 409.524 358.979 407.97V326.404C378.86 321.872 393.745 304.063 393.745 282.83C393.745 261.599 378.86 243.79 358.981 239.257ZM66.392 329.346C40.742 329.346 19.875 308.479 19.875 282.831C19.875 257.181 40.743 236.315 66.392 236.315H114.817V329.347L66.392 329.346ZM132.603 457.229C130.965 459.252 128.894 460.883 126.543 462.002C124.192 463.12 121.62 463.698 119.017 463.693C110.77 463.693 103.562 457.834 101.878 449.76L80.907 349.221H116.677L129.374 410.094L129.379 410.116L136.156 442.609C136.693 445.157 136.652 447.792 136.037 450.322C135.422 452.852 134.249 455.212 132.603 457.229ZM146.735 395.992L137.915 353.707L173.185 364.508C170.668 379 160.483 391.043 146.735 395.992ZM339.106 394.534L311.614 386.115V245.255C311.614 239.768 307.164 235.317 301.677 235.317C296.19 235.317 291.74 239.767 291.74 245.255V380.029L188.166 348.31C187.184 347.819 186.127 347.495 185.039 347.352L134.694 331.934V233.728L339.107 171.128V394.534H339.106ZM358.98 305.575V260.087C367.736 263.927 373.869 272.674 373.869 282.831C373.869 292.988 367.736 301.735 358.98 305.575ZM466.785 272.894H422.463C416.976 272.894 412.525 277.344 412.525 282.832C412.525 288.319 416.975 292.769 422.463 292.769H466.785C472.272 292.769 476.722 288.319 476.722 282.832C476.722 277.344 472.272 272.894 466.785 272.894ZM438.442 196.233C435.208 191.798 428.989 190.827 424.557 194.061L402.254 210.328C397.82 213.562 396.847 219.779 400.081 224.213C401.003 225.48 402.212 226.51 403.609 227.219C405.005 227.929 406.55 228.298 408.117 228.295C410.22 228.296 412.268 227.627 413.965 226.385L436.268 210.118C440.703 206.884 441.676 200.667 438.442 196.233ZM436.27 355.546L414.103 339.378C409.67 336.145 403.452 337.116 400.218 341.551C396.983 345.985 397.957 352.202 402.391 355.436L424.558 371.603C426.255 372.845 428.303 373.514 430.406 373.513C431.973 373.515 433.517 373.146 434.914 372.437C436.311 371.727 437.52 370.697 438.442 369.431C441.678 364.996 440.704 358.779 436.27 355.546ZM452.763 64.207H246.495C241.008 64.207 236.558 68.657 236.558 74.144C236.558 79.631 241.008 84.081 246.495 84.081H452.763C458.25 84.081 462.701 79.631 462.701 74.144C462.701 68.657 458.251 64.207 452.763 64.207ZM145.734 67.119C143.866 65.2622 141.342 64.216 138.708 64.207C136.074 64.215 133.55 65.2614 131.683 67.119C129.825 68.967 128.77 71.531 128.77 74.145C128.77 76.759 129.824 79.322 131.683 81.17C133.55 83.0274 136.074 84.074 138.708 84.083C141.323 84.083 143.885 83.02 145.734 81.17C147.582 79.323 148.646 76.759 148.646 74.145C148.646 71.531 147.583 68.967 145.734 67.119ZM109.214 67.119C107.346 65.2622 104.822 64.216 102.188 64.207C99.5543 64.215 97.03 65.2614 95.163 67.119C93.315 68.967 92.25 71.531 92.25 74.145C92.25 76.759 93.313 79.322 95.163 81.17C97.0303 83.0274 99.5543 84.074 102.188 84.083C104.803 84.083 107.365 83.02 109.214 81.17C111.062 79.323 112.126 76.759 112.126 74.145C112.126 71.531 111.063 68.967 109.214 67.119ZM182.254 67.119C180.385 65.2632 177.862 64.2171 175.228 64.207C172.591 64.2151 170.064 65.2613 168.193 67.119C166.345 68.967 165.29 71.531 165.29 74.145C165.29 76.759 166.344 79.322 168.193 81.17C170.064 83.0276 172.591 84.074 175.228 84.083C177.843 84.083 180.395 83.02 182.254 81.17C184.102 79.323 185.166 76.759 185.166 74.145C185.166 71.531 184.103 68.967 182.254 67.119Z" fill="#FE0847"/>
<path d="M470.264 28.4321H84.6901C61.6761 28.4321 42.9531 47.1551 42.9531 70.1691V206.312C42.9531 211.799 47.4031 216.249 52.8901 216.249C58.3771 216.249 62.8271 211.799 62.8271 206.312V167.628H124.755C130.242 167.628 134.693 163.178 134.693 157.691C134.693 152.204 130.243 147.753 124.755 147.753H62.8281V119.85C62.8651 119.85 62.9011 119.856 62.9361 119.856H492.126V378.23C492.126 390.285 482.319 400.092 470.264 400.092H391.095C385.608 400.092 381.157 404.542 381.157 410.03C381.157 415.518 385.607 419.967 391.095 419.967H470.264C493.278 419.967 512.001 401.244 512.001 378.23V70.1691C512.001 47.1551 493.278 28.4321 470.264 28.4321ZM492.126 99.9821H62.9361C62.8991 99.9821 62.8631 99.9871 62.8281 99.9881V70.1691C62.8281 58.1141 72.6351 48.3071 84.6901 48.3071H470.264C482.319 48.3071 492.126 58.1141 492.126 70.1691V99.9821Z" fill="#FE0847"/>
<path d="M164.01 150.663C162.143 148.806 159.619 147.759 156.985 147.75C154.351 147.759 151.826 148.805 149.959 150.663C148.102 152.53 147.056 155.054 147.047 157.688C147.047 160.303 148.109 162.866 149.959 164.714C151.824 166.575 154.35 167.622 156.985 167.626C159.62 167.623 162.146 166.576 164.01 164.714C165.867 162.846 166.914 160.322 166.923 157.688C166.923 155.074 165.859 152.51 164.01 150.663Z" fill="#FE0847"/>
</svg>
