<svg width="302" height="49" viewBox="0 0 302 49" fill="none" xmlns="http://www.w3.org/2000/svg">
<g opacity="0.3">
<path d="M291.842 19C296.9 19 301 14.9706 301 10C301 5.02944 296.9 1 291.842 1C286.785 1 282.685 5.02944 282.685 10C282.685 14.9706 286.785 19 291.842 19Z" stroke="white" stroke-width="0.5" stroke-linecap="round" stroke-linejoin="round"/>
<path d="M1 9.99984C1 9.99984 210.836 9.99089 282.685 9.98193" stroke="white" stroke-width="0.5" stroke-linecap="round" stroke-linejoin="round"/>
<path d="M151 47.7693C156.05 47.7693 160.144 43.6192 160.144 38.4999C160.144 33.3805 156.05 29.2305 151 29.2305C145.95 29.2305 141.856 33.3805 141.856 38.4999C141.856 43.6192 145.95 47.7693 151 47.7693Z" stroke="white" stroke-width="0.5" stroke-linecap="round" stroke-linejoin="round"/>
<path d="M1.22754 38.4999C1.22754 38.4999 69.9499 38.4907 141.688 38.4814" stroke="white" stroke-width="0.5" stroke-linecap="round" stroke-linejoin="round"/>
<path d="M160.203 38.4769C231.901 38.4677 300.773 38.4585 300.773 38.4585" stroke="white" stroke-width="0.5" stroke-linecap="round" stroke-linejoin="round"/>
</g>
</svg>
