<?xml version="1.0" encoding="UTF-8"?>
<svg id="Layer_2" data-name="Layer 2" xmlns="http://www.w3.org/2000/svg" viewBox="0 0 496.53 81.75">
  <defs>
    <style>
      .cls-1 {
        fill: none;
        stroke: #fff;
        stroke-linecap: round;
        stroke-linejoin: round;
      }

      .cls-2 {
        fill: #fff;
      }
    </style>
  </defs>
  <g id="Layer_4" data-name="Layer 4">
    <g>
      <rect class="cls-1" x=".5" y=".5" width="495.53" height="80.75" rx=".87" ry=".87"/>
      <line class="cls-1" x1="41.78" y1="61.45" x2="453.09" y2="61.45"/>
      <g>
        <path class="cls-2" d="M34.08,14.28c4.25,5.13,8.5,10.26,12.75,15.4,1.2,1.44,2.39,2.89,3.59,4.33,.41,.5,1.11-.21,.71-.71-4.25-5.13-8.5-10.26-12.75-15.4l-3.59-4.33c-.41-.5-1.11,.21-.71,.71h0Z"/>
        <path class="cls-2" d="M60.51,11.61c-1.91,5.55-3.82,11.11-5.73,16.66-1.91,5.55-3.82,11.11-5.73,16.66-1.07,3.11-2.14,6.22-3.21,9.34-.21,.61,.76,.87,.96,.27,1.91-5.55,3.82-11.11,5.73-16.66s3.82-11.11,5.73-16.66c1.07-3.11,2.14-6.22,3.21-9.34,.21-.61-.76-.87-.96-.27h0Z"/>
      </g>
      <g>
        <path class="cls-2" d="M64.88,13.79c8.03,.12,16.07,.24,24.1,.36,2.29,.03,4.58,.07,6.87,.1,.64,0,.64-.99,0-1-8.03-.12-16.07-.24-24.1-.36-2.29-.03-4.58-.07-6.87-.1-.64,0-.64,.99,0,1h0Z"/>
        <path class="cls-2" d="M78.97,14.1c-.09,4.83-.17,9.66-.26,14.49-.09,4.85-.17,9.7-.26,14.55-.05,2.73-.1,5.45-.14,8.18-.01,.64,.99,.64,1,0,.09-4.83,.17-9.66,.26-14.49,.09-4.85,.17-9.7,.26-14.55,.05-2.73,.1-5.45,.14-8.18,.01-.64-.99-.64-1,0h0Z"/>
      </g>
      <g>
        <path class="cls-2" d="M100.44,13.34c.06,4.88,.11,9.77,.17,14.65s.11,9.77,.17,14.65c.03,2.74,.06,5.49,.09,8.23,0,.5,.68,.68,.93,.25,.36-.61,.72-1.22,1.09-1.83,.33-.55-.53-1.06-.86-.5-.36,.61-.72,1.22-1.09,1.83l.93,.25c-.06-4.88-.11-9.77-.17-14.65s-.11-9.77-.17-14.65c-.03-2.74-.06-5.49-.09-8.23,0-.64-1.01-.64-1,0h0Z"/>
        <path class="cls-2" d="M101.24,14.07c4.03-.01,8.06-.02,12.09-.04h3.12c.88-.01,1.78-.04,2.66,.1,1.43,.22,2.59,.96,3.28,2.24,.63,1.17,.83,2.55,.91,3.87,.11,1.77,.06,3.56,.08,5.33,.04,4.04,.07,8.07,.11,12.11,.04,4.54,.08,9.07,.12,13.61,0,.64,1.01,.64,1,0-.08-8.28-.15-16.56-.23-24.84-.02-1.93,.01-3.86-.07-5.78-.06-1.38-.22-2.8-.74-4.09s-1.49-2.46-2.86-3.03c-1.71-.71-3.7-.52-5.51-.51-4.66,.01-9.31,.03-13.97,.04-.64,0-.64,1,0,1h0Z"/>
      </g>
      <path class="cls-2" d="M138.54,45.62c5.09-3.69,9.58-8.18,13.2-13.33,1.64-2.34,3.8-5.29,2.87-8.31-.39-1.26-1.26-2.34-2.5-2.83s-2.73-.24-3.9,.43c-1.26,.73-2.14,1.88-2.63,3.23-.54,1.49-.6,3.11-.62,4.68-.06,3.64-.11,7.29-.17,10.93-.05,3.11-.35,6.66,1.91,9.14,.92,1.01,2.2,1.7,3.58,1.79s2.66-.48,3.66-1.36c2.15-1.88,2.7-4.99,1.73-7.61-1.04-2.8-3.6-4.75-6.52-5.24-.73-.12-1.48-.17-2.22-.11-.64,.05-.64,1.05,0,1,2.63-.2,5.43,.88,6.96,3.09,1.44,2.06,1.73,4.92,.31,7.07-.64,.96-1.61,1.76-2.74,2.05s-2.36,0-3.32-.7c-2.39-1.76-2.42-4.92-2.38-7.61,.05-3.37,.1-6.73,.16-10.1,.02-1.56-.02-3.14,.16-4.7,.15-1.32,.53-2.71,1.44-3.71,.78-.86,1.89-1.5,3.07-1.53s2.18,.61,2.75,1.62c1.4,2.5-.42,5.26-1.8,7.32-3.23,4.8-7.24,9.07-11.79,12.64-.56,.44-1.13,.87-1.71,1.29-.22,.16-.33,.43-.18,.68,.13,.22,.46,.34,.68,.18h0Z"/>
      <path class="cls-2" d="M243.92,45.62c5.09-3.69,9.58-8.18,13.2-13.33,1.64-2.34,3.8-5.29,2.87-8.31-.39-1.26-1.26-2.34-2.5-2.83s-2.73-.24-3.9,.43c-1.26,.73-2.14,1.88-2.63,3.23-.54,1.49-.6,3.11-.62,4.68-.06,3.64-.11,7.29-.17,10.93-.05,3.11-.35,6.66,1.91,9.14,.92,1.01,2.2,1.7,3.58,1.79s2.66-.48,3.66-1.36c2.15-1.88,2.7-4.99,1.73-7.61-1.04-2.8-3.6-4.75-6.52-5.24-.73-.12-1.48-.17-2.22-.11-.64,.05-.64,1.05,0,1,2.63-.2,5.43,.88,6.96,3.09,1.44,2.06,1.73,4.92,.31,7.07-.64,.96-1.61,1.76-2.74,2.05s-2.36,0-3.32-.7c-2.39-1.76-2.42-4.92-2.38-7.61,.05-3.37,.1-6.73,.16-10.1,.02-1.56-.02-3.14,.16-4.7,.15-1.32,.53-2.71,1.44-3.71,.78-.86,1.89-1.5,3.07-1.53s2.18,.61,2.75,1.62c1.4,2.5-.42,5.26-1.8,7.32-3.23,4.8-7.24,9.07-11.79,12.64-.56,.44-1.13,.87-1.71,1.29-.22,.16-.33,.43-.18,.68,.13,.22,.46,.34,.68,.18h0Z"/>
      <path class="cls-2" d="M379.64,42.77c2.13-1.54,4.26-3.11,6.16-4.93,1.78-1.69,3.31-3.61,4.7-5.62,1.61-2.34,3.74-5.24,2.81-8.24-.39-1.26-1.26-2.34-2.5-2.83s-2.73-.24-3.9,.43c-1.26,.73-2.14,1.88-2.63,3.23-.54,1.49-.6,3.11-.62,4.68-.06,3.64-.11,7.29-.17,10.93-.05,3.11-.35,6.66,1.91,9.14,.92,1.01,2.2,1.7,3.58,1.79s2.66-.48,3.66-1.36c2.15-1.88,2.7-4.99,1.73-7.61-1.04-2.8-3.6-4.75-6.52-5.24-.73-.12-1.48-.17-2.22-.11-.64,.05-.64,1.05,0,1,2.63-.2,5.43,.88,6.96,3.09,1.44,2.06,1.73,4.92,.31,7.07-.64,.96-1.61,1.76-2.74,2.05s-2.36,0-3.32-.7c-2.39-1.76-2.42-4.92-2.38-7.61,.05-3.37,.1-6.73,.16-10.1,.02-1.56-.02-3.14,.16-4.7,.15-1.32,.53-2.71,1.44-3.71,.78-.86,1.89-1.5,3.07-1.53s2.18,.61,2.75,1.62c1.4,2.5-.42,5.24-1.79,7.31-1.29,1.94-2.69,3.82-4.32,5.5s-3.33,3.03-5.14,4.38c-.55,.41-1.1,.81-1.65,1.21-.22,.16-.33,.43-.18,.68,.13,.22,.46,.34,.68,.18h0Z"/>
      <g>
        <g>
          <path class="cls-2" d="M183.05,13c-1.48-1.08-3.44-1.24-5.18-.82-1.87,.45-3.45,1.56-4.62,3.07s-1.97,3.45-2.53,5.34c-.66,2.22-1.13,4.5-1.43,6.81-.6,4.54-.51,9.22,.36,13.72,.66,3.42,2.2,7.05,5.7,8.37,1.97,.75,4.23,.58,6.21-.07s3.88-1.89,5.6-3.19c.44-.33,.88-.67,1.32-1.01,.21-.17,.17-.53,0-.71-.21-.21-.49-.17-.71,0-3.06,2.38-6.68,5.06-10.8,4.38-1.69-.28-3.18-1.19-4.2-2.56s-1.55-2.87-1.93-4.44c-.47-1.95-.71-3.97-.83-5.97-.14-2.19-.12-4.4,.07-6.58s.55-4.36,1.07-6.49c.46-1.87,1-3.77,1.92-5.47,.85-1.57,2.05-2.96,3.69-3.74,1.46-.7,3.23-.91,4.77-.34,.37,.14,.71,.34,1.03,.57,.22,.16,.56,.04,.68-.18,.15-.25,.04-.52-.18-.68h0Z"/>
          <path class="cls-2" d="M189.81,13.83c5.92,0,11.85,0,17.77,0h5.05c.64,0,.64-1,0-1-5.92,0-11.85,0-17.77,0h-5.05c-.64,0-.64,1,0,1h0Z"/>
          <path class="cls-2" d="M200.12,13.71c-.04,4.39-.08,8.77-.11,13.16s-.08,8.82-.12,13.22c-.02,2.47-.04,4.95-.06,7.42,0,.64,.99,.64,1,0,.04-4.39,.08-8.77,.11-13.16s.08-8.82,.12-13.22c.02-2.47,.04-4.95,.06-7.42,0-.64-.99-.64-1,0h0Z"/>
          <path class="cls-2" d="M211.32,49.44c.58-5.13,2.42-10.01,4.6-14.65s4.87-9.33,7.15-14.07c1.28-2.66,2.47-5.38,3.41-8.18l-.98-.13c.49,4.8,.98,9.6,1.47,14.39s.98,9.64,1.47,14.46c.28,2.71,.55,5.42,.83,8.13,.03,.27,.21,.5,.5,.5,.25,0,.53-.23,.5-.5-.49-4.8-.98-9.6-1.47-14.39s-.98-9.64-1.47-14.46c-.28-2.71-.55-5.42-.83-8.13-.06-.55-.79-.69-.98-.13-1.68,5.02-4.15,9.73-6.6,14.41-2.43,4.64-4.89,9.3-6.61,14.25-.96,2.76-1.66,5.6-1.98,8.51-.03,.27,.25,.5,.5,.5,.3,0,.47-.23,.5-.5h0Z"/>
        </g>
        <path class="cls-2" d="M211,33.17c5.72,.1,11.44,.2,17.15,.3l4.85,.08c.64,.01,.64-.99,0-1-5.72-.1-11.44-.2-17.15-.3l-4.85-.08c-.64-.01-.64,.99,0,1h0Z"/>
      </g>
      <g>
        <path class="cls-2" d="M278.68,15.78c-1.97,6.81-2.7,13.99-2.11,21.06,.15,1.76,.37,3.51,.67,5.25,.22,1.26,.55,2.51,1.06,3.69s1.16,2.24,2.09,3.07c1.03,.92,2.33,1.46,3.71,1.54,3.29,.18,5.98-2.01,7.88-4.47s3.58-5.39,4.64-8.43,1.53-6.17,1.13-9.3c-.34-2.7-1.35-5.27-2.95-7.47-3.29-4.54-9.17-7.57-14.82-6.03-.75,.2-1.48,.5-2.15,.89-.56,.32-.06,1.18,.5,.86,2.52-1.43,5.66-1.4,8.37-.55,2.42,.76,4.57,2.24,6.25,4.13s2.89,4.12,3.48,6.54c.69,2.81,.54,5.79-.16,8.58-.75,2.99-2.1,5.79-3.8,8.36s-3.6,4.98-6.57,5.71c-1.32,.33-2.74,.23-3.94-.44-1-.56-1.75-1.45-2.3-2.44-1.3-2.33-1.64-5.13-1.93-7.73-.77-6.72-.34-13.57,1.26-20.15,.2-.81,.41-1.61,.64-2.4,.18-.62-.79-.88-.96-.27h0Z"/>
        <path class="cls-2" d="M303.9,15.24c-.05,6.44-.09,12.88-.14,19.33l-.04,4.86-.02,2.37c0,.71-.03,1.42,.03,2.12,.11,1.26,.57,2.42,1.65,3.14,.94,.63,2.14,.79,3.24,.76,1.4-.04,2.72-.42,4.08-.71s3-.52,4.34,.19c.57,.3,1.07-.56,.5-.86-2.45-1.3-5.11-.15-7.62,.26-1.05,.17-2.18,.22-3.21-.11-1.08-.34-1.73-1.15-1.93-2.26-.11-.63-.09-1.27-.08-1.91l.02-2.37,.03-4.74,.07-9.41c.03-3.55,.05-7.11,.08-10.66,0-.64-1-.64-1,0h0Z"/>
        <path class="cls-2" d="M316.81,15.37c1.06,4.15,2.11,8.29,3.17,12.44s2.11,8.29,3.17,12.44c.6,2.33,1.19,4.67,1.79,7,.12,.45,.88,.5,.96,0,.72-4.11,1.72-8.18,3-12.15s2.82-7.81,4.63-11.54c1.02-2.11,2.13-4.19,3.32-6.21,.33-.56-.54-1.06-.86-.5-2.12,3.62-3.98,7.39-5.58,11.27s-2.93,7.86-3.97,11.93c-.59,2.3-1.09,4.61-1.5,6.95h.96c-1.06-4.15-2.11-8.29-3.17-12.44s-2.11-8.29-3.17-12.44c-.6-2.33-1.19-4.67-1.79-7-.16-.62-1.12-.36-.96,.27h0Z"/>
      </g>
      <g>
        <path class="cls-2" d="M346.44,28.9c-.1,4.94-.2,9.87-.31,14.81-.03,1.4-.06,2.79-.09,4.19-.01,.64,.99,.64,1,0,.1-4.94,.2-9.87,.31-14.81,.03-1.4,.06-2.79,.09-4.19,.01-.64-.99-.64-1,0h0Z"/>
        <path class="cls-2" d="M347.77,39.25c2.11,.96,4.6,.89,6.68-.14s3.46-3.09,3.65-5.41c.11-1.28-.19-2.59-.83-3.7-.26-.44-.91-.23-.93,.25-.16,4.28-.33,8.56-.49,12.84-.05,1.22-.09,2.44-.14,3.66-.02,.64,.98,.64,1,0,.16-4.28,.33-8.56,.49-12.84,.05-1.22,.09-2.44,.14-3.66l-.93,.25c.97,1.68,.94,3.82-.03,5.5s-2.89,2.74-4.84,2.9c-1.11,.09-2.24-.06-3.26-.52-.25-.11-.54-.07-.68,.18-.13,.21-.07,.57,.18,.68h0Z"/>
        <path class="cls-2" d="M360.19,44.24c2.91-1.58,5.43-3.91,7.15-6.75,.88-1.45,1.76-3.17,1.43-4.91-.3-1.61-1.7-2.76-3.35-2.66-1.73,.11-3.05,1.26-3.92,2.69-.94,1.55-1.58,3.32-1.96,5.09-.65,2.97-.84,6.75,1.21,9.25,1.19,1.44,3.08,1.99,4.9,1.82,2.11-.2,3.96-1.24,5.76-2.3,.55-.33,.05-1.19-.5-.86-1.44,.84-2.91,1.71-4.56,2.05-1.41,.29-3,.18-4.18-.72-2.2-1.68-2.22-5.06-1.9-7.53,.21-1.68,.68-3.35,1.39-4.89,.59-1.3,1.36-2.73,2.73-3.33,1.24-.54,2.74-.24,3.28,1.1,.58,1.45-.21,3.03-.92,4.28-1.64,2.89-4.12,5.23-7.04,6.81-.57,.31-.06,1.17,.5,.86h0Z"/>
      </g>
      <g>
        <path class="cls-2" d="M404.43,18.13c6.91,.03,13.81,.05,20.72,.08,1.96,0,3.91,.02,5.87,.02,.64,0,.64-1,0-1-6.91-.03-13.81-.05-20.72-.08-1.96,0-3.91-.02-5.87-.02-.64,0-.64,1,0,1h0Z"/>
        <path class="cls-2" d="M416.95,18.12c-.08,4.26-.15,8.51-.23,12.77s-.15,8.51-.23,12.77c-.04,2.41-.09,4.82-.13,7.22-.01,.64,.99,.64,1,0,.08-4.26,.15-8.51,.23-12.77s.15-8.51,.23-12.77c.04-2.41,.09-4.82,.13-7.22,.01-.64-.99-.64-1,0h0Z"/>
        <path class="cls-2" d="M430.27,26.99c-2.13,3.75-3.32,8.01-3.44,12.33-.06,2.12,.15,4.26,.61,6.33,.37,1.68,.98,3.5,2.47,4.52,.71,.49,1.61,.64,2.45,.45,.94-.22,1.72-.88,2.33-1.59,1.43-1.64,2.6-3.58,3.6-5.51,1.95-3.76,3.75-8.47,2.05-12.65-.72-1.77-2.02-3.36-3.8-4.15-1.68-.75-3.67-.9-5.39-.18-.43,.18-.82,.4-1.19,.68-.21,.16-.33,.43-.18,.68,.12,.21,.47,.35,.68,.18,1.32-1.01,3.07-1.22,4.65-.81,1.68,.44,3.03,1.59,3.88,3.09,2.03,3.63,.66,7.96-.97,11.45-.88,1.88-1.93,3.67-3.14,5.35-.88,1.22-2.18,3.03-3.93,2.42-1.38-.48-2.04-2.18-2.37-3.47-.49-1.91-.74-3.87-.76-5.84-.04-3.95,.85-7.9,2.6-11.44,.22-.45,.46-.9,.71-1.34,.32-.56-.55-1.07-.86-.5h0Z"/>
        <path class="cls-2" d="M440.17,17.17c1.56,4.05,2.85,8.21,3.86,12.43s1.72,8.43,2.16,12.71c.25,2.43,.4,4.87,.46,7.31,.02,.65,.95,.64,1,0,.33-4.54,.87-9.07,1.65-13.56s1.76-8.93,2.96-13.32c.68-2.49,1.43-4.96,2.24-7.41,.2-.61-.76-.87-.96-.27-1.45,4.36-2.69,8.79-3.71,13.28s-1.82,9-2.4,13.55c-.33,2.57-.58,5.14-.77,7.72h1c-.11-4.34-.51-8.68-1.19-12.97s-1.67-8.59-2.93-12.77c-.71-2.36-1.51-4.68-2.39-6.98-.1-.25-.34-.43-.62-.35-.24,.07-.45,.36-.35,.62h0Z"/>
      </g>
    </g>
  </g>
</svg>