<?xml version="1.0" encoding="UTF-8"?>
<svg id="Layer_2" data-name="Layer 2" xmlns="http://www.w3.org/2000/svg" viewBox="0 0 245.95 40.5">
  <defs>
    <style>
      .cls-1 {
        fill: #fff;
      }

      .cls-2 {
        fill: none;
        stroke: #fff;
        stroke-linecap: round;
        stroke-linejoin: round;
        stroke-width: .5px;
      }
    </style>
  </defs>
  <g id="Layer_4" data-name="Layer 4">
    <g>
      <rect class="cls-2" x=".25" y=".25" width="245.45" height="40" rx=".87" ry=".87"/>
      <line class="cls-2" x1="20.7" y1="30.44" x2="224.43" y2="30.44"/>
      <g>
        <path class="cls-1" d="M20.62,11.87c-.06,3.35-.12,6.69-.18,10.04,0,.32,.49,.32,.5,0,.06-3.35,.12-6.69,.18-10.04,0-.32-.49-.32-.5,0h0Z"/>
        <path class="cls-1" d="M20.63,7.34s-.06,.08-.08,.13-.03,.09-.03,.15c0,.08,.02,.17,.06,.24,.02,.04,.05,.07,.07,.1,.01,.02,.03,.03,.04,.05,.03,.02,.06,.05,.1,.07s.07,.04,.11,.04c.07,.01,.11,.01,.18,0,0,0,.02,0,.03,0,.03-.01,.06-.02,.09-.04,.02-.01,.05-.03,.07-.05,0,0,.01-.01,.02-.02,.02-.03,.05-.06,.07-.09s.03-.07,.04-.11,.01-.08,.01-.12c0-.09-.02-.15-.06-.23s-.1-.14-.17-.18c-.03-.02-.07-.04-.11-.05-.03,0-.06-.01-.09-.01-.01,0-.02,0-.03,0-.03,0-.07,0-.1,.02-.03,.01-.06,.03-.08,.05-.04,.04-.08,.11-.07,.18s.02,.13,.07,.18c.05,.04,.11,.08,.18,.07,.01,0,.03,0,.04,0h-.07s.03,0,.04,0l-.06-.03s.03,.01,.04,.02l-.05-.04s.03,.02,.04,.04l-.04-.05s.03,.04,.03,.06l-.03-.06s.02,.05,.02,.07v-.07s0,.05,0,.07v-.07s0,.03,0,.05l.03-.06s-.01,.03-.02,.04l.04-.05s-.02,.02-.03,.03l.05-.04s-.03,.02-.04,.02l.06-.03s-.02,0-.04,.01h.07s-.03,0-.05,0h.07s-.03,0-.05,0l.06,.03s-.04-.02-.05-.03l.05,.04s-.04-.03-.05-.05l.04,.05s-.03-.04-.04-.06l.03,.06s-.01-.04-.02-.06v.07s0-.03,0-.05v.07s0-.03,0-.04l-.03,.06s.01-.02,.02-.03l-.04,.05s0,0,.01-.01c.04-.05,.07-.11,.07-.18,0-.06-.03-.13-.07-.18s-.11-.08-.18-.07-.13,.02-.18,.07h0Z"/>
      </g>
      <path class="cls-1" d="M24.16,15.94c-.01,1.99-.02,3.97-.03,5.96h.5c-.1-1.06-.05-2.13,.16-3.18,.12-.61,.33-1.88,1.16-1.91s1.33,1.29,1.56,1.92c.33,.94,.45,1.94,.37,2.94-.03,.32,.47,.32,.5,0,.07-.9-.01-1.81-.26-2.67-.22-.77-.55-1.62-1.12-2.2-.48-.49-1.21-.67-1.78-.21-.6,.48-.78,1.34-.92,2.05-.21,1.07-.27,2.17-.17,3.26,.03,.32,.5,.33,.5,0,.01-1.99,.02-3.97,.03-5.96,0-.32-.5-.32-.5,0h0Z"/>
      <g>
        <path class="cls-1" d="M30.92,16.19c.23,3.51,.45,7.02,.68,10.53,.02,.32,.52,.32,.5,0-.23-3.51-.45-7.02-.68-10.53-.02-.32-.52-.32-.5,0h0Z"/>
        <path class="cls-1" d="M31.06,16.46c1.64,.06,3.59,.88,3.84,2.72,.1,.75-.19,1.61-.83,2.04-.61,.41-1.5,.41-2.05-.1-.24-.22-.59,.14-.35,.35,.53,.48,1.25,.64,1.94,.48s1.29-.68,1.58-1.34c.64-1.45-.1-3.03-1.35-3.86-.81-.54-1.8-.76-2.76-.79-.32-.01-.32,.49,0,.5h0Z"/>
      </g>
      <path class="cls-1" d="M37.79,16.11c-.09,1.04-.07,2.09,.06,3.13,.09,.72,.13,1.78,.74,2.28,.69,.56,1.51-.04,1.98-.58,.54-.6,.93-1.32,1.15-2.1,.25-.88,.27-1.82,.06-2.71-.07-.28-.48-.21-.49,.07-.06,2.02-.12,4.03-.18,6.05,0,.32,.49,.32,.5,0,.06-2.02,.12-4.03,.18-6.05l-.49,.07c.21,.87,.16,1.77-.11,2.62-.26,.79-.75,1.66-1.44,2.15-1.08,.75-1.26-.87-1.36-1.57-.16-1.11-.18-2.24-.09-3.35,.03-.32-.47-.32-.5,0h0Z"/>
      <g>
        <path class="cls-1" d="M45.28,7.81c-.15,2.97-.29,5.95-.44,8.92l-.11,2.18c-.03,.6-.1,1.23,.05,1.83,.26,1.02,1.24,1.47,2.23,1.28,1.3-.24,2.02-1.47,2.6-2.53,.15-.28-.28-.54-.43-.25-.48,.88-1.05,1.96-2.1,2.25-.42,.12-.92,.11-1.3-.13-.45-.29-.57-.82-.59-1.32-.02-.61,.04-1.22,.07-1.82l.1-1.93,.2-3.99,.22-4.49c.02-.32-.48-.32-.5,0h0Z"/>
        <path class="cls-1" d="M43.39,13.76c1.43-.32,2.87-.65,4.3-.97,.31-.07,.18-.55-.13-.48l-4.3,.97c-.31,.07-.18,.55,.13,.48h0Z"/>
      </g>
    </g>
  </g>
</svg>