<?xml version="1.0" encoding="UTF-8"?>
<svg id="Layer_2" data-name="Layer 2" xmlns="http://www.w3.org/2000/svg" viewBox="0 0 64.53 35.14">
  <defs>
    <style>
      .cls-1 {
        fill: #fff;
      }

      .cls-2 {
        fill: none;
        stroke: #fff;
        stroke-linecap: round;
        stroke-linejoin: round;
        stroke-width: .5px;
      }
    </style>
  </defs>
  <g id="Layer_8" data-name="Layer 8">
    <g>
      <polyline class="cls-2" points=".25 31.35 .25 .25 35.09 .25"/>
      <g>
        <path class="cls-1" d="M12.31,8c-.1,5.81-.2,11.62-.3,17.42l-.09,4.93h.5c-.06-2.24-.11-4.92,1.4-6.76,.82-1,2.14-1.71,3.44-1.32,1.12,.33,1.97,1.33,2.38,2.39,.61,1.57,.4,3.33,.23,4.97-.03,.32,.47,.32,.5,0,.17-1.62,.35-3.31-.17-4.89-.39-1.19-1.25-2.3-2.42-2.81-1.3-.56-2.72-.16-3.76,.74-.95,.82-1.51,1.99-1.8,3.2-.34,1.46-.35,2.98-.3,4.48,0,.32,.49,.32,.5,0,.1-5.81,.2-11.62,.3-17.42l.09-4.93c0-.32-.49-.32-.5,0h0Z"/>
        <path class="cls-1" d="M22.57,27.92c1.86,.06,3.69-.81,4.89-2.23,1.11-1.32,2.13-3.89,.49-5.22-.76-.62-1.76-.48-2.48,.13-.83,.71-1.05,1.84-1.24,2.85-.4,2.06-.72,4.52,.99,6.1,.75,.7,1.78,1.01,2.78,.7,1.1-.33,1.93-1.21,2.67-2.04,.21-.24-.14-.59-.35-.35-1.05,1.18-2.61,2.69-4.28,1.69s-1.78-3.17-1.52-4.91c.14-.94,.27-1.98,.67-2.85,.35-.74,1.16-1.5,2.04-1.17,.94,.34,1.15,1.47,1,2.34-.14,.81-.52,1.59-1.02,2.23-1.1,1.41-2.85,2.28-4.65,2.22-.32,0-.32,.49,0,.5h0Z"/>
        <g>
          <path class="cls-1" d="M34.94,20.57c-1.15,1.72-2.36,3.6-2.28,5.76,.06,1.79,1.23,3.59,3.12,3.81s3.42-1.59,4.11-3.18c.75-1.75,.7-3.81-.54-5.32s-3.65-1.88-5.12-.47c-.23,.22,.12,.58,.35,.35,1.17-1.12,3.07-.91,4.17,.19,1.23,1.24,1.39,3.1,.83,4.68-.51,1.43-1.74,3.24-3.43,3.26s-2.88-1.64-2.97-3.23c-.12-2.11,1.09-3.94,2.2-5.62,.18-.27-.25-.52-.43-.25h0Z"/>
          <path class="cls-1" d="M39.73,23.81c.17,1,.33,2,.56,2.98,.18,.79,.36,1.67,.85,2.34,.4,.54,.98,.87,1.67,.76,.58-.1,1.07-.51,1.1-1.12,.02-.32-.48-.32-.5,0-.03,.49-.61,.69-1.03,.63-.61-.08-.97-.7-1.17-1.22-.26-.66-.41-1.38-.55-2.08-.17-.81-.31-1.62-.44-2.43-.05-.32-.53-.18-.48,.13h0Z"/>
        </g>
        <path class="cls-1" d="M44.23,20.98c1.24,2.82,2.08,5.82,2.49,8.88,.04,.31,.5,.33,.5,0,0-3.63,1.97-7.15,5.07-9.06,.27-.17,.02-.6-.25-.43-3.25,2-5.31,5.68-5.31,9.49h.5c-.42-3.15-1.28-6.22-2.56-9.13-.13-.29-.56-.04-.43,.25h0Z"/>
        <path class="cls-1" d="M54.5,20.59c.2,1.29-.33,2.54-.37,3.81-.03,.99,.24,2.06,1.1,2.66,.79,.55,1.87,.53,2.72,.13,.97-.45,1.6-1.43,1.89-2.44,.41-1.4,.17-2.89-.08-4.3-.05-.28-.5-.21-.49,.07,.03,2.23,.07,4.47,.1,6.7,.02,1.12,.03,2.23,.05,3.35,.01,.87,.1,1.8-.16,2.64-.23,.73-.84,1.28-1.65,1.14-.7-.13-1.34-.68-1.55-1.36-.26-.88,.11-1.83,.66-2.52,.6-.76,1.45-1.25,2.32-1.64,1.84-.82,3.95-1.31,5.2-3.04,.19-.26-.25-.51-.43-.25-1.23,1.71-3.47,2.12-5.27,2.97-1.66,.79-3.44,2.41-3,4.46,.31,1.45,2.24,2.52,3.49,1.49,.65-.54,.84-1.42,.89-2.22,.07-1.13,0-2.28-.03-3.4-.04-2.77-.09-5.55-.13-8.32l-.49,.07c.35,1.96,.7,4.73-1.28,6-.71,.46-1.72,.55-2.45,.08-.83-.53-.97-1.61-.91-2.51,.09-1.25,.53-2.44,.34-3.71-.05-.32-.53-.18-.48,.13h0Z"/>
      </g>
    </g>
  </g>
</svg>