<svg width="302" height="99" viewBox="0 0 302 99" fill="none" xmlns="http://www.w3.org/2000/svg">
<g opacity="0.5">
<path d="M1.2625 41H21.7375C21.8825 41 22 40.8873 22 40.7482L22 1.25176C22 1.11272 21.8825 1 21.7375 1H1.2625C1.11753 1 1 1.11272 1 1.25176L1 40.7482C1 40.8873 1.11753 41 1.2625 41Z" stroke="white" stroke-width="0.5" stroke-linecap="round" stroke-linejoin="round"/>
<path d="M15.385 14.0513L7.60449 21.5136L15.385 28.9758" stroke="white" stroke-width="0.5" stroke-linecap="round" stroke-linejoin="round"/>
<path d="M50.7375 1L30.2625 1C30.1175 1 30 1.11272 30 1.25176L30 40.7482C30 40.8873 30.1175 41 30.2625 41L50.7375 41C50.8825 41 51 40.8873 51 40.7482L51 1.25176C51 1.11272 50.8825 1 50.7375 1Z" stroke="white" stroke-width="0.5" stroke-linecap="round" stroke-linejoin="round"/>
<path d="M36.615 27.9487L44.3955 20.4864L36.615 13.0242" stroke="white" stroke-width="0.5" stroke-linecap="round" stroke-linejoin="round"/>
<path d="M291.842 69C296.9 69 301 64.9706 301 60C301 55.0294 296.9 51 291.842 51C286.785 51 282.685 55.0294 282.685 60C282.685 64.9706 286.785 69 291.842 69Z" stroke="white" stroke-width="0.5" stroke-linecap="round" stroke-linejoin="round"/>
<path d="M1 60C1 60 210.836 59.9911 282.685 59.9821" stroke="white" stroke-width="0.5" stroke-linecap="round" stroke-linejoin="round"/>
<path d="M151 97.7694C156.05 97.7694 160.144 93.6194 160.144 88.5C160.144 83.3807 156.05 79.2306 151 79.2306C145.95 79.2306 141.856 83.3807 141.856 88.5C141.856 93.6194 145.95 97.7694 151 97.7694Z" stroke="white" stroke-width="0.5" stroke-linecap="round" stroke-linejoin="round"/>
<path d="M1.22754 88.5C1.22754 88.5 69.9499 88.4908 141.688 88.4816" stroke="white" stroke-width="0.5" stroke-linecap="round" stroke-linejoin="round"/>
<path d="M160.203 88.4769C231.9 88.4677 300.773 88.4585 300.773 88.4585" stroke="white" stroke-width="0.5" stroke-linecap="round" stroke-linejoin="round"/>
<path d="M299.902 1.24689H61.0974C60.6265 1.24689 60.2449 1.63159 60.2449 2.10615V39.8938C60.2449 40.3684 60.6265 40.7531 61.0974 40.7531H299.902C300.373 40.7531 300.755 40.3684 300.755 39.8938V2.10615C300.755 1.63159 300.373 1.24689 299.902 1.24689Z" stroke="white" stroke-width="0.5" stroke-linecap="round" stroke-linejoin="round"/>
<path d="M80.2832 31.0641H279.913" stroke="white" stroke-width="0.5" stroke-linecap="round" stroke-linejoin="round"/>
<path d="M80.4504 12.7234C80.3914 16.032 80.3324 19.3308 80.2734 22.6394" stroke="white" stroke-width="0.5" stroke-linecap="round" stroke-linejoin="round"/>
<path d="M80.3909 8.42711C80.2537 8.57526 80.4693 8.86168 80.6457 8.76292C80.8221 8.66415 80.7241 8.33822 80.5281 8.35798" stroke="white" stroke-width="0.5" stroke-linecap="round" stroke-linejoin="round"/>
<path d="M83.9187 16.7432L83.8893 22.6296C83.7717 21.3358 83.8697 20.0222 84.2028 18.7777C84.3694 18.1555 84.7124 17.4345 85.3493 17.3654C85.9568 17.2963 86.4369 17.8493 86.7309 18.3925C87.3972 19.6074 87.6912 21.0197 87.5638 22.4024" stroke="white" stroke-width="0.5" stroke-linecap="round" stroke-linejoin="round"/>
<path d="M90.5425 16.9901C90.7679 20.4568 90.9834 23.9234 91.2088 27.3901" stroke="white" stroke-width="0.5" stroke-linecap="round" stroke-linejoin="round"/>
<path d="M90.4348 17.0099C91.3069 17.0296 92.179 17.237 92.9237 17.6914C93.6684 18.1457 94.2465 18.8963 94.4131 19.7556C94.5797 20.6148 94.2857 21.5729 93.59 22.1062C92.8943 22.6395 91.8262 22.6296 91.1991 22.0272" stroke="white" stroke-width="0.5" stroke-linecap="round" stroke-linejoin="round"/>
<path d="M97.2743 16.9111C97.1568 18.3037 97.2352 19.716 97.5095 21.0888C97.5977 21.5333 97.7643 22.0271 98.1856 22.1851C98.607 22.3333 99.0479 22.0469 99.3615 21.7407C100.586 20.5456 101.115 18.6691 100.704 17C100.645 18.995 100.586 20.9802 100.528 22.9753" stroke="white" stroke-width="0.5" stroke-linecap="round" stroke-linejoin="round"/>
<path d="M104.613 8.71356C104.427 12.5358 104.241 16.3481 104.055 20.1704C104.026 20.8025 104.006 21.5037 104.398 22.0074C104.937 22.7086 106.054 22.6889 106.789 22.2049C107.524 21.721 107.974 20.9111 108.396 20.1308" stroke="white" stroke-width="0.5" stroke-linecap="round" stroke-linejoin="round"/>
<path d="M102.448 14.353L106.661 13.395" stroke="white" stroke-width="0.5" stroke-linecap="round" stroke-linejoin="round"/>
</g>
</svg>
