<svg width="126" height="52" viewBox="0 0 126 52" fill="none" xmlns="http://www.w3.org/2000/svg">
<g opacity="0.5">
<path d="M1.10854 17.5249H9.56709C9.62699 17.5249 9.67554 17.4783 9.67554 17.4209L9.67554 1.10427C9.67554 1.04683 9.62699 1.00026 9.56709 1.00026H1.10854C1.04865 1.00026 1.0001 1.04683 1.0001 1.10427L1.0001 17.4209C1.0001 17.4783 1.04865 17.5249 1.10854 17.5249Z" stroke="white" stroke-width="0.5" stroke-linecap="round" stroke-linejoin="round"/>
<path d="M6.94276 6.39197L3.72852 9.47474L6.94276 12.5575" stroke="white" stroke-width="0.5" stroke-linecap="round" stroke-linejoin="round"/>
<path d="M21.7867 1L13.3282 1C13.2683 1 13.2197 1.04657 13.2197 1.10401L13.2197 17.4206C13.2197 17.4781 13.2683 17.5246 13.3282 17.5246L21.7867 17.5246C21.8466 17.5246 21.8952 17.4781 21.8952 17.4206L21.8952 1.10401C21.8952 1.04657 21.8466 1 21.7867 1Z" stroke="white" stroke-width="0.5" stroke-linecap="round" stroke-linejoin="round"/>
<path d="M15.9523 12.1329L19.1665 9.05017L15.9523 5.9674" stroke="white" stroke-width="0.5" stroke-linecap="round" stroke-linejoin="round"/>
<path d="M121.152 28.5051C123.241 28.5051 124.935 26.8404 124.935 24.787C124.935 22.7336 123.241 21.069 121.152 21.069C119.062 21.069 117.369 22.7336 117.369 24.787C117.369 26.8404 119.062 28.5051 121.152 28.5051Z" stroke="white" stroke-width="0.5" stroke-linecap="round" stroke-linejoin="round"/>
<path d="M1 24.7871C1 24.7871 87.6868 24.7834 117.369 24.7797" stroke="white" stroke-width="0.5" stroke-linecap="round" stroke-linejoin="round"/>
<path d="M62.9673 39.8032C65.0535 39.8032 66.7446 38.0888 66.7446 35.9739C66.7446 33.859 65.0535 32.1445 62.9673 32.1445C60.8811 32.1445 59.1899 33.859 59.1899 35.9739C59.1899 38.0888 60.8811 39.8032 62.9673 39.8032Z" stroke="white" stroke-width="0.5" stroke-linecap="round" stroke-linejoin="round"/>
<path d="M1.09399 35.9739C1.09399 35.9739 29.4843 35.9701 59.1205 35.9663" stroke="white" stroke-width="0.5" stroke-linecap="round" stroke-linejoin="round"/>
<path d="M66.769 35.9644C96.3884 35.9606 124.841 35.9568 124.841 35.9568" stroke="white" stroke-width="0.5" stroke-linecap="round" stroke-linejoin="round"/>
<path d="M124.546 1.10229H25.8922C25.6977 1.10229 25.54 1.26122 25.54 1.45727V17.068C25.54 17.264 25.6977 17.4229 25.8922 17.4229H124.546C124.741 17.4229 124.899 17.264 124.899 17.068V1.45727C124.899 1.26122 124.741 1.10229 124.546 1.10229Z" stroke="white" stroke-width="0.5" stroke-linecap="round" stroke-linejoin="round"/>
<path d="M33.8184 13.4203H116.289" stroke="white" stroke-width="0.5" stroke-linecap="round" stroke-linejoin="round"/>
<path d="M33.8871 5.84351C33.8627 7.21036 33.8383 8.57313 33.814 9.93999" stroke="white" stroke-width="0.5" stroke-linecap="round" stroke-linejoin="round"/>
<path d="M33.8622 4.06859C33.8055 4.12979 33.8946 4.24812 33.9675 4.20731C34.0403 4.16651 33.9998 4.03187 33.9189 4.04003" stroke="white" stroke-width="0.5" stroke-linecap="round" stroke-linejoin="round"/>
<path d="M35.3199 7.50403L35.3078 9.9358C35.2592 9.4013 35.2997 8.85864 35.4373 8.34454C35.5062 8.08749 35.6478 7.78964 35.911 7.76108C36.1619 7.73252 36.3603 7.96101 36.4817 8.18542C36.757 8.68727 36.8784 9.27074 36.8258 9.84196" stroke="white" stroke-width="0.5" stroke-linecap="round" stroke-linejoin="round"/>
<path d="M38.0566 7.60608C38.1497 9.03821 38.2388 10.4703 38.3319 11.9025" stroke="white" stroke-width="0.5" stroke-linecap="round" stroke-linejoin="round"/>
<path d="M38.0122 7.6145C38.3725 7.62266 38.7328 7.70835 39.0404 7.89603C39.3481 8.08372 39.5869 8.39381 39.6557 8.74879C39.7245 9.10376 39.6031 9.49954 39.3157 9.71986C39.0283 9.94019 38.587 9.93611 38.328 9.68722" stroke="white" stroke-width="0.5" stroke-linecap="round" stroke-linejoin="round"/>
<path d="M40.8373 7.57349C40.7887 8.14879 40.8211 8.73225 40.9344 9.29939C40.9709 9.483 41.0397 9.68701 41.2138 9.75229C41.3878 9.81349 41.57 9.69517 41.6995 9.56868C42.2055 9.07498 42.4241 8.29975 42.2541 7.61021C42.2298 8.4344 42.2055 9.25451 42.1812 10.0787" stroke="white" stroke-width="0.5" stroke-linecap="round" stroke-linejoin="round"/>
<path d="M43.8693 4.18689C43.7924 5.76591 43.7155 7.34085 43.6386 8.91987C43.6264 9.181 43.6183 9.47069 43.7803 9.67878C44.0029 9.96847 44.4644 9.96031 44.768 9.76039C45.0716 9.56046 45.2578 9.22589 45.4318 8.90355" stroke="white" stroke-width="0.5" stroke-linecap="round" stroke-linejoin="round"/>
<path d="M42.9746 6.51663L44.7153 6.12085" stroke="white" stroke-width="0.5" stroke-linecap="round" stroke-linejoin="round"/>
<path d="M4.78011 50.8788C6.8678 50.8788 8.56021 49.2142 8.56021 47.1608C8.56021 45.1074 6.8678 43.4427 4.78011 43.4427C2.69241 43.4427 1 45.1074 1 47.1608C1 49.2142 2.69241 50.8788 4.78011 50.8788Z" stroke="white" stroke-width="0.5" stroke-linecap="round" stroke-linejoin="round"/>
<path d="M8.5603 47.1608L124.935 47.1442" stroke="white" stroke-width="0.5" stroke-linecap="round" stroke-linejoin="round"/>
</g>
</svg>
