<svg width="126" height="52" viewBox="0 0 126 52" fill="none" xmlns="http://www.w3.org/2000/svg">
<g opacity="0.5">
<path d="M104.108 51.5249H112.567C112.627 51.5249 112.675 51.4783 112.675 51.4209V35.1043C112.675 35.0468 112.627 35.0003 112.567 35.0003H104.108C104.048 35.0003 104 35.0468 104 35.1043V51.4209C104 51.4783 104.048 51.5249 104.108 51.5249Z" stroke="white" stroke-width="0.5" stroke-linecap="round" stroke-linejoin="round"/>
<path d="M109.943 40.392L106.729 43.4747L109.943 46.5575" stroke="white" stroke-width="0.5" stroke-linecap="round" stroke-linejoin="round"/>
<path d="M124.665 35L116.207 35C116.147 35 116.098 35.0466 116.098 35.104L116.098 51.4206C116.098 51.4781 116.147 51.5246 116.207 51.5246L124.665 51.5246C124.725 51.5246 124.774 51.4781 124.774 51.4206L124.774 35.104C124.774 35.0466 124.725 35 124.665 35Z" stroke="white" stroke-width="0.5" stroke-linecap="round" stroke-linejoin="round"/>
<path d="M118.831 46.1329L122.045 43.0502L118.831 39.9674" stroke="white" stroke-width="0.5" stroke-linecap="round" stroke-linejoin="round"/>
<path d="M121.152 8.43609C123.241 8.43609 124.935 6.77146 124.935 4.71804C124.935 2.66463 123.241 1 121.152 1C119.062 1 117.369 2.66463 117.369 4.71804C117.369 6.77146 119.062 8.43609 121.152 8.43609Z" stroke="white" stroke-width="0.5" stroke-linecap="round" stroke-linejoin="round"/>
<path d="M1 4.71809C1 4.71809 87.6868 4.71439 117.369 4.71069" stroke="white" stroke-width="0.5" stroke-linecap="round" stroke-linejoin="round"/>
<path d="M62.9673 20.1899C65.0535 20.1899 66.7446 18.4755 66.7446 16.3606C66.7446 14.2457 65.0535 12.5312 62.9673 12.5312C60.8811 12.5312 59.1899 14.2457 59.1899 16.3606C59.1899 18.4755 60.8811 20.1899 62.9673 20.1899Z" stroke="white" stroke-width="0.5" stroke-linecap="round" stroke-linejoin="round"/>
<path d="M1.09375 16.3606C1.09375 16.3606 29.484 16.3568 59.1203 16.353" stroke="white" stroke-width="0.5" stroke-linecap="round" stroke-linejoin="round"/>
<path d="M66.769 16.3511C96.3884 16.3473 124.841 16.3435 124.841 16.3435" stroke="white" stroke-width="0.5" stroke-linecap="round" stroke-linejoin="round"/>
<path d="M4.78011 30.7214C6.8678 30.7214 8.56021 29.0567 8.56021 27.0033C8.56021 24.9499 6.8678 23.2853 4.78011 23.2853C2.69241 23.2853 1 24.9499 1 27.0033C1 29.0567 2.69241 30.7214 4.78011 30.7214Z" stroke="white" stroke-width="0.5" stroke-linecap="round" stroke-linejoin="round"/>
<path d="M8.56006 27.0033L124.935 26.9867" stroke="white" stroke-width="0.5" stroke-linecap="round" stroke-linejoin="round"/>
<path d="M99.8262 35H1.17381C1.07782 35 1 35.0794 1 35.1774V51.2909C1 51.3889 1.07782 51.4683 1.17381 51.4683H99.8262C99.9222 51.4683 100 51.3889 100 51.2909V35.1774C100 35.0794 99.9222 35 99.8262 35Z" stroke="white" stroke-width="0.5" stroke-linecap="round" stroke-linejoin="round"/>
<path d="M9.24756 47.4303H91.4216" stroke="white" stroke-width="0.5" stroke-linecap="round" stroke-linejoin="round"/>
<path d="M7.77832 37.7389C8.86516 39.0808 9.95399 40.4207 11.0408 41.7627" stroke="white" stroke-width="0.5" stroke-linecap="round" stroke-linejoin="round"/>
<path d="M13.0836 37.2943C12.1067 40.1944 11.1297 43.0944 10.1548 45.9945" stroke="white" stroke-width="0.5" stroke-linecap="round" stroke-linejoin="round"/>
<path d="M13.8613 37.6085C15.9231 37.6391 17.9849 37.6717 20.0487 37.7023" stroke="white" stroke-width="0.5" stroke-linecap="round" stroke-linejoin="round"/>
<path d="M16.7744 37.7737C16.7305 40.3046 16.6865 42.8335 16.6426 45.3644" stroke="white" stroke-width="0.5" stroke-linecap="round" stroke-linejoin="round"/>
<path d="M21.0674 37.6185C21.0954 40.1698 21.1233 42.7212 21.1513 45.2725C21.2232 45.1481 21.2951 45.0237 21.3691 44.8992" stroke="white" stroke-width="0.5" stroke-linecap="round" stroke-linejoin="round"/>
<path d="M21.1265 37.6653L24.2411 37.6552C24.5108 37.6552 24.7925 37.6552 25.0323 37.7755C25.5657 38.0406 25.6376 38.7258 25.6436 39.2969C25.6616 41.3159 25.6796 43.337 25.6976 45.356" stroke="white" stroke-width="0.5" stroke-linecap="round" stroke-linejoin="round"/>
<path d="M28.5264 44.1142C29.6452 43.2882 30.6061 42.2644 31.3414 41.1121C31.5292 40.8164 31.707 40.5003 31.7309 40.1556C31.7549 39.811 31.5831 39.4317 31.2455 39.3052C30.8479 39.1543 30.3844 39.4133 30.1806 39.7702C29.9768 40.1271 29.9648 40.5513 29.9588 40.9592C29.9468 41.7892 29.9329 42.6193 29.9209 43.4513C29.9149 43.8286 29.9109 44.2161 30.0507 44.5689C30.1906 44.9218 30.5082 45.2379 30.9038 45.2705C31.4133 45.3133 31.8528 44.8647 31.9587 44.3874C32.0626 43.9245 31.9227 43.4167 31.5911 43.0598C31.2614 42.7049 30.748 42.5112 30.2525 42.552" stroke="white" stroke-width="0.5" stroke-linecap="round" stroke-linejoin="round"/>
<path d="M49.5811 44.1142C50.6999 43.2882 51.6608 42.2644 52.396 41.1121C52.5838 40.8164 52.7617 40.5003 52.7856 40.1556C52.8096 39.811 52.6378 39.4317 52.3001 39.3052C51.9026 39.1543 51.4391 39.4133 51.2353 39.7702C51.0315 40.1271 51.0195 40.5513 51.0135 40.9592C51.0015 41.7892 50.9875 42.6193 50.9756 43.4513C50.9696 43.8286 50.9656 44.2161 51.1054 44.5689C51.2453 44.9218 51.5629 45.2379 51.9585 45.2705C52.468 45.3133 52.9075 44.8647 53.0134 44.3874C53.1173 43.9245 52.9774 43.4167 52.6458 43.0598C52.3161 42.7049 51.8027 42.5112 51.3072 42.552" stroke="white" stroke-width="0.5" stroke-linecap="round" stroke-linejoin="round"/>
<path d="M76.6968 43.5329C77.8156 42.707 78.2951 42.2644 79.0323 41.1121C79.2201 40.8164 79.3979 40.5003 79.4219 40.1556C79.4458 39.811 79.274 39.4317 78.9364 39.3052C78.5388 39.1543 78.0753 39.4133 77.8715 39.7702C77.6677 40.1271 77.6557 40.5513 77.6498 40.9592C77.6378 41.7892 77.6238 42.6193 77.6118 43.4513C77.6058 43.8286 77.6018 44.2161 77.7417 44.5689C77.8815 44.9218 78.1992 45.2379 78.5947 45.2705C79.1042 45.3133 79.5437 44.8647 79.6496 44.3874C79.7535 43.9245 79.6136 43.4167 79.282 43.0598C78.9524 42.7049 78.4389 42.5112 77.9434 42.552" stroke="white" stroke-width="0.5" stroke-linecap="round" stroke-linejoin="round"/>
<path d="M37.4144 37.6368C36.9689 37.3003 36.2777 37.4247 35.8541 37.7857C35.4306 38.1466 35.2208 38.681 35.0749 39.203C34.7153 40.4858 34.6434 41.8421 34.8652 43.1534C34.9771 43.8223 35.2288 44.5565 35.8661 44.8563C36.3016 45.0623 36.8311 45.0093 37.2786 44.8278C37.7241 44.6442 38.1057 44.3444 38.4773 44.0487" stroke="white" stroke-width="0.5" stroke-linecap="round" stroke-linejoin="round"/>
<path d="M38.8169 37.6166C40.3373 37.6166 41.8556 37.6166 43.376 37.6166" stroke="white" stroke-width="0.5" stroke-linecap="round" stroke-linejoin="round"/>
<path d="M40.9764 37.6938C40.9564 39.9923 40.9364 42.2907 40.9185 44.5871" stroke="white" stroke-width="0.5" stroke-linecap="round" stroke-linejoin="round"/>
<path d="M43.0146 44.9808C43.3083 42.2887 45.2023 40.0107 46.0474 37.4268C46.2991 39.9414 46.5489 42.4539 46.8006 44.9685" stroke="white" stroke-width="0.5" stroke-linecap="round" stroke-linejoin="round"/>
<path d="M43.0532 41.5605C44.5177 41.5871 45.9841 41.6115 47.4485 41.638" stroke="white" stroke-width="0.5" stroke-linecap="round" stroke-linejoin="round"/>
<path d="M56.6703 38.1448C56.1828 39.864 56.0829 41.6811 56.3806 43.4391C56.4905 44.0897 56.7522 44.8381 57.4155 45.0319C57.7791 45.1379 58.1866 45.038 58.5023 44.8361C58.818 44.6342 59.0597 44.3425 59.2735 44.0407C60.0087 42.9965 60.4782 41.7199 60.2624 40.4799C60.0467 39.2399 59.0238 38.0856 57.7112 37.9367C57.2816 37.8878 56.8281 37.949 56.4605 38.1672" stroke="white" stroke-width="0.5" stroke-linecap="round" stroke-linejoin="round"/>
<path d="M61.7128 38.0061C61.6988 39.8701 61.6868 41.7362 61.6729 43.6002C61.6729 43.8286 61.6729 44.0734 61.8107 44.261C62.0584 44.6036 62.5919 44.5853 63.0154 44.4853C63.439 44.3854 63.9125 44.2447 64.2881 44.4568" stroke="white" stroke-width="0.5" stroke-linecap="round" stroke-linejoin="round"/>
<path d="M64.2886 38.0061C64.83 40.172 65.3714 42.3399 65.9128 44.5057C66.2804 42.3521 67.0276 40.2658 68.1105 38.3814" stroke="white" stroke-width="0.5" stroke-linecap="round" stroke-linejoin="round"/>
<path d="M70.2132 40.792L70.1353 44.6648" stroke="white" stroke-width="0.5" stroke-linecap="round" stroke-linejoin="round"/>
<path d="M70.4297 42.8152C70.9331 43.0538 71.5944 42.9437 71.984 42.5582C72.3736 42.1707 72.4615 41.5385 72.1898 41.0695C72.1478 42.1911 72.1059 43.3128 72.0639 44.4345" stroke="white" stroke-width="0.5" stroke-linecap="round" stroke-linejoin="round"/>
<path d="M72.8114 43.8328C73.4667 43.4719 74.0041 42.9192 74.3257 42.2666C74.4176 42.081 74.4936 41.8832 74.4896 41.6792C74.4856 41.4753 74.3857 41.2611 74.1979 41.1612C73.9901 41.0511 73.7184 41.1021 73.5286 41.2367C73.3368 41.3713 73.2129 41.5732 73.113 41.7792C72.8653 42.291 72.7394 42.856 72.7474 43.4188C72.7554 43.8798 72.8893 44.3937 73.3068 44.6262C73.5765 44.7771 73.9162 44.7751 74.2159 44.6894C74.5155 44.6037 74.7833 44.4447 75.049 44.2856" stroke="white" stroke-width="0.5" stroke-linecap="round" stroke-linejoin="round"/>
<path d="M81.6997 38.4935C83.4698 38.4996 85.2399 38.5078 87.012 38.5139" stroke="white" stroke-width="0.5" stroke-linecap="round" stroke-linejoin="round"/>
<path d="M84.3009 38.5934C84.263 40.8204 84.223 43.0475 84.1851 45.2745" stroke="white" stroke-width="0.5" stroke-linecap="round" stroke-linejoin="round"/>
<path d="M86.9486 40.4535C86.2873 41.6384 86.1015 43.0578 86.4352 44.361C86.5291 44.7261 86.7648 45.1543 87.1604 45.1339C87.4221 45.1217 87.6179 44.9076 87.7697 44.7036C88.1234 44.2264 88.415 43.7084 88.6308 43.1618C88.8086 42.7172 88.9385 42.2441 88.9045 41.7669C88.8706 41.2896 88.6528 40.8124 88.2472 40.533C87.8417 40.2536 87.2363 40.2251 86.8527 40.533" stroke="white" stroke-width="0.5" stroke-linecap="round" stroke-linejoin="round"/>
<path d="M88.9341 38.3711C89.7372 40.5023 90.1768 42.7559 90.2307 45.0176C90.3985 42.6376 90.858 40.276 91.6032 37.9979" stroke="white" stroke-width="0.5" stroke-linecap="round" stroke-linejoin="round"/>
</g>
</svg>
