<?xml version="1.0" encoding="UTF-8"?>
<svg id="Layer_2" data-name="Layer 2" xmlns="http://www.w3.org/2000/svg" viewBox="0 0 327.03 160.97">
  <defs>
    <style>
      .cls-1 {
        fill: #fff;
      }

      .cls-2 {
        fill: none;
        stroke: #fff;
        stroke-linecap: round;
        stroke-linejoin: round;
        stroke-width: .5px;
      }
    </style>
  </defs>
  <g id="Layer_4" data-name="Layer 4">
    <g>
      <g>
        <rect class="cls-2" x=".25" y=".25" width="326.53" height="160.47" rx="2" ry="2"/>
        <rect class="cls-2" x="224.97" y="41.12" width="81.4" height="98.85" rx=".98" ry=".98"/>
        <rect class="cls-2" x="21.25" y="41.12" width="182.52" height="98.85" rx="1.47" ry="1.47"/>
        <circle class="cls-2" cx="25.96" cy="21.27" r="4.95"/>
        <circle class="cls-2" cx="41.07" cy="21.27" r="4.95"/>
        <circle class="cls-2" cx="56.17" cy="21.27" r="4.95"/>
        <line class="cls-2" x1="21.66" y1="139.52" x2="203.36" y2="41.74"/>
        <line class="cls-2" x1="21.62" y1="41.82" x2="203.4" y2="139.43"/>
      </g>
      <g>
        <path class="cls-1" d="M243.94,50.36l-.32,1.13c-.07,.23,.25,.44,.42,.24,.53-.62,1.11-1.34,1.92-1.59,.72-.23,1.65-.05,1.89,.76s-.24,1.74-.6,2.46c-.43,.86-.9,1.71-1.4,2.54-.57,.94-1.18,1.86-1.83,2.75-.16,.22,.14,.45,.34,.34,1.21-.64,2.73-1.39,4.12-.95,1.23,.39,1.74,1.65,1.78,2.85,.06,2.29-1.46,5.33-4.01,5.52-1.23,.1-2.62-.47-3.08-1.7-.11-.3-.59-.17-.48,.13,.46,1.23,1.65,1.94,2.92,2.06,1.42,.14,2.74-.58,3.63-1.66s1.44-2.51,1.51-3.92c.06-1.3-.33-2.75-1.5-3.47-1.63-1.01-3.65-.09-5.15,.71l.34,.34c1.33-1.82,2.55-3.78,3.49-5.83,.35-.77,.67-1.72,.3-2.53s-1.24-1.08-2.05-.96c-1.08,.16-1.84,1.02-2.51,1.81l.42,.24,.32-1.13c.09-.31-.39-.44-.48-.13h0Z"/>
        <path class="cls-1" d="M252.85,62.27c-.82,1.1-.43,2.77,.66,3.55,1.24,.89,3.09,.49,4.05-.63,1.04-1.21,1.17-2.99,.51-4.42s-2.19-2.44-3.82-2.15-2.81,2.14-2.08,3.75c.13,.29,.56,.04,.43-.25-.55-1.21,.27-2.62,1.5-2.95,1.33-.37,2.66,.34,3.34,1.49s.73,2.63,.05,3.78c-.64,1.08-2.01,1.66-3.22,1.23s-1.78-2.08-.99-3.14c.19-.26-.24-.51-.43-.25h0Z"/>
        <path class="cls-1" d="M257.68,61.03l-.53,5.66c-.09,.94-.17,1.89-.26,2.83-.06,.66-.15,1.35-.41,1.97s-.76,1.18-1.48,1.26c-.78,.09-1.53-.36-1.82-1.09-.61-1.53,.87-2.64,2.02-3.32,1.83-1.07,3.68-2.1,5.52-3.16,.28-.16,.03-.59-.25-.43-1.85,1.06-3.72,2.09-5.56,3.18-1.27,.75-2.67,1.89-2.31,3.54s2.33,2.34,3.6,1.25c1.2-1.03,1.16-3.01,1.29-4.44l.68-7.26c.03-.32-.47-.32-.5,0h0Z"/>
        <path class="cls-1" d="M263.03,66.03c1.8-1.33,3.28-3.08,4.23-5.12,.37-.8,.69-1.84,.28-2.69-.44-.9-1.5-1.01-2.34-.64-1.78,.78-2.6,3-2.51,4.82s1.14,3.63,2.87,4.45c1.89,.9,4.24,.71,5.88-.62,.25-.2-.11-.55-.35-.35-1.28,1.03-3.08,1.27-4.64,.79s-2.78-1.77-3.15-3.41,.04-3.41,1.2-4.6c.56-.57,1.69-1.2,2.39-.49,.59,.6,.28,1.68-.01,2.35-.88,2.01-2.35,3.77-4.11,5.07-.26,.19,0,.62,.25,.43h0Z"/>
        <path class="cls-1" d="M277.31,58.65c.12-.5-.15-.95-.59-1.2-.47-.26-1.01-.23-1.46,.06-.5,.33-.82,.87-1.06,1.4-.3,.67-.54,1.36-.7,2.07-.33,1.4-.41,2.88-.18,4.31,.16,1.04,.68,2.28,1.84,2.5,1.63,.3,2.6-1.3,3.21-2.53,.14-.29-.29-.54-.43-.25-.46,.94-1.02,2.07-2.16,2.28s-1.67-.81-1.89-1.71c-.26-1.07-.24-2.24-.11-3.32,.14-1.16,.46-2.35,.99-3.39,.23-.45,.58-1,1.11-1.1,.42-.08,1.06,.24,.94,.73-.08,.31,.41,.45,.48,.13h0Z"/>
        <path class="cls-1" d="M281.97,56.84c-.69,2.15-1.09,4.39-1.19,6.65-.08,1.79,0,4.22,1.98,5,1.65,.66,3.36-.58,3.88-2.12,.48-1.42,.08-3.09-1.19-3.95-1.41-.96-3.51-.76-4.65,.53-.21,.24,.14,.59,.35,.35,.9-1.01,2.47-1.25,3.67-.66s1.74,2.01,1.42,3.31c-.34,1.4-1.81,2.68-3.31,2.09-1.79-.7-1.73-3.09-1.65-4.66,.11-2.17,.51-4.32,1.17-6.4,.1-.31-.38-.44-.48-.13h0Z"/>
      </g>
      <g>
        <path class="cls-1" d="M242.77,83.23c3.59-1.28,6.06-5.03,5.78-8.83-.02-.28-.4-.34-.49-.07-.4,1.22-.57,2.51-.48,3.79,.07,1.06,.23,2.35,.91,3.21,.73,.91,1.83,.67,2.63,0,.85-.72,1.51-1.72,1.97-2.73,.54-1.18,.82-2.45,.81-3.75,0-.33-.47-.31-.5,0-.19,1.94-.36,3.99,.44,5.82,.32,.72,.85,1.51,1.67,1.69,.7,.15,1.48-.17,1.71-.88,.1-.31-.38-.44-.48-.13-.22,.68-1.12,.64-1.6,.29-.62-.45-.93-1.27-1.13-1.98-.43-1.56-.27-3.23-.11-4.82h-.5c0,2-.71,3.99-2.03,5.51-.58,.66-1.64,1.64-2.45,.72-.3-.34-.45-.79-.56-1.22-.14-.53-.23-1.08-.28-1.63-.1-1.28,.06-2.56,.46-3.78l-.49-.07c.26,3.57-2.03,7.14-5.42,8.35-.3,.11-.17,.59,.13,.48h0Z"/>
        <path class="cls-1" d="M259.84,75.58c-.41,.81-.69,1.68-.81,2.58s-.12,1.84,.14,2.69c.24,.78,.83,1.3,1.65,1.37s1.61-.38,2.25-.88c1.34-1.04,2.38-2.57,2.36-4.32-.01-1.63-1.05-3.21-2.72-3.5s-3.35,1.1-3.1,2.86c.05,.32,.53,.18,.48-.13-.19-1.33,1.12-2.41,2.38-2.26,1.44,.18,2.39,1.49,2.45,2.88s-.68,2.74-1.72,3.7c-.53,.49-1.17,.99-1.9,1.13s-1.38-.18-1.63-.88c-.27-.75-.26-1.65-.17-2.43,.09-.89,.36-1.75,.77-2.55,.15-.29-.29-.54-.43-.25h0Z"/>
        <path class="cls-1" d="M267.26,75.11c.28-.35,.58-.74,1-.93,.38-.17,.92-.15,1.11,.28,.18,.4,.01,.9-.09,1.3-.13,.51-.26,1.02-.39,1.54s-.26,1.02-.39,1.54c-.12,.48-.29,.98-.3,1.48-.02,.74,.44,1.51,1.26,1.47,1.04-.06,1.49-1.17,2.43-1.4,.31-.08,.18-.56-.13-.48-.41,.1-.73,.34-1.04,.61-.34,.3-.68,.66-1.14,.76-.52,.11-.84-.31-.87-.78-.04-.52,.17-1.07,.29-1.57,.27-1.06,.55-2.13,.81-3.19,.18-.72,.27-1.68-.56-2.03-.97-.42-1.79,.39-2.35,1.07-.2,.25,.15,.6,.35,.35h0Z"/>
        <path class="cls-1" d="M273.6,80.89c.48,.68,1.4,.85,2.15,.53,.91-.38,1.5-1.29,1.96-2.11,1.02-1.83,1.44-3.98,1.2-6.06-.04-.31-.5-.33-.5,0,0,1.14,.02,2.29,.03,3.43,0,.57,0,1.15,.01,1.72,0,.43,.01,.86,.13,1.27,.2,.71,.74,1.2,1.48,1.27,.67,.07,1.34-.21,1.7-.79,.17-.27-.26-.53-.43-.25-.3,.49-.95,.66-1.48,.49-.72-.22-.86-.99-.89-1.66-.06-1.83-.03-3.66-.05-5.49h-.5c.21,1.79-.07,3.62-.85,5.25-.36,.75-.8,1.55-1.44,2.1-.56,.49-1.59,.76-2.1,.04-.18-.26-.62-.01-.43,.25h0Z"/>
        <path class="cls-1" d="M283.56,73.39l-.02,4.03c0,.87-.23,2.24,.59,2.83,.89,.64,1.96-.23,2.6-.82,.8-.74,1.5-1.6,2.07-2.54,.64-1.05,1.12-2.2,1.41-3.39l-.48-.13c-.43,2.62-.38,5.28,.16,7.88,.07,.31,.55,.18,.48-.13-.52-2.5-.58-5.09-.16-7.61,.05-.31-.4-.45-.48-.13-.47,1.88-1.4,3.64-2.72,5.06-.32,.34-.65,.68-1.01,.98-.34,.28-.84,.63-1.31,.55s-.62-.62-.65-1.05c-.03-.51,0-1.04,0-1.55l.02-3.97c0-.32-.5-.32-.5,0h0Z"/>
      </g>
      <g>
        <path class="cls-1" d="M246.09,92.2c-1.46,.76-2.34,2.42-2.08,4.05s1.59,3,3.25,3.23,3.24-.56,3.96-2.03,.55-3.11-.45-4.32c-1.31-1.59-3.67-1.88-5.35-.72-.26,.18-.01,.61,.25,.43,1.32-.91,3.09-.86,4.31,.2,1.05,.91,1.41,2.35,1,3.67s-1.66,2.28-3.09,2.31-2.79-.92-3.25-2.32c-.52-1.58,.26-3.31,1.71-4.06,.29-.15,.03-.58-.25-.43h0Z"/>
        <path class="cls-1" d="M251.47,96.99c.4-1.15,.46-2.4,.2-3.59-.28-1.26-.93-2.26-1.75-3.24-.75-.9-1.78-2.43-.6-3.45,.43-.37,1.01-.54,1.56-.66,.74-.17,1.49-.28,2.24-.37,1.68-.19,3.37-.21,5.05-.06,.32,.03,.32-.47,0-.5-1.58-.14-3.17-.14-4.75,.03-.76,.08-1.52,.19-2.27,.34-.59,.12-1.19,.25-1.72,.55-.48,.27-.87,.67-1.05,1.2-.2,.6-.07,1.27,.18,1.83,.29,.64,.76,1.16,1.2,1.69s.82,1.08,1.08,1.72c.58,1.39,.62,2.96,.13,4.38-.11,.3,.38,.44,.48,.13h0Z"/>
        <path class="cls-1" d="M256.46,90.27c-.56,1.56-.94,3.17-1.11,4.82-.12,1.12-.37,3.05,1.14,3.35,1.26,.25,2.52-.79,3.1-1.82,.62-1.09,.58-2.56-.36-3.47s-2.6-.81-3.28,.35c-.16,.28,.27,.53,.43,.25,.52-.88,1.8-.93,2.5-.25,.79,.77,.78,2,.26,2.91-.47,.81-1.6,1.84-2.64,1.52-.58-.18-.73-.79-.75-1.33-.02-.62,.06-1.25,.13-1.86,.19-1.48,.55-2.94,1.06-4.34,.11-.3-.37-.43-.48-.13h0Z"/>
        <path class="cls-1" d="M262.29,89.9l-.57,8.4c-.02,.32,.48,.32,.5,0l.57-8.4c.02-.32-.48-.32-.5,0h0Z"/>
        <path class="cls-1" d="M265.14,89.86l7.06-.07-.13-.47c-.1,.05-.21,.09-.31,.14-.29,.13-.04,.56,.25,.43,.1-.05,.21-.09,.31-.14,.23-.11,.11-.47-.13-.47l-7.06,.07c-.32,0-.32,.5,0,.5h0Z"/>
        <path class="cls-1" d="M268.41,89.68c-.05,3.28-.1,6.56-.15,9.84,0,.32,.49,.32,.5,0,.05-3.28,.1-6.56,.15-9.84,0-.32-.49-.32-.5,0h0Z"/>
        <path class="cls-1" d="M274.5,88.91l-.19,2.86c-.06,.88-.15,1.78-.15,2.66,0,1.36,.44,3.01,1.87,3.53,1.1,.4,2.45-.14,3.01-1.16,.6-1.1,.22-2.56-.74-3.33-1.15-.93-2.88-.71-3.91,.28-.23,.22,.12,.58,.35,.35,.81-.77,2.13-.99,3.08-.36,.88,.58,1.29,1.87,.78,2.81-.48,.88-1.7,1.34-2.61,.86-1.22-.65-1.37-2.21-1.32-3.44,.07-1.69,.21-3.37,.32-5.06,.02-.32-.48-.32-.5,0h0Z"/>
      </g>
      <g>
        <path class="cls-1" d="M243.05,110.81c2.5-1.02,4.61-2.95,5.81-5.38,.45-.92,.98-2.37,.05-3.2-.48-.43-1.19-.45-1.76-.2-.61,.26-1.03,.8-1.36,1.35-1.51,2.53-1.89,5.73-1.09,8.56,.34,1.21,1.01,2.57,2.49,2.41,1.35-.15,2.46-1.34,2.91-2.56,.51-1.37,.11-3.02-1.13-3.85-1.11-.74-2.73-.45-3.47,.67-.18,.27,.26,.52,.43,.25,.57-.88,1.84-1.08,2.71-.54,1,.61,1.38,1.9,1.08,3s-1.21,2.22-2.37,2.49c-1.37,.32-1.91-1.04-2.2-2.11-.66-2.42-.42-5.08,.67-7.34,.25-.51,.53-1.05,.93-1.45s1.07-.72,1.63-.43c1.02,.52,.36,2.06,0,2.79-1.14,2.27-3.11,4.1-5.47,5.07-.29,.12-.17,.6,.13,.48h0Z"/>
        <g>
          <path class="cls-1" d="M253.21,106.9l-.14,2.98c-.04,.79-.21,1.73,.12,2.48,.27,.62,.89,.97,1.54,1.03,.76,.08,1.48-.27,2.07-.72,1.21-.93,2.26-2.31,2.37-3.88,.1-1.47-.71-2.88-2.17-3.28-1.55-.42-3.15,.55-3.55,2.1-.08,.31,.4,.44,.48,.13,.3-1.19,1.48-2.02,2.71-1.8,1.31,.24,2.07,1.41,2.03,2.7-.04,1.36-.92,2.54-1.91,3.4-.49,.43-1.1,.84-1.78,.85-.61,.01-1.21-.28-1.4-.89-.11-.35-.09-.73-.07-1.09,.02-.43,.04-.86,.06-1.29l.13-2.73c.02-.32-.48-.32-.5,0h0Z"/>
          <path class="cls-1" d="M258.93,106.98l-.26,2.91c-.07,.73-.21,1.52,0,2.24,.19,.65,.71,1.1,1.4,1.12,.8,.02,1.45-.51,2.03-1,.24-.21-.11-.56-.35-.35-.5,.43-1.1,.96-1.81,.84-.64-.1-.83-.73-.85-1.3-.03-.67,.08-1.35,.14-2.01l.22-2.45c.03-.32-.47-.32-.5,0h0Z"/>
        </g>
        <path class="cls-1" d="M263.85,105.83l-.42,3.85c-.06,.58-.19,1.19-.17,1.78,.01,.38,.12,.79,.47,.99,.42,.25,.91,.06,1.29-.17,.41-.24,.79-.54,1.14-.86,.71-.64,1.31-1.43,1.74-2.28,.5-.98,.8-2.04,.87-3.14,.02-.28-.43-.34-.49-.07-.26,1.2-.52,2.4-.77,3.6-.15,.71-.58,1.9,.1,2.48s1.87-.2,2.48-.61c.75-.51,1.4-1.16,1.94-1.9,.61-.85,1.03-1.82,1.24-2.84,.06-.31-.39-.44-.48-.13-.68,2.24-.77,4.62-.29,6.92,.07,.31,.55,.18,.48-.13-.47-2.21-.37-4.49,.29-6.65l-.48-.13c-.32,1.56-1.17,2.97-2.38,4-.3,.26-.62,.49-.97,.69s-.81,.51-1.23,.51c-.89,0-.29-1.75-.2-2.18,.25-1.16,.5-2.32,.75-3.48l-.49-.07c-.11,1.69-.82,3.32-1.96,4.57-.28,.3-.57,.58-.89,.83s-.77,.64-1.19,.66c-.48,.03-.47-.56-.45-.9,.04-.54,.12-1.07,.17-1.61l.41-3.72c.04-.32-.47-.32-.5,0h0Z"/>
        <path class="cls-1" d="M275.07,106l.16,4.03c.03,.9-.05,2.22,.98,2.62s2.05-.44,2.74-1.12c.74-.73,1.33-1.61,1.74-2.56,.46-1.08,.68-2.26,.63-3.43-.01-.33-.46-.31-.5,0-.3,2.56-.13,5.16,.5,7.65,.08,.31,.56,.18,.48-.13-.62-2.46-.78-5-.48-7.52h-.5c.08,1.83-.53,3.66-1.7,5.07-.29,.35-.61,.67-.95,.96-.38,.32-.84,.66-1.36,.68-1.19,.04-1.04-1.54-1.07-2.34l-.15-3.91c-.01-.32-.51-.32-.5,0h0Z"/>
      </g>
      <g>
        <path class="cls-1" d="M269.19,122.74c2.5-1.02,4.61-2.95,5.81-5.38,.45-.92,.98-2.37,.05-3.2-.48-.43-1.19-.45-1.76-.2-.61,.26-1.03,.8-1.36,1.35-1.51,2.53-1.89,5.73-1.09,8.56,.34,1.21,1.01,2.57,2.49,2.41,1.35-.15,2.46-1.34,2.91-2.56,.51-1.37,.11-3.02-1.13-3.85-1.11-.74-2.73-.45-3.47,.67-.18,.27,.26,.52,.43,.25,.57-.88,1.84-1.08,2.71-.54,1,.61,1.38,1.9,1.08,3s-1.21,2.22-2.37,2.49c-1.37,.32-1.91-1.04-2.2-2.11-.66-2.42-.42-5.08,.67-7.34,.25-.51,.53-1.05,.93-1.45s1.07-.72,1.63-.43c1.02,.52,.36,2.06,0,2.79-1.14,2.27-3.11,4.1-5.47,5.07-.29,.12-.17,.6,.13,.48h0Z"/>
        <g>
          <path class="cls-1" d="M260.29,119.78l-.14,2.98c-.04,.79-.21,1.73,.12,2.48,.27,.62,.89,.97,1.54,1.03,.76,.08,1.48-.27,2.07-.72,1.21-.93,2.26-2.31,2.37-3.88,.1-1.47-.71-2.88-2.17-3.28-1.55-.42-3.15,.55-3.55,2.1-.08,.31,.4,.44,.48,.13,.3-1.19,1.48-2.02,2.71-1.8,1.31,.24,2.07,1.41,2.03,2.7-.04,1.36-.92,2.54-1.91,3.4-.49,.43-1.1,.84-1.78,.85-.61,.01-1.21-.28-1.4-.89-.11-.35-.09-.73-.07-1.09,.02-.43,.04-.86,.06-1.29l.13-2.73c.02-.32-.48-.32-.5,0h0Z"/>
          <path class="cls-1" d="M266.02,119.86l-.26,2.91c-.07,.73-.21,1.52,0,2.24,.19,.65,.71,1.1,1.4,1.12,.8,.02,1.45-.51,2.03-1,.24-.21-.11-.56-.35-.35-.5,.43-1.1,.96-1.81,.84-.64-.1-.83-.73-.85-1.3-.03-.67,.08-1.35,.14-2.01l.22-2.45c.03-.32-.47-.32-.5,0h0Z"/>
        </g>
        <path class="cls-1" d="M243.24,119.05c-.06,2.94-.12,5.88-.18,8.82,0,.33,.46,.31,.5,0,.28-2.2,1.13-4.32,2.42-6.12,.32-.44,.66-.88,1.05-1.27,.36-.36,.94-.82,1.48-.54s.64,.98,.66,1.53c.03,.62,.05,1.25,.08,1.87,.06,1.45,.12,2.9,.17,4.35,.01,.32,.51,.32,.5,0-.06-1.47-.12-2.94-.18-4.41-.03-.71-.02-1.43-.1-2.14-.06-.56-.23-1.13-.68-1.49-1.04-.84-2.17,.29-2.81,1.06-.79,.95-1.46,2.01-1.97,3.14-.58,1.28-.96,2.63-1.14,4.03h.5c.06-2.94,.12-5.88,.18-8.82,0-.32-.49-.32-.5,0h0Z"/>
        <path class="cls-1" d="M252.81,118.55l.87,12.85c.02,.32,.52,.32,.5,0l-.87-12.85c-.02-.32-.52-.32-.5,0h0Z"/>
        <path class="cls-1" d="M253.3,118.69c1.12-.15,2.33-.12,3.36,.39,.88,.44,1.58,1.26,1.75,2.24,.41,2.44-2.83,3.52-4.71,3.45-.32-.01-.32,.49,0,.5,1.83,.07,4.23-.69,5.02-2.51,.74-1.7-.48-3.55-2.05-4.22-1.06-.45-2.24-.49-3.37-.34-.31,.04-.32,.54,0,.5h0Z"/>
        <path class="cls-1" d="M278.14,117.81l-.06,7.57c0,.33,.47,.31,.5,0l.1-1.02c.03-.32-.47-.32-.5,0l-.1,1.02h.5l.06-7.57c0-.32-.5-.32-.5,0h0Z"/>
        <path class="cls-1" d="M281.06,118.04l-1.59,2.2c-.26,.37-.53,.73-.79,1.1-.2,.28-.4,.57-.29,.93,.1,.33,.41,.55,.67,.76,.35,.29,.69,.58,1.04,.88,.71,.6,1.42,1.19,2.13,1.79,.24,.21,.6-.15,.35-.35-.63-.53-1.26-1.06-1.89-1.59-.3-.25-.6-.5-.9-.76-.27-.23-.66-.46-.86-.75-.21-.31,.22-.71,.39-.95l.72-1,1.44-2c.19-.26-.25-.51-.43-.25h0Z"/>
        <path class="cls-1" d="M283.72,118.23l.03,3.59c0,.58,0,1.15,.02,1.73,.01,.37,.07,.77,.29,1.07,.62,.84,1.63,.1,2.15-.45,.65-.68,1.1-1.53,1.4-2.42,.4-1.19,.53-2.44,.67-3.68,.03-.28-.45-.35-.49-.07-.41,2.7-.28,5.45,.38,8.1,.08,.31,.56,.18,.48-.13-.64-2.56-.78-5.23-.38-7.84l-.49-.07c-.23,2.13-.52,4.82-2.41,6.19-.22,.16-.54,.34-.8,.16-.18-.13-.23-.38-.27-.58-.09-.56-.03-1.16-.04-1.72l-.03-3.9c0-.32-.5-.32-.5,0h0Z"/>
      </g>
    </g>
  </g>
</svg>