<?xml version="1.0" encoding="UTF-8"?>
<svg id="Layer_2" data-name="Layer 2" xmlns="http://www.w3.org/2000/svg" viewBox="0 0 48.4 32.97">
  <defs>
    <style>
      .cls-1 {
        fill: #fff;
      }

      .cls-2 {
        fill: none;
        stroke: #fff;
        stroke-linecap: round;
        stroke-linejoin: round;
        stroke-width: .5px;
      }
    </style>
  </defs>
  <g id="Layer_8" data-name="Layer 8">
    <g>
      <polyline class="cls-2" points="48.15 31.35 48.15 .25 13.31 .25"/>
      <g>
        <g>
          <path class="cls-1" d="M4.68,11.59c-.87,3.82-1.25,7.76-1.1,11.68,.04,.99,.11,1.99,.22,2.98,.09,.85,.17,1.72,.37,2.55,.29,1.23,.98,2.62,2.39,2.77,2.02,.2,3.05-1.88,3.69-3.43,.12-.3-.36-.43-.48-.13-.54,1.31-1.39,3.19-3.11,3.07-1.38-.1-1.88-1.69-2.09-2.82-.32-1.71-.43-3.48-.49-5.22s-.01-3.5,.14-5.25c.17-2.04,.49-4.07,.95-6.06,.07-.31-.41-.45-.48-.13h0Z"/>
          <path class="cls-1" d="M.5,19.05H7.3c.32,0,.32-.5,0-.5H.5c-.32,0-.32,.5,0,.5H.5Z"/>
        </g>
        <path class="cls-1" d="M13.49,10.11c-.1,5.81-.2,11.62-.3,17.42l-.09,4.93h.5c-.06-2.24-.11-4.92,1.4-6.76,.82-1,2.14-1.71,3.44-1.32,1.12,.33,1.97,1.33,2.38,2.39,.61,1.57,.4,3.33,.23,4.97-.03,.32,.47,.32,.5,0,.17-1.62,.35-3.31-.17-4.89-.39-1.19-1.25-2.3-2.42-2.81-1.3-.56-2.72-.16-3.76,.74-.95,.82-1.51,1.99-1.8,3.2-.34,1.46-.35,2.98-.3,4.48,0,.32,.49,.32,.5,0,.1-5.81,.2-11.62,.3-17.42l.09-4.93c0-.32-.49-.32-.5,0h0Z"/>
        <g>
          <path class="cls-1" d="M25.02,13.49c.13,4.7,.27,9.39,.4,14.09l.11,3.99c0,.32,.51,.32,.5,0-.13-4.7-.27-9.39-.4-14.09-.04-1.33-.08-2.66-.11-3.99,0-.32-.51-.32-.5,0h0Z"/>
          <path class="cls-1" d="M24.74,9.94l.53,.29c.08,.04,.17,.05,.25,0,.07-.04,.13-.13,.12-.22-.03-.22-.06-.45-.08-.67,0-.07-.02-.13-.07-.18-.04-.04-.11-.08-.18-.07s-.13,.02-.18,.07c-.04,.05-.08,.11-.07,.18,.03,.22,.06,.45,.08,.67l.38-.22-.53-.29c-.11-.06-.28-.03-.34,.09s-.03,.28,.09,.34h0Z"/>
        </g>
        <path class="cls-1" d="M30.09,22.78c.03,2.69,.05,5.38,.08,8.06,0,.32,.5,.32,.5,0,.01-2.2,.09-4.93,2.2-6.22s4.09,.45,4.7,2.4c.42,1.35,.35,2.8,.29,4.19-.02,.32,.48,.32,.5,0,.12-2.47,.1-5.4-2.19-6.94-.91-.61-2.05-.76-3.06-.34s-1.84,1.34-2.28,2.35c-.63,1.43-.65,3.02-.66,4.55h.5c-.03-2.69-.05-5.38-.08-8.06,0-.32-.5-.32-.5,0h0Z"/>
      </g>
    </g>
  </g>
</svg>