<svg width="302" height="83" viewBox="0 0 302 83" fill="none" xmlns="http://www.w3.org/2000/svg">
<g opacity="0.3">
<path d="M1 1.04094C1 1.04094 71.6396 1.03184 143.385 1.02275H161.895C233.595 1.0091 301 1 301 1" stroke="white" stroke-width="0.5" stroke-linecap="round" stroke-linejoin="round"/>
</g>
<g opacity="0.3">
<path d="M1.2625 82H21.7375C21.8825 82 22 81.8873 22 81.7482L22 42.2518C22 42.1127 21.8825 42 21.7375 42H1.2625C1.11753 42 1 42.1127 1 42.2518L1 81.7482C1 81.8873 1.11753 82 1.2625 82Z" stroke="white" stroke-width="0.5" stroke-linecap="round" stroke-linejoin="round"/>
<path d="M15.385 55.0513L7.60449 62.5135L15.385 69.9757" stroke="white" stroke-width="0.5" stroke-linecap="round" stroke-linejoin="round"/>
<path d="M50.7375 42L30.2625 42C30.1175 42 30 42.1127 30 42.2518L30 81.7482C30 81.8873 30.1175 82 30.2625 82L50.7375 82C50.8825 82 51 81.8873 51 81.7482L51 42.2518C51 42.1127 50.8825 42 50.7375 42Z" stroke="white" stroke-width="0.5" stroke-linecap="round" stroke-linejoin="round"/>
<path d="M36.615 68.9487L44.3955 61.4865L36.615 54.0243" stroke="white" stroke-width="0.5" stroke-linecap="round" stroke-linejoin="round"/>
<path d="M299.903 42.2471H61.0976C60.6268 42.2471 60.2451 42.6318 60.2451 43.1063V80.894C60.2451 81.3685 60.6268 81.7532 61.0976 81.7532H299.903C300.374 81.7532 300.755 81.3685 300.755 80.894V43.1063C300.755 42.6318 300.374 42.2471 299.903 42.2471Z" stroke="white" stroke-width="0.5" stroke-linecap="round" stroke-linejoin="round"/>
<path d="M80.2832 72.0645H279.913" stroke="white" stroke-width="0.5" stroke-linecap="round" stroke-linejoin="round"/>
<path d="M80.4504 53.7236C80.3914 57.0323 80.3324 60.331 80.2734 63.6397" stroke="white" stroke-width="0.5" stroke-linecap="round" stroke-linejoin="round"/>
<path d="M80.3912 49.4274C80.254 49.5756 80.4695 49.862 80.6459 49.7632C80.8223 49.6645 80.7243 49.3385 80.5283 49.3583" stroke="white" stroke-width="0.5" stroke-linecap="round" stroke-linejoin="round"/>
<path d="M83.9189 57.7432L83.8895 63.6296C83.7719 62.3358 83.8699 61.0222 84.2031 59.7777C84.3696 59.1555 84.7126 58.4345 85.3495 58.3654C85.957 58.2963 86.4372 58.8493 86.7311 59.3925C87.3975 60.6074 87.6914 62.0197 87.564 63.4024" stroke="white" stroke-width="0.5" stroke-linecap="round" stroke-linejoin="round"/>
<path d="M90.542 57.9902C90.7674 61.4569 90.9829 64.9236 91.2083 68.3902" stroke="white" stroke-width="0.5" stroke-linecap="round" stroke-linejoin="round"/>
<path d="M90.4346 58.0098C91.3067 58.0295 92.1787 58.2369 92.9234 58.6912C93.6682 59.1456 94.2463 59.8962 94.4129 60.7554C94.5794 61.6147 94.2855 62.5727 93.5898 63.1061C92.8941 63.6394 91.826 63.6295 91.1989 63.0271" stroke="white" stroke-width="0.5" stroke-linecap="round" stroke-linejoin="round"/>
<path d="M97.2746 57.9111C97.157 59.3037 97.2354 60.7161 97.5098 62.0889C97.5979 62.5334 97.7645 63.0272 98.1859 63.1852C98.6072 63.3334 99.0482 63.0469 99.3617 62.7408C100.587 61.5457 101.116 59.6692 100.704 58C100.645 59.9951 100.587 61.9803 100.528 63.9753" stroke="white" stroke-width="0.5" stroke-linecap="round" stroke-linejoin="round"/>
<path d="M104.613 49.7139C104.427 53.5361 104.241 57.3484 104.055 61.1707C104.026 61.8028 104.006 62.504 104.398 63.0077C104.937 63.7089 106.054 63.6892 106.789 63.2052C107.524 62.7213 107.974 61.9114 108.396 61.1312" stroke="white" stroke-width="0.5" stroke-linecap="round" stroke-linejoin="round"/>
<path d="M102.448 55.3535L106.662 54.3955" stroke="white" stroke-width="0.5" stroke-linecap="round" stroke-linejoin="round"/>
</g>
</svg>
