<?xml version="1.0" encoding="UTF-8"?>
<svg id="Layer_2" data-name="Layer 2" xmlns="http://www.w3.org/2000/svg" viewBox="0 0 213.96 256.8">
  <g id="Layer_2-2" data-name="Layer 2">
    <path d="M0,256.8c17.21-3.09,25.93-19.88,25.93-50.02V50.02C25.93,19.88,17.21,3.09,0,0H96.28c35.47,0,65.55,13.67,86.99,39.52,19.79,23.86,30.69,56.61,30.69,92.21,0,62.26-34.22,125.07-110.66,125.07H0ZM88.15,2.7c-12.96,0-34.64-1-34.64,25.51V228.6c0,26.51,21.69,25.51,34.64,25.51h14.79c21.16,0,42.4-12.5,58.28-36.04,16.23-24.08,25.17-55.4,25.17-88.18s-8.84-64.35-24.24-87.85C150.08,23.63,128.41,2.7,93.69,2.7h-5.55Z"/>
  </g>
</svg>