<?xml version="1.0" encoding="UTF-8"?>
<svg id="Layer_2" data-name="Layer 2" xmlns="http://www.w3.org/2000/svg" viewBox="0 0 253.78 284.02">
  <g id="Layer_2-2" data-name="Layer 2">
    <path d="M158.65,284.02c-41.2,0-73.78-16.23-102.52-30.54-20.74-10.33-38.66-19.26-55.1-19.26-.34,0-.69,0-1.03,.01,13.35-8.68,25.37-12.91,36.64-12.91,20.11,0,36.5,12.75,53.85,26.24,20.28,15.77,43.27,33.65,76.29,33.65,47.55,0,77.9-35.85,77.9-60.52,0-26.3-32.09-26.36-66.05-26.41-35.14-.06-71.48-.12-71.48-30.53,0-22.58,19.59-36.81,32.83-39.32l2.37-.45-1.99-1.36c-16.41-11.19-25.44-29.01-25.44-50.2,0-17.47,6.39-33.34,18-44.67,12.01-11.73,28.45-17.92,47.55-17.92,5.41,0,11.22,.63,16.8,1.83,3.85,.49,7.74,.73,11.64,.73,17.73,0,35.14-5.14,42.53-12.4,.93,3.04,.72,5.51-.63,7.52-3.11,4.61-12.5,6.94-27.93,6.94-3.42,0-7.22-.11-11.3-.34l-.46,1.91c21.86,9.83,34.9,30.92,34.9,56.39,0,36.42-26.96,61.85-65.55,61.85-13.97,0-26.96-3.4-37.56-9.84l-.17-.11-.39,.08c-10.78,2.31-22.41,11.12-22.41,23.07,0,18.38,24.88,18.38,51.21,18.38h3.4c17.86,0,38.11,0,53.65,5.35,17.21,5.93,25.58,17.63,25.58,35.8,0,30.96-25.33,77.01-95.13,77.01ZM180.47,11.53c-11.27,0-20.83,5.82-27.66,16.83-6.75,10.9-10.32,26.13-10.32,44.06,0,36.54,14.91,60.16,37.97,60.16s37.97-23.61,37.97-60.16c0-17.93-3.57-33.17-10.32-44.06-6.82-11.01-16.38-16.83-27.65-16.83Z"/>
  </g>
</svg>