<svg width="640" height="206" viewBox="0 0 640 206" fill="none" xmlns="http://www.w3.org/2000/svg">
<g clip-path="url(#clip0_122_580)">
<path d="M56.0066 160.777C42.0397 160.777 30.2717 155.813 21.9789 146.419C13.7276 137.079 9.32973 123.847 9.25076 108.164C9.08864 90.8632 14.2805 75.9735 23.8661 66.2466C31.976 58.0161 42.9874 53.6307 55.7114 53.5641C55.9109 53.5641 56.1146 53.5641 56.3142 53.5641C84.4184 53.5641 102.779 74.5768 103.091 107.1C103.336 124.222 98.4684 138.363 89.0199 147.999C80.8892 156.287 69.6908 160.706 56.6301 160.777C56.4181 160.777 56.2102 160.777 56.0024 160.777H56.0066ZM55.8611 54.2708C45.1157 54.4205 36.0996 59.8617 29.7896 70.0085C23.8619 79.5401 20.6404 93.0414 20.7152 108.018C20.7942 123.033 24.103 135.911 30.2884 145.263C36.694 154.949 45.7226 160.07 56.4015 160.07H56.6342C64.7359 160.012 71.7816 156.994 77.5721 151.104C86.6963 141.817 91.8175 125.776 91.6263 107.087C91.4725 92.3015 88.1221 78.9955 82.1903 69.6136C75.8387 59.5707 66.8891 54.2625 56.3017 54.2625C56.152 54.2625 56.0066 54.2625 55.8611 54.2625V54.2708Z" fill="black"/>
<path d="M134.706 160.926C123.986 160.926 112.529 154.737 112.529 137.365V98.6364C112.529 92.2765 109.748 89.3127 107.425 88.5769C112.367 88.3608 120.664 86.7479 123.99 81.8013V137.673C123.99 150.559 132.856 155.148 141.157 155.148C145.863 155.148 150.627 153.698 154.23 151.174C158.159 148.418 160.324 144.661 160.324 140.595V98.6364C160.324 92.2765 157.543 89.3127 155.224 88.5769C160.166 88.3608 168.463 86.7479 171.789 81.8013V143.052C171.789 149.412 174.57 152.376 176.889 153.111C171.947 153.328 163.65 154.94 160.324 159.887V146.431L159.522 146.282C156.213 154.766 145.776 160.926 134.706 160.926V160.926Z" fill="black"/>
<path d="M203.713 161.542C199.34 161.542 195.296 159.808 192.336 156.657C188.69 152.779 186.762 146.801 186.762 139.365V93.4114C186.762 85.3389 182.896 83.7718 180.306 83.6304V82.9072C186.691 82.6952 194.693 77.6613 196.509 70.4658H198.226V82.9155H210.214V83.6221H198.226V139.365C198.226 155.83 205.181 157.609 208.169 157.609C211.158 157.609 213.856 156.034 214.641 154.674C214.155 158.486 209.337 161.542 203.709 161.542H203.713Z" fill="black"/>
<path d="M258.356 160.328C265.51 159.043 269.135 152.064 269.135 139.535V74.3732C269.135 61.8404 265.514 54.8653 258.36 53.5808H298.382C313.126 53.5808 325.63 59.2632 334.542 70.0085C342.768 79.9267 347.299 93.5402 347.299 108.338C347.299 134.219 333.075 160.328 301.3 160.328H258.356ZM294.998 54.699C289.611 54.699 280.599 54.2833 280.599 65.303V148.601C280.599 159.621 289.615 159.205 294.998 159.205H301.146C309.942 159.205 318.771 154.009 325.372 144.224C332.119 134.215 335.835 121.195 335.835 107.569C335.835 93.9434 332.16 80.8204 325.759 71.0519C320.741 63.4034 311.734 54.7031 297.305 54.7031H294.998V54.699Z" fill="black"/>
<path d="M352.868 160.465C360.022 159.181 363.646 152.201 363.646 139.673V98.6368C363.646 92.2769 360.865 89.3131 358.542 88.5773C363.484 88.3612 371.781 86.7484 375.107 81.8017V139.673C375.107 152.206 378.731 159.181 385.885 160.465H352.868V160.465ZM367.225 75.3213C361.888 75.3213 358.575 72.0041 358.575 66.671C358.575 61.3378 361.971 58.1744 367.225 58.1744C372.479 58.1744 375.722 61.5082 375.722 66.671C375.722 71.8337 372.388 75.3213 367.225 75.3213Z" fill="black"/>
<path d="M412.719 198.117C395.593 198.117 382.05 191.371 370.104 185.422C361.482 181.128 354.033 177.416 347.2 177.416C347.058 177.416 346.913 177.416 346.771 177.421C352.321 173.812 357.317 172.054 362.002 172.054C370.361 172.054 377.174 177.354 384.386 182.962C392.816 189.517 402.373 196.949 416.099 196.949C435.864 196.949 448.48 182.047 448.48 171.792C448.48 160.86 435.141 160.835 421.025 160.814C406.418 160.789 391.312 160.764 391.312 148.123C391.312 138.737 399.455 132.822 404.959 131.779L405.944 131.592L405.116 131.026C398.295 126.375 394.542 118.967 394.542 110.159C394.542 102.897 397.198 96.3004 402.024 91.5907C407.016 86.7148 413.85 84.1417 421.789 84.1417C424.038 84.1417 426.453 84.4036 428.773 84.9024C430.373 85.1061 431.99 85.2058 433.611 85.2058C440.981 85.2058 448.218 83.0692 451.29 80.0514C451.677 81.3151 451.59 82.3418 451.028 83.1773C449.736 85.0936 445.832 86.0621 439.418 86.0621C437.997 86.0621 436.417 86.0164 434.721 85.9208L434.53 86.7148C443.617 90.8009 449.037 99.5676 449.037 110.155C449.037 125.294 437.831 135.865 421.789 135.865C415.982 135.865 410.583 134.452 406.176 131.775L406.106 131.729L405.944 131.762C401.463 132.722 396.628 136.384 396.628 141.352C396.628 148.992 406.97 148.992 417.915 148.992H419.329C426.753 148.992 435.17 148.992 441.63 151.216C448.784 153.681 452.263 158.544 452.263 166.097C452.263 178.967 441.734 198.109 412.719 198.109V198.117ZM421.785 84.8525C417.101 84.8525 413.127 87.2718 410.288 91.8484C407.482 96.3793 405.998 102.71 405.998 110.163C405.998 125.352 412.196 135.171 421.781 135.171C431.367 135.171 437.565 125.356 437.565 110.163C437.565 102.71 436.081 96.3752 433.275 91.8484C430.44 87.2718 426.466 84.8525 421.781 84.8525H421.785Z" fill="black"/>
<path d="M455.838 160.465C462.992 159.181 466.617 152.201 466.617 139.673V98.6368C466.617 92.2769 463.836 89.3131 461.517 88.5773C466.459 88.3612 474.756 86.7484 478.081 81.8017V139.673C478.081 152.206 481.706 159.181 488.86 160.465H455.843H455.838ZM470.196 75.3213C464.859 75.3213 461.546 72.0041 461.546 66.671C461.546 61.3378 464.942 58.1744 470.196 58.1744C475.45 58.1744 478.693 61.5082 478.693 66.671C478.693 71.8337 475.359 75.3213 470.196 75.3213Z" fill="black"/>
<path d="M584.534 161.542C581.333 161.542 573.884 160.34 573.884 149.2V139.98L573.061 139.893C570.916 149.699 564.714 161.388 547.339 161.388C539.242 161.388 532.811 158.989 528.746 154.458L528.247 153.905L528.255 153.843L528.143 153.706C525.453 150.418 524.086 146.369 524.086 141.676C524.086 126.117 539.333 121.191 554.081 116.428C561.83 113.925 569.15 111.56 573.585 107.719L573.739 107.586L573.726 107.382C573.269 99.3473 571.598 93.6484 568.622 89.9529C565.779 86.4238 561.734 84.7071 556.255 84.7071C549.821 84.7071 544.346 87.1097 542.305 90.83C541.299 92.6632 540.651 95.706 543.22 99.8129C542.488 104.809 540.193 107.449 536.585 107.449C534.956 107.449 533.489 106.846 532.454 105.757C531.161 104.394 530.554 102.311 530.695 99.7422V99.4804L530.853 99.0023L530.845 98.9192C530.088 88.9221 524.294 81.9386 516.753 81.9386C515.115 81.9386 513.37 82.2753 511.836 82.8905L511.574 82.9944V139.365C511.574 155.24 517.805 157.609 521.517 157.609C524.352 157.609 527.241 156.046 528.031 154.604L528.022 154.691C527.594 158.536 522.781 161.546 517.061 161.546C512.684 161.546 508.643 159.812 505.684 156.661C502.038 152.783 500.109 146.806 500.109 139.369V93.4114C500.109 85.3389 496.244 83.7718 493.654 83.6304V82.9072C500.039 82.6952 508.041 77.6613 509.857 70.4658H511.574V82.3252L512.131 82.1215C513.835 81.5022 515.311 81.2236 516.907 81.2236C524.148 81.2236 529.785 86.9476 530.94 95.4649L531.157 97.0528L531.743 95.5605C534.578 88.3152 542.995 83.9921 554.256 83.9921C560.254 83.9921 568.817 85.2017 575.56 90.9631C582.053 96.5124 585.345 104.988 585.345 116.157V139.519C585.345 149.05 585.79 157.609 591.139 157.609C592.524 157.609 594.456 156.998 595.72 155.822L595.837 155.967C593.671 158.707 589.63 161.542 584.53 161.542H584.534ZM573.265 110.878C569.773 112.844 565.247 114.137 560.458 115.505C548.786 118.843 535.554 122.621 535.554 137.827C535.554 149.607 543.635 158.835 553.953 158.835C561.41 158.835 566.959 154.076 570.443 144.694C573.722 135.857 573.889 126.283 573.889 124.454V110.525L573.269 110.874L573.265 110.878Z" fill="black"/>
<path d="M596.613 160.465C603.767 159.181 607.391 152.205 607.391 139.673V63.4451C607.391 57.0851 604.611 54.1213 602.287 53.3856C607.229 53.1694 615.526 51.5566 618.852 46.61V139.673C618.852 152.205 622.472 159.185 629.63 160.465H596.613V160.465Z" fill="black"/>
<path d="M215.588 16.8384C251.273 18.2109 289.214 21.1624 328.406 25.81C524.612 49.0831 677.888 106.075 670.761 153.104C663.635 200.134 498.804 219.395 302.598 196.126C106.388 172.857 -46.8876 115.865 -39.7612 68.8315C-34.8517 36.4542 44.7984 17.24 157.969 16.0001" stroke="#1D1D1B" stroke-width="0.5" stroke-miterlimit="10"/>
<path d="M201.994 16.219C187.1 16.6297 186.596 17.1197 185.778 31.9971C185.367 17.1025 184.877 16.5986 170 15.7807C184.895 15.3701 185.398 14.88 186.216 0.00268555C186.627 14.8973 187.117 15.4011 201.998 16.219H201.994Z" stroke="#1D1D1B" stroke-width="0.5" stroke-miterlimit="10"/>
</g>
<defs>
<clipPath id="clip0_122_580">
<rect width="640" height="206" fill="white"/>
</clipPath>
</defs>
</svg>
