<svg width="713" height="208" viewBox="0 0 713 208" fill="none" xmlns="http://www.w3.org/2000/svg">
<path d="M97.0066 161.774C83.0397 161.774 71.2717 156.811 62.9789 147.416C54.7276 138.076 50.3297 124.845 50.2508 109.161C50.0886 91.8605 55.2805 76.9708 64.8661 67.2439C72.976 59.0134 83.9874 54.6279 96.7114 54.5614C96.9109 54.5614 97.1146 54.5614 97.3142 54.5614C125.418 54.5614 143.779 75.5741 144.091 108.097C144.336 125.219 139.468 139.36 130.02 148.996C121.889 157.285 110.691 161.703 97.6301 161.774C97.4181 161.774 97.2102 161.774 97.0024 161.774H97.0066ZM96.8611 55.2681C86.1157 55.4177 77.0996 60.859 70.7896 71.0058C64.8619 80.5373 61.6404 94.0387 61.7152 109.016C61.7942 124.03 65.103 136.908 71.2884 146.261C77.694 155.946 86.7226 161.067 97.4015 161.067H97.6342C105.736 161.009 112.782 157.991 118.572 152.101C127.696 142.815 132.817 126.774 132.626 108.085C132.472 93.2987 129.122 79.9928 123.19 70.6109C116.839 60.568 107.889 55.2598 97.3017 55.2598C97.152 55.2598 97.0066 55.2598 96.8611 55.2598V55.2681Z" fill="black"/>
<path d="M175.706 161.924C164.986 161.924 153.529 155.734 153.529 138.363V99.6338C153.529 93.2738 150.748 90.31 148.425 89.5743C153.367 89.3581 161.664 87.7453 164.99 82.7987V138.67C164.99 151.556 173.856 156.146 182.157 156.146C186.863 156.146 191.627 154.695 195.23 152.172C199.159 149.416 201.324 145.658 201.324 141.593V99.6338C201.324 93.2738 198.543 90.31 196.224 89.5743C201.166 89.3581 209.463 87.7453 212.789 82.7987V144.049C212.789 150.409 215.57 153.373 217.889 154.109C212.947 154.325 204.65 155.938 201.324 160.884V147.429L200.522 147.279C197.213 155.763 186.776 161.924 175.706 161.924V161.924Z" fill="black"/>
<path d="M244.713 162.539C240.34 162.539 236.296 160.805 233.336 157.655C229.69 153.776 227.762 147.799 227.762 140.362V94.4087C227.762 86.3362 223.896 84.7691 221.306 84.6278V83.9045C227.691 83.6925 235.693 78.6586 237.509 71.4631H239.226V83.9128H251.214V84.6194H239.226V140.362C239.226 156.827 246.181 158.607 249.169 158.607C252.158 158.607 254.856 157.031 255.641 155.672C255.155 159.484 250.337 162.539 244.709 162.539H244.713Z" fill="black"/>
<path d="M299.356 161.325C306.51 160.041 310.135 153.061 310.135 140.533V75.3705C310.135 62.8377 306.514 55.8625 299.36 54.5781H339.382C354.126 54.5781 366.63 60.2605 375.542 71.0058C383.768 80.924 388.299 94.5375 388.299 109.336C388.299 135.216 374.075 161.325 342.3 161.325H299.356ZM335.998 55.6963C330.611 55.6963 321.599 55.2806 321.599 66.3003V149.599C321.599 160.618 330.615 160.203 335.998 160.203H342.146C350.942 160.203 359.771 155.007 366.372 145.221C373.119 135.212 376.835 122.193 376.835 108.567C376.835 94.9407 373.16 81.8177 366.759 72.0492C361.741 64.4006 352.734 55.7004 338.305 55.7004H335.998V55.6963Z" fill="black"/>
<path d="M393.868 161.463C401.022 160.178 404.646 153.199 404.646 140.67V99.6341C404.646 93.2742 401.865 90.3104 399.542 89.5746C404.484 89.3585 412.781 87.7456 416.107 82.799V140.67C416.107 153.203 419.731 160.178 426.885 161.463H393.868V161.463ZM408.225 76.3186C402.888 76.3186 399.575 73.0014 399.575 67.6682C399.575 62.3351 402.971 59.1717 408.225 59.1717C413.479 59.1717 416.722 62.5055 416.722 67.6682C416.722 72.831 413.388 76.3186 408.225 76.3186Z" fill="black"/>
<path d="M453.719 199.115C436.593 199.115 423.05 192.368 411.104 186.42C402.482 182.126 395.033 178.414 388.2 178.414C388.058 178.414 387.913 178.414 387.771 178.418C393.321 174.81 398.317 173.051 403.002 173.051C411.361 173.051 418.174 178.351 425.386 183.959C433.816 190.514 443.373 197.947 457.099 197.947C476.864 197.947 489.48 183.044 489.48 172.79C489.48 161.857 476.141 161.832 462.025 161.811C447.418 161.786 432.312 161.761 432.312 149.121C432.312 139.735 440.455 133.819 445.959 132.776L446.944 132.589L446.116 132.024C439.295 127.372 435.542 119.965 435.542 111.156C435.542 103.895 438.198 97.2977 443.024 92.588C448.016 87.7121 454.85 85.139 462.789 85.139C465.038 85.139 467.453 85.4009 469.773 85.8997C471.373 86.1034 472.99 86.2032 474.611 86.2032C481.981 86.2032 489.218 84.0666 492.29 81.0487C492.677 82.3124 492.59 83.3391 492.028 84.1746C490.736 86.0909 486.832 87.0595 480.418 87.0595C478.997 87.0595 477.417 87.0137 475.721 86.9181L475.53 87.7121C484.617 91.7982 490.037 100.565 490.037 111.152C490.037 126.291 478.831 136.862 462.789 136.862C456.982 136.862 451.583 135.449 447.176 132.772L447.106 132.726L446.944 132.759C442.463 133.72 437.628 137.382 437.628 142.349C437.628 149.989 447.97 149.989 458.915 149.989H460.329C467.753 149.989 476.17 149.989 482.63 152.213C489.784 154.678 493.263 159.542 493.263 167.095C493.263 179.964 482.734 199.106 453.719 199.106V199.115ZM462.785 85.8498C458.101 85.8498 454.127 88.2691 451.288 92.8457C448.482 97.3767 446.998 103.707 446.998 111.161C446.998 126.35 453.196 136.168 462.781 136.168C472.367 136.168 478.565 126.354 478.565 111.161C478.565 103.707 477.081 97.3725 474.275 92.8457C471.44 88.2691 467.466 85.8498 462.781 85.8498H462.785Z" fill="black"/>
<path d="M496.838 161.463C503.992 160.178 507.617 153.199 507.617 140.67V99.6341C507.617 93.2742 504.836 90.3104 502.517 89.5746C507.459 89.3585 515.756 87.7456 519.081 82.799V140.67C519.081 153.203 522.706 160.178 529.86 161.463H496.843H496.838ZM511.196 76.3186C505.859 76.3186 502.546 73.0014 502.546 67.6682C502.546 62.3351 505.942 59.1717 511.196 59.1717C516.45 59.1717 519.693 62.5055 519.693 67.6682C519.693 72.831 516.359 76.3186 511.196 76.3186Z" fill="black"/>
<path d="M625.534 162.539C622.333 162.539 614.884 161.338 614.884 150.197V140.977L614.061 140.89C611.916 150.696 605.714 162.385 588.339 162.385C580.242 162.385 573.811 159.987 569.746 155.456L569.247 154.903L569.255 154.84L569.143 154.703C566.453 151.415 565.086 147.366 565.086 142.673C565.086 127.115 580.333 122.189 595.081 117.425C602.83 114.923 610.15 112.557 614.585 108.716L614.739 108.583L614.726 108.38C614.269 100.345 612.598 94.6457 609.622 90.9503C606.779 87.4211 602.734 85.7044 597.255 85.7044C590.821 85.7044 585.346 88.107 583.305 91.8273C582.299 93.6605 581.651 96.7033 584.22 100.81C583.488 105.807 581.193 108.446 577.585 108.446C575.956 108.446 574.489 107.844 573.454 106.754C572.161 105.391 571.554 103.308 571.695 100.74V100.478L571.853 99.9996L571.845 99.9165C571.088 89.9194 565.294 82.9359 557.753 82.9359C556.115 82.9359 554.37 83.2726 552.836 83.8878L552.574 83.9918V140.362C552.574 156.237 558.805 158.607 562.517 158.607C565.352 158.607 568.241 157.044 569.031 155.601L569.022 155.688C568.594 159.533 563.781 162.543 558.061 162.543C553.684 162.543 549.643 160.81 546.684 157.659C543.038 153.78 541.109 147.803 541.109 140.366V94.4087C541.109 86.3362 537.244 84.7691 534.654 84.6278V83.9045C541.039 83.6925 549.041 78.6586 550.857 71.4631H552.574V83.3225L553.131 83.1188C554.835 82.4995 556.311 82.221 557.907 82.221C565.148 82.221 570.785 87.9449 571.94 96.4622L572.157 98.0501L572.743 96.5578C575.578 89.3125 583.995 84.9894 595.256 84.9894C601.254 84.9894 609.817 86.199 616.56 91.9604C623.053 97.5097 626.345 105.985 626.345 117.155V140.516C626.345 150.048 626.79 158.607 632.139 158.607C633.524 158.607 635.456 157.995 636.72 156.819L636.837 156.965C634.671 159.704 630.63 162.539 625.53 162.539H625.534ZM614.265 111.876C610.773 113.842 606.247 115.135 601.458 116.502C589.786 119.84 576.554 123.619 576.554 138.824C576.554 150.605 584.635 159.833 594.953 159.833C602.41 159.833 607.959 155.073 611.443 145.691C614.722 136.854 614.889 127.281 614.889 125.452V111.522L614.269 111.871L614.265 111.876Z" fill="black"/>
<path d="M637.613 161.462C644.767 160.178 648.391 153.203 648.391 140.67V64.4424C648.391 58.0825 645.611 55.1187 643.287 54.3829C648.229 54.1667 656.526 52.5539 659.852 47.6073V140.67C659.852 153.203 663.472 160.182 670.63 161.462H637.613V161.462Z" fill="black"/>
<path d="M256.588 17.8357C292.273 19.2082 330.214 22.1597 369.406 26.8073C565.612 50.0804 718.888 107.072 711.761 154.102C704.635 201.131 539.804 220.392 343.598 197.123C147.388 173.854 -5.88758 116.862 1.23876 69.8288C6.14831 37.4516 85.7984 18.2373 198.969 16.9974" stroke="#1D1D1B" stroke-width="0.5" stroke-miterlimit="10"/>
<path d="M242.994 17.2163C228.1 17.627 227.596 18.1171 226.778 32.9944C226.367 18.0998 225.877 17.5959 211 16.7781C225.895 16.3674 226.398 15.8773 227.216 1C227.627 15.8946 228.117 16.3984 242.998 17.2163H242.994Z" stroke="#1D1D1B" stroke-width="0.5" stroke-miterlimit="10"/>
</svg>
