<?xml version="1.0" encoding="UTF-8"?>
<svg id="Layer_2" data-name="Layer 2" xmlns="http://www.w3.org/2000/svg" viewBox="0 0 225.78 257.93">
  <g id="Layer_2-2" data-name="Layer 2">
    <path d="M112.48,257.93c-33.6,0-61.91-11.94-81.86-34.54C10.77,200.92,.19,169.09,0,131.36-.39,89.74,12.1,53.93,35.16,30.52,54.67,10.72,81.17,.17,111.78,0c.48,0,.97,0,1.45,0,67.61,0,111.78,50.55,112.53,128.79,.59,41.19-11.12,75.21-33.85,98.39-19.56,19.94-46.5,30.57-77.92,30.74-.51,0-1.01,0-1.51,0ZM112.13,1.7c-25.85,.36-47.54,13.45-62.72,37.86-14.26,22.93-22.01,55.41-21.83,91.44,.19,36.12,8.15,67.1,23.03,89.6,15.41,23.3,37.13,35.62,62.82,35.62h.56c19.49-.14,36.44-7.4,50.37-21.57,21.95-22.34,34.27-60.93,33.81-105.89-.37-35.57-8.43-67.58-22.7-90.15C160.2,14.47,138.66,1.7,113.19,1.7c-.36,0-.71,0-1.06,0Z"/>
  </g>
</svg>