<?xml version="1.0" encoding="UTF-8"?>
<svg id="Layer_2" data-name="Layer 2" xmlns="http://www.w3.org/2000/svg" viewBox="0 0 245.81 219.09">
  <g id="Layer_2-2" data-name="Layer 2">
    <path d="M218.61,219.09c-7.7,0-25.62-2.89-25.62-29.69v-22.18l-1.98-.21c-5.16,23.59-20.08,51.71-61.88,51.71-19.48,0-34.95-5.77-44.73-16.67l-1.2-1.33,.02-.15-.27-.33c-6.47-7.91-9.76-17.65-9.76-28.94,0-37.43,36.68-49.28,72.16-60.74,18.64-6.02,36.25-11.71,46.92-20.95l.37-.32-.03-.49c-1.1-19.33-5.12-33.04-12.28-41.93-6.84-8.49-16.57-12.62-29.75-12.62-15.48,0-28.65,5.78-33.56,14.73-2.42,4.41-3.98,11.73,2.2,21.61-1.76,12.02-7.28,18.37-15.96,18.37-3.92,0-7.45-1.45-9.94-4.07-3.11-3.28-4.57-8.29-4.23-14.47v-.63s.38-1.15,.38-1.15l-.02-.2c-1.82-24.05-15.76-40.85-33.9-40.85-3.94,0-8.14,.81-11.83,2.29l-.63,.25V165.74c0,38.19,14.99,43.89,23.92,43.89,6.82,0,13.77-3.76,15.67-7.23l-.02,.21c-1.03,9.25-12.61,16.49-26.37,16.49-10.53,0-20.25-4.17-27.37-11.75-8.77-9.33-13.41-23.71-13.41-41.6V55.2c0-19.42-9.3-23.19-15.53-23.53v-1.74c15.36-.51,34.61-12.62,38.98-29.93h4.13V28.53l1.34-.49c4.1-1.49,7.65-2.16,11.49-2.16,17.42,0,30.98,13.77,33.76,34.26l.52,3.82,1.41-3.59c6.82-17.43,27.07-27.83,54.16-27.83,14.43,0,35.03,2.91,51.25,16.77,15.62,13.35,23.54,33.74,23.54,60.61v56.2c0,22.93,1.07,43.52,13.94,43.52,3.33,0,7.98-1.47,11.02-4.3l.28,.35c-5.21,6.59-14.93,13.41-27.2,13.41Zm-27.11-121.88c-8.4,4.73-19.29,7.84-30.81,11.13-28.08,8.03-59.91,17.12-59.91,53.7,0,28.34,19.44,50.54,44.26,50.54,17.94,0,31.29-11.45,39.67-34.02,7.89-21.26,8.29-44.29,8.29-48.69v-33.51l-1.49,.84Z"/>
  </g>
</svg>