<?xml version="1.0" encoding="UTF-8"?>
<svg id="Layer_2" data-name="Layer 2" xmlns="http://www.w3.org/2000/svg" viewBox="0 0 167.11 190.35">
  <g id="Layer_2-2" data-name="Layer 2">
    <path d="M65.62,190.35c-25.79,0-53.35-14.89-53.35-56.68V40.51c0-15.3-6.69-22.43-12.28-24.2C11.89,15.78,31.85,11.9,39.85,0V134.42c0,31,21.33,42.04,41.3,42.04,11.32,0,22.78-3.49,31.45-9.56,9.45-6.63,14.66-15.67,14.66-25.45V40.51c0-15.3-6.69-22.43-12.27-24.2,11.89-.52,31.85-4.4,39.85-16.3V147.35c0,15.3,6.69,22.43,12.27,24.2-11.89,.52-31.85,4.4-39.85,16.3v-32.37l-1.93-.36c-7.96,20.41-33.07,35.23-59.7,35.23Z"/>
  </g>
</svg>