<svg width="56" height="56" viewBox="0 0 56 56" fill="none" xmlns="http://www.w3.org/2000/svg">
<path d="M12.9437 0.93042H42.8297C49.696 0.93042 55.2822 6.51661 55.2822 13.3829V33.3069C55.2822 39.319 50.9961 44.3498 45.3202 45.5079V53.2309C45.3202 54.1499 44.8147 54.9942 44.0052 55.4275C43.6366 55.6243 43.2332 55.7214 42.8297 55.7214C42.3466 55.7214 41.8659 55.5795 41.4475 55.303L27.1321 45.7594H12.9437C6.07742 45.7594 0.491226 40.1732 0.491226 33.3069V13.3829C0.491226 6.51661 6.07742 0.93042 12.9437 0.93042ZM29.269 41.1968L40.3392 48.5762V43.2689C40.3392 41.8942 41.455 40.7784 42.8297 40.7784C46.949 40.7784 50.3012 37.4262 50.3012 33.3069V13.3829C50.3012 9.26363 46.949 5.91142 42.8297 5.91142H12.9437C8.82444 5.91142 5.47223 9.26363 5.47223 13.3829V33.3069C5.47223 37.4262 8.82444 40.7784 12.9437 40.7784H27.8867C28.0611 40.7759 28.3101 40.7934 28.594 40.878C28.8929 40.9652 29.1195 41.0947 29.269 41.1968Z" fill="#333333"/>
<path d="M12.9438 15.8733H42.8298C44.2046 15.8733 45.3203 16.989 45.3203 18.3638C45.3203 19.7385 44.2046 20.8543 42.8298 20.8543H12.9438C11.5691 20.8543 10.4533 19.7385 10.4533 18.3638C10.4533 16.989 11.5691 15.8733 12.9438 15.8733Z" fill="#333333"/>
<path d="M17.9244 25.8354H37.8484C39.2231 25.8354 40.3389 26.9512 40.3389 28.3259C40.3389 29.7007 39.2231 30.8164 37.8484 30.8164H17.9244C16.5496 30.8164 15.4339 29.7007 15.4339 28.3259C15.4339 26.9512 16.5496 25.8354 17.9244 25.8354Z" fill="#333333"/>
</svg>
