<svg width="20" height="20" viewBox="0 0 20 20" fill="none" xmlns="http://www.w3.org/2000/svg">
<path d="M2.09393 12.0939C0.937484 12.0939 0 11.1564 0 10C0 8.84355 0.937486 7.90607 2.09393 7.90607H7.77996V2.22004C7.77996 0.993946 8.77391 0 10 0C11.2261 0 12.22 0.993946 12.22 2.22004V7.90607H17.9061C19.0625 7.90607 20 8.84355 20 10C20 11.1564 19.0625 12.0939 17.9061 12.0939H12.22V17.78C12.22 19.0061 11.2261 20 10 20C8.77391 20 7.77996 19.0061 7.77996 17.78V12.0939H2.09393Z" fill="white"/>
</svg>
