<svg width="44" height="44" viewBox="0 0 44 44" fill="none" xmlns="http://www.w3.org/2000/svg">
<path d="M34.1595 18.8559C33.6834 18.8559 33.2281 18.9455 32.8083 19.1071C32.344 17.5498 30.8995 16.4107 29.1932 16.4107C28.7024 16.4107 28.2337 16.5059 27.8032 16.6772C27.3015 15.1825 25.8885 14.1021 24.2269 14.1021C23.8095 14.1021 23.4083 14.1711 23.0327 14.2969V10.3034C23.0327 8.22341 21.3406 6.53113 19.2605 6.53113C17.1805 6.53113 15.4883 8.22332 15.4883 10.3034V26.6197L14.015 24.4328L13.9808 24.3902C12.5369 22.5955 9.99689 22.1967 8.07249 23.4626C7.06624 24.1246 6.3845 25.1401 6.1529 26.322C5.92293 27.4956 6.16579 28.6848 6.83679 29.6734L13.4029 40.0235L13.4288 40.0627C15.1221 42.5281 17.9185 44 20.9094 44H28.2786C33.6014 44 37.9317 39.6696 37.9317 34.3469V22.6283C37.9317 20.5481 36.2395 18.8559 34.1595 18.8559ZM35.3536 34.3469C35.3536 38.2481 32.1798 41.4218 28.2786 41.4218H20.9094C18.7757 41.4218 16.7803 40.3756 15.5668 38.6217L9.00233 28.2743L8.97646 28.235C8.68995 27.8179 8.58579 27.3146 8.68307 26.818C8.78044 26.3214 9.06687 25.8947 9.48968 25.6166C10.2849 25.0933 11.3304 25.2469 11.9419 25.9695L18.0667 35.0614V10.3034C18.0667 9.64507 18.6023 9.10934 19.2608 9.10934C19.9192 9.10934 20.4549 9.64499 20.4549 10.3034V23.185H23.033V17.8743C23.033 17.2159 23.5687 16.6802 24.2271 16.6802C24.8856 16.6802 25.4212 17.2158 25.4212 17.8743V23.185H27.9993V20.1828C27.9993 19.5244 28.535 18.9887 29.1934 18.9887C29.8519 18.9887 30.3875 19.5244 30.3875 20.1828V23.185H32.9657V22.7299V22.6282C32.9657 21.9697 33.5013 21.434 34.1598 21.434C34.8182 21.434 35.3539 21.9696 35.3539 22.6282V34.3469H35.3536Z" fill="#12213A"/>
<path d="M20.4775 0H17.8994V3.56641H20.4775V0Z" fill="#12213A"/>
<path d="M24.5332 1.52252L22.1309 4.15845L24.0363 5.89507L26.4387 3.25914L24.5332 1.52252Z" fill="#12213A"/>
<path d="M28.4104 7.11372L24.8594 7.44397L25.0981 10.011L28.6492 9.68076L28.4104 7.11372Z" fill="#12213A"/>
<path d="M13.7649 1.52119L11.8594 3.25781L14.2617 5.89375L16.1672 4.15712L13.7649 1.52119Z" fill="#12213A"/>
<path d="M9.88717 7.11485L9.64844 9.68188L13.1995 10.0121L13.4382 7.4451L9.88717 7.11485Z" fill="#12213A"/>
</svg>
