<svg width="29" height="29" viewBox="0 0 29 29" fill="none" xmlns="http://www.w3.org/2000/svg">
<g clip-path="url(#clip0_762_128)">
<path d="M28.3599 19.595C28.3599 18.727 27.6949 18.025 26.8689 18.025C26.0499 18.027 25.3769 18.727 25.3769 19.595V22.845L19.3589 16.824C18.7769 16.241 17.8349 16.241 17.2529 16.824C16.6709 17.406 16.6709 18.351 17.2529 18.933L23.2419 24.92H20.0069C19.1259 24.922 18.4159 25.589 18.4159 26.411C18.4159 27.235 19.1259 27.901 20.0069 27.901H26.7679C27.6489 27.901 28.3579 27.236 28.3609 26.411C28.3579 26.389 28.3549 26.372 28.3519 26.35C28.3549 26.322 28.3609 26.292 28.3609 26.263V19.595H28.3599Z" fill="#12213A"/>
<path d="M9 16.824L2.985 22.845V19.595C2.985 18.727 2.313 18.027 1.492 18.025C0.668 18.025 0.002 18.727 0.002 19.595L0 26.264C0 26.293 0.008 26.323 0.01 26.351C0.008 26.372 0.004 26.389 0.002 26.412C0.004 27.237 0.714 27.902 1.594 27.902H8.356C9.235 27.902 9.946 27.236 9.946 26.412C9.946 25.59 9.235 24.923 8.356 24.921H5.121L11.11 18.934C11.69 18.352 11.69 17.407 11.11 16.825C10.527 16.241 9.584 16.241 9 16.824Z" fill="#12213A"/>
<path d="M19.3589 11.535L25.3769 5.51798V8.76798C25.3769 9.63298 26.0499 10.333 26.8689 10.336C27.6949 10.336 28.3599 9.63298 28.3599 8.76798V2.09698C28.3599 2.06798 28.3539 2.03798 28.3509 2.01198C28.3539 1.99098 28.3569 1.97098 28.3599 1.94998C28.3569 1.12398 27.6479 0.458984 26.7679 0.458984H20.0069C19.1259 0.458984 18.4159 1.12398 18.4159 1.94998C18.4159 2.77098 19.1259 3.43998 20.0069 3.44198H23.2419L17.2529 9.42898C16.6709 10.01 16.6709 10.953 17.2529 11.534C17.8349 12.12 18.7769 12.12 19.3589 11.535Z" fill="#12213A"/>
<path d="M5.121 3.44198H8.355C9.234 3.43998 9.945 2.77098 9.945 1.94998C9.945 1.12398 9.234 0.458984 8.355 0.458984H1.594C0.714 0.458984 0.004 1.12398 0.002 1.94998C0.004 1.97098 0.008 1.99098 0.01 2.01198C0.008 2.03798 0 2.06698 0 2.09698L0.002 8.76898C0.002 9.63398 0.668 10.337 1.492 10.337C2.313 10.334 2.985 9.63398 2.985 8.76898V5.51898L9 11.535C9.584 12.12 10.527 12.12 11.11 11.535C11.69 10.954 11.69 10.011 11.11 9.42999L5.121 3.44198Z" fill="#12213A"/>
</g>
<defs>
<clipPath id="clip0_762_128">
<rect width="28.361" height="28.361" fill="white"/>
</clipPath>
</defs>
</svg>
