<svg width="80" height="80" viewBox="0 0 80 80" fill="none" xmlns="http://www.w3.org/2000/svg">
<circle cx="40" cy="40" r="40" fill="#2257F7"/>
<path d="M34.734 45.982L37.806 46.193L32.244 51.375L33.833 58.423L27.403 54.892L20.973 58.423L22.561 51.375L17 46.193L24.411 45.683L27.403 38.634L28.813 41.955" stroke="white" stroke-width="2" stroke-miterlimit="10" stroke-linecap="round" stroke-linejoin="round"/>
<path d="M45.0398 45.982L41.9678 46.193L47.5298 51.375L45.9408 58.423L52.3708 54.892L58.8008 58.423L57.2128 51.375L62.7738 46.193L55.3628 45.683L52.3708 38.634L50.9608 41.955" stroke="white" stroke-width="2" stroke-miterlimit="10" stroke-linecap="round" stroke-linejoin="round"/>
<path d="M39.8869 21L43.1789 28.753L51.3309 29.314L45.2129 35.014L46.9599 42.767L39.8869 38.883L32.8139 42.767L34.5609 35.014L28.4429 29.314L36.5949 28.753L39.8869 21Z" stroke="white" stroke-width="2" stroke-miterlimit="10" stroke-linecap="round" stroke-linejoin="round"/>
</svg>
