<?xml version="1.0" encoding="UTF-8"?>
<svg id="Layer_2" data-name="Layer 2" xmlns="http://www.w3.org/2000/svg" viewBox="0 0 167.05 22.13">
  <defs>
    <style>
      .cls-1 {
        fill: #fff;
      }

      .cls-2 {
        fill: none;
        stroke: #fff;
        stroke-linecap: round;
        stroke-linejoin: round;
        stroke-width: .5px;
      }
    </style>
  </defs>
  <g id="_00_sign" data-name="00_sign">
    <g>
      <line class="cls-2" x1=".25" y1="19.09" x2="166.8" y2="18.65"/>
      <line class="cls-2" x1=".25" y1="16.13" x2=".25" y2="21.88"/>
      <line class="cls-2" x1="166.8" y1="16.13" x2="166.8" y2="21.88"/>
      <g>
        <path class="cls-2" d="M71.8,6.48c2.58-.92,4.5-3.43,4.72-6.16-.38,4.78-.76,9.55-1.13,14.33"/>
        <path class="cls-1" d="M84.18,.42c-.96-.39-2.09-.06-2.84,.61-.82,.73-1.3,1.83-1.7,2.83-.87,2.17-1.17,4.56-.86,6.88,.08,.59,.2,1.18,.36,1.75,.12,.44,.28,.88,.57,1.24,.67,.82,1.79,.75,2.65,.28,.93-.51,1.7-1.44,2.14-2.39s.55-1.95,.2-2.9c-.78-2.17-3.55-3.14-5.55-2.01-.28,.16-.03,.59,.25,.43,1.56-.88,3.75-.29,4.62,1.28,.94,1.69-.03,3.76-1.44,4.86-.69,.54-1.82,.94-2.48,.14-.27-.33-.39-.75-.5-1.15-.13-.47-.23-.95-.3-1.43-.3-1.99-.11-4.04,.51-5.95,.34-1.03,.78-2.13,1.44-3s1.76-1.39,2.8-.97c.3,.12,.43-.36,.13-.48h0Z"/>
        <path class="cls-1" d="M91.32,7.91c-1.31,1.93-2.61,3.85-3.92,5.78-.18,.27,.25,.52,.43,.25,1.31-1.93,2.61-3.85,3.92-5.78,.18-.27-.25-.52-.43-.25h0Z"/>
        <path class="cls-1" d="M87.64,8.12c1.25,1.99,2.66,3.87,4.2,5.64,.21,.24,.57-.11,.35-.35-1.52-1.73-2.9-3.58-4.13-5.54-.17-.27-.6-.02-.43,.25h0Z"/>
      </g>
    </g>
  </g>
</svg>