<?xml version="1.0" encoding="UTF-8"?>
<svg id="Layer_2" data-name="Layer 2" xmlns="http://www.w3.org/2000/svg" viewBox="0 0 29.39 28.96">
  <defs>
    <style>
      .cls-1 {
        fill: #fff;
      }
    </style>
  </defs>
  <g id="rulers">
    <g>
      <path class="cls-1" d="M20.76,.5c-.02,2.23-.04,4.46-.06,6.69,0,.32,0,.63,0,.95,0,.14,.12,.25,.25,.25,2.65,0,5.3,.01,7.95,.02,.32,0,.32-.5,0-.5-2.65,0-5.3-.01-7.95-.02l.25,.25c.02-2.23,.04-4.46,.06-6.69,0-.32,0-.63,0-.95s-.5-.32-.5,0h0Z"/>
      <g>
        <g>
          <path class="cls-1" d="M4.61,14.98c-1.77-.26-3.21,1.05-3.9,2.57-.35,.78-.54,1.63-.41,2.48s.59,1.73,1.22,2.37c1.32,1.34,3.29,1.71,4.96,.81s2.66-2.7,2.34-4.54c-.35-2.02-2.23-3.64-4.27-3.71-.32-.01-.32,.49,0,.5,1.61,.05,3.09,1.2,3.62,2.71s-.08,3.26-1.39,4.25-3.08,1.04-4.42,.04-1.9-2.55-1.43-4.09,1.81-3.18,3.55-2.92c.31,.05,.45-.44,.13-.48h0Z"/>
          <path class="cls-1" d="M8.21,18.33c.3,2.05,.14,4.16-.48,6.13-.51,1.62-1.42,3.68-3.4,3.75-1.14,.04-2.23-.49-3.23-.99-.29-.14-.54,.29-.25,.43,.96,.48,1.97,.96,3.06,1.05,.99,.08,1.93-.27,2.63-.97,.66-.66,1.08-1.53,1.41-2.39,.4-1.06,.67-2.17,.8-3.3,.16-1.28,.13-2.57-.06-3.84-.05-.32-.53-.18-.48,.13h0Z"/>
        </g>
        <path class="cls-1" d="M13.69,15.23c-2.28,.99-3.48,3.34-3.81,5.7-.18,1.29-.21,2.64-.12,3.94,.08,1.07,.33,2.21,1.14,2.98s1.96,.98,3.02,.8c1.13-.19,2.11-.89,2.8-1.79,.81-1.05,1.21-2.33,1.45-3.62,.26-1.4,.53-2.9,.37-4.32-.14-1.27-.69-2.53-1.75-3.3-1-.72-2.42-.89-3.5-.26-.28,.16-.03,.59,.25,.43,.89-.52,2.04-.38,2.88,.18,.89,.59,1.39,1.62,1.57,2.64,.23,1.29,0,2.64-.21,3.92-.19,1.18-.45,2.39-1.06,3.43-.53,.91-1.33,1.71-2.34,2.05-.94,.32-2.07,.27-2.89-.33s-1.11-1.66-1.2-2.64c-.11-1.13-.08-2.3,.02-3.43,.22-2.43,1.27-4.93,3.64-5.96,.29-.13,.04-.56-.25-.43h0Z"/>
        <path class="cls-1" d="M20.32,14.51c-.62,.35-.97,1.09-.89,1.8s.66,1.31,1.38,1.46,1.46-.14,1.84-.79,.35-1.45-.12-2.02c-.51-.63-1.46-.82-2.18-.47-.12,.06-.15,.23-.09,.34,.07,.12,.22,.15,.34,.09,.46-.22,1.06-.1,1.43,.24,.39,.36,.47,.92,.27,1.41s-.68,.79-1.22,.74c-.5-.04-.98-.37-1.12-.86-.16-.56,.09-1.22,.6-1.5,.28-.16,.03-.59-.25-.43h0Z"/>
      </g>
    </g>
  </g>
</svg>