<?xml version="1.0" encoding="UTF-8"?>
<svg id="Layer_2" data-name="Layer 2" xmlns="http://www.w3.org/2000/svg" viewBox="0 0 86.62 49.87">
  <defs>
    <style>
      .cls-1 {
        fill: #fff;
      }
    </style>
  </defs>
  <g id="Layer_9" data-name="Layer 9">
    <g>
      <path class="cls-1" d="M25.79,16.59c.82,1.6-.19,4.12,1.63,5.24,.78,.48,1.77,.26,2.46-.26,.8-.6,1.2-1.54,1.54-2.45,.74-2,1.57-4.27,.75-6.38-.64-1.65-2.52-2.95-4.29-2.16-.93,.42-1.54,1.33-1.81,2.29-.36,1.25-.14,2.58,.07,3.84,.05,.32,.53,.18,.48-.13-.28-1.74-.59-4.01,1-5.26,1.43-1.12,3.33-.08,4,1.38,.82,1.81,.2,3.84-.43,5.6-.31,.85-.59,1.79-1.19,2.48-.52,.6-1.44,1.06-2.21,.67s-1.01-1.39-1.07-2.17c-.07-1,0-2.02-.48-2.95-.15-.29-.58-.03-.43,.25h0Z"/>
      <g>
        <path class="cls-1" d="M33.67,17.87c-.44,1.76,.97,3.55,2.82,3.38,2.05-.19,3-2.26,3.61-3.95s1.05-3.81-.26-5.33c-1.18-1.37-3.29-1.09-4.49,.1-1.67,1.66-1.57,4.18-1.42,6.34,.02,.32,.52,.32,.5,0-.12-1.72-.25-3.59,.63-5.14,.72-1.26,2.36-2.24,3.79-1.46,1.5,.83,1.51,2.81,1.12,4.26-.23,.85-.54,1.7-.93,2.48-.36,.73-.84,1.42-1.55,1.85-.77,.46-1.7,.49-2.46-.02s-1.11-1.49-.89-2.38c.08-.31-.4-.45-.48-.13h0Z"/>
        <path class="cls-1" d="M40.26,.32c.07,5.95,.14,11.9,.21,17.86l.06,5.04c0,.32,.5,.32,.5,0-.07-5.95-.14-11.9-.21-17.86l-.06-5.04c0-.32-.5-.32-.5,0h0Z"/>
      </g>
      <path class="cls-1" d="M43.7,11.07c-.05,3.66-.1,7.31-.16,10.97,0,.32,.49,.32,.5,0,.06-2.3,.64-4.58,1.72-6.61,.22-.41,.46-.9,.88-1.14s.81,0,1.03,.38c.24,.42,.33,.92,.42,1.39,.12,.61,.21,1.22,.27,1.83,.14,1.37,.13,2.75,0,4.12-.03,.32,.47,.32,.5,0,.13-1.39,.13-2.79,0-4.18-.07-.7-.17-1.39-.31-2.08-.1-.48-.21-.98-.47-1.4-.24-.38-.61-.66-1.08-.66s-.88,.32-1.16,.69c-.37,.48-.64,1.05-.89,1.6s-.48,1.14-.67,1.72c-.45,1.4-.69,2.87-.73,4.34h.5c.05-3.66,.1-7.31,.16-10.97,0-.32-.5-.32-.5,0h0Z"/>
      <path class="cls-1" d="M14.5,37.8c-.05,3.66-.1,7.31-.16,10.97,0,.32,.49,.32,.5,0,.06-2.3,.64-4.58,1.72-6.61,.22-.41,.46-.9,.88-1.14s.81,0,1.03,.38c.24,.42,.33,.92,.42,1.39,.12,.61,.21,1.22,.27,1.83,.14,1.37,.13,2.75,0,4.12-.03,.32,.47,.32,.5,0,.13-1.39,.13-2.79,0-4.18-.07-.7-.17-1.39-.31-2.08-.1-.48-.21-.98-.47-1.4-.24-.38-.61-.66-1.08-.66s-.88,.32-1.16,.69c-.37,.48-.64,1.05-.89,1.6s-.48,1.14-.67,1.72c-.45,1.4-.69,2.87-.73,4.34h.5c.05-3.66,.1-7.31,.16-10.97,0-.32-.5-.32-.5,0h0Z"/>
      <g>
        <path class="cls-1" d="M56.48,1.94c-.36,5.38-.73,10.76-1.09,16.14l-.31,4.59c-.02,.32,.48,.32,.5,0,.36-5.38,.73-10.76,1.09-16.14l.31-4.59c.02-.32-.48-.32-.5,0h0Z"/>
        <path class="cls-1" d="M56.24,11.86c2.46-2.33,4.31-5.27,5.35-8.49,.1-.31-.38-.44-.48-.13-1.02,3.14-2.83,5.99-5.22,8.27-.23,.22,.12,.58,.35,.35h0Z"/>
        <path class="cls-1" d="M55.95,11.92c2.37,3.67,4.28,7.63,5.67,11.78,.1,.3,.58,.17,.48-.13-1.4-4.19-3.33-8.19-5.72-11.9-.17-.27-.61-.02-.43,.25h0Z"/>
      </g>
      <path class="cls-1" d="M65.86,23.95l.81-.73c.08-.07,.1-.21,.04-.3-.06-.1-.17-.14-.28-.11-.19,.04-.39,.09-.58,.13l.31,.31c.01-.08,.02-.14,0-.22s-.07-.14-.13-.19c-.09-.07-.21-.11-.32-.1-.13,0-.25,.04-.34,.12-.12,.1-.14,.25-.12,.39,.02,.13,.19,.21,.31,.17,.14-.05,.2-.17,.17-.31,0,0,0,.07,0,.04,0-.01,0-.03,0,.01,0,.05,0,.02,0,.01,0-.03-.02,.04-.02,.04,0,0,0-.01,0-.02,.01-.02-.05,.05-.02,.03,0,0,0,0,.01-.01,.02-.02-.05,.03-.03,.02,0,0,.03-.02,.03-.02,0,0-.07,.02-.03,.01,0,0,.01,0,.02,0,.01,0,.02,0,.04,0-.08,.02-.05,0-.02,0,.01,0,.03,0,.04,0,.02,0-.06-.01-.04,0,0,0,.01,0,.02,0,.01,0,.02,0,.03,.01,.02,0-.06-.03-.03-.01,0,0,0,0,.01,0,.04,.02-.05-.05-.02-.01,.01,.02-.04-.06-.02-.02,.01,.02-.03-.06-.02-.04,0,0,0,.02,0,.02,0,0,0-.07,0-.04,0,.02,0,.06,0-.03-.01,.09,0,.17,.06,.24,.07,.07,.16,.08,.24,.06,.19-.04,.39-.09,.58-.13l-.24-.42-.81,.73c-.1,.09-.1,.27,0,.35,.1,.1,.25,.09,.35,0h0Z"/>
      <g>
        <path class="cls-1" d="M7.09,34.81c-.39-.76-1.38-.89-2.1-.57-.93,.41-1.3,1.49-1.5,2.41-.55,2.56-.51,5.22-.25,7.81,.15,1.51,.37,3,.59,4.5,.05,.32,.53,.18,.48-.13-.34-2.33-.68-4.66-.74-7.02-.03-1.16,0-2.32,.14-3.47,.12-.99,.24-2.15,.79-3.01,.25-.4,.62-.7,1.1-.76,.43-.05,.86,.09,1.06,.48,.15,.29,.58,.03,.43-.25h0Z"/>
        <path class="cls-1" d="M.24,42.59c2.82-.23,5.64-.45,8.46-.68,.32-.03,.32-.53,0-.5-2.82,.23-5.64,.45-8.46,.68-.32,.03-.32,.53,0,.5H.24Z"/>
      </g>
      <g>
        <path class="cls-1" d="M22.19,45.65c-.68,.44-.79,1.4-.35,2.05,.5,.76,1.56,.91,2.37,.65,1.03-.32,1.83-1.18,2.55-1.95s1.39-1.67,1.81-2.67c.74-1.78,.6-4.13-1.09-5.32-.7-.5-1.61-.73-2.46-.56s-1.57,.82-1.96,1.6c-.47,.93-.59,1.96-.66,2.98-.09,1.19-.16,2.49-.92,3.47-.2,.25,.16,.61,.35,.35,1.11-1.42,.92-3.21,1.18-4.89,.23-1.5,1.02-3.23,2.82-3.06s2.77,1.93,2.67,3.62c-.12,1.91-1.4,3.48-2.71,4.77-.71,.69-1.62,1.46-2.69,1.24-.44-.09-.83-.36-.96-.8-.11-.38-.03-.83,.32-1.05,.27-.17,.02-.61-.25-.43h0Z"/>
        <path class="cls-1" d="M28.32,40.08c.07,1.91,.13,3.82,.2,5.73,.03,.76-.07,1.72,.39,2.38,.34,.5,1.02,.77,1.58,.45,.28-.16,.03-.59-.25-.43-.68,.39-1.1-.56-1.16-1.07-.09-.76-.07-1.55-.09-2.32l-.16-4.74c-.01-.32-.51-.32-.5,0h0Z"/>
      </g>
      <path class="cls-1" d="M32.43,44.27c1.84-1.59,3.19-3.73,3.86-6.07,.32-1.12,.54-2.36,.47-3.52-.05-.88-.39-2.04-1.39-2.23-1.27-.25-1.97,1.06-2.18,2.09-.29,1.42-.45,2.87-.55,4.32s-.12,2.98-.05,4.46c.04,.74,.09,1.49,.17,2.23,.07,.65,.12,1.34,.29,1.98,.15,.56,.48,1.08,1.07,1.24s1.17-.08,1.62-.42c1.03-.76,1.27-2.24,2.41-2.87,.28-.16,.03-.59-.25-.43-.89,.49-1.27,1.44-1.82,2.24-.48,.7-1.8,1.62-2.39,.52-.27-.51-.3-1.16-.36-1.72-.08-.66-.14-1.32-.19-1.98-.09-1.3-.11-2.61-.06-3.92s.16-2.65,.35-3.96c.09-.6,.17-1.21,.31-1.8,.14-.55,.38-1.12,.92-1.39,1.05-.52,1.54,.76,1.6,1.57,.08,1.04-.1,2.13-.36,3.14-.61,2.39-1.95,4.57-3.82,6.19-.24,.21,.11,.56,.35,.35h0Z"/>
      <path class="cls-1" d="M41.33,47.93s-.04,.04,0,0c0-.01,.02-.02,.03-.03s.02-.02,.03-.03c.02-.02,.03,0-.02,.01,.02-.01,.05-.03,.07-.05,.01,0,.02-.01,.03-.02,.05-.03-.05,.02,0,0,.03,0,.05-.02,.08-.02,0,0,.02,0,.03,0,.03,0,.05,0-.01,0,.03,0,.06,0,.09,0s.06,0,.09,0c-.06,0-.04,0-.01,0,0,0,.02,0,.03,0,.03,0,.05,.01,.08,.02,.03,.01,.03,.03,0,0,0,0,.02,0,.03,.01,.03,.01,.06,.04,.08,.05-.04-.01-.04-.03-.02-.01,.01,0,.02,.02,.03,.03s.02,.02,.03,.03h0s.01,.03-.01,0c0,.02,.03,.04,.04,.06,.01,.02,.01,.05,0,0,0,.02,.01,.03,.02,.05,0,.02,0,.05,.02,.08-.02-.05,0-.04,0-.01,0,0,0,.02,0,.03,0,.03,0,.06,0,.09,0,.05,.01-.06,0,0,0,.01,0,.03,0,.04,0,.03-.02,.06-.02,.08,0,0,0,.02-.01,.03,.01-.06,.01-.03,0,0-.01,.03-.03,.05-.04,.08,0,0-.01,.02-.02,.02-.02,.04,.04-.05,0,0-.02,.02-.03,.04-.05,.05,0,0-.03,.02-.03,.03l.03-.02s-.02,.01-.02,.02c-.02,.01-.04,.03-.06,.04-.03,.01-.05,0,0,0-.02,0-.04,.01-.05,.02-.01,0-.02,0-.03,0-.04,.01,0-.01,.01,0,0,0-.09,0-.1,0-.04,0,.01,0,.02,0,0,0-.04,0-.05,0-.02,0-.03,0-.05-.01-.01,0-.02,0-.03-.01-.02,0-.02,0,0,0h.01s-.02,0-.03,0c-.02-.01-.04-.02-.06-.03,0,0-.04-.02-.04-.03l.02,.02s-.02-.01-.03-.02c-.03-.03-.05-.05-.08-.08s0,.01,0,.01c0,0-.03-.05-.04-.05,0-.01-.02-.03-.02-.04-.03-.06,0,0,0,0,0,0-.03-.1-.03-.11,0-.01-.02-.05,0-.01,0,.02,0,.02,0,0,0-.01,0-.02,0-.03,0-.02,0-.03,0-.05,0-.03,0-.02,0,.02,0-.01,0-.02,0-.03,.03-.13-.04-.28-.17-.31-.13-.03-.28,.04-.31,.17-.08,.39,.1,.76,.43,.98,.15,.1,.34,.16,.52,.14,.19-.02,.35-.09,.49-.2,.26-.21,.37-.57,.32-.9s-.32-.58-.64-.66c-.38-.09-.77,.04-1,.35-.08,.11-.02,.28,.09,.34,.13,.07,.26,.02,.34-.09h0Z"/>
      <path class="cls-1" d="M43.75,32.95c1.64,3.72,2.66,7.71,3.01,11.76,.1,1.13,.14,2.27,.14,3.41,0,.27,.44,.35,.49,.07,.69-4.15,1.82-8.23,3.38-12.14,.45-1.13,.94-2.24,1.46-3.34,.14-.29-.29-.54-.43-.25-1.82,3.84-3.23,7.87-4.18,12.01-.27,1.19-.51,2.38-.7,3.58l.49,.07c.02-4.13-.64-8.26-1.95-12.18-.37-1.1-.79-2.18-1.26-3.24-.13-.29-.56-.04-.43,.25h0Z"/>
      <path class="cls-1" d="M54.61,33.41c.54-.7,1.47-.62,2,.04,.46,.58,.63,1.37,.67,2.1,.08,1.5-.42,3.02-1.34,4.2-.53,.68-1.2,1.23-1.96,1.62l.37,.28c.1-.46,.48-.76,.92-.87,.48-.12,.95,.02,1.35,.29,.94,.63,1.53,1.86,1.81,2.92,.29,1.12,.23,2.33-.34,3.35-.49,.87-1.32,1.58-2.32,1.72-1.07,.15-2.22-.31-2.76-1.26-.16-.28-.59-.03-.43,.25,.57,1,1.71,1.56,2.85,1.54,1.21-.02,2.28-.73,2.94-1.73,.74-1.12,.9-2.5,.61-3.79s-.98-2.7-2.09-3.43c-.53-.36-1.19-.5-1.81-.32-.58,.17-1.07,.6-1.2,1.2-.05,.22,.17,.38,.37,.28,1.58-.81,2.75-2.29,3.27-3.97,.26-.83,.36-1.72,.26-2.58s-.34-1.74-.97-2.34c-.73-.69-1.9-.67-2.53,.15-.2,.25,.16,.61,.35,.35h0Z"/>
      <path class="cls-1" d="M60.93,49.51c.15,0,.29-.07,.39-.17s.17-.24,.18-.39c.03-.27-.18-.52-.43-.59-.15-.04-.31-.02-.44,.05-.07,.04-.13,.13-.12,.22,.01,.25,.11,.48,.28,.66,.15,.16,.36,.29,.58,.33,.07,.01,.13,.01,.19-.03,.05-.03,.1-.09,.11-.15,.01-.06,.01-.14-.03-.19-.03-.05-.09-.1-.15-.11-.06,0-.12-.03-.17-.05l.06,.03c-.06-.03-.12-.06-.18-.11l.05,.04c-.06-.05-.11-.1-.16-.16l.04,.05c-.04-.06-.08-.12-.11-.18l.03,.06c-.03-.06-.04-.13-.05-.19v.07s0-.04,0-.06l-.12,.22s.02-.01,.03-.02l-.06,.03s.05-.01,.07-.02h-.07s.06,0,.09,0h-.07s.07,0,.1,.02l-.06-.03s.06,.03,.09,.05l-.05-.04s.04,.04,.06,.06l-.04-.05s.03,.04,.04,.07l-.03-.06s.02,.05,.02,.07v-.07s0,.05,0,.08v-.07s0,.06-.01,.09l.03-.06s-.03,.06-.05,.09l.04-.05s-.04,.05-.07,.07l.05-.04s-.05,.03-.08,.04l.06-.03s-.05,.02-.08,.02h.07s-.02,0-.03,0c-.13,0-.26,.11-.25,.25,0,.13,.11,.26,.25,.25h0Z"/>
      <path class="cls-1" d="M65.43,33.31c.1,5.31,.2,10.62,.3,15.93,0,.32,.51,.32,.5,0-.1-5.31-.2-10.62-.3-15.93,0-.32-.51-.32-.5,0h0Z"/>
      <path class="cls-1" d="M65.9,33.46c1.68-.03,3.23,1.06,3.91,2.57s.19,3.37-1.04,4.53c-.69,.65-1.59,1.08-2.54,1.13-.32,.02-.32,.52,0,.5,1.89-.11,3.55-1.46,4.17-3.22s-.09-3.82-1.59-5c-.83-.65-1.85-1.03-2.91-1.02-.32,0-.32,.51,0,.5h0Z"/>
      <path class="cls-1" d="M75.97,33.5c-.33-.53-.93-.79-1.55-.75-.67,.05-1.24,.46-1.57,1.04-.87,1.54,.03,3.32,.79,4.7,.89,1.61,1.98,3.17,2.39,4.99,.34,1.53,.09,3.32-1.18,4.37-1.14,.94-3.11,.78-3.78-.65-.14-.29-.57-.04-.43,.25,.54,1.15,1.9,1.65,3.1,1.45,1.4-.23,2.38-1.47,2.75-2.78,.47-1.64-.02-3.36-.73-4.86-.8-1.67-2.02-3.18-2.57-4.96-.27-.88-.31-1.95,.38-2.65,.53-.53,1.53-.6,1.97,.09,.17,.27,.6,.02,.43-.25h0Z"/>
      <path class="cls-1" d="M78.89,32.98l.2,15.93c0,.32,.5,.32,.5,0l-.2-15.93c0-.32-.5-.32-.5,0h0Z"/>
      <path class="cls-1" d="M79.3,32.91c2.56,1.4,4.94,3.48,5.99,6.28s.72,6-1.51,8.06c-1.12,1.03-2.59,1.64-4.12,1.56-.32-.02-.32,.48,0,.5,2.95,.16,5.59-2.06,6.4-4.82,.91-3.12-.26-6.45-2.35-8.81-1.17-1.31-2.61-2.37-4.15-3.21-.28-.15-.53,.28-.25,.43h0Z"/>
      <g>
        <path class="cls-1" d="M4.18,6.25c-.16,4.3-.32,8.61-.48,12.91l-.14,3.68c-.01,.32,.49,.32,.5,0,.16-4.3,.32-8.61,.48-12.91l.14-3.68c.01-.32-.49-.32-.5,0h0Z"/>
        <path class="cls-1" d="M4.29,2.16l.34,.41c.05,.06,.17,.09,.24,.06,.15-.06,.27-.15,.36-.28,.08-.11,.12-.24,.13-.37,.04-.27-.04-.56-.22-.76-.1-.11-.24-.2-.39-.22-.13-.02-.28,.03-.31,.17-.03,.12,.04,.29,.17,.31,.03,0,.06,.01,.09,.02,.04,0-.06-.03,0,0,.01,0,.03,.01,.04,.02,0,0,.01,0,.02,.01,.02,.01,.01,0-.02-.02,0,.01,.02,.02,.03,.03,.01,0,.02,.02,.03,.03,.03,.03,0,0-.01-.02,.01,.03,.03,.05,.05,.07,0,.01,.01,.03,.02,.04,.02,.04-.02-.07,0,0,0,.03,.02,.06,.03,.09,0,.01,0,.03,0,.04,.01,.04,0-.07,0-.02,0,.03,0,.06,0,.09,0,.02,0,.03,0,.05,0,.03-.02,.06,0-.01,0,.03-.01,.06-.02,.09,0,.01,0,.03-.01,.04-.02,.05,.02-.03,0-.01-.01,.02-.02,.05-.04,.07,0,0,0,.01-.01,.02-.01,.02,0,.01,.02-.03-.01,0-.02,.02-.03,.03-.01,.01-.02,.02-.03,.03-.03,.03,.06-.04,0,0-.01,0-.03,.01-.04,.02-.05,.03,.05-.02,0,0l.24,.06-.34-.41c-.08-.1-.27-.09-.35,0-.1,.11-.09,.25,0,.35h0Z"/>
      </g>
      <g>
        <path class="cls-1" d="M11.26,32.31c-.16,4.3-.32,8.61-.48,12.91l-.14,3.68c-.01,.32,.49,.32,.5,0,.16-4.3,.32-8.61,.48-12.91l.14-3.68c.01-.32-.49-.32-.5,0h0Z"/>
        <path class="cls-1" d="M11.38,28.22l.34,.41c.05,.06,.17,.09,.24,.06,.15-.06,.27-.15,.36-.28,.08-.11,.12-.24,.13-.37,.04-.27-.04-.56-.22-.76-.1-.11-.24-.2-.39-.22-.13-.02-.28,.03-.31,.17-.03,.12,.04,.29,.17,.31,.03,0,.06,.01,.09,.02,.04,0-.06-.03,0,0,.01,0,.03,.01,.04,.02,0,0,.01,0,.02,.01,.02,.01,.01,0-.02-.02,0,.01,.02,.02,.03,.03,.01,0,.02,.02,.03,.03,.03,.03,0,0-.01-.02,.01,.03,.03,.05,.05,.07,0,.01,.01,.03,.02,.04,.02,.04-.02-.07,0,0,0,.03,.02,.06,.03,.09,0,.01,0,.03,0,.04,.01,.04,0-.07,0-.02,0,.03,0,.06,0,.09,0,.02,0,.03,0,.05,0,.03-.02,.06,0-.01,0,.03-.01,.06-.02,.09,0,.01,0,.03-.01,.04-.02,.05,.02-.03,0-.01-.01,.02-.02,.05-.04,.07,0,0,0,.01-.01,.02-.01,.02,0,.01,.02-.03-.01,0-.02,.02-.03,.03-.01,.01-.02,.02-.03,.03-.03,.03,.06-.04,0,0-.01,0-.03,.01-.04,.02-.05,.03,.05-.02,0,0l.24,.06-.34-.41c-.08-.1-.27-.09-.35,0-.1,.11-.09,.25,0,.35h0Z"/>
      </g>
      <g>
        <path class="cls-1" d="M52.28,6.25c-.16,4.3-.32,8.61-.48,12.91l-.14,3.68c-.01,.32,.49,.32,.5,0,.16-4.3,.32-8.61,.48-12.91l.14-3.68c.01-.32-.49-.32-.5,0h0Z"/>
        <path class="cls-1" d="M52.39,2.16l.34,.41c.05,.06,.17,.09,.24,.06,.15-.06,.27-.15,.36-.28,.08-.11,.12-.24,.13-.37,.04-.27-.04-.56-.22-.76-.1-.11-.24-.2-.39-.22-.13-.02-.28,.03-.31,.17-.03,.12,.04,.29,.17,.31,.03,0,.06,.01,.09,.02,.04,0-.06-.03,0,0,.01,0,.03,.01,.04,.02,0,0,.01,0,.02,.01,.02,.01,.01,0-.02-.02,0,.01,.02,.02,.03,.03,.01,0,.02,.02,.03,.03,.03,.03,0,0-.01-.02,.01,.03,.03,.05,.05,.07,0,.01,.01,.03,.02,.04,.02,.04-.02-.07,0,0,0,.03,.02,.06,.03,.09,0,.01,0,.03,0,.04,.01,.04,0-.07,0-.02,0,.03,0,.06,0,.09,0,.02,0,.03,0,.05,0,.03-.02,.06,0-.01,0,.03-.01,.06-.02,.09,0,.01,0,.03-.01,.04-.02,.05,.02-.03,0-.01-.01,.02-.02,.05-.04,.07,0,0,0,.01-.01,.02-.01,.02,0,.01,.02-.03-.01,0-.02,.02-.03,.03-.01,.01-.02,.02-.03,.03-.03,.03,.06-.04,0,0-.01,0-.03,.01-.04,.02-.05,.03,.05-.02,0,0l.24,.06-.34-.41c-.08-.1-.27-.09-.35,0-.1,.11-.09,.25,0,.35h0Z"/>
      </g>
      <path class="cls-1" d="M11.17,7.37c-.24-.6-.79-.98-1.43-1.05s-1.31,.21-1.75,.71c-1.18,1.35-.72,3.32-.27,4.88,.5,1.72,1.3,3.29,2.25,4.8,.87,1.4,1.95,3.34,.94,4.96-.46,.74-1.36,1.18-2.23,1.11s-1.68-.7-2.01-1.52c-.12-.3-.6-.17-.48,.13,.54,1.37,2.03,2.2,3.48,1.78,1.6-.46,2.32-2.04,2.09-3.61-.25-1.74-1.45-3.12-2.26-4.63-.45-.84-.83-1.72-1.12-2.62s-.55-1.8-.62-2.72,.13-1.96,.94-2.52c.62-.43,1.68-.34,1.99,.44,.12,.29,.6,.17,.48-.13h0Z"/>
      <path class="cls-1" d="M14.35,.5c.17,5.85,.34,11.7,.51,17.55l.15,4.98c0,.33,.47,.31,.5,0,.19-1.8,.38-3.59,.56-5.39l.28-2.66c.07-.69,.11-1.4,.36-2.06,.22-.57,.67-1.06,1.33-.98,.78,.09,1.39,.81,1.82,1.4,.91,1.24,1.64,2.62,2.16,4.07,.59,1.66,.91,3.4,.93,5.15,0,.32,.5,.32,.5,0-.05-3.38-1.16-6.74-3.16-9.47-.45-.62-1-1.24-1.73-1.53-.64-.25-1.35-.12-1.83,.38-.44,.46-.62,1.12-.72,1.73-.14,.88-.2,1.78-.29,2.66-.23,2.23-.47,4.46-.7,6.69h.5c-.17-5.85-.34-11.7-.51-17.55l-.15-4.98c0-.32-.51-.32-.5,0h0Z"/>
    </g>
  </g>
</svg>