<svg width="30" height="30" viewBox="0 0 30 30" fill="none" xmlns="http://www.w3.org/2000/svg">
<g clip-path="url(#clip0_0_179)">
<path d="M23.5808 27.7108C23.837 27.7106 24.0832 27.8101 24.2675 27.988C25.4711 29.1504 27.2269 29.5374 28.7878 29.053C27.7833 26.9603 27.6441 24.5628 28.4225 22.3429C29.3886 19.581 29.6307 16.8128 28.5312 14.0364C27.5653 11.5974 25.7013 9.57104 23.3423 8.41553C23.4879 9.19333 23.5609 9.98297 23.5605 10.7743C23.5606 14.1559 22.2602 17.3363 19.8993 19.7299C17.538 22.1238 14.3727 23.4698 10.9866 23.5202C10.3599 23.5298 9.73341 23.4935 9.11206 23.4114C10.973 26.6734 14.4827 28.7978 18.3394 28.855C20.0266 28.8811 21.6465 28.5276 23.1551 27.8072C23.288 27.7437 23.4335 27.7107 23.5808 27.7108Z" fill="white"/>
<path d="M11.0145 0.00214968C5.00761 -0.117124 0.0142722 4.74231 -0.000211569 10.7478C-0.00376008 12.2151 0.282656 13.6377 0.851142 14.9763C0.859398 14.9958 0.867074 15.0155 0.874027 15.0355C1.65245 17.2553 1.51334 19.6527 0.508747 21.7455C2.06973 22.2297 3.8253 21.8429 5.02905 20.6805C5.17394 20.5406 5.35812 20.4483 5.55693 20.416C5.75573 20.3837 5.95966 20.4129 6.1414 20.4997C7.64981 21.2202 9.26996 21.5747 10.957 21.5476C16.9169 21.4591 21.5853 16.7269 21.5853 10.7744C21.5853 4.95167 16.8432 0.119323 11.0145 0.00214968ZM5.03557 12.3835C4.17255 12.3835 3.47292 11.685 3.47292 10.8235C3.47292 9.96189 4.17255 9.26341 5.03557 9.26341C5.89858 9.26341 6.59822 9.96189 6.59822 10.8235C6.59814 11.685 5.89858 12.3835 5.03557 12.3835ZM10.7926 12.3835C9.92955 12.3835 9.22991 11.685 9.22991 10.8235C9.22991 9.96189 9.92955 9.26341 10.7926 9.26341C11.6556 9.26341 12.3552 9.96189 12.3552 10.8235C12.3552 11.685 11.6556 12.3835 10.7926 12.3835ZM16.5496 12.3835C15.6866 12.3835 14.987 11.685 14.987 10.8235C14.987 9.96189 15.6866 9.26341 16.5496 9.26341C17.4126 9.26341 18.1123 9.96189 18.1123 10.8235C18.1123 11.685 17.4126 12.3835 16.5496 12.3835Z" fill="white"/>
</g>
<defs>
<clipPath id="clip0_0_179">
<rect width="29.2571" height="30" fill="white"/>
</clipPath>
</defs>
</svg>
