<svg width="40" height="30" viewBox="0 0 40 30" fill="none" xmlns="http://www.w3.org/2000/svg">
<g clip-path="url(#clip0_229_435)">
<path fill-rule="evenodd" clip-rule="evenodd" d="M3.33325 2.5C3.33325 2.1717 3.39792 1.84661 3.52355 1.54329C3.64919 1.23998 3.83334 0.96438 4.06549 0.732233C4.29763 0.500087 4.57323 0.315938 4.87654 0.190301C5.17986 0.0646642 5.50495 0 5.83325 0C6.16156 0 6.48665 0.0646642 6.78996 0.190301C7.09328 0.315938 7.36887 0.500087 7.60102 0.732233C7.83317 0.96438 8.01731 1.23998 8.14295 1.54329C8.26859 1.84661 8.33325 2.1717 8.33325 2.5V5.41667H3.33325V2.5ZM3.33325 24.2317V7.91667H8.33325V24.2317C8.33322 25.548 7.94351 26.8348 7.21325 27.93L6.52659 28.96C6.45048 29.0741 6.34738 29.1677 6.22643 29.2324C6.10549 29.2972 5.97043 29.331 5.83325 29.331C5.69608 29.331 5.56102 29.2972 5.44007 29.2324C5.31912 29.1677 5.21602 29.0741 5.13992 28.96L4.45325 27.93C3.72268 26.8344 3.33296 25.5485 3.33325 24.2317ZM13.3333 5C13.3333 3.67392 13.86 2.40215 14.7977 1.46447C15.7354 0.526784 17.0072 0 18.3333 0H31.6666C32.9927 0 34.2644 0.526784 35.2021 1.46447C36.1398 2.40215 36.6666 3.67392 36.6666 5V25C36.6666 26.3261 36.1398 27.5979 35.2021 28.5355C34.2644 29.4732 32.9927 30 31.6666 30H18.3333C17.0072 30 15.7354 29.4732 14.7977 28.5355C13.86 27.5979 13.3333 26.3261 13.3333 25V5ZM18.7499 8.33333C18.7499 8.00181 18.8816 7.68387 19.116 7.44945C19.3505 7.21503 19.6684 7.08333 19.9999 7.08333H29.9999C30.3314 7.08333 30.6494 7.21503 30.8838 7.44945C31.1182 7.68387 31.2499 8.00181 31.2499 8.33333C31.2499 8.66485 31.1182 8.9828 30.8838 9.21722C30.6494 9.45164 30.3314 9.58333 29.9999 9.58333H19.9999C19.6684 9.58333 19.3505 9.45164 19.116 9.21722C18.8816 8.9828 18.7499 8.66485 18.7499 8.33333ZM19.9999 13.75C19.6684 13.75 19.3505 13.8817 19.116 14.1161C18.8816 14.3505 18.7499 14.6685 18.7499 15C18.7499 15.3315 18.8816 15.6495 19.116 15.8839C19.3505 16.1183 19.6684 16.25 19.9999 16.25H29.9999C30.3314 16.25 30.6494 16.1183 30.8838 15.8839C31.1182 15.6495 31.2499 15.3315 31.2499 15C31.2499 14.6685 31.1182 14.3505 30.8838 14.1161C30.6494 13.8817 30.3314 13.75 29.9999 13.75H19.9999ZM18.7499 21.6667C18.7499 21.3351 18.8816 21.0172 19.116 20.7828C19.3505 20.5484 19.6684 20.4167 19.9999 20.4167H24.9999C25.3314 20.4167 25.6494 20.5484 25.8838 20.7828C26.1182 21.0172 26.2499 21.3351 26.2499 21.6667C26.2499 21.9982 26.1182 22.3161 25.8838 22.5506C25.6494 22.785 25.3314 22.9167 24.9999 22.9167H19.9999C19.6684 22.9167 19.3505 22.785 19.116 22.5506C18.8816 22.3161 18.7499 21.9982 18.7499 21.6667Z" fill="#2972FF"/>
</g>
<defs>
<clipPath id="clip0_229_435">
<rect width="40" height="30" fill="white"/>
</clipPath>
</defs>
</svg>
