<svg width="34" height="30" viewBox="0 0 34 30" fill="none" xmlns="http://www.w3.org/2000/svg">
<g clip-path="url(#clip0_229_548)">
<path d="M9.7603 8.36668C10.2226 8.36668 10.6659 8.18305 10.9927 7.85619C11.3196 7.52933 11.5032 7.08601 11.5032 6.62376V0.781494C11.2929 0.94072 11.1011 1.12313 10.9315 1.32529L5.18688 7.93444C5.07679 8.07279 4.97438 8.21709 4.88013 8.36668H9.7603Z" fill="#2972FF"/>
<path d="M28.9187 1.11564C28.5656 0.757945 28.1442 0.474878 27.6795 0.283255C27.2148 0.0916332 26.7163 -0.00463462 26.2137 0.000171475H13.595V6.62326C13.595 7.64022 13.191 8.61552 12.4719 9.33461C11.7528 10.0537 10.7775 10.4577 9.76056 10.4577H4.25293V26.144C4.25293 27.1609 4.65691 28.1362 5.37601 28.8553C6.0951 29.5744 7.0704 29.9784 8.08735 29.9784H26.2137C27.2307 29.9784 28.206 29.5744 28.9251 28.8553C29.6442 28.1362 30.0481 27.1609 30.0481 26.144V3.83459C30.0491 3.32921 29.9497 2.82867 29.7559 2.36195C29.562 1.89523 29.2775 1.47162 28.9187 1.11564ZM18.1266 21.6124H12.5492C12.2719 21.6124 12.0059 21.5022 11.8098 21.3061C11.6137 21.11 11.5035 20.844 11.5035 20.5666C11.5035 20.2893 11.6137 20.0233 11.8098 19.8272C12.0059 19.631 12.2719 19.5209 12.5492 19.5209H18.1266C18.4039 19.5209 18.6699 19.631 18.866 19.8272C19.0621 20.0233 19.1723 20.2893 19.1723 20.5666C19.1723 20.844 19.0621 21.11 18.866 21.3061C18.6699 21.5022 18.4039 21.6124 18.1266 21.6124ZM23.7039 16.035H12.5492C12.2719 16.035 12.0059 15.9249 11.8098 15.7287C11.6137 15.5326 11.5035 15.2666 11.5035 14.9893C11.5035 14.7119 11.6137 14.4459 11.8098 14.2498C12.0059 14.0537 12.2719 13.9435 12.5492 13.9435H23.7039C23.9813 13.9435 24.2473 14.0537 24.4434 14.2498C24.6395 14.4459 24.7497 14.7119 24.7497 14.9893C24.7497 15.2666 24.6395 15.5326 24.4434 15.7287C24.2473 15.9249 23.9813 16.035 23.7039 16.035Z" fill="#2972FF"/>
</g>
<defs>
<clipPath id="clip0_229_548">
<rect width="33.4641" height="30" fill="white"/>
</clipPath>
</defs>
</svg>
