<svg width="33" height="30" viewBox="0 0 33 30" fill="none" xmlns="http://www.w3.org/2000/svg">
<g clip-path="url(#clip0_229_71)">
<path d="M14.2069 14.6579C14.0453 15.7353 13.681 16.6309 13.3052 17.3142C13.2018 17.5023 12.9309 17.5023 12.8275 17.3142C12.4517 16.6309 12.0874 15.7353 11.9258 14.6579C11.8765 14.329 12.1338 14.0337 12.4663 14.0337H13.6664C13.9989 14.0337 14.2562 14.329 14.2069 14.6579ZM12.4663 12.942H13.6664C13.9989 12.942 14.2562 12.6466 14.2069 12.3177C14.0453 11.2403 13.681 10.3448 13.3052 9.66141C13.2018 9.47336 12.9309 9.47336 12.8275 9.66141C12.4517 10.3447 12.0874 11.2403 11.9258 12.3177C11.8765 12.6466 12.1338 12.942 12.4663 12.942ZM15.8688 12.942H17.011C17.369 12.942 17.6341 12.602 17.539 12.2568C17.1569 10.8699 16.1459 9.74144 14.833 9.19874C14.6027 9.10349 14.3777 9.34639 14.4861 9.57086C14.8617 10.3492 15.1953 11.3193 15.3265 12.4556C15.3583 12.7321 15.5904 12.942 15.8688 12.942ZM10.8063 12.4556C10.9375 11.3193 11.271 10.3492 11.6467 9.57086C11.755 9.34639 11.5301 9.10349 11.2997 9.19874C9.98685 9.74144 8.97588 10.87 8.59379 12.2568C8.49868 12.602 8.76382 12.942 9.12183 12.942H10.264C10.5423 12.942 10.7744 12.7321 10.8063 12.4556ZM10.2639 14.0337H9.12176C8.76375 14.0337 8.49861 14.3737 8.59373 14.7188C8.97581 16.1058 9.98678 17.2342 11.2997 17.777C11.53 17.8722 11.755 17.6293 11.6466 17.4049C11.271 16.6266 10.9374 15.6565 10.8062 14.5201C10.7744 14.2435 10.5423 14.0337 10.2639 14.0337ZM23.028 5.91427V27.8162C23.028 29.0204 22.0482 29.9996 20.8446 29.9996H5.28811C4.08452 29.9996 3.10474 29.0204 3.10474 27.8162V5.91427C3.10474 4.71 4.08452 3.7309 5.28811 3.7309H20.8446C22.0482 3.7309 23.028 4.71 23.028 5.91427ZM17.1602 23.6541C17.1602 23.5094 17.1027 23.3705 17.0003 23.2682C16.8979 23.1658 16.7591 23.1083 16.6143 23.1083H9.51838C9.37362 23.1083 9.23478 23.1658 9.13241 23.2682C9.03005 23.3705 8.97254 23.5094 8.97254 23.6541C8.97254 23.7989 9.03005 23.9377 9.13241 24.0401C9.23478 24.1425 9.37362 24.2 9.51838 24.2H16.6143C16.7591 24.2 16.8979 24.1425 17.0003 24.0401C17.1027 23.9377 17.1602 23.7989 17.1602 23.6541ZM18.7977 13.4878C18.7977 10.3344 16.2376 7.76802 13.0866 7.75703C10.2467 7.64711 7.33501 10.1046 7.33501 13.4878C7.33501 16.6397 9.89761 19.2192 13.0668 19.2192C16.2243 19.2192 18.7977 16.6501 18.7977 13.4878ZM15.3264 14.52C15.1952 15.6564 14.8617 16.6265 14.486 17.4048C14.3777 17.6293 14.6026 17.8722 14.833 17.7769C16.1459 17.2342 17.1568 16.1057 17.5389 14.7188C17.634 14.3736 17.3689 14.0336 17.0109 14.0336H15.8687C15.5904 14.0337 15.3583 14.2435 15.3264 14.52ZM29.6463 -1.11345V28.362C29.6463 29.2664 28.9132 29.9996 28.0088 29.9996H24.2967C23.8925 29.9996 23.6343 29.5783 23.8071 29.2128C24.0133 28.7761 24.12 28.2991 24.1197 27.8162V5.91427C24.1197 4.10548 22.6534 2.63921 20.8446 2.63921H16.0003C15.8555 2.63921 15.7167 2.58171 15.6143 2.47934C15.5119 2.37698 15.4544 2.23814 15.4544 2.09337V-1.11345C15.4544 -2.01784 16.1875 -2.75098 17.0919 -2.75098H18.3221C19.0686 -2.75098 19.7209 -2.24539 19.9071 -1.52147C20.2176 -0.317203 21.3045 0.524076 22.5504 0.524076C23.7962 0.524076 24.8832 -0.317203 25.1936 -1.52147C25.3799 -2.24539 26.0322 -2.75098 26.7786 -2.75098H28.0088C28.9132 -2.75098 29.6463 -2.01784 29.6463 -1.11345ZM26.9853 11.7821C26.9853 11.6373 26.9278 11.4985 26.8255 11.3961C26.7231 11.2937 26.5843 11.2362 26.4395 11.2362C26.2947 11.2362 26.1559 11.2937 26.0535 11.3961C25.9512 11.4985 25.8936 11.6373 25.8936 11.7821V23.6541C25.8936 23.7989 25.9512 23.9377 26.0535 24.0401C26.1559 24.1425 26.2947 24.2 26.4395 24.2C26.5843 24.2 26.7231 24.1425 26.8255 24.0401C26.9278 23.9377 26.9853 23.7989 26.9853 23.6541V11.7821ZM26.9853 7.48356C26.9853 7.3388 26.9278 7.19996 26.8255 7.0976C26.7231 6.99523 26.5843 6.93772 26.4395 6.93772C26.2947 6.93772 26.1559 6.99523 26.0535 7.0976C25.9512 7.19996 25.8936 7.3388 25.8936 7.48356V8.84817C25.8936 8.99294 25.9512 9.13177 26.0535 9.23414C26.1559 9.3365 26.2947 9.39401 26.4395 9.39401C26.5843 9.39401 26.7231 9.3365 26.8255 9.23414C26.9278 9.13177 26.9853 8.99294 26.9853 8.84817V7.48356Z" fill="#2972FF"/>
</g>
<defs>
<clipPath id="clip0_229_71">
<rect width="32.7505" height="30" fill="white"/>
</clipPath>
</defs>
</svg>
