<svg width="84" height="80" viewBox="0 0 84 80" fill="none" xmlns="http://www.w3.org/2000/svg">
<g id="Question" clip-path="url(#clip0_128_1302)">
<path id="Vector" d="M72.2891 0.731383C69.8039 0.71127 67.3705 1.40313 65.3091 2.71591C64.855 3.03288 64.5216 3.4803 64.3587 3.99129C64.1958 4.50228 64.2122 5.0494 64.4053 5.55087L65.3162 7.91557C65.4581 8.28376 65.6904 8.6148 65.9942 8.88139C66.2979 9.14797 66.6643 9.34246 67.0632 9.44883C67.462 9.55519 67.8819 9.57037 68.2882 9.49313C68.6944 9.41588 69.0755 9.24842 69.3999 9.00455C70.0479 8.598 70.8078 8.38023 71.5855 8.37825C72.5969 8.39767 72.597 8.64487 72.597 9.13375C72.597 9.99163 72.0509 10.9439 70.5099 12.7728C67.7244 16.0231 67.3832 19.0285 67.5973 20.9893L67.6704 21.9263C67.7188 22.5489 68.0146 23.1311 68.4983 23.5559C68.9819 23.9808 69.6176 24.217 70.2778 24.217H73.238C73.5897 24.217 73.9379 24.1498 74.2616 24.0196C74.5852 23.8894 74.8778 23.6988 75.1217 23.4591C75.3657 23.2194 75.5559 22.9357 75.6812 22.6249C75.8064 22.314 75.864 21.9825 75.8505 21.6501L75.8125 20.7119L75.8103 20.6677C75.7523 19.6925 75.9042 18.5498 77.3958 16.8063C79.4173 14.4743 81.2414 12.0909 81.2414 8.72081C81.2414 4.87284 78.4399 0.731383 72.2891 0.731383ZM75.3631 15.2515C73.6934 17.2032 73.0861 18.8923 73.2 20.8065L73.238 21.7448H70.2778L70.2017 20.7687C69.974 18.7796 70.6572 16.5275 72.5548 14.3132C74.2626 12.2864 75.2115 10.8229 75.2115 9.13379C75.2115 7.21954 73.997 5.94346 71.6061 5.90605C70.2307 5.90306 68.8894 6.31018 67.7728 7.06952L66.8619 4.70483C68.4738 3.70712 70.3627 3.18461 72.2891 3.20355C76.6535 3.20355 78.6269 5.86825 78.6269 8.72081C78.6269 11.2729 77.185 13.1498 75.3631 15.2515ZM72.1018 26.6891C71.3261 26.6871 70.5673 26.9026 69.9211 27.3084C69.275 27.7142 68.7707 28.2921 68.4719 28.969C68.1731 29.6458 68.0933 30.3913 68.2425 31.111C68.3918 31.8308 68.7634 32.4925 69.3104 33.0125C69.8574 33.5326 70.5552 33.8875 71.3155 34.0326C72.0759 34.1776 72.8646 34.1061 73.582 33.8272C74.2994 33.5483 74.9132 33.0746 75.3458 32.4658C75.7785 31.857 76.0105 31.1406 76.0125 30.4071C76.018 29.9191 75.9207 29.4349 75.7264 28.9828C75.5321 28.5307 75.2446 28.1196 74.8806 27.7736C74.5167 27.4276 74.0835 27.1535 73.6065 26.9673C73.1294 26.7811 72.6179 26.6866 72.1018 26.6891ZM72.0799 31.6335H72.0579C71.8876 31.6367 71.7185 31.6071 71.5608 31.5464C71.4032 31.4856 71.2603 31.3951 71.1409 31.2802C71.0216 31.1654 70.9284 31.0287 70.8669 30.8786C70.8055 30.7284 70.7771 30.568 70.7836 30.4071C70.7763 30.2416 70.8054 30.0765 70.8691 29.9221C70.9327 29.7678 71.0296 29.6277 71.1535 29.5106C71.2774 29.3935 71.4256 29.302 71.5889 29.2419C71.7521 29.1817 71.9268 29.1543 72.1018 29.1613C72.2734 29.1627 72.4431 29.196 72.6012 29.2593C72.7592 29.3227 72.9025 29.4149 73.0229 29.5307C73.1432 29.6464 73.2383 29.7834 73.3027 29.9339C73.3671 30.0844 73.3994 30.2454 73.398 30.4077C73.3966 30.5701 73.3613 30.7305 73.2943 30.88C73.2273 31.0294 73.1298 31.1649 73.0074 31.2787C72.885 31.3926 72.7401 31.4825 72.5809 31.5433C72.4218 31.6042 72.2515 31.6348 72.0799 31.6335ZM55.0968 4.00865C52.4457 4.00865 50.5216 5.53282 50.5216 7.63285V23.4232C49.4948 23.4194 48.2258 23.4159 46.8379 23.4129C48.4239 22.214 49.5771 20.579 50.1382 18.7338C50.6993 16.8885 50.6406 14.9241 49.9703 13.1117C49.3 11.2993 48.0512 9.72845 46.3962 8.61608C44.7412 7.50371 42.7618 6.90471 40.7313 6.90181C38.7009 6.89891 36.7196 7.49226 35.061 8.5999C33.4025 9.70754 32.1486 11.2748 31.4725 13.0853C30.7965 14.8957 30.7315 16.86 31.2868 18.7069C31.842 20.5537 32.9899 22.192 34.5721 23.3954C32.7894 23.3937 31.6092 23.393 31.5686 23.3929C29.1364 23.4102 26.7849 24.2203 24.9109 25.6866C23.037 27.1528 21.7554 29.1855 21.2823 31.4416C21.17 31.6253 21.1103 31.8335 21.1089 32.0457V32.729C21.0999 32.8652 21.0811 32.999 21.078 33.1366C21.0763 33.2734 21.0866 33.41 21.1089 33.5451V49.6599C21.1496 50.7116 21.6106 51.7097 22.3991 52.4525C23.1875 53.1954 24.2445 53.6279 25.3569 53.6626L25.3342 56.1275C25.3259 56.7366 25.5581 57.3268 25.9854 57.7827C26.4128 58.2386 27.0045 58.5274 27.6451 58.5927V74.8964C27.6466 76.2068 28.1982 77.463 29.1786 78.3891C30.1591 79.3152 31.4882 79.8353 32.874 79.8353C34.2598 79.8353 35.5889 79.3152 36.5693 78.3891C37.5497 77.463 38.1013 76.2068 38.1029 74.8964V58.6212H40.7173V74.8964C40.7189 76.2068 41.2705 77.463 42.2509 78.3891C43.2314 79.3152 44.5605 79.8353 45.9462 79.8353C47.332 79.8353 48.6611 79.3152 49.6416 78.3891C50.622 77.463 51.1736 76.2068 51.1752 74.8964V58.5338C51.7353 58.3981 52.2319 58.0902 52.5868 57.6585C52.9418 57.2269 53.135 56.6959 53.136 56.1491V37.2703C53.1369 36.9859 53.2065 36.7054 53.3396 36.4504C53.4727 36.1954 53.6657 35.9725 53.9038 35.7988L56.8569 33.658C57.73 33.0212 58.4376 32.2039 58.9256 31.2688C59.4135 30.3337 59.6689 29.3055 59.6721 28.2627V7.63282C59.6721 5.53282 57.748 4.00865 55.0968 4.00865ZM33.5276 16.1824C33.5275 14.8378 33.9492 13.5233 34.7391 12.4052C35.5291 11.2871 36.652 10.4157 37.9658 9.90107C39.2795 9.38646 40.7251 9.25179 42.1198 9.51409C43.5145 9.77639 44.7956 10.4239 45.8012 11.3747C46.8067 12.3255 47.4915 13.5369 47.7689 14.8557C48.0464 16.1746 47.904 17.5416 47.3598 18.7839C46.8157 20.0262 45.8941 21.088 44.7118 21.8351C43.5294 22.5821 42.1393 22.9809 40.7173 22.9809C39.7732 22.9809 38.8383 22.8051 37.966 22.4634C37.0937 22.1218 36.3011 21.621 35.6335 20.9897C34.9658 20.3584 34.4362 19.609 34.0749 18.7841C33.7136 17.9593 33.5276 17.0752 33.5276 16.1824ZM35.4884 74.8964C35.4884 75.552 35.213 76.1809 34.7227 76.6445C34.2324 77.1081 33.5674 77.3686 32.874 77.3686C32.1806 77.3686 31.5156 77.1081 31.0253 76.6445C30.535 76.1809 30.2595 75.552 30.2595 74.8964V58.6212H35.4884V74.8964ZM48.5607 74.8964C48.5607 75.552 48.2853 76.1809 47.7949 76.6445C47.3046 77.1081 46.6396 77.3686 45.9462 77.3686C45.2528 77.3686 44.5879 77.1081 44.0975 76.6445C43.6072 76.1809 43.3318 75.552 43.3318 74.8964V58.6212H48.5607V74.8964ZM57.0577 28.2627C57.0577 28.9267 56.8961 29.5816 56.5854 30.177C56.2747 30.7724 55.8233 31.2922 55.2661 31.6961L52.3131 33.8369C51.7559 34.2408 51.3045 34.7606 50.9938 35.356C50.6831 35.9513 50.5215 36.6063 50.5215 37.2703V56.1491H27.9485L27.9764 53.1311C28.6537 52.8023 29.2239 52.3057 29.626 51.6943C30.0281 51.0829 30.2471 50.3798 30.2595 49.6599V38.8441C30.2595 38.5163 30.1218 38.2019 29.8766 37.9701C29.6315 37.7383 29.299 37.608 28.9523 37.608C28.6056 37.608 28.2731 37.7383 28.0279 37.9701C27.7828 38.2019 27.6451 38.5163 27.6451 38.8441V49.6599C27.5974 50.109 27.3653 50.5225 26.9986 50.8114C26.6319 51.1004 26.16 51.2417 25.6842 51.205C25.2085 51.2417 24.7365 51.1004 24.3698 50.8114C24.0031 50.5225 23.771 50.109 23.7234 49.6599V33.4052L23.9123 33.6016L23.7234 33.2816V32.7736C23.8815 30.9036 24.7743 29.1573 26.2259 27.8787C27.6776 26.6 29.5829 25.8817 31.5667 25.8651C31.5667 25.8651 45.8367 25.8746 51.1702 25.898L51.1795 25.898C51.4368 25.8979 51.6915 25.8498 51.9291 25.7566C52.1667 25.6633 52.3825 25.5266 52.5642 25.3544C52.7459 25.1822 52.89 24.9779 52.9881 24.753C53.0862 24.5281 53.1364 24.2871 53.136 24.0439V7.63282C53.136 6.86484 54.1164 6.48079 55.0968 6.48079C56.0773 6.48079 57.0577 6.86481 57.0577 7.63282V28.2627ZM22.0429 21.2328L20.8927 16.0946L24.713 14.3309C25.9027 13.7639 26.825 12.7966 27.2987 11.6191C27.7723 10.4416 27.763 9.13916 27.2725 7.96787L25.5651 3.85599C25.1969 2.93975 24.5436 2.15063 23.6913 1.59278C22.839 1.03493 21.8279 0.734581 20.7914 0.731383C20.1797 0.731356 19.5731 0.837042 19.0016 1.04323L6.16385 5.65717C5.5214 5.8885 4.93432 6.23889 4.43709 6.68776C3.93986 7.13663 3.54249 7.67494 3.26834 8.27106C2.98197 8.88741 2.82683 9.55107 2.81176 10.2241C2.7967 10.8972 2.92201 11.5665 3.18054 12.1937L5.34539 17.4073C5.71377 18.3237 6.36734 19.1129 7.21986 19.6708C8.07237 20.2287 9.08374 20.529 10.1205 20.5321C10.8875 20.5327 11.6445 20.3666 12.3328 20.0464L12.6073 19.9197L17.9065 23.7154C18.3314 24.0197 18.8444 24.194 19.377 24.2148C19.9096 24.2357 20.4361 24.1021 20.8861 23.832C21.3362 23.5619 21.6881 23.1682 21.8949 22.7037C22.1016 22.2391 22.1533 21.7259 22.0429 21.2328ZM17.9124 14.7194L19.4851 21.7448L12.9047 17.0314L11.1856 17.825C10.8542 17.9791 10.4898 18.0595 10.1205 18.0599C9.60977 18.054 9.11291 17.9022 8.69507 17.6245C8.27722 17.3468 7.95791 16.9562 7.77901 16.5038L5.61415 11.2903C5.34577 10.6642 5.35069 9.96303 5.62782 9.34036C5.90495 8.71769 6.43171 8.22423 7.09276 7.96803L19.9305 3.3541C20.2054 3.2548 20.4971 3.20379 20.7914 3.20355C21.3018 3.20979 21.7983 3.36169 22.2159 3.63934C22.6335 3.91698 22.9526 4.30743 23.1315 4.75952L24.8389 8.87135C25.0911 9.46405 25.1004 10.1244 24.865 10.7233C24.6296 11.3221 24.1663 11.8164 23.5659 12.1094L17.9124 14.7194Z" fill="white"/>
</g>
<defs>
<clipPath id="clip0_128_1302">
<rect width="83.6596" height="79.1093" fill="white" transform="translate(0.196289 0.731445)"/>
</clipPath>
</defs>
</svg>
