<svg width="68" height="68" viewBox="0 0 68 68" fill="none" xmlns="http://www.w3.org/2000/svg">
<path fill-rule="evenodd" clip-rule="evenodd" d="M5.52398 0.381592C2.91044 0.381592 0.757651 2.53438 0.757651 5.14792L0.751296 46.4624C0.751296 48.5835 3.93203 48.5835 3.93203 46.4624L3.9352 5.14792C3.9352 4.24073 4.61679 3.55914 5.52398 3.55914H50.0097C50.9169 3.55914 51.5985 4.24073 51.5985 5.14792V33.7459C51.5667 35.8939 54.8078 35.8939 54.776 33.7459V5.14792C54.776 2.53438 52.6232 0.381592 50.0097 0.381592H5.52398ZM15.0566 13.0918C14.6353 13.0918 14.2312 13.2592 13.9332 13.5571C13.6352 13.8551 13.4679 14.2592 13.4679 14.6806C13.4679 15.1019 13.6352 15.5061 13.9332 15.804C14.2312 16.102 14.6353 16.2694 15.0566 16.2694C15.478 16.2694 15.8821 16.102 16.1801 15.804C16.478 15.5061 16.6454 15.1019 16.6454 14.6806C16.6454 14.2592 16.478 13.8551 16.1801 13.5571C15.8821 13.2592 15.478 13.0918 15.0566 13.0918ZM21.2529 13.095C19.1827 13.238 19.3304 16.3265 21.4054 16.2725H40.477C42.5504 16.228 42.5504 13.1395 40.477 13.095H21.4054C21.3546 13.0926 21.3037 13.0926 21.2529 13.095ZM15.0566 22.6245C14.6353 22.6245 14.2312 22.7918 13.9332 23.0898C13.6352 23.3877 13.4679 23.7919 13.4679 24.2132C13.4679 24.6346 13.6352 25.0387 13.9332 25.3367C14.2312 25.6346 14.6353 25.802 15.0566 25.802C15.478 25.802 15.8821 25.6346 16.1801 25.3367C16.478 25.0387 16.6454 24.6346 16.6454 24.2132C16.6454 23.7919 16.478 23.3877 16.1801 23.0898C15.8821 22.7918 15.478 22.6245 15.0566 22.6245ZM40.6518 22.6245C40.593 22.6245 40.5342 22.6245 40.477 22.6308H21.4054C21.3546 22.6284 21.3037 22.6284 21.2529 22.6308C19.305 22.8723 19.4417 25.7416 21.4054 25.7957H40.477C42.6584 25.9879 42.8411 22.6705 40.6518 22.6245ZM21.4054 32.1539C19.332 32.1984 19.332 35.287 21.4054 35.3315H40.477C42.641 35.3791 42.641 32.1063 40.477 32.1539H21.4054ZM15.0566 32.1571C14.6353 32.1571 14.2312 32.3245 13.9332 32.6224C13.6352 32.9204 13.4679 33.3245 13.4679 33.7459C13.4679 34.1673 13.6352 34.5714 13.9332 34.8693C14.2312 35.1673 14.6353 35.3347 15.0566 35.3347C15.478 35.3347 15.8821 35.1673 16.1801 34.8693C16.478 34.5714 16.6454 34.1673 16.6454 33.7459C16.6454 33.3245 16.478 32.9204 16.1801 32.6224C15.8821 32.3245 15.478 32.1571 15.0566 32.1571ZM15.0566 41.6898C14.6353 41.6898 14.2312 41.8572 13.9332 42.1551C13.6352 42.4531 13.4679 42.8572 13.4679 43.2785C13.4679 43.6999 13.6352 44.104 13.9332 44.402C14.2312 44.6999 14.6353 44.8673 15.0566 44.8673C15.478 44.8673 15.8821 44.6999 16.1801 44.402C16.478 44.104 16.6454 43.6999 16.6454 43.2785C16.6454 42.8572 16.478 42.4531 16.1801 42.1551C15.8821 41.8572 15.478 41.6898 15.0566 41.6898ZM21.4054 41.6898C19.2415 41.6421 19.2415 44.915 21.4054 44.8673H37.2963C39.4602 44.915 39.4602 41.6421 37.2963 41.6898H21.4054ZM15.0566 51.2224C14.6353 51.2224 14.2312 51.3898 13.9332 51.6878C13.6352 51.9857 13.4679 52.3898 13.4679 52.8112C13.4679 53.2326 13.6352 53.6367 13.9332 53.9346C14.2312 54.2326 14.6353 54.4 15.0566 54.4C15.478 54.4 15.8821 54.2326 16.1801 53.9346C16.478 53.6367 16.6454 53.2326 16.6454 52.8112C16.6454 52.3898 16.478 51.9857 16.1801 51.6878C15.8821 51.3898 15.478 51.2224 15.0566 51.2224ZM21.2529 51.2224C19.1334 51.3241 19.2844 54.5048 21.4054 54.4031H34.1188C36.2398 54.4031 36.2398 51.2224 34.1188 51.2224H21.4054C21.3546 51.22 21.3037 51.22 21.2529 51.2224ZM2.32418 52.7826C2.11418 52.7847 1.90667 52.8283 1.71366 52.9111C1.52064 52.9939 1.34595 53.1141 1.19968 53.2648C1.05341 53.4155 0.938471 53.5937 0.861508 53.7891C0.784545 53.9845 0.747086 54.1932 0.751296 54.4031L0.757651 62.3439C0.757651 64.9574 2.91044 67.1102 5.52398 67.1102H37.2995C39.4475 67.142 39.4475 63.9009 37.2995 63.9326H5.52398C4.61679 63.9326 3.9352 63.251 3.9352 62.3439L3.93203 54.4031C3.9363 54.1902 3.89773 53.9786 3.8186 53.7809C3.73947 53.5832 3.62141 53.4034 3.47142 53.2523C3.32143 53.1011 3.14258 52.9816 2.9455 52.9009C2.74841 52.8202 2.53712 52.78 2.32418 52.7826ZM53.1904 38.509C45.3117 38.509 38.8946 44.9293 38.8946 52.808C38.8946 60.6868 45.3133 67.1165 53.1904 67.1165C61.0692 67.1165 67.4862 60.6868 67.4862 52.808C67.4862 44.9293 61.0676 38.509 53.1904 38.509ZM53.1904 41.6898C54.6514 41.6864 56.0987 41.9717 57.4492 42.5293C58.7996 43.0868 60.0266 43.9057 61.0597 44.9388C62.0928 45.9718 62.9116 47.1988 63.4692 48.5493C64.0267 49.8997 64.312 51.347 64.3087 52.808C64.3122 54.2695 64.0272 55.7174 63.4698 57.0684C62.9124 58.4195 62.0938 59.6472 61.0607 60.6811C60.0277 61.715 58.8007 62.5347 57.4501 63.0933C56.0995 63.6518 54.652 63.9381 53.1904 63.9358C51.7289 63.9381 50.2813 63.6518 48.9307 63.0933C47.5801 62.5347 46.3531 61.715 45.3201 60.6811C44.2871 59.6472 43.4684 58.4195 42.9111 57.0684C42.3537 55.7174 42.0686 54.2695 42.0722 52.808C42.0688 51.347 42.3541 49.8997 42.9117 48.5493C43.4692 47.1988 44.2881 45.9718 45.3212 44.9388C46.3543 43.9057 47.5813 43.0868 48.9317 42.5293C50.2821 41.9717 51.7294 41.6864 53.1904 41.6898ZM58.2078 47.8463C57.7963 47.8597 57.4062 48.0323 57.1195 48.3277L51.5016 53.944L49.2614 51.6943C49.1141 51.5445 48.9386 51.4253 48.745 51.3437C48.5514 51.262 48.3436 51.2195 48.1335 51.2186C47.9235 51.2176 47.7153 51.2583 47.521 51.3381C47.3267 51.418 47.1501 51.5356 47.0014 51.684C46.8528 51.8325 46.735 52.0089 46.6548 52.2031C46.5747 52.3973 46.5337 52.6054 46.5344 52.8155C46.535 53.0256 46.5773 53.2334 46.6586 53.4271C46.74 53.6208 46.8589 53.7965 47.0085 53.944L50.3767 57.3106C50.5243 57.4583 50.6995 57.5755 50.8924 57.6555C51.0852 57.7354 51.292 57.7766 51.5008 57.7766C51.7096 57.7766 51.9163 57.7354 52.1092 57.6555C52.3021 57.5755 52.4773 57.4583 52.6248 57.3106L59.3724 50.5774C59.6041 50.3539 59.7624 50.0653 59.8264 49.7498C59.8904 49.4343 59.8571 49.1068 59.7308 48.8107C59.6046 48.5145 59.3913 48.2638 59.1193 48.0915C58.8473 47.9193 58.5295 47.8338 58.2078 47.8463Z" fill="white"/>
</svg>
