<svg width="75" height="75" viewBox="0 0 75 75" fill="none" xmlns="http://www.w3.org/2000/svg">
<g clip-path="url(#clip0_128_1090)">
<path fill-rule="evenodd" clip-rule="evenodd" d="M34.06 2.08716H42.3794L43.2255 2.48198C43.7049 2.70759 44.3112 3.15882 44.6215 3.51134C44.9317 3.83566 45.2983 4.37149 45.4393 4.6817C45.5662 4.99192 45.9046 6.48661 46.1725 7.99539C46.4405 9.50417 46.7225 10.7873 46.7789 10.8296C46.8353 10.872 47.3993 11.0835 48.0197 11.295C48.6402 11.5065 49.74 11.9718 51.7565 12.9307L54.1254 11.2386C55.5919 10.181 56.7481 9.44777 57.1853 9.30676C57.6506 9.16576 58.2146 9.10935 58.8069 9.13755C59.3709 9.17986 59.9913 9.33497 60.4284 9.53238C60.9502 9.78619 61.8949 10.6322 63.9677 12.7051C66.5341 15.2714 66.8302 15.6239 67.1122 16.3854C67.366 17.0622 67.4224 17.4429 67.3801 18.289C67.3519 18.9658 67.225 19.5439 67.0558 19.9106C66.9007 20.2208 66.097 21.4193 65.2509 22.5897C64.419 23.746 63.7421 24.7894 63.7421 24.874C63.7421 24.9727 63.9536 25.4804 64.2215 26.0021C64.4754 26.5379 64.9125 27.5532 65.1663 28.2864C65.4906 29.1889 65.7303 29.6401 65.9277 29.7247C66.0829 29.7811 67.3801 30.0349 68.8184 30.2746C70.8066 30.6131 71.5963 30.8105 72.118 31.0925C72.4987 31.304 73.0486 31.7552 73.3589 32.1077C73.655 32.4603 74.0357 33.0807 74.1908 33.4896C74.4305 34.1524 74.4587 34.6036 74.4587 38.1711C74.4587 41.7386 74.4305 42.1898 74.1908 42.8525C74.0357 43.2615 73.6409 43.9101 73.3025 44.2767C72.964 44.6574 72.3718 45.1228 71.9911 45.3061C71.5258 45.5317 70.44 45.7855 68.7479 46.0675C67.3519 46.3072 66.0829 46.5187 65.9277 46.5611C65.7162 46.6034 65.5329 46.9277 65.2368 47.7878C64.9971 48.4365 64.5459 49.5363 63.6434 51.4963L65.2368 53.7525C66.1252 54.9933 66.9712 56.3611 67.1404 56.7841C67.366 57.3905 67.4224 57.7712 67.3801 58.5467C67.3237 59.2518 67.1968 59.7594 66.9148 60.3093C66.6328 60.8734 65.829 61.7758 63.8972 63.7076C62.0218 65.583 61.0489 66.4573 60.4989 66.7393C59.808 67.0918 59.5824 67.1482 58.4543 67.1482C57.425 67.1482 57.0866 67.0918 56.6212 66.838C56.311 66.6688 55.0701 65.8368 51.686 63.4397L50.4169 64.0319C49.7259 64.3703 48.6402 64.8075 48.0197 65.0331C47.3993 65.2587 46.8776 65.442 46.8635 65.442C46.8353 65.4561 46.5956 66.7252 46.3277 68.2763C46.0456 69.8274 45.7072 71.3502 45.5803 71.6605C45.4393 71.9707 45.0727 72.5065 44.7625 72.8308C44.4522 73.1833 43.8459 73.6346 42.5204 74.255H34.201L33.3549 73.8602C32.8896 73.6346 32.2692 73.1833 31.9731 72.8731C31.691 72.5488 31.3244 72.0412 31.1693 71.731C31.0001 71.4066 30.6758 69.9684 30.3938 68.3045C30.1117 66.7393 29.8861 65.4561 29.8579 65.442C29.8438 65.442 29.4208 65.2869 28.9132 65.1177C28.4056 64.9344 27.348 64.5114 25.106 63.5525L22.9485 65.0895C21.7782 65.9214 20.5232 66.7675 20.1707 66.9508C19.6631 67.2046 19.3105 67.2751 18.4081 67.2751C17.4492 67.2892 17.1531 67.2328 16.434 66.8944C15.743 66.5701 15.1085 66.006 12.8947 63.7922C10.9629 61.8463 10.1168 60.8875 9.86302 60.3798C9.63741 59.9145 9.5105 59.3364 9.4682 58.6877C9.44 58.0109 9.4964 57.4751 9.65151 56.9956C9.79252 56.5867 10.5681 55.3176 13.1626 51.6373L12.4576 50.0863C12.0627 49.2261 11.5974 48.1403 11.4141 47.6468C11.2308 47.1674 11.0757 46.7585 11.0757 46.7726C11.0757 46.7726 9.77841 46.547 8.18503 46.279C5.9289 45.8842 5.13926 45.6868 4.60343 45.3907C4.2227 45.1792 3.67277 44.728 3.36256 44.3754C3.06644 44.0229 2.68572 43.4025 2.53061 42.9936C2.2909 42.3308 2.2627 41.8796 2.2627 38.3121C2.2627 34.7446 2.2909 34.2934 2.53061 33.6165C2.68572 33.2217 3.08054 32.5731 3.41896 32.2064C3.75738 31.8257 4.34961 31.3604 4.73033 31.1771C5.19566 30.9515 6.32372 30.6977 8.11452 30.3874C9.5951 30.1477 10.8642 29.8798 10.9488 29.7952C11.0475 29.7106 11.2167 29.2876 11.3577 28.8646C11.4846 28.4415 11.9076 27.3981 12.9934 24.9868L11.4987 22.8717C10.6668 21.7014 9.82072 20.4323 9.62331 20.0516C9.31309 19.4593 9.25669 19.1632 9.25669 18.148C9.24258 17.1609 9.31309 16.8225 9.581 16.2444C9.83482 15.7367 10.695 14.7638 12.6832 12.7756C14.2343 11.2245 15.7007 9.8849 16.011 9.71569C16.3212 9.56058 16.9275 9.37727 17.3505 9.29266C17.7877 9.20806 18.4363 9.19396 18.8311 9.26446C19.2118 9.32086 19.7618 9.47597 20.0297 9.61698C20.2976 9.75799 21.4962 10.5758 24.8522 13.0012L26.2763 12.3384C27.066 11.9718 28.1799 11.5065 29.7592 10.8861L29.9002 10.181C29.9707 9.78619 30.1964 8.51712 30.3938 7.36085C30.5912 6.19049 30.8732 4.99192 31.0142 4.6817C31.1411 4.37149 31.5077 3.83566 31.8179 3.51134C32.1141 3.15882 32.7486 2.70759 33.2139 2.48198L34.06 2.08716ZM34.1587 9.78619C33.7639 11.9295 33.4536 13.3114 33.2844 13.5793C33.1434 13.8049 32.8896 14.0728 32.7345 14.1715C32.5653 14.2702 31.6628 14.6087 30.704 14.9189C29.7592 15.2291 28.194 15.8918 27.2211 16.3854C26.2481 16.8648 25.2893 17.316 25.0637 17.3583C24.8522 17.4147 24.4432 17.3724 24.1471 17.2737C23.8651 17.175 22.5114 16.3008 21.1577 15.3278C19.8041 14.3548 18.535 13.4806 18.3376 13.3819C17.9992 13.2127 17.9005 13.2832 15.6161 15.5816C14.3189 16.8789 13.2613 18.0211 13.2613 18.1198C13.2613 18.2185 14.1356 19.5157 15.1931 21.0104C16.2507 22.5051 17.2095 23.9716 17.3082 24.2536C17.4069 24.5497 17.4492 24.9586 17.3928 25.1702C17.3505 25.3817 16.9416 26.2982 16.4904 27.1866C16.0533 28.0749 15.4892 29.3722 15.2636 30.0772C15.0239 30.7682 14.7701 31.6142 14.6855 31.9385C14.6009 32.277 14.3612 32.7423 14.1356 32.982C13.924 33.2358 13.5997 33.4896 13.4023 33.5601C13.2049 33.6306 11.6256 33.9408 9.87712 34.2229C8.12862 34.519 6.61984 34.801 6.52113 34.8433C6.39423 34.9138 6.35192 35.7598 6.35192 38.3262C6.35192 40.8784 6.39423 41.7245 6.52113 41.8091C6.61984 41.8655 8.25553 42.1757 10.1591 42.5C13.5433 43.0923 13.6279 43.1205 14.0651 43.5717C14.4035 43.9242 14.6573 44.46 15.0662 45.7291C15.3623 46.6598 16.0815 48.3378 16.6314 49.4658C17.5338 51.2707 17.6467 51.5668 17.5761 52.0745C17.5056 52.4975 17.0121 53.3012 15.5174 55.4163C14.4317 56.9533 13.5433 58.3211 13.5433 58.448C13.5433 58.589 14.5727 59.7312 15.8277 60.9862C17.0967 62.2552 18.2248 63.2846 18.3376 63.2846C18.4504 63.2846 19.6913 62.4808 21.0872 61.4797C22.4832 60.4785 23.8369 59.562 24.0766 59.4351C24.3304 59.2941 24.7676 59.1954 25.0355 59.1954C25.3598 59.1954 26.1917 59.5197 27.3903 60.0978C28.4197 60.5913 29.7451 61.1554 30.3233 61.3528C30.9014 61.5502 31.6487 61.7758 31.9731 61.8604C32.3115 61.945 32.7768 62.1847 33.0165 62.3962C33.2703 62.6077 33.5241 62.9321 33.5805 63.1013C33.651 63.2846 33.9331 64.8075 34.2151 66.4855C34.483 68.1776 34.765 69.7004 34.8496 69.8697C34.9765 70.194 34.9906 70.194 38.3607 70.194C41.7308 70.194 41.7449 70.194 41.8718 69.8697C41.9564 69.7004 42.2384 68.1776 42.5063 66.4855C42.7884 64.8075 43.0986 63.2423 43.2114 63.0308C43.3242 62.8193 43.5216 62.5372 43.6626 62.4103C43.8177 62.2693 44.7202 61.9027 45.6931 61.5925C46.6661 61.2682 48.3441 60.5631 49.4298 60.0273C50.6989 59.4069 51.5731 59.0544 51.8975 59.0544C52.2077 59.0544 52.6307 59.1954 53.0255 59.4492C53.378 59.6748 54.6894 60.5913 55.9585 61.4938C57.2135 62.3962 58.3556 63.1436 58.4825 63.1436C58.6235 63.1436 59.7657 62.1142 61.0348 60.8451C62.2897 59.5902 63.3191 58.448 63.3191 58.307C63.3191 58.1801 62.5154 56.9392 61.5283 55.5574C60.5412 54.1896 59.6247 52.8359 59.4837 52.568C59.3427 52.3001 59.2299 51.8771 59.2299 51.6514C59.2299 51.4117 59.667 50.3401 60.2028 49.2543C60.7387 48.1685 61.3309 46.8008 61.5283 46.2226C61.7257 45.6445 61.9513 44.8972 62.0359 44.5587C62.1205 44.2344 62.3602 43.7691 62.5718 43.5153C62.7974 43.2756 63.1076 43.0218 63.2768 42.9512C63.4601 42.8948 64.983 42.6128 66.661 42.3308C68.3531 42.0629 69.876 41.7809 70.0452 41.6963C70.3695 41.5694 70.3695 41.5553 70.3695 38.1852C70.3695 34.801 70.3695 34.801 70.0452 34.66C69.876 34.5895 68.339 34.3075 66.6328 34.0254C64.9266 33.7434 63.4037 33.4473 63.2486 33.3627C63.0935 33.2781 62.8256 33.0807 62.6423 32.9115C62.4449 32.7282 62.1205 31.9667 61.768 30.8528C61.4578 29.8798 60.7669 28.1877 60.2169 27.0738C59.6811 25.9739 59.2299 24.9163 59.2299 24.7189C59.2299 24.5215 59.2863 24.2113 59.3709 24.0139C59.4555 23.8165 60.372 22.4487 61.4155 20.9822C62.459 19.5016 63.3191 18.1903 63.3191 18.0493C63.3191 17.9223 62.2897 16.7802 61.0207 15.5111C59.7657 14.2561 58.6376 13.2268 58.5248 13.2127C58.412 13.2127 57.2417 13.9882 55.9162 14.933C54.5907 15.8777 53.2652 16.8084 52.955 16.9776C52.6448 17.1609 52.1654 17.316 51.8975 17.3019C51.5731 17.3019 50.7271 16.9776 49.4298 16.329C48.3441 15.8072 46.8212 15.1586 46.0456 14.9189C45.2701 14.6792 44.3535 14.3407 44.0151 14.1715C43.6062 13.9741 43.296 13.678 43.1409 13.3678C42.9999 13.0858 42.6473 11.4783 42.3653 9.70159C42.0692 7.95309 41.7731 6.4443 41.6885 6.3456C41.5757 6.20459 40.7578 6.16229 38.1915 6.16229C36.3584 6.17639 34.8355 6.23279 34.8073 6.28919C34.7791 6.3597 34.483 7.92489 34.1587 9.78619ZM38.5722 22.6179C38.7273 22.632 39.3619 22.6884 39.9823 22.7307C40.6027 22.773 41.7167 22.9704 42.4499 23.1819C43.1832 23.3794 44.2689 23.7601 44.8471 24.028C45.4252 24.2959 46.4405 24.8881 47.1032 25.3253C47.7518 25.7624 48.7671 26.6084 49.3593 27.1866C49.9375 27.7647 50.7835 28.78 51.2206 29.4427C51.6578 30.1054 52.25 31.1207 52.5179 31.6988C52.7858 32.277 53.1665 33.3627 53.3639 34.096C53.5614 34.8292 53.7729 36.0701 53.8434 36.8456C53.8998 37.6212 53.8998 38.8338 53.8434 39.553C53.787 40.2721 53.6037 41.3579 53.4627 41.9501C53.3075 42.5564 52.9832 43.5294 52.7435 44.1075C52.5179 44.6856 52.0385 45.6445 51.686 46.2226C51.3334 46.8008 50.6566 47.7173 50.1913 48.2673C49.7259 48.8031 48.9081 49.6209 48.4005 50.058C47.8787 50.4952 46.9763 51.1579 46.3982 51.5104C45.82 51.8629 44.8048 52.3565 44.142 52.6244C43.4793 52.8923 42.2948 53.2448 41.4911 53.3999C40.504 53.5973 39.517 53.6961 38.3607 53.6961C37.2326 53.6961 36.208 53.602 35.2867 53.414C34.5394 53.2589 33.4113 52.9346 32.7909 52.6949C32.1705 52.4552 31.3103 52.0745 30.8873 51.8347C30.4643 51.595 29.6605 51.0733 29.1247 50.6644C28.5889 50.2555 27.7992 49.5786 27.3762 49.1697C26.9532 48.7467 26.2904 47.957 25.8815 47.4212C25.4726 46.8713 24.9509 46.0816 24.7111 45.6586C24.4714 45.2356 24.0766 44.3754 23.8369 43.755C23.5972 43.1346 23.287 42.0065 23.1319 41.2451C22.9438 40.3332 22.8498 39.3132 22.8498 38.1852C22.8498 37.0289 22.9486 36.0278 23.146 35.0407C23.3011 34.2511 23.6536 33.0666 23.9215 32.4039C24.1753 31.7411 24.6829 30.7259 25.0355 30.1477C25.388 29.5696 26.0648 28.6389 26.5301 28.1031C26.9955 27.5532 27.8133 26.7494 28.3209 26.3123C28.8427 25.8611 29.7451 25.2125 30.3233 24.8599C30.9014 24.5074 31.8602 24.028 32.4384 23.7883C33.0165 23.5627 34.0036 23.2383 34.624 23.0832C35.2444 22.914 36.3302 22.7448 37.0211 22.6884C37.7121 22.632 38.4171 22.5897 38.5722 22.6179ZM35.8226 26.9892C35.2162 27.1161 34.1587 27.4968 33.3549 27.8916C32.5794 28.2723 31.5359 28.921 31.0283 29.344C30.5207 29.7529 29.7451 30.5708 29.308 31.1489C28.8709 31.7129 28.2786 32.6718 28.0107 33.2499C27.7287 33.828 27.3762 34.8151 27.2211 35.4355C27.0237 36.1829 26.925 37.0289 26.925 37.9737C26.925 38.7492 26.9814 39.7645 27.066 40.2298C27.1506 40.6951 27.348 41.4566 27.5031 41.9219C27.6723 42.3872 28.0248 43.1769 28.3068 43.6845C28.5748 44.1921 29.1106 44.9818 29.4913 45.4471C29.8579 45.9124 30.563 46.6175 31.0565 47.0123C31.55 47.4071 32.3538 47.9711 32.8614 48.239C33.369 48.5211 34.1587 48.8736 34.624 49.0428C35.0893 49.1979 35.8508 49.3953 36.3161 49.4799C36.7814 49.5645 37.7967 49.6209 38.5722 49.6209C39.5029 49.6209 40.363 49.5222 41.1104 49.3248C41.7308 49.1697 42.7179 48.8172 43.296 48.5352C43.8741 48.2672 44.8189 47.675 45.397 47.2379C45.9751 46.7867 46.7789 46.0252 47.2019 45.5176C47.6249 45.01 48.2736 43.9665 48.6543 43.191C49.035 42.4154 49.4439 41.3015 49.5708 40.7233C49.7118 40.1029 49.8106 39.0594 49.8106 38.1852C49.8106 37.325 49.7118 36.2957 49.5849 35.7175C49.458 35.1676 49.1901 34.3216 48.9786 33.8139C48.7812 33.3063 48.3159 32.4462 47.9774 31.9103C47.6249 31.3604 46.9622 30.5285 46.4828 30.0631C46.0033 29.5837 45.1855 28.921 44.6356 28.5684C44.0856 28.2159 43.2396 27.7647 42.732 27.5673C42.2243 27.3558 41.4065 27.102 40.8988 26.9892C40.3912 26.8763 39.5452 26.7635 38.9952 26.7212C38.4453 26.693 37.7544 26.6789 37.4442 26.7071C37.1339 26.7353 36.4007 26.8622 35.8226 26.9892Z" fill="white"/>
</g>
<defs>
<clipPath id="clip0_128_1090">
<rect width="73.4019" height="73.4019" fill="white" transform="translate(0.890625 0.714844)"/>
</clipPath>
</defs>
</svg>
