<svg width="74" height="74" viewBox="0 0 74 74" fill="none" xmlns="http://www.w3.org/2000/svg">
<g clip-path="url(#clip0_128_1066)">
<path d="M36.9782 39.5951C36.5241 39.5961 36.08 39.4621 35.7021 39.2103C35.3243 38.9584 35.0298 38.5999 34.856 38.1804C34.6823 37.7609 34.6371 37.2992 34.7262 36.8539C34.8153 36.4087 35.0347 35.9999 35.3565 35.6795L60.5884 10.4476C61.0185 10.0175 61.6019 9.77588 62.2101 9.77588C62.8184 9.77588 63.4018 10.0175 63.8319 10.4476C64.262 10.8777 64.5036 11.4611 64.5036 12.0693C64.5036 12.6776 64.262 13.261 63.8319 13.6911L38.5999 38.923C38.3872 39.1363 38.1344 39.3055 37.8561 39.4208C37.5778 39.5362 37.2795 39.5954 36.9782 39.5951Z" fill="white"/>
<path d="M62.7654 14.4714C62.157 14.4766 61.5715 14.2399 61.1377 13.8133C60.7039 13.3868 60.4572 12.8054 60.4521 12.1971C60.4469 11.5887 60.6836 11.0032 61.1101 10.5694C61.5366 10.1356 62.118 9.88894 62.7264 9.88377L69.0527 9.77596H69.0917C69.7001 9.77079 70.2855 10.0075 70.7194 10.434C71.1532 10.8605 71.3998 11.4419 71.405 12.0503C71.4102 12.6586 71.1735 13.2441 70.7469 13.678C70.3204 14.1118 69.739 14.3584 69.1307 14.3636L62.8044 14.4714H62.7654ZM53.035 23.5388C52.4267 23.5388 51.8432 23.2972 51.4131 22.867C50.9829 22.4368 50.7412 21.8534 50.7412 21.245C50.7412 20.6367 50.9829 20.0532 51.4131 19.623C51.8432 19.1929 52.4267 18.9512 53.035 18.9512L59.9165 18.9489C60.2177 18.9489 60.516 19.0082 60.7943 19.1235C61.0726 19.2388 61.3254 19.4078 61.5384 19.6208C61.7514 19.8338 61.9204 20.0866 62.0357 20.3649C62.1509 20.6432 62.2103 20.9415 62.2103 21.2427C62.2103 21.5439 62.1509 21.8422 62.0357 22.1205C61.9204 22.3988 61.7514 22.6517 61.5384 22.8647C61.3254 23.0777 61.0726 23.2467 60.7943 23.3619C60.516 23.4772 60.2177 23.5365 59.9165 23.5365L53.035 23.5388Z" fill="white"/>
<path d="M62.1028 13.8091H62.0638C61.7626 13.804 61.4653 13.7396 61.1889 13.6196C60.9126 13.4996 60.6625 13.3264 60.4532 13.1097C60.2438 12.8931 60.0791 12.6374 59.9686 12.3571C59.858 12.0768 59.8038 11.7775 59.809 11.4763L59.9168 5.14992C59.9219 4.8487 59.9863 4.55143 60.1063 4.27509C60.2263 3.99875 60.3996 3.74875 60.6162 3.53937C60.8328 3.33 61.0886 3.16533 61.3688 3.05479C61.6491 2.94425 61.9484 2.88999 62.2496 2.89511C62.5508 2.90023 62.8481 2.96463 63.1244 3.08464C63.4008 3.20464 63.6508 3.3779 63.8601 3.59452C64.0695 3.81114 64.2342 4.06688 64.3447 4.34714C64.4553 4.6274 64.5095 4.92668 64.5044 5.22791L64.3966 11.5542C64.3864 12.1558 64.1402 12.7293 63.7111 13.1511C63.2821 13.5728 62.7044 13.8091 62.1028 13.8091ZM53.0354 23.5394H53.0055C52.7043 23.5355 52.4068 23.4723 52.13 23.3534C51.8532 23.2346 51.6025 23.0623 51.3922 22.8465C51.182 22.6308 51.0163 22.3757 50.9047 22.0959C50.793 21.8161 50.7376 21.517 50.7415 21.2158L50.8494 12.5956C50.8572 11.9925 51.1023 11.4166 51.5317 10.9929C51.961 10.5692 52.5399 10.3316 53.1432 10.3316H53.173C53.4742 10.3355 53.7717 10.3987 54.0486 10.5176C54.3254 10.6365 54.576 10.8087 54.7863 11.0245C54.9965 11.2403 55.1622 11.4954 55.2738 11.7752C55.3855 12.055 55.4409 12.354 55.437 12.6553L55.3292 21.2754C55.3213 21.8786 55.0762 22.4544 54.6469 22.8781C54.2176 23.3019 53.6386 23.5395 53.0354 23.5394ZM36.9787 51.0651C29.3885 51.0651 23.2158 44.8925 23.2158 37.3023C23.2158 29.712 29.3885 23.5394 36.9787 23.5394C37.587 23.5394 38.1705 23.7811 38.6007 24.2112C39.0308 24.6414 39.2725 25.2249 39.2725 25.8332C39.2725 26.4416 39.0308 27.025 38.6007 27.4552C38.1705 27.8854 37.587 28.127 36.9787 28.127C31.9185 28.127 27.8034 32.2421 27.8034 37.3023C27.8034 42.3624 31.9185 46.4775 36.9787 46.4775C42.0388 46.4775 46.1539 42.3624 46.1539 37.3023C46.1539 36.6939 46.3956 36.1105 46.8258 35.6803C47.2559 35.2501 47.8394 35.0085 48.4477 35.0085C49.0561 35.0085 49.6395 35.2501 50.0697 35.6803C50.4999 36.1105 50.7415 36.6939 50.7415 37.3023C50.7415 44.8925 44.5689 51.0651 36.9787 51.0651Z" fill="white"/>
<path d="M36.9784 71.7093C18.0063 71.7093 2.57129 56.2743 2.57129 37.3022C2.57129 18.3301 18.0063 2.89502 36.9784 2.89502C40.3064 2.89406 43.6171 3.37462 46.8074 4.32177C47.096 4.40762 47.3648 4.54947 47.5986 4.73922C47.8324 4.92897 48.0264 5.1629 48.1698 5.42766C48.3131 5.69242 48.4029 5.98282 48.4341 6.28228C48.4652 6.58174 48.437 6.8844 48.3512 7.17298C48.2653 7.46155 48.1235 7.73039 47.9337 7.96415C47.744 8.19791 47.51 8.392 47.2453 8.53535C46.9805 8.6787 46.6901 8.76849 46.3907 8.79961C46.0912 8.83073 45.7885 8.80256 45.5 8.71671C42.7335 7.898 39.8635 7.48237 36.9784 7.48264C20.5364 7.48264 7.15891 20.8601 7.15891 37.3022C7.15891 53.7442 20.5364 67.1217 36.9784 67.1217C53.4205 67.1217 66.798 53.7442 66.798 37.3022C66.7968 34.4172 66.3812 31.5474 65.5639 28.7807C65.4781 28.4921 65.4499 28.1894 65.481 27.89C65.5121 27.5905 65.6019 27.3001 65.7453 27.0354C65.8886 26.7706 66.0827 26.5367 66.3165 26.3469C66.5502 26.1572 66.8191 26.0153 67.1076 25.9295C67.3962 25.8436 67.6989 25.8154 67.9983 25.8466C68.2978 25.8777 68.5882 25.9675 68.853 26.1108C69.1177 26.2542 69.3517 26.4483 69.5414 26.682C69.7312 26.9158 69.873 27.1846 69.9588 27.4732C70.905 30.6638 71.3855 33.9743 71.3856 37.3022C71.3856 56.2743 55.9506 71.7093 36.9784 71.7093Z" fill="white"/>
</g>
<defs>
<clipPath id="clip0_128_1066">
<rect width="73.4019" height="73.4019" fill="white" transform="translate(0.277344 0.60083)"/>
</clipPath>
</defs>
</svg>
