<svg width="78" height="73" viewBox="0 0 78 73" fill="none" xmlns="http://www.w3.org/2000/svg">
<path fill-rule="evenodd" clip-rule="evenodd" d="M15.2031 0.319665C15.7477 0.380169 16.5342 0.546555 16.9426 0.682689C17.3662 0.818823 18.0771 1.13647 18.5309 1.40874C18.9847 1.66588 19.7712 2.28605 20.2704 2.80033C20.7695 3.31461 21.3897 4.13142 21.662 4.61545C21.9191 5.09948 22.2367 5.88603 22.3729 6.33981C22.5241 6.83897 22.6149 7.71628 22.6149 8.53308C22.6149 9.62216 22.5241 10.1364 22.1914 11.1045C21.9645 11.77 21.5561 12.6322 21.2838 13.0406C21.0115 13.4339 20.7998 13.7969 20.7998 13.8726C20.7998 13.9331 21.1174 14.1146 21.5258 14.281C21.9191 14.4474 22.751 14.9163 23.3712 15.3247C23.9914 15.7331 24.9594 16.5196 25.504 17.0641C26.0485 17.6087 26.7443 18.4406 27.0317 18.8944C27.3342 19.3482 27.7275 20.1045 27.909 20.5583C28.0905 21.012 28.3325 21.7683 28.4384 22.2221C28.5594 22.6759 28.6804 23.5986 28.7409 24.2641C28.8014 25.0053 28.7712 25.9431 28.6653 26.6843C28.5594 27.3498 28.3779 28.1213 28.272 28.3935C28.151 28.6507 27.8334 29.1196 27.5762 29.4221C27.304 29.7246 26.8048 30.133 26.472 30.3297C26.1392 30.5263 25.3829 30.7532 24.8082 30.8439C23.9611 30.9801 23.3863 30.9649 22.0099 30.7834C21.0569 30.6624 19.4838 30.4507 18.5309 30.3145C17.5628 30.1784 15.7628 30.0725 14.4468 30.0725C13.1611 30.0725 11.346 30.1784 10.4385 30.2994C9.5309 30.4204 8.30569 30.6019 7.71578 30.6776C7.14099 30.7683 6.08217 30.8439 5.37125 30.8439C4.5847 30.8439 3.73764 30.7381 3.1931 30.5717C2.63344 30.4204 2.05865 30.1028 1.6805 29.77C1.33261 29.4675 0.909079 28.8927 0.742693 28.4843C0.561181 28.0759 0.33429 27.5011 0.243534 27.2137C0.152778 26.9263 0.0771484 26.049 0.0771484 25.2776C0.0771484 24.5213 0.18303 23.3868 0.304038 22.7969C0.440172 22.1919 0.71244 21.2541 0.924205 20.7095C1.13597 20.165 1.60487 19.2877 1.9679 18.7431C2.33092 18.1986 3.01159 17.3818 3.51075 16.9129C3.99478 16.4591 4.79646 15.8087 5.29562 15.4608C5.79478 15.128 6.62671 14.644 7.15612 14.3717C7.6704 14.1146 8.09393 13.8574 8.09393 13.7818C8.09393 13.7213 7.92754 13.4793 7.73091 13.2221C7.53427 12.965 7.27713 12.5717 7.15612 12.3146C7.01998 12.0574 6.76284 11.4222 6.59646 10.8776C6.35444 10.1667 6.26368 9.51627 6.26368 8.53308C6.26368 7.71628 6.36957 6.83897 6.52082 6.33981C6.65696 5.88603 6.97461 5.09948 7.23175 4.61545C7.50402 4.11629 8.12418 3.29949 8.62334 2.80033C9.1225 2.28605 9.8788 1.68101 10.2872 1.43899C10.7107 1.19697 11.3158 0.894453 11.6485 0.788571C11.9813 0.667563 12.6922 0.486051 13.2368 0.380169C13.8721 0.259161 14.5679 0.244035 15.2031 0.319665ZM11.9511 3.51125C11.5427 3.70789 10.862 4.20705 10.4536 4.61545C10.0452 5.02385 9.51577 5.76503 9.27376 6.26418C9.04687 6.76334 8.80485 7.58015 8.75947 8.0793C8.69897 8.7146 8.74435 9.28938 8.91073 9.97005C9.04687 10.5146 9.37964 11.286 9.66703 11.7095C9.9393 12.1179 10.4536 12.7079 10.8317 13.0104C11.1948 13.3129 11.6637 13.6457 11.8754 13.7516C12.0872 13.8574 12.5561 14.0389 12.9342 14.1448C13.3124 14.2658 13.9931 14.3566 14.4468 14.3566C14.9006 14.3566 15.6267 14.2507 16.0351 14.1146C16.4586 13.9936 17.0939 13.6911 17.472 13.449C17.8502 13.207 18.3342 12.8289 18.546 12.5869C18.7729 12.36 19.1208 11.8759 19.3477 11.5129C19.5594 11.165 19.862 10.4238 19.9981 9.84905C20.2099 8.98686 20.225 8.68434 20.0737 7.80704C19.9678 7.24737 19.7258 6.47595 19.5292 6.06755C19.3326 5.67427 18.8485 5.02385 18.4401 4.63058C18.0317 4.22217 17.3662 3.72302 16.9426 3.52638C16.5342 3.32974 15.8082 3.10285 15.3544 3.01209C14.9006 2.92134 14.4166 2.86083 14.2956 2.87596C14.1746 2.89109 13.7662 2.95159 13.388 3.02722C13.0099 3.10285 12.3746 3.32974 11.9511 3.51125ZM9.183 16.3835C8.54771 16.6406 7.6099 17.0944 7.11074 17.3818C6.62671 17.6692 5.73427 18.3952 5.14436 18.97C4.52419 19.5902 3.87377 20.407 3.60151 20.9364C3.34436 21.4356 3.02672 22.2524 2.89058 22.7515C2.75445 23.2961 2.66369 24.2641 2.66369 25.1717C2.66369 26.0036 2.73932 26.9263 2.84521 27.2137C2.95109 27.5162 3.23848 27.8792 3.55613 28.0759C3.97966 28.3633 4.28218 28.4389 5.11411 28.4238C5.67377 28.4238 7.36788 28.212 8.89561 27.9397C11.2401 27.5313 12.0267 27.4708 14.22 27.4557C16.383 27.4557 17.3208 27.5313 20.1191 27.9549C21.9493 28.2271 23.7947 28.4389 24.2334 28.4086C24.7023 28.3633 25.1712 28.2271 25.4283 28.0456C25.6552 27.8792 25.9275 27.5011 26.0334 27.2137C26.1392 26.9263 26.23 26.0339 26.23 25.2473C26.23 24.3851 26.1392 23.4473 26.0031 22.9028C25.867 22.4036 25.5947 21.6625 25.3981 21.2389C25.1863 20.8305 24.793 20.165 24.5056 19.7717C24.2182 19.3633 23.583 18.7431 23.0989 18.365C22.63 17.9868 21.8283 17.4423 21.3292 17.17C20.83 16.8826 19.983 16.4894 19.4384 16.2776L18.4552 15.8994C17.1695 16.444 16.2468 16.6709 15.5813 16.7768C14.6586 16.9129 14.099 16.9129 13.2368 16.7768C12.6166 16.6709 11.709 16.444 11.225 16.2473L10.3628 15.8994L9.183 16.3835ZM63.0618 0.455799C63.7274 0.455799 64.6803 0.561681 65.1795 0.697815C65.6786 0.818824 66.4954 1.13647 66.9946 1.40874C67.4937 1.66588 68.3408 2.33142 68.8853 2.87596C69.4299 3.4205 70.0954 4.26755 70.3526 4.76671C70.6097 5.26587 70.9425 6.03729 71.0786 6.5062C71.2147 6.95998 71.3206 7.88267 71.3357 8.54821C71.3357 9.21375 71.2601 10.0608 71.1694 10.439C71.0786 10.802 70.8517 11.4524 70.6702 11.8759C70.4887 12.2843 70.1559 12.9196 69.9139 13.2675C69.687 13.6154 69.4904 13.9482 69.4904 13.9936C69.4904 14.0238 69.929 14.281 70.4433 14.5381C70.9576 14.7952 71.8349 15.2944 72.3643 15.6574C72.9088 16.0053 73.7408 16.7011 74.2248 17.1852C74.7088 17.6692 75.3139 18.3801 75.571 18.7583C75.8282 19.1213 76.2214 19.8473 76.4635 20.3465C76.6903 20.8457 77.0231 21.8288 77.2046 22.5398C77.4164 23.3868 77.5223 24.2793 77.5071 25.1868C77.5071 25.928 77.4164 26.9112 77.3105 27.3801C77.1895 27.8339 76.9777 28.4692 76.8265 28.8019C76.6601 29.1196 76.2214 29.649 75.8433 29.9818C75.4651 30.3145 74.845 30.6624 74.4063 30.7834C73.9979 30.9044 73.0904 31.0103 72.4097 31.0103C71.729 31.0103 69.9895 30.8439 68.5526 30.6322C67.1156 30.4355 65.2551 30.2238 64.4232 30.1633C63.5912 30.1179 62.1089 30.1481 61.0954 30.2389C60.0971 30.3297 58.5694 30.5263 57.6921 30.6624C56.8299 30.7986 55.2266 30.9196 54.1375 30.9196C52.4131 30.9196 52.0955 30.8893 51.4148 30.5717C51.0064 30.3902 50.4467 30.012 50.1745 29.7549C49.9022 29.4826 49.5543 28.9532 49.3879 28.5902C49.2215 28.212 49.0098 27.3952 48.919 26.775C48.8131 26.0792 48.7829 25.1566 48.8434 24.4305C48.9039 23.765 49.04 22.8423 49.1459 22.3885C49.2518 21.9196 49.4938 21.1784 49.6753 20.7246C49.8719 20.2557 50.2501 19.5146 50.5526 19.0608C50.8551 18.5919 51.5056 17.7902 52.0047 17.2608C52.519 16.7314 53.3812 16.0205 53.9106 15.6574C54.4551 15.3095 55.3324 14.7952 55.8467 14.5381C56.361 14.281 56.7997 14.0389 56.7997 14.0238C56.7997 14.0087 56.5576 13.5852 56.2551 13.086C55.9677 12.5869 55.5744 11.8003 55.4081 11.3465C55.1812 10.7566 55.0602 10.0457 55.0148 9.00199C54.9543 7.85241 54.9997 7.2625 55.1963 6.58183C55.3476 6.08267 55.6652 5.26587 55.9375 4.76671C56.1946 4.26755 56.8602 3.4205 57.4047 2.87596C57.9492 2.33142 58.766 1.68101 59.2198 1.43899C59.6736 1.19697 60.445 0.879327 60.9442 0.728067C61.4585 0.591933 62.3963 0.470925 63.0618 0.455799ZM60.6417 3.5415C60.2333 3.73814 59.5526 4.22217 59.1593 4.63058C58.7509 5.03898 58.2518 5.6894 58.0551 6.08267C57.8585 6.47595 57.6165 7.2625 57.5257 7.82216C57.3744 8.68434 57.3744 9.00199 57.6013 9.86417C57.7375 10.4238 58.0249 11.1801 58.2518 11.528C58.4635 11.8759 58.8265 12.36 59.0383 12.602C59.2652 12.8289 59.7492 13.2221 60.1122 13.4642C60.4904 13.7062 61.1408 14.0087 61.5492 14.1297C61.9727 14.2507 62.6837 14.3566 63.1374 14.3566C63.6064 14.3566 64.287 14.2658 64.65 14.16C65.0282 14.0389 65.5122 13.8726 65.7089 13.7667C65.9206 13.6608 66.3895 13.328 66.7677 13.0255C67.1307 12.723 67.6601 12.1331 67.9324 11.7247C68.2047 11.3011 68.5374 10.5146 68.6736 9.98518C68.8551 9.30451 68.9005 8.7146 68.8248 8.09443C68.7794 7.59527 68.5374 6.77847 68.3105 6.27931C68.0837 5.78015 67.5542 5.02385 67.1458 4.61545C66.7374 4.20705 66.0568 3.72302 65.6332 3.52638C65.2248 3.32974 64.5139 3.10285 64.045 3.02722C63.5912 2.93646 63.1223 2.87596 62.9862 2.89109C62.8652 2.89109 62.4568 2.96672 62.0786 3.04235C61.7156 3.10285 61.0652 3.32974 60.6417 3.5415ZM55.8013 17.412C55.2266 17.7599 54.3039 18.5011 53.7593 19.0457C53.2299 19.5902 52.5946 20.3767 52.3829 20.8003C52.156 21.2087 51.8383 22.0557 51.6568 22.691C51.4299 23.4927 51.3543 24.2339 51.3543 25.2624C51.3694 26.049 51.4602 26.9263 51.5661 27.2288C51.6719 27.5162 51.9442 27.8944 52.1711 28.0608C52.519 28.3028 52.7913 28.3481 53.9711 28.333C54.7274 28.3179 56.5123 28.1213 57.919 27.8944C60.0064 27.5465 60.9744 27.4708 62.9862 27.4708C65.0433 27.4708 66.0719 27.5465 68.8097 27.97C70.6399 28.2423 72.5004 28.4389 72.924 28.4086C73.408 28.3784 73.8618 28.2423 74.1341 28.0456C74.3761 27.8641 74.6483 27.4557 74.7693 27.1381C74.9055 26.7297 74.9509 26.0036 74.9055 24.8843C74.8601 23.5532 74.7693 22.9784 74.4366 22.086C74.2248 21.4507 73.8164 20.6339 73.5593 20.2709C73.3021 19.8927 72.9088 19.3936 72.682 19.1515C72.4702 18.9095 71.9559 18.4709 71.5324 18.1532C71.124 17.8507 70.4433 17.412 70.0198 17.17C69.6114 16.928 68.7946 16.5499 68.2047 16.323L67.1458 15.9146C65.8601 16.444 64.9374 16.686 64.2719 16.7768C63.3492 16.9129 62.8047 16.9129 61.9274 16.7768C61.3072 16.686 60.566 16.5045 60.2635 16.3835C59.9761 16.2473 59.598 16.0961 59.4165 16.0356C59.1896 15.9448 58.766 16.0356 57.9795 16.3532C57.3593 16.5952 56.3913 17.0641 55.8013 17.412ZM39.3896 42.3094C39.9342 42.3548 40.7812 42.5061 41.2804 42.6573C41.7795 42.8086 42.6266 43.2321 43.1711 43.58C43.7005 43.9431 44.5022 44.654 44.956 45.1531C45.3947 45.6523 45.9392 46.3935 46.1358 46.817C46.3476 47.2254 46.6047 47.9363 46.7257 48.4052C46.8619 48.859 46.9526 49.8119 46.9526 50.5229C46.9526 51.3548 46.8467 52.1413 46.6652 52.7918C46.4988 53.3212 46.0904 54.2287 45.7577 54.7884C45.4249 55.3481 45.1678 55.8321 45.1829 55.8623C45.198 55.8926 45.5913 56.1195 46.0451 56.3464C46.514 56.5733 47.3308 57.0422 47.8602 57.3901C48.4047 57.738 49.2669 58.4338 49.7661 58.9178C50.2652 59.417 50.9005 60.1581 51.1879 60.5817C51.4753 60.9901 51.8988 61.7615 52.1257 62.2758C52.3677 62.7901 52.6551 63.6522 52.7761 64.1665C52.8971 64.6808 53.0484 65.664 53.0938 66.3295C53.1543 67.0253 53.124 68.0085 53.0182 68.6741C52.9274 69.2942 52.6703 70.1715 52.4434 70.6404C52.1711 71.1699 51.7929 71.6388 51.3392 71.9715C50.9761 72.2438 50.3257 72.5766 49.9022 72.6976C49.4938 72.8186 48.7375 72.9093 48.2383 72.9245C47.7392 72.9245 46.0451 72.7278 44.4568 72.5009C42.1123 72.153 41.0837 72.0774 38.7846 72.0774C36.6216 72.0774 35.472 72.153 33.6417 72.4404C32.356 72.6371 30.6165 72.8035 29.7846 72.8186C28.9376 72.8186 27.9846 72.743 27.5913 72.622C27.2283 72.5161 26.6384 72.2438 26.3056 72.0169C25.9275 71.7598 25.5342 71.2757 25.2317 70.701C24.9292 70.1413 24.672 69.385 24.5661 68.6741C24.4603 67.9934 24.43 67.0405 24.4905 66.3295C24.5359 65.664 24.6872 64.6808 24.8082 64.1665C24.9292 63.6522 25.2166 62.7901 25.4435 62.2758C25.6855 61.7615 26.109 60.9901 26.3964 60.5817C26.6838 60.1581 27.3191 59.417 27.8182 58.9178C28.3174 58.4338 29.1796 57.738 29.709 57.3901C30.2535 57.0422 31.0703 56.5733 31.5241 56.3464C31.993 56.1195 32.3863 55.8926 32.4014 55.8623C32.4165 55.8321 32.1594 55.3481 31.8266 54.7884C31.4939 54.2287 31.0855 53.3212 30.9191 52.7918C30.7376 52.1413 30.6317 51.3548 30.6317 50.5229C30.6317 49.8119 30.7224 48.859 30.8434 48.4052C30.9796 47.9363 31.2367 47.2254 31.4485 46.817C31.6602 46.3935 32.1443 45.6825 32.5527 45.2288C32.9459 44.775 33.672 44.1094 34.1712 43.7464C34.6703 43.3834 35.4569 42.9447 35.9106 42.7784C36.3796 42.612 37.1207 42.4153 37.5745 42.3548C38.0434 42.2792 38.8602 42.2641 39.3896 42.3094ZM35.3812 45.9397C34.9728 46.2573 34.3829 46.8926 34.0804 47.3464C33.7628 47.8002 33.3997 48.617 33.2636 49.1615C33.0821 49.8422 33.0367 50.417 33.0972 51.0523C33.1577 51.5514 33.3846 52.3682 33.6266 52.8674C33.8535 53.3666 34.3829 54.1077 34.7913 54.5161C35.1997 54.9245 35.8804 55.4086 36.2888 55.6052C36.7123 55.8018 37.4232 56.0287 37.877 56.1195C38.4821 56.2254 38.9812 56.2254 39.6165 56.1195C40.1157 56.0287 40.872 55.8018 41.2804 55.6052C41.7039 55.4086 42.3846 54.9245 42.793 54.5161C43.2014 54.1077 43.7308 53.3666 43.9577 52.8674C44.1846 52.3682 44.4266 51.5514 44.472 51.0523C44.5476 50.417 44.5022 49.8422 44.3207 49.1615C44.1846 48.617 43.8215 47.8002 43.5039 47.3464C43.2014 46.8926 42.6115 46.2573 42.1879 45.9397C41.7795 45.622 40.993 45.2288 40.4484 45.0624C39.919 44.896 39.1325 44.7599 38.709 44.775C38.3006 44.775 37.5443 44.9111 37.0451 45.0775C36.5459 45.2439 35.8048 45.622 35.3812 45.9397ZM31.8266 59.1447C31.2065 59.4775 30.3897 60.1279 29.5577 60.9447C28.6804 61.8069 28.1359 62.5178 27.8636 63.0774C27.6518 63.5312 27.3645 64.3178 27.2434 64.8169C27.0922 65.3464 27.0014 66.3295 27.0014 67.2371C27.0014 68.4169 27.0619 68.8858 27.304 69.385C27.5308 69.8993 27.7124 70.0657 28.1661 70.2018C28.5292 70.3077 29.2703 70.3379 30.1628 70.2925C30.9644 70.232 32.6888 70.0203 34.0199 69.8085C35.8199 69.5211 37.0148 69.4304 38.6333 69.4304C40.2821 69.4304 41.598 69.5363 43.9274 69.8841C45.6367 70.1262 47.5274 70.3379 48.1325 70.3379C48.7375 70.3379 49.3879 70.2623 49.5694 70.1715C49.7509 70.0959 50.0383 69.8085 50.2047 69.5362C50.4467 69.143 50.5224 68.7043 50.5677 67.464C50.598 66.2993 50.5526 65.6035 50.3711 64.8926C50.2198 64.348 49.9022 63.501 49.6299 63.0018C49.3728 62.5027 48.7829 61.701 48.314 61.2018C47.8602 60.7178 46.9829 59.9766 46.3476 59.5682C45.7274 59.1598 44.714 58.6153 44.0787 58.3581L42.9442 57.8892C40.6602 58.7212 40.3426 58.7514 38.709 58.7514C37.1056 58.7514 36.7728 58.6909 35.835 58.3279C35.2602 58.101 34.7157 57.9346 34.6249 57.9346C34.5493 57.9497 34.1107 58.101 33.6417 58.2976C33.188 58.4791 32.3712 58.8573 31.8266 59.1447ZM38.6787 1.68101C39.6619 1.66588 41.114 1.72638 41.9308 1.81714C42.7476 1.9079 44.0787 2.11966 44.9106 2.28605C45.7425 2.46756 47.1795 2.84571 48.0871 3.1331C49.0098 3.4205 50.5224 4.02554 53.1543 5.29612L52.882 5.78015C52.7308 6.05242 52.4282 6.55158 51.8686 7.53477L50.5829 6.88435C49.8871 6.53645 48.8283 6.05242 48.2383 5.84066C47.6635 5.61377 46.4081 5.23562 45.44 5.00873C44.4871 4.76671 43.0199 4.47932 42.1879 4.37343C41.2047 4.25243 39.677 4.22217 37.8014 4.26755C35.6838 4.32806 34.5342 4.44906 33.4149 4.67595C32.5829 4.85747 31.267 5.22049 30.4653 5.46251C29.6787 5.71965 28.3174 6.26418 27.4401 6.68771C26.5779 7.11124 25.8216 7.44401 25.7762 7.44401C25.746 7.42889 25.4586 6.94485 24.5661 5.29612L26.2754 4.47932C27.2132 4.02554 28.6502 3.43562 29.4821 3.17848C30.314 2.90621 31.5392 2.57344 32.2048 2.42218C32.8703 2.27092 34.0048 2.07428 34.7006 1.9684C35.4115 1.87764 36.198 1.78689 36.4401 1.75664C36.6972 1.72638 37.6955 1.69613 38.6787 1.68101ZM32.5829 27.8339H35.0031V30.4053H32.5829V27.8339ZM37.5745 27.8339H39.9947V30.4053H37.5745V27.8339ZM42.5661 27.8339H44.9862V30.4053H42.5661V27.8339ZM11.2704 33.128C11.3309 33.249 11.4065 33.8691 11.467 34.5196C11.5275 35.17 11.6788 36.2137 11.7998 36.8641C11.9359 37.5145 12.1931 38.5885 12.3897 39.254C12.5712 39.9195 13.025 41.175 13.3729 42.0523C13.7208 42.9145 14.3561 44.2456 14.7645 45.0019C15.188 45.743 15.8989 46.8624 16.3376 47.4977C16.7763 48.1178 17.6384 49.2069 18.2435 49.9178C18.8636 50.6136 19.9678 51.7027 20.6939 52.338C21.4199 52.9582 22.6149 53.8657 23.3409 54.3497C24.0519 54.8338 25.1107 55.4691 25.6703 55.7867C26.2451 56.0892 26.6989 56.3918 26.6989 56.4523C26.6989 56.5128 26.4871 57.027 26.23 57.5867C25.9729 58.1464 25.7308 58.6304 25.7006 58.6455C25.6552 58.6607 25.2468 58.4791 24.7628 58.2523C24.2788 58.0102 23.2804 57.4052 22.5241 56.906C21.783 56.422 20.7241 55.6506 20.1796 55.2271C19.6502 54.7884 18.5914 53.8506 17.8502 53.1245C17.109 52.3985 16.1258 51.3245 15.6418 50.7498C15.1729 50.1598 14.3258 49.0103 13.7662 48.1783C13.2065 47.3464 12.3897 45.9094 11.9359 45.0019C11.4973 44.0792 10.9074 42.7481 10.6502 42.0523C10.3931 41.3414 9.98468 39.98 9.72754 39.0271C9.48552 38.059 9.183 36.5162 9.06199 35.5784C8.94099 34.6406 8.8351 33.6725 8.8351 32.9767L10.0149 32.9313C10.9376 32.9011 11.2099 32.9465 11.2704 33.128ZM66.3139 32.9011L67.524 32.9313C68.7341 32.9767 68.7341 32.9767 68.7341 33.3851C68.7341 33.612 68.6736 34.3834 68.5828 35.0943C68.4921 35.7901 68.2954 36.9851 68.1442 37.7414C67.9929 38.4826 67.6147 39.8742 67.2971 40.8422C66.9946 41.7952 66.329 43.459 65.8148 44.5481C65.2853 45.622 64.4685 47.1195 63.9845 47.8758C63.5005 48.617 62.7896 49.6304 62.4114 50.1296C62.0181 50.6287 61.0954 51.6876 60.3391 52.459C59.598 53.2455 58.3425 54.4102 57.5408 55.0455C56.7543 55.6808 55.4837 56.5884 54.7123 57.0573C53.9408 57.5413 53.2602 57.9195 53.1997 57.9195C53.1392 57.9195 52.8215 57.4354 52.5039 56.8304C51.9593 55.817 51.9291 55.7262 52.1862 55.5901C52.3224 55.4993 53.0635 55.0304 53.8198 54.5464C54.5761 54.0472 55.6803 53.2607 56.2551 52.7918C56.845 52.3077 57.9644 51.2489 58.7509 50.417C59.5526 49.5851 60.6568 48.254 61.2164 47.4825C61.7761 46.696 62.6383 45.2741 63.1223 44.3212C63.6215 43.3531 64.2719 41.9616 64.5593 41.2204C64.8316 40.4641 65.24 39.1784 65.4517 38.3464C65.6635 37.5145 65.9206 36.1532 66.0114 35.3212C66.1173 34.4893 66.2232 33.5969 66.2534 33.3549L66.3139 32.9011Z" fill="white"/>
</svg>
