<svg width="140" height="125" viewBox="0 0 140 125" fill="none" xmlns="http://www.w3.org/2000/svg">
<path fill-rule="evenodd" clip-rule="evenodd" d="M139.569 65.6636C134.05 99.036 105.057 124.487 70.1204 124.487C35.1837 124.487 6.19124 99.036 0.671875 65.6636H6.82584C12.2765 95.6706 38.5415 118.424 70.1209 118.424C101.7 118.424 127.965 95.6706 133.416 65.6636H139.569Z" fill="#0E52A7"/>
<circle cx="70.1201" cy="55.0625" r="53.8669" stroke="#0E52A7" stroke-width="1.35594" stroke-dasharray="4.95 4.95"/>
<path d="M95.7924 63.6786L95.7601 63.5978L89.0643 45.241C89.7421 45.0065 90.3317 44.57 90.7539 43.9903C91.1761 43.4105 91.4105 42.7153 91.4256 41.9983C91.4337 41.4322 90.9889 40.9632 90.4067 40.9551C89.8568 40.9551 89.3959 41.4079 89.3878 41.9578C89.3716 42.7584 88.7489 43.373 87.9079 43.3973C87.4308 43.3973 86.978 43.1547 86.6949 42.7422C86.5332 42.5077 86.2744 42.346 85.9914 42.3056L72.9395 40.5265C72.8101 40.1788 72.6241 39.8634 72.3815 39.6046C72.333 39.548 72.2764 39.5076 72.2198 39.4591V36.9037L73.1336 35.6098C73.2872 35.3915 73.3196 35.1084 73.2225 34.8577L71.0876 29.6742C71.0268 29.5295 70.9244 29.4062 70.7934 29.3198C70.6624 29.2335 70.5087 29.1879 70.3518 29.189C70.0283 29.189 69.7453 29.375 69.632 29.6742L67.5053 34.8577C67.4001 35.1084 67.4325 35.3915 67.5942 35.6098L68.508 36.9037V39.451C68.4514 39.4995 68.3948 39.548 68.3463 39.5965C68.2654 39.6774 68.2007 39.7744 68.136 39.8634L54.5342 38.0035C54.4857 37.9954 54.4372 37.9954 54.3887 37.9954C54.041 37.9954 53.7175 38.1733 53.5315 38.4644C53.2727 38.8687 52.828 39.1113 52.3428 39.1113C51.5745 39.1113 50.9357 38.5048 50.8791 37.7366C50.8386 37.2029 50.3939 36.7905 49.7874 36.7905H49.7793C49.2132 36.8309 48.7927 37.3242 48.8331 37.8822C48.8847 38.5708 49.1365 39.2293 49.5575 39.7767C49.9784 40.3241 50.5502 40.7365 51.2025 40.9632L44.4582 59.4089L44.4421 59.4493C44.4259 59.4897 44.4178 59.5221 44.4097 59.5625C44.4016 59.611 44.3936 59.6676 44.3936 59.7162C44.3936 63.5735 47.9598 66.7111 52.3347 66.7111C56.7096 66.7111 60.2758 63.5735 60.2758 59.7162C60.2758 59.6191 60.2596 59.5302 60.2111 59.4412L60.1706 59.3361L53.4749 40.9551C53.9763 40.7772 54.4453 40.5022 54.8254 40.1141L67.6266 41.8608C67.6993 42.3864 67.9096 42.8635 68.2411 43.2436C68.3382 43.3568 68.4433 43.4539 68.5484 43.5509L67.6346 75.3315L67.5053 75.3477C65.4593 75.6469 60.6073 76.7143 59.8391 80.1674C59.7987 80.3534 59.8472 80.5474 59.9685 80.693C60.0898 80.8466 60.2677 80.9356 60.4618 80.9356H80.2418C80.4277 80.9356 80.6137 80.8466 80.735 80.693C80.8563 80.5474 80.8968 80.3614 80.8483 80.1674C80.08 76.7386 75.2361 75.655 73.1821 75.3477L73.0527 75.3315L72.1389 43.5509C72.2521 43.4539 72.3573 43.3568 72.4462 43.2436C72.616 43.0415 72.7454 42.815 72.8586 42.5724L85.2798 44.2625C85.676 44.7073 86.1774 45.0389 86.7434 45.241L80.0477 63.6139L80.0153 63.6948C79.9749 63.7838 79.9587 63.8646 79.9587 63.9617C79.9587 67.819 83.5249 70.9486 87.8998 70.9486C92.2747 70.9486 95.8409 67.819 95.8409 63.9617C95.8571 63.8565 95.8409 63.7676 95.7924 63.6786ZM58.3673 58.9318H46.3101L52.3428 42.4269L58.3673 58.9318ZM81.8834 63.1773L87.9079 46.6643L93.9325 63.1773H81.8834Z" fill="#0E52A7"/>
</svg>
