<svg width="140" height="125" viewBox="0 0 140 125" fill="none" xmlns="http://www.w3.org/2000/svg">
<g id="Group 2973">
<g id="Group 2972">
<path id="Vector" d="M70.1195 38.7892C73.3423 38.7892 75.9549 36.071 75.9549 32.7179C75.9549 29.3647 73.3423 26.6465 70.1195 26.6465C66.8968 26.6465 64.2842 29.3647 64.2842 32.7179C64.2842 36.071 66.8968 38.7892 70.1195 38.7892Z" fill="#0E52A7"/>
<path id="Vector_2" d="M65.4853 75.2171H66.0685C66.4858 75.2187 66.8885 75.0574 67.1972 74.7652C67.5058 74.473 67.698 74.071 67.7358 73.6386L69.103 58.3731H71.1375L72.5047 73.6386C72.5424 74.0709 72.7345 74.4728 73.0431 74.7651C73.3517 75.0573 73.7543 75.2186 74.1715 75.2171H74.7551C75.1969 75.2158 75.6202 75.0326 75.9326 74.7076C76.245 74.3825 76.4211 73.9421 76.4224 73.4824V58.3731H79.4237C79.8654 58.3718 80.2887 58.1887 80.6011 57.8637C80.9135 57.5388 81.0896 57.0985 81.091 56.6389V47.5663C81.0926 46.928 80.9729 46.2957 80.7388 45.7056C80.5047 45.1156 80.1609 44.5795 79.727 44.1282C79.2932 43.6769 78.7779 43.3192 78.2108 43.0757C77.6437 42.8323 77.0359 42.7078 76.4224 42.7095H63.818C63.2045 42.7078 62.5967 42.8323 62.0296 43.0758C61.4625 43.3192 60.9472 43.6769 60.5134 44.1282C60.0796 44.5796 59.7357 45.1156 59.5017 45.7057C59.2676 46.2957 59.1479 46.928 59.1494 47.5663V56.639C59.1508 57.0986 59.327 57.5389 59.6394 57.8638C59.9518 58.1888 60.375 58.3719 60.8167 58.3732H63.818V73.4824C63.8192 73.9421 63.9953 74.3826 64.3077 74.7076C64.6201 75.0327 65.0435 75.2159 65.4853 75.2171Z" fill="#0E52A7"/>
<path id="Vector_3" d="M70.1198 83.3129C81.5531 83.3129 93.7044 79.5005 93.7044 72.435C93.7044 68.3578 89.5358 64.9248 82.2663 63.0157C82.0183 62.9497 81.7603 62.9354 81.5069 62.9734C81.2536 63.0114 81.0099 63.1011 80.7899 63.2373C80.57 63.3734 80.378 63.5535 80.225 63.767C80.072 63.9805 79.961 64.2233 79.8984 64.4816C79.8358 64.7398 79.8228 65.0084 79.8601 65.2718C79.8975 65.5353 79.9844 65.7885 80.116 66.017C80.2475 66.2455 80.4211 66.4446 80.6268 66.6032C80.8325 66.7617 81.0663 66.8764 81.3147 66.9407C87.1539 68.4744 89.8141 70.8638 89.8141 72.435C89.8141 75.2197 82.1419 79.2653 70.1198 79.2653C58.0976 79.2653 50.4254 75.2197 50.4254 72.435C50.4254 70.8401 53.1398 68.425 59.0996 66.8953C59.6004 66.7666 60.0315 66.4362 60.2982 65.9768C60.5648 65.5174 60.6451 64.9666 60.5214 64.4456C60.3978 63.9246 60.0802 63.476 59.6387 63.1986C59.1971 62.9212 58.6678 62.8376 58.167 62.9663C50.775 64.8636 46.5352 68.3143 46.5352 72.435C46.5352 79.5005 58.6865 83.3129 70.1198 83.3129Z" fill="#0E52A7"/>
</g>
<path id="Intersect" fill-rule="evenodd" clip-rule="evenodd" d="M139.569 65.5811C134.05 98.9535 105.057 124.404 70.1204 124.404C35.1837 124.404 6.19124 98.9535 0.671875 65.5811H6.82586C12.2766 95.588 38.5415 118.341 70.1209 118.341C101.7 118.341 127.965 95.588 133.416 65.5811H139.569Z" fill="#0E52A7"/>
<g id="Group 2865">
<circle id="Ellipse 57" cx="70.1201" cy="54.98" r="53.8669" stroke="#0E52A7" stroke-width="1.35594" stroke-dasharray="4.95 4.95"/>
</g>
</g>
</svg>
