<svg width="61" height="60" viewBox="0 0 61 60" fill="none" xmlns="http://www.w3.org/2000/svg">
<path id="Vector" d="M26.115 5.72171H35.4388C35.6861 5.72171 35.9232 5.62348 36.0981 5.44863C36.2729 5.27377 36.3711 5.03662 36.3711 4.78933C36.3711 4.54205 36.2729 4.3049 36.0981 4.13004C35.9232 3.95519 35.6861 3.85696 35.4388 3.85696H26.115C25.8677 3.85696 25.6305 3.95519 25.4557 4.13004C25.2808 4.3049 25.1826 4.54205 25.1826 4.78933C25.1826 5.03662 25.2808 5.27377 25.4557 5.44863C25.6305 5.62348 25.8677 5.72171 26.115 5.72171ZM5.60265 11.316H14.9264C15.1737 11.316 15.4109 11.2178 15.5857 11.0429C15.7606 10.868 15.8588 10.6309 15.8588 10.3836C15.8588 10.1363 15.7606 9.89917 15.5857 9.72432C15.4109 9.54946 15.1737 9.45123 14.9264 9.45123H5.60265C5.35537 9.45123 5.11821 9.54946 4.94336 9.72432C4.7685 9.89917 4.67027 10.1363 4.67027 10.3836C4.67027 10.6309 4.7685 10.868 4.94336 11.0429C5.11821 11.2178 5.35537 11.316 5.60265 11.316ZM24.2502 13.1807H26.7136C26.8724 13.1808 27.0285 13.2215 27.1672 13.2988C27.3059 13.3761 27.4226 13.4876 27.5061 13.6227L28.3974 15.0623C28.6481 15.4679 28.9983 15.8027 29.4147 16.0349C29.8312 16.2671 30.3001 16.3889 30.7769 16.3889C31.2537 16.3889 31.7226 16.2671 32.139 16.0349C32.5555 15.8027 32.9056 15.4679 33.1563 15.0623L34.0477 13.6227C34.1312 13.4876 34.2478 13.3761 34.3865 13.2988C34.5252 13.2215 34.6814 13.1808 34.8402 13.1807H37.3035C38.0454 13.1807 38.7568 12.886 39.2814 12.3615C39.806 11.8369 40.1007 11.1255 40.1007 10.3836V2.92458C40.1007 2.18273 39.806 1.47127 39.2814 0.946704C38.7568 0.422139 38.0454 0.127441 37.3035 0.127441L24.2502 0.127441C23.5084 0.127441 22.7969 0.422139 22.2723 0.946704C21.7478 1.47127 21.4531 2.18273 21.4531 2.92458V10.3836C21.4531 11.1255 21.7478 11.8369 22.2723 12.3615C22.7969 12.886 23.5084 13.1807 24.2502 13.1807ZM23.3178 2.92458C23.3178 2.67729 23.4161 2.44014 23.5909 2.26529C23.7658 2.09043 24.0029 1.9922 24.2502 1.9922H37.3035C37.5508 1.9922 37.788 2.09043 37.9628 2.26529C38.1377 2.44014 38.2359 2.67729 38.2359 2.92458V10.3836C38.2359 10.6309 38.1377 10.868 37.9628 11.0429C37.788 11.2178 37.5508 11.316 37.3035 11.316H34.8402C34.3631 11.3141 33.8936 11.4351 33.4768 11.6673C33.0601 11.8995 32.7102 12.2351 32.4607 12.6418L31.5694 14.0814C31.4859 14.2168 31.3691 14.3285 31.2302 14.406C31.0914 14.4835 30.935 14.5241 30.7759 14.5241C30.6169 14.5241 30.4605 14.4835 30.3216 14.406C30.1828 14.3285 30.066 14.2168 29.9825 14.0814L29.0986 12.6418C28.8487 12.2343 28.4979 11.8982 28.0801 11.6659C27.6622 11.4337 27.1916 11.3131 26.7136 11.316H24.2502C24.0029 11.316 23.7658 11.2178 23.5909 11.0429C23.4161 10.868 23.3178 10.6309 23.3178 10.3836V2.92458ZM26.115 9.45123H35.4388C35.6861 9.45123 35.9232 9.353 36.0981 9.17814C36.2729 9.00329 36.3711 8.76613 36.3711 8.51885C36.3711 8.27157 36.2729 8.03441 36.0981 7.85956C35.9232 7.6847 35.6861 7.58647 35.4388 7.58647H26.115C25.8677 7.58647 25.6305 7.6847 25.4557 7.85956C25.2808 8.03441 25.1826 8.27157 25.1826 8.51885C25.1826 8.76613 25.2808 9.00329 25.4557 9.17814C25.6305 9.353 25.8677 9.45123 26.115 9.45123ZM5.60265 15.0455H14.9264C15.1737 15.0455 15.4109 14.9473 15.5857 14.7724C15.7606 14.5976 15.8588 14.3604 15.8588 14.1131C15.8588 13.8658 15.7606 13.6287 15.5857 13.4538C15.4109 13.279 15.1737 13.1807 14.9264 13.1807H5.60265C5.35537 13.1807 5.11821 13.279 4.94336 13.4538C4.7685 13.6287 4.67027 13.8658 4.67027 14.1131C4.67027 14.3604 4.7685 14.5976 4.94336 14.7724C5.11821 14.9473 5.35537 15.0455 5.60265 15.0455ZM55.9511 9.45123H46.6273C46.38 9.45123 46.1429 9.54946 45.968 9.72432C45.7932 9.89917 45.6949 10.1363 45.6949 10.3836C45.6949 10.6309 45.7932 10.868 45.968 11.0429C46.1429 11.2178 46.38 11.316 46.6273 11.316H55.9511C56.1984 11.316 56.4355 11.2178 56.6104 11.0429C56.7852 10.868 56.8835 10.6309 56.8835 10.3836C56.8835 10.1363 56.7852 9.89917 56.6104 9.72432C56.4355 9.54946 56.1984 9.45123 55.9511 9.45123ZM57.8159 5.72171H44.7626C44.0207 5.72171 43.3092 6.01641 42.7847 6.54098C42.2601 7.06554 41.9654 7.777 41.9654 8.51885V15.9779C41.9654 16.7197 42.2601 17.4312 42.7847 17.9558C43.3092 18.4803 44.0207 18.775 44.7626 18.775H47.2259C47.3847 18.7751 47.5409 18.8157 47.6796 18.8931C47.8182 18.9704 47.9349 19.0819 48.0184 19.217L48.9098 20.6566C49.1604 21.0622 49.5106 21.3969 49.9271 21.6291C50.3435 21.8613 50.8124 21.9832 51.2892 21.9832C51.766 21.9832 52.2349 21.8613 52.6513 21.6291C53.0678 21.3969 53.418 21.0622 53.6686 20.6566L54.56 19.217C54.6435 19.0819 54.7602 18.9704 54.8989 18.8931C55.0376 18.8157 55.1937 18.7751 55.3525 18.775H57.8159C58.5577 18.775 59.2692 18.4803 59.7937 17.9558C60.3183 17.4312 60.613 16.7197 60.613 15.9779V8.51885C60.613 7.777 60.3183 7.06554 59.7937 6.54098C59.2692 6.01641 58.5577 5.72171 57.8159 5.72171ZM58.7482 15.9779C58.7482 16.2252 58.65 16.4623 58.4751 16.6372C58.3003 16.812 58.0631 16.9103 57.8159 16.9103H55.3525C54.8754 16.9084 54.4059 17.0294 53.9892 17.2616C53.5724 17.4938 53.2225 17.8294 52.9731 18.2361L52.0817 19.6757C51.9982 19.811 51.8815 19.9228 51.7426 20.0002C51.6037 20.0777 51.4473 20.1184 51.2883 20.1184C51.1292 20.1184 50.9728 20.0777 50.834 20.0002C50.6951 19.9228 50.5783 19.811 50.4948 19.6757L49.6109 18.2361C49.361 17.8286 49.0102 17.4925 48.5924 17.2602C48.1746 17.028 47.7039 16.9074 47.2259 16.9103H44.7626C44.5153 16.9103 44.2781 16.812 44.1033 16.6372C43.9284 16.4623 43.8302 16.2252 43.8302 15.9779V8.51885C43.8302 8.27157 43.9284 8.03441 44.1033 7.85956C44.2781 7.6847 44.5153 7.58647 44.7626 7.58647H57.8159C58.0631 7.58647 58.3003 7.6847 58.4751 7.85956C58.65 8.03441 58.7482 8.27157 58.7482 8.51885V15.9779ZM59.8671 34.9984L59.8801 34.976C60.3541 33.9939 60.6044 32.9188 60.613 31.8283C60.619 30.1351 60.0475 28.4905 58.9928 27.166C57.9381 25.8414 56.4632 24.9161 54.8117 24.5428C53.1602 24.1695 51.4308 24.3704 49.9089 25.1126C48.387 25.8547 47.1637 27.0935 46.4408 28.6247C46.4278 28.6433 46.4203 28.6657 46.4091 28.6843C45.6044 30.3667 45.4695 32.2922 46.0318 34.0703C46.5942 35.8484 47.8117 37.3462 49.4375 38.2599C49.4314 38.2913 49.4271 38.3231 49.4244 38.355V41.7283C49.1882 41.8571 48.9636 42.0063 48.7531 42.174L43.8302 46.1124V45.814C43.8266 43.2567 42.8689 40.7929 41.1444 38.9046C39.4199 37.0163 37.0528 35.8395 34.5064 35.6044C34.5064 35.5877 34.5064 35.5728 34.5064 35.5578V32.7607C34.5019 32.7287 34.4957 32.6969 34.4877 32.6656C35.8086 31.9122 36.8663 30.7714 37.5178 29.3975C38.1694 28.0235 38.3835 26.4827 38.1311 24.9832C37.8787 23.4837 37.172 22.0978 36.1066 21.0129C35.0411 19.9279 33.6683 19.1963 32.1736 18.9167C32.0346 18.8281 31.874 18.7792 31.7093 18.775H31.2244C31.1739 18.7806 31.124 18.7906 31.0752 18.8048C30.9745 18.8048 30.8794 18.775 30.7769 18.775C29.1353 18.7699 27.5382 19.3082 26.2346 20.306C24.9311 21.3037 23.9944 22.7049 23.5707 24.2909C23.147 25.8768 23.2601 27.5584 23.8924 29.0734C24.5247 30.5883 25.6406 31.8514 27.066 32.6656C27.0581 32.6969 27.0518 32.7287 27.0474 32.7607V35.5578C27.0474 35.5746 27.0474 35.5895 27.0474 35.6044C24.5009 35.8395 22.1339 37.0163 20.4094 38.9046C18.6849 40.7929 17.7271 43.2567 17.7236 45.814V46.1124L12.8006 42.174C12.5902 42.0063 12.3656 41.8571 12.1293 41.7283V38.355C12.1248 38.3229 12.1186 38.2912 12.1107 38.2599C13.7363 37.3465 14.9539 35.8492 15.5166 34.0715C16.0793 32.2938 15.945 30.3686 15.1409 28.6862C15.1278 28.6657 15.1204 28.6433 15.1073 28.6228C14.6926 27.7358 14.1067 26.9394 13.3834 26.2794C12.66 25.6194 11.8134 25.1088 10.8922 24.777C9.97096 24.4451 8.99324 24.2984 8.01518 24.3455C7.03712 24.3925 6.07798 24.6323 5.19284 25.051C4.30771 25.4698 3.514 26.0592 2.85732 26.7856C2.20063 27.5119 1.69389 28.3608 1.36619 29.2836C1.0385 30.2063 0.896306 31.1847 0.94778 32.1625C0.999255 33.1404 1.24338 34.0984 1.66614 34.9816L1.68666 34.9984C2.33377 36.3647 3.38077 37.5021 4.68892 38.2599C4.68097 38.2912 4.67474 38.3229 4.67027 38.355V41.2472C3.61759 41.4621 2.67143 42.034 1.99185 42.8661C1.31226 43.6983 0.940965 44.7396 0.940754 45.814V58.8673C0.940754 59.1146 1.03899 59.3517 1.21384 59.5266C1.3887 59.7014 1.62585 59.7997 1.87313 59.7997H59.6806C59.9279 59.7997 60.1651 59.7014 60.3399 59.5266C60.5148 59.3517 60.613 59.1146 60.613 58.8673V45.814C60.6128 44.7396 60.2415 43.6983 59.5619 42.8661C58.8823 42.034 57.9362 41.4621 56.8835 41.2472V38.355C56.879 38.3229 56.8728 38.2912 56.8648 38.2599C58.173 37.5021 59.22 36.3647 59.8671 34.9984ZM30.7769 20.6398C31.9043 20.6429 33.0045 20.9866 33.9333 21.6258C34.862 22.265 35.5759 23.17 35.9814 24.222L31.2897 22.8887C30.2938 22.608 29.233 22.6643 28.2725 23.049L25.6022 24.1269C26.0208 23.0974 26.7365 22.2159 27.6582 21.5948C28.5798 20.9738 29.6655 20.6413 30.7769 20.6398ZM25.1826 26.234C25.3021 26.2342 25.4204 26.2114 25.5313 26.1669L28.9699 24.7795C29.5452 24.5493 30.1803 24.5152 30.7769 24.6826L36.1119 26.1986C36.1952 26.2166 36.2806 26.2228 36.3656 26.2173V26.234C36.3656 27.7177 35.7762 29.1407 34.727 30.1898C33.6779 31.2389 32.255 31.8283 30.7713 31.8283C29.2876 31.8283 27.8647 31.2389 26.8155 30.1898C25.7664 29.1407 25.177 27.7177 25.177 26.234H25.1826ZM32.6416 33.4283V35.5578C32.6416 36.0524 32.4452 36.5267 32.0955 36.8764C31.7457 37.2261 31.2714 37.4226 30.7769 37.4226C30.2823 37.4226 29.808 37.2261 29.4583 36.8764C29.1086 36.5267 28.9121 36.0524 28.9121 35.5578V33.4283C30.1302 33.7815 31.4235 33.7815 32.6416 33.4283ZM19.5883 45.814C19.596 43.6614 20.4306 41.5942 21.9196 40.0396C23.4085 38.4851 25.4379 37.5622 27.5881 37.4617C27.9147 38.0175 28.3808 38.4783 28.9403 38.7984C29.4998 39.1185 30.1332 39.287 30.7778 39.287C31.4224 39.287 32.0558 39.1185 32.6153 38.7984C33.1748 38.4783 33.6409 38.0175 33.9675 37.4617C36.1174 37.5626 38.1463 38.4858 39.6348 40.0402C41.1234 41.5947 41.9577 43.6618 41.9654 45.814V46.7464H38.2359C37.5799 46.7419 36.9344 46.9119 36.3656 47.2388C35.7968 47.5657 35.325 48.0378 34.9986 48.6069C34.6721 49.1759 34.5027 49.8215 34.5076 50.4776C34.5126 51.1336 34.6917 51.7766 35.0267 52.3406H26.529C26.8603 51.7758 27.0365 51.1334 27.0396 50.4786C27.0427 49.8237 26.8726 49.1797 26.5466 48.6118C26.2206 48.0438 25.7503 47.5722 25.1833 47.2446C24.6162 46.917 23.9727 46.7451 23.3178 46.7464H19.5883V45.814ZM40.1007 48.6111V52.3406H38.2359C37.7413 52.3406 37.267 52.1442 36.9173 51.7945C36.5676 51.4448 36.3711 50.9705 36.3711 50.4759C36.3711 49.9813 36.5676 49.507 36.9173 49.1573C37.267 48.8076 37.7413 48.6111 38.2359 48.6111H40.1007ZM25.1826 50.4759C25.1826 50.9705 24.9861 51.4448 24.6364 51.7945C24.2867 52.1442 23.8124 52.3406 23.3178 52.3406H21.4531V48.6111H23.3178C23.8124 48.6111 24.2867 48.8076 24.6364 49.1573C24.9861 49.507 25.1826 49.9813 25.1826 50.4759ZM2.80551 31.8283C2.80149 30.6517 3.16964 29.504 3.85732 28.5493C4.545 27.5947 5.51697 26.8819 6.63422 26.513C7.75148 26.1441 8.95677 26.138 10.0777 26.4955C11.1987 26.853 12.1778 27.5558 12.8752 28.5035L5.41617 29.9822C5.20557 30.0252 5.01629 30.1396 4.88037 30.3061C4.74445 30.4726 4.67023 30.681 4.67027 30.8959V33.6931H3.14863C2.92773 33.0959 2.81166 32.465 2.80551 31.8283ZM4.26002 35.5578H5.60265C5.84993 35.5578 6.08708 35.4596 6.26194 35.2847C6.43679 35.1099 6.53503 34.8727 6.53503 34.6255V31.6624L13.7349 30.2339C13.899 30.7498 13.9864 31.287 13.9941 31.8283C13.9982 32.9596 13.6579 34.0654 13.0186 34.9987C12.3792 35.932 11.4709 36.6486 10.4145 37.0534C9.35809 37.4581 8.20352 37.5318 7.1042 37.2647C6.00489 36.9976 5.01289 36.4022 4.26002 35.5578ZM10.2645 39.0225V41.1838C10.1396 41.1745 10.0147 41.1521 9.89159 41.1521H6.53503V39.0225C7.14274 39.1902 7.76943 39.2792 8.39978 39.2873C9.03013 39.2792 9.65683 39.1902 10.2645 39.0225ZM10.2645 53.273V57.9349H2.80551V45.814C2.80551 45.0721 3.10021 44.3607 3.62477 43.8361C4.14934 43.3116 4.8608 43.0169 5.60265 43.0169H9.89159C10.5268 43.017 11.143 43.2334 11.6389 43.6304L17.6061 48.4097C17.7726 48.5416 17.9792 48.6127 18.1916 48.6111H19.5883V52.3406H17.1026L9.89159 46.9328C9.79364 46.8594 9.68217 46.8059 9.56356 46.7755C9.44495 46.7452 9.32152 46.7384 9.2003 46.7557C9.07909 46.7731 8.96248 46.8141 8.85712 46.8765C8.75176 46.9388 8.65972 47.0214 8.58626 47.1193C8.51279 47.2173 8.45934 47.3287 8.42895 47.4474C8.39857 47.566 8.39184 47.6894 8.40916 47.8106C8.42647 47.9318 8.46749 48.0484 8.52987 48.1538C8.59226 48.2592 8.67478 48.3512 8.77274 48.4247L13.9941 52.3406H11.1969C10.9496 52.3406 10.7125 52.4389 10.5376 52.6137C10.3628 52.7886 10.2645 53.0257 10.2645 53.273ZM49.4244 57.9349H12.1293V54.2054H49.4244V57.9349ZM58.7482 45.814V57.9349H51.2892V53.273C51.2892 53.0257 51.191 52.7886 51.0161 52.6137C50.8413 52.4389 50.6041 52.3406 50.3568 52.3406H47.5597L52.781 48.4247C52.9788 48.2763 53.1096 48.0554 53.1446 47.8106C53.1796 47.5658 53.1159 47.3172 52.9675 47.1193C52.8191 46.9215 52.5982 46.7907 52.3534 46.7557C52.1086 46.7208 51.86 46.7845 51.6622 46.9328L44.4511 52.3406H41.9654V48.6111H43.3621C43.5741 48.6117 43.78 48.54 43.9458 48.4079L49.913 43.6304C50.4094 43.233 51.0263 43.0166 51.6622 43.0169H55.9511C56.6929 43.0169 57.4044 43.3116 57.929 43.8361C58.4535 44.3607 58.7482 45.0721 58.7482 45.814ZM51.2892 41.1838V39.0225C52.5073 39.3757 53.8006 39.3757 55.0187 39.0225V41.1521H51.6622C51.5391 41.1521 51.4141 41.1745 51.2892 41.1838ZM53.154 37.4226C51.6703 37.4226 50.2473 36.8332 49.1982 35.7841C48.1491 34.7349 47.5597 33.312 47.5597 31.8283C47.5674 31.287 47.6547 30.7498 47.8189 30.2339L55.0187 31.6624V34.6255C55.0187 34.8727 55.117 35.1099 55.2918 35.2847C55.4667 35.4596 55.7038 35.5578 55.9511 35.5578H57.2937C56.7737 36.1424 56.1362 36.6106 55.4228 36.932C54.7095 37.2533 53.9363 37.4205 53.154 37.4226ZM56.8835 33.6931V30.8959C56.8835 30.681 56.8093 30.4726 56.6734 30.3061C56.5375 30.1396 56.3482 30.0252 56.1376 29.9822L48.6785 28.5035C49.4658 27.4118 50.6222 26.6426 51.9333 26.3384C53.2444 26.0342 54.6213 26.2158 55.8088 26.8494C56.9963 27.483 57.9138 28.5256 58.3912 29.784C58.8686 31.0424 58.8736 32.4313 58.4051 33.6931H56.8835ZM3.73789 18.775H6.20124C6.36004 18.7751 6.51619 18.8157 6.65489 18.8931C6.79358 18.9704 6.91023 19.0819 6.99376 19.217L7.88511 20.6566C8.13577 21.0622 8.48595 21.3969 8.9024 21.6291C9.31885 21.8613 9.78774 21.9832 10.2645 21.9832C10.7413 21.9832 11.2102 21.8613 11.6267 21.6291C12.0431 21.3969 12.3933 21.0622 12.644 20.6566L13.5353 19.217C13.6189 19.0819 13.7355 18.9704 13.8742 18.8931C14.0129 18.8157 14.169 18.7751 14.3278 18.775H16.7912C17.533 18.775 18.2445 18.4803 18.7691 17.9558C19.2936 17.4312 19.5883 16.7197 19.5883 15.9779V8.51885C19.5883 7.777 19.2936 7.06554 18.7691 6.54098C18.2445 6.01641 17.533 5.72171 16.7912 5.72171H3.73789C2.99604 5.72171 2.28458 6.01641 1.76002 6.54098C1.23545 7.06554 0.940754 7.777 0.940754 8.51885V15.9779C0.940754 16.7197 1.23545 17.4312 1.76002 17.9558C2.28458 18.4803 2.99604 18.775 3.73789 18.775ZM2.80551 8.51885C2.80551 8.27157 2.90374 8.03441 3.0786 7.85956C3.25345 7.6847 3.49061 7.58647 3.73789 7.58647H16.7912C17.0385 7.58647 17.2756 7.6847 17.4505 7.85956C17.6253 8.03441 17.7236 8.27157 17.7236 8.51885V15.9779C17.7236 16.2252 17.6253 16.4623 17.4505 16.6372C17.2756 16.812 17.0385 16.9103 16.7912 16.9103H14.3278C13.8498 16.9074 13.3792 17.028 12.9614 17.2602C12.5436 17.4925 12.1927 17.8286 11.9428 18.2361L11.0515 19.6757C10.9679 19.811 10.8512 19.9228 10.7123 20.0002C10.5734 20.0777 10.417 20.1184 10.258 20.1184C10.099 20.1184 9.94259 20.0777 9.80371 20.0002C9.66483 19.9228 9.54808 19.811 9.46456 19.6757L8.58626 18.2361C8.33635 17.8286 7.98553 17.4925 7.56772 17.2602C7.14992 17.028 6.67925 16.9074 6.20124 16.9103H3.73789C3.49061 16.9103 3.25345 16.812 3.0786 16.6372C2.90374 16.4623 2.80551 16.2252 2.80551 15.9779V8.51885ZM55.9511 13.1807H46.6273C46.38 13.1807 46.1429 13.279 45.968 13.4538C45.7932 13.6287 45.6949 13.8658 45.6949 14.1131C45.6949 14.3604 45.7932 14.5976 45.968 14.7724C46.1429 14.9473 46.38 15.0455 46.6273 15.0455H55.9511C56.1984 15.0455 56.4355 14.9473 56.6104 14.7724C56.7852 14.5976 56.8835 14.3604 56.8835 14.1131C56.8835 13.8658 56.7852 13.6287 56.6104 13.4538C56.4355 13.279 56.1984 13.1807 55.9511 13.1807Z" fill="#0D4E9E"/>
</svg>
