<svg width="66" height="64" viewBox="0 0 66 64" fill="none" xmlns="http://www.w3.org/2000/svg">
<path id="Vector" fill-rule="evenodd" clip-rule="evenodd" d="M23.8468 0.942383C17.0699 0.942383 11.5577 6.48145 11.5577 13.2763C11.5577 20.0712 17.0699 25.6103 23.8446 25.6103C30.6215 25.6103 36.1337 20.0712 36.1337 13.2763C36.1337 6.48145 30.6238 0.942383 23.8468 0.942383ZM23.8468 3.18492C29.4083 3.18492 33.8934 7.68794 33.8934 13.2763C33.8934 18.8647 29.4083 23.3678 23.8468 23.3678C22.524 23.3669 21.2143 23.1049 19.9928 22.5969C18.7714 22.0889 17.6622 21.3449 16.7289 20.4074C15.7956 19.4699 15.0565 18.3574 14.5539 17.1337C14.0513 15.91 13.7952 14.5992 13.8002 13.2763C13.8002 7.68794 18.2853 3.18492 23.8468 3.18492ZM53.2757 13.7921C52.9783 13.7921 52.6931 13.9103 52.4828 14.1205C52.2725 14.3308 52.1544 14.616 52.1544 14.9134V16.0616C51.8318 16.1719 51.5158 16.3007 51.208 16.4473L50.3985 15.64C50.1882 15.4298 49.9031 15.3117 49.6057 15.3117C49.3084 15.3117 49.0233 15.4298 48.813 15.64L46.4359 18.0193C46.2257 18.2296 46.1076 18.5147 46.1076 18.812C46.1076 19.1094 46.2257 19.3945 46.4359 19.6048L47.2432 20.4166C47.0939 20.7233 46.9628 21.0385 46.8508 21.3607H45.7071C45.4097 21.3607 45.1245 21.4788 44.9142 21.6891C44.7039 21.8994 44.5858 22.1846 44.5858 22.482V25.8458C44.5858 26.1432 44.7039 26.4284 44.9142 26.6386C45.1245 26.8489 45.4097 26.967 45.7071 26.967H46.8553C46.9674 27.2922 47.0907 27.6062 47.241 27.9134L46.4337 28.7252C46.2235 28.9355 46.1054 29.2206 46.1054 29.5179C46.1054 29.8153 46.2235 30.1004 46.4337 30.3107L48.8108 32.6878C48.9149 32.7922 49.0386 32.875 49.1749 32.9316C49.3111 32.9881 49.4571 33.0172 49.6046 33.0172C49.7521 33.0172 49.8981 32.9881 50.0344 32.9316C50.1706 32.875 50.2943 32.7922 50.3985 32.6878L51.208 31.8782C51.5175 32.0285 51.8315 32.1563 52.1544 32.2684V33.4143C52.1544 33.7117 52.2725 33.9969 52.4828 34.2072C52.6931 34.4175 52.9783 34.5356 53.2757 34.5356H56.6395C56.9368 34.5356 57.222 34.4175 57.4323 34.2072C57.6426 33.9969 57.7607 33.7117 57.7607 33.4143V32.2684C58.0837 32.1563 58.3976 32.0262 58.7071 31.8782L59.5166 32.6878C59.7269 32.898 60.0121 33.016 60.3094 33.016C60.6067 33.016 60.8918 32.898 61.1021 32.6878L63.4792 30.3107C63.6894 30.1004 63.8075 29.8153 63.8075 29.5179C63.8075 29.2206 63.6894 28.9355 63.4792 28.7252L62.6719 27.9134C62.8213 27.606 62.9523 27.29 63.0643 26.967H64.208C64.5054 26.967 64.7906 26.8489 65.0009 26.6386C65.2112 26.4284 65.3293 26.1432 65.3293 25.8458V22.482C65.3293 22.1846 65.2112 21.8994 65.0009 21.6891C64.7906 21.4788 64.5054 21.3607 64.208 21.3607H63.0599C62.9485 21.0386 62.8182 20.7233 62.6696 20.4166L63.4814 19.6048C63.6917 19.3945 63.8097 19.1094 63.8097 18.812C63.8097 18.5147 63.6917 18.2296 63.4814 18.0193L61.1044 15.6422C61.0002 15.5378 60.8765 15.455 60.7402 15.3984C60.604 15.3419 60.458 15.3128 60.3105 15.3128C60.163 15.3128 60.017 15.3419 59.8808 15.3984C59.7445 15.455 59.6208 15.5378 59.5166 15.6422L58.7071 16.4518C58.3999 16.3013 58.0838 16.1695 57.7607 16.0571V14.9134C57.7607 14.616 57.6426 14.3308 57.4323 14.1205C57.222 13.9103 56.9368 13.7921 56.6395 13.7921H53.2757ZM54.3969 16.0347H55.5182V16.7926C55.5174 17.0473 55.6034 17.2947 55.762 17.494C55.9205 17.6933 56.1422 17.8327 56.3905 17.8892C57.0969 18.0507 57.7742 18.3265 58.3864 18.7123C58.6016 18.8476 58.8564 18.9058 59.1091 18.8772C59.3617 18.8487 59.5971 18.7352 59.7768 18.5553L60.3105 18.0193L61.1021 18.8132L60.5684 19.3424C60.3885 19.522 60.2749 19.7575 60.2464 20.0101C60.2179 20.2627 60.2761 20.5176 60.4114 20.7328C60.7926 21.3472 61.0752 22.02 61.2344 22.7286C61.2903 22.9763 61.4285 23.1976 61.6265 23.3565C61.8244 23.5154 62.0705 23.6023 62.3243 23.6032H63.0868V24.7245H62.3288C62.0742 24.7244 61.8271 24.8109 61.6282 24.9699C61.4293 25.1288 61.2904 25.3507 61.2344 25.5991C61.0741 26.3059 60.7958 26.9806 60.4114 27.595C60.2766 27.81 60.2188 28.0643 60.2473 28.3165C60.2758 28.5686 60.389 28.8036 60.5684 28.9831L61.1021 29.5168L60.3105 30.3107L59.779 29.7747C59.5995 29.5953 59.3645 29.4821 59.1124 29.4536C58.8602 29.4251 58.6059 29.483 58.3909 29.6177C57.7763 30.0008 57.1016 30.2776 56.395 30.4362C56.1459 30.4919 55.9232 30.6309 55.7637 30.8303C55.6043 31.0297 55.5177 31.2775 55.5182 31.5328V32.2953H54.3969V31.5373C54.3977 31.2826 54.3117 31.0353 54.1531 30.836C53.9946 30.6367 53.7729 30.4973 53.5246 30.4407C52.8178 30.2803 52.1431 30.0021 51.5287 29.6177C51.314 29.4818 51.0594 29.4229 50.8068 29.4506C50.5542 29.4783 50.3185 29.591 50.1383 29.7702L49.6046 30.3062L48.813 29.5123L49.3467 28.9786C49.525 28.7994 49.6375 28.5653 49.666 28.3141C49.6945 28.0629 49.6373 27.8095 49.5037 27.595C49.1192 26.9806 48.8409 26.3059 48.6807 25.5991C48.6253 25.3511 48.4873 25.1292 48.2893 24.9699C48.0912 24.8106 47.845 24.7233 47.5908 24.7223H46.8284V23.601H47.5863C47.8409 23.6011 48.088 23.5146 48.2869 23.3556C48.4858 23.1967 48.6247 22.9748 48.6807 22.7264C48.8422 22.0222 49.1202 21.345 49.5037 20.7305C49.6385 20.5155 49.6963 20.2612 49.6678 20.009C49.6393 19.7569 49.5261 19.5219 49.3467 19.3424L48.813 18.8087L49.6046 18.0148L50.1361 18.5463C50.315 18.7264 50.5498 18.8404 50.8019 18.8697C51.0541 18.8991 51.3087 18.842 51.5242 18.7078C52.1387 18.3243 52.8137 18.044 53.5201 17.8848C53.7685 17.8293 53.9906 17.6909 54.15 17.4924C54.3093 17.294 54.3964 17.0472 54.3969 16.7926V16.0347ZM54.9576 20.4726C52.9325 20.4726 51.2663 22.1389 51.2663 24.1639C51.2663 26.1889 52.9325 27.8573 54.9576 27.8573C56.9826 27.8573 58.6488 26.1889 58.6488 24.1639C58.6488 22.1389 56.9826 20.4726 54.9576 20.4726ZM54.9576 22.7152C55.3424 22.7152 55.7114 22.8681 55.9835 23.1402C56.2556 23.4123 56.4085 23.7813 56.4085 24.1661C56.4085 24.5509 56.2556 24.92 55.9835 25.1921C55.7114 25.4642 55.3424 25.617 54.9576 25.617C54.5728 25.617 54.2037 25.4642 53.9316 25.1921C53.6595 24.92 53.5066 24.5509 53.5066 24.1661C53.5066 23.7813 53.6595 23.4123 53.9316 23.1402C54.2037 22.8681 54.5728 22.7152 54.9576 22.7152ZM17.1618 27.8528C7.86201 27.8528 0.342773 35.4057 0.342773 44.7392V54.8642C0.342773 55.1616 0.460907 55.4468 0.671186 55.6571C0.881464 55.8674 1.16666 55.9855 1.46404 55.9855H10.1068C10.3209 56.0511 10.5497 56.0511 10.7639 55.9855H29.72C29.8546 55.5796 30.0519 55.1939 30.3345 54.8508C29.4821 54.7647 28.6904 54.3708 28.1076 53.743H11.5577V44.7235C11.5598 44.5734 11.5318 44.4244 11.4753 44.2853C11.4187 44.1463 11.3349 44.02 11.2286 43.914C11.1224 43.8079 10.9959 43.7243 10.8568 43.6681C10.7176 43.6118 10.5686 43.5841 10.4185 43.5865C10.2712 43.5885 10.1258 43.6196 9.99059 43.6778C9.85533 43.7361 9.73287 43.8204 9.63021 43.926C9.52754 44.0316 9.44668 44.1563 9.39224 44.2932C9.3378 44.43 9.31085 44.5762 9.31293 44.7235V53.743H2.58531V44.7369C2.58531 36.6055 9.07073 30.0954 17.1618 30.0954H30.617C33.9921 30.0954 37.0778 31.2391 39.5401 33.1475C40.1007 32.6496 40.8184 32.3379 41.6257 32.3379H42.0159C38.9215 29.4531 34.8476 27.8501 30.617 27.8528H17.1618ZM41.6257 34.5849C41.3283 34.5849 41.0431 34.7031 40.8328 34.9134C40.6225 35.1236 40.5044 35.4088 40.5044 35.7062V37.7088C39.8092 37.9241 39.1387 38.1999 38.4928 38.5363L37.0823 37.1235C36.872 36.9133 36.5869 36.7952 36.2895 36.7952C35.9922 36.7952 35.7071 36.9133 35.4968 37.1235L32.0366 40.586C31.8264 40.7962 31.7083 41.0814 31.7083 41.3787C31.7083 41.676 31.8264 41.9612 32.0366 42.1715L33.4494 43.582C33.1107 44.2256 32.8327 44.8961 32.6151 45.5913H30.6193C30.3219 45.5913 30.0367 45.7095 29.8264 45.9197C29.6161 46.13 29.498 46.4152 29.498 46.7126V51.6058C29.498 51.9032 29.6161 52.1884 29.8264 52.3987C30.0367 52.6089 30.3219 52.7271 30.6193 52.7271H32.6196C32.8349 53.4223 33.1063 54.095 33.4426 54.7409L32.0366 56.1537C31.8271 56.3639 31.7094 56.6485 31.7094 56.9453C31.7094 57.2421 31.8271 57.5267 32.0366 57.7369L35.4968 61.1971C35.7071 61.4074 35.9922 61.5254 36.2895 61.5254C36.5869 61.5254 36.872 61.4074 37.0823 61.1971L38.4951 59.7843C39.1387 60.1207 39.807 60.3988 40.5044 60.6141V62.6167C40.5044 62.9141 40.6225 63.1992 40.8328 63.4095C41.0431 63.6198 41.3283 63.7379 41.6257 63.7379H46.5166C46.814 63.7379 47.0992 63.6198 47.3095 63.4095C47.5198 63.1992 47.6379 62.9141 47.6379 62.6167V60.6096C48.3331 60.3943 49.0059 60.123 49.654 59.7866L51.0645 61.1994C51.2748 61.4096 51.5599 61.5277 51.8573 61.5277C52.1546 61.5277 52.4397 61.4096 52.65 61.1994L56.1102 57.7369C56.3204 57.5266 56.4385 57.2415 56.4385 56.9442C56.4385 56.6469 56.3204 56.3617 56.1102 56.1514L54.6952 54.7386C55.0316 54.0905 55.3096 53.4223 55.5249 52.7271H57.5275C57.8249 52.7271 58.1101 52.6089 58.3204 52.3987C58.5306 52.1884 58.6488 51.9032 58.6488 51.6058V46.7126C58.6488 46.4152 58.5306 46.13 58.3204 45.9197C58.1101 45.7095 57.8249 45.5913 57.5275 45.5913H55.5227C55.3093 44.8982 55.0338 44.2257 54.6997 43.582L56.1102 42.1692C56.3197 41.959 56.4374 41.6744 56.4374 41.3776C56.4374 41.0808 56.3197 40.7962 56.1102 40.586L52.65 37.1257C52.4397 36.9155 52.1546 36.7975 51.8573 36.7975C51.5599 36.7975 51.2748 36.9155 51.0645 37.1257L49.6495 38.5385C49.0055 38.2004 48.3322 37.9212 47.6379 37.7043V35.7062C47.6379 35.4088 47.5198 35.1236 47.3095 34.9134C47.0992 34.7031 46.814 34.5849 46.5166 34.5849H41.6257ZM42.7469 36.8275H45.3954V38.4399C45.3961 38.6934 45.4828 38.9392 45.6413 39.1371C45.7997 39.3351 46.0205 39.4735 46.2677 39.5297C47.3509 39.7764 48.3869 40.2047 49.3288 40.7945C49.5435 40.9304 49.7981 40.9894 50.0507 40.9617C50.3033 40.9339 50.539 40.8213 50.7192 40.642L51.8561 39.5028L53.7309 41.3776L52.5962 42.5078C52.4162 42.6875 52.3027 42.9229 52.2742 43.1755C52.2457 43.4282 52.3038 43.683 52.4392 43.8982C53.0267 44.8401 53.4528 45.8716 53.695 46.9593C53.7511 47.208 53.8903 47.4302 54.0897 47.5892C54.289 47.7482 54.5366 47.8345 54.7916 47.8339H56.4062V50.4845H54.7961C54.5417 50.4837 54.2946 50.5693 54.0953 50.7274C53.8961 50.8856 53.7565 51.1067 53.6995 51.3546C53.4528 52.44 53.0267 53.4761 52.4347 54.418C52.2999 54.633 52.2421 54.8873 52.2706 55.1395C52.2991 55.3916 52.4123 55.6266 52.5917 55.8061L53.7309 56.9453L51.8561 58.8201L50.7214 57.6853C50.5422 57.507 50.3081 57.3945 50.0569 57.366C49.8057 57.3375 49.5523 57.3947 49.3378 57.5284C48.3959 58.1159 47.3576 58.5397 46.2722 58.7842C46.0238 58.8402 45.8019 58.9791 45.643 59.178C45.484 59.3769 45.3975 59.6239 45.3976 59.8785V61.4954H42.7469V59.883C42.7472 59.6287 42.661 59.3819 42.5025 59.183C42.3439 58.9842 42.1225 58.8451 41.8746 58.7887C40.7903 58.5413 39.7554 58.113 38.8135 57.5216C38.5983 57.3863 38.3435 57.3281 38.0908 57.3566C37.8382 57.3852 37.6028 57.4987 37.4231 57.6786L36.2907 58.8201L34.4159 56.9453L35.5461 55.8106C35.7251 55.6319 35.8385 55.398 35.8678 55.1469C35.8971 54.8957 35.8407 54.642 35.7076 54.4269C35.1195 53.4822 34.6949 52.4451 34.4518 51.3591C34.3957 51.1104 34.2565 50.8882 34.0571 50.7292C33.8578 50.5702 33.6102 50.4839 33.3552 50.4845H31.7406V47.8339H33.3507C33.6046 47.8336 33.8509 47.7472 34.0493 47.5887C34.2477 47.4302 34.3864 47.2091 34.4428 46.9615C34.6895 45.8784 35.1156 44.8423 35.7076 43.9005C35.8429 43.6859 35.9015 43.4319 35.8738 43.1797C35.8461 42.9276 35.7338 42.6923 35.5551 42.5123L34.4159 41.3776L36.2907 39.5028L37.4209 40.6331C37.5998 40.8131 37.8346 40.9272 38.0867 40.9565C38.3389 40.9858 38.5935 40.9287 38.809 40.7945C39.7509 40.207 40.7847 39.7831 41.8701 39.5387C42.1185 39.4827 42.3404 39.3438 42.4993 39.1449C42.6583 38.946 42.7448 38.699 42.7447 38.4444L42.7469 36.8275ZM44.0723 43.5551C42.588 43.561 41.1661 44.1529 40.1161 45.2021C39.0661 46.2512 38.473 47.6727 38.4659 49.157C38.4724 50.6423 39.065 52.065 40.1149 53.1157C41.1647 54.1664 42.587 54.7601 44.0723 54.7678C45.5577 54.7613 46.9804 54.1678 48.0302 53.1168C49.0799 52.0658 49.6717 50.6424 49.6764 49.157C49.6705 47.6727 49.0781 46.2509 48.0283 45.2016C46.9786 44.1522 45.5566 43.5604 44.0723 43.5551ZM44.0723 45.7976C44.9644 45.7976 45.82 46.152 46.4508 46.7829C47.0817 47.4137 47.4361 48.2693 47.4361 49.1614C47.4361 50.0536 47.0817 50.9092 46.4508 51.54C45.82 52.1709 44.9644 52.5253 44.0723 52.5253C42.2222 52.5253 40.7085 51.0093 40.7085 49.157C40.7085 47.3046 42.2199 45.7976 44.0723 45.7976Z" fill="#0D4E9E"/>
</svg>
