<svg width="53" height="61" viewBox="0 0 53 61" fill="none" xmlns="http://www.w3.org/2000/svg">
<path id="Vector" fill-rule="evenodd" clip-rule="evenodd" d="M26.8863 0.42041C28.3819 0.42041 28.9077 0.467149 29.6439 0.665789C30.1346 0.794321 30.8825 1.0397 31.3031 1.20329C31.7238 1.37856 32.3314 1.67068 32.6468 1.85763C32.974 2.04459 33.5933 2.50029 34.049 2.8742C34.5047 3.23643 35.1824 3.9492 35.568 4.46333C35.9536 4.96577 36.4561 5.79538 37.087 7.17418L37.8465 7.43125C38.2672 7.57146 38.8164 7.82853 39.0734 8.01548C39.3305 8.19075 39.7512 8.56466 39.9965 8.8451C40.2536 9.12553 40.5808 9.62798 40.7327 9.94346C40.8729 10.2706 41.0482 10.8198 41.1183 11.1704C41.1884 11.5209 41.2351 13.1568 41.2351 17.7722L41.6441 18.1812C41.8778 18.4032 42.2166 18.8239 42.4036 19.116C42.5789 19.4081 42.8126 19.9339 42.9177 20.2844C43.0229 20.635 43.1047 21.266 43.1047 21.6866C43.1047 22.1073 43.0346 22.6798 42.9411 22.9719C42.8593 23.2641 42.6957 23.6847 42.5789 23.9067C42.462 24.1287 42.1232 24.5727 41.831 24.8882C41.5389 25.192 41.0598 25.5893 40.7677 25.7529C40.4756 25.9282 39.9381 26.1385 38.8748 26.4189L38.6177 27.12C38.4658 27.5056 38.2321 28.0548 38.0802 28.3469C37.9283 28.639 37.5778 29.2116 37.274 29.6322C36.9819 30.0529 35.6615 31.4784 34.3411 32.7988C32.308 34.8436 31.8289 35.2643 31.1863 35.5681C30.7539 35.7784 30.0762 35.9887 29.6088 36.0588C29.1531 36.1173 27.8678 36.1757 26.7461 36.1757C25.6243 36.1757 24.339 36.1173 23.8833 36.0588C23.4159 35.9887 22.7499 35.7901 22.3059 35.5681C21.6632 35.2643 21.1724 34.8319 19.151 32.7988C17.8306 31.4784 16.5102 30.0529 16.2181 29.6322C15.9143 29.2116 15.5638 28.639 15.4119 28.3469C15.26 28.0548 15.0263 27.5056 14.6173 26.4189L13.9279 26.2437C13.554 26.1385 13.0165 25.9282 12.7244 25.7529C12.4323 25.5893 11.9532 25.192 11.6611 24.8882C11.369 24.5727 11.0301 24.1287 10.9132 23.9067C10.7964 23.6847 10.6328 23.2641 10.551 22.9719C10.4575 22.6798 10.3874 22.1073 10.3874 21.6866C10.3874 21.266 10.4692 20.635 10.5744 20.2844C10.6796 19.9339 10.8665 19.4548 11.0067 19.2328C11.1469 19.0108 11.4741 18.5902 12.2219 17.7722L12.292 15.4937C12.3271 14.2434 12.4089 12.8997 12.479 12.5141C12.5491 12.1285 12.7361 11.3456 12.8997 10.7614C13.0632 10.1772 13.4372 9.24238 13.7176 8.65814C13.998 8.07391 14.442 7.29103 14.6991 6.90543C14.9562 6.51984 15.4703 5.85381 15.8442 5.42147C16.2181 4.98914 16.8608 4.34648 17.2814 3.98425C17.7021 3.62203 18.3798 3.09621 18.8004 2.82746C19.2211 2.54703 19.8988 2.14975 20.3195 1.93942C20.7401 1.7291 21.6048 1.39024 22.2474 1.16823C22.8901 0.957908 23.7548 0.724213 24.1754 0.654105C24.5961 0.583996 24.9583 0.502203 24.9817 0.478834C25.005 0.44378 25.8697 0.42041 26.8863 0.42041ZM22.3643 3.15464C21.9203 3.32991 21.2075 3.65708 20.7868 3.89077C20.3662 4.11278 19.6885 4.5568 19.2678 4.86061C18.8472 5.16441 18.1344 5.80707 17.6904 6.27446C17.2347 6.75353 16.6271 7.51304 16.3233 7.95706C16.0195 8.40108 15.5871 9.19564 15.3418 9.70977C15.1081 10.2239 14.7809 11.147 14.6173 11.7546C14.3836 12.666 14.3135 13.2269 14.2785 14.851L14.22 16.8375C17.632 16.7907 19.4431 16.7557 20.4363 16.7323C21.4996 16.6972 22.6097 16.6038 23.1238 16.4869C23.6029 16.3817 24.3156 16.1831 24.7012 16.0546C25.0868 15.926 25.7762 15.669 26.2202 15.4703C26.6759 15.2717 27.3537 14.9328 27.7393 14.6991C28.1249 14.4655 28.7325 14.0682 29.083 13.8111C29.4335 13.554 30.1814 12.8997 30.7306 12.3505L31.7471 11.3456C33.0792 13.6008 33.7569 14.5823 34.1191 14.9679C34.4813 15.3535 35.0773 15.8326 35.4629 16.0429C35.8368 16.2415 36.4444 16.4869 36.7949 16.5804C37.1455 16.6856 37.8465 16.7907 38.349 16.8258L39.2487 16.8959C39.2487 11.4508 39.237 11.3223 38.9683 10.7614C38.8164 10.4459 38.571 10.0603 38.4191 9.93178C38.2672 9.79156 37.9283 9.56955 37.6713 9.42933C37.4142 9.3008 36.865 9.16059 36.4444 9.11385L35.6849 9.04374C35.1591 7.57146 34.8202 6.82364 34.5982 6.43805C34.3645 6.05245 33.7569 5.31631 33.2428 4.80218C32.5651 4.13615 32.0276 3.72719 31.3615 3.37665C30.8474 3.1079 30.0295 2.78073 29.5504 2.65219C28.8376 2.45355 28.3585 2.40681 26.9213 2.4185C25.6944 2.4185 24.8648 2.48861 24.1754 2.64051C23.6262 2.75736 22.82 2.99105 22.3643 3.15464ZM28.3585 16.557C27.8327 16.8608 26.9213 17.2932 26.3371 17.5152C25.7645 17.7489 24.7597 18.0643 24.117 18.2279C23.4743 18.3798 22.411 18.5668 21.7567 18.6369C21.0906 18.707 19.5599 18.7654 18.3331 18.7654H16.113C16.1947 24.5611 16.2181 24.9934 16.4518 25.7529C16.5803 26.2086 16.8374 26.8746 17.001 27.2135C17.1763 27.5407 17.4684 28.0548 17.667 28.3469C17.854 28.639 19.0692 29.936 20.3662 31.2447C21.6632 32.5534 22.9252 33.7336 23.1822 33.8738C23.6262 34.1192 23.7898 34.1308 26.7461 34.1308C29.7023 34.1308 29.8659 34.1192 30.3099 33.8738C30.567 33.7336 31.8289 32.5534 33.1259 31.2447C34.4229 29.936 35.6381 28.639 35.8251 28.3469C36.0237 28.0548 36.3158 27.5407 36.4911 27.2135C36.6547 26.8746 36.9118 26.2086 37.052 25.7529C37.274 24.9934 37.2974 24.5611 37.3441 21.7801C37.3792 18.7187 37.3792 18.6486 37.1455 18.6486C37.0169 18.6486 36.5028 18.5201 36.012 18.3565C35.5096 18.2046 34.7618 17.8774 34.3528 17.632C33.9439 17.3866 33.3129 16.8959 32.939 16.5453C32.5767 16.1948 32.0743 15.5989 31.8172 15.225C31.5718 14.851 31.3382 14.5589 31.3031 14.5589C31.268 14.5706 30.8123 14.8978 30.2865 15.2951C29.7724 15.6923 28.896 16.2649 28.3585 16.557ZM12.6192 20.3429C12.3855 20.7986 12.3154 21.0907 12.3154 21.6866C12.3271 22.2124 12.3972 22.5863 12.5725 22.9135C12.701 23.1706 13.0399 23.5795 13.3203 23.8132C13.6007 24.0586 13.9279 24.2806 14.0331 24.3157C14.2317 24.3741 14.2434 24.1871 14.2434 21.6866C14.2434 19.4548 14.22 18.9991 14.0798 18.9991C13.9863 18.9991 13.6942 19.1744 13.4138 19.3847C13.1333 19.595 12.7828 20.0157 12.6192 20.3429ZM39.459 24.3157C39.5642 24.2806 39.8914 24.0586 40.1718 23.8132C40.4522 23.5795 40.7911 23.1706 40.9196 22.9135C41.0949 22.5863 41.165 22.2124 41.1767 21.6866C41.1767 21.0907 41.1066 20.7986 40.8729 20.3429C40.7093 20.0157 40.3588 19.5834 40.09 19.3847C39.8213 19.1744 39.5175 18.9991 39.424 18.9991C39.2721 18.9991 39.2487 19.373 39.2487 21.6866C39.2487 24.1871 39.2604 24.3741 39.459 24.3157ZM18.0994 35.1241H19.9689V36.0004C19.9689 36.6898 20.1208 37.4844 20.7051 39.7395C21.1023 41.317 21.4646 42.5906 21.5113 42.5789C21.558 42.5555 22.4344 41.5273 25.3439 38.0452H28.1482L30.0178 40.3004C31.0577 41.5273 31.9341 42.5555 31.9808 42.5789C32.0276 42.5906 32.3898 41.317 32.7987 39.7395C33.3713 37.4844 33.5232 36.6898 33.5232 35.1241H35.3928V36.4094L39.868 37.8933C42.7892 38.8515 44.6704 39.5526 45.3248 39.8914C45.874 40.1719 46.6802 40.7094 47.1359 41.0716C47.5916 41.4338 48.2343 42.0765 48.5614 42.4971C48.9003 42.9061 49.3443 43.5604 49.5546 43.946C49.765 44.3316 50.0571 44.9392 50.209 45.2898C50.3609 45.6403 50.5595 46.2713 50.6647 46.6919C50.7582 47.1126 51.319 50.3259 52.9783 60.2462H26.7811C3.56356 60.2462 0.572266 60.2228 0.572266 60.0709C0.572266 59.9775 1.03965 57.068 1.62389 53.6093C2.19644 50.1623 2.74563 47.0191 2.8391 46.6335C2.93258 46.2479 3.13122 45.6403 3.28312 45.2898C3.43502 44.9392 3.72714 44.3316 3.93747 43.946C4.14779 43.5604 4.59181 42.9061 4.93067 42.4971C5.25784 42.0765 5.91219 41.4338 6.35621 41.0716C6.81191 40.7094 7.61816 40.1719 8.16734 39.8914C8.82168 39.5526 10.7029 38.8515 18.0994 36.4094V35.1241ZM8.81 41.7259C8.36598 41.983 7.65321 42.5088 7.24425 42.8944C6.83528 43.28 6.33284 43.8292 6.12251 44.1213C5.91219 44.4134 5.58501 44.9626 5.38637 45.3482C5.18773 45.7338 4.95404 46.283 4.86056 46.5751C4.7554 46.8672 4.27632 49.4963 3.79725 52.4174C3.30649 55.3386 2.88584 57.8508 2.85079 58.0027L2.79236 58.2598H9.45266C9.54614 57.6756 9.73309 55.8177 9.92005 53.7612C10.1187 51.7047 10.3056 49.9169 10.329 49.7884C10.3758 49.5664 10.4342 49.5547 11.2872 49.6482C11.7896 49.6949 12.2103 49.7533 12.2219 49.765C12.2453 49.7767 12.07 51.6346 11.848 53.878C11.626 56.1332 11.4391 58.0378 11.4391 58.1196C11.4391 58.2248 12.5842 58.2598 16.7556 58.2598C19.6768 58.2598 22.0722 58.2481 22.0722 58.2364C22.0722 58.2131 22.4578 55.4672 22.9368 52.1253L23.8132 46.0493C22.9602 44.7406 22.6915 44.355 22.6564 44.355C22.6213 44.355 22.1306 44.9159 21.558 45.6053C20.857 46.4466 20.4947 46.8088 20.448 46.6919C20.4246 46.5985 19.9455 44.7055 19.3847 42.4854C18.6719 39.6227 18.3331 38.4425 18.2045 38.4308C18.111 38.4191 16.148 39.0501 13.8344 39.833C11.1002 40.7561 9.33581 41.4221 8.81 41.7259ZM34.049 42.7191C33.4881 44.9392 33.0208 46.762 32.9857 46.7854C32.9623 46.7971 32.4833 46.2596 31.9224 45.5819C31.3498 44.9042 30.8708 44.3433 30.8357 44.355C30.8007 44.355 30.5319 44.7406 30.2281 45.208L29.6906 46.0493C31.0344 55.4672 31.4199 58.2131 31.4199 58.2364C31.4199 58.2481 33.8153 58.2598 36.7365 58.2598C40.9079 58.2598 42.0531 58.2248 42.0531 58.1196C42.0531 58.0378 41.8661 56.1332 41.6441 53.878C41.4221 51.6346 41.2468 49.7767 41.2702 49.765C41.2819 49.7533 41.7025 49.6949 42.205 49.6482C43.0579 49.5547 43.1164 49.5664 43.1631 49.7884C43.1865 49.9169 43.3734 51.7047 43.5721 53.7612C43.759 55.8177 43.946 57.6756 43.981 57.8859L44.0395 58.2598H50.6997C50.6063 57.8508 50.1856 55.3386 49.6949 52.4174C49.2158 49.4963 48.7367 46.8672 48.6316 46.5751C48.5381 46.283 48.3044 45.7338 48.1057 45.3482C47.9071 44.9626 47.5799 44.4134 47.3696 44.1213C47.1593 43.8292 46.6218 43.2566 46.1778 42.836C45.7221 42.4153 44.9976 41.8778 44.5536 41.6441C44.0979 41.3988 41.8895 40.5925 39.5408 39.7979C37.2273 39.0267 35.2993 38.3958 35.2409 38.3958C35.1941 38.3958 35.124 38.4659 35.1006 38.5477C35.0773 38.6178 34.5982 40.499 34.049 42.7191ZM23.9417 42.7191L25.8463 45.5819C24.4559 55.0933 24.0586 57.9443 24.0586 58.0612C24.0586 58.2481 24.2689 58.2598 26.7461 58.2598C29.2232 58.2598 29.4335 58.2481 29.4335 58.0612C29.4335 57.9443 29.0363 55.0933 28.5455 51.7164L27.6458 45.5819L29.5504 42.7191L27.2719 40.02L26.1969 40.0316L23.9417 42.7191Z" fill="#0D4E9E"/>
</svg>
