<svg width="67" height="67" viewBox="0 0 67 67" fill="none" xmlns="http://www.w3.org/2000/svg">
<g id="Economy">
<path id="Vector" d="M56.9149 2.56299H28.1701C26.8093 2.56463 25.5046 3.1084 24.5424 4.07503C23.5801 5.04166 23.0388 6.35222 23.0372 7.71924V33.5005H18.9308C17.8417 33.5005 16.7972 33.9351 16.0271 34.7087C15.257 35.4823 14.8244 36.5315 14.8244 37.6255C14.83 38.0555 14.9035 38.4819 15.042 38.8888C14.9743 38.8805 14.9096 38.8547 14.8367 38.8506C14.4655 38.833 14.0954 38.9016 13.7549 39.0511C13.4145 39.2007 13.113 39.4271 12.8738 39.7127C12.6179 40.0258 12.4382 40.3946 12.349 40.7897C12.2599 41.1848 12.2639 41.5954 12.3605 41.9887L13.0371 44.9639C10.8763 42.5518 9.40461 39.598 8.77771 36.4148L8.31164 34.0429C8.18152 33.3473 7.82584 32.7145 7.3001 32.2433C6.77435 31.7721 6.10812 31.4889 5.40534 31.438C4.99919 31.4184 4.59379 31.4898 4.21846 31.6469C3.84313 31.8041 3.50725 32.043 3.23511 32.3465C2.94454 32.6791 2.73177 33.0728 2.61239 33.4988C2.49302 33.9247 2.47007 34.3721 2.54524 34.8081L3.27002 39.4044C4.23169 45.4296 7.14216 50.9688 11.5516 55.166V56.188H10.718C10.4457 56.188 10.1846 56.2966 9.99207 56.49C9.79954 56.6834 9.69139 56.9457 9.69139 57.2192V63.4067C9.69139 63.6802 9.79954 63.9425 9.99207 64.1359C10.1846 64.3293 10.4457 64.438 10.718 64.438H23.0372C23.3094 64.438 23.5705 64.3293 23.7631 64.1359C23.9556 63.9425 24.0638 63.6802 24.0638 63.4067V57.2192C24.0638 56.9457 23.9556 56.6834 23.7631 56.49C23.5705 56.2966 23.3094 56.188 23.0372 56.188H23.0135L22.916 52.1372V52.1207C22.8348 50.4403 22.411 48.7946 21.6709 47.2854C20.9309 45.7762 19.8903 44.4357 18.6135 43.3469L17.7081 41.5422C18.1025 41.6746 18.5149 41.7448 18.9308 41.7505H46.6489C47.5205 41.7449 48.3759 41.5133 49.1322 41.0781L47.9938 43.3469C46.717 44.4357 45.6764 45.7762 44.9364 47.2854C44.1963 48.7946 43.7725 50.4403 43.6913 52.1207V52.1372L43.5927 56.188H43.5691C43.2968 56.188 43.0357 56.2966 42.8432 56.49C42.6507 56.6834 42.5425 56.9457 42.5425 57.2192V63.4067C42.5425 63.6802 42.6507 63.9425 42.8432 64.1359C43.0357 64.3293 43.2968 64.438 43.5691 64.438H55.8883C56.1606 64.438 56.4217 64.3293 56.6142 64.1359C56.8067 63.9425 56.9149 63.6802 56.9149 63.4067V57.2192C56.9149 56.9457 56.8067 56.6834 56.6142 56.49C56.4217 56.2966 56.1606 56.188 55.8883 56.188H55.0547V55.1691C59.4641 50.9719 62.3746 45.4327 63.3363 39.4075L64.061 34.8112C64.1362 34.3752 64.1133 33.9278 63.9939 33.5019C63.8745 33.0759 63.6617 32.6822 63.3712 32.3496C63.0992 32.0457 62.7634 31.8063 62.3881 31.6487C62.0128 31.491 61.6073 31.419 61.2009 31.438C60.4982 31.4883 59.8318 31.7708 59.3057 32.2415C58.7796 32.7121 58.4234 33.3445 58.2926 34.0398L57.8265 36.4117C57.1996 39.5949 55.7279 42.5487 53.5671 44.9608L54.2437 41.9856C54.3403 41.5923 54.3443 41.1817 54.2552 40.7866C54.1661 40.3915 53.9864 40.0227 53.7304 39.7096C53.4934 39.4216 53.1925 39.1936 52.8517 39.0438C52.5109 38.8941 52.1399 38.8268 51.7685 38.8475C51.5702 38.8613 51.3742 38.8984 51.1844 38.9579C51.5714 38.2303 51.7764 37.4191 51.7819 36.5942V10.813H63.0745C63.3467 10.813 63.6079 10.7043 63.8004 10.5109C63.9929 10.3175 64.1011 10.0552 64.1011 9.78174C64.0986 7.86796 63.3407 6.03327 61.9936 4.68002C60.6464 3.32678 58.82 2.56544 56.9149 2.56299ZM22.0106 62.3755H11.7446V58.2505H22.0106V62.3755ZM20.8628 52.196L20.9593 56.188H13.6048V54.7195C13.6045 54.5764 13.5746 54.435 13.517 54.3041C13.4594 54.1733 13.3753 54.0559 13.2701 53.9595C9.02045 50.0449 6.21118 44.8035 5.29755 39.0847L4.57277 34.4884C4.54699 34.3547 4.55083 34.2169 4.584 34.0849C4.61718 33.9528 4.67889 33.8297 4.76474 33.7243C4.83036 33.6446 4.91456 33.5825 5.00984 33.5435C5.10513 33.5044 5.20855 33.4897 5.31089 33.5005C5.55492 33.5281 5.78335 33.6348 5.96156 33.8045C6.13977 33.9742 6.25805 34.1977 6.29848 34.441L6.76456 36.8129C7.28268 39.4586 8.32924 41.9714 9.84102 44.1996C11.3528 46.4277 13.2984 48.3249 15.5604 49.7767C15.7506 49.8984 15.9754 49.9539 16.2 49.9344C16.4247 49.915 16.6368 49.8219 16.8034 49.6693C16.9701 49.5168 17.0822 49.3134 17.1223 49.0905C17.1624 48.8676 17.1284 48.6376 17.0254 48.4361L15.0297 44.475L14.3604 41.5298C14.3364 41.4461 14.332 41.358 14.3475 41.2723C14.363 41.1867 14.398 41.1057 14.4497 41.0358C14.4863 40.9943 14.5319 40.9616 14.5829 40.9401C14.6339 40.9187 14.6891 40.9091 14.7443 40.9121C14.8611 40.926 14.9724 40.9698 15.0674 41.0394C15.1625 41.1089 15.2383 41.2018 15.2874 41.3091L16.8776 44.4689C16.9431 44.5993 17.0355 44.7142 17.1486 44.8061C18.2478 45.7084 19.1464 46.8323 19.7862 48.1052C20.426 49.3782 20.7928 50.7718 20.8628 52.196ZM44.531 39.688H18.9308C18.3862 39.688 17.864 39.4707 17.4789 39.0839C17.0939 38.6971 16.8776 38.1725 16.8776 37.6255C16.8776 37.0785 17.0939 36.5539 17.4789 36.1671C17.864 35.7803 18.3862 35.563 18.9308 35.563H44.531C44.2358 36.2101 44.0829 36.9136 44.0829 37.6255C44.0829 38.3374 44.2358 39.0409 44.531 39.688ZM54.8617 62.3755H44.5957V58.2505H54.8617V62.3755ZM51.3168 41.3091C51.3658 41.2016 51.4415 41.1087 51.5366 41.0391C51.6317 40.9696 51.7431 40.9258 51.8599 40.9121C51.9152 40.9066 51.971 40.915 52.0223 40.9366C52.0736 40.9582 52.1187 40.9923 52.1535 41.0358C52.2052 41.1057 52.2402 41.1867 52.2557 41.2723C52.2712 41.358 52.2668 41.4461 52.2428 41.5298L51.5766 44.475L49.584 48.4423C49.481 48.6438 49.4469 48.8737 49.487 49.0966C49.5272 49.3195 49.6392 49.523 49.8059 49.6755C49.9726 49.8281 50.1846 49.9212 50.4093 49.9406C50.634 49.96 50.8587 49.9046 51.0489 49.7829C53.3109 48.3311 55.2566 46.4339 56.7683 44.2057C58.2801 41.9776 59.3267 39.4648 59.8448 36.819L60.3109 34.4472C60.3499 34.2032 60.4672 33.9787 60.6449 33.8078C60.8226 33.6369 61.051 33.529 61.2954 33.5005C61.3974 33.4923 61.4999 33.5082 61.5947 33.5469C61.6895 33.5856 61.7741 33.6459 61.8415 33.7232C61.9274 33.8287 61.9891 33.9518 62.0223 34.0838C62.0554 34.2159 62.0593 34.3537 62.0335 34.4874L61.3087 39.0837C60.3951 44.8025 57.5858 50.0439 53.3362 53.9584C53.2309 54.0549 53.1469 54.1722 53.0892 54.3031C53.0316 54.4339 53.0017 54.5754 53.0015 54.7185V56.188H45.6469L45.7434 52.196C45.8136 50.7717 46.1806 49.378 46.8205 48.1051C47.4605 46.8321 48.3593 45.7083 49.4587 44.8061C49.5718 44.7145 49.6639 44.5995 49.7287 44.4689L51.3168 41.3091ZM49.7287 9.78174V36.5942C49.7264 37.3499 49.4484 38.0785 48.9472 38.642C48.446 39.2055 47.7565 39.5648 47.0092 39.6519C46.7128 39.3699 46.4814 39.0262 46.3314 38.6449C46.1813 38.2635 46.1161 37.8538 46.1405 37.4445C46.1649 37.0351 46.2781 36.6361 46.4724 36.2754C46.6666 35.9148 46.9371 35.6012 47.2649 35.3567C47.4372 35.2269 47.5646 35.0458 47.6288 34.8392C47.6931 34.6326 47.691 34.411 47.6228 34.2056C47.5547 34.0003 47.424 33.8217 47.2492 33.6951C47.0744 33.5686 46.8644 33.5005 46.6489 33.5005H25.0904V7.71924C25.0904 6.89872 25.4148 6.11182 25.9924 5.53163C26.57 4.95144 27.3533 4.62549 28.1701 4.62549H51.8958C51.2098 5.2958 50.6646 6.09747 50.2924 6.98312C49.9201 7.86876 49.7285 8.82039 49.7287 9.78174ZM51.8846 8.75049C52.1202 7.58488 52.7497 6.53694 53.6665 5.78422C54.5832 5.03151 55.7309 4.62032 56.9149 4.62032C58.0989 4.62032 59.2465 5.03151 60.1633 5.78422C61.0801 6.53694 61.7096 7.58488 61.9452 8.75049H51.8846Z" fill="#0D4E9E"/>
<path id="Vector_2" d="M44.5955 19.063H42.5423V29.3755H40.4891V21.1255H38.4359V29.3755H36.3827V23.188H34.3295V29.3755H32.2763V25.2505H30.2231V29.3755H28.1699V31.438H30.2231H32.2763H34.3295H36.3827H38.4359H40.4891H42.5423H44.5955H46.6487V29.3755H44.5955V19.063Z" fill="#0D4E9E"/>
<path id="Vector_3" d="M36.514 17.2968L38.8937 18.8901C39.1025 19.0298 39.3551 19.0879 39.6036 19.0533C39.8522 19.0187 40.0795 18.8939 40.2426 18.7024L46.4022 11.4837L44.8439 10.1431L39.2756 16.6678L36.9534 15.1116C36.7559 14.9793 36.5189 14.9199 36.2827 14.9434C36.0465 14.9669 35.8257 15.0719 35.6579 15.2405L28.4717 22.4593L29.9233 23.9175L36.514 17.2968Z" fill="#0D4E9E"/>
</g>
</svg>
