<svg width="66" height="62" viewBox="0 0 66 62" fill="none" xmlns="http://www.w3.org/2000/svg">
<g id="Group 2878">
<g id="Group 2800">
<path id="Vector" d="M44.4872 56.1815C44.4872 56.9914 44.171 57.7682 43.6082 58.3409C43.0454 58.9136 42.282 59.2353 41.486 59.2353H5.47171C4.67575 59.2353 3.91238 58.9136 3.34955 58.3409C2.78672 57.7682 2.47052 56.9914 2.47052 56.1815V5.28408C2.47052 4.47415 2.78672 3.69739 3.34955 3.12468C3.91238 2.55198 4.67575 2.23023 5.47171 2.23023H36.484V7.31997C36.484 8.1299 36.8002 8.90666 37.3631 9.47937C37.9259 10.0521 38.6893 10.3738 39.4852 10.3738H44.4872V31.7507H46.488V9.35587C46.488 9.08592 46.3825 8.82704 46.1949 8.63618L38.1917 0.492595C38.0042 0.301679 37.7497 0.194394 37.4844 0.194336H5.47171C4.14559 0.195952 2.87424 0.73271 1.93653 1.68687C0.998819 2.64103 0.471315 3.93469 0.469727 5.28408V56.1815C0.471315 57.5309 0.998819 58.8245 1.93653 59.7787C2.87424 60.7329 4.14559 61.2696 5.47171 61.2712H41.486C42.8122 61.2696 44.0835 60.7329 45.0212 59.7787C45.9589 58.8245 46.4864 57.5309 46.488 56.1815V52.1097H44.4872V56.1815ZM38.4848 7.31997V3.66961L43.0727 8.33792H39.4852C39.2199 8.33792 38.9655 8.23067 38.7778 8.03977C38.5902 7.84887 38.4848 7.58995 38.4848 7.31997Z" fill="#0D4E9E"/>
<path id="Vector_2" d="M11.6461 6.30225H13.6469V8.33814H11.6461V6.30225ZM15.6477 6.30225H21.6501V8.33814H15.6477V6.30225ZM11.6461 10.374H21.6501V12.4099H11.6461V10.374ZM64.5372 27.8115C63.5983 26.8585 62.3264 26.3233 61.0002 26.3233C59.6741 26.3233 58.4022 26.8585 57.4633 27.8115L39.7783 45.8068C39.639 45.9487 39.544 46.1293 39.5052 46.326L38.8569 49.6231L36.9492 51.5643C36.6667 51.847 36.4421 52.1838 36.2882 52.5553C36.1343 52.9268 36.0542 53.3256 36.0526 53.7287C36.0509 54.1318 36.1277 54.5313 36.2785 54.9041C36.4294 55.2768 36.6512 55.6155 36.9313 55.9006C37.2114 56.1857 37.5442 56.4115 37.9106 56.5651C38.2769 56.7187 38.6694 56.7969 39.0656 56.7953C39.4618 56.7937 39.8537 56.7123 40.2188 56.5558C40.5839 56.3993 40.915 56.1708 41.1929 55.8835L43.1016 53.9422L46.3419 53.2826C46.5353 53.2429 46.7128 53.1458 46.8521 53.0037L64.5372 35.0084C65.4734 34.0531 65.9992 32.7591 65.9992 31.41C65.9992 30.0608 65.4734 28.7668 64.5372 27.8115ZM40.8647 49.7911L41.3359 47.3907L45.2945 51.4188L42.9366 51.8992L40.8647 49.7911ZM42.6074 45.8068L54.6332 33.569L56.0488 35.0084L44.023 47.2462L42.6074 45.8068ZM45.4376 48.6856L57.4643 36.4488L58.8789 37.8892L46.8521 50.1249L45.4376 48.6856ZM56.0488 32.1296L56.7561 31.41L61.0007 35.7291L60.2925 36.4498L56.0488 32.1296ZM39.7773 54.4441C39.5869 54.6291 39.3338 54.7323 39.0705 54.7323C38.8073 54.7323 38.5541 54.6291 38.3637 54.4441C38.2707 54.3496 38.1969 54.2373 38.1466 54.1137C38.0963 53.9901 38.0703 53.8577 38.0703 53.7239C38.0703 53.5901 38.0963 53.4577 38.1466 53.3341C38.1969 53.2105 38.2707 53.0982 38.3637 53.0037L39.7783 51.5643L41.1939 53.0047L39.7773 54.4441ZM63.1226 33.57L62.4153 34.2897L58.1706 29.9706L58.8779 29.2509C59.1566 28.9673 59.4875 28.7423 59.8516 28.5888C60.2158 28.4354 60.6061 28.3564 61.0002 28.3564C61.3944 28.3564 61.7847 28.4354 62.1488 28.5888C62.513 28.7423 62.8439 28.9673 63.1226 29.2509C63.4013 29.5345 63.6224 29.8712 63.7732 30.2417C63.9241 30.6122 64.0017 31.0094 64.0017 31.4105C64.0017 31.8115 63.9241 32.2087 63.7732 32.5792C63.6224 32.9498 63.4013 33.2864 63.1226 33.57ZM46.7501 29.3181C46.9375 29.1259 47.0427 28.8661 47.0427 28.5953C47.0427 28.3246 46.9375 28.0648 46.7501 27.8726L36.8461 17.7949C36.6547 17.6133 36.4026 17.5123 36.1409 17.5123C35.8791 17.5123 35.6271 17.6133 35.4356 17.7949L32.8145 20.4619L31.2839 20.7673L28.3628 17.7949C28.172 17.6074 27.9177 17.5017 27.6525 17.4997H23.821L21.29 14.9141C21.1011 14.7234 20.8458 14.6164 20.5797 14.6164C20.3136 14.6164 20.0583 14.7234 19.8694 14.9141L9.96545 24.9918C9.77803 25.184 9.67285 25.4438 9.67285 25.7145C9.67285 25.9853 9.77803 26.2451 9.96545 26.4373L17.1683 33.7665C16.9525 34.2183 16.8506 34.7176 16.8719 35.2194C16.8931 35.7213 17.0367 36.2098 17.2898 36.6411C17.5429 37.0723 17.8975 37.4327 18.3216 37.6897C18.7458 37.9467 19.2261 38.0922 19.7193 38.1131C19.7462 38.8654 20.0539 39.5789 20.5797 40.1083C21.1017 40.6422 21.8011 40.9581 22.5405 40.9939C22.5775 41.7458 22.8876 42.4568 23.4108 42.9892C23.9339 43.5215 24.6327 43.8371 25.3716 43.8747C25.404 44.4624 25.6026 45.0281 25.9435 45.5036C26.2844 45.9792 26.7532 46.3443 27.2933 46.5551C27.8334 46.7659 28.4219 46.8134 28.9879 46.6918C29.5539 46.5703 30.0733 46.2848 30.4836 45.8699L31.544 46.9489C31.8223 47.2328 32.1528 47.4581 32.5168 47.6118C32.8807 47.7655 33.2708 47.8446 33.6649 47.8446C34.0589 47.8446 34.4491 47.7655 34.813 47.6118C35.1769 47.4581 35.5075 47.2328 35.7857 46.9489C36.3135 46.4167 36.6213 45.6993 36.6461 44.9436C37.3863 44.915 38.0887 44.6037 38.6134 44.0717C39.1381 43.5397 39.4465 42.826 39.4772 42.073C40.2176 42.0398 40.9189 41.7257 41.443 41.1925C41.967 40.6592 42.2758 39.9456 42.3083 39.1922C42.8882 39.1641 43.4476 38.965 43.9183 38.6193C44.389 38.2736 44.7508 37.796 44.9597 37.2448C45.1685 36.6936 45.2154 36.0926 45.0945 35.5148C44.9737 34.937 44.6904 34.4074 44.2791 33.9905L43.2187 32.9114L46.7501 29.3181ZM12.0863 25.7145L20.5797 17.0823L21.9902 18.5176L13.5069 27.16L12.0863 25.7145ZM14.9174 28.5953L23.821 19.5356H27.2423L35.0754 27.5163C35.1704 27.6092 35.2459 27.7206 35.2975 27.844C35.3491 27.9673 35.3757 28.0999 35.3757 28.234C35.3757 28.368 35.3491 28.5006 35.2975 28.6239C35.2459 28.7473 35.1704 28.8587 35.0754 28.9516C34.8863 29.1378 34.6334 29.2419 34.3702 29.2419C34.107 29.2419 33.8541 29.1378 33.6649 28.9516L29.4232 24.6355C29.2308 24.4516 28.9768 24.3493 28.7129 24.3493C28.449 24.3493 28.195 24.4516 28.0026 24.6355C27.4317 25.1915 26.672 25.5018 25.8818 25.5018C25.0916 25.5018 24.3318 25.1915 23.7609 24.6355L22.3504 26.0708C22.7136 26.4339 23.1284 26.7393 23.5809 26.9768L18.4588 32.1989L14.9174 28.5953ZM30.1235 41.1874C29.7558 41.5678 29.4923 42.0394 29.3589 42.5554C29.2255 43.0714 29.227 43.614 29.3632 44.1292L29.063 44.4244C28.9705 44.5201 28.8598 44.5956 28.7377 44.6463C28.6156 44.6971 28.4846 44.722 28.3528 44.7196C28.2224 44.7219 28.0929 44.6968 27.9725 44.6461C27.852 44.5953 27.7431 44.5198 27.6525 44.4244C27.4662 44.2364 27.3605 43.981 27.3587 43.714C27.3568 43.4469 27.4588 43.19 27.6425 42.9993C27.6451 42.9993 27.6477 42.9982 27.6496 42.9963C27.6514 42.9944 27.6525 42.9918 27.6525 42.9891L30.4836 40.1185V40.1083L29.063 38.673L26.2319 41.5538C26.2219 41.5538 26.2219 41.5538 26.2219 41.564C26.03 41.7417 25.7792 41.8394 25.5197 41.8375C25.2601 41.8356 25.0108 41.7343 24.8214 41.5538C24.6354 41.3608 24.5312 41.1013 24.5312 40.8311C24.5312 40.5608 24.6354 40.3013 24.8214 40.1083L27.6525 37.2275L26.2419 35.7922L23.4108 38.673C23.3175 38.7679 23.2068 38.8432 23.0849 38.8946C22.963 38.9459 22.8324 38.9724 22.7005 38.9724C22.5686 38.9724 22.438 38.9459 22.3161 38.8946C22.1942 38.8432 22.0835 38.7679 21.9902 38.673C21.897 38.5781 21.823 38.4654 21.7725 38.3414C21.722 38.2174 21.696 38.0845 21.696 37.9503C21.696 37.816 21.722 37.6831 21.7725 37.5591C21.823 37.4351 21.897 37.3224 21.9902 37.2275L24.8214 34.3569L23.4108 32.9114L20.5797 35.7922C20.3885 35.9784 20.134 36.0823 19.8694 36.0823C19.6048 36.0823 19.3503 35.9784 19.1591 35.7922C18.9728 35.6015 18.8682 35.3435 18.8682 35.0746C18.8682 34.8056 18.9728 34.5476 19.1591 34.3569L25.8318 27.557C25.8518 27.557 25.8618 27.5672 25.8818 27.5672C26.8641 27.5705 27.8253 27.2764 28.6429 26.7223L32.2543 30.3971C32.8262 30.951 33.5856 31.2599 34.3752 31.2599C35.1647 31.2599 35.9241 30.951 36.496 30.3971C37.048 29.8352 37.3631 29.0764 37.3743 28.282C37.3855 27.4875 37.092 26.7199 36.556 26.1421L41.8081 31.4761L41.508 31.7713C41.0008 31.634 40.467 31.634 39.9599 31.7715C39.4527 31.909 38.9897 32.1792 38.6168 32.5551C38.091 33.0846 37.7834 33.7981 37.7565 34.5503C37.011 34.5835 36.3052 34.9018 35.7803 35.4415C35.2555 35.9813 34.9501 36.7027 34.9254 37.4617C34.1857 37.4811 33.4811 37.7867 32.9551 38.3163C32.4291 38.8458 32.1212 39.5595 32.0942 40.3119C31.3546 40.3503 30.654 40.6615 30.1235 41.1874ZM34.3752 45.5136C34.1828 45.6975 33.9288 45.7999 33.6649 45.7999C33.401 45.7999 33.147 45.6975 32.9546 45.5136L31.544 44.0681C31.4393 43.9769 31.3543 43.8646 31.2942 43.7383C31.2342 43.612 31.2004 43.4744 31.1951 43.3343C31.1898 43.1941 31.213 43.0543 31.2633 42.9236C31.3136 42.793 31.3899 42.6744 31.4874 42.5752C31.5849 42.476 31.7014 42.3983 31.8298 42.3472C31.9582 42.296 32.0956 42.2724 32.2334 42.2778C32.3711 42.2832 32.5063 42.3175 32.6304 42.3786C32.7545 42.4397 32.8649 42.5263 32.9546 42.6328L34.3752 44.0681C34.5626 44.2603 34.6678 44.5201 34.6678 44.7909C34.6678 45.0616 34.5626 45.3214 34.3752 45.5136ZM37.2063 42.6328C37.0174 42.8236 36.7621 42.9306 36.496 42.9306C36.2299 42.9306 35.9746 42.8236 35.7857 42.6328L34.3752 41.1874C34.1888 40.9966 34.0842 40.7386 34.0842 40.4697C34.0842 40.2008 34.1888 39.9428 34.3752 39.752C34.5626 39.5625 34.8161 39.456 35.0804 39.456C35.3447 39.456 35.5983 39.5625 35.7857 39.752L37.2063 41.1874C37.3923 41.3803 37.4965 41.6398 37.4965 41.9101C37.4965 42.1804 37.3923 42.4399 37.2063 42.6328ZM40.0274 39.752C39.8382 39.9382 39.5853 40.0423 39.3221 40.0423C39.0589 40.0423 38.806 39.9382 38.6168 39.752L37.2063 38.3066C37.1111 38.2149 37.0354 38.1044 36.9838 37.9819C36.9322 37.8593 36.9058 37.7273 36.9062 37.594C36.908 37.3246 37.014 37.0668 37.2012 36.8763C37.3884 36.6858 37.6418 36.5779 37.9066 36.576C38.172 36.5771 38.4266 36.6829 38.6168 36.8712L40.0274 38.3167C40.2137 38.5075 40.3183 38.7655 40.3183 39.0344C40.3183 39.3033 40.2137 39.5613 40.0274 39.752ZM42.8585 36.8712C42.6711 37.0608 42.4175 37.1673 42.1533 37.1673C41.889 37.1673 41.6354 37.0608 41.448 36.8712L40.0274 35.4359C39.84 35.2437 39.7348 34.984 39.7348 34.7132C39.7348 34.4424 39.84 34.1826 40.0274 33.9905C40.2187 33.8037 40.4727 33.6982 40.7377 33.6952C41.0031 33.6963 41.2577 33.8021 41.448 33.9905L42.8585 35.4359C42.9535 35.5288 43.029 35.6403 43.0806 35.7636C43.1322 35.8869 43.1588 36.0196 43.1588 36.1536C43.1588 36.2876 43.1322 36.4203 43.0806 36.5436C43.029 36.6669 42.9535 36.7784 42.8585 36.8712ZM34.7253 21.3984L36.1459 19.9529L44.6292 28.5953L43.2187 30.0306L34.7253 21.3984ZM24.6513 53.1279H34.6553V55.1638H24.6513V53.1279ZM11.6461 42.9484H19.6493V44.9843H11.6461V42.9484ZM11.6461 47.0202H21.6501V49.0561H11.6461V47.0202ZM11.6461 38.8766H17.6485V40.9125H11.6461V38.8766Z" fill="#0D4E9E"/>
</g>
</g>
</svg>
