<svg width="61" height="57" viewBox="0 0 61 57" fill="none" xmlns="http://www.w3.org/2000/svg">
<g id="Group 2790">
<path id="Path 3" d="M34.9009 32.4207H10.5192C10.1792 32.4207 9.85317 32.5557 9.61276 32.7961C9.37236 33.0365 9.2373 33.3626 9.2373 33.7026C9.2373 34.0425 9.37236 34.3686 9.61276 34.609C9.85317 34.8494 10.1792 34.9844 10.5192 34.9844H34.9009C35.2409 34.9844 35.5669 34.8494 35.8073 34.609C36.0477 34.3686 36.1828 34.0425 36.1828 33.7026C36.1828 33.3626 36.0477 33.0365 35.8073 32.7961C35.5669 32.5557 35.2409 32.4207 34.9009 32.4207Z" fill="#0D4E9E"/>
<path id="Compound Path" d="M37.6685 0.372803H6.96204C5.26333 0.37898 3.63649 1.05898 2.43868 2.26352C1.24087 3.46806 0.569986 5.09869 0.573326 6.79741V40.8638C0.569519 41.1959 0.695711 41.5163 0.92495 41.7567L14.6091 55.8669C14.7272 55.9909 14.869 56.0899 15.0261 56.1581C15.1832 56.2262 15.3525 56.2621 15.5237 56.2635H37.6685C41.2027 56.2635 44.0296 53.3731 44.0296 49.8389V6.79741C44.0296 3.26322 41.2027 0.372803 37.6685 0.372803ZM14.2896 51.8055L4.86524 42.1626H12.9599C13.6667 42.1626 14.2896 42.7208 14.2896 43.4276V51.8055ZM41.4658 49.8389C41.471 50.3408 41.3772 50.8388 41.1899 51.3044C41.0025 51.7701 40.7253 52.1943 40.3741 52.5528C40.0228 52.9113 39.6043 53.1971 39.1426 53.3939C38.6808 53.5907 38.1849 53.6946 37.683 53.6997H16.8534V43.4276C16.8534 41.3071 15.0804 39.5988 12.9599 39.5988H3.13712V6.79741C3.1331 5.77844 3.53364 4.79953 4.2508 4.07565C4.96795 3.35176 5.94308 2.94209 6.96204 2.9366H37.6685C38.682 2.94307 39.6514 3.35186 40.3636 4.07305C41.0757 4.79423 41.4723 5.76876 41.466 6.78229V49.8389H41.4658Z" fill="#0D4E9E"/>
<path id="Path" d="M34.9009 17.0374H10.5192C10.1792 17.0374 9.85317 17.1724 9.61276 17.4128C9.37236 17.6532 9.2373 17.9793 9.2373 18.3193C9.2373 18.6592 9.37236 18.9853 9.61276 19.2257C9.85317 19.4661 10.1792 19.6011 10.5192 19.6011H34.9009C35.2409 19.6011 35.5669 19.4661 35.8073 19.2257C36.0477 18.9853 36.1828 18.6592 36.1828 18.3193C36.1828 17.9793 36.0477 17.6532 35.8073 17.4128C35.5669 17.1724 35.2409 17.0374 34.9009 17.0374Z" fill="#0D4E9E"/>
<path id="Path 2" d="M34.9009 24.729H10.5192C10.1792 24.729 9.85317 24.8641 9.61276 25.1045C9.37236 25.3449 9.2373 25.6709 9.2373 26.0109C9.2373 26.3509 9.37236 26.6769 9.61276 26.9173C9.85317 27.1577 10.1792 27.2928 10.5192 27.2928H34.9009C35.2409 27.2928 35.5669 27.1577 35.8073 26.9173C36.0477 26.6769 36.1828 26.3509 36.1828 26.0109C36.1828 25.6709 36.0477 25.3449 35.8073 25.1045C35.5669 24.8641 35.2409 24.729 34.9009 24.729Z" fill="#0D4E9E"/>
<path id="Path 4" d="M10.5192 12.4229H21.7759C22.1159 12.4229 22.442 12.2879 22.6824 12.0475C22.9228 11.8071 23.0578 11.481 23.0578 11.141C23.0578 10.801 22.9228 10.475 22.6824 10.2346C22.442 9.99419 22.1159 9.85913 21.7759 9.85913H10.5192C10.1792 9.85913 9.85317 9.99419 9.61276 10.2346C9.37236 10.475 9.2373 10.801 9.2373 11.141C9.2373 11.481 9.37236 11.8071 9.61276 12.0475C9.85317 12.2879 10.1792 12.4229 10.5192 12.4229Z" fill="#0D4E9E"/>
<path id="Compound Path 2" d="M54.8554 1.63232C53.3434 1.63426 51.8939 2.23547 50.8244 3.30422C49.7549 4.37297 49.1526 5.8221 49.1497 7.33407L49.124 46.0473C49.1239 46.2535 49.1735 46.4567 49.2686 46.6396L53.7182 55.1974C53.8265 55.4055 53.9897 55.58 54.1903 55.7017C54.3908 55.8235 54.6209 55.8878 54.8555 55.8878C55.0901 55.8878 55.3202 55.8235 55.5208 55.7017C55.7213 55.58 55.8846 55.4055 55.9928 55.1974L60.4424 46.6396C60.5375 46.4567 60.5871 46.2535 60.587 46.0473L60.5614 7.33407C60.5583 5.82207 59.9561 4.37292 58.8865 3.30417C57.817 2.23541 56.3674 1.63422 54.8554 1.63232ZM58.0024 14.6024H51.7083L51.7091 13.3205H58.0013L58.0024 14.6024ZM58.0042 17.1662L58.0223 44.727H51.6887L51.707 17.1662H58.0042ZM54.8556 4.19612C55.6884 4.19727 56.4867 4.52848 57.0756 5.11718C57.6646 5.70587 57.9962 6.50404 57.9977 7.33676L57.9999 10.7567H51.7113L51.7135 7.33638C51.7151 6.5037 52.0467 5.70561 52.6357 5.117C53.2247 4.52838 54.023 4.19724 54.8556 4.19612ZM54.8556 51.7879L52.5173 47.2908H57.1937L54.8556 51.7879Z" fill="#0D4E9E"/>
</g>
</svg>
