<svg width="71" height="71" viewBox="0 0 71 71" fill="none" xmlns="http://www.w3.org/2000/svg">
<path fill-rule="evenodd" clip-rule="evenodd" d="M41.714 0.920899L51.5944 10.8013L51.5944 23.5664C51.6088 36.0142 51.5944 36.346 51.3203 36.6921C51.1039 36.9806 50.9164 37.0527 50.4404 37.0527C49.9645 37.0527 49.7769 36.9806 49.5606 36.6921C49.2865 36.346 49.2721 36.0286 49.2865 12.46L46.07 12.46C43.0266 12.46 42.8391 12.4456 42.1467 12.1283C41.7428 11.9407 41.1947 11.5225 40.9207 11.2051C40.6466 10.8878 40.3293 10.3685 40.2428 10.0656C40.1129 9.69062 40.0552 8.45017 40.0552 3.22872L3.83686 3.22872L3.13009 3.94992L3.13009 67.1265L3.85128 67.8477L48.5798 67.8477L49.2865 67.1265L49.2865 60.0588L49.6471 59.6982C49.8635 59.4675 50.152 59.3376 50.4404 59.3376C50.7145 59.3376 51.003 59.4675 51.5944 60.0588L51.5944 63.636C51.5944 66.0448 51.5367 67.3862 51.4068 67.7612C51.3203 68.0785 51.003 68.5978 50.7145 68.9151C50.426 69.2469 49.9212 69.6507 48.9981 70.1556L3.41856 70.1556L2.82719 69.8382C2.49544 69.6507 1.9906 69.2469 1.70212 68.9151C1.41364 68.5978 1.09632 68.0785 1.00978 67.7612C0.865536 67.3285 0.822265 60.2319 0.822265 35.5382C0.822265 10.8445 0.865537 3.74798 1.00978 3.31526C1.09632 2.99794 1.44249 2.46425 1.75982 2.11808C2.07714 1.78633 2.56756 1.38246 2.84161 1.2238C3.33202 0.949746 3.72147 0.935322 41.714 0.920899ZM42.7237 9.79159C43.0843 10.1522 43.1275 10.1522 45.3488 10.1522L47.6278 10.1522C43.6612 6.12792 42.4785 4.95959 42.4352 4.95959C42.3919 4.95959 42.3631 5.96926 42.3631 7.19529C42.3631 9.38772 42.3631 9.43099 42.7237 9.79159ZM66.5231 28.485C66.8404 28.4705 67.3885 28.5715 67.7491 28.6869C68.1097 28.8023 68.629 29.0908 68.903 29.3071C69.1771 29.5379 69.5809 30.0572 69.7973 30.461C70.1002 31.0236 70.2012 31.413 70.2012 32.0477C70.2012 32.5958 70.1002 33.0862 69.8983 33.5189C69.7252 33.8795 68.9896 34.7738 66.9558 36.8508L66.9558 37.8172C66.9702 38.6826 67.0135 38.8413 67.4318 39.3606C67.6914 39.6779 68.0376 40.226 68.2107 40.5866C68.4703 41.1059 68.5424 41.4809 68.5424 42.4617C68.5424 43.4569 68.4703 43.8175 68.1963 44.4089C67.9366 44.9426 66.9991 45.9667 64.547 48.4188C61.893 51.0439 61.1718 51.693 60.8545 51.693C60.6381 51.7074 60.292 51.5776 60.0612 51.4045C59.7583 51.1737 59.6717 51.0006 59.6717 50.5823C59.6717 50.0631 59.8592 49.8612 62.9027 46.7889C65.773 43.9185 66.1481 43.4714 66.2346 42.9665C66.2923 42.6492 66.2923 42.1732 66.249 41.928C66.2058 41.6684 66.0038 41.2789 65.4557 40.6587L45.32 60.78L41.0216 62.0061C38.6706 62.684 36.6079 63.2321 36.4493 63.2321C36.2906 63.2321 36.0021 63.0734 35.8002 62.8715C35.5983 62.6696 35.4396 62.3811 35.4396 62.2224C35.4396 62.0638 35.9877 60.0011 37.8917 53.3517L48.4644 42.779C56.3687 34.8603 59.1813 32.1342 59.6717 31.9034C60.1477 31.6871 60.5227 31.6149 61.8065 31.7159L63.22 30.3312C64.2441 29.3504 64.8355 28.8888 65.2971 28.7302C65.6576 28.6003 66.2058 28.485 66.5231 28.485ZM63.6383 33.216L65.4557 35.0334C67.677 32.7833 67.8789 32.5092 67.8933 32.1198C67.8933 31.7736 67.7635 31.514 67.4606 31.2111C67.1577 30.9082 66.8837 30.7783 66.5808 30.7783C66.2058 30.7783 65.9029 30.9947 64.8788 32.0044L63.6383 33.216ZM48.6375 45.909L52.7483 50.0198C62.0228 40.7453 64.7201 37.9614 64.7201 37.8316C64.7201 37.7162 63.8979 36.7931 62.8883 35.7834C61.8642 34.7738 60.941 33.9372 60.8256 33.9372C60.7103 33.9372 57.912 36.6344 54.6234 39.9231L48.6375 45.909ZM40.5601 53.9864L44.6709 58.0972L51.0895 51.6786C47.9595 48.5486 47.022 47.6399 46.9787 47.6399C46.9354 47.6399 45.4786 49.0678 43.7333 50.8131L40.5601 53.9864ZM38.8436 58.3857C38.5552 59.4242 38.3388 60.2752 38.3532 60.304C38.3821 60.3329 39.2331 60.1021 40.2716 59.8136C41.2957 59.5252 42.19 59.2511 42.2477 59.2078C42.3054 59.1501 41.7284 58.4722 40.9495 57.6933C40.1851 56.9 39.5071 56.3231 39.4639 56.3952C39.4062 56.4529 39.1321 57.3616 38.8436 58.3857ZM15.376 10.1378L34.7184 10.1378L35.079 10.4984C35.3098 10.7291 35.4396 11.032 35.4396 11.2917C35.4396 11.5657 35.2954 11.8686 34.7328 12.4456L15.3904 12.4456L15.0298 12.085C14.799 11.8542 14.6692 11.5657 14.6692 11.2917C14.6836 11.032 14.8279 10.7147 15.0298 10.4984L15.376 10.1378ZM8.4525 17.0612L34.7184 17.0612L35.079 17.4218C35.2954 17.6382 35.4396 17.9411 35.4396 18.2151C35.4396 18.4748 35.2954 18.7777 34.7328 19.3691L8.46693 19.3691L8.10633 19.0085C7.87555 18.7777 7.74573 18.4892 7.74573 18.2007C7.76016 17.9411 7.88997 17.6238 8.10633 17.4074L8.4525 17.0612ZM41.1947 17.0612C43.9353 17.0612 43.9497 17.0612 44.3103 17.4218C44.5266 17.6526 44.6709 17.9555 44.6709 18.2151C44.6709 18.4892 44.5266 18.7921 44.3103 19.0085C43.9641 19.3691 43.9497 19.3691 41.2092 19.3691C38.4686 19.3691 38.4686 19.3691 38.108 19.0085C37.8772 18.7777 37.7474 18.4892 37.7474 18.2151C37.7618 17.9555 37.8917 17.6382 38.108 17.4218C38.4542 17.0757 38.4686 17.0612 41.1947 17.0612ZM8.4525 23.9847L43.9497 23.9847L44.3103 24.3453C44.5266 24.5761 44.6709 24.879 44.6709 25.1386C44.6709 25.4127 44.5267 25.7156 43.9641 26.2925L8.46693 26.2925L8.10633 25.9319C7.87555 25.7011 7.74573 25.4127 7.74573 25.1386C7.76016 24.879 7.88997 24.5617 8.10633 24.3453L8.4525 23.9847ZM11.2219 30.9082C13.9336 30.9082 13.948 30.9082 14.3086 31.2688C14.525 31.4851 14.6692 31.788 14.6692 32.0621C14.6692 32.3217 14.525 32.639 14.3086 32.8554C13.9624 33.216 13.948 33.216 11.2507 33.216C8.74098 33.2304 8.5102 33.2016 8.13518 32.9275C7.83227 32.6967 7.73131 32.5092 7.73131 32.0765C7.71688 31.6149 7.789 31.4418 8.10633 31.2111C8.48135 30.9226 8.69771 30.9082 11.2219 30.9082ZM43.9497 30.9082L44.3103 31.2688C44.5266 31.4851 44.6709 31.788 44.6709 32.0621C44.6709 32.3217 44.5267 32.639 43.9641 33.216L30.8672 33.216C17.9146 33.2304 17.7559 33.216 17.3665 32.9275C17.0636 32.6967 16.9626 32.5092 16.9626 32.0765C16.9482 31.6149 17.0203 31.4418 17.3376 31.2111C17.7415 30.9082 17.8136 30.9082 43.9497 30.9082ZM8.4525 37.8316L43.9497 37.8316L44.3103 38.1922C44.5266 38.4086 44.6709 38.7115 44.6709 38.9855C44.6709 39.2452 44.5267 39.5625 43.9641 40.1395L8.46693 40.1395L8.10633 39.7789C7.87555 39.5481 7.74573 39.2596 7.74573 38.9711C7.74573 38.7115 7.88997 38.3942 8.10633 38.1778L8.4525 37.8316ZM8.4525 44.7551L25.4871 44.7551L25.8477 45.1157C26.0641 45.3465 26.2083 45.6494 26.2083 45.909C26.2083 46.1831 26.0641 46.486 25.5015 47.0629L8.46693 47.0629L8.10633 46.7023C7.87555 46.4715 7.74573 46.1975 7.74573 45.909C7.74573 45.6494 7.88997 45.3321 8.10633 45.1157L8.4525 44.7551ZM31.9634 44.7551C34.704 44.7551 34.7184 44.7551 35.079 45.1157C35.2954 45.3465 35.4396 45.6349 35.4396 45.909C35.4396 46.1686 35.2954 46.486 35.079 46.7023C34.7184 47.0629 34.7184 47.0629 31.9779 47.0629C29.2373 47.0629 29.2229 47.0629 28.8767 46.7023C28.6315 46.4715 28.5161 46.1831 28.5161 45.909C28.5161 45.6349 28.6604 45.3176 28.8767 45.1157C29.2085 44.7551 29.2373 44.7551 31.9634 44.7551ZM25.9487 58.5299C26.4824 58.5732 27.2613 58.7318 27.6795 58.8905C28.0978 59.0492 28.7325 59.4242 29.1075 59.7127C29.4681 60.0156 30.0018 60.5781 30.3047 60.982C30.6076 61.4147 30.824 61.8618 30.824 62.0926C30.824 62.3234 30.6653 62.6551 30.4634 62.8571C30.2326 63.0879 29.9441 63.2177 29.67 63.2177C29.396 63.2177 29.1075 63.0879 28.9056 62.8859C28.7325 62.6984 28.4152 62.3234 28.2132 62.0493C28.0113 61.7753 27.492 61.3858 27.0593 61.1551C26.5401 60.8954 26.0496 60.7656 25.6314 60.7656C25.2708 60.7656 24.7226 60.8377 24.4053 60.9243C24.088 60.9964 22.9774 61.4868 21.9533 62.0061C20.7032 62.6311 19.7176 63.0157 18.9964 63.16C18.2752 63.3138 17.6261 63.3571 17.0491 63.2898C16.5732 63.2321 15.852 63.0734 15.4625 62.9148C15.0586 62.7705 14.4384 62.4099 14.0922 62.1215C13.7316 61.833 13.198 61.2849 12.8951 60.8954C12.52 60.405 12.3614 60.0444 12.3614 59.7127C12.3614 59.4386 12.4912 59.1213 12.6787 58.9194C12.9095 58.6886 13.1691 58.602 13.5441 58.602C14.0345 58.602 14.1355 58.6741 14.6692 59.3953C14.9865 59.8281 15.5202 60.3473 15.852 60.5493C16.1837 60.7512 16.7895 60.9531 17.1934 60.9964C17.5972 61.0541 18.2175 61.0252 18.6358 60.9243C19.0252 60.8377 20.1935 60.3329 21.2321 59.8136C22.2706 59.2944 23.511 58.7895 24.0447 58.6741C24.5928 58.5443 25.3717 58.4866 25.9487 58.5299Z" fill="#0D4E9E"/>
</svg>
