<svg width="70" height="88" viewBox="0 0 70 88" fill="none" xmlns="http://www.w3.org/2000/svg">
<path d="M4.84375 42.4318H13.5312V39.7249H4.84375V32.534L15.0071 27.6622L14.2273 25.1357L3.36795 30.3412C3.16308 30.4394 2.98691 30.6127 2.86265 30.8382C2.73838 31.0637 2.67187 31.3308 2.67188 31.6044V45.1386H4.84375V42.4318ZM65.6562 49.1989H52.625C52.337 49.1989 52.0608 49.3415 51.8571 49.5953C51.6535 49.8491 51.5391 50.1934 51.5391 50.5523V61.3797C51.5391 61.7386 51.6535 62.0829 51.8571 62.3367C52.0608 62.5905 52.337 62.7331 52.625 62.7331H65.6562V77.0035L53.0149 70.9438C52.7669 70.8249 52.4925 70.8235 52.2437 70.9398L40.6797 76.3445V69.5002C40.6797 69.2707 40.6328 69.0449 40.5436 68.8441C40.4543 68.6433 40.3255 68.4741 40.1693 68.3525L31.4818 61.5854C31.3092 61.451 31.1098 61.3797 30.9062 61.3797H26.5625C26.2745 61.3797 25.9983 61.5223 25.7946 61.7761C25.591 62.0299 25.4766 62.3742 25.4766 62.7331V74.3143L18.9609 71.2691V62.7331C18.9609 62.3742 18.8465 62.0299 18.6429 61.7761C18.4392 61.5223 18.163 61.3797 17.875 61.3797H4.84375V53.2591H22.2188C22.5068 53.2591 22.783 53.1166 22.9866 52.8627C23.1903 52.6089 23.3047 52.2647 23.3047 51.9057V45.1386H21.1328V50.5523H4.84375V47.8455H2.67188V80.3276C2.67187 80.5547 2.71773 80.7782 2.80523 80.9774C2.89272 81.1766 3.01904 81.3452 3.17254 81.4676C3.32604 81.59 3.50179 81.6623 3.6836 81.6779C3.86541 81.6934 4.04743 81.6516 4.21289 81.5564L17.9183 73.6728L34.8687 81.5949C35.1145 81.7097 35.3855 81.7097 35.6313 81.5949L52.6201 73.6548L66.3523 80.2374C66.5168 80.3163 66.6942 80.344 66.8693 80.3183C67.0443 80.2926 67.2117 80.2142 67.357 80.0899C67.5023 79.9655 67.6211 79.7989 67.7032 79.6046C67.7852 79.4102 67.8281 79.1938 67.8281 78.9742V46.492H65.6562V49.1989ZM4.84375 64.0865H16.7891V71.3411L4.84375 78.2123V64.0865ZM35.25 78.8822L27.6484 75.3294V64.0865H30.5948L38.5078 70.2504V77.3596L35.25 78.8822ZM53.7109 60.0263V51.9057H65.6562V60.0263H53.7109Z" fill="#0D4E9E"/>
<path d="M67.132 30.3412L53.0149 23.5741C52.7863 23.4646 52.5348 23.4545 52.3011 23.5455L35.25 30.1865L32.3161 29.0438L31.6683 31.6273L34.9261 32.8962C35.137 32.9783 35.363 32.9783 35.5739 32.8962L42.8516 30.0617V57.4973L34.7664 50.7796C34.5881 50.6313 34.3785 50.5522 34.1641 50.5523H31.9922V45.1386H29.8203V51.9057C29.8203 52.2647 29.9347 52.6089 30.1384 52.8627C30.342 53.1165 30.6182 53.2591 30.9062 53.2591H33.8352L43.3351 61.1523C43.4987 61.2882 43.6887 61.3662 43.8851 61.378C44.0814 61.3899 44.2766 61.3351 44.4499 61.2195C44.6232 61.1039 44.7681 60.9319 44.8691 60.7217C44.9701 60.5116 45.0234 60.2712 45.0234 60.0262V29.2158L51.5391 26.6782V39.7249C51.5391 40.0839 51.6535 40.4281 51.8571 40.6819C52.0608 40.9357 52.337 41.0783 52.625 41.0783H65.6562V43.7852H67.8281V31.6044C67.8281 31.3308 67.7616 31.0637 67.6373 30.8382C67.5131 30.6127 67.3369 30.4394 67.132 30.3412ZM53.7109 38.3715V26.8079L65.6562 32.5339V38.3715H53.7109Z" fill="#0D4E9E"/>
<path d="M20.1841 32.2313C17.4075 33.1295 15.7031 34.8961 15.7031 37.0179C15.7031 37.9792 16.0779 39.7923 18.5878 41.1329C20.1556 41.9704 22.2164 42.4316 24.3906 42.4316C26.5648 42.4316 28.6256 41.9704 30.1935 41.1329C32.7034 39.7923 33.0781 37.9792 33.0781 37.0179C33.0781 34.8746 31.4021 33.1248 28.5989 32.2287C28.9215 31.7648 29.2516 31.2732 29.5824 30.7579C32.6226 26.0216 34.1641 21.7527 34.1641 18.07C34.1641 14.8394 33.1344 11.7412 31.3015 9.45683C29.4686 7.17249 26.9827 5.88916 24.3906 5.88916C21.7985 5.88916 19.3126 7.17249 17.4798 9.45683C15.6469 11.7412 14.6172 14.8394 14.6172 18.07C14.6172 21.7527 16.1587 26.0216 19.1989 30.7579C19.5303 31.2741 19.861 31.7666 20.1841 32.2313ZM30.9063 37.0179C30.9063 37.9721 28.4325 39.7247 24.3906 39.7247C20.3487 39.7247 17.875 37.9721 17.875 37.0179C17.875 36.3029 19.3011 35.0706 21.8967 34.5507C22.9076 35.8417 23.6238 36.6265 23.6755 36.683C23.8735 36.8989 24.1276 37.0179 24.3906 37.0179C24.6537 37.0179 24.9078 36.8989 25.1057 36.683C25.1575 36.6266 25.8738 35.8416 26.8847 34.5505C29.7216 35.1136 30.9063 36.4185 30.9063 37.0179ZM24.3906 8.596C26.406 8.59885 28.3381 9.59791 29.7632 11.374C31.1883 13.1501 31.9899 15.5582 31.9922 18.07C31.9922 21.0712 30.5798 24.8624 27.9076 29.0339C26.8189 30.7215 25.6441 32.3198 24.3904 33.8189C23.1448 32.3297 21.9773 30.7425 20.8949 29.0669C18.2088 24.8823 16.7891 21.0797 16.7891 18.07C16.7913 15.5582 17.593 13.1501 19.018 11.374C20.4431 9.59791 22.3753 8.59885 24.3906 8.596Z" fill="#0D4E9E"/>
<path d="M24.3906 23.4836C25.2497 23.4836 26.0896 23.1661 26.8039 22.5713C27.5182 21.9764 28.075 21.1309 28.4037 20.1417C28.7325 19.1524 28.8185 18.0639 28.6509 17.0138C28.4833 15.9636 28.0696 14.999 27.4621 14.2419C26.8546 13.4848 26.0807 12.9692 25.238 12.7603C24.3954 12.5514 23.5221 12.6586 22.7283 13.0683C21.9346 13.4781 21.2562 14.172 20.7789 15.0623C20.3016 15.9525 20.0469 16.9992 20.0469 18.0699C20.0482 19.5052 20.5062 20.8813 21.3206 21.8962C22.1349 22.9111 23.239 23.482 24.3906 23.4836ZM24.3906 15.3631C24.8202 15.3631 25.2401 15.5219 25.5973 15.8193C25.9544 16.1167 26.2328 16.5395 26.3972 17.0341C26.5616 17.5287 26.6046 18.0729 26.5208 18.598C26.437 19.1231 26.2301 19.6054 25.9264 19.984C25.6226 20.3625 25.2356 20.6203 24.8143 20.7248C24.393 20.8292 23.9563 20.7756 23.5595 20.5707C23.1626 20.3659 22.8234 20.0189 22.5848 19.5738C22.3461 19.1286 22.2188 18.6053 22.2188 18.0699C22.2194 17.3523 22.4484 16.6643 22.8556 16.1568C23.2628 15.6494 23.8148 15.3639 24.3906 15.3631Z" fill="#0D4E9E"/>
</svg>
