<svg width="222" height="46" viewBox="0 0 222 46" fill="none" xmlns="http://www.w3.org/2000/svg">
<path d="M61.1732 38.4413C58.6431 38.4413 56.6278 38.2648 55.1274 37.9117C53.6564 37.5587 52.4943 36.7644 51.6411 35.5287C50.8173 34.2636 50.4054 32.3661 50.4054 29.8359V20.8775C50.4054 18.2591 50.8173 16.1115 51.6411 14.4345C52.4943 12.7576 53.6269 11.4484 55.0391 10.5069C56.4807 9.56549 58.2606 8.78585 60.3788 8.16803L62.5853 7.59434C63.7916 7.30014 65.1155 6.96181 66.5571 6.57935C67.9986 6.16747 69.2343 5.75559 70.264 5.34371V10.8158C68.587 11.6396 65.7333 12.4928 61.7027 13.3754C59.967 13.7578 58.5842 14.2139 57.5545 14.7434C56.5542 15.2436 55.804 15.9349 55.3039 16.8175C54.8037 17.7001 54.5537 18.8622 54.5537 20.3038V22.6868H54.5978C55.0097 20.9511 55.8629 19.686 57.1573 18.8917C58.4518 18.0973 60.4818 17.7001 63.2473 17.7001C65.6597 17.7001 67.4838 18.0238 68.7194 18.671C69.9845 19.3182 70.8377 20.2891 71.279 21.5836C71.7203 22.8781 71.9409 24.658 71.9409 26.9233V29.8359C71.9409 31.9248 71.6467 33.587 71.0583 34.8226C70.4699 36.0289 69.3961 36.9409 67.8368 37.5587C66.2776 38.1471 64.0564 38.4413 61.1732 38.4413ZM61.2614 34.4255C62.5559 34.4255 63.4974 34.3078 64.0858 34.0724C64.6742 33.8371 65.0566 33.484 65.2332 33.0133C65.4097 32.5426 65.4979 31.8365 65.4979 30.895V25.4229C65.4979 24.3344 65.4097 23.5547 65.2332 23.084C65.0566 22.5839 64.6889 22.2308 64.1299 22.0249C63.5709 21.819 62.6589 21.716 61.3938 21.716C60.0699 21.716 59.0844 21.8484 58.4371 22.1132C57.8193 22.3485 57.3927 22.7457 57.1573 23.3047C56.9514 23.8342 56.8484 24.6139 56.8484 25.6436V30.895C56.8484 31.8071 56.9514 32.5132 57.1573 33.0133C57.3927 33.484 57.8193 33.8371 58.4371 34.0724C59.0844 34.3078 60.0258 34.4255 61.2614 34.4255ZM83.0055 38.4413C81.005 38.4413 79.5045 38.2648 78.5043 37.9117C77.5334 37.5293 76.842 36.8673 76.4301 35.9259C76.0477 34.955 75.8564 33.5134 75.8564 31.6011C75.8564 29.8948 76.0624 28.5562 76.4743 27.5853C76.9156 26.6144 77.6069 25.9231 78.5484 25.5112C79.5192 25.0699 80.8432 24.8492 82.5201 24.8492H89.7574V23.3929C89.7574 22.4809 89.625 21.8042 89.3603 21.3629C89.1249 20.9216 88.6689 20.6127 87.9922 20.4362C87.345 20.2597 86.3594 20.1714 85.0355 20.1714C83.2115 20.1714 80.7108 20.3479 77.5334 20.701V16.641C79.8576 16.3468 82.5789 16.1997 85.6975 16.1997C88.4335 16.1997 90.5371 16.4057 92.0081 16.8175C93.5085 17.2294 94.5823 17.9355 95.2296 18.9358C95.8768 19.9361 96.2004 21.3924 96.2004 23.3047V38H89.8898V36.0583C89.3897 36.9115 88.713 37.5146 87.8598 37.8676C87.0067 38.2501 85.3886 38.4413 83.0055 38.4413ZM85.5209 34.4255C86.8154 34.4255 87.7422 34.3813 88.3011 34.2931C88.713 34.2342 88.9925 34.146 89.1396 34.0283C89.3161 33.9106 89.4632 33.7194 89.5809 33.4546C89.6986 33.2487 89.7574 32.9397 89.7574 32.5279V28.3796H85.3444C84.3441 28.3796 83.6381 28.4532 83.2262 28.6003C82.8143 28.718 82.5348 28.9827 82.3877 29.3946C82.2406 29.7771 82.1671 30.4685 82.1671 31.4687C82.1671 32.4396 82.2406 33.1163 82.3877 33.4987C82.5348 33.8812 82.8143 34.1313 83.2262 34.2489C83.6675 34.3666 84.4324 34.4255 85.5209 34.4255ZM102.84 38.353C102.193 38.353 101.428 38.2648 100.545 38.0883V33.3222C100.898 33.381 101.266 33.4105 101.648 33.4105C102.737 33.4105 103.62 33.0721 104.296 32.3955C104.973 31.7188 105.488 30.3949 105.841 28.4238C106.223 26.4526 106.414 23.5989 106.414 19.8625V16.641H123.14V38H116.697V20.7451H111.798V21.2747C111.798 25.8348 111.401 29.3652 110.607 31.8659C109.813 34.3666 108.768 36.073 107.474 36.985C106.179 37.897 104.635 38.353 102.84 38.353ZM133.923 20.8775H126.862V16.641H147.427V20.8775H140.366V38H133.923V20.8775Z" fill="#FFD521"/>
<path d="M156.247 20.8775H149.186V16.641H169.751V20.8775H162.69V38H156.247V20.8775ZM184.175 38.4413C176.614 38.4413 172.833 36.1318 172.833 31.5129V23.8342C172.833 21.157 173.687 19.2153 175.393 18.0091C177.129 16.8028 179.791 16.1997 183.381 16.1997C186.764 16.1997 189.235 16.7881 190.794 17.9649C192.383 19.1123 193.177 21.0687 193.177 23.8342V29.0416H179.321V30.9833C179.321 32.219 179.762 33.1016 180.644 33.6311C181.527 34.1607 183.116 34.4255 185.411 34.4255C187.529 34.4255 189.912 34.1165 192.56 33.4987V37.6028C189.941 38.1618 187.146 38.4413 184.175 38.4413ZM187.043 25.3788V22.2897C187.043 21.5836 186.749 21.054 186.161 20.701C185.602 20.3479 184.646 20.1714 183.292 20.1714C181.733 20.1714 180.689 20.3479 180.159 20.701C179.6 21.0835 179.321 21.613 179.321 22.2897V25.3788H187.043ZM204.104 27.0557L196.16 16.641H203.618L207.811 22.7751L212.047 16.641H219.505L211.518 27.0557L219.946 38H212.488L207.811 31.2922L203.177 38H195.719L204.104 27.0557Z" fill="white"/>
<path d="M11.9196 19.7763H13.6484V22.0972C13.7748 22.0972 13.8774 22.0814 13.9563 22.0498C14.0353 22.0104 14.1142 21.9433 14.1931 21.8485L15.8509 19.7763H17.6508L15.3536 22.4287C15.6772 22.5787 15.993 22.8748 16.3009 23.3168L17.8284 25.5074H15.8391L14.5721 23.6365C14.43 23.4313 14.2958 23.301 14.1695 23.2458C14.0432 23.1905 13.8695 23.1629 13.6484 23.1629V25.5074H11.9196V19.7763ZM21.3982 25.6259C20.7193 25.6259 20.1786 25.5785 19.776 25.4838C19.3813 25.389 19.0694 25.1759 18.8405 24.8443C18.6195 24.5049 18.509 23.9957 18.509 23.3168V20.9131C18.509 20.2105 18.6195 19.6342 18.8405 19.1843C19.0694 18.7343 19.3734 18.383 19.7523 18.1304C20.1391 17.8778 20.6167 17.6686 21.1851 17.5028L21.7771 17.3489C22.1008 17.2699 22.456 17.1792 22.8428 17.0765C23.2296 16.966 23.5612 16.8555 23.8375 16.745V18.2133C23.3875 18.4343 22.6218 18.6633 21.5403 18.9001C21.0745 19.0027 20.7035 19.1251 20.4272 19.2672C20.1588 19.4014 19.9575 19.5869 19.8233 19.8237C19.6891 20.0605 19.622 20.3723 19.622 20.7591V21.3986H19.6339C19.7444 20.9328 19.9733 20.5934 20.3207 20.3802C20.668 20.1671 21.2127 20.0605 21.9547 20.0605C22.6021 20.0605 23.0915 20.1473 23.423 20.321C23.7625 20.4947 23.9914 20.7552 24.1098 21.1025C24.2282 21.4499 24.2874 21.9275 24.2874 22.5353V23.3168C24.2874 23.8773 24.2085 24.3233 24.0506 24.6549C23.8927 24.9785 23.6046 25.2233 23.1862 25.389C22.7678 25.5469 22.1718 25.6259 21.3982 25.6259ZM21.4219 24.5483C21.7692 24.5483 22.0218 24.5167 22.1797 24.4536C22.3376 24.3904 22.4402 24.2957 22.4876 24.1694C22.535 24.0431 22.5586 23.8536 22.5586 23.601V22.1327C22.5586 21.8406 22.535 21.6314 22.4876 21.5051C22.4402 21.3709 22.3416 21.2762 22.1916 21.2209C22.0416 21.1657 21.7969 21.1381 21.4574 21.1381C21.1022 21.1381 20.8377 21.1736 20.6641 21.2446C20.4983 21.3078 20.3838 21.4144 20.3207 21.5643C20.2654 21.7064 20.2378 21.9156 20.2378 22.1919V23.601C20.2378 23.8457 20.2654 24.0352 20.3207 24.1694C20.3838 24.2957 20.4983 24.3904 20.6641 24.4536C20.8377 24.5167 21.0903 24.5483 21.4219 24.5483Z" fill="white"/>
<path d="M165.974 11.6323L163.631 8.68427L164.534 8.1358L167.265 11.6323H165.974ZM161.586 11.6323V5.57625H162.683V11.6323H161.586ZM162.351 9.07278V8.1358H164.351V9.07278H162.351ZM164.625 8.72998L163.608 8.59286L165.928 5.57625H167.105L164.625 8.72998ZM170.808 11.7009C170.199 11.7009 169.658 11.5676 169.185 11.301C168.713 11.0343 168.34 10.6687 168.066 10.204C167.791 9.73171 167.654 9.19847 167.654 8.60429C167.654 8.00249 167.791 7.46925 168.066 7.00457C168.34 6.53989 168.713 6.17805 169.185 5.91905C169.658 5.65243 170.199 5.51912 170.808 5.51912C171.41 5.51912 171.947 5.65243 172.419 5.91905C172.899 6.17805 173.272 6.53989 173.539 7.00457C173.813 7.46163 173.95 7.99487 173.95 8.60429C173.95 9.20609 173.813 9.73933 173.539 10.204C173.272 10.6687 172.899 11.0343 172.419 11.301C171.947 11.5676 171.41 11.7009 170.808 11.7009ZM170.808 10.7411C171.196 10.7411 171.543 10.6534 171.848 10.4782C172.16 10.303 172.404 10.0555 172.579 9.73552C172.754 9.40796 172.842 9.03088 172.842 8.60429C172.842 8.17008 172.754 7.79681 172.579 7.48449C172.404 7.16454 172.16 6.91697 171.848 6.74176C171.543 6.56655 171.196 6.47895 170.808 6.47895C170.419 6.47895 170.073 6.56655 169.768 6.74176C169.463 6.91697 169.22 7.16454 169.037 7.48449C168.854 7.79681 168.763 8.17008 168.763 8.60429C168.763 9.03088 168.854 9.40796 169.037 9.73552C169.22 10.0555 169.463 10.303 169.768 10.4782C170.073 10.6534 170.419 10.7411 170.808 10.7411ZM175.534 11.6323V5.57625H176.665L179.271 10.0555H178.814L181.487 5.57625H182.516V11.6323H181.522V6.81032L181.705 6.91316L179.259 10.9467H178.779L176.323 6.83317L176.54 6.78747V11.6323H175.534ZM184.651 11.6323V5.57625H190.261V11.6323H189.164V6.26185L189.427 6.53608H185.485L185.748 6.26185V11.6323H184.651ZM196.098 11.6323V10.3526L196.04 10.1126V7.93012C196.04 7.46544 195.903 7.10741 195.629 6.85603C195.362 6.59702 194.959 6.46752 194.418 6.46752C194.06 6.46752 193.709 6.52847 193.367 6.65035C193.024 6.76461 192.734 6.92078 192.498 7.11884L192.041 6.29613C192.353 6.04474 192.727 5.8543 193.161 5.7248C193.603 5.58768 194.064 5.51912 194.544 5.51912C195.374 5.51912 196.014 5.72099 196.463 6.12473C196.913 6.52847 197.137 7.1455 197.137 7.97583V11.6323H196.098ZM194.109 11.7009C193.66 11.7009 193.264 11.6247 192.921 11.4724C192.586 11.32 192.327 11.1105 192.144 10.8439C191.961 10.5697 191.87 10.2611 191.87 9.91834C191.87 9.59078 191.946 9.29369 192.098 9.02707C192.258 8.76045 192.513 8.54716 192.864 8.38718C193.222 8.22721 193.702 8.14723 194.304 8.14723H196.223V8.93566H194.349C193.801 8.93566 193.431 9.02707 193.241 9.2099C193.05 9.39272 192.955 9.61363 192.955 9.87264C192.955 10.1697 193.073 10.4097 193.309 10.5925C193.546 10.7677 193.873 10.8553 194.292 10.8553C194.704 10.8553 195.062 10.7639 195.366 10.5811C195.679 10.3983 195.903 10.1316 196.04 9.78122L196.258 10.5354C196.113 10.8934 195.858 11.1791 195.492 11.3924C195.126 11.598 194.665 11.7009 194.109 11.7009ZM199.113 11.6323V5.57625H200.21V8.14723H203.66V5.57625H204.757V11.6323H203.66V9.09563H200.21V11.6323H199.113ZM206.89 11.6323V5.57625H207.987V9.9869L211.701 5.57625H212.695V11.6323H211.598V7.22168L207.896 11.6323H206.89ZM218.698 11.6323V9.50699L218.869 9.71266H216.938C216.131 9.71266 215.498 9.54127 215.041 9.19847C214.592 8.85567 214.367 8.35671 214.367 7.70159C214.367 7.00076 214.607 6.47133 215.087 6.1133C215.574 5.75527 216.222 5.57625 217.029 5.57625H219.68V11.6323H218.698ZM214.31 11.6323L215.955 9.31273H217.087L215.487 11.6323H214.31ZM218.698 9.16419V6.22757L218.869 6.53608H217.064C216.561 6.53608 216.172 6.6313 215.898 6.82175C215.624 7.00457 215.487 7.30928 215.487 7.73587C215.487 8.52811 215.997 8.92423 217.018 8.92423H218.869L218.698 9.16419Z" fill="white"/>
<path d="M11.1618 8.16187V8.16187C10.4039 8.16187 10.0249 8.16187 9.70543 8.18982C6.1542 8.50051 3.33864 11.3161 3.02795 14.8673C3 15.1868 3 15.5658 3 16.3237V28.5664C3 29.3244 3 29.7033 3.02795 30.0228C3.33864 33.574 6.1542 36.3896 9.70543 36.7003C10.0249 36.7282 10.4039 36.7282 11.1618 36.7282V36.7282" stroke="#FFD521" stroke-width="4.08091" stroke-linecap="square"/>
<path d="M24.2207 8.16187V8.16187C24.9787 8.16187 25.3576 8.16187 25.6771 8.18982C29.2284 8.50051 32.0439 11.3161 32.3546 14.8673C32.3826 15.1868 32.3826 15.5658 32.3826 16.3237V28.5664C32.3826 29.3244 32.3826 29.7033 32.3546 30.0228C32.0439 33.574 29.2284 36.3896 25.6771 36.7003C25.3576 36.7282 24.9787 36.7282 24.2207 36.7282V36.7282" stroke="#FFD521" stroke-width="4.08091" stroke-linecap="square"/>
</svg>
