<svg width="139" height="29" viewBox="0 0 139 29" fill="none" xmlns="http://www.w3.org/2000/svg">
<path d="M38.3588 24.2758C36.7775 24.2758 35.5179 24.1655 34.5801 23.9448C33.6607 23.7242 32.9344 23.2277 32.4011 22.4554C31.8863 21.6647 31.6288 20.4787 31.6288 18.8973V13.2982C31.6288 11.6616 31.8863 10.3193 32.4011 9.27117C32.9344 8.22305 33.6423 7.40479 34.5249 6.81637C35.426 6.22795 36.5384 5.74067 37.8624 5.35452L39.2415 4.99595C39.9954 4.81207 40.8228 4.60061 41.7239 4.36156C42.6249 4.10413 43.3972 3.8467 44.0408 3.58927V7.00944C42.9926 7.52431 41.209 8.05756 38.6898 8.6092C37.6049 8.84825 36.7407 9.13326 36.0971 9.46425C35.4719 9.77684 35.003 10.209 34.6904 10.7606C34.3778 11.3122 34.2215 12.0386 34.2215 12.9396V14.429H34.2491C34.5065 13.3441 35.0398 12.5534 35.8489 12.057C36.658 11.5605 37.9267 11.3122 39.6552 11.3122C41.163 11.3122 42.3031 11.5145 43.0754 11.9191C43.8661 12.3236 44.3993 12.9304 44.6751 13.7395C44.951 14.5485 45.0889 15.661 45.0889 17.0769V18.8973C45.0889 20.2029 44.905 21.2418 44.5372 22.0141C44.1695 22.768 43.4983 23.338 42.5237 23.7242C41.5492 24.0919 40.1609 24.2758 38.3588 24.2758ZM38.414 21.7659C39.2231 21.7659 39.8115 21.6923 40.1793 21.5452C40.547 21.3981 40.7861 21.1774 40.8964 20.8832C41.0067 20.589 41.0619 20.1477 41.0619 19.5593V16.1391C41.0619 15.4588 41.0067 14.9715 40.8964 14.6773C40.7861 14.3647 40.5562 14.144 40.2068 14.0153C39.8575 13.8866 39.2874 13.8222 38.4968 13.8222C37.6693 13.8222 37.0533 13.905 36.6488 14.0705C36.2626 14.2176 35.996 14.4658 35.8489 14.8152C35.7202 15.1462 35.6558 15.6334 35.6558 16.277V19.5593C35.6558 20.1293 35.7202 20.5706 35.8489 20.8832C35.996 21.1774 36.2626 21.3981 36.6488 21.5452C37.0533 21.6923 37.6417 21.7659 38.414 21.7659ZM52.0044 24.2758C50.754 24.2758 49.8163 24.1655 49.1911 23.9448C48.5843 23.7058 48.1521 23.2921 47.8947 22.7036C47.6557 22.0968 47.5361 21.1958 47.5361 20.0006C47.5361 18.9341 47.6648 18.0974 47.9223 17.4906C48.1981 16.8838 48.6302 16.4517 49.2186 16.1943C49.8254 15.9185 50.6529 15.7805 51.701 15.7805H56.2245V14.8703C56.2245 14.3003 56.1417 13.8774 55.9762 13.6016C55.8291 13.3257 55.5441 13.1327 55.1212 13.0223C54.7167 12.912 54.1007 12.8568 53.2732 12.8568C52.1331 12.8568 50.5702 12.9672 48.5843 13.1878V10.6503C50.0369 10.4664 51.7378 10.3745 53.6869 10.3745C55.397 10.3745 56.7118 10.5032 57.6312 10.7606C58.569 11.018 59.2401 11.4594 59.6447 12.0845C60.0492 12.7097 60.2515 13.6199 60.2515 14.8152V24H56.3072V22.7864C55.9946 23.3196 55.5717 23.6966 55.0385 23.9173C54.5052 24.1563 53.4939 24.2758 52.0044 24.2758ZM53.5766 21.7659C54.3857 21.7659 54.9649 21.7383 55.3143 21.6831C55.5717 21.6463 55.7464 21.5912 55.8383 21.5176C55.9487 21.4441 56.0406 21.3245 56.1142 21.159C56.1877 21.0303 56.2245 20.8373 56.2245 20.5798V17.9871H53.4663C52.8411 17.9871 52.3998 18.0331 52.1423 18.125C51.8849 18.1986 51.7102 18.3641 51.6183 18.6215C51.5263 18.8605 51.4804 19.2927 51.4804 19.9179C51.4804 20.5247 51.5263 20.9476 51.6183 21.1866C51.7102 21.4257 51.8849 21.582 52.1423 21.6555C52.4182 21.7291 52.8962 21.7659 53.5766 21.7659ZM64.4013 24.2207C63.9967 24.2207 63.5187 24.1655 62.967 24.0552V21.0763C63.1877 21.1131 63.4175 21.1315 63.6566 21.1315C64.3369 21.1315 64.8886 20.92 65.3115 20.4971C65.7344 20.0742 66.0562 19.2467 66.2769 18.0147C66.5159 16.7827 66.6354 14.999 66.6354 12.6638V10.6503H77.089V24H73.0621V13.2154H70.0004V13.5464C70.0004 16.3965 69.7522 18.6031 69.2557 20.1661C68.7592 21.7291 68.1065 22.7956 67.2974 23.3656C66.4883 23.9356 65.5229 24.2207 64.4013 24.2207ZM83.8288 13.2982H79.4156V10.6503H92.2689V13.2982H87.8557V24H83.8288V13.2982Z" fill="#37393A"/>
<path d="M97.7814 13.2982H93.3683V10.6503H106.222V13.2982H101.808V24H97.7814V13.2982ZM115.237 24.2758C110.511 24.2758 108.148 22.8324 108.148 19.9454V15.1462C108.148 13.4728 108.682 12.2592 109.748 11.5053C110.833 10.7514 112.497 10.3745 114.74 10.3745C116.855 10.3745 118.4 10.7422 119.374 11.4777C120.367 12.1949 120.864 13.4177 120.864 15.1462V18.4008H112.203V19.6145C112.203 20.3867 112.479 20.9384 113.03 21.2694C113.582 21.6004 114.575 21.7659 116.009 21.7659C117.333 21.7659 118.823 21.5728 120.478 21.1866V23.7518C118.841 24.1011 117.094 24.2758 115.237 24.2758ZM117.03 16.1115V14.1808C117.03 13.7395 116.846 13.4085 116.478 13.1878C116.129 12.9672 115.531 12.8568 114.685 12.8568C113.711 12.8568 113.058 12.9672 112.727 13.1878C112.378 13.4269 112.203 13.7579 112.203 14.1808V16.1115H117.03ZM127.693 17.1596L122.728 10.6503H127.389L130.01 14.4842L132.658 10.6503H137.319L132.327 17.1596L137.595 24H132.933L130.01 19.8075L127.114 24H122.452L127.693 17.1596Z" fill="#37393A"/>
<path d="M7.57522 12.1103H8.65576V13.5609C8.7347 13.5609 8.79884 13.551 8.84818 13.5313C8.89752 13.5066 8.94686 13.4647 8.9962 13.4055L10.0323 12.1103H11.1573L9.72149 13.7681C9.92378 13.8619 10.1211 14.0469 10.3136 14.3232L11.2683 15.6924H10.0249L9.23303 14.523C9.14422 14.3948 9.06034 14.3133 8.9814 14.2788C8.90245 14.2443 8.79391 14.227 8.65576 14.227V15.6924H7.57522V12.1103ZM13.4995 15.7664C13.0752 15.7664 12.7372 15.7368 12.4856 15.6776C12.2389 15.6184 12.044 15.4852 11.9009 15.2779C11.7627 15.0658 11.6937 14.7475 11.6937 14.3232V12.8208C11.6937 12.3817 11.7627 12.0215 11.9009 11.7403C12.044 11.4591 12.2339 11.2395 12.4708 11.0816C12.7125 10.9237 13.011 10.793 13.3663 10.6894L13.7363 10.5931C13.9386 10.5438 14.1606 10.4871 14.4024 10.4229C14.6442 10.3539 14.8514 10.2848 15.0241 10.2157V11.1334C14.7428 11.2716 14.2642 11.4146 13.5883 11.5627C13.2972 11.6268 13.0653 11.7033 12.8926 11.7921C12.7249 11.876 12.599 11.9919 12.5152 12.1399C12.4313 12.288 12.3893 12.4828 12.3893 12.7246V13.1243H12.3967C12.4658 12.8332 12.6089 12.621 12.826 12.4878C13.0431 12.3546 13.3835 12.288 13.8473 12.288C14.2519 12.288 14.5578 12.3422 14.765 12.4508C14.9772 12.5593 15.1203 12.7221 15.1943 12.9392C15.2683 13.1563 15.3053 13.4548 15.3053 13.8348V14.3232C15.3053 14.6735 15.256 14.9523 15.1573 15.1595C15.0586 15.3618 14.8785 15.5148 14.617 15.6184C14.3555 15.7171 13.983 15.7664 13.4995 15.7664ZM13.5143 15.0929C13.7314 15.0929 13.8893 15.0732 13.9879 15.0337C14.0866 14.9942 14.1508 14.935 14.1804 14.8561C14.21 14.7771 14.2248 14.6587 14.2248 14.5008V13.5831C14.2248 13.4006 14.21 13.2698 14.1804 13.1909C14.1508 13.107 14.0891 13.0478 13.9953 13.0132C13.9016 12.9787 13.7487 12.9614 13.5365 12.9614C13.3145 12.9614 13.1492 12.9836 13.0406 13.0281C12.937 13.0675 12.8655 13.1341 12.826 13.2279C12.7915 13.3167 12.7742 13.4474 12.7742 13.6201V14.5008C12.7742 14.6538 12.7915 14.7722 12.826 14.8561C12.8655 14.935 12.937 14.9942 13.0406 15.0337C13.1492 15.0732 13.3071 15.0929 13.5143 15.0929Z" fill="#37393A"/>
<path d="M103.861 7.02051L102.397 5.17793L102.961 4.83512L104.668 7.02051H103.861ZM101.118 7.02051V3.23536H101.804V7.02051H101.118ZM101.597 5.42075V4.83512H102.847V5.42075H101.597ZM103.018 5.20649L102.382 5.12079L103.832 3.23536H104.568L103.018 5.20649ZM106.882 7.06336C106.501 7.06336 106.163 6.98004 105.868 6.8134C105.573 6.64675 105.34 6.41822 105.168 6.12778C104.997 5.83259 104.911 5.49931 104.911 5.12793C104.911 4.7518 104.997 4.41852 105.168 4.12808C105.34 3.83765 105.573 3.6115 105.868 3.44961C106.163 3.28297 106.501 3.19965 106.882 3.19965C107.258 3.19965 107.594 3.28297 107.889 3.44961C108.189 3.6115 108.423 3.83765 108.589 4.12808C108.761 4.41376 108.846 4.74704 108.846 5.12793C108.846 5.50407 108.761 5.83735 108.589 6.12778C108.423 6.41822 108.189 6.64675 107.889 6.8134C107.594 6.98004 107.258 7.06336 106.882 7.06336ZM106.882 6.46345C107.125 6.46345 107.342 6.40869 107.532 6.29919C107.727 6.18968 107.88 6.03494 107.989 5.83497C108.099 5.63024 108.154 5.39456 108.154 5.12793C108.154 4.85655 108.099 4.62325 107.989 4.42804C107.88 4.22807 107.727 4.07333 107.532 3.96382C107.342 3.85432 107.125 3.79956 106.882 3.79956C106.639 3.79956 106.423 3.85432 106.232 3.96382C106.042 4.07333 105.89 4.22807 105.775 4.42804C105.661 4.62325 105.604 4.85655 105.604 5.12793C105.604 5.39456 105.661 5.63024 105.775 5.83497C105.89 6.03494 106.042 6.18968 106.232 6.29919C106.423 6.40869 106.639 6.46345 106.882 6.46345ZM109.836 7.02051V3.23536H110.543L112.172 6.03494H111.886L113.557 3.23536H114.2V7.02051H113.579V4.00667L113.693 4.07095L112.165 6.592H111.865L110.329 4.02096L110.465 3.99239V7.02051H109.836ZM115.534 7.02051V3.23536H119.041V7.02051H118.355V3.66387L118.52 3.83527H116.056L116.22 3.66387V7.02051H115.534ZM122.689 7.02051V6.22063L122.653 6.07065V4.70657C122.653 4.41614 122.567 4.19236 122.396 4.03524C122.229 3.87336 121.977 3.79242 121.639 3.79242C121.415 3.79242 121.196 3.83051 120.982 3.90669C120.768 3.97811 120.587 4.07571 120.439 4.1995L120.153 3.68529C120.349 3.52817 120.582 3.40914 120.853 3.3282C121.129 3.2425 121.417 3.19965 121.717 3.19965C122.236 3.19965 122.636 3.32582 122.917 3.57817C123.198 3.83051 123.339 4.21617 123.339 4.73514V7.02051H122.689ZM121.446 7.06336C121.165 7.06336 120.918 7.01575 120.703 6.92052C120.494 6.8253 120.332 6.69437 120.218 6.52772C120.103 6.35632 120.046 6.16349 120.046 5.94924C120.046 5.74451 120.094 5.55882 120.189 5.39218C120.289 5.22554 120.449 5.09223 120.668 4.99224C120.891 4.89226 121.191 4.84226 121.567 4.84226H122.767V5.33505H121.596C121.253 5.33505 121.022 5.39218 120.903 5.50645C120.784 5.62072 120.725 5.75879 120.725 5.92067C120.725 6.10636 120.799 6.25634 120.946 6.37061C121.094 6.48011 121.298 6.53487 121.56 6.53487C121.817 6.53487 122.041 6.47773 122.232 6.36346C122.427 6.24919 122.567 6.08255 122.653 5.86354L122.789 6.3349C122.698 6.55867 122.539 6.73722 122.31 6.87053C122.082 6.99908 121.794 7.06336 121.446 7.06336ZM124.573 7.02051V3.23536H125.259V4.84226H127.416V3.23536H128.101V7.02051H127.416V5.43503H125.259V7.02051H124.573ZM129.434 7.02051V3.23536H130.12V5.99209L132.441 3.23536H133.062V7.02051H132.377V4.26378L130.063 7.02051H129.434ZM136.814 7.02051V5.69214L136.921 5.82069H135.714C135.21 5.82069 134.815 5.71356 134.529 5.49931C134.248 5.28505 134.107 4.9732 134.107 4.56373C134.107 4.1257 134.257 3.7948 134.557 3.57103C134.862 3.34725 135.267 3.23536 135.772 3.23536H137.428V7.02051H136.814ZM134.072 7.02051L135.1 5.57073H135.807L134.807 7.02051H134.072ZM136.814 5.47788V3.64244L136.921 3.83527H135.793C135.479 3.83527 135.236 3.89479 135.064 4.01382C134.893 4.12808 134.807 4.31853 134.807 4.58516C134.807 5.08032 135.126 5.3279 135.764 5.3279H136.921L136.814 5.47788Z" fill="#37393A"/>
<path d="M7.10128 5.10156V5.10156C6.62756 5.10156 6.3907 5.10156 6.191 5.11903C3.97143 5.31322 2.21166 7.07299 2.01747 9.29257C2 9.49226 2 9.72912 2 10.2028V17.8548C2 18.3285 2 18.5653 2.01747 18.765C2.21166 20.9846 3.97143 22.7444 6.191 22.9386C6.3907 22.956 6.62756 22.956 7.10128 22.956V22.956" stroke="#37393A" stroke-width="2.55064" stroke-linecap="square"/>
<path d="M15.263 5.10156V5.10156C15.7367 5.10156 15.9736 5.10156 16.1733 5.11903C18.3928 5.31322 20.1526 7.07299 20.3468 9.29257C20.3643 9.49226 20.3643 9.72912 20.3643 10.2028V17.8548C20.3643 18.3285 20.3643 18.5653 20.3468 18.765C20.1526 20.9846 18.3928 22.7444 16.1733 22.9386C15.9736 22.956 15.7367 22.956 15.263 22.956V22.956" stroke="#37393A" stroke-width="2.55064" stroke-linecap="square"/>
</svg>
