<svg width="70" height="70" viewBox="0 0 70 70" fill="none" xmlns="http://www.w3.org/2000/svg">
<path d="M35.4473 58.2682H33.5896V69.9999H35.4473V58.2682Z" fill="white"/>
<path d="M34.517 17C25.636 17 18.6338 23.8138 19.0148 34.5064C19.4127 45.6351 27.2977 52.5383 32.5128 54.0651L31.0417 56.7798H37.9909L36.5206 54.0651C41.735 52.5389 49.6214 45.6365 50.0178 34.5064C50.4002 23.8138 43.3965 17 34.517 17ZM30.9216 25.7113C30.288 26.0811 29.7115 26.5319 29.2035 27.0588C28.0842 28.2201 27.2942 29.6974 26.8643 31.4951C26.6814 32.2628 25.9111 32.7367 25.1434 32.5537C24.3757 32.3709 23.9012 31.5997 24.0841 30.8322C24.6131 28.6039 25.6417 26.6318 27.1462 25.0734C27.8385 24.356 28.6257 23.7419 29.4813 23.2422C30.1638 22.8445 31.0389 23.0747 31.4367 23.7565C31.8344 24.4384 31.6041 25.3135 30.9216 25.7113Z" fill="white"/>
</svg>
