<svg width="103" height="23" viewBox="0 0 103 23" fill="none" xmlns="http://www.w3.org/2000/svg">
<path d="M0 0.853516H10.5617V22.6089H7.1334V4.25784H3.42832V22.6089H0V0.853516Z" fill="#38558E"/>
<path d="M12.2002 22.6091V0.829726H15.6285L15.5021 13.3576L18.7545 2.74465C18.94 2.15594 19.2712 1.6904 19.7495 1.34485C20.2279 1.0009 20.7702 0.828125 21.3749 0.828125H22.9123V22.6075H19.484L19.6103 10.0796L16.358 20.6925C16.1724 21.2813 15.8413 21.7468 15.3629 22.0907C14.8846 22.4347 14.3423 22.6075 13.7376 22.6075H12.2002V22.6091Z" fill="#38558E"/>
<path d="M24.5537 0.853516H31.5863C32.5782 0.853516 33.3717 1.15269 33.9684 1.7478C34.5651 2.34452 34.8627 3.13801 34.8627 4.12987V10.9113C34.8627 11.9032 34.5635 12.6967 33.9684 13.2934C33.3717 13.8901 32.5782 14.1877 31.5863 14.1877H27.982V22.6073H24.5537V0.853516ZM27.9804 4.25624V10.7593H30.4761C30.7448 10.7593 30.972 10.6666 31.156 10.4826C31.3416 10.2986 31.4327 10.0714 31.4327 9.80267V5.21451C31.4327 4.94574 31.34 4.71858 31.156 4.5346C30.9704 4.35063 30.7448 4.25784 30.4761 4.25784H27.9804V4.25624Z" fill="#38558E"/>
<path d="M38.14 3.55067C38.2744 2.72679 38.6311 2.06287 39.2118 1.55894C39.791 1.05501 40.5013 0.802246 41.3411 0.802246H43.8112L47.2395 22.6072H43.6848L43.1057 18.4222H39.2998L38.7207 22.5816H35.166L38.14 3.55067ZM39.7782 15.0211H42.6274L41.2164 4.96327L39.7782 15.0211Z" fill="#38558E"/>
<path d="M48.2729 22.6085V0.829102H51.8276C52.4324 0.829102 52.9459 1.00988 53.365 1.37143C53.7858 1.73298 54.0369 2.2161 54.1217 2.82082L56.0127 16.3581L57.878 2.82082C57.9612 2.2161 58.214 1.73298 58.6347 1.37143C59.0538 1.00988 59.5674 0.829102 60.1721 0.829102H63.7268V22.6085H60.1721L60.5752 5.8204L57.8268 22.6085H54.1713L51.4229 5.8204L51.826 22.6085H48.2729Z" fill="#38558E"/>
<path d="M65.3633 22.6091V0.829726H68.7916L68.6652 13.3576L71.9176 2.74465C72.1031 2.15594 72.4343 1.6904 72.9126 1.34485C73.3909 1.0009 73.9333 0.828125 74.538 0.828125H76.0754V22.6075H72.647L72.7734 10.0796L69.5211 20.6925C69.3355 21.2813 69.0044 21.7468 68.526 22.0907C68.0477 22.4347 67.5054 22.6075 66.9007 22.6075H65.3633V22.6091Z" fill="#38558E"/>
<path d="M78.0175 19.1801H79.5549V4.10544C79.5549 3.11358 79.8525 2.32009 80.4492 1.72337C81.0459 1.12665 81.8394 0.829102 82.8313 0.829102H89.8399V22.6085H76.8833L78.0175 19.1801ZM86.4132 19.1801V4.25741H83.9431C83.6919 4.25741 83.468 4.35501 83.2744 4.54698C83.0808 4.74055 82.9848 4.96291 82.9848 5.21407V19.1801H86.4132Z" fill="#38558E"/>
<path d="M93.8988 3.55067C94.0332 2.72679 94.3899 2.06287 94.9706 1.55894C95.5498 1.05501 96.2601 0.802246 97.1 0.802246H99.57L102.998 22.6072H99.4436L98.8645 18.4222H95.0586L94.4795 22.5816H90.9248L93.8988 3.55067ZM95.5386 15.0211H98.3878L96.9768 4.96327L95.5386 15.0211Z" fill="#38558E"/>
</svg>
