<svg width="1312" height="68" viewBox="0 0 1312 68" fill="none" xmlns="http://www.w3.org/2000/svg">
<path d="M232.112 28.718L229.148 35.361C228.871 35.9763 228.589 36.492 228.303 36.908C228.026 37.3153 227.696 37.623 227.315 37.831C226.934 38.0303 226.448 38.13 225.859 38.13C225.616 38.13 225.387 38.1127 225.17 38.078C224.962 38.0433 224.771 37.9957 224.598 37.935V36.778C224.771 36.856 224.958 36.921 225.157 36.973C225.356 37.0163 225.564 37.038 225.781 37.038C226.258 37.038 226.639 36.934 226.925 36.726C227.211 36.518 227.475 36.1497 227.718 35.621L224.143 28.718H225.43L228.017 33.827C228.06 33.9223 228.112 34.035 228.173 34.165C228.234 34.295 228.286 34.4207 228.329 34.542H228.381C228.416 34.4553 228.455 34.3427 228.498 34.204C228.55 34.0653 228.598 33.9527 228.641 33.866L230.877 28.718H232.112ZM237.614 29.615C236.618 29.615 235.833 29.9487 235.261 30.616C234.689 31.2833 234.403 32.1977 234.403 33.359C234.403 34.5117 234.668 35.426 235.196 36.102C235.734 36.7693 236.535 37.103 237.601 37.103C238 37.103 238.381 37.0683 238.745 36.999C239.109 36.9297 239.469 36.843 239.824 36.739V37.753C239.478 37.883 239.118 37.9783 238.745 38.039C238.381 38.0997 237.944 38.13 237.432 38.13C236.488 38.13 235.699 37.935 235.066 37.545C234.434 37.155 233.957 36.6003 233.636 35.881C233.324 35.1617 233.168 34.3167 233.168 33.346C233.168 32.41 233.337 31.5867 233.675 30.876C234.022 30.1567 234.529 29.5977 235.196 29.199C235.864 28.7917 236.674 28.588 237.627 28.588C238.607 28.588 239.46 28.77 240.188 29.134L239.72 30.122C239.434 29.992 239.114 29.875 238.758 29.771C238.412 29.667 238.03 29.615 237.614 29.615ZM248.922 38H247.752V29.745H244.814C244.736 30.3863 244.65 31.0623 244.554 31.773C244.459 32.475 244.364 33.1467 244.268 33.788C244.173 34.4293 244.078 34.9753 243.982 35.426C243.87 36.0153 243.731 36.5137 243.566 36.921C243.402 37.3197 243.181 37.623 242.903 37.831C242.635 38.039 242.279 38.143 241.837 38.143C241.69 38.143 241.538 38.1257 241.382 38.091C241.235 38.065 241.105 38.0303 240.992 37.987V37.012C241.088 37.0553 241.196 37.0943 241.317 37.129C241.439 37.155 241.569 37.168 241.707 37.168C241.967 37.168 242.171 37.064 242.318 36.856C242.474 36.6393 242.591 36.375 242.669 36.063C242.756 35.7423 242.834 35.426 242.903 35.114C242.973 34.7847 243.055 34.3037 243.15 33.671C243.254 33.0297 243.363 32.2843 243.475 31.435C243.597 30.5857 243.718 29.68 243.839 28.718H248.922V38ZM258.685 28.718L255.721 35.361C255.444 35.9763 255.162 36.492 254.876 36.908C254.599 37.3153 254.27 37.623 253.888 37.831C253.507 38.0303 253.022 38.13 252.432 38.13C252.19 38.13 251.96 38.1127 251.743 38.078C251.535 38.0433 251.345 37.9957 251.171 37.935V36.778C251.345 36.856 251.531 36.921 251.73 36.973C251.93 37.0163 252.138 37.038 252.354 37.038C252.831 37.038 253.212 36.934 253.498 36.726C253.784 36.518 254.049 36.1497 254.291 35.621L250.716 28.718H252.003L254.59 33.827C254.634 33.9223 254.686 34.035 254.746 34.165C254.807 34.295 254.859 34.4207 254.902 34.542H254.954C254.989 34.4553 255.028 34.3427 255.071 34.204C255.123 34.0653 255.171 33.9527 255.214 33.866L257.45 28.718H258.685ZM265.576 28.718V29.758H261.507V38H260.337V28.718H265.576ZM267.557 28.718H268.649V33.814C268.649 34.1087 268.645 34.4337 268.636 34.789C268.627 35.1357 268.614 35.4607 268.597 35.764C268.58 36.0587 268.567 36.271 268.558 36.401H268.61L273.719 28.718H275.019V38H273.927V32.956C273.927 32.644 273.931 32.306 273.94 31.942C273.957 31.5693 273.975 31.2313 273.992 30.928C274.009 30.6247 274.022 30.408 274.031 30.278H273.979L268.857 38H267.557V28.718ZM287.183 28.718V36.96H288.366V40.444H287.248V38H280.865V40.444H279.747V36.96H280.462C280.774 36.4227 281.069 35.8203 281.346 35.153C281.632 34.4857 281.884 33.788 282.1 33.06C282.317 32.3233 282.495 31.5867 282.633 30.85C282.772 30.1133 282.859 29.4027 282.893 28.718H287.183ZM286.026 29.771H283.92C283.886 30.2737 283.799 30.8413 283.66 31.474C283.53 32.1067 283.361 32.7567 283.153 33.424C282.954 34.0827 282.729 34.7197 282.477 35.335C282.235 35.9503 281.975 36.492 281.697 36.96H286.026V29.771ZM296.991 38H295.821V29.745H292.883C292.805 30.3863 292.718 31.0623 292.623 31.773C292.527 32.475 292.432 33.1467 292.337 33.788C292.241 34.4293 292.146 34.9753 292.051 35.426C291.938 36.0153 291.799 36.5137 291.635 36.921C291.47 37.3197 291.249 37.623 290.972 37.831C290.703 38.039 290.348 38.143 289.906 38.143C289.758 38.143 289.607 38.1257 289.451 38.091C289.303 38.065 289.173 38.0303 289.061 37.987V37.012C289.156 37.0553 289.264 37.0943 289.386 37.129C289.507 37.155 289.637 37.168 289.776 37.168C290.036 37.168 290.239 37.064 290.387 36.856C290.543 36.6393 290.66 36.375 290.738 36.063C290.824 35.7423 290.902 35.426 290.972 35.114C291.041 34.7847 291.123 34.3037 291.219 33.671C291.323 33.0297 291.431 32.2843 291.544 31.435C291.665 30.5857 291.786 29.68 291.908 28.718H296.991V38ZM302.698 34.152L300.293 38H298.928L301.528 33.944C301.199 33.84 300.887 33.6883 300.592 33.489C300.306 33.2897 300.072 33.0167 299.89 32.67C299.708 32.3233 299.617 31.8727 299.617 31.318C299.617 30.4773 299.903 29.836 300.475 29.394C301.056 28.9433 301.927 28.718 303.088 28.718H305.688V38H304.518V34.152H302.698ZM304.518 29.719H303.114C302.369 29.719 301.801 29.849 301.411 30.109C301.021 30.3603 300.826 30.7807 300.826 31.37C300.826 31.942 301.017 32.384 301.398 32.696C301.779 33.008 302.369 33.164 303.166 33.164H304.518V29.719ZM311.627 28.718H312.719V33.814C312.719 34.1087 312.714 34.4337 312.706 34.789C312.697 35.1357 312.684 35.4607 312.667 35.764C312.649 36.0587 312.636 36.271 312.628 36.401H312.68L317.789 28.718H319.089V38H317.997V32.956C317.997 32.644 318.001 32.306 318.01 31.942C318.027 31.5693 318.044 31.2313 318.062 30.928C318.079 30.6247 318.092 30.408 318.101 30.278H318.049L312.927 38H311.627V28.718ZM329.08 38H327.91V33.671H323.152V38H321.982V28.718H323.152V32.644H327.91V28.718H329.08V38ZM332.008 28.718H334.66C335.812 28.718 336.688 28.8913 337.286 29.238C337.884 29.5847 338.183 30.1783 338.183 31.019C338.183 31.565 338.031 32.02 337.728 32.384C337.424 32.7393 336.987 32.969 336.415 33.073V33.138C336.805 33.2073 337.156 33.3243 337.468 33.489C337.788 33.6537 338.04 33.8877 338.222 34.191C338.404 34.4943 338.495 34.8843 338.495 35.361C338.495 36.2017 338.204 36.8517 337.624 37.311C337.052 37.7703 336.267 38 335.271 38H332.008V28.718ZM333.178 32.67H334.894C335.682 32.67 336.224 32.5443 336.519 32.293C336.822 32.033 336.974 31.6517 336.974 31.149C336.974 30.6377 336.792 30.2737 336.428 30.057C336.072 29.8317 335.5 29.719 334.712 29.719H333.178V32.67ZM333.178 33.645V37.012H335.05C335.873 37.012 336.445 36.8517 336.766 36.531C337.086 36.2103 337.247 35.79 337.247 35.27C337.247 34.7847 337.078 34.3947 336.74 34.1C336.41 33.7967 335.817 33.645 334.959 33.645H333.178ZM346.04 38H340.853V28.718H346.04V29.745H342.023V32.644H345.806V33.658H342.023V36.973H346.04V38ZM352.444 29.615C351.448 29.615 350.663 29.9487 350.091 30.616C349.519 31.2833 349.233 32.1977 349.233 33.359C349.233 34.5117 349.498 35.426 350.026 36.102C350.564 36.7693 351.365 37.103 352.431 37.103C352.83 37.103 353.211 37.0683 353.575 36.999C353.939 36.9297 354.299 36.843 354.654 36.739V37.753C354.308 37.883 353.948 37.9783 353.575 38.039C353.211 38.0997 352.774 38.13 352.262 38.13C351.318 38.13 350.529 37.935 349.896 37.545C349.264 37.155 348.787 36.6003 348.466 35.881C348.154 35.1617 347.998 34.3167 347.998 33.346C347.998 32.41 348.167 31.5867 348.505 30.876C348.852 30.1567 349.359 29.5977 350.026 29.199C350.694 28.7917 351.504 28.588 352.457 28.588C353.437 28.588 354.29 28.77 355.018 29.134L354.55 30.122C354.264 29.992 353.944 29.875 353.588 29.771C353.242 29.667 352.86 29.615 352.444 29.615ZM360.008 38H358.838V29.745H355.939V28.718H362.894V29.745H360.008V38ZM372.529 33.346C372.529 34.308 372.364 35.1487 372.035 35.868C371.714 36.5787 371.233 37.1333 370.592 37.532C369.959 37.9307 369.179 38.13 368.252 38.13C367.29 38.13 366.488 37.9307 365.847 37.532C365.214 37.1333 364.742 36.5743 364.43 35.855C364.118 35.1357 363.962 34.295 363.962 33.333C363.962 32.3883 364.118 31.5607 364.43 30.85C364.742 30.1307 365.214 29.5717 365.847 29.173C366.488 28.7743 367.294 28.575 368.265 28.575C369.192 28.575 369.972 28.7743 370.605 29.173C371.238 29.563 371.714 30.1177 372.035 30.837C372.364 31.5477 372.529 32.384 372.529 33.346ZM365.197 33.346C365.197 34.516 365.444 35.439 365.938 36.115C366.432 36.7823 367.203 37.116 368.252 37.116C369.301 37.116 370.068 36.7823 370.553 36.115C371.047 35.439 371.294 34.516 371.294 33.346C371.294 32.176 371.051 31.2617 370.566 30.603C370.081 29.9357 369.314 29.602 368.265 29.602C367.208 29.602 366.432 29.9357 365.938 30.603C365.444 31.2617 365.197 32.176 365.197 33.346ZM377.433 28.718C378.647 28.718 379.531 28.9563 380.085 29.433C380.64 29.9097 380.917 30.5813 380.917 31.448C380.917 31.9593 380.8 32.4403 380.566 32.891C380.341 33.333 379.955 33.6927 379.409 33.97C378.872 34.2473 378.14 34.386 377.212 34.386H376.146V38H374.976V28.718H377.433ZM377.329 29.719H376.146V33.385H377.082C377.966 33.385 378.625 33.242 379.058 32.956C379.492 32.67 379.708 32.1847 379.708 31.5C379.708 30.902 379.513 30.4557 379.123 30.161C378.742 29.8663 378.144 29.719 377.329 29.719ZM391.336 33.346C391.336 34.308 391.172 35.1487 390.842 35.868C390.522 36.5787 390.041 37.1333 389.399 37.532C388.767 37.9307 387.987 38.13 387.059 38.13C386.097 38.13 385.296 37.9307 384.654 37.532C384.022 37.1333 383.549 36.5743 383.237 35.855C382.925 35.1357 382.769 34.295 382.769 33.333C382.769 32.3883 382.925 31.5607 383.237 30.85C383.549 30.1307 384.022 29.5717 384.654 29.173C385.296 28.7743 386.102 28.575 387.072 28.575C388 28.575 388.78 28.7743 389.412 29.173C390.045 29.563 390.522 30.1177 390.842 30.837C391.172 31.5477 391.336 32.384 391.336 33.346ZM384.004 33.346C384.004 34.516 384.251 35.439 384.745 36.115C385.239 36.7823 386.011 37.116 387.059 37.116C388.108 37.116 388.875 36.7823 389.36 36.115C389.854 35.439 390.101 34.516 390.101 33.346C390.101 32.176 389.859 31.2617 389.373 30.603C388.888 29.9357 388.121 29.602 387.072 29.602C386.015 29.602 385.239 29.9357 384.745 30.603C384.251 31.2617 384.004 32.176 384.004 33.346ZM393.784 28.718H396.436C397.588 28.718 398.464 28.8913 399.062 29.238C399.66 29.5847 399.959 30.1783 399.959 31.019C399.959 31.565 399.807 32.02 399.504 32.384C399.2 32.7393 398.763 32.969 398.191 33.073V33.138C398.581 33.2073 398.932 33.3243 399.244 33.489C399.564 33.6537 399.816 33.8877 399.998 34.191C400.18 34.4943 400.271 34.8843 400.271 35.361C400.271 36.2017 399.98 36.8517 399.4 37.311C398.828 37.7703 398.043 38 397.047 38H393.784V28.718ZM394.954 32.67H396.67C397.458 32.67 398 32.5443 398.295 32.293C398.598 32.033 398.75 31.6517 398.75 31.149C398.75 30.6377 398.568 30.2737 398.204 30.057C397.848 29.8317 397.276 29.719 396.488 29.719H394.954V32.67ZM394.954 33.645V37.012H396.826C397.649 37.012 398.221 36.8517 398.542 36.531C398.862 36.2103 399.023 35.79 399.023 35.27C399.023 34.7847 398.854 34.3947 398.516 34.1C398.186 33.7967 397.593 33.645 396.735 33.645H394.954Z" fill="white"/>
<path d="M438.36 33.346C438.36 34.308 438.195 35.1487 437.866 35.868C437.545 36.5787 437.064 37.1333 436.423 37.532C435.79 37.9307 435.01 38.13 434.083 38.13C433.121 38.13 432.319 37.9307 431.678 37.532C431.045 37.1333 430.573 36.5743 430.261 35.855C429.949 35.1357 429.793 34.295 429.793 33.333C429.793 32.3883 429.949 31.5607 430.261 30.85C430.573 30.1307 431.045 29.5717 431.678 29.173C432.319 28.7743 433.125 28.575 434.096 28.575C435.023 28.575 435.803 28.7743 436.436 29.173C437.069 29.563 437.545 30.1177 437.866 30.837C438.195 31.5477 438.36 32.384 438.36 33.346ZM431.028 33.346C431.028 34.516 431.275 35.439 431.769 36.115C432.263 36.7823 433.034 37.116 434.083 37.116C435.132 37.116 435.899 36.7823 436.384 36.115C436.878 35.439 437.125 34.516 437.125 33.346C437.125 32.176 436.882 31.2617 436.397 30.603C435.912 29.9357 435.145 29.602 434.096 29.602C433.039 29.602 432.263 29.9357 431.769 30.603C431.275 31.2617 431.028 32.176 431.028 33.346ZM450.598 38H449.194L444.995 33.294V38H443.825V28.718H444.995V33.216L449.09 28.718H450.416L446.386 33.229L450.598 38ZM454.708 28.718C455.922 28.718 456.806 28.9563 457.36 29.433C457.915 29.9097 458.192 30.5813 458.192 31.448C458.192 31.9593 458.075 32.4403 457.841 32.891C457.616 33.333 457.23 33.6927 456.684 33.97C456.147 34.2473 455.415 34.386 454.487 34.386H453.421V38H452.251V28.718H454.708ZM454.604 29.719H453.421V33.385H454.357C455.241 33.385 455.9 33.242 456.333 32.956C456.767 32.67 456.983 32.1847 456.983 31.5C456.983 30.902 456.788 30.4557 456.398 30.161C456.017 29.8663 455.419 29.719 454.604 29.719ZM465.689 38L464.571 35.127H460.892L459.787 38H458.604L462.231 28.679H463.284L466.898 38H465.689ZM464.22 34.087L463.18 31.279C463.154 31.2097 463.111 31.084 463.05 30.902C462.989 30.72 462.929 30.5337 462.868 30.343C462.816 30.1437 462.773 29.992 462.738 29.888C462.669 30.1567 462.595 30.421 462.517 30.681C462.448 30.9323 462.387 31.1317 462.335 31.279L461.282 34.087H464.22ZM472.536 29.615C471.539 29.615 470.755 29.9487 470.183 30.616C469.611 31.2833 469.325 32.1977 469.325 33.359C469.325 34.5117 469.589 35.426 470.118 36.102C470.655 36.7693 471.457 37.103 472.523 37.103C472.921 37.103 473.303 37.0683 473.667 36.999C474.031 36.9297 474.39 36.843 474.746 36.739V37.753C474.399 37.883 474.039 37.9783 473.667 38.039C473.303 38.0997 472.865 38.13 472.354 38.13C471.409 38.13 470.62 37.935 469.988 37.545C469.355 37.155 468.878 36.6003 468.558 35.881C468.246 35.1617 468.09 34.3167 468.09 33.346C468.09 32.41 468.259 31.5867 468.597 30.876C468.943 30.1567 469.45 29.5977 470.118 29.199C470.785 28.7917 471.595 28.588 472.549 28.588C473.528 28.588 474.382 28.77 475.11 29.134L474.642 30.122C474.356 29.992 474.035 29.875 473.68 29.771C473.333 29.667 472.952 29.615 472.536 29.615ZM484.26 38H483.09V33.671H478.332V38H477.162V28.718H478.332V32.644H483.09V28.718H484.26V38ZM495.286 33.346C495.286 34.308 495.122 35.1487 494.792 35.868C494.472 36.5787 493.991 37.1333 493.349 37.532C492.717 37.9307 491.937 38.13 491.009 38.13C490.047 38.13 489.246 37.9307 488.604 37.532C487.972 37.1333 487.499 36.5743 487.187 35.855C486.875 35.1357 486.719 34.295 486.719 33.333C486.719 32.3883 486.875 31.5607 487.187 30.85C487.499 30.1307 487.972 29.5717 488.604 29.173C489.246 28.7743 490.052 28.575 491.022 28.575C491.95 28.575 492.73 28.7743 493.362 29.173C493.995 29.563 494.472 30.1177 494.792 30.837C495.122 31.5477 495.286 32.384 495.286 33.346ZM487.954 33.346C487.954 34.516 488.201 35.439 488.695 36.115C489.189 36.7823 489.961 37.116 491.009 37.116C492.058 37.116 492.825 36.7823 493.31 36.115C493.804 35.439 494.051 34.516 494.051 33.346C494.051 32.176 493.809 31.2617 493.323 30.603C492.838 29.9357 492.071 29.602 491.022 29.602C489.965 29.602 489.189 29.9357 488.695 30.603C488.201 31.2617 487.954 32.176 487.954 33.346ZM503.733 28.718V36.96H504.916V40.444H503.798V38H497.415V40.444H496.297V36.96H497.012C497.324 36.4227 497.618 35.8203 497.896 35.153C498.182 34.4857 498.433 33.788 498.65 33.06C498.866 32.3233 499.044 31.5867 499.183 30.85C499.321 30.1133 499.408 29.4027 499.443 28.718H503.733ZM502.576 29.771H500.47C500.435 30.2737 500.348 30.8413 500.21 31.474C500.08 32.1067 499.911 32.7567 499.703 33.424C499.503 34.0827 499.278 34.7197 499.027 35.335C498.784 35.9503 498.524 36.492 498.247 36.96H502.576V29.771ZM512.682 38L511.564 35.127H507.885L506.78 38H505.597L509.224 28.679H510.277L513.891 38H512.682ZM511.213 34.087L510.173 31.279C510.147 31.2097 510.104 31.084 510.043 30.902C509.982 30.72 509.922 30.5337 509.861 30.343C509.809 30.1437 509.766 29.992 509.731 29.888C509.662 30.1567 509.588 30.421 509.51 30.681C509.441 30.9323 509.38 31.1317 509.328 31.279L508.275 34.087H511.213ZM518.008 28.718C519.221 28.718 520.105 28.9563 520.66 29.433C521.214 29.9097 521.492 30.5813 521.492 31.448C521.492 31.9593 521.375 32.4403 521.141 32.891C520.915 33.333 520.53 33.6927 519.984 33.97C519.446 34.2473 518.714 34.386 517.787 34.386H516.721V38H515.551V28.718H518.008ZM517.904 29.719H516.721V33.385H517.657C518.541 33.385 519.199 33.242 519.633 32.956C520.066 32.67 520.283 32.1847 520.283 31.5C520.283 30.902 520.088 30.4557 519.698 30.161C519.316 29.8663 518.718 29.719 517.904 29.719ZM527.79 29.615C526.793 29.615 526.009 29.9487 525.437 30.616C524.865 31.2833 524.579 32.1977 524.579 33.359C524.579 34.5117 524.843 35.426 525.372 36.102C525.909 36.7693 526.711 37.103 527.777 37.103C528.175 37.103 528.557 37.0683 528.921 36.999C529.285 36.9297 529.644 36.843 530 36.739V37.753C529.653 37.883 529.293 37.9783 528.921 38.039C528.557 38.0997 528.119 38.13 527.608 38.13C526.663 38.13 525.874 37.935 525.242 37.545C524.609 37.155 524.132 36.6003 523.812 35.881C523.5 35.1617 523.344 34.3167 523.344 33.346C523.344 32.41 523.513 31.5867 523.851 30.876C524.197 30.1567 524.704 29.5977 525.372 29.199C526.039 28.7917 526.849 28.588 527.803 28.588C528.782 28.588 529.636 28.77 530.364 29.134L529.896 30.122C529.61 29.992 529.289 29.875 528.934 29.771C528.587 29.667 528.206 29.615 527.79 29.615ZM539.189 38H537.785L533.586 33.294V38H532.416V28.718H533.586V33.216L537.681 28.718H539.007L534.977 33.229L539.189 38ZM548.687 33.346C548.687 34.308 548.522 35.1487 548.193 35.868C547.872 36.5787 547.391 37.1333 546.75 37.532C546.117 37.9307 545.337 38.13 544.41 38.13C543.448 38.13 542.646 37.9307 542.005 37.532C541.372 37.1333 540.9 36.5743 540.588 35.855C540.276 35.1357 540.12 34.295 540.12 33.333C540.12 32.3883 540.276 31.5607 540.588 30.85C540.9 30.1307 541.372 29.5717 542.005 29.173C542.646 28.7743 543.452 28.575 544.423 28.575C545.35 28.575 546.13 28.7743 546.763 29.173C547.396 29.563 547.872 30.1177 548.193 30.837C548.522 31.5477 548.687 32.384 548.687 33.346ZM541.355 33.346C541.355 34.516 541.602 35.439 542.096 36.115C542.59 36.7823 543.361 37.116 544.41 37.116C545.459 37.116 546.226 36.7823 546.711 36.115C547.205 35.439 547.452 34.516 547.452 33.346C547.452 32.176 547.209 31.2617 546.724 30.603C546.239 29.9357 545.472 29.602 544.423 29.602C543.366 29.602 542.59 29.9357 542.096 30.603C541.602 31.2617 541.355 32.176 541.355 33.346ZM555.229 38L552.174 29.862H552.122C552.148 30.1307 552.17 30.4947 552.187 30.954C552.204 31.4047 552.213 31.877 552.213 32.371V38H551.134V28.718H552.863L555.723 36.323H555.775L558.687 28.718H560.403V38H559.246V32.293C559.246 31.8423 559.255 31.396 559.272 30.954C559.298 30.512 559.32 30.1523 559.337 29.875H559.285L556.191 38H555.229ZM573.109 38H571.705L567.506 33.294V38H566.336V28.718H567.506V33.216L571.601 28.718H572.927L568.897 33.229L573.109 38ZM577.219 28.718C578.432 28.718 579.316 28.9563 579.871 29.433C580.426 29.9097 580.703 30.5813 580.703 31.448C580.703 31.9593 580.586 32.4403 580.352 32.891C580.127 33.333 579.741 33.6927 579.195 33.97C578.658 34.2473 577.925 34.386 576.998 34.386H575.932V38H574.762V28.718H577.219ZM577.115 29.719H575.932V33.385H576.868C577.752 33.385 578.411 33.242 578.844 32.956C579.277 32.67 579.494 32.1847 579.494 31.5C579.494 30.902 579.299 30.4557 578.909 30.161C578.528 29.8663 577.93 29.719 577.115 29.719ZM588.2 38L587.082 35.127H583.403L582.298 38H581.115L584.742 28.679H585.795L589.409 38H588.2ZM586.731 34.087L585.691 31.279C585.665 31.2097 585.621 31.084 585.561 30.902C585.5 30.72 585.439 30.5337 585.379 30.343C585.327 30.1437 585.283 29.992 585.249 29.888C585.179 30.1567 585.106 30.421 585.028 30.681C584.958 30.9323 584.898 31.1317 584.846 31.279L583.793 34.087H586.731ZM596.255 38H591.068V28.718H596.255V29.745H592.238V32.644H596.021V33.658H592.238V36.973H596.255V38Z" fill="white"/>
<path d="M635.36 33.346C635.36 34.308 635.195 35.1487 634.866 35.868C634.545 36.5787 634.064 37.1333 633.423 37.532C632.79 37.9307 632.01 38.13 631.083 38.13C630.121 38.13 629.319 37.9307 628.678 37.532C628.045 37.1333 627.573 36.5743 627.261 35.855C626.949 35.1357 626.793 34.295 626.793 33.333C626.793 32.3883 626.949 31.5607 627.261 30.85C627.573 30.1307 628.045 29.5717 628.678 29.173C629.319 28.7743 630.125 28.575 631.096 28.575C632.023 28.575 632.803 28.7743 633.436 29.173C634.069 29.563 634.545 30.1177 634.866 30.837C635.195 31.5477 635.36 32.384 635.36 33.346ZM628.028 33.346C628.028 34.516 628.275 35.439 628.769 36.115C629.263 36.7823 630.034 37.116 631.083 37.116C632.132 37.116 632.899 36.7823 633.384 36.115C633.878 35.439 634.125 34.516 634.125 33.346C634.125 32.176 633.882 31.2617 633.397 30.603C632.912 29.9357 632.145 29.602 631.096 29.602C630.039 29.602 629.263 29.9357 628.769 30.603C628.275 31.2617 628.028 32.176 628.028 33.346ZM644.58 38H643.176L638.977 33.294V38H637.807V28.718H638.977V33.216L643.072 28.718H644.398L640.368 33.229L644.58 38ZM653.331 38H652.161V33.671H647.403V38H646.233V28.718H647.403V32.644H652.161V28.718H653.331V38ZM664.358 33.346C664.358 34.308 664.193 35.1487 663.864 35.868C663.543 36.5787 663.062 37.1333 662.421 37.532C661.788 37.9307 661.008 38.13 660.081 38.13C659.119 38.13 658.317 37.9307 657.676 37.532C657.043 37.1333 656.571 36.5743 656.259 35.855C655.947 35.1357 655.791 34.295 655.791 33.333C655.791 32.3883 655.947 31.5607 656.259 30.85C656.571 30.1307 657.043 29.5717 657.676 29.173C658.317 28.7743 659.123 28.575 660.094 28.575C661.021 28.575 661.801 28.7743 662.434 29.173C663.067 29.563 663.543 30.1177 663.864 30.837C664.193 31.5477 664.358 32.384 664.358 33.346ZM657.026 33.346C657.026 34.516 657.273 35.439 657.767 36.115C658.261 36.7823 659.032 37.116 660.081 37.116C661.13 37.116 661.897 36.7823 662.382 36.115C662.876 35.439 663.123 34.516 663.123 33.346C663.123 32.176 662.88 31.2617 662.395 30.603C661.91 29.9357 661.143 29.602 660.094 29.602C659.037 29.602 658.261 29.9357 657.767 30.603C657.273 31.2617 657.026 32.176 657.026 33.346ZM669.836 28.718H670.928V33.814C670.928 34.1087 670.924 34.4337 670.915 34.789C670.907 35.1357 670.894 35.4607 670.876 35.764C670.859 36.0587 670.846 36.271 670.837 36.401H670.889L675.998 28.718H677.298V38H676.206V32.956C676.206 32.644 676.211 32.306 676.219 31.942C676.237 31.5693 676.254 31.2313 676.271 30.928C676.289 30.6247 676.302 30.408 676.31 30.278H676.258L671.136 38H669.836V28.718ZM687.29 38H686.12V33.671H681.362V38H680.192V28.718H681.362V32.644H686.12V28.718H687.29V38ZM690.218 28.718H692.87C694.022 28.718 694.898 28.8913 695.496 29.238C696.094 29.5847 696.393 30.1783 696.393 31.019C696.393 31.565 696.241 32.02 695.938 32.384C695.634 32.7393 695.197 32.969 694.625 33.073V33.138C695.015 33.2073 695.366 33.3243 695.678 33.489C695.998 33.6537 696.25 33.8877 696.432 34.191C696.614 34.4943 696.705 34.8843 696.705 35.361C696.705 36.2017 696.414 36.8517 695.834 37.311C695.262 37.7703 694.477 38 693.481 38H690.218V28.718ZM691.388 32.67H693.104C693.892 32.67 694.434 32.5443 694.729 32.293C695.032 32.033 695.184 31.6517 695.184 31.149C695.184 30.6377 695.002 30.2737 694.638 30.057C694.282 29.8317 693.71 29.719 692.922 29.719H691.388V32.67ZM691.388 33.645V37.012H693.26C694.083 37.012 694.655 36.8517 694.976 36.531C695.296 36.2103 695.457 35.79 695.457 35.27C695.457 34.7847 695.288 34.3947 694.95 34.1C694.62 33.7967 694.027 33.645 693.169 33.645H691.388ZM704.25 38H699.063V28.718H704.25V29.745H700.233V32.644H704.016V33.658H700.233V36.973H704.25V38ZM710.654 29.615C709.658 29.615 708.873 29.9487 708.301 30.616C707.729 31.2833 707.443 32.1977 707.443 33.359C707.443 34.5117 707.708 35.426 708.236 36.102C708.774 36.7693 709.575 37.103 710.641 37.103C711.04 37.103 711.421 37.0683 711.785 36.999C712.149 36.9297 712.509 36.843 712.864 36.739V37.753C712.518 37.883 712.158 37.9783 711.785 38.039C711.421 38.0997 710.984 38.13 710.472 38.13C709.528 38.13 708.739 37.935 708.106 37.545C707.474 37.155 706.997 36.6003 706.676 35.881C706.364 35.1617 706.208 34.3167 706.208 33.346C706.208 32.41 706.377 31.5867 706.715 30.876C707.062 30.1567 707.569 29.5977 708.236 29.199C708.904 28.7917 709.714 28.588 710.667 28.588C711.647 28.588 712.5 28.77 713.228 29.134L712.76 30.122C712.474 29.992 712.154 29.875 711.798 29.771C711.452 29.667 711.07 29.615 710.654 29.615ZM718.218 38H717.048V29.745H714.149V28.718H721.104V29.745H718.218V38ZM730.739 33.346C730.739 34.308 730.574 35.1487 730.245 35.868C729.924 36.5787 729.443 37.1333 728.802 37.532C728.169 37.9307 727.389 38.13 726.462 38.13C725.5 38.13 724.698 37.9307 724.057 37.532C723.424 37.1333 722.952 36.5743 722.64 35.855C722.328 35.1357 722.172 34.295 722.172 33.333C722.172 32.3883 722.328 31.5607 722.64 30.85C722.952 30.1307 723.424 29.5717 724.057 29.173C724.698 28.7743 725.504 28.575 726.475 28.575C727.402 28.575 728.182 28.7743 728.815 29.173C729.448 29.563 729.924 30.1177 730.245 30.837C730.574 31.5477 730.739 32.384 730.739 33.346ZM723.407 33.346C723.407 34.516 723.654 35.439 724.148 36.115C724.642 36.7823 725.413 37.116 726.462 37.116C727.511 37.116 728.278 36.7823 728.763 36.115C729.257 35.439 729.504 34.516 729.504 33.346C729.504 32.176 729.261 31.2617 728.776 30.603C728.291 29.9357 727.524 29.602 726.475 29.602C725.418 29.602 724.642 29.9357 724.148 30.603C723.654 31.2617 723.407 32.176 723.407 33.346ZM735.643 28.718C736.856 28.718 737.74 28.9563 738.295 29.433C738.85 29.9097 739.127 30.5813 739.127 31.448C739.127 31.9593 739.01 32.4403 738.776 32.891C738.551 33.333 738.165 33.6927 737.619 33.97C737.082 34.2473 736.349 34.386 735.422 34.386H734.356V38H733.186V28.718H735.643ZM735.539 29.719H734.356V33.385H735.292C736.176 33.385 736.835 33.242 737.268 32.956C737.701 32.67 737.918 32.1847 737.918 31.5C737.918 30.902 737.723 30.4557 737.333 30.161C736.952 29.8663 736.354 29.719 735.539 29.719ZM746.624 38L745.506 35.127H741.827L740.722 38H739.539L743.166 28.679H744.219L747.833 38H746.624ZM745.155 34.087L744.115 31.279C744.089 31.2097 744.045 31.084 743.985 30.902C743.924 30.72 743.863 30.5337 743.803 30.343C743.751 30.1437 743.707 29.992 743.673 29.888C743.603 30.1567 743.53 30.421 743.452 30.681C743.382 30.9323 743.322 31.1317 743.27 31.279L742.217 34.087H745.155Z" fill="white"/>
<path d="M777.274 28.718H778.366V33.814C778.366 34.1087 778.362 34.4337 778.353 34.789C778.344 35.1357 778.331 35.4607 778.314 35.764C778.297 36.0587 778.284 36.271 778.275 36.401H778.327L783.436 28.718H784.736V38H783.644V32.956C783.644 32.644 783.648 32.306 783.657 31.942C783.674 31.5693 783.692 31.2313 783.709 30.928C783.726 30.6247 783.739 30.408 783.748 30.278H783.696L778.574 38H777.274V28.718ZM794.728 38H793.558V33.671H788.8V38H787.63V28.718H788.8V32.644H793.558V28.718H794.728V38ZM797.655 28.718H800.307C801.46 28.718 802.335 28.8913 802.933 29.238C803.531 29.5847 803.83 30.1783 803.83 31.019C803.83 31.565 803.679 32.02 803.375 32.384C803.072 32.7393 802.634 32.969 802.062 33.073V33.138C802.452 33.2073 802.803 33.3243 803.115 33.489C803.436 33.6537 803.687 33.8877 803.869 34.191C804.051 34.4943 804.142 34.8843 804.142 35.361C804.142 36.2017 803.852 36.8517 803.271 37.311C802.699 37.7703 801.915 38 800.918 38H797.655V28.718ZM798.825 32.67H800.541C801.33 32.67 801.872 32.5443 802.166 32.293C802.47 32.033 802.621 31.6517 802.621 31.149C802.621 30.6377 802.439 30.2737 802.075 30.057C801.72 29.8317 801.148 29.719 800.359 29.719H798.825V32.67ZM798.825 33.645V37.012H800.697C801.521 37.012 802.093 36.8517 802.413 36.531C802.734 36.2103 802.894 35.79 802.894 35.27C802.894 34.7847 802.725 34.3947 802.387 34.1C802.058 33.7967 801.464 33.645 800.606 33.645H798.825ZM811.687 38H806.5V28.718H811.687V29.745H807.67V32.644H811.453V33.658H807.67V36.973H811.687V38ZM818.092 29.615C817.095 29.615 816.311 29.9487 815.739 30.616C815.167 31.2833 814.881 32.1977 814.881 33.359C814.881 34.5117 815.145 35.426 815.674 36.102C816.211 36.7693 817.013 37.103 818.079 37.103C818.478 37.103 818.859 37.0683 819.223 36.999C819.587 36.9297 819.947 36.843 820.302 36.739V37.753C819.955 37.883 819.596 37.9783 819.223 38.039C818.859 38.0997 818.421 38.13 817.91 38.13C816.965 38.13 816.177 37.935 815.544 37.545C814.911 37.155 814.435 36.6003 814.114 35.881C813.802 35.1617 813.646 34.3167 813.646 33.346C813.646 32.41 813.815 31.5867 814.153 30.876C814.5 30.1567 815.007 29.5977 815.674 29.199C816.341 28.7917 817.152 28.588 818.105 28.588C819.084 28.588 819.938 28.77 820.666 29.134L820.198 30.122C819.912 29.992 819.591 29.875 819.236 29.771C818.889 29.667 818.508 29.615 818.092 29.615ZM825.656 38H824.486V29.745H821.587V28.718H828.542V29.745H825.656V38ZM830.344 28.718H831.436V33.814C831.436 34.1087 831.432 34.4337 831.423 34.789C831.415 35.1357 831.402 35.4607 831.384 35.764C831.367 36.0587 831.354 36.271 831.345 36.401H831.397L836.506 28.718H837.806V38H836.714V32.956C836.714 32.644 836.719 32.306 836.727 31.942C836.745 31.5693 836.762 31.2313 836.779 30.928C836.797 30.6247 836.81 30.408 836.818 30.278H836.766L831.644 38H830.344V28.718ZM848.799 36.973V40.444H847.681V38H840.7V28.718H841.87V36.96H846.511V28.718H847.668V36.973H848.799ZM850.739 28.718H851.831V33.814C851.831 34.1087 851.826 34.4337 851.818 34.789C851.809 35.1357 851.796 35.4607 851.779 35.764C851.761 36.0587 851.748 36.271 851.74 36.401H851.792L856.901 28.718H858.201V38H857.109V32.956C857.109 32.644 857.113 32.306 857.122 31.942C857.139 31.5693 857.156 31.2313 857.174 30.928C857.191 30.6247 857.204 30.408 857.213 30.278H857.161L852.039 38H850.739V28.718ZM869.193 33.346C869.193 34.308 869.029 35.1487 868.699 35.868C868.379 36.5787 867.898 37.1333 867.256 37.532C866.624 37.9307 865.844 38.13 864.916 38.13C863.954 38.13 863.153 37.9307 862.511 37.532C861.879 37.1333 861.406 36.5743 861.094 35.855C860.782 35.1357 860.626 34.295 860.626 33.333C860.626 32.3883 860.782 31.5607 861.094 30.85C861.406 30.1307 861.879 29.5717 862.511 29.173C863.153 28.7743 863.959 28.575 864.929 28.575C865.857 28.575 866.637 28.7743 867.269 29.173C867.902 29.563 868.379 30.1177 868.699 30.837C869.029 31.5477 869.193 32.384 869.193 33.346ZM861.861 33.346C861.861 34.516 862.108 35.439 862.602 36.115C863.096 36.7823 863.868 37.116 864.916 37.116C865.965 37.116 866.732 36.7823 867.217 36.115C867.711 35.439 867.958 34.516 867.958 33.346C867.958 32.176 867.716 31.2617 867.23 30.603C866.745 29.9357 865.978 29.602 864.929 29.602C863.872 29.602 863.096 29.9357 862.602 30.603C862.108 31.2617 861.861 32.176 861.861 33.346ZM878.738 38H877.568V33.671H872.81V38H871.64V28.718H872.81V32.644H877.568V28.718H878.738V38ZM888.764 38H887.594V33.671H882.836V38H881.666V28.718H882.836V32.644H887.594V28.718H888.764V38ZM897.516 38L896.398 35.127H892.719L891.614 38H890.431L894.058 28.679H895.111L898.725 38H897.516ZM896.047 34.087L895.007 31.279C894.981 31.2097 894.938 31.084 894.877 30.902C894.816 30.72 894.756 30.5337 894.695 30.343C894.643 30.1437 894.6 29.992 894.565 29.888C894.496 30.1567 894.422 30.421 894.344 30.681C894.275 30.9323 894.214 31.1317 894.162 31.279L893.109 34.087H896.047ZM903.18 34.152L900.775 38H899.41L902.01 33.944C901.68 33.84 901.368 33.6883 901.074 33.489C900.788 33.2897 900.554 33.0167 900.372 32.67C900.19 32.3233 900.099 31.8727 900.099 31.318C900.099 30.4773 900.385 29.836 900.957 29.394C901.537 28.9433 902.408 28.718 903.57 28.718H906.17V38H905V34.152H903.18ZM905 29.719H903.596C902.85 29.719 902.283 29.849 901.893 30.109C901.503 30.3603 901.308 30.7807 901.308 31.37C901.308 31.942 901.498 32.384 901.88 32.696C902.261 33.008 902.85 33.164 903.648 33.164H905V29.719ZM918.868 38H917.464L913.265 33.294V38H912.095V28.718H913.265V33.216L917.36 28.718H918.686L914.656 33.229L918.868 38ZM926.346 38L925.228 35.127H921.549L920.444 38H919.261L922.888 28.679H923.941L927.555 38H926.346ZM924.877 34.087L923.837 31.279C923.811 31.2097 923.767 31.084 923.707 30.902C923.646 30.72 923.585 30.5337 923.525 30.343C923.473 30.1437 923.429 29.992 923.395 29.888C923.325 30.1567 923.252 30.421 923.174 30.681C923.104 30.9323 923.044 31.1317 922.992 31.279L921.939 34.087H924.877ZM931.671 28.718C932.885 28.718 933.769 28.9563 934.323 29.433C934.878 29.9097 935.155 30.5813 935.155 31.448C935.155 31.9593 935.038 32.4403 934.804 32.891C934.579 33.333 934.193 33.6927 933.647 33.97C933.11 34.2473 932.378 34.386 931.45 34.386H930.384V38H929.214V28.718H931.671ZM931.567 29.719H930.384V33.385H931.32C932.204 33.385 932.863 33.242 933.296 32.956C933.73 32.67 933.946 32.1847 933.946 31.5C933.946 30.902 933.751 30.4557 933.361 30.161C932.98 29.8663 932.382 29.719 931.567 29.719ZM940.413 38H939.243V29.745H936.344V28.718H943.299V29.745H940.413V38ZM949.999 38L948.881 35.127H945.202L944.097 38H942.914L946.541 28.679H947.594L951.208 38H949.999ZM948.53 34.087L947.49 31.279C947.464 31.2097 947.421 31.084 947.36 30.902C947.299 30.72 947.239 30.5337 947.178 30.343C947.126 30.1437 947.083 29.992 947.048 29.888C946.979 30.1567 946.905 30.421 946.827 30.681C946.758 30.9323 946.697 31.1317 946.645 31.279L945.592 34.087H948.53Z" fill="white"/>
<path fill-rule="evenodd" clip-rule="evenodd" d="M55.5774 28.5383L59.163 32.477V67.9739L55.5774 64.045V28.5383ZM48.847 21.1594L52.2759 24.9221V60.4191L48.847 56.6661V21.1594ZM41.901 13.5361L45.5552 17.5432V53.0402L41.901 49.0331V13.5361ZM31.5654 25.5672L34.9061 21.8142V5.84449L38.6093 9.91022V45.4072L34.9061 41.3512V29.6818L31.5654 25.5672ZM27.5585 30.493L29.5864 28.1865L31.6144 30.493V37.7253L29.5766 35.5067L27.5585 37.7253V30.493ZM27.5585 2.22833L29.5864 0L31.6144 2.22833V20.6414L29.5766 22.9577L27.5585 20.6414V2.22833ZM20.5537 9.91022L24.2569 5.84449V21.8044L27.3136 25.5672L24.2569 29.6818V41.3414L20.5537 45.4169V9.91022ZM13.8625 17.25L17.2522 13.5361V49.0331L13.8625 52.747V17.25ZM7.05372 24.7267L10.561 20.876V56.3729L7.05372 60.2236V24.7267ZM0 67.9642V32.477L3.76198 28.3526V63.8496L0 67.9642Z" fill="#CA2138"/>
<path d="M100.888 60.5755H100.251C99.6046 60.5755 99.1344 60.077 99.1344 59.4613C99.1344 58.9238 99.5165 58.4156 100.271 58.4156H100.888V60.5755ZM100.888 62.5497C100.888 63.2632 100.868 64.0744 100.839 64.4067H102.456C102.426 64.0744 102.407 63.2632 102.407 62.5497V59.0997C102.407 58.3862 102.426 57.536 102.456 57.2134H100.3C98.527 57.2134 97.6061 58.1615 97.6061 59.4613C97.6061 60.6439 98.2037 61.1717 98.8307 61.4453C98.1155 62.4422 97.5571 63.5955 96.8223 64.4067H98.5662C99.0266 63.7812 99.683 62.3836 100.202 61.6506C100.33 61.6603 100.428 61.6603 100.526 61.6603H100.888V62.5497ZM93.5208 61.5137H92.0219L92.7762 59.7154L93.5208 61.5137ZM96.597 64.4067C96.3423 63.9766 96.0288 63.4098 95.7447 62.8038L93.0603 57.0962H92.6391L90.0331 62.8038C89.7686 63.4098 89.4845 63.9375 89.22 64.4067H90.8267C90.9246 64.1232 91.0324 63.8496 91.1891 63.4782L91.5124 62.7354H94.0204L94.3535 63.5075C94.4907 63.8203 94.6278 64.1525 94.7062 64.4067H96.597ZM86.3887 58.3667H86.8883C87.6917 58.3667 88.1129 58.9531 88.1129 59.5297C88.1129 60.0966 87.6623 60.6928 86.8883 60.6928H86.3887V58.3667ZM86.3887 61.8363H87.0549C88.6812 61.8363 89.6315 60.8882 89.6315 59.5395C89.6315 58.2006 88.691 57.2232 87.0647 57.2232H84.8212C84.8506 57.5457 84.8702 58.2983 84.8702 59.0117V62.5399C84.8702 63.2534 84.8506 64.0841 84.8212 64.4164H86.4377C86.4083 64.0841 86.3985 63.2436 86.3985 62.5399V61.8363H86.3887ZM77.9634 62.5302C77.9634 63.2436 77.9438 64.0744 77.9242 64.4067H79.5211C79.5015 64.0744 79.4819 63.2339 79.4819 62.5302V61.2792H79.9228C81.0788 62.755 81.5295 63.5271 82.0291 64.4067H84.1256C83.3419 63.5173 82.7247 62.3933 81.3139 60.6244C82.4994 59.2072 83.2831 57.8976 83.8905 57.2134H82.0487C81.5981 57.9953 81.0298 58.9629 80.0502 60.1748H79.4917V59.0997C79.4917 58.3862 79.5113 57.536 79.5309 57.2232H77.934C77.9536 57.5457 77.9732 58.396 77.9732 59.0997L77.9634 62.5302ZM169.867 48.046C169.867 46.6875 170.867 45.6027 172.15 45.6027C173.434 45.6027 174.452 46.6875 174.452 48.046C174.452 49.4045 173.434 50.4894 172.15 50.4894C170.867 50.4894 169.867 49.4045 169.867 48.046ZM168.32 48.046C168.32 50.0984 169.985 51.7697 172.15 51.7697C174.345 51.7697 176 50.1082 176 48.046C176 45.9838 174.345 44.3223 172.15 44.3223C169.985 44.3223 168.32 45.9936 168.32 48.046ZM163.588 51.6426H165.204C165.185 51.3201 165.165 50.4796 165.165 49.7661V45.7493H166.429C167.144 45.7493 167.634 45.759 167.957 45.7884V44.4103C167.634 44.4298 167.144 44.4689 166.429 44.4689H163.588C163.617 44.7817 163.637 45.6222 163.637 46.3357V49.7759C163.637 50.4796 163.617 51.3201 163.588 51.6426ZM156.201 48.046C156.201 46.6875 157.21 45.6027 158.493 45.6027C159.777 45.6027 160.786 46.6875 160.786 48.046C160.786 49.4045 159.777 50.4894 158.493 50.4894C157.21 50.4894 156.201 49.4045 156.201 48.046ZM154.673 48.046C154.673 50.0984 156.338 51.7697 158.503 51.7697C160.698 51.7697 162.344 50.1082 162.344 48.046C162.344 45.9838 160.688 44.3223 158.493 44.3223C156.338 44.3223 154.673 45.9936 154.673 48.046ZM148.452 49.7759C148.452 50.4894 148.432 51.3299 148.412 51.6524H150.009C149.99 51.3201 149.97 50.4796 149.97 49.7759V48.5249H150.401C151.557 50.0007 152.018 50.7826 152.517 51.6524H154.614C153.83 50.7728 153.213 49.6488 151.792 47.8799C152.988 46.4627 153.771 45.1531 154.379 44.4689H152.537C152.076 45.2508 151.518 46.2184 150.538 47.4205H149.97V46.3357C149.97 45.6222 149.99 44.7719 150.009 44.4689H148.412C148.432 44.7817 148.452 45.632 148.452 46.3357V49.7759ZM142.995 48.0362C142.995 46.7168 144.053 45.6417 145.424 45.6417C146.071 45.6417 146.669 45.847 147.109 46.2575V44.5569C146.58 44.4983 146.218 44.3321 145.307 44.3321C143.063 44.3321 141.476 45.9936 141.476 48.046C141.476 50.1082 143.063 51.7794 145.307 51.7794C146.198 51.7794 146.58 51.6231 147.188 51.5156V49.8541C146.737 50.2743 146.11 50.46 145.434 50.46C144.063 50.46 142.995 49.3752 142.995 48.0362ZM137.283 45.6027H137.793C138.586 45.6027 139.007 46.1891 139.007 46.7657C139.007 47.3325 138.557 47.9287 137.793 47.9287H137.283V45.6027ZM137.283 49.0722H137.959C139.576 49.0722 140.526 48.134 140.526 46.7755C140.526 45.4365 139.595 44.4592 137.969 44.4592H135.716C135.755 44.7719 135.775 45.5245 135.775 46.2379V49.7661C135.775 50.4796 135.755 51.3201 135.716 51.6426H137.322C137.293 51.3201 137.283 50.4796 137.283 49.7661V49.0722ZM131.895 48.7497H130.406L131.15 46.9514L131.895 48.7497ZM134.971 51.6426C134.726 51.2126 134.403 50.6457 134.119 50.0398L131.444 44.3321H131.023L128.417 50.0495C128.153 50.6653 127.859 51.1833 127.604 51.6524H129.211C129.309 51.369 129.416 51.0953 129.563 50.7239L129.887 49.9811H132.395L132.718 50.763C132.855 51.0758 132.992 51.4178 133.071 51.6524H134.971V51.6426ZM124.528 50.3916H121.775L123.166 46.8634L124.528 50.3916ZM127.124 50.3721C126.918 50.3916 126.595 50.3916 126.183 50.3916C126.007 50.0495 125.831 49.6782 125.664 49.3068L123.44 44.2246H122.98L120.736 49.3068C120.531 49.7466 120.393 50.0593 120.217 50.3916C119.894 50.3916 119.522 50.3916 119.316 50.3721L119.522 53.8123H120.854L120.834 51.6524H125.605L125.527 53.8123H126.84L127.124 50.3721ZM112.811 48.046C112.811 46.6875 113.81 45.6027 115.093 45.6027C116.377 45.6027 117.396 46.6875 117.396 48.046C117.396 49.4045 116.377 50.4894 115.093 50.4894C113.81 50.4894 112.811 49.4045 112.811 48.046ZM111.273 48.046C111.273 50.0984 112.938 51.7697 115.103 51.7697C117.288 51.7697 118.944 50.1082 118.944 48.046C118.944 45.9838 117.278 44.3223 115.103 44.3223C112.938 44.3223 111.273 45.9936 111.273 48.046ZM105.365 46.3357C105.365 45.5929 105.375 44.7426 105.395 44.4689H103.807C103.827 44.7524 103.847 45.6027 103.847 46.3357V50.1277C103.847 50.6848 103.827 51.3494 103.807 51.6524H105.395C105.375 51.3592 105.365 50.6848 105.365 50.1375V48.476H108.422V50.1277C108.422 50.6848 108.402 51.3494 108.383 51.6524H109.989C109.97 51.3592 109.93 50.6848 109.93 50.1375V46.3357C109.93 45.759 109.97 44.9185 109.989 44.4689H108.383C108.412 44.9087 108.422 45.7395 108.422 46.3357V47.225H105.365V46.3357ZM98.3604 48.0362C98.3604 46.7168 99.4185 45.6417 100.79 45.6417C101.437 45.6417 102.044 45.847 102.485 46.2575V44.5569C101.956 44.4983 101.593 44.3321 100.682 44.3321C98.4388 44.3321 96.8517 45.9936 96.8517 48.046C96.8517 50.1082 98.4388 51.7794 100.682 51.7794C101.574 51.7794 101.956 51.6231 102.563 51.5156V49.8541C102.113 50.2743 101.486 50.46 100.8 50.46C99.4185 50.46 98.3604 49.3752 98.3604 48.0362ZM93.5208 48.7497H92.0219L92.7762 46.9514L93.5208 48.7497ZM96.597 51.6426C96.3423 51.2126 96.0288 50.6457 95.7447 50.0398L93.0603 44.3321H92.6391L90.0331 50.0398C89.7686 50.6555 89.4845 51.1735 89.22 51.6426H90.8267C90.9246 51.3592 91.0324 51.0855 91.1891 50.7141L91.5124 49.9714H94.0204L94.3535 50.7532C94.4907 51.066 94.6278 51.408 94.7062 51.6426H96.597ZM86.3887 45.6027H86.8883C87.6917 45.6027 88.1129 46.1891 88.1129 46.7657C88.1129 47.3325 87.6623 47.9287 86.8883 47.9287H86.3887V45.6027ZM86.3887 49.0722H87.0549C88.6812 49.0722 89.6315 48.134 89.6315 46.7755C89.6315 45.4365 88.691 44.4592 87.0647 44.4592H84.8212C84.8506 44.7719 84.8702 45.5245 84.8702 46.2379V49.7661C84.8702 50.4796 84.8506 51.3201 84.8212 51.6426H86.4377C86.3985 51.3201 86.3887 50.4796 86.3887 49.7759V49.0722ZM77.9634 49.7759C77.9634 50.4894 77.9438 51.3299 77.9242 51.6524H79.5211C79.5015 51.3299 79.4819 50.4894 79.4819 49.7759V48.5249H79.9228C81.0788 50.0007 81.5295 50.7826 82.0291 51.6524H84.1256C83.3419 50.7728 82.7247 49.6488 81.3139 47.8799C82.4994 46.4627 83.2831 45.1531 83.8905 44.4689H82.0487C81.5981 45.2508 81.0298 46.2184 80.0502 47.4205H79.4917V46.3357C79.4917 45.6222 79.5113 44.7719 79.5309 44.4689H77.934C77.9536 44.7817 77.9732 45.632 77.9732 46.3357L77.9634 49.7759ZM143.72 29.9359H142.554C142.583 30.796 143.298 31.4215 144.523 31.4215C145.757 31.4215 146.482 30.796 146.512 29.9359H145.336C145.317 30.3073 144.993 30.581 144.523 30.581C144.053 30.581 143.739 30.2975 143.72 29.9359ZM145.836 37.3832C145.836 37.9305 145.816 38.5951 145.797 38.8883H147.384C147.364 38.5951 147.345 37.9208 147.345 37.3735V33.6107C147.345 32.9852 147.364 32.1056 147.384 31.5387H147.002C146.531 32.0665 146.277 32.3499 145.806 32.8191L142.789 36.015V33.5814C142.789 32.9754 142.809 32.1447 142.838 31.7049H141.222C141.251 32.1642 141.28 33.0048 141.28 33.5814V37.4028C141.28 37.8426 141.271 38.4388 141.222 39.0447H141.604C142.035 38.5463 142.525 38.0283 142.936 37.5982L145.836 34.5001V37.3832ZM138.126 37.3832C138.126 37.9305 138.106 38.5951 138.087 38.8883H139.683C139.654 38.5951 139.634 37.9208 139.634 37.3735V33.6107C139.634 32.9852 139.654 32.1056 139.683 31.5387H139.292C138.831 32.0665 138.567 32.3499 138.096 32.8191L135.079 36.015V33.5814C135.079 32.9754 135.099 32.1447 135.138 31.7049H133.521C133.541 32.1642 133.57 33.0048 133.57 33.5814V37.4028C133.57 37.8426 133.56 38.4388 133.521 39.0447H133.903C134.334 38.5463 134.834 38.0283 135.245 37.5982L138.136 34.5001L138.126 37.3832ZM132.493 37.6178H131.64V37.0509V33.5716C131.64 32.8093 131.66 31.9492 131.689 31.7049H130.073C130.102 32.0861 130.122 32.9559 130.122 33.6009V37.6569H127.437V33.5912C127.437 32.8777 127.467 32.0274 127.496 31.7049H125.88C125.899 32.0274 125.929 32.8777 125.929 33.5912V36.963C125.929 37.4028 125.909 38.5072 125.88 38.8883H130.984L130.925 41.0483H132.218L132.493 37.6178ZM122.784 37.3832C122.784 37.9305 122.764 38.5951 122.745 38.8883H124.332C124.312 38.5951 124.293 37.9208 124.293 37.3735V33.6107C124.293 32.9852 124.312 32.1056 124.332 31.5387H123.94C123.479 32.0665 123.225 32.3499 122.755 32.8191L119.727 36.015V33.5814C119.727 32.9754 119.757 32.1447 119.786 31.7049H118.17C118.199 32.1642 118.228 33.0048 118.228 33.5814V37.4028C118.228 37.8426 118.219 38.4388 118.17 39.0447H118.552C118.983 38.5463 119.473 38.0283 119.884 37.5982L122.784 34.5001V37.3832ZM112.948 31.7049C112.233 31.7049 111.41 31.6853 111.106 31.6658V32.995C111.41 32.9754 112.233 32.9461 112.948 32.9461H113.408C113.428 33.3371 113.438 33.8648 113.438 34.2948V37.0118C113.438 37.7253 113.418 38.5658 113.399 38.8883H115.015C114.986 38.556 114.966 37.7253 114.966 37.0118V34.2948C114.966 33.8648 114.966 33.3371 114.976 32.9461H115.446C116.161 32.9461 116.994 32.9657 117.307 32.995V31.6658C116.994 31.6853 116.161 31.7049 115.446 31.7049H112.948ZM106.08 35.282C106.08 33.9625 107.138 32.8972 108.51 32.8972C109.157 32.8972 109.764 33.0927 110.205 33.513V31.8026C109.676 31.7342 109.303 31.5681 108.392 31.5681C106.149 31.5681 104.562 33.2393 104.562 35.282C104.562 37.3441 106.149 39.0154 108.392 39.0154C109.284 39.0154 109.676 38.859 110.283 38.7613V37.09C109.823 37.5103 109.206 37.7058 108.52 37.7058C107.138 37.7058 106.08 36.6111 106.08 35.282ZM101.711 32.9461C102.426 32.9461 103.18 32.9559 103.514 32.995V31.656C103.19 31.6756 102.436 31.7049 101.711 31.7049H99.4675C99.4871 32.0274 99.5067 32.8484 99.5067 33.5716V37.0118C99.5067 37.481 99.4871 38.3117 99.4675 38.8883H101.799C102.524 38.8883 103.278 38.9079 103.602 38.9274V37.5982C103.288 37.6178 102.534 37.6373 101.799 37.6373H101.035V35.7609H101.633C102.348 35.7609 103.043 35.7804 103.376 35.7999V34.4708C103.043 34.4903 102.358 34.5196 101.633 34.5196H101.035V32.9461H101.711ZM94.9609 32.8288H95.3822C95.9602 32.8288 96.3815 33.1514 96.3815 33.6596C96.3815 34.1971 95.9798 34.4805 95.4802 34.4805H94.9609V32.8288ZM96.7831 36.6405C96.7831 37.3246 96.2541 37.6862 95.4704 37.6862H94.9609V35.5849H95.5389C96.2737 35.5849 96.7831 35.9661 96.7831 36.6405ZM93.3934 38.8883H95.5879C97.4003 38.8883 98.3114 37.8621 98.3114 36.6796C98.3114 35.7022 97.6453 35.0767 96.9693 34.8324C97.4787 34.6174 97.851 34.1092 97.851 33.4348C97.851 32.5845 97.224 31.6951 95.5389 31.6951H93.4032C93.4326 32.0176 93.4424 33.1123 93.4424 33.8355V37.0021C93.4522 37.7253 93.4228 38.5658 93.3934 38.8883ZM87.2116 33.5814C87.2116 32.8386 87.2214 31.9786 87.241 31.7049H85.6539C85.6735 31.9883 85.6931 32.8386 85.6931 33.5814V37.3735C85.6931 37.9305 85.6735 38.5951 85.6539 38.8883H87.241C87.2214 38.5951 87.2116 37.9208 87.2116 37.3832V35.712H90.2682V37.3735C90.2682 37.9305 90.2487 38.5951 90.2291 38.8883H91.8357C91.8063 38.5951 91.777 37.9305 91.777 37.3832V33.5814C91.777 33.0048 91.8063 32.1642 91.8357 31.7049H90.2291C90.2585 32.1447 90.2682 32.9852 90.2682 33.5814V34.461H87.2116V33.5814ZM82.519 37.3832C82.519 37.9305 82.5092 38.5951 82.4896 38.8883H84.0766C84.0571 38.5951 84.0375 37.9208 84.0375 37.3735V33.6107C84.0375 32.9852 84.0571 32.1056 84.0766 31.5387H83.6946C83.2341 32.0665 82.9696 32.3499 82.4994 32.8191L79.4819 36.015V33.5814C79.4819 32.9754 79.5015 32.1447 79.5407 31.7049H77.9144C77.934 32.1642 77.9634 33.0048 77.9634 33.5814V37.4028C77.9634 37.8426 77.9536 38.4388 77.9144 39.0447H78.2965C78.7276 38.5463 79.2174 38.0283 79.6289 37.5982L82.519 34.5001V37.3832ZM168.055 22.5375C168.055 21.218 168.849 20.143 170.034 20.143C171.249 20.143 172.033 21.218 172.033 22.5375C172.033 23.8569 171.249 24.9319 170.034 24.9319C168.849 24.9319 168.055 23.8569 168.055 22.5375ZM165.478 20.8271C165.478 20.1137 165.508 19.2634 165.527 18.9604H163.931C163.95 19.2731 163.98 20.1234 163.98 20.8271V24.2576C163.98 24.971 163.95 25.8115 163.931 26.1341H165.527C165.508 25.8115 165.478 24.971 165.478 24.2576V23.2314H166.556C166.84 24.9319 168.202 26.2025 170.024 26.2025C172.121 26.2025 173.58 24.5605 173.58 22.5375C173.58 20.5144 172.121 18.8724 170.024 18.8724C168.163 18.8724 166.781 20.2114 166.546 21.9608H165.478V20.8271ZM160.815 24.6192C160.815 25.1665 160.805 25.8409 160.786 26.1341H162.373C162.353 25.8409 162.334 25.1665 162.334 24.6094V20.8662C162.334 20.2309 162.353 19.3513 162.373 18.7845H161.981C161.521 19.3122 161.266 19.5957 160.796 20.0648L157.778 23.2509V20.8271C157.778 20.2309 157.798 19.4002 157.827 18.9604H156.211C156.24 19.4197 156.269 20.2603 156.269 20.8271V24.6485C156.269 25.0883 156.26 25.6845 156.211 26.2904H156.593C157.024 25.8018 157.514 25.274 157.925 24.8537L160.815 21.7458V24.6192ZM150.039 20.8271C150.039 20.0843 150.048 19.2341 150.068 18.9604H148.481C148.501 19.2438 148.53 20.0941 148.53 20.8271V24.6192C148.53 25.1763 148.501 25.8409 148.481 26.1438H150.068C150.048 25.8506 150.039 25.1763 150.039 24.629V22.9675H153.105V24.6192C153.105 25.1763 153.086 25.8409 153.066 26.1438H154.663C154.643 25.8506 154.614 25.1763 154.614 24.629V20.8271C154.614 20.2505 154.643 19.41 154.663 18.9604H153.066C153.095 19.4002 153.105 20.2309 153.105 20.8271V21.7067H150.039V20.8271ZM145.326 20.2016C146.032 20.2016 146.796 20.2114 147.119 20.2407V18.892C146.806 18.9115 146.042 18.9506 145.326 18.9506H143.083C143.103 19.2634 143.122 20.0941 143.122 20.8076V24.2478C143.122 24.7169 143.103 25.5477 143.083 26.1243H145.415C146.13 26.1243 146.884 26.1438 147.207 26.1634V24.844C146.894 24.8635 146.14 24.8733 145.415 24.8733H144.641V23.0066H145.248C145.963 23.0066 146.659 23.0261 146.982 23.0457V21.7165C146.639 21.736 145.953 21.7556 145.238 21.7556H144.631V20.1918L145.326 20.2016ZM137.43 21.0128V20.055C137.43 19.752 137.44 19.2438 137.469 18.9604H135.882C135.902 19.2536 135.912 19.752 135.912 20.055V21.4037C135.912 22.8502 136.999 23.5637 138.351 23.5637C139.086 23.5637 139.634 23.4366 139.968 23.29V25.0297C139.968 25.4108 139.958 25.8897 139.928 26.1341H141.525C141.506 25.88 141.476 25.3424 141.476 24.9417V20.055C141.476 19.752 141.486 19.2438 141.515 18.9604H139.928C139.958 19.2536 139.968 19.752 139.968 20.055V22.039C139.634 22.2247 139.194 22.2833 138.714 22.2833C138.038 22.2833 137.43 21.9217 137.43 21.0128ZM132.884 20.2016C133.609 20.2016 134.354 20.2114 134.697 20.2407V18.892C134.364 18.9115 133.619 18.9506 132.884 18.9506H130.641C130.67 19.2634 130.69 20.0941 130.69 20.8076V24.2478C130.69 24.7169 130.67 25.5477 130.641 26.1243H132.973C133.698 26.1243 134.452 26.1438 134.775 26.1634V24.844C134.462 24.8635 133.707 24.8733 132.973 24.8733H132.208V23.0066H132.816C133.531 23.0066 134.227 23.0261 134.55 23.0457V21.7165C134.227 21.736 133.531 21.7556 132.816 21.7556H132.208V20.1918L132.884 20.2016ZM127.545 24.8147C127.731 25.3326 127.878 25.7822 127.976 26.1341H129.896C129.632 25.7138 129.348 25.0981 129.103 24.5312L126.556 18.7063H126.183L123.587 24.5312C123.342 25.0883 123.058 25.7138 122.804 26.1341H124.449C124.547 25.8506 124.655 25.5379 124.792 25.1958C125.253 24.0426 125.743 22.8502 126.262 21.6676C126.742 22.8404 127.095 23.6809 127.545 24.8147ZM119.002 20.0746H119.424C120.002 20.0746 120.423 20.3873 120.423 20.8955C120.423 21.4331 120.021 21.7263 119.522 21.7263H119.002V20.0746ZM120.825 23.896C120.825 24.5801 120.296 24.9417 119.512 24.9417H119.002V22.8307H119.59C120.305 22.8307 120.825 23.2216 120.825 23.896ZM117.435 26.1341H119.639C121.452 26.1341 122.363 25.1079 122.363 23.9253C122.363 22.9479 121.687 22.3224 121.02 22.0781C121.53 21.8631 121.892 21.3549 121.892 20.6805C121.892 19.8302 121.275 18.9408 119.59 18.9408H117.445C117.474 19.2536 117.484 20.358 117.484 21.0714V24.238C117.484 24.971 117.464 25.8115 117.435 26.1341ZM114.319 24.6192C114.319 25.1665 114.31 25.8409 114.28 26.1341H115.867C115.848 25.8409 115.828 25.1665 115.828 24.6094V20.8662C115.828 20.2309 115.848 19.3513 115.867 18.7845H115.485C115.015 19.3122 114.76 19.5957 114.29 20.0648L111.273 23.2509V20.8271C111.273 20.2309 111.292 19.4002 111.322 18.9604H109.715C109.735 19.4197 109.764 20.2603 109.764 20.8271V24.6485C109.764 25.0883 109.754 25.6845 109.715 26.2904H110.087C110.518 25.8018 111.018 25.274 111.429 24.8537L114.319 21.7458V24.6192ZM105.365 20.0941H105.865C106.668 20.0941 107.08 20.6805 107.08 21.2571C107.08 21.8338 106.629 22.4299 105.865 22.4299H105.365V20.0941ZM105.365 23.5637H106.022C107.648 23.5637 108.608 22.6156 108.608 21.2669C108.608 19.928 107.667 18.9506 106.031 18.9506H103.788C103.827 19.2634 103.847 20.0159 103.847 20.7294V24.2478C103.847 24.9613 103.827 25.8018 103.788 26.1243H105.404C105.375 25.8115 105.365 24.971 105.365 24.2576V23.5637ZM96.2345 18.9506C96.2639 19.3318 96.2835 20.4459 96.2835 20.876V24.2478C96.2835 24.9613 96.2541 25.8018 96.2345 26.1243H97.8608C97.8216 25.8115 97.802 24.971 97.802 24.2576V20.2114H100.653V24.2576C100.653 24.8928 100.643 25.7431 100.614 26.1341H102.211C102.191 25.88 102.171 25.0199 102.171 24.2673V20.7978C102.171 20.3189 102.181 19.2634 102.211 18.9604H96.2345V18.9506ZM86.7414 22.5375C86.7414 21.179 87.7407 20.0941 89.0339 20.0941C90.327 20.0941 91.3361 21.179 91.3361 22.5375C91.3361 23.896 90.327 24.9808 89.0339 24.9808C87.7407 24.9808 86.7414 23.896 86.7414 22.5375ZM85.2033 22.5375C85.2033 24.5899 86.8688 26.2611 89.0339 26.2611C91.2185 26.2611 92.8742 24.5996 92.8742 22.5375C92.8742 20.4753 91.2185 18.8138 89.0339 18.8138C86.8688 18.8138 85.2033 20.485 85.2033 22.5375ZM77.934 18.9506C77.9634 19.3318 77.983 20.4459 77.983 20.876V24.2478C77.983 24.9613 77.9536 25.8018 77.934 26.1243H79.5505C79.5211 25.8115 79.5015 24.971 79.5015 24.2576V20.2114H82.3524V24.2576C82.3524 24.8928 82.3426 25.7431 82.3132 26.1341H83.9199C83.9003 25.88 83.8807 25.0199 83.8807 24.2673V20.7978C83.8807 20.3189 83.8905 19.2634 83.9199 18.9604H77.934V18.9506ZM130.612 9.77341C130.612 8.42468 131.611 7.33006 132.904 7.33006C134.197 7.33006 135.206 8.42468 135.206 9.77341C135.206 11.1319 134.187 12.2168 132.904 12.2168C131.601 12.2265 130.612 11.1319 130.612 9.77341ZM129.073 9.77341C129.073 11.8258 130.729 13.4971 132.904 13.4971C135.089 13.4971 136.744 11.8258 136.744 9.77341C136.744 7.72099 135.089 6.04974 132.904 6.04974C130.729 6.04974 129.073 7.72099 129.073 9.77341ZM124.822 7.31051H125.243C125.821 7.31051 126.242 7.62326 126.242 8.14125C126.242 8.67879 125.841 8.96222 125.341 8.96222H124.822V7.31051ZM126.634 11.1319C126.634 11.816 126.105 12.1777 125.311 12.1777H124.812V10.0764H125.39C126.125 10.0764 126.634 10.4575 126.634 11.1319ZM123.254 13.37H125.449C127.271 13.37 128.172 12.3438 128.172 11.171C128.172 10.1937 127.506 9.56816 126.83 9.32383C127.339 9.10882 127.712 8.6006 127.712 7.92624C127.712 7.07595 127.095 6.18657 125.4 6.18657H123.264C123.293 6.49932 123.313 7.60371 123.313 8.32694V11.4935C123.313 12.2168 123.284 13.0475 123.254 13.37ZM118.003 6.19635C117.298 6.19635 116.475 6.1768 116.161 6.15725V7.47666C116.475 7.45711 117.298 7.43757 118.003 7.43757H118.473C118.493 7.8285 118.503 8.35627 118.503 8.7863V11.5033C118.503 12.2168 118.483 13.0573 118.464 13.3798H120.08C120.051 13.0573 120.031 12.2168 120.031 11.5033V8.7863C120.031 8.35627 120.031 7.8285 120.041 7.43757H120.501C121.226 7.43757 122.059 7.45711 122.372 7.47666V6.15725C122.059 6.1768 121.226 6.19635 120.501 6.19635H118.003ZM111.135 9.76363C111.135 8.44423 112.194 7.37893 113.565 7.37893C114.212 7.37893 114.819 7.57439 115.26 7.99465V6.28431C114.731 6.21589 114.368 6.04974 113.448 6.04974C111.204 6.04974 109.617 7.72099 109.617 9.76363C109.617 11.8258 111.194 13.4971 113.448 13.4971C114.339 13.4971 114.731 13.3407 115.329 13.2332V11.5815C114.878 12.0017 114.251 12.1972 113.575 12.1972C112.203 12.1874 111.135 11.1026 111.135 9.76363ZM104.905 6.19635C104.19 6.19635 103.376 6.1768 103.063 6.15725V7.47666C103.376 7.45711 104.19 7.43757 104.905 7.43757H105.375C105.395 7.8285 105.404 8.35627 105.404 8.7863V11.5033C105.404 12.2168 105.385 13.0573 105.365 13.3798H106.982C106.942 13.0573 106.923 12.2168 106.923 11.5033V8.7863C106.923 8.35627 106.923 7.8285 106.933 7.43757H107.393C108.118 7.43757 108.951 7.45711 109.264 7.47666V6.15725C108.951 6.1768 108.118 6.19635 107.393 6.19635H104.905ZM97.5179 8.07284C97.5179 7.32028 97.5277 6.47 97.5473 6.19635H95.9602C95.9798 6.47977 95.9994 7.33006 95.9994 8.07284V11.8551C95.9994 12.4122 95.9798 13.0866 95.9602 13.3798H97.5473C97.5277 13.0866 97.5179 12.4122 97.5179 11.8747V10.1937H100.575V11.8454C100.575 12.4024 100.555 13.0768 100.535 13.37H102.142C102.122 13.0768 102.093 12.4024 102.093 11.8649V8.07284C102.093 7.49621 102.122 6.64592 102.142 6.19635H100.535C100.565 6.63615 100.575 7.47666 100.575 8.07284V8.95244H97.5179V8.07284ZM92.7958 7.43757C93.511 7.43757 94.2654 7.44734 94.5984 7.47666V6.1377C94.2654 6.15725 93.511 6.18657 92.7958 6.18657H90.5524C90.5719 6.49932 90.5915 7.33006 90.5915 8.05329V11.4935C90.5915 11.9626 90.5719 12.7934 90.5524 13.37H92.884C93.609 13.37 94.3633 13.3896 94.6866 13.4189V12.0897C94.3731 12.1092 93.609 12.119 92.884 12.119H92.11V10.2523H92.7175C93.4228 10.2523 94.1282 10.2718 94.4515 10.2914V8.96222C94.1282 8.98176 93.4326 9.00131 92.7175 9.00131H92.11V7.43757H92.7958ZM85.3013 13.37H86.9079C86.8785 13.0475 86.859 12.2168 86.859 11.5033V7.47666H88.1227C88.8477 7.47666 89.318 7.48643 89.651 7.51575V6.1377C89.318 6.15725 88.8477 6.18657 88.1227 6.18657H85.2915C85.311 6.49932 85.3306 7.33983 85.3306 8.06306V11.4935C85.3404 12.2168 85.3208 13.0475 85.3013 13.37ZM81.4805 10.4869H79.9816L80.7359 8.68856L81.4805 10.4869ZM84.5567 13.37C84.302 12.94 83.9885 12.3731 83.7044 11.777L81.02 6.05952H80.5988L77.9928 11.777C77.7283 12.3829 77.4442 12.9107 77.1797 13.37H78.7962C78.8843 13.0866 79.0019 12.8129 79.1488 12.4513L79.4721 11.7085H81.9801L82.3132 12.4904C82.4504 12.8032 82.5875 13.1355 82.6659 13.3798L84.5567 13.37Z" fill="white"/>
<path d="M1092.28 33.6797L1095.97 35.0557L1097.4 39.6449C1097.49 39.9388 1097.85 40.0474 1098.09 39.8524L1100.14 38.1771C1100.36 38.0016 1100.66 37.9928 1100.89 38.1562L1104.59 40.8473C1104.85 41.0328 1105.21 40.8929 1105.28 40.5846L1107.99 27.5237C1108.06 27.1869 1107.73 26.9058 1107.41 27.0299L1092.28 32.8667C1091.9 33.0107 1091.91 33.5394 1092.28 33.6797ZM1097.17 34.3232L1104.37 29.8855C1104.5 29.806 1104.63 29.9811 1104.52 30.0842L1098.58 35.6117C1098.37 35.8063 1098.23 36.0666 1098.19 36.3493L1097.99 37.8504C1097.97 38.0508 1097.68 38.0707 1097.63 37.8767L1096.85 35.1394C1096.76 34.8272 1096.89 34.4937 1097.17 34.3232Z" fill="white"/>
<g clip-path="url(#clip0_501_473)">
<path d="M1155.92 37.6798C1155.9 37.6381 1155.88 37.6035 1155.86 37.5757C1155.58 37.0757 1155.05 36.4621 1154.27 35.7345L1154.25 35.7179L1154.25 35.7097L1154.24 35.7013H1154.23C1153.87 35.3625 1153.65 35.1347 1153.55 35.0181C1153.38 34.7959 1153.34 34.5711 1153.44 34.3432C1153.5 34.1711 1153.75 33.8075 1154.19 33.2521C1154.41 32.9577 1154.59 32.7217 1154.73 32.544C1155.69 31.2666 1156.11 30.4503 1155.98 30.0948L1155.93 30.0117C1155.89 29.9617 1155.81 29.916 1155.67 29.8743C1155.53 29.8326 1155.35 29.8257 1155.14 29.8535L1152.74 29.8701C1152.7 29.8563 1152.64 29.8576 1152.57 29.8743C1152.5 29.8909 1152.46 29.8993 1152.46 29.8993L1152.42 29.9202L1152.39 29.9452C1152.36 29.9618 1152.33 29.991 1152.3 30.0326C1152.26 30.0742 1152.23 30.1229 1152.21 30.1784C1151.95 30.8504 1151.65 31.4752 1151.32 32.0527C1151.12 32.3971 1150.93 32.6956 1150.75 32.9483C1150.58 33.2009 1150.44 33.3871 1150.32 33.5064C1150.2 33.6258 1150.1 33.7215 1150 33.7937C1149.91 33.866 1149.84 33.8966 1149.79 33.8854C1149.74 33.8742 1149.69 33.8632 1149.65 33.8521C1149.57 33.8021 1149.51 33.734 1149.46 33.648C1149.41 33.5619 1149.38 33.4536 1149.36 33.323C1149.35 33.1924 1149.34 33.0801 1149.33 32.9857C1149.33 32.8913 1149.33 32.7579 1149.34 32.5857C1149.34 32.4135 1149.35 32.297 1149.35 32.2359C1149.35 32.0248 1149.35 31.7957 1149.36 31.5486C1149.37 31.3014 1149.37 31.1056 1149.38 30.9614C1149.39 30.817 1149.39 30.6642 1149.39 30.5031C1149.39 30.3421 1149.38 30.2158 1149.36 30.1241C1149.34 30.0325 1149.31 29.9436 1149.27 29.8575C1149.23 29.7714 1149.18 29.7048 1149.1 29.6576C1149.03 29.6103 1148.93 29.5729 1148.82 29.545C1148.53 29.4784 1148.15 29.4424 1147.7 29.4368C1146.66 29.4257 1146 29.4924 1145.71 29.6368C1145.59 29.6978 1145.48 29.7812 1145.39 29.8866C1145.29 30.0089 1145.28 30.0756 1145.35 30.0865C1145.68 30.1365 1145.92 30.2559 1146.06 30.4447L1146.11 30.5447C1146.15 30.6169 1146.18 30.7447 1146.22 30.928C1146.26 31.1112 1146.29 31.3139 1146.3 31.5359C1146.33 31.9414 1146.33 32.2885 1146.3 32.5773C1146.27 32.8661 1146.24 33.091 1146.22 33.2521C1146.19 33.4131 1146.16 33.5437 1146.11 33.6436C1146.06 33.7436 1146.02 33.8047 1146.01 33.8268C1145.99 33.849 1145.98 33.863 1145.96 33.8685C1145.89 33.8961 1145.82 33.9102 1145.74 33.9102C1145.66 33.9102 1145.57 33.8713 1145.46 33.7935C1145.35 33.7157 1145.23 33.6089 1145.11 33.4728C1144.99 33.3367 1144.86 33.1465 1144.71 32.9021C1144.56 32.6578 1144.4 32.369 1144.24 32.0358L1144.11 31.7941C1144.02 31.6387 1143.91 31.4123 1143.77 31.1153C1143.62 30.8181 1143.49 30.5306 1143.38 30.2529C1143.34 30.1363 1143.27 30.0475 1143.18 29.9864L1143.14 29.9614C1143.11 29.9392 1143.07 29.9156 1143.01 29.8905C1142.95 29.8655 1142.88 29.8475 1142.82 29.8364L1140.53 29.853C1140.3 29.853 1140.14 29.9059 1140.06 30.0114L1140.03 30.0613C1140.01 30.0891 1140 30.1335 1140 30.1947C1140 30.2558 1140.02 30.3307 1140.05 30.4195C1140.38 31.2027 1140.75 31.9579 1141.14 32.6855C1141.53 33.413 1141.87 33.999 1142.16 34.4431C1142.45 34.8874 1142.74 35.3068 1143.04 35.701C1143.34 36.0953 1143.54 36.348 1143.64 36.4591C1143.73 36.5703 1143.81 36.6535 1143.87 36.709L1144.07 36.9089C1144.21 37.0422 1144.4 37.2019 1144.66 37.3879C1144.92 37.574 1145.21 37.7572 1145.52 37.9379C1145.83 38.1182 1146.2 38.2654 1146.61 38.3792C1147.03 38.4932 1147.44 38.5389 1147.83 38.5168H1148.79C1148.98 38.5 1149.13 38.4389 1149.23 38.3335L1149.26 38.2917C1149.29 38.2586 1149.31 38.2071 1149.33 38.1378C1149.35 38.0684 1149.36 37.9919 1149.36 37.9087C1149.35 37.67 1149.37 37.4548 1149.41 37.2632C1149.45 37.0717 1149.5 36.9273 1149.55 36.83C1149.6 36.7328 1149.66 36.6509 1149.73 36.5844C1149.8 36.5178 1149.84 36.4774 1149.87 36.4635C1149.9 36.4496 1149.92 36.4401 1149.94 36.4344C1150.07 36.39 1150.23 36.433 1150.41 36.5636C1150.59 36.6941 1150.76 36.8553 1150.92 37.0468C1151.08 37.2385 1151.27 37.4536 1151.49 37.6923C1151.71 37.9312 1151.9 38.1087 1152.07 38.2255L1152.24 38.3255C1152.35 38.3922 1152.49 38.4533 1152.67 38.5088C1152.85 38.5643 1153 38.5782 1153.14 38.5505L1155.27 38.5172C1155.48 38.5172 1155.64 38.4823 1155.76 38.413C1155.88 38.3436 1155.95 38.2671 1155.97 38.1839C1155.99 38.1006 1155.99 38.0061 1155.97 37.9005C1155.95 37.7952 1155.93 37.7215 1155.92 37.6798Z" fill="white"/>
</g>
<path d="M1196.9 30.2502H1188V40.0002H1190.48V36.8281H1195.22L1197.39 40.0002H1200.16L1197.77 36.8136C1198.51 36.6966 1199.05 36.4189 1199.37 35.9803C1199.7 35.5418 1199.86 34.8402 1199.86 33.9046V33.1738C1199.86 32.6182 1199.8 32.1797 1199.7 31.8435C1199.6 31.5073 1199.42 31.2149 1199.17 30.9518C1198.9 30.7033 1198.6 30.5279 1198.25 30.411C1197.89 30.3087 1197.45 30.2502 1196.9 30.2502ZM1196.5 34.6793H1190.48V32.399H1196.5C1196.84 32.399 1197.08 32.4575 1197.19 32.5598C1197.31 32.6621 1197.39 32.8521 1197.39 33.1299V33.9485C1197.39 34.2409 1197.31 34.4309 1197.19 34.5332C1197.08 34.6355 1196.84 34.6793 1196.5 34.6793Z" fill="white"/>
<path d="M1202.4 30.25C1203.28 30.25 1204 29.5225 1204 28.625C1204 27.7275 1203.28 27 1202.4 27C1201.52 27 1200.8 27.7275 1200.8 28.625C1200.8 29.5225 1201.52 30.25 1202.4 30.25Z" fill="white"/>
<circle cx="1292" cy="34" r="20" fill="#CA2138"/>
<circle cx="1244" cy="34" r="20" fill="#000E40"/>
<path d="M1247.28 37.2486C1247.28 37.2486 1247.19 37.2665 1247.08 37.34C1247.03 37.0025 1246.96 36.0852 1246.93 35.851C1247.04 35.7558 1247.2 35.5664 1247.31 35.4128C1247.41 35.2592 1247.72 34.2369 1247.81 33.7961C1247.86 33.8069 1247.98 33.9026 1248.11 33.8275C1248.24 33.7517 1248.34 33.4234 1248.43 33.2033C1248.5 33.0183 1248.69 32.3194 1248.73 32.0392C1248.78 31.7591 1248.87 31.3923 1248.76 31.2852C1248.69 31.2073 1248.54 31.0256 1248.2 31.189C1248.26 30.6713 1248.26 29.1038 1248.11 28.1118C1247.95 27.1198 1247.33 26.5307 1246.64 25.9055C1245.95 25.2802 1244.65 25 1244 25C1243.35 25 1242.05 25.2802 1241.36 25.9055C1240.67 26.5307 1240.05 27.1198 1239.89 28.1118C1239.74 29.1038 1239.73 30.6713 1239.8 31.189C1239.45 31.0256 1239.31 31.2079 1239.23 31.2852C1239.12 31.3923 1239.22 31.7585 1239.26 32.0392C1239.31 32.3194 1239.5 33.0188 1239.57 33.2033C1239.65 33.4234 1239.76 33.7517 1239.89 33.8275C1240.02 33.9026 1240.14 33.8069 1240.19 33.7961C1240.27 34.2369 1240.59 35.2592 1240.69 35.4128C1240.8 35.5664 1240.96 35.7558 1241.06 35.851C1241.04 36.0852 1240.97 37.0025 1240.92 37.34C1240.81 37.2665 1240.72 37.2486 1240.72 37.2486C1240.72 37.2486 1236.7 38.7778 1236 39.2364C1237.9 41.5347 1240.78 43 1244 43C1247.22 43 1250.1 41.5342 1252 39.2364C1251.3 38.7778 1247.28 37.2486 1247.28 37.2486Z" fill="white"/>
<circle opacity="0.2" cx="1196" cy="34" r="19.5" stroke="white"/>
<circle opacity="0.2" cx="1148" cy="34" r="19.5" stroke="white"/>
<circle opacity="0.2" cx="1100" cy="34" r="19.5" stroke="white"/>
<circle cx="1005" cy="34" r="19" stroke="#CA2138" stroke-width="2"/>
<path d="M1284.6 28.9H1289.84V30.564H1286.38V32.488H1289.37V34.165H1286.38V36.336H1289.84V38H1284.6V28.9ZM1297.61 28.9H1299.4V38H1297.61L1293.87 32.501L1293.52 31.903V38H1291.73V28.9H1293.5L1297.23 34.412L1297.61 35.036V28.9Z" fill="white"/>
<rect x="996" y="27" width="18" height="2" fill="white"/>
<rect x="996" y="33" width="18" height="2" fill="white"/>
<rect x="996" y="39" width="18" height="2" fill="white"/>
<defs>
<clipPath id="clip0_501_473">
<rect width="16" height="16" fill="white" transform="translate(1140 26)"/>
</clipPath>
</defs>
</svg>
