<svg width="1312" height="68" viewBox="0 0 1312 68" fill="none" xmlns="http://www.w3.org/2000/svg">
<path d="M226.704 30.1353L228.418 33.4868L230.005 30.0718C230.17 29.6655 230.274 29.3397 230.316 29.0942H232.347C232.267 29.2381 232.15 29.4582 231.998 29.7544C231.85 30.0506 231.748 30.2474 231.693 30.3447L228.551 36.7749C228.272 37.4054 228.098 37.8138 228.031 38H226.044C226.112 37.8984 226.173 37.7969 226.228 37.6953C226.287 37.5938 226.357 37.4668 226.438 37.3145C226.518 37.1579 226.577 37.0436 226.615 36.9717L227.498 35.3086L224.806 30.4336C224.37 29.6973 224.102 29.2508 224 29.0942H226.26C226.349 29.382 226.497 29.729 226.704 30.1353ZM234.768 33.5249C234.768 34.3543 235.06 35.0632 235.644 35.6514C236.228 36.2396 236.946 36.5337 237.796 36.5337C238.702 36.5337 239.425 36.2819 239.967 35.7783V37.8286C239.832 37.8498 239.618 37.8942 239.326 37.9619C239.034 38.0296 238.761 38.0783 238.507 38.1079C238.253 38.1418 237.961 38.1587 237.631 38.1587C236.954 38.1587 236.319 38.0381 235.727 37.7969C235.134 37.5514 234.633 37.2214 234.223 36.8066C233.812 36.3877 233.488 35.8947 233.251 35.3276C233.014 34.7606 232.896 34.1597 232.896 33.5249C232.896 32.8986 233.014 32.304 233.251 31.7412C233.488 31.1742 233.812 30.6854 234.223 30.2749C234.633 29.8602 235.134 29.5322 235.727 29.291C236.319 29.0456 236.954 28.9229 237.631 28.9229C237.966 28.9229 238.264 28.9419 238.526 28.98C238.793 29.0138 239.047 29.0583 239.288 29.1133C239.529 29.1641 239.722 29.1979 239.866 29.2148V31.3286C239.332 30.8208 238.634 30.5669 237.771 30.5669C236.929 30.5669 236.218 30.8547 235.638 31.4302C235.058 32.0057 234.768 32.7039 234.768 33.5249ZM247.111 36.375C246.95 35.9518 246.787 35.5392 246.622 35.1372C246.461 34.731 246.271 34.2633 246.051 33.7344C245.831 33.2012 245.66 32.7822 245.537 32.4775C244.966 33.764 244.354 35.2197 243.702 36.8447C243.533 37.2933 243.396 37.6784 243.29 38H241.246C241.462 37.653 241.787 36.995 242.223 36.0259L245.416 28.7959H245.886L249.047 36.0259C249.491 37.0161 249.819 37.6742 250.031 38H247.657C247.564 37.6488 247.382 37.1071 247.111 36.375ZM252.668 30.1353L254.382 33.4868L255.969 30.0718C256.134 29.6655 256.238 29.3397 256.28 29.0942H258.311C258.231 29.2381 258.114 29.4582 257.962 29.7544C257.814 30.0506 257.712 30.2474 257.657 30.3447L254.515 36.7749C254.236 37.4054 254.062 37.8138 253.995 38H252.008C252.076 37.8984 252.137 37.7969 252.192 37.6953C252.251 37.5938 252.321 37.4668 252.401 37.3145C252.482 37.1579 252.541 37.0436 252.579 36.9717L253.462 35.3086L250.77 30.4336C250.334 29.6973 250.066 29.2508 249.964 29.0942H252.224C252.313 29.382 252.461 29.729 252.668 30.1353ZM259.602 38C259.641 37.3991 259.66 36.6226 259.66 35.6704V31.4238C259.66 30.4505 259.641 29.674 259.602 29.0942H263.113C263.705 29.0942 264.334 29.0731 264.998 29.0308V30.7446C264.643 30.7108 264.014 30.6938 263.113 30.6938H261.545V35.6704C261.545 36.6903 261.562 37.4668 261.596 38H259.602ZM272.161 36.1274V32.5537L268.587 36.4004C267.944 37.0775 267.394 37.6763 266.937 38.1968H266.467C266.514 37.5028 266.537 36.8215 266.537 36.1528V31.4238C266.537 30.916 266.514 30.1395 266.467 29.0942H268.473C268.426 29.7629 268.403 30.5394 268.403 31.4238V34.4263L272.136 30.4717C272.626 29.9681 273.117 29.4391 273.608 28.8848H274.084C274.05 29.8242 274.033 30.6833 274.033 31.4619V36.1147C274.033 36.8892 274.05 37.5176 274.084 38H272.123C272.148 37.6361 272.161 37.0119 272.161 36.1274ZM288.41 36.4131L288.067 40.6787H286.461L286.55 38H280.647L280.672 40.6787H279.035L278.762 36.4131C278.935 36.43 279.308 36.4385 279.879 36.4385C280.078 36.0365 280.292 35.5858 280.52 35.0864L283.3 28.7959H283.859L286.601 35.0864C286.847 35.6366 287.062 36.0872 287.249 36.4385C287.849 36.4385 288.237 36.43 288.41 36.4131ZM285.186 36.4385L283.497 32.0713L281.777 36.4385H285.186ZM295.256 36.375C295.095 35.9518 294.932 35.5392 294.767 35.1372C294.606 34.731 294.416 34.2633 294.196 33.7344C293.976 33.2012 293.804 32.7822 293.682 32.4775C293.11 33.764 292.499 35.2197 291.847 36.8447C291.678 37.2933 291.54 37.6784 291.434 38H289.391C289.606 37.653 289.932 36.995 290.368 36.0259L293.561 28.7959H294.031L297.192 36.0259C297.636 37.0161 297.964 37.6742 298.176 38H295.802C295.709 37.6488 295.527 37.1071 295.256 36.375ZM303.891 35.7021V34.604H303.434C303.269 34.604 303.134 34.5998 303.028 34.5913C302.821 34.8875 302.482 35.4652 302.012 36.3242C301.543 37.179 301.211 37.7376 301.016 38H298.858C299.124 37.708 299.395 37.3525 299.67 36.9336C299.945 36.5104 300.235 36.047 300.54 35.5435C300.849 35.0399 301.115 34.6315 301.34 34.3184C300.328 33.8825 299.823 33.0679 299.823 31.8745C299.823 31.0409 300.112 30.3701 300.692 29.8623C301.276 29.3503 302.099 29.0942 303.161 29.0942H305.827C305.781 29.5682 305.758 30.3447 305.758 31.4238V35.7021C305.758 36.7432 305.781 37.5091 305.827 38H303.822C303.868 37.5091 303.891 36.7432 303.891 35.7021ZM303.891 33.252V30.5796H303.123C302.679 30.5796 302.332 30.7065 302.082 30.9604C301.833 31.2144 301.708 31.519 301.708 31.8745C301.708 32.2638 301.839 32.5918 302.101 32.8584C302.368 33.1208 302.7 33.252 303.098 33.252H303.891ZM316.776 36.1274V32.5537L313.203 36.4004C312.559 37.0775 312.009 37.6763 311.552 38.1968H311.082C311.129 37.5028 311.152 36.8215 311.152 36.1528V31.4238C311.152 30.916 311.129 30.1395 311.082 29.0942H313.088C313.042 29.7629 313.019 30.5394 313.019 31.4238V34.4263L316.751 30.4717C317.242 29.9681 317.733 29.4391 318.224 28.8848H318.7C318.666 29.8242 318.649 30.6833 318.649 31.4619V36.1147C318.649 36.8892 318.666 37.5176 318.7 38H316.738C316.764 37.6361 316.776 37.0119 316.776 36.1274ZM322.962 31.4238V32.5156H326.745V31.4238C326.745 30.4167 326.726 29.6401 326.688 29.0942H328.681C328.634 30.1395 328.611 30.916 328.611 31.4238V36.1274C328.611 36.7114 328.634 37.3356 328.681 38H326.688C326.726 37.4583 326.745 36.8299 326.745 36.1147V34.0581H322.962V36.1274C322.962 37.0119 322.974 37.6361 323 38H321.032C321.07 37.4583 321.089 36.8299 321.089 36.1147V31.4238C321.089 30.3955 321.07 29.619 321.032 29.0942H323C322.974 29.4455 322.962 30.222 322.962 31.4238ZM331.007 38C331.054 37.5091 331.077 36.7326 331.077 35.6704V31.7476C331.077 30.3638 331.058 29.4793 331.02 29.0942H333.66C334.164 29.0942 334.606 29.1577 334.987 29.2847C335.368 29.4074 335.666 29.5745 335.882 29.7861C336.098 29.9935 336.259 30.222 336.364 30.4717C336.47 30.7171 336.523 30.9774 336.523 31.2524C336.523 31.6545 336.424 32.0078 336.225 32.3125C336.026 32.6172 335.766 32.8394 335.444 32.979C335.901 33.144 336.29 33.4276 336.612 33.8296C336.934 34.2274 337.094 34.7077 337.094 35.2705C337.094 35.6387 337.022 35.9857 336.879 36.3115C336.735 36.6374 336.525 36.9272 336.25 37.1812C335.979 37.4308 335.626 37.6297 335.19 37.7778C334.754 37.9259 334.265 38 333.724 38H331.007ZM335.196 35.2197C335.196 34.8135 335.055 34.494 334.771 34.2612C334.488 34.0243 334.117 33.9058 333.66 33.9058H332.949V36.521H333.571C334.071 36.521 334.466 36.4089 334.758 36.1846C335.05 35.9561 335.196 35.6344 335.196 35.2197ZM332.949 30.4844V32.541H333.584C333.906 32.541 334.172 32.45 334.384 32.2681C334.596 32.0861 334.701 31.8343 334.701 31.5127C334.701 31.1995 334.585 30.9499 334.352 30.7637C334.124 30.5775 333.827 30.4844 333.464 30.4844H332.949ZM341.687 30.6431H340.842V32.5791H341.579C342.476 32.5791 343.191 32.5622 343.724 32.5283V34.1787C343.191 34.1449 342.476 34.1279 341.579 34.1279H340.842V36.4385H341.788C342.88 36.4385 343.62 36.4258 344.01 36.4004V38.0508C343.494 38.0169 342.753 38 341.788 38H338.9C338.938 36.9251 338.957 36.1486 338.957 35.6704V31.4111C338.957 30.4463 338.938 29.674 338.9 29.0942H341.687C342.499 29.0942 343.24 29.0731 343.908 29.0308V30.6938C343.553 30.66 342.812 30.6431 341.687 30.6431ZM347.466 33.5249C347.466 34.3543 347.758 35.0632 348.342 35.6514C348.926 36.2396 349.643 36.5337 350.494 36.5337C351.399 36.5337 352.123 36.2819 352.664 35.7783V37.8286C352.529 37.8498 352.315 37.8942 352.023 37.9619C351.731 38.0296 351.458 38.0783 351.204 38.1079C350.951 38.1418 350.659 38.1587 350.329 38.1587C349.651 38.1587 349.017 38.0381 348.424 37.7969C347.832 37.5514 347.33 37.2214 346.92 36.8066C346.509 36.3877 346.186 35.8947 345.949 35.3276C345.712 34.7606 345.593 34.1597 345.593 33.5249C345.593 32.8986 345.712 32.304 345.949 31.7412C346.186 31.1742 346.509 30.6854 346.92 30.2749C347.33 29.8602 347.832 29.5322 348.424 29.291C349.017 29.0456 349.651 28.9229 350.329 28.9229C350.663 28.9229 350.961 28.9419 351.224 28.98C351.49 29.0138 351.744 29.0583 351.985 29.1133C352.226 29.1641 352.419 29.1979 352.563 29.2148V31.3286C352.03 30.8208 351.331 30.5669 350.468 30.5669C349.626 30.5669 348.915 30.8547 348.335 31.4302C347.756 32.0057 347.466 32.7039 347.466 33.5249ZM356.343 29.0942H359.421C360.449 29.0942 361.222 29.0773 361.738 29.0435V30.6938C361.222 30.66 360.449 30.6431 359.421 30.6431H358.85C358.841 30.9647 358.837 31.519 358.837 32.3062V35.6704C358.837 36.7791 358.858 37.5557 358.901 38H356.901C356.935 37.4668 356.952 36.6903 356.952 35.6704V32.3062C356.952 31.6799 356.939 31.1255 356.914 30.6431H356.343C355.331 30.6431 354.567 30.66 354.051 30.6938V29.0435C354.567 29.0773 355.331 29.0942 356.343 29.0942ZM362.909 35.3403C362.668 34.769 362.547 34.1702 362.547 33.5439C362.547 32.9176 362.668 32.321 362.909 31.7539C363.154 31.1826 363.486 30.6896 363.905 30.2749C364.324 29.8602 364.828 29.5322 365.416 29.291C366.004 29.0456 366.626 28.9229 367.282 28.9229C367.947 28.9229 368.573 29.0456 369.161 29.291C369.749 29.5322 370.251 29.8602 370.666 30.2749C371.085 30.6896 371.415 31.1826 371.656 31.7539C371.901 32.321 372.024 32.9176 372.024 33.5439C372.024 34.1702 371.901 34.769 371.656 35.3403C371.415 35.9074 371.085 36.3983 370.666 36.813C370.251 37.2235 369.749 37.5514 369.161 37.7969C368.573 38.0381 367.947 38.1587 367.282 38.1587C366.626 38.1587 366.004 38.0381 365.416 37.7969C364.828 37.5514 364.324 37.2235 363.905 36.813C363.486 36.3983 363.154 35.9074 362.909 35.3403ZM365.264 31.3984C364.718 31.9867 364.445 32.7018 364.445 33.5439C364.445 34.3861 364.718 35.1012 365.264 35.6895C365.814 36.2777 366.487 36.5718 367.282 36.5718C368.078 36.5718 368.751 36.2777 369.301 35.6895C369.851 35.1012 370.126 34.3861 370.126 33.5439C370.126 32.7018 369.851 31.9867 369.301 31.3984C368.751 30.806 368.078 30.5098 367.282 30.5098C366.487 30.5098 365.814 30.806 365.264 31.3984ZM375.931 34.8135V35.6704C375.931 36.868 375.948 37.6445 375.981 38H373.988C374.035 37.5091 374.058 36.7326 374.058 35.6704V31.3032C374.058 30.3045 374.035 29.5682 373.988 29.0942H376.775C377.761 29.0942 378.535 29.3608 379.098 29.894C379.661 30.4272 379.942 31.1191 379.942 31.9697C379.942 32.8203 379.659 33.508 379.092 34.0327C378.525 34.5532 377.748 34.8135 376.762 34.8135H375.931ZM375.931 30.5098V33.3979H376.553C377.006 33.3979 377.369 33.252 377.645 32.96C377.92 32.668 378.057 32.3337 378.057 31.957C378.057 31.5677 377.924 31.2292 377.657 30.9414C377.391 30.6536 377.022 30.5098 376.553 30.5098H375.931ZM381.856 35.3403C381.615 34.769 381.494 34.1702 381.494 33.5439C381.494 32.9176 381.615 32.321 381.856 31.7539C382.101 31.1826 382.433 30.6896 382.852 30.2749C383.271 29.8602 383.775 29.5322 384.363 29.291C384.951 29.0456 385.573 28.9229 386.229 28.9229C386.894 28.9229 387.52 29.0456 388.108 29.291C388.696 29.5322 389.198 29.8602 389.613 30.2749C390.032 30.6896 390.362 31.1826 390.603 31.7539C390.848 32.321 390.971 32.9176 390.971 33.5439C390.971 34.1702 390.848 34.769 390.603 35.3403C390.362 35.9074 390.032 36.3983 389.613 36.813C389.198 37.2235 388.696 37.5514 388.108 37.7969C387.52 38.0381 386.894 38.1587 386.229 38.1587C385.573 38.1587 384.951 38.0381 384.363 37.7969C383.775 37.5514 383.271 37.2235 382.852 36.813C382.433 36.3983 382.101 35.9074 381.856 35.3403ZM384.211 31.3984C383.665 31.9867 383.392 32.7018 383.392 33.5439C383.392 34.3861 383.665 35.1012 384.211 35.6895C384.761 36.2777 385.434 36.5718 386.229 36.5718C387.025 36.5718 387.698 36.2777 388.248 35.6895C388.798 35.1012 389.073 34.3861 389.073 33.5439C389.073 32.7018 388.798 31.9867 388.248 31.3984C387.698 30.806 387.025 30.5098 386.229 30.5098C385.434 30.5098 384.761 30.806 384.211 31.3984ZM392.935 38C392.982 37.5091 393.005 36.7326 393.005 35.6704V31.7476C393.005 30.3638 392.986 29.4793 392.948 29.0942H395.589C396.092 29.0942 396.534 29.1577 396.915 29.2847C397.296 29.4074 397.594 29.5745 397.81 29.7861C398.026 29.9935 398.187 30.222 398.293 30.4717C398.398 30.7171 398.451 30.9774 398.451 31.2524C398.451 31.6545 398.352 32.0078 398.153 32.3125C397.954 32.6172 397.694 32.8394 397.372 32.979C397.829 33.144 398.219 33.4276 398.54 33.8296C398.862 34.2274 399.023 34.7077 399.023 35.2705C399.023 35.6387 398.951 35.9857 398.807 36.3115C398.663 36.6374 398.453 36.9272 398.178 37.1812C397.908 37.4308 397.554 37.6297 397.118 37.7778C396.682 37.9259 396.194 38 395.652 38H392.935ZM397.125 35.2197C397.125 34.8135 396.983 34.494 396.699 34.2612C396.416 34.0243 396.046 33.9058 395.589 33.9058H394.878V36.521H395.5C395.999 36.521 396.395 36.4089 396.687 36.1846C396.979 35.9561 397.125 35.6344 397.125 35.2197ZM394.878 30.4844V32.541H395.512C395.834 32.541 396.101 32.45 396.312 32.2681C396.524 32.0861 396.63 31.8343 396.63 31.5127C396.63 31.1995 396.513 30.9499 396.28 30.7637C396.052 30.5775 395.756 30.4844 395.392 30.4844H394.878Z" fill="white"/>
<path d="M428.92 35.3403C428.679 34.769 428.559 34.1702 428.559 33.5439C428.559 32.9176 428.679 32.321 428.92 31.7539C429.166 31.1826 429.498 30.6896 429.917 30.2749C430.336 29.8602 430.84 29.5322 431.428 29.291C432.016 29.0456 432.638 28.9229 433.294 28.9229C433.958 28.9229 434.585 29.0456 435.173 29.291C435.761 29.5322 436.263 29.8602 436.677 30.2749C437.096 30.6896 437.426 31.1826 437.667 31.7539C437.913 32.321 438.036 32.9176 438.036 33.5439C438.036 34.1702 437.913 34.769 437.667 35.3403C437.426 35.9074 437.096 36.3983 436.677 36.813C436.263 37.2235 435.761 37.5514 435.173 37.7969C434.585 38.0381 433.958 38.1587 433.294 38.1587C432.638 38.1587 432.016 38.0381 431.428 37.7969C430.84 37.5514 430.336 37.2235 429.917 36.813C429.498 36.3983 429.166 35.9074 428.92 35.3403ZM431.275 31.3984C430.729 31.9867 430.457 32.7018 430.457 33.5439C430.457 34.3861 430.729 35.1012 431.275 35.6895C431.826 36.2777 432.498 36.5718 433.294 36.5718C434.09 36.5718 434.762 36.2777 435.312 35.6895C435.863 35.1012 436.138 34.3861 436.138 33.5439C436.138 32.7018 435.863 31.9867 435.312 31.3984C434.762 30.806 434.09 30.5098 433.294 30.5098C432.498 30.5098 431.826 30.806 431.275 31.3984ZM443.024 35.6704V31.4238C443.024 30.4505 443.005 29.674 442.967 29.0942H444.947C444.909 29.674 444.89 30.4505 444.89 31.4238V32.7632H445.582C446.403 31.7476 447.226 30.5246 448.051 29.0942H450.343C450.131 29.3354 449.681 29.9427 448.991 30.916C448.301 31.8851 447.69 32.687 447.156 33.3218C447.74 34.0581 448.386 34.932 449.092 35.9434C449.799 36.9505 450.315 37.6361 450.641 38H448.039C447.666 37.3441 447.3 36.7432 446.941 36.1973C446.585 35.6471 446.084 34.9574 445.436 34.1279H444.89V35.6704C444.89 36.6226 444.909 37.3991 444.947 38H442.967C443.005 37.3991 443.024 36.6226 443.024 35.6704ZM453.831 34.8135V35.6704C453.831 36.868 453.848 37.6445 453.881 38H451.888C451.935 37.5091 451.958 36.7326 451.958 35.6704V31.3032C451.958 30.3045 451.935 29.5682 451.888 29.0942H454.675C455.661 29.0942 456.435 29.3608 456.998 29.894C457.561 30.4272 457.842 31.1191 457.842 31.9697C457.842 32.8203 457.559 33.508 456.992 34.0327C456.425 34.5532 455.648 34.8135 454.662 34.8135H453.831ZM453.831 30.5098V33.3979H454.453C454.906 33.3979 455.269 33.252 455.545 32.96C455.82 32.668 455.957 32.3337 455.957 31.957C455.957 31.5677 455.824 31.2292 455.557 30.9414C455.291 30.6536 454.922 30.5098 454.453 30.5098H453.831ZM466.846 38H464.504C464.407 37.708 464.258 37.3398 464.06 36.8955L463.66 35.9307H460.562L460.162 36.8574C459.967 37.3102 459.819 37.6911 459.718 38H457.731C458.158 37.2425 458.493 36.5845 458.734 36.0259L461.958 28.9419H462.479L465.792 36.0259C466.063 36.6014 466.414 37.2594 466.846 38ZM463.038 34.4136L462.111 32.1919L461.19 34.4136H463.038ZM469.413 33.5249C469.413 34.3543 469.705 35.0632 470.289 35.6514C470.873 36.2396 471.591 36.5337 472.441 36.5337C473.347 36.5337 474.07 36.2819 474.612 35.7783V37.8286C474.477 37.8498 474.263 37.8942 473.971 37.9619C473.679 38.0296 473.406 38.0783 473.152 38.1079C472.898 38.1418 472.606 38.1587 472.276 38.1587C471.599 38.1587 470.964 38.0381 470.372 37.7969C469.779 37.5514 469.278 37.2214 468.867 36.8066C468.457 36.3877 468.133 35.8947 467.896 35.3276C467.659 34.7606 467.541 34.1597 467.541 33.5249C467.541 32.8986 467.659 32.304 467.896 31.7412C468.133 31.1742 468.457 30.6854 468.867 30.2749C469.278 29.8602 469.779 29.5322 470.372 29.291C470.964 29.0456 471.599 28.9229 472.276 28.9229C472.61 28.9229 472.909 28.9419 473.171 28.98C473.438 29.0138 473.692 29.0583 473.933 29.1133C474.174 29.1641 474.367 29.1979 474.511 29.2148V31.3286C473.977 30.8208 473.279 30.5669 472.416 30.5669C471.574 30.5669 470.863 30.8547 470.283 31.4302C469.703 32.0057 469.413 32.7039 469.413 33.5249ZM478.449 31.4238V32.5156H482.232V31.4238C482.232 30.4167 482.213 29.6401 482.175 29.0942H484.168C484.122 30.1395 484.098 30.916 484.098 31.4238V36.1274C484.098 36.7114 484.122 37.3356 484.168 38H482.175C482.213 37.4583 482.232 36.8299 482.232 36.1147V34.0581H478.449V36.1274C478.449 37.0119 478.462 37.6361 478.487 38H476.519C476.557 37.4583 476.576 36.8299 476.576 36.1147V31.4238C476.576 30.3955 476.557 29.619 476.519 29.0942H478.487C478.462 29.4455 478.449 30.222 478.449 31.4238ZM486.52 35.3403C486.278 34.769 486.158 34.1702 486.158 33.5439C486.158 32.9176 486.278 32.321 486.52 31.7539C486.765 31.1826 487.097 30.6896 487.516 30.2749C487.935 29.8602 488.439 29.5322 489.027 29.291C489.615 29.0456 490.237 28.9229 490.893 28.9229C491.557 28.9229 492.184 29.0456 492.772 29.291C493.36 29.5322 493.862 29.8602 494.276 30.2749C494.695 30.6896 495.025 31.1826 495.267 31.7539C495.512 32.321 495.635 32.9176 495.635 33.5439C495.635 34.1702 495.512 34.769 495.267 35.3403C495.025 35.9074 494.695 36.3983 494.276 36.813C493.862 37.2235 493.36 37.5514 492.772 37.7969C492.184 38.0381 491.557 38.1587 490.893 38.1587C490.237 38.1587 489.615 38.0381 489.027 37.7969C488.439 37.5514 487.935 37.2235 487.516 36.813C487.097 36.3983 486.765 35.9074 486.52 35.3403ZM488.875 31.3984C488.329 31.9867 488.056 32.7018 488.056 33.5439C488.056 34.3861 488.329 35.1012 488.875 35.6895C489.425 36.2777 490.098 36.5718 490.893 36.5718C491.689 36.5718 492.362 36.2777 492.912 35.6895C493.462 35.1012 493.737 34.3861 493.737 33.5439C493.737 32.7018 493.462 31.9867 492.912 31.3984C492.362 30.806 491.689 30.5098 490.893 30.5098C490.098 30.5098 489.425 30.806 488.875 31.3984ZM506.156 36.4131L505.813 40.6787H504.207L504.296 38H498.392L498.418 40.6787H496.78L496.507 36.4131C496.681 36.43 497.053 36.4385 497.624 36.4385C497.823 36.0365 498.037 35.5858 498.266 35.0864L501.046 28.7959H501.604L504.347 35.0864C504.592 35.6366 504.808 36.0872 504.994 36.4385C505.595 36.4385 505.982 36.43 506.156 36.4131ZM502.931 36.4385L501.243 32.0713L499.522 36.4385H502.931ZM516.251 38H513.909C513.812 37.708 513.663 37.3398 513.465 36.8955L513.065 35.9307H509.967L509.567 36.8574C509.372 37.3102 509.224 37.6911 509.123 38H507.136C507.563 37.2425 507.898 36.5845 508.139 36.0259L511.364 28.9419H511.884L515.198 36.0259C515.468 36.6014 515.82 37.2594 516.251 38ZM512.443 34.4136L511.516 32.1919L510.595 34.4136H512.443ZM519.504 34.8135V35.6704C519.504 36.868 519.521 37.6445 519.555 38H517.562C517.608 37.5091 517.631 36.7326 517.631 35.6704V31.3032C517.631 30.3045 517.608 29.5682 517.562 29.0942H520.348C521.334 29.0942 522.109 29.3608 522.671 29.894C523.234 30.4272 523.516 31.1191 523.516 31.9697C523.516 32.8203 523.232 33.508 522.665 34.0327C522.098 34.5532 521.322 34.8135 520.336 34.8135H519.504ZM519.504 30.5098V33.3979H520.126C520.579 33.3979 520.943 33.252 521.218 32.96C521.493 32.668 521.63 32.3337 521.63 31.957C521.63 31.5677 521.497 31.2292 521.231 30.9414C520.964 30.6536 520.596 30.5098 520.126 30.5098H519.504ZM526.953 33.5249C526.953 34.3543 527.245 35.0632 527.829 35.6514C528.413 36.2396 529.13 36.5337 529.98 36.5337C530.886 36.5337 531.61 36.2819 532.151 35.7783V37.8286C532.016 37.8498 531.802 37.8942 531.51 37.9619C531.218 38.0296 530.945 38.0783 530.691 38.1079C530.437 38.1418 530.145 38.1587 529.815 38.1587C529.138 38.1587 528.504 38.0381 527.911 37.7969C527.319 37.5514 526.817 37.2214 526.407 36.8066C525.996 36.3877 525.672 35.8947 525.436 35.3276C525.199 34.7606 525.08 34.1597 525.08 33.5249C525.08 32.8986 525.199 32.304 525.436 31.7412C525.672 31.1742 525.996 30.6854 526.407 30.2749C526.817 29.8602 527.319 29.5322 527.911 29.291C528.504 29.0456 529.138 28.9229 529.815 28.9229C530.15 28.9229 530.448 28.9419 530.71 28.98C530.977 29.0138 531.231 29.0583 531.472 29.1133C531.713 29.1641 531.906 29.1979 532.05 29.2148V31.3286C531.517 30.8208 530.818 30.5669 529.955 30.5669C529.113 30.5669 528.402 30.8547 527.822 31.4302C527.242 32.0057 526.953 32.7039 526.953 33.5249ZM534.09 35.6704V31.4238C534.09 30.4505 534.071 29.674 534.033 29.0942H536.013C535.975 29.674 535.956 30.4505 535.956 31.4238V32.7632H536.648C537.469 31.7476 538.292 30.5246 539.118 29.0942H541.409C541.197 29.3354 540.747 29.9427 540.057 30.916C539.367 31.8851 538.756 32.687 538.222 33.3218C538.806 34.0581 539.452 34.932 540.159 35.9434C540.865 36.9505 541.381 37.6361 541.707 38H539.105C538.732 37.3441 538.366 36.7432 538.007 36.1973C537.651 35.6471 537.15 34.9574 536.502 34.1279H535.956V35.6704C535.956 36.6226 535.975 37.3991 536.013 38H534.033C534.071 37.3991 534.09 36.6226 534.09 35.6704ZM542.523 35.3403C542.281 34.769 542.161 34.1702 542.161 33.5439C542.161 32.9176 542.281 32.321 542.523 31.7539C542.768 31.1826 543.1 30.6896 543.519 30.2749C543.938 29.8602 544.442 29.5322 545.03 29.291C545.618 29.0456 546.24 28.9229 546.896 28.9229C547.561 28.9229 548.187 29.0456 548.775 29.291C549.363 29.5322 549.865 29.8602 550.279 30.2749C550.698 30.6896 551.028 31.1826 551.27 31.7539C551.515 32.321 551.638 32.9176 551.638 33.5439C551.638 34.1702 551.515 34.769 551.27 35.3403C551.028 35.9074 550.698 36.3983 550.279 36.813C549.865 37.2235 549.363 37.5514 548.775 37.7969C548.187 38.0381 547.561 38.1587 546.896 38.1587C546.24 38.1587 545.618 38.0381 545.03 37.7969C544.442 37.5514 543.938 37.2235 543.519 36.813C543.1 36.3983 542.768 35.9074 542.523 35.3403ZM544.878 31.3984C544.332 31.9867 544.059 32.7018 544.059 33.5439C544.059 34.3861 544.332 35.1012 544.878 35.6895C545.428 36.2777 546.101 36.5718 546.896 36.5718C547.692 36.5718 548.365 36.2777 548.915 35.6895C549.465 35.1012 549.74 34.3861 549.74 33.5439C549.74 32.7018 549.465 31.9867 548.915 31.3984C548.365 30.806 547.692 30.5098 546.896 30.5098C546.101 30.5098 545.428 30.806 544.878 31.3984ZM562.07 28.9229L562.978 35.7783C563.1 36.7135 563.242 37.4541 563.403 38H561.289C561.289 37.708 561.24 37.1833 561.143 36.4258L560.756 33.2139L558.388 38.0635H557.88L555.538 33.2012L555.075 36.521C554.977 37.1473 554.916 37.6403 554.891 38H552.993C553.031 37.8604 553.17 37.0754 553.412 35.645L554.542 28.9229H555.018L558.255 35.2197L561.562 28.9229H562.07ZM568.125 35.6704V31.4238C568.125 30.4505 568.106 29.674 568.068 29.0942H570.048C570.01 29.674 569.991 30.4505 569.991 31.4238V32.7632H570.683C571.504 31.7476 572.327 30.5246 573.152 29.0942H575.444C575.232 29.3354 574.781 29.9427 574.092 30.916C573.402 31.8851 572.79 32.687 572.257 33.3218C572.841 34.0581 573.486 34.932 574.193 35.9434C574.9 36.9505 575.416 37.6361 575.742 38H573.139C572.767 37.3441 572.401 36.7432 572.041 36.1973C571.686 35.6471 571.184 34.9574 570.537 34.1279H569.991V35.6704C569.991 36.6226 570.01 37.3991 570.048 38H568.068C568.106 37.3991 568.125 36.6226 568.125 35.6704ZM578.931 34.8135V35.6704C578.931 36.868 578.948 37.6445 578.982 38H576.989C577.035 37.5091 577.059 36.7326 577.059 35.6704V31.3032C577.059 30.3045 577.035 29.5682 576.989 29.0942H579.776C580.762 29.0942 581.536 29.3608 582.099 29.894C582.662 30.4272 582.943 31.1191 582.943 31.9697C582.943 32.8203 582.659 33.508 582.092 34.0327C581.525 34.5532 580.749 34.8135 579.763 34.8135H578.931ZM578.931 30.5098V33.3979H579.553C580.006 33.3979 580.37 33.252 580.645 32.96C580.92 32.668 581.058 32.3337 581.058 31.957C581.058 31.5677 580.924 31.2292 580.658 30.9414C580.391 30.6536 580.023 30.5098 579.553 30.5098H578.931ZM591.947 38H589.604C589.507 37.708 589.359 37.3398 589.16 36.8955L588.76 35.9307H585.663L585.263 36.8574C585.068 37.3102 584.92 37.6911 584.818 38H582.832C583.259 37.2425 583.593 36.5845 583.834 36.0259L587.059 28.9419H587.58L590.893 36.0259C591.164 36.6014 591.515 37.2594 591.947 38ZM588.138 34.4136L587.211 32.1919L586.291 34.4136H588.138ZM596.031 30.6431H595.187V32.5791H595.923C596.82 32.5791 597.535 32.5622 598.069 32.5283V34.1787C597.535 34.1449 596.82 34.1279 595.923 34.1279H595.187V36.4385H596.133C597.224 36.4385 597.965 36.4258 598.354 36.4004V38.0508C597.838 38.0169 597.098 38 596.133 38H593.244C593.283 36.9251 593.302 36.1486 593.302 35.6704V31.4111C593.302 30.4463 593.283 29.674 593.244 29.0942H596.031C596.844 29.0942 597.584 29.0731 598.253 29.0308V30.6938C597.897 30.66 597.157 30.6431 596.031 30.6431Z" fill="white"/>
<path d="M628.92 35.3403C628.679 34.769 628.559 34.1702 628.559 33.5439C628.559 32.9176 628.679 32.321 628.92 31.7539C629.166 31.1826 629.498 30.6896 629.917 30.2749C630.336 29.8602 630.84 29.5322 631.428 29.291C632.016 29.0456 632.638 28.9229 633.294 28.9229C633.958 28.9229 634.585 29.0456 635.173 29.291C635.761 29.5322 636.263 29.8602 636.677 30.2749C637.096 30.6896 637.426 31.1826 637.667 31.7539C637.913 32.321 638.036 32.9176 638.036 33.5439C638.036 34.1702 637.913 34.769 637.667 35.3403C637.426 35.9074 637.096 36.3983 636.677 36.813C636.263 37.2235 635.761 37.5514 635.173 37.7969C634.585 38.0381 633.958 38.1587 633.294 38.1587C632.638 38.1587 632.016 38.0381 631.428 37.7969C630.84 37.5514 630.336 37.2235 629.917 36.813C629.498 36.3983 629.166 35.9074 628.92 35.3403ZM631.275 31.3984C630.729 31.9867 630.457 32.7018 630.457 33.5439C630.457 34.3861 630.729 35.1012 631.275 35.6895C631.826 36.2777 632.498 36.5718 633.294 36.5718C634.09 36.5718 634.762 36.2777 635.312 35.6895C635.863 35.1012 636.138 34.3861 636.138 33.5439C636.138 32.7018 635.863 31.9867 635.312 31.3984C634.762 30.806 634.09 30.5098 633.294 30.5098C632.498 30.5098 631.826 30.806 631.275 31.3984ZM640.044 35.6704V31.4238C640.044 30.4505 640.025 29.674 639.987 29.0942H641.968C641.93 29.674 641.911 30.4505 641.911 31.4238V32.7632H642.602C643.423 31.7476 644.246 30.5246 645.072 29.0942H647.363C647.152 29.3354 646.701 29.9427 646.011 30.916C645.321 31.8851 644.71 32.687 644.177 33.3218C644.761 34.0581 645.406 34.932 646.113 35.9434C646.819 36.9505 647.336 37.6361 647.661 38H645.059C644.687 37.3441 644.321 36.7432 643.961 36.1973C643.605 35.6471 643.104 34.9574 642.456 34.1279H641.911V35.6704C641.911 36.6226 641.93 37.3991 641.968 38H639.987C640.025 37.3991 640.044 36.6226 640.044 35.6704ZM650.851 31.4238V32.5156H654.634V31.4238C654.634 30.4167 654.615 29.6401 654.577 29.0942H656.57C656.523 30.1395 656.5 30.916 656.5 31.4238V36.1274C656.5 36.7114 656.523 37.3356 656.57 38H654.577C654.615 37.4583 654.634 36.8299 654.634 36.1147V34.0581H650.851V36.1274C650.851 37.0119 650.863 37.6361 650.889 38H648.921C648.959 37.4583 648.978 36.8299 648.978 36.1147V31.4238C648.978 30.3955 648.959 29.619 648.921 29.0942H650.889C650.863 29.4455 650.851 30.222 650.851 31.4238ZM658.921 35.3403C658.68 34.769 658.56 34.1702 658.56 33.5439C658.56 32.9176 658.68 32.321 658.921 31.7539C659.167 31.1826 659.499 30.6896 659.918 30.2749C660.337 29.8602 660.841 29.5322 661.429 29.291C662.017 29.0456 662.639 28.9229 663.295 28.9229C663.959 28.9229 664.586 29.0456 665.174 29.291C665.762 29.5322 666.264 29.8602 666.678 30.2749C667.097 30.6896 667.427 31.1826 667.669 31.7539C667.914 32.321 668.037 32.9176 668.037 33.5439C668.037 34.1702 667.914 34.769 667.669 35.3403C667.427 35.9074 667.097 36.3983 666.678 36.813C666.264 37.2235 665.762 37.5514 665.174 37.7969C664.586 38.0381 663.959 38.1587 663.295 38.1587C662.639 38.1587 662.017 38.0381 661.429 37.7969C660.841 37.5514 660.337 37.2235 659.918 36.813C659.499 36.3983 659.167 35.9074 658.921 35.3403ZM661.276 31.3984C660.731 31.9867 660.458 32.7018 660.458 33.5439C660.458 34.3861 660.731 35.1012 661.276 35.6895C661.827 36.2777 662.499 36.5718 663.295 36.5718C664.091 36.5718 664.763 36.2777 665.314 35.6895C665.864 35.1012 666.139 34.3861 666.139 33.5439C666.139 32.7018 665.864 31.9867 665.314 31.3984C664.763 30.806 664.091 30.5098 663.295 30.5098C662.499 30.5098 661.827 30.806 661.276 31.3984ZM678.649 36.1274V32.5537L675.075 36.4004C674.432 37.0775 673.882 37.6763 673.425 38.1968H672.955C673.002 37.5028 673.025 36.8215 673.025 36.1528V31.4238C673.025 30.916 673.002 30.1395 672.955 29.0942H674.961C674.915 29.7629 674.891 30.5394 674.891 31.4238V34.4263L678.624 30.4717C679.115 29.9681 679.606 29.4391 680.096 28.8848H680.573C680.539 29.8242 680.522 30.6833 680.522 31.4619V36.1147C680.522 36.8892 680.539 37.5176 680.573 38H678.611C678.637 37.6361 678.649 37.0119 678.649 36.1274ZM684.835 31.4238V32.5156H688.618V31.4238C688.618 30.4167 688.599 29.6401 688.561 29.0942H690.554C690.507 30.1395 690.484 30.916 690.484 31.4238V36.1274C690.484 36.7114 690.507 37.3356 690.554 38H688.561C688.599 37.4583 688.618 36.8299 688.618 36.1147V34.0581H684.835V36.1274C684.835 37.0119 684.847 37.6361 684.873 38H682.905C682.943 37.4583 682.962 36.8299 682.962 36.1147V31.4238C682.962 30.3955 682.943 29.619 682.905 29.0942H684.873C684.847 29.4455 684.835 30.222 684.835 31.4238ZM692.88 38C692.926 37.5091 692.95 36.7326 692.95 35.6704V31.7476C692.95 30.3638 692.931 29.4793 692.893 29.0942H695.533C696.037 29.0942 696.479 29.1577 696.86 29.2847C697.241 29.4074 697.539 29.5745 697.755 29.7861C697.971 29.9935 698.132 30.222 698.237 30.4717C698.343 30.7171 698.396 30.9774 698.396 31.2524C698.396 31.6545 698.297 32.0078 698.098 32.3125C697.899 32.6172 697.639 32.8394 697.317 32.979C697.774 33.144 698.163 33.4276 698.485 33.8296C698.806 34.2274 698.967 34.7077 698.967 35.2705C698.967 35.6387 698.895 35.9857 698.751 36.3115C698.608 36.6374 698.398 36.9272 698.123 37.1812C697.852 37.4308 697.499 37.6297 697.063 37.7778C696.627 37.9259 696.138 38 695.597 38H692.88ZM697.069 35.2197C697.069 34.8135 696.928 34.494 696.644 34.2612C696.361 34.0243 695.99 33.9058 695.533 33.9058H694.822V36.521H695.444C695.944 36.521 696.339 36.4089 696.631 36.1846C696.923 35.9561 697.069 35.6344 697.069 35.2197ZM694.822 30.4844V32.541H695.457C695.779 32.541 696.045 32.45 696.257 32.2681C696.468 32.0861 696.574 31.8343 696.574 31.5127C696.574 31.1995 696.458 30.9499 696.225 30.7637C695.997 30.5775 695.7 30.4844 695.336 30.4844H694.822ZM703.559 30.6431H702.715V32.5791H703.452C704.349 32.5791 705.064 32.5622 705.597 32.5283V34.1787C705.064 34.1449 704.349 34.1279 703.452 34.1279H702.715V36.4385H703.661C704.753 36.4385 705.493 36.4258 705.883 36.4004V38.0508C705.366 38.0169 704.626 38 703.661 38H700.773C700.811 36.9251 700.83 36.1486 700.83 35.6704V31.4111C700.83 30.4463 700.811 29.674 700.773 29.0942H703.559C704.372 29.0942 705.113 29.0731 705.781 29.0308V30.6938C705.426 30.66 704.685 30.6431 703.559 30.6431ZM709.339 33.5249C709.339 34.3543 709.631 35.0632 710.215 35.6514C710.799 36.2396 711.516 36.5337 712.366 36.5337C713.272 36.5337 713.996 36.2819 714.537 35.7783V37.8286C714.402 37.8498 714.188 37.8942 713.896 37.9619C713.604 38.0296 713.331 38.0783 713.077 38.1079C712.823 38.1418 712.531 38.1587 712.201 38.1587C711.524 38.1587 710.89 38.0381 710.297 37.7969C709.705 37.5514 709.203 37.2214 708.793 36.8066C708.382 36.3877 708.059 35.8947 707.822 35.3276C707.585 34.7606 707.466 34.1597 707.466 33.5249C707.466 32.8986 707.585 32.304 707.822 31.7412C708.059 31.1742 708.382 30.6854 708.793 30.2749C709.203 29.8602 709.705 29.5322 710.297 29.291C710.89 29.0456 711.524 28.9229 712.201 28.9229C712.536 28.9229 712.834 28.9419 713.096 28.98C713.363 29.0138 713.617 29.0583 713.858 29.1133C714.099 29.1641 714.292 29.1979 714.436 29.2148V31.3286C713.903 30.8208 713.204 30.5669 712.341 30.5669C711.499 30.5669 710.788 30.8547 710.208 31.4302C709.628 32.0057 709.339 32.7039 709.339 33.5249ZM718.215 29.0942H721.294C722.322 29.0942 723.095 29.0773 723.611 29.0435V30.6938C723.095 30.66 722.322 30.6431 721.294 30.6431H720.723C720.714 30.9647 720.71 31.519 720.71 32.3062V35.6704C720.71 36.7791 720.731 37.5557 720.774 38H718.774C718.808 37.4668 718.825 36.6903 718.825 35.6704V32.3062C718.825 31.6799 718.812 31.1255 718.787 30.6431H718.215C717.204 30.6431 716.44 30.66 715.924 30.6938V29.0435C716.44 29.0773 717.204 29.0942 718.215 29.0942ZM724.782 35.3403C724.54 34.769 724.42 34.1702 724.42 33.5439C724.42 32.9176 724.54 32.321 724.782 31.7539C725.027 31.1826 725.359 30.6896 725.778 30.2749C726.197 29.8602 726.701 29.5322 727.289 29.291C727.877 29.0456 728.499 28.9229 729.155 28.9229C729.82 28.9229 730.446 29.0456 731.034 29.291C731.622 29.5322 732.124 29.8602 732.539 30.2749C732.957 30.6896 733.288 31.1826 733.529 31.7539C733.774 32.321 733.897 32.9176 733.897 33.5439C733.897 34.1702 733.774 34.769 733.529 35.3403C733.288 35.9074 732.957 36.3983 732.539 36.813C732.124 37.2235 731.622 37.5514 731.034 37.7969C730.446 38.0381 729.82 38.1587 729.155 38.1587C728.499 38.1587 727.877 38.0381 727.289 37.7969C726.701 37.5514 726.197 37.2235 725.778 36.813C725.359 36.3983 725.027 35.9074 724.782 35.3403ZM727.137 31.3984C726.591 31.9867 726.318 32.7018 726.318 33.5439C726.318 34.3861 726.591 35.1012 727.137 35.6895C727.687 36.2777 728.36 36.5718 729.155 36.5718C729.951 36.5718 730.624 36.2777 731.174 35.6895C731.724 35.1012 731.999 34.3861 731.999 33.5439C731.999 32.7018 731.724 31.9867 731.174 31.3984C730.624 30.806 729.951 30.5098 729.155 30.5098C728.36 30.5098 727.687 30.806 727.137 31.3984ZM737.804 34.8135V35.6704C737.804 36.868 737.82 37.6445 737.854 38H735.861C735.908 37.5091 735.931 36.7326 735.931 35.6704V31.3032C735.931 30.3045 735.908 29.5682 735.861 29.0942H738.648C739.634 29.0942 740.408 29.3608 740.971 29.894C741.534 30.4272 741.815 31.1191 741.815 31.9697C741.815 32.8203 741.532 33.508 740.965 34.0327C740.398 34.5532 739.621 34.8135 738.635 34.8135H737.804ZM737.804 30.5098V33.3979H738.426C738.878 33.3979 739.242 33.252 739.517 32.96C739.792 32.668 739.93 32.3337 739.93 31.957C739.93 31.5677 739.797 31.2292 739.53 30.9414C739.263 30.6536 738.895 30.5098 738.426 30.5098H737.804ZM750.819 38H748.477C748.379 37.708 748.231 37.3398 748.032 36.8955L747.632 35.9307H744.535L744.135 36.8574C743.94 37.3102 743.792 37.6911 743.691 38H741.704C742.131 37.2425 742.466 36.5845 742.707 36.0259L745.931 28.9419H746.452L749.765 36.0259C750.036 36.6014 750.387 37.2594 750.819 38ZM747.01 34.4136L746.084 32.1919L745.163 34.4136H747.01Z" fill="white"/>
<path d="M785.589 36.1274V32.5537L782.015 36.4004C781.372 37.0775 780.822 37.6763 780.365 38.1968H779.895C779.942 37.5028 779.965 36.8215 779.965 36.1528V31.4238C779.965 30.916 779.942 30.1395 779.895 29.0942H781.901C781.854 29.7629 781.831 30.5394 781.831 31.4238V34.4263L785.563 30.4717C786.054 29.9681 786.545 29.4391 787.036 28.8848H787.512C787.478 29.8242 787.461 30.6833 787.461 31.4619V36.1147C787.461 36.8892 787.478 37.5176 787.512 38H785.551C785.576 37.6361 785.589 37.0119 785.589 36.1274ZM791.774 31.4238V32.5156H795.557V31.4238C795.557 30.4167 795.538 29.6401 795.5 29.0942H797.494C797.447 30.1395 797.424 30.916 797.424 31.4238V36.1274C797.424 36.7114 797.447 37.3356 797.494 38H795.5C795.538 37.4583 795.557 36.8299 795.557 36.1147V34.0581H791.774V36.1274C791.774 37.0119 791.787 37.6361 791.812 38H789.845C789.883 37.4583 789.902 36.8299 789.902 36.1147V31.4238C789.902 30.3955 789.883 29.619 789.845 29.0942H791.812C791.787 29.4455 791.774 30.222 791.774 31.4238ZM799.82 38C799.866 37.5091 799.889 36.7326 799.889 35.6704V31.7476C799.889 30.3638 799.87 29.4793 799.832 29.0942H802.473C802.976 29.0942 803.419 29.1577 803.8 29.2847C804.18 29.4074 804.479 29.5745 804.695 29.7861C804.91 29.9935 805.071 30.222 805.177 30.4717C805.283 30.7171 805.336 30.9774 805.336 31.2524C805.336 31.6545 805.236 32.0078 805.037 32.3125C804.838 32.6172 804.578 32.8394 804.257 32.979C804.714 33.144 805.103 33.4276 805.425 33.8296C805.746 34.2274 805.907 34.7077 805.907 35.2705C805.907 35.6387 805.835 35.9857 805.691 36.3115C805.547 36.6374 805.338 36.9272 805.063 37.1812C804.792 37.4308 804.439 37.6297 804.003 37.7778C803.567 37.9259 803.078 38 802.536 38H799.82ZM804.009 35.2197C804.009 34.8135 803.867 34.494 803.584 34.2612C803.3 34.0243 802.93 33.9058 802.473 33.9058H801.762V36.521H802.384C802.883 36.521 803.279 36.4089 803.571 36.1846C803.863 35.9561 804.009 35.6344 804.009 35.2197ZM801.762 30.4844V32.541H802.397C802.718 32.541 802.985 32.45 803.197 32.2681C803.408 32.0861 803.514 31.8343 803.514 31.5127C803.514 31.1995 803.398 30.9499 803.165 30.7637C802.936 30.5775 802.64 30.4844 802.276 30.4844H801.762ZM810.499 30.6431H809.655V32.5791H810.391C811.288 32.5791 812.003 32.5622 812.537 32.5283V34.1787C812.003 34.1449 811.288 34.1279 810.391 34.1279H809.655V36.4385H810.601C811.692 36.4385 812.433 36.4258 812.822 36.4004V38.0508C812.306 38.0169 811.566 38 810.601 38H807.712C807.751 36.9251 807.77 36.1486 807.77 35.6704V31.4111C807.77 30.4463 807.751 29.674 807.712 29.0942H810.499C811.312 29.0942 812.052 29.0731 812.721 29.0308V30.6938C812.365 30.66 811.625 30.6431 810.499 30.6431ZM816.278 33.5249C816.278 34.3543 816.57 35.0632 817.154 35.6514C817.738 36.2396 818.456 36.5337 819.306 36.5337C820.212 36.5337 820.935 36.2819 821.477 35.7783V37.8286C821.342 37.8498 821.128 37.8942 820.836 37.9619C820.544 38.0296 820.271 38.0783 820.017 38.1079C819.763 38.1418 819.471 38.1587 819.141 38.1587C818.464 38.1587 817.829 38.0381 817.237 37.7969C816.644 37.5514 816.143 37.2214 815.732 36.8066C815.322 36.3877 814.998 35.8947 814.761 35.3276C814.524 34.7606 814.406 34.1597 814.406 33.5249C814.406 32.8986 814.524 32.304 814.761 31.7412C814.998 31.1742 815.322 30.6854 815.732 30.2749C816.143 29.8602 816.644 29.5322 817.237 29.291C817.829 29.0456 818.464 28.9229 819.141 28.9229C819.475 28.9229 819.774 28.9419 820.036 28.98C820.303 29.0138 820.557 29.0583 820.798 29.1133C821.039 29.1641 821.232 29.1979 821.375 29.2148V31.3286C820.842 30.8208 820.144 30.5669 819.281 30.5669C818.439 30.5669 817.728 30.8547 817.148 31.4302C816.568 32.0057 816.278 32.7039 816.278 33.5249ZM825.155 29.0942H828.234C829.262 29.0942 830.034 29.0773 830.551 29.0435V30.6938C830.034 30.66 829.262 30.6431 828.234 30.6431H827.662C827.654 30.9647 827.65 31.519 827.65 32.3062V35.6704C827.65 36.7791 827.671 37.5557 827.713 38H825.714C825.748 37.4668 825.764 36.6903 825.764 35.6704V32.3062C825.764 31.6799 825.752 31.1255 825.726 30.6431H825.155C824.144 30.6431 823.38 30.66 822.864 30.6938V29.0435C823.38 29.0773 824.144 29.0942 825.155 29.0942ZM837.682 36.1274V32.5537L834.108 36.4004C833.465 37.0775 832.915 37.6763 832.458 38.1968H831.988C832.034 37.5028 832.058 36.8215 832.058 36.1528V31.4238C832.058 30.916 832.034 30.1395 831.988 29.0942H833.994C833.947 29.7629 833.924 30.5394 833.924 31.4238V34.4263L837.656 30.4717C838.147 29.9681 838.638 29.4391 839.129 28.8848H839.605C839.571 29.8242 839.554 30.6833 839.554 31.4619V36.1147C839.554 36.8892 839.571 37.5176 839.605 38H837.644C837.669 37.6361 837.682 37.0119 837.682 36.1274ZM850.082 36.4258L849.739 40.6787H848.139L848.222 38H841.899C841.946 37.4118 841.969 36.6141 841.969 35.6069V31.4365C841.969 30.5944 841.946 29.8179 841.899 29.1069H843.905C843.859 29.5809 843.835 30.3574 843.835 31.4365V36.4639H847.155V31.4492C847.155 30.4632 847.132 29.6825 847.085 29.1069H849.091C849.049 29.4539 849.028 30.2262 849.028 31.4238V35.7275V36.4258H850.082ZM857.429 36.1274V32.5537L853.855 36.4004C853.212 37.0775 852.662 37.6763 852.204 38.1968H851.735C851.781 37.5028 851.805 36.8215 851.805 36.1528V31.4238C851.805 30.916 851.781 30.1395 851.735 29.0942H853.741C853.694 29.7629 853.671 30.5394 853.671 31.4238V34.4263L857.403 30.4717C857.894 29.9681 858.385 29.4391 858.876 28.8848H859.352C859.318 29.8242 859.301 30.6833 859.301 31.4619V36.1147C859.301 36.8892 859.318 37.5176 859.352 38H857.391C857.416 37.6361 857.429 37.0119 857.429 36.1274ZM861.697 35.3403C861.456 34.769 861.335 34.1702 861.335 33.5439C861.335 32.9176 861.456 32.321 861.697 31.7539C861.942 31.1826 862.275 30.6896 862.694 30.2749C863.113 29.8602 863.616 29.5322 864.204 29.291C864.793 29.0456 865.415 28.9229 866.071 28.9229C866.735 28.9229 867.361 29.0456 867.949 29.291C868.538 29.5322 869.039 29.8602 869.454 30.2749C869.873 30.6896 870.203 31.1826 870.444 31.7539C870.69 32.321 870.812 32.9176 870.812 33.5439C870.812 34.1702 870.69 34.769 870.444 35.3403C870.203 35.9074 869.873 36.3983 869.454 36.813C869.039 37.2235 868.538 37.5514 867.949 37.7969C867.361 38.0381 866.735 38.1587 866.071 38.1587C865.415 38.1587 864.793 38.0381 864.204 37.7969C863.616 37.5514 863.113 37.2235 862.694 36.813C862.275 36.3983 861.942 35.9074 861.697 35.3403ZM864.052 31.3984C863.506 31.9867 863.233 32.7018 863.233 33.5439C863.233 34.3861 863.506 35.1012 864.052 35.6895C864.602 36.2777 865.275 36.5718 866.071 36.5718C866.866 36.5718 867.539 36.2777 868.089 35.6895C868.639 35.1012 868.914 34.3861 868.914 33.5439C868.914 32.7018 868.639 31.9867 868.089 31.3984C867.539 30.806 866.866 30.5098 866.071 30.5098C865.275 30.5098 864.602 30.806 864.052 31.3984ZM874.719 31.4238V32.5156H878.502V31.4238C878.502 30.4167 878.483 29.6401 878.445 29.0942H880.438C880.392 30.1395 880.368 30.916 880.368 31.4238V36.1274C880.368 36.7114 880.392 37.3356 880.438 38H878.445C878.483 37.4583 878.502 36.8299 878.502 36.1147V34.0581H874.719V36.1274C874.719 37.0119 874.732 37.6361 874.757 38H872.789C872.827 37.4583 872.846 36.8299 872.846 36.1147V31.4238C872.846 30.3955 872.827 29.619 872.789 29.0942H874.757C874.732 29.4455 874.719 30.222 874.719 31.4238ZM884.707 31.4238V32.5156H888.49V31.4238C888.49 30.4167 888.471 29.6401 888.433 29.0942H890.426C890.379 30.1395 890.356 30.916 890.356 31.4238V36.1274C890.356 36.7114 890.379 37.3356 890.426 38H888.433C888.471 37.4583 888.49 36.8299 888.49 36.1147V34.0581H884.707V36.1274C884.707 37.0119 884.719 37.6361 884.745 38H882.777C882.815 37.4583 882.834 36.8299 882.834 36.1147V31.4238C882.834 30.3955 882.815 29.619 882.777 29.0942H884.745C884.719 29.4455 884.707 30.222 884.707 31.4238ZM900.858 38H898.515C898.418 37.708 898.27 37.3398 898.071 36.8955L897.671 35.9307H894.574L894.174 36.8574C893.979 37.3102 893.831 37.6911 893.729 38H891.743C892.17 37.2425 892.504 36.5845 892.745 36.0259L895.97 28.9419H896.491L899.804 36.0259C900.075 36.6014 900.426 37.2594 900.858 38ZM897.049 34.4136L896.122 32.1919L895.202 34.4136H897.049ZM906.573 35.7021V34.604H906.116C905.951 34.604 905.816 34.5998 905.71 34.5913C905.503 34.8875 905.164 35.4652 904.695 36.3242C904.225 37.179 903.893 37.7376 903.698 38H901.54C901.806 37.708 902.077 37.3525 902.352 36.9336C902.627 36.5104 902.917 36.047 903.222 35.5435C903.531 35.0399 903.797 34.6315 904.022 34.3184C903.01 33.8825 902.505 33.0679 902.505 31.8745C902.505 31.0409 902.794 30.3701 903.374 29.8623C903.958 29.3503 904.781 29.0942 905.843 29.0942H908.509C908.463 29.5682 908.44 30.3447 908.44 31.4238V35.7021C908.44 36.7432 908.463 37.5091 908.509 38H906.504C906.55 37.5091 906.573 36.7432 906.573 35.7021ZM906.573 33.252V30.5796H905.805C905.361 30.5796 905.014 30.7065 904.764 30.9604C904.515 31.2144 904.39 31.519 904.39 31.8745C904.39 32.2638 904.521 32.5918 904.783 32.8584C905.05 33.1208 905.382 33.252 905.78 33.252H906.573ZM913.834 35.6704V31.4238C913.834 30.4505 913.815 29.674 913.777 29.0942H915.758C915.72 29.674 915.701 30.4505 915.701 31.4238V32.7632H916.392C917.213 31.7476 918.037 30.5246 918.862 29.0942H921.153C920.942 29.3354 920.491 29.9427 919.801 30.916C919.111 31.8851 918.5 32.687 917.967 33.3218C918.551 34.0581 919.196 34.932 919.903 35.9434C920.609 36.9505 921.126 37.6361 921.452 38H918.849C918.477 37.3441 918.111 36.7432 917.751 36.1973C917.395 35.6471 916.894 34.9574 916.246 34.1279H915.701V35.6704C915.701 36.6226 915.72 37.3991 915.758 38H913.777C913.815 37.3991 913.834 36.6226 913.834 35.6704ZM931.363 38H929.021C928.923 37.708 928.775 37.3398 928.576 36.8955L928.177 35.9307H925.079L924.679 36.8574C924.484 37.3102 924.336 37.6911 924.235 38H922.248C922.675 37.2425 923.01 36.5845 923.251 36.0259L926.475 28.9419H926.996L930.309 36.0259C930.58 36.6014 930.931 37.2594 931.363 38ZM927.554 34.4136L926.628 32.1919L925.707 34.4136H927.554ZM934.616 34.8135V35.6704C934.616 36.868 934.633 37.6445 934.667 38H932.673C932.72 37.5091 932.743 36.7326 932.743 35.6704V31.3032C932.743 30.3045 932.72 29.5682 932.673 29.0942H935.46C936.446 29.0942 937.22 29.3608 937.783 29.894C938.346 30.4272 938.628 31.1191 938.628 31.9697C938.628 32.8203 938.344 33.508 937.777 34.0327C937.21 34.5532 936.433 34.8135 935.447 34.8135H934.616ZM934.616 30.5098V33.3979H935.238C935.691 33.3979 936.055 33.252 936.33 32.96C936.605 32.668 936.742 32.3337 936.742 31.957C936.742 31.5677 936.609 31.2292 936.342 30.9414C936.076 30.6536 935.708 30.5098 935.238 30.5098H934.616ZM942.122 29.0942H945.2C946.229 29.0942 947.001 29.0773 947.517 29.0435V30.6938C947.001 30.66 946.229 30.6431 945.2 30.6431H944.629C944.62 30.9647 944.616 31.519 944.616 32.3062V35.6704C944.616 36.7791 944.637 37.5557 944.68 38H942.68C942.714 37.4668 942.731 36.6903 942.731 35.6704V32.3062C942.731 31.6799 942.718 31.1255 942.693 30.6431H942.122C941.11 30.6431 940.346 30.66 939.83 30.6938V29.0435C940.346 29.0773 941.11 29.0942 942.122 29.0942ZM956.096 38H953.753C953.656 37.708 953.508 37.3398 953.309 36.8955L952.909 35.9307H949.811L949.411 36.8574C949.217 37.3102 949.069 37.6911 948.967 38H946.98C947.408 37.2425 947.742 36.5845 947.983 36.0259L951.208 28.9419H951.728L955.042 36.0259C955.313 36.6014 955.664 37.2594 956.096 38ZM952.287 34.4136L951.36 32.1919L950.44 34.4136H952.287Z" fill="white"/>
<path fill-rule="evenodd" clip-rule="evenodd" d="M55.5774 28.5383L59.163 32.477V67.9739L55.5774 64.045V28.5383ZM48.847 21.1594L52.2759 24.9221V60.4191L48.847 56.6661V21.1594ZM41.901 13.5361L45.5552 17.5432V53.0402L41.901 49.0331V13.5361ZM31.5654 25.5672L34.9061 21.8142V5.84449L38.6093 9.91022V45.4072L34.9061 41.3512V29.6818L31.5654 25.5672ZM27.5585 30.493L29.5864 28.1865L31.6144 30.493V37.7253L29.5766 35.5067L27.5585 37.7253V30.493ZM27.5585 2.22833L29.5864 0L31.6144 2.22833V20.6414L29.5766 22.9577L27.5585 20.6414V2.22833ZM20.5537 9.91022L24.2569 5.84449V21.8044L27.3136 25.5672L24.2569 29.6818V41.3414L20.5537 45.417V9.91022ZM13.8625 17.25L17.2522 13.5361V49.0331L13.8625 52.747V17.25ZM7.05372 24.7267L10.561 20.876V56.3729L7.05372 60.2236V24.7267ZM0 67.9642V32.477L3.76198 28.3526V63.8496L0 67.9642Z" fill="#CA2138"/>
<path d="M100.888 60.5755H100.251C99.6044 60.5755 99.1341 60.077 99.1341 59.4613C99.1341 58.9238 99.5162 58.4156 100.271 58.4156H100.888V60.5755ZM100.888 62.5497C100.888 63.2632 100.868 64.0744 100.839 64.4067H102.455C102.426 64.0744 102.406 63.2632 102.406 62.5497V59.0997C102.406 58.3862 102.426 57.536 102.455 57.2134H100.3C98.5267 57.2134 97.6058 58.1615 97.6058 59.4613C97.6058 60.6439 98.2034 61.1717 98.8304 61.4453C98.1153 62.4422 97.5568 63.5955 96.8221 64.4067H98.5659C99.0264 63.7812 99.6828 62.3836 100.202 61.6506C100.329 61.6603 100.427 61.6603 100.525 61.6603H100.888V62.5497ZM93.5205 61.5137H92.0216L92.776 59.7154L93.5205 61.5137ZM96.5968 64.4067C96.342 63.9766 96.0285 63.4098 95.7444 62.8038L93.0601 57.0962H92.6388L90.0329 62.8038C89.7684 63.4098 89.4843 63.9375 89.2197 64.4067H90.8264C90.9244 64.1232 91.0322 63.8496 91.1889 63.4782L91.5122 62.7354H94.0202L94.3533 63.5075C94.4904 63.8203 94.6276 64.1525 94.706 64.4067H96.5968ZM86.3885 58.3667H86.8881C87.6914 58.3667 88.1127 58.9531 88.1127 59.5297C88.1127 60.0966 87.662 60.6928 86.8881 60.6928H86.3885V58.3667ZM86.3885 61.8363H87.0546C88.6809 61.8363 89.6312 60.8882 89.6312 59.5395C89.6312 58.2006 88.6907 57.2232 87.0644 57.2232H84.821C84.8504 57.5457 84.87 58.2983 84.87 59.0117V62.5399C84.87 63.2534 84.8504 64.0841 84.821 64.4164H86.4374C86.4081 64.0841 86.3983 63.2436 86.3983 62.5399V61.8363H86.3885ZM77.9632 62.5302C77.9632 63.2436 77.9436 64.0744 77.924 64.4067H79.5209C79.5013 64.0744 79.4817 63.2339 79.4817 62.5302V61.2792H79.9226C81.0786 62.755 81.5292 63.5271 82.0289 64.4067H84.1254C83.3416 63.5173 82.7244 62.3933 81.3137 60.6244C82.4991 59.2072 83.2829 57.8976 83.8903 57.2134H82.0485C81.5978 57.9953 81.0296 58.9629 80.0499 60.1748H79.4915V59.0997C79.4915 58.3862 79.5111 57.536 79.5307 57.2232H77.9338C77.9534 57.5457 77.973 58.396 77.973 59.0997L77.9632 62.5302ZM169.867 48.046C169.867 46.6875 170.867 45.6027 172.15 45.6027C173.433 45.6027 174.452 46.6875 174.452 48.046C174.452 49.4045 173.433 50.4893 172.15 50.4893C170.867 50.4893 169.867 49.4045 169.867 48.046ZM168.319 48.046C168.319 50.0984 169.985 51.7697 172.15 51.7697C174.344 51.7697 176 50.1082 176 48.046C176 45.9838 174.344 44.3223 172.15 44.3223C169.985 44.3223 168.319 45.9936 168.319 48.046ZM163.587 51.6426H165.204C165.184 51.3201 165.165 50.4796 165.165 49.7661V45.7493H166.429C167.144 45.7493 167.634 45.759 167.957 45.7883V44.4103C167.634 44.4298 167.144 44.4689 166.429 44.4689H163.587C163.617 44.7817 163.636 45.6222 163.636 46.3357V49.7759C163.636 50.4796 163.617 51.3201 163.587 51.6426ZM156.201 48.046C156.201 46.6875 157.21 45.6027 158.493 45.6027C159.777 45.6027 160.786 46.6875 160.786 48.046C160.786 49.4045 159.777 50.4893 158.493 50.4893C157.21 50.4893 156.201 49.4045 156.201 48.046ZM154.672 48.046C154.672 50.0984 156.338 51.7697 158.503 51.7697C160.697 51.7697 162.343 50.1082 162.343 48.046C162.343 45.9838 160.688 44.3223 158.493 44.3223C156.338 44.3223 154.672 45.9936 154.672 48.046ZM148.451 49.7759C148.451 50.4893 148.432 51.3299 148.412 51.6524H150.009C149.989 51.3201 149.97 50.4796 149.97 49.7759V48.5249H150.401C151.557 50.0007 152.017 50.7826 152.517 51.6524H154.614C153.83 50.7728 153.213 49.6488 151.792 47.8799C152.987 46.4627 153.771 45.1531 154.378 44.4689H152.537C152.076 45.2508 151.518 46.2184 150.538 47.4205H149.97V46.3357C149.97 45.6222 149.989 44.7719 150.009 44.4689H148.412C148.432 44.7817 148.451 45.632 148.451 46.3357V49.7759ZM142.995 48.0362C142.995 46.7168 144.053 45.6417 145.424 45.6417C146.071 45.6417 146.668 45.847 147.109 46.2575V44.5569C146.58 44.4983 146.218 44.3321 145.307 44.3321C143.063 44.3321 141.476 45.9936 141.476 48.046C141.476 50.1082 143.063 51.7794 145.307 51.7794C146.198 51.7794 146.58 51.6231 147.188 51.5156V49.8541C146.737 50.2743 146.11 50.46 145.434 50.46C144.062 50.46 142.995 49.3752 142.995 48.0362ZM137.283 45.6027H137.792C138.586 45.6027 139.007 46.1891 139.007 46.7657C139.007 47.3326 138.557 47.9287 137.792 47.9287H137.283V45.6027ZM137.283 49.0722H137.959C139.575 49.0722 140.526 48.134 140.526 46.7755C140.526 45.4365 139.595 44.4592 137.969 44.4592H135.715C135.755 44.7719 135.774 45.5245 135.774 46.2379V49.7661C135.774 50.4796 135.755 51.3201 135.715 51.6426H137.322C137.293 51.3201 137.283 50.4796 137.283 49.7661V49.0722ZM131.895 48.7497H130.406L131.15 46.9514L131.895 48.7497ZM134.971 51.6426C134.726 51.2126 134.403 50.6457 134.119 50.0398L131.444 44.3321H131.023L128.417 50.0495C128.152 50.6653 127.858 51.1833 127.604 51.6524H129.21C129.308 51.369 129.416 51.0953 129.563 50.7239L129.886 49.9811H132.394L132.718 50.763C132.855 51.0758 132.992 51.4178 133.07 51.6524H134.971V51.6426ZM124.528 50.3916H121.775L123.166 46.8634L124.528 50.3916ZM127.124 50.3721C126.918 50.3916 126.595 50.3916 126.183 50.3916C126.007 50.0495 125.83 49.6782 125.664 49.3068L123.44 44.2246H122.98L120.736 49.3068C120.53 49.7466 120.393 50.0593 120.217 50.3916C119.894 50.3916 119.521 50.3916 119.316 50.3721L119.521 53.8123H120.854L120.834 51.6524H125.605L125.527 53.8123H126.84L127.124 50.3721ZM112.811 48.046C112.811 46.6875 113.81 45.6027 115.093 45.6027C116.377 45.6027 117.395 46.6875 117.395 48.046C117.395 49.4045 116.377 50.4893 115.093 50.4893C113.81 50.4893 112.811 49.4045 112.811 48.046ZM111.272 48.046C111.272 50.0984 112.938 51.7697 115.103 51.7697C117.288 51.7697 118.943 50.1082 118.943 48.046C118.943 45.9838 117.278 44.3223 115.103 44.3223C112.938 44.3223 111.272 45.9936 111.272 48.046ZM105.365 46.3357C105.365 45.5929 105.375 44.7426 105.394 44.4689H103.807C103.827 44.7524 103.846 45.6027 103.846 46.3357V50.1277C103.846 50.6848 103.827 51.3494 103.807 51.6524H105.394C105.375 51.3592 105.365 50.6848 105.365 50.1375V48.476H108.422V50.1277C108.422 50.6848 108.402 51.3494 108.382 51.6524H109.989C109.969 51.3592 109.93 50.6848 109.93 50.1375V46.3357C109.93 45.759 109.969 44.9185 109.989 44.4689H108.382C108.412 44.9087 108.422 45.7395 108.422 46.3357V47.225H105.365V46.3357ZM98.3602 48.0362C98.3602 46.7168 99.4182 45.6417 100.79 45.6417C101.436 45.6417 102.044 45.847 102.485 46.2575V44.5569C101.956 44.4983 101.593 44.3321 100.682 44.3321C98.4386 44.3321 96.8515 45.9936 96.8515 48.046C96.8515 50.1082 98.4386 51.7794 100.682 51.7794C101.574 51.7794 101.956 51.6231 102.563 51.5156V49.8541C102.112 50.2743 101.485 50.46 100.8 50.46C99.4182 50.46 98.3602 49.3752 98.3602 48.0362ZM93.5205 48.7497H92.0216L92.776 46.9514L93.5205 48.7497ZM96.5968 51.6426C96.342 51.2126 96.0285 50.6457 95.7444 50.0398L93.0601 44.3321H92.6388L90.0329 50.0398C89.7684 50.6555 89.4843 51.1735 89.2197 51.6426H90.8264C90.9244 51.3592 91.0322 51.0855 91.1889 50.7141L91.5122 49.9714H94.0202L94.3533 50.7532C94.4904 51.066 94.6276 51.4081 94.706 51.6426H96.5968ZM86.3885 45.6027H86.8881C87.6914 45.6027 88.1127 46.1891 88.1127 46.7657C88.1127 47.3326 87.662 47.9287 86.8881 47.9287H86.3885V45.6027ZM86.3885 49.0722H87.0546C88.6809 49.0722 89.6312 48.134 89.6312 46.7755C89.6312 45.4365 88.6907 44.4592 87.0644 44.4592H84.821C84.8504 44.7719 84.87 45.5245 84.87 46.2379V49.7661C84.87 50.4796 84.8504 51.3201 84.821 51.6426H86.4374C86.3983 51.3201 86.3885 50.4796 86.3885 49.7759V49.0722ZM77.9632 49.7759C77.9632 50.4893 77.9436 51.3299 77.924 51.6524H79.5209C79.5013 51.3299 79.4817 50.4893 79.4817 49.7759V48.5249H79.9226C81.0786 50.0007 81.5292 50.7826 82.0289 51.6524H84.1254C83.3416 50.7728 82.7244 49.6488 81.3137 47.8799C82.4991 46.4627 83.2829 45.1531 83.8903 44.4689H82.0485C81.5978 45.2508 81.0296 46.2184 80.0499 47.4205H79.4915V46.3357C79.4915 45.6222 79.5111 44.7719 79.5307 44.4689H77.9338C77.9534 44.7817 77.973 45.632 77.973 46.3357L77.9632 49.7759ZM143.719 29.9359H142.554C142.583 30.796 143.298 31.4215 144.523 31.4215C145.757 31.4215 146.482 30.796 146.512 29.9359H145.336C145.316 30.3073 144.993 30.581 144.523 30.581C144.053 30.581 143.739 30.2975 143.719 29.9359ZM145.836 37.3832C145.836 37.9305 145.816 38.5951 145.796 38.8883H147.384C147.364 38.5951 147.344 37.9208 147.344 37.3735V33.6107C147.344 32.9852 147.364 32.1056 147.384 31.5387H147.001C146.531 32.0665 146.276 32.3499 145.806 32.8191L142.789 36.015V33.5814C142.789 32.9754 142.808 32.1447 142.838 31.7049H141.221C141.251 32.1642 141.28 33.0048 141.28 33.5814V37.4028C141.28 37.8426 141.27 38.4388 141.221 39.0447H141.603C142.034 38.5463 142.524 38.0283 142.936 37.5982L145.836 34.5001V37.3832ZM138.126 37.3832C138.126 37.9305 138.106 38.5951 138.086 38.8883H139.683C139.654 38.5951 139.634 37.9208 139.634 37.3735V33.6107C139.634 32.9852 139.654 32.1056 139.683 31.5387H139.291C138.831 32.0665 138.566 32.3499 138.096 32.8191L135.079 36.015V33.5814C135.079 32.9754 135.098 32.1447 135.137 31.7049H133.521C133.541 32.1642 133.57 33.0048 133.57 33.5814V37.4028C133.57 37.8426 133.56 38.4388 133.521 39.0447H133.903C134.334 38.5463 134.834 38.0283 135.245 37.5982L138.135 34.5001L138.126 37.3832ZM132.492 37.6178H131.64V37.0509V33.5716C131.64 32.8093 131.66 31.9492 131.689 31.7049H130.073C130.102 32.0861 130.122 32.9559 130.122 33.6009V37.6569H127.437V33.5912C127.437 32.8777 127.467 32.0274 127.496 31.7049H125.879C125.899 32.0274 125.928 32.8777 125.928 33.5912V36.963C125.928 37.4028 125.909 38.5072 125.879 38.8883H130.984L130.925 41.0483H132.218L132.492 37.6178ZM122.784 37.3832C122.784 37.9305 122.764 38.5951 122.744 38.8883H124.332C124.312 38.5951 124.292 37.9208 124.292 37.3735V33.6107C124.292 32.9852 124.312 32.1056 124.332 31.5387H123.94C123.479 32.0665 123.225 32.3499 122.754 32.8191L119.727 36.015V33.5814C119.727 32.9754 119.756 32.1447 119.786 31.7049H118.169C118.199 32.1642 118.228 33.0048 118.228 33.5814V37.4028C118.228 37.8426 118.218 38.4388 118.169 39.0447H118.551C118.983 38.5463 119.472 38.0283 119.884 37.5982L122.784 34.5001V37.3832ZM112.948 31.7049C112.232 31.7049 111.41 31.6853 111.106 31.6658V32.995C111.41 32.9754 112.232 32.9461 112.948 32.9461H113.408C113.428 33.3371 113.437 33.8648 113.437 34.2948V37.0118C113.437 37.7253 113.418 38.5658 113.398 38.8883H115.015C114.985 38.556 114.966 37.7253 114.966 37.0118V34.2948C114.966 33.8648 114.966 33.3371 114.976 32.9461H115.446C116.161 32.9461 116.994 32.9657 117.307 32.995V31.6658C116.994 31.6853 116.161 31.7049 115.446 31.7049H112.948ZM106.08 35.282C106.08 33.9625 107.138 32.8972 108.51 32.8972C109.156 32.8972 109.764 33.0927 110.205 33.513V31.8026C109.676 31.7342 109.303 31.5681 108.392 31.5681C106.149 31.5681 104.562 33.2393 104.562 35.282C104.562 37.3441 106.149 39.0154 108.392 39.0154C109.284 39.0154 109.676 38.859 110.283 38.7613V37.09C109.822 37.5103 109.205 37.7058 108.519 37.7058C107.138 37.7058 106.08 36.6111 106.08 35.282ZM101.711 32.9461C102.426 32.9461 103.18 32.9559 103.513 32.995V31.656C103.19 31.6756 102.436 31.7049 101.711 31.7049H99.4672C99.4868 32.0274 99.5064 32.8484 99.5064 33.5716V37.0118C99.5064 37.481 99.4868 38.3117 99.4672 38.8883H101.799C102.524 38.8883 103.278 38.9079 103.601 38.9274V37.5982C103.288 37.6178 102.534 37.6373 101.799 37.6373H101.035V35.7609H101.632C102.347 35.7609 103.043 35.7804 103.376 35.7999V34.4708C103.043 34.4903 102.357 34.5196 101.632 34.5196H101.035V32.9461H101.711ZM94.9607 32.8288H95.3819C95.96 32.8288 96.3812 33.1514 96.3812 33.6596C96.3812 34.1971 95.9796 34.4805 95.4799 34.4805H94.9607V32.8288ZM96.7829 36.6405C96.7829 37.3246 96.2539 37.6862 95.4701 37.6862H94.9607V35.5849H95.5387C96.2735 35.5849 96.7829 35.9661 96.7829 36.6405ZM93.3932 38.8883H95.5877C97.4001 38.8883 98.3112 37.8621 98.3112 36.6796C98.3112 35.7022 97.645 35.0767 96.969 34.8324C97.4785 34.6174 97.8507 34.1092 97.8507 33.4348C97.8507 32.5845 97.2237 31.6951 95.5387 31.6951H93.403C93.4324 32.0176 93.4422 33.1123 93.4422 33.8355V37.0021C93.452 37.7253 93.4226 38.5658 93.3932 38.8883ZM87.2114 33.5814C87.2114 32.8386 87.2212 31.9786 87.2408 31.7049H85.6537C85.6733 31.9883 85.6929 32.8386 85.6929 33.5814V37.3735C85.6929 37.9305 85.6733 38.5951 85.6537 38.8883H87.2408C87.2212 38.5951 87.2114 37.9208 87.2114 37.3832V35.712H90.268V37.3735C90.268 37.9305 90.2484 38.5951 90.2288 38.8883H91.8355C91.8061 38.5951 91.7767 37.9305 91.7767 37.3832V33.5814C91.7767 33.0048 91.8061 32.1642 91.8355 31.7049H90.2288C90.2582 32.1447 90.268 32.9852 90.268 33.5814V34.461H87.2114V33.5814ZM82.5187 37.3832C82.5187 37.9305 82.5089 38.5951 82.4893 38.8883H84.0764C84.0568 38.5951 84.0372 37.9208 84.0372 37.3735V33.6107C84.0372 32.9852 84.0568 32.1056 84.0764 31.5387H83.6943C83.2339 32.0665 82.9694 32.3499 82.4991 32.8191L79.4817 36.015V33.5814C79.4817 32.9754 79.5013 32.1447 79.5405 31.7049H77.9142C77.9338 32.1642 77.9632 33.0048 77.9632 33.5814V37.4028C77.9632 37.8426 77.9534 38.4388 77.9142 39.0447H78.2963C78.7273 38.5463 79.2172 38.0283 79.6287 37.5982L82.5187 34.5001V37.3832ZM168.055 22.5375C168.055 21.218 168.848 20.143 170.034 20.143C171.249 20.143 172.032 21.218 172.032 22.5375C172.032 23.8569 171.249 24.9319 170.034 24.9319C168.848 24.9319 168.055 23.8569 168.055 22.5375ZM165.478 20.8271C165.478 20.1137 165.508 19.2634 165.527 18.9604H163.93C163.95 19.2731 163.979 20.1234 163.979 20.8271V24.2576C163.979 24.971 163.95 25.8115 163.93 26.1341H165.527C165.508 25.8115 165.478 24.971 165.478 24.2576V23.2314H166.556C166.84 24.9319 168.202 26.2025 170.024 26.2025C172.121 26.2025 173.58 24.5605 173.58 22.5375C173.58 20.5144 172.121 18.8724 170.024 18.8724C168.163 18.8724 166.781 20.2114 166.546 21.9608H165.478V20.8271ZM160.815 24.6192C160.815 25.1665 160.805 25.8409 160.786 26.1341H162.373C162.353 25.8409 162.333 25.1665 162.333 24.6094V20.8662C162.333 20.2309 162.353 19.3513 162.373 18.7845H161.981C161.52 19.3122 161.266 19.5957 160.795 20.0648L157.778 23.2509V20.8271C157.778 20.2309 157.798 19.4002 157.827 18.9604H156.21C156.24 19.4197 156.269 20.2603 156.269 20.8271V24.6485C156.269 25.0883 156.259 25.6845 156.21 26.2904H156.593C157.024 25.8018 157.513 25.274 157.925 24.8537L160.815 21.7458V24.6192ZM150.038 20.8271C150.038 20.0843 150.048 19.2341 150.068 18.9604H148.481C148.5 19.2438 148.53 20.0941 148.53 20.8271V24.6192C148.53 25.1763 148.5 25.8409 148.481 26.1438H150.068C150.048 25.8506 150.038 25.1763 150.038 24.629V22.9675H153.105V24.6192C153.105 25.1763 153.085 25.8409 153.066 26.1438H154.663C154.643 25.8506 154.614 25.1763 154.614 24.629V20.8271C154.614 20.2505 154.643 19.41 154.663 18.9604H153.066C153.095 19.4002 153.105 20.2309 153.105 20.8271V21.7067H150.038V20.8271ZM145.326 20.2016C146.032 20.2016 146.796 20.2114 147.119 20.2407V18.892C146.805 18.9115 146.041 18.9506 145.326 18.9506H143.083C143.102 19.2634 143.122 20.0941 143.122 20.8076V24.2478C143.122 24.7169 143.102 25.5477 143.083 26.1243H145.414C146.13 26.1243 146.884 26.1438 147.207 26.1634V24.844C146.894 24.8635 146.139 24.8733 145.414 24.8733H144.64V23.0066H145.248C145.963 23.0066 146.659 23.0261 146.982 23.0457V21.7165C146.639 21.736 145.953 21.7556 145.238 21.7556H144.631V20.1918L145.326 20.2016ZM137.43 21.0128V20.055C137.43 19.752 137.44 19.2438 137.469 18.9604H135.882C135.902 19.2536 135.911 19.752 135.911 20.055V21.4037C135.911 22.8502 136.999 23.5637 138.351 23.5637C139.086 23.5637 139.634 23.4366 139.967 23.29V25.0297C139.967 25.4108 139.958 25.8897 139.928 26.1341H141.525C141.505 25.88 141.476 25.3424 141.476 24.9417V20.055C141.476 19.752 141.486 19.2438 141.515 18.9604H139.928C139.958 19.2536 139.967 19.752 139.967 20.055V22.039C139.634 22.2247 139.193 22.2833 138.713 22.2833C138.037 22.2833 137.43 21.9217 137.43 21.0128ZM132.884 20.2016C133.609 20.2016 134.354 20.2114 134.697 20.2407V18.892C134.364 18.9115 133.619 18.9506 132.884 18.9506H130.641C130.67 19.2634 130.69 20.0941 130.69 20.8076V24.2478C130.69 24.7169 130.67 25.5477 130.641 26.1243H132.972C133.697 26.1243 134.452 26.1438 134.775 26.1634V24.844C134.461 24.8635 133.707 24.8733 132.972 24.8733H132.208V23.0066H132.816C133.531 23.0066 134.226 23.0261 134.55 23.0457V21.7165C134.226 21.736 133.531 21.7556 132.816 21.7556H132.208V20.1918L132.884 20.2016ZM127.545 24.8147C127.731 25.3326 127.878 25.7822 127.976 26.1341H129.896C129.632 25.7138 129.348 25.0981 129.103 24.5312L126.555 18.7063H126.183L123.587 24.5312C123.342 25.0883 123.058 25.7138 122.803 26.1341H124.449C124.547 25.8506 124.655 25.5379 124.792 25.1958C125.252 24.0426 125.742 22.8502 126.262 21.6676C126.742 22.8404 127.094 23.6809 127.545 24.8147ZM119.002 20.0746H119.423C120.001 20.0746 120.423 20.3873 120.423 20.8955C120.423 21.4331 120.021 21.7263 119.521 21.7263H119.002V20.0746ZM120.824 23.896C120.824 24.5801 120.295 24.9417 119.512 24.9417H119.002V22.8307H119.59C120.305 22.8307 120.824 23.2216 120.824 23.896ZM117.435 26.1341H119.639C121.451 26.1341 122.362 25.1079 122.362 23.9253C122.362 22.9479 121.686 22.3224 121.02 22.0781C121.53 21.8631 121.892 21.3549 121.892 20.6805C121.892 19.8302 121.275 18.9408 119.59 18.9408H117.444C117.474 19.2536 117.484 20.358 117.484 21.0714V24.238C117.484 24.971 117.464 25.8115 117.435 26.1341ZM114.319 24.6192C114.319 25.1665 114.309 25.8409 114.28 26.1341H115.867C115.848 25.8409 115.828 25.1665 115.828 24.6094V20.8662C115.828 20.2309 115.848 19.3513 115.867 18.7845H115.485C115.015 19.3122 114.76 19.5957 114.29 20.0648L111.272 23.2509V20.8271C111.272 20.2309 111.292 19.4002 111.321 18.9604H109.715C109.734 19.4197 109.764 20.2603 109.764 20.8271V24.6485C109.764 25.0883 109.754 25.6845 109.715 26.2904H110.087C110.518 25.8018 111.018 25.274 111.429 24.8537L114.319 21.7458V24.6192ZM105.365 20.0941H105.865C106.668 20.0941 107.079 20.6805 107.079 21.2571C107.079 21.8338 106.629 22.4299 105.865 22.4299H105.365V20.0941ZM105.365 23.5637H106.021C107.648 23.5637 108.608 22.6156 108.608 21.2669C108.608 19.928 107.667 18.9506 106.031 18.9506H103.788C103.827 19.2634 103.846 20.0159 103.846 20.7294V24.2478C103.846 24.9613 103.827 25.8018 103.788 26.1243H105.404C105.375 25.8115 105.365 24.971 105.365 24.2576V23.5637ZM96.2343 18.9506C96.2637 19.3318 96.2833 20.4459 96.2833 20.876V24.2478C96.2833 24.9613 96.2539 25.8018 96.2343 26.1243H97.8605C97.8214 25.8115 97.8018 24.971 97.8018 24.2576V20.2114H100.653V24.2576C100.653 24.8928 100.643 25.7431 100.613 26.1341H102.21C102.191 25.88 102.171 25.0199 102.171 24.2673V20.7978C102.171 20.3189 102.181 19.2634 102.21 18.9604H96.2343V18.9506ZM86.7411 22.5375C86.7411 21.179 87.7404 20.0941 89.0336 20.0941C90.3268 20.0941 91.3359 21.179 91.3359 22.5375C91.3359 23.896 90.3268 24.9808 89.0336 24.9808C87.7404 24.9808 86.7411 23.896 86.7411 22.5375ZM85.203 22.5375C85.203 24.5899 86.8685 26.2611 89.0336 26.2611C91.2183 26.2611 92.874 24.5996 92.874 22.5375C92.874 20.4753 91.2183 18.8138 89.0336 18.8138C86.8685 18.8138 85.203 20.485 85.203 22.5375ZM77.9338 18.9506C77.9632 19.3318 77.9828 20.4459 77.9828 20.876V24.2478C77.9828 24.9613 77.9534 25.8018 77.9338 26.1243H79.5503C79.5209 25.8115 79.5013 24.971 79.5013 24.2576V20.2114H82.3522V24.2576C82.3522 24.8928 82.3424 25.7431 82.313 26.1341H83.9197C83.9001 25.88 83.8805 25.0199 83.8805 24.2673V20.7978C83.8805 20.3189 83.8903 19.2634 83.9197 18.9604H77.9338V18.9506ZM130.611 9.77341C130.611 8.42468 131.611 7.33006 132.904 7.33006C134.197 7.33006 135.206 8.42468 135.206 9.77341C135.206 11.1319 134.187 12.2168 132.904 12.2168C131.601 12.2265 130.611 11.1319 130.611 9.77341ZM129.073 9.77341C129.073 11.8258 130.729 13.4971 132.904 13.4971C135.088 13.4971 136.744 11.8258 136.744 9.77341C136.744 7.72099 135.088 6.04974 132.904 6.04974C130.729 6.04974 129.073 7.72099 129.073 9.77341ZM124.821 7.31051H125.243C125.821 7.31051 126.242 7.62326 126.242 8.14125C126.242 8.67879 125.84 8.96221 125.341 8.96221H124.821V7.31051ZM126.634 11.1319C126.634 11.816 126.105 12.1777 125.311 12.1777H124.812V10.0764H125.39C126.124 10.0764 126.634 10.4575 126.634 11.1319ZM123.254 13.37H125.448C127.271 13.37 128.172 12.3438 128.172 11.171C128.172 10.1937 127.506 9.56816 126.83 9.32383C127.339 9.10882 127.711 8.6006 127.711 7.92624C127.711 7.07595 127.094 6.18657 125.399 6.18657H123.264C123.293 6.49932 123.313 7.60371 123.313 8.32694V11.4935C123.313 12.2168 123.283 13.0475 123.254 13.37ZM118.003 6.19635C117.297 6.19635 116.475 6.1768 116.161 6.15725V7.47666C116.475 7.45711 117.297 7.43757 118.003 7.43757H118.473C118.493 7.8285 118.502 8.35627 118.502 8.7863V11.5033C118.502 12.2168 118.483 13.0573 118.463 13.3798H120.08C120.05 13.0573 120.031 12.2168 120.031 11.5033V8.7863C120.031 8.35627 120.031 7.8285 120.041 7.43757H120.501C121.226 7.43757 122.059 7.45711 122.372 7.47666V6.15725C122.059 6.1768 121.226 6.19635 120.501 6.19635H118.003ZM111.135 9.76363C111.135 8.44423 112.193 7.37893 113.565 7.37893C114.211 7.37893 114.819 7.57439 115.26 7.99465V6.28431C114.731 6.21589 114.368 6.04974 113.447 6.04974C111.204 6.04974 109.617 7.72099 109.617 9.76363C109.617 11.8258 111.194 13.4971 113.447 13.4971C114.339 13.4971 114.731 13.3407 115.328 13.2332V11.5815C114.878 12.0017 114.251 12.1972 113.575 12.1972C112.203 12.1874 111.135 11.1026 111.135 9.76363ZM104.904 6.19635C104.189 6.19635 103.376 6.1768 103.063 6.15725V7.47666C103.376 7.45711 104.189 7.43757 104.904 7.43757H105.375C105.394 7.8285 105.404 8.35627 105.404 8.7863V11.5033C105.404 12.2168 105.385 13.0573 105.365 13.3798H106.981C106.942 13.0573 106.923 12.2168 106.923 11.5033V8.7863C106.923 8.35627 106.923 7.8285 106.932 7.43757H107.393C108.118 7.43757 108.951 7.45711 109.264 7.47666V6.15725C108.951 6.1768 108.118 6.19635 107.393 6.19635H104.904ZM97.5177 8.07284C97.5177 7.32028 97.5275 6.47 97.547 6.19635H95.96C95.9796 6.47977 95.9991 7.33006 95.9991 8.07284V11.8551C95.9991 12.4122 95.9796 13.0866 95.96 13.3798H97.547C97.5275 13.0866 97.5177 12.4122 97.5177 11.8747V10.1937H100.574V11.8454C100.574 12.4024 100.555 13.0768 100.535 13.37H102.142C102.122 13.0768 102.093 12.4024 102.093 11.8649V8.07284C102.093 7.49621 102.122 6.64592 102.142 6.19635H100.535C100.564 6.63615 100.574 7.47666 100.574 8.07284V8.95244H97.5177V8.07284ZM92.7956 7.43757C93.5108 7.43757 94.2651 7.44734 94.5982 7.47666V6.1377C94.2651 6.15725 93.5108 6.18657 92.7956 6.18657H90.5521C90.5717 6.49932 90.5913 7.33006 90.5913 8.05329V11.4935C90.5913 11.9626 90.5717 12.7934 90.5521 13.37H92.8838C93.6087 13.37 94.3631 13.3896 94.6864 13.4189V12.0897C94.3729 12.1092 93.6087 12.119 92.8838 12.119H92.1098V10.2523H92.7172C93.4226 10.2523 94.128 10.2718 94.4512 10.2914V8.96221C94.128 8.98176 93.4324 9.00131 92.7172 9.00131H92.1098V7.43757H92.7956ZM85.301 13.37H86.9077C86.8783 13.0475 86.8587 12.2168 86.8587 11.5033V7.47666H88.1225C88.8475 7.47666 89.3177 7.48643 89.6508 7.51575V6.1377C89.3177 6.15725 88.8475 6.18657 88.1225 6.18657H85.2912C85.3108 6.49932 85.3304 7.33983 85.3304 8.06306V11.4935C85.3402 12.2168 85.3206 13.0475 85.301 13.37ZM81.4802 10.4869H79.9813L80.7357 8.68856L81.4802 10.4869ZM84.5564 13.37C84.3017 12.94 83.9882 12.3731 83.7041 11.777L81.0198 6.05952H80.5985L77.9926 11.777C77.7281 12.3829 77.444 12.9107 77.1794 13.37H78.7959C78.8841 13.0866 79.0016 12.8129 79.1486 12.4513L79.4719 11.7085H81.9799L82.313 12.4904C82.4501 12.8032 82.5873 13.1355 82.6657 13.3798L84.5564 13.37Z" fill="white"/>
<path d="M1092.28 33.6797L1095.97 35.0557L1097.4 39.6449C1097.49 39.9388 1097.85 40.0474 1098.09 39.8524L1100.14 38.1771C1100.36 38.0016 1100.66 37.9928 1100.89 38.1562L1104.59 40.8473C1104.85 41.0328 1105.21 40.8929 1105.28 40.5846L1107.99 27.5237C1108.06 27.1869 1107.73 26.9058 1107.41 27.0299L1092.28 32.8667C1091.9 33.0107 1091.91 33.5394 1092.28 33.6797ZM1097.17 34.3232L1104.37 29.8855C1104.5 29.806 1104.63 29.9811 1104.52 30.0842L1098.58 35.6117C1098.37 35.8063 1098.23 36.0666 1098.19 36.3493L1097.99 37.8504C1097.97 38.0508 1097.68 38.0707 1097.63 37.8767L1096.85 35.1394C1096.76 34.8272 1096.89 34.4937 1097.17 34.3232Z" fill="white"/>
<g clip-path="url(#clip0_303_44)">
<path d="M1155.92 37.6798C1155.9 37.6381 1155.88 37.6035 1155.86 37.5757C1155.58 37.0757 1155.05 36.4621 1154.27 35.7345L1154.25 35.7179L1154.25 35.7097L1154.24 35.7013H1154.23C1153.87 35.3625 1153.65 35.1347 1153.55 35.0181C1153.38 34.7959 1153.34 34.5711 1153.44 34.3432C1153.5 34.1711 1153.75 33.8075 1154.19 33.2521C1154.41 32.9577 1154.59 32.7217 1154.73 32.544C1155.69 31.2666 1156.11 30.4503 1155.98 30.0948L1155.93 30.0117C1155.89 29.9617 1155.81 29.916 1155.67 29.8743C1155.53 29.8326 1155.35 29.8257 1155.14 29.8535L1152.74 29.8701C1152.7 29.8563 1152.64 29.8576 1152.57 29.8743C1152.5 29.8909 1152.46 29.8993 1152.46 29.8993L1152.42 29.9202L1152.39 29.9452C1152.36 29.9618 1152.33 29.991 1152.3 30.0326C1152.26 30.0742 1152.23 30.1229 1152.21 30.1784C1151.95 30.8504 1151.65 31.4752 1151.32 32.0527C1151.12 32.3971 1150.93 32.6956 1150.75 32.9483C1150.58 33.2009 1150.44 33.3871 1150.32 33.5064C1150.2 33.6258 1150.1 33.7215 1150 33.7937C1149.91 33.866 1149.84 33.8966 1149.79 33.8854C1149.74 33.8742 1149.69 33.8632 1149.65 33.8521C1149.57 33.8021 1149.51 33.734 1149.46 33.648C1149.41 33.5619 1149.38 33.4536 1149.36 33.323C1149.35 33.1924 1149.34 33.0801 1149.33 32.9857C1149.33 32.8913 1149.33 32.7579 1149.34 32.5857C1149.34 32.4135 1149.35 32.297 1149.35 32.2359C1149.35 32.0248 1149.35 31.7957 1149.36 31.5486C1149.37 31.3014 1149.37 31.1056 1149.38 30.9614C1149.39 30.817 1149.39 30.6642 1149.39 30.5031C1149.39 30.3421 1149.38 30.2158 1149.36 30.1241C1149.34 30.0325 1149.31 29.9436 1149.27 29.8575C1149.23 29.7714 1149.18 29.7048 1149.1 29.6576C1149.03 29.6103 1148.93 29.5729 1148.82 29.545C1148.53 29.4784 1148.15 29.4424 1147.7 29.4368C1146.66 29.4257 1146 29.4924 1145.71 29.6368C1145.59 29.6978 1145.48 29.7812 1145.39 29.8866C1145.29 30.0089 1145.28 30.0756 1145.35 30.0865C1145.68 30.1365 1145.92 30.2559 1146.06 30.4447L1146.11 30.5447C1146.15 30.6169 1146.18 30.7447 1146.22 30.928C1146.26 31.1112 1146.29 31.3139 1146.3 31.5359C1146.33 31.9414 1146.33 32.2885 1146.3 32.5773C1146.27 32.8661 1146.24 33.091 1146.22 33.2521C1146.19 33.4131 1146.16 33.5437 1146.11 33.6436C1146.06 33.7436 1146.02 33.8047 1146.01 33.8268C1145.99 33.849 1145.98 33.863 1145.96 33.8685C1145.89 33.8961 1145.82 33.9102 1145.74 33.9102C1145.66 33.9102 1145.57 33.8713 1145.46 33.7935C1145.35 33.7157 1145.23 33.6089 1145.11 33.4728C1144.99 33.3367 1144.86 33.1465 1144.71 32.9021C1144.56 32.6578 1144.4 32.369 1144.24 32.0358L1144.11 31.7941C1144.02 31.6387 1143.91 31.4123 1143.77 31.1153C1143.62 30.8181 1143.49 30.5306 1143.38 30.2529C1143.34 30.1363 1143.27 30.0475 1143.18 29.9864L1143.14 29.9614C1143.11 29.9392 1143.07 29.9156 1143.01 29.8905C1142.95 29.8655 1142.88 29.8475 1142.82 29.8364L1140.53 29.853C1140.3 29.853 1140.14 29.9059 1140.06 30.0114L1140.03 30.0613C1140.01 30.0891 1140 30.1335 1140 30.1947C1140 30.2558 1140.02 30.3307 1140.05 30.4195C1140.38 31.2027 1140.75 31.9579 1141.14 32.6855C1141.53 33.413 1141.87 33.999 1142.16 34.4431C1142.45 34.8874 1142.74 35.3068 1143.04 35.701C1143.34 36.0953 1143.54 36.348 1143.64 36.4591C1143.73 36.5703 1143.81 36.6535 1143.87 36.709L1144.07 36.9089C1144.21 37.0422 1144.4 37.2019 1144.66 37.3879C1144.92 37.574 1145.21 37.7572 1145.52 37.9379C1145.83 38.1182 1146.2 38.2654 1146.61 38.3792C1147.03 38.4932 1147.44 38.5389 1147.83 38.5168H1148.79C1148.98 38.5 1149.13 38.4389 1149.23 38.3335L1149.26 38.2917C1149.29 38.2586 1149.31 38.2071 1149.33 38.1378C1149.35 38.0684 1149.36 37.9919 1149.36 37.9087C1149.35 37.67 1149.37 37.4548 1149.41 37.2632C1149.45 37.0717 1149.5 36.9273 1149.55 36.83C1149.6 36.7328 1149.66 36.6509 1149.73 36.5844C1149.8 36.5178 1149.84 36.4774 1149.87 36.4635C1149.9 36.4496 1149.92 36.4401 1149.94 36.4344C1150.07 36.39 1150.23 36.433 1150.41 36.5636C1150.59 36.6941 1150.76 36.8553 1150.92 37.0468C1151.08 37.2385 1151.27 37.4536 1151.49 37.6923C1151.71 37.9312 1151.9 38.1087 1152.07 38.2255L1152.24 38.3255C1152.35 38.3922 1152.49 38.4533 1152.67 38.5088C1152.85 38.5643 1153 38.5782 1153.14 38.5505L1155.27 38.5172C1155.48 38.5172 1155.64 38.4823 1155.76 38.413C1155.88 38.3436 1155.95 38.2671 1155.97 38.1839C1155.99 38.1006 1155.99 38.0061 1155.97 37.9005C1155.95 37.7952 1155.93 37.7215 1155.92 37.6798Z" fill="white"/>
</g>
<path d="M1196.9 30.2502H1188V40.0002H1190.48V36.8281H1195.22L1197.39 40.0002H1200.16L1197.77 36.8136C1198.51 36.6966 1199.05 36.4189 1199.37 35.9803C1199.7 35.5418 1199.86 34.8402 1199.86 33.9046V33.1738C1199.86 32.6182 1199.8 32.1797 1199.7 31.8435C1199.6 31.5073 1199.42 31.2149 1199.17 30.9518C1198.9 30.7033 1198.6 30.5279 1198.25 30.411C1197.89 30.3087 1197.45 30.2502 1196.9 30.2502ZM1196.5 34.6793H1190.48V32.399H1196.5C1196.84 32.399 1197.08 32.4575 1197.19 32.5598C1197.31 32.6621 1197.39 32.8521 1197.39 33.1299V33.9485C1197.39 34.2409 1197.31 34.4309 1197.19 34.5332C1197.08 34.6355 1196.84 34.6793 1196.5 34.6793Z" fill="white"/>
<path d="M1202.4 30.25C1203.28 30.25 1204 29.5225 1204 28.625C1204 27.7275 1203.28 27 1202.4 27C1201.52 27 1200.8 27.7275 1200.8 28.625C1200.8 29.5225 1201.52 30.25 1202.4 30.25Z" fill="white"/>
<circle cx="1292" cy="34" r="20" fill="#CA2138"/>
<circle cx="1244" cy="34" r="20" fill="#000E40"/>
<path d="M1247.28 37.2486C1247.28 37.2486 1247.19 37.2665 1247.08 37.34C1247.03 37.0025 1246.96 36.0852 1246.93 35.851C1247.04 35.7558 1247.2 35.5664 1247.31 35.4128C1247.41 35.2592 1247.72 34.2369 1247.81 33.7961C1247.86 33.8069 1247.98 33.9026 1248.11 33.8275C1248.24 33.7517 1248.34 33.4234 1248.43 33.2033C1248.5 33.0183 1248.69 32.3194 1248.73 32.0392C1248.78 31.7591 1248.87 31.3923 1248.76 31.2852C1248.69 31.2073 1248.54 31.0256 1248.2 31.189C1248.26 30.6713 1248.26 29.1038 1248.11 28.1118C1247.95 27.1198 1247.33 26.5307 1246.64 25.9055C1245.95 25.2802 1244.65 25 1244 25C1243.35 25 1242.05 25.2802 1241.36 25.9055C1240.67 26.5307 1240.05 27.1198 1239.89 28.1118C1239.74 29.1038 1239.73 30.6713 1239.8 31.189C1239.45 31.0256 1239.31 31.2079 1239.23 31.2852C1239.12 31.3923 1239.22 31.7585 1239.26 32.0392C1239.31 32.3194 1239.5 33.0188 1239.57 33.2033C1239.65 33.4234 1239.76 33.7517 1239.89 33.8275C1240.02 33.9026 1240.14 33.8069 1240.19 33.7961C1240.27 34.2369 1240.59 35.2592 1240.69 35.4128C1240.8 35.5664 1240.96 35.7558 1241.06 35.851C1241.04 36.0852 1240.97 37.0025 1240.92 37.34C1240.81 37.2665 1240.72 37.2486 1240.72 37.2486C1240.72 37.2486 1236.7 38.7778 1236 39.2364C1237.9 41.5347 1240.78 43 1244 43C1247.22 43 1250.1 41.5342 1252 39.2364C1251.3 38.7778 1247.28 37.2486 1247.28 37.2486Z" fill="white"/>
<circle opacity="0.2" cx="1196" cy="34" r="19.5" stroke="white"/>
<circle opacity="0.2" cx="1148" cy="34" r="19.5" stroke="white"/>
<circle opacity="0.2" cx="1100" cy="34" r="19.5" stroke="white"/>
<circle cx="1005" cy="34" r="19" stroke="#CA2138" stroke-width="2"/>
<path d="M1287.49 30.6431H1286.64V32.5791H1287.38C1288.28 32.5791 1288.99 32.5622 1289.53 32.5283V34.1787C1288.99 34.1449 1288.28 34.1279 1287.38 34.1279H1286.64V36.4385H1287.59C1288.68 36.4385 1289.42 36.4258 1289.81 36.4004V38.0508C1289.3 38.0169 1288.56 38 1287.59 38H1284.7C1284.74 36.9251 1284.76 36.1486 1284.76 35.6704V31.4111C1284.76 30.4463 1284.74 29.674 1284.7 29.0942H1287.49C1288.3 29.0942 1289.04 29.0731 1289.71 29.0308V30.6938C1289.35 30.66 1288.61 30.6431 1287.49 30.6431ZM1293.6 36.1274C1293.6 36.8934 1293.62 37.5176 1293.65 38H1291.76C1291.8 37.4583 1291.81 36.8299 1291.81 36.1147V31.4619C1291.81 30.8187 1291.8 29.9681 1291.76 28.9102H1292.16C1292.59 29.3714 1293.03 29.8136 1293.48 30.2368L1297.44 34.3628V31.4238C1297.44 30.4167 1297.43 29.6401 1297.4 29.0942H1299.3C1299.26 30.0464 1299.23 30.8229 1299.23 31.4238V36.1528C1299.23 36.8595 1299.26 37.5282 1299.3 38.1587H1298.91C1298.54 37.7313 1298.16 37.3271 1297.78 36.9463L1293.62 32.6553L1293.6 36.1274Z" fill="white"/>
<rect x="996" y="27" width="18" height="2" fill="white"/>
<rect x="996" y="33" width="18" height="2" fill="white"/>
<rect x="996" y="39" width="18" height="2" fill="white"/>
<defs>
<clipPath id="clip0_303_44">
<rect width="16" height="16" fill="white" transform="translate(1140 26)"/>
</clipPath>
</defs>
</svg>
