<svg width="1312" height="68" viewBox="0 0 1312 68" fill="none" xmlns="http://www.w3.org/2000/svg">
<path d="M225.274 28.718H226.366V33.814C226.366 34.1087 226.362 34.4337 226.353 34.789C226.344 35.1357 226.331 35.4607 226.314 35.764C226.297 36.0587 226.284 36.271 226.275 36.401H226.327L231.436 28.718H232.736V38H231.644V32.956C231.644 32.644 231.648 32.306 231.657 31.942C231.674 31.5693 231.692 31.2313 231.709 30.928C231.726 30.6247 231.739 30.408 231.748 30.278H231.696L226.574 38H225.274V28.718ZM242.728 38H241.558V33.671H236.8V38H235.63V28.718H236.8V32.644H241.558V28.718H242.728V38ZM245.655 28.718H248.307C249.46 28.718 250.335 28.8913 250.933 29.238C251.531 29.5847 251.83 30.1783 251.83 31.019C251.83 31.565 251.679 32.02 251.375 32.384C251.072 32.7393 250.634 32.969 250.062 33.073V33.138C250.452 33.2073 250.803 33.3243 251.115 33.489C251.436 33.6537 251.687 33.8877 251.869 34.191C252.051 34.4943 252.142 34.8843 252.142 35.361C252.142 36.2017 251.852 36.8517 251.271 37.311C250.699 37.7703 249.915 38 248.918 38H245.655V28.718ZM246.825 32.67H248.541C249.33 32.67 249.872 32.5443 250.166 32.293C250.47 32.033 250.621 31.6517 250.621 31.149C250.621 30.6377 250.439 30.2737 250.075 30.057C249.72 29.8317 249.148 29.719 248.359 29.719H246.825V32.67ZM246.825 33.645V37.012H248.697C249.521 37.012 250.093 36.8517 250.413 36.531C250.734 36.2103 250.894 35.79 250.894 35.27C250.894 34.7847 250.725 34.3947 250.387 34.1C250.058 33.7967 249.464 33.645 248.606 33.645H246.825ZM259.687 38H254.5V28.718H259.687V29.745H255.67V32.644H259.453V33.658H255.67V36.973H259.687V38ZM266.092 29.615C265.095 29.615 264.311 29.9487 263.739 30.616C263.167 31.2833 262.881 32.1977 262.881 33.359C262.881 34.5117 263.145 35.426 263.674 36.102C264.211 36.7693 265.013 37.103 266.079 37.103C266.478 37.103 266.859 37.0683 267.223 36.999C267.587 36.9297 267.947 36.843 268.302 36.739V37.753C267.955 37.883 267.596 37.9783 267.223 38.039C266.859 38.0997 266.421 38.13 265.91 38.13C264.965 38.13 264.177 37.935 263.544 37.545C262.911 37.155 262.435 36.6003 262.114 35.881C261.802 35.1617 261.646 34.3167 261.646 33.346C261.646 32.41 261.815 31.5867 262.153 30.876C262.5 30.1567 263.007 29.5977 263.674 29.199C264.341 28.7917 265.152 28.588 266.105 28.588C267.084 28.588 267.938 28.77 268.666 29.134L268.198 30.122C267.912 29.992 267.591 29.875 267.236 29.771C266.889 29.667 266.508 29.615 266.092 29.615ZM273.656 38H272.486V29.745H269.587V28.718H276.542V29.745H273.656V38ZM286.177 33.346C286.177 34.308 286.012 35.1487 285.683 35.868C285.362 36.5787 284.881 37.1333 284.24 37.532C283.607 37.9307 282.827 38.13 281.9 38.13C280.938 38.13 280.136 37.9307 279.495 37.532C278.862 37.1333 278.39 36.5743 278.078 35.855C277.766 35.1357 277.61 34.295 277.61 33.333C277.61 32.3883 277.766 31.5607 278.078 30.85C278.39 30.1307 278.862 29.5717 279.495 29.173C280.136 28.7743 280.942 28.575 281.913 28.575C282.84 28.575 283.62 28.7743 284.253 29.173C284.885 29.563 285.362 30.1177 285.683 30.837C286.012 31.5477 286.177 32.384 286.177 33.346ZM278.845 33.346C278.845 34.516 279.092 35.439 279.586 36.115C280.08 36.7823 280.851 37.116 281.9 37.116C282.948 37.116 283.715 36.7823 284.201 36.115C284.695 35.439 284.942 34.516 284.942 33.346C284.942 32.176 284.699 31.2617 284.214 30.603C283.728 29.9357 282.961 29.602 281.913 29.602C280.855 29.602 280.08 29.9357 279.586 30.603C279.092 31.2617 278.845 32.176 278.845 33.346ZM291.081 28.718C292.294 28.718 293.178 28.9563 293.733 29.433C294.287 29.9097 294.565 30.5813 294.565 31.448C294.565 31.9593 294.448 32.4403 294.214 32.891C293.988 33.333 293.603 33.6927 293.057 33.97C292.519 34.2473 291.787 34.386 290.86 34.386H289.794V38H288.624V28.718H291.081ZM290.977 29.719H289.794V33.385H290.73C291.614 33.385 292.272 33.242 292.706 32.956C293.139 32.67 293.356 32.1847 293.356 31.5C293.356 30.902 293.161 30.4557 292.771 30.161C292.389 29.8663 291.791 29.719 290.977 29.719ZM303.736 28.718L300.772 35.361C300.495 35.9763 300.213 36.492 299.927 36.908C299.65 37.3153 299.32 37.623 298.939 37.831C298.558 38.0303 298.072 38.13 297.483 38.13C297.24 38.13 297.011 38.1127 296.794 38.078C296.586 38.0433 296.395 37.9957 296.222 37.935V36.778C296.395 36.856 296.582 36.921 296.781 36.973C296.98 37.0163 297.188 37.038 297.405 37.038C297.882 37.038 298.263 36.934 298.549 36.726C298.835 36.518 299.099 36.1497 299.342 35.621L295.767 28.718H297.054L299.641 33.827C299.684 33.9223 299.736 34.035 299.797 34.165C299.858 34.295 299.91 34.4207 299.953 34.542H300.005C300.04 34.4553 300.079 34.3427 300.122 34.204C300.174 34.0653 300.222 33.9527 300.265 33.866L302.501 28.718H303.736Z" fill="white"/>
<path d="M341.36 33.346C341.36 34.308 341.195 35.1487 340.866 35.868C340.545 36.5787 340.064 37.1333 339.423 37.532C338.79 37.9307 338.01 38.13 337.083 38.13C336.121 38.13 335.319 37.9307 334.678 37.532C334.045 37.1333 333.573 36.5743 333.261 35.855C332.949 35.1357 332.793 34.295 332.793 33.333C332.793 32.3883 332.949 31.5607 333.261 30.85C333.573 30.1307 334.045 29.5717 334.678 29.173C335.319 28.7743 336.125 28.575 337.096 28.575C338.023 28.575 338.803 28.7743 339.436 29.173C340.069 29.563 340.545 30.1177 340.866 30.837C341.195 31.5477 341.36 32.384 341.36 33.346ZM334.028 33.346C334.028 34.516 334.275 35.439 334.769 36.115C335.263 36.7823 336.034 37.116 337.083 37.116C338.132 37.116 338.899 36.7823 339.384 36.115C339.878 35.439 340.125 34.516 340.125 33.346C340.125 32.176 339.882 31.2617 339.397 30.603C338.912 29.9357 338.145 29.602 337.096 29.602C336.039 29.602 335.263 29.9357 334.769 30.603C334.275 31.2617 334.028 32.176 334.028 33.346ZM349.282 28.718C350.496 28.718 351.38 28.9563 351.934 29.433C352.489 29.9097 352.766 30.5813 352.766 31.448C352.766 31.9593 352.649 32.4403 352.415 32.891C352.19 33.333 351.804 33.6927 351.258 33.97C350.721 34.2473 349.989 34.386 349.061 34.386H347.995V38H346.825V28.718H349.282ZM349.178 29.719H347.995V33.385H348.931C349.815 33.385 350.474 33.242 350.907 32.956C351.341 32.67 351.557 32.1847 351.557 31.5C351.557 30.902 351.362 30.4557 350.972 30.161C350.591 29.8663 349.993 29.719 349.178 29.719ZM360.273 38H355.086V28.718H360.273V29.745H356.256V32.644H360.039V33.658H356.256V36.973H360.273V38ZM367.939 28.718V29.758H363.87V38H362.7V28.718H367.939ZM369.92 28.718H371.012V33.814C371.012 34.1087 371.008 34.4337 370.999 34.789C370.991 35.1357 370.978 35.4607 370.96 35.764C370.943 36.0587 370.93 36.271 370.921 36.401H370.973L376.082 28.718H377.382V38H376.29V32.956C376.29 32.644 376.295 32.306 376.303 31.942C376.321 31.5693 376.338 31.2313 376.355 30.928C376.373 30.6247 376.386 30.408 376.394 30.278H376.342L371.22 38H369.92V28.718ZM388.375 33.346C388.375 34.308 388.21 35.1487 387.881 35.868C387.56 36.5787 387.079 37.1333 386.438 37.532C385.805 37.9307 385.025 38.13 384.098 38.13C383.136 38.13 382.334 37.9307 381.693 37.532C381.06 37.1333 380.588 36.5743 380.276 35.855C379.964 35.1357 379.808 34.295 379.808 33.333C379.808 32.3883 379.964 31.5607 380.276 30.85C380.588 30.1307 381.06 29.5717 381.693 29.173C382.334 28.7743 383.14 28.575 384.111 28.575C385.038 28.575 385.818 28.7743 386.451 29.173C387.083 29.563 387.56 30.1177 387.881 30.837C388.21 31.5477 388.375 32.384 388.375 33.346ZM381.043 33.346C381.043 34.516 381.29 35.439 381.784 36.115C382.278 36.7823 383.049 37.116 384.098 37.116C385.146 37.116 385.913 36.7823 386.399 36.115C386.893 35.439 387.14 34.516 387.14 33.346C387.14 32.176 386.897 31.2617 386.412 30.603C385.926 29.9357 385.159 29.602 384.111 29.602C383.053 29.602 382.278 29.9357 381.784 30.603C381.29 31.2617 381.043 32.176 381.043 33.346ZM397.92 38H396.75V33.671H391.992V38H390.822V28.718H391.992V32.644H396.75V28.718H397.92V38ZM406.035 38H400.848V28.718H406.035V29.745H402.018V32.644H405.801V33.658H402.018V36.973H406.035V38Z" fill="white"/>
<path d="M444.36 33.346C444.36 34.308 444.195 35.1487 443.866 35.868C443.545 36.5787 443.064 37.1333 442.423 37.532C441.79 37.9307 441.01 38.13 440.083 38.13C439.121 38.13 438.319 37.9307 437.678 37.532C437.045 37.1333 436.573 36.5743 436.261 35.855C435.949 35.1357 435.793 34.295 435.793 33.333C435.793 32.3883 435.949 31.5607 436.261 30.85C436.573 30.1307 437.045 29.5717 437.678 29.173C438.319 28.7743 439.125 28.575 440.096 28.575C441.023 28.575 441.803 28.7743 442.436 29.173C443.069 29.563 443.545 30.1177 443.866 30.837C444.195 31.5477 444.36 32.384 444.36 33.346ZM437.028 33.346C437.028 34.516 437.275 35.439 437.769 36.115C438.263 36.7823 439.034 37.116 440.083 37.116C441.132 37.116 441.899 36.7823 442.384 36.115C442.878 35.439 443.125 34.516 443.125 33.346C443.125 32.176 442.882 31.2617 442.397 30.603C441.912 29.9357 441.145 29.602 440.096 29.602C439.039 29.602 438.263 29.9357 437.769 30.603C437.275 31.2617 437.028 32.176 437.028 33.346ZM446.807 38V28.718H452.319V29.745H447.977V32.644H449.355C450.283 32.644 451.002 32.761 451.513 32.995C452.025 33.2203 452.38 33.5323 452.579 33.931C452.779 34.321 452.878 34.7717 452.878 35.283C452.878 36.1323 452.623 36.7997 452.111 37.285C451.6 37.7617 450.738 38 449.524 38H446.807ZM447.977 36.999H449.407C450.239 36.999 450.824 36.8603 451.162 36.583C451.5 36.297 451.669 35.8637 451.669 35.283C451.669 34.685 451.483 34.2647 451.11 34.022C450.738 33.7793 450.105 33.658 449.212 33.658H447.977V36.999ZM464.037 38L462.919 35.127H459.24L458.135 38H456.952L460.579 28.679H461.632L465.246 38H464.037ZM462.568 34.087L461.528 31.279C461.502 31.2097 461.459 31.084 461.398 30.902C461.338 30.72 461.277 30.5337 461.216 30.343C461.164 30.1437 461.121 29.992 461.086 29.888C461.017 30.1567 460.943 30.421 460.865 30.681C460.796 30.9323 460.735 31.1317 460.683 31.279L459.63 34.087H462.568ZM472.145 28.718V29.758H468.076V38H466.906V28.718H472.145ZM479.3 38H474.113V28.718H479.3V29.745H475.283V32.644H479.066V33.658H475.283V36.973H479.3V38ZM488.825 38H487.655V33.671H482.897V38H481.727V28.718H482.897V32.644H487.655V28.718H488.825V38ZM494.691 38H493.521V29.745H490.622V28.718H497.577V29.745H494.691V38ZM503.09 29.615C502.094 29.615 501.309 29.9487 500.737 30.616C500.165 31.2833 499.879 32.1977 499.879 33.359C499.879 34.5117 500.144 35.426 500.672 36.102C501.21 36.7693 502.011 37.103 503.077 37.103C503.476 37.103 503.857 37.0683 504.221 36.999C504.585 36.9297 504.945 36.843 505.3 36.739V37.753C504.954 37.883 504.594 37.9783 504.221 38.039C503.857 38.0997 503.42 38.13 502.908 38.13C501.964 38.13 501.175 37.935 500.542 37.545C499.91 37.155 499.433 36.6003 499.112 35.881C498.8 35.1617 498.644 34.3167 498.644 33.346C498.644 32.41 498.813 31.5867 499.151 30.876C499.498 30.1567 500.005 29.5977 500.672 29.199C501.34 28.7917 502.15 28.588 503.103 28.588C504.083 28.588 504.936 28.77 505.664 29.134L505.196 30.122C504.91 29.992 504.59 29.875 504.234 29.771C503.888 29.667 503.506 29.615 503.09 29.615ZM510.654 38H509.484V29.745H506.585V28.718H513.54V29.745H510.654V38ZM515.33 28.718H517.982C519.135 28.718 520.01 28.8913 520.608 29.238C521.206 29.5847 521.505 30.1783 521.505 31.019C521.505 31.565 521.353 32.02 521.05 32.384C520.747 32.7393 520.309 32.969 519.737 33.073V33.138C520.127 33.2073 520.478 33.3243 520.79 33.489C521.111 33.6537 521.362 33.8877 521.544 34.191C521.726 34.4943 521.817 34.8843 521.817 35.361C521.817 36.2017 521.527 36.8517 520.946 37.311C520.374 37.7703 519.59 38 518.593 38H515.33V28.718ZM516.5 32.67H518.216C519.005 32.67 519.546 32.5443 519.841 32.293C520.144 32.033 520.296 31.6517 520.296 31.149C520.296 30.6377 520.114 30.2737 519.75 30.057C519.395 29.8317 518.823 29.719 518.034 29.719H516.5V32.67ZM516.5 33.645V37.012H518.372C519.195 37.012 519.767 36.8517 520.088 36.531C520.409 36.2103 520.569 35.79 520.569 35.27C520.569 34.7847 520.4 34.3947 520.062 34.1C519.733 33.7967 519.139 33.645 518.281 33.645H516.5ZM529.362 38H524.175V28.718H529.362V29.745H525.345V32.644H529.128V33.658H525.345V36.973H529.362V38Z" fill="white"/>
<path d="M567.034 38H565.63L561.431 33.294V38H560.261V28.718H561.431V33.216L565.526 28.718H566.852L562.822 33.229L567.034 38ZM576.532 33.346C576.532 34.308 576.368 35.1487 576.038 35.868C575.718 36.5787 575.237 37.1333 574.595 37.532C573.963 37.9307 573.183 38.13 572.255 38.13C571.293 38.13 570.492 37.9307 569.85 37.532C569.218 37.1333 568.745 36.5743 568.433 35.855C568.121 35.1357 567.965 34.295 567.965 33.333C567.965 32.3883 568.121 31.5607 568.433 30.85C568.745 30.1307 569.218 29.5717 569.85 29.173C570.492 28.7743 571.298 28.575 572.268 28.575C573.196 28.575 573.976 28.7743 574.608 29.173C575.241 29.563 575.718 30.1177 576.038 30.837C576.368 31.5477 576.532 32.384 576.532 33.346ZM569.2 33.346C569.2 34.516 569.447 35.439 569.941 36.115C570.435 36.7823 571.207 37.116 572.255 37.116C573.304 37.116 574.071 36.7823 574.556 36.115C575.05 35.439 575.297 34.516 575.297 33.346C575.297 32.176 575.055 31.2617 574.569 30.603C574.084 29.9357 573.317 29.602 572.268 29.602C571.211 29.602 570.435 29.9357 569.941 30.603C569.447 31.2617 569.2 32.176 569.2 33.346ZM586.077 38H584.907V33.671H580.149V38H578.979V28.718H580.149V32.644H584.907V28.718H586.077V38ZM591.943 38H590.773V29.745H587.874V28.718H594.829V29.745H591.943V38ZM601.529 38L600.411 35.127H596.732L595.627 38H594.444L598.071 28.679H599.124L602.738 38H601.529ZM600.06 34.087L599.02 31.279C598.994 31.2097 598.95 31.084 598.89 30.902C598.829 30.72 598.768 30.5337 598.708 30.343C598.656 30.1437 598.612 29.992 598.578 29.888C598.508 30.1567 598.435 30.421 598.357 30.681C598.287 30.9323 598.227 31.1317 598.175 31.279L597.122 34.087H600.06ZM611.171 38H609.767L605.568 33.294V38H604.398V28.718H605.568V33.216L609.663 28.718H610.989L606.959 33.229L611.171 38ZM615.762 38H614.592V29.745H611.693V28.718H618.648V29.745H615.762V38ZM620.437 38V28.718H621.607V32.644H623.037C623.895 32.644 624.576 32.761 625.078 32.995C625.581 33.229 625.936 33.5453 626.144 33.944C626.361 34.3427 626.469 34.789 626.469 35.283C626.469 36.1063 626.205 36.765 625.676 37.259C625.156 37.753 624.324 38 623.18 38H620.437ZM627.899 38V28.718H629.069V38H627.899ZM621.607 37.012H623.076C623.822 37.012 624.372 36.869 624.727 36.583C625.083 36.297 625.26 35.8637 625.26 35.283C625.26 34.685 625.065 34.269 624.675 34.035C624.294 33.7923 623.705 33.671 622.907 33.671H621.607V37.012Z" fill="white"/>
<path fill-rule="evenodd" clip-rule="evenodd" d="M55.5774 28.5383L59.163 32.477V67.9739L55.5774 64.045V28.5383ZM48.847 21.1594L52.2759 24.9221V60.4191L48.847 56.6661V21.1594ZM41.901 13.5361L45.5552 17.5432V53.0402L41.901 49.0331V13.5361ZM31.5654 25.5672L34.9061 21.8142V5.84449L38.6093 9.91022V45.4072L34.9061 41.3512V29.6818L31.5654 25.5672ZM27.5585 30.493L29.5864 28.1865L31.6144 30.493V37.7253L29.5766 35.5067L27.5585 37.7253V30.493ZM27.5585 2.22833L29.5864 0L31.6144 2.22833V20.6414L29.5766 22.9577L27.5585 20.6414V2.22833ZM20.5537 9.91022L24.2569 5.84449V21.8044L27.3136 25.5672L24.2569 29.6818V41.3414L20.5537 45.417V9.91022ZM13.8625 17.25L17.2522 13.5361V49.0331L13.8625 52.747V17.25ZM7.05372 24.7267L10.561 20.876V56.3729L7.05372 60.2236V24.7267ZM0 67.9642V32.477L3.76198 28.3526V63.8496L0 67.9642Z" fill="#CA2138"/>
<path fill-rule="evenodd" clip-rule="evenodd" d="M55.5774 28.5383L59.163 32.477V67.9739L55.5774 64.045V28.5383ZM48.847 21.1594L52.2759 24.9221V60.4191L48.847 56.6661V21.1594ZM41.901 13.5361L45.5552 17.5432V53.0402L41.901 49.0331V13.5361ZM31.5654 25.5672L34.9061 21.8142V5.84449L38.6093 9.91022V45.4072L34.9061 41.3512V29.6818L31.5654 25.5672ZM27.5585 30.493L29.5864 28.1865L31.6144 30.493V37.7253L29.5766 35.5067L27.5585 37.7253V30.493ZM27.5585 2.22833L29.5864 0L31.6144 2.22833V20.6414L29.5766 22.9577L27.5585 20.6414V2.22833ZM20.5537 9.91022L24.2569 5.84449V21.8044L27.3136 25.5672L24.2569 29.6818V41.3414L20.5537 45.417V9.91022ZM13.8625 17.25L17.2522 13.5361V49.0331L13.8625 52.747V17.25ZM7.05372 24.7267L10.561 20.876V56.3729L7.05372 60.2236V24.7267ZM0 67.9642V32.477L3.76198 28.3526V63.8496L0 67.9642Z" fill="black" fill-opacity="0.2"/>
<path d="M100.888 60.5755H100.251C99.6046 60.5755 99.1344 60.077 99.1344 59.4613C99.1344 58.9238 99.5165 58.4156 100.271 58.4156H100.888V60.5755ZM100.888 62.5497C100.888 63.2632 100.868 64.0744 100.839 64.4067H102.456C102.426 64.0744 102.407 63.2632 102.407 62.5497V59.0997C102.407 58.3862 102.426 57.536 102.456 57.2134H100.3C98.527 57.2134 97.6061 58.1615 97.6061 59.4613C97.6061 60.6439 98.2037 61.1717 98.8307 61.4453C98.1155 62.4422 97.5571 63.5955 96.8223 64.4067H98.5662C99.0266 63.7812 99.683 62.3836 100.202 61.6506C100.33 61.6603 100.428 61.6603 100.526 61.6603H100.888V62.5497ZM93.5208 61.5137H92.0219L92.7762 59.7154L93.5208 61.5137ZM96.597 64.4067C96.3423 63.9766 96.0288 63.4098 95.7447 62.8038L93.0603 57.0962H92.6391L90.0331 62.8038C89.7686 63.4098 89.4845 63.9375 89.22 64.4067H90.8267C90.9246 64.1232 91.0324 63.8496 91.1891 63.4782L91.5124 62.7354H94.0204L94.3535 63.5075C94.4907 63.8203 94.6278 64.1525 94.7062 64.4067H96.597ZM86.3887 58.3667H86.8883C87.6917 58.3667 88.1129 58.9531 88.1129 59.5297C88.1129 60.0966 87.6623 60.6928 86.8883 60.6928H86.3887V58.3667ZM86.3887 61.8363H87.0549C88.6812 61.8363 89.6315 60.8882 89.6315 59.5395C89.6315 58.2006 88.691 57.2232 87.0647 57.2232H84.8212C84.8506 57.5457 84.8702 58.2983 84.8702 59.0117V62.5399C84.8702 63.2534 84.8506 64.0841 84.8212 64.4164H86.4377C86.4083 64.0841 86.3985 63.2436 86.3985 62.5399V61.8363H86.3887ZM77.9634 62.5302C77.9634 63.2436 77.9438 64.0744 77.9242 64.4067H79.5211C79.5015 64.0744 79.4819 63.2339 79.4819 62.5302V61.2792H79.9228C81.0788 62.755 81.5295 63.5271 82.0291 64.4067H84.1256C83.3419 63.5173 82.7247 62.3933 81.3139 60.6244C82.4994 59.2072 83.2831 57.8976 83.8905 57.2134H82.0487C81.5981 57.9953 81.0298 58.9629 80.0502 60.1748H79.4917V59.0997C79.4917 58.3862 79.5113 57.536 79.5309 57.2232H77.934C77.9536 57.5457 77.9732 58.396 77.9732 59.0997L77.9634 62.5302ZM169.867 48.046C169.867 46.6875 170.867 45.6027 172.15 45.6027C173.434 45.6027 174.452 46.6875 174.452 48.046C174.452 49.4045 173.434 50.4893 172.15 50.4893C170.867 50.4893 169.867 49.4045 169.867 48.046ZM168.32 48.046C168.32 50.0984 169.985 51.7697 172.15 51.7697C174.345 51.7697 176 50.1082 176 48.046C176 45.9838 174.345 44.3223 172.15 44.3223C169.985 44.3223 168.32 45.9936 168.32 48.046ZM163.588 51.6426H165.204C165.185 51.3201 165.165 50.4796 165.165 49.7661V45.7493H166.429C167.144 45.7493 167.634 45.759 167.957 45.7883V44.4103C167.634 44.4298 167.144 44.4689 166.429 44.4689H163.588C163.617 44.7817 163.637 45.6222 163.637 46.3357V49.7759C163.637 50.4796 163.617 51.3201 163.588 51.6426ZM156.201 48.046C156.201 46.6875 157.21 45.6027 158.493 45.6027C159.777 45.6027 160.786 46.6875 160.786 48.046C160.786 49.4045 159.777 50.4893 158.493 50.4893C157.21 50.4893 156.201 49.4045 156.201 48.046ZM154.673 48.046C154.673 50.0984 156.338 51.7697 158.503 51.7697C160.698 51.7697 162.344 50.1082 162.344 48.046C162.344 45.9838 160.688 44.3223 158.493 44.3223C156.338 44.3223 154.673 45.9936 154.673 48.046ZM148.452 49.7759C148.452 50.4893 148.432 51.3299 148.412 51.6524H150.009C149.99 51.3201 149.97 50.4796 149.97 49.7759V48.5249H150.401C151.557 50.0007 152.018 50.7826 152.517 51.6524H154.614C153.83 50.7728 153.213 49.6488 151.792 47.8799C152.988 46.4627 153.771 45.1531 154.379 44.4689H152.537C152.076 45.2508 151.518 46.2184 150.538 47.4205H149.97V46.3357C149.97 45.6222 149.99 44.7719 150.009 44.4689H148.412C148.432 44.7817 148.452 45.632 148.452 46.3357V49.7759ZM142.995 48.0362C142.995 46.7168 144.053 45.6417 145.424 45.6417C146.071 45.6417 146.669 45.847 147.109 46.2575V44.5569C146.58 44.4983 146.218 44.3321 145.307 44.3321C143.063 44.3321 141.476 45.9936 141.476 48.046C141.476 50.1082 143.063 51.7794 145.307 51.7794C146.198 51.7794 146.58 51.6231 147.188 51.5156V49.8541C146.737 50.2743 146.11 50.46 145.434 50.46C144.063 50.46 142.995 49.3752 142.995 48.0362ZM137.283 45.6027H137.793C138.586 45.6027 139.007 46.1891 139.007 46.7657C139.007 47.3326 138.557 47.9287 137.793 47.9287H137.283V45.6027ZM137.283 49.0722H137.959C139.576 49.0722 140.526 48.134 140.526 46.7755C140.526 45.4365 139.595 44.4592 137.969 44.4592H135.716C135.755 44.7719 135.775 45.5245 135.775 46.2379V49.7661C135.775 50.4796 135.755 51.3201 135.716 51.6426H137.322C137.293 51.3201 137.283 50.4796 137.283 49.7661V49.0722ZM131.895 48.7497H130.406L131.15 46.9514L131.895 48.7497ZM134.971 51.6426C134.726 51.2126 134.403 50.6457 134.119 50.0398L131.444 44.3321H131.023L128.417 50.0495C128.153 50.6653 127.859 51.1833 127.604 51.6524H129.211C129.309 51.369 129.416 51.0953 129.563 50.7239L129.887 49.9811H132.395L132.718 50.763C132.855 51.0758 132.992 51.4178 133.071 51.6524H134.971V51.6426ZM124.528 50.3916H121.775L123.166 46.8634L124.528 50.3916ZM127.124 50.3721C126.918 50.3916 126.595 50.3916 126.183 50.3916C126.007 50.0495 125.831 49.6782 125.664 49.3068L123.44 44.2246H122.98L120.736 49.3068C120.531 49.7466 120.393 50.0593 120.217 50.3916C119.894 50.3916 119.522 50.3916 119.316 50.3721L119.522 53.8123H120.854L120.834 51.6524H125.605L125.527 53.8123H126.84L127.124 50.3721ZM112.811 48.046C112.811 46.6875 113.81 45.6027 115.093 45.6027C116.377 45.6027 117.396 46.6875 117.396 48.046C117.396 49.4045 116.377 50.4893 115.093 50.4893C113.81 50.4893 112.811 49.4045 112.811 48.046ZM111.273 48.046C111.273 50.0984 112.938 51.7697 115.103 51.7697C117.288 51.7697 118.944 50.1082 118.944 48.046C118.944 45.9838 117.278 44.3223 115.103 44.3223C112.938 44.3223 111.273 45.9936 111.273 48.046ZM105.365 46.3357C105.365 45.5929 105.375 44.7426 105.395 44.4689H103.807C103.827 44.7524 103.847 45.6027 103.847 46.3357V50.1277C103.847 50.6848 103.827 51.3494 103.807 51.6524H105.395C105.375 51.3592 105.365 50.6848 105.365 50.1375V48.476H108.422V50.1277C108.422 50.6848 108.402 51.3494 108.383 51.6524H109.989C109.97 51.3592 109.93 50.6848 109.93 50.1375V46.3357C109.93 45.759 109.97 44.9185 109.989 44.4689H108.383C108.412 44.9087 108.422 45.7395 108.422 46.3357V47.225H105.365V46.3357ZM98.3604 48.0362C98.3604 46.7168 99.4185 45.6417 100.79 45.6417C101.437 45.6417 102.044 45.847 102.485 46.2575V44.5569C101.956 44.4983 101.593 44.3321 100.682 44.3321C98.4388 44.3321 96.8517 45.9936 96.8517 48.046C96.8517 50.1082 98.4388 51.7794 100.682 51.7794C101.574 51.7794 101.956 51.6231 102.563 51.5156V49.8541C102.113 50.2743 101.486 50.46 100.8 50.46C99.4185 50.46 98.3604 49.3752 98.3604 48.0362ZM93.5208 48.7497H92.0219L92.7762 46.9514L93.5208 48.7497ZM96.597 51.6426C96.3423 51.2126 96.0288 50.6457 95.7447 50.0398L93.0603 44.3321H92.6391L90.0331 50.0398C89.7686 50.6555 89.4845 51.1735 89.22 51.6426H90.8267C90.9246 51.3592 91.0324 51.0855 91.1891 50.7141L91.5124 49.9714H94.0204L94.3535 50.7532C94.4907 51.066 94.6278 51.4081 94.7062 51.6426H96.597ZM86.3887 45.6027H86.8883C87.6917 45.6027 88.1129 46.1891 88.1129 46.7657C88.1129 47.3326 87.6623 47.9287 86.8883 47.9287H86.3887V45.6027ZM86.3887 49.0722H87.0549C88.6812 49.0722 89.6315 48.134 89.6315 46.7755C89.6315 45.4365 88.691 44.4592 87.0647 44.4592H84.8212C84.8506 44.7719 84.8702 45.5245 84.8702 46.2379V49.7661C84.8702 50.4796 84.8506 51.3201 84.8212 51.6426H86.4377C86.3985 51.3201 86.3887 50.4796 86.3887 49.7759V49.0722ZM77.9634 49.7759C77.9634 50.4893 77.9438 51.3299 77.9242 51.6524H79.5211C79.5015 51.3299 79.4819 50.4893 79.4819 49.7759V48.5249H79.9228C81.0788 50.0007 81.5295 50.7826 82.0291 51.6524H84.1256C83.3419 50.7728 82.7247 49.6488 81.3139 47.8799C82.4994 46.4627 83.2831 45.1531 83.8905 44.4689H82.0487C81.5981 45.2508 81.0298 46.2184 80.0502 47.4205H79.4917V46.3357C79.4917 45.6222 79.5113 44.7719 79.5309 44.4689H77.934C77.9536 44.7817 77.9732 45.632 77.9732 46.3357L77.9634 49.7759ZM143.72 29.9359H142.554C142.583 30.796 143.298 31.4215 144.523 31.4215C145.757 31.4215 146.482 30.796 146.512 29.9359H145.336C145.317 30.3073 144.993 30.581 144.523 30.581C144.053 30.581 143.739 30.2975 143.72 29.9359ZM145.836 37.3832C145.836 37.9305 145.816 38.5951 145.797 38.8883H147.384C147.364 38.5951 147.345 37.9208 147.345 37.3735V33.6107C147.345 32.9852 147.364 32.1056 147.384 31.5387H147.002C146.531 32.0665 146.277 32.3499 145.806 32.8191L142.789 36.015V33.5814C142.789 32.9754 142.809 32.1447 142.838 31.7049H141.222C141.251 32.1642 141.28 33.0048 141.28 33.5814V37.4028C141.28 37.8426 141.271 38.4388 141.222 39.0447H141.604C142.035 38.5463 142.525 38.0283 142.936 37.5982L145.836 34.5001V37.3832ZM138.126 37.3832C138.126 37.9305 138.106 38.5951 138.087 38.8883H139.683C139.654 38.5951 139.634 37.9208 139.634 37.3735V33.6107C139.634 32.9852 139.654 32.1056 139.683 31.5387H139.292C138.831 32.0665 138.567 32.3499 138.096 32.8191L135.079 36.015V33.5814C135.079 32.9754 135.099 32.1447 135.138 31.7049H133.521C133.541 32.1642 133.57 33.0048 133.57 33.5814V37.4028C133.57 37.8426 133.56 38.4388 133.521 39.0447H133.903C134.334 38.5463 134.834 38.0283 135.245 37.5982L138.136 34.5001L138.126 37.3832ZM132.493 37.6178H131.64V37.0509V33.5716C131.64 32.8093 131.66 31.9492 131.689 31.7049H130.073C130.102 32.0861 130.122 32.9559 130.122 33.6009V37.6569H127.437V33.5912C127.437 32.8777 127.467 32.0274 127.496 31.7049H125.88C125.899 32.0274 125.929 32.8777 125.929 33.5912V36.963C125.929 37.4028 125.909 38.5072 125.88 38.8883H130.984L130.925 41.0483H132.218L132.493 37.6178ZM122.784 37.3832C122.784 37.9305 122.764 38.5951 122.745 38.8883H124.332C124.312 38.5951 124.293 37.9208 124.293 37.3735V33.6107C124.293 32.9852 124.312 32.1056 124.332 31.5387H123.94C123.479 32.0665 123.225 32.3499 122.755 32.8191L119.727 36.015V33.5814C119.727 32.9754 119.757 32.1447 119.786 31.7049H118.17C118.199 32.1642 118.228 33.0048 118.228 33.5814V37.4028C118.228 37.8426 118.219 38.4388 118.17 39.0447H118.552C118.983 38.5463 119.473 38.0283 119.884 37.5982L122.784 34.5001V37.3832ZM112.948 31.7049C112.233 31.7049 111.41 31.6853 111.106 31.6658V32.995C111.41 32.9754 112.233 32.9461 112.948 32.9461H113.408C113.428 33.3371 113.438 33.8648 113.438 34.2948V37.0118C113.438 37.7253 113.418 38.5658 113.399 38.8883H115.015C114.986 38.556 114.966 37.7253 114.966 37.0118V34.2948C114.966 33.8648 114.966 33.3371 114.976 32.9461H115.446C116.161 32.9461 116.994 32.9657 117.307 32.995V31.6658C116.994 31.6853 116.161 31.7049 115.446 31.7049H112.948ZM106.08 35.282C106.08 33.9625 107.138 32.8972 108.51 32.8972C109.157 32.8972 109.764 33.0927 110.205 33.513V31.8026C109.676 31.7342 109.303 31.5681 108.392 31.5681C106.149 31.5681 104.562 33.2393 104.562 35.282C104.562 37.3441 106.149 39.0154 108.392 39.0154C109.284 39.0154 109.676 38.859 110.283 38.7613V37.09C109.823 37.5103 109.206 37.7058 108.52 37.7058C107.138 37.7058 106.08 36.6111 106.08 35.282ZM101.711 32.9461C102.426 32.9461 103.18 32.9559 103.514 32.995V31.656C103.19 31.6756 102.436 31.7049 101.711 31.7049H99.4675C99.4871 32.0274 99.5067 32.8484 99.5067 33.5716V37.0118C99.5067 37.481 99.4871 38.3117 99.4675 38.8883H101.799C102.524 38.8883 103.278 38.9079 103.602 38.9274V37.5982C103.288 37.6178 102.534 37.6373 101.799 37.6373H101.035V35.7609H101.633C102.348 35.7609 103.043 35.7804 103.376 35.7999V34.4708C103.043 34.4903 102.358 34.5196 101.633 34.5196H101.035V32.9461H101.711ZM94.9609 32.8288H95.3822C95.9602 32.8288 96.3815 33.1514 96.3815 33.6596C96.3815 34.1971 95.9798 34.4805 95.4802 34.4805H94.9609V32.8288ZM96.7831 36.6405C96.7831 37.3246 96.2541 37.6862 95.4704 37.6862H94.9609V35.5849H95.5389C96.2737 35.5849 96.7831 35.9661 96.7831 36.6405ZM93.3934 38.8883H95.5879C97.4003 38.8883 98.3114 37.8621 98.3114 36.6796C98.3114 35.7022 97.6453 35.0767 96.9693 34.8324C97.4787 34.6174 97.851 34.1092 97.851 33.4348C97.851 32.5845 97.224 31.6951 95.5389 31.6951H93.4032C93.4326 32.0176 93.4424 33.1123 93.4424 33.8355V37.0021C93.4522 37.7253 93.4228 38.5658 93.3934 38.8883ZM87.2116 33.5814C87.2116 32.8386 87.2214 31.9786 87.241 31.7049H85.6539C85.6735 31.9883 85.6931 32.8386 85.6931 33.5814V37.3735C85.6931 37.9305 85.6735 38.5951 85.6539 38.8883H87.241C87.2214 38.5951 87.2116 37.9208 87.2116 37.3832V35.712H90.2682V37.3735C90.2682 37.9305 90.2487 38.5951 90.2291 38.8883H91.8357C91.8063 38.5951 91.777 37.9305 91.777 37.3832V33.5814C91.777 33.0048 91.8063 32.1642 91.8357 31.7049H90.2291C90.2585 32.1447 90.2682 32.9852 90.2682 33.5814V34.461H87.2116V33.5814ZM82.519 37.3832C82.519 37.9305 82.5092 38.5951 82.4896 38.8883H84.0766C84.0571 38.5951 84.0375 37.9208 84.0375 37.3735V33.6107C84.0375 32.9852 84.0571 32.1056 84.0766 31.5387H83.6946C83.2341 32.0665 82.9696 32.3499 82.4994 32.8191L79.4819 36.015V33.5814C79.4819 32.9754 79.5015 32.1447 79.5407 31.7049H77.9144C77.934 32.1642 77.9634 33.0048 77.9634 33.5814V37.4028C77.9634 37.8426 77.9536 38.4388 77.9144 39.0447H78.2965C78.7276 38.5463 79.2174 38.0283 79.6289 37.5982L82.519 34.5001V37.3832ZM168.055 22.5375C168.055 21.218 168.849 20.143 170.034 20.143C171.249 20.143 172.033 21.218 172.033 22.5375C172.033 23.8569 171.249 24.9319 170.034 24.9319C168.849 24.9319 168.055 23.8569 168.055 22.5375ZM165.478 20.8271C165.478 20.1137 165.508 19.2634 165.527 18.9604H163.931C163.95 19.2731 163.98 20.1234 163.98 20.8271V24.2576C163.98 24.971 163.95 25.8115 163.931 26.1341H165.527C165.508 25.8115 165.478 24.971 165.478 24.2576V23.2314H166.556C166.84 24.9319 168.202 26.2025 170.024 26.2025C172.121 26.2025 173.58 24.5605 173.58 22.5375C173.58 20.5144 172.121 18.8724 170.024 18.8724C168.163 18.8724 166.781 20.2114 166.546 21.9608H165.478V20.8271ZM160.815 24.6192C160.815 25.1665 160.805 25.8409 160.786 26.1341H162.373C162.353 25.8409 162.334 25.1665 162.334 24.6094V20.8662C162.334 20.2309 162.353 19.3513 162.373 18.7845H161.981C161.521 19.3122 161.266 19.5957 160.796 20.0648L157.778 23.2509V20.8271C157.778 20.2309 157.798 19.4002 157.827 18.9604H156.211C156.24 19.4197 156.269 20.2603 156.269 20.8271V24.6485C156.269 25.0883 156.26 25.6845 156.211 26.2904H156.593C157.024 25.8018 157.514 25.274 157.925 24.8537L160.815 21.7458V24.6192ZM150.039 20.8271C150.039 20.0843 150.048 19.2341 150.068 18.9604H148.481C148.501 19.2438 148.53 20.0941 148.53 20.8271V24.6192C148.53 25.1763 148.501 25.8409 148.481 26.1438H150.068C150.048 25.8506 150.039 25.1763 150.039 24.629V22.9675H153.105V24.6192C153.105 25.1763 153.086 25.8409 153.066 26.1438H154.663C154.643 25.8506 154.614 25.1763 154.614 24.629V20.8271C154.614 20.2505 154.643 19.41 154.663 18.9604H153.066C153.095 19.4002 153.105 20.2309 153.105 20.8271V21.7067H150.039V20.8271ZM145.326 20.2016C146.032 20.2016 146.796 20.2114 147.119 20.2407V18.892C146.806 18.9115 146.042 18.9506 145.326 18.9506H143.083C143.103 19.2634 143.122 20.0941 143.122 20.8076V24.2478C143.122 24.7169 143.103 25.5477 143.083 26.1243H145.415C146.13 26.1243 146.884 26.1438 147.207 26.1634V24.844C146.894 24.8635 146.14 24.8733 145.415 24.8733H144.641V23.0066H145.248C145.963 23.0066 146.659 23.0261 146.982 23.0457V21.7165C146.639 21.736 145.953 21.7556 145.238 21.7556H144.631V20.1918L145.326 20.2016ZM137.43 21.0128V20.055C137.43 19.752 137.44 19.2438 137.469 18.9604H135.882C135.902 19.2536 135.912 19.752 135.912 20.055V21.4037C135.912 22.8502 136.999 23.5637 138.351 23.5637C139.086 23.5637 139.634 23.4366 139.968 23.29V25.0297C139.968 25.4108 139.958 25.8897 139.928 26.1341H141.525C141.506 25.88 141.476 25.3424 141.476 24.9417V20.055C141.476 19.752 141.486 19.2438 141.515 18.9604H139.928C139.958 19.2536 139.968 19.752 139.968 20.055V22.039C139.634 22.2247 139.194 22.2833 138.714 22.2833C138.038 22.2833 137.43 21.9217 137.43 21.0128ZM132.884 20.2016C133.609 20.2016 134.354 20.2114 134.697 20.2407V18.892C134.364 18.9115 133.619 18.9506 132.884 18.9506H130.641C130.67 19.2634 130.69 20.0941 130.69 20.8076V24.2478C130.69 24.7169 130.67 25.5477 130.641 26.1243H132.973C133.698 26.1243 134.452 26.1438 134.775 26.1634V24.844C134.462 24.8635 133.707 24.8733 132.973 24.8733H132.208V23.0066H132.816C133.531 23.0066 134.227 23.0261 134.55 23.0457V21.7165C134.227 21.736 133.531 21.7556 132.816 21.7556H132.208V20.1918L132.884 20.2016ZM127.545 24.8147C127.731 25.3326 127.878 25.7822 127.976 26.1341H129.896C129.632 25.7138 129.348 25.0981 129.103 24.5312L126.556 18.7063H126.183L123.587 24.5312C123.342 25.0883 123.058 25.7138 122.804 26.1341H124.449C124.547 25.8506 124.655 25.5379 124.792 25.1958C125.253 24.0426 125.743 22.8502 126.262 21.6676C126.742 22.8404 127.095 23.6809 127.545 24.8147ZM119.002 20.0746H119.424C120.002 20.0746 120.423 20.3873 120.423 20.8955C120.423 21.4331 120.021 21.7263 119.522 21.7263H119.002V20.0746ZM120.825 23.896C120.825 24.5801 120.296 24.9417 119.512 24.9417H119.002V22.8307H119.59C120.305 22.8307 120.825 23.2216 120.825 23.896ZM117.435 26.1341H119.639C121.452 26.1341 122.363 25.1079 122.363 23.9253C122.363 22.9479 121.687 22.3224 121.02 22.0781C121.53 21.8631 121.892 21.3549 121.892 20.6805C121.892 19.8302 121.275 18.9408 119.59 18.9408H117.445C117.474 19.2536 117.484 20.358 117.484 21.0714V24.238C117.484 24.971 117.464 25.8115 117.435 26.1341ZM114.319 24.6192C114.319 25.1665 114.31 25.8409 114.28 26.1341H115.867C115.848 25.8409 115.828 25.1665 115.828 24.6094V20.8662C115.828 20.2309 115.848 19.3513 115.867 18.7845H115.485C115.015 19.3122 114.76 19.5957 114.29 20.0648L111.273 23.2509V20.8271C111.273 20.2309 111.292 19.4002 111.322 18.9604H109.715C109.735 19.4197 109.764 20.2603 109.764 20.8271V24.6485C109.764 25.0883 109.754 25.6845 109.715 26.2904H110.087C110.518 25.8018 111.018 25.274 111.429 24.8537L114.319 21.7458V24.6192ZM105.365 20.0941H105.865C106.668 20.0941 107.08 20.6805 107.08 21.2571C107.08 21.8338 106.629 22.4299 105.865 22.4299H105.365V20.0941ZM105.365 23.5637H106.022C107.648 23.5637 108.608 22.6156 108.608 21.2669C108.608 19.928 107.667 18.9506 106.031 18.9506H103.788C103.827 19.2634 103.847 20.0159 103.847 20.7294V24.2478C103.847 24.9613 103.827 25.8018 103.788 26.1243H105.404C105.375 25.8115 105.365 24.971 105.365 24.2576V23.5637ZM96.2345 18.9506C96.2639 19.3318 96.2835 20.4459 96.2835 20.876V24.2478C96.2835 24.9613 96.2541 25.8018 96.2345 26.1243H97.8608C97.8216 25.8115 97.802 24.971 97.802 24.2576V20.2114H100.653V24.2576C100.653 24.8928 100.643 25.7431 100.614 26.1341H102.211C102.191 25.88 102.171 25.0199 102.171 24.2673V20.7978C102.171 20.3189 102.181 19.2634 102.211 18.9604H96.2345V18.9506ZM86.7414 22.5375C86.7414 21.179 87.7407 20.0941 89.0338 20.0941C90.327 20.0941 91.3361 21.179 91.3361 22.5375C91.3361 23.896 90.327 24.9808 89.0338 24.9808C87.7407 24.9808 86.7414 23.896 86.7414 22.5375ZM85.2033 22.5375C85.2033 24.5899 86.8688 26.2611 89.0338 26.2611C91.2185 26.2611 92.8742 24.5996 92.8742 22.5375C92.8742 20.4753 91.2185 18.8138 89.0338 18.8138C86.8688 18.8138 85.2033 20.485 85.2033 22.5375ZM77.934 18.9506C77.9634 19.3318 77.983 20.4459 77.983 20.876V24.2478C77.983 24.9613 77.9536 25.8018 77.934 26.1243H79.5505C79.5211 25.8115 79.5015 24.971 79.5015 24.2576V20.2114H82.3524V24.2576C82.3524 24.8928 82.3426 25.7431 82.3132 26.1341H83.9199C83.9003 25.88 83.8807 25.0199 83.8807 24.2673V20.7978C83.8807 20.3189 83.8905 19.2634 83.9199 18.9604H77.934V18.9506ZM130.612 9.77341C130.612 8.42468 131.611 7.33006 132.904 7.33006C134.197 7.33006 135.206 8.42468 135.206 9.77341C135.206 11.1319 134.187 12.2168 132.904 12.2168C131.601 12.2265 130.612 11.1319 130.612 9.77341ZM129.073 9.77341C129.073 11.8258 130.729 13.4971 132.904 13.4971C135.089 13.4971 136.744 11.8258 136.744 9.77341C136.744 7.72099 135.089 6.04974 132.904 6.04974C130.729 6.04974 129.073 7.72099 129.073 9.77341ZM124.822 7.31051H125.243C125.821 7.31051 126.242 7.62326 126.242 8.14125C126.242 8.67879 125.841 8.96221 125.341 8.96221H124.822V7.31051ZM126.634 11.1319C126.634 11.816 126.105 12.1777 125.311 12.1777H124.812V10.0764H125.39C126.125 10.0764 126.634 10.4575 126.634 11.1319ZM123.254 13.37H125.449C127.271 13.37 128.172 12.3438 128.172 11.171C128.172 10.1937 127.506 9.56816 126.83 9.32383C127.339 9.10882 127.712 8.6006 127.712 7.92624C127.712 7.07595 127.095 6.18657 125.4 6.18657H123.264C123.293 6.49932 123.313 7.60371 123.313 8.32694V11.4935C123.313 12.2168 123.284 13.0475 123.254 13.37ZM118.003 6.19635C117.298 6.19635 116.475 6.1768 116.161 6.15725V7.47666C116.475 7.45711 117.298 7.43757 118.003 7.43757H118.473C118.493 7.8285 118.503 8.35627 118.503 8.7863V11.5033C118.503 12.2168 118.483 13.0573 118.464 13.3798H120.08C120.051 13.0573 120.031 12.2168 120.031 11.5033V8.7863C120.031 8.35627 120.031 7.8285 120.041 7.43757H120.501C121.226 7.43757 122.059 7.45711 122.372 7.47666V6.15725C122.059 6.1768 121.226 6.19635 120.501 6.19635H118.003ZM111.135 9.76363C111.135 8.44423 112.194 7.37893 113.565 7.37893C114.212 7.37893 114.819 7.57439 115.26 7.99465V6.28431C114.731 6.21589 114.368 6.04974 113.448 6.04974C111.204 6.04974 109.617 7.72099 109.617 9.76363C109.617 11.8258 111.194 13.4971 113.448 13.4971C114.339 13.4971 114.731 13.3407 115.329 13.2332V11.5815C114.878 12.0017 114.251 12.1972 113.575 12.1972C112.203 12.1874 111.135 11.1026 111.135 9.76363ZM104.905 6.19635C104.19 6.19635 103.376 6.1768 103.063 6.15725V7.47666C103.376 7.45711 104.19 7.43757 104.905 7.43757H105.375C105.395 7.8285 105.404 8.35627 105.404 8.7863V11.5033C105.404 12.2168 105.385 13.0573 105.365 13.3798H106.982C106.942 13.0573 106.923 12.2168 106.923 11.5033V8.7863C106.923 8.35627 106.923 7.8285 106.933 7.43757H107.393C108.118 7.43757 108.951 7.45711 109.264 7.47666V6.15725C108.951 6.1768 108.118 6.19635 107.393 6.19635H104.905ZM97.5179 8.07284C97.5179 7.32028 97.5277 6.47 97.5473 6.19635H95.9602C95.9798 6.47977 95.9994 7.33006 95.9994 8.07284V11.8551C95.9994 12.4122 95.9798 13.0866 95.9602 13.3798H97.5473C97.5277 13.0866 97.5179 12.4122 97.5179 11.8747V10.1937H100.575V11.8454C100.575 12.4024 100.555 13.0768 100.535 13.37H102.142C102.122 13.0768 102.093 12.4024 102.093 11.8649V8.07284C102.093 7.49621 102.122 6.64592 102.142 6.19635H100.535C100.565 6.63615 100.575 7.47666 100.575 8.07284V8.95244H97.5179V8.07284ZM92.7958 7.43757C93.511 7.43757 94.2654 7.44734 94.5984 7.47666V6.1377C94.2654 6.15725 93.511 6.18657 92.7958 6.18657H90.5524C90.5719 6.49932 90.5915 7.33006 90.5915 8.05329V11.4935C90.5915 11.9626 90.5719 12.7934 90.5524 13.37H92.884C93.609 13.37 94.3633 13.3896 94.6866 13.4189V12.0897C94.3731 12.1092 93.609 12.119 92.884 12.119H92.11V10.2523H92.7175C93.4228 10.2523 94.1282 10.2718 94.4515 10.2914V8.96221C94.1282 8.98176 93.4326 9.00131 92.7175 9.00131H92.11V7.43757H92.7958ZM85.3013 13.37H86.9079C86.8785 13.0475 86.859 12.2168 86.859 11.5033V7.47666H88.1227C88.8477 7.47666 89.318 7.48643 89.651 7.51575V6.1377C89.318 6.15725 88.8477 6.18657 88.1227 6.18657H85.2915C85.311 6.49932 85.3306 7.33983 85.3306 8.06306V11.4935C85.3404 12.2168 85.3208 13.0475 85.3013 13.37ZM81.4805 10.4869H79.9816L80.7359 8.68856L81.4805 10.4869ZM84.5567 13.37C84.302 12.94 83.9885 12.3731 83.7044 11.777L81.02 6.05952H80.5988L77.9928 11.777C77.7283 12.3829 77.4442 12.9107 77.1797 13.37H78.7962C78.8843 13.0866 79.0019 12.8129 79.1488 12.4513L79.4721 11.7085H81.9801L82.3132 12.4904C82.4504 12.8032 82.5875 13.1355 82.6659 13.3798L84.5567 13.37Z" fill="white"/>
<path d="M1092.28 33.6797L1095.97 35.0557L1097.4 39.6449C1097.49 39.9388 1097.85 40.0474 1098.09 39.8524L1100.14 38.1771C1100.36 38.0016 1100.66 37.9928 1100.89 38.1562L1104.59 40.8473C1104.85 41.0328 1105.21 40.8929 1105.28 40.5846L1107.99 27.5237C1108.06 27.1869 1107.73 26.9058 1107.41 27.0299L1092.28 32.8667C1091.9 33.0107 1091.91 33.5394 1092.28 33.6797ZM1097.17 34.3232L1104.37 29.8855C1104.5 29.806 1104.63 29.9811 1104.52 30.0842L1098.58 35.6117C1098.37 35.8063 1098.23 36.0666 1098.19 36.3493L1097.99 37.8504C1097.97 38.0508 1097.68 38.0707 1097.63 37.8767L1096.85 35.1394C1096.76 34.8272 1096.89 34.4937 1097.17 34.3232Z" fill="white"/>
<g clip-path="url(#clip0_802_68)">
<path d="M1155.92 37.6798C1155.9 37.6381 1155.88 37.6035 1155.86 37.5757C1155.58 37.0757 1155.05 36.4621 1154.27 35.7345L1154.25 35.7179L1154.25 35.7097L1154.24 35.7013H1154.23C1153.87 35.3625 1153.65 35.1347 1153.55 35.0181C1153.38 34.7959 1153.34 34.5711 1153.44 34.3432C1153.5 34.1711 1153.75 33.8075 1154.19 33.2521C1154.41 32.9577 1154.59 32.7217 1154.73 32.544C1155.69 31.2666 1156.11 30.4503 1155.98 30.0948L1155.93 30.0117C1155.89 29.9617 1155.81 29.916 1155.67 29.8743C1155.53 29.8326 1155.35 29.8257 1155.14 29.8535L1152.74 29.8701C1152.7 29.8563 1152.64 29.8576 1152.57 29.8743C1152.5 29.8909 1152.46 29.8993 1152.46 29.8993L1152.42 29.9202L1152.39 29.9452C1152.36 29.9618 1152.33 29.991 1152.3 30.0326C1152.26 30.0742 1152.23 30.1229 1152.21 30.1784C1151.95 30.8504 1151.65 31.4752 1151.32 32.0527C1151.12 32.3971 1150.93 32.6956 1150.75 32.9483C1150.58 33.2009 1150.44 33.3871 1150.32 33.5064C1150.2 33.6258 1150.1 33.7215 1150 33.7937C1149.91 33.866 1149.84 33.8966 1149.79 33.8854C1149.74 33.8742 1149.69 33.8632 1149.65 33.8521C1149.57 33.8021 1149.51 33.734 1149.46 33.648C1149.41 33.5619 1149.38 33.4536 1149.36 33.323C1149.35 33.1924 1149.34 33.0801 1149.33 32.9857C1149.33 32.8913 1149.33 32.7579 1149.34 32.5857C1149.34 32.4135 1149.35 32.297 1149.35 32.2359C1149.35 32.0248 1149.35 31.7957 1149.36 31.5486C1149.37 31.3014 1149.37 31.1056 1149.38 30.9614C1149.39 30.817 1149.39 30.6642 1149.39 30.5031C1149.39 30.3421 1149.38 30.2158 1149.36 30.1241C1149.34 30.0325 1149.31 29.9436 1149.27 29.8575C1149.23 29.7714 1149.18 29.7048 1149.1 29.6576C1149.03 29.6103 1148.93 29.5729 1148.82 29.545C1148.53 29.4784 1148.15 29.4424 1147.7 29.4368C1146.66 29.4257 1146 29.4924 1145.71 29.6368C1145.59 29.6978 1145.48 29.7812 1145.39 29.8866C1145.29 30.0089 1145.28 30.0756 1145.35 30.0865C1145.68 30.1365 1145.92 30.2559 1146.06 30.4447L1146.11 30.5447C1146.15 30.6169 1146.18 30.7447 1146.22 30.928C1146.26 31.1112 1146.29 31.3139 1146.3 31.5359C1146.33 31.9414 1146.33 32.2885 1146.3 32.5773C1146.27 32.8661 1146.24 33.091 1146.22 33.2521C1146.19 33.4131 1146.16 33.5437 1146.11 33.6436C1146.06 33.7436 1146.02 33.8047 1146.01 33.8268C1145.99 33.849 1145.98 33.863 1145.96 33.8685C1145.89 33.8961 1145.82 33.9102 1145.74 33.9102C1145.66 33.9102 1145.57 33.8713 1145.46 33.7935C1145.35 33.7157 1145.23 33.6089 1145.11 33.4728C1144.99 33.3367 1144.86 33.1465 1144.71 32.9021C1144.56 32.6578 1144.4 32.369 1144.24 32.0358L1144.11 31.7941C1144.02 31.6387 1143.91 31.4123 1143.77 31.1153C1143.62 30.8181 1143.49 30.5306 1143.38 30.2529C1143.34 30.1363 1143.27 30.0475 1143.18 29.9864L1143.14 29.9614C1143.11 29.9392 1143.07 29.9156 1143.01 29.8905C1142.95 29.8655 1142.88 29.8475 1142.82 29.8364L1140.53 29.853C1140.3 29.853 1140.14 29.9059 1140.06 30.0114L1140.03 30.0613C1140.01 30.0891 1140 30.1335 1140 30.1947C1140 30.2558 1140.02 30.3307 1140.05 30.4195C1140.38 31.2027 1140.75 31.9579 1141.14 32.6855C1141.53 33.413 1141.87 33.999 1142.16 34.4431C1142.45 34.8874 1142.74 35.3068 1143.04 35.701C1143.34 36.0953 1143.54 36.348 1143.64 36.4591C1143.73 36.5703 1143.81 36.6535 1143.87 36.709L1144.07 36.9089C1144.21 37.0422 1144.4 37.2019 1144.66 37.3879C1144.92 37.574 1145.21 37.7572 1145.52 37.9379C1145.83 38.1182 1146.2 38.2654 1146.61 38.3792C1147.03 38.4932 1147.44 38.5389 1147.83 38.5168H1148.79C1148.98 38.5 1149.13 38.4389 1149.23 38.3335L1149.26 38.2917C1149.29 38.2586 1149.31 38.2071 1149.33 38.1378C1149.35 38.0684 1149.36 37.9919 1149.36 37.9087C1149.35 37.67 1149.37 37.4548 1149.41 37.2632C1149.45 37.0717 1149.5 36.9273 1149.55 36.83C1149.6 36.7328 1149.66 36.6509 1149.73 36.5844C1149.8 36.5178 1149.84 36.4774 1149.87 36.4635C1149.9 36.4496 1149.92 36.4401 1149.94 36.4344C1150.07 36.39 1150.23 36.433 1150.41 36.5636C1150.59 36.6941 1150.76 36.8553 1150.92 37.0468C1151.08 37.2385 1151.27 37.4536 1151.49 37.6923C1151.71 37.9312 1151.9 38.1087 1152.07 38.2255L1152.24 38.3255C1152.35 38.3922 1152.49 38.4533 1152.67 38.5088C1152.85 38.5643 1153 38.5782 1153.14 38.5505L1155.27 38.5172C1155.48 38.5172 1155.64 38.4823 1155.76 38.413C1155.88 38.3436 1155.95 38.2671 1155.97 38.1839C1155.99 38.1006 1155.99 38.0061 1155.97 37.9005C1155.95 37.7952 1155.93 37.7215 1155.92 37.6798Z" fill="white"/>
</g>
<path d="M1196.9 30.2502H1188V40.0002H1190.48V36.8281H1195.22L1197.39 40.0002H1200.16L1197.77 36.8136C1198.51 36.6966 1199.05 36.4189 1199.37 35.9803C1199.7 35.5418 1199.86 34.8402 1199.86 33.9046V33.1738C1199.86 32.6182 1199.8 32.1797 1199.7 31.8435C1199.6 31.5073 1199.42 31.2149 1199.17 30.9518C1198.9 30.7033 1198.6 30.5279 1198.25 30.411C1197.89 30.3087 1197.45 30.2502 1196.9 30.2502ZM1196.5 34.6793H1190.48V32.399H1196.5C1196.84 32.399 1197.08 32.4575 1197.19 32.5598C1197.31 32.6621 1197.39 32.8521 1197.39 33.1299V33.9485C1197.39 34.2409 1197.31 34.4309 1197.19 34.5332C1197.08 34.6355 1196.84 34.6793 1196.5 34.6793Z" fill="white"/>
<path d="M1202.4 30.25C1203.28 30.25 1204 29.5225 1204 28.625C1204 27.7275 1203.28 27 1202.4 27C1201.52 27 1200.8 27.7275 1200.8 28.625C1200.8 29.5225 1201.52 30.25 1202.4 30.25Z" fill="white"/>
<path d="M1247.28 37.2486C1247.28 37.2486 1247.19 37.2665 1247.08 37.34C1247.03 37.0025 1246.96 36.0852 1246.93 35.851C1247.04 35.7558 1247.2 35.5664 1247.31 35.4128C1247.41 35.2592 1247.72 34.2369 1247.81 33.7961C1247.86 33.8069 1247.98 33.9026 1248.11 33.8275C1248.24 33.7517 1248.34 33.4234 1248.43 33.2033C1248.5 33.0183 1248.69 32.3194 1248.73 32.0392C1248.78 31.7591 1248.87 31.3923 1248.76 31.2852C1248.69 31.2073 1248.54 31.0256 1248.2 31.189C1248.26 30.6713 1248.26 29.1038 1248.11 28.1118C1247.95 27.1198 1247.33 26.5307 1246.64 25.9055C1245.95 25.2802 1244.65 25 1244 25C1243.35 25 1242.05 25.2802 1241.36 25.9055C1240.67 26.5307 1240.05 27.1198 1239.89 28.1118C1239.74 29.1038 1239.73 30.6713 1239.8 31.189C1239.45 31.0256 1239.31 31.2079 1239.23 31.2852C1239.12 31.3923 1239.22 31.7585 1239.26 32.0392C1239.31 32.3194 1239.5 33.0188 1239.57 33.2033C1239.65 33.4234 1239.76 33.7517 1239.89 33.8275C1240.02 33.9026 1240.14 33.8069 1240.19 33.7961C1240.27 34.2369 1240.59 35.2592 1240.69 35.4128C1240.8 35.5664 1240.96 35.7558 1241.06 35.851C1241.04 36.0852 1240.97 37.0025 1240.92 37.34C1240.81 37.2665 1240.72 37.2486 1240.72 37.2486C1240.72 37.2486 1236.7 38.7778 1236 39.2364C1237.9 41.5347 1240.78 43 1244 43C1247.22 43 1250.1 41.5342 1252 39.2364C1251.3 38.7778 1247.28 37.2486 1247.28 37.2486Z" fill="white"/>
<path d="M1284.6 28.9H1289.84V30.564H1286.38V32.488H1289.37V34.165H1286.38V36.336H1289.84V38H1284.6V28.9ZM1297.61 28.9H1299.4V38H1297.61L1293.87 32.501L1293.52 31.903V38H1291.73V28.9H1293.5L1297.23 34.412L1297.61 35.036V28.9Z" fill="white"/>
<rect x="996" y="27" width="18" height="2" fill="white"/>
<rect x="996" y="33" width="18" height="2" fill="white"/>
<rect x="996" y="39" width="18" height="2" fill="white"/>
<defs>
<clipPath id="clip0_802_68">
<rect width="16" height="16" fill="white" transform="translate(1140 26)"/>
</clipPath>
</defs>
</svg>
