<svg width="1313" height="56" viewBox="0 0 1313 56" fill="none" xmlns="http://www.w3.org/2000/svg">
<path d="M226.274 24.718H227.366V29.814C227.366 30.1087 227.362 30.4337 227.353 30.789C227.344 31.1357 227.331 31.4607 227.314 31.764C227.297 32.0587 227.284 32.271 227.275 32.401H227.327L232.436 24.718H233.736V34H232.644V28.956C232.644 28.644 232.648 28.306 232.657 27.942C232.674 27.5693 232.692 27.2313 232.709 26.928C232.726 26.6247 232.739 26.408 232.748 26.278H232.696L227.574 34H226.274V24.718ZM243.728 34H242.558V29.671H237.8V34H236.63V24.718H237.8V28.644H242.558V24.718H243.728V34ZM246.655 24.718H249.307C250.46 24.718 251.335 24.8913 251.933 25.238C252.531 25.5847 252.83 26.1783 252.83 27.019C252.83 27.565 252.679 28.02 252.375 28.384C252.072 28.7393 251.634 28.969 251.062 29.073V29.138C251.452 29.2073 251.803 29.3243 252.115 29.489C252.436 29.6537 252.687 29.8877 252.869 30.191C253.051 30.4943 253.142 30.8843 253.142 31.361C253.142 32.2017 252.852 32.8517 252.271 33.311C251.699 33.7703 250.915 34 249.918 34H246.655V24.718ZM247.825 28.67H249.541C250.33 28.67 250.872 28.5443 251.166 28.293C251.47 28.033 251.621 27.6517 251.621 27.149C251.621 26.6377 251.439 26.2737 251.075 26.057C250.72 25.8317 250.148 25.719 249.359 25.719H247.825V28.67ZM247.825 29.645V33.012H249.697C250.521 33.012 251.093 32.8517 251.413 32.531C251.734 32.2103 251.894 31.79 251.894 31.27C251.894 30.7847 251.725 30.3947 251.387 30.1C251.058 29.7967 250.464 29.645 249.606 29.645H247.825ZM260.687 34H255.5V24.718H260.687V25.745H256.67V28.644H260.453V29.658H256.67V32.973H260.687V34ZM267.092 25.615C266.095 25.615 265.311 25.9487 264.739 26.616C264.167 27.2833 263.881 28.1977 263.881 29.359C263.881 30.5117 264.145 31.426 264.674 32.102C265.211 32.7693 266.013 33.103 267.079 33.103C267.478 33.103 267.859 33.0683 268.223 32.999C268.587 32.9297 268.947 32.843 269.302 32.739V33.753C268.955 33.883 268.596 33.9783 268.223 34.039C267.859 34.0997 267.421 34.13 266.91 34.13C265.965 34.13 265.177 33.935 264.544 33.545C263.911 33.155 263.435 32.6003 263.114 31.881C262.802 31.1617 262.646 30.3167 262.646 29.346C262.646 28.41 262.815 27.5867 263.153 26.876C263.5 26.1567 264.007 25.5977 264.674 25.199C265.341 24.7917 266.152 24.588 267.105 24.588C268.084 24.588 268.938 24.77 269.666 25.134L269.198 26.122C268.912 25.992 268.591 25.875 268.236 25.771C267.889 25.667 267.508 25.615 267.092 25.615ZM274.656 34H273.486V25.745H270.587V24.718H277.542V25.745H274.656V34ZM287.177 29.346C287.177 30.308 287.012 31.1487 286.683 31.868C286.362 32.5787 285.881 33.1333 285.24 33.532C284.607 33.9307 283.827 34.13 282.9 34.13C281.938 34.13 281.136 33.9307 280.495 33.532C279.862 33.1333 279.39 32.5743 279.078 31.855C278.766 31.1357 278.61 30.295 278.61 29.333C278.61 28.3883 278.766 27.5607 279.078 26.85C279.39 26.1307 279.862 25.5717 280.495 25.173C281.136 24.7743 281.942 24.575 282.913 24.575C283.84 24.575 284.62 24.7743 285.253 25.173C285.885 25.563 286.362 26.1177 286.683 26.837C287.012 27.5477 287.177 28.384 287.177 29.346ZM279.845 29.346C279.845 30.516 280.092 31.439 280.586 32.115C281.08 32.7823 281.851 33.116 282.9 33.116C283.948 33.116 284.715 32.7823 285.201 32.115C285.695 31.439 285.942 30.516 285.942 29.346C285.942 28.176 285.699 27.2617 285.214 26.603C284.728 25.9357 283.961 25.602 282.913 25.602C281.855 25.602 281.08 25.9357 280.586 26.603C280.092 27.2617 279.845 28.176 279.845 29.346ZM292.081 24.718C293.294 24.718 294.178 24.9563 294.733 25.433C295.287 25.9097 295.565 26.5813 295.565 27.448C295.565 27.9593 295.448 28.4403 295.214 28.891C294.988 29.333 294.603 29.6927 294.057 29.97C293.519 30.2473 292.787 30.386 291.86 30.386H290.794V34H289.624V24.718H292.081ZM291.977 25.719H290.794V29.385H291.73C292.614 29.385 293.272 29.242 293.706 28.956C294.139 28.67 294.356 28.1847 294.356 27.5C294.356 26.902 294.161 26.4557 293.771 26.161C293.389 25.8663 292.791 25.719 291.977 25.719ZM304.736 24.718L301.772 31.361C301.495 31.9763 301.213 32.492 300.927 32.908C300.65 33.3153 300.32 33.623 299.939 33.831C299.558 34.0303 299.072 34.13 298.483 34.13C298.24 34.13 298.011 34.1127 297.794 34.078C297.586 34.0433 297.395 33.9957 297.222 33.935V32.778C297.395 32.856 297.582 32.921 297.781 32.973C297.98 33.0163 298.188 33.038 298.405 33.038C298.882 33.038 299.263 32.934 299.549 32.726C299.835 32.518 300.099 32.1497 300.342 31.621L296.767 24.718H298.054L300.641 29.827C300.684 29.9223 300.736 30.035 300.797 30.165C300.858 30.295 300.91 30.4207 300.953 30.542H301.005C301.04 30.4553 301.079 30.3427 301.122 30.204C301.174 30.0653 301.222 29.9527 301.265 29.866L303.501 24.718H304.736Z" fill="white"/>
<path d="M342.36 29.346C342.36 30.308 342.195 31.1487 341.866 31.868C341.545 32.5787 341.064 33.1333 340.423 33.532C339.79 33.9307 339.01 34.13 338.083 34.13C337.121 34.13 336.319 33.9307 335.678 33.532C335.045 33.1333 334.573 32.5743 334.261 31.855C333.949 31.1357 333.793 30.295 333.793 29.333C333.793 28.3883 333.949 27.5607 334.261 26.85C334.573 26.1307 335.045 25.5717 335.678 25.173C336.319 24.7743 337.125 24.575 338.096 24.575C339.023 24.575 339.803 24.7743 340.436 25.173C341.069 25.563 341.545 26.1177 341.866 26.837C342.195 27.5477 342.36 28.384 342.36 29.346ZM335.028 29.346C335.028 30.516 335.275 31.439 335.769 32.115C336.263 32.7823 337.034 33.116 338.083 33.116C339.132 33.116 339.899 32.7823 340.384 32.115C340.878 31.439 341.125 30.516 341.125 29.346C341.125 28.176 340.882 27.2617 340.397 26.603C339.912 25.9357 339.145 25.602 338.096 25.602C337.039 25.602 336.263 25.9357 335.769 26.603C335.275 27.2617 335.028 28.176 335.028 29.346ZM350.282 24.718C351.496 24.718 352.38 24.9563 352.934 25.433C353.489 25.9097 353.766 26.5813 353.766 27.448C353.766 27.9593 353.649 28.4403 353.415 28.891C353.19 29.333 352.804 29.6927 352.258 29.97C351.721 30.2473 350.989 30.386 350.061 30.386H348.995V34H347.825V24.718H350.282ZM350.178 25.719H348.995V29.385H349.931C350.815 29.385 351.474 29.242 351.907 28.956C352.341 28.67 352.557 28.1847 352.557 27.5C352.557 26.902 352.362 26.4557 351.972 26.161C351.591 25.8663 350.993 25.719 350.178 25.719ZM361.273 34H356.086V24.718H361.273V25.745H357.256V28.644H361.039V29.658H357.256V32.973H361.273V34ZM368.939 24.718V25.758H364.87V34H363.7V24.718H368.939ZM370.92 24.718H372.012V29.814C372.012 30.1087 372.008 30.4337 371.999 30.789C371.991 31.1357 371.978 31.4607 371.96 31.764C371.943 32.0587 371.93 32.271 371.921 32.401H371.973L377.082 24.718H378.382V34H377.29V28.956C377.29 28.644 377.295 28.306 377.303 27.942C377.321 27.5693 377.338 27.2313 377.355 26.928C377.373 26.6247 377.386 26.408 377.394 26.278H377.342L372.22 34H370.92V24.718ZM389.375 29.346C389.375 30.308 389.21 31.1487 388.881 31.868C388.56 32.5787 388.079 33.1333 387.438 33.532C386.805 33.9307 386.025 34.13 385.098 34.13C384.136 34.13 383.334 33.9307 382.693 33.532C382.06 33.1333 381.588 32.5743 381.276 31.855C380.964 31.1357 380.808 30.295 380.808 29.333C380.808 28.3883 380.964 27.5607 381.276 26.85C381.588 26.1307 382.06 25.5717 382.693 25.173C383.334 24.7743 384.14 24.575 385.111 24.575C386.038 24.575 386.818 24.7743 387.451 25.173C388.083 25.563 388.56 26.1177 388.881 26.837C389.21 27.5477 389.375 28.384 389.375 29.346ZM382.043 29.346C382.043 30.516 382.29 31.439 382.784 32.115C383.278 32.7823 384.049 33.116 385.098 33.116C386.146 33.116 386.913 32.7823 387.399 32.115C387.893 31.439 388.14 30.516 388.14 29.346C388.14 28.176 387.897 27.2617 387.412 26.603C386.926 25.9357 386.159 25.602 385.111 25.602C384.053 25.602 383.278 25.9357 382.784 26.603C382.29 27.2617 382.043 28.176 382.043 29.346ZM398.92 34H397.75V29.671H392.992V34H391.822V24.718H392.992V28.644H397.75V24.718H398.92V34ZM407.035 34H401.848V24.718H407.035V25.745H403.018V28.644H406.801V29.658H403.018V32.973H407.035V34Z" fill="#CA2138"/>
<path d="M445.36 29.346C445.36 30.308 445.195 31.1487 444.866 31.868C444.545 32.5787 444.064 33.1333 443.423 33.532C442.79 33.9307 442.01 34.13 441.083 34.13C440.121 34.13 439.319 33.9307 438.678 33.532C438.045 33.1333 437.573 32.5743 437.261 31.855C436.949 31.1357 436.793 30.295 436.793 29.333C436.793 28.3883 436.949 27.5607 437.261 26.85C437.573 26.1307 438.045 25.5717 438.678 25.173C439.319 24.7743 440.125 24.575 441.096 24.575C442.023 24.575 442.803 24.7743 443.436 25.173C444.069 25.563 444.545 26.1177 444.866 26.837C445.195 27.5477 445.36 28.384 445.36 29.346ZM438.028 29.346C438.028 30.516 438.275 31.439 438.769 32.115C439.263 32.7823 440.034 33.116 441.083 33.116C442.132 33.116 442.899 32.7823 443.384 32.115C443.878 31.439 444.125 30.516 444.125 29.346C444.125 28.176 443.882 27.2617 443.397 26.603C442.912 25.9357 442.145 25.602 441.096 25.602C440.039 25.602 439.263 25.9357 438.769 26.603C438.275 27.2617 438.028 28.176 438.028 29.346ZM447.807 34V24.718H453.319V25.745H448.977V28.644H450.355C451.283 28.644 452.002 28.761 452.513 28.995C453.025 29.2203 453.38 29.5323 453.579 29.931C453.779 30.321 453.878 30.7717 453.878 31.283C453.878 32.1323 453.623 32.7997 453.111 33.285C452.6 33.7617 451.738 34 450.524 34H447.807ZM448.977 32.999H450.407C451.239 32.999 451.824 32.8603 452.162 32.583C452.5 32.297 452.669 31.8637 452.669 31.283C452.669 30.685 452.483 30.2647 452.11 30.022C451.738 29.7793 451.105 29.658 450.212 29.658H448.977V32.999ZM465.037 34L463.919 31.127H460.24L459.135 34H457.952L461.579 24.679H462.632L466.246 34H465.037ZM463.568 30.087L462.528 27.279C462.502 27.2097 462.459 27.084 462.398 26.902C462.338 26.72 462.277 26.5337 462.216 26.343C462.164 26.1437 462.121 25.992 462.086 25.888C462.017 26.1567 461.943 26.421 461.865 26.681C461.796 26.9323 461.735 27.1317 461.683 27.279L460.63 30.087H463.568ZM473.145 24.718V25.758H469.076V34H467.906V24.718H473.145ZM480.3 34H475.113V24.718H480.3V25.745H476.283V28.644H480.066V29.658H476.283V32.973H480.3V34ZM489.825 34H488.655V29.671H483.897V34H482.727V24.718H483.897V28.644H488.655V24.718H489.825V34ZM495.691 34H494.521V25.745H491.622V24.718H498.577V25.745H495.691V34ZM504.09 25.615C503.094 25.615 502.309 25.9487 501.737 26.616C501.165 27.2833 500.879 28.1977 500.879 29.359C500.879 30.5117 501.144 31.426 501.672 32.102C502.21 32.7693 503.011 33.103 504.077 33.103C504.476 33.103 504.857 33.0683 505.221 32.999C505.585 32.9297 505.945 32.843 506.3 32.739V33.753C505.954 33.883 505.594 33.9783 505.221 34.039C504.857 34.0997 504.42 34.13 503.908 34.13C502.964 34.13 502.175 33.935 501.542 33.545C500.91 33.155 500.433 32.6003 500.112 31.881C499.8 31.1617 499.644 30.3167 499.644 29.346C499.644 28.41 499.813 27.5867 500.151 26.876C500.498 26.1567 501.005 25.5977 501.672 25.199C502.34 24.7917 503.15 24.588 504.103 24.588C505.083 24.588 505.936 24.77 506.664 25.134L506.196 26.122C505.91 25.992 505.59 25.875 505.234 25.771C504.888 25.667 504.506 25.615 504.09 25.615ZM511.654 34H510.484V25.745H507.585V24.718H514.54V25.745H511.654V34ZM516.33 24.718H518.982C520.135 24.718 521.01 24.8913 521.608 25.238C522.206 25.5847 522.505 26.1783 522.505 27.019C522.505 27.565 522.353 28.02 522.05 28.384C521.747 28.7393 521.309 28.969 520.737 29.073V29.138C521.127 29.2073 521.478 29.3243 521.79 29.489C522.111 29.6537 522.362 29.8877 522.544 30.191C522.726 30.4943 522.817 30.8843 522.817 31.361C522.817 32.2017 522.527 32.8517 521.946 33.311C521.374 33.7703 520.59 34 519.593 34H516.33V24.718ZM517.5 28.67H519.216C520.005 28.67 520.546 28.5443 520.841 28.293C521.144 28.033 521.296 27.6517 521.296 27.149C521.296 26.6377 521.114 26.2737 520.75 26.057C520.395 25.8317 519.823 25.719 519.034 25.719H517.5V28.67ZM517.5 29.645V33.012H519.372C520.195 33.012 520.767 32.8517 521.088 32.531C521.409 32.2103 521.569 31.79 521.569 31.27C521.569 30.7847 521.4 30.3947 521.062 30.1C520.733 29.7967 520.139 29.645 519.281 29.645H517.5ZM530.362 34H525.175V24.718H530.362V25.745H526.345V28.644H530.128V29.658H526.345V32.973H530.362V34Z" fill="white"/>
<path d="M568.034 34H566.63L562.431 29.294V34H561.261V24.718H562.431V29.216L566.526 24.718H567.852L563.822 29.229L568.034 34ZM577.532 29.346C577.532 30.308 577.368 31.1487 577.038 31.868C576.718 32.5787 576.237 33.1333 575.595 33.532C574.963 33.9307 574.183 34.13 573.255 34.13C572.293 34.13 571.492 33.9307 570.85 33.532C570.218 33.1333 569.745 32.5743 569.433 31.855C569.121 31.1357 568.965 30.295 568.965 29.333C568.965 28.3883 569.121 27.5607 569.433 26.85C569.745 26.1307 570.218 25.5717 570.85 25.173C571.492 24.7743 572.298 24.575 573.268 24.575C574.196 24.575 574.976 24.7743 575.608 25.173C576.241 25.563 576.718 26.1177 577.038 26.837C577.368 27.5477 577.532 28.384 577.532 29.346ZM570.2 29.346C570.2 30.516 570.447 31.439 570.941 32.115C571.435 32.7823 572.207 33.116 573.255 33.116C574.304 33.116 575.071 32.7823 575.556 32.115C576.05 31.439 576.297 30.516 576.297 29.346C576.297 28.176 576.055 27.2617 575.569 26.603C575.084 25.9357 574.317 25.602 573.268 25.602C572.211 25.602 571.435 25.9357 570.941 26.603C570.447 27.2617 570.2 28.176 570.2 29.346ZM587.077 34H585.907V29.671H581.149V34H579.979V24.718H581.149V28.644H585.907V24.718H587.077V34ZM592.943 34H591.773V25.745H588.874V24.718H595.829V25.745H592.943V34ZM602.529 34L601.411 31.127H597.732L596.627 34H595.444L599.071 24.679H600.124L603.738 34H602.529ZM601.06 30.087L600.02 27.279C599.994 27.2097 599.95 27.084 599.89 26.902C599.829 26.72 599.768 26.5337 599.708 26.343C599.656 26.1437 599.612 25.992 599.578 25.888C599.508 26.1567 599.435 26.421 599.357 26.681C599.287 26.9323 599.227 27.1317 599.175 27.279L598.122 30.087H601.06ZM612.171 34H610.767L606.568 29.294V34H605.398V24.718H606.568V29.216L610.663 24.718H611.989L607.959 29.229L612.171 34ZM616.762 34H615.592V25.745H612.693V24.718H619.648V25.745H616.762V34ZM621.437 34V24.718H622.607V28.644H624.037C624.895 28.644 625.576 28.761 626.078 28.995C626.581 29.229 626.936 29.5453 627.144 29.944C627.361 30.3427 627.469 30.789 627.469 31.283C627.469 32.1063 627.205 32.765 626.676 33.259C626.156 33.753 625.324 34 624.18 34H621.437ZM628.899 34V24.718H630.069V34H628.899ZM622.607 33.012H624.076C624.822 33.012 625.372 32.869 625.727 32.583C626.083 32.297 626.26 31.8637 626.26 31.283C626.26 30.685 626.065 30.269 625.675 30.035C625.294 29.7923 624.705 29.671 623.907 29.671H622.607V33.012Z" fill="white"/>
<path d="M62.2598 36.0691C62.2598 36.628 62.249 37.3159 62.2274 37.6169H63.8567C63.8351 37.3159 63.8135 36.628 63.8135 36.0583V32.2102C63.8135 31.565 63.8351 30.6623 63.8567 30.0819H63.4575C62.9827 30.6191 62.713 30.9094 62.2382 31.3933L59.1415 34.6609V32.1779C59.1415 31.5652 59.1631 30.7051 59.1954 30.2539H57.5338C57.5553 30.7268 57.5877 31.5865 57.5877 32.1779V36.0905C57.5877 36.5418 57.5769 37.1547 57.5338 37.7781H57.9222C58.3646 37.2729 58.8717 36.7355 59.2925 36.2948L62.2598 33.1131V36.0691ZM67.0721 32.1779C67.0721 31.4147 67.0829 30.5441 67.1045 30.2539H65.4752C65.4968 30.5441 65.5183 31.4147 65.5183 32.1779V36.0583C65.5183 36.628 65.4968 37.3159 65.4752 37.6169H67.1045C67.0829 37.3159 67.0721 36.628 67.0721 36.0691V34.36H70.212V36.0581C70.212 36.628 70.1904 37.3159 70.1688 37.6169H71.8197C71.7981 37.3159 71.7657 36.628 71.7657 36.0691V32.1779C71.7657 31.5865 71.7981 30.7268 71.8197 30.2537H70.1688C70.2012 30.7051 70.212 31.565 70.212 32.1779V33.0806H67.0721V32.1779ZM73.4274 37.6169H75.6825C77.5384 37.6169 78.4771 36.5635 78.4771 35.3596C78.4771 34.36 77.7866 33.715 77.1068 33.4678C77.6247 33.2421 78.0024 32.7259 78.0024 32.038C78.0024 31.1673 77.3657 30.2537 75.6286 30.2537H73.4382C73.4706 30.5763 73.4814 31.7048 73.4814 32.4466V35.6926C73.4814 36.4236 73.4598 37.2837 73.4274 37.6169ZM76.9018 35.3166C76.9018 36.0151 76.3623 36.3915 75.553 36.3915H75.0351V34.231H75.6286C76.3731 34.231 76.9018 34.6287 76.9018 35.3166ZM75.0351 31.404H75.4667C76.0602 31.404 76.4918 31.7265 76.4918 32.2532C76.4918 32.8014 76.0817 33.1021 75.5638 33.1021H75.0351V31.404ZM81.9623 31.5328C82.696 31.5328 83.4729 31.5437 83.8074 31.576V30.1999C83.4729 30.2214 82.696 30.2539 81.9623 30.2539H79.6532C79.6748 30.5763 79.6964 31.4255 79.6964 32.167V35.6928C79.6964 36.1764 79.6748 37.0255 79.6532 37.6169H82.0486C82.7931 37.6169 83.57 37.6384 83.8937 37.6599V36.2948C83.57 36.3163 82.7931 36.3268 82.0486 36.3268H81.2609V34.4137H81.876C82.6097 34.4137 83.3218 34.4352 83.6563 34.4567V33.0916C83.3218 33.1131 82.6097 33.1346 81.876 33.1346H81.2609V31.533H81.9623V31.5328ZM86.4401 33.9191C86.4401 32.5647 87.5299 31.4683 88.9326 31.4683C89.6016 31.4683 90.2166 31.6725 90.6698 32.1025V30.3504C90.1303 30.2859 89.7526 30.1139 88.8139 30.1139C86.5157 30.1139 84.8864 31.823 84.8864 33.9191C84.8864 36.0366 86.5157 37.7457 88.8139 37.7457C89.7311 37.7457 90.1303 37.5845 90.7561 37.477V35.7786C90.2921 36.2086 89.6447 36.4021 88.9542 36.4021C87.5299 36.4021 86.4401 35.284 86.4401 33.9191ZM93.486 30.2537C92.7523 30.2537 91.9106 30.2322 91.5869 30.2107V31.5758C91.9106 31.5541 92.7523 31.5328 93.486 31.5328H93.9607C93.9823 31.9305 93.9931 32.468 93.9931 32.9085V35.6926C93.9931 36.4236 93.9715 37.2835 93.9499 37.6167H95.6116C95.5792 37.2835 95.5577 36.4236 95.5577 35.6926V32.9085C95.5577 32.468 95.5577 31.9305 95.5684 31.5326H96.0432C96.7877 31.5326 97.6401 31.5541 97.9638 31.5758V30.2107C97.6401 30.2322 96.7877 30.2537 96.0432 30.2537H93.486ZM103.575 36.0689C103.575 36.6278 103.564 37.3157 103.542 37.6167H105.172C105.15 37.3157 105.128 36.6278 105.128 36.0581V32.21C105.128 31.5648 105.15 30.6621 105.172 30.0817H104.772C104.298 30.6189 104.028 30.9092 103.553 31.3931L100.456 34.6607V32.1777C100.456 31.565 100.478 30.7049 100.51 30.2537H98.8486C98.8702 30.7266 98.9025 31.5863 98.9025 32.1777V36.0904C98.9025 36.5416 98.8918 37.1545 98.8486 37.778H99.237C99.6794 37.2728 100.187 36.7353 100.607 36.2946L103.575 33.1129V36.0689ZM113.545 36.3161H112.671V32.1704C112.671 31.3858 112.692 30.5134 112.725 30.2537H111.063C111.095 30.6424 111.117 31.5362 111.117 32.1919V36.3483H108.365V32.1812C108.365 31.4503 108.387 30.5779 108.419 30.2537H106.758C106.779 30.5779 106.812 31.4503 106.812 32.1812V35.6389C106.812 36.0904 106.79 37.219 106.758 37.6167H112.002L111.937 39.831H113.264L113.545 36.3161ZM119.328 36.0689C119.328 36.6278 119.317 37.3157 119.296 37.6167H120.925C120.903 37.3157 120.882 36.6278 120.882 36.0581V32.21C120.882 31.5648 120.903 30.6621 120.925 30.0817H120.526C120.051 30.6189 119.781 30.9092 119.306 31.3931L116.21 34.6607V32.1777C116.21 31.565 116.231 30.7049 116.264 30.2537H114.602C114.624 30.7266 114.656 31.5863 114.656 32.1777V36.0904C114.656 36.5416 114.645 37.1545 114.602 37.778H114.99C115.433 37.2728 115.94 36.7353 116.361 36.2946L119.328 33.1129V36.0689ZM127.237 36.0689C127.237 36.6278 127.226 37.3157 127.205 37.6167H128.834C128.812 37.3157 128.791 36.6278 128.791 36.0581V32.21C128.791 31.5648 128.812 30.6621 128.834 30.0817H128.435C127.96 30.6189 127.69 30.9092 127.216 31.3931L124.119 34.6607V32.1777C124.119 31.565 124.14 30.7049 124.173 30.2537H122.511C122.533 30.7266 122.565 31.5863 122.565 32.1777V36.0904C122.565 36.5416 122.554 37.1545 122.511 37.778H122.899C123.342 37.2728 123.849 36.7353 124.27 36.2946L127.237 33.1129L127.237 36.0689ZM125.057 28.4371H123.86C123.892 29.3185 124.636 29.9634 125.888 29.9634C127.151 29.9634 127.895 29.3185 127.927 28.4371H126.719C126.697 28.8133 126.374 29.1035 125.888 29.1035C125.403 29.1035 125.09 28.8133 125.057 28.4371ZM57.5875 48.7264C57.5875 49.4573 57.5659 50.3172 57.5444 50.6504H59.1844C59.1629 50.3172 59.1413 49.4573 59.1413 48.7264V47.4472H59.5945C60.7814 48.9628 61.2453 49.7583 61.7525 50.6504H63.9104C63.1012 49.7475 62.4754 48.5974 61.0187 46.7808C62.238 45.3297 63.0473 43.9861 63.6623 43.2874H61.7632C61.2993 44.0828 60.7166 45.0825 59.7131 46.3186H59.1413V45.2114C59.1413 44.4805 59.1629 43.6098 59.1844 43.2874H57.5444C57.5659 43.6098 57.5875 44.4805 57.5875 45.2114V48.7264ZM66.2303 48.0169H66.9209C68.5825 48.0169 69.5644 47.0495 69.5644 45.6629C69.5644 44.287 68.6041 43.2874 66.9316 43.2874H64.6226C64.655 43.6098 64.6765 44.3838 64.6765 45.1147V48.7264C64.6765 49.4573 64.655 50.3172 64.6226 50.6504H66.2735C66.2411 50.3172 66.2303 49.4573 66.2303 48.7264V48.0169ZM66.2303 44.459H66.7482C67.5683 44.459 67.9999 45.061 67.9999 45.6521C67.9999 46.2326 67.5359 46.8453 66.7482 46.8453H66.2303V44.459ZM76.7074 50.6504C76.4484 50.2097 76.1247 49.6293 75.8334 49.0166L73.0819 43.1584H72.6503L69.9744 49.0166C69.7047 49.64 69.4133 50.1775 69.1436 50.6504H70.7945C70.8916 50.3602 70.9995 50.0807 71.1613 49.7045L71.4958 48.9413H74.0638L74.3983 49.7368C74.5386 50.0592 74.6788 50.4032 74.7652 50.6504H76.7074ZM73.5459 47.6837H72.0137L72.7798 45.8456L73.5459 47.6837ZM78.5201 46.9528C78.5201 45.5984 79.6099 44.502 81.0126 44.502C81.6815 44.502 82.2966 44.7062 82.7498 45.1362V43.3841C82.2103 43.3196 81.8326 43.1476 80.8939 43.1476C78.5956 43.1476 76.9663 44.8567 76.9663 46.9528C76.9663 49.0703 78.5956 50.7794 80.8939 50.7794C81.811 50.7794 82.2103 50.6182 82.8361 50.5107V48.8123C82.3721 49.2423 81.7247 49.4358 81.0341 49.4358C79.6099 49.4358 78.5201 48.3179 78.5201 46.9528ZM85.6954 45.2114C85.6954 44.4483 85.7062 43.5776 85.7278 43.2874H84.0985C84.1201 43.5776 84.1417 44.4483 84.1417 45.2114V49.0918C84.1417 49.6615 84.1201 50.3494 84.0985 50.6504H85.7278C85.7062 50.3494 85.6954 49.6615 85.6954 49.1026V47.3935H88.8353V49.0918C88.8353 49.6615 88.8137 50.3494 88.7921 50.6504H90.443C90.4214 50.3494 90.3891 49.6615 90.3891 49.1026V45.2114C90.3891 44.6202 90.4214 43.7603 90.443 43.2874H88.7921C88.8245 43.7388 88.8353 44.5987 88.8353 45.2114V46.1144H85.6954V45.2114ZM91.7702 46.9635C91.7702 49.0703 93.475 50.7794 95.6977 50.7794C97.942 50.7794 99.6361 49.0703 99.6361 46.9635C99.6361 44.8567 97.942 43.1476 95.6977 43.1476C93.475 43.1476 91.7702 44.8567 91.7702 46.9635ZM93.3455 46.9635C93.3455 45.5769 94.3706 44.459 95.6977 44.459C97.0249 44.459 98.0607 45.5769 98.0607 46.9635C98.0607 48.3501 97.0249 49.468 95.6977 49.468C94.3706 49.468 93.3455 48.3501 93.3455 46.9635ZM108.04 49.339C107.824 49.3605 107.5 49.3605 107.079 49.3605C106.896 49.0166 106.713 48.6296 106.54 48.2426L104.263 43.0401H103.799L101.49 48.2426C101.285 48.6941 101.134 49.0166 100.962 49.3605C100.625 49.3605 100.247 49.3605 100.032 49.339L100.258 52.8647H101.62L101.598 50.6504H106.497L106.421 52.8647H107.759L108.04 49.339ZM105.364 49.3605H102.537L103.961 45.7489L105.364 49.3605ZM116.091 50.6504C115.832 50.2097 115.508 49.6293 115.217 49.0166L112.465 43.1584H112.034L109.358 49.0166C109.088 49.64 108.797 50.1775 108.527 50.6504H110.178C110.275 50.3602 110.383 50.0807 110.545 49.7045L110.879 48.9413H113.447L113.782 49.7368C113.922 50.0592 114.062 50.4032 114.149 50.6504H116.091ZM112.929 47.6837H111.397L112.163 45.8456L112.929 47.6837ZM118.465 48.0169H119.155C120.817 48.0169 121.799 47.0495 121.799 45.6629C121.799 44.287 120.838 43.2874 119.166 43.2874H116.857C116.889 43.6098 116.911 44.3838 116.911 45.1147V48.7264C116.911 49.4573 116.889 50.3172 116.857 50.6504H118.508C118.475 50.3172 118.465 49.4573 118.465 48.7264V48.0169ZM118.465 44.459H118.983C119.803 44.459 120.234 45.061 120.234 45.6521C120.234 46.2326 119.77 46.8453 118.983 46.8453H118.465V44.459ZM124.324 46.9528C124.324 45.5984 125.413 44.502 126.816 44.502C127.485 44.502 128.1 44.7062 128.553 45.1362V43.3841C128.014 43.3196 127.636 43.1476 126.697 43.1476C124.399 43.1476 122.77 44.8567 122.77 46.9528C122.77 49.0703 124.399 50.7794 126.697 50.7794C127.614 50.7794 128.014 50.6182 128.64 50.5107V48.8123C128.176 49.2423 127.528 49.4358 126.838 49.4358C125.413 49.4358 124.324 48.3179 124.324 46.9528ZM129.924 48.7264C129.924 49.4573 129.902 50.3172 129.88 50.6504H131.52C131.499 50.3172 131.477 49.4573 131.477 48.7264V47.4472H131.931C133.118 48.9628 133.582 49.7583 134.089 50.6504H136.247C135.437 49.7475 134.812 48.5974 133.355 46.7808C134.574 45.3297 135.383 43.9861 135.998 43.2874H134.099C133.635 44.0828 133.053 45.0825 132.049 46.3186H131.477V45.2114C131.477 44.4805 131.499 43.6098 131.52 43.2874H129.88C129.902 43.6098 129.924 44.4805 129.924 45.2114V48.7264ZM136.301 46.9635C136.301 49.0703 138.005 50.7794 140.228 50.7794C142.472 50.7794 144.167 49.0703 144.167 46.9635C144.167 44.8567 142.472 43.1476 140.228 43.1476C138.005 43.1476 136.301 44.8567 136.301 46.9635ZM137.876 46.9635C137.876 45.5769 138.901 44.459 140.228 44.459C141.555 44.459 142.591 45.5769 142.591 46.9635C142.591 48.3501 141.555 49.468 140.228 49.468C138.901 49.468 137.876 48.3501 137.876 46.9635ZM145.461 50.6504H147.112C147.091 50.3172 147.069 49.4573 147.069 48.7264V44.6095H148.375C149.108 44.6095 149.605 44.6203 149.939 44.6525V43.2336C149.605 43.2551 149.108 43.2874 148.375 43.2874H145.461C145.483 43.6098 145.504 44.4698 145.504 45.2114V48.7264C145.504 49.4573 145.483 50.3172 145.461 50.6504ZM150.317 46.9635C150.317 49.0703 152.022 50.7794 154.244 50.7794C156.489 50.7794 158.183 49.0703 158.183 46.9635C158.183 44.8567 156.489 43.1476 154.244 43.1476C152.022 43.1476 150.317 44.8567 150.317 46.9635ZM151.892 46.9635C151.892 45.5769 152.917 44.459 154.244 44.459C155.572 44.459 156.607 45.5769 156.607 46.9635C156.607 48.3501 155.572 49.468 154.244 49.468C152.917 49.468 151.892 48.3501 151.892 46.9635ZM161.668 48.7264C161.668 49.4573 161.646 50.3172 161.625 50.6504H163.265C163.243 50.3172 163.222 49.4573 163.222 48.7264V47.4472H163.675C164.862 48.9628 165.326 49.7583 165.833 50.6504H167.991C167.182 49.7475 166.556 48.5974 165.099 46.7808C166.318 45.3297 167.128 43.9861 167.743 43.2874H165.844C165.38 44.0828 164.797 45.0825 163.793 46.3186H163.222V45.2114C163.222 44.4805 163.243 43.6098 163.265 43.2874H161.625C161.646 43.6098 161.668 44.4805 161.668 45.2114V48.7264ZM170.311 48.0169H171.001C172.663 48.0169 173.645 47.0495 173.645 45.6629C173.645 44.287 172.684 43.2874 171.012 43.2874H168.703C168.735 43.6098 168.757 44.3838 168.757 45.1147V48.7264C168.757 49.4573 168.735 50.3172 168.703 50.6504H170.354C170.321 50.3172 170.311 49.4573 170.311 48.7264V48.0169ZM170.311 44.459H170.829C171.649 44.459 172.08 45.061 172.08 45.6521C172.08 46.2326 171.616 46.8453 170.829 46.8453H170.311V44.459ZM180.788 50.6504C180.529 50.2097 180.205 49.6293 179.914 49.0166L177.162 43.1584H176.731L174.055 49.0166C173.785 49.64 173.494 50.1775 173.224 50.6504H174.875C174.972 50.3602 175.08 50.0807 175.242 49.7045L175.576 48.9413H178.144L178.479 49.7368C178.619 50.0592 178.759 50.4032 178.846 50.6504H180.788ZM177.626 47.6837H176.094L176.86 45.8456L177.626 47.6837ZM185.201 48.7532C185.201 49.4824 185.179 50.3172 185.147 50.6504H186.809C186.776 50.3172 186.755 49.4824 186.755 48.7532V45.2132C186.755 44.4805 186.776 43.6098 186.809 43.2874H184.597C182.784 43.2874 181.824 44.2548 181.824 45.5913C181.824 46.7986 182.439 47.338 183.086 47.6192C182.352 48.6367 181.78 49.8245 181.025 50.6504H182.816C183.291 50.0162 183.96 48.5866 184.489 47.8342C184.618 47.8449 184.726 47.8449 184.823 47.8449H185.201V48.7532ZM185.201 46.727H184.543C183.874 46.727 183.388 46.2218 183.388 45.5877C183.388 45.0395 183.787 44.5128 184.564 44.5128H185.201V46.727ZM64.3528 11.5491C64.0939 11.1084 63.7702 10.528 63.4789 9.91527L60.7274 4.05707H60.2958L57.6199 9.91527C57.3501 10.5387 57.0588 11.0762 56.7891 11.5491H58.4399C58.537 11.2589 58.6449 10.9794 58.8068 10.6032L59.1413 9.84002H61.7093L62.0438 10.6354C62.1841 10.9579 62.3243 11.3019 62.4106 11.5491H64.3528ZM61.1914 8.58239H59.6592L60.4253 6.74432L61.1914 8.58239ZM65.1081 11.5491H66.759C66.7374 11.2159 66.7158 10.356 66.7158 9.62504V5.50819H68.0214C68.7551 5.50819 69.2515 5.51894 69.586 5.55118V4.13232C69.2515 4.15382 68.7551 4.18606 68.0214 4.18606H65.1081C65.1297 4.50853 65.1513 5.36845 65.1513 6.11013V9.62504C65.1513 10.356 65.1297 11.2159 65.1081 11.5491ZM72.8122 5.46519C73.5459 5.46519 74.3228 5.47594 74.6573 5.50819V4.13232C74.3228 4.15382 73.5459 4.18606 72.8122 4.18606H70.5031C70.5247 4.50853 70.5463 5.3577 70.5463 6.09938V9.62504C70.5463 10.1087 70.5247 10.9579 70.5031 11.5491H72.8985C73.643 11.5491 74.4199 11.5706 74.7436 11.5921V10.227C74.4199 10.2485 73.643 10.2592 72.8985 10.2592H72.1108V8.34592H72.7259C73.4596 8.34592 74.1717 8.36741 74.5062 8.38891V7.02379C74.1717 7.04529 73.4596 7.06679 72.7259 7.06679H72.1108V5.46519H72.8122ZM77.6569 6.11013C77.6569 5.34695 77.6677 4.47628 77.6893 4.18606H76.06C76.0815 4.47628 76.1031 5.34695 76.1031 6.11013V9.99051C76.1031 10.5602 76.0815 11.2481 76.06 11.5491H77.6893C77.6677 11.2481 77.6569 10.5602 77.6569 10.0013V8.29217H80.7968V9.99051C80.7968 10.5602 80.7752 11.2481 80.7536 11.5491H82.4045C82.3829 11.2481 82.3505 10.5602 82.3505 10.0013V6.11013C82.3505 5.51893 82.3829 4.65902 82.4045 4.18606H80.7536C80.786 4.63752 80.7968 5.49744 80.7968 6.11013V7.01304H77.6569V6.11013ZM85.2314 4.18606C84.4977 4.18606 83.6561 4.16456 83.3324 4.14307V5.50819C83.6561 5.48669 84.4977 5.46519 85.2314 5.46519H85.7062C85.7278 5.8629 85.7386 6.40035 85.7386 6.84106V9.62504C85.7386 10.356 85.717 11.2159 85.6954 11.5491H87.3571C87.3247 11.2159 87.3031 10.356 87.3031 9.62504V6.84106C87.3031 6.40035 87.3031 5.8629 87.3139 5.46519H87.7887C88.5332 5.46519 89.3856 5.48669 89.7093 5.50819V4.14307C89.3856 4.16456 88.5332 4.18606 87.7887 4.18606H85.2314ZM91.6299 7.85146C91.6299 6.49709 92.7197 5.4007 94.1224 5.4007C94.7914 5.4007 95.4064 5.60493 95.8596 6.03489V4.2828C95.3201 4.21831 94.9424 4.04633 94.0037 4.04633C91.7054 4.04633 90.0762 5.75541 90.0762 7.85146C90.0762 9.96901 91.7054 11.6781 94.0037 11.6781C94.9208 11.6781 95.3201 11.5169 95.9459 11.4094V9.71103C95.4819 10.141 94.8345 10.3345 94.144 10.3345C92.7197 10.3345 91.6299 9.21658 91.6299 7.85146ZM98.6758 4.18606C97.9421 4.18606 97.1004 4.16456 96.7767 4.14307V5.50819C97.1004 5.48669 97.9421 5.46519 98.6758 5.46519H99.1505C99.1721 5.8629 99.1829 6.40035 99.1829 6.84106V9.62504C99.1829 10.356 99.1613 11.2159 99.1397 11.5491H100.801C100.769 11.2159 100.747 10.356 100.747 9.62504V6.84106C100.747 6.40035 100.747 5.8629 100.758 5.46519H101.233C101.977 5.46519 102.83 5.48669 103.154 5.50819V4.14307C102.83 4.16456 101.977 4.18606 101.233 4.18606H98.6758ZM104.06 11.5491H106.315C108.171 11.5491 109.11 10.4957 109.11 9.29183C109.11 8.29217 108.419 7.64723 107.739 7.40001C108.257 7.17428 108.635 6.65833 108.635 5.97039C108.635 5.09973 107.998 4.18606 106.261 4.18606H104.071C104.103 4.50853 104.114 5.63717 104.114 6.37885V9.62504C104.114 10.356 104.092 11.2159 104.06 11.5491ZM107.534 9.24883C107.534 9.94751 106.995 10.3237 106.186 10.3237H105.668V8.16318H106.261C107.006 8.16318 107.534 8.5609 107.534 9.24883ZM105.668 5.3362H106.099C106.693 5.3362 107.124 5.65867 107.124 6.18537C107.124 6.73357 106.714 7.03454 106.196 7.03454H105.668V5.3362ZM110.038 7.86221C110.038 9.96901 111.742 11.6781 113.965 11.6781C116.209 11.6781 117.904 9.96901 117.904 7.86221C117.904 5.75541 116.209 4.04633 113.965 4.04633C111.742 4.04633 110.038 5.75541 110.038 7.86221ZM111.613 7.86221C111.613 6.47559 112.638 5.3577 113.965 5.3577C115.292 5.3577 116.328 6.47559 116.328 7.86221C116.328 9.24883 115.292 10.3667 113.965 10.3667C112.638 10.3667 111.613 9.24883 111.613 7.86221ZM57.5552 17.2198C57.5875 17.6175 57.6091 18.7569 57.6091 19.1976V22.6588C57.6091 23.3897 57.5767 24.2496 57.5552 24.5828H59.2168C59.1844 24.2496 59.1629 23.3897 59.1629 22.6588V18.5096H62.0869V22.6588C62.0869 23.3144 62.0762 24.1851 62.0438 24.5828H63.6946C63.6731 24.3248 63.6515 23.4434 63.6515 22.6695V19.1116C63.6515 18.6171 63.6623 17.5422 63.6946 17.2198H57.5552ZM65.0218 20.8959C65.0218 23.0027 66.7266 24.7118 68.9494 24.7118C71.1937 24.7118 72.8877 23.0027 72.8877 20.8959C72.8877 18.7891 71.1937 17.08 68.9494 17.08C66.7266 17.08 65.0218 18.7891 65.0218 20.8959ZM66.5972 20.8959C66.5972 19.5093 67.6222 18.3914 68.9494 18.3914C70.2765 18.3914 71.3124 19.5093 71.3124 20.8959C71.3124 22.2825 70.2765 23.4004 68.9494 23.4004C67.6222 23.4004 66.5972 22.2825 66.5972 20.8959ZM76.3405 17.2198C76.3729 17.6175 76.3945 18.7569 76.3945 19.1976V22.6588C76.3945 23.3897 76.3621 24.2496 76.3405 24.5828H78.0022C77.9698 24.2496 77.9482 23.3897 77.9482 22.6588V18.5096H80.8723V22.6588C80.8723 23.3144 80.8615 24.1851 80.8291 24.5828H82.48C82.4584 24.3248 82.4368 23.4434 82.4368 22.6695V19.1116C82.4368 18.6171 82.4476 17.5422 82.48 17.2198H76.3405ZM85.6954 21.9493H86.386C88.0476 21.9493 89.0295 20.9819 89.0295 19.5953C89.0295 18.2194 88.0692 17.2198 86.3968 17.2198H84.0877C84.1201 17.5422 84.1417 18.3162 84.1417 19.0471V22.6588C84.1417 23.3897 84.1201 24.2496 84.0877 24.5828H85.7386C85.7062 24.2496 85.6954 23.3897 85.6954 22.6588V21.9493ZM85.6954 18.3914H86.2133C87.0334 18.3914 87.465 18.9933 87.465 19.5845C87.465 20.165 87.001 20.7777 86.2133 20.7777H85.6954V18.3914ZM94.8885 23.035C94.8885 23.5939 94.8777 24.2818 94.8561 24.5828H96.4854C96.4638 24.2818 96.4422 23.5939 96.4422 23.0242V19.1761C96.4422 18.5311 96.4638 17.6282 96.4854 17.0478H96.0862C95.6114 17.5852 95.3417 17.8755 94.8669 18.3592L91.7702 21.6268V19.1438C91.7702 18.5311 91.7918 17.6712 91.8241 17.2198H90.1625C90.1841 17.6927 90.2164 18.5526 90.2164 19.1438V23.0565C90.2164 23.5079 90.2056 24.1206 90.1625 24.7441H90.5509C90.9933 24.2388 91.5004 23.7014 91.9212 23.2607L94.8885 20.079V23.035ZM98.0931 24.5828H100.348C102.204 24.5828 103.143 23.5294 103.143 22.3255C103.143 21.3259 102.452 20.6809 101.772 20.4337C102.29 20.208 102.668 19.692 102.668 19.0041C102.668 18.1334 102.031 17.2198 100.294 17.2198H98.1039C98.1363 17.5422 98.1471 18.6709 98.1471 19.4126V22.6588C98.1471 23.3897 98.1255 24.2496 98.0931 24.5828ZM101.567 22.2825C101.567 22.9812 101.028 23.3574 100.219 23.3574H99.7008V21.1969H100.294C101.039 21.1969 101.567 21.5946 101.567 22.2825ZM99.7008 18.3699H100.132C100.726 18.3699 101.157 18.6924 101.157 19.2191C101.157 19.7673 100.747 20.0682 100.23 20.0682H99.7008V18.3699ZM108.462 23.2392C108.657 23.7659 108.818 24.2281 108.915 24.5828H110.89C110.609 24.1529 110.329 23.5187 110.07 22.949L107.448 16.9725H107.06L104.405 22.949C104.146 23.5187 103.866 24.1529 103.596 24.5828H105.29C105.387 24.2926 105.506 23.9701 105.635 23.6262C106.11 22.4438 106.617 21.2184 107.157 20.0145C107.642 21.2076 108.009 22.0676 108.462 23.2392ZM113.954 18.4989C114.688 18.4989 115.465 18.5096 115.799 18.5419V17.166C115.465 17.1875 114.688 17.2198 113.954 17.2198H111.645C111.667 17.5422 111.688 18.3914 111.688 19.1331V22.6588C111.688 23.1425 111.667 23.9916 111.645 24.5828H114.041C114.785 24.5828 115.562 24.6043 115.886 24.6258V23.2607C115.562 23.2822 114.785 23.2929 114.041 23.2929H113.253V21.3796H113.868C114.602 21.3796 115.314 21.4011 115.648 21.4226V20.0575C115.314 20.079 114.602 20.1005 113.868 20.1005H113.253V18.4989H113.954ZM118.605 19.3373V18.3484C118.605 18.0367 118.616 17.5207 118.648 17.2198H117.019C117.041 17.5207 117.051 18.0367 117.051 18.3484V19.735C117.051 21.2184 118.173 21.9493 119.554 21.9493C120.31 21.9493 120.871 21.8203 121.216 21.6698V23.4542C121.216 23.8411 121.205 24.3356 121.173 24.5828H122.813C122.791 24.3248 122.77 23.7766 122.77 23.3682V18.3484C122.77 18.0367 122.781 17.5207 122.802 17.2198H121.173C121.205 17.5207 121.216 18.0367 121.216 18.3484V20.3907C120.871 20.5734 120.418 20.6379 119.932 20.6379C119.241 20.6379 118.605 20.2617 118.605 19.3373ZM126.708 18.4989C127.442 18.4989 128.219 18.5096 128.553 18.5419V17.166C128.219 17.1875 127.442 17.2198 126.708 17.2198H124.399C124.421 17.5422 124.442 18.3914 124.442 19.1331V22.6588C124.442 23.1425 124.421 23.9916 124.399 24.5828H126.794C127.539 24.5828 128.316 24.6043 128.64 24.6258V23.2607C128.316 23.2822 127.539 23.2929 126.794 23.2929H126.007V21.3796H126.622C127.356 21.3796 128.068 21.4011 128.402 21.4226V20.0575C128.068 20.079 127.356 20.1005 126.622 20.1005H126.007V18.4989H126.708ZM131.553 19.1438C131.553 18.3807 131.564 17.51 131.585 17.2198H129.956C129.977 17.51 129.999 18.3807 129.999 19.1438V23.0242C129.999 23.5939 129.977 24.2818 129.956 24.5828H131.585C131.564 24.2818 131.553 23.5939 131.553 23.035V21.3259H134.693V23.0242C134.693 23.5939 134.671 24.2818 134.65 24.5828H136.301C136.279 24.2818 136.247 23.5939 136.247 23.035V19.1438C136.247 18.5526 136.279 17.6927 136.301 17.2198H134.65C134.682 17.6712 134.693 18.5311 134.693 19.1438V20.0467H131.553V19.1438ZM142.613 23.035C142.613 23.5939 142.602 24.2818 142.58 24.5828H144.21C144.188 24.2818 144.167 23.5939 144.167 23.0242V19.1761C144.167 18.5311 144.188 17.6282 144.21 17.0478H143.81C143.336 17.5852 143.066 17.8755 142.591 18.3592L139.494 21.6268V19.1438C139.494 18.5311 139.516 17.6712 139.548 17.2198H137.887C137.908 17.6927 137.941 18.5526 137.941 19.1438V23.0565C137.941 23.5079 137.93 24.1206 137.887 24.7441H138.275C138.717 24.2388 139.225 23.7014 139.646 23.2607L142.613 20.079V23.035ZM147.404 19.1438C147.404 18.4129 147.425 17.5422 147.447 17.2198H145.807C145.828 17.5422 145.85 18.4129 145.85 19.1438V22.6588C145.85 23.3897 145.828 24.2496 145.807 24.5828H147.447C147.425 24.2496 147.404 23.3897 147.404 22.6588V21.6053H148.504C148.806 23.3467 150.198 24.6581 152.076 24.6581C154.223 24.6581 155.723 22.9705 155.723 20.8959C155.723 18.8214 154.223 17.1338 152.076 17.1338C150.155 17.1338 148.741 18.5096 148.493 20.3047H147.404V19.1438ZM150.036 20.8959C150.036 19.5415 150.856 18.4452 152.076 18.4452C153.316 18.4452 154.126 19.5415 154.126 20.8959C154.126 22.2503 153.316 23.3467 152.076 23.3467C150.856 23.3467 150.036 22.2503 150.036 20.8959Z" fill="white"/>
<path fill-rule="evenodd" clip-rule="evenodd" d="M0.740234 55.9552V26.883L3.82521 23.5021L3.8254 52.5742L0.740234 55.9552ZM6.53137 20.5365L9.40709 17.385V46.4573L6.53137 49.6085V20.5365ZM12.1131 14.4192L14.8899 11.3761V40.4482L12.1131 43.4912V14.4192ZM17.5961 8.41054L20.636 5.07913V18.1531L23.1414 21.2306L20.636 24.6018V34.1511L17.5961 37.4825V8.41054ZM23.342 2.11337L25.0003 0.295837L26.6607 2.11549V17.1976L25.0003 19.0908L23.342 17.1976V2.11337ZM23.342 25.2636L25.0003 23.3704L26.6607 25.2636V31.1874L25.0003 29.3678L23.342 31.1853V25.2636ZM26.626 21.2306L29.367 18.1531V5.08124L32.4046 8.41035V37.4825L29.367 34.1534V24.5975L26.626 21.2306ZM35.1109 11.3759L38.1021 14.654V43.7263L35.1109 40.4481V11.3759ZM40.8083 17.6197L43.6156 20.6966V49.7688L40.8083 46.6919V17.6197ZM46.3219 23.6624L49.2605 26.883V55.9552L46.3219 52.7345V23.6624Z" fill="#C9072E"/>
<path d="M1093.28 29.6797L1096.97 31.0557L1098.4 35.6449C1098.49 35.9388 1098.85 36.0474 1099.09 35.8524L1101.14 34.1771C1101.36 34.0016 1101.66 33.9928 1101.89 34.1562L1105.59 36.8473C1105.85 37.0328 1106.21 36.8929 1106.28 36.5846L1108.99 23.5237C1109.06 23.1869 1108.73 22.9058 1108.41 23.0299L1093.28 28.8667C1092.9 29.0107 1092.91 29.5394 1093.28 29.6797ZM1098.17 30.3232L1105.37 25.8855C1105.5 25.806 1105.63 25.9811 1105.52 26.0842L1099.58 31.6117C1099.37 31.8063 1099.23 32.0666 1099.19 32.3493L1098.99 33.8504C1098.97 34.0508 1098.68 34.0707 1098.63 33.8767L1097.85 31.1394C1097.76 30.8272 1097.89 30.4937 1098.17 30.3232Z" fill="white"/>
<g clip-path="url(#clip0_901_50)">
<path d="M1156.92 33.6798C1156.9 33.6381 1156.88 33.6035 1156.86 33.5757C1156.58 33.0757 1156.05 32.4621 1155.27 31.7345L1155.25 31.7179L1155.25 31.7097L1155.24 31.7013H1155.23C1154.87 31.3625 1154.65 31.1347 1154.55 31.0181C1154.38 30.7959 1154.34 30.5711 1154.44 30.3432C1154.5 30.1711 1154.75 29.8075 1155.19 29.2521C1155.41 28.9577 1155.59 28.7217 1155.73 28.544C1156.69 27.2666 1157.11 26.4503 1156.98 26.0948L1156.93 26.0117C1156.89 25.9617 1156.81 25.916 1156.67 25.8743C1156.53 25.8326 1156.35 25.8257 1156.14 25.8535L1153.74 25.8701C1153.7 25.8563 1153.64 25.8576 1153.57 25.8743C1153.5 25.8909 1153.46 25.8993 1153.46 25.8993L1153.42 25.9202L1153.39 25.9452C1153.36 25.9618 1153.33 25.991 1153.3 26.0326C1153.26 26.0742 1153.23 26.1229 1153.21 26.1784C1152.95 26.8504 1152.65 27.4752 1152.32 28.0527C1152.12 28.3971 1151.93 28.6956 1151.75 28.9483C1151.58 29.2009 1151.44 29.3871 1151.32 29.5064C1151.2 29.6258 1151.1 29.7215 1151 29.7937C1150.91 29.866 1150.84 29.8966 1150.79 29.8854C1150.74 29.8742 1150.69 29.8632 1150.65 29.8521C1150.57 29.8021 1150.51 29.734 1150.46 29.648C1150.41 29.5619 1150.38 29.4536 1150.36 29.323C1150.35 29.1924 1150.34 29.0801 1150.33 28.9857C1150.33 28.8913 1150.33 28.7579 1150.34 28.5857C1150.34 28.4135 1150.35 28.297 1150.35 28.2359C1150.35 28.0248 1150.35 27.7957 1150.36 27.5486C1150.37 27.3014 1150.37 27.1056 1150.38 26.9614C1150.39 26.817 1150.39 26.6642 1150.39 26.5031C1150.39 26.3421 1150.38 26.2158 1150.36 26.1241C1150.34 26.0325 1150.31 25.9436 1150.27 25.8575C1150.23 25.7714 1150.18 25.7048 1150.1 25.6576C1150.03 25.6103 1149.93 25.5729 1149.82 25.545C1149.53 25.4784 1149.15 25.4424 1148.7 25.4368C1147.66 25.4257 1147 25.4924 1146.71 25.6368C1146.59 25.6978 1146.48 25.7812 1146.39 25.8866C1146.29 26.0089 1146.28 26.0756 1146.35 26.0865C1146.68 26.1365 1146.92 26.2559 1147.06 26.4447L1147.11 26.5447C1147.15 26.6169 1147.18 26.7447 1147.22 26.928C1147.26 27.1112 1147.29 27.3139 1147.3 27.5359C1147.33 27.9414 1147.33 28.2885 1147.3 28.5773C1147.27 28.8661 1147.24 29.091 1147.22 29.2521C1147.19 29.4131 1147.16 29.5437 1147.11 29.6436C1147.06 29.7436 1147.02 29.8047 1147.01 29.8268C1146.99 29.849 1146.98 29.863 1146.96 29.8685C1146.89 29.8961 1146.82 29.9102 1146.74 29.9102C1146.66 29.9102 1146.57 29.8713 1146.46 29.7935C1146.35 29.7157 1146.23 29.6089 1146.11 29.4728C1145.99 29.3367 1145.86 29.1465 1145.71 28.9021C1145.56 28.6578 1145.4 28.369 1145.24 28.0358L1145.11 27.7941C1145.02 27.6387 1144.91 27.4123 1144.77 27.1153C1144.62 26.8181 1144.49 26.5306 1144.38 26.2529C1144.34 26.1363 1144.27 26.0475 1144.18 25.9864L1144.14 25.9614C1144.11 25.9392 1144.07 25.9156 1144.01 25.8905C1143.95 25.8655 1143.88 25.8475 1143.82 25.8364L1141.53 25.853C1141.3 25.853 1141.14 25.9059 1141.06 26.0114L1141.03 26.0613C1141.01 26.0891 1141 26.1335 1141 26.1947C1141 26.2558 1141.02 26.3307 1141.05 26.4195C1141.38 27.2027 1141.75 27.9579 1142.14 28.6855C1142.53 29.413 1142.87 29.999 1143.16 30.4431C1143.45 30.8874 1143.74 31.3068 1144.04 31.701C1144.34 32.0953 1144.54 32.348 1144.64 32.4591C1144.73 32.5703 1144.81 32.6535 1144.87 32.709L1145.07 32.9089C1145.21 33.0422 1145.4 33.2019 1145.66 33.3879C1145.92 33.574 1146.21 33.7572 1146.52 33.9379C1146.83 34.1182 1147.2 34.2654 1147.61 34.3792C1148.03 34.4932 1148.44 34.5389 1148.83 34.5168H1149.79C1149.98 34.5 1150.13 34.4389 1150.23 34.3335L1150.26 34.2917C1150.29 34.2586 1150.31 34.2071 1150.33 34.1378C1150.35 34.0684 1150.36 33.9919 1150.36 33.9087C1150.35 33.67 1150.37 33.4548 1150.41 33.2632C1150.45 33.0717 1150.5 32.9273 1150.55 32.83C1150.6 32.7328 1150.66 32.6509 1150.73 32.5844C1150.8 32.5178 1150.84 32.4774 1150.87 32.4635C1150.9 32.4496 1150.92 32.4401 1150.94 32.4344C1151.07 32.39 1151.23 32.433 1151.41 32.5636C1151.59 32.6941 1151.76 32.8553 1151.92 33.0468C1152.08 33.2385 1152.27 33.4536 1152.49 33.6923C1152.71 33.9312 1152.9 34.1087 1153.07 34.2255L1153.24 34.3255C1153.35 34.3922 1153.49 34.4533 1153.67 34.5088C1153.85 34.5643 1154 34.5782 1154.14 34.5505L1156.27 34.5172C1156.48 34.5172 1156.64 34.4823 1156.76 34.413C1156.88 34.3436 1156.95 34.2671 1156.97 34.1839C1156.99 34.1006 1156.99 34.0061 1156.97 33.9005C1156.95 33.7952 1156.93 33.7215 1156.92 33.6798Z" fill="white"/>
</g>
<path d="M1197.9 26.2502H1189V36.0002H1191.48V32.8281H1196.22L1198.39 36.0002H1201.16L1198.77 32.8136C1199.51 32.6966 1200.05 32.4189 1200.37 31.9803C1200.7 31.5418 1200.86 30.8402 1200.86 29.9046V29.1738C1200.86 28.6182 1200.8 28.1797 1200.7 27.8435C1200.6 27.5073 1200.42 27.2149 1200.17 26.9518C1199.9 26.7033 1199.6 26.5279 1199.25 26.411C1198.89 26.3087 1198.45 26.2502 1197.9 26.2502ZM1197.5 30.6793H1191.48V28.399H1197.5C1197.84 28.399 1198.08 28.4575 1198.19 28.5598C1198.31 28.6621 1198.39 28.8521 1198.39 29.1299V29.9485C1198.39 30.2409 1198.31 30.4309 1198.19 30.5332C1198.08 30.6355 1197.84 30.6793 1197.5 30.6793Z" fill="white"/>
<path d="M1203.4 26.25C1204.28 26.25 1205 25.5225 1205 24.625C1205 23.7275 1204.28 23 1203.4 23C1202.52 23 1201.8 23.7275 1201.8 24.625C1201.8 25.5225 1202.52 26.25 1203.4 26.25Z" fill="white"/>
<path d="M1248.28 33.2486C1248.28 33.2486 1248.19 33.2665 1248.08 33.34C1248.03 33.0025 1247.96 32.0852 1247.93 31.851C1248.04 31.7558 1248.2 31.5664 1248.31 31.4128C1248.41 31.2592 1248.72 30.2369 1248.81 29.7961C1248.86 29.8069 1248.98 29.9026 1249.11 29.8275C1249.24 29.7517 1249.34 29.4234 1249.43 29.2033C1249.5 29.0183 1249.69 28.3194 1249.73 28.0392C1249.78 27.7591 1249.87 27.3923 1249.76 27.2852C1249.69 27.2073 1249.54 27.0256 1249.2 27.189C1249.26 26.6713 1249.26 25.1038 1249.11 24.1118C1248.95 23.1198 1248.33 22.5307 1247.64 21.9055C1246.95 21.2802 1245.65 21 1245 21C1244.35 21 1243.05 21.2802 1242.36 21.9055C1241.67 22.5307 1241.05 23.1198 1240.89 24.1118C1240.74 25.1038 1240.73 26.6713 1240.8 27.189C1240.45 27.0256 1240.31 27.2079 1240.23 27.2852C1240.12 27.3923 1240.22 27.7585 1240.26 28.0392C1240.31 28.3194 1240.5 29.0188 1240.57 29.2033C1240.65 29.4234 1240.76 29.7517 1240.89 29.8275C1241.02 29.9026 1241.14 29.8069 1241.19 29.7961C1241.27 30.2369 1241.59 31.2592 1241.69 31.4128C1241.8 31.5664 1241.96 31.7558 1242.06 31.851C1242.04 32.0852 1241.97 33.0025 1241.92 33.34C1241.81 33.2665 1241.72 33.2486 1241.72 33.2486C1241.72 33.2486 1237.7 34.7778 1237 35.2364C1238.9 37.5347 1241.78 39 1245 39C1248.22 39 1251.1 37.5342 1253 35.2364C1252.3 34.7778 1248.28 33.2486 1248.28 33.2486Z" fill="white"/>
<path d="M1285.6 24.9H1290.84V26.564H1287.38V28.488H1290.37V30.165H1287.38V32.336H1290.84V34H1285.6V24.9ZM1298.61 24.9H1300.4V34H1298.61L1294.87 28.501L1294.52 27.903V34H1292.73V24.9H1294.5L1298.23 30.412L1298.61 31.036V24.9Z" fill="white"/>
<rect x="959" y="23" width="18" height="2" fill="white"/>
<rect x="959" y="29" width="18" height="2" fill="white"/>
<rect x="959" y="35" width="18" height="2" fill="white"/>
<rect x="1059.57" y="30.7464" width="6.26282" height="2.58193" transform="rotate(45 1059.57 30.7464)" fill="white"/>
<path fill-rule="evenodd" clip-rule="evenodd" d="M1055.16 33.3277C1058.02 33.3277 1060.33 31.0158 1060.33 28.1639C1060.33 25.3119 1058.02 23 1055.16 23C1052.31 23 1050 25.3119 1050 28.1639C1050 31.0158 1052.31 33.3277 1055.16 33.3277ZM1055.16 30.7458C1056.59 30.7458 1057.75 29.5898 1057.75 28.1639C1057.75 26.7379 1056.59 25.5819 1055.16 25.5819C1053.74 25.5819 1052.58 26.7379 1052.58 28.1639C1052.58 29.5898 1053.74 30.7458 1055.16 30.7458Z" fill="white"/>
<rect x="549" y="11" width="93" height="38" rx="19" stroke="#A21A2D" stroke-width="2"/>
<defs>
<clipPath id="clip0_901_50">
<rect width="16" height="16" fill="white" transform="translate(1141 22)"/>
</clipPath>
</defs>
</svg>
