<svg width="607" height="78" viewBox="0 0 607 78" fill="none" xmlns="http://www.w3.org/2000/svg">
<path d="M24.44 34H20.84V8.6H11.8C11.56 10.5733 11.2933 12.6533 11 14.84C10.7067 17 10.4133 19.0667 10.12 21.04C9.82667 23.0133 9.53333 24.6933 9.24 26.08C8.89333 27.8933 8.46667 29.4267 7.96 30.68C7.45333 31.9067 6.77333 32.84 5.92 33.48C5.09333 34.12 4 34.44 2.64 34.44C2.18667 34.44 1.72 34.3867 1.24 34.28C0.786667 34.2 0.386667 34.0933 0.04 33.96V30.96C0.333333 31.0933 0.666667 31.2133 1.04 31.32C1.41333 31.4 1.81333 31.44 2.24 31.44C3.04 31.44 3.66667 31.12 4.12 30.48C4.6 29.8133 4.96 29 5.2 28.04C5.46667 27.0533 5.70667 26.08 5.92 25.12C6.13333 24.1067 6.38667 22.6267 6.68 20.68C7 18.7067 7.33333 16.4133 7.68 13.8C8.05333 11.1867 8.42667 8.4 8.8 5.44H24.44V34ZM50.3603 23.24C50.3603 26.7867 49.4536 29.5333 47.6403 31.48C45.8536 33.4267 43.427 34.4 40.3603 34.4C38.467 34.4 36.7736 33.9733 35.2803 33.12C33.8136 32.24 32.6536 30.9733 31.8003 29.32C30.947 27.64 30.5203 25.6133 30.5203 23.24C30.5203 19.6933 31.4003 16.96 33.1603 15.04C34.947 13.12 37.387 12.16 40.4803 12.16C42.4003 12.16 44.107 12.6 45.6003 13.48C47.0936 14.3333 48.2536 15.5867 49.0803 17.24C49.9336 18.8667 50.3603 20.8667 50.3603 23.24ZM34.1603 23.24C34.1603 25.7733 34.6536 27.7867 35.6403 29.28C36.6536 30.7467 38.2536 31.48 40.4403 31.48C42.6003 31.48 44.187 30.7467 45.2003 29.28C46.2136 27.7867 46.7203 25.7733 46.7203 23.24C46.7203 20.7067 46.2136 18.72 45.2003 17.28C44.187 15.84 42.587 15.12 40.4003 15.12C38.2136 15.12 36.627 15.84 35.6403 17.28C34.6536 18.72 34.1603 20.7067 34.1603 23.24ZM69.0191 12.56V15.52H59.4591V34H55.9391V12.56H69.0191ZM76.5638 12.56V25.64C76.5638 25.9867 76.5504 26.48 76.5238 27.12C76.4971 27.7333 76.4571 28.3733 76.4038 29.04C76.3771 29.68 76.3504 30.1733 76.3238 30.52L87.8038 12.56H92.1238V34H88.8438V21.36C88.8438 20.9333 88.8438 20.3733 88.8438 19.68C88.8704 18.9867 88.8971 18.3067 88.9238 17.64C88.9504 16.9467 88.9771 16.4267 89.0038 16.08L77.6038 34H73.2438V12.56H76.5638ZM107.547 34.4C105.627 34.4 103.934 34.0133 102.467 33.24C101 32.4667 99.8402 31.2667 98.9869 29.64C98.1602 28.0133 97.7469 25.9333 97.7469 23.4C97.7469 20.76 98.1735 18.6133 99.0269 16.96C99.9069 15.3067 101.107 14.0933 102.627 13.32C104.147 12.5467 105.867 12.16 107.787 12.16C108.854 12.16 109.894 12.28 110.907 12.52C111.947 12.7333 112.787 13 113.427 13.32L112.347 16.24C111.707 16 110.96 15.7733 110.107 15.56C109.254 15.3467 108.454 15.24 107.707 15.24C103.494 15.24 101.387 17.9467 101.387 23.36C101.387 25.9467 101.894 27.9333 102.907 29.32C103.947 30.68 105.48 31.36 107.507 31.36C108.654 31.36 109.68 31.24 110.587 31C111.494 30.76 112.32 30.4667 113.067 30.12V33.24C112.347 33.6133 111.547 33.8933 110.667 34.08C109.814 34.2933 108.774 34.4 107.547 34.4ZM132.966 15.52H125.966V34H122.486V15.52H115.566V12.56H132.966V15.52ZM140.509 12.56V25.64C140.509 25.9867 140.496 26.48 140.469 27.12C140.442 27.7333 140.402 28.3733 140.349 29.04C140.322 29.68 140.296 30.1733 140.269 30.52L151.749 12.56H156.069V34H152.789V21.36C152.789 20.9333 152.789 20.3733 152.789 19.68C152.816 18.9867 152.842 18.3067 152.869 17.64C152.896 16.9467 152.922 16.4267 152.949 16.08L141.549 34H137.189V12.56H140.509ZM165.972 12.56V20.36C165.972 22.8133 167.346 24.04 170.092 24.04C171.426 24.04 172.639 23.84 173.732 23.44C174.826 23.0133 175.946 22.4533 177.092 21.76V12.56H180.612V34H177.092V24.44C175.892 25.2133 174.706 25.8267 173.532 26.28C172.386 26.7067 170.999 26.92 169.372 26.92C167.159 26.92 165.452 26.3467 164.252 25.2C163.052 24.0533 162.452 22.52 162.452 20.6V12.56H165.972ZM195.703 12.16C197.517 12.16 199.09 12.56 200.423 13.36C201.757 14.16 202.77 15.2933 203.463 16.76C204.183 18.2 204.543 19.8933 204.543 21.84V23.96H189.863C189.917 26.3867 190.53 28.24 191.703 29.52C192.903 30.7733 194.57 31.4 196.703 31.4C198.063 31.4 199.263 31.28 200.303 31.04C201.37 30.7733 202.463 30.4 203.583 29.92V33C202.49 33.48 201.41 33.8267 200.343 34.04C199.277 34.28 198.01 34.4 196.543 34.4C194.49 34.4 192.69 33.9867 191.143 33.16C189.597 32.3333 188.383 31.1067 187.503 29.48C186.65 27.8533 186.223 25.84 186.223 23.44C186.223 21.0933 186.61 19.08 187.383 17.4C188.183 15.72 189.29 14.4267 190.703 13.52C192.143 12.6133 193.81 12.16 195.703 12.16ZM195.663 15.04C193.983 15.04 192.65 15.5867 191.663 16.68C190.703 17.7467 190.13 19.24 189.943 21.16H200.863C200.837 19.3467 200.41 17.88 199.583 16.76C198.757 15.6133 197.45 15.04 195.663 15.04ZM218.602 34.4C216.682 34.4 214.988 34.0133 213.522 33.24C212.055 32.4667 210.895 31.2667 210.042 29.64C209.215 28.0133 208.802 25.9333 208.802 23.4C208.802 20.76 209.228 18.6133 210.082 16.96C210.962 15.3067 212.162 14.0933 213.682 13.32C215.202 12.5467 216.922 12.16 218.842 12.16C219.908 12.16 220.948 12.28 221.962 12.52C223.002 12.7333 223.842 13 224.482 13.32L223.402 16.24C222.762 16 222.015 15.7733 221.162 15.56C220.308 15.3467 219.508 15.24 218.762 15.24C214.548 15.24 212.442 17.9467 212.442 23.36C212.442 25.9467 212.948 27.9333 213.962 29.32C215.002 30.68 216.535 31.36 218.562 31.36C219.708 31.36 220.735 31.24 221.642 31C222.548 30.76 223.375 30.4667 224.122 30.12V33.24C223.402 33.6133 222.602 33.8933 221.722 34.08C220.868 34.2933 219.828 34.4 218.602 34.4ZM241.9 12.56H245.74L236.58 22.88L246.5 34H242.42L232.74 23.12V34H229.22V12.56H232.74V22.96L241.9 12.56ZM253.712 12.56V25.64C253.712 25.9867 253.699 26.48 253.672 27.12C253.646 27.7333 253.606 28.3733 253.552 29.04C253.526 29.68 253.499 30.1733 253.472 30.52L264.952 12.56H269.272V34H265.992V21.36C265.992 20.9333 265.992 20.3733 265.992 19.68C266.019 18.9867 266.046 18.3067 266.072 17.64C266.099 16.9467 266.126 16.4267 266.152 16.08L254.752 34H250.392V12.56H253.712ZM279.415 12.56V25.64C279.415 25.9867 279.402 26.48 279.375 27.12C279.349 27.7333 279.309 28.3733 279.255 29.04C279.229 29.68 279.202 30.1733 279.175 30.52L290.655 12.56H294.975V34H291.695V21.36C291.695 20.9333 291.695 20.3733 291.695 19.68C291.722 18.9867 291.749 18.3067 291.775 17.64C291.802 16.9467 291.829 16.4267 291.855 16.08L280.455 34H276.095V12.56H279.415ZM293.455 3.68C293.269 5.68 292.589 7.2 291.415 8.24C290.269 9.25333 288.429 9.76 285.895 9.76C283.282 9.76 281.429 9.25333 280.335 8.24C279.269 7.22666 278.669 5.70667 278.535 3.68H281.815C281.949 5.12 282.322 6.09333 282.935 6.6C283.549 7.08 284.562 7.32 285.975 7.32C287.202 7.32 288.162 7.06666 288.855 6.56C289.575 6.02667 290.002 5.06667 290.135 3.68H293.455ZM331.396 41.44H327.956V34H310.236V12.56H313.756V31.04H324.836V12.56H328.356V31.08H331.396V41.44ZM343.789 12.16C345.603 12.16 347.176 12.56 348.509 13.36C349.843 14.16 350.856 15.2933 351.549 16.76C352.269 18.2 352.629 19.8933 352.629 21.84V23.96H337.949C338.003 26.3867 338.616 28.24 339.789 29.52C340.989 30.7733 342.656 31.4 344.789 31.4C346.149 31.4 347.349 31.28 348.389 31.04C349.456 30.7733 350.549 30.4 351.669 29.92V33C350.576 33.48 349.496 33.8267 348.429 34.04C347.363 34.28 346.096 34.4 344.629 34.4C342.576 34.4 340.776 33.9867 339.229 33.16C337.683 32.3333 336.469 31.1067 335.589 29.48C334.736 27.8533 334.309 25.84 334.309 23.44C334.309 21.0933 334.696 19.08 335.469 17.4C336.269 15.72 337.376 14.4267 338.789 13.52C340.229 12.6133 341.896 12.16 343.789 12.16ZM343.749 15.04C342.069 15.04 340.736 15.5867 339.749 16.68C338.789 17.7467 338.216 19.24 338.029 21.16H348.949C348.923 19.3467 348.496 17.88 347.669 16.76C346.843 15.6133 345.536 15.04 343.749 15.04ZM361.608 12.56V21.48H373.248V12.56H376.768V34H373.248V24.44H361.608V34H358.088V12.56H361.608ZM398.356 15.52H391.356V34H387.876V15.52H380.956V12.56H398.356V15.52ZM412.78 12.16C415.42 12.16 417.54 13.08 419.14 14.92C420.766 16.76 421.58 19.5333 421.58 23.24C421.58 26.8933 420.766 29.6667 419.14 31.56C417.54 33.4533 415.406 34.4 412.74 34.4C411.086 34.4 409.713 34.0933 408.62 33.48C407.553 32.8667 406.713 32.1333 406.1 31.28H405.86C405.886 31.7333 405.926 32.3067 405.98 33C406.06 33.6933 406.1 34.2933 406.1 34.8V43.6H402.58V12.56H405.46L405.94 15.48H406.1C406.74 14.5467 407.58 13.76 408.62 13.12C409.66 12.48 411.046 12.16 412.78 12.16ZM412.14 15.12C409.953 15.12 408.406 15.7333 407.5 16.96C406.593 18.1867 406.126 20.0533 406.1 22.56V23.24C406.1 25.88 406.526 27.92 407.38 29.36C408.26 30.7733 409.873 31.48 412.22 31.48C413.5 31.48 414.566 31.1333 415.42 30.44C416.273 29.72 416.9 28.7333 417.3 27.48C417.726 26.2267 417.94 24.8 417.94 23.2C417.94 20.7467 417.46 18.7867 416.5 17.32C415.566 15.8533 414.113 15.12 412.14 15.12Z" fill="white"/>
<path opacity="0.8" d="M7.254 59.39C5.874 59.39 4.788 59.852 3.996 60.776C3.204 61.7 2.808 62.966 2.808 64.574C2.808 66.17 3.174 67.436 3.906 68.372C4.65 69.296 5.76 69.758 7.236 69.758C7.788 69.758 8.316 69.71 8.82 69.614C9.324 69.518 9.822 69.398 10.314 69.254V70.658C9.834 70.838 9.336 70.97 8.82 71.054C8.316 71.138 7.71 71.18 7.002 71.18C5.694 71.18 4.602 70.91 3.726 70.37C2.85 69.83 2.19 69.062 1.746 68.066C1.314 67.07 1.098 65.9 1.098 64.556C1.098 63.26 1.332 62.12 1.8 61.136C2.28 60.14 2.982 59.366 3.906 58.814C4.83 58.25 5.952 57.968 7.272 57.968C8.628 57.968 9.81 58.22 10.818 58.724L10.17 60.092C9.774 59.912 9.33 59.75 8.838 59.606C8.358 59.462 7.83 59.39 7.254 59.39ZM20.247 71H18.645V62.666H15.801C15.645 64.694 15.429 66.332 15.153 67.58C14.877 68.816 14.505 69.716 14.037 70.28C13.581 70.844 13.011 71.126 12.327 71.126C12.171 71.126 12.015 71.114 11.859 71.09C11.715 71.078 11.595 71.048 11.499 71V69.812C11.571 69.836 11.649 69.854 11.733 69.866C11.817 69.878 11.901 69.884 11.985 69.884C12.633 69.884 13.149 69.194 13.533 67.814C13.929 66.434 14.229 64.28 14.433 61.352H20.247V71ZM26.9633 61.19C28.1393 61.19 29.0093 61.448 29.5733 61.964C30.1373 62.48 30.4193 63.302 30.4193 64.43V71H29.2673L28.9613 69.632H28.8893C28.4693 70.16 28.0253 70.55 27.5573 70.802C27.0893 71.054 26.4533 71.18 25.6493 71.18C24.7733 71.18 24.0473 70.952 23.4713 70.496C22.8953 70.028 22.6073 69.302 22.6073 68.318C22.6073 67.358 22.9853 66.62 23.7413 66.104C24.4973 65.576 25.6613 65.288 27.2333 65.24L28.8713 65.186V64.61C28.8713 63.806 28.6973 63.248 28.3493 62.936C28.0013 62.624 27.5093 62.468 26.8733 62.468C26.3693 62.468 25.8893 62.546 25.4333 62.702C24.9773 62.846 24.5513 63.014 24.1553 63.206L23.6693 62.018C24.0893 61.79 24.5873 61.598 25.1633 61.442C25.7393 61.274 26.3393 61.19 26.9633 61.19ZM28.8533 66.284L27.4313 66.338C26.2313 66.386 25.3973 66.578 24.9293 66.914C24.4733 67.25 24.2453 67.724 24.2453 68.336C24.2453 68.876 24.4073 69.272 24.7313 69.524C25.0673 69.776 25.4933 69.902 26.0093 69.902C26.8133 69.902 27.4853 69.68 28.0253 69.236C28.5773 68.78 28.8533 68.084 28.8533 67.148V66.284ZM41.1571 63.782C41.1571 64.382 40.9771 64.85 40.6171 65.186C40.2571 65.522 39.7951 65.75 39.2311 65.87V65.942C39.8191 66.026 40.3351 66.242 40.7791 66.59C41.2351 66.926 41.4631 67.454 41.4631 68.174C41.4631 68.99 41.1571 69.668 40.5451 70.208C39.9451 70.736 38.9491 71 37.5571 71H33.3991V61.352H37.5391C38.2231 61.352 38.8351 61.43 39.3751 61.586C39.9271 61.73 40.3591 61.982 40.6711 62.342C40.9951 62.69 41.1571 63.17 41.1571 63.782ZM39.5551 63.98C39.5551 63.524 39.3871 63.194 39.0511 62.99C38.7271 62.774 38.1931 62.666 37.4491 62.666H34.9831V65.312H37.1611C38.7571 65.312 39.5551 64.868 39.5551 63.98ZM39.8251 68.174C39.8251 67.622 39.6151 67.226 39.1951 66.986C38.7751 66.746 38.1571 66.626 37.3411 66.626H34.9831V69.722H37.3771C38.1691 69.722 38.7751 69.608 39.1951 69.38C39.6151 69.14 39.8251 68.738 39.8251 68.174ZM44.9092 71H43.0732L45.8272 66.95C45.4552 66.866 45.0952 66.716 44.7472 66.5C44.3992 66.284 44.1172 65.99 43.9012 65.618C43.6852 65.246 43.5772 64.772 43.5772 64.196C43.5772 63.284 43.8892 62.582 44.5132 62.09C45.1372 61.598 45.9652 61.352 46.9972 61.352H51.3172V71H49.7332V67.166H47.3932L44.9092 71ZM45.1072 64.214C45.1072 64.778 45.3112 65.192 45.7192 65.456C46.1392 65.72 46.7212 65.852 47.4652 65.852H49.7332V62.666H47.1592C46.4272 62.666 45.8992 62.816 45.5752 63.116C45.2632 63.404 45.1072 63.77 45.1072 64.214ZM55.9538 61.352V65.366H61.1918V61.352H62.7758V71H61.1918V66.698H55.9538V71H54.3698V61.352H55.9538ZM69.7008 71.18C68.8368 71.18 68.0748 71.006 67.4148 70.658C66.7548 70.31 66.2328 69.77 65.8488 69.038C65.4768 68.306 65.2908 67.37 65.2908 66.23C65.2908 65.042 65.4828 64.076 65.8668 63.332C66.2628 62.588 66.8028 62.042 67.4868 61.694C68.1708 61.346 68.9448 61.172 69.8088 61.172C70.2888 61.172 70.7568 61.226 71.2128 61.334C71.6808 61.43 72.0588 61.55 72.3468 61.694L71.8608 63.008C71.5728 62.9 71.2368 62.798 70.8528 62.702C70.4688 62.606 70.1088 62.558 69.7728 62.558C67.8768 62.558 66.9288 63.776 66.9288 66.212C66.9288 67.376 67.1568 68.27 67.6128 68.894C68.0808 69.506 68.7708 69.812 69.6828 69.812C70.1988 69.812 70.6608 69.758 71.0688 69.65C71.4768 69.542 71.8488 69.41 72.1848 69.254V70.658C71.8608 70.826 71.5008 70.952 71.1048 71.036C70.7208 71.132 70.2528 71.18 69.7008 71.18ZM80.1852 61.352H81.9132L77.7912 65.996L82.2552 71H80.4192L76.0632 66.104V71H74.4792V61.352H76.0632V66.032L80.1852 61.352ZM85.5006 61.352V67.238C85.5006 67.394 85.4946 67.616 85.4826 67.904C85.4706 68.18 85.4526 68.468 85.4286 68.768C85.4166 69.056 85.4046 69.278 85.3926 69.434L90.5586 61.352H92.5026V71H91.0266V65.312C91.0266 65.12 91.0266 64.868 91.0266 64.556C91.0386 64.244 91.0506 63.938 91.0626 63.638C91.0746 63.326 91.0866 63.092 91.0986 62.936L85.9686 71H84.0066V61.352H85.5006ZM97.067 61.352V67.238C97.067 67.394 97.061 67.616 97.049 67.904C97.037 68.18 97.019 68.468 96.995 68.768C96.983 69.056 96.971 69.278 96.959 69.434L102.125 61.352H104.069V71H102.593V65.312C102.593 65.12 102.593 64.868 102.593 64.556C102.605 64.244 102.617 63.938 102.629 63.638C102.641 63.326 102.653 63.092 102.665 62.936L97.535 71H95.573V61.352H97.067ZM103.385 57.356C103.301 58.256 102.995 58.94 102.467 59.408C101.951 59.864 101.123 60.092 99.983 60.092C98.807 60.092 97.973 59.864 97.481 59.408C97.001 58.952 96.731 58.268 96.671 57.356H98.147C98.207 58.004 98.375 58.442 98.651 58.67C98.927 58.886 99.383 58.994 100.019 58.994C100.571 58.994 101.003 58.88 101.315 58.652C101.639 58.412 101.831 57.98 101.891 57.356H103.385ZM115.526 61.172C116.714 61.172 117.668 61.586 118.388 62.414C119.12 63.242 119.486 64.49 119.486 66.158C119.486 67.802 119.12 69.05 118.388 69.902C117.668 70.754 116.708 71.18 115.508 71.18C114.764 71.18 114.146 71.042 113.654 70.766C113.174 70.49 112.796 70.16 112.52 69.776H112.412C112.424 69.98 112.442 70.238 112.466 70.55C112.502 70.862 112.52 71.132 112.52 71.36V75.32H110.936V61.352H112.232L112.448 62.666H112.52C112.808 62.246 113.186 61.892 113.654 61.604C114.122 61.316 114.746 61.172 115.526 61.172ZM115.238 62.504C114.254 62.504 113.558 62.78 113.15 63.332C112.742 63.884 112.532 64.724 112.52 65.852V66.158C112.52 67.346 112.712 68.264 113.096 68.912C113.492 69.548 114.218 69.866 115.274 69.866C115.85 69.866 116.33 69.71 116.714 69.398C117.098 69.074 117.38 68.63 117.56 68.066C117.752 67.502 117.848 66.86 117.848 66.14C117.848 65.036 117.632 64.154 117.2 63.494C116.78 62.834 116.126 62.504 115.238 62.504ZM125.664 61.19C126.84 61.19 127.71 61.448 128.274 61.964C128.838 62.48 129.12 63.302 129.12 64.43V71H127.968L127.662 69.632H127.59C127.17 70.16 126.726 70.55 126.258 70.802C125.79 71.054 125.154 71.18 124.35 71.18C123.474 71.18 122.748 70.952 122.172 70.496C121.596 70.028 121.308 69.302 121.308 68.318C121.308 67.358 121.686 66.62 122.442 66.104C123.198 65.576 124.362 65.288 125.934 65.24L127.572 65.186V64.61C127.572 63.806 127.398 63.248 127.05 62.936C126.702 62.624 126.21 62.468 125.574 62.468C125.07 62.468 124.59 62.546 124.134 62.702C123.678 62.846 123.252 63.014 122.856 63.206L122.37 62.018C122.79 61.79 123.288 61.598 123.864 61.442C124.44 61.274 125.04 61.19 125.664 61.19ZM127.554 66.284L126.132 66.338C124.932 66.386 124.098 66.578 123.63 66.914C123.174 67.25 122.946 67.724 122.946 68.336C122.946 68.876 123.108 69.272 123.432 69.524C123.768 69.776 124.194 69.902 124.71 69.902C125.514 69.902 126.186 69.68 126.726 69.236C127.278 68.78 127.554 68.084 127.554 67.148V66.284ZM133.594 61.352V67.238C133.594 67.394 133.588 67.616 133.576 67.904C133.564 68.18 133.546 68.468 133.522 68.768C133.51 69.056 133.498 69.278 133.486 69.434L138.652 61.352H140.596V71H139.12V65.312C139.12 65.12 139.12 64.868 139.12 64.556C139.132 64.244 139.144 63.938 139.156 63.638C139.168 63.326 139.18 63.092 139.192 62.936L134.062 71H132.1V61.352H133.594ZM139.912 57.356C139.828 58.256 139.522 58.94 138.994 59.408C138.478 59.864 137.65 60.092 136.51 60.092C135.334 60.092 134.5 59.864 134.008 59.408C133.528 58.952 133.258 58.268 133.198 57.356H134.674C134.734 58.004 134.902 58.442 135.178 58.67C135.454 58.886 135.91 58.994 136.546 58.994C137.098 58.994 137.53 58.88 137.842 58.652C138.166 58.412 138.358 57.98 138.418 57.356H139.912ZM152.055 66.158C152.055 67.754 151.647 68.99 150.831 69.866C150.027 70.742 148.935 71.18 147.555 71.18C146.703 71.18 145.941 70.988 145.269 70.604C144.609 70.208 144.087 69.638 143.703 68.894C143.319 68.138 143.127 67.226 143.127 66.158C143.127 64.562 143.523 63.332 144.315 62.468C145.119 61.604 146.217 61.172 147.609 61.172C148.473 61.172 149.241 61.37 149.913 61.766C150.585 62.15 151.107 62.714 151.479 63.458C151.863 64.19 152.055 65.09 152.055 66.158ZM144.765 66.158C144.765 67.298 144.987 68.204 145.431 68.876C145.887 69.536 146.607 69.866 147.591 69.866C148.563 69.866 149.277 69.536 149.733 68.876C150.189 68.204 150.417 67.298 150.417 66.158C150.417 65.018 150.189 64.124 149.733 63.476C149.277 62.828 148.557 62.504 147.573 62.504C146.589 62.504 145.875 62.828 145.431 63.476C144.987 64.124 144.765 65.018 144.765 66.158ZM156.149 61.352V65.366H161.387V61.352H162.971V71H161.387V66.698H156.149V71H154.565V61.352H156.149Z" fill="white"/>
</svg>
