<svg width="145" height="91" viewBox="0 0 145 91" fill="none" xmlns="http://www.w3.org/2000/svg">
<path d="M93.6044 26.2313V23.4314H90.8013V20.6251H85.1935V17.8219H76.7825V15.0188H71.1763V3.80472H68.3731V1H62.7669V3.80313H59.9622V29.0344H57.159V26.2313H48.7481V34.6423H51.5512V37.4454H54.3543V43.0516H57.1575V48.6579H59.9606V54.2642H62.7637V62.6751H90.7981V54.2642H93.6012V45.8532H96.4044V26.2313H93.6044ZM93.6044 45.8564H90.8013V54.2673H87.9982V59.8736H65.5668V54.2673H62.7637V48.6611H59.9606V43.0548H57.1575V37.4486H54.3543V34.6455H51.5512V29.0392H57.1575V31.8423H59.9606V40.2533H62.7637V3.80313H68.3699V29.0344H71.1731V17.8203H76.7793V29.0344H79.5824V20.6235H85.1887V23.4314H90.7949V26.2345H93.5981V45.8627L93.6044 45.8564ZM9 85.6283V73.046H13.0854C13.824 73.0317 14.5603 73.1321 15.2681 73.3435C15.8288 73.5106 16.3484 73.7929 16.7937 74.1724C17.1879 74.5198 17.4939 74.9561 17.6862 75.4451C17.8857 75.9598 17.985 76.5079 17.9789 77.0598C17.9859 77.6311 17.8822 78.1984 17.6735 78.7302C17.4738 79.2293 17.1612 79.6752 16.7603 80.0332C16.3168 80.4195 15.7978 80.7094 15.2362 80.8843C14.5416 81.099 13.8171 81.2016 13.0901 81.1882H11.3402V85.6346L9 85.6283ZM11.345 79.3746H13.0949C13.4754 79.382 13.8546 79.3283 14.2181 79.2155C14.5142 79.1219 14.7859 78.9638 15.0135 78.7525C15.2261 78.5486 15.3894 78.2989 15.4908 78.0223C15.5994 77.7126 15.6533 77.3864 15.6499 77.0582C15.6529 76.7483 15.599 76.4404 15.4908 76.1499C15.391 75.8849 15.2315 75.6464 15.0247 75.453C14.7982 75.2491 14.5292 75.098 14.2372 75.0108C13.8706 74.9 13.489 74.8463 13.1061 74.8517H11.3561L11.345 79.3746ZM18.9112 80.9654C18.9065 80.3789 19.0056 79.7961 19.2039 79.2441C19.3891 78.7266 19.6764 78.2516 20.0487 77.8473C20.4278 77.4431 20.8866 77.1219 21.3961 76.9039C21.964 76.664 22.5758 76.5453 23.1922 76.5555C23.7237 76.5505 24.2518 76.6411 24.7513 76.8228C25.2217 76.9934 25.6483 77.2665 26.0002 77.6222C26.3521 77.978 26.6205 78.4075 26.786 78.8798C26.9873 79.4304 27.0855 80.0134 27.0755 80.5995C27.0949 80.8233 27.0572 81.0482 26.9658 81.2534C26.9146 81.3155 26.8485 81.3638 26.7737 81.3935C26.6989 81.4233 26.6177 81.4336 26.5378 81.4236H20.9698C20.9924 81.8277 21.0755 82.2262 21.2163 82.6056C21.3297 82.9102 21.5015 83.1896 21.7223 83.4281C21.9302 83.6419 22.1843 83.8051 22.4652 83.9054C22.7714 84.0148 23.0946 84.0687 23.4197 84.0645C24.4197 84.0773 25.4166 83.9515 26.3819 83.6906L26.8719 85.1431C25.7333 85.5686 24.5235 85.7711 23.3084 85.7397C22.717 85.7451 22.1297 85.6416 21.5759 85.4342C21.0507 85.2353 20.5755 84.9236 20.1839 84.521C19.7723 84.0923 19.4558 83.5817 19.2548 83.0224C19.0193 82.3636 18.9029 81.6682 18.9112 80.9686V80.9654ZM20.9602 80.1334H25.0122C25.0144 79.8636 24.9742 79.5952 24.8929 79.338C24.8184 79.0998 24.6985 78.8782 24.5397 78.6857C24.3785 78.4936 24.1748 78.3416 23.9447 78.2418C23.6803 78.1297 23.395 78.0755 23.1079 78.0828C22.8391 78.0671 22.5698 78.1063 22.3166 78.1979C22.0633 78.2895 21.8314 78.4317 21.6347 78.6157C21.2508 79.036 21.0141 79.5699 20.9602 80.1366V80.1334ZM28.7905 85.6299V76.7003H30.9398V81.9168C30.9398 82.052 30.9398 82.2 30.9191 82.359C30.8984 82.5181 30.8873 82.6772 30.865 82.8363C30.9741 82.592 31.1018 82.3564 31.2468 82.1315C31.2468 82.1204 31.3073 82.0424 31.4059 81.8977L31.81 81.3329L32.37 80.547C33.1527 79.4398 33.9375 78.3336 34.7245 77.2285C34.8101 77.0901 34.9176 76.9666 35.0427 76.8626C35.167 76.7529 35.3271 76.6924 35.4929 76.6923H36.8022V85.6219H34.6529V80.4166C34.6529 80.2813 34.6529 80.135 34.6704 79.9791C34.6879 79.8232 34.7022 79.6609 34.7309 79.5018C34.672 79.6307 34.6099 79.758 34.5431 79.8836C34.4869 79.995 34.4215 80.1014 34.3474 80.2018C34.3363 80.213 34.2774 80.2925 34.1724 80.4404L33.7684 81.01L33.2084 81.8054L32.572 82.6979L30.865 85.1192C30.7769 85.2529 30.6697 85.373 30.5468 85.4756C30.4243 85.585 30.2657 85.6456 30.1014 85.6458H28.781L28.7905 85.6299ZM30.0887 73.6426C30.0868 73.4967 30.1235 73.3529 30.1953 73.2258C30.228 73.1664 30.2769 73.1174 30.3363 73.0845C30.3957 73.0515 30.4632 73.036 30.5309 73.0397H31.8036C31.8008 73.2619 31.8178 73.4839 31.8545 73.7031C31.8772 73.8607 31.9403 74.0097 32.0375 74.1358C32.1264 74.245 32.2462 74.3248 32.3811 74.3649C32.5581 74.4147 32.7414 74.4377 32.9252 74.4333C33.1074 74.4379 33.2892 74.4148 33.4645 74.3649C33.5997 74.3252 33.7195 74.2453 33.8081 74.1358C33.9015 74.0075 33.9641 73.8594 33.9911 73.7031C34.0312 73.4843 34.0499 73.2621 34.0468 73.0397H35.3195C35.3873 73.0358 35.4548 73.0513 35.5142 73.0842C35.5736 73.1171 35.6225 73.1662 35.6552 73.2258C35.7271 73.3528 35.7639 73.4967 35.7617 73.6426C35.7651 73.9232 35.696 74.1999 35.5613 74.446C35.4216 74.6927 35.2253 74.9026 34.9886 75.0585C34.7143 75.2366 34.4113 75.3658 34.0929 75.4403C33.7131 75.531 33.3237 75.5754 32.9332 75.5724C32.54 75.5764 32.1478 75.5321 31.7654 75.4403C31.447 75.3658 31.144 75.2366 30.8698 75.0585C30.6312 74.9044 30.434 74.6941 30.2955 74.446C30.1587 74.2016 30.0875 73.9259 30.0887 73.6458V73.6426ZM38.3199 78.323V76.6923H46.8231V78.323H43.6414V85.6203H41.4921V78.323H38.3199ZM48.3328 85.6299V76.7003H50.4821V81.9168C50.4821 82.052 50.4821 82.2 50.4615 82.359C50.4408 82.5181 50.4296 82.6772 50.4073 82.8363C50.5165 82.592 50.6441 82.3564 50.7892 82.1315C50.7892 82.1204 50.8496 82.0424 50.9483 81.8977L51.3523 81.3329L51.9123 80.547C52.695 79.4398 53.4799 78.3336 54.2668 77.2285C54.3522 77.09 54.4597 76.9664 54.585 76.8626C54.7094 76.753 54.8695 76.6925 55.0352 76.6923H56.3445V85.6219H54.192V80.4166C54.192 80.2813 54.192 80.135 54.2095 79.9791C54.227 79.8232 54.2414 79.6609 54.27 79.5018C54.2111 79.6307 54.1491 79.758 54.0823 79.8836C54.0261 79.995 53.9606 80.1014 53.8866 80.2018C53.8262 80.2798 53.7673 80.3609 53.7116 80.4404L53.3075 81.01L52.7475 81.8054L52.1112 82.6979L50.4042 85.1192C50.3161 85.2529 50.2089 85.373 50.086 85.4756C49.9634 85.585 49.8049 85.6456 49.6406 85.6458H48.3233L48.3328 85.6299ZM58.7133 85.6219V76.6923H60.8626V80.0332H64.3371V76.6923H66.4864V85.6219H64.3371V81.6718H60.8626V85.6219H58.7133ZM68.8615 85.6219V76.6923H74.9069V78.323H71.0076V85.6203L68.8615 85.6219ZM80.5656 85.6219V73.0397H84.651C85.3895 73.0254 86.1259 73.1257 86.8337 73.3372C87.3944 73.5043 87.914 73.7866 88.3593 74.166C88.7535 74.5134 89.0595 74.9497 89.2518 75.4387C89.4512 75.9534 89.5506 76.5015 89.5445 77.0535C89.5516 77.6248 89.4478 78.192 89.2391 78.7239C89.0394 79.2229 88.7268 79.6689 88.3259 80.0268C87.8824 80.4132 87.3634 80.703 86.8018 80.8779C86.1072 81.0926 85.3827 81.1952 84.6558 81.1818H82.9058V85.6346L80.5656 85.6219ZM82.9106 79.3682H84.6605C85.041 79.3756 85.4202 79.3219 85.7837 79.2091C86.0798 79.1155 86.3515 78.9574 86.5791 78.7461C86.7917 78.5423 86.955 78.2925 87.0564 78.0159C87.165 77.7063 87.2189 77.38 87.2155 77.0519C87.2185 76.7419 87.1646 76.434 87.0564 76.1435C86.9566 75.8785 86.7971 75.64 86.5903 75.4467C86.3615 75.2417 86.0897 75.0906 85.7948 75.0044C85.4282 74.8936 85.0467 74.8399 84.6637 74.8453H82.9137L82.9106 79.3682ZM90.2286 76.6923H92.1154C92.2588 76.6841 92.4005 76.7276 92.5147 76.8148C92.6054 76.8902 92.6782 76.9847 92.7279 77.0916L94.6226 81.7211C94.7352 82.0342 94.8318 82.3528 94.9121 82.6756C94.9567 82.5165 95.0076 82.3495 95.0712 82.1983C95.1349 82.0472 95.1874 81.8802 95.2494 81.7211L97.0423 77.1075C97.0913 76.9899 97.1739 76.8894 97.2797 76.8184C97.3855 76.7474 97.5099 76.7091 97.6373 76.7082H99.3523L95.0028 86.8899C94.6764 87.6548 94.1458 88.3153 93.4692 88.7989L91.6588 90.0939L90.7393 88.5221L92.4383 87.2955C92.752 87.0696 93.0028 86.7673 93.1669 86.4174L93.8446 84.9681L90.2286 76.6923ZM100.658 85.6219V76.6923H102.804V80.0332H106.279V76.6923H108.428V85.6219H106.279V81.6718H102.804V85.6219H100.658ZM110.46 80.9654C110.455 80.3789 110.554 79.7961 110.752 79.2441C110.938 78.7266 111.225 78.2516 111.597 77.8473C111.976 77.4431 112.435 77.1219 112.945 76.9039C113.513 76.664 114.124 76.5453 114.741 76.5555C115.272 76.5505 115.8 76.6411 116.3 76.8228C116.77 76.9934 117.197 77.2665 117.549 77.6222C117.901 77.978 118.169 78.4075 118.335 78.8798C118.536 79.4304 118.634 80.0134 118.624 80.5995C118.644 80.8233 118.606 81.0482 118.514 81.2534C118.463 81.3155 118.397 81.3638 118.322 81.3935C118.247 81.4233 118.166 81.4336 118.086 81.4236H112.518C112.541 81.8277 112.624 82.2262 112.765 82.6056C112.878 82.9102 113.05 83.1896 113.271 83.4281C113.479 83.6419 113.733 83.8051 114.014 83.9054C114.32 84.0149 114.643 84.0688 114.968 84.0645C115.273 84.0699 115.577 84.0286 115.869 83.942C116.097 83.8712 116.319 83.7807 116.532 83.6715C116.718 83.5729 116.884 83.4854 117.025 83.4058C117.152 83.331 117.295 83.2904 117.442 83.2881C117.524 83.2811 117.606 83.2952 117.681 83.3292C117.755 83.3632 117.82 83.4159 117.868 83.4822L118.532 84.2617C118.303 84.5352 118.035 84.7737 117.736 84.9697C117.447 85.1575 117.137 85.3117 116.812 85.4294C116.495 85.5427 116.166 85.6232 115.832 85.6697C115.512 85.7146 115.189 85.7374 114.865 85.7381C114.274 85.7435 113.686 85.64 113.132 85.4326C112.607 85.2337 112.132 84.922 111.74 84.5194C111.329 84.0907 111.012 83.5801 110.811 83.0209C110.57 82.3638 110.449 81.6686 110.453 80.9686L110.46 80.9654ZM112.507 80.1334H116.559C116.561 79.8636 116.521 79.5952 116.44 79.338C116.365 79.0998 116.246 78.8782 116.087 78.6857C115.925 78.4936 115.722 78.3416 115.492 78.2418C115.227 78.1298 114.942 78.0755 114.655 78.0828C114.386 78.0671 114.117 78.1063 113.864 78.1979C113.61 78.2895 113.378 78.4317 113.182 78.6157C112.798 79.0363 112.562 79.5701 112.509 80.1366L112.507 80.1334ZM119.369 78.323V76.6923H127.872V78.323H124.69V85.6203H122.542V78.323H119.369ZM128.745 83.3454C128.749 82.9967 128.841 82.6547 129.013 82.3511C129.228 81.9848 129.532 81.6781 129.896 81.4586C130.404 81.152 130.959 80.9296 131.539 80.8C132.378 80.6084 133.236 80.5103 134.097 80.5073V79.9743C134.135 79.4974 134 79.0227 133.715 78.638C133.575 78.489 133.404 78.3728 133.213 78.2977C133.023 78.2226 132.818 78.1905 132.614 78.2037C132.095 78.1893 131.584 78.3294 131.144 78.6062C130.971 78.7112 130.815 78.8066 130.667 78.8909C130.523 78.9762 130.358 79.0202 130.19 79.0182C130.052 79.0237 129.916 78.981 129.806 78.8973C129.707 78.8189 129.621 78.7255 129.55 78.6205L129.167 77.9189C130.181 76.9972 131.511 76.5001 132.882 76.5301C133.354 76.5218 133.824 76.6083 134.262 76.7846C134.654 76.9442 135.005 77.1881 135.292 77.4989C135.576 77.8156 135.792 78.187 135.928 78.5903C136.081 79.0372 136.156 79.5069 136.151 79.9791V85.6203H135.174C135.01 85.6296 134.845 85.5973 134.697 85.5265C134.568 85.4407 134.476 85.3103 134.437 85.1606L134.259 84.5242C134.051 84.7136 133.833 84.892 133.605 85.0588C133.398 85.2095 133.177 85.339 132.944 85.4453C132.708 85.5519 132.461 85.6304 132.207 85.6792C131.92 85.7325 131.628 85.758 131.335 85.7556C130.98 85.7594 130.627 85.7095 130.287 85.6076C129.983 85.5156 129.701 85.3606 129.461 85.1526C129.225 84.9442 129.04 84.684 128.92 84.3922C128.785 84.0607 128.72 83.7049 128.728 83.347L128.745 83.3454ZM130.813 83.1863C130.799 83.3362 130.822 83.4873 130.88 83.6262C130.938 83.765 131.03 83.8872 131.148 83.9817C131.405 84.1506 131.709 84.2341 132.016 84.2204C132.41 84.2302 132.801 84.1502 133.16 83.9865C133.513 83.807 133.831 83.5668 134.1 83.277V81.7911C133.575 81.8083 133.051 81.8615 132.533 81.9502C132.186 82.0068 131.847 82.1062 131.525 82.2461C131.308 82.3362 131.12 82.4816 130.977 82.6677C130.865 82.8207 130.804 83.0058 130.804 83.1959L130.813 83.1863Z" fill="#040505"/>
</svg>
