<svg width="145" height="90" viewBox="0 0 145 90" fill="none" xmlns="http://www.w3.org/2000/svg">
<path d="M110.317 28.7137L112.204 12L105.716 12.9545L100.412 32.7609L110.317 28.7137ZM126.206 22.2198C127.088 19.6744 128.003 17.1369 128.952 14.6074L116.623 16.5165L113.882 27.2597L126.206 22.2198ZM98.3661 33.593L99.9347 16.0011L87.8679 18.2887C87.8827 24.6077 87.6642 31.2284 87.2124 38.1508L98.3661 33.593ZM112.569 32.3791L107.776 51.1738L109.787 33.3559L99.2633 37.0531L97.4497 43.8175L98.0176 37.4906L86.9897 41.358C86.4711 48.2911 85.769 55.2061 84.8834 62.1031L98.4202 59.6261L104.321 38.0411L101.963 61.341L116.182 58.9309C118.223 48.5752 120.886 38.3518 124.156 28.316L112.569 32.3791ZM76.4565 45.0537C75.8809 46.4428 75.1326 47.7539 74.2293 48.9561C73.5369 50.0469 72.5931 50.9559 71.4771 51.607C70.361 52.258 69.1052 52.6321 67.8149 52.6978C67.0401 52.7356 66.2675 52.5883 65.561 52.2683C64.8544 51.9482 64.2343 51.4645 63.7518 50.8572C63.4954 50.5111 63.2782 50.1376 63.1043 49.7436L52.7254 53.3835C52.9216 54.2279 53.1681 55.0598 53.4636 55.8748C55.3726 60.8733 58.5915 63.3721 63.1202 63.371C68.3605 63.371 73.332 60.3224 78.0347 54.2251C80.8863 50.5588 83.1674 46.4825 84.8007 42.1344L76.4565 45.0537ZM62.6334 48.2004C62.5298 47.6764 62.4765 47.1437 62.4743 46.6095C62.4942 45.2127 62.6855 43.8235 63.0438 42.4732C63.9266 39.3359 65.2995 36.3576 67.1117 33.6487C69.5192 29.8401 71.888 27.9353 74.2181 27.9342C76.2513 27.9342 77.5144 29.4599 78.0251 32.5048C78.4865 35.6403 78.3129 38.8366 77.5144 41.9037C77.5001 41.9833 77.4731 42.0628 77.4524 42.1408L85.9095 38.6806C85.9906 38.4022 86.0797 38.127 86.1545 37.8422C87.0007 34.6934 87.4475 31.4507 87.4845 28.1904C87.5176 25.2898 87.025 22.4072 86.0304 19.6823C84.1638 14.6891 80.9884 12.1914 76.5042 12.1893C71.213 12.1893 66.2182 15.2581 61.5198 21.3957C57.7609 26.2849 55.0184 31.8768 53.454 37.8422C52.5724 41.0282 52.1035 44.3143 52.0588 47.6197C52.0568 49.203 52.2011 50.7831 52.4899 52.3399L62.6334 48.2004ZM33.1894 60.2306L48.3028 54.0548C51.2416 40.6316 55.1701 27.4443 60.0562 14.6011L47.7316 16.5101L38.8959 51.1722L43.3154 12.0016L36.8246 12.9561L28.5679 43.8191L31.0497 16.0074L18.9845 18.2951C18.9328 32.9446 17.9359 47.5756 16 62.0967L29.5368 59.6197L35.4437 38.0347L33.1894 60.2306ZM33.1894 60.2306L33.0797 61.3299L47.3005 58.9181C47.5519 57.6152 47.8319 56.3075 48.1087 54.9982L33.1894 60.2306ZM49.8936 77.8114L49.4164 76.0233H47.2114L46.7023 77.8114H44.1935L47.186 68.5095H49.6693L52.4852 77.8114H49.8936ZM48.5334 72.4851C48.435 72.056 48.3759 71.6189 48.3568 71.179C48.306 71.6774 48.2215 72.1716 48.1039 72.6585L47.73 74.1826H48.9311L48.5334 72.4851ZM61.5611 77.8114H59.0157L58.5385 75.1149C58.3254 74.1063 58.174 73.0857 58.0851 72.0588H58.0723C57.9769 73.0851 57.825 74.1053 57.6173 75.1149L57.1226 77.8114H54.5183L52.264 68.5095H54.7856L55.3074 71.0183C55.5604 72.1659 55.739 73.3286 55.8419 74.4992H55.8562C55.9596 73.2838 56.1633 71.9363 56.324 71.082L56.8012 68.5095H59.458L60.0593 71.6181C60.2546 72.5621 60.3796 73.5192 60.4332 74.4817H60.4459C60.5398 73.3601 60.7927 71.6658 60.9677 70.8099L61.4339 68.5048H63.9793L61.5595 77.805L61.5611 77.8114ZM69.4551 77.8114L68.9778 76.0233H66.7776L66.2701 77.8114H63.7581L66.749 68.5095H69.2323L72.0498 77.8114H69.4551ZM68.0949 72.4851C67.996 72.0562 67.9379 71.6189 67.9215 71.179C67.8716 71.6776 67.7866 72.172 67.6669 72.6585L67.293 74.1826H68.4973L68.0949 72.4851ZM77.1485 77.8114L76.1765 75.2167C76.0875 74.9657 75.9746 74.7238 75.8392 74.4944C75.7629 74.3657 75.6499 74.2627 75.5148 74.1983C75.3797 74.134 75.2284 74.1114 75.0804 74.1333V77.8178H72.6941V68.5159H75.8965C76.9939 68.4394 78.0802 68.7765 78.9415 69.4609C79.3363 69.9406 79.5412 70.5486 79.5174 71.1695C79.5507 71.8263 79.3519 72.474 78.9558 72.999C78.6107 73.4199 78.1201 73.6958 77.5813 73.7722C77.7955 73.8686 77.9885 74.0065 78.149 74.178C78.3096 74.3495 78.4345 74.5511 78.5167 74.7712L78.819 75.4076C79.2962 76.4066 79.3153 76.4862 79.9167 77.8082H77.1549L77.1485 77.8114ZM75.7597 72.3658C76.037 72.3745 76.3107 72.3003 76.5456 72.1527C76.6529 72.0514 76.7363 71.9274 76.7897 71.7898C76.8431 71.6522 76.8651 71.5044 76.8542 71.3572C76.8724 71.1269 76.7999 70.8985 76.6522 70.7209C76.3938 70.5241 76.0699 70.4336 75.747 70.4679H75.0788V72.377L75.7597 72.3658ZM84.0657 68.508C84.845 68.4681 85.6179 68.6679 86.2802 69.0807C86.8252 69.5662 87.2472 70.1741 87.5116 70.8544C87.776 71.5347 87.8752 72.2681 87.8011 72.9942C87.8914 74.3122 87.5189 75.6203 86.7479 76.693C86.4352 77.07 86.0375 77.3674 85.5876 77.561C85.1377 77.7546 84.6483 77.8388 84.1595 77.8066H80.7821V68.5032L84.0657 68.508ZM83.9718 75.826C84.1564 75.8442 84.3418 75.8021 84.5005 75.7061C84.6591 75.61 84.7823 75.4651 84.8516 75.293C85.1365 74.5346 85.2453 73.7213 85.1697 72.9147C85.1868 72.2907 85.1003 71.6681 84.9136 71.0724C84.8298 70.878 84.6867 70.7151 84.5046 70.6071C84.3226 70.4991 84.111 70.4515 83.9002 70.4711H83.17V75.826H83.9718ZM94.7898 70.9515C94.4673 70.743 94.1163 70.5822 93.7478 70.4743C93.4072 70.365 93.0522 70.3071 92.6946 70.3025C92.4556 70.2958 92.2194 70.3552 92.0121 70.4743C91.9314 70.5286 91.8652 70.6017 91.8192 70.6874C91.7732 70.773 91.7488 70.8686 91.748 70.9659C91.7461 71.0489 91.7619 71.1314 91.7942 71.2079C91.8266 71.2844 91.8748 71.3532 91.9357 71.4097C92.1421 71.5854 92.3903 71.7048 92.6564 71.7565L93.6109 71.9967C94.6402 72.2656 96.0545 72.7031 96.0545 74.574C96.0697 75.0438 95.9805 75.5113 95.7935 75.9426C95.6064 76.3739 95.3261 76.7584 94.9727 77.0685C94.0807 77.7389 92.9753 78.0623 91.8626 77.9784C91.228 77.9821 90.5964 77.8915 89.9885 77.7096C89.4916 77.5719 89.0115 77.3799 88.5567 77.1369L89.3967 75.2692C89.7958 75.4885 90.2157 75.6676 90.6503 75.8037C91.0915 75.9422 91.5498 76.0188 92.0121 76.0312C92.3749 76.057 92.7361 75.9625 93.0398 75.7624C93.1327 75.6941 93.2071 75.6039 93.2566 75.4997C93.306 75.3956 93.3288 75.2809 93.323 75.1658C93.3278 75.065 93.3056 74.9648 93.2586 74.8756C93.2116 74.7863 93.1415 74.7113 93.0557 74.6583C92.8455 74.5437 92.6207 74.4581 92.3875 74.4037L91.293 74.1221C90.6594 74.0303 90.0805 73.712 89.6634 73.2262C89.2463 72.7404 89.0193 72.12 89.0244 71.4797C89.0098 71.0701 89.0843 70.6622 89.2428 70.2843C89.4013 69.9063 89.64 69.5673 89.9424 69.2906C90.6843 68.6468 91.6448 68.312 92.6262 68.3552C93.3048 68.352 93.9801 68.4512 94.6291 68.6495C95.1017 68.777 95.5489 68.9847 95.9511 69.2636L94.7898 70.9515Z" fill="#040505"/>
</svg>
