<svg width="145" height="90" viewBox="0 0 145 90" fill="none" xmlns="http://www.w3.org/2000/svg">
<path d="M43.4263 78.4565H45.5573V80.7303H45.605C45.8332 79.9878 46.2955 79.3394 46.9226 78.882C47.5498 78.4246 48.3082 78.183 49.084 78.1933V80.5163C47.1668 80.5163 45.5573 81.4868 45.5573 84.9482V89.7345H43.4263V78.4565ZM58.8348 89.6188C57.9168 89.8706 56.9693 89.9981 56.0174 89.9977C52.6078 89.9977 50.4305 87.9828 50.4305 83.5524C50.4305 78.7183 53.5787 78.2005 55.0235 78.2005C57.7685 78.2005 59.0948 80.0736 59.0948 82.7279V83.2717H52.5616C52.5616 85.3821 53.6264 88.343 56.7037 88.343C57.4323 88.336 58.1539 88.1994 58.8348 87.9394V89.6188ZM56.9565 81.8441C56.9648 81.5744 56.9166 81.306 56.8151 81.056C56.7136 80.8061 56.561 80.5802 56.3671 80.3927C56.1733 80.2053 55.9424 80.0606 55.6894 79.9677C55.4363 79.8749 55.1667 79.8361 54.8978 79.8538C54.3387 79.8306 53.7923 80.0248 53.373 80.3958C52.9537 80.7668 52.694 81.2858 52.6482 81.8441H56.9565ZM67.892 88.0074H67.8444C67.5868 88.6175 67.1498 89.1346 66.5916 89.4901C66.0334 89.8457 65.3804 90.0227 64.7193 89.9977C61.9743 89.9977 60.8603 87.5084 60.8603 84.2857C60.8603 80.5423 62.2806 78.1947 64.8378 78.1947C65.465 78.1564 66.0889 78.3106 66.6262 78.6368C67.1634 78.963 67.5884 79.4456 67.8444 80.0201H67.892V73.3853H70.0231V89.7374H67.892V88.0074ZM65.4533 88.3387C67.187 88.3387 67.892 85.9448 67.892 84.0731C67.892 82.1073 67.3243 79.8552 65.4359 79.8552C63.7788 79.8552 63.2341 81.7284 63.2341 84.0977C63.2355 85.803 63.4653 88.3387 65.4605 88.3387H65.4533Z" fill="#040505"/>
<path d="M79.5195 88.0074H79.4718C79.2143 88.6175 78.7773 89.1346 78.2191 89.4901C77.6609 89.8457 77.0079 90.0227 76.3468 89.9977C73.6017 89.9977 72.4878 87.5084 72.4878 84.2857C72.4878 80.5423 73.908 78.1947 76.4638 78.1947C77.091 78.1562 77.715 78.3103 78.2523 78.6365C78.7896 78.9627 79.2146 79.4455 79.4704 80.0201H79.518V73.3853H81.6491V89.7374H79.518V88.0016L79.5195 88.0074ZM77.0807 88.3387C78.8145 88.3387 79.5195 85.9448 79.5195 84.0731C79.5195 82.1073 78.9517 79.8552 77.0634 79.8552C75.4063 79.8552 74.8616 81.7284 74.8616 84.0977C74.8558 85.803 75.0942 88.3387 77.0807 88.3387ZM84.2526 84.0962C84.2526 80.4945 85.8418 78.1947 89.2472 78.1947C92.6323 78.1947 94.2186 80.4945 94.2186 84.0962C94.2186 87.6516 92.6294 89.9977 89.2472 89.9977C85.8389 89.9977 84.2526 87.6516 84.2526 84.0962V84.0962ZM89.2472 88.3387C91.5429 88.3387 91.8478 85.897 91.8478 84.0962C91.8478 82.2708 91.54 79.8538 89.2472 79.8538C86.9037 79.8538 86.6191 82.2708 86.6191 84.0962C86.6191 85.897 86.9037 88.3387 89.2472 88.3387ZM102.809 89.8314C102.256 89.9453 101.693 90.0006 101.129 89.9963C98.407 89.9963 97.7439 88.7885 97.7439 87.248V80.1156H95.7313V78.4565H97.7439V75.8023L99.8749 74.4759V78.4565H103V80.1156H99.8735V86.1343C99.8735 87.154 100.018 88.3387 101.672 88.3387C102.057 88.3358 102.439 88.2803 102.809 88.1737V89.8328V89.8314Z" fill="#706E6D"/>
<path d="M98.2134 42.139C98.2269 43.4034 97.8909 44.6469 97.2425 45.732C96.5065 46.9395 95.6434 48.0645 94.6679 49.0878C93.6265 50.3473 92.4431 51.4821 91.1412 52.4696C89.8885 53.546 88.508 54.4637 87.0309 55.2019C85.6785 55.9368 84.2318 56.4824 82.7312 56.8234C81.5701 56.9899 80.3867 56.9006 79.2638 56.5616C78.3596 56.2853 77.5722 55.7172 77.0244 54.9459C76.4885 54.1196 76.235 53.1415 76.302 52.1586C76.3772 50.9588 76.6931 49.7865 77.231 48.7117C77.8398 47.4639 78.6076 46.3004 79.5152 45.2503C80.501 44.0901 81.6066 43.0375 82.8136 42.1101C84.0648 41.1428 85.4174 40.3144 86.8474 39.6396C88.1487 39.0138 89.5276 38.5648 90.9476 38.3045C92.0929 38.0828 93.2699 38.0828 94.4151 38.3045C95.3646 38.4505 96.2487 38.8777 96.9536 39.5311C97.6641 40.2269 98.1097 41.1493 98.2134 42.139V42.139ZM93.3633 46.4494C93.3537 45.978 93.1829 45.5241 92.8793 45.1636C92.5698 44.8225 92.1626 44.5855 91.7134 44.4852C91.1653 44.3614 90.5982 44.3472 90.0447 44.4432C89.3531 44.5586 88.6807 44.7689 88.0465 45.0681C86.6654 45.7074 85.4416 46.6433 84.4621 47.8091C84.0262 48.323 83.6603 48.8926 83.3741 49.5029C83.1233 50.0247 82.9845 50.5933 82.9667 51.1721C82.9504 51.6461 83.0905 52.1123 83.3655 52.4985C83.6459 52.8606 84.0355 53.1224 84.4765 53.2449C85.0194 53.3958 85.5881 53.4303 86.1452 53.3461C86.8584 53.2447 87.553 53.0396 88.2069 52.7372C89.6493 52.0863 90.9231 51.1123 91.9301 49.8905C92.373 49.3601 92.7383 48.7694 93.0151 48.136C93.2566 47.6073 93.3756 47.0307 93.3633 46.4494ZM58.4475 4.23485C54.418 6.74733 52.0226 8.06938 49.068 11.6913C47.9921 12.8878 47.0811 14.2232 46.3591 15.6618C45.9488 16.5007 45.4619 17.8806 45.4619 17.8806L45.2611 19.4298L44.9418 21.5257L44.7828 23.4061L44.7568 24.044C44.765 23.7095 44.7964 23.376 44.8507 23.0459C44.8768 22.8752 44.9086 22.6988 44.9461 22.5208C44.9837 22.3429 45.027 22.1592 45.0733 21.9799C45.6488 19.8667 46.5282 17.8485 47.6839 15.9887C48.9088 13.9126 50.4364 12.0313 52.2162 10.4068C53.9712 8.5579 55.8719 6.8533 57.8999 5.30955C59.3534 4.24063 62.9003 2.00441 64.9952 1.71802C63.9792 1.76575 62.9762 1.96716 62.0204 2.3154C60.7877 2.87399 59.594 3.51527 58.4475 4.23485V4.23485Z" fill="#706E6D"/>
<path d="M87.72 5.86803L86.19 4.27693L84.5632 2.83049L83.7411 2.18682L81.8861 1.44479C80.72 1.01895 79.5199 0.693284 78.2987 0.471322C76.6959 0.174059 75.0557 0.137919 73.4414 0.364289C71.9399 0.685285 70.4782 1.17034 69.0825 1.81074C67.1877 2.6306 65.3556 3.58881 63.601 4.6776C60.9625 6.30955 58.4653 8.16026 56.1359 10.2103C53.8675 12.1977 51.7611 14.3631 49.8367 16.686C48.053 18.8196 46.4827 21.1233 45.1484 23.5639C44.0739 25.6632 43.3603 27.9287 43.0376 30.2653C43.0055 30.6588 42.994 31.0537 43.0029 31.4485C43.1386 32.995 43.3897 34.5291 43.7542 36.0381C43.8926 36.6861 44.0667 37.3259 44.2758 37.9546C44.5647 38.8138 45.1947 40.0939 45.1947 40.0939L45.5038 40.6407L46.1945 41.7718C45.9343 41.3656 45.7196 40.9319 45.5544 40.4786C45.379 39.9962 45.2513 39.4977 45.173 38.9903C45.0878 38.4371 45.0486 37.8778 45.0559 37.3182C45.0614 36.6998 45.1097 36.0827 45.2004 35.471C45.6311 32.9582 46.4706 30.5331 47.6854 28.2923C49.0544 25.7024 50.6818 23.258 52.5428 20.9964C54.5415 18.5474 56.7408 16.2695 59.1179 14.1866C61.5556 12.0384 64.1774 10.1091 66.9529 8.42101C69.0125 7.15882 71.1783 6.07905 73.4255 5.19398C75.3049 4.4439 77.2667 3.92 79.2696 3.63327C80.9008 3.38491 82.564 3.44477 84.1732 3.80973C85.5344 4.11617 86.7698 4.83123 87.7143 5.85935" fill="#706E6D"/>
<path d="M97.6152 18.0485L95.0883 11.3601L94.4338 9.89627C93.5025 8.4456 92.0941 7.36651 90.452 6.84571C88.2772 6.3182 86.0225 6.20582 83.8061 6.51447C81.4393 6.7965 79.1222 7.40093 76.9189 8.31097C74.265 9.39082 71.7235 10.7289 69.3309 12.306C63.6369 16.0362 58.6448 20.7427 54.5841 26.2093C52.7495 28.6626 51.1877 31.3088 49.9262 34.1011C48.8079 36.5113 48.1232 39.1001 47.9035 41.7485C47.8493 42.5937 47.8797 43.4422 47.9945 44.2812C48.0968 45.0289 48.291 45.761 48.5724 46.461C48.8345 47.1098 49.1888 47.7173 49.6242 48.2648C50.0552 48.8039 50.5635 49.2762 51.1326 49.6664L53.1177 50.932L55.0089 51.9445L57.1038 52.8688L58.982 53.5385C58.1192 53.2757 57.3066 52.8699 56.5779 52.338C55.891 51.8318 55.3033 51.2032 54.8442 50.4836C54.3675 49.7267 54.0199 48.8957 53.8155 48.0246C53.5846 47.0388 53.4874 46.0264 53.5265 45.0146C53.6604 42.5299 54.244 40.0901 55.2487 37.8142C56.3753 35.1909 57.797 32.7048 59.4862 30.404C63.221 25.2783 67.8722 20.8899 73.2043 17.4612C75.6705 15.8583 78.3143 14.5477 81.0827 13.5558C83.6498 12.6597 86.3354 12.1493 89.052 12.0414C90.9888 11.9881 92.8992 12.4997 94.5508 13.5138C96.0534 14.509 96.3395 16.1825 96.835 18.2133L97.6152 18.0485Z" fill="#706E6D"/>
<path d="M99.5845 31.8621C99.7607 31.3717 100.815 31.0087 100.953 30.5125C101.09 30.0164 101.211 29.513 101.312 29.0097C101.414 28.5063 101.716 25.7465 101.746 25.2344C101.692 24.9389 101.614 24.6486 101.51 24.3666C100.881 23.1847 99.9217 22.2117 98.7494 21.5662C96.8307 20.5207 94.6852 19.9624 92.5008 19.9404C90.161 19.942 87.8381 20.3376 85.6294 21.1106C82.9237 22.0351 80.3357 23.2745 77.9187 24.8034C75.3025 26.4351 72.8521 28.3192 70.6024 30.4286C68.4508 32.432 66.4966 34.6378 64.7669 37.0158C63.1855 39.1683 61.869 41.5038 60.8458 43.9717C59.9406 46.0888 59.4595 48.3632 59.4299 50.6659C59.4283 51.8546 59.6528 53.0328 60.0917 54.1374C60.4929 55.1233 61.117 56.0026 61.915 56.7063C62.7342 57.4511 63.7281 57.9765 64.8045 58.2337C66.0672 58.5298 67.3548 58.7065 68.6505 58.7617L68.9625 58.753L71.1803 58.6083L73.3474 58.3321L74.4224 58.1426L76.4046 57.7L78.3189 57.1532L78.8419 56.9825L80.5828 56.3475L80.9542 56.2029C79.1642 56.967 77.2722 57.465 75.3383 57.6812C73.8345 57.8624 72.3092 57.7143 70.8682 57.2472C69.6777 56.8506 68.6404 56.0922 67.9006 55.0776C67.1541 53.9785 66.7426 52.6861 66.7159 51.3573C66.6772 49.5192 67.0124 47.6924 67.7013 45.9881C68.4805 43.9967 69.5082 42.112 70.7599 40.3788C72.1322 38.4576 73.6931 36.6788 75.4193 35.0688C77.2266 33.3739 79.2017 31.8676 81.3139 30.5733C83.26 29.3639 85.3463 28.3968 87.5264 27.6934C89.302 27.1066 91.1663 26.8345 93.0353 26.8892C94.5513 26.9169 96.0266 27.3853 97.2815 28.2373C98.4797 29.1137 99.3048 30.4091 99.5932 31.8664" fill="#706E6D"/>
<path d="M75.2475 3.83855C74.8477 4.96156 74.2111 5.98521 73.3809 6.83992C72.3 8.00284 71.0934 9.04198 69.7834 9.93822C68.2612 10.9967 66.6539 11.9271 64.9781 12.7197C63.2358 13.5533 61.4257 14.2366 59.5674 14.7621C57.9754 15.2278 56.3356 15.5103 54.6797 15.604C53.5175 15.6924 52.3494 15.5448 51.2455 15.17C50.8687 15.0516 50.5219 14.8532 50.2286 14.5884C49.9354 14.3235 49.7027 13.9985 49.5465 13.6353C49.4231 13.2293 49.3819 12.8027 49.425 12.3805C49.4682 11.9583 49.595 11.549 49.7979 11.1764C49.9363 10.8726 50.0956 10.5787 50.2746 10.2969C50.4707 9.98855 50.6834 9.69111 50.9118 9.40592C51.1487 9.10796 51.4088 8.80999 51.692 8.51202C51.9809 8.21406 52.2786 7.91753 52.6022 7.62245L53.469 6.85728L54.3258 6.16299L55.1392 5.55114L55.9512 4.98124L56.7501 4.45763L57.526 3.98608L58.2946 3.55215C57.4512 4.19859 56.6721 4.9252 55.9685 5.72182C55.5804 6.17529 55.2508 6.67583 54.9875 7.21166C54.892 7.39257 54.8359 7.5917 54.823 7.79591C54.81 8.00012 54.8405 8.20476 54.9124 8.39631C55.0028 8.57021 55.1285 8.72325 55.2815 8.84556C55.4346 8.96788 55.6115 9.05677 55.8009 9.10651C56.3579 9.26982 56.9408 9.32626 57.5187 9.27285C58.3304 9.21113 59.1331 9.06177 59.9127 8.82734C61.6832 8.30999 63.3617 7.51784 64.8871 6.47976C65.534 6.04368 66.1335 5.54095 66.6757 4.9798C67.0967 4.56181 67.4289 4.06291 67.6524 3.5131C67.7346 3.32984 67.7733 3.13 67.7655 2.92925C67.7578 2.7285 67.7037 2.53227 67.6076 2.35593C67.3726 2.02386 67.0195 1.79455 66.6208 1.71516C66.0548 1.59921 65.4701 1.61008 64.9087 1.74698C64.1357 1.84696 63.3692 1.99184 62.613 2.18091C62.1319 2.31861 61.6632 2.49618 61.2116 2.71176C62.5924 1.9706 64.0446 1.37113 65.5459 0.922507C66.5059 0.605504 67.4869 0.356108 68.4817 0.176142C69.518 -0.00468587 70.5738 -0.0465274 71.6212 0.0517381C72.4212 0.0970032 73.2055 0.293313 73.9328 0.63032C74.4971 0.885374 74.952 1.33365 75.2157 1.89452C75.4558 2.51607 75.4656 3.20319 75.2432 3.83132L75.2475 3.83855ZM97.8886 44.2407C97.5074 45.4033 96.9098 46.483 96.1273 47.4229C96.1273 47.4229 95.9063 47.7122 95.7618 47.8974C95.3573 48.4152 94.6869 49.1992 94.6869 49.1992L93.7868 50.1784C92.8086 51.1852 91.7515 52.1119 90.6257 52.9498C89.4165 53.8522 88.1454 54.6681 86.8216 55.3914C85.4466 56.1422 84.021 56.7961 82.5552 57.3485C80.8 58.0112 78.9886 58.5138 77.1431 58.8499C76.2973 59.0019 75.4442 59.1101 74.5872 59.1739L72.9185 59.2462H72.5516L70.7658 59.1956L68.9556 59.0336C68.9556 59.0336 68.6435 58.9945 68.4484 58.967C67.8021 58.8802 67.1602 58.7694 66.5225 58.6344C65.8849 58.4994 65.241 58.3431 64.5909 58.1657L63.62 57.8388L63.3542 57.7101C64.1519 58.0167 64.9801 58.2368 65.8247 58.3668C66.7714 58.5081 67.7268 58.584 68.6839 58.5939C69.7537 58.6055 70.8233 58.5539 71.887 58.4391C73.0645 58.3134 74.2345 58.1251 75.392 57.875C78.192 57.2686 80.9214 56.3723 83.5362 55.2005C86.0908 54.0654 88.5278 52.6817 90.812 51.0694C92.8829 49.6211 94.7816 47.9405 96.4712 46.0604C96.9919 45.4816 97.4699 44.8657 97.9015 44.2176C97.9174 44.1916 97.8929 44.2393 97.8929 44.2393L97.8886 44.2407Z" fill="#040505"/>
<path d="M81.9338 1.46506L83.8828 2.19985L85.8044 3.08508L86.482 3.43657C86.9928 3.70192 87.4649 4.03628 87.8848 4.43028C88.2748 4.79963 88.5988 5.23307 88.8427 5.71183C89.0877 6.20343 89.2428 6.73493 89.3007 7.28123C89.3643 7.90275 89.3302 8.53042 89.1996 9.14136C88.6769 11.2103 87.6667 13.1239 86.2537 14.7218C84.4047 16.9103 82.2901 18.8593 79.9588 20.5235C77.2233 22.5114 74.3091 24.2406 71.254 25.6887C68.0771 27.2138 64.7616 28.431 61.353 29.3237C58.7043 30.0378 55.9833 30.4493 53.2421 30.5503C51.2517 30.6489 49.2601 30.3812 47.3662 29.7605C46.0191 29.3424 44.8559 28.4745 44.0707 27.3015C43.4116 26.1557 43.225 24.7976 43.5506 23.5162L43.6951 22.8927L44.2513 20.8243L44.9462 18.8239L45.6599 17.133L46.3159 15.7545L46.2075 16.0337L46.1815 16.0901C45.598 17.185 45.4434 18.4585 45.7481 19.6614C45.9437 20.2014 46.254 20.6924 46.6576 21.1007C47.0612 21.509 47.5484 21.8248 48.0857 22.0263C49.6419 22.636 51.3104 22.9053 52.9792 22.8161C55.3749 22.7349 57.752 22.3634 60.0585 21.7096C65.3717 20.248 70.3919 17.8759 74.8964 14.6986C76.775 13.3864 78.4931 11.8576 80.0152 10.1438C81.1794 8.89381 82.0423 7.3936 82.5378 5.75812C82.71 5.12559 82.741 4.46288 82.6288 3.81699C82.5221 3.25662 82.2734 2.73312 81.9064 2.29677C81.5114 1.83787 81.0272 1.46434 80.4833 1.19892C80.0633 0.989001 79.6239 0.82041 79.1714 0.695545L78.449 0.503174C78.6925 0.536815 78.9337 0.585116 79.1714 0.647816C79.1714 0.647816 79.8736 0.819944 80.3157 0.948678C80.947 1.12804 81.9338 1.46506 81.9338 1.46506Z" fill="#040505"/>
<path d="M94.8759 10.1682L96.3207 11.9907L97.6354 13.9463L98.2249 14.9443C98.5794 15.5803 98.8237 16.2719 98.9473 16.9896C99.0156 17.3741 99.0533 17.7635 99.06 18.154C99.0666 18.5742 99.0429 18.9942 98.9892 19.411C98.5396 21.9954 97.4464 24.4246 95.8107 26.474C93.7075 29.2237 91.2353 31.6695 88.464 33.7424C81.8061 38.7809 74.1831 42.393 66.0701 44.3535C63.4326 44.9931 60.7395 45.3763 58.0285 45.4977C55.8888 45.6039 53.7446 45.4234 51.6527 44.961C50.0479 44.6198 48.5297 43.9538 47.1912 43.004C46.1029 42.2219 45.266 41.1392 44.7828 39.8883L44.3219 38.5619L43.692 36.2939L43.2499 34.0056L43.1589 33.362L43.0317 32.0746C43.0158 31.9517 43.0317 32.0746 43.0317 32.0746C43.1807 33.2766 43.715 34.3977 44.5545 35.2698C45.6792 36.374 47.0744 37.1622 48.5999 37.5552C50.6745 38.115 52.8238 38.3469 54.9699 38.2423C57.8028 38.1284 60.6159 37.7163 63.3626 37.0128C67.2592 36.0364 71.0469 34.6673 74.6679 32.9266C78.1504 31.2743 81.462 29.2825 84.5545 26.9802C87.1889 25.0543 89.5584 22.7895 91.6021 20.2441C93.1736 18.3724 94.2577 16.1401 94.7574 13.7467C94.846 13.2052 94.875 12.6557 94.8441 12.1079C94.8151 11.6134 94.7244 11.1246 94.574 10.6527C94.4301 10.2054 94.2301 9.77818 93.9787 9.38129C93.8229 9.13903 93.649 8.90888 93.4586 8.69279V8.68555L94.6635 9.95408L94.8499 10.1682H94.8759Z" fill="#040505"/>
<path d="M102.023 27.1958C102.239 28.7759 102.218 30.3793 101.961 31.9532C101.624 34.4178 100.669 36.7567 99.1842 38.7515C97.3414 41.3347 95.1323 43.6352 92.6264 45.5802C86.6871 50.2407 79.7846 53.5168 72.4213 55.1702C70.6188 55.5699 68.7897 55.8382 66.9485 55.9729C65.3649 56.092 63.7739 56.0727 62.1937 55.9151C60.8587 55.785 59.5422 55.507 58.2683 55.0863C57.1948 54.7337 56.1782 54.227 55.2501 53.582L53.4601 52.1861L51.9662 50.8366C51.9662 50.8366 50.9476 49.8414 50.3567 49.15C50.0013 48.7161 49.6545 48.2822 49.3208 47.8395C50.0531 48.6749 50.9352 49.3657 51.9214 49.8762C53.32 50.5848 54.8195 51.0727 56.367 51.3226C58.2931 51.6424 60.2487 51.7482 62.1981 51.6379C64.5677 51.5097 66.9218 51.1768 69.2341 50.6428C73.3106 49.7067 77.2698 48.3172 81.0379 46.5001C84.6627 44.7758 88.0895 42.6621 91.2582 40.1965C93.9818 38.1164 96.3945 35.6571 98.4228 32.8934C100.021 30.7943 101.064 28.3258 101.457 25.7161C101.483 25.4702 101.5 25.2272 101.507 24.9929C101.507 24.7547 101.49 24.5169 101.455 24.2812C101.577 24.622 101.678 24.9698 101.757 25.3227C101.757 25.3227 101.954 26.4654 102.023 27.1958Z" fill="#040505"/>
</svg>
