<svg width="145" height="90" viewBox="0 0 145 90" fill="none" xmlns="http://www.w3.org/2000/svg">
<path d="M30.3623 42.9255C23.3707 41.2435 16.1888 40.4845 9 40.6681V46.3189C16.1885 46.5032 23.3702 45.7464 30.3623 44.0678C30.4887 44.0348 30.6005 43.9609 30.6804 43.8575C30.7603 43.7542 30.8036 43.6272 30.8036 43.4966C30.8036 43.366 30.7603 43.2391 30.6804 43.1357C30.6005 43.0324 30.4887 42.9585 30.3623 42.9255V42.9255ZM30.3623 61.3653C23.3707 59.6833 16.1888 58.9244 9 59.1079V64.7587C16.1885 64.9431 23.3702 64.1863 30.3623 62.5076C30.4887 62.4747 30.6005 62.4007 30.6804 62.2973C30.7603 62.194 30.8036 62.0671 30.8036 61.9365C30.8036 61.8059 30.7603 61.679 30.6804 61.5756C30.6005 61.4723 30.4887 61.3983 30.3623 61.3653V61.3653ZM30.3623 33.6682C23.3703 31.9888 16.1884 31.2326 9 31.4187V37.0695C16.1885 37.2538 23.3702 36.497 30.3623 34.8184C30.4887 34.7854 30.6005 34.7115 30.6804 34.6081C30.7603 34.5048 30.8036 34.3779 30.8036 34.2473C30.8036 34.1166 30.7603 33.9897 30.6804 33.8864C30.6005 33.783 30.4887 33.7091 30.3623 33.6761V33.6682ZM30.3623 52.1446C23.3707 50.4626 16.1888 49.7036 9 49.8872V55.538C16.1885 55.7223 23.3702 54.9655 30.3623 53.2869C30.4887 53.254 30.6005 53.18 30.6804 53.0766C30.7603 52.9733 30.8036 52.8464 30.8036 52.7158C30.8036 52.5852 30.7603 52.4582 30.6804 52.3549C30.6005 52.2515 30.4887 52.1776 30.3623 52.1446V52.1446Z" fill="#040505"/>
<path d="M9 9V27.8407C16.1885 28.0251 23.3702 27.2683 30.3623 25.5897C30.4884 25.5561 30.5998 25.4819 30.6793 25.3784C30.7589 25.275 30.802 25.1482 30.802 25.0178C30.802 24.8873 30.7589 24.7605 30.6793 24.657C30.5998 24.5536 30.4884 24.4793 30.3623 24.4458C27.5403 23.6924 24.6637 23.1605 21.7588 22.8549C22.0118 22.3156 22.9759 21.0748 23.6679 20.1011C25.7138 20.3748 27.3937 20.6802 28.7237 20.965C36.0227 22.5288 36.9581 23.8795 36.9581 25.2222C36.9581 26.5649 36.0385 28.0746 28.9257 29.6226C36.0369 31.1753 36.9581 32.8965 36.9581 34.2249C36.9581 35.5533 36.0322 37.3033 28.8446 38.8607C36.0338 40.4182 36.9581 42.1475 36.9581 43.4743C36.9581 44.8011 36.0385 46.5399 28.9241 48.0879C36.0353 49.6406 36.9581 51.3619 36.9581 52.6903C36.9581 54.0187 36.0385 55.7559 28.9241 57.3038C36.0353 58.8565 36.9581 60.5778 36.9581 61.9062C36.9581 63.1932 36.1038 64.843 29.6894 66.3495C34.6927 67.207 38.0399 68.7088 38.0399 70.2631V81.7015H45.1654V9H9Z" fill="#040505"/>
<path d="M62.2768 28.9829H57.7428V40.9972H56.7883V28.9829H52.302V28.0283H62.2689L62.2768 28.9829ZM74.5043 40.9972H73.5498V34.5461H65.5556V40.9972H64.6011V28.0363H65.5556V33.6044H73.545V28.0363H74.4995L74.5043 40.9972ZM87.2647 40.9972H77.9008V28.0363H86.9449V28.9908H78.849V33.7841H86.4358V34.7386H78.849V40.0649H87.2647V40.9972Z" fill="#040505"/>
<path d="M65.3394 81.6011H64.2035L62.6126 77.4347H56.2332C56.0041 78.0901 55.7554 78.7827 55.4871 79.5123L54.7187 81.6011H53.7117C54.1359 80.4812 54.5559 79.3845 54.9716 78.3112L56.2093 75.1088C57.044 72.9505 57.876 70.7901 58.7054 68.6275H60.0433L65.3394 81.6011ZM62.3438 76.6885L59.337 69.4803L56.4845 76.6885H62.3438ZM82.6576 68.6451L79.285 81.606H77.8643L74.3135 69.8876L70.8804 81.606H69.4534L66.1125 68.6451H67.118L70.1724 80.3635L73.6055 68.6451H75.0247L78.5755 80.3635L81.6538 68.6451H82.6576ZM94.9806 81.6075H93.8431L92.2522 77.441H85.8728C85.6427 78.0965 85.394 78.789 85.1267 79.5187L84.3567 81.6075H83.3513C83.7755 80.4875 84.1955 79.3909 84.6113 78.3176L85.8474 75.1151L87.0851 71.9127L88.345 68.6339H89.683L94.9806 81.6075ZM91.985 76.6949L88.9782 69.4866L86.1258 76.6949H91.985ZM107.397 81.6075H106.362L105.07 78.1633C104.949 77.8432 104.809 77.5308 104.65 77.2278C104.506 76.95 104.325 76.6936 104.111 76.4658C103.911 76.2514 103.672 76.0765 103.407 75.9503C103.116 75.8188 102.798 75.7542 102.478 75.7611H97.9301V81.6091H96.9851V68.6451H102.82C103.351 68.6433 103.88 68.6934 104.4 68.7946C104.882 68.8829 105.344 69.0609 105.76 69.3196C106.165 69.5793 106.494 69.9409 106.715 70.368C106.97 70.9009 107.092 71.4878 107.07 72.0782C107.074 72.4882 107.02 72.8968 106.911 73.292C106.716 74.0276 106.246 74.6597 105.597 75.0563C105.234 75.2761 104.835 75.4301 104.419 75.5113C104.636 75.6753 104.837 75.8579 105.022 76.057C105.179 76.2269 105.316 76.4137 105.431 76.6138C105.551 76.8218 105.654 77.0394 105.738 77.2644C105.83 77.4999 105.934 77.7719 106.056 78.0822L107.396 81.6044L107.397 81.6075ZM97.938 74.8129H102.437C102.989 74.8207 103.54 74.7728 104.082 74.6697C104.488 74.5966 104.873 74.4371 105.212 74.202C105.506 73.9885 105.734 73.6955 105.869 73.3573C106.021 72.9507 106.093 72.5185 106.082 72.0845C106.115 71.7207 106.055 71.3543 105.908 71.0202C105.76 70.686 105.529 70.3953 105.237 70.1755C104.468 69.743 103.589 69.544 102.709 69.6028H97.9364L97.938 74.8129ZM120.737 75.0261C120.737 79.4137 118.555 81.6075 114.192 81.6075H110.274V68.6451H114.192C115.973 68.5076 117.737 69.0748 119.105 70.2248C119.69 70.8702 120.136 71.6287 120.417 72.4534C120.697 73.2781 120.805 74.1515 120.735 75.0197L120.737 75.0261ZM119.733 75.0261C119.742 74.2565 119.657 73.4888 119.479 72.74C119.33 72.0872 119.011 71.4856 118.554 70.9969C118.097 70.5082 117.517 70.15 116.876 69.9591C116 69.6916 115.087 69.5681 114.171 69.5933H111.222V80.6594H114.171C115.083 80.6842 115.993 80.5568 116.863 80.2823C117.52 80.0658 118.11 79.682 118.573 79.1687C119.011 78.6602 119.32 78.0532 119.472 77.3997C119.653 76.6196 119.738 75.8203 119.725 75.0197L119.733 75.0261ZM128.324 81.843C127.549 81.8559 126.777 81.7622 126.028 81.5646C125.432 81.4075 124.871 81.1375 124.377 80.7692C123.944 80.4397 123.593 80.0144 123.352 79.5267C123.109 79.0126 122.969 78.456 122.939 77.8881H123.874C123.945 78.4058 124.126 78.9023 124.405 79.3437C124.654 79.7193 124.983 80.0345 125.37 80.2664C125.775 80.5 126.217 80.6615 126.677 80.7437C127.192 80.8415 127.715 80.8895 128.239 80.8869C128.764 80.8933 129.288 80.8317 129.797 80.7039C130.221 80.5994 130.622 80.4189 130.981 80.171C131.294 79.9537 131.551 79.666 131.733 79.331C131.91 78.9868 131.999 78.6043 131.992 78.2174C132.005 77.84 131.928 77.465 131.768 77.1228C131.591 76.7995 131.329 76.5313 131.009 76.3481C130.569 76.091 130.097 75.8921 129.606 75.7563C129.027 75.5824 128.307 75.4047 127.447 75.2233C126.824 75.0916 126.212 74.9091 125.618 74.6777C125.164 74.5044 124.739 74.2636 124.358 73.9634C124.044 73.7124 123.793 73.3922 123.624 73.0279C123.459 72.6407 123.378 72.2225 123.387 71.8014C123.381 71.3212 123.49 70.8466 123.705 70.4173C123.922 69.9939 124.231 69.6251 124.611 69.3387C125.034 69.0229 125.511 68.7868 126.019 68.6419C126.609 68.4706 127.222 68.387 127.837 68.3937C128.452 68.3877 129.066 68.4659 129.66 68.626C130.179 68.7636 130.669 68.9896 131.111 69.2941C131.522 69.5791 131.868 69.9481 132.126 70.3767C132.385 70.8053 132.549 71.2839 132.608 71.7807H131.698C131.612 71.4355 131.468 71.1073 131.272 70.8102C131.069 70.5054 130.81 70.2423 130.508 70.0355C130.167 69.8056 129.791 69.6336 129.394 69.5264C128.913 69.3988 128.417 69.3373 127.92 69.3435C126.998 69.2807 126.078 69.5028 125.287 69.9798C125.003 70.173 124.772 70.4346 124.616 70.7404C124.46 71.0463 124.383 71.3865 124.393 71.7298C124.384 72.034 124.438 72.3369 124.552 72.6191C124.678 72.8903 124.871 73.1247 125.113 73.3C125.434 73.5294 125.787 73.709 126.162 73.8329C126.692 74.0132 127.234 74.1573 127.784 74.264L128.955 74.5122C129.358 74.5981 129.751 74.7015 130.133 74.8192C130.509 74.9348 130.875 75.0811 131.227 75.2568C131.56 75.4206 131.865 75.6353 132.132 75.8931C132.393 76.1531 132.602 76.4603 132.748 76.7983C132.911 77.1941 132.989 77.6194 132.979 78.0472C132.984 78.5745 132.865 79.0957 132.63 79.568C132.396 80.031 132.065 80.4384 131.66 80.7628C131.219 81.1129 130.717 81.3778 130.179 81.5439C129.577 81.7379 128.948 81.8367 128.316 81.8366L128.324 81.843Z" fill="#040505"/>
<path d="M117.18 53.9886H116.877C117.842 53.9886 118.767 53.6054 119.449 52.9234C120.131 52.2414 120.514 51.3164 120.514 50.3518C120.514 49.3873 120.131 48.4623 119.449 47.7803C118.767 47.0982 117.842 46.7151 116.877 46.7151H108.393V61.8666H117.18C118.224 61.8666 119.226 61.4516 119.965 60.7129C120.704 59.9742 121.119 58.9723 121.119 57.9276C121.119 56.8829 120.704 55.881 119.965 55.1423C119.226 54.4036 118.224 53.9886 117.18 53.9886V53.9886ZM112.028 49.418H115.369C115.753 49.4429 116.113 49.613 116.376 49.8937C116.639 50.1744 116.786 50.5446 116.786 50.9293C116.786 51.314 116.639 51.6843 116.376 51.965C116.113 52.2457 115.753 52.4157 115.369 52.4407H112.028V49.418ZM115.665 58.8376H112.028V55.2008H115.665C116.147 55.2008 116.61 55.3924 116.951 55.7334C117.292 56.0744 117.483 56.5369 117.483 57.0192C117.483 57.5014 117.292 57.964 116.951 58.305C116.61 58.646 116.147 58.8376 115.665 58.8376V58.8376ZM101.422 53.9886H101.12C102.084 53.9886 103.009 53.6054 103.691 52.9234C104.373 52.2414 104.756 51.3164 104.756 50.3518C104.756 49.3873 104.373 48.4623 103.691 47.7803C103.009 47.0982 102.084 46.7151 101.12 46.7151H92.6355V61.8666H101.43C102.475 61.8666 103.476 61.4516 104.215 60.7129C104.954 59.9742 105.369 58.9723 105.369 57.9276C105.369 56.8829 104.954 55.881 104.215 55.1423C103.476 54.4036 102.475 53.9886 101.43 53.9886H101.422ZM96.2707 49.418H99.6115C99.9954 49.4429 100.355 49.613 100.618 49.8937C100.882 50.1744 101.028 50.5446 101.028 50.9293C101.028 51.314 100.882 51.6843 100.618 51.965C100.355 52.2457 99.9954 52.4157 99.6115 52.4407H96.2707V49.418ZM99.9074 58.8376H96.2707V55.2008H99.9074C100.39 55.2008 100.852 55.3924 101.193 55.7334C101.534 56.0744 101.726 56.5369 101.726 57.0192C101.726 57.5014 101.534 57.964 101.193 58.305C100.852 58.646 100.39 58.8376 99.9074 58.8376V58.8376ZM127.18 53.9886H130.202V61.8666H127.18V53.9886Z" fill="#040505"/>
<path d="M128.998 52.1716V57.6252L121.119 46.7166H125.362L128.998 52.1716Z" fill="#040505"/>
<path d="M128.392 52.1716V57.6252L136.27 46.7166H132.027L128.392 52.1716ZM89.9262 54.5946C89.9405 54.3941 89.9548 54.1936 89.9548 53.9884C89.7943 52.2459 89.0061 50.6212 87.7368 49.4167C86.4674 48.2122 84.8036 47.5101 83.0551 47.4411C81.3066 47.372 79.5927 47.9408 78.2324 49.0415C76.8721 50.1423 75.9582 51.6998 75.6608 53.4242C75.3635 55.1486 75.7031 56.9224 76.6163 58.415C77.5294 59.9077 78.954 61.0177 80.6246 61.5381C82.2953 62.0586 84.0981 61.9542 85.6975 61.2443C87.2969 60.5344 88.5837 59.2674 89.3185 57.6793C87.8628 56.7009 86.8797 56.0343 86.8797 56.0343C86.3833 56.7221 85.7494 57.2993 85.0182 57.7293C84.287 58.1592 83.4744 58.4326 82.632 58.532C81.6541 58.429 80.7479 57.9714 80.0845 57.2456C79.4211 56.5198 79.0467 55.5761 79.0318 54.593H89.9246L89.9262 54.5946ZM82.6352 49.4433C83.4049 49.4954 84.1393 49.7859 84.7363 50.2746C85.3333 50.7633 85.7633 51.4258 85.9665 52.17H79.3023C79.5058 51.4257 79.9361 50.7631 80.5333 50.2745C81.1306 49.7858 81.8653 49.4953 82.6352 49.4433V49.4433ZM70.422 46.7166L68.4828 57.14L65.573 46.7166H62.3324L59.4227 57.14L57.4834 46.7166H53.8467L57.4834 61.2619H61.1202L63.9519 52.1557L66.7853 61.2619H70.422L74.0572 46.7166H70.422Z" fill="#040505"/>
</svg>
