<svg width="145" height="90" viewBox="0 0 145 90" fill="none" xmlns="http://www.w3.org/2000/svg">
<path d="M11.2941 43.2786C11.2941 42.332 11.9447 41.9264 13.0058 42.4069C14.1244 43.0026 15.0823 43.8601 15.7978 44.9061L16.5853 43.2676C15.6775 41.9638 14.4432 40.9215 13.0058 40.2448C10.8645 39.2744 9.30703 40.1939 9.30703 42.5405C9.30703 44.9268 10.4716 46.3586 12.6973 48.5015C14.5809 50.3215 14.9754 51.0358 14.9754 52.0015C14.9754 53.1151 14.2403 53.4173 13.1267 52.913C11.7972 52.2188 10.6794 51.1789 9.89089 49.903L9 51.3922C10.0211 52.9751 11.4538 54.2503 13.1443 55.0813C15.354 56.082 16.9623 55.2675 16.9623 52.7364C16.9623 50.5553 15.9347 49.0392 13.6582 46.8342C11.7396 44.9999 11.2956 44.3254 11.2956 43.2754L11.2941 43.2786ZM29.174 55.0511V54.8443C29.174 50.584 26.9992 46.5526 23.9002 45.1479C20.7662 43.7272 18.5739 45.8002 18.5739 50.0797V50.2848C18.5739 54.5452 20.7486 58.5765 23.8651 59.9892C24.3301 60.2479 24.8481 60.3967 25.3795 60.4242C25.9109 60.4518 26.4415 60.3574 26.9308 60.1483L28.1797 62.1353L29.3951 61.0805L28.1224 59.1477C28.8901 57.9223 29.2576 56.4883 29.174 55.0447V55.0511ZM27.136 54.1682C27.176 55.0793 26.9999 55.9869 26.6222 56.817L24.9964 54.2477L23.7793 55.3009L25.5611 58.0054C25.0182 58.1624 24.4358 58.1055 23.9336 57.8463C21.9991 56.9698 20.6452 54.3798 20.6452 51.1901V50.9848C20.6452 47.8762 21.98 46.4858 23.8651 47.3385C25.7503 48.1913 27.136 50.8385 27.136 53.9662V54.1682ZM38.1496 60.8069C38.1496 63.1121 37.1952 63.8296 35.6854 63.1471C34.8577 62.7061 34.1796 62.0291 33.7374 61.202C33.2953 60.3749 33.1089 59.435 33.202 58.5018V49.5928L31.2326 48.7004V57.6092C31.1215 59.1896 31.484 60.7673 32.2738 62.1408C33.0635 63.5142 34.2446 64.6212 35.6663 65.3203C38.339 66.5309 40.1208 65.4237 40.1208 61.5754V52.7252L38.1513 51.8328L38.1496 60.8069ZM45.7573 55.1975L41.3728 67.7002L43.3598 68.6006L44.37 65.6623L48.9835 67.7575L49.9969 71.6121L52.0523 72.5428L47.6663 56.0661L45.7573 55.1975ZM44.9698 63.8152L46.6816 58.8071L48.3774 65.3584L44.9698 63.8152ZM62.3199 67.3757C62.3366 65.9978 61.9456 64.6457 61.1961 63.4894C60.4465 62.3331 59.3719 61.4242 58.1073 60.8769L53.8119 58.9281V73.3351L55.7813 74.2276V69.1368L57.1686 69.7651C57.1861 69.7731 57.8049 70.0325 57.8193 70.0595L60.3536 76.2925L62.6476 77.3329L59.8397 70.4827C61.2922 70.5256 62.3199 69.5917 62.3199 67.3693V67.3757ZM58.0245 68.0406L55.7813 67.0241V61.981L57.9911 62.9816C58.6904 63.2647 59.2873 63.7533 59.7031 64.3827C60.1189 65.0121 60.3341 65.7528 60.3202 66.507C60.317 68.1695 59.4086 68.6627 58.0213 68.0343L58.0245 68.0406ZM66.4864 72.9055L71.4181 75.1328V72.9708L66.4864 70.7356V66.8252L72.0544 69.3484V67.1863L64.5201 63.7659V78.1729L72.1229 81.6188V79.4584L66.488 76.913L66.4864 72.9055ZM21.2211 43.4441L23.7825 32.1918L26.3422 41.2741L28.2067 40.4787L31.8657 24.441L29.7165 25.3526L27.2808 36.8388L24.7211 27.4526L22.9298 28.2114L20.3684 39.7724L17.9312 30.3495L15.7295 31.2834L19.3646 44.2316L21.2211 43.4441ZM42.8157 34.217V19.81L40.7571 20.6834V26.7287L35.8254 28.816V22.7706L33.7652 23.644V38.051L35.8254 37.1777V31.0448L40.7571 28.9575V35.092L42.8157 34.217ZM47.7395 17.7244L45.6618 18.6041V33.0127L47.7395 32.133V17.7244ZM55.188 28.9767V16.7921L58.4652 15.4033V13.1761L49.814 16.835V19.0623L53.1103 17.6655V29.8501L55.188 28.9767ZM68.3922 21.2243L62.506 23.7204V19.6987L67.6636 17.5128V15.3524L62.506 17.5382V13.6279L68.3271 11.1605V9L60.4458 12.3409V26.7478L68.4002 23.3784L68.3922 21.2243ZM136.269 37.534L70.0882 9.32771V11.5645L133.801 38.7176L130.257 40.458L70.0882 14.8178V17.0546L127.815 41.6528L124.269 43.3932L70.0882 20.3064V22.5431L121.833 44.5959L74.654 67.759V70.0531L124.329 45.6617L127.813 47.1461L74.654 73.2476V75.5384L130.314 48.2104L133.798 49.6947L74.654 78.7361V81.0302L136.269 50.778V48.5127L132.754 47.014L136.269 45.2879V43.0225L132.754 41.5239L136.269 39.7978V37.534ZM133.798 44.2156L130.255 45.9561L126.769 44.4718L130.316 42.7314L133.798 44.2156Z" fill="#040505"/>
</svg>
