<svg width="58" height="57" viewBox="0 0 58 57" fill="none" xmlns="http://www.w3.org/2000/svg">
<path d="M25.6175 50.4528V52.7348C25.6175 53.6001 25.0328 54.3576 24.193 54.5802C17.0614 56.4734 9.5561 56.4734 2.42452 54.5802C1.58424 54.3571 1 53.6001 1 52.7348V50.4528" stroke="#344154" stroke-width="2" stroke-miterlimit="10" stroke-linecap="round" stroke-linejoin="round"/>
<path d="M25.6175 43.4445V45.7268C25.6175 46.5922 25.0328 47.3493 24.193 47.5724C17.0614 49.4651 9.5561 49.4651 2.42452 47.5724C1.58424 47.3488 1 46.5917 1 45.7268V43.4445" stroke="#344154" stroke-width="2" stroke-miterlimit="10" stroke-linecap="round" stroke-linejoin="round"/>
<path d="M25.6175 36.4357V38.7181C25.6175 39.5835 25.0328 40.3405 24.193 40.5636C17.0614 42.4567 9.5561 42.4567 2.42452 40.5636C1.58424 40.34 1 39.583 1 38.7181V36.4357" stroke="#344154" stroke-width="2" stroke-miterlimit="10" stroke-linecap="round" stroke-linejoin="round"/>
<path d="M13.3088 35.758C20.1067 35.758 25.6175 34.2044 25.6175 32.2881C25.6175 30.3718 20.1067 28.8182 13.3088 28.8182C6.51083 28.8182 1 30.3718 1 32.2881C1 34.2044 6.51083 35.758 13.3088 35.758Z" stroke="#344154" stroke-width="2" stroke-miterlimit="10" stroke-linecap="round" stroke-linejoin="round"/>
<path d="M28.2921 46.8531H55.0793C56.14 46.8531 57 45.9971 57 44.9413V2.91224C57 1.85599 56.14 1 55.0793 1H25.5964C24.5357 1 23.6758 1.85599 23.6758 2.91224V27.4068" stroke="#344154" stroke-width="2" stroke-miterlimit="10" stroke-linecap="round" stroke-linejoin="round"/>
<path d="M29.3516 9.91006V6.6582H51.3239V9.91006H29.3516Z" fill="#35B4CF" stroke="#00AEEF" stroke-width="2"/>
<path d="M27.4014 28.8183V17.2434H53.2742V42.9978H28.6815H27.4014" stroke="#344154" stroke-width="2" stroke-miterlimit="10" stroke-linecap="round" stroke-linejoin="round"/>
<path d="M44.6163 23.7863H49.5253" stroke="#344154" stroke-width="2" stroke-miterlimit="10" stroke-linecap="round" stroke-linejoin="round"/>
<path d="M31.1503 23.7863H36.0588" stroke="#344154" stroke-width="2" stroke-miterlimit="10" stroke-linecap="round" stroke-linejoin="round"/>
<path d="M33.6045 21.3434V26.2298" stroke="#344154" stroke-width="2" stroke-miterlimit="10" stroke-linecap="round" stroke-linejoin="round"/>
<path d="M31.8691 35.2861L35.3404 38.741" stroke="#344154" stroke-width="2" stroke-miterlimit="10" stroke-linecap="round" stroke-linejoin="round"/>
<path d="M35.3404 35.2861L31.8691 38.741" stroke="#344154" stroke-width="2" stroke-miterlimit="10" stroke-linecap="round" stroke-linejoin="round"/>
<path d="M44.0898 36.9542H48.9988" stroke="#344154" stroke-width="2" stroke-miterlimit="10" stroke-linecap="round" stroke-linejoin="round"/>
<path d="M46.5941 34.7969C46.6871 34.7969 46.7624 34.722 46.7624 34.6294C46.7624 34.5369 46.6871 34.4618 46.5941 34.4618C46.5011 34.4618 46.4258 34.5369 46.4258 34.6294C46.4258 34.722 46.5011 34.7969 46.5941 34.7969Z" stroke="#344154" stroke-width="2" stroke-miterlimit="10" stroke-linecap="round" stroke-linejoin="round"/>
<path d="M46.5941 39.6143C46.6871 39.6143 46.7624 39.5392 46.7624 39.4467C46.7624 39.3541 46.6871 39.2792 46.5941 39.2792C46.5011 39.2792 46.4258 39.3541 46.4258 39.4467C46.4258 39.5392 46.5011 39.6143 46.5941 39.6143Z" stroke="#344154" stroke-width="2" stroke-miterlimit="10" stroke-linecap="round" stroke-linejoin="round"/>
<path d="M31.4344 30.1206H53.2742" stroke="#344154" stroke-width="2" stroke-miterlimit="10" stroke-linecap="round" stroke-linejoin="round"/>
<path d="M40.4785 17.2434V42.9978" stroke="#344154" stroke-width="2" stroke-miterlimit="10" stroke-linecap="round" stroke-linejoin="round"/>
</svg>
