<svg width="58" height="48" viewBox="0 0 58 48" fill="none" xmlns="http://www.w3.org/2000/svg">
<path d="M50.8848 1H7.11434" stroke="#344154" stroke-width="2" stroke-miterlimit="10" stroke-linecap="round" stroke-linejoin="round"/>
<path d="M7.11434 5.44482H50.8848" stroke="#344154" stroke-width="2" stroke-miterlimit="10" stroke-linecap="round" stroke-linejoin="round"/>
<path d="M50.8852 1H54.7602C55.9975 1 57 1.99476 57 3.22243C57 4.44968 55.997 5.44482 54.7602 5.44482H53.1099" stroke="#344154" stroke-width="2" stroke-miterlimit="10" stroke-linecap="round" stroke-linejoin="round"/>
<path d="M7.11523 1H3.24023C2.00294 1 1.00045 1.99476 1.00045 3.22243C1.00045 4.44968 2.00337 5.44482 3.24023 5.44482H4.89057" stroke="#344154" stroke-width="2" stroke-miterlimit="10" stroke-linecap="round" stroke-linejoin="round"/>
<path d="M7.11434 5.44482V39.1454H50.8848V5.44482" stroke="#344154" stroke-width="2" stroke-miterlimit="10" stroke-linecap="round" stroke-linejoin="round"/>
<path d="M28.9997 47.0001C27.9338 47.0001 27.0698 46.1427 27.0698 45.0851C27.0698 44.0275 27.9338 43.1702 28.9997 43.1702C30.0656 43.1702 30.9297 44.0275 30.9297 45.0851C30.9297 46.1427 30.0656 47.0001 28.9997 47.0001Z" stroke="#344154" stroke-width="2" stroke-miterlimit="10" stroke-linecap="round" stroke-linejoin="round"/>
<path d="M29 43.1701V39.1454" stroke="#344154" stroke-width="2" stroke-miterlimit="10" stroke-linecap="round" stroke-linejoin="round"/>
<path d="M41.351 16.3259H44.8018V31.8845H41.351V16.3259Z" fill="#0095DA"/>
<path d="M31.9667 23.4741H35.4178V31.8846H31.9667V23.4741Z" fill="#00AEEF"/>
<path d="M22.582 16.3259H26.0332V31.8845H22.582V16.3259Z" fill="#0095DA"/>
<path d="M13.1984 22.2726H16.6495V31.8841H13.1984V22.2726Z" fill="#00AEEF"/>
<path d="M43.0763 10.6635L33.6924 17.812L24.3081 10.6635L14.9242 16.6109" stroke="#344154" stroke-width="2" stroke-miterlimit="10" stroke-linecap="round" stroke-linejoin="round"/>
</svg>
