<svg width="58" height="52" viewBox="0 0 58 52" fill="none" xmlns="http://www.w3.org/2000/svg">
<path d="M32.1032 39.1895H34.7524C37.2817 39.1895 39.7529 38.4324 41.8458 37.0161L43.7818 35.7058C44.1006 35.4901 44.2113 35.0531 43.9977 34.7335C43.6876 34.2692 43.2937 33.9387 42.8889 33.703C41.9422 33.1525 40.7817 33.2002 39.7972 33.6801C36.2103 35.4273 33.0139 33.953 33.0139 33.953C31.8521 33.2262 30.7404 32.6631 29.6876 32.2326C25.2591 30.4212 20.197 31.0974 16.2979 33.8659" stroke="#344154" stroke-width="2" stroke-miterlimit="10" stroke-linecap="round" stroke-linejoin="round"/>
<path d="M16.2979 43.1503C16.2979 43.1503 22.2881 41.9904 32.7655 42.5851C35.5302 42.7419 38.2849 42.1247 40.7344 40.8357L56.6669 32.4529C57.0144 32.2701 57.106 31.821 56.8645 31.5122C56.2947 30.7836 54.9966 29.7753 52.3995 30.4584C52.1046 30.5359 51.8193 30.6463 51.5392 30.7654L43.523 34.1742" stroke="#344154" stroke-width="2" stroke-miterlimit="10" stroke-linecap="round" stroke-linejoin="round"/>
<path d="M10.2432 46.9775H16.1365V31.8132H10.2432" stroke="#344154" stroke-width="2" stroke-miterlimit="10" stroke-linecap="round" stroke-linejoin="round"/>
<path d="M1 51.0001H10.2431V27.3794H1" stroke="#344154" stroke-width="2" stroke-miterlimit="10" stroke-linecap="round" stroke-linejoin="round"/>
<circle cx="36.5" cy="15.5" r="14.5" stroke="#344154" stroke-width="2"/>
<path d="M32 11L41.8995 20.9243" stroke="#00AEEF" stroke-width="2" stroke-miterlimit="10" stroke-linecap="round" stroke-linejoin="round"/>
<path d="M42 11L32.1005 20.9243" stroke="#00AEEF" stroke-width="2" stroke-miterlimit="10" stroke-linecap="round" stroke-linejoin="round"/>
</svg>
