<svg width="58" height="56" viewBox="0 0 58 56" fill="none" xmlns="http://www.w3.org/2000/svg">
<path d="M10.3334 37.9909C12.1238 37.9909 13.5752 36.5523 13.5752 34.7777C13.5752 33.0031 12.1238 31.5645 10.3334 31.5645C8.54297 31.5645 7.09155 33.0031 7.09155 34.7777C7.09155 36.5523 8.54297 37.9909 10.3334 37.9909Z" stroke="#344154" stroke-width="2" stroke-miterlimit="10" stroke-linecap="round"/>
<path d="M10.333 40.7739V46.2925" stroke="#344154" stroke-width="2" stroke-miterlimit="10" stroke-linecap="round"/>
<path d="M15.5245 54.9997V47.3063" stroke="#344154" stroke-width="2" stroke-miterlimit="10" stroke-linecap="round"/>
<path d="M5.14258 47.3063V54.9997" stroke="#344154" stroke-width="2" stroke-miterlimit="10" stroke-linecap="round"/>
<path d="M1 54.9996V45.0579C1 42.6915 2.27608 40.7734 4.66347 40.7734H16.0029" stroke="#344154" stroke-width="2" stroke-miterlimit="10" stroke-linecap="round"/>
<path d="M16.0029 40.7739C18.3908 40.7739 19.6668 42.692 19.6668 45.0584V50.5598" stroke="#344154" stroke-width="2" stroke-miterlimit="10" stroke-linecap="round"/>
<path d="M29.0001 37.9903C30.7903 37.9903 32.2415 36.5518 32.2415 34.7775C32.2415 33.0031 30.7903 31.5647 29.0001 31.5647C27.21 31.5647 25.7588 33.0031 25.7588 34.7775C25.7588 36.5518 27.21 37.9903 29.0001 37.9903Z" stroke="#344154" stroke-width="2" stroke-miterlimit="10" stroke-linecap="round"/>
<path d="M29 40.7738V46.2923" stroke="#344154" stroke-width="2" stroke-miterlimit="10" stroke-linecap="round"/>
<path d="M34.1914 54.9994V47.3059" stroke="#344154" stroke-width="2" stroke-miterlimit="10" stroke-linecap="round"/>
<path d="M23.8096 47.3059V54.9994" stroke="#344154" stroke-width="2" stroke-miterlimit="10" stroke-linecap="round"/>
<path d="M19.667 50.5592V45.0578C19.667 42.6914 20.9431 40.7733 23.3305 40.7733H34.6699" stroke="#344154" stroke-width="2" stroke-miterlimit="10" stroke-linecap="round"/>
<path d="M34.67 40.7738C37.0579 40.7738 38.3339 42.6919 38.3339 45.0582V50.5597" stroke="#344154" stroke-width="2" stroke-miterlimit="10" stroke-linecap="round"/>
<path d="M47.6666 37.9909C49.457 37.9909 50.9084 36.5523 50.9084 34.7777C50.9084 33.0031 49.457 31.5645 47.6666 31.5645C45.8762 31.5645 44.4248 33.0031 44.4248 34.7777C44.4248 36.5523 45.8762 37.9909 47.6666 37.9909Z" stroke="#344154" stroke-width="2" stroke-miterlimit="10" stroke-linecap="round"/>
<path d="M47.6678 40.7739V46.2925" stroke="#344154" stroke-width="2" stroke-miterlimit="10" stroke-linecap="round"/>
<path d="M52.8584 54.9997V47.3063" stroke="#344154" stroke-width="2" stroke-miterlimit="10" stroke-linecap="round"/>
<path d="M42.4766 47.3063V54.9997" stroke="#344154" stroke-width="2" stroke-miterlimit="10" stroke-linecap="round"/>
<path d="M38.334 50.5593V45.0579C38.334 42.6915 39.6101 40.7734 41.9975 40.7734H53.3369" stroke="#344154" stroke-width="2" stroke-miterlimit="10" stroke-linecap="round"/>
<path d="M53.3368 40.7739C55.7242 40.7739 57.0003 42.692 57.0003 45.0584V55.0001" stroke="#344154" stroke-width="2" stroke-miterlimit="10" stroke-linecap="round"/>
<path d="M48.463 4.44104H9.53699V24.4105H48.463V4.44104Z" stroke="#344154" stroke-width="2" stroke-miterlimit="10" stroke-linecap="round"/>
<path d="M48.936 4.44107H9.06482C8.27375 4.44107 7.63281 3.67103 7.63281 2.72054C7.63281 1.77005 8.27375 1 9.06482 1H48.936C49.7275 1 50.368 1.77049 50.368 2.72054C50.368 3.67059 49.7275 4.44107 48.936 4.44107Z" stroke="#344154" stroke-width="2" stroke-miterlimit="10" stroke-linecap="round"/>
<path d="M30.5117 24.4106V27.9632" stroke="#344154" stroke-width="2" stroke-miterlimit="10" stroke-linecap="round"/>
<path d="M27.4883 27.9632V24.4106" stroke="#344154" stroke-width="2" stroke-miterlimit="10" stroke-linecap="round"/>
<path d="M5.14258 54.9995H52.8581" stroke="#344154" stroke-width="2" stroke-miterlimit="10" stroke-linecap="round"/>
<path d="M16.3008 18.4166L23.2774 13.1141L26.5799 16.4454L32.1798 12.1065L34.9428 14.9373L41.7001 9.92236" stroke="#00AEEF" stroke-width="4" stroke-miterlimit="10" stroke-linecap="round"/>
</svg>
