<svg width="58" height="55" viewBox="0 0 58 55" fill="none" xmlns="http://www.w3.org/2000/svg">
<path d="M52.2746 34.3221H5.725C3.11535 34.3221 1 36.4146 1 38.995V54H8.6427C9.76904 54 10.6818 53.0973 10.6818 51.9834V51.8266C10.6818 48.9137 13.0701 46.5522 16.0155 46.5522H41.985C44.9304 46.5522 47.3183 48.9137 47.3183 51.8266V51.9834C47.3183 53.0973 48.2309 54 49.3577 54H57V38.995C56.9991 36.4142 54.8838 34.3221 52.2746 34.3221Z" stroke="#344154" stroke-width="2" stroke-miterlimit="10" stroke-linecap="round" stroke-linejoin="round"/>
<path d="M35.1757 24.2125V34.3222" stroke="#344154" stroke-width="2" stroke-miterlimit="10" stroke-linecap="round" stroke-linejoin="round"/>
<path d="M22.6552 24.2125V34.3222" stroke="#344154" stroke-width="2" stroke-miterlimit="10" stroke-linecap="round" stroke-linejoin="round"/>
<path d="M28.9999 12.4965C32.2099 12.4965 34.8122 9.92294 34.8122 6.74826C34.8122 3.57358 32.2099 1 28.9999 1C25.7898 1 23.1875 3.57358 23.1875 6.74826C23.1875 9.92294 25.7898 12.4965 28.9999 12.4965Z" stroke="#344154" stroke-width="2" stroke-miterlimit="10" stroke-linecap="round" stroke-linejoin="round"/>
<path d="M17.9365 34.3221V19.8008C17.9365 17.7362 19.6287 16.0619 21.7167 16.0619H36.2829C38.3706 16.0619 40.0636 17.7358 40.0636 19.8008V34.3221" stroke="#344154" stroke-width="2" stroke-miterlimit="10" stroke-linecap="round" stroke-linejoin="round"/>
<path d="M29 16.0618V22.7234" stroke="#344154" stroke-width="2" stroke-miterlimit="10" stroke-linecap="round" stroke-linejoin="round"/>
<path d="M49.7285 20.7285V28.5397" stroke="#344154" stroke-width="2" stroke-miterlimit="10" stroke-linecap="round" stroke-linejoin="round"/>
<path d="M44.9562 11.6757C47.4363 11.6757 49.4468 9.68733 49.4468 7.23456C49.4468 4.7818 47.4363 2.79346 44.9562 2.79346C42.4761 2.79346 40.4656 4.7818 40.4656 7.23456C40.4656 9.68733 42.4761 11.6757 44.9562 11.6757Z" stroke="#344154" stroke-width="2" stroke-miterlimit="10" stroke-linecap="round" stroke-linejoin="round"/>
<path d="M40.0547 14.431H50.5842C52.1975 14.431 53.5049 15.7244 53.5049 17.3195V28.5393" stroke="#344154" stroke-width="2" stroke-miterlimit="10" stroke-linecap="round" stroke-linejoin="round"/>
<path d="M44.957 14.431V19.5782" stroke="#344154" stroke-width="2" stroke-miterlimit="10" stroke-linecap="round" stroke-linejoin="round"/>
<path d="M8.15039 20.7285V28.5397" stroke="#344154" stroke-width="2" stroke-miterlimit="10" stroke-linecap="round" stroke-linejoin="round"/>
<path d="M13.0531 11.6757C15.5332 11.6757 17.5437 9.68733 17.5437 7.23456C17.5437 4.7818 15.5332 2.79346 13.0531 2.79346C10.573 2.79346 8.5625 4.7818 8.5625 7.23456C8.5625 9.68733 10.573 11.6757 13.0531 11.6757Z" stroke="#344154" stroke-width="2" stroke-miterlimit="10" stroke-linecap="round" stroke-linejoin="round"/>
<path d="M4.50488 28.5395V17.3198C4.50488 15.7243 5.81271 14.4313 7.42555 14.4313H18.3723" stroke="#344154" stroke-width="2" stroke-miterlimit="10" stroke-linecap="round" stroke-linejoin="round"/>
<path d="M13.0537 14.431V19.5782" stroke="#344154" stroke-width="2" stroke-miterlimit="10" stroke-linecap="round" stroke-linejoin="round"/>
<path d="M54.4007 38.9955C54.4007 37.8357 53.4472 36.8927 52.2749 36.8927H5.72535C4.55309 36.8927 3.59961 37.8357 3.59961 38.9955V40.6346H54.4011V38.9955H54.4007Z" fill="#00AEEF"/>
</svg>
