<svg width="58" height="57" viewBox="0 0 58 57" fill="none" xmlns="http://www.w3.org/2000/svg">
<path d="M45.5635 45.7815L48.4226 48.3321L52.5446 43.2885" stroke="#344154" stroke-width="2" stroke-miterlimit="10" stroke-linecap="round"/>
<path d="M56.9075 38.9052C51.9116 39.4935 48.8097 36.6208 48.8097 36.6208C48.8097 36.6208 45.7081 39.4935 40.712 38.9052C40.712 38.9052 39.153 52.1445 48.8097 55.0002C58.4667 52.1447 56.9075 38.9052 56.9075 38.9052Z" stroke="#344154" stroke-width="2" stroke-miterlimit="10" stroke-linecap="round"/>
<path d="M12.1888 23.9736C9.21338 24.4844 7.8457 22.1385 7.8457 22.1385C8.96524 22.0039 9.67232 21.3922 10.134 20.5232C10.7665 19.3315 10.8342 18.0749 10.9876 16.7539C11.0966 15.8169 11.2533 14.8728 11.6384 14.0118C12.5132 12.0557 14.7024 10.8931 16.7917 10.8931C18.8812 10.8931 21.0701 12.0559 21.9452 14.0118C22.3301 14.8728 22.487 15.8169 22.5957 16.7539C22.7492 18.0749 22.8168 19.3315 23.4494 20.5232C23.9108 21.3925 24.6179 22.0039 25.7376 22.1385C25.7376 22.1385 24.37 24.4844 21.3945 23.9736" stroke="#344154" stroke-width="2" stroke-miterlimit="10" stroke-linecap="round"/>
<path d="M20.9105 20.2889C20.9105 23.0246 19.0667 25.2423 16.7922 25.2423C14.5177 25.2423 12.6738 23.0246 12.6738 20.2889" stroke="#344154" stroke-width="2" stroke-miterlimit="10" stroke-linecap="round"/>
<path d="M24.3574 28.2912C24.1545 28.0019 23.9405 27.7479 23.717 27.5467C21.3074 25.3782 20.1203 27.7433 16.7924 27.7433C13.4645 27.7433 12.2774 25.3784 9.86785 27.5467C8.15657 29.0867 7.01367 33.7074 7.01367 33.7074" stroke="#344154" stroke-width="2" stroke-miterlimit="10" stroke-linecap="round"/>
<path d="M36.219 48.1467C36.219 48.1467 35.2637 44.2856 33.8338 42.9987C31.8203 41.1867 30.8284 43.1631 28.0475 43.1631C25.2666 43.1631 24.2747 41.1867 22.2611 42.9987C20.8312 44.2856 19.876 48.1467 19.876 48.1467" stroke="#344154" stroke-width="2" stroke-miterlimit="10" stroke-linecap="round"/>
<path d="M28.0479 40.8391C30.6599 40.8391 32.7774 38.4904 32.7774 35.5932C32.7774 32.696 30.6599 30.3473 28.0479 30.3473C25.4358 30.3473 23.3184 32.696 23.3184 35.5932C23.3184 38.4904 25.4358 40.8391 28.0479 40.8391Z" stroke="#344154" stroke-width="2" stroke-miterlimit="10" stroke-linecap="round"/>
<path d="M48.7324 33.7074C48.7324 33.7074 47.5895 29.0867 45.8782 27.5467C43.4687 25.3782 42.2815 27.7433 38.9536 27.7433C35.6258 27.7433 34.4388 25.3784 32.0291 27.5467C31.8446 27.7128 31.6668 27.9145 31.4961 28.1424" stroke="#344154" stroke-width="2" stroke-miterlimit="10" stroke-linecap="round"/>
<path d="M38.9539 25.2277C42.0997 25.2277 44.65 22.0188 44.65 18.0604C44.65 14.102 42.0997 10.8931 38.9539 10.8931C35.808 10.8931 33.2578 14.102 33.2578 18.0604C33.2578 22.0188 35.808 25.2277 38.9539 25.2277Z" stroke="#344154" stroke-width="2" stroke-miterlimit="10" stroke-linecap="round"/>
<path d="M34.4609 13.6548C34.93 15.5666 37.5862 15.7128 38.3134 13.8986" stroke="#344154" stroke-width="2" stroke-miterlimit="10" stroke-linecap="round"/>
<path d="M37.3506 14.9598C37.9305 16.3407 39.1795 16.7113 40.1804 16.3808C41.8342 15.8351 42.0324 14.7556 44.2026 15.2706" stroke="#344154" stroke-width="2" stroke-miterlimit="10" stroke-linecap="round"/>
<path d="M53.0608 36.6216C54.0263 33.8557 54.5512 30.8829 54.5512 27.7875C54.5512 12.9932 42.5634 1 27.7755 1C12.9878 1 1 12.9932 1 27.7875C1 42.5819 12.9878 54.5751 27.7755 54.5751C32.6132 54.5751 37.1511 53.2916 41.0678 51.0464" stroke="#344154" stroke-width="2" stroke-miterlimit="10" stroke-linecap="round"/>
<path d="M12.847 29.3897C12.6876 29.3314 12.5007 29.2627 12.3313 29.2061C12.0511 29.1126 11.7403 29.1722 11.5201 29.3693C11.5177 29.3715 11.5152 29.3737 11.5128 29.3759C11.0632 29.7807 10.4817 31.006 10.0078 32.3214C11.8212 33.2247 14.0123 33.3792 15.9557 32.7648C17.7666 32.1923 19.3429 30.9989 20.4907 29.4795C19.5787 29.8099 18.3731 30.2036 16.7922 30.2036C15.0669 30.2036 13.7835 29.7334 12.847 29.3897Z" fill="#0095DA"/>
<path d="M43.0216 29.3898C43.181 29.3315 43.3679 29.2629 43.5374 29.2063C43.8175 29.1128 44.1284 29.1723 44.3485 29.3694C44.351 29.3716 44.3534 29.3738 44.3559 29.376C44.8054 29.7808 45.3869 31.0062 45.8608 32.3216C44.0472 33.2248 41.8563 33.3793 39.9129 32.7649C38.102 32.1924 36.5258 30.999 35.3779 29.4796C36.2901 29.8101 37.4957 30.2038 39.0764 30.2038C40.8017 30.2038 42.0848 29.7335 43.0216 29.3898Z" fill="#00AEEF"/>
</svg>
