<svg width="24" height="24" viewBox="0 0 24 24" fill="none" xmlns="http://www.w3.org/2000/svg">
<circle cx="12" cy="12" r="12" fill="#8D9FBB"/>
<path d="M12.0035 8.90586C10.016 8.90586 8.41289 10.509 8.41289 12.4965C8.41289 14.484 10.016 16.0871 12.0035 16.0871C13.991 16.0871 15.5941 14.484 15.5941 12.4965C15.5941 10.509 13.991 8.90586 12.0035 8.90586ZM12.0035 14.8309C10.7191 14.8309 9.66914 13.784 9.66914 12.4965C9.66914 11.209 10.716 10.1621 12.0035 10.1621C13.291 10.1621 14.3379 11.209 14.3379 12.4965C14.3379 13.784 13.2879 14.8309 12.0035 14.8309ZM16.5785 8.75898C16.5785 9.22461 16.2035 9.59648 15.741 9.59648C15.2754 9.59648 14.9035 9.22148 14.9035 8.75898C14.9035 8.29648 15.2785 7.92148 15.741 7.92148C16.2035 7.92148 16.5785 8.29648 16.5785 8.75898ZM18.9566 9.60898C18.9035 8.48711 18.6473 7.49336 17.8254 6.67461C17.0066 5.85586 16.0129 5.59961 14.891 5.54336C13.7348 5.47773 10.2691 5.47773 9.11289 5.54336C7.99414 5.59648 7.00039 5.85273 6.17852 6.67148C5.35664 7.49023 5.10352 8.48398 5.04727 9.60586C4.98164 10.7621 4.98164 14.2277 5.04727 15.384C5.10039 16.5059 5.35664 17.4996 6.17852 18.3184C7.00039 19.1371 7.99102 19.3934 9.11289 19.4496C10.2691 19.5152 13.7348 19.5152 14.891 19.4496C16.0129 19.3965 17.0066 19.1402 17.8254 18.3184C18.6441 17.4996 18.9004 16.5059 18.9566 15.384C19.0223 14.2277 19.0223 10.7652 18.9566 9.60898ZM17.4629 16.6246C17.2191 17.2371 16.7473 17.709 16.1316 17.9559C15.2098 18.3215 13.0223 18.2371 12.0035 18.2371C10.9848 18.2371 8.79414 18.3184 7.87539 17.9559C7.26289 17.7121 6.79102 17.2402 6.54414 16.6246C6.17852 15.7027 6.26289 13.5152 6.26289 12.4965C6.26289 11.4777 6.18164 9.28711 6.54414 8.36836C6.78789 7.75586 7.25977 7.28398 7.87539 7.03711C8.79727 6.67148 10.9848 6.75586 12.0035 6.75586C13.0223 6.75586 15.2129 6.67461 16.1316 7.03711C16.7441 7.28086 17.216 7.75273 17.4629 8.36836C17.8285 9.29023 17.7441 11.4777 17.7441 12.4965C17.7441 13.5152 17.8285 15.7059 17.4629 16.6246Z" fill="white"/>
</svg>
