<svg width="94" height="96" viewBox="0 0 94 96" fill="none" xmlns="http://www.w3.org/2000/svg">
<g id="Business Research" clip-path="url(#clip0_128_1221)">
<path id="Vector" fill-rule="evenodd" clip-rule="evenodd" d="M13.278 50.0184C13.278 49.1057 12.9177 48.2304 12.2762 47.5842C11.6356 46.939 10.7665 46.5761 9.86039 46.5761C8.17599 46.5761 5.75729 46.5761 4.07387 46.5761C3.16771 46.5761 2.29866 46.939 1.65712 47.5842C1.01656 48.2304 0.65625 49.1057 0.65625 50.0184C0.65625 56.5519 0.65625 77.1182 0.65625 77.1182C0.65625 77.9335 1.31243 78.5935 2.12094 78.5935H11.8133C12.6218 78.5935 13.278 77.9335 13.278 77.1182V50.0184ZM30.0497 45.1136C30.0497 43.2125 28.5196 41.6713 26.6321 41.6713C24.9487 41.6713 22.53 41.6713 20.8456 41.6713C18.9581 41.6713 17.428 43.2125 17.428 45.1136V77.1182C17.428 77.9335 18.0842 78.5935 18.8927 78.5935H28.585C29.3936 78.5935 30.0497 77.9335 30.0497 77.1182V45.1136ZM41.4509 75.6429H37.1301V38.2625C37.1301 38.1317 37.1808 38.0068 37.2726 37.9143C37.3644 37.8228 37.4884 37.7707 37.6183 37.7707H43.4038C43.5337 37.7707 43.6577 37.8228 43.7495 37.9143C43.8413 38.0068 43.8921 38.1317 43.8921 38.2625V43.7633C43.8921 44.5776 44.5483 45.2385 45.3568 45.2385C46.1653 45.2385 46.8215 44.5776 46.8215 43.7633V38.2625C46.8215 37.3498 46.4621 36.4735 45.8206 35.8283C45.18 35.1831 44.311 34.8202 43.4038 34.8202C41.7204 34.8202 39.3017 34.8202 37.6183 34.8202C36.7121 34.8202 35.8421 35.1831 35.2016 35.8283C34.561 36.4735 34.2007 37.3498 34.2007 38.2625V77.1182C34.2007 77.9335 34.8559 78.5935 35.6654 78.5935H41.4509C42.2594 78.5935 42.9156 77.9326 42.9156 77.1182C42.9156 76.3048 42.2594 75.6429 41.4509 75.6429ZM27.1203 45.1136V75.6429H20.3574V45.1136C20.3574 44.8422 20.5761 44.6219 20.8456 44.6219H26.6321C26.9016 44.6219 27.1203 44.8422 27.1203 45.1136ZM10.3486 50.0184V75.6429H3.58564V50.0184C3.58564 49.8886 3.63739 49.7637 3.7282 49.6712C3.81999 49.5788 3.944 49.5267 4.07387 49.5267H9.86039C9.98928 49.5267 10.1133 49.5788 10.2051 49.6712C10.2969 49.7637 10.3486 49.8886 10.3486 50.0184ZM53.9018 39.008V24.7539C53.9018 24.6241 53.9535 24.4992 54.0453 24.4067C54.1361 24.3143 54.2611 24.2621 54.39 24.2621H60.1765C60.3054 24.2621 60.4304 24.3143 60.5212 24.4067C60.613 24.4992 60.6648 24.6241 60.6648 24.7539V37.0409C60.6648 37.8553 61.321 38.5162 62.1295 38.5162C62.938 38.5162 63.5942 37.8553 63.5942 37.0409C63.5942 37.0409 63.5942 28.6643 63.5942 24.7539C63.5942 23.8412 63.2339 22.9659 62.5933 22.3207C61.9518 21.6745 61.0827 21.3116 60.1765 21.3116C58.4921 21.3116 56.0734 21.3116 54.39 21.3116C53.4839 21.3116 52.6148 21.6745 51.9733 22.3207C51.3327 22.9659 50.9724 23.8412 50.9724 24.7539V39.008C50.9724 39.8223 51.6286 40.4832 52.4371 40.4832C53.2456 40.4832 53.9018 39.8223 53.9018 39.008ZM26.6272 24.029L12.1844 27.1979C11.3944 27.372 10.8935 28.1578 11.0653 28.9535C11.2372 29.7492 12.0184 30.2547 12.8083 30.0816L27.2502 26.9117C28.0402 26.7386 28.5421 25.9518 28.3702 25.1561C28.1974 24.3605 27.4172 23.855 26.6272 24.029ZM49.4403 10.2274L35.4125 20.1481C34.7504 20.6162 34.5903 21.5368 35.0551 22.2036C35.5199 22.8695 36.4339 23.0308 37.0949 22.5626L51.1238 12.6419C51.7858 12.1747 51.9459 11.2532 51.4811 10.5873C51.0163 9.92051 50.1024 9.75921 49.4403 10.2274Z" fill="white"/>
<path id="Vector_2" fill-rule="evenodd" clip-rule="evenodd" d="M54.5277 15.1328C58.1992 15.1328 61.1804 12.1302 61.1804 8.43214C61.1804 4.73412 58.1992 1.73145 54.5277 1.73145C50.8562 1.73145 47.8751 4.73412 47.8751 8.43214C47.8751 12.1302 50.8562 15.1328 54.5277 15.1328ZM54.5277 12.1823C52.4732 12.1823 50.8045 10.5015 50.8045 8.43214C50.8045 6.36282 52.4732 4.68199 54.5277 4.68199C56.5822 4.68199 58.251 6.36282 58.251 8.43214C58.251 10.5015 56.5822 12.1823 54.5277 12.1823ZM32.0085 31.0579C35.68 31.0579 38.6612 28.0552 38.6612 24.3572C38.6612 20.6592 35.68 17.6565 32.0085 17.6565C28.337 17.6565 25.3559 20.6592 25.3559 24.3572C25.3559 28.0552 28.337 31.0579 32.0085 31.0579ZM32.0085 28.1074C29.954 28.1074 28.2853 26.4265 28.2853 24.3572C28.2853 22.2879 29.954 20.6071 32.0085 20.6071C34.063 20.6071 35.7318 22.2879 35.7318 24.3572C35.7318 26.4265 34.063 28.1074 32.0085 28.1074ZM7.30889 36.4781C10.9804 36.4781 13.9606 33.4764 13.9606 29.7784C13.9606 26.0794 10.9804 23.0777 7.30889 23.0777C3.63739 23.0777 0.65625 26.0794 0.65625 29.7784C0.65625 33.4764 3.63739 36.4781 7.30889 36.4781ZM7.30889 33.5275C5.25344 33.5275 3.58564 31.8477 3.58564 29.7784C3.58564 27.7081 5.25344 26.0282 7.30889 26.0282C9.36337 26.0282 11.0312 27.7081 11.0312 29.7784C11.0312 31.8477 9.36337 33.5275 7.30889 33.5275ZM74.969 83.4203C74.969 83.4203 78.3192 86.7957 84.2942 92.8128C86.3506 94.8841 89.6843 94.8841 91.7417 92.8128L91.8774 92.6751C93.9348 90.6039 93.9348 87.2452 91.8774 85.1739C85.9034 79.1567 79.4148 72.6213 79.4148 72.6213C78.8436 72.0459 77.9159 72.0459 77.3437 72.6213C76.7725 73.1976 76.7725 74.132 77.3437 74.7083L89.8063 87.2599C90.7193 88.1795 90.7193 89.6695 89.8063 90.5891L89.6696 90.7268C88.7576 91.6454 87.2773 91.6454 86.3653 90.7268L77.0401 81.3342C76.4688 80.7579 75.5402 80.7579 74.969 81.3342C74.3968 81.9096 74.3968 82.8449 74.969 83.4203Z" fill="white"/>
<path id="Vector_3" fill-rule="evenodd" clip-rule="evenodd" d="M61.5066 40.5146C49.5351 40.5146 39.8154 50.3046 39.8154 62.3634C39.8154 74.4213 49.5351 84.2113 61.5066 84.2113C73.478 84.2113 83.1977 74.4213 83.1977 62.3634C83.1977 50.3046 73.478 40.5146 61.5066 40.5146ZM61.5066 43.4652C71.862 43.4652 80.2683 51.9333 80.2683 62.3634C80.2683 72.7926 71.862 81.2607 61.5066 81.2607C51.1512 81.2607 42.7448 72.7926 42.7448 62.3634C42.7448 51.9333 51.1512 43.4652 61.5066 43.4652ZM53.4068 53.8708C55.5091 51.8359 58.3633 50.5839 61.5066 50.5839C67.961 50.5839 73.2007 55.8624 73.2007 62.3634C73.2007 68.8645 67.961 74.142 61.5066 74.142C55.0522 74.142 49.8125 68.8645 49.8125 62.3634C49.8125 60.7741 50.1249 59.2585 50.6923 57.8757C51.0008 57.1223 50.6444 56.2597 49.8974 55.949C49.1504 55.6372 48.2931 55.9962 47.9845 56.7486C47.2746 58.4795 46.8831 60.3758 46.8831 62.3634C46.8831 70.4932 53.4351 77.0926 61.5066 77.0926C69.578 77.0926 76.1301 70.4932 76.1301 62.3634C76.1301 54.2337 69.578 47.6333 61.5066 47.6333C57.5763 47.6333 54.0054 49.1981 51.3768 51.7434C50.7938 52.307 50.7753 53.2423 51.3357 53.8295C51.8962 54.4166 52.8239 54.4353 53.4068 53.8708Z" fill="white"/>
</g>
<defs>
<clipPath id="clip0_128_1221">
<rect width="93.7404" height="94.4175" fill="white" transform="translate(0.167969 0.84082)"/>
</clipPath>
</defs>
</svg>
