<svg width="88" height="84" viewBox="0 0 88 84" fill="none" xmlns="http://www.w3.org/2000/svg">
<g id="Plan">
<g id="Group">
<path id="Compound Path" d="M53.362 6.87842H12.3859C10.119 6.88621 7.94809 7.74429 6.34968 9.26426C4.75126 10.7842 3.85601 12.8419 3.86046 14.9854V57.9727C3.85538 58.3918 4.02378 58.7961 4.32969 59.0994L22.5904 76.9046C22.748 77.0611 22.9373 77.186 23.147 77.272C23.3566 77.358 23.5824 77.4032 23.811 77.4051H53.362C58.0782 77.4051 61.8507 73.7577 61.8507 69.298V14.9854C61.8507 10.5257 58.0782 6.87842 53.362 6.87842ZM22.1642 71.7796L9.58781 59.6116H20.3897C21.333 59.6116 22.1642 60.3159 22.1642 61.2079V71.7796ZM58.4294 69.298C58.4363 69.9314 58.3111 70.5598 58.0612 71.1474C57.8112 71.735 57.4412 72.2703 56.9725 72.7227C56.5037 73.1751 55.9453 73.5357 55.3291 73.784C54.713 74.0324 54.0511 74.1635 53.3814 74.1699H25.5854V61.2079C25.5854 58.5321 23.2194 56.3765 20.3897 56.3765H7.28171V14.9854C7.27635 13.6996 7.81085 12.4644 8.76786 11.5509C9.72486 10.6375 11.0261 10.1205 12.3859 10.1136H53.362C54.7145 10.1218 56.0082 10.6376 56.9585 11.5476C57.9089 12.4577 58.438 13.6874 58.4296 14.9663V69.298H58.4294Z" fill="white"/>
<path id="Path" d="M49.6686 27.9072H17.1325C16.6788 27.9072 16.2437 28.0776 15.9229 28.381C15.6021 28.6844 15.4219 29.0958 15.4219 29.5248C15.4219 29.9538 15.6021 30.3653 15.9229 30.6686C16.2437 30.972 16.6788 31.1424 17.1325 31.1424H49.6686C50.1223 31.1424 50.5574 30.972 50.8782 30.6686C51.199 30.3653 51.3792 29.9538 51.3792 29.5248C51.3792 29.0958 51.199 28.6844 50.8782 28.381C50.5574 28.0776 50.1223 27.9072 49.6686 27.9072Z" fill="white"/>
<path id="Path 2" d="M49.6686 37.6123H17.1325C16.6788 37.6123 16.2437 37.7827 15.9229 38.0861C15.6021 38.3894 15.4219 38.8009 15.4219 39.2299C15.4219 39.6589 15.6021 40.0703 15.9229 40.3737C16.2437 40.677 16.6788 40.8475 17.1325 40.8475H49.6686C50.1223 40.8475 50.5574 40.677 50.8782 40.3737C51.199 40.0703 51.3792 39.6589 51.3792 39.2299C51.3792 38.8009 51.199 38.3894 50.8782 38.0861C50.5574 37.7827 50.1223 37.6123 49.6686 37.6123Z" fill="white"/>
<path id="Path 3" d="M49.6686 47.3184H17.1325C16.6788 47.3184 16.2437 47.4888 15.9229 47.7921C15.6021 48.0955 15.4219 48.5069 15.4219 48.9359C15.4219 49.365 15.6021 49.7764 15.9229 50.0797C16.2437 50.3831 16.6788 50.5535 17.1325 50.5535H49.6686C50.1223 50.5535 50.5574 50.3831 50.8782 50.0797C51.199 49.7764 51.3792 49.365 51.3792 48.9359C51.3792 48.5069 51.199 48.0955 50.8782 47.7921C50.5574 47.4888 50.1223 47.3184 49.6686 47.3184Z" fill="white"/>
<path id="Path 4" d="M17.1325 22.0843H32.154C32.6077 22.0843 33.0428 21.9139 33.3636 21.6105C33.6844 21.3072 33.8646 20.8957 33.8646 20.4667C33.8646 20.0377 33.6844 19.6263 33.3636 19.3229C33.0428 19.0195 32.6077 18.8491 32.154 18.8491H17.1325C16.6788 18.8491 16.2437 19.0195 15.9229 19.3229C15.6021 19.6263 15.4219 20.0377 15.4219 20.4667C15.4219 20.8957 15.6021 21.3072 15.9229 21.6105C16.2437 21.9139 16.6788 22.0843 17.1325 22.0843Z" fill="white"/>
<path id="Compound Path 2" d="M76.2966 8.46729C74.279 8.46972 72.3446 9.22837 70.9175 10.577C69.4903 11.9256 68.6866 13.7542 68.6827 15.6621L68.6484 64.5132C68.6483 64.7733 68.7145 65.0297 68.8414 65.2605L74.7792 76.0593C74.9236 76.322 75.1415 76.5421 75.4091 76.6957C75.6767 76.8493 75.9838 76.9306 76.2968 76.9306C76.6099 76.9306 76.9169 76.8493 77.1845 76.6957C77.4521 76.5421 77.67 76.322 77.8145 76.0593L83.7522 65.2605C83.8792 65.0297 83.9454 64.7733 83.9452 64.5132L83.911 15.6621C83.907 13.7542 83.1033 11.9256 81.676 10.5769C80.2487 9.2283 78.3143 8.46968 76.2966 8.46729ZM80.4962 24.8338H72.0971L72.0981 23.2163H80.4947L80.4962 24.8338ZM80.4986 28.069L80.5227 62.8471H72.0709L72.0954 28.069H80.4986ZM76.297 11.7025C77.4082 11.7039 78.4735 12.1219 79.2595 12.8647C80.0454 13.6076 80.4879 14.6147 80.4899 15.6655L80.4928 19.9811H72.101L72.1039 15.665C72.1061 14.6143 72.5486 13.6072 73.3346 12.8645C74.1205 12.1217 75.1858 11.7039 76.297 11.7025ZM76.297 71.757L73.1766 66.0822H79.417L76.297 71.757Z" fill="white"/>
</g>
</g>
</svg>
