<svg width="140" height="125" viewBox="0 0 140 125" fill="none" xmlns="http://www.w3.org/2000/svg">
<path fill-rule="evenodd" clip-rule="evenodd" d="M0.693832 58.8511C6.21339 25.4789 35.2057 0.0285187 70.1423 0.0285187C105.079 0.0285187 134.071 25.4789 139.591 58.8511H133.438C127.987 28.8441 101.722 6.09058 70.1431 6.09058C38.5637 6.09058 12.2987 28.8441 6.84805 58.8511H0.693832Z" fill="#0E52A7"/>
<circle cx="70.1416" cy="69.5962" r="53.8669" stroke="#0E52A7" stroke-width="1.35594" stroke-dasharray="4.95 4.95"/>
<path d="M66.0546 48.3359H74.2317C74.4486 48.3359 74.6566 48.2498 74.8099 48.0964C74.9633 47.9431 75.0494 47.7351 75.0494 47.5182C75.0494 47.3014 74.9633 47.0934 74.8099 46.94C74.6566 46.7867 74.4486 46.7005 74.2317 46.7005H66.0546C65.8378 46.7005 65.6298 46.7867 65.4764 46.94C65.3231 47.0934 65.2369 47.3014 65.2369 47.5182C65.2369 47.7351 65.3231 47.9431 65.4764 48.0964C65.6298 48.2498 65.8378 48.3359 66.0546 48.3359ZM48.065 53.2422H56.2421C56.459 53.2422 56.667 53.156 56.8203 53.0027C56.9737 52.8493 57.0598 52.6414 57.0598 52.4245C57.0598 52.2076 56.9737 51.9996 56.8203 51.8463C56.667 51.6929 56.459 51.6068 56.2421 51.6068H48.065C47.8482 51.6068 47.6402 51.6929 47.4868 51.8463C47.3335 51.9996 47.2473 52.2076 47.2473 52.4245C47.2473 52.6414 47.3335 52.8493 47.4868 53.0027C47.6402 53.156 47.8482 53.2422 48.065 53.2422ZM64.4192 54.8776H66.5796C66.7189 54.8777 66.8558 54.9133 66.9775 54.9812C67.0991 55.049 67.2014 55.1468 67.2747 55.2652L68.0564 56.5278C68.2762 56.8835 68.5833 57.1771 68.9486 57.3807C69.3138 57.5844 69.725 57.6913 70.1432 57.6913C70.5613 57.6913 70.9726 57.5844 71.3378 57.3807C71.703 57.1771 72.0101 56.8835 72.23 56.5278L73.0117 55.2652C73.085 55.1468 73.1873 55.049 73.3089 54.9812C73.4305 54.9133 73.5675 54.8777 73.7068 54.8776H75.8671C76.5178 54.8776 77.1417 54.6192 77.6018 54.1591C78.0618 53.6991 78.3203 53.0751 78.3203 52.4245V45.8828C78.3203 45.2322 78.0618 44.6082 77.6018 44.1482C77.1417 43.6881 76.5178 43.4297 75.8671 43.4297H64.4192C63.7686 43.4297 63.1446 43.6881 62.6846 44.1482C62.2245 44.6082 61.9661 45.2322 61.9661 45.8828V52.4245C61.9661 53.0751 62.2245 53.6991 62.6846 54.1591C63.1446 54.6192 63.7686 54.8776 64.4192 54.8776ZM63.6015 45.8828C63.6015 45.6659 63.6877 45.458 63.841 45.3046C63.9944 45.1513 64.2024 45.0651 64.4192 45.0651H75.8671C76.084 45.0651 76.292 45.1513 76.4454 45.3046C76.5987 45.458 76.6849 45.6659 76.6849 45.8828V52.4245C76.6849 52.6414 76.5987 52.8493 76.4454 53.0027C76.292 53.156 76.084 53.2422 75.8671 53.2422H73.7068C73.2884 53.2406 72.8766 53.3467 72.5111 53.5503C72.1456 53.754 71.8387 54.0483 71.62 54.405L70.8382 55.6675C70.765 55.7862 70.6626 55.8842 70.5408 55.9522C70.419 56.0201 70.2818 56.0558 70.1424 56.0558C70.0029 56.0558 69.8657 56.0201 69.7439 55.9522C69.6221 55.8842 69.5197 55.7862 69.4465 55.6675L68.6713 54.405C68.4521 54.0476 68.1445 53.7528 67.778 53.5491C67.4116 53.3454 66.9988 53.2397 66.5796 53.2422H64.4192C64.2024 53.2422 63.9944 53.156 63.841 53.0027C63.6877 52.8493 63.6015 52.6414 63.6015 52.4245V45.8828ZM66.0546 51.6068H74.2317C74.4486 51.6068 74.6566 51.5206 74.8099 51.3673C74.9633 51.2139 75.0494 51.0059 75.0494 50.7891C75.0494 50.5722 74.9633 50.3642 74.8099 50.2109C74.6566 50.0575 74.4486 49.9714 74.2317 49.9714H66.0546C65.8378 49.9714 65.6298 50.0575 65.4764 50.2109C65.3231 50.3642 65.2369 50.5722 65.2369 50.7891C65.2369 51.0059 65.3231 51.2139 65.4764 51.3673C65.6298 51.5206 65.8378 51.6068 66.0546 51.6068ZM48.065 56.513H56.2421C56.459 56.513 56.667 56.4269 56.8203 56.2735C56.9737 56.1202 57.0598 55.9122 57.0598 55.6953C57.0598 55.4785 56.9737 55.2705 56.8203 55.1171C56.667 54.9638 56.459 54.8776 56.2421 54.8776H48.065C47.8482 54.8776 47.6402 54.9638 47.4868 55.1171C47.3335 55.2705 47.2473 55.4785 47.2473 55.6953C47.2473 55.9122 47.3335 56.1202 47.4868 56.2735C47.6402 56.4269 47.8482 56.513 48.065 56.513ZM92.2213 51.6068H84.0442C83.8274 51.6068 83.6194 51.6929 83.466 51.8463C83.3127 51.9996 83.2265 52.2076 83.2265 52.4245C83.2265 52.6414 83.3127 52.8493 83.466 53.0027C83.6194 53.156 83.8274 53.2422 84.0442 53.2422H92.2213C92.4382 53.2422 92.6462 53.156 92.7995 53.0027C92.9529 52.8493 93.039 52.6414 93.039 52.4245C93.039 52.2076 92.9529 51.9996 92.7995 51.8463C92.6462 51.6929 92.4382 51.6068 92.2213 51.6068ZM93.8568 48.3359H82.4088C81.7582 48.3359 81.1343 48.5944 80.6742 49.0544C80.2142 49.5145 79.9557 50.1385 79.9557 50.7891V57.3307C79.9557 57.9814 80.2142 58.6053 80.6742 59.0654C81.1343 59.5254 81.7582 59.7839 82.4088 59.7839H84.5692C84.7085 59.7839 84.8454 59.8196 84.9671 59.8874C85.0887 59.9552 85.191 60.053 85.2643 60.1715L86.046 61.434C86.2658 61.7897 86.5729 62.0833 86.9382 62.287C87.3034 62.4906 87.7146 62.5975 88.1328 62.5975C88.551 62.5975 88.9622 62.4906 89.3274 62.287C89.6926 62.0833 89.9998 61.7897 90.2196 61.434L91.0013 60.1715C91.0746 60.053 91.1769 59.9552 91.2985 59.8874C91.4201 59.8196 91.5571 59.7839 91.6964 59.7839H93.8568C94.5074 59.7839 95.1313 59.5254 95.5914 59.0654C96.0514 58.6053 96.3099 57.9814 96.3099 57.3307V50.7891C96.3099 50.1385 96.0514 49.5145 95.5914 49.0544C95.1313 48.5944 94.5074 48.3359 93.8568 48.3359ZM94.6745 57.3307C94.6745 57.5476 94.5883 57.7556 94.435 57.909C94.2816 58.0623 94.0736 58.1485 93.8568 58.1485H91.6964C91.278 58.1468 90.8662 58.2529 90.5007 58.4566C90.1352 58.6602 89.8283 58.9546 89.6096 59.3112L88.8278 60.5738C88.7546 60.6925 88.6522 60.7905 88.5304 60.8584C88.4086 60.9264 88.2714 60.9621 88.132 60.9621C87.9925 60.9621 87.8553 60.9264 87.7335 60.8584C87.6117 60.7905 87.5093 60.6925 87.4361 60.5738L86.6609 59.3112C86.4417 58.9539 86.1341 58.6591 85.7676 58.4554C85.4012 58.2517 84.9884 58.146 84.5692 58.1485H82.4088C82.192 58.1485 81.984 58.0623 81.8306 57.909C81.6773 57.7556 81.5911 57.5476 81.5911 57.3307V50.7891C81.5911 50.5722 81.6773 50.3642 81.8306 50.2109C81.984 50.0575 82.192 49.9714 82.4088 49.9714H93.8568C94.0736 49.9714 94.2816 50.0575 94.435 50.2109C94.5883 50.3642 94.6745 50.5722 94.6745 50.7891V57.3307ZM95.6557 74.012L95.6672 73.9924C96.0828 73.131 96.3023 72.1882 96.3099 71.2318C96.3152 69.7469 95.8139 68.3045 94.8889 67.1429C93.9639 65.9812 92.6705 65.1697 91.2221 64.8423C89.7737 64.5149 88.257 64.6911 86.9222 65.342C85.5875 65.9928 84.5146 67.0793 83.8807 68.4222C83.8693 68.4385 83.8627 68.4581 83.8529 68.4745C83.1471 69.9499 83.0288 71.6386 83.522 73.1981C84.0152 74.7575 85.083 76.0711 86.5088 76.8724C86.5035 76.8999 86.4997 76.9278 86.4974 76.9558V79.9142C86.2902 80.0272 86.0932 80.158 85.9086 80.3051L81.5911 83.7591V83.4974C81.588 81.2547 80.748 79.0938 79.2356 77.4378C77.7232 75.7817 75.6473 74.7496 73.414 74.5435C73.414 74.5288 73.414 74.5157 73.414 74.5026V72.0495C73.4101 72.0214 73.4046 71.9936 73.3977 71.9661C74.5561 71.3053 75.4837 70.3049 76.0551 69.0999C76.6265 67.895 76.8143 66.5436 76.5929 65.2285C76.3716 63.9134 75.7518 62.698 74.8174 61.7465C73.883 60.795 72.679 60.1533 71.3681 59.9082C71.2462 59.8305 71.1054 59.7875 70.9609 59.7839H70.5357C70.4914 59.7888 70.4476 59.7976 70.4049 59.81C70.3165 59.81 70.2331 59.7839 70.1432 59.7839C68.7035 59.7794 67.3028 60.2515 66.1596 61.1265C65.0163 62.0016 64.1949 63.2304 63.8233 64.6213C63.4517 66.0123 63.5509 67.487 64.1054 68.8157C64.6599 70.1443 65.6386 71.252 66.8887 71.9661C66.8817 71.9936 66.8763 72.0214 66.8723 72.0495V74.5026C66.8723 74.5174 66.8723 74.5304 66.8723 74.5435C64.6391 74.7496 62.5631 75.7817 61.0507 77.4378C59.5383 79.0938 58.6984 81.2547 58.6953 83.4974V83.7591L54.3777 80.3051C54.1932 80.158 53.9962 80.0272 53.789 79.9142V76.9558C53.7851 76.9277 53.7796 76.8998 53.7726 76.8724C55.1984 76.0714 56.2662 74.7582 56.7597 73.1991C57.2532 71.64 57.1354 69.9516 56.4302 68.4761C56.4188 68.4581 56.4122 68.4385 56.4008 68.4205C56.037 67.6426 55.5232 66.9442 54.8888 66.3653C54.2545 65.7865 53.512 65.3387 52.704 65.0477C51.8961 64.7566 51.0386 64.628 50.1809 64.6692C49.3231 64.7105 48.4819 64.9208 47.7056 65.288C46.9294 65.6553 46.2333 66.1722 45.6573 66.8093C45.0814 67.4463 44.637 68.1908 44.3496 69C44.0622 69.8093 43.9375 70.6673 43.9826 71.5249C44.0278 72.3825 44.2419 73.2227 44.6127 73.9973L44.6307 74.012C45.1982 75.2103 46.1164 76.2078 47.2637 76.8724C47.2567 76.8998 47.2512 76.9277 47.2473 76.9558V79.4923C46.3241 79.6808 45.4943 80.1823 44.8983 80.9121C44.3023 81.6419 43.9767 82.5552 43.9765 83.4974V94.9454C43.9765 95.1622 44.0626 95.3702 44.216 95.5236C44.3693 95.6769 44.5773 95.7631 44.7942 95.7631H95.4922C95.709 95.7631 95.917 95.6769 96.0704 95.5236C96.2237 95.3702 96.3099 95.1622 96.3099 94.9454V83.4974C96.3097 82.5552 95.9841 81.6419 95.3881 80.9121C94.792 80.1823 93.9623 79.6808 93.039 79.4923V76.9558C93.0351 76.9277 93.0297 76.8998 93.0227 76.8724C94.17 76.2078 95.0882 75.2103 95.6557 74.012ZM70.1432 61.4193C71.132 61.422 72.0969 61.7234 72.9114 62.284C73.7259 62.8447 74.352 63.6383 74.7076 64.5609L70.5929 63.3916C69.7195 63.1454 68.7892 63.1949 67.9468 63.5323L65.6049 64.4775C65.972 63.5746 66.5998 62.8016 67.408 62.2569C68.2163 61.7122 69.1685 61.4206 70.1432 61.4193ZM65.2369 66.3255C65.3417 66.3257 65.4455 66.3057 65.5428 66.2667L68.5585 65.0499C69.063 64.848 69.62 64.8181 70.1432 64.9649L74.8221 66.2945C74.8951 66.3102 74.97 66.3157 75.0445 66.3108V66.3255C75.0445 67.6268 74.5276 68.8747 73.6075 69.7948C72.6874 70.7149 71.4395 71.2318 70.1383 71.2318C68.8371 71.2318 67.5891 70.7149 66.669 69.7948C65.7489 68.8747 65.232 67.6268 65.232 66.3255H65.2369ZM71.7786 72.635V74.5026C71.7786 74.9364 71.6063 75.3524 71.2996 75.6591C70.9929 75.9658 70.5769 76.1381 70.1432 76.1381C69.7094 76.1381 69.2935 75.9658 68.9868 75.6591C68.6801 75.3524 68.5078 74.9364 68.5078 74.5026V72.635C69.576 72.9447 70.7103 72.9447 71.7786 72.635ZM60.3307 83.4974C60.3374 81.6096 61.0694 79.7966 62.3752 78.4332C63.681 77.0699 65.4608 76.2605 67.3466 76.1724C67.633 76.6598 68.0418 77.0639 68.5325 77.3447C69.0232 77.6254 69.5787 77.7731 70.144 77.7731C70.7093 77.7731 71.2648 77.6254 71.7555 77.3447C72.2462 77.0639 72.655 76.6598 72.9414 76.1724C74.8269 76.2609 76.6063 77.0705 77.9117 78.4338C79.2172 79.7971 79.949 81.6099 79.9557 83.4974V84.3152H76.6849C76.1095 84.3113 75.5434 84.4603 75.0446 84.747C74.5457 85.0337 74.132 85.4478 73.8457 85.9468C73.5594 86.4459 73.4108 87.0121 73.4151 87.5875C73.4194 88.1628 73.5765 88.7267 73.8703 89.2214H66.4177C66.7083 88.726 66.8628 88.1627 66.8655 87.5884C66.8683 87.014 66.7191 86.4492 66.4332 85.9511C66.1473 85.453 65.7348 85.0394 65.2375 84.7521C64.7402 84.4648 64.1758 84.314 63.6015 84.3152H60.3307V83.4974ZM78.3203 85.9506V89.2214H76.6849C76.2511 89.2214 75.8351 89.0491 75.5284 88.7424C75.2217 88.4357 75.0494 88.0197 75.0494 87.586C75.0494 87.1522 75.2217 86.7363 75.5284 86.4296C75.8351 86.1229 76.2511 85.9506 76.6849 85.9506H78.3203ZM65.2369 87.586C65.2369 88.0197 65.0646 88.4357 64.7579 88.7424C64.4512 89.0491 64.0352 89.2214 63.6015 89.2214H61.9661V85.9506H63.6015C64.0352 85.9506 64.4512 86.1229 64.7579 86.4296C65.0646 86.7363 65.2369 87.1522 65.2369 87.586ZM45.6119 71.2318C45.6084 70.1999 45.9313 69.1934 46.5344 68.3561C47.1375 67.5188 47.9899 66.8937 48.9697 66.5702C49.9496 66.2467 51.0066 66.2413 51.9897 66.5548C52.9728 66.8684 53.8316 67.4848 54.4432 68.3159L47.9015 69.6127C47.7168 69.6504 47.5508 69.7508 47.4316 69.8968C47.3124 70.0429 47.2473 70.2256 47.2473 70.4141V72.8672H45.9128C45.7191 72.3435 45.6173 71.7902 45.6119 71.2318ZM46.8875 74.5026H48.065C48.2819 74.5026 48.4899 74.4165 48.6432 74.2631C48.7966 74.1098 48.8827 73.9018 48.8827 73.6849V71.0862L55.1971 69.8335C55.3411 70.2859 55.4177 70.7571 55.4244 71.2318C55.428 72.224 55.1296 73.1937 54.5689 74.0123C54.0081 74.8308 53.2116 75.4593 52.2851 75.8143C51.3586 76.1692 50.346 76.2339 49.3819 75.9996C48.4178 75.7653 47.5478 75.2432 46.8875 74.5026ZM52.1536 77.5412V79.4367C52.044 79.4285 51.9344 79.4089 51.8265 79.4089H48.8827V77.5412C49.4157 77.6883 49.9653 77.7663 50.5182 77.7735C51.071 77.7663 51.6206 77.6883 52.1536 77.5412ZM52.1536 90.0391V94.1277H45.6119V83.4974C45.6119 82.8468 45.8704 82.2229 46.3304 81.7628C46.7905 81.3028 47.4144 81.0443 48.065 81.0443H51.8265C52.3836 81.0445 52.924 81.2342 53.3589 81.5824L58.5922 85.7739C58.7383 85.8896 58.9194 85.9519 59.1057 85.9506H60.3307V89.2214H58.1507L51.8265 84.4787C51.7406 84.4143 51.6428 84.3674 51.5388 84.3407C51.4348 84.3141 51.3265 84.3082 51.2202 84.3234C51.1139 84.3386 51.0117 84.3745 50.9193 84.4292C50.8269 84.484 50.7461 84.5563 50.6817 84.6422C50.6173 84.7281 50.5704 84.8259 50.5437 84.9299C50.5171 85.0339 50.5112 85.1422 50.5264 85.2485C50.5416 85.3548 50.5775 85.4571 50.6323 85.5495C50.687 85.6419 50.7593 85.7226 50.8452 85.787L55.4244 89.2214H52.9713C52.7544 89.2214 52.5464 89.3076 52.3931 89.4609C52.2397 89.6143 52.1536 89.8222 52.1536 90.0391ZM86.4974 94.1277H53.789V90.8568H86.4974V94.1277ZM94.6745 83.4974V94.1277H88.1328V90.0391C88.1328 89.8222 88.0466 89.6143 87.8933 89.4609C87.7399 89.3076 87.532 89.2214 87.3151 89.2214H84.8619L89.4411 85.787C89.6146 85.6569 89.7293 85.4632 89.76 85.2485C89.7907 85.0338 89.7348 84.8157 89.6047 84.6422C89.4745 84.4687 89.2808 84.354 89.0661 84.3234C88.8515 84.2927 88.6334 84.3486 88.4599 84.4787L82.1357 89.2214H79.9557V85.9506H81.1806C81.3666 85.9511 81.5471 85.8882 81.6925 85.7723L86.9258 81.5824C87.3612 81.2339 87.9022 81.0441 88.4599 81.0443H92.2213C92.8719 81.0443 93.4959 81.3028 93.956 81.7628C94.416 82.2229 94.6745 82.8468 94.6745 83.4974ZM88.1328 79.4367V77.5412C89.2011 77.851 90.3353 77.851 91.4036 77.5412V79.4089H88.4599C88.3519 79.4089 88.2424 79.4285 88.1328 79.4367ZM89.7682 76.1381C88.467 76.1381 87.2191 75.6212 86.299 74.701C85.3789 73.7809 84.8619 72.533 84.8619 71.2318C84.8687 70.7571 84.9453 70.2859 85.0893 69.8335L91.4036 71.0862V73.6849C91.4036 73.9018 91.4898 74.1098 91.6431 74.2631C91.7965 74.4165 92.0045 74.5026 92.2213 74.5026H93.3988C92.9428 75.0153 92.3837 75.426 91.758 75.7078C91.1324 75.9896 90.4544 76.1362 89.7682 76.1381ZM93.039 72.8672V70.4141C93.0391 70.2256 92.974 70.0429 92.8548 69.8968C92.7356 69.7508 92.5696 69.6504 92.3849 69.6127L85.8432 68.3159C86.5336 67.3584 87.5478 66.6838 88.6977 66.4171C89.8475 66.1503 91.0551 66.3095 92.0966 66.8652C93.138 67.4209 93.9427 68.3353 94.3613 69.4389C94.78 70.5426 94.7844 71.7606 94.3735 72.8672H93.039ZM46.4296 59.7839H48.59C48.7293 59.7839 48.8662 59.8196 48.9879 59.8874C49.1095 59.9552 49.2118 60.053 49.2851 60.1715L50.0668 61.434C50.2866 61.7897 50.5937 62.0833 50.959 62.287C51.3242 62.4906 51.7354 62.5975 52.1536 62.5975C52.5717 62.5975 52.983 62.4906 53.3482 62.287C53.7134 62.0833 54.0205 61.7897 54.2404 61.434L55.0221 60.1715C55.0954 60.053 55.1977 59.9552 55.3193 59.8874C55.4409 59.8196 55.5779 59.7839 55.7172 59.7839H57.8775C58.5282 59.7839 59.1521 59.5254 59.6122 59.0654C60.0722 58.6053 60.3307 57.9814 60.3307 57.3307V50.7891C60.3307 50.1385 60.0722 49.5145 59.6122 49.0544C59.1521 48.5944 58.5282 48.3359 57.8775 48.3359H46.4296C45.779 48.3359 45.155 48.5944 44.695 49.0544C44.2349 49.5145 43.9765 50.1385 43.9765 50.7891V57.3307C43.9765 57.9814 44.2349 58.6053 44.695 59.0654C45.155 59.5254 45.779 59.7839 46.4296 59.7839ZM45.6119 50.7891C45.6119 50.5722 45.6981 50.3642 45.8514 50.2109C46.0048 50.0575 46.2127 49.9714 46.4296 49.9714H57.8775C58.0944 49.9714 58.3024 50.0575 58.4558 50.2109C58.6091 50.3642 58.6953 50.5722 58.6953 50.7891V57.3307C58.6953 57.5476 58.6091 57.7556 58.4558 57.909C58.3024 58.0623 58.0944 58.1485 57.8775 58.1485H55.7172C55.2979 58.146 54.8852 58.2517 54.5187 58.4554C54.1523 58.6591 53.8446 58.9539 53.6255 59.3112L52.8437 60.5738C52.7705 60.6925 52.6681 60.7905 52.5463 60.8584C52.4245 60.9264 52.2873 60.9621 52.1479 60.9621C52.0084 60.9621 51.8712 60.9264 51.7494 60.8584C51.6276 60.7905 51.5252 60.6925 51.452 60.5738L50.6817 59.3112C50.4625 58.9539 50.1549 58.6591 49.7884 58.4554C49.422 58.2517 49.0092 58.146 48.59 58.1485H46.4296C46.2127 58.1485 46.0048 58.0623 45.8514 57.909C45.6981 57.7556 45.6119 57.5476 45.6119 57.3307V50.7891ZM92.2213 54.8776H84.0442C83.8274 54.8776 83.6194 54.9638 83.466 55.1171C83.3127 55.2705 83.2265 55.4785 83.2265 55.6953C83.2265 55.9122 83.3127 56.1202 83.466 56.2735C83.6194 56.4269 83.8274 56.513 84.0442 56.513H92.2213C92.4382 56.513 92.6462 56.4269 92.7995 56.2735C92.9529 56.1202 93.039 55.9122 93.039 55.6953C93.039 55.4785 92.9529 55.2705 92.7995 55.1171C92.6462 54.9638 92.4382 54.8776 92.2213 54.8776Z" fill="#0E52A7"/>
</svg>
