<svg width="140" height="125" viewBox="0 0 140 125" fill="none" xmlns="http://www.w3.org/2000/svg">
<path d="M97.2758 71.3866C97.2758 69.0572 95.3809 67.1623 93.0515 67.1623H91.2411V62.9379C91.2411 59.9567 89.5634 57.3558 87.1073 56.0281C87.6497 55.5224 88.0823 54.9105 88.3781 54.2305C88.674 53.5505 88.8269 52.8169 88.8272 52.0753C88.8272 49.0821 86.3891 46.644 83.3959 46.644C80.4026 46.644 77.9646 49.0821 77.9646 52.0753C77.9646 53.6323 78.6284 55.0384 79.6845 56.0281C78.4886 56.6759 77.4804 57.6218 76.7576 58.7739C76.0348 57.6218 75.0266 56.6759 73.8308 56.0281C74.3732 55.5224 74.8058 54.9105 75.1016 54.2305C75.3975 53.5505 75.5504 52.8169 75.5507 52.0753C75.5507 49.0821 73.1126 46.644 70.1194 46.644C67.1261 46.644 64.6881 49.0821 64.6881 52.0753C64.6881 53.6323 65.3519 55.0384 66.408 56.0281C65.2121 56.6759 64.2039 57.6218 63.4811 58.7739C62.7583 57.6218 61.7501 56.6759 60.5543 56.0281C61.0967 55.5224 61.5293 54.9105 61.8251 54.2305C62.121 53.5505 62.2739 52.8169 62.2742 52.0753C62.2742 49.0821 59.8361 46.644 56.8429 46.644C53.8496 46.644 51.4116 49.0821 51.4116 52.0753C51.4116 53.6323 52.0754 55.0384 53.1315 56.0281C50.6753 57.3558 48.9977 59.9567 48.9977 62.9379V67.1623H47.1872C44.8578 67.1623 42.9629 69.0572 42.9629 71.3866C42.9629 73.5108 44.538 75.267 46.5838 75.5627V87.6805C46.5838 89.678 48.2071 91.3014 50.2046 91.3014H90.0341C92.0316 91.3014 93.655 89.678 93.655 87.6805V75.5627C95.7008 75.267 97.2758 73.5108 97.2758 71.3866ZM80.3785 52.0753C80.3785 50.4097 81.7303 49.058 83.3959 49.058C85.0615 49.058 86.4133 50.4097 86.4133 52.0753C86.4133 53.7409 85.0615 55.0927 83.3959 55.0927C81.7303 55.0927 80.3785 53.7409 80.3785 52.0753ZM83.3959 57.5066C86.3891 57.5066 88.8272 59.9447 88.8272 62.9379V67.1623H77.9646V62.9379C77.9646 59.9447 80.4026 57.5066 83.3959 57.5066ZM67.102 52.0753C67.102 50.4097 68.4538 49.058 70.1194 49.058C71.785 49.058 73.1368 50.4097 73.1368 52.0753C73.1368 53.7409 71.785 55.0927 70.1194 55.0927C68.4538 55.0927 67.102 53.7409 67.102 52.0753ZM70.1194 57.5066C73.1126 57.5066 75.5507 59.9447 75.5507 62.9379V67.1623H64.6881V62.9379C64.6881 59.9447 67.1261 57.5066 70.1194 57.5066ZM53.8255 52.0753C53.8255 50.4097 55.1773 49.058 56.8429 49.058C58.5085 49.058 59.8603 50.4097 59.8603 52.0753C59.8603 53.7409 58.5085 55.0927 56.8429 55.0927C55.1773 55.0927 53.8255 53.7409 53.8255 52.0753ZM51.4116 62.9379C51.4116 59.9447 53.8496 57.5066 56.8429 57.5066C59.8361 57.5066 62.2742 59.9447 62.2742 62.9379V67.1623H51.4116V62.9379ZM91.2411 82.8527H48.9977V75.6109H91.2411V82.8527ZM91.2411 87.6805C91.2411 88.3443 90.6979 88.8874 90.0341 88.8874H50.2046C49.5408 88.8874 48.9977 88.3443 48.9977 87.6805V85.2666H91.2411V87.6805ZM93.0515 73.197H47.1872C46.1915 73.197 45.3768 72.3823 45.3768 71.3866C45.3768 70.3909 46.1915 69.5762 47.1872 69.5762H93.0515C94.0472 69.5762 94.8619 70.3848 94.8619 71.3866C94.8619 72.3884 94.0472 73.197 93.0515 73.197Z" fill="#0E52A7"/>
<path fill-rule="evenodd" clip-rule="evenodd" d="M0.672195 59.2275C6.19156 25.8551 35.184 0.404495 70.1208 0.404495C105.058 0.404495 134.05 25.8551 139.569 59.2275H133.414C127.964 29.2203 101.699 6.46661 70.1194 6.46661C38.5398 6.46661 12.2747 29.2203 6.82423 59.2275H0.672195Z" fill="#0E52A7"/>
<circle cx="70.1201" cy="69.9727" r="53.8669" stroke="#0E52A7" stroke-width="1.35594" stroke-dasharray="4.95 4.95"/>
</svg>
