<svg width="140" height="125" viewBox="0 0 140 125" fill="none" xmlns="http://www.w3.org/2000/svg">
<path fill-rule="evenodd" clip-rule="evenodd" d="M139.884 65.5469C134.365 98.9193 105.373 124.37 70.4359 124.37C35.4991 124.37 6.50667 98.9193 0.987305 65.5469H7.14114C12.5916 95.5542 38.8567 118.308 70.4363 118.308C102.016 118.308 128.281 95.5542 133.731 65.5469H139.884Z" fill="#0E52A7"/>
<circle cx="70.4355" cy="54.9448" r="53.8669" stroke="#0E52A7" stroke-width="1.35594" stroke-dasharray="4.95 4.95"/>
<path d="M52.805 29.1962C52.6128 29.2646 52.447 29.3931 52.3316 29.5632C52.2161 29.7332 52.1569 29.936 52.1625 30.1423V77.387C52.1625 77.8827 52.607 78.3331 53.0964 78.3331H57.3572C57.6043 78.327 57.8398 78.2257 58.0157 78.05C58.1917 77.8742 58.2949 77.6371 58.3043 77.387C58.2949 77.1368 58.1917 76.8997 58.0157 76.7239C57.8398 76.5482 57.6043 76.4469 57.3572 76.4408H54.0304V31.0903H77.3798C77.6268 31.0842 77.8623 30.983 78.0383 30.8072C78.2142 30.6314 78.3174 30.3943 78.3268 30.1442C78.3174 29.894 78.2142 29.6569 78.0383 29.4812C77.8623 29.3054 77.6268 29.2042 77.3798 29.1981H53.0964C52.9999 29.1827 52.9016 29.1827 52.805 29.1981V29.1962ZM80.8243 29.7279C80.6321 29.7964 80.4663 29.9249 80.3508 30.0949C80.2353 30.2649 80.1761 30.4677 80.1817 30.674V38.2428C80.1817 38.7386 80.6263 39.1889 81.1157 39.1889H88.5875C89.301 39.1606 89.7213 38.1161 89.2301 37.5919L81.7583 30.0231C81.6548 29.9116 81.5267 29.8267 81.3844 29.7753C81.2421 29.724 81.0898 29.7077 80.9401 29.7279C80.9015 29.7255 80.8629 29.7255 80.8243 29.7279ZM82.0497 32.9219L86.3702 37.2967H82.0497V32.9219ZM57.7663 36.7612V38.6534H74.5779V36.7612H57.7663ZM88.354 40.5457C88.1407 40.6068 87.9547 40.7404 87.8271 40.924C87.6996 41.1077 87.6383 41.3302 87.6535 41.5542V43.3291C87.6595 43.5793 87.7594 43.8179 87.933 43.9961C88.1065 44.1744 88.3405 44.2789 88.5875 44.2884C88.8347 44.2789 89.0691 44.1741 89.2426 43.9954C89.4162 43.8168 89.5159 43.5778 89.5215 43.3272V41.5542C89.5588 40.9979 89.0171 40.4775 88.4698 40.5494C88.4312 40.547 88.3926 40.547 88.354 40.5494V40.5457ZM95.6502 40.5457C94.6919 40.5457 93.7505 40.8768 93.0239 41.611L91.3315 43.3859C91.219 43.4439 91.1193 43.5244 91.0382 43.6224C90.9417 43.7039 90.8623 43.8043 90.8047 43.9176L62.2643 72.8343C61.9729 73.1295 61.8964 73.4114 61.7376 73.6631L59.1112 81.4684C58.8871 82.1459 59.6791 82.9122 60.3366 82.6511L68.2175 79.9887C68.479 79.8374 68.55 79.8563 68.7424 79.5157L97.4023 50.4854C97.4645 50.4524 97.5228 50.4124 97.5761 50.3662L97.6358 50.3076C97.7324 50.226 97.8118 50.1256 97.8693 50.0124L99.6196 48.298C99.9651 47.9488 100.239 47.534 100.426 47.0773C100.613 46.6206 100.709 46.1311 100.709 45.6366C100.709 45.1422 100.613 44.6527 100.426 44.196C100.239 43.7393 99.9651 43.3245 99.6196 42.9753L98.3363 41.6148C97.6097 40.8806 96.6085 40.5513 95.6502 40.5513V40.5457ZM95.6502 42.3811C96.1247 42.3811 96.6215 42.5949 96.9933 42.9715L98.3363 44.332C98.5125 44.5045 98.6525 44.7112 98.7482 44.9398C98.8438 45.1683 98.8931 45.414 98.8931 45.6622C98.8931 45.9104 98.8438 46.1561 98.7482 46.3846C98.6525 46.6131 98.5125 46.8198 98.3363 46.9924L96.9933 48.3529L95.6502 46.9924L95.0095 46.2828L94.3669 45.6319L93.0239 44.332L94.3669 42.9715C94.7386 42.5949 95.1757 42.3792 95.6502 42.3792V42.3811ZM57.7663 42.4379V44.3301H78.3138V42.4379H57.7663ZM91.6808 45.6319L93.0239 46.9924L65.296 75.0804L63.953 73.7199L91.6808 45.6319ZM57.7663 48.1202V50.0124H82.0497V48.1202H57.7663ZM94.3669 48.3567L95.6502 49.6566L67.9242 77.7446L66.6391 76.4427L94.3669 48.3567ZM88.354 61.3656C88.1414 61.4266 87.9558 61.5597 87.8284 61.7425C87.7009 61.9254 87.6392 62.147 87.6535 62.3704V76.4408H73.6439C73.3968 76.4469 73.1614 76.5482 72.9854 76.7239C72.8095 76.8997 72.7063 77.1368 72.6968 77.387C72.7063 77.6371 72.8095 77.8742 72.9854 78.05C73.1614 78.2257 73.3968 78.327 73.6439 78.3331H88.5875C88.8322 78.3237 89.0645 78.221 89.2377 78.0456C89.4108 77.8701 89.5122 77.6349 89.5215 77.387V62.3685C89.5588 61.8122 89.0171 61.2918 88.4698 61.3637C88.4312 61.3613 88.3926 61.3632 88.354 61.3656ZM63.0788 75.5572L66.23 78.6907L61.5022 80.2858L63.0788 75.5572Z" fill="#0E52A7"/>
</svg>
