<svg width="73" height="63" viewBox="0 0 73 63" fill="none" xmlns="http://www.w3.org/2000/svg">
<g id="Group 2959">
<path id="Vector" d="M6.05371 23.2852H10.3043V27.4102H6.05371V23.2852ZM12.8547 23.2852H16.9636V27.4102H12.8547V23.2852ZM6.05371 29.8283H10.1626V34.0955H6.05371V29.8283ZM12.8547 29.8283H17.1053V34.0955H12.8547V29.8283ZM6.05371 36.6558H10.1626V40.7809H6.05371V36.6558ZM12.8547 36.6558H17.1053V40.7809H12.8547V36.6558ZM6.05371 43.0567H10.1626V47.3239H6.05371V43.0567ZM12.8547 43.0567H17.1053V47.3239H12.8547V43.0567ZM6.05371 49.8843H10.1626V54.0093H6.05371V49.8843ZM12.8547 49.8843H17.1053V54.0093H12.8547V49.8843Z" fill="#0D4E9E"/>
<path id="Vector_2" d="M72.3638 16.7415H52.6693V0.383789H20.0812V16.7415H0.386719V62.2588H72.3638V16.7415ZM20.0812 59.6985H2.79539V19.3019H20.0812L20.0812 59.6985ZM41.476 59.8407H31.2745V44.9053H41.476V59.8407ZM28.8658 42.345V59.8407H22.6316V2.80189H50.1189L49.9772 59.8407H44.0264V42.345H28.8658V42.345ZM69.8134 59.6985H52.6693V19.3019H69.8134V59.6985Z" fill="#0D4E9E"/>
<path id="Vector_3" d="M55.7866 23.2853H59.8956V27.4104H55.7866V23.2853ZM62.4459 23.2853H66.6965V27.4104H62.4459V23.2853ZM55.6449 29.8285H59.8955V34.0957H55.6449V29.8285ZM62.5876 29.8285H66.6965V34.0957H62.5876V29.8285ZM55.6449 36.656H59.8955V40.781H55.6449V36.656ZM62.5876 36.656H66.6965V40.781H62.5876V36.656ZM55.6449 43.0569H59.8955V47.3241H55.6449V43.0569ZM62.5876 43.0569H66.6965V47.3241H62.5876V43.0569ZM55.6449 49.8845H59.8955V54.0095H55.6449V49.8845ZM62.5876 49.8845H66.6965V54.0095H62.5876V49.8845ZM25.8906 20.4405H30.1412V24.5655H25.8906V20.4405ZM42.3263 20.4405H46.5769V24.5655H42.3263V20.4405ZM25.8906 26.9836H30.1412V31.2509H25.8906V26.9836ZM42.468 26.9836H46.577V31.2509H42.468V26.9836ZM25.8906 33.8112H30.1412V37.9362H25.8906V33.8112ZM42.468 33.8112H46.577V37.9362H42.468V33.8112ZM34.1085 20.2983H38.3591V24.5655H34.1085V20.2983ZM25.8906 13.7552H30.1412V17.8802H25.8906V13.7552ZM42.3263 13.7552H46.5769V17.8802H42.3263V13.7552ZM34.1085 13.7552H38.3591V17.8802H34.1085V13.7552ZM25.8906 7.06982H30.1412V11.1948H25.8906V7.06982ZM42.3263 7.06982H46.5769V11.1948H42.3263V7.06982ZM34.1085 7.06982H38.3591V11.1948H34.1085V7.06982ZM34.1085 26.9836H38.3591V31.1086H34.1085V26.9836ZM34.1085 33.669H38.3591V37.9362H34.1085V33.669Z" fill="#0D4E9E"/>
</g>
</svg>
