<svg width="56" height="79" viewBox="0 0 56 79" fill="none" xmlns="http://www.w3.org/2000/svg">
<path id="Vector" fill-rule="evenodd" clip-rule="evenodd" d="M31.3505 0.359138C31.9798 0.343 33.3676 0.488236 34.4004 0.665746C35.6107 0.87553 36.6596 1.166 37.2728 1.45647C37.8054 1.71467 38.4993 2.21492 38.8059 2.56994C39.1125 2.90883 39.5966 3.73183 39.8548 4.39345C40.2744 5.42624 40.4841 5.68444 41.5492 6.60426C42.2108 7.16906 43.05 8.0082 43.3889 8.46005C43.7277 8.92803 44.2764 9.84785 44.583 10.5095C45.0671 11.51 45.164 11.9457 45.2285 13.0914C45.2769 14.0435 45.2285 14.7374 45.051 15.3507C44.9058 15.8348 44.3248 17.1419 42.7111 20.2725L42.6304 24.4682C42.582 28.0346 42.5174 28.8414 42.2431 29.8742C42.0656 30.5358 41.6622 31.6654 41.3717 32.3755C41.0812 33.0855 40.468 34.2151 40.0323 34.8768C39.5966 35.5384 38.8866 36.4582 37.6763 37.7008L38.0474 39.4597C38.2572 40.5409 38.4993 41.2671 38.6445 41.3478C38.7736 41.4285 41.5331 42.1547 44.7767 42.9615C48.2462 43.8168 51.0379 44.6075 51.5543 44.8496C52.0384 45.0916 52.8453 45.6887 53.3455 46.1728C53.8619 46.6731 54.4752 47.4961 54.7656 48.077C55.04 48.6257 55.3788 49.5778 55.5079 50.2072C55.7177 51.1593 55.75 53.3701 55.75 64.2143C55.75 71.6052 55.6855 77.3178 55.6048 77.6405C55.5241 77.9471 55.2659 78.3344 55.04 78.4958C54.6365 78.754 53.0874 78.7701 28.1553 78.7701C3.20706 78.7701 1.67402 78.754 1.28672 78.4958C1.0608 78.3344 0.802605 77.9794 0.705781 77.7212C0.608958 77.4307 0.560546 72.2668 0.560546 64.3595C0.560546 54.0962 0.608958 51.2561 0.786468 50.3201C0.899429 49.6908 1.23831 48.6903 1.52878 48.1093C1.83539 47.5122 2.44861 46.6731 2.965 46.1567C3.46525 45.6726 4.27212 45.0755 4.75624 44.8334C5.27263 44.5914 8.19347 43.7684 11.6146 42.9292C14.8904 42.1062 17.6499 41.3962 17.7467 41.3317C17.8274 41.251 18.0856 40.3473 18.2954 39.2984C18.5213 38.2333 18.6504 37.2651 18.5859 37.136C18.5213 37.0069 18.0695 36.3775 17.5854 35.7643C17.0851 35.1511 16.3589 33.9731 15.9716 33.1823C15.5682 32.3916 15.0518 31.0038 14.8259 30.1163C14.4225 28.6316 14.3902 28.1636 14.2772 23.9841C14.2288 21.3376 14.0997 19.3043 14.0029 19.0622C13.9061 18.8363 13.7447 17.9003 13.6317 16.9644C13.5188 16.0284 13.4704 14.3663 13.5026 13.2528C13.5672 11.6552 13.664 11.0581 13.9383 10.3481C14.1481 9.86399 14.6484 8.94416 15.0518 8.33095C15.4552 7.70159 16.3589 6.65267 17.0367 5.99104C17.7145 5.32942 18.8763 4.39345 19.6187 3.94161C20.361 3.47363 21.7326 2.77973 22.6686 2.3763C23.6046 1.989 24.944 1.52102 25.654 1.31124C26.364 1.11759 27.6712 0.827118 28.5587 0.665746C29.4463 0.504373 30.705 0.375275 31.3343 0.359138L31.3505 0.359138ZM26.8804 3.58659C26.122 3.7641 24.7019 4.26436 23.7337 4.66779C22.7493 5.07122 21.3131 5.84581 20.5062 6.39448C19.7155 6.92701 18.6988 7.78228 18.247 8.29867C17.8113 8.79893 17.1658 9.67034 16.843 10.2351C16.4073 10.929 16.1814 11.5745 16.0523 12.3653C15.9232 13.2044 15.9232 14.0435 16.0523 15.6734C16.1491 16.8676 16.2782 17.8842 16.3105 17.9326C16.3589 17.981 16.714 17.8358 17.1174 17.6099C17.5208 17.384 18.2793 16.8191 18.8118 16.3512C19.425 15.8186 19.9253 15.512 20.1835 15.512C20.4094 15.512 21.1194 15.8025 21.7488 16.1575C22.3943 16.4964 23.4271 16.9644 24.0564 17.1903C24.6696 17.4001 25.7347 17.6744 26.3963 17.7713C27.1386 17.9003 28.4135 17.9326 29.7045 17.8842C31.1891 17.8358 32.2541 17.6906 33.3353 17.4001C34.1745 17.1903 35.6268 16.7062 36.5628 16.335C37.6601 15.8993 38.3702 15.7057 38.5799 15.7702C38.7575 15.8348 39.3545 16.3189 39.9032 16.8353C40.468 17.3517 40.9844 17.7713 41.0812 17.7713C41.1619 17.7713 41.5815 17.0612 42.001 16.1898C42.6949 14.7697 42.7756 14.5115 42.7756 13.4949C42.7756 12.5105 42.6949 12.22 42.1786 11.2357C41.8397 10.6224 41.3233 9.84785 41.0328 9.54124C40.7423 9.23464 40.0323 8.57301 39.4514 8.07275C38.7413 7.45954 38.2895 6.91087 38.0151 6.31379C37.7892 5.84581 37.4665 5.15191 37.289 4.79689C37.0953 4.40959 36.7242 4.00616 36.4014 3.82865C36.0948 3.65114 35.4332 3.40908 34.9491 3.29612C34.4649 3.18316 33.1901 3.05406 32.125 3.00565C31.06 2.97337 29.7529 3.00565 29.2203 3.08634C28.6878 3.18316 27.6389 3.39294 26.8804 3.58659ZM18.0049 19.9498L16.7946 20.5953C16.714 24.0971 16.7785 25.9367 16.8592 26.9211C16.9721 28.0991 17.2142 29.2771 17.5208 30.2292C17.779 31.0522 18.3115 32.2787 18.715 32.9403C19.1023 33.6019 19.8123 34.5863 20.2964 35.1027C20.7644 35.6191 21.5874 36.3614 22.1199 36.7487C22.6525 37.1198 23.5562 37.6524 24.1371 37.9106C24.718 38.1849 25.7992 38.5238 26.5577 38.669C27.5421 38.8788 28.3005 38.9272 29.2203 38.8627C29.9304 38.7981 30.9147 38.6367 31.3989 38.4915C31.883 38.3463 32.8351 37.959 33.4967 37.6039C34.1583 37.2651 35.2073 36.5228 35.8205 35.9741C36.4337 35.4093 37.2406 34.5217 37.6278 33.9892C37.999 33.4567 38.5638 32.4723 38.8866 31.8107C39.2093 31.149 39.6127 30.0194 39.8064 29.3094C40.0969 28.2121 40.1614 27.4375 40.2259 24.2262L40.2905 20.4339C38.4186 18.9331 37.8376 18.5781 37.6924 18.6265C37.5633 18.6749 36.8371 18.9331 36.0787 19.2075C35.3202 19.4818 34.0131 19.8368 33.174 20.0143C32.3348 20.208 30.8825 20.4016 29.9465 20.45C28.9299 20.5146 27.6712 20.4823 26.7997 20.3693C25.9929 20.2564 24.7987 20.0305 24.1371 19.853C23.4755 19.6754 22.3781 19.272 21.7165 18.9654C21.0549 18.6588 20.4739 18.4167 20.4255 18.4167C20.3771 18.4167 20.0866 18.6265 19.78 18.8686C19.4734 19.1106 18.6666 19.5948 18.0049 19.9498ZM20.7644 39.847C20.6837 40.2666 20.5546 40.896 20.5062 41.251L20.4094 41.8965L28.1714 47.9479C33.8679 43.5263 35.6107 42.1708 35.7236 42.074C35.9012 41.9287 35.9012 41.7028 35.7236 40.7184C35.6107 40.073 35.4655 39.5566 35.3848 39.5566C35.3202 39.5566 34.7393 39.8148 34.0938 40.1214C33.4644 40.428 32.3187 40.8314 31.5602 41.0251C30.3822 41.3155 29.8658 41.3639 28.01 41.2994C26.2027 41.2348 25.6217 41.138 24.5405 40.783C23.8305 40.5409 22.7331 40.0568 22.0877 39.7179L20.9419 39.0724L20.7644 39.847ZM12.4376 45.2853L12.5021 76.2043L26.7029 76.2043C26.5738 75.5104 25.0085 69.6848 23.1527 62.8104C21.2969 55.9197 19.425 48.8678 19.0054 47.1088C18.4245 44.8012 18.1502 43.9298 17.9727 43.9459C17.8597 43.9459 16.5526 44.2525 15.1002 44.6237L12.4376 45.2853ZM33.0126 64.4564C31.3989 70.7338 30.0917 75.9461 30.0917 76.0268C30.0917 76.1397 32.4801 76.1882 36.9501 76.1882L43.8084 76.1882L43.8568 45.2853C39.8709 44.3171 38.6122 43.9943 38.4831 43.962C38.2895 43.9136 37.999 44.8496 37.0792 48.4805C36.4498 50.9817 34.6102 58.179 33.0126 64.4564ZM21.9424 48.6741C22.2813 49.9167 22.5718 50.9656 22.6041 50.9817C22.6363 50.9979 23.3625 50.659 24.2016 50.2072C25.0408 49.7714 25.7024 49.3519 25.6701 49.2873C25.6379 49.2228 24.6696 48.4159 23.4916 47.5122C22.3297 46.6085 21.3292 45.8501 21.2647 45.8501C21.2162 45.8501 21.2001 45.9792 21.2485 46.1406C21.2969 46.3019 21.6035 47.4315 21.9424 48.6741ZM30.4952 49.3035C32.8674 50.4976 33.6258 50.8526 33.7226 50.8526C33.8033 50.8526 34.1583 49.7876 34.4972 48.4805C34.8361 47.1733 35.0943 46.0437 35.0943 45.9792C35.0943 45.9146 35.0459 45.8662 34.9652 45.8662C34.9007 45.8662 33.8679 46.6408 32.6737 47.5929L30.4952 49.3035ZM5.5631 47.254C5.25649 47.4315 4.75624 47.8673 4.44963 48.2223C4.14302 48.5612 3.73959 49.1582 3.56208 49.5617C3.2232 50.2717 3.22319 50.4815 3.17478 63.2461L3.14251 76.1882L9.92016 76.1882C9.92016 46.8345 9.90402 46.0115 9.62969 46.0276C9.48445 46.0276 8.62918 46.2374 7.74163 46.4633C6.85408 46.7054 5.86971 47.0604 5.5631 47.254ZM46.3904 76.1882L53.168 76.1882C53.0873 51.5788 53.0551 50.3847 52.813 49.723C52.6516 49.3196 52.2482 48.6741 51.9255 48.2868C51.5866 47.8995 51.0218 47.4154 50.6668 47.2056C50.3117 47.012 49.279 46.657 48.3591 46.431C47.4554 46.2051 46.6324 46.0115 46.5518 46.0115C46.4388 46.0115 46.3904 51.1431 46.3904 61.0998L46.3904 76.1882ZM23.3141 53.5314C23.2657 53.5637 24.3469 57.7271 25.7185 62.7619C27.0741 67.7968 28.2521 71.9925 28.3328 72.0732C28.4135 72.17 28.478 72.1861 28.478 72.1216C28.478 72.0409 29.5269 67.8936 30.8179 62.8749C32.1089 57.8562 33.1578 53.6928 33.1578 53.596C33.1578 53.5153 32.0605 52.8859 30.7372 52.2243C29.3978 51.5627 28.2198 51.0302 28.1069 51.0302C28.01 51.0463 26.8966 51.595 25.654 52.2566C24.4114 52.9182 23.3625 53.483 23.3141 53.5314ZM28.2037 54.4028C28.478 54.419 28.8492 54.5319 29.0105 54.6933C29.1719 54.8385 29.2849 55.1452 29.2849 55.3711C29.2849 55.597 29.1558 55.9036 28.9944 56.065C28.8492 56.2264 28.5587 56.3555 28.3489 56.3393C28.1553 56.3393 27.8648 56.2748 27.7034 56.1941C27.5582 56.1295 27.3645 55.8552 27.3 55.597C27.2193 55.2743 27.2516 55.0161 27.4291 54.774C27.6066 54.5158 27.8325 54.4028 28.2037 54.4028ZM28.1875 58.2758C28.3005 58.2758 28.591 58.421 28.833 58.5985C29.0912 58.776 29.2849 59.0826 29.2849 59.2924C29.2849 59.4861 29.1719 59.8088 29.0428 60.0186C28.8814 60.2445 28.6394 60.3736 28.3489 60.3736C28.1069 60.3736 27.8325 60.3252 27.7357 60.2445C27.6389 60.18 27.4775 59.9702 27.3645 59.7765C27.2677 59.5668 27.187 59.3247 27.187 59.244C27.2032 59.1472 27.3807 58.889 27.5905 58.6792C27.8003 58.4533 28.0746 58.2758 28.1875 58.2758ZM28.3166 62.3101C28.4942 62.3101 28.7846 62.4553 28.9621 62.6329C29.1396 62.8104 29.2849 63.1331 29.2849 63.359C29.2849 63.5849 29.1396 63.9077 28.9621 64.0852C28.7846 64.2627 28.4619 64.408 28.236 64.408C27.9778 64.408 27.7034 64.2466 27.5098 63.9722C27.3161 63.714 27.187 63.4236 27.187 63.3106C27.2032 63.1977 27.3807 62.9233 27.5905 62.7135C27.8003 62.4876 28.123 62.3101 28.3166 62.3101Z" fill="#0D4E9E"/>
</svg>
