<svg width="66" height="66" viewBox="0 0 66 66" fill="none" xmlns="http://www.w3.org/2000/svg">
<g clip-path="url(#clip0_128_2252)">
<path d="M64.1838 20.1314C64.7296 20.1314 65.1723 19.6886 65.1723 19.1418L65.1723 12.4036C65.1723 11.8568 64.7296 11.414 64.1838 11.414L43.5508 11.414L43.5508 8.95334L45.0249 8.95334C45.5707 8.95334 46.0135 8.50957 46.0135 7.96378L46.0135 1.22248C46.0135 0.675666 45.5707 0.232911 45.0249 0.232911L21.1825 0.23291C20.6367 0.23291 20.1919 0.675665 20.1919 1.22248L20.1919 7.96479C20.1919 8.51059 20.6367 8.95436 21.1825 8.95436L22.6587 8.95436L22.6587 11.415L2.0257 11.415C1.47991 11.415 1.03613 11.8578 1.03613 12.4046L1.03613 19.1428C1.03613 19.6896 1.47991 20.1324 2.0257 20.1324L4.7363 20.1324L4.7363 56.7994L2.0257 56.7994C1.47991 56.7994 1.03613 57.2422 1.03613 57.789L1.03613 64.5272C1.03613 65.074 1.47991 65.5168 2.0257 65.5168L23.6105 65.5168C23.6238 65.5168 23.635 65.5249 23.6482 65.5249L42.5612 65.5249C42.5755 65.5249 42.5867 65.5178 42.601 65.5168L64.1838 65.5168C64.7296 65.5168 65.1723 65.074 65.1723 64.5272L65.1723 57.789C65.1723 57.2422 64.7296 56.7994 64.1838 56.7994L61.4721 56.7994L61.4721 20.1314L64.1838 20.1314ZM22.171 6.97523L22.171 2.21102L44.0374 2.21102L44.0374 6.97421L42.5704 6.97421C42.5684 6.97421 42.5643 6.97217 42.5602 6.97217C42.5582 6.97217 42.5541 6.97421 42.552 6.97421L23.6584 6.97421C23.6554 6.97421 23.6513 6.97217 23.6482 6.97217C23.6452 6.97217 23.6421 6.97421 23.6391 6.97421L22.171 6.97421L22.171 6.97523ZM43.5508 20.1314L59.493 20.1314L59.493 56.7984L43.5508 56.7984L43.5508 20.1314ZM41.5727 12.4321L41.5727 19.1132C41.5727 19.1234 41.5665 19.1316 41.5665 19.1418C41.5665 19.152 41.5727 19.1612 41.5727 19.1704L41.5727 56.7984L37.6256 56.7984L37.6256 47.6648C37.6256 47.119 37.1829 46.6762 36.6371 46.6762L29.5724 46.6762C29.0256 46.6762 28.5828 47.119 28.5828 47.6648L28.5828 56.7984L24.6378 56.7984L24.6378 19.1612C24.6378 19.154 24.6419 19.1489 24.6419 19.1418C24.6419 19.1357 24.6378 19.1296 24.6378 19.1224L24.6378 12.4219C24.6378 12.4158 24.6419 12.4097 24.6419 12.4025C24.6419 12.3954 24.6378 12.3903 24.6378 12.3832L24.6378 8.95334L41.5727 8.95334L41.5727 12.375C41.5727 12.3852 41.5665 12.3934 41.5665 12.4036C41.5665 12.4138 41.5727 12.4219 41.5727 12.4321ZM35.6465 48.6544L35.6465 56.7984L30.562 56.7984L30.562 48.6544L35.6465 48.6544ZM3.01527 18.1522L3.01527 13.3931L22.6597 13.3931L22.6597 18.1533L3.01527 18.1522ZM22.6597 20.1314L22.6597 56.7984L6.71543 56.7984L6.71543 20.1314L22.6597 20.1314ZM63.1932 58.7775L63.1932 63.5377L42.5724 63.5377C42.5684 63.5377 42.5663 63.5356 42.5602 63.5356C42.5439 63.5356 42.5286 63.5448 42.5102 63.5458L23.7492 63.5458C23.736 63.5448 23.7248 63.5509 23.7125 63.5499C23.6911 63.5489 23.6727 63.5377 23.6513 63.5377L3.01527 63.5377L3.01527 58.7775L5.7228 58.7775C5.72382 58.7775 5.72484 58.7775 5.72484 58.7775C5.72688 58.7775 5.72688 58.7775 5.7279 58.7775L29.5724 58.7775L36.6371 58.7775L60.4795 58.7775C60.4816 58.7775 60.4816 58.7775 60.4836 58.7775C60.4836 58.7775 60.4836 58.7775 60.4856 58.7775L63.1932 58.7775ZM43.5508 18.1522L43.5508 13.3931L63.1932 13.3931L63.1932 18.1533L43.5508 18.1522Z" fill="#0D4E9E"/>
<path d="M38.0388 13.2991L28.1727 13.2991C27.6259 13.2991 27.1832 13.7418 27.1832 14.2886C27.1832 14.8355 27.6259 15.2782 28.1727 15.2782L38.0388 15.2782C38.5846 15.2782 39.0274 14.8355 39.0274 14.2886C39.0274 13.7418 38.5846 13.2991 38.0388 13.2991ZM38.0388 18.8896L28.1727 18.8896C27.6259 18.8896 27.1832 19.3324 27.1832 19.8792C27.1832 20.426 27.6259 20.8688 28.1727 20.8688L38.0388 20.8688C38.5846 20.8688 39.0274 20.426 39.0274 19.8792C39.0274 19.3324 38.5846 18.8896 38.0388 18.8896ZM38.0388 24.4802L28.1727 24.4802C27.6259 24.4802 27.1832 24.9229 27.1832 25.4697C27.1832 26.0165 27.6259 26.4593 28.1727 26.4593L38.0388 26.4593C38.5846 26.4593 39.0274 26.0165 39.0274 25.4697C39.0274 24.9229 38.5846 24.4802 38.0388 24.4802ZM38.0388 30.0707L28.1727 30.0707C27.6259 30.0707 27.1832 30.5145 27.1832 31.0603C27.1832 31.6071 27.6259 32.0498 28.1727 32.0498L38.0388 32.0498C38.5846 32.0498 39.0274 31.6071 39.0274 31.0603C39.0274 30.5145 38.5846 30.0707 38.0388 30.0707ZM38.0388 35.6623L28.1727 35.6623C27.6259 35.6623 27.1832 36.105 27.1832 36.6518C27.1832 37.1976 27.6259 37.6404 28.1727 37.6404L38.0388 37.6404C38.5846 37.6404 39.0274 37.1976 39.0274 36.6518C39.0274 36.105 38.5846 35.6623 38.0388 35.6623ZM11.2777 28.2742L18.0995 28.2742C18.6453 28.2742 19.0881 27.8314 19.0881 27.2846C19.0881 26.7378 18.6453 26.295 18.0995 26.295L11.2777 26.295C10.7308 26.295 10.2881 26.7378 10.2881 27.2846C10.2881 27.8314 10.7308 28.2742 11.2777 28.2742ZM11.2777 33.8657L18.0995 33.8657C18.6453 33.8657 19.0881 33.423 19.0881 32.8762C19.0881 32.3304 18.6453 31.8866 18.0995 31.8866L11.2777 31.8866C10.7308 31.8866 10.2881 32.3304 10.2881 32.8762C10.2891 33.423 10.7308 33.8657 11.2777 33.8657ZM11.2777 39.4563L18.0995 39.4563C18.6453 39.4563 19.0881 39.0125 19.0881 38.4667C19.0881 37.9199 18.6453 37.4772 18.0995 37.4772L11.2777 37.4772C10.7308 37.4772 10.2881 37.9199 10.2881 38.4667C10.2891 39.0135 10.7308 39.4563 11.2777 39.4563ZM11.2777 45.0479L18.0995 45.0479C18.6453 45.0479 19.0881 44.6041 19.0881 44.0583C19.0881 43.5115 18.6453 43.0687 18.0995 43.0687L11.2777 43.0687C10.7308 43.0687 10.2881 43.5115 10.2881 44.0583C10.2891 44.6041 10.7308 45.0479 11.2777 45.0479ZM11.2777 50.6384L18.0995 50.6384C18.6453 50.6384 19.0881 50.1956 19.0881 49.6488C19.0881 49.102 18.6453 48.6593 18.0995 48.6593L11.2777 48.6593C10.7308 48.6593 10.2881 49.102 10.2881 49.6488C10.2881 50.1956 10.7308 50.6384 11.2777 50.6384ZM54.9329 26.2961L48.1099 26.2961C47.5642 26.2961 47.1214 26.7388 47.1214 27.2856C47.1214 27.8324 47.5642 28.2752 48.1099 28.2752L54.9329 28.2752C55.4786 28.2752 55.9214 27.8324 55.9214 27.2856C55.9214 26.7388 55.4797 26.2961 54.9329 26.2961ZM54.9329 31.8866L48.1099 31.8866C47.5642 31.8866 47.1214 32.3304 47.1214 32.8762C47.1214 33.423 47.5642 33.8657 48.1099 33.8657L54.9329 33.8657C55.4786 33.8657 55.9214 33.423 55.9214 32.8762C55.9214 32.3304 55.4797 31.8866 54.9329 31.8866ZM54.9329 37.4782L48.1099 37.4782C47.5642 37.4782 47.1214 37.9209 47.1214 38.4677C47.1214 39.0135 47.5642 39.4573 48.1099 39.4573L54.9329 39.4573C55.4786 39.4573 55.9214 39.0135 55.9214 38.4677C55.9214 37.9209 55.4797 37.4782 54.9329 37.4782ZM54.9329 43.0687L48.1099 43.0687C47.5642 43.0687 47.1214 43.5115 47.1214 44.0583C47.1214 44.6041 47.5642 45.0479 48.1099 45.0479L54.9329 45.0479C55.4786 45.0479 55.9214 44.6041 55.9214 44.0583C55.9214 43.5115 55.4797 43.0687 54.9329 43.0687ZM54.9329 48.6593L48.1099 48.6593C47.5642 48.6593 47.1214 49.102 47.1214 49.6488C47.1214 50.1956 47.5642 50.6384 48.1099 50.6384L54.9329 50.6384C55.4786 50.6384 55.9214 50.1956 55.9214 49.6488C55.9214 49.102 55.4797 48.6593 54.9329 48.6593Z" fill="#0D4E9E"/>
</g>
<defs>
<clipPath id="clip0_128_2252">
<rect width="65.291" height="65.291" fill="white" transform="translate(0.458984 0.23291)"/>
</clipPath>
</defs>
</svg>
