<svg width="63" height="63" viewBox="0 0 63 63" fill="none" xmlns="http://www.w3.org/2000/svg">
<path fill-rule="evenodd" clip-rule="evenodd" d="M4.48797 0.250244C2.03051 0.250244 0.00627575 2.27448 0.00627572 4.73194L0.000299611 43.5793C0.000299581 45.5736 2.99108 45.5736 2.99108 43.5793L2.99407 4.73194C2.99407 3.87892 3.63495 3.23804 4.48797 3.23804L46.3171 3.23804C47.1701 3.23804 47.811 3.87892 47.811 4.73194L47.811 31.6221C47.7811 33.6419 50.8287 33.6419 50.7988 31.6221L50.7988 4.73194C50.7988 2.27448 48.7746 0.250245 46.3171 0.250245L4.48797 0.250244ZM13.4514 12.2014C13.0552 12.2014 12.6752 12.3588 12.395 12.639C12.1149 12.9191 11.9575 13.2991 11.9575 13.6953C11.9575 14.0915 12.1149 14.4715 12.395 14.7517C12.6752 15.0318 13.0552 15.1892 13.4514 15.1892C13.8476 15.1892 14.2275 15.0318 14.5077 14.7517C14.7879 14.4715 14.9453 14.0915 14.9453 13.6953C14.9453 13.2991 14.7879 12.9191 14.5077 12.639C14.2275 12.3588 13.8476 12.2014 13.4514 12.2014ZM19.2776 12.2044C17.331 12.3389 17.4699 15.243 19.421 15.1922L37.3537 15.1922C39.3033 15.1504 39.3033 12.2462 37.3537 12.2044L19.421 12.2044C19.3732 12.2022 19.3253 12.2022 19.2776 12.2044ZM13.4514 21.1648C13.0552 21.1648 12.6752 21.3222 12.395 21.6024C12.1149 21.8825 11.9575 22.2625 11.9575 22.6587C11.9575 23.0549 12.1149 23.4349 12.395 23.7151C12.6752 23.9952 13.0552 24.1526 13.4514 24.1526C13.8476 24.1526 14.2275 23.9952 14.5077 23.7151C14.7879 23.4349 14.9453 23.0549 14.9453 22.6587C14.9453 22.2625 14.7879 21.8825 14.5077 21.6024C14.2275 21.3222 13.8476 21.1648 13.4514 21.1648ZM37.5181 21.1648C37.4628 21.1648 37.4075 21.1648 37.3537 21.1708L19.421 21.1708C19.3732 21.1685 19.3253 21.1685 19.2776 21.1708C17.446 21.3979 17.5745 24.0959 19.421 24.1466L37.3537 24.1466C39.4049 24.3274 39.5767 21.2081 37.5181 21.1648ZM19.421 30.1252C17.4714 30.1671 17.4714 33.0712 19.421 33.113L37.3537 33.113C39.3884 33.1578 39.3884 30.0804 37.3537 30.1252L19.421 30.1252ZM13.4514 30.1282C13.0552 30.1282 12.6752 30.2856 12.395 30.5658C12.1149 30.8459 11.9575 31.2259 11.9575 31.6221C11.9575 32.0183 12.1149 32.3983 12.395 32.6785C12.6752 32.9586 13.0552 33.116 13.4514 33.116C13.8476 33.116 14.2275 32.9586 14.5077 32.6785C14.7879 32.3983 14.9453 32.0183 14.9453 31.6221C14.9453 31.2259 14.7879 30.8459 14.5077 30.5658C14.2275 30.2856 13.8476 30.1282 13.4514 30.1282ZM13.4514 39.0916C13.0552 39.0916 12.6752 39.249 12.395 39.5292C12.1149 39.8093 11.9575 40.1893 11.9575 40.5855C11.9575 40.9817 12.1149 41.3617 12.395 41.6418C12.6752 41.922 13.0552 42.0794 13.4514 42.0794C13.8476 42.0794 14.2275 41.922 14.5077 41.6418C14.7879 41.3617 14.9453 40.9817 14.9453 40.5855C14.9453 40.1893 14.7879 39.8093 14.5077 39.5292C14.2275 39.249 13.8476 39.0916 13.4514 39.0916ZM19.421 39.0916C17.3863 39.0468 17.3863 42.1242 19.421 42.0794L34.3629 42.0794C36.3976 42.1242 36.3976 39.0468 34.3629 39.0916L19.421 39.0916ZM13.4514 48.055C13.0552 48.055 12.6752 48.2124 12.395 48.4926C12.1149 48.7727 11.9575 49.1527 11.9575 49.5489C11.9575 49.9451 12.1149 50.3251 12.395 50.6052C12.6752 50.8854 13.0552 51.0428 13.4514 51.0428C13.8476 51.0428 14.2275 50.8854 14.5077 50.6052C14.7879 50.3251 14.9453 49.9451 14.9453 49.5489C14.9453 49.1527 14.7879 48.7727 14.5077 48.4926C14.2275 48.2124 13.8476 48.055 13.4514 48.055ZM19.2776 48.055C17.2847 48.1506 17.4266 51.1414 19.421 51.0458L31.3751 51.0458C33.3695 51.0458 33.3695 48.055 31.3751 48.055L19.421 48.055C19.3732 48.0527 19.3253 48.0527 19.2776 48.055ZM1.47926 49.522C1.2818 49.5239 1.08668 49.565 0.90519 49.6428C0.7237 49.7206 0.559438 49.8337 0.421905 49.9754C0.284372 50.1171 0.176297 50.2846 0.10393 50.4684C0.031563 50.6521 -0.00365938 50.8484 0.000299498 51.0458L0.0062749 58.5123C0.00627486 60.9698 2.03051 62.994 4.48797 62.994L34.3659 62.994C36.3857 63.0239 36.3857 59.9763 34.3659 60.0062L4.48797 60.0062C3.63495 60.0062 2.99407 59.3653 2.99407 58.5123L2.99108 51.0458C2.9951 50.8456 2.95883 50.6466 2.88443 50.4607C2.81003 50.2748 2.69901 50.1058 2.55798 49.9636C2.41695 49.8215 2.24878 49.7091 2.06347 49.6333C1.87816 49.5574 1.67948 49.5196 1.47926 49.522ZM49.3079 36.1008C41.8997 36.1008 35.8658 42.1377 35.8658 49.5459C35.8658 56.9542 41.9012 63 49.3079 63C56.7161 63 62.75 56.9542 62.75 49.5459C62.75 42.1377 56.7146 36.1008 49.3079 36.1008ZM49.3079 39.0916C50.6817 39.0885 52.0425 39.3567 53.3123 39.881C54.5821 40.4052 55.7358 41.1752 56.7072 42.1466C57.6786 43.118 58.4486 44.2717 58.9728 45.5415C59.4971 46.8113 59.7654 48.1721 59.7622 49.5459C59.7655 50.9202 59.4975 52.2815 58.9734 53.5519C58.4493 54.8223 57.6795 55.9767 56.7082 56.9488C55.7369 57.921 54.5832 58.6918 53.3132 59.2169C52.0433 59.7421 50.6821 60.0113 49.3079 60.0092C47.9337 60.0113 46.5725 59.7421 45.3026 59.2169C44.0326 58.6918 42.8789 57.921 41.9076 56.9488C40.9363 55.9767 40.1665 54.8223 39.6424 53.5519C39.1183 52.2815 38.8503 50.9202 38.8536 49.5459C38.8505 48.1721 39.1187 46.8113 39.643 45.5415C40.1672 44.2717 40.9372 43.118 41.9086 42.1466C42.88 41.1752 44.0337 40.4052 45.3035 39.881C46.5733 39.3567 47.9341 39.0885 49.3079 39.0916ZM54.0256 44.8805C53.6388 44.8931 53.2719 45.0554 53.0023 45.3331L47.7199 50.614L45.6135 48.4987C45.475 48.3578 45.31 48.2458 45.128 48.169C44.9459 48.0923 44.7505 48.0523 44.553 48.0514C44.3555 48.0505 44.1597 48.0887 43.977 48.1638C43.7943 48.2389 43.6283 48.3495 43.4885 48.489C43.3487 48.6286 43.238 48.7945 43.1626 48.9771C43.0872 49.1597 43.0487 49.3554 43.0493 49.5529C43.05 49.7505 43.0897 49.9459 43.1662 50.128C43.2427 50.3102 43.3545 50.4753 43.4952 50.614L46.6622 53.7796C46.801 53.9185 46.9657 54.0287 47.1471 54.1039C47.3284 54.1791 47.5228 54.2178 47.7191 54.2178C47.9155 54.2178 48.1099 54.1791 48.2912 54.1039C48.4726 54.0287 48.6373 53.9185 48.7761 53.7796L55.1207 47.4485C55.3385 47.2383 55.4874 46.967 55.5476 46.6703C55.6078 46.3737 55.5765 46.0657 55.4577 45.7873C55.339 45.5088 55.1385 45.273 54.8827 45.1111C54.627 44.9492 54.3281 44.8687 54.0256 44.8805Z" fill="#0D4E9E"/>
</svg>
