<svg width="300" height="182" viewBox="0 0 300 182" fill="none" xmlns="http://www.w3.org/2000/svg">
<g clip-path="url(#clip0_1_6586)">
<path d="M239.399 71.2927H300L290.128 78.893V93.846C290.128 95.5702 288.818 96.9683 287.202 96.9683H239.399C237.783 96.9683 236.473 95.5702 236.473 93.846V74.415C236.473 72.6903 237.783 71.2927 239.399 71.2927Z" fill="#F3F2F1"/>
<path d="M241.928 81.8602C241.928 81.9223 251.068 81.9731 262.339 81.9731C273.615 81.9731 282.753 81.9223 282.753 81.8602C282.753 81.7975 273.615 81.7472 262.339 81.7472C251.068 81.7472 241.928 81.7975 241.928 81.8602Z" fill="#DADBD8"/>
<path d="M241.928 87.6009C241.928 87.6635 251.068 87.7139 262.339 87.7139C273.615 87.7139 282.753 87.6635 282.753 87.6009C282.753 87.5387 273.615 87.4879 262.339 87.4879C251.068 87.4879 241.928 87.5387 241.928 87.6009Z" fill="#DADBD8"/>
<path d="M147.364 16.1164H144.527V26.2518H147.364V16.1164Z" fill="#DADBD8"/>
<path d="M123.676 14.648H120.84V26.2518H123.676V14.648Z" fill="#DADBD8"/>
<path d="M129.598 12.2295H126.762V26.2518H129.598V12.2295Z" fill="#DADBD8"/>
<path d="M135.519 12.9986H132.684V26.2518H135.519V12.9986Z" fill="#DADBD8"/>
<path d="M141.441 8.5151H138.605V26.2518H141.441V8.5151Z" fill="#DADBD8"/>
<path d="M153.285 8.60133H150.449V26.2518H153.285V8.60133Z" fill="#DADBD8"/>
<path d="M159.207 14.3985H156.371V26.2518H159.207V14.3985Z" fill="#DADBD8"/>
<path d="M165.129 9.3786H162.293V26.2518H165.129V9.3786Z" fill="#DADBD8"/>
<path d="M171.05 5.57797H168.214V26.2518H171.05V5.57797Z" fill="#DADBD8"/>
<path d="M176.972 9.29239H174.136V26.2518H176.972V9.29239Z" fill="#DADBD8"/>
<path d="M251.694 25.3122L275.147 21.4884C277.113 35.2153 268.144 48.2371 255.278 50.3343C242.412 52.4316 230.208 42.8624 228.242 29.1355C226.276 15.4086 235.245 2.38725 248.111 0.289551C250.159 -0.0444107 252.24 -0.090683 254.299 0.152073L251.694 25.3122Z" fill="#E7E8E5"/>
<path d="M259.304 0.232363L256.457 19.6289L274.302 16.0533C274.302 16.0533 271.678 5.1828 259.304 0.232363Z" fill="#DADBD8"/>
<path d="M29.4126 72.0695C29.3634 68.7839 26.8293 66.1535 23.7641 66.2066C20.6984 66.2592 18.2445 68.9754 18.2939 72.261C18.3431 75.5466 20.877 78.177 23.9427 78.1244C27.0079 78.0713 29.4618 75.3551 29.4126 72.0695ZM12.2261 72.3654C12.1231 65.4937 17.2554 59.8128 23.6665 59.7025C30.0778 59.5922 35.3776 65.0931 35.4804 71.9651C35.5834 78.8372 30.4512 84.5177 24.0401 84.628C17.6287 84.7383 12.329 79.2374 12.2261 72.3654Z" fill="#F3F2F1"/>
<path d="M12.2261 72.3654C12.1231 65.4937 17.2554 59.8132 23.6665 59.7025L23.7641 66.2066C20.6984 66.2592 18.2445 68.9754 18.2939 72.261C18.3431 75.5466 20.877 78.177 23.9427 78.1244L24.0401 84.628C17.6287 84.7383 12.3291 79.2374 12.2261 72.3654Z" fill="#DADBD8"/>
<path d="M22.6221 58.7024C30.1227 58.5731 36.1062 64.784 36.2267 72.8236L29.1279 72.9457C29.0703 69.1015 26.3289 66.6812 22.7425 66.7433L22.6221 58.7024Z" fill="#E7E8E5"/>
<path d="M87.773 134.874H72.9927V116.126H87.773V134.874Z" fill="#F3F2F1"/>
<path d="M73.5014 136.053H6.70361V114.904H73.5014V136.053Z" fill="#DADBD8"/>
<path d="M88.2213 116.682H71.7109V114.904H88.2213C88.6815 114.904 89.0545 115.302 89.0545 115.793C89.0545 116.284 88.6815 116.682 88.2213 116.682Z" fill="#DADBD8"/>
<path d="M88.2213 136.053H71.7109V134.274H88.2213C88.6815 134.274 89.0545 134.672 89.0545 135.164C89.0545 135.655 88.6815 136.053 88.2213 136.053Z" fill="#DADBD8"/>
<path d="M60.3579 114.904V136.053H68.2499V114.904H60.3579Z" fill="#E7E8E5"/>
<path d="M13.0566 115.137V136.287H20.9485V115.137H13.0566Z" fill="#E7E8E5"/>
<path d="M87.773 119.227C87.773 119.278 84.5745 119.32 80.6291 119.32C76.682 119.32 73.4839 119.278 73.4839 119.227C73.4839 119.175 76.682 119.133 80.6291 119.133C84.5745 119.133 87.773 119.175 87.773 119.227Z" fill="#DADBD8"/>
<path d="M87.7725 122.038C87.7725 122.091 84.574 122.132 80.6286 122.132C76.6815 122.132 73.4834 122.091 73.4834 122.038C73.4834 121.987 76.6815 121.944 80.6286 121.944C84.574 121.944 87.7725 121.987 87.7725 122.038Z" fill="#DADBD8"/>
<path d="M87.773 125.5C87.773 125.552 84.5745 125.593 80.6291 125.593C76.682 125.593 73.4839 125.552 73.4839 125.5C73.4839 125.448 76.682 125.406 80.6291 125.406C84.5745 125.406 87.773 125.448 87.773 125.5Z" fill="#DADBD8"/>
<path d="M87.773 128.961C87.773 129.014 84.5745 129.055 80.6291 129.055C76.682 129.055 73.4839 129.014 73.4839 128.961C73.4839 128.91 76.682 128.868 80.6291 128.868C84.5745 128.868 87.773 128.91 87.773 128.961Z" fill="#DADBD8"/>
<path d="M87.773 132.423C87.773 132.475 84.5745 132.516 80.6291 132.516C76.682 132.516 73.4839 132.475 73.4839 132.423C73.4839 132.371 76.682 132.33 80.6291 132.33C84.5745 132.33 87.773 132.371 87.773 132.423Z" fill="#DADBD8"/>
<path d="M56.115 127.404H26.0635V123.596H56.115V127.404Z" fill="#E7E8E5"/>
<path d="M87.6227 147.891H72.6152V136.467H87.6227V147.891Z" fill="#FAFAF9"/>
<path d="M72.7832 148.305H8.91553V136.053H72.7832V148.305Z" fill="#F3F2F1"/>
<path d="M72.3193 136.882H88.4495C88.6643 136.882 88.8378 136.696 88.8378 136.467C88.8378 136.238 88.6643 136.053 88.4495 136.053H72.3193V136.882Z" fill="#F3F2F1"/>
<path d="M72.3193 148.305H88.6596C88.7583 148.305 88.8378 148.22 88.8378 148.115V147.667C88.8378 147.561 88.7583 147.476 88.6596 147.476H72.3193V148.305Z" fill="#F3F2F1"/>
<path d="M87.6227 138.638C87.6227 138.689 84.3008 138.732 80.2036 138.732C76.1047 138.732 72.7832 138.689 72.7832 138.638C72.7832 138.586 76.1047 138.544 80.2036 138.544C84.3008 138.544 87.6227 138.586 87.6227 138.638Z" fill="#DADBD8"/>
<path d="M87.6227 140.798C87.6227 140.85 84.3008 140.892 80.2036 140.892C76.1047 140.892 72.7832 140.85 72.7832 140.798C72.7832 140.747 76.1047 140.705 80.2036 140.705C84.3008 140.705 87.6227 140.747 87.6227 140.798Z" fill="#DADBD8"/>
<path d="M87.6227 142.96C87.6227 143.012 84.3008 143.054 80.2036 143.054C76.1047 143.054 72.7832 143.012 72.7832 142.96C72.7832 142.908 76.1047 142.866 80.2036 142.866C84.3008 142.866 87.6227 142.908 87.6227 142.96Z" fill="#DADBD8"/>
<path d="M87.6227 145.121C87.6227 145.173 84.3008 145.215 80.2036 145.215C76.1047 145.215 72.7832 145.173 72.7832 145.121C72.7832 145.069 76.1047 145.028 80.2036 145.028C84.3008 145.028 87.6227 145.069 87.6227 145.121Z" fill="#DADBD8"/>
<path d="M89.8994 180.362H74.5811V149.394H89.8994V180.362Z" fill="#E7E8E5"/>
<path d="M74.581 181.882H2.67822V148.305H74.581V181.882Z" fill="#DADBD8"/>
<path d="M91.0981 181.882H72.6152V179.704H91.0981C91.6616 179.704 92.1188 180.192 92.1188 180.793C92.1188 181.395 91.6616 181.882 91.0981 181.882Z" fill="#DADBD8"/>
<path d="M91.6506 150.483H72.6152V148.305H91.6506C91.9091 148.305 92.1188 148.529 92.1188 148.805V149.983C92.1188 150.259 91.9091 150.483 91.6506 150.483Z" fill="#DADBD8"/>
<path d="M89.8994 153.545C89.8994 153.597 86.4703 153.639 82.2409 153.639C78.0097 153.639 74.5811 153.597 74.5811 153.545C74.5811 153.494 78.0097 153.452 82.2409 153.452C86.4703 153.452 89.8994 153.494 89.8994 153.545Z" fill="#DADBD8"/>
<path d="M89.8994 157.517C89.8994 157.569 86.4703 157.611 82.2409 157.611C78.0097 157.611 74.5811 157.569 74.5811 157.517C74.5811 157.466 78.0097 157.423 82.2409 157.423C86.4703 157.423 89.8994 157.466 89.8994 157.517Z" fill="#DADBD8"/>
<path d="M89.8999 161.489C89.8999 161.541 86.4708 161.583 82.2413 161.583C78.0102 161.583 74.5815 161.541 74.5815 161.489C74.5815 161.438 78.0102 161.395 82.2413 161.395C86.4708 161.395 89.8999 161.438 89.8999 161.489Z" fill="#DADBD8"/>
<path d="M89.8994 165.461C89.8994 165.513 86.4703 165.554 82.2409 165.554C78.0097 165.554 74.5811 165.513 74.5811 165.461C74.5811 165.409 78.0097 165.367 82.2409 165.367C86.4703 165.367 89.8994 165.409 89.8994 165.461Z" fill="#DADBD8"/>
<path d="M89.8994 169.433C89.8994 169.484 86.4703 169.526 82.2409 169.526C78.0097 169.526 74.5811 169.484 74.5811 169.433C74.5811 169.38 78.0097 169.339 82.2409 169.339C86.4703 169.339 89.8994 169.38 89.8994 169.433Z" fill="#DADBD8"/>
<path d="M89.8994 173.404C89.8994 173.456 86.4703 173.498 82.2409 173.498C78.0097 173.498 74.5811 173.456 74.5811 173.404C74.5811 173.352 78.0097 173.311 82.2409 173.311C86.4703 173.311 89.8994 173.352 89.8994 173.404Z" fill="#DADBD8"/>
<path d="M89.8994 177.376C89.8994 177.428 86.4703 177.47 82.2409 177.47C78.0097 177.47 74.5811 177.428 74.5811 177.376C74.5811 177.324 78.0097 177.282 82.2409 177.282C86.4703 177.282 89.8994 177.324 89.8994 177.376Z" fill="#DADBD8"/>
<path d="M27.2827 166.931V168.799C27.2827 171.049 26.2285 172.335 24.1947 172.335C22.1613 172.335 21.1069 171.049 21.1069 168.799V161.487C21.1069 159.237 22.1613 157.952 24.1947 157.952C26.2285 157.952 27.2827 159.237 27.2827 161.487V162.853H25.3244V161.346C25.3244 160.342 24.9104 159.96 24.2512 159.96C23.5923 159.96 23.1782 160.342 23.1782 161.346V168.94C23.1782 169.945 23.5923 170.306 24.2512 170.306C24.9104 170.306 25.3244 169.945 25.3244 168.94V166.931H27.2827Z" fill="#E7E8E5"/>
<path d="M30.4442 168.94C30.4442 169.945 30.8585 170.326 31.5173 170.326C32.1765 170.326 32.5905 169.945 32.5905 168.94V161.346C32.5905 160.342 32.1765 159.96 31.5173 159.96C30.8585 159.96 30.4442 160.342 30.4442 161.346V168.94ZM28.373 161.487C28.373 159.237 29.4838 157.952 31.5173 157.952C33.5507 157.952 34.6618 159.237 34.6618 161.487V168.799C34.6618 171.049 33.5507 172.335 31.5173 172.335C29.4838 172.335 28.373 171.049 28.373 168.799V161.487Z" fill="#E7E8E5"/>
<path d="M35.9971 158.112H38.0683V170.166H41.4763V172.175H35.9971V158.112Z" fill="#E7E8E5"/>
<path d="M44.2798 168.94C44.2798 169.945 44.694 170.326 45.3528 170.326C46.0119 170.326 46.4262 169.945 46.4262 168.94V161.346C46.4262 160.342 46.0119 159.96 45.3528 159.96C44.694 159.96 44.2798 160.342 44.2798 161.346V168.94ZM42.2085 161.487C42.2085 159.237 43.3195 157.952 45.3528 157.952C47.3865 157.952 48.4973 159.237 48.4973 161.487V168.799C48.4973 171.049 47.3865 172.335 45.3528 172.335C43.3195 172.335 42.2085 171.049 42.2085 168.799V161.487Z" fill="#E7E8E5"/>
<path d="M51.8099 158.112V168.96C51.8099 169.965 52.2241 170.326 52.8829 170.326C53.5421 170.326 53.9563 169.965 53.9563 168.96V158.112H55.9143V168.819C55.9143 171.07 54.86 172.355 52.8268 172.355C50.793 172.355 49.7388 171.07 49.7388 168.819V158.112H51.8099Z" fill="#E7E8E5"/>
<path d="M59.3963 160.121V164.44H60.2061C60.978 164.44 61.4488 164.079 61.4488 162.953V161.568C61.4488 160.563 61.1285 160.121 60.3945 160.121H59.3963ZM61.6559 172.175C61.5427 171.813 61.4675 171.591 61.4675 170.447V168.237C61.4675 166.931 61.0532 166.449 60.1117 166.449H59.3963V172.175H57.3252V158.112H60.4506C62.597 158.112 63.5199 159.177 63.5199 161.346V162.452C63.5199 163.898 63.0869 164.842 62.1641 165.304C63.1996 165.766 63.5386 166.831 63.5386 168.297V170.467C63.5386 171.15 63.5573 171.652 63.7644 172.175H61.6559Z" fill="#E7E8E5"/>
<path d="M26.8348 140.879H25.3242L25.4038 140.461H28.8707L28.7851 140.879H27.2809L26.5044 145.027H26.0582L26.8348 140.879Z" fill="#DADBD8"/>
<path d="M31.779 141.596L29.4313 145.471C29.0337 146.124 28.7344 146.326 28.2696 146.326C27.9702 146.326 27.6643 146.214 27.5054 146.019L27.7376 145.68C27.8783 145.837 28.0617 145.928 28.3063 145.928C28.5816 145.928 28.7953 145.791 29.0462 145.373L29.2726 145.008L28.4714 141.596H28.9114L29.5778 144.518L31.3326 141.596H31.779Z" fill="#DADBD8"/>
<path d="M34.9146 143.044C34.9146 142.372 34.5293 141.974 33.8565 141.974C33.0559 141.974 32.4688 142.646 32.4688 143.585C32.4688 144.258 32.8541 144.649 33.5265 144.649C34.3276 144.649 34.9146 143.977 34.9146 143.044ZM35.3545 143.019C35.3545 144.198 34.5841 145.06 33.5327 145.06C32.9212 145.06 32.4929 144.792 32.3097 144.309L31.9429 146.293H31.5088L32.3833 141.596H32.7989L32.6948 142.144C33.0004 141.779 33.4287 141.57 33.9485 141.57C34.7737 141.57 35.3545 142.118 35.3545 143.019Z" fill="#DADBD8"/>
<path d="M38.7462 143.044C38.7462 142.372 38.3609 141.974 37.6885 141.974C36.8874 141.974 36.2943 142.652 36.2943 143.585C36.2943 144.258 36.6796 144.649 37.3518 144.649C38.1531 144.649 38.7462 143.977 38.7462 143.044ZM35.8599 143.606C35.8599 142.438 36.6365 141.57 37.7187 141.57C38.6113 141.57 39.1799 142.131 39.1799 143.019C39.1799 144.192 38.4035 145.06 37.3211 145.06C36.4289 145.06 35.8599 144.485 35.8599 143.606Z" fill="#DADBD8"/>
<path d="M42.6083 142.972C42.6083 142.346 42.2109 141.974 41.5441 141.974C40.7311 141.974 40.1444 142.614 40.1444 143.487C40.1444 144.114 40.5356 144.486 41.2082 144.486C42.0153 144.486 42.6083 143.847 42.6083 142.972ZM43.3419 141.596L42.7797 144.61C42.553 145.823 41.9538 146.326 40.9085 146.326C40.3032 146.326 39.8079 146.143 39.478 145.81L39.7347 145.458C39.9913 145.739 40.4256 145.915 40.9393 145.915C41.7519 145.915 42.1802 145.517 42.3329 144.689L42.4067 144.31C42.1008 144.675 41.6667 144.897 41.1227 144.897C40.2724 144.897 39.7039 144.369 39.7039 143.514C39.7039 142.412 40.4681 141.57 41.5383 141.57C42.1312 141.57 42.6083 141.831 42.7916 142.353L42.926 141.596H43.3419Z" fill="#DADBD8"/>
<path d="M46.1766 141.57L46.0971 142.02C46.0542 142.02 46.0235 142.013 45.9746 142.013C45.2899 142.013 44.8315 142.43 44.6724 143.286L44.3488 145.027H43.9146L44.5504 141.596H44.9659L44.8557 142.222C45.1436 141.772 45.5651 141.57 46.1766 141.57Z" fill="#DADBD8"/>
<path d="M49.1408 143.044C49.1408 142.372 48.7555 141.974 48.0831 141.974C47.2819 141.974 46.689 142.652 46.689 143.585C46.689 144.258 47.0739 144.649 47.7467 144.649C48.5475 144.649 49.1408 143.977 49.1408 143.044ZM49.8621 141.596L49.2203 145.027H48.8044L48.9082 144.485C48.6024 144.844 48.175 145.06 47.6549 145.06C46.8298 145.06 46.2544 144.512 46.2544 143.606C46.2544 142.43 47.0254 141.57 48.0708 141.57C48.6823 141.57 49.1102 141.837 49.2935 142.313L49.4279 141.596H49.8621Z" fill="#DADBD8"/>
<path d="M53.5956 143.044C53.5956 142.372 53.2103 141.974 52.5379 141.974C51.7371 141.974 51.1502 142.646 51.1502 143.585C51.1502 144.258 51.5351 144.649 52.2079 144.649C53.0087 144.649 53.5956 143.977 53.5956 143.044ZM54.0358 143.019C54.0358 144.198 53.2656 145.06 52.2139 145.06C51.6023 145.06 51.174 144.792 50.9908 144.309L50.6242 146.293H50.1899L51.0647 141.596H51.4798L51.3761 142.144C51.6818 141.779 52.1101 141.57 52.6298 141.57C53.4549 141.57 54.0358 142.118 54.0358 143.019Z" fill="#DADBD8"/>
<path d="M57.929 142.686C57.929 142.81 57.9167 142.94 57.892 143.077L57.5254 145.027H57.0908L57.4583 143.07C57.4761 142.959 57.4884 142.855 57.4884 142.758C57.4884 142.268 57.2133 141.988 56.657 141.988C55.9723 141.988 55.5019 142.385 55.3484 143.188L55.0065 145.027H54.5723L55.4773 140.187H55.9111L55.5504 142.111C55.8562 141.739 56.284 141.57 56.7795 141.57C57.5067 141.57 57.929 141.988 57.929 142.686Z" fill="#DADBD8"/>
<path d="M61.9924 141.596L59.6444 145.471C59.2472 146.124 58.9474 146.326 58.483 146.326C58.1832 146.326 57.8774 146.214 57.7188 146.019L57.9505 145.68C58.0917 145.837 58.275 145.928 58.5196 145.928C58.7947 145.928 59.0086 145.791 59.2596 145.373L59.4858 145.008L58.685 141.596H59.1247L59.7912 144.518L61.5459 141.596H61.9924Z" fill="#DADBD8"/>
<path d="M71.6805 0.578951H6.44678L17.0732 8.76056V24.8565C17.0732 26.7128 18.4835 28.2179 20.2233 28.2179H71.6805C73.4203 28.2179 74.8306 26.7128 74.8306 24.8565V3.9399C74.8306 2.0836 73.4203 0.578951 71.6805 0.578951Z" fill="#F3F2F1"/>
<path d="M68.9598 11.9545C68.9598 12.0212 59.1208 12.0757 46.9874 12.0757C34.8492 12.0757 25.0127 12.0212 25.0127 11.9545C25.0127 11.8874 34.8492 11.8329 46.9874 11.8329C59.1208 11.8329 68.9598 11.8874 68.9598 11.9545Z" fill="#DADBD8"/>
<path d="M68.9598 18.1342C68.9598 18.2014 59.1208 18.2559 46.9874 18.2559C34.8492 18.2559 25.0127 18.2014 25.0127 18.1342C25.0127 18.0671 34.8492 18.0131 46.9874 18.0131C59.1208 18.0131 68.9598 18.0671 68.9598 18.1342Z" fill="#DADBD8"/>
<path d="M297.926 181.882C297.926 181.947 231.228 182 148.971 182C66.6844 182 0 181.947 0 181.882C0 181.817 66.6844 181.764 148.971 181.764C231.228 181.764 297.926 181.817 297.926 181.882Z" fill="#17282F"/>
<path d="M269.935 158.723C269.935 158.723 258.661 144.879 254.407 131.036C250.153 117.192 252.174 118.781 252.174 118.781C252.174 118.781 257.917 132.229 262.277 138.724C266.638 145.219 274.402 154.751 274.402 154.751L269.935 158.723Z" fill="#33535F"/>
<path d="M272.182 120.938C271.818 120.262 270.85 120.613 270.959 121.384C271.646 126.246 273.132 137.657 273.074 145.058C272.998 154.672 273.077 158.389 273.077 158.389H277.769C277.769 158.389 276.936 138.514 275.876 132.454C275.133 128.205 273.554 123.489 272.182 120.938Z" fill="#33535F"/>
<path d="M274.739 156.773C274.739 156.773 277.692 150.148 278.601 141.827C278.988 138.287 278.298 133.505 277.273 127.122C276.776 124.03 276.664 121.678 276.68 120.047C276.692 118.814 278.217 118.411 278.782 119.487C279.348 120.564 280.987 124.248 281.403 126.557C282.539 132.858 283.826 136.009 282.842 141.988C281.858 147.967 278.223 157.177 278.223 157.177L274.739 156.773Z" fill="#33535F"/>
<path d="M278.966 157.177C278.966 157.177 291.343 128.797 292.202 124.587C293.059 120.376 295.976 110.674 296.319 111.224C296.662 111.773 297.177 116.898 294.947 122.756C292.716 128.614 283.192 158.042 283.192 158.042H278.966V157.177Z" fill="#33535F"/>
<path d="M273.384 155.908C273.379 155.915 273.259 155.827 273.037 155.653C272.817 155.476 272.484 155.226 272.078 154.872C271.255 154.181 270.099 153.131 268.752 151.739C266.05 148.97 262.687 144.703 259.772 139.442C256.851 134.183 254.886 129.04 253.643 125.276C253.02 123.391 252.566 121.848 252.272 120.776C252.12 120.241 252.016 119.822 251.943 119.538C251.871 119.254 251.838 119.104 251.847 119.101C251.856 119.098 251.906 119.243 251.994 119.522C252.087 119.826 252.212 120.232 252.369 120.743C252.694 121.804 253.175 123.335 253.819 125.208C255.105 128.948 257.09 134.062 260 139.298C262.903 144.536 266.224 148.802 268.883 151.597C270.208 153.002 271.342 154.072 272.143 154.787C272.538 155.153 272.861 155.416 273.07 155.608C273.281 155.797 273.39 155.9 273.384 155.908Z" fill="#17282F"/>
<path d="M274.738 142.293C274.72 142.294 274.681 141.997 274.627 141.46C274.569 140.872 274.492 140.107 274.399 139.185C274.203 137.265 273.897 134.617 273.46 131.708C273.021 128.799 272.533 126.182 272.156 124.293C271.972 123.387 271.821 122.634 271.704 122.057C271.597 121.528 271.547 121.234 271.565 121.229C271.582 121.224 271.666 121.509 271.804 122.03C271.943 122.551 272.126 123.309 272.338 124.25C272.763 126.13 273.281 128.748 273.721 131.663C274.16 134.579 274.436 137.238 274.585 139.166C274.66 140.129 274.709 140.91 274.73 141.451C274.752 141.992 274.757 142.291 274.738 142.293Z" fill="#17282F"/>
<path d="M277.638 119.264C277.646 119.26 277.696 119.385 277.784 119.625C277.878 119.892 278.001 120.242 278.155 120.679C278.319 121.136 278.507 121.7 278.686 122.368C278.87 123.035 279.108 123.786 279.288 124.641C279.386 125.067 279.488 125.512 279.594 125.975C279.698 126.44 279.772 126.932 279.867 127.436C280.069 128.444 280.194 129.537 280.344 130.683C280.586 132.984 280.718 135.532 280.639 138.204C280.539 140.877 280.236 143.408 279.84 145.685C279.614 146.818 279.415 147.898 279.146 148.888C279.018 149.384 278.911 149.869 278.776 150.324C278.639 150.778 278.507 151.214 278.381 151.632C278.145 152.471 277.857 153.202 277.628 153.852C277.405 154.505 277.179 155.054 276.985 155.497C276.803 155.921 276.656 156.261 276.544 156.52C276.441 156.752 276.383 156.873 276.375 156.869C276.366 156.864 276.409 156.736 276.496 156.497C276.596 156.233 276.727 155.886 276.89 155.454C277.07 155.005 277.281 154.453 277.49 153.797C277.705 153.142 277.98 152.41 278.203 151.57C278.324 151.153 278.45 150.717 278.581 150.263C278.71 149.808 278.811 149.324 278.934 148.829C279.193 147.842 279.382 146.765 279.601 145.637C279.981 143.369 280.275 140.852 280.375 138.194C280.453 135.537 280.329 133.003 280.102 130.713C279.959 129.572 279.843 128.484 279.651 127.479C279.562 126.975 279.493 126.485 279.395 126.022C279.295 125.559 279.198 125.114 279.106 124.688C278.939 123.834 278.715 123.082 278.544 122.414C278.379 121.743 278.206 121.176 278.057 120.714C277.923 120.271 277.816 119.915 277.734 119.644C277.663 119.398 277.629 119.267 277.638 119.264Z" fill="#17282F"/>
<path d="M296.177 111.794C296.182 111.795 296.178 111.838 296.168 111.921C296.153 112.021 296.134 112.142 296.113 112.29C296.058 112.613 295.99 113.092 295.869 113.702C295.629 114.923 295.232 116.68 294.613 118.811C293.995 120.944 293.15 123.443 292.148 126.189C291.149 128.937 289.988 131.93 288.889 135.117C287.774 138.299 286.914 141.403 286.106 144.221C285.306 147.041 284.547 149.572 283.813 151.662C283.086 153.754 282.386 155.402 281.858 156.515C281.605 157.077 281.377 157.496 281.23 157.785C281.161 157.915 281.104 158.022 281.057 158.109C281.017 158.182 280.994 158.218 280.99 158.215C280.986 158.213 281 158.172 281.033 158.095C281.073 158.004 281.123 157.894 281.183 157.758C281.314 157.462 281.527 157.035 281.766 156.467C282.264 155.342 282.935 153.688 283.637 151.593C284.347 149.5 285.086 146.969 285.873 144.146C286.668 141.326 287.522 138.21 288.641 135.02C289.743 131.825 290.91 128.835 291.921 126.095C292.935 123.357 293.796 120.87 294.434 118.751C295.074 116.633 295.499 114.89 295.768 113.679C295.905 113.074 295.989 112.598 296.06 112.279C296.093 112.133 296.119 112.014 296.141 111.916C296.161 111.834 296.173 111.793 296.177 111.794Z" fill="#17282F"/>
<path d="M258.01 105.525C257.23 104.698 255.933 105.563 256.256 106.684C256.583 107.821 257.079 109.292 257.811 110.951C259.513 114.81 264.511 128.653 266.851 136.255C269.191 143.857 272.488 158.042 272.488 158.042L277.484 157.177C277.484 157.177 272.913 133.872 268.446 125.476C264.857 118.729 261.268 108.979 258.01 105.525Z" fill="#33535F"/>
<path d="M268.218 141.01C268.236 141.004 268.326 141.231 268.476 141.649C268.624 142.068 268.825 142.678 269.052 143.439C269.512 144.96 270.075 147.084 270.642 149.443C271.208 151.804 271.68 153.952 272.008 155.508C272.159 156.245 272.284 156.864 272.384 157.356C272.468 157.793 272.505 158.037 272.487 158.042C272.47 158.047 272.398 157.811 272.284 157.381C272.162 156.895 272.009 156.284 271.826 155.555C271.444 153.952 270.942 151.845 270.386 149.513C269.82 147.157 269.287 145.028 268.873 143.497C268.675 142.774 268.51 142.167 268.378 141.684C268.259 141.257 268.201 141.017 268.218 141.01Z" fill="#17282F"/>
<path d="M274.997 157.609C274.993 157.61 274.983 157.562 274.969 157.467C274.954 157.356 274.936 157.218 274.913 157.047C274.86 156.679 274.814 156.131 274.708 155.433C274.525 154.033 274.197 152.015 273.661 149.553C273.127 147.09 272.349 144.194 271.322 141.037C270.297 137.878 269.012 134.466 267.555 130.934C264.615 123.879 261.679 117.621 259.75 112.994C258.775 110.686 258.019 108.802 257.522 107.489C257.268 106.835 257.087 106.32 256.96 105.972C256.904 105.81 256.858 105.68 256.822 105.575C256.792 105.485 256.778 105.438 256.783 105.436C256.787 105.434 256.808 105.477 256.847 105.564C256.89 105.666 256.943 105.794 257.009 105.951C257.156 106.313 257.36 106.812 257.617 107.446C258.143 108.745 258.923 110.616 259.919 112.911C261.891 117.514 264.853 123.755 267.797 130.82C269.256 134.357 270.537 137.78 271.552 140.952C272.569 144.122 273.331 147.033 273.843 149.509C274.358 151.983 274.658 154.011 274.81 155.419C274.9 156.121 274.93 156.671 274.966 157.041C274.978 157.214 274.988 157.353 274.996 157.464C275.002 157.56 275.002 157.609 274.997 157.609Z" fill="#17282F"/>
<path d="M277.484 157.177C277.465 157.18 277.406 156.861 277.315 156.281C277.216 155.655 277.085 154.829 276.927 153.831C276.582 151.765 276.056 148.921 275.3 145.824C274.552 142.725 273.709 139.968 273.061 137.988C272.742 137.034 272.478 136.245 272.279 135.647C272.092 135.094 271.997 134.785 272.014 134.778C272.031 134.771 272.158 135.066 272.375 135.607C272.59 136.147 272.891 136.935 273.236 137.92C273.931 139.886 274.805 142.644 275.556 145.753C276.315 148.86 276.813 151.721 277.111 153.798C277.253 154.839 277.362 155.681 277.417 156.266C277.477 156.85 277.502 157.175 277.484 157.177Z" fill="#17282F"/>
<path d="M268.236 181.763H287.739V156.411H268.236V181.763Z" fill="#F2575D"/>
<path d="M268.236 181.763H287.739V156.411H268.236V181.763Z" fill="#EE3937"/>
<path d="M281.518 181.764H264.215V156.411H281.518V181.764Z" fill="#FE0847"/>
<path d="M27.9812 147.597C24.659 145.327 20.0546 145.284 16.8216 147.695C13.752 149.985 12.1935 154.152 12.3289 158.145C12.4643 162.138 14.2784 167.017 17.6692 169.115L27.6224 169.073C30.8004 166.58 32.9492 162.563 33.0992 158.357C33.2493 154.151 31.3031 149.868 27.9812 147.597Z" fill="#33535F"/>
<path d="M23.0806 169.5C23.0588 169.5 23.0374 169.175 23.0178 168.586C23.0007 167.933 22.9784 167.097 22.9519 166.095C22.9013 163.993 22.8239 161.089 22.6922 157.884C22.5596 154.677 22.3978 151.777 22.2749 149.678C22.2191 148.677 22.1722 147.843 22.1357 147.19C22.1071 146.603 22.1013 146.277 22.1231 146.275C22.1451 146.273 22.1922 146.595 22.2591 147.179C22.3267 147.764 22.4089 148.611 22.499 149.66C22.6793 151.756 22.8769 154.658 23.0095 157.869C23.1414 161.079 23.1836 163.988 23.1763 166.093C23.1731 167.146 23.1607 167.998 23.1416 168.586C23.1231 169.175 23.1025 169.5 23.0806 169.5Z" fill="#17282F"/>
<path d="M13.332 157.24C13.3247 157.334 12.784 157.362 12.1243 157.304C11.4643 157.246 10.9351 157.124 10.9425 157.031C10.9498 156.938 11.4902 156.909 12.1502 156.966C12.8099 157.024 13.3391 157.147 13.332 157.24Z" fill="#17282F"/>
<path d="M13.5172 153.657C13.4815 153.743 13.015 153.605 12.4754 153.35C11.9355 153.094 11.5265 152.818 11.5622 152.732C11.5978 152.647 12.0643 152.784 12.6042 153.04C13.1438 153.295 13.5528 153.572 13.5172 153.657Z" fill="#17282F"/>
<path d="M15.2452 150.998C15.1997 151.075 14.6752 150.812 14.1303 150.329C13.5838 149.848 13.2431 149.348 13.3064 149.285C13.3715 149.22 13.8037 149.603 14.3329 150.068C14.86 150.535 15.2932 150.917 15.2452 150.998Z" fill="#17282F"/>
<path d="M16.983 148.489C16.9029 148.526 16.6516 148.107 16.422 147.553C16.1921 146.998 16.071 146.518 16.1512 146.48C16.2315 146.442 16.4828 146.861 16.7124 147.415C16.9421 147.97 17.0634 148.451 16.983 148.489Z" fill="#17282F"/>
<path d="M19.7092 146.708C19.6311 146.747 19.3603 146.301 19.1809 145.683C18.9998 145.065 18.9857 144.534 19.0709 144.518C19.1586 144.502 19.3098 144.988 19.4846 145.582C19.6567 146.177 19.7904 146.669 19.7092 146.708Z" fill="#17282F"/>
<path d="M24.2584 144.701C24.3413 144.732 24.2906 145.113 24.1458 145.552C24.0006 145.991 23.816 146.321 23.7331 146.29C23.6504 146.258 23.7009 145.878 23.8461 145.439C23.9909 145 24.1759 144.67 24.2584 144.701Z" fill="#17282F"/>
<path d="M27.6331 146.246C27.6926 146.315 27.4761 146.632 27.1497 146.954C26.8231 147.277 26.5101 147.483 26.4503 147.414C26.3907 147.345 26.6073 147.028 26.9339 146.705C27.2603 146.383 27.5735 146.178 27.6331 146.246Z" fill="#17282F"/>
<path d="M30.6045 148.293C30.6537 148.37 30.3896 148.653 30.015 148.923C29.64 149.195 29.2963 149.351 29.2471 149.274C29.1979 149.196 29.4617 148.914 29.8368 148.643C30.2115 148.372 30.5554 148.215 30.6045 148.293Z" fill="#17282F"/>
<path d="M32.7136 151.344C32.7481 151.431 32.332 151.702 31.7842 151.952C31.2367 152.201 30.7649 152.333 30.7305 152.248C30.696 152.161 31.1121 151.889 31.6597 151.64C32.2074 151.391 32.6793 151.259 32.7136 151.344Z" fill="#17282F"/>
<path d="M33.544 154.673C33.5548 154.766 33.1319 154.898 32.599 154.969C32.0658 155.039 31.6253 155.021 31.6145 154.928C31.6037 154.836 32.0268 154.703 32.5599 154.633C33.0927 154.562 33.5334 154.58 33.544 154.673Z" fill="#17282F"/>
<path d="M33.9764 158.771C33.9412 158.856 33.4902 158.73 32.9692 158.488C32.4477 158.246 32.0537 157.981 32.0886 157.895C32.1236 157.809 32.5745 157.936 33.0959 158.177C33.6171 158.419 34.0113 158.685 33.9764 158.771Z" fill="#17282F"/>
<path d="M33.5958 162.286C33.5681 162.372 32.9978 162.227 32.4021 161.809C31.8042 161.395 31.4511 160.896 31.5134 160.834C31.5781 160.766 32.011 161.135 32.5758 161.526C33.138 161.921 33.6282 162.195 33.5958 162.286Z" fill="#17282F"/>
<path d="M31.88 165.487C31.8277 165.56 31.3737 165.275 30.9383 164.773C30.501 164.273 30.2687 163.769 30.3405 163.719C30.4146 163.665 30.7524 164.064 31.171 164.542C31.5876 165.023 31.9357 165.412 31.88 165.487Z" fill="#17282F"/>
<path d="M15.5884 165.863C15.6291 165.946 15.1523 166.296 14.5242 166.645C13.8955 166.995 13.3533 167.21 13.313 167.127C13.2724 167.044 13.7487 166.694 14.3774 166.345C15.0058 165.996 15.5482 165.78 15.5884 165.863Z" fill="#17282F"/>
<path d="M14.1005 162.968C14.1366 163.053 13.7543 163.321 13.2468 163.567C12.7391 163.813 12.2982 163.942 12.2622 163.857C12.2258 163.772 12.6079 163.504 13.1156 163.258C13.6232 163.012 14.0641 162.883 14.1005 162.968Z" fill="#17282F"/>
<path d="M13.0065 160.404C13.0186 160.496 12.5483 160.645 11.9559 160.734C11.3632 160.824 10.8729 160.821 10.8606 160.729C10.8481 160.636 11.3186 160.488 11.9112 160.399C12.5039 160.309 12.9942 160.311 13.0065 160.404Z" fill="#17282F"/>
<path d="M16.5944 158.991C16.6207 159.077 16.1617 159.306 15.5499 159.379C14.9377 159.454 14.4428 159.341 14.4498 159.249C14.4559 159.153 14.9345 159.114 15.5141 159.042C16.0936 158.974 16.5687 158.899 16.5944 158.991Z" fill="#17282F"/>
<path d="M19.575 155.826C19.6009 155.914 19.2356 156.111 18.743 156.162C18.2505 156.214 17.8564 156.097 17.8659 156.006C17.8742 155.911 18.2543 155.874 18.712 155.824C19.1698 155.778 19.5494 155.734 19.575 155.826Z" fill="#17282F"/>
<path d="M20.1447 153.291C20.116 153.38 19.7206 153.314 19.2617 153.145C18.8027 152.976 18.4539 152.766 18.4826 152.679C18.5112 152.59 18.9066 152.655 19.3655 152.825C19.8244 152.994 20.1733 153.203 20.1447 153.291Z" fill="#17282F"/>
<path d="M21.2376 150.728C21.1769 150.793 20.9051 150.602 20.7115 150.242C20.5166 149.883 20.4977 149.537 20.5808 149.513C20.6668 149.487 20.813 149.755 20.9868 150.073C21.1579 150.392 21.3023 150.662 21.2376 150.728Z" fill="#17282F"/>
<path d="M19.9204 161.223C19.9412 161.314 19.5988 161.481 19.1559 161.597C18.9 161.664 18.6665 161.699 18.5133 161.698L18.4507 161.5C18.5653 161.478 18.6394 161.483 18.6542 161.519C18.6692 161.555 18.6225 161.617 18.5296 161.692L18.4668 161.494C18.6022 161.419 18.8245 161.334 19.0805 161.268C19.5234 161.152 19.8995 161.132 19.9204 161.223Z" fill="#17282F"/>
<path d="M20.5346 165.717C20.5665 165.804 20.13 166.069 19.5597 166.308C18.9891 166.547 18.5007 166.67 18.4684 166.583C18.4365 166.496 18.8728 166.232 19.4434 165.993C20.0139 165.753 20.5023 165.63 20.5346 165.717Z" fill="#17282F"/>
<path d="M17.1673 163.72C17.1956 163.809 16.9044 163.995 16.5171 164.136C16.1297 164.276 15.7928 164.319 15.7646 164.23C15.7364 164.142 16.0272 163.955 16.4148 163.815C16.802 163.674 17.1391 163.632 17.1673 163.72Z" fill="#17282F"/>
<path d="M17.4245 154.573C17.4044 154.662 16.8973 154.609 16.3118 154.387C15.7258 154.166 15.3004 153.867 15.3377 153.784C15.3756 153.698 15.8489 153.853 16.4179 154.067C16.9862 154.283 17.4456 154.481 17.4245 154.573Z" fill="#17282F"/>
<path d="M25.5729 153.578C25.6211 153.656 25.3357 153.948 24.9355 154.23C24.535 154.512 24.1713 154.676 24.123 154.598C24.0748 154.52 24.3602 154.229 24.7606 153.947C25.1609 153.665 25.5244 153.5 25.5729 153.578Z" fill="#17282F"/>
<path d="M26.016 158.091C26.0338 158.183 25.7338 158.327 25.346 158.413C24.9584 158.499 24.6295 158.494 24.6116 158.402C24.594 158.311 24.8938 158.167 25.2816 158.081C25.6695 157.995 25.9981 158 26.016 158.091Z" fill="#17282F"/>
<path d="M26.5309 163.166C26.494 163.251 26.0621 163.121 25.5665 162.876C25.0707 162.631 24.6987 162.364 24.7354 162.279C24.7722 162.194 25.2041 162.324 25.7 162.569C26.1957 162.814 26.5678 163.081 26.5309 163.166Z" fill="#17282F"/>
<path d="M25.441 168.106C25.3731 168.166 25.0928 167.921 24.8147 167.56C24.5365 167.199 24.366 166.858 24.4338 166.798C24.5016 166.739 24.7822 166.983 25.0601 167.345C25.3382 167.706 25.5087 168.047 25.441 168.106Z" fill="#17282F"/>
<path d="M25.2185 150.255C25.272 150.327 25.087 150.576 24.7693 150.746C24.4522 150.916 24.1545 150.926 24.1321 150.837C24.1081 150.745 24.3407 150.597 24.6268 150.442C24.9139 150.29 25.1642 150.18 25.2185 150.255Z" fill="#17282F"/>
<path d="M29.2109 154.807C29.2402 154.894 28.8705 155.11 28.3654 155.184C27.8598 155.26 27.4492 155.159 27.4551 155.067C27.46 154.973 27.8507 154.92 28.3215 154.848C28.7925 154.78 29.1821 154.717 29.2109 154.807Z" fill="#17282F"/>
<path d="M28.4155 150.721C28.4543 150.803 28.0875 151.082 27.5659 151.259C27.0448 151.438 26.5941 151.437 26.5814 151.347C26.5671 151.252 26.9738 151.107 27.4692 150.936C27.9651 150.768 28.376 150.636 28.4155 150.721Z" fill="#17282F"/>
<path d="M30.083 161.136C30.0819 161.227 29.4548 161.287 28.698 161.138C27.9407 160.994 27.3729 160.703 27.4019 160.618C27.4312 160.527 28.0244 160.665 28.7547 160.805C29.4841 160.948 30.0857 161.04 30.083 161.136Z" fill="#17282F"/>
<path d="M28.5993 167.072C28.5464 167.145 28.0844 166.854 27.6239 166.359C27.1616 165.865 26.8918 165.371 26.9603 165.315C27.0305 165.257 27.4021 165.643 27.849 166.12C28.2942 166.599 28.6544 166.997 28.5993 167.072Z" fill="#17282F"/>
<path d="M22.0746 145.891C22.1217 145.963 20.8078 146.532 19.2893 148.239C17.7715 149.909 16.2055 152.858 15.8199 156.422C15.6353 158.192 15.7938 159.906 16.0292 161.435C16.2772 162.966 16.6062 164.325 16.9093 165.458C17.2142 166.591 17.4942 167.498 17.6821 168.127C17.8707 168.756 17.9714 169.106 17.9498 169.115C17.9302 169.122 17.7903 168.788 17.5657 168.171C17.3416 167.555 17.0283 166.657 16.6944 165.527C16.3619 164.398 16.0076 163.034 15.7408 161.489C15.4868 159.944 15.3148 158.203 15.5044 156.382C15.8981 152.737 17.5369 149.733 19.1276 148.072C19.919 147.229 20.663 146.666 21.2055 146.34C21.4689 146.163 21.6964 146.068 21.8416 145.988C21.9898 145.914 22.0697 145.88 22.0746 145.891Z" fill="#17282F"/>
<path d="M26.4073 169.332C26.3384 169.295 27.1213 168.01 27.8354 165.692C28.5708 163.403 29.179 160.012 28.6892 156.33C28.46 154.494 27.9623 152.792 27.3362 151.338C26.6862 149.904 25.8486 148.729 25.0291 147.91C24.1817 147.11 23.3491 146.651 22.7685 146.385C22.1811 146.124 21.829 146.063 21.834 146.034C21.8357 146.023 21.9249 146.028 22.0937 146.056C22.261 146.088 22.5073 146.147 22.8132 146.262C23.4202 146.496 24.2826 146.928 25.1773 147.729C26.0488 148.559 26.9137 149.731 27.6003 151.203C28.2553 152.683 28.7698 154.412 29.0039 156.283C29.5024 160.034 28.8457 163.476 28.0477 165.77C27.8682 166.355 27.6373 166.857 27.4652 167.309C27.2605 167.746 27.0917 168.126 26.9366 168.427C26.6133 169.022 26.4264 169.343 26.4073 169.332Z" fill="#17282F"/>
<path d="M14.1006 168.53H31.6145L31.722 172.271H14.1006V168.53Z" fill="#FE0847"/>
<path d="M15.5884 170.401L16.5944 181.818H29.3985L30.4268 170.526L15.5884 170.401Z" fill="#FE0847"/>
<path d="M31.7221 172.316C31.7221 172.409 27.778 172.485 22.914 172.485C18.0482 172.485 14.105 172.409 14.105 172.316C14.105 172.222 18.0482 172.146 22.914 172.146C27.778 172.146 31.7221 172.222 31.7221 172.316Z" fill="#17282F"/>
<path d="M29.9424 175.793C29.9593 175.805 29.8412 176.067 29.5672 176.507C29.2923 176.944 28.8552 177.559 28.2088 178.218L28.1283 178.301L28.0486 178.211C27.2054 177.267 26.0467 176.11 24.6163 175.006L24.81 174.996C24.3211 175.454 23.8114 175.932 23.2883 176.422C22.6663 176.999 22.0638 177.559 21.4893 178.093L21.39 178.185L21.29 178.095C20.1993 177.117 19.2076 176.227 18.3658 175.472L18.5361 175.453C17.9321 176.239 17.4247 176.9 17.023 177.422C16.6588 177.884 16.4479 178.132 16.4291 178.116C16.4103 178.1 16.5857 177.822 16.918 177.335C17.2974 176.793 17.7767 176.11 18.3477 175.295L18.4206 175.191L18.518 175.276C19.3724 176.015 20.3791 176.885 21.4858 177.843L21.287 177.846C21.8593 177.31 22.4595 176.747 23.079 176.167C23.604 175.678 24.1149 175.203 24.6057 174.747L24.6995 174.66L24.7996 174.738C26.2412 175.869 27.3943 177.065 28.2153 178.047L28.0552 178.04C29.3544 176.783 29.892 175.752 29.9424 175.793Z" fill="#17282F"/>
<path d="M240.38 178.684H54.9891C51.5677 178.684 48.7939 175.725 48.7939 172.074V45.7486C48.7939 42.0981 51.5677 39.1388 54.9891 39.1388H240.38C243.801 39.1388 246.575 42.0981 246.575 45.7486V172.074C246.575 175.725 243.801 178.684 240.38 178.684Z" fill="#33535F"/>
<path d="M249.031 181.882H49.8878C45.7077 181.882 42.3188 178.266 42.3188 173.806V169.672H256.6V173.806C256.6 178.266 253.211 181.882 249.031 181.882Z" fill="#33535F"/>
<path d="M128.187 168.363L130.846 172.876H168.262L170.731 168.363H128.187Z" fill="#17282F"/>
<path d="M244.875 168.363C244.875 168.439 200.977 168.5 146.839 168.5C92.682 168.5 48.7939 168.439 48.7939 168.363C48.7939 168.288 92.682 168.226 146.839 168.226C200.977 168.226 244.875 168.288 244.875 168.363Z" fill="#17282F"/>
<path d="M238.745 164.673H55.8499C55.081 164.673 54.4575 164.009 54.4575 163.188V48.6481C54.4575 47.8277 55.0806 47.163 55.8495 47.163H238.745C239.514 47.163 240.137 47.8277 240.137 48.6481V163.189C240.137 164.009 239.514 164.673 238.745 164.673Z" fill="#E7E8E5"/>
<path d="M239.938 164.845H54.2588L54.4574 55.9449H239.938V164.845Z" fill="white"/>
<path d="M69.6862 51.7015C69.6862 52.5754 69.0223 53.2837 68.2032 53.2837C67.3846 53.2837 66.7207 52.5754 66.7207 51.7015C66.7207 50.8275 67.3846 50.1192 68.2032 50.1192C69.0223 50.1192 69.6862 50.8275 69.6862 51.7015Z" fill="#17282F"/>
<path d="M60.6984 51.7015C60.6984 52.5754 60.0349 53.2837 59.2154 53.2837C58.3967 53.2837 57.7324 52.5754 57.7324 51.7015C57.7324 50.8275 58.3967 50.1192 59.2154 50.1192C60.0349 50.1192 60.6984 50.8275 60.6984 51.7015Z" fill="#17282F"/>
<path d="M65.0123 51.7015C65.0123 52.5754 64.3485 53.2837 63.5294 53.2837C62.7103 53.2837 62.0464 52.5754 62.0464 51.7015C62.0464 50.8275 62.7103 50.1192 63.5294 50.1192C64.3485 50.1192 65.0123 50.8275 65.0123 51.7015Z" fill="#17282F"/>
<path d="M240.137 164.845H54.2588V154.33H240.137V164.845Z" fill="#17282F"/>
<path d="M61.281 160.805V161.141H59.801V160.875L60.5989 160.067C60.7937 159.869 60.8281 159.743 60.8281 159.624C60.8281 159.428 60.7018 159.315 60.4551 159.315C60.2599 159.315 60.0962 159.385 59.9848 159.538L59.7236 159.323C59.8784 159.1 60.157 158.968 60.4866 158.968C60.9225 158.968 61.2036 159.204 61.2036 159.584C61.2036 159.792 61.1496 159.982 60.8711 160.26L60.3348 160.805H61.281Z" fill="white"/>
<path d="M61.4829 160.909C61.4829 160.756 61.5888 160.655 61.7177 160.655C61.847 160.655 61.9533 160.756 61.9533 160.909C61.9533 161.056 61.847 161.163 61.7177 161.163C61.5888 161.163 61.4829 161.056 61.4829 160.909ZM61.4829 159.743C61.4829 159.59 61.5888 159.489 61.7177 159.489C61.847 159.489 61.9533 159.59 61.9533 159.743C61.9533 159.889 61.847 159.997 61.7177 159.997C61.5888 159.997 61.4829 159.889 61.4829 159.743Z" fill="white"/>
<path d="M62.8873 158.999V161.141H62.5148V159.333H62.0903V158.999H62.8873Z" fill="white"/>
<path d="M65.0753 160.655H64.7193V161.141H64.3578V160.655H63.2563V160.38L64.246 158.999H64.6449L63.7123 160.318H64.3693V159.887H64.7193V160.318H65.0753V160.655Z" fill="white"/>
<path d="M220.709 160.539H68.356V159.798H220.709V160.539Z" fill="white"/>
<path d="M115.852 160.977H68.2422V159H115.852V160.977Z" fill="#FE0847"/>
<path d="M117.389 160.17C117.389 161.535 116.352 162.643 115.072 162.643C113.792 162.643 112.753 161.535 112.753 160.17C112.753 158.804 113.792 157.696 115.072 157.696C116.352 157.696 117.389 158.804 117.389 160.17Z" fill="#FE0847"/>
<path d="M224.185 160.164C224.185 159.94 224.027 159.8 223.784 159.8C223.543 159.8 223.376 159.956 223.376 160.167C223.376 160.369 223.525 160.528 223.792 160.528C224.024 160.528 224.185 160.387 224.185 160.164ZM224.546 160.145C224.546 160.571 224.222 160.841 223.812 160.841C223.264 160.841 222.943 160.464 222.943 159.775C222.943 159.04 223.344 158.637 223.927 158.637C224.128 158.637 224.32 158.682 224.455 158.774L224.317 159.074C224.208 158.997 224.076 158.97 223.935 158.97C223.557 158.97 223.319 159.221 223.319 159.708V159.711C223.439 159.561 223.631 159.487 223.855 159.487C224.251 159.487 224.546 159.744 224.546 160.145Z" fill="white"/>
<path d="M224.728 160.577C224.728 160.424 224.833 160.323 224.963 160.323C225.092 160.323 225.198 160.424 225.198 160.577C225.198 160.724 225.092 160.831 224.963 160.831C224.833 160.831 224.728 160.724 224.728 160.577ZM224.728 159.411C224.728 159.258 224.833 159.156 224.963 159.156C225.092 159.156 225.198 159.258 225.198 159.411C225.198 159.557 225.092 159.664 224.963 159.664C224.833 159.664 224.728 159.557 224.728 159.411Z" fill="white"/>
<path d="M226.741 159.738C226.741 159.221 226.551 158.982 226.276 158.982C226.003 158.982 225.814 159.221 225.814 159.738C225.814 160.256 226.003 160.494 226.276 160.494C226.551 160.494 226.741 160.256 226.741 159.738ZM225.438 159.738C225.438 159.035 225.799 158.637 226.276 158.637C226.755 158.637 227.116 159.035 227.116 159.738C227.116 160.442 226.755 160.841 226.276 160.841C225.799 160.841 225.438 160.442 225.438 159.738Z" fill="white"/>
<path d="M228.669 159.738C228.669 159.221 228.48 158.982 228.204 158.982C227.931 158.982 227.742 159.221 227.742 159.738C227.742 160.256 227.931 160.494 228.204 160.494C228.48 160.494 228.669 160.256 228.669 159.738ZM227.366 159.738C227.366 159.035 227.728 158.637 228.204 158.637C228.683 158.637 229.045 159.035 229.045 159.738C229.045 160.442 228.683 160.841 228.204 160.841C227.728 160.841 227.366 160.442 227.366 159.738Z" fill="white"/>
<path d="M232.289 159.605H231.594V157.469H233.593V158.21H232.289V159.605Z" fill="white"/>
<path d="M233.595 162.394H231.592V160.262H232.287V161.652H233.595V162.394Z" fill="white"/>
<path d="M236.784 162.394H234.785V161.652H236.089V160.257H236.784V162.394Z" fill="white"/>
<path d="M236.785 159.601H236.091V158.21H234.783V157.469H236.785V159.601Z" fill="white"/>
<path d="M79.7216 62.4204H68.7773L63.3052 72.5327L68.7773 82.645H79.7216L85.1937 72.5327L79.7216 62.4204Z" fill="#E7E8E5"/>
<path d="M69.6701 74.512C69.181 73.9343 68.6877 73.3504 68.3313 72.6716C67.9749 71.9923 67.7623 71.1996 67.8805 70.4314C67.9494 69.9822 68.1284 69.5543 68.1565 69.1001C68.1956 68.4753 67.9494 67.8223 68.1574 67.2365C68.4819 66.3208 69.6369 66.1793 70.3374 65.5467C70.8826 65.0544 71.1484 64.2549 71.748 63.8406C72.2724 63.4785 72.9456 63.4862 73.5636 63.5797C74.1819 63.6732 74.8037 63.8397 75.4225 63.7508C75.8635 63.6873 76.279 63.4971 76.7111 63.3828C77.1428 63.2689 77.625 63.2389 78.0095 63.4772C78.3944 63.7158 78.6104 64.2985 78.3582 64.69C79.0753 64.337 79.9858 64.9333 80.1823 65.7491C80.3783 66.5654 79.9854 67.4466 79.3781 67.9847C78.7708 68.5229 77.9848 68.7729 77.2091 68.929C75.0125 69.371 72.6297 69.1214 70.7367 67.8531" fill="#17282F"/>
<path d="M79.8169 77.0076C79.7433 75.5601 79.3635 72.5935 78.991 69.9118C78.5899 67.0278 76.1811 64.9555 73.4546 65.1497L73.1837 65.1692C70.2743 65.5599 68.9598 68.414 69.4059 71.5063L70.2603 82.645H77.3604L77.1916 80.6716C77.1916 80.6716 79.97 80.0055 79.8169 77.0076Z" fill="#F8A58D"/>
<path d="M77.1937 80.6282C77.1937 80.6282 75.4296 80.9086 73.4644 79.7797C73.4644 79.7797 74.4646 81.8733 77.249 81.4036L77.1937 80.6282Z" fill="#F68260"/>
<path d="M78.0875 72.4814C78.1088 72.7065 77.948 72.912 77.7277 72.9402C77.5079 72.9687 77.3122 72.8095 77.2905 72.5844C77.2688 72.3589 77.4296 72.1534 77.6495 72.1248C77.8693 72.0966 78.0658 72.2559 78.0875 72.4814Z" fill="#17282F"/>
<path d="M78.4791 71.4183C78.4332 71.4778 78.1142 71.2595 77.683 71.2917C77.2517 71.3172 76.9498 71.5767 76.8996 71.5236C76.8749 71.5005 76.9192 71.3961 77.0506 71.279C77.1794 71.1624 77.4044 71.0426 77.6732 71.0245C77.942 71.0068 78.1746 71.0962 78.3111 71.1951C78.451 71.294 78.5021 71.392 78.4791 71.4183Z" fill="#17282F"/>
<path d="M74.0118 72.7923C74.0335 73.0174 73.8723 73.2229 73.652 73.2511C73.4326 73.2797 73.2365 73.1204 73.2148 72.8953C73.1932 72.6698 73.3543 72.4643 73.5738 72.4357C73.7941 72.4076 73.9901 72.5668 74.0118 72.7923Z" fill="#17282F"/>
<path d="M74.2437 71.8072C74.1978 71.8667 73.8789 71.6484 73.4476 71.6806C73.0164 71.7056 72.7144 71.9651 72.6642 71.912C72.6396 71.8889 72.6838 71.7845 72.8152 71.6675C72.9441 71.5513 73.1691 71.4311 73.4378 71.4129C73.7066 71.3957 73.9392 71.4846 74.0762 71.5835C74.2153 71.6829 74.2667 71.7805 74.2437 71.8072Z" fill="#17282F"/>
<path d="M76.0239 75.1092C76.0201 75.0829 76.285 75.0143 76.7159 74.9241C76.8251 74.9041 76.9281 74.8732 76.9417 74.7916C76.9621 74.7049 76.9081 74.5815 76.8464 74.4485C76.7248 74.1717 76.5976 73.8813 76.4645 73.5769C75.9321 72.3349 75.5387 71.3104 75.5859 71.2881C75.6331 71.2655 76.1026 72.2542 76.635 73.4961C76.7635 73.8024 76.8864 74.0946 77.0033 74.3741C77.0535 74.5048 77.1348 74.6509 77.0893 74.831C77.0654 74.9213 76.9885 74.9908 76.9191 75.0162C76.8498 75.0443 76.7882 75.0497 76.7337 75.057C76.2982 75.1133 76.0269 75.1351 76.0239 75.1092Z" fill="#17282F"/>
<path d="M74.2425 69.9953C74.2076 70.1233 73.7734 70.0947 73.2711 70.1963C72.7672 70.2866 72.3691 70.4736 72.2947 70.3665C72.2615 70.3148 72.3253 70.1918 72.4826 70.0589C72.6387 69.9264 72.8926 69.7925 73.1941 69.7349C73.4957 69.6777 73.7772 69.7095 73.9665 69.7762C74.157 69.8429 74.2569 69.9345 74.2425 69.9953Z" fill="#17282F"/>
<path d="M78.2372 70.0979C78.1678 70.2077 77.8637 70.1206 77.5061 70.1405C77.148 70.1478 76.8503 70.2581 76.7742 70.1537C76.7401 70.1029 76.781 69.9949 76.9073 69.8864C77.0315 69.7784 77.2441 69.6822 77.4903 69.6727C77.7362 69.6636 77.9552 69.743 78.0862 69.8411C78.2193 69.9395 78.2673 70.0443 78.2372 70.0979Z" fill="#17282F"/>
<path d="M69.7748 73.708C69.7254 73.6889 67.8074 73.237 67.9971 75.2802C68.1868 77.3235 70.2626 76.6574 70.2604 76.5984C70.2579 76.5399 69.7748 73.708 69.7748 73.708Z" fill="#F8A58D"/>
<path d="M69.4115 75.9273C69.4026 75.9218 69.3805 75.9559 69.3265 75.9894C69.2742 76.0221 69.1815 76.0507 69.0777 76.0212C68.868 75.9631 68.666 75.6387 68.6222 75.2716C68.6001 75.086 68.6205 74.905 68.6686 74.752C68.7132 74.5964 68.794 74.4821 68.894 74.4521C68.9931 74.4163 69.0713 74.4739 69.1002 74.5288C69.1309 74.5833 69.1223 74.6255 69.133 74.6277C69.1389 74.6323 69.1713 74.5892 69.1479 74.5066C69.136 74.4671 69.1092 74.4213 69.0603 74.3863C69.0109 74.3514 68.9412 74.3382 68.871 74.3541C68.7243 74.3804 68.6052 74.5392 68.552 74.7076C68.4912 74.8773 68.4644 75.081 68.4891 75.2893C68.5397 75.6995 68.7732 76.0643 69.0581 76.1206C69.1959 76.1437 69.3044 76.0883 69.358 76.0339C69.4128 75.9772 69.4183 75.9305 69.4115 75.9273Z" fill="#F68260"/>
<path d="M78.849 67.114C78.7176 67.9272 77.1713 68.6722 75.8895 68.6327C74.7076 68.596 74.1237 67.9703 73.2651 67.5256C72.7215 67.2443 72.7215 67.2443 71.9837 67.3718C71.3874 67.4752 71.0782 68.2262 70.7435 68.7625C71.381 70.2463 71.1233 71.9715 70.8528 73.5777C70.8231 73.7552 70.7861 73.9471 70.6589 74.066C70.4437 74.2688 70.095 74.1472 69.8832 73.9403C69.5442 73.6095 69.3894 73.1181 69.2784 72.6425C69.0254 71.5585 68.928 70.4237 69.0888 69.3197C69.2495 68.2157 69.6778 67.1435 70.3846 66.3195C71.2679 65.29 72.5595 64.696 73.866 64.6243C75.1729 64.5531 76.4849 64.9841 77.5796 65.7491C78.0874 66.104 78.562 66.5428 78.849 67.114Z" fill="#17282F"/>
<path d="M76.3057 76.1438C75.98 75.9822 75.6551 75.8202 75.3297 75.6582C75.2731 75.6306 75.2132 75.602 75.1519 75.6106C75.083 75.6206 75.0273 75.6755 74.9831 75.7331C74.7569 76.0258 74.6994 76.4673 74.8747 76.7972C75.0499 77.1275 75.4624 77.3017 75.7911 77.1565C76.1369 77.0036 76.3053 76.5748 76.3321 76.1764L76.3057 76.1438Z" fill="#F68260"/>
<path d="M75.8214 77.23C75.8367 77.2504 75.6177 77.3974 75.2494 77.2849C75.0716 77.2282 74.8687 77.0821 74.7433 76.8461C74.6153 76.6165 74.5681 76.2876 74.6786 75.9922C74.7318 75.8456 74.8143 75.7163 74.9151 75.6137C74.9666 75.562 75.0184 75.5203 75.0814 75.4813C75.1431 75.4322 75.2753 75.425 75.3383 75.4649C75.5615 75.5974 75.7121 75.7104 75.8618 75.8129C76.148 76.0153 76.3168 76.1546 76.3015 76.1827C76.2862 76.2109 76.0889 76.1229 75.7831 75.9572C75.6049 75.8583 75.4327 75.7621 75.2621 75.6668C75.2213 75.6555 75.2256 75.655 75.1864 75.6768C75.1477 75.7031 75.1027 75.7403 75.0661 75.7803C74.99 75.861 74.9266 75.9631 74.8858 76.0766C74.8007 76.3048 74.8296 76.5512 74.9223 76.7418C75.0138 76.9342 75.1613 77.0612 75.3042 77.1284C75.5973 77.2627 75.8159 77.1924 75.8214 77.23Z" fill="#17282F"/>
<path d="M75.5137 72.5324C75.4925 72.5333 75.4946 72.3423 75.4095 72.0224C75.3249 71.7088 75.1203 71.2519 74.6763 70.9025C74.2468 70.5522 73.5447 70.3589 72.8672 70.6307C72.1957 70.8794 71.6168 71.6426 71.6245 72.5319C71.6168 73.4217 72.1952 74.1849 72.8672 74.4341C73.5447 74.7059 74.2472 74.5126 74.6763 74.1618C75.1203 73.8129 75.3249 73.3559 75.4095 73.0419C75.4946 72.722 75.4925 72.5315 75.5137 72.5324C75.5214 72.5324 75.5269 72.5791 75.5295 72.6699C75.5341 72.7602 75.5261 72.8949 75.4929 73.0646C75.4308 73.3986 75.239 73.8991 74.7716 74.2948C74.3204 74.6909 73.5527 74.9277 72.7979 74.6392C72.0489 74.3755 71.394 73.5275 71.4029 72.5319C71.394 71.5368 72.0489 70.6888 72.7979 70.4256C73.5527 70.137 74.32 70.3734 74.7712 70.7696C75.2386 71.1652 75.4308 71.6662 75.4929 72.0001C75.5261 72.1694 75.5341 72.3046 75.5295 72.3949C75.5269 72.4852 75.5214 72.5324 75.5137 72.5324Z" fill="#17282F"/>
<path d="M80.2901 72.3327C80.2689 72.3331 80.271 72.1471 80.1876 71.8358C80.1051 71.5304 79.9057 71.0857 79.4732 70.7459C79.0551 70.4051 78.3713 70.2177 77.7125 70.4818C77.0588 70.7246 76.4957 71.4664 76.503 72.3322C76.4957 73.198 77.0588 73.9403 77.7125 74.1831C78.3717 74.4476 79.0551 74.2597 79.4732 73.919C79.9057 73.5791 80.1051 73.1344 80.1876 72.8291C80.271 72.5173 80.2689 72.3318 80.2901 72.3327C80.2978 72.3327 80.3033 72.378 80.3063 72.4665C80.311 72.5545 80.3033 72.6861 80.271 72.8513C80.211 73.1771 80.0239 73.6653 79.5684 74.0519C79.1283 74.4385 78.3798 74.6695 77.6427 74.3877C76.9121 74.1313 76.2729 73.3032 76.2818 72.3322C76.2733 71.3612 76.9125 70.5335 77.6427 70.2772C78.3798 69.9954 79.1283 70.2263 79.568 70.6129C80.0239 70.9995 80.211 71.4878 80.271 71.8136C80.3033 71.9787 80.311 72.1103 80.3063 72.1983C80.3033 72.2868 80.2978 72.3327 80.2901 72.3327Z" fill="#17282F"/>
<path d="M76.3921 71.8617C76.3487 71.9053 76.1591 71.7746 75.9035 71.7832C75.6474 71.7832 75.4637 71.922 75.4182 71.8808C75.3595 71.8481 75.5382 71.5536 75.8996 71.5473C76.2607 71.5414 76.4487 71.8263 76.3921 71.8617Z" fill="#17282F"/>
<path d="M71.6341 72.2292C71.6706 72.2818 71.2994 72.6439 70.8047 73.0377C70.3097 73.4316 69.8789 73.7088 69.8423 73.6567C69.8058 73.604 70.177 73.2424 70.6721 72.8481C71.1667 72.4542 71.5975 72.177 71.6341 72.2292Z" fill="#17282F"/>
<path d="M111.108 72.4297C111.108 72.4946 106.187 72.5477 100.12 72.5477C94.0502 72.5477 89.1313 72.4946 89.1313 72.4297C89.1313 72.3644 94.0502 72.3118 100.12 72.3118C106.187 72.3118 111.108 72.3644 111.108 72.4297Z" fill="#17282F"/>
<path d="M100.944 74.8836C100.944 74.9485 98.3318 75.0016 95.1098 75.0016C91.8866 75.0016 89.2749 74.9485 89.2749 74.8836C89.2749 74.8183 91.8866 74.7652 95.1098 74.7652C98.3318 74.7652 100.944 74.8183 100.944 74.8836Z" fill="#17282F"/>
<path d="M176.945 90.5594C176.945 90.5594 182.786 93.5959 184.837 101.436C186.889 109.277 193.17 129.695 193.17 129.695C193.17 129.695 196.76 134.2 197.145 137.538C197.529 140.874 196.76 148.945 195.606 150.449C194.453 151.954 192.807 151.705 192.807 151.705L177.697 150.176L171.748 107.67L176.945 90.5594Z" fill="#FE0847"/>
<path d="M126.979 89.8166C126.979 89.8166 116.175 93.4321 113.483 96.5779L122.329 140.487L122.188 154.341H173.408C173.408 153.656 173.868 108.342 173.868 108.342L176.945 90.5594L158.74 87.1394L155.15 84.1301L134.894 85.2246L131.817 88.5075L126.979 89.8166Z" fill="#FE0847"/>
<path d="M122.225 149.087L122.26 147.245L122.242 149.072C122.236 149.077 122.231 149.082 122.225 149.087Z" fill="#A7A9A8"/>
<path d="M122.242 149.072L122.26 147.245L122.356 142.345C125.22 137.977 127.42 133.354 129.085 128.328C129.278 127.744 129.644 127.037 130.183 127.037C130.229 127.037 130.276 127.042 130.324 127.052C130.699 127.135 130.925 127.537 131.083 127.91C132.69 131.704 131.962 136.265 130.058 139.899C128.159 143.527 125.222 146.395 122.242 149.072Z" fill="#CC4341"/>
<path d="M113.483 96.578C113.483 96.578 109.923 101.756 108.445 105.135C106.967 108.515 94.7186 136.905 93.9795 139.834C93.2407 142.763 91.3397 152.001 96.936 154.141H108.445L119.997 129.219L120.588 100.291L113.483 96.578Z" fill="#FE0847"/>
<path d="M109.182 136.138C109.167 136.157 108.926 135.896 108.396 135.574C107.867 135.255 107.045 134.889 105.98 134.641C105.448 134.517 104.857 134.42 104.219 134.377C103.581 134.334 102.896 134.347 102.201 134.517C100.804 134.849 99.417 135.79 98.3258 137.112C97.2175 138.433 96.534 139.993 96.1317 141.464C95.7239 142.939 95.5495 144.322 95.4398 145.482C95.3317 146.643 95.2918 147.588 95.2539 148.241C95.2361 148.546 95.2212 148.795 95.2097 148.993C95.1974 149.165 95.1872 149.255 95.1795 149.255C95.1718 149.255 95.1672 149.164 95.165 148.992C95.1659 148.794 95.1667 148.545 95.168 148.238C95.1791 147.583 95.1957 146.636 95.2837 145.466C95.3743 144.299 95.5333 142.903 95.9361 141.403C96.332 139.909 97.0261 138.306 98.1599 136.956C99.2763 135.603 100.709 134.637 102.156 134.305C102.878 134.134 103.586 134.13 104.231 134.181C104.88 134.234 105.478 134.342 106.015 134.478C107.09 134.75 107.916 135.147 108.439 135.495C108.701 135.672 108.891 135.83 109.01 135.947C109.128 136.067 109.188 136.132 109.182 136.138Z" fill="#17282F"/>
<path d="M103.725 131.176C103.723 131.159 103.861 131.136 104.112 131.109C104.362 131.076 104.728 131.069 105.179 131.094C105.631 131.114 106.166 131.197 106.749 131.341C107.329 131.496 107.956 131.721 108.582 132.035C109.205 132.356 109.763 132.735 110.241 133.118C110.713 133.511 111.11 133.903 111.41 134.264C111.711 134.622 111.936 134.931 112.07 135.159C112.208 135.385 112.278 135.513 112.265 135.521C112.231 135.547 111.919 135.055 111.296 134.379C110.987 134.039 110.587 133.667 110.119 133.292C109.643 132.927 109.096 132.562 108.487 132.248C107.875 131.941 107.265 131.716 106.699 131.552C106.131 131.4 105.609 131.302 105.167 131.26C104.282 131.169 103.728 131.22 103.725 131.176Z" fill="#17282F"/>
<path d="M114.13 129.809C114.127 129.826 113.938 129.809 113.598 129.766C113.258 129.72 112.765 129.667 112.156 129.619C110.938 129.52 109.245 129.497 107.395 129.73C105.544 129.969 103.904 130.418 102.742 130.82C102.161 131.02 101.694 131.196 101.374 131.326C101.054 131.454 100.873 131.517 100.866 131.502C100.86 131.488 101.029 131.396 101.341 131.241C101.652 131.084 102.113 130.884 102.692 130.662C103.848 130.216 105.5 129.736 107.369 129.496C109.237 129.26 110.948 129.31 112.17 129.452C112.782 129.522 113.274 129.601 113.61 129.676C113.948 129.747 114.133 129.794 114.13 129.809Z" fill="#17282F"/>
<path d="M146.911 105.554C146.907 105.558 146.867 105.507 146.795 105.407C146.712 105.289 146.609 105.141 146.48 104.958C146.198 104.541 145.809 103.966 145.323 103.248C144.33 101.752 142.944 99.6663 141.315 97.2133L141.493 97.186C140.873 99.129 140.189 101.273 139.469 103.529L139.423 103.672L139.307 103.592C139.232 103.54 139.15 103.485 139.068 103.428C138.116 102.784 137.275 102.009 136.562 101.17C135.852 100.328 135.263 99.428 134.773 98.531C133.794 96.7309 133.205 94.9558 132.804 93.4517C132.406 91.9434 132.197 90.6947 132.058 89.8343C131.992 89.4223 131.938 89.0929 131.897 88.8447C131.878 88.7317 131.856 88.6487 131.843 88.5915C131.824 88.5393 131.813 88.5103 131.816 88.5076C131.863 88.4863 131.988 88.9618 132.143 89.8176C132.308 90.672 132.539 91.9116 132.954 93.4054C133.372 94.8941 133.973 96.6488 134.949 98.4212C135.438 99.3042 136.022 100.188 136.723 101.015C137.427 101.838 138.252 102.597 139.187 103.229C139.267 103.284 139.347 103.339 139.421 103.39L139.259 103.452C139.986 101.199 140.676 99.0573 141.302 97.1162L141.367 96.9138L141.481 97.0889C143.083 99.5619 144.447 101.665 145.423 103.173C145.89 103.906 146.263 104.493 146.533 104.918C146.651 105.109 146.746 105.264 146.822 105.386C146.886 105.494 146.916 105.551 146.911 105.554Z" fill="#17282F"/>
<path d="M173.433 151.718C173.445 150.4 173.463 148.647 173.483 146.601C173.489 148.361 173.483 150.092 173.433 151.718Z" fill="#A7A9A8"/>
<path d="M173.433 151.72C169.081 149.604 165.59 145.663 163.206 141.24C160.823 136.818 159.772 131.591 160.247 126.515L173.511 137.399C173.421 140.279 173.472 143.486 173.483 146.602C173.463 148.647 173.445 150.4 173.433 151.718C173.433 151.719 173.433 151.719 173.433 151.72Z" fill="#CC4341"/>
<path d="M159.765 120.582C159.765 120.582 157.904 121.134 159.3 125.2C160.695 129.267 161.161 129.021 162.091 132.826C163.021 136.631 164.106 140.102 165.734 142.253C167.362 144.403 173.408 148.787 173.408 148.787L178.835 143.328C178.835 143.328 177.941 139.26 178.155 136.497C178.37 133.733 178.913 126.952 178.835 125.794C178.757 124.635 177.595 121.823 177.595 121.823V119.9L174.804 110.74C174.804 110.74 173.254 109.996 172.711 112.642L171.78 109.833C171.78 109.833 170.308 109.582 169.92 112.808C169.533 116.034 170.23 120.5 170.23 120.5L169.455 126.124L168.292 129.929L167.285 130.094C167.285 130.094 165.768 129.652 164.937 126.606C164.106 123.56 161.858 119.921 159.765 120.582Z" fill="#F8A58D"/>
<path d="M177.018 134.969C177.012 134.969 177.004 134.898 176.993 134.761C176.983 134.603 176.97 134.403 176.954 134.154C176.926 133.599 176.887 132.833 176.839 131.877C176.756 129.902 176.639 127.153 176.504 123.945L176.528 124.012C176.279 123.694 175.834 123.599 175.43 123.706C175.019 123.812 174.652 124.085 174.424 124.493C173.95 125.307 173.924 126.368 173.776 127.391C173.482 129.709 173.201 131.916 172.946 133.928C172.817 134.933 172.68 135.89 172.497 136.774C172.319 137.66 172.068 138.467 171.824 139.187C171.584 139.909 171.372 140.563 171.241 141.151C171.108 141.738 171.055 142.258 171.066 142.683C171.082 143.537 171.314 143.97 171.28 143.98C171.273 143.983 171.228 143.875 171.15 143.663C171.086 143.447 170.996 143.12 170.979 142.686C170.956 142.253 170.997 141.721 171.12 141.121C171.242 140.521 171.446 139.858 171.676 139.132C171.911 138.407 172.148 137.612 172.318 136.733C172.492 135.855 172.621 134.904 172.744 133.899C172.994 131.887 173.268 129.678 173.557 127.359C173.625 126.842 173.677 126.332 173.762 125.823C173.847 125.317 173.979 124.808 174.24 124.369C174.488 123.923 174.922 123.595 175.381 123.485C175.834 123.363 176.377 123.469 176.687 123.869L176.71 123.899L176.711 123.936C176.815 127.146 176.903 129.895 176.967 131.871C176.99 132.828 177.009 133.596 177.022 134.152C177.024 134.4 177.026 134.601 177.028 134.759C177.027 134.897 177.024 134.969 177.018 134.969Z" fill="#F68260"/>
<path d="M174.051 124.546C174.038 124.552 173.952 124.37 173.822 124.029C173.695 123.687 173.526 123.184 173.368 122.546C173.21 121.909 173.063 121.136 172.979 120.267C172.937 119.833 172.908 119.37 172.955 118.886C173.002 118.407 173.135 117.898 173.423 117.468C173.668 117.095 174.018 116.798 174.416 116.673L174.499 116.647L174.541 116.727C175.327 118.207 176.01 119.512 176.49 120.451C176.71 120.891 176.895 121.262 177.046 121.562C177.172 121.824 177.236 121.971 177.224 121.979C177.212 121.985 177.126 121.852 176.978 121.603C176.813 121.312 176.608 120.954 176.366 120.527C175.852 119.608 175.145 118.317 174.352 116.843L174.477 116.896C174.135 117.005 173.827 117.266 173.604 117.604C173.343 117.993 173.218 118.457 173.171 118.912C173.122 119.368 173.146 119.818 173.181 120.246C173.254 121.105 173.383 121.87 173.52 122.506C173.656 123.142 173.802 123.648 173.904 123.998C174.007 124.347 174.066 124.54 174.051 124.546Z" fill="#F68260"/>
<path d="M172.754 125.291C172.739 125.291 172.722 125.103 172.704 124.763C172.689 124.373 172.671 123.892 172.649 123.324C172.612 122.108 172.577 120.429 172.552 118.573C172.539 116.719 172.471 115.033 172.621 113.812C172.694 113.204 172.807 112.719 172.911 112.396C173.015 112.071 173.1 111.903 173.11 111.908C173.149 111.922 172.874 112.624 172.777 113.83C172.669 115.032 172.76 116.713 172.773 118.57C172.799 120.425 172.809 122.105 172.805 123.322C172.8 123.891 172.794 124.372 172.79 124.762C172.781 125.102 172.769 125.291 172.754 125.291Z" fill="#F68260"/>
<path d="M168.166 140.542C168.134 140.514 168.474 140.088 168.894 139.315C169.106 138.93 169.322 138.45 169.525 137.902C169.718 137.351 169.892 136.729 170.009 136.061C170.118 135.392 170.159 134.744 170.159 134.155C170.149 133.567 170.104 133.036 170.03 132.596C169.891 131.716 169.712 131.189 169.751 131.175C169.765 131.17 169.819 131.297 169.905 131.533C169.996 131.768 170.093 132.122 170.184 132.566C170.278 133.009 170.341 133.549 170.363 134.151C170.375 134.753 170.339 135.417 170.227 136.103C170.107 136.787 169.923 137.423 169.715 137.982C169.497 138.538 169.261 139.021 169.028 139.401C168.797 139.783 168.589 140.077 168.428 140.264C168.269 140.454 168.178 140.552 168.166 140.542Z" fill="#F68260"/>
<path d="M177.692 137.697L182.401 139.44C182.401 139.44 186.897 136.959 189.998 139.44C193.098 141.922 195.792 148.461 194.939 151.108C194.939 151.108 192.799 153.927 191.171 154.341C189.544 154.754 183.215 153.119 180.582 152.527C177.942 151.934 173.408 148.787 173.408 148.787L177.692 137.697Z" fill="#F8A58D"/>
<path d="M178.27 145.099C178.255 145.099 178.238 144.941 178.22 144.654C178.201 144.314 178.179 143.91 178.153 143.44C178.103 142.415 178.038 140.998 178.018 139.429C177.996 137.86 178.038 136.437 178.127 135.411C178.169 134.898 178.222 134.485 178.27 134.201C178.318 133.918 178.352 133.762 178.367 133.765C178.402 133.771 178.329 134.4 178.283 135.423C178.235 136.446 178.218 137.861 178.241 139.426C178.267 140.96 178.291 142.346 178.31 143.435C178.315 143.949 178.314 144.365 178.306 144.652C178.297 144.94 178.286 145.099 178.27 145.099Z" fill="#F68260"/>
<path d="M193.799 139.243C193.763 139.279 193.281 138.564 192.232 137.737C191.201 136.912 189.525 136.033 187.54 135.914C185.554 135.799 183.797 136.477 182.687 137.176C181.559 137.874 181.007 138.528 180.975 138.489C180.966 138.48 181.096 138.313 181.363 138.041C181.629 137.769 182.045 137.405 182.606 137.032C183.716 136.284 185.51 135.559 187.552 135.678C189.593 135.8 191.302 136.73 192.327 137.603C192.847 138.04 193.223 138.45 193.459 138.752C193.696 139.054 193.808 139.235 193.799 139.243Z" fill="#17282F"/>
<path d="M193.193 135.054C193.163 135.103 192.534 134.425 191.234 133.901C189.955 133.366 187.97 133.12 185.932 133.732C184.916 134.035 183.986 134.468 183.191 134.949C182.396 135.435 181.732 135.965 181.205 136.446C180.676 136.927 180.272 137.347 179.995 137.639C179.718 137.933 179.564 138.094 179.552 138.083C179.541 138.072 179.674 137.89 179.933 137.576C180.192 137.263 180.581 136.823 181.102 136.32C181.622 135.818 182.285 135.265 183.089 134.761C183.893 134.26 184.836 133.813 185.873 133.504C187.96 132.876 189.998 133.158 191.291 133.746C191.944 134.032 192.431 134.361 192.74 134.619C192.9 134.741 193.007 134.859 193.085 134.931C193.161 135.006 193.198 135.048 193.193 135.054Z" fill="#17282F"/>
<path d="M193.232 131.423C193.22 131.47 192.397 131.202 191.029 131.004C190.346 130.9 189.526 130.843 188.615 130.841C187.705 130.855 186.705 130.935 185.668 131.123C184.634 131.324 183.668 131.613 182.808 131.931C181.952 132.265 181.2 132.618 180.591 132.964C179.369 133.647 178.681 134.199 178.655 134.16C178.646 134.147 178.814 134.005 179.127 133.758C179.282 133.632 179.475 133.484 179.712 133.331C179.946 133.176 180.207 132.986 180.517 132.816C181.122 132.448 181.876 132.075 182.738 131.727C183.605 131.393 184.582 131.094 185.631 130.891C186.68 130.7 187.694 130.625 188.615 130.623C189.537 130.637 190.365 130.713 191.052 130.839C191.397 130.885 191.703 130.969 191.974 131.029C192.245 131.087 192.474 131.155 192.66 131.217C193.033 131.335 193.236 131.408 193.232 131.423Z" fill="#17282F"/>
<path d="M157.153 86.9902C157.153 86.9902 157.371 87.4249 157.479 88.3261C157.595 89.2214 157.579 90.5622 157.3 92.2234C157.16 93.0537 156.972 93.9658 156.692 94.94C156.399 95.9151 155.956 96.9124 155.455 97.9579C154.441 100.045 153.165 102.32 151.686 104.747L151.514 105.031L151.513 104.691C151.511 103.088 151.508 101.405 151.506 99.6563L151.671 99.7411C150.405 100.831 149.072 101.979 147.7 103.162L147.734 103.108C146.814 106.22 146.208 109.686 145.968 113.294C145.579 118.816 145.893 124.098 146.137 128.889C146.346 133.687 146.483 138.008 146.623 141.636C146.758 145.265 146.881 148.2 146.983 150.227C147.039 151.232 147.082 152.016 147.113 152.561C147.128 152.819 147.141 153.021 147.151 153.168C147.158 153.305 147.156 153.375 147.156 153.375C147.156 153.375 147.142 153.306 147.128 153.17C147.114 153.023 147.094 152.822 147.068 152.565C147.021 152.032 146.96 151.246 146.897 150.233C146.768 148.206 146.622 145.271 146.467 141.644C146.314 138.013 146.134 133.694 145.933 128.901C145.678 124.113 145.357 118.82 145.747 113.276C145.988 109.653 146.599 106.169 147.531 103.038L147.541 103.005L147.566 102.984C148.941 101.805 150.276 100.66 151.544 99.5723L151.71 99.4299L151.709 99.6563C151.707 101.405 151.705 103.088 151.702 104.691L151.529 104.636C154.45 99.8015 156.827 95.6011 157.192 92.2025C157.485 90.5531 157.518 89.2236 157.422 88.3334C157.381 87.8864 157.299 87.5529 157.247 87.3278C157.18 87.1073 157.153 86.9902 157.153 86.9902Z" fill="#17282F"/>
<path d="M149.526 145.522L149.373 145.517C148.758 145.535 148.21 146.135 148.208 146.792C148.206 147.448 148.751 148.053 149.366 148.075C149.981 148.098 150.564 147.536 150.605 146.881C150.646 146.225 150.138 145.586 149.526 145.522Z" fill="white"/>
<path d="M149.526 128.033L149.373 128.028C148.758 128.047 148.21 128.647 148.208 129.303C148.206 129.96 148.751 130.564 149.366 130.587C149.981 130.61 150.564 130.048 150.605 129.393C150.646 128.737 150.138 128.098 149.526 128.033Z" fill="white"/>
<path d="M149.366 112.388C149.981 112.411 150.564 111.849 150.605 111.193C150.646 110.538 150.138 109.899 149.526 109.834L149.373 109.829C148.758 109.848 148.21 110.448 148.208 111.105C148.206 111.761 148.751 112.365 149.366 112.388Z" fill="white"/>
<path d="M131.005 66.4983C129.514 64.7373 128.009 62.9568 126.923 60.8858C125.836 58.8154 125.188 56.3987 125.547 54.0564C125.758 52.687 126.304 51.3824 126.39 49.9976C126.509 48.0918 125.759 46.1008 126.392 44.3144C127.382 41.5229 130.904 41.0913 133.039 39.1629C134.702 37.661 135.512 35.2225 137.341 33.9597C138.939 32.8566 140.992 32.8807 142.877 33.1647C144.762 33.4497 146.658 33.957 148.545 33.6861C149.889 33.4933 151.156 32.9129 152.473 32.5649C153.79 32.2169 155.26 32.1252 156.433 32.8526C157.607 33.5799 158.265 35.3568 157.496 36.5497C159.682 35.4739 162.459 37.2921 163.057 39.78C163.655 42.2679 162.458 44.9555 160.605 46.5963C158.753 48.237 156.358 48.9998 153.992 49.4758C147.294 50.8225 140.029 50.0625 134.258 46.1952" fill="#17282F"/>
<path d="M154.55 90.5222C154.223 87.8174 153.955 85.5604 153.939 85.2804C153.939 85.2804 162.411 83.249 161.944 74.1086C161.719 69.6913 160.56 60.634 159.423 52.4528C158.201 43.6664 150.851 37.3597 142.544 37.9523L141.719 38.0112C132.848 39.2019 128.839 47.9053 130.2 57.3338L134.987 88.9467C134.987 88.9467 137.029 95.9404 141.398 97.151L146.912 105.554L147.823 101.937L151.933 98.1198C151.933 98.1198 152.875 97.0308 153.959 94.9013C154.844 93.1612 154.658 91.3711 154.55 90.5222Z" fill="#F8A58D"/>
<path d="M153.945 85.1475C153.945 85.1475 148.565 86.0028 142.573 82.5602C142.573 82.5602 145.623 88.9445 154.113 87.5125L153.945 85.1475Z" fill="#F68260"/>
<path d="M156.669 60.3068C156.735 60.9938 156.244 61.62 155.573 61.7066C154.903 61.7928 154.305 61.3078 154.239 60.6208C154.174 59.9334 154.664 59.3067 155.334 59.2201C156.005 59.133 156.603 59.6194 156.669 60.3068Z" fill="#17282F"/>
<path d="M157.865 57.0666C157.723 57.2468 156.752 56.582 155.437 56.6796C154.122 56.7567 153.202 57.5481 153.048 57.3865C152.973 57.3148 153.108 56.9972 153.508 56.6406C153.901 56.2862 154.587 55.9195 155.407 55.8646C156.227 55.8106 156.936 56.0833 157.353 56.3846C157.778 56.6868 157.935 56.9845 157.865 57.0666Z" fill="#17282F"/>
<path d="M144.243 61.2547C144.309 61.9422 143.818 62.5684 143.147 62.655C142.477 62.7417 141.879 62.2562 141.813 61.5687C141.748 60.8822 142.238 60.2551 142.909 60.168C143.579 60.0813 144.177 60.5682 144.243 61.2547Z" fill="#17282F"/>
<path d="M144.951 58.2509C144.81 58.4315 143.837 57.7668 142.522 57.8643C141.208 57.9419 140.288 58.7324 140.134 58.5708C140.059 58.4996 140.193 58.1819 140.595 57.8253C140.988 57.4705 141.674 57.1043 142.493 57.0489C143.313 56.9958 144.022 57.2681 144.439 57.5694C144.863 57.8716 145.021 58.1697 144.951 58.2509Z" fill="#17282F"/>
<path d="M150.377 68.3183C150.366 68.2393 151.174 68.0302 152.488 67.7547C152.821 67.6939 153.135 67.5996 153.176 67.3514C153.24 67.0868 153.075 66.7102 152.886 66.305C152.515 65.4606 152.128 64.5748 151.721 63.6465C150.098 59.8599 148.899 56.7363 149.042 56.6678C149.186 56.5997 150.618 59.6135 152.241 63.4005C152.633 64.3348 153.009 65.2255 153.365 66.0777C153.518 66.4761 153.765 66.9226 153.627 67.472C153.554 67.7461 153.319 67.958 153.108 68.0352C152.897 68.1209 152.708 68.1382 152.543 68.1608C151.214 68.3324 150.388 68.3977 150.377 68.3183Z" fill="#17282F"/>
<path d="M144.946 52.7265C144.84 53.1172 143.515 53.0301 141.984 53.3391C140.447 53.6145 139.233 54.1853 139.007 53.8582C138.906 53.7007 139.1 53.3259 139.58 52.9207C140.056 52.5164 140.83 52.109 141.749 51.9329C142.669 51.7587 143.527 51.8553 144.104 52.0591C144.686 52.2619 144.99 52.5414 144.946 52.7265Z" fill="#17282F"/>
<path d="M157.126 53.0391C156.915 53.374 155.988 53.1081 154.897 53.1703C153.805 53.1916 152.898 53.5283 152.665 53.2098C152.562 53.0546 152.687 52.7247 153.071 52.3944C153.45 52.0654 154.099 51.7723 154.85 51.7428C155.599 51.7151 156.267 51.9574 156.666 52.2569C157.071 52.5568 157.218 52.8762 157.126 53.0391Z" fill="#17282F"/>
<path d="M131.323 64.0462C131.173 63.989 125.326 62.6101 125.904 68.8406C126.482 75.0706 132.811 73.04 132.804 72.8604C132.798 72.6807 131.323 64.0462 131.323 64.0462Z" fill="#F8A58D"/>
<path d="M130.216 70.8144C130.188 70.7971 130.121 70.9011 129.957 71.0036C129.797 71.103 129.514 71.1901 129.198 71.1007C128.559 70.9242 127.943 69.9341 127.81 68.8143C127.742 68.2489 127.804 67.6971 127.951 67.2297C128.086 66.7556 128.333 66.4076 128.638 66.3159C128.94 66.2075 129.178 66.3821 129.266 66.55C129.361 66.7161 129.335 66.8441 129.367 66.8518C129.385 66.8658 129.483 66.7343 129.412 66.482C129.376 66.3608 129.294 66.2211 129.146 66.1158C128.994 66.0092 128.782 65.9688 128.569 66.0164C128.121 66.0972 127.757 66.5822 127.596 67.095C127.41 67.6123 127.328 68.2335 127.404 68.8687C127.558 70.1202 128.27 71.2314 129.138 71.4025C129.559 71.4732 129.89 71.3049 130.053 71.1393C130.22 70.9664 130.237 70.8235 130.216 70.8144Z" fill="#F68260"/>
<path d="M158.992 43.9404C158.591 46.4206 153.877 48.6926 149.968 48.5714C146.364 48.4594 144.584 46.5513 141.966 45.1955C140.309 44.3379 140.309 44.3379 138.06 44.7277C136.242 45.0431 135.298 47.3318 134.277 48.968C136.222 53.4915 135.436 58.7514 134.611 63.6496C134.52 64.1909 134.407 64.7754 134.02 65.1388C133.364 65.7564 132.3 65.3861 131.654 64.7559C130.62 63.7463 130.15 62.2489 129.811 60.7982C129.039 57.4926 128.743 54.0319 129.232 50.6664C129.722 47.3005 131.028 44.0312 133.183 41.5188C135.877 38.3788 139.814 36.5688 143.798 36.3501C147.783 36.1314 151.784 37.4472 155.121 39.7795C156.67 40.8617 158.117 42.1998 158.992 43.9404Z" fill="#17282F"/>
<path d="M151.238 71.4742C150.246 70.9805 149.254 70.4868 148.261 69.9931C148.09 69.9078 147.907 69.8207 147.72 69.8475C147.509 69.8774 147.34 70.0458 147.205 70.2209C146.515 71.113 146.34 72.4593 146.875 73.4662C147.41 74.4726 148.667 75.0044 149.669 74.5615C150.724 74.0955 151.236 72.7882 151.319 71.5731L151.238 71.4742Z" fill="#F68260"/>
<path d="M149.761 74.7866C149.769 74.8142 149.624 74.9054 149.326 74.9717C149.031 75.032 148.574 75.0561 148.045 74.8714C147.522 74.6922 146.932 74.2579 146.567 73.561C146.196 72.8817 146.062 71.922 146.386 71.0563C146.54 70.6256 146.782 70.2459 147.077 69.9455C147.226 69.7935 147.381 69.6691 147.559 69.5557C147.652 69.5003 147.769 69.4468 147.902 69.4395C148.034 69.4314 148.152 69.4677 148.248 69.5103C148.443 69.6033 148.568 69.7032 148.712 69.7912C148.85 69.8824 148.986 69.9709 149.117 70.0571C149.374 70.2286 149.616 70.3902 149.843 70.5408C150.725 71.1388 151.255 71.5368 151.225 71.5931C151.194 71.6498 150.608 71.3535 149.685 70.8298C149.45 70.6942 149.199 70.5494 148.933 70.3956C148.798 70.3162 148.659 70.2345 148.516 70.1506C148.374 70.0694 148.219 69.9659 148.095 69.9142C147.959 69.8638 147.9 69.8674 147.769 69.9473C147.64 70.0349 147.498 70.1501 147.378 70.2781C147.134 70.5363 146.93 70.8607 146.799 71.2255C146.527 71.956 146.625 72.751 146.925 73.3518C147.222 73.9621 147.702 74.3587 148.155 74.5583C148.612 74.7607 149.026 74.7911 149.308 74.7893C149.591 74.7816 149.752 74.7521 149.761 74.7866Z" fill="#17282F"/>
<path d="M148.822 60.4634C148.788 60.4666 148.827 59.8831 148.59 58.8857C148.355 57.9079 147.744 56.47 146.366 55.3578C145.683 54.8147 144.823 54.3532 143.832 54.1681C142.848 53.9902 141.738 54.0243 140.681 54.4544C140.15 54.6522 139.637 54.9504 139.165 55.327C138.689 55.6963 138.257 56.1546 137.9 56.686C137.163 57.7319 136.748 59.0768 136.736 60.4621C136.748 61.8488 137.163 63.1937 137.9 64.2405C138.256 64.7714 138.689 65.2301 139.165 65.5995C139.636 65.9761 140.149 66.2742 140.681 66.472C141.738 66.9022 142.848 66.9367 143.833 66.7584C144.824 66.5732 145.684 66.1122 146.366 65.5686C147.745 64.456 148.355 63.0181 148.59 62.0407C148.827 61.0433 148.788 60.4603 148.822 60.4634C148.826 60.4634 148.828 60.4988 148.828 60.5687C148.827 60.6531 148.826 60.7548 148.825 60.8795C148.825 61.0166 148.819 61.1854 148.788 61.3832C148.763 61.5815 148.74 61.812 148.674 62.0629C148.574 62.5725 148.359 63.1769 148.013 63.8194C147.665 64.4592 147.158 65.1298 146.462 65.7016C145.767 66.2678 144.886 66.7515 143.866 66.9512C142.854 67.1436 141.707 67.1155 140.611 66.6767C140.061 66.4748 139.529 66.1689 139.04 65.7805C138.545 65.3998 138.096 64.9266 137.725 64.3775C136.959 63.2949 136.526 61.8991 136.515 60.4621C136.526 59.026 136.959 57.6307 137.725 56.5485C138.096 55.9994 138.545 55.5262 139.04 55.1459C139.529 54.758 140.061 54.4517 140.611 54.2498C141.707 53.8114 142.853 53.7829 143.866 53.9757C144.886 54.1749 145.767 54.6586 146.461 55.2249C147.157 55.7962 147.665 56.4668 148.013 57.1066C148.359 57.7491 148.574 58.3535 148.673 58.8631C148.739 59.1144 148.763 59.3449 148.788 59.5432C148.819 59.7411 148.825 59.9103 148.825 60.0469C148.826 60.1717 148.827 60.2733 148.828 60.3577C148.828 60.4276 148.826 60.4634 148.822 60.4634Z" fill="#17282F"/>
<path d="M163.386 59.8526C163.353 59.8558 163.39 59.2873 163.159 58.3158C162.93 57.3633 162.334 55.9626 160.992 54.8795C160.327 54.35 159.489 53.9008 158.523 53.7211C157.564 53.5477 156.483 53.5813 155.455 54.0001C154.937 54.1925 154.437 54.4834 153.978 54.85C153.514 55.2098 153.093 55.6563 152.746 56.1736C152.028 57.1923 151.624 58.5023 151.612 59.8517C151.624 61.2016 152.028 62.5116 152.745 63.5312C153.093 64.0485 153.514 64.4954 153.978 64.8548C154.437 65.2219 154.937 65.5127 155.455 65.7051C156.483 66.1239 157.565 66.1575 158.524 65.9842C159.49 65.804 160.327 65.3548 160.992 64.8257C162.334 63.7422 162.93 62.3415 163.159 61.389C163.39 60.418 163.353 59.8495 163.386 59.8526C163.394 59.8526 163.395 59.9919 163.39 60.2583C163.39 60.3917 163.384 60.5564 163.353 60.7492C163.33 60.9421 163.307 61.1671 163.242 61.4117C163.036 62.3841 162.453 63.8284 161.087 64.9587C160.41 65.5105 159.552 65.9824 158.558 66.177C157.57 66.3649 156.452 66.3372 155.384 65.9098C154.848 65.7128 154.329 65.4143 153.852 65.0363C153.37 64.6651 152.932 64.2037 152.57 63.6682C151.824 62.6133 151.402 61.2525 151.391 59.8517C151.402 58.4514 151.824 57.0911 152.571 56.0361C152.933 55.5011 153.37 55.0397 153.853 54.669C154.329 54.2905 154.848 53.9924 155.384 53.7955C156.452 53.3681 157.57 53.3408 158.557 53.5282C159.552 53.7224 160.41 54.1943 161.087 54.7466C162.453 55.8764 163.036 57.3207 163.242 58.2935C163.307 58.5381 163.33 58.7627 163.353 58.956C163.384 59.1489 163.39 59.3136 163.39 59.447C163.395 59.7133 163.394 59.8526 163.386 59.8526Z" fill="#17282F"/>
<path d="M151.502 58.4174C151.478 58.4437 151.337 58.3171 151.078 58.1864C150.822 58.0557 150.439 57.9278 150.007 57.936C149.576 57.9423 149.197 58.0852 148.945 58.2264C148.692 58.3675 148.557 58.5004 148.532 58.475C148.511 58.4573 148.61 58.2763 148.864 58.0839C149.113 57.8933 149.525 57.7068 150.003 57.6996C150.482 57.6905 150.899 57.8606 151.155 58.0408C151.415 58.2223 151.521 58.3988 151.502 58.4174Z" fill="#17282F"/>
<path d="M136.993 59.5386C137.03 59.5908 135.837 60.6077 134.329 61.8092C132.82 63.0107 131.567 63.9423 131.531 63.8901C131.494 63.8379 132.687 62.8215 134.196 61.6195C135.704 60.4185 136.957 59.4865 136.993 59.5386Z" fill="#17282F"/>
<path d="M139.179 105.927C138.832 105.927 138.483 105.695 138.193 105.461C133.589 101.75 131.394 95.302 131.951 89.1741C131.982 89.3638 132.018 89.5839 132.058 89.8343C132.198 90.6946 132.406 91.9434 132.804 93.4516C133.205 94.9558 133.794 96.7309 134.773 98.5309C135.263 99.428 135.852 100.328 136.562 101.17C137.275 102.009 138.116 102.784 139.068 103.428C139.15 103.485 139.232 103.54 139.307 103.592L139.423 103.672L139.469 103.529C140.164 101.35 140.827 99.276 141.43 97.3861C141.452 97.4192 141.474 97.4528 141.496 97.4859C141.823 100.189 141.369 102.798 140.086 105.168C139.928 105.46 139.737 105.764 139.441 105.879C139.354 105.912 139.267 105.927 139.179 105.927Z" fill="#CC4341"/>
<path d="M139.423 103.672L139.307 103.592C139.232 103.54 139.15 103.485 139.069 103.428C138.116 102.784 137.276 102.009 136.563 101.17C135.852 100.328 135.263 99.4281 134.773 98.531C133.795 96.7309 133.205 94.9559 132.804 93.4517C132.406 91.9434 132.198 90.6947 132.059 89.8344C132.018 89.5839 131.982 89.3638 131.952 89.1742C131.955 89.1401 131.958 89.1052 131.961 89.0712C132.817 95.322 135.331 100.878 139.364 103.491C140.104 101.337 140.733 99.3151 141.467 97.2555C141.477 97.3326 141.487 97.4093 141.496 97.486C141.475 97.4529 141.452 97.4193 141.43 97.3862C140.827 99.276 140.165 101.35 139.469 103.529L139.423 103.672Z" fill="#0F191D"/>
<path d="M151.592 107.879L151.029 101.749L147.943 102.952C149.171 101.895 150.365 100.866 151.506 99.8831C151.509 101.55 151.511 103.157 151.513 104.691L151.514 105.03L151.686 104.747C153.165 102.32 154.441 100.045 155.455 97.9578C155.956 96.9124 156.399 95.915 156.692 94.9399C156.972 93.9657 157.161 93.0537 157.3 92.2233C157.515 90.9442 157.574 89.8556 157.537 89.0135C157.53 88.684 157.511 88.5075 157.511 88.5075C157.511 88.5075 158.291 94.2466 156.774 97.4986C155.257 100.751 151.592 107.879 151.592 107.879Z" fill="#CC4341"/>
<path d="M151.513 105.031L151.513 104.691C151.511 103.157 151.509 101.55 151.506 99.8832C150.365 100.866 149.171 101.895 147.943 102.952L147.632 103.073L151.608 99.6563V104.692L154.38 99.8836C157.362 94.7054 157.566 90.436 157.536 89.0135C157.574 89.8557 157.515 90.9442 157.3 92.2234C157.16 93.0537 156.972 93.9658 156.692 94.94C156.399 95.9151 155.956 96.9124 155.455 97.9579C154.441 100.045 153.164 102.32 151.686 104.747L151.513 105.031Z" fill="#0F191D"/>
<path d="M96.214 140.487L96.1566 140.478C95.9848 138.599 96.9187 136.731 98.2958 135.546C99.6728 134.36 101.437 133.786 103.195 133.568C103.673 133.508 104.157 133.474 104.641 133.474C105.841 133.474 107.037 133.683 108.116 134.227C109.631 134.99 110.8 136.035 111.003 137.809C110.453 137.182 109.841 136.62 109.183 136.137C109.186 136.131 109.128 136.066 109.01 135.947C108.891 135.83 108.701 135.671 108.44 135.495C107.916 135.146 107.09 134.75 106.015 134.478C105.478 134.341 104.88 134.233 104.231 134.181C104.009 134.164 103.78 134.152 103.545 134.152C103.097 134.152 102.629 134.193 102.156 134.305C100.709 134.636 99.2765 135.602 98.1601 136.956C97.2555 138.033 96.6308 139.271 96.214 140.487ZM109.077 136.061C108.552 135.686 107.999 135.362 107.425 135.096C107.814 135.254 108.139 135.42 108.396 135.574C108.736 135.782 108.958 135.963 109.077 136.061Z" fill="#CC4341"/>
<path d="M96.327 140.504L96.2139 140.487C96.6306 139.271 97.2554 138.033 98.16 136.956C99.2763 135.602 100.709 134.636 102.156 134.305C102.629 134.193 103.097 134.152 103.544 134.152C103.78 134.152 104.009 134.164 104.231 134.181C104.88 134.233 105.478 134.341 106.015 134.478C107.09 134.75 107.916 135.146 108.44 135.495C108.701 135.671 108.891 135.83 109.01 135.947C109.128 136.066 109.186 136.131 109.182 136.137C109.147 136.112 109.112 136.086 109.077 136.061C108.958 135.963 108.736 135.782 108.396 135.574C108.139 135.42 107.813 135.254 107.425 135.096C106.254 134.552 104.996 134.25 103.71 134.25C103.445 134.25 103.177 134.263 102.91 134.289C99.8696 134.591 97.5118 137.082 96.327 140.504Z" fill="#0F191D"/>
<path d="M195.501 142.652C195.001 141.482 194.484 140.293 193.797 139.244C193.798 139.244 193.798 139.244 193.798 139.243C193.808 139.235 193.696 139.054 193.459 138.752C193.43 138.715 193.399 138.677 193.366 138.637C193.171 138.384 192.964 138.143 192.74 137.916C191.549 136.705 189.965 135.978 188.328 135.764C188.076 135.723 187.816 135.694 187.552 135.678C187.403 135.669 187.256 135.665 187.11 135.665C185.576 135.665 184.204 136.125 183.194 136.676C182.817 136.856 182.449 137.059 182.093 137.281L181.445 137.843C183.224 136.123 185.622 135.167 188.02 135.167C188.559 135.167 189.098 135.215 189.63 135.314C191.28 135.622 192.879 136.416 194.018 137.727C195.156 139.037 195.785 140.891 195.501 142.652Z" fill="#CC4341"/>
<path d="M193.797 139.244C193.66 139.036 193.517 138.833 193.366 138.637C193.399 138.677 193.43 138.715 193.459 138.752C193.696 139.054 193.808 139.235 193.798 139.243C193.798 139.244 193.798 139.244 193.797 139.244ZM183.194 136.676C184.204 136.125 185.576 135.665 187.11 135.665C187.256 135.665 187.403 135.669 187.552 135.678C187.816 135.694 188.076 135.723 188.328 135.764C188.068 135.73 187.806 135.709 187.544 135.701C187.461 135.699 187.378 135.698 187.295 135.698C185.885 135.698 184.485 136.057 183.194 136.676Z" fill="#0F191D"/>
<path d="M172.12 109.258C172.106 109.251 172.161 109.075 172.272 108.763C172.404 108.404 172.565 107.964 172.755 107.444C173.167 106.332 173.731 104.795 174.327 103.087C174.923 101.377 175.437 99.8205 175.807 98.6915C175.981 98.1656 176.129 97.7196 176.249 97.3566C176.357 97.0426 176.423 96.8711 176.437 96.8756C176.452 96.8806 176.414 97.0617 176.331 97.3843C176.25 97.7078 176.121 98.1724 175.956 98.7442C175.623 99.8872 175.132 101.456 174.535 103.169C173.938 104.88 173.349 106.411 172.9 107.507C172.676 108.056 172.488 108.497 172.352 108.799C172.216 109.101 172.134 109.264 172.12 109.258Z" fill="#17282F"/>
<path d="M118.504 109.703C118.444 109.716 117.982 107.556 117.472 104.881C116.962 102.204 116.597 100.024 116.657 100.011C116.717 99.9974 117.179 102.156 117.689 104.833C118.199 107.51 118.564 109.69 118.504 109.703Z" fill="#17282F"/>
<path d="M117.702 136.695C117.836 136.767 116.144 122.555 116.144 122.555C116.144 122.555 117.212 111.77 117.813 111.271L117.828 107.465C117.828 107.465 119.481 106.397 119.925 108.122C119.925 108.122 121.391 106.764 121.647 109.997C121.903 113.23 121.957 116.534 121.957 116.534L125.22 125.239L125.758 125.528C125.758 125.528 126.458 118.709 126.866 117.706C127.274 116.702 127.554 114.262 129.1 114.627C130.647 114.994 130.776 116.359 130.497 118.584C130.219 120.809 129.874 123.106 130.002 124.543C130.131 125.98 130.743 129.142 130.555 131.655C130.367 134.168 129.077 136.819 127.723 138.68C126.37 140.541 123.784 144.39 122.378 145.55C121.887 145.955 117.702 136.695 117.702 136.695Z" fill="#F8A58D"/>
<path d="M119.349 125.129C119.333 125.128 119.338 124.912 119.358 124.521C119.386 124.084 119.422 123.531 119.464 122.87C119.564 121.477 119.717 119.554 119.899 117.431C119.993 116.372 120.082 115.364 120.164 114.439C120.207 113.982 120.234 113.549 120.179 113.156C120.128 112.763 119.983 112.422 119.772 112.176C119.342 111.677 118.788 111.551 118.44 111.552C118.081 111.549 117.893 111.653 117.885 111.628C117.882 111.62 117.928 111.595 118.018 111.553C118.11 111.518 118.25 111.471 118.437 111.46C118.802 111.432 119.399 111.532 119.887 112.062C120.128 112.325 120.298 112.706 120.361 113.126C120.427 113.547 120.404 113.998 120.368 114.458C120.291 115.384 120.207 116.393 120.119 117.453C119.937 119.575 119.76 121.496 119.621 122.886C119.55 123.544 119.49 124.095 119.444 124.53C119.397 124.917 119.364 125.131 119.349 125.129Z" fill="#F68260"/>
<path d="M121.103 119.317C121.135 119.345 120.772 119.687 120.525 120.439C120.263 121.18 120.168 122.293 119.983 123.507C119.808 124.722 119.636 125.82 119.501 126.613C119.366 127.405 119.268 127.893 119.237 127.888C119.207 127.883 119.251 127.386 119.347 126.587C119.442 125.787 119.589 124.685 119.764 123.471C119.949 122.263 120.067 121.141 120.38 120.378C120.527 119.998 120.707 119.719 120.851 119.549C120.994 119.377 121.096 119.308 121.103 119.317Z" fill="#F68260"/>
<path d="M119.904 107.935C119.919 107.932 119.959 108.091 120.018 108.382C120.077 108.672 120.151 109.096 120.232 109.62C120.395 110.668 120.573 112.126 120.685 113.744C120.797 115.363 120.821 116.833 120.805 117.896C120.797 118.427 120.782 118.857 120.763 119.153C120.745 119.45 120.728 119.614 120.712 119.613C120.68 119.612 120.672 118.956 120.648 117.897C120.625 116.837 120.576 115.374 120.465 113.762C120.352 112.15 120.2 110.695 120.077 109.643C119.955 108.592 119.872 107.941 119.904 107.935Z" fill="#F68260"/>
<path d="M129.316 121.26C129.348 121.313 128.839 121.566 128.217 121.359C127.593 121.161 127.303 120.648 127.357 120.622C127.406 120.577 127.733 120.962 128.282 121.133C128.826 121.318 129.299 121.193 129.316 121.26Z" fill="#F68260"/>
<path d="M117.886 134.928L109.266 138.792H104.13C104.13 138.792 99.0504 140.484 98.2687 145.564C97.487 150.645 97.3756 153.26 99.6084 153.888C101.842 154.517 108.149 154.586 111.275 153.479C114.401 152.372 122.59 145.322 122.59 145.322L123.379 140.222L117.886 134.928Z" fill="#F8A58D"/>
<path d="M119.904 140.542C119.893 140.553 119.807 140.468 119.659 140.302C119.506 140.142 119.317 139.878 119.099 139.542C118.673 138.864 118.206 137.834 117.895 136.633C117.573 135.435 117.436 134.316 117.364 133.508C117.299 132.698 117.303 132.196 117.331 132.194C117.363 132.192 117.415 132.69 117.52 133.489C117.631 134.287 117.791 135.39 118.109 136.568C118.415 137.75 118.848 138.765 119.232 139.453C119.619 140.14 119.935 140.513 119.904 140.542Z" fill="#F68260"/>
<path d="M123.657 142.155C123.611 142.136 123.999 141.437 124.148 140.183C124.219 139.561 124.213 138.803 124.046 137.994C123.881 137.182 123.518 136.348 122.99 135.568C122.466 134.785 121.878 134.103 121.382 133.444C120.88 132.787 120.479 132.145 120.216 131.564C119.952 130.982 119.83 130.47 119.784 130.113C119.741 129.755 119.758 129.556 119.77 129.556C119.813 129.546 119.798 130.368 120.356 131.489C120.63 132.046 121.035 132.664 121.539 133.306C122.039 133.951 122.635 134.631 123.171 135.431C123.711 136.227 124.088 137.106 124.246 137.947C124.407 138.788 124.397 139.569 124.303 140.206C124.21 140.844 124.045 141.34 123.908 141.666C123.842 141.832 123.779 141.954 123.734 142.036C123.69 142.117 123.664 142.158 123.657 142.155Z" fill="#F68260"/>
<path d="M110.368 120.01C110.314 120.04 109.374 118.214 108.268 115.932C107.162 113.65 106.31 111.776 106.364 111.746C106.419 111.716 107.359 113.542 108.465 115.824C109.571 118.106 110.423 119.98 110.368 120.01Z" fill="white"/>
<path d="M124.309 103.453C124.253 103.426 124.834 101.903 125.607 100.053C126.38 98.2011 127.052 96.7223 127.108 96.749C127.163 96.7758 126.582 98.2973 125.809 100.149C125.037 102 124.365 103.479 124.309 103.453Z" fill="white"/>
<path d="M137.96 114.198C137.913 114.24 137.038 113.195 136.006 111.866C134.974 110.536 134.176 109.424 134.223 109.383C134.27 109.341 135.145 110.385 136.177 111.715C137.209 113.045 138.007 114.157 137.96 114.198Z" fill="white"/>
<path d="M134.82 128.977C134.77 128.939 135.429 127.88 136.291 126.611C137.154 125.342 137.893 124.344 137.943 124.382C137.992 124.42 137.333 125.48 136.47 126.749C135.608 128.018 134.869 129.016 134.82 128.977Z" fill="white"/>
<path d="M130.592 149.853C130.566 149.868 130.372 149.521 130.093 148.942C129.814 148.363 129.451 147.55 129.087 146.636C128.723 145.721 128.426 144.878 128.229 144.263C128.032 143.647 127.933 143.257 127.961 143.247C127.99 143.235 128.142 143.604 128.376 144.203C128.642 144.886 128.951 145.673 129.291 146.543C129.642 147.409 129.959 148.192 130.234 148.87C130.477 149.467 130.62 149.839 130.592 149.853Z" fill="white"/>
<path d="M142.603 140.979C142.591 141.043 141.435 140.858 140.021 140.567C138.606 140.274 137.469 139.985 137.481 139.921C137.492 139.857 138.648 140.042 140.063 140.334C141.477 140.626 142.614 140.915 142.603 140.979Z" fill="white"/>
<path d="M151.917 121.473C151.873 121.429 152.975 120.082 154.379 118.466C155.784 116.85 156.959 115.576 157.004 115.62C157.049 115.665 155.946 117.01 154.542 118.627C153.137 120.243 151.962 121.517 151.917 121.473Z" fill="white"/>
<path d="M161.288 147.488C161.241 147.529 159.866 145.831 158.217 143.695C156.568 141.559 155.269 139.794 155.316 139.753C155.364 139.711 156.739 141.409 158.388 143.545C160.037 145.681 161.336 147.446 161.288 147.488Z" fill="white"/>
<path d="M103.116 136.4C103.147 136.465 101.891 137.144 100.522 138.266C99.1463 139.379 98.1996 140.492 98.1494 140.442C98.1282 140.422 98.3382 140.118 98.7278 139.672C99.1169 139.225 99.6932 138.644 100.388 138.078C101.083 137.513 101.76 137.074 102.267 136.791C102.773 136.508 103.104 136.372 103.116 136.4Z" fill="white"/>
<path d="M106.62 126.373C106.671 126.409 106.224 127.222 105.621 128.189C105.019 129.156 104.489 129.911 104.438 129.874C104.387 129.839 104.834 129.025 105.437 128.058C106.039 127.091 106.569 126.337 106.62 126.373Z" fill="white"/>
<path d="M114.515 136.219C114.466 136.25 114.023 135.456 113.792 134.356C113.554 133.256 113.632 132.336 113.688 132.341C113.755 132.341 113.777 133.237 114.007 134.303C114.231 135.371 114.574 136.189 114.515 136.219Z" fill="white"/>
<path d="M115.685 104.946C115.694 105.01 114.96 105.175 114.047 105.314C113.133 105.452 112.386 105.512 112.378 105.447C112.369 105.383 113.102 105.218 114.016 105.079C114.929 104.941 115.677 104.881 115.685 104.946Z" fill="white"/>
<path d="M121.615 93.7266C121.645 93.7838 121.002 94.2239 120.181 94.7099C119.359 95.1954 118.669 95.543 118.639 95.4862C118.609 95.4291 119.252 94.9889 120.073 94.503C120.895 94.0174 121.585 93.6694 121.615 93.7266Z" fill="white"/>
<path d="M138.289 98.4661C138.241 98.5056 137.506 97.5636 136.649 96.3629C135.792 95.1614 135.136 94.1554 135.185 94.116C135.233 94.0765 135.968 95.0185 136.825 96.2196C137.682 97.4206 138.338 98.4262 138.289 98.4661Z" fill="white"/>
<path d="M159.457 109.749C159.416 109.79 158.643 108.94 157.925 107.705C157.203 106.472 156.831 105.357 156.884 105.336C156.944 105.308 157.402 106.366 158.113 107.58C158.82 108.797 159.507 109.703 159.457 109.749Z" fill="white"/>
<path d="M167.536 112.59C167.592 112.617 167.2 113.668 166.659 114.937C166.12 116.206 165.637 117.214 165.581 117.186C165.525 117.16 165.918 116.109 166.458 114.839C166.998 113.57 167.481 112.563 167.536 112.59Z" fill="white"/>
<path d="M168.665 100.824C168.619 100.866 167.657 99.7148 166.517 98.2537C165.377 96.7927 164.492 95.5743 164.538 95.5321C164.585 95.4908 165.547 96.6416 166.687 98.1026C167.826 99.5637 168.712 100.782 168.665 100.824Z" fill="white"/>
<path d="M156.325 91.2668C156.264 91.2691 156.178 90.2849 156.133 89.0675C156.089 87.8505 156.102 86.8623 156.163 86.8595C156.224 86.8568 156.309 87.841 156.354 89.0584C156.399 90.2754 156.386 91.2641 156.325 91.2668Z" fill="white"/>
<path d="M166.387 90.6713C166.395 90.7362 165.219 90.9572 163.761 91.165C162.302 91.3732 161.114 91.4894 161.106 91.425C161.097 91.3601 162.273 91.1391 163.732 90.9308C165.19 90.723 166.379 90.6064 166.387 90.6713Z" fill="white"/>
<path d="M182.232 103.09C182.178 103.118 181.47 101.679 180.653 99.8772C179.835 98.0735 179.217 96.5893 179.272 96.5607C179.327 96.5325 180.034 97.9705 180.852 99.7742C181.669 101.577 182.288 103.062 182.232 103.09Z" fill="white"/>
<path d="M179.565 113.821C179.505 113.808 179.67 112.652 179.935 111.238C180.199 109.824 180.463 108.689 180.523 108.702C180.582 108.715 180.417 109.871 180.152 111.285C179.888 112.698 179.625 113.834 179.565 113.821Z" fill="white"/>
<path d="M186.915 122.281C186.857 122.303 186.292 120.741 185.653 118.795C185.014 116.847 184.544 115.251 184.601 115.23C184.659 115.208 185.224 116.769 185.862 118.716C186.501 120.663 186.972 122.259 186.915 122.281Z" fill="white"/>
<path d="M185.891 127.229C185.881 127.287 184.861 127.06 183.743 126.409C182.621 125.766 181.886 124.978 181.926 124.937C181.969 124.883 182.753 125.574 183.849 126.202C184.94 126.838 185.91 127.16 185.891 127.229Z" fill="white"/>
<path d="M195.307 138.512C195.251 138.539 194.909 137.85 194.544 136.974C194.179 136.098 193.928 135.366 193.983 135.34C194.039 135.313 194.381 136.002 194.746 136.878C195.112 137.754 195.362 138.486 195.307 138.512Z" fill="white"/>
<path d="M139.697 154.247C139.636 154.255 139.488 153.355 139.366 152.238C139.245 151.12 139.195 150.209 139.256 150.202C139.316 150.194 139.464 151.094 139.586 152.211C139.708 153.328 139.757 154.239 139.697 154.247Z" fill="white"/>
<path d="M168.586 153.468C168.526 153.454 168.651 152.574 168.864 151.503C169.078 150.432 169.299 149.574 169.359 149.588C169.419 149.602 169.295 150.481 169.081 151.552C168.868 152.624 168.646 153.482 168.586 153.468Z" fill="white"/>
<path d="M174.125 63.4936L177.86 56.4695C176.208 53.6073 175.253 50.2381 175.253 46.6304C175.253 36.254 183.136 27.8423 192.862 27.8423C202.587 27.8423 210.471 36.254 210.471 46.6304C210.471 57.0063 202.587 65.418 192.862 65.418C188.801 65.418 185.064 63.9474 182.085 61.4835L182.091 61.4916L174.125 63.4936Z" fill="#FAFAF9"/>
<path d="M174.125 63.4936C174.504 63.401 177.025 62.7862 182.104 61.5479L182.185 61.5284L182.134 61.4567L182.128 61.4485L182.052 61.5293C183.057 62.3596 184.26 63.1778 185.674 63.8593C187.091 64.5295 188.713 65.0767 190.505 65.3308C191.399 65.4529 192.333 65.5314 193.293 65.4815C193.773 65.4524 194.262 65.4402 194.754 65.3962C195.244 65.3172 195.74 65.2369 196.243 65.1561C198.237 64.7359 200.277 63.9283 202.178 62.6691C204.079 61.414 205.84 59.7102 207.251 57.6166C208.659 55.5266 209.728 53.0486 210.228 50.3556C210.723 47.6667 210.682 44.7845 210.02 41.9948C209.353 39.2151 208.108 36.4994 206.244 34.2656L205.525 33.4207C205.288 33.1371 205.006 32.9025 204.75 32.642C204.482 32.3957 204.239 32.1166 203.951 31.8988L203.106 31.2245C202.832 30.9886 202.531 30.798 202.231 30.6065C201.932 30.4132 201.634 30.2204 201.337 30.028C201.024 29.866 200.712 29.7045 200.401 29.5429C200.088 29.3886 199.786 29.2062 199.457 29.0951C196.898 28.0115 194.169 27.5986 191.561 27.8005C188.951 28.0011 186.455 28.7997 184.313 30.0861C182.165 31.3625 180.353 33.0658 178.955 34.9689C177.552 36.8728 176.564 38.9723 175.952 41.0637C175.344 43.1646 175.18 45.2482 175.186 47.1766C175.239 49.1101 175.568 50.8911 176.049 52.4542C176.531 54.0197 177.163 55.366 177.816 56.4985L177.815 56.4418C175.458 60.9462 174.306 63.1474 174.125 63.4936C174.31 63.1505 175.491 60.9657 177.906 56.4967L177.921 56.4686L177.905 56.44C177.263 55.3092 176.642 53.968 176.171 52.4116C175.702 50.8575 175.382 49.0892 175.337 47.1721C175.337 45.2595 175.507 43.1959 176.114 41.1172C176.726 39.0481 177.709 36.9722 179.101 35.0919C180.489 33.212 182.283 31.5303 184.41 30.2725C186.529 29.0039 188.997 28.2184 191.576 28.0233C194.154 27.8268 196.849 28.2366 199.377 29.3083C199.702 29.4177 199.999 29.5987 200.309 29.7516C200.616 29.9109 200.925 30.0702 201.233 30.2304C201.527 30.4209 201.821 30.6115 202.116 30.803C202.412 30.9918 202.71 31.1796 202.98 31.4133L203.815 32.0794C204.1 32.2945 204.339 32.5703 204.604 32.814C204.857 33.0713 205.136 33.3023 205.369 33.5831L206.08 34.4171C207.922 36.6237 209.151 39.3058 209.811 42.0511C210.466 44.8058 210.509 47.654 210.022 50.3121C209.531 52.9733 208.477 55.4236 207.088 57.4918C205.696 59.5641 203.958 61.2534 202.079 62.4989C200.2 63.7495 198.184 64.554 196.21 64.9764C195.712 65.0581 195.221 65.1389 194.737 65.2187C194.249 65.2637 193.765 65.2773 193.29 65.3081C192.338 65.3612 191.412 65.2863 190.524 65.1693C188.748 64.9242 187.137 64.3888 185.728 63.7309C184.321 63.0616 183.122 62.2562 182.119 61.4376L181.79 61.1699L182.042 61.5188L182.048 61.527L182.079 61.4353C177.016 62.7453 174.502 63.396 174.125 63.4936Z" fill="#17282F"/>
<path d="M197.617 45.8458C197.617 46.8599 198.387 47.6816 199.337 47.6816C200.288 47.6816 201.059 46.8599 201.059 45.8458C201.059 44.8321 200.288 44.0099 199.337 44.0099C198.387 44.0099 197.617 44.8321 197.617 45.8458Z" fill="#17282F"/>
<path d="M190.73 45.8458C190.73 46.8599 191.5 47.6816 192.451 47.6816C193.401 47.6816 194.172 46.8599 194.172 45.8458C194.172 44.8321 193.401 44.0099 192.451 44.0099C191.5 44.0099 190.73 44.8321 190.73 45.8458Z" fill="#17282F"/>
<path d="M183.861 44.9279C183.386 45.8063 183.668 46.9289 184.491 47.4362C185.314 47.943 186.366 47.6422 186.841 46.7637C187.316 45.8857 187.035 44.7627 186.212 44.2559C185.389 43.749 184.337 44.0498 183.861 44.9279Z" fill="#17282F"/>
</g>
<defs>
<clipPath id="clip0_1_6586">
<rect width="300" height="182" fill="white"/>
</clipPath>
</defs>
</svg>
