<svg width="190" height="189" viewBox="0 0 190 189" fill="none" xmlns="http://www.w3.org/2000/svg">
<g clip-path="url(#clip0_1_6856)">
<path d="M27.8249 172.865C-9.27496 151.352 -9.27496 116.472 27.8249 94.9593C64.9247 73.446 125.075 73.446 162.175 94.9593C199.275 116.472 199.275 151.352 162.175 172.865C125.075 194.378 64.9247 194.378 27.8249 172.865Z" fill="#EDEDEB"/>
<path d="M78.0932 176.925L21.4529 144.058C19.2429 142.777 19.2429 140.68 21.4529 139.399L113.163 86.1797C114.073 85.6522 115.562 85.6522 116.472 86.1797L174.502 119.856C175.669 120.533 175.669 122.225 174.502 122.902L81.4017 176.925C80.4918 177.453 79.0031 177.453 78.0932 176.925Z" fill="#DADBD8"/>
<path d="M163.483 151.589C171.681 156.343 171.681 164.05 163.483 168.804C155.285 173.558 141.994 173.558 133.795 168.804C125.598 164.05 125.598 156.343 133.795 151.589C141.994 146.835 155.285 146.835 163.483 151.589Z" fill="#DADBD8"/>
<path d="M27.3001 124.961C27.3001 124.961 27.1806 116.398 23.6377 109.406C20.095 102.415 14.7387 97.7367 9.40419 96.7723C4.06963 95.8079 -0.765337 100.342 4.64971 104.329C10.0646 108.316 19.9411 112.82 23.3801 126.051L27.3001 124.961Z" fill="#26B6A6"/>
<path d="M21.0323 116.038C20.8218 115.918 20.6039 115.809 20.3861 115.706C19.4712 115.274 18.5225 114.913 17.5518 114.629C13.3094 109.592 8.08263 106.857 4.64943 104.329C2.9695 103.092 2.27581 101.803 2.27784 100.641C2.28173 98.4038 4.86368 96.6411 7.94583 96.6411C8.42231 96.6411 8.91129 96.6832 9.4039 96.7723C13.5553 97.5228 17.7195 100.522 21.0323 105.111V111.08C16.2569 103.94 10.2457 100.201 6.88359 99.0613C6.85299 99.0509 6.8218 99.0457 6.79104 99.0457C6.67122 99.0457 6.5589 99.1227 6.51787 99.2435C6.46683 99.3955 6.54767 99.5596 6.69902 99.6109C10.1016 100.764 16.2772 104.644 21.0323 112.134V116.038Z" fill="#FE0847"/>
<path d="M25.9415 122.605L26 122.594C26.1532 122.548 26.2406 122.387 26.1953 122.234C21.9119 107.631 11.6907 100.691 6.88394 99.0614C6.73368 99.0092 6.56971 99.0923 6.51823 99.2435C6.46718 99.3955 6.54802 99.5596 6.69937 99.611C11.4075 101.207 21.4256 108.024 25.6418 122.398C25.6812 122.532 25.8084 122.615 25.9415 122.605Z" fill="white"/>
<path d="M27.8408 133.043C25.8604 134.187 24.7251 134.926 21.0923 135.234C18.9253 135.418 15.9929 135.109 13.464 134.194C12.79 133.95 11.748 133.416 12.3337 132.764C12.6364 132.428 16.1993 131.86 17.4739 130.354C15.9819 130.755 14.0206 131.21 12.4766 131.244C10.9329 131.277 9.32712 130.906 8.14269 129.911C6.96658 128.923 6.33077 127.449 5.73522 126.03C5.53191 125.546 5.33907 124.952 5.6511 124.531C5.84942 124.262 6.19392 124.157 6.51427 124.067C7.86373 123.69 9.2132 123.313 10.5627 122.935C11.4433 122.746 10.822 122.162 10.4887 122.112C9.91064 122.026 9.35751 122.028 9.02112 122.046C7.47521 122.129 5.76813 122.422 4.50618 121.521C3.75087 120.982 3.30572 120.09 3.11646 119.178C3.04969 118.858 2.78381 114.668 2.9673 114.618C3.97196 114.343 5.0242 114.196 6.056 114.078C7.03508 113.965 7.98903 113.92 8.96436 113.787C10.0654 113.637 11.1768 113.564 12.2879 113.568C12.6648 113.569 13.0632 113.586 13.3821 113.788C13.8204 114.065 13.9942 114.62 14.05 115.137C14.1057 115.655 14.079 116.191 14.2582 116.679C14.7325 116.637 14.8874 116.018 14.8753 115.54C14.8631 115.062 14.8721 114.466 15.3017 114.26C15.5197 114.155 15.7763 114.197 16.0128 114.246C17.5215 114.556 18.993 115.048 20.3861 115.706C21.0232 116.008 21.6596 116.356 22.1182 116.893C22.7952 117.686 22.995 118.786 23.0011 119.83C23.0071 120.875 22.8459 121.918 22.9137 122.961C23.7273 122.231 24.8591 120.012 24.948 118.92C26.6977 120.05 27.7346 122.378 28.0605 125.562C28.2753 127.663 28.2227 130.43 27.932 132.56C27.9221 132.633 27.9055 133.005 27.8408 133.043Z" fill="#26B6A6"/>
<path d="M19.8364 135.285C17.8683 135.285 15.5314 134.942 13.464 134.193C12.9282 134 12.16 133.623 12.1615 133.149C12.162 133.026 12.2136 132.898 12.3337 132.764C12.6364 132.428 16.1993 131.86 17.4739 130.354C15.982 130.755 14.0206 131.21 12.4767 131.244C12.413 131.245 12.349 131.246 12.2851 131.246C10.8009 131.246 9.27828 130.865 8.14271 129.911C6.96659 128.923 6.33078 127.449 5.73523 126.03C5.60901 125.73 5.48667 125.387 5.48699 125.068C5.48715 124.875 5.53284 124.69 5.65111 124.53C5.84943 124.262 6.19394 124.157 6.51428 124.067C7.86374 123.69 9.21321 123.312 10.5627 122.935C10.8964 122.864 11.0144 122.735 11.0142 122.601C11.0139 122.38 10.6958 122.143 10.4887 122.112C10.0983 122.054 9.71937 122.036 9.41073 122.036C9.26238 122.036 9.13037 122.04 9.02113 122.046C8.34897 122.082 7.64626 122.158 6.96283 122.158C6.07475 122.158 5.21941 122.03 4.50619 121.521C3.75088 120.982 3.30573 120.089 3.11647 119.178C3.06639 118.937 2.90381 116.515 2.90381 115.302C2.90365 114.899 2.9216 114.63 2.96731 114.618C3.97197 114.343 5.02421 114.196 6.05601 114.078C7.03509 113.965 7.98905 113.919 8.96437 113.787C10.0386 113.641 11.1227 113.568 12.2066 113.568C12.2337 113.568 12.2609 113.568 12.2879 113.568C12.6648 113.569 13.0632 113.586 13.3821 113.787C13.8204 114.065 13.9942 114.62 14.05 115.137C14.1057 115.655 14.079 116.191 14.2582 116.679C14.7158 116.639 14.8762 116.061 14.8759 115.591C14.8759 115.574 14.8757 115.557 14.8753 115.54C14.8737 115.478 14.8725 115.415 14.8725 115.35C14.8725 114.915 14.9276 114.439 15.3017 114.26C15.4011 114.212 15.5084 114.195 15.6183 114.195C15.7493 114.195 15.8841 114.219 16.0128 114.246C17.5215 114.556 18.993 115.048 20.3861 115.706C20.6039 115.809 20.8218 115.918 21.0323 116.038L21.0324 130.864C21.0324 132.348 21.0347 133.417 22.1673 134.22C22.6001 134.526 23.0437 134.769 23.5209 134.898C22.8457 135.04 22.0572 135.152 21.0923 135.234C20.6968 135.267 20.2758 135.285 19.8364 135.285Z" fill="#FE0847"/>
<path d="M27.5138 132.647C27.4272 132.647 27.3438 132.599 27.3009 132.517C21.6348 121.589 9.09879 116.983 6.05191 116.348C5.92242 116.321 5.83894 116.194 5.8659 116.063C5.89322 115.933 6.02228 115.853 6.14941 115.876C9.24343 116.522 21.9726 121.198 27.726 132.294C27.7874 132.412 27.7416 132.558 27.6242 132.619C27.5887 132.638 27.551 132.647 27.5138 132.647Z" fill="white"/>
<path d="M11.0476 126.349C10.9238 126.349 10.819 126.254 10.8088 126.128C10.7987 125.995 10.8973 125.879 11.0291 125.869C17.2831 125.375 19.3056 122.916 19.3255 122.891C19.4075 122.787 19.558 122.771 19.6618 122.852C19.7652 122.935 19.783 123.085 19.7016 123.19C19.6168 123.298 17.5567 125.837 11.0666 126.349L11.0476 126.349Z" fill="white"/>
<path d="M178.894 95.8732C176.122 98.9181 171.038 103.929 168.082 108.766L168.062 108.803C166.908 110.701 166.08 112.57 165.853 114.283L165.645 117.376L164.379 116.642L164.167 116.518L163.644 116.217C162.895 115.78 162.424 114.983 162.4 114.113C162.197 106.57 164.204 100.159 166.145 96.2788C168.801 90.9793 173.778 85.5751 178.104 86.1047C182.125 86.5981 182.761 91.6288 178.894 95.8732Z" fill="#26B6A6"/>
<path d="M167.289 109.991L165.03 108.681C167.144 99.4537 172.696 91.6677 176.853 89.0292C176.973 88.953 177.009 88.7921 176.933 88.6718C176.884 88.5915 176.799 88.5462 176.712 88.5462C176.665 88.5462 176.617 88.5595 176.573 88.5879C172.364 91.2617 166.746 99.1055 164.564 108.41L162.792 107.382C163.451 102.792 164.813 98.9402 166.144 96.2788C168.679 91.2216 173.328 86.0686 177.507 86.0686C177.707 86.0686 177.906 86.0802 178.103 86.1047C180.295 86.3735 181.481 87.9894 181.481 90.0915C181.481 91.8471 180.653 93.9416 178.894 95.8732C176.122 98.9181 171.037 103.929 168.081 108.766L168.061 108.803C167.797 109.189 167.539 109.585 167.289 109.991Z" fill="#FE0847"/>
<path d="M176.853 89.0292C171.557 92.391 163.996 104.109 164.167 116.517L163.644 116.217C163.6 103.732 171.225 91.9858 176.574 88.5879C176.697 88.5073 176.857 88.5474 176.933 88.6717C177.009 88.7921 176.973 88.953 176.853 89.0292Z" fill="white"/>
<path d="M182.034 105.814C181.111 108.329 175.846 110.512 171.96 114.143C170.938 115.099 170.048 116.084 169.294 117.052C168.542 118.018 167.197 118.275 166.14 117.661L165.677 117.392L165.645 117.376L164.379 116.642C165.13 113.802 166.479 111.11 168.061 108.803L168.081 108.767C170.654 105.02 173.829 102.312 176.046 101.698C180.404 100.495 183.14 102.793 182.034 105.814Z" fill="#26B6A6"/>
<path d="M172.328 113.806C171.903 113.013 171.268 112.298 170.558 111.886L167.29 109.991C167.54 109.585 167.797 109.189 168.062 108.803L168.082 108.766C170.654 105.02 173.83 102.312 176.047 101.698C176.855 101.475 177.607 101.372 178.29 101.372C180.734 101.372 182.281 102.69 182.28 104.51C182.28 104.922 182.2 105.36 182.034 105.814C181.14 108.251 176.171 110.375 172.328 113.806Z" fill="#FE0847"/>
<path d="M178.331 104.301C175.148 105.204 168.98 109.104 166.141 117.661L165.677 117.392C168.557 108.73 174.688 104.791 178.191 103.8C178.335 103.76 178.471 103.841 178.51 103.981C178.55 104.121 178.471 104.266 178.331 104.301Z" fill="white"/>
<path d="M24.3408 138.001C24.3409 139.393 25.3784 141.123 26.6578 141.865L77.1003 171.121C78.3797 171.863 80.4543 171.863 81.7341 171.121L170.557 119.615C171.837 118.872 172.874 117.143 172.874 115.751C172.874 114.358 171.837 112.628 170.557 111.886L120.115 82.6306C118.835 81.8884 116.761 81.8884 115.481 82.6306L26.6573 134.137C25.3777 134.878 24.3407 136.609 24.3408 138.001Z" fill="#33535F"/>
<path d="M172.876 115.751C172.876 117.144 171.838 118.871 170.558 119.614L81.7329 171.122C81.0934 171.489 80.2542 171.677 79.4194 171.677V166.638C80.2542 166.638 81.0934 166.45 81.7329 166.079L170.558 114.574C171.679 113.926 171.819 112.922 170.978 112.183C172.055 113.024 172.876 114.515 172.876 115.751Z" fill="#273E47"/>
<path d="M79.4182 166.64V171.675C78.5782 171.675 77.7382 171.493 77.1015 171.122L26.6568 141.865C25.3779 141.123 24.3398 139.393 24.3398 138.001C24.3398 136.695 25.2549 135.094 26.4214 134.288C25.3832 135.034 25.4636 136.131 26.6568 136.824L77.1015 166.081C77.7382 166.452 78.5782 166.64 79.4182 166.64Z" fill="#17282F"/>
<path d="M22.1673 134.22C21.0347 133.417 21.0323 132.348 21.0323 130.864L21.0317 55.8948C21.0317 54.4109 22.0691 52.6064 23.3486 51.8646L112.172 0.358612C113.452 -0.383545 114.632 0.154022 115.833 0.850052C117.033 1.54648 117.798 2.14662 117.798 3.63055V78.5999C117.798 80.0839 116.761 81.8883 115.481 82.6305L26.6573 134.137C24.7205 135.448 23.4001 135.093 22.1673 134.22Z" fill="#273E47"/>
<path d="M26.6575 134.137C24.7214 135.447 23.3984 135.093 22.1677 134.218C21.0365 133.417 21.0327 132.347 21.0327 130.864V55.896C21.0327 55.1531 21.2936 54.3327 21.7075 53.6049L25.0166 55.5382C24.5986 56.2619 24.3417 57.0823 24.3417 57.8217V132.793C24.3417 134.276 25.377 134.877 26.6575 134.137Z" fill="#17282F"/>
<path d="M117.799 3.62865C117.799 2.14793 116.761 1.54697 115.482 2.28553L26.6564 53.794C26.0169 54.1654 25.4352 54.8037 25.0199 55.5334L21.7137 53.6022H21.7095C22.129 52.8721 22.7105 52.2338 23.3502 51.8627L112.171 0.35791C113.451 -0.384659 114.631 0.152912 115.831 0.849346C117.031 1.54618 117.799 2.14793 117.799 3.62865Z" fill="#33535F"/>
<path d="M27.9039 56.4774L113.541 6.8316C114.309 6.3867 114.932 6.74776 114.932 7.63796V76.4012C114.932 77.2914 114.309 78.3742 113.541 78.8195L27.9039 128.464C27.1359 128.909 26.5137 128.548 26.5137 127.658V58.8957C26.5137 58.0055 27.1359 56.9227 27.9039 56.4774Z" fill="#17282F"/>
<path d="M27.9039 56.4774C27.1359 56.9227 26.5137 58.0055 26.5137 58.8957V127.243L111.647 77.8907C112.415 77.4454 113.037 76.3627 113.037 75.4725V7.12366L27.9039 56.4774Z" fill="#26B6A6"/>
<path d="M26.5137 127.243V58.8957C26.5137 58.0055 27.1359 56.9227 27.9039 56.4774L113.037 7.12366V31.1209L76.207 52.4777L76.2074 74.1534L80.8799 76.8621L113.037 58.2153V75.4725C113.037 76.3627 112.415 77.4454 111.647 77.8907L26.5137 127.243Z" fill="#9853EB"/>
<path d="M33.0691 134.274L115.517 86.4654C116.157 86.0947 117.194 86.0947 117.834 86.4657L120.232 87.7314C120.872 88.1025 120.872 88.7039 120.232 89.0746L37.7722 136.875C37.1327 137.246 36.0952 137.246 35.4554 136.875L33.0693 135.617C32.4294 135.247 32.4294 134.645 33.0691 134.274Z" fill="#273E47"/>
<path d="M39.536 138.136L121.983 90.3274C122.623 89.9563 123.57 89.9042 124.1 90.2111L145.559 102.656C146.089 102.963 145.999 103.512 145.359 103.883L63.0088 151.627C62.3685 151.998 61.4199 152.051 60.889 151.746L39.3384 139.36C38.8076 139.055 38.8962 138.507 39.536 138.136Z" fill="#17282F"/>
<path d="M82.7075 117.289C82.7974 117.341 82.9591 117.332 83.0686 117.268L85.6501 115.771C85.7599 115.708 85.7763 115.614 85.686 115.562L83.4089 114.241C83.3194 114.189 83.1572 114.199 83.0478 114.262L80.4663 115.759C80.3569 115.823 80.3409 115.917 80.4308 115.968L82.7075 117.289ZM113.684 98.3581C113.773 98.4102 113.935 98.401 114.045 98.3376L116.626 96.8404C116.736 96.777 116.752 96.6832 116.662 96.631L116.056 96.2796C115.965 96.2274 115.804 96.2367 115.694 96.3004L113.113 97.7972C113.004 97.861 112.987 97.9549 113.077 98.0066L113.684 98.3581ZM133.344 105.153L135.925 103.656C136.036 103.593 136.052 103.499 135.962 103.447L133.685 102.127C133.595 102.074 133.433 102.084 133.323 102.147L130.742 103.644C130.632 103.708 130.616 103.802 130.706 103.853L132.983 105.174C133.073 105.226 133.234 105.217 133.344 105.153ZM126.012 96.7566C126.102 96.8083 126.264 96.7991 126.373 96.7357L128.955 95.2389C129.065 95.1752 129.081 95.0813 128.991 95.0295L126.714 93.7089C126.624 93.6567 126.462 93.666 126.353 93.7293L123.772 95.2265C123.661 95.2903 123.645 95.3842 123.736 95.4359L126.012 96.7566ZM121.229 93.9825C121.319 94.0346 121.48 94.0254 121.59 93.962L124.172 92.4652C124.281 92.4015 124.298 92.3076 124.207 92.2558L123.601 91.904C123.511 91.8523 123.35 91.8611 123.24 91.9249L120.659 93.4216C120.549 93.485 120.533 93.5793 120.623 93.6315L121.229 93.9825ZM109.91 100.546C110 100.598 110.162 100.589 110.272 100.525L112.853 99.028C112.963 98.9646 112.979 98.8712 112.889 98.819L112.283 98.4676C112.193 98.4154 112.031 98.4247 111.922 98.488L109.341 99.9852C109.23 100.049 109.214 100.142 109.304 100.195L109.91 100.546ZM90.2531 112.913C90.343 112.966 90.5047 112.956 90.6146 112.893L93.1961 111.396C93.3055 111.332 93.3215 111.238 93.2316 111.186L90.9549 109.866C90.865 109.814 90.7033 109.823 90.5938 109.887L88.0123 111.384C87.9025 111.447 87.8865 111.541 87.9764 111.593L90.2531 112.913ZM86.4805 115.101C86.5704 115.153 86.7321 115.144 86.8416 115.081L89.4231 113.584C89.5325 113.52 89.5489 113.426 89.459 113.374L87.1819 112.054C87.092 112.002 86.9302 112.011 86.8208 112.075L84.2393 113.571C84.1295 113.635 84.1135 113.729 84.2034 113.781L86.4805 115.101ZM102.406 105.866C102.496 105.919 102.657 105.909 102.768 105.846L105.348 104.349C105.458 104.285 105.474 104.191 105.384 104.14L103.107 102.819C103.018 102.767 102.856 102.776 102.746 102.84L100.165 104.337C100.055 104.401 100.039 104.494 100.129 104.546L102.406 105.866ZM94.0261 110.726C94.116 110.778 94.2777 110.769 94.3876 110.705L96.9691 109.208C97.0781 109.145 97.0945 109.05 97.0046 108.998L94.7279 107.678C94.638 107.626 94.4762 107.635 94.3664 107.699L91.7849 109.196C91.6754 109.259 91.6591 109.353 91.7494 109.406L94.0261 110.726ZM106.179 103.679C106.269 103.731 106.431 103.721 106.54 103.658L109.121 102.161C109.231 102.097 109.247 102.004 109.158 101.952L106.88 100.631C106.79 100.579 106.629 100.589 106.519 100.652L103.937 102.149C103.828 102.213 103.812 102.306 103.902 102.359L106.179 103.679ZM98.6331 108.054C98.723 108.106 98.8847 108.097 98.9942 108.034L101.576 106.537C101.686 106.473 101.701 106.379 101.612 106.327L99.3345 105.007C99.2446 104.955 99.0828 104.964 98.9734 105.028L96.3919 106.524C96.2821 106.588 96.2661 106.682 96.356 106.734L98.6331 108.054ZM117.456 96.1705C117.546 96.2226 117.708 96.2134 117.817 96.1496L120.399 94.6528C120.509 94.589 120.525 94.4956 120.435 94.4434L119.828 94.0916C119.739 94.0394 119.577 94.0491 119.467 94.1129L116.886 95.6096C116.777 95.673 116.76 95.7669 116.85 95.819L117.456 96.1705ZM96.6084 126.455L99.1903 124.958C99.2993 124.895 99.3157 124.801 99.2258 124.749L96.9487 123.428C96.8588 123.376 96.6971 123.386 96.5876 123.449L94.0061 124.946C93.8963 125.009 93.8803 125.103 93.9702 125.156L96.2469 126.476C96.3372 126.528 96.4985 126.519 96.6084 126.455ZM89.0628 130.83L91.6439 129.334C91.7537 129.27 91.7701 129.176 91.6802 129.124L89.4031 127.804C89.3132 127.752 89.1515 127.761 89.0416 127.825L86.4601 129.322C86.3507 129.385 86.3343 129.479 86.4246 129.531L88.7017 130.852C88.7916 130.904 88.9534 130.894 89.0628 130.83ZM92.8354 128.643L95.4169 127.146C95.5267 127.082 95.5431 126.988 95.4528 126.936L93.1757 125.616C93.0862 125.564 92.9245 125.574 92.8146 125.637L90.2331 127.134C90.1237 127.197 90.1073 127.291 90.1972 127.343L92.4743 128.664C92.5642 128.716 92.7259 128.706 92.8354 128.643ZM77.7442 137.394L80.3257 135.897C80.4352 135.834 80.4515 135.74 80.3613 135.687L78.0845 134.367C77.9946 134.315 77.8329 134.324 77.723 134.388L75.1419 135.885C75.0321 135.948 75.0161 136.042 75.106 136.094L77.3827 137.415C77.473 137.467 77.6344 137.457 77.7442 137.394ZM85.2898 133.018L87.8713 131.521C87.9811 131.458 87.9971 131.364 87.9073 131.312L85.6301 129.992C85.5402 129.939 85.3789 129.949 85.269 130.013L82.6875 131.509C82.5781 131.573 82.5617 131.667 82.6516 131.719L84.9287 133.039C85.0186 133.091 85.1804 133.082 85.2898 133.018ZM81.5172 135.206L84.0987 133.709C84.2081 133.646 84.2241 133.552 84.1343 133.5L81.8571 132.18C81.7676 132.127 81.6059 132.137 81.496 132.2L78.9145 133.697C78.8051 133.761 78.7891 133.855 78.8786 133.907L81.1561 135.227C81.2456 135.279 81.4074 135.27 81.5172 135.206ZM117.097 114.386C117.187 114.438 117.349 114.429 117.459 114.365L120.04 112.868C120.149 112.804 120.165 112.71 120.076 112.659L117.798 111.338C117.709 111.286 117.547 111.295 117.437 111.359L114.856 112.856C114.746 112.919 114.73 113.013 114.82 113.065L117.097 114.386ZM100.381 124.267L102.963 122.771C103.072 122.707 103.088 122.613 102.999 122.561L100.721 121.24C100.632 121.188 100.47 121.198 100.36 121.261L97.7787 122.759C97.6693 122.822 97.6533 122.916 97.7432 122.968L100.02 124.288C100.11 124.34 100.272 124.331 100.381 124.267ZM122.217 107.452L124.799 105.955C124.908 105.892 124.925 105.798 124.835 105.746L122.558 104.425C122.468 104.373 122.306 104.383 122.197 104.446L119.615 105.943C119.505 106.007 119.489 106.1 119.579 106.152L121.856 107.473C121.946 107.525 122.108 107.516 122.217 107.452ZM125.437 109.55C125.527 109.602 125.689 109.592 125.799 109.529L128.38 108.032C128.49 107.968 128.506 107.875 128.416 107.822L126.139 106.502C126.049 106.45 125.887 106.459 125.777 106.523L123.196 108.02C123.086 108.083 123.071 108.177 123.16 108.229L125.437 109.55ZM104.154 122.079L111.7 117.704C111.809 117.64 111.825 117.547 111.736 117.495L109.459 116.174C109.369 116.122 109.208 116.131 109.097 116.195L101.552 120.571C101.442 120.634 101.426 120.728 101.516 120.78L103.793 122.1C103.883 122.152 104.045 122.144 104.154 122.079ZM114.069 108.024L116.65 106.527C116.76 106.464 116.776 106.369 116.686 106.317L114.409 104.997C114.319 104.945 114.158 104.954 114.048 105.018L111.467 106.515C111.356 106.578 111.341 106.672 111.431 106.724L113.708 108.044C113.798 108.097 113.959 108.087 114.069 108.024ZM129.571 107.341L132.153 105.844C132.262 105.78 132.279 105.687 132.189 105.635L129.912 104.314C129.822 104.262 129.66 104.271 129.55 104.335L126.969 105.832C126.859 105.895 126.843 105.989 126.933 106.041L129.21 107.362C129.3 107.414 129.462 107.404 129.571 107.341ZM121.38 113.414C121.29 113.362 121.128 113.372 121.019 113.436L118.437 114.932C118.328 114.996 118.312 115.09 118.401 115.142L120.678 116.462C120.768 116.514 120.93 116.505 121.04 116.441L123.621 114.945C123.731 114.881 123.746 114.787 123.656 114.735L121.38 113.414ZM107.877 121.245C107.787 121.192 107.626 121.202 107.516 121.265L104.339 123.108C104.229 123.171 104.213 123.265 104.303 123.317L106.58 124.638C106.67 124.69 106.831 124.68 106.941 124.617L110.118 122.775C110.228 122.711 110.244 122.617 110.154 122.565L107.877 121.245ZM67.9642 144.389C67.8743 144.337 67.7126 144.346 67.6027 144.409L64.4257 146.252C64.3158 146.315 64.3002 146.409 64.3901 146.461L66.6669 147.782C66.7567 147.834 66.9185 147.825 67.0283 147.761L70.2054 145.919C70.3152 145.855 70.3312 145.761 70.2413 145.709L67.9642 144.389ZM99.14 126.311C99.0501 126.259 98.8883 126.268 98.7785 126.332L95.6014 128.174C95.492 128.238 95.4756 128.332 95.5655 128.384L97.8426 129.704C97.9321 129.756 98.0939 129.747 98.2041 129.683L101.381 127.841C101.491 127.777 101.507 127.684 101.417 127.632L99.14 126.311ZM72.3327 141.855C72.2429 141.803 72.0811 141.813 71.9717 141.876L68.7942 143.719C68.6848 143.782 68.6684 143.876 68.7583 143.928L71.0354 145.249C71.1253 145.301 71.287 145.292 71.3969 145.228L74.5743 143.385C74.6834 143.322 74.6998 143.228 74.6099 143.176L72.3327 141.855ZM94.7714 128.844C94.6815 128.792 94.5198 128.801 94.4103 128.865L73.1632 141.186C73.0533 141.249 73.0369 141.343 73.1272 141.395L75.4044 142.715C75.4938 142.767 75.6556 142.758 75.7654 142.695L97.0122 130.374C97.1225 130.31 97.1384 130.217 97.0482 130.165L94.7714 128.844ZM113.04 118.251C112.95 118.199 112.788 118.208 112.679 118.271L108.707 120.575C108.598 120.638 108.581 120.732 108.671 120.784L110.948 122.104C111.038 122.156 111.2 122.147 111.309 122.084L115.281 119.781C115.391 119.717 115.407 119.623 115.317 119.571L113.04 118.251ZM103.509 123.778C103.419 123.725 103.257 123.735 103.147 123.798L99.9704 125.641C99.8601 125.704 99.8442 125.798 99.9344 125.85L102.211 127.171C102.301 127.223 102.463 127.214 102.572 127.15L105.749 125.308C105.859 125.244 105.876 125.15 105.785 125.098L103.509 123.778ZM143.316 103.336L137.457 99.9387C137.368 99.8865 137.205 99.8957 137.096 99.9595L134.515 101.456C134.405 101.52 134.389 101.614 134.479 101.666L140.337 105.063C140.427 105.115 140.588 105.105 140.698 105.042L143.28 103.545C143.389 103.481 143.405 103.388 143.316 103.336ZM137.266 104.203C137.176 104.151 137.014 104.16 136.904 104.224L134.323 105.721C134.213 105.784 134.197 105.878 134.287 105.93L136.564 107.25C136.654 107.303 136.816 107.293 136.925 107.23L139.507 105.733C139.616 105.669 139.632 105.576 139.543 105.523L137.266 104.203ZM117.607 115.602C117.517 115.55 117.355 115.559 117.246 115.623L114.665 117.12C114.554 117.184 114.538 117.278 114.629 117.329L116.905 118.65C116.996 118.702 117.157 118.693 117.266 118.629L119.848 117.132C119.958 117.069 119.974 116.975 119.884 116.923L117.607 115.602ZM73.9712 139.582L76.5527 138.085C76.6626 138.021 76.6785 137.927 76.5887 137.875L74.3115 136.555C74.2216 136.503 74.0603 136.512 73.9504 136.576L71.3689 138.073C71.2595 138.136 71.2435 138.23 71.333 138.282L73.6101 139.603C73.7 139.655 73.8618 139.645 73.9712 139.582ZM125.153 111.227C125.063 111.175 124.901 111.184 124.791 111.248L122.21 112.744C122.1 112.808 122.084 112.902 122.174 112.954L124.451 114.275C124.541 114.327 124.703 114.317 124.812 114.254L127.394 112.757C127.503 112.693 127.519 112.599 127.43 112.547L125.153 111.227ZM133.492 106.391C133.403 106.339 133.241 106.348 133.131 106.412L126.777 110.096C126.668 110.16 126.651 110.254 126.741 110.306L129.018 111.626C129.108 111.678 129.27 111.669 129.38 111.605L135.734 107.92C135.843 107.857 135.859 107.763 135.77 107.711L133.492 106.391ZM56.7874 132.319C56.8773 132.371 57.039 132.362 57.1485 132.298L59.73 130.802C59.8394 130.738 59.8558 130.644 59.7659 130.592L57.4888 129.272C57.3989 129.22 57.2372 129.229 57.1277 129.293L54.5462 130.79C54.4368 130.853 54.4208 130.947 54.5103 130.999L56.7874 132.319ZM60.5604 130.132C60.6503 130.184 60.812 130.174 60.9215 130.111L63.503 128.614C63.6128 128.55 63.6284 128.456 63.5389 128.404L61.2618 127.084C61.1719 127.032 61.0102 127.041 60.9007 127.105L58.3192 128.602C58.2094 128.665 58.1934 128.759 58.2833 128.811L60.5604 130.132ZM63.5957 146.922C63.5058 146.87 63.344 146.879 63.2342 146.943L59.2631 149.246C59.1532 149.309 59.1372 149.403 59.2271 149.455L61.5043 150.776C61.5941 150.828 61.7555 150.818 61.8653 150.755L65.8368 148.452C65.9467 148.388 65.9627 148.295 65.8724 148.242L63.5957 146.922ZM65.9746 126.992C66.0645 127.044 66.2263 127.035 66.3361 126.971L68.9172 125.474C69.0271 125.411 69.0431 125.317 68.9532 125.265L66.6764 123.944C66.5866 123.892 66.4248 123.901 66.315 123.965L63.7335 125.462C63.6236 125.526 63.6076 125.62 63.6979 125.671L65.9746 126.992ZM73.5202 122.616C73.6101 122.669 73.7719 122.659 73.8817 122.596L76.4632 121.099C76.5727 121.035 76.5891 120.941 76.4988 120.889L74.222 119.569C74.1322 119.517 73.9704 119.526 73.8606 119.59L71.2795 121.086C71.1696 121.15 71.1536 121.244 71.2431 121.296L73.5202 122.616ZM53.0144 134.507C53.1043 134.559 53.266 134.55 53.3755 134.486L55.957 132.99C56.0668 132.926 56.0832 132.832 55.9933 132.78L53.7158 131.46C53.6263 131.407 53.4646 131.417 53.3547 131.48L50.7732 132.977C50.6638 133.041 50.6478 133.134 50.7373 133.187L53.0144 134.507ZM69.7476 124.804C69.8375 124.856 69.9989 124.847 70.1087 124.784L72.6902 123.286C72.8001 123.223 72.8161 123.129 72.7258 123.077L70.449 121.757C70.3592 121.704 70.1974 121.714 70.088 121.777L67.5065 123.274C67.3966 123.338 67.3806 123.431 67.4701 123.484L69.7476 124.804ZM77.2932 120.429C77.3827 120.481 77.5449 120.471 77.6543 120.408L80.2358 118.911C80.3453 118.848 80.3617 118.754 80.2718 118.701L77.995 117.381C77.9048 117.329 77.743 117.338 77.6332 117.402L75.0521 118.899C74.9422 118.963 74.9262 119.056 75.0161 119.108L77.2932 120.429ZM61.4975 146.626L59.2199 145.306C59.1304 145.254 58.9687 145.263 58.8592 145.327L55.6818 147.169C55.5719 147.233 55.556 147.327 55.6458 147.378L57.923 148.699C58.0128 148.751 58.1746 148.742 58.2841 148.678L61.4615 146.836C61.571 146.772 61.5869 146.678 61.4975 146.626ZM59.7032 143.514L57.4265 142.193C57.3366 142.141 57.1748 142.15 57.065 142.214L52.1005 145.093C51.9911 145.156 51.9747 145.25 52.065 145.302L54.3417 146.623C54.4316 146.674 54.5933 146.665 54.7032 146.602L59.6673 143.723C59.7771 143.659 59.7931 143.566 59.7032 143.514ZM49.2418 136.695C49.3313 136.747 49.4934 136.737 49.6029 136.674L52.1844 135.177C52.2938 135.113 52.3102 135.02 52.2203 134.968L49.9432 133.647C49.8533 133.595 49.6916 133.605 49.5817 133.668L47.0006 135.165C46.8908 135.229 46.8748 135.322 46.9647 135.375L49.2418 136.695ZM46.8061 138.107L44.5289 136.787C44.4391 136.735 44.2773 136.744 44.1679 136.808L40.9904 138.65C40.881 138.714 40.8646 138.808 40.9549 138.86L43.2316 140.18C43.3215 140.232 43.4832 140.222 43.5927 140.159L46.7701 138.317C46.88 138.253 46.896 138.159 46.8061 138.107ZM55.1294 142.012L52.8522 140.692C52.7624 140.64 52.6006 140.649 52.4908 140.713L48.5196 143.016C48.4098 143.079 48.3938 143.173 48.4837 143.225L50.7608 144.546C50.8507 144.598 51.0121 144.589 51.1219 144.525L55.0934 142.222C55.2033 142.158 55.2192 142.065 55.1294 142.012ZM50.1585 140.742L47.881 139.422C47.7911 139.369 47.6297 139.379 47.5199 139.442L44.9384 140.94C44.8289 141.003 44.8129 141.096 44.9024 141.149L47.1796 142.469C47.2694 142.521 47.4312 142.512 47.541 142.448L50.1221 140.952C50.232 140.888 50.248 140.794 50.1585 140.742ZM70.1986 141.769L72.7797 140.272C72.8895 140.209 72.9055 140.115 72.8161 140.063L70.5389 138.743C70.449 138.691 70.2873 138.7 70.1774 138.764L67.5959 140.26C67.4865 140.324 67.4701 140.418 67.5604 140.47L69.8371 141.791C69.927 141.842 70.0888 141.833 70.1986 141.769ZM75.1279 127.586L72.5464 129.083C72.437 129.147 72.4206 129.241 72.5109 129.293L74.788 130.613C74.8775 130.665 75.0397 130.656 75.1491 130.593L77.7302 129.095C77.8401 129.032 77.8564 128.938 77.7666 128.886L75.4894 127.566C75.3996 127.514 75.2378 127.523 75.1279 127.586ZM71.3557 129.774L68.7742 131.271C68.6644 131.335 68.648 131.429 68.7379 131.48L71.015 132.801C71.1049 132.853 71.2667 132.844 71.3765 132.78L73.9576 131.283C74.0675 131.22 74.0834 131.126 73.9936 131.074L71.7164 129.753C71.6266 129.702 71.4648 129.71 71.3557 129.774ZM86.4465 121.023L83.8654 122.52C83.7556 122.584 83.7396 122.677 83.8295 122.729L86.1062 124.05C86.1961 124.102 86.3579 124.093 86.4677 124.029L89.0492 122.532C89.1591 122.468 89.1746 122.375 89.0848 122.323L86.8076 121.002C86.7182 120.95 86.5564 120.96 86.4465 121.023ZM78.9009 125.399L76.3194 126.896C76.21 126.959 76.1936 127.053 76.2835 127.105L78.5606 128.425C78.6505 128.478 78.8123 128.468 78.9217 128.405L81.5032 126.908C81.6131 126.844 81.6294 126.75 81.5396 126.698L79.262 125.378C79.1726 125.326 79.0108 125.335 78.9009 125.399ZM82.6739 123.211L80.0924 124.708C79.9826 124.772 79.9666 124.865 80.0565 124.918L82.3336 126.238C82.4235 126.29 82.5849 126.28 82.6947 126.217L85.2762 124.72C85.3857 124.656 85.402 124.563 85.3122 124.51L83.035 123.19C82.9452 123.138 82.7838 123.147 82.6739 123.211ZM67.5827 131.962L65.0012 133.459C64.8914 133.522 64.875 133.616 64.9653 133.668L67.2424 134.989C67.3323 135.041 67.4941 135.032 67.6035 134.968L70.185 133.471C70.2945 133.408 70.3104 133.314 70.2206 133.262L67.9438 131.941C67.854 131.889 67.6922 131.898 67.5827 131.962ZM63.8093 134.15L61.2282 135.647C61.1188 135.71 61.1028 135.804 61.1923 135.856L63.4694 137.177C63.5593 137.228 63.7211 137.22 63.8305 137.155L66.412 135.659C66.5219 135.595 66.5378 135.501 66.448 135.449L64.1708 134.129C64.081 134.077 63.9192 134.086 63.8093 134.15ZM75.95 134.281L78.5315 132.784C78.6413 132.72 78.6573 132.627 78.5678 132.574L76.2903 131.254C76.2008 131.202 76.039 131.211 75.9292 131.275L73.3481 132.772C73.2383 132.836 73.2223 132.929 73.3121 132.982L75.5889 134.302C75.6788 134.354 75.8405 134.345 75.95 134.281ZM72.1774 136.469L74.7589 134.972C74.8683 134.908 74.8847 134.815 74.7948 134.763L72.5177 133.442C72.4282 133.39 72.266 133.399 72.1562 133.463L69.5751 134.96C69.4653 135.023 69.4493 135.117 69.5391 135.169L71.8163 136.489C71.9058 136.542 72.0679 136.532 72.1774 136.469ZM68.4044 138.657L70.9859 137.16C71.0957 137.096 71.1117 137.003 71.0222 136.95L68.7447 135.63C68.6548 135.578 68.493 135.587 68.3836 135.651L65.8021 137.147C65.6927 137.211 65.6763 137.305 65.7661 137.357L68.0433 138.677C68.1332 138.729 68.2949 138.72 68.4044 138.657ZM60.0367 136.337L57.4552 137.835C57.3458 137.898 57.3294 137.992 57.4193 138.044L59.6964 139.364C59.7863 139.416 59.9481 139.407 60.0575 139.343L62.639 137.847C62.7489 137.783 62.7648 137.689 62.675 137.637L60.3978 136.317C60.3084 136.264 60.1466 136.274 60.0367 136.337ZM64.2703 140.865C64.3602 140.917 64.5223 140.908 64.6318 140.844L67.2133 139.347C67.3227 139.284 67.3387 139.19 67.2488 139.138L64.9721 137.818C64.8822 137.766 64.7204 137.775 64.611 137.838L62.0295 139.335C61.9197 139.399 61.9037 139.493 61.9936 139.544L64.2703 140.865ZM93.9925 116.647L91.411 118.145C91.3012 118.208 91.2856 118.302 91.3755 118.354L93.6522 119.674C93.7421 119.726 93.9039 119.717 94.0133 119.653L96.5948 118.157C96.7047 118.093 96.7206 117.999 96.6304 117.947L94.3536 116.627C94.2637 116.575 94.102 116.584 93.9925 116.647ZM125.629 105.285C125.719 105.337 125.88 105.328 125.99 105.264L128.572 103.767C128.681 103.704 128.698 103.61 128.608 103.558L126.331 102.237C126.241 102.186 126.079 102.195 125.969 102.258L123.388 103.755C123.278 103.819 123.262 103.913 123.352 103.965L125.629 105.285ZM90.2199 118.835L87.638 120.332C87.5286 120.396 87.5126 120.489 87.6025 120.542L89.8792 121.862C89.9691 121.914 90.1309 121.905 90.2403 121.841L92.8222 120.345C92.9317 120.28 92.9476 120.187 92.8578 120.135L90.5806 118.815C90.4911 118.762 90.3294 118.772 90.2199 118.835ZM118.615 102.37L116.034 103.867C115.924 103.93 115.908 104.024 115.998 104.076L118.275 105.396C118.365 105.448 118.527 105.439 118.636 105.375L121.218 103.879C121.327 103.815 121.343 103.721 121.254 103.669L118.977 102.349C118.887 102.297 118.725 102.306 118.615 102.37ZM127.317 97.5128L133.175 100.91C133.264 100.962 133.426 100.952 133.536 100.889L136.117 99.3923C136.227 99.3285 136.243 99.2346 136.153 99.1825L130.295 95.7853C130.205 95.7332 130.044 95.7428 129.933 95.8066L127.352 97.3034C127.243 97.3668 127.227 97.4606 127.317 97.5128ZM126.522 97.9733C126.433 97.9212 126.27 97.9304 126.161 97.9942L123.579 99.491C123.47 99.5544 123.454 99.6482 123.543 99.7004L125.821 101.021C125.91 101.073 126.072 101.064 126.182 101L128.764 99.503C128.873 99.4396 128.889 99.3457 128.799 99.294L126.522 97.9733ZM122.409 103.188L124.991 101.691C125.1 101.627 125.116 101.534 125.026 101.482L122.749 100.161C122.659 100.109 122.498 100.118 122.388 100.182L119.807 101.679C119.697 101.742 119.681 101.836 119.771 101.888L122.048 103.209C122.137 103.261 122.3 103.251 122.409 103.188ZM129.763 103.077L132.344 101.58C132.454 101.516 132.47 101.422 132.38 101.37L130.103 100.05C130.013 99.9976 129.852 100.007 129.742 100.071L127.161 101.567C127.051 101.631 127.035 101.725 127.125 101.777L129.401 103.097C129.492 103.149 129.653 103.14 129.763 103.077ZM83.496 129.905L86.0775 128.409C86.1869 128.345 86.2029 128.251 86.113 128.199L83.8363 126.879C83.7464 126.826 83.5846 126.836 83.4752 126.899L80.8933 128.397C80.7838 128.46 80.7679 128.554 80.8577 128.606L83.1349 129.926C83.2244 129.978 83.3865 129.969 83.496 129.905ZM122.941 95.8969C122.851 95.8447 122.689 95.8539 122.58 95.9173L119.999 97.4141C119.889 97.4783 119.873 97.5718 119.963 97.6239L122.24 98.9442C122.329 98.9963 122.491 98.9871 122.601 98.9237L125.182 97.4265C125.292 97.3632 125.308 97.2693 125.218 97.2171L122.941 95.8969ZM97.7863 117.466L100.368 115.969C100.477 115.905 100.493 115.811 100.404 115.759L98.1266 114.439C98.0367 114.387 97.875 114.396 97.7655 114.46L95.184 115.957C95.0742 116.02 95.0582 116.114 95.1477 116.166L97.4252 117.487C97.5147 117.539 97.6769 117.529 97.7863 117.466ZM118.807 98.1053L116.226 99.6021C116.116 99.6655 116.1 99.7594 116.19 99.8119L118.467 101.132C118.557 101.184 118.718 101.175 118.828 101.111L121.409 99.6145C121.519 99.5507 121.535 99.4569 121.445 99.4047L119.168 98.0845C119.079 98.0323 118.917 98.0415 118.807 98.1053ZM110.467 102.941L107.885 104.438C107.776 104.502 107.76 104.595 107.85 104.648L110.127 105.968C110.217 106.02 110.378 106.011 110.488 105.947L113.07 104.451C113.179 104.387 113.195 104.293 113.105 104.241L110.828 102.92C110.739 102.868 110.576 102.878 110.467 102.941ZM115.034 100.293L112.453 101.79C112.343 101.853 112.327 101.947 112.417 101.999L114.694 103.32C114.784 103.372 114.946 103.363 115.055 103.299L117.637 101.802C117.746 101.738 117.763 101.645 117.673 101.593L115.396 100.272C115.306 100.22 115.144 100.23 115.034 100.293ZM79.723 132.093L82.3045 130.596C82.4143 130.533 82.4303 130.439 82.3404 130.387L80.0633 129.067C79.9734 129.014 79.8116 129.024 79.7022 129.087L77.1207 130.584C77.0109 130.648 76.9953 130.741 77.0847 130.794L79.3619 132.114C79.4518 132.166 79.6135 132.157 79.723 132.093ZM62.6115 130.691L60.03 132.188C59.9205 132.252 59.9041 132.346 59.994 132.398L62.2712 133.719C62.361 133.77 62.5228 133.761 62.6322 133.697L65.2137 132.201C65.3236 132.137 65.3396 132.043 65.2497 131.991L62.9725 130.67C62.8827 130.618 62.7213 130.628 62.6115 130.691ZM66.3845 128.504L63.803 130C63.6931 130.064 63.6771 130.158 63.767 130.21L66.0441 131.531C66.1336 131.583 66.2958 131.573 66.4052 131.51L68.9867 130.013C69.0962 129.949 69.1126 129.855 69.0227 129.803L66.7455 128.483C66.6557 128.431 66.4939 128.44 66.3845 128.504ZM70.1571 126.316L67.576 127.813C67.4661 127.876 67.4497 127.97 67.5396 128.022L69.8168 129.343C69.9066 129.395 70.0684 129.385 70.1782 129.322L72.7593 127.825C72.8692 127.762 72.8856 127.668 72.7953 127.616L70.5181 126.295C70.4287 126.243 70.2665 126.252 70.1571 126.316ZM77.7027 121.94L75.1212 123.437C75.0117 123.501 74.9957 123.595 75.0856 123.647L77.3627 124.967C77.4522 125.019 77.6136 125.01 77.7238 124.946L80.3049 123.449C80.4148 123.386 80.4308 123.292 80.3413 123.24L78.0641 121.919C77.9743 121.868 77.8121 121.877 77.7027 121.94ZM58.8385 132.879L56.257 134.376C56.1475 134.439 56.1315 134.534 56.2214 134.585L58.4986 135.906C58.588 135.958 58.7498 135.949 58.8596 135.885L61.4407 134.388C61.5506 134.325 61.5666 134.231 61.4767 134.179L59.1999 132.858C59.1101 132.806 58.9483 132.815 58.8385 132.879ZM73.9301 124.128L71.3486 125.625C71.2387 125.689 71.2227 125.782 71.3126 125.834L73.5893 127.155C73.6796 127.207 73.841 127.198 73.9508 127.134L76.5323 125.637C76.6418 125.574 76.6578 125.48 76.5683 125.428L74.2911 124.107C74.2013 124.055 74.0395 124.065 73.9301 124.128ZM55.0655 135.067L52.4844 136.564C52.3745 136.627 52.3585 136.721 52.4484 136.773L54.7256 138.094C54.8154 138.146 54.9768 138.137 55.0866 138.073L57.6681 136.576C57.7776 136.512 57.794 136.419 57.7041 136.367L55.4269 135.046C55.3371 134.994 55.1753 135.003 55.0655 135.067ZM62.2919 146.166C62.3814 146.218 62.5432 146.209 62.6526 146.145L65.2341 144.648C65.344 144.585 65.3599 144.491 65.2701 144.439L62.9929 143.118C62.903 143.066 62.7417 143.075 62.6318 143.139L60.0503 144.636C59.9409 144.7 59.9245 144.793 60.0144 144.845L62.2919 146.166ZM66.4256 143.957L69.0071 142.46C69.1166 142.397 69.1329 142.303 69.0431 142.251L66.7659 140.93C66.676 140.878 66.5143 140.888 66.4044 140.951L63.8233 142.448C63.7139 142.511 63.6975 142.606 63.7874 142.658L66.0645 143.978C66.154 144.03 66.3162 144.021 66.4256 143.957ZM55.9234 141.552C56.0133 141.604 56.1751 141.595 56.2849 141.531L58.8664 140.034C58.9759 139.971 58.9918 139.877 58.902 139.825L56.6252 138.505C56.535 138.452 56.3736 138.462 56.2637 138.525L53.6822 140.022C53.5728 140.086 53.5564 140.179 53.6467 140.232L55.9234 141.552ZM51.2929 137.255L48.7114 138.752C48.6019 138.815 48.5855 138.909 48.6754 138.961L50.9526 140.281C51.0424 140.333 51.2042 140.324 51.3136 140.26L53.8951 138.764C54.005 138.7 54.021 138.606 53.9311 138.554L51.6539 137.234C51.5641 137.182 51.4027 137.191 51.2929 137.255ZM60.4977 143.053C60.5876 143.105 60.7493 143.096 60.8588 143.032L63.4403 141.535C63.5497 141.472 63.5661 141.378 63.4762 141.326L61.1991 140.005C61.1092 139.954 60.9474 139.963 60.8376 140.026L58.2565 141.523C58.1467 141.587 58.1311 141.68 58.2205 141.733L60.4977 143.053ZM81.4757 119.753L78.8942 121.249C78.7843 121.313 78.7683 121.407 78.8582 121.459L81.1353 122.779C81.2252 122.832 81.387 122.822 81.4964 122.759L84.0779 121.262C84.1878 121.198 84.2038 121.104 84.1139 121.052L81.8367 119.732C81.7473 119.68 81.5851 119.689 81.4757 119.753ZM85.2487 117.565L82.6671 119.062C82.5573 119.126 82.5413 119.219 82.6312 119.271L84.9083 120.592C84.9982 120.644 85.16 120.634 85.2694 120.571L87.8509 119.074C87.9604 119.01 87.9768 118.917 87.8869 118.864L85.6097 117.544C85.5199 117.492 85.3585 117.501 85.2487 117.565ZM102.36 118.967L108.119 115.627C108.228 115.564 108.244 115.47 108.155 115.418L102.297 112.021C102.206 111.969 102.045 111.978 101.936 112.042L98.957 113.769C98.8472 113.833 98.8312 113.926 98.9207 113.978L102.177 115.866C102.267 115.919 102.25 116.012 102.14 116.076L99.7579 117.458C99.648 117.521 99.6321 117.615 99.7223 117.667L101.999 118.988C102.089 119.04 102.251 119.03 102.36 118.967ZM106.524 112.399L109.105 110.902C109.214 110.839 109.23 110.745 109.141 110.693L106.863 109.373C106.774 109.32 106.612 109.33 106.503 109.393L103.921 110.89C103.812 110.954 103.795 111.048 103.885 111.1L106.162 112.42C106.252 112.472 106.414 112.463 106.524 112.399ZM87.269 127.718L89.8505 126.221C89.9599 126.157 89.9759 126.063 89.886 126.011L87.6089 124.691C87.519 124.639 87.3576 124.648 87.2478 124.712L84.6667 126.209C84.5568 126.272 84.5405 126.366 84.6303 126.418L86.9079 127.738C86.9974 127.79 87.1591 127.782 87.269 127.718ZM91.0416 125.53L93.6231 124.033C93.7329 123.97 93.7489 123.876 93.659 123.824L91.3819 122.503C91.292 122.451 91.1302 122.46 91.0208 122.524L88.4393 124.021C88.3294 124.084 88.3139 124.178 88.4033 124.23L90.6805 125.551C90.7704 125.603 90.9321 125.594 91.0416 125.53ZM94.8146 123.342L97.3961 121.845C97.5059 121.782 97.5219 121.688 97.4316 121.636L95.1549 120.315C95.065 120.264 94.9032 120.272 94.7938 120.336L92.2123 121.833C92.1024 121.897 92.0865 121.991 92.1763 122.042L94.4535 123.363C94.5433 123.415 94.7051 123.406 94.8146 123.342ZM98.5876 121.155L101.169 119.657C101.278 119.594 101.294 119.5 101.205 119.448L98.9275 118.128C98.838 118.076 98.6758 118.085 98.5664 118.149L95.9849 119.645C95.8754 119.709 95.8595 119.803 95.9489 119.855L98.2261 121.175C98.3159 121.228 98.4777 121.218 98.5876 121.155ZM89.0217 115.377L86.4402 116.874C86.3303 116.938 86.3143 117.031 86.4038 117.084L88.6813 118.404C88.7712 118.456 88.9326 118.447 89.0424 118.383L91.6239 116.886C91.7338 116.822 91.7497 116.729 91.6595 116.677L89.3827 115.357C89.2929 115.304 89.1311 115.313 89.0217 115.377ZM92.7943 113.189L90.2127 114.686C90.1033 114.75 90.0869 114.843 90.1768 114.896L92.4539 116.216C92.5438 116.268 92.7056 116.259 92.8154 116.195L95.3965 114.698C95.5064 114.635 95.5223 114.541 95.4321 114.489L93.1557 113.169C93.0659 113.116 92.9037 113.126 92.7943 113.189ZM102.921 107.317L100.34 108.814C100.23 108.877 100.214 108.971 100.304 109.023L102.581 110.343C102.671 110.396 102.833 110.386 102.942 110.323L105.524 108.826C105.633 108.762 105.649 108.669 105.56 108.616L103.282 107.296C103.193 107.244 103.031 107.253 102.921 107.317ZM98.3543 109.966L93.9857 112.499C93.8759 112.562 93.8599 112.656 93.9494 112.708L96.2269 114.028C96.3168 114.08 96.4782 114.071 96.588 114.007L100.957 111.474C101.066 111.411 101.082 111.317 100.993 111.265L98.7154 109.944C98.6255 109.892 98.4637 109.902 98.3543 109.966ZM106.694 105.129L104.113 106.626C104.003 106.69 103.987 106.783 104.077 106.836L106.354 108.156C106.444 108.208 106.606 108.199 106.715 108.135L109.296 106.638C109.406 106.574 109.422 106.481 109.333 106.429L107.055 105.108C106.966 105.056 106.804 105.066 106.694 105.129ZM110.296 110.211L112.878 108.715C112.987 108.651 113.003 108.557 112.914 108.505L110.637 107.185C110.546 107.133 110.385 107.143 110.275 107.206L107.694 108.703C107.584 108.766 107.568 108.86 107.658 108.912L109.935 110.233C110.025 110.284 110.187 110.275 110.296 110.211Z" fill="#33535F"/>
<path d="M94.2593 136.857L94.7889 137.164L108.847 145.314L133.849 130.817L134.369 130.518L119.782 122.061L94.2593 136.857Z" fill="#17282F"/>
<path d="M133.615 130.952L119.781 122.935L95.0215 137.299L108.847 145.314L133.615 130.952Z" fill="#273E47"/>
<path d="M149.409 19.2999C149.409 18.2429 149.042 17.4979 148.448 17.1469C147.846 16.7914 144.361 14.7727 143.756 14.4265C143.156 14.0835 142.329 14.1357 141.416 14.6652L76.207 52.4776L76.2074 74.1533L80.8799 76.8621L146.089 39.0496C147.923 37.9861 149.409 35.4002 149.409 33.2731V19.2999Z" fill="#26B6A6"/>
<path d="M80.8799 76.8621L76.2074 74.1533L76.207 52.4776L141.416 14.6652C141.949 14.3559 142.453 14.2095 142.899 14.2095C143.217 14.2095 143.506 14.2837 143.756 14.4265C144.361 14.7727 147.846 16.7914 148.448 17.1469C149.042 17.4979 149.409 18.2429 149.409 19.2999V33.2732C149.409 35.4002 147.923 37.9861 146.089 39.0496L80.8799 76.8621Z" fill="#FE0847"/>
<path d="M146.089 17.3743C147.922 16.3108 149.409 17.1729 149.409 19.2999V33.2732C149.409 35.4002 147.923 37.9861 146.089 39.0496L80.8799 76.8621V55.1868L146.089 17.3743Z" fill="#FE0847"/>
<path d="M145.42 37.2649C146.651 36.5508 147.658 34.7985 147.658 33.3707V20.4622C147.658 19.4448 146.94 19.0284 146.063 19.5371L82.1929 56.6001V73.9548L145.42 37.2649Z" fill="#FAFAF9"/>
<path d="M93.3245 63.2492C93.3245 63.3487 93.3009 63.4478 93.2542 63.5464C93.2074 63.6463 93.1519 63.7145 93.0876 63.7518L91.9844 64.3917C91.9201 64.4286 91.8649 64.425 91.8182 64.3793C91.7715 64.3348 91.7483 64.2629 91.7483 64.163V60.737C91.7483 60.3491 91.6868 60.0731 91.5646 59.9094C91.4415 59.7461 91.2494 59.7401 90.9862 59.893C90.7234 60.045 90.5325 60.2737 90.4126 60.577C90.2932 60.8819 90.2333 61.2277 90.2333 61.6156V65.0416C90.2333 65.1411 90.2097 65.2402 90.163 65.3393C90.1166 65.4388 90.0611 65.507 89.9968 65.5443L88.8932 66.1838C88.8289 66.2215 88.7734 66.2174 88.727 66.1721C88.6799 66.1272 88.6567 66.0554 88.6567 65.9559V57.0727C88.6567 56.9732 88.6799 56.8742 88.727 56.7751C88.7734 56.6756 88.8289 56.6074 88.8932 56.5697L89.9968 55.9302C90.0611 55.8929 90.1166 55.8973 90.163 55.9422C90.2097 55.9872 90.2333 56.0594 90.2333 56.1585V59.0429C90.3323 58.7958 90.4869 58.5234 90.6974 58.2253C90.9075 57.9272 91.1496 57.6994 91.424 57.5397C91.704 57.3776 91.9612 57.289 92.1949 57.2757C92.4281 57.2625 92.6282 57.3339 92.7948 57.49C92.961 57.6464 93.0908 57.8915 93.1839 58.2253C93.2777 58.5591 93.3245 58.9932 93.3245 59.5255V63.2492Z" fill="#33535F"/>
<path d="M96.354 59.1094C96.354 59.3168 96.3832 59.4604 96.4415 59.539C96.4998 59.6177 96.5961 59.6185 96.7307 59.5406L97.4309 59.1347C97.4952 59.0978 97.5507 59.1014 97.5975 59.1459C97.6438 59.1916 97.6674 59.2634 97.6674 59.3629V60.7305C97.6674 60.83 97.6438 60.9291 97.5975 61.0282C97.5507 61.1277 97.4952 61.1959 97.4309 61.2332L96.5993 61.7154C96.3249 61.8747 96.0752 61.9581 95.8504 61.9669C95.6259 61.9754 95.4346 61.9104 95.2768 61.7712C95.1194 61.6328 94.9968 61.4237 94.9093 61.1453C94.8218 60.8665 94.7779 60.5195 94.7779 60.1043V57.8288L94.13 58.2051C94.0653 58.242 94.0102 58.2388 93.9635 58.1931C93.9167 58.1482 93.8936 58.0756 93.8936 57.9761V56.6089C93.8936 56.5094 93.9167 56.4103 93.9635 56.3112C94.0102 56.2121 94.0653 56.1435 94.13 56.1058L94.7779 55.7307V53.5235C94.7779 53.424 94.8011 53.3249 94.8474 53.2258C94.8945 53.1263 94.9496 53.0581 95.014 53.0204L96.1176 52.3809C96.1815 52.3432 96.237 52.348 96.2841 52.3926C96.3305 52.4379 96.354 52.5101 96.354 52.6088V54.816L97.3434 54.2428C97.4077 54.2055 97.4628 54.2099 97.51 54.2544C97.5567 54.2997 97.5799 54.3719 97.5799 54.471V55.8386C97.5799 55.9385 97.5567 56.0376 97.51 56.1363C97.4628 56.2362 97.4077 56.304 97.3434 56.3413L96.354 56.9154V59.1094Z" fill="#33535F"/>
<path d="M100.505 56.7024C100.505 56.9098 100.534 57.0534 100.592 57.1325C100.651 57.2111 100.747 57.2115 100.881 57.1341L101.582 56.7277C101.646 56.6908 101.701 56.6944 101.748 56.7389C101.795 56.7846 101.818 56.8569 101.818 56.9559V58.3239C101.818 58.4234 101.795 58.5225 101.748 58.6212C101.701 58.7211 101.646 58.7893 101.582 58.8262L100.75 59.3088C100.475 59.4681 100.226 59.5515 100.001 59.5599C99.7763 59.5684 99.5853 59.5034 99.4272 59.3646C99.2702 59.2262 99.1472 59.0172 99.0597 58.7387C98.9726 58.4595 98.9283 58.1125 98.9283 57.6973V55.4223L98.2804 55.7982C98.2161 55.8355 98.1606 55.8319 98.1138 55.7861C98.0675 55.7416 98.0439 55.6694 98.0439 55.5695V54.2019C98.0439 54.1028 98.0675 54.0037 98.1138 53.9042C98.1606 53.8055 98.2161 53.7365 98.2804 53.6992L98.9283 53.3237V51.1165C98.9283 51.0174 98.9518 50.9183 98.9982 50.8188C99.0449 50.7197 99.1004 50.6511 99.1647 50.6138L100.268 49.9739C100.332 49.9366 100.388 49.9411 100.435 49.9856C100.481 50.0313 100.505 50.1031 100.505 50.2022V52.4099L101.494 51.8358C101.558 51.7989 101.614 51.8029 101.661 51.8478C101.707 51.8928 101.731 51.965 101.731 52.0645V53.4316C101.731 53.5315 101.707 53.6306 101.661 53.7297C101.614 53.8296 101.558 53.897 101.494 53.9347L100.505 54.5084V56.7024Z" fill="#33535F"/>
<path d="M105.706 53.2933C105.724 53.0305 105.724 52.7774 105.706 52.5351C105.689 52.2294 105.622 51.9931 105.505 51.8254C105.388 51.6589 105.193 51.6549 104.918 51.8138C104.79 51.8888 104.679 51.9847 104.586 52.1018C104.492 52.2189 104.415 52.3477 104.354 52.4869C104.292 52.6261 104.244 52.769 104.209 52.9166C104.174 53.0626 104.151 53.207 104.139 53.3494C104.127 53.4915 104.121 53.6527 104.121 53.8333C104.121 54.0138 104.127 54.1682 104.139 54.2966C104.151 54.4258 104.174 54.5429 104.209 54.6492C104.244 54.7552 104.292 54.8422 104.354 54.9104C104.415 54.979 104.492 55.0175 104.586 55.0263C104.679 55.036 104.79 55.0027 104.918 54.9285C105.193 54.7692 105.388 54.5385 105.505 54.2364C105.622 53.934 105.689 53.6194 105.706 53.2933ZM105.312 56.7987C105.143 56.897 104.994 56.956 104.866 56.9764C104.737 56.9969 104.626 56.9933 104.533 56.9664C104.439 56.9387 104.361 56.897 104.296 56.8392C104.233 56.7819 104.18 56.7241 104.139 56.6667V59.5508C104.139 59.6499 104.115 59.7497 104.069 59.8484C104.022 59.9479 103.967 60.0161 103.903 60.0534L102.799 60.6937C102.735 60.7306 102.68 60.7266 102.633 60.6813C102.586 60.6363 102.562 60.5645 102.562 60.4646V51.5819C102.562 51.4832 102.586 51.3837 102.633 51.2842C102.68 51.1855 102.735 51.1165 102.799 51.0796L103.859 50.465C103.923 50.4277 103.978 50.4321 104.025 50.4771C104.072 50.5216 104.095 50.5942 104.095 50.6933V51.0046C104.147 50.8846 104.205 50.7563 104.266 50.6219C104.327 50.4863 104.403 50.3547 104.493 50.2255C104.584 50.0963 104.695 49.9688 104.826 49.8432C104.957 49.7168 105.12 49.5989 105.312 49.4866C105.575 49.3345 105.823 49.2515 106.057 49.2374C106.29 49.2242 106.495 49.2956 106.669 49.4513C106.845 49.6069 106.986 49.848 107.094 50.173C107.202 50.4987 107.262 50.9244 107.274 51.4499C107.279 51.5819 107.283 51.7632 107.283 51.9931C107.283 52.2234 107.279 52.4075 107.274 52.5471C107.262 53.0863 107.202 53.5817 107.094 54.0322C106.986 54.4832 106.845 54.8875 106.669 55.2466C106.495 55.6052 106.29 55.9157 106.057 56.1773C105.823 56.4389 105.575 56.6467 105.312 56.7987Z" fill="#33535F"/>
<path d="M109.708 53.749C109.708 53.8485 109.684 53.9472 109.638 54.0463C109.591 54.1462 109.535 54.2144 109.471 54.2513L108.324 54.9164C108.26 54.9541 108.204 54.9501 108.158 54.9048C108.111 54.8594 108.088 54.7876 108.088 54.6882V52.9142C108.088 52.8151 108.111 52.716 108.158 52.6161C108.204 52.5174 108.26 52.4492 108.324 52.4115L109.471 51.7464C109.535 51.7094 109.591 51.7135 109.638 51.758C109.684 51.8037 109.708 51.8755 109.708 51.975V53.749ZM109.708 49.0096C109.708 49.1091 109.684 49.2081 109.638 49.3072C109.591 49.4067 109.535 49.4749 109.471 49.5126L108.324 50.1774C108.26 50.2147 108.204 50.2107 108.158 50.1653C108.111 50.1204 108.088 50.0486 108.088 49.9491V48.1751C108.088 48.076 108.111 47.977 108.158 47.8775C108.204 47.7776 108.26 47.7098 108.324 47.6725L109.471 47.0077C109.535 46.97 109.591 46.974 109.638 47.019C109.684 47.0643 109.708 47.1369 109.708 47.2356V49.0096Z" fill="#33535F"/>
<path d="M113.351 41.7647C113.38 41.6488 113.423 41.5313 113.482 41.4113C113.54 41.2918 113.625 41.1999 113.736 41.1353L114.821 40.5059C114.874 40.475 114.919 40.4782 114.957 40.5151C114.995 40.552 115.014 40.6106 115.014 40.692C115.014 40.7281 115.008 40.7722 114.997 40.8244L112.046 53.4898C112.022 53.5933 111.981 53.7076 111.923 53.8316C111.865 53.9559 111.777 54.0514 111.66 54.1192L110.592 54.7386C110.54 54.7691 110.494 54.7659 110.457 54.7298C110.418 54.6933 110.399 54.6335 110.399 54.5529C110.399 54.5168 110.405 54.4727 110.417 54.4209L113.351 41.7647Z" fill="#33535F"/>
<path d="M116.354 40.0229C116.384 39.907 116.427 39.7894 116.486 39.6695C116.544 39.5503 116.629 39.4581 116.74 39.3935L117.826 38.764C117.878 38.7331 117.923 38.7364 117.962 38.7733C117.999 38.8102 118.018 38.8687 118.018 38.9506C118.018 38.9863 118.013 39.0304 118 39.0826L115.05 51.748C115.026 51.8515 114.985 51.9658 114.927 52.0898C114.869 52.2145 114.781 52.3096 114.665 52.3774L113.596 52.9968C113.544 53.0273 113.498 53.0245 113.461 52.988C113.422 52.9515 113.404 52.8921 113.404 52.8111C113.404 52.775 113.409 52.7308 113.421 52.6791L116.354 40.0229Z" fill="#33535F"/>
<path d="M122.142 39.8624C122.23 39.8118 122.297 39.8098 122.344 39.8544C122.39 39.8993 122.423 39.9535 122.44 40.0152L123.088 42.7131L123.737 39.2638C123.754 39.1816 123.786 39.0905 123.833 38.991C123.879 38.892 123.946 38.8161 124.034 38.766L125.12 38.1365C125.178 38.1024 125.228 38.1053 125.269 38.145C125.309 38.1843 125.33 38.2497 125.33 38.3395C125.33 38.3756 125.327 38.4134 125.321 38.4527L123.929 45.5297C123.911 45.6208 123.881 45.7155 123.837 45.8126C123.793 45.9105 123.727 45.9851 123.639 46.036L122.641 46.6145C122.554 46.6651 122.49 46.6667 122.449 46.6177C122.408 46.5696 122.376 46.511 122.353 46.4432L121.731 43.9608L121.109 47.1645C121.086 47.2588 121.054 47.3547 121.013 47.4506C120.972 47.5464 120.908 47.6199 120.82 47.6708L119.822 48.2493C119.734 48.3002 119.669 48.3022 119.625 48.2553C119.581 48.2088 119.551 48.1494 119.533 48.0784L118.141 42.6164L118.131 42.5133C118.131 42.4235 118.152 42.3344 118.193 42.2474C118.234 42.1607 118.283 42.1001 118.342 42.0664L119.428 41.4366C119.515 41.386 119.582 41.3836 119.629 41.4286C119.676 41.4735 119.708 41.5273 119.725 41.5894L120.373 44.2873L121.022 40.838C121.039 40.7558 121.071 40.6647 121.118 40.5652C121.165 40.4662 121.232 40.3903 121.319 40.3398L122.142 39.8624Z" fill="#33535F"/>
<path d="M129.726 35.4652C129.814 35.4143 129.88 35.4119 129.927 35.4572C129.974 35.5021 130.006 35.5563 130.024 35.6181L130.671 38.3156L131.32 34.8663C131.337 34.7844 131.369 34.693 131.416 34.5939C131.463 34.4944 131.53 34.4194 131.617 34.3684L132.703 33.739C132.761 33.7053 132.811 33.7077 132.852 33.7474C132.893 33.7867 132.913 33.8517 132.913 33.942C132.913 33.9781 132.91 34.0158 132.905 34.0555L131.512 41.1322C131.495 41.2237 131.464 41.3183 131.42 41.4154C131.377 41.5133 131.311 41.5875 131.223 41.6385L130.225 42.217C130.137 42.2679 130.073 42.2691 130.032 42.2202C129.992 42.172 129.96 42.1135 129.936 42.0461L129.315 39.5632L128.693 42.767C128.669 42.862 128.637 42.9575 128.596 43.053C128.556 43.1493 128.491 43.2223 128.403 43.2732L127.405 43.8521C127.317 43.9035 127.252 43.9047 127.208 43.8578C127.164 43.8116 127.134 43.7518 127.117 43.6816L125.724 38.2193L125.715 38.1158C125.715 38.0259 125.736 37.9373 125.777 37.8502C125.817 37.7632 125.867 37.703 125.925 37.6693L127.011 37.0394C127.099 36.9885 127.166 36.9861 127.213 37.031C127.26 37.0764 127.291 37.1301 127.309 37.1923L127.957 39.8898L128.605 36.4405C128.623 36.3582 128.654 36.2672 128.701 36.1681C128.748 36.0686 128.815 35.9932 128.903 35.9422L129.726 35.4652Z" fill="#33535F"/>
<path d="M137.309 31.0679C137.397 31.017 137.464 31.0146 137.511 31.0595C137.557 31.1049 137.589 31.1586 137.607 31.2204L138.255 33.9187L138.903 30.4686C138.92 30.3868 138.952 30.2953 139 30.1962C139.046 30.0971 139.113 30.0221 139.201 29.9711L140.286 29.3417C140.345 29.3072 140.395 29.3108 140.435 29.3497C140.476 29.3894 140.497 29.4548 140.497 29.5447C140.497 29.5808 140.494 29.6185 140.488 29.6574L139.096 36.7345C139.078 36.8264 139.048 36.9206 139.004 37.0181C138.96 37.116 138.894 37.1898 138.806 37.2408L137.808 37.8197C137.721 37.8706 137.657 37.8714 137.616 37.8229C137.575 37.7743 137.543 37.7162 137.519 37.6488L136.898 35.1659L136.276 38.3697C136.253 38.4648 136.221 38.5602 136.18 38.6557C136.139 38.752 136.074 38.825 135.987 38.876L134.989 39.4548C134.901 39.5054 134.836 39.5074 134.791 39.4605C134.748 39.4139 134.718 39.3546 134.7 39.2839L133.308 33.8216L133.298 33.7185C133.298 33.6286 133.319 33.54 133.36 33.4529C133.401 33.3663 133.45 33.3057 133.508 33.2716L134.594 32.6421C134.682 32.5912 134.749 32.5888 134.796 32.6333C134.843 32.6791 134.874 32.7328 134.892 32.7946L135.54 35.4925L136.188 32.0428C136.206 31.9606 136.238 31.8695 136.285 31.7704C136.332 31.6713 136.399 31.5959 136.486 31.5449L137.309 31.0679Z" fill="#33535F"/>
<path d="M142.432 34.7732C142.432 34.8726 142.409 34.9717 142.362 35.0708C142.316 35.1703 142.26 35.2385 142.196 35.2754L141.049 35.941C140.984 35.9779 140.929 35.9743 140.882 35.9289C140.835 35.8836 140.812 35.8118 140.812 35.7123V33.9387C140.812 33.8392 140.835 33.7397 140.882 33.6402C140.929 33.5416 140.984 33.473 141.049 33.4356L142.196 32.7709C142.26 32.7336 142.316 32.7372 142.362 32.7825C142.409 32.8279 142.432 32.8997 142.432 32.9992V34.7732Z" fill="#33535F"/>
<path d="M78.0018 48.878L78.0026 48.8764L77.9711 48.8571L77.9679 48.8551L69.9769 44.0904L69.9697 44.086L69.9258 44.0591L69.925 44.0611C66.4056 41.9301 61.7092 42.2659 56.6584 45.5784C46.5105 52.233 38.7778 68.3741 39.3866 81.63C39.6903 88.2373 42.0098 92.8797 45.516 95.0512L45.5152 95.0528L45.5463 95.0717L45.5503 95.0741L53.5425 99.84L53.5461 99.842L53.5828 99.8649L53.5836 99.8629C57.1042 102 61.8042 101.666 66.8598 98.3509C77.0073 91.6962 84.7402 75.5551 84.1311 62.2992C83.8275 55.6919 81.508 51.0495 78.0018 48.878Z" fill="#273E47"/>
<path d="M53.2859 99.6763L45.5522 95.0736H45.5466L45.5126 95.0496C42.0085 92.8732 39.69 88.2308 39.3872 81.6324C39.1152 75.7207 40.5062 69.2386 43.0226 63.2832L43.0733 63.1524L51.0164 68.0475C48.494 74.0029 47.1088 80.485 47.3804 86.3971C47.6775 92.8628 49.9052 97.445 53.2859 99.6763Z" fill="#17282F"/>
<path d="M66.8597 98.3508C77.0072 91.6962 84.7397 75.555 84.131 62.2991C83.5218 49.0428 74.8019 43.6916 64.654 50.3466C54.5062 57.0012 46.7736 73.1424 47.3828 86.3983C47.9919 99.6542 56.7118 105.006 66.8597 98.3508Z" fill="#33535F"/>
<path d="M71.7551 55.5559C70.2257 55.5559 68.5497 56.063 66.8294 57.0683C59.6708 61.2501 53.8475 72.5427 53.8475 82.2406C53.8475 87.2123 55.4017 90.9617 58.1114 92.527C60.2851 93.7819 63.1087 93.5252 66.0609 91.7993C73.219 87.6167 79.0423 76.3245 79.0423 66.627C79.0423 61.6553 77.4885 57.9059 74.7784 56.3402C73.8713 55.8162 72.8507 55.5559 71.7551 55.5559ZM61.1323 94.8502C59.7751 94.8502 58.4981 94.5205 57.3497 93.8573C54.1531 92.0103 52.3193 87.7768 52.3193 82.2406C52.3193 72.0561 58.4837 60.1685 66.0609 55.7416C69.5063 53.7281 72.8731 53.4694 75.5405 55.0103C78.7367 56.8565 80.5705 61.0908 80.5705 66.627C80.5705 76.8111 74.4061 88.6983 66.8294 93.126C64.867 94.2725 62.9293 94.8502 61.1323 94.8502Z" fill="white"/>
<path d="M61.1306 69.3839C59.4506 69.3839 57.904 68.8584 56.5684 67.8073L57.275 66.9015C59.6096 68.7388 62.7643 68.6594 66.157 66.6764C69.6728 64.622 72.9769 60.8169 75.4589 55.9631L76.4787 56.4886C73.8968 61.5366 70.4361 65.5078 66.7338 67.6713C64.7802 68.8122 62.8829 69.3839 61.1306 69.3839Z" fill="white"/>
<path d="M57.4319 92.9042L56.4121 92.3782C58.9932 87.3311 62.4543 83.3599 66.157 81.196C69.9839 78.9606 73.5935 78.9129 76.3224 81.0596L75.6154 81.9654C73.2804 80.1289 70.1261 80.2095 66.7337 82.1913C63.2172 84.2453 59.9139 88.05 57.4319 92.9042Z" fill="white"/>
<path d="M67.9216 56.5407C67.5402 56.5407 67.1459 56.6611 66.7337 56.9026C63.1916 58.9718 60.1987 68.8246 60.1987 78.4178C60.1987 86.3217 62.1028 90.9593 63.9897 92.0493C64.6739 92.4452 65.3837 92.4171 66.157 91.965C69.6995 89.8958 72.6916 80.0426 72.6916 70.4494C72.6916 62.5455 70.7875 57.9075 68.901 56.818C68.5815 56.6334 68.2564 56.5407 67.9216 56.5407ZM64.9659 93.4774C64.435 93.4774 63.9146 93.3338 63.4185 93.047C60.7255 91.4912 59.0527 85.886 59.0527 78.4178C59.0527 68.1226 62.1735 58.2349 66.157 55.9073C67.2849 55.249 68.4301 55.2181 69.4722 55.8198C72.1648 57.3756 73.8376 62.9811 73.8376 70.4494C73.8376 80.7442 70.7168 90.6323 66.7337 92.9599C66.1434 93.3045 65.5486 93.4774 64.9659 93.4774Z" fill="white"/>
<path d="M67.0184 92.4624H65.8721V56.4047H67.0184V92.4624Z" fill="white"/>
<path d="M53.3722 82.738L52.7954 81.7431L79.5188 66.1295L80.0951 67.1244L53.3722 82.738Z" fill="white"/>
<path d="M159.943 49.0103C159.81 48.7323 159.645 48.557 159.466 48.4519H159.47V48.4515L158.279 47.7607V47.7639C157.761 47.465 157.128 47.7607 156.793 47.9673L156.05 47.5364C155.148 46.99 153.895 48.1338 153.614 48.4082L153.294 48.222V48.2229C152.869 47.9661 152.292 48.1282 151.781 48.3877V44.0406C151.781 43.564 151.618 43.2271 151.354 43.0618L151.355 43.061L151.343 43.0537L151.322 43.0421L150.154 42.3637L150.151 42.3621L150.143 42.3573L150.143 42.3581C149.867 42.2037 149.49 42.2281 149.073 42.4704C148.229 42.9595 147.544 44.1497 147.544 45.1286V58.4443C147.484 58.4146 147.423 58.3861 147.362 58.3593C146.318 57.6203 145.222 57.1806 144.254 57.3539C143.33 57.5188 142.505 58.3087 142.265 58.7331C141.759 59.6282 142.593 60.1894 143.667 61.4234C144.732 62.6462 145.671 64.1189 146.641 65.0275C147.611 65.9362 148.314 66.1725 148.314 66.1725V67.9144L149.494 68.5988L158.473 63.3919V61.6505C158.473 61.6505 159.587 57.1886 159.943 55.3244C160.299 53.4597 160.628 50.4401 159.943 49.0103Z" fill="#26B6A6"/>
<path d="M149.494 66.858C149.476 66.852 148.851 66.635 147.975 65.8523C148.864 66.6454 149.494 66.8568 149.494 66.8568V66.858ZM147.602 65.4968C146.923 64.802 146.253 63.8593 145.54 62.9498C146.254 63.8585 146.923 64.8016 147.602 65.4968ZM142.377 59.9563C142.211 59.7164 142.114 59.4909 142.113 59.255C142.113 59.0893 142.16 58.9184 142.265 58.7331C142.505 58.3087 143.33 57.5187 144.254 57.3539C144.396 57.3282 144.541 57.3162 144.688 57.3162C145.541 57.3162 146.467 57.727 147.357 58.3556C146.851 58.1301 146.348 58.0006 145.868 58.0006C145.721 58.0006 145.576 58.0126 145.434 58.0379C144.51 58.2032 143.685 58.9935 143.445 59.4175C143.415 59.4712 143.389 59.5238 143.368 59.5752L142.189 58.8904C142.137 59.0163 142.113 59.1367 142.114 59.2538C142.114 59.4901 142.211 59.7156 142.377 59.9563ZM151.781 49.8772V48.4021L151.781 48.4029V49.876C151.781 49.8768 151.781 49.8768 151.781 49.8772V49.8267V49.8772ZM152.552 49.3048C152.673 49.2281 152.803 49.1519 152.937 49.0821L151.781 48.4029V48.3889L151.781 48.3913V48.3877C152.111 48.2204 152.468 48.0932 152.794 48.0932C152.973 48.0932 153.143 48.1317 153.294 48.2228V48.222L153.614 48.4081H153.614L154.392 48.8623L154.397 48.8651C154.267 48.8037 154.124 48.7768 153.974 48.7768C153.507 48.7768 152.975 49.0376 152.552 49.3048ZM159.967 49.0613C159.959 49.044 159.951 49.0271 159.943 49.0103C159.933 48.9878 159.922 48.9662 159.911 48.9453C159.922 48.9662 159.933 48.9878 159.943 49.0103C159.951 49.0271 159.959 49.044 159.967 49.0613ZM159.909 48.9429C159.909 48.9421 159.909 48.9413 159.908 48.9401C159.909 48.9413 159.909 48.9421 159.909 48.9429ZM155.264 48.6874C155.357 48.6167 155.459 48.5437 155.567 48.4743L154.412 47.7755C154.208 47.9039 154.026 48.0439 153.883 48.1646C154.26 47.8465 154.905 47.3904 155.511 47.3904C155.697 47.3904 155.88 47.4333 156.05 47.5364L156.793 47.9673C157.026 47.8236 157.403 47.6371 157.785 47.6371C157.953 47.6371 158.121 47.6728 158.279 47.7639V47.7607L159.448 48.439C159.294 48.3532 159.131 48.3191 158.968 48.3191C158.778 48.3191 158.589 48.3656 158.418 48.4298L157.206 47.7619C157.046 47.8252 156.904 47.8995 156.794 47.9681L157.158 48.1811C157.009 48.1065 156.851 48.0748 156.692 48.0748C156.182 48.0748 155.646 48.3961 155.264 48.6874ZM148.724 45.8138L147.544 45.129V45.1286C147.544 44.1497 148.229 42.9594 149.073 42.4704C149.317 42.328 149.549 42.261 149.754 42.261C149.898 42.261 150.029 42.2943 150.143 42.3581L150.143 42.3573L150.151 42.3621L150.154 42.3637L151.3 43.0288C151.192 42.9735 151.069 42.945 150.935 42.945C150.73 42.945 150.498 43.0124 150.252 43.1544C149.408 43.6438 148.724 44.8341 148.724 45.813V45.8138ZM151.781 44.0406C151.781 44.0382 151.781 44.0358 151.781 44.0334C151.781 44.0358 151.781 44.0382 151.781 44.0406ZM151.781 44.0314C151.781 44.0294 151.78 44.0273 151.78 44.0253C151.78 44.0273 151.781 44.0294 151.781 44.0314ZM151.78 44.0241C151.78 44.0217 151.78 44.0193 151.78 44.0173C151.78 44.0193 151.78 44.0217 151.78 44.0241ZM151.78 44.0149C151.78 44.0133 151.78 44.0117 151.78 44.0101C151.78 44.0117 151.78 44.0133 151.78 44.0149ZM151.78 44.0073C151.78 44.0053 151.78 44.0033 151.78 44.0013C151.78 44.0033 151.78 44.0053 151.78 44.0073ZM151.78 43.9981C151.78 43.9969 151.78 43.9957 151.78 43.9949C151.78 43.9957 151.78 43.9969 151.78 43.9981Z" fill="#9853EB"/>
<path d="M145.383 63.5922C144.917 62.9956 144.442 62.3505 143.942 61.7468C144.443 62.3505 144.917 62.9956 145.383 63.5922Z" fill="#BDE9E1"/>
<path d="M149.495 68.5996L148.314 67.9148V66.1729C148.314 66.1729 147.613 65.9366 146.64 65.0284C146.219 64.6332 145.805 64.1326 145.383 63.5922C145.805 64.1326 146.221 64.6332 146.641 65.0276C147.611 65.9362 148.314 66.1725 148.314 66.1725V67.9144L149.494 68.5988L149.495 68.5984V68.5996Z" fill="#A5E0D0"/>
<path d="M143.942 61.7467C143.852 61.638 143.76 61.5301 143.668 61.4246C143.133 60.8096 142.657 60.3615 142.377 59.9563C142.657 60.3615 143.133 60.8092 143.668 61.4234C143.76 61.5297 143.851 61.6376 143.942 61.7467Z" fill="#A5E0D0"/>
<path d="M149.494 68.5988L148.314 67.9144V66.1725C148.314 66.1725 147.611 65.9362 146.641 65.0275C146.22 64.6332 145.805 64.1325 145.383 63.5921C144.917 62.9956 144.443 62.3505 143.942 61.7467C143.851 61.6376 143.76 61.5297 143.668 61.4234C143.133 60.8092 142.657 60.3615 142.377 59.9563C142.211 59.7156 142.114 59.4902 142.114 59.2539C142.113 59.1367 142.137 59.0164 142.189 58.8904L143.368 59.5752C143.317 59.7016 143.293 59.8219 143.294 59.9395C143.295 60.5737 143.996 61.1293 144.848 62.1078C145.084 62.379 145.314 62.6626 145.54 62.9499C146.253 63.8593 146.923 64.8021 147.602 65.4969C147.675 65.5715 147.748 65.6433 147.821 65.7119C147.874 65.7605 147.925 65.8074 147.975 65.8523C148.851 66.635 149.476 66.8521 149.494 66.8581V68.5988Z" fill="#9853EB"/>
<path d="M147.544 58.4431H147.544V45.1286L147.544 45.129V58.4431Z" fill="#A5E0D0"/>
<path d="M148.724 59.1757C148.337 58.8864 147.94 58.6369 147.544 58.4431V45.129L148.724 45.8138V59.1757Z" fill="#9853EB"/>
<path d="M151.782 49.8761V48.403L152.938 49.0822C152.803 49.152 152.673 49.2282 152.553 49.3048C152.122 49.5772 151.803 49.8572 151.782 49.8761Z" fill="#9853EB"/>
<path d="M153.615 48.4082C153.67 48.354 153.763 48.2662 153.884 48.1647C153.763 48.2666 153.67 48.354 153.615 48.4082Z" fill="#A5E0D0"/>
<path d="M154.737 49.1508C154.639 49.0176 154.524 48.9249 154.397 48.8651L154.392 48.8623L153.614 48.4082H153.615C153.67 48.354 153.763 48.2666 153.883 48.1647C154.026 48.0439 154.208 47.9039 154.412 47.7755L155.567 48.4744C155.459 48.5438 155.357 48.6168 155.265 48.6874C155.115 48.8017 154.989 48.9117 154.898 48.9955C154.797 49.0886 154.738 49.1496 154.737 49.1504V49.1508Z" fill="#9853EB"/>
<path d="M157.74 48.8125C157.575 48.4888 157.376 48.2894 157.158 48.1811L156.794 47.968C156.904 47.8994 157.046 47.8252 157.206 47.7618L158.418 48.4298C158.032 48.5754 157.74 48.8125 157.74 48.8125Z" fill="#9853EB"/>
<path d="M151.782 48.403L151.781 48.4022V48.3922L151.782 48.39V48.403Z" fill="#7ED3C2"/>
<path d="M149.494 68.5988V66.8569C149.494 66.8569 148.791 66.6206 147.821 65.7119C146.852 64.8033 145.913 63.3306 144.848 62.1078C143.774 60.8738 142.94 60.3125 143.445 59.4175C143.685 58.9935 144.51 58.2032 145.434 58.0379C146.459 57.855 147.627 58.3572 148.725 59.1756V45.813C148.725 44.8341 149.409 43.6439 150.253 43.1544C151.097 42.665 151.781 43.0622 151.781 44.0406V49.8773C151.781 49.8773 153.887 47.999 154.738 49.1508C154.738 49.1508 156.806 46.9744 157.74 48.8126C157.74 48.8126 159.259 47.5806 159.944 49.0103C160.629 50.4401 160.3 53.4597 159.944 55.3244C159.588 57.1886 158.473 61.6505 158.473 61.6505V63.3919L149.494 68.5988Z" fill="#26B6A6"/>
<path d="M149.494 68.5988V66.8569C149.494 66.8569 148.864 66.6455 147.975 65.8523C147.924 65.8074 147.873 65.7605 147.821 65.7119C147.748 65.6433 147.675 65.5715 147.602 65.4969C146.923 64.8017 146.254 63.8585 145.539 62.9499C145.314 62.6626 145.084 62.379 144.848 62.1078C143.996 61.1293 143.295 60.5737 143.293 59.9395C143.293 59.7738 143.34 59.6029 143.445 59.4175C143.685 58.9935 144.51 58.2032 145.434 58.0379C145.576 58.0126 145.721 58.0006 145.868 58.0006C146.781 58.0006 147.778 58.4708 148.724 59.1756V45.813C148.724 44.8341 149.408 43.6439 150.252 43.1544C150.498 43.0124 150.73 42.945 150.935 42.945C151.436 42.945 151.781 43.3462 151.781 44.0406V48.3877V48.3913V48.4022V49.8773V52.383C151.781 52.383 151.972 49.7204 152.946 49.087L152.912 49.097C152.295 49.4203 151.785 49.8725 151.781 49.8773C151.788 49.8701 153.017 48.7769 153.974 48.7769C154.269 48.7769 154.537 48.8804 154.737 49.1508V51.5867C154.737 51.5867 155.006 49.0817 155.565 48.4764C155.283 48.6573 155.045 48.8603 154.897 48.9955C155.221 48.6978 155.982 48.0748 156.691 48.0748C157.085 48.0748 157.462 48.2666 157.74 48.8126C157.74 48.8126 158.348 48.3191 158.968 48.3191C159.328 48.3191 159.692 48.4852 159.943 49.0103C160.235 49.6193 160.343 50.5163 160.343 51.4896C160.343 52.8022 160.148 54.2537 159.943 55.3244C159.587 57.1886 158.473 61.6505 158.473 61.6505V63.3919L149.494 68.5988ZM158.416 48.4307C158.032 48.5759 157.742 48.811 157.74 48.8126V51.2577C157.74 51.2577 157.888 48.7945 158.416 48.4307Z" fill="#FE0847"/>
<path d="M151.781 52.3831V49.8773C151.786 49.8725 152.295 49.4204 152.912 49.0971L152.947 49.087C151.972 49.7205 151.781 52.3831 151.781 52.3831Z" fill="#9853EB"/>
<path d="M154.737 49.1508V49.1503C154.738 49.1495 154.797 49.0876 154.9 48.993C154.797 49.0884 154.737 49.1508 154.737 49.1508Z" fill="#6FCDB6"/>
<path d="M154.737 51.5867V49.1508C154.737 49.1508 154.796 49.0894 154.897 48.9955C155.045 48.8603 155.283 48.6573 155.565 48.4764C155.007 49.0818 154.737 51.5867 154.737 51.5867Z" fill="#9853EB"/>
<path d="M157.74 51.2577V48.8126C157.742 48.8109 158.033 48.5759 158.416 48.4306C157.888 48.7945 157.74 51.2577 157.74 51.2577Z" fill="#9853EB"/>
<path d="M136.392 134.386C136.392 134.386 134.003 133.54 131.158 132.377L133.804 130.843C135.997 131.82 137.862 132.619 138.749 133.019L136.392 134.386Z" fill="#29444E"/>
<path d="M137.666 138.688L136.392 134.386L138.749 133.019C138.893 133.083 139.011 133.137 139.101 133.18C139.881 133.553 140.289 135.014 140.648 136.958L137.666 138.688Z" fill="#1F3239"/>
<path d="M131.159 132.377L133.616 130.952L132.125 130.088C132.698 130.348 133.261 130.601 133.804 130.843L131.159 132.377ZM122.709 124.632L122.154 124.31C122.189 124.253 122.226 124.195 122.265 124.137C122.401 124.3 122.549 124.465 122.709 124.632Z" fill="#122026"/>
<path d="M131.158 132.377C128.266 131.194 124.903 129.684 123.102 128.403C121.453 127.229 121.233 125.823 122.154 124.31L122.709 124.632C123.694 125.655 125.174 126.753 127.636 127.971C129.088 128.689 130.641 129.414 132.125 130.087L133.616 130.952L131.158 132.377Z" fill="#1F3239"/>
<path d="M149.028 140.738C149.028 140.738 146.896 145.987 146.787 148.057C146.674 150.214 146.155 150.929 146.519 153.276C146.599 153.787 146.866 154.812 146.932 155.226C146.992 155.596 146.854 155.893 146.38 155.992C145.448 156.186 143.9 154.427 143.163 152.513C142.427 150.6 141.382 146.283 141.318 145.766C141.255 145.268 141.42 144.648 141.613 144.256C141.95 143.568 142.041 143.474 142.041 143.474C142.349 142.535 142.497 140.749 142.758 139.514L149.028 140.738Z" fill="#F9A78D"/>
<path d="M139.495 147.733C139.495 147.733 139.259 148.164 139.245 148.44C139.223 148.87 140.19 150.288 140.57 150.804C140.949 151.321 141.321 151.967 141.269 153.257C141.213 154.635 141.819 155.961 142.705 157.097C143.59 158.233 145.127 159.477 147.39 160.177C149.653 160.876 150.451 159.737 150.451 159.737C150.451 159.737 151.152 158.641 150.731 158.191C150.309 157.742 139.495 147.733 139.495 147.733Z" fill="#17282F"/>
<path d="M142.041 143.474C141.972 143.471 141.85 143.452 141.673 143.666C141.606 143.748 141.193 144.77 140.851 145.306C140.484 145.88 139.61 146.861 139.495 147.733C140.018 149.418 141.592 150.59 141.828 152.181C142.065 153.771 142.091 155.618 144.525 157.564C146.96 159.511 149.462 159.712 150.361 159.197C151.261 158.681 151.179 157.714 149.925 155.87C148.594 153.914 147.698 149.675 147.697 149.673C147.573 149.087 147.509 148.467 147.462 147.87C147.416 147.289 147.585 146.67 147.63 146.086C147.651 145.81 147.662 145.513 147.516 145.278C147.371 145.042 147.101 144.921 146.847 144.813C146.441 144.64 146.031 144.466 145.597 144.387C145.163 144.309 144.696 144.334 144.309 144.544C144.027 144.695 143.798 144.937 143.503 145.06C143.108 145.224 142.622 145.136 142.308 144.845C141.846 144.415 141.914 144.029 141.985 143.742L142.041 143.474Z" fill="#33535F"/>
<path d="M143.103 156.004C143.103 156.004 144.046 154.078 146.63 154.087C149.215 154.098 150.109 155.419 150.502 156.195C150.97 157.12 151.458 158.797 150.391 159.278C149.239 159.798 147.905 159.637 145.806 158.58C143.707 157.524 143.103 156.004 143.103 156.004Z" fill="#FAFAF9"/>
<path d="M143.574 148.185C143.647 148.22 143.734 148.223 143.81 148.184C144.209 147.979 146.321 147.536 147.551 148.682C147.711 148.554 147.678 148.319 147.474 147.989C146.035 147.07 144.035 147.48 143.553 147.727C143.427 147.792 143.382 147.947 143.453 148.072C143.481 148.123 143.524 148.161 143.574 148.185Z" fill="#FAFAF9"/>
<path d="M147.817 150.195C147.905 149.965 147.794 149.611 147.668 149.482C146.248 148.708 144.39 149.095 143.928 149.331C143.802 149.396 143.757 149.55 143.828 149.676C143.856 149.727 143.899 149.765 143.948 149.789C144.022 149.824 144.109 149.826 144.184 149.788C144.572 149.589 146.576 149.17 147.817 150.195Z" fill="#FAFAF9"/>
<path d="M148.871 153.703C148.882 153.385 148.77 153.07 148.541 152.763C147.106 151.894 145.153 152.296 144.678 152.539C144.552 152.604 144.507 152.758 144.577 152.884C144.606 152.935 144.649 152.973 144.698 152.997C144.772 153.032 144.859 153.034 144.934 152.996C145.356 152.78 147.685 152.299 148.871 153.703Z" fill="#FAFAF9"/>
<path d="M144.323 151.393C144.396 151.428 144.484 151.43 144.559 151.392C144.954 151.19 147.023 150.757 148.258 151.854C148.315 151.614 148.247 151.355 148.043 151.086C146.622 150.311 144.765 150.699 144.303 150.935C144.177 151 144.132 151.154 144.203 151.28C144.231 151.331 144.274 151.369 144.323 151.393Z" fill="#FAFAF9"/>
<path d="M151.324 147.183C151.324 147.183 152.381 153.586 153.556 156.07C154.732 158.554 155.335 159.753 156.954 161.633C157.307 162.042 158.11 162.803 158.398 163.134C158.655 163.428 158.696 163.769 158.331 164.12C157.611 164.811 154.559 164.975 152.848 163.688C151.138 162.4 149.58 159.657 148.56 158.62C148.177 158.231 147.817 157.833 147.473 157.41C147.142 157.002 147.233 156.615 147.204 156.159C147.19 155.939 147.221 155.336 147.221 155.336C146.987 154.258 146.354 152.566 146.018 151.516L151.324 147.183Z" fill="#F9A78D"/>
<path d="M146.619 160.173C146.619 160.173 146.588 160.687 146.697 160.955C146.868 161.372 148.414 162.279 149.003 162.598C149.591 162.916 150.23 163.362 150.754 164.605C151.315 165.934 152.478 166.917 153.821 167.595C155.165 168.272 157.172 168.76 159.625 168.407C162.077 168.053 162.325 166.618 162.325 166.618C162.325 166.618 162.502 165.265 161.902 165.029C161.304 164.794 146.619 160.173 146.619 160.173Z" fill="#17282F"/>
<path d="M147.134 155.001C147.068 155.029 146.944 155.065 146.872 155.348C146.844 155.455 146.908 156.607 146.823 157.269C146.731 157.976 146.34 159.297 146.618 160.173C147.863 161.533 149.874 161.936 150.805 163.335C151.736 164.735 152.582 166.47 155.752 167.22C158.921 167.97 161.378 167.037 162 166.146C162.622 165.255 162.114 164.376 160.108 163.194C157.978 161.94 155.245 158.331 155.244 158.329C154.865 157.83 154.529 157.273 154.219 156.729C153.918 156.2 153.801 155.538 153.584 154.965C153.481 154.694 153.36 154.408 153.117 154.251C152.875 154.094 152.566 154.1 152.277 154.112C151.816 154.13 151.35 154.149 150.905 154.27C150.459 154.39 150.03 154.624 149.755 154.996C149.557 155.266 149.447 155.597 149.223 155.845C148.922 156.178 148.423 156.314 147.996 156.178C147.368 155.979 147.26 155.583 147.2 155.28L147.134 155.001Z" fill="#33535F"/>
<path d="M153.711 166.382C153.711 166.382 153.747 164.136 156.197 162.986C158.647 161.836 160.081 162.684 160.798 163.243C161.653 163.908 162.86 165.276 162.065 166.21C161.205 167.218 159.871 167.665 157.415 167.607C154.96 167.549 153.711 166.382 153.711 166.382Z" fill="#FAFAF9"/>
<path d="M150.68 158.772C150.765 158.772 150.849 158.735 150.902 158.665C151.189 158.292 152.991 156.925 154.665 157.457C154.759 157.265 154.624 157.057 154.283 156.836C152.513 156.613 150.803 157.898 150.457 158.348C150.366 158.465 150.392 158.632 150.515 158.719C150.565 158.754 150.622 158.771 150.68 158.772Z" fill="#FAFAF9"/>
<path d="M155.589 158.77C155.571 158.513 155.308 158.227 155.13 158.162C153.443 158.066 151.857 159.266 151.525 159.697C151.434 159.815 151.461 159.981 151.583 160.069C151.633 160.104 151.691 160.121 151.748 160.121C151.833 160.122 151.916 160.085 151.97 160.014C152.249 159.653 153.959 158.357 155.589 158.77Z" fill="#FAFAF9"/>
<path d="M158.146 161.616C158.016 161.31 157.769 161.063 157.416 160.875C155.672 160.697 154.003 161.953 153.661 162.396C153.57 162.514 153.597 162.681 153.719 162.768C153.769 162.804 153.827 162.82 153.884 162.82C153.969 162.821 154.053 162.784 154.107 162.713C154.41 162.32 156.4 160.821 158.146 161.616Z" fill="#FAFAF9"/>
<path d="M152.816 161.471C152.9 161.471 152.984 161.434 153.038 161.364C153.322 160.995 155.087 159.658 156.744 160.142C156.691 159.889 156.511 159.675 156.198 159.511C154.51 159.416 152.925 160.616 152.593 161.047C152.502 161.165 152.528 161.331 152.651 161.418C152.701 161.454 152.758 161.47 152.816 161.471Z" fill="#FAFAF9"/>
<path d="M137.261 110.725C139.874 112.649 148.976 117.926 152.672 121.362C153.739 122.355 154.091 123.661 153.828 126.509C153.472 130.374 150.448 143.546 150.448 143.546C150.031 144.289 149.299 142.879 149.299 142.879L134.876 124.488L137.261 110.725Z" fill="#26B6A6"/>
<path d="M150.541 143.133C150.307 141.926 150.062 140.67 149.822 139.444C149.9 138.71 149.09 133.057 148.404 129.433C148.118 127.922 147.263 127.101 146.428 126.437C146.323 126.354 146.218 126.27 146.111 126.185L153.25 122.044C153.09 121.8 152.903 121.579 152.683 121.372C153.517 122.154 153.91 123.132 153.911 124.901C153.911 125.376 153.883 125.909 153.828 126.509C153.509 129.967 151.055 140.872 150.541 143.133ZM152.681 121.37C152.677 121.368 152.675 121.365 152.671 121.362C152.668 121.358 152.664 121.355 152.66 121.351C152.664 121.355 152.667 121.358 152.671 121.362C152.675 121.365 152.677 121.368 152.681 121.37ZM152.652 121.344C152.651 121.343 152.65 121.342 152.649 121.341C152.65 121.342 152.651 121.343 152.652 121.344ZM147.53 117.447C145.956 116.374 144.287 115.295 142.738 114.304L139.003 116.47C139 116.47 138.997 116.47 138.995 116.47C138.686 116.461 138.404 116.436 138.131 116.406C138.215 115.573 138.185 114.705 137.935 113.991C137.936 113.971 137.936 113.952 137.936 113.932C137.936 113.404 137.885 112.855 137.768 112.293C137.974 112.011 138.138 111.721 138.255 111.426C138.255 111.426 138.254 111.422 138.252 111.414C140.387 112.844 144.176 115.159 147.53 117.447Z" fill="#9853EB"/>
<path d="M149.822 139.444C149.119 135.859 148.453 132.519 148.184 131.334C147.808 129.678 147.801 128.805 145.753 126.984C145.64 126.884 145.502 126.765 145.342 126.631L146.111 126.185C146.218 126.27 146.324 126.354 146.428 126.437C147.263 127.101 148.118 127.922 148.404 129.433C149.09 133.057 149.9 138.71 149.822 139.444ZM138.132 116.406C137.951 116.386 137.775 116.364 137.598 116.343C137.793 115.637 137.929 114.841 137.936 113.991C138.185 114.705 138.215 115.573 138.132 116.406Z" fill="#0B7062"/>
<path d="M137.26 110.725L118.695 114.853C119.601 118.276 119.86 120.043 120.806 121.846C121.756 123.654 122.807 125.583 127.636 127.971C132.285 130.27 137.964 132.638 139.1 133.18C139.956 133.589 140.365 135.309 140.752 137.538C141.157 139.877 141.194 141.706 143.497 146.614C145.752 151.419 146.213 152.457 146.213 152.457C146.213 152.457 149.702 152.822 152.018 150.775C152.018 150.775 148.858 134.3 148.184 131.334C147.808 129.678 147.8 128.805 145.752 126.984C143.997 125.424 136.155 119.463 136.155 119.463C136.155 119.463 139.269 115.262 137.26 110.725Z" fill="#26B6A6"/>
<path d="M146.851 152.482C146.454 152.482 146.213 152.457 146.213 152.457C146.213 152.457 146.082 152.162 145.617 151.156C145.549 151.009 145.473 150.845 145.39 150.665C145.248 150.359 145.083 150.005 144.893 149.596C144.822 149.444 144.747 149.283 144.668 149.114C144.518 148.793 144.354 148.443 144.176 148.061C144.104 147.908 144.03 147.749 143.953 147.585C143.81 147.28 143.658 146.956 143.497 146.614C141.194 141.706 141.157 139.876 140.752 137.538C140.718 137.341 140.683 137.147 140.648 136.958C140.289 135.014 139.881 133.553 139.101 133.18C139.011 133.137 138.893 133.083 138.749 133.018C137.642 132.52 135.015 131.401 132.125 130.087C130.641 129.414 129.088 128.689 127.636 127.971C125.174 126.753 123.694 125.655 122.709 124.632C121.762 123.647 121.272 122.732 120.806 121.846C120.306 120.893 119.998 119.95 119.685 118.768C119.603 118.46 119.522 118.136 119.436 117.79C119.666 117.815 119.903 117.834 120.145 117.849C122.203 118.873 124.097 119.65 125.014 119.65C125.249 119.65 125.419 119.599 125.513 119.488L129.157 120.752V120.751L129.209 120.772C129.547 120.899 129.856 121.142 130.517 121.392L126.619 123.652C126.521 123.709 126.521 123.852 126.619 123.91L138.326 130.699L145.342 126.631C145.502 126.765 145.64 126.884 145.753 126.984C147.801 128.805 147.808 129.678 148.184 131.334C148.858 134.3 152.018 150.775 152.018 150.775C150.31 152.284 147.965 152.482 146.851 152.482ZM132.364 117.151C131.919 117.151 131.436 117.098 130.896 116.972L130.122 116.557C133.503 115.563 136.469 114.072 137.768 112.293C137.886 112.855 137.936 113.404 137.936 113.931C137.936 114.804 137.797 115.62 137.598 116.343C137.378 116.317 137.157 116.293 136.925 116.276C136.757 116.264 136.576 116.246 136.399 116.246C136.257 116.246 136.116 116.257 135.985 116.294C135.699 116.371 135.414 116.455 135.134 116.552C134.242 116.862 133.405 117.151 132.364 117.151Z" fill="#9853EB"/>
<path d="M158.6 79.7488C158.288 79.7176 157.967 79.7994 157.68 79.9346C157.341 80.0951 157.041 80.3273 156.74 80.5508C156.277 80.8922 155.804 81.2171 155.319 81.5244C154.887 81.7976 154.432 82.1037 153.919 82.1888C153.747 82.2177 153.38 82.2233 153.568 81.9613C153.812 81.6191 154.086 81.2942 154.269 80.9155C154.452 80.5364 154.533 80.083 154.372 79.6943C154.324 79.5772 154.248 79.4636 154.133 79.4103C153.971 79.3352 153.888 79.4223 153.795 79.5294C153.697 79.6417 153.58 79.7376 153.467 79.8371C153.236 80.0429 153.004 80.2487 152.776 80.4573C151.439 81.6761 149.815 82.7324 149.244 84.4927C149.161 84.7474 148.783 85.9084 148.771 87.8413C148.759 89.7745 148.645 96.5026 148.645 96.5026C148.645 96.5026 143.325 92.0083 141.017 90.0718C139.904 89.1379 138.349 88.0038 136.636 87.8405C135.423 87.7249 134.716 87.7322 134.716 87.7322L138.345 96.5672C138.345 96.5672 145.206 101.694 148.496 103.459C151.465 105.052 152.909 103.905 153.267 103.069C153.862 101.683 154.472 101.034 153.635 93.3C153.575 92.7011 153.501 90.9889 153.434 90.3911C153.348 89.1431 153.489 87.8742 153.97 87.603C154.856 87.1039 155.724 86.5607 156.487 85.888C156.99 85.4459 157.447 84.946 157.818 84.386C157.974 84.1513 158.244 83.8103 158.273 83.5231C158.303 83.2322 158.176 82.9241 158.264 82.6369C158.324 82.4411 158.455 82.281 158.505 82.0716C158.605 81.6456 158.568 81.1566 158.838 80.7871C158.987 80.5841 159.234 80.4012 159.2 80.1516C159.172 79.9518 158.968 79.8259 158.773 79.7785C158.716 79.7645 158.658 79.7545 158.6 79.7488Z" fill="#F9A78D"/>
<path d="M153.173 83.1048C153.023 84.1474 152.283 85.45 151.786 85.8877C151.786 85.8877 152.615 85.4143 152.965 84.687C153.348 83.8899 153.305 83.4847 153.173 83.1048Z" fill="#F47089"/>
<path d="M134.35 87.5533C136.202 87.6343 137.645 87.6761 139.224 88.5915C140.803 89.507 147.854 95.4351 147.854 95.4351C147.854 95.4351 147.924 92.4171 148.104 90.8269C148.229 89.7248 148.411 89.3782 148.753 89.4332C148.753 89.4332 149.365 90.3751 151.098 90.5055C152.831 90.6359 153.413 89.9134 153.413 89.9134C153.413 89.9134 153.918 89.7942 154.1 90.5055C154.281 91.2168 154.609 98.9265 154.292 101.148C153.976 103.369 152.985 104.402 151.656 104.715C150.328 105.027 147.249 103.157 143.55 100.659C139.852 98.1615 135.837 95.8327 135.837 95.8327L134.35 87.5533Z" fill="#26B6A6"/>
<path d="M151.336 104.749C149.872 104.749 146.977 102.974 143.551 100.659C140.856 98.8391 137.993 97.1089 136.637 96.3041C136.621 95.4857 136.603 94.8073 136.588 94.3636C136.469 90.855 135.948 88.0941 134.353 87.5538C136.204 87.6344 137.646 87.6765 139.224 88.5916C140.477 89.3181 145.178 93.2027 147.064 94.7748C146.669 97.167 148.007 99.7634 148.007 99.7634C148.007 99.7634 147.554 97.5048 147.854 95.4352C147.854 95.4352 147.924 92.4172 148.104 90.8269C148.221 89.7983 148.387 89.4276 148.688 89.4276C148.709 89.4276 148.731 89.4296 148.754 89.4332C148.754 89.4332 149.366 90.3752 151.098 90.5056C151.242 90.5164 151.377 90.5212 151.505 90.5212C152.923 90.5212 153.413 89.9134 153.413 89.9134C153.413 89.9134 153.445 89.9058 153.495 89.9058C153.646 89.9058 153.964 89.9728 154.1 90.5056C154.227 91.0022 154.425 94.9108 154.425 97.981C154.425 99.3077 154.388 100.478 154.292 101.148C153.977 103.37 152.985 104.402 151.657 104.715C151.559 104.738 151.452 104.749 151.336 104.749Z" fill="#FE0847"/>
<path d="M147.855 95.4352C147.855 95.4352 147.555 95.1832 147.064 94.7749C147.067 94.762 147.069 94.7492 147.071 94.7363L147.855 95.4352Z" fill="#D1D2D0"/>
<path d="M148.007 99.7634C148.007 99.7634 146.669 97.167 147.064 94.7749C147.555 95.1832 147.854 95.4352 147.854 95.4352C147.554 97.5048 148.007 99.7634 148.007 99.7634Z" fill="#8DD8C7"/>
<path d="M119.125 89.1825C118.82 90.8077 115.745 106.252 119.242 117.769C125.538 118.515 136.597 115.611 138.255 111.426C138.255 111.426 137.138 107.454 136.654 105.512C136.756 102.326 136.652 96.2451 136.588 94.3636C136.462 90.6351 135.882 87.7511 134.04 87.4783C134.04 87.4783 130.342 87.3319 128.104 87.4238C126.171 87.5032 124.718 87.5241 124.718 87.5241L119.125 89.1825Z" fill="#FAFAF9"/>
<path d="M128.374 113.731C127.967 112.824 120.493 108.19 120.493 108.19C120.493 108.19 120.607 106.043 121.052 102.093C121.497 98.1427 121.628 93.4085 120.211 91.0287L118.781 91.0849C117.973 95.8761 116.331 108.18 119.242 117.769C122.599 118.166 127.309 117.527 131.227 116.208C130.505 115.721 128.698 114.453 128.374 113.731Z" fill="#EDEDEB"/>
<path d="M124.07 83.899C124.082 83.1003 122.557 80.7129 121.867 78.8246C120.712 75.667 120.611 72.8327 123.461 71.6019C123.461 71.6019 125.242 68.5169 129.733 68.3633C134.224 68.21 137.675 72.0172 136.184 77.1076L124.07 83.899Z" fill="#33535F"/>
<path d="M125.179 79.0212C124.593 79.0212 124.38 78.1755 123.977 77.7218C123.575 77.2677 122.188 76.757 121.294 78.0564C120.464 79.2631 121.271 81.0014 122.176 81.6741C123.317 82.521 124.103 81.7038 124.103 81.7038L124 88.0781C124 88.0781 124.202 89.4914 126.795 90.3118C129.789 91.2597 132.226 89.6763 130.442 87.6925L130.509 86.0132C131.359 86.2058 132.521 86.3097 133.404 86.1749C134.402 86.0224 135.202 85.267 135.716 83.7205C136.718 80.7017 136.439 76.6756 135.405 73C134.417 73.7847 129.846 75.2562 125.728 73.7976C125.873 76.3366 125.753 79.0216 125.179 79.0212Z" fill="#F9A78D"/>
<path d="M123.553 80.989C123.553 81.1952 123.387 81.3621 123.181 81.3621C122.976 81.3621 122.81 81.1952 122.81 80.989C122.81 80.7828 122.976 80.6159 123.181 80.6159C123.387 80.6159 123.553 80.7828 123.553 80.989Z" fill="#17282F"/>
<path d="M130.509 86.0132C130.509 86.0132 128.011 85.2802 127.025 84.5858C126.297 84.0735 125.65 83.2579 125.492 82.8299C125.492 82.8299 125.866 84.1754 126.548 84.9533C127.741 86.3144 130.477 86.9435 130.477 86.9435L130.509 86.0132Z" fill="#F47089"/>
<path d="M130.308 78.9867C130.314 79.3453 130.041 79.6402 129.698 79.6458C129.354 79.6514 129.07 79.3654 129.064 79.0067C129.057 78.6485 129.331 78.3532 129.674 78.348C130.017 78.3424 130.301 78.6284 130.308 78.9867Z" fill="#17282F"/>
<path d="M129.628 76.8564L128.284 77.5681C128.095 77.1802 128.243 76.7068 128.614 76.5102C128.985 76.3136 129.44 76.4685 129.628 76.8564Z" fill="#17282F"/>
<path d="M130.113 82.2703L132.252 82.9551C132.041 83.5565 131.391 83.8906 130.8 83.7013C130.21 83.5123 129.902 82.8717 130.113 82.2703Z" fill="#F47089"/>
<path d="M135.384 76.8292L133.907 76.4228C134.005 76.0056 134.414 75.7585 134.822 75.8708C135.23 75.9832 135.482 76.412 135.384 76.8292Z" fill="#17282F"/>
<path d="M135.002 78.494C135.009 78.8523 134.736 79.1475 134.392 79.1528C134.049 79.1584 133.765 78.8723 133.758 78.5137C133.751 78.1554 134.024 77.8602 134.368 77.855C134.711 77.8493 134.995 78.1354 135.002 78.494Z" fill="#17282F"/>
<path d="M135.69 72.9999C137.071 72.0114 137.839 70.69 137.472 68.8703C136.934 69.4139 135.423 69.5109 134.102 68.8779C132.693 68.2023 130.458 67.2856 127.329 67.8938C124.89 68.3684 123.46 70.2315 123.46 71.6019C123.938 72.5827 124.595 73.1054 125.728 73.7975C125.728 73.7975 128.067 75.7199 131.615 75.4996C133.898 75.3576 135.082 74.24 135.082 74.24C135.082 74.24 133.807 74.3527 133.21 73.9547C133.21 73.9547 134.658 73.7389 135.69 72.9999Z" fill="#273E47"/>
<path d="M132.327 81.4739L134.232 80.6009L131.798 77.2299L132.327 81.4739Z" fill="#F47089"/>
<path d="M152.683 121.372C152.682 121.372 152.682 121.371 152.681 121.37C152.682 121.371 152.682 121.372 152.683 121.372ZM152.66 121.351C152.658 121.349 152.654 121.346 152.652 121.344C152.654 121.346 152.658 121.349 152.66 121.351ZM152.649 121.341C151.4 120.184 149.543 118.82 147.53 117.447C149.543 118.82 151.4 120.184 152.649 121.341Z" fill="#29444E"/>
<path d="M146.111 126.185C144.233 124.687 141.965 122.836 140.203 121.384C140.301 121.336 140.39 121.307 140.466 121.307C140.496 121.307 140.524 121.312 140.55 121.322C140.623 121.349 140.705 121.362 140.787 121.362C141.22 121.362 141.671 120.987 140.964 120.282C140.123 119.445 138.903 118.285 137.879 117.944C137.871 117.941 137.863 117.938 137.854 117.936C137.884 117.822 137.913 117.704 137.94 117.583C138.031 117.562 138.122 117.538 138.212 117.508C138.554 117.392 138.88 117.202 139.101 116.915C139.19 116.8 139.253 116.616 139.141 116.524C139.102 116.492 139.052 116.473 139.002 116.47L142.738 114.304C144.287 115.295 145.956 116.374 147.529 117.447C149.543 118.82 151.4 120.184 152.649 121.341C152.65 121.342 152.651 121.343 152.652 121.344C152.654 121.346 152.657 121.349 152.66 121.351C152.664 121.355 152.668 121.358 152.671 121.362C152.674 121.365 152.677 121.368 152.68 121.37C152.681 121.371 152.682 121.372 152.682 121.372C152.903 121.579 153.09 121.8 153.25 122.044L146.111 126.185Z" fill="#9853EB"/>
<path d="M145.341 126.631C144.078 125.57 141.472 123.543 139.357 121.914C139.427 121.871 139.497 121.827 139.565 121.782C139.801 121.628 140.019 121.473 140.203 121.384C141.965 122.836 144.233 124.687 146.111 126.185L145.341 126.631ZM137.855 117.936C137.722 117.89 137.525 117.803 137.159 117.719C137.42 117.667 137.682 117.64 137.94 117.583C137.913 117.704 137.884 117.822 137.855 117.936Z" fill="#0B5B4F"/>
<path d="M138.326 130.699L126.619 123.91C126.52 123.853 126.52 123.709 126.619 123.652L130.516 121.392C130.64 121.439 130.777 121.486 130.929 121.533C131.26 121.635 131.618 121.672 131.984 121.672C132.872 121.672 133.805 121.453 134.504 121.416C134.556 121.413 134.611 121.412 134.667 121.412C135.666 121.412 137.211 121.841 138.078 122.194C138.185 122.238 138.295 122.257 138.406 122.257C138.723 122.257 139.051 122.1 139.357 121.914C141.472 123.543 144.078 125.57 145.341 126.631L138.326 130.699Z" fill="#9853EB"/>
<path d="M158.138 117.291V117.553C158.138 117.936 157.934 118.292 157.603 118.485L138.861 129.352C138.697 129.449 138.509 129.495 138.328 129.495C138.142 129.495 137.956 129.448 137.788 129.351L127.573 123.447C127.244 123.257 127.038 122.898 127.038 122.515V122.152H127.04V122.156C127.04 122.203 127.062 122.246 127.108 122.275L138.328 128.781L158.138 117.291Z" fill="#273E47"/>
<path d="M138.326 128.78V129.495C138.51 129.495 138.696 129.448 138.861 129.352L157.603 118.485C157.935 118.293 158.139 117.937 158.139 117.552V117.29L138.326 128.78Z" fill="#17282F"/>
<path d="M158.139 117.29L147.026 110.847C146.829 110.733 146.586 110.733 146.388 110.847L127.109 122.028C127.015 122.083 127.015 122.22 127.109 122.275L138.326 128.78L158.139 117.29Z" fill="#33535F"/>
<path d="M138.224 127.833L132.23 124.36L149.756 114.197L155.781 117.652L138.224 127.833Z" fill="#273E47"/>
<path d="M155.78 117.651L155.552 117.784L149.755 114.462L132.46 124.493L132.231 124.361L149.755 114.197L155.78 117.651Z" fill="#17282F"/>
<path d="M135.278 118.174L135.388 118.238L138.326 119.941L143.55 116.912L143.659 116.85L140.611 115.082L135.278 118.174Z" fill="#17282F"/>
<path d="M135.389 118.238L138.326 119.941L143.551 116.912L140.611 115.208L135.389 118.238Z" fill="#273E47"/>
<path d="M140.964 120.282C140.123 119.445 138.903 118.285 137.879 117.944C137.747 117.902 137.548 117.808 137.159 117.719C137.512 117.649 137.867 117.624 138.212 117.508C138.554 117.392 138.88 117.202 139.101 116.915C139.19 116.8 139.253 116.616 139.141 116.524C139.101 116.491 139.048 116.472 138.995 116.47C138.227 116.446 137.622 116.327 136.925 116.276C136.62 116.254 136.278 116.213 135.985 116.294C135.699 116.371 135.414 116.455 135.133 116.552C133.859 116.995 132.699 117.394 130.896 116.972L127.651 115.233C127.651 115.233 126.958 115.059 125.937 116.797C124.915 118.534 125.512 119.488 125.512 119.488L129.157 120.752V120.751L129.209 120.772C129.61 120.923 129.971 121.237 130.929 121.533C132.064 121.883 133.517 121.469 134.504 121.416C135.49 121.363 137.162 121.821 138.078 122.194C138.563 122.392 139.1 122.087 139.565 121.782C139.978 121.512 140.335 121.242 140.55 121.322C141.01 121.492 141.804 121.12 140.964 120.282Z" fill="#F9A78D"/>
<path d="M136.734 117.173C136.07 117.106 135.337 117.4 135.337 117.4C135.337 117.4 136.157 117.418 137.159 117.719C137.512 117.649 137.867 117.624 138.212 117.508C138.514 117.405 138.803 117.245 139.019 117.012C138.467 117.388 137.398 117.241 136.734 117.173Z" fill="#F47089"/>
<path d="M119.125 89.1828C120.048 89.549 121.249 93.4135 120.509 97.1328L118.791 108.761C118.791 108.761 120.896 110.013 123.849 111.85C125.897 113.123 127.651 114.291 127.652 115.234C126.312 115.717 125.107 118.196 125.513 119.488C124.597 120.578 116.146 115.873 113.191 113.843C111.821 112.902 111.13 112.531 111.657 108.282C112.241 103.58 112.641 98.3564 113.553 94.8706C114.504 91.232 115.564 89.8194 119.125 89.1828Z" fill="#26B6A6"/>
<path d="M125.014 119.65C122.938 119.65 115.846 115.666 113.191 113.843C112.133 113.116 111.48 112.728 111.48 110.632C111.48 110.015 111.537 109.248 111.657 108.282C112.241 103.58 112.64 98.3561 113.553 94.8703C114.504 91.2317 115.564 89.8192 119.125 89.1825C119.847 89.469 120.739 91.896 120.739 94.7195C120.739 95.5058 120.67 96.3226 120.509 97.1325L118.791 108.76C118.791 108.76 120.895 110.013 123.849 111.85C125.896 113.123 127.651 114.29 127.652 115.233C126.492 115.652 125.434 117.564 125.432 118.909C125.432 119.118 125.458 119.314 125.512 119.488C125.419 119.599 125.248 119.65 125.014 119.65Z" fill="#FE0847"/>
<path d="M138.628 128.939C138.983 129.076 139.386 129.05 139.722 128.854L158.381 118.034C158.71 117.843 158.935 117.517 158.998 117.143L161.041 104.907C161.053 104.837 161.058 104.768 161.058 104.698C161.058 104.357 160.923 104.031 160.683 103.792L141.292 115.038C141.05 115.179 140.883 115.42 140.836 115.697L138.628 128.939Z" fill="#273E47"/>
<path d="M138.326 128.78L138.454 128.854C138.51 128.886 138.569 128.914 138.629 128.939L140.836 115.697C140.883 115.42 141.05 115.179 141.292 115.038L160.683 103.792C160.608 103.716 160.52 103.65 160.424 103.594L140.994 114.861C140.752 115.002 140.585 115.243 140.538 115.52L138.326 128.78Z" fill="#33535F"/>
<path d="M141.016 115.287L140.716 115.113C140.627 115.232 140.564 115.37 140.538 115.52L138.326 128.78L138.454 128.854C138.51 128.886 138.569 128.914 138.629 128.939L140.836 115.697C140.862 115.545 140.926 115.407 141.016 115.287Z" fill="#17282F"/>
<path d="M149.138 117.644C149.274 116.824 150.117 115.736 151.018 115.213C151.92 114.691 152.541 114.93 152.404 115.75C152.267 116.569 151.425 117.657 150.523 118.18C149.621 118.703 149.001 118.463 149.138 117.644Z" fill="#9853EB"/>
</g>
<defs>
<clipPath id="clip0_1_6856">
<rect width="190" height="189" fill="white"/>
</clipPath>
</defs>
</svg>
