<svg width="14" height="14" viewBox="0 0 14 14" fill="none" xmlns="http://www.w3.org/2000/svg">
<path d="M11.6898 12.5108C8.35337 15.8473 -1.83408 5.65983 1.50237 2.32339L2.90946 0.916251C3.37276 0.452939 4.14901 0.552913 4.47979 1.1185L5.38721 2.67003C5.58162 3.00245 5.56788 3.41697 5.35188 3.73578L4.83084 4.50483C4.56189 4.90179 4.61255 5.43378 4.9516 5.77284L6.59598 7.41723L8.2405 9.06155C8.57955 9.40057 9.11152 9.45122 9.50847 9.18229L10.2773 8.66138C10.5961 8.44539 11.0106 8.43164 11.343 8.62604L12.8946 9.53341C13.4602 9.86418 13.5602 10.6404 13.0969 11.1037L11.6898 12.5108Z" stroke="#FE0847" stroke-linecap="round" stroke-linejoin="round"/>
</svg>
