<svg width="235" height="377" viewBox="0 0 235 377" fill="none" xmlns="http://www.w3.org/2000/svg">
<g clip-path="url(#clip0_18_34)">
<path d="M62.0899 429.829L54.29 292.979C54.17 290.942 55.45 289.085 57.39 288.467L109.48 271.906C109.9 271.773 110.33 271.703 110.77 271.696L165.26 270.86C167.62 270.824 169.61 272.638 169.77 274.997C172.51 314.867 170.51 341.226 158.42 399.425C158.36 399.711 158.33 400.009 158.32 400.301L157.71 466.389L186.98 509.138C187.88 510.451 188.02 512.149 187.3 513.568C181.77 524.466 175.62 530.838 159.9 539.382C158.08 540.373 155.81 539.936 154.46 538.365L149.52 532.626L145.16 560.552C144.89 562.299 143.61 563.729 141.89 564.152C127.71 567.638 119.07 567.093 106.2 562.383C104.5 561.76 103.38 560.137 103.35 558.326L102.17 483.691L63 432.282C62.46 431.573 62.1399 430.719 62.0899 429.829Z" fill="#BA9C80"/>
<path d="M113.4 294.956L117.61 406.609C117.64 407.452 117.91 408.268 118.39 408.964L157.71 466.389M157.71 466.389L186.98 509.138C187.88 510.451 188.02 512.149 187.3 513.568C181.77 524.466 175.62 530.838 159.9 539.382C158.08 540.373 155.81 539.936 154.46 538.365L149.52 532.626M157.71 466.389L158.32 400.301C158.33 400.009 158.36 399.711 158.42 399.425C170.51 341.226 172.51 314.867 169.77 274.997C169.61 272.638 167.62 270.824 165.26 270.86L110.77 271.696C110.33 271.703 109.9 271.773 109.48 271.906L57.39 288.467C55.45 289.085 54.17 290.942 54.29 292.979L62.0899 429.829C62.1399 430.719 62.46 431.573 63 432.282L102.17 483.691M149.52 532.626L145.16 560.552C144.89 562.299 143.61 563.729 141.89 564.152C127.71 567.638 119.07 567.093 106.2 562.383C104.5 561.76 103.38 560.137 103.35 558.326L102.17 483.691M149.52 532.626L102.17 483.691" stroke="black" stroke-width="3.3727" stroke-linecap="round" stroke-linejoin="round"/>
<path d="M67.2901 80.1268C79.7901 85.9298 96.7001 95.9738 104.25 97.0408C112.15 98.1598 147.49 80.7248 147.49 80.7248C147.49 80.7248 164.48 87.8538 169.28 93.7348C174.08 99.6158 165.5 102.847 165.5 102.847L186.36 186.844C186.36 186.844 194.54 205.511 193.89 211.115C193.25 216.718 182.65 226.288 180.3 226.883C177.94 227.479 174.37 227.386 174.37 227.386C174.37 227.386 178.41 230.545 177.45 237.116C176.49 243.687 170.92 245.909 172.23 251.701C173.21 256.003 175.78 267.735 177.04 273.492C177.48 275.503 176.75 277.585 175.15 278.887C173.22 280.463 170.49 280.492 168.19 279.535C144.07 269.514 71.6401 287.459 53.7401 305.067C53.7401 305.067 51.5 305.563 50.35 304.894C45.31 301.954 48.82 282.36 48.82 282.36L46.72 279.843C44.08 276.683 42.5301 272.764 42.2801 268.658L39.1 216.645C39.1 216.645 22.2 218.378 16.98 215.518C11.75 212.657 2.80008 202.181 2.27008 193.297C1.74008 184.413 20.4101 109.494 30.3801 101.614C40.3401 93.7348 62.2 88.2768 62.2 88.2768L61.2501 87.0228C60.3801 85.8778 60.4901 84.2648 61.5201 83.2568L64.1301 80.6878C64.9701 79.8628 66.2201 79.6318 67.2901 80.1268Z" fill="#E1C6EE"/>
<path d="M62.2 88.2768L61.2501 87.0228C60.3801 85.8778 60.4901 84.2648 61.5201 83.2568L64.1301 80.6878C64.9701 79.8628 66.2201 79.6318 67.2901 80.1268C79.7901 85.9298 96.7001 95.9738 104.25 97.0408C112.15 98.1598 147.49 80.7248 147.49 80.7248C147.49 80.7248 164.48 87.8538 169.28 93.7348C174.08 99.6158 165.5 102.847 165.5 102.847L186.36 186.844C186.36 186.844 194.54 205.511 193.89 211.115C193.25 216.718 182.65 226.288 180.3 226.883C177.94 227.479 174.37 227.386 174.37 227.386M62.2 88.2768C62.2 88.2768 40.3401 93.7348 30.3801 101.614C20.4101 109.494 1.74008 184.413 2.27008 193.297C2.80008 202.181 11.75 212.657 16.98 215.518C22.2 218.378 39.1 216.645 39.1 216.645M62.2 88.2768C69.82 95.0598 74.4801 97.9328 83.3901 101.614M174.37 227.386C174.37 227.386 178.41 230.545 177.45 237.116C176.49 243.687 170.92 245.909 172.23 251.701C173.21 256.003 175.78 267.735 177.04 273.492C177.48 275.503 176.75 277.585 175.15 278.887C173.22 280.463 170.49 280.492 168.19 279.535C144.07 269.514 71.6401 287.459 53.7401 305.067C53.7401 305.067 51.5 305.563 50.35 304.894C45.31 301.954 48.82 282.36 48.82 282.36M174.37 227.386C174.37 227.386 153.67 226.242 150.5 221.786C147.32 217.33 144.69 212.215 144.28 209.689C143.87 207.163 146.73 201.65 146.73 201.65M39.1 216.645C39.1 216.645 63.5501 209.213 67.6801 207.187C71.8101 205.161 73.5501 197.377 73.5501 197.377L90.0301 191.686C90.0301 191.686 86.2 180.844 88.08 173.872C89.95 166.9 91.2701 167.325 91.2701 167.325L68.48 172.158C68.48 172.158 63.99 168.977 59.96 169.04C55.93 169.103 41.5301 172.663 41.5301 172.663M39.1 216.645L42.2801 268.658C42.5301 272.764 44.08 276.683 46.72 279.843L48.82 282.36M41.5301 172.663C41.5601 148.984 43.13 139.082 46.33 122.27M41.5301 172.663C40.6701 172.619 28.6401 176.211 23.6501 177.656M48.82 282.36C52.74 277.371 58.14 274.963 60.86 274.296M146.73 201.65L144.28 197.118C156.94 198.43 160.3 196.231 169.18 188.741L171.99 191.479C178.34 192.989 180.58 195.672 183.73 201.65M146.73 201.65L149.65 206.802" stroke="black" stroke-width="3.3727" stroke-linecap="round" stroke-linejoin="round"/>
<path d="M120.08 164.313L91.71 168.119C91.27 168.179 90.83 168.287 90.48 168.558C86.97 171.231 85.3001 182.584 86.9301 185.713C87.3101 186.433 107.68 180.97 119.68 177.647C120.93 177.302 121.96 176.434 122.51 175.267L124.71 170.661C126.23 167.458 123.59 163.841 120.08 164.313Z" fill="#FED5BD" stroke="black" stroke-width="3.3727" stroke-linecap="round" stroke-linejoin="round"/>
<path d="M76.5599 183.274L121.58 168.384C121.98 168.252 122.38 168.178 122.8 168.162C149.83 167.134 202.87 164.956 203.61 164.284C204.19 163.76 205.51 169.063 206.5 173.624C206.95 175.729 205.79 177.836 203.79 178.626L172.1 191.128L168.68 187.476C167.78 186.515 166.5 186 165.19 186.067L77.9299 190.557C75.7199 190.671 73.8898 188.846 73.9998 186.633C74.0798 185.092 75.0999 183.758 76.5599 183.274Z" fill="#4F5876" stroke="black" stroke-width="3.3727" stroke-linecap="round" stroke-linejoin="round"/>
<path d="M121.75 165.932L142.76 100.913C143.4 98.937 145.32 97.662 147.39 97.835L228.03 104.588C230.98 104.835 232.88 107.84 231.83 110.615L208.38 172.867C207.69 174.685 205.91 175.852 203.97 175.753L125.77 171.768C122.84 171.618 120.84 168.727 121.75 165.932Z" fill="#4F5876" stroke="black" stroke-width="3.3727" stroke-linecap="round" stroke-linejoin="round"/>
<path d="M171.88 183.496C171.01 186.534 168.63 189.67 168.63 189.67C164.98 193.933 157.98 197.219 155.84 197.605C150.15 198.633 146.49 197.249 142.64 195.794L142.55 195.762C142.14 195.597 131.51 191.991 126.98 189.412C121.27 186.163 121.73 181.951 124.03 183.237L122.85 182.452C121.11 181.296 121.02 178.777 122.66 177.495C121.86 174.066 123.86 172.893 127.52 173.478C127.52 170.363 130.37 169.29 134.78 170.903C139.18 172.517 139.85 172.354 148.11 175.196C148.11 175.196 159.42 179.503 161.82 179.708C164.22 179.913 166.07 176.478 166.07 176.478C164.68 167.61 168.39 167.096 170.99 167.185C170.99 167.185 173.31 173.19 173.6 176.085C173.89 178.979 172.75 180.458 171.88 183.496Z" fill="#FED5BD"/>
<path d="M127.52 173.478C127.52 170.363 130.37 169.29 134.78 170.903C139.18 172.517 139.85 172.354 148.11 175.196C148.11 175.196 159.42 179.503 161.82 179.708C164.22 179.913 166.07 176.478 166.07 176.478C164.68 167.61 168.39 167.096 170.99 167.185C170.99 167.185 173.31 173.19 173.6 176.085C173.89 178.979 172.75 180.458 171.88 183.496C171.01 186.534 168.63 189.67 168.63 189.67C164.98 193.933 157.98 197.219 155.84 197.605C150.11 198.641 146.43 197.228 142.55 195.762C142.14 195.597 131.51 191.991 126.98 189.412C120.96 185.986 121.8 181.49 124.42 183.496M127.52 173.478C123.86 172.893 121.86 174.066 122.66 177.495M127.52 173.478C130.18 175.196 133.75 176.526 136.92 177.955C139.5 179.12 142.8 180.03 146.87 181.96M124.42 183.496L122.85 182.452C121.11 181.296 121.02 178.777 122.66 177.495M124.42 183.496L131.1 186.693L136 188.686M122.66 177.495C123.74 177.955 127.65 179.921 132.17 181.96C134.66 183.086 138.45 183.952 140.6 185.007" stroke="black" stroke-width="3.3727" stroke-linecap="round" stroke-linejoin="round"/>
<path d="M140.32 94.9419C108.23 104.146 92.8802 98.0379 67.6602 80.2349C72.0802 26.6399 82.0301 12.3259 105.57 2.73193C108.47 1.54993 111.73 1.68094 114.6 2.92894L116.43 3.72294L118.41 3.59094C121.52 3.38194 124.59 4.36694 127.01 6.34494L134.42 12.4229C149.08 24.2959 149.29 36.4429 147.67 52.5529C146.04 68.6629 154.42 74.6369 140.32 94.9419Z" fill="#BA9C80"/>
<path d="M140.32 94.9419C108.23 104.146 92.8802 98.0379 67.6602 80.2349C72.0802 26.6399 82.0301 12.3259 105.57 2.73193C108.47 1.54993 111.73 1.68094 114.6 2.92894L116.43 3.72294L118.41 3.59094C121.52 3.38194 124.59 4.36694 127.01 6.34494L134.42 12.4229C149.08 24.2959 149.29 36.4429 147.67 52.5529C146.04 68.6629 154.42 74.6369 140.32 94.9419ZM140.32 94.9419L152.66 91.5449" stroke="black" stroke-width="3.3727" stroke-linecap="round" stroke-linejoin="round"/>
<path d="M90.0302 65.2695L110.55 66.3155L109.93 98.7595C99.9102 98.1505 94.9202 96.7635 87.1802 92.3215L90.0302 65.2695Z" fill="#FED5BD" stroke="black" stroke-width="3.3727"/>
<path d="M102.26 16.6875C115.25 14.2095 124.67 13.5335 133.06 18.8345C141.17 23.9575 144.52 34.4035 142.64 43.8105C142.17 46.1885 141.46 48.4715 140.42 50.5725C137.31 56.8555 137.33 61.3385 135.36 65.8805C133.08 71.1335 126.53 78.0525 121.46 82.9125C117.6 86.6055 111.78 87.4055 107.26 84.5585C97.01 78.0925 95.14 72.6885 93.47 66.2505L102.26 16.6875Z" fill="#FED5BD" stroke="black" stroke-width="3.3727"/>
<path d="M113.28 42.7491C117.03 41.0611 123.45 43.2671 125.32 47.0301" stroke="black" stroke-width="3.3727" stroke-linecap="round" stroke-linejoin="round"/>
<path d="M122.64 66.2182C127.63 68.3512 131.49 66.2222 129.65 60.3122C128.96 56.3162 128.62 53.9142 130.84 51.0692C132.64 48.7452 136.79 46.6302 139.71 48.9272" stroke="black" stroke-width="3.3727" stroke-linecap="round" stroke-linejoin="round"/>
<path d="M117.51 51.8897C118.435 52.2355 119.542 51.5583 119.984 50.3771C120.426 49.196 120.035 47.9582 119.11 47.6124C118.186 47.2667 117.078 47.9438 116.636 49.125C116.195 50.3061 116.586 51.5439 117.51 51.8897Z" fill="black"/>
<path d="M133.75 56.1162C134.674 56.462 135.782 55.7849 136.224 54.6037C136.666 53.4226 136.274 52.1848 135.35 51.839C134.426 51.4932 133.318 52.1704 132.876 53.3515C132.434 54.5326 132.826 55.7704 133.75 56.1162Z" fill="black"/>
<path d="M112.39 70.6152C114.31 73.3972 117.92 74.5652 120.72 74.0812" stroke="black" stroke-width="3.3727" stroke-linecap="round" stroke-linejoin="round"/>
<path d="M93.5601 94.3493C83.9401 89.1173 73.62 82.6873 73.66 81.9733L96.53 11.3883L120.98 7.44531L141.33 22.4393L130.98 23.7003L128.74 20.2763C99.07 36.2703 93.5201 53.1743 93.5601 94.3493Z" fill="#BA9C80"/>
<path d="M93.77 94.7164C93.73 54.5114 98.82 37.0964 126.68 21.4084C127.88 20.7304 129.4 20.9674 130.35 21.9664L133.49 25.2584L138.3 23.5764" stroke="black" stroke-width="3.3727" stroke-linecap="round" stroke-linejoin="round"/>
</g>
<defs>
<clipPath id="clip0_18_34">
<rect width="235" height="377" fill="white"/>
</clipPath>
</defs>
</svg>
