<svg width="280" height="97" viewBox="0 0 280 97" fill="none" xmlns="http://www.w3.org/2000/svg">
<rect width="98.3562" height="93.338" transform="matrix(-1 0 0 1 253.912 2)" fill="white" stroke="black" stroke-width="2.50909" stroke-linejoin="round"/>
<rect width="84.3053" height="93.338" transform="matrix(-1 0 0 1 198.711 2)" fill="white" stroke="black" stroke-width="2.50909" stroke-linejoin="round"/>
<rect width="67.2435" height="55.1999" transform="matrix(-1 0 0 1 265.955 40.1382)" fill="white" stroke="black" stroke-width="2.50909" stroke-linejoin="round"/>
<rect width="40.1454" height="45.1636" transform="matrix(-1 0 0 1 256.922 50.1743)" fill="#4F5876" stroke="black" stroke-width="2.50909" stroke-linejoin="round"/>
<rect x="222.799" y="66.2324" width="23.0836" height="22.08" fill="white" stroke="black" stroke-width="2.50909" stroke-linejoin="round"/>
<rect x="245.882" y="66.2324" width="23.0836" height="22.08" fill="white" stroke="black" stroke-width="2.50909" stroke-linejoin="round"/>
<rect x="230.828" y="66.2324" width="7.02544" height="22.08" fill="white" stroke="black" stroke-width="2.50909" stroke-linejoin="round"/>
<rect x="253.912" y="66.2324" width="7.02544" height="22.08" fill="white" stroke="black" stroke-width="2.50909" stroke-linejoin="round"/>
<rect width="27.0981" height="7.02544" transform="matrix(-1 0 0 1 243.875 88.3125)" fill="white" stroke="black" stroke-width="2.50909" stroke-linejoin="round"/>
<rect x="238.857" y="88.3125" width="39.1418" height="7.02544" fill="white" stroke="black" stroke-width="2.50909" stroke-linejoin="round"/>
<rect width="9.03271" height="55.1999" transform="matrix(-1 0 0 1 207.744 40.1382)" fill="white" stroke="black" stroke-width="2.50909" stroke-linejoin="round"/>
<rect x="18.4351" y="20.9226" width="35.9492" height="17.923" fill="white" stroke="black" stroke-width="2.50909" stroke-linejoin="round"/>
<rect x="26.8071" y="20.9226" width="8.2684" height="17.718" fill="white" stroke="black" stroke-width="2.50909" stroke-linejoin="round"/>
<rect x="42.1616" y="20.9226" width="27.1676" height="17.718" fill="white" stroke="black" stroke-width="2.50909" stroke-linejoin="round"/>
<rect x="51.6118" y="20.9226" width="8.2684" height="17.718" fill="white" stroke="black" stroke-width="2.50909" stroke-linejoin="round"/>
<path d="M100.098 56.3584H75.2349L65.7853 32.7344H46.8859V56.4238L2.0002 56.6412V82.4333L100.04 82.3448L100.098 56.3584Z" fill="white"/>
<path d="M46.8859 56.4238L2.0002 56.6412V82.4333L100.04 82.3448L100.098 56.3584H75.2349M46.8859 56.4238V32.7344H65.7853L75.2349 56.3584M46.8859 56.4238V76.4388H68.1475L75.2349 56.3584M40.9799 62.2295H7.90623" stroke="black" stroke-width="2.50909" stroke-linecap="round" stroke-linejoin="round"/>
<path d="M51.6118 56.3582V37.459H62.5997L70.511 56.3582H51.6118Z" fill="#4F5876" stroke="black" stroke-width="2.50909" stroke-linecap="round" stroke-linejoin="round"/>
<path d="M65.7857 32.7344L75.7009 56.3584H124.846L114.931 32.7344H65.7857Z" fill="#4F5876" stroke="black" stroke-width="2.50909" stroke-linejoin="round"/>
<path fill-rule="evenodd" clip-rule="evenodd" d="M35.073 95.3138C39.6902 94.9286 43.3411 90.0628 43.3411 84.1169C43.3411 78.171 39.6902 73.3052 35.073 72.9201V72.8955H34.4821H29.167V75.1386C27.015 77.1859 25.623 80.4455 25.623 84.1169C25.623 87.7883 27.015 91.048 29.167 93.0952V95.3383H34.4821H35.073V95.3138Z" fill="#4F5876"/>
<path d="M35.073 95.3138L34.9687 94.0636C34.3185 94.1178 33.8185 94.6613 33.8185 95.3138H35.073ZM35.073 72.9201H33.8185C33.8185 73.5725 34.3185 74.116 34.9687 74.1703L35.073 72.9201ZM35.073 72.8955H36.3275C36.3275 72.2026 35.7659 71.641 35.073 71.641V72.8955ZM29.167 72.8955V71.641C28.4741 71.641 27.9124 72.2026 27.9124 72.8955H29.167ZM29.167 75.1386L30.0317 76.0476C30.2806 75.8108 30.4215 75.4822 30.4215 75.1386H29.167ZM29.167 93.0952H30.4215C30.4215 92.7516 30.2806 92.4231 30.0317 92.1862L29.167 93.0952ZM29.167 95.3383H27.9124C27.9124 96.0312 28.4741 96.5929 29.167 96.5929V95.3383ZM35.073 95.3383V96.5929C35.7659 96.5929 36.3275 96.0312 36.3275 95.3383H35.073ZM42.0865 84.1169C42.0865 89.6632 38.7111 93.7514 34.9687 94.0636L35.1773 96.564C40.6693 96.1058 44.5956 90.4624 44.5956 84.1169H42.0865ZM34.9687 74.1703C38.7111 74.4825 42.0865 78.5706 42.0865 84.1169H44.5956C44.5956 77.7714 40.6693 72.128 35.1773 71.6699L34.9687 74.1703ZM33.8185 72.8955V72.9201H36.3275V72.8955H33.8185ZM34.4821 74.1501H35.073V71.641H34.4821V74.1501ZM29.167 74.1501H34.4821V71.641H29.167V74.1501ZM30.4215 75.1386V72.8955H27.9124V75.1386H30.4215ZM26.8776 84.1169C26.8776 80.7484 28.1567 77.8314 30.0317 76.0476L28.3023 74.2297C25.8734 76.5404 24.3685 80.1426 24.3685 84.1169H26.8776ZM30.0317 92.1862C28.1567 90.4025 26.8776 87.4854 26.8776 84.1169H24.3685C24.3685 88.0913 25.8734 91.6934 28.3023 94.0041L30.0317 92.1862ZM30.4215 95.3383V93.0952H27.9124V95.3383H30.4215ZM34.4821 94.0838H29.167V96.5929H34.4821V94.0838ZM35.073 94.0838H34.4821V96.5929H35.073V94.0838ZM33.8185 95.3138V95.3383H36.3275V95.3138H33.8185Z" fill="black"/>
<ellipse cx="29.7579" cy="84.1169" rx="8.85901" ry="11.2214" fill="#4F5876" stroke="black" stroke-width="2.50909"/>
<ellipse cx="29.7572" cy="84.1167" rx="4.1342" ry="6.4966" fill="white" stroke="black" stroke-width="2.50909"/>
<path fill-rule="evenodd" clip-rule="evenodd" d="M85.8646 72.8955H79.9586V75.1386C77.8066 77.1859 76.4146 80.4455 76.4146 84.117C76.4146 87.7885 77.8066 91.0481 79.9586 93.0954V95.3383H85.237C85.2492 95.3384 85.2614 95.3384 85.2736 95.3384C85.2857 95.3384 85.2979 95.3384 85.3101 95.3383H85.8646V95.3138C90.4817 94.9286 94.1326 90.0629 94.1326 84.117C94.1326 78.1712 90.4817 73.3054 85.8646 72.9202V72.8955Z" fill="#4F5876"/>
<path d="M79.9586 72.8955V71.641C79.2657 71.641 78.704 72.2026 78.704 72.8955H79.9586ZM85.8646 72.8955H87.1191C87.1191 72.2026 86.5575 71.641 85.8646 71.641V72.8955ZM79.9586 75.1386L80.8233 76.0476C81.0722 75.8108 81.2131 75.4822 81.2131 75.1386H79.9586ZM79.9586 93.0954H81.2131C81.2131 92.7518 81.0722 92.4232 80.8233 92.1864L79.9586 93.0954ZM79.9586 95.3383H78.704C78.704 96.0312 79.2657 96.5929 79.9586 96.5929V95.3383ZM85.237 95.3383L85.2435 94.0838H85.237V95.3383ZM85.3101 95.3383V94.0838L85.3036 94.0838L85.3101 95.3383ZM85.8646 95.3383V96.5929C86.5575 96.5929 87.1191 96.0312 87.1191 95.3383H85.8646ZM85.8646 95.3138L85.7603 94.0636C85.1101 94.1179 84.6101 94.6614 84.6101 95.3138H85.8646ZM85.8646 72.9202H84.6101C84.6101 73.5726 85.1101 74.1161 85.7603 74.1704L85.8646 72.9202ZM79.9586 74.1501H85.8646V71.641H79.9586V74.1501ZM81.2131 75.1386V72.8955H78.704V75.1386H81.2131ZM77.6691 84.117C77.6691 80.7484 78.9482 77.8314 80.8233 76.0476L79.0939 74.2297C76.665 76.5404 75.16 80.1426 75.16 84.117H77.6691ZM80.8233 92.1864C78.9482 90.4027 77.6691 87.4856 77.6691 84.117H75.16C75.16 88.0914 76.665 91.6936 79.0939 94.0043L80.8233 92.1864ZM81.2131 95.3383V93.0954H78.704V95.3383H81.2131ZM85.237 94.0838H79.9586V96.5929H85.237V94.0838ZM85.2736 94.0839C85.2635 94.0839 85.2534 94.0838 85.2435 94.0838L85.2305 96.5928C85.2449 96.5929 85.2593 96.593 85.2736 96.593V94.0839ZM85.3036 94.0838C85.2937 94.0838 85.2837 94.0839 85.2736 94.0839V96.593C85.2878 96.593 85.3022 96.5929 85.3166 96.5928L85.3036 94.0838ZM85.8646 94.0838H85.3101V96.5929H85.8646V94.0838ZM84.6101 95.3138V95.3383H87.1191V95.3138H84.6101ZM92.878 84.117C92.878 89.6633 89.5026 93.7514 85.7603 94.0636L85.9689 96.564C91.4608 96.1058 95.3871 90.4624 95.3871 84.117H92.878ZM85.7603 74.1704C89.5026 74.4826 92.878 78.5707 92.878 84.117H95.3871C95.3871 77.7716 91.4608 72.1282 85.9689 71.67L85.7603 74.1704ZM84.6101 72.8955V72.9202H87.1191V72.8955H84.6101Z" fill="black"/>
<ellipse cx="80.5494" cy="84.1169" rx="8.85901" ry="11.2214" fill="#4F5876" stroke="black" stroke-width="2.50909"/>
<ellipse cx="80.5488" cy="84.1167" rx="4.1342" ry="6.4966" fill="white" stroke="black" stroke-width="2.50909"/>
<path fill-rule="evenodd" clip-rule="evenodd" d="M140.2 72.8955H134.294V75.1387C132.142 77.1859 130.75 80.4455 130.75 84.117C130.75 87.7885 132.142 91.0481 134.294 93.0954V95.3383H139.572C139.585 95.3384 139.597 95.3384 139.609 95.3384C139.621 95.3384 139.633 95.3384 139.646 95.3383H140.2V95.3138C144.817 94.9286 148.468 90.0629 148.468 84.117C148.468 78.1712 144.817 73.3054 140.2 72.9202V72.8955Z" fill="#4F5876"/>
<path d="M134.294 72.8955V71.641C133.601 71.641 133.039 72.2026 133.039 72.8955H134.294ZM140.2 72.8955H141.455C141.455 72.2026 140.893 71.641 140.2 71.641V72.8955ZM134.294 75.1387L135.159 76.0476C135.408 75.8108 135.549 75.4822 135.549 75.1387H134.294ZM134.294 93.0954H135.549C135.549 92.7518 135.408 92.4232 135.159 92.1864L134.294 93.0954ZM134.294 95.3383H133.039C133.039 96.0312 133.601 96.5929 134.294 96.5929V95.3383ZM139.572 95.3383L139.579 94.0838H139.572V95.3383ZM139.646 95.3383V94.0838L139.639 94.0838L139.646 95.3383ZM140.2 95.3383V96.5929C140.893 96.5929 141.455 96.0312 141.455 95.3383H140.2ZM140.2 95.3138L140.096 94.0636C139.446 94.1179 138.945 94.6614 138.945 95.3138H140.2ZM140.2 72.9202H138.945C138.945 73.5726 139.446 74.1161 140.096 74.1704L140.2 72.9202ZM134.294 74.1501H140.2V71.641H134.294V74.1501ZM135.549 75.1387V72.8955H133.039V75.1387H135.549ZM132.005 84.117C132.005 80.7484 133.284 77.8314 135.159 76.0476L133.429 74.2297C131 76.5404 129.495 80.1426 129.495 84.117H132.005ZM135.159 92.1864C133.284 90.4026 132.005 87.4856 132.005 84.117H129.495C129.495 88.0914 131 91.6936 133.429 94.0043L135.159 92.1864ZM135.549 95.3383V93.0954H133.039V95.3383H135.549ZM139.572 94.0838H134.294V96.5929H139.572V94.0838ZM139.609 94.0839C139.599 94.0839 139.589 94.0838 139.579 94.0838L139.566 96.5928C139.58 96.5929 139.595 96.593 139.609 96.593V94.0839ZM139.639 94.0838C139.629 94.0838 139.619 94.0839 139.609 94.0839V96.593C139.623 96.593 139.638 96.5929 139.652 96.5928L139.639 94.0838ZM140.2 94.0838H139.646V96.5929H140.2V94.0838ZM138.945 95.3138V95.3383H141.455V95.3138H138.945ZM147.213 84.117C147.213 89.6633 143.838 93.7514 140.096 94.0636L140.304 96.564C145.796 96.1058 149.723 90.4624 149.723 84.117H147.213ZM140.096 74.1704C143.838 74.4826 147.213 78.5707 147.213 84.117H149.723C149.723 77.7716 145.796 72.1282 140.304 71.67L140.096 74.1704ZM138.945 72.8955V72.9202H141.455V72.8955H138.945Z" fill="black"/>
<ellipse cx="134.885" cy="84.1169" rx="8.85901" ry="11.2214" fill="#4F5876" stroke="black" stroke-width="2.50909"/>
<ellipse cx="134.884" cy="84.1167" rx="4.1342" ry="6.4966" fill="#4F5876" stroke="black" stroke-width="2.50909"/>
<rect x="100.041" y="56.3584" width="51.9728" height="25.9864" fill="white" stroke="black" stroke-width="2.50909" stroke-linejoin="round"/>
<rect x="104.765" y="56.3584" width="12.9932" height="4.7248" rx="2.3624" fill="white" stroke="black" stroke-width="2.50909" stroke-linejoin="round"/>
<path d="M147.289 71.7141C147.289 69.1046 145.173 66.9893 142.564 66.9893H109.49C106.881 66.9893 104.765 69.1046 104.765 71.7141V71.7141C104.765 74.3235 106.881 76.4389 109.49 76.4389H142.564C145.173 76.4389 147.289 74.3235 147.289 71.7141V71.7141Z" fill="#4F5876" stroke="black" stroke-width="2.50909" stroke-linejoin="round"/>
<path d="M104.765 71.7141C104.765 69.1046 106.881 66.9893 109.49 66.9893V66.9893C112.099 66.9893 114.215 69.1046 114.215 71.7141V71.7141C114.215 74.3235 112.099 76.4389 109.49 76.4389V76.4389C106.881 76.4389 104.765 74.3235 104.765 71.7141V71.7141Z" fill="white" stroke="black" stroke-width="2.50909" stroke-linejoin="round"/>
<path d="M137.838 71.7141C137.838 69.1046 139.953 66.9893 142.563 66.9893V66.9893C145.172 66.9893 147.287 69.1046 147.287 71.7141V71.7141C147.287 74.3235 145.172 76.4389 142.563 76.4389V76.4389C139.953 76.4389 137.838 74.3235 137.838 71.7141V71.7141Z" fill="white" stroke="black" stroke-width="2.50909" stroke-linejoin="round"/>
<rect x="134.294" y="57.5396" width="12.9932" height="4.7248" rx="2.3624" fill="white" stroke="black" stroke-width="2.50909" stroke-linejoin="round"/>
<rect x="105.945" y="76.439" width="49.6104" height="5.906" fill="#4F5876" stroke="black" stroke-width="2.50909" stroke-linejoin="round"/>
<rect x="122.484" y="76.439" width="16.5368" height="7.0872" fill="white" stroke="black" stroke-width="2.50909" stroke-linejoin="round"/>
<rect width="5.906" height="5.906" transform="matrix(-1 0 0 1 105.945 76.439)" fill="#4F5876" stroke="black" stroke-width="2.50909" stroke-linejoin="round"/>
<path d="M96.4971 56.3584V32.7344" stroke="black" stroke-width="2.50909" stroke-linecap="round" stroke-linejoin="round"/>
<rect x="10.269" y="38.6406" width="36.6172" height="17.718" fill="white" stroke="black" stroke-width="2.50909" stroke-linejoin="round"/>
<rect x="18.5371" y="38.6406" width="8.2684" height="17.718" fill="white" stroke="black" stroke-width="2.50909" stroke-linejoin="round"/>
<rect x="35.0737" y="38.6406" width="11.812" height="17.718" fill="white" stroke="black" stroke-width="2.50909" stroke-linejoin="round"/>
</svg>
