<svg width="276" height="121" viewBox="0 0 276 121" fill="none" xmlns="http://www.w3.org/2000/svg">
<g clip-path="url(#clip0_277_17041)">
<path d="M262.505 39.3504L7.44141 71.2939L13.0381 115.711L268.102 83.7672L262.505 39.3504Z" fill="white" stroke="black" stroke-width="2.5" stroke-linecap="round" stroke-linejoin="round"/>
<path d="M65.6426 95.6743H71.7393C76.652 95.6743 80.6292 100.839 80.6292 107.211C80.6292 113.583 76.652 118.748 71.7393 118.748H66.0547" fill="#4F5876"/>
<path d="M65.6426 95.6743H71.7393C76.652 95.6743 80.6292 100.839 80.6292 107.211C80.6292 113.583 76.652 118.748 71.7393 118.748H66.0547" stroke="black" stroke-width="2.5" stroke-linecap="round" stroke-linejoin="round"/>
<path d="M65.6419 118.748C70.5517 118.748 74.5318 113.583 74.5318 107.211C74.5318 100.839 70.5517 95.6743 65.6419 95.6743C60.7321 95.6743 56.752 100.839 56.752 107.211C56.752 113.583 60.7321 118.748 65.6419 118.748Z" fill="#4F5876" stroke="black" stroke-width="2.5" stroke-linecap="round" stroke-linejoin="round"/>
<path d="M65.6427 112.791C68.0213 112.791 69.9495 110.292 69.9495 107.21C69.9495 104.128 68.0213 101.629 65.6427 101.629C63.2641 101.629 61.3359 104.128 61.3359 107.21C61.3359 110.292 63.2641 112.791 65.6427 112.791Z" fill="white" stroke="black" stroke-width="2.5" stroke-linecap="round" stroke-linejoin="round"/>
<path d="M136.743 16.8665H127.624V9.0406H136.743C137.208 9.0406 137.654 9.22474 137.983 9.55252C138.311 9.88029 138.496 10.3248 138.496 10.7884V15.1253C138.496 15.5888 138.311 16.0334 137.983 16.3611C137.654 16.6889 137.208 16.873 136.743 16.873V16.8665Z" fill="white" stroke="black" stroke-width="2.5" stroke-linejoin="round"/>
<path d="M63.4766 85.4347V40.3574H97.8261L110.785 84.0391L97.8261 98.2497L63.4766 85.4347Z" stroke="black" stroke-width="2.5" stroke-linecap="round" stroke-linejoin="round"/>
<path d="M38.0509 76.1743H56.7662C58.6632 76.1743 60.4817 77.2308 61.8228 79.1025C63.2227 81.1904 63.9507 83.6543 63.9095 86.1654V92.6022L40.36 93.6457L37.3574 83.6872L38.0509 76.1743Z" fill="#4F5876" stroke="black" stroke-width="2.5" stroke-linecap="round" stroke-linejoin="round"/>
<path d="M53.7958 58.083H27.1914V72.5936H53.7958C56.8834 72.5936 59.3823 69.3328 59.3823 65.3415C59.3823 61.3503 56.8834 58.083 53.7958 58.083Z" fill="#4F5876" stroke="black" stroke-width="2.5" stroke-linecap="round" stroke-linejoin="round"/>
<path d="M69.6719 72.6465H87.8312C89.6077 72.6465 91.3115 73.3501 92.5677 74.6025C93.8239 75.8548 94.5297 77.5535 94.5297 79.3246V84.0136H69.6719V72.6465Z" fill="white" stroke="black" stroke-width="2.5" stroke-linejoin="round"/>
<path d="M63.8752 53.1534H47.7961C46.8447 53.1491 45.9027 53.3409 45.0292 53.7168C44.1558 54.0928 43.3697 54.6447 42.7204 55.338C42.0711 56.0312 41.5725 56.8508 41.2561 57.7453C40.9397 58.6398 40.8122 59.5899 40.8817 60.5358C40.9349 61.1365 41.0714 61.7269 41.2873 62.2902L49.3857 86.0222L77.8871 85.644L71.8035 59.4402C71.3916 57.652 70.3828 56.0562 68.9425 54.914C67.5021 53.7719 65.7156 53.1512 63.8752 53.1534Z" fill="white" stroke="black" stroke-width="2.5" stroke-linejoin="round"/>
<path d="M65.3612 53.7075H52.4482C51.6137 53.7077 50.7898 53.8957 50.0383 54.2573C49.2867 54.619 48.6267 55.145 48.1073 55.7963C47.588 56.4476 47.2227 57.2073 47.0388 58.0188C46.8548 58.8304 46.8569 59.6728 47.0449 60.4835L55.889 88.3698H80.9627L71.713 58.7422C71.3772 57.3127 70.5675 56.038 69.4147 55.1243C68.262 54.2106 66.8338 53.7114 65.3612 53.7075V53.7075Z" fill="white" stroke="black" stroke-width="2.5" stroke-linejoin="round"/>
<path d="M94.5224 84.0132H44.6367V92.7195H94.5224V84.0132Z" fill="white" stroke="black" stroke-width="2.5" stroke-linejoin="round"/>
<path d="M44.6367 72.6465H62.796C63.6757 72.6465 64.5467 72.8192 65.3594 73.1548C66.1721 73.4904 66.9106 73.9823 67.5326 74.6025C68.1546 75.2226 68.648 75.9588 68.9846 76.769C69.3213 77.5792 69.4945 78.4476 69.4945 79.3246V84.0136H44.6367V72.6465Z" fill="white" stroke="black" stroke-width="2.5" stroke-linejoin="round"/>
<path d="M104.558 95.1386C86.4637 95.1386 75.8403 103.167 76.0692 108.182C76.0745 108.372 76.0413 108.561 75.9714 108.738C75.9016 108.914 75.7965 109.075 75.6627 109.21C75.5289 109.346 75.3689 109.453 75.1926 109.525C75.0163 109.597 74.8271 109.632 74.6366 109.63H46.6062C46.2514 109.629 45.9101 109.494 45.6515 109.251C45.3928 109.009 45.236 108.678 45.2128 108.325C44.9708 105.025 43.4662 96.5864 34.3474 96.5864C27.361 96.5864 25.5555 101.934 25.0976 104.321C25.0351 104.638 24.8636 104.922 24.6127 105.126C24.3618 105.329 24.0474 105.439 23.7239 105.436V105.436C23.4151 105.437 23.1148 105.335 22.8699 105.147C22.625 104.96 22.4492 104.697 22.3698 104.399L20.7671 98.3929C20.7338 98.2762 20.7162 98.1556 20.7148 98.0342V80.0737C20.715 79.8906 20.7515 79.7093 20.8222 79.5403C20.893 79.3713 20.9966 79.2179 21.127 79.089L24.3977 73.8717C24.6493 73.4721 24.9985 73.1428 25.4127 72.9146C25.8269 72.6865 26.2925 72.567 26.7658 72.5674H35.9958C36.3671 72.5674 36.7232 72.7144 36.9857 72.9761C37.2482 73.2379 37.3957 73.5929 37.3957 73.963V79.0303C37.3954 79.3143 37.4823 79.5916 37.6449 79.8248C37.8075 80.058 38.0379 80.2359 38.305 80.3346L63.4441 89.8627C63.6031 89.9218 63.7714 89.9527 63.9412 89.954H74.7085C74.8929 89.954 75.0755 89.9177 75.2458 89.8471C75.4161 89.7766 75.5707 89.6732 75.7008 89.5429C75.8309 89.4126 75.9338 89.258 76.0038 89.0879C76.0737 88.9178 76.1093 88.7356 76.1084 88.5518V72.6196H81.3417L84.7237 84.0128H104.603L104.558 95.1386Z" fill="white" stroke="black" stroke-width="2.5" stroke-linejoin="round"/>
<path d="M37.3691 79.0571V96.972" stroke="black" stroke-width="2.5" stroke-miterlimit="10"/>
<path d="M63.9092 89.98V97.219C63.9095 97.8765 63.6484 98.5073 63.1831 98.9733L57.8125 104.334" fill="white"/>
<path d="M63.9092 89.98V97.219C63.9095 97.8765 63.6484 98.5073 63.1831 98.9733L57.8125 104.334" stroke="black" stroke-width="2.5" stroke-linejoin="round"/>
<path d="M76.1467 104.335H44.4727" stroke="black" stroke-width="2.5" stroke-linejoin="round"/>
<path d="M59.8457 94.4019H52.7285" stroke="black" stroke-width="2.5" stroke-linecap="round" stroke-linejoin="round"/>
<path d="M130.953 84.0132H98.5332V109.637H130.953V84.0132Z" fill="white" stroke="black" stroke-width="2.5" stroke-linejoin="round"/>
<path d="M42.9949 33.1963H92.1348C93.6268 33.1963 95.0578 33.7872 96.1128 34.839C97.1678 35.8908 97.7605 37.3174 97.7605 38.8049V40.357H37.3691V38.8049C37.3691 37.3174 37.9618 35.8908 39.0169 34.839C40.0719 33.7872 41.5028 33.1963 42.9949 33.1963Z" fill="#4F5876" stroke="black" stroke-width="2.5" stroke-linecap="round" stroke-linejoin="round"/>
<path d="M84.3242 89.9346H91.9386C98.068 89.9346 103.059 96.3844 103.059 104.341C103.059 112.297 98.0876 118.747 91.9386 118.747H84.8409" fill="#4F5876"/>
<path d="M84.3242 89.9346H91.9386C98.068 89.9346 103.059 96.3844 103.059 104.341C103.059 112.297 98.0876 118.747 91.9386 118.747H84.8409" stroke="black" stroke-width="2.5" stroke-linecap="round" stroke-linejoin="round"/>
<path d="M84.3256 118.747C90.4565 118.747 95.4265 112.297 95.4265 104.341C95.4265 96.3845 90.4565 89.9346 84.3256 89.9346C78.1947 89.9346 73.2246 96.3845 73.2246 104.341C73.2246 112.297 78.1947 118.747 84.3256 118.747Z" fill="#4F5876" stroke="black" stroke-width="2.5" stroke-linecap="round" stroke-linejoin="round"/>
<path d="M84.3236 109.636C86.5766 109.636 88.4031 107.265 88.4031 104.34C88.4031 101.416 86.5766 99.0449 84.3236 99.0449C82.0706 99.0449 80.2441 101.416 80.2441 104.34C80.2441 107.265 82.0706 109.636 84.3236 109.636Z" fill="white" stroke="black" stroke-width="2.5" stroke-linecap="round" stroke-linejoin="round"/>
<path d="M37.3691 85.4347V40.3574H71.7187L84.3765 83.0283" stroke="black" stroke-width="2.5" stroke-linecap="round" stroke-linejoin="round"/>
<path d="M95.2033 31.3311H93.3847C91.5747 31.3311 90.1074 32.7939 90.1074 34.5984V38.9548C90.1074 40.7593 91.5747 42.2221 93.3847 42.2221H95.2033C97.0133 42.2221 98.4806 40.7593 98.4806 38.9548V34.5984C98.4806 32.7939 97.0133 31.3311 95.2033 31.3311Z" fill="white" stroke="black" stroke-width="2.5" stroke-linecap="round" stroke-linejoin="round"/>
<path d="M94.293 31.5657V27.6006" stroke="black" stroke-width="2.5" stroke-linejoin="round"/>
<path d="M97.5781 23.7017H91.017C90.1824 23.7017 89.5059 24.3761 89.5059 25.2082V26.0364C89.5059 26.8684 90.1824 27.5429 91.017 27.5429H97.5781C98.4127 27.5429 99.0892 26.8684 99.0892 26.0364V25.2082C99.0892 24.3761 98.4127 23.7017 97.5781 23.7017Z" fill="white" stroke="black" stroke-width="2.5" stroke-linejoin="round"/>
<path d="M78.0841 31.3311H76.2656C74.4556 31.3311 72.9883 32.7939 72.9883 34.5984V38.9548C72.9883 40.7593 74.4556 42.2221 76.2656 42.2221H78.0841C79.8941 42.2221 81.3614 40.7593 81.3614 38.9548V34.5984C81.3614 32.7939 79.8941 31.3311 78.0841 31.3311Z" fill="white" stroke="black" stroke-width="2.5" stroke-linecap="round" stroke-linejoin="round"/>
<path d="M77.1758 31.5657V27.6006" stroke="black" stroke-width="2.5" stroke-linejoin="round"/>
<path d="M80.459 23.7017H73.8978C73.0633 23.7017 72.3867 24.3761 72.3867 25.2082V26.0364C72.3867 26.8684 73.0633 27.5429 73.8978 27.5429H80.459C81.2935 27.5429 81.97 26.8684 81.97 26.0364V25.2082C81.97 24.3761 81.2935 23.7017 80.459 23.7017Z" fill="white" stroke="black" stroke-width="2.5" stroke-linejoin="round"/>
<path d="M31.0176 95.6743H37.1142C42.0269 95.6743 46.0042 100.839 46.0042 107.211C46.0042 113.583 42.0269 118.748 37.1142 118.748H31.4297" fill="#4F5876"/>
<path d="M31.0176 95.6743H37.1142C42.0269 95.6743 46.0042 100.839 46.0042 107.211C46.0042 113.583 42.0269 118.748 37.1142 118.748H31.4297" stroke="black" stroke-width="2.5" stroke-linecap="round" stroke-linejoin="round"/>
<path d="M31.0188 118.748C35.9286 118.748 39.9088 113.583 39.9088 107.211C39.9088 100.839 35.9286 95.6743 31.0188 95.6743C26.1091 95.6743 22.1289 100.839 22.1289 107.211C22.1289 113.583 26.1091 118.748 31.0188 118.748Z" fill="#4F5876" stroke="black" stroke-width="2.5" stroke-linecap="round" stroke-linejoin="round"/>
<path d="M31.0178 112.341C33.2044 112.341 34.977 110.044 34.977 107.211C34.977 104.377 33.2044 102.081 31.0178 102.081C28.8312 102.081 27.0586 104.377 27.0586 107.211C27.0586 110.044 28.8312 112.341 31.0178 112.341Z" fill="white" stroke="black" stroke-width="2.5" stroke-linecap="round" stroke-linejoin="round"/>
<path d="M27.1907 72.6001C30.2796 72.6001 32.7837 69.3503 32.7837 65.3416C32.7837 61.3328 30.2796 58.083 27.1907 58.083C24.1017 58.083 21.5977 61.3328 21.5977 65.3416C21.5977 69.3503 24.1017 72.6001 27.1907 72.6001Z" fill="#4F5876" stroke="black" stroke-width="2.5" stroke-linecap="round" stroke-linejoin="round"/>
<path d="M101.85 78.7954H134.591C135.47 78.7954 136.314 79.1438 136.936 79.7638C137.558 80.3839 137.907 81.2249 137.907 82.1019V88.1474H98.5274V82.1084C98.5265 81.6731 98.6119 81.2419 98.7785 80.8395C98.9452 80.4372 99.19 80.0717 99.4987 79.7638C99.8075 79.456 100.174 79.212 100.578 79.0458C100.981 78.8797 101.414 78.7946 101.85 78.7954Z" fill="#4F5876" stroke="black" stroke-width="2.5" stroke-linecap="round" stroke-linejoin="round"/>
<path d="M112.395 78.7956V5.48626C112.395 3.52978 110.478 1.91895 108.11 1.91895C105.749 1.91895 103.832 3.51674 103.832 5.48626V18.0599C103.831 18.5386 103.946 19.0105 104.166 19.436L106.128 23.3033C106.347 23.7267 106.462 24.1963 106.462 24.6728V78.8021L112.395 78.7956Z" fill="#4F5876" stroke="black" stroke-width="2.5" stroke-linecap="round" stroke-linejoin="round"/>
<path d="M131.909 78.7956V5.48626C131.909 3.52978 129.992 1.91895 127.624 1.91895C125.262 1.91895 123.346 3.51674 123.346 5.48626V18.0599C123.345 18.5386 123.459 19.0105 123.679 19.436L125.642 23.3033C125.861 23.7267 125.975 24.1963 125.975 24.6728V78.8021L131.909 78.7956Z" fill="#4F5876" stroke="black" stroke-width="2.5" stroke-linecap="round" stroke-linejoin="round"/>
<path d="M100.456 9.02148H108.816V16.8474H100.456C99.9913 16.8474 99.5454 16.6633 99.2166 16.3355C98.8878 16.0077 98.7031 15.5632 98.7031 15.0996V10.7628C98.7049 10.3003 98.8903 9.85746 99.2189 9.53109C99.5475 9.20473 99.9924 9.02148 100.456 9.02148V9.02148Z" fill="white" stroke="black" stroke-width="2.5" stroke-linejoin="round"/>
<path d="M128.33 9.02148H112.395V16.8604H128.33V9.02148Z" fill="white" stroke="black" stroke-width="2.5" stroke-linejoin="round"/>
<path d="M143.506 88.1479H107.351C106.993 88.1479 106.703 88.437 106.703 88.7936V115.891C106.703 116.247 106.993 116.536 107.351 116.536H143.506C143.863 116.536 144.153 116.247 144.153 115.891V88.7936C144.153 88.437 143.863 88.1479 143.506 88.1479Z" fill="#4F5876" stroke="black" stroke-width="2.5" stroke-linecap="round" stroke-linejoin="round"/>
<path d="M112.951 93.4429V101.171" stroke="black" stroke-width="2.5" stroke-linecap="round" stroke-linejoin="round"/>
<path d="M121.271 93.4429V101.171" stroke="black" stroke-width="2.5" stroke-linecap="round" stroke-linejoin="round"/>
<path d="M129.598 93.4429V101.171" stroke="black" stroke-width="2.5" stroke-linecap="round" stroke-linejoin="round"/>
<path d="M137.92 92.9741V100.696" stroke="black" stroke-width="2.5" stroke-linecap="round" stroke-linejoin="round"/>
<path d="M194.87 118.747H147.052C146.097 118.747 145.318 117.384 145.318 116.562V112.649H194.982C195.897 112.753 196.604 114.084 196.604 115.688C196.604 117.384 195.832 118.747 194.87 118.747Z" fill="#4F5876" stroke="black" stroke-width="2.5" stroke-linecap="round" stroke-linejoin="round"/>
<path d="M156.281 118.747H108.462C107.507 118.747 106.729 117.384 106.729 116.562V112.649H156.392C157.301 112.753 158.014 114.084 158.014 115.688C158.014 117.384 157.236 118.747 156.281 118.747Z" fill="#4F5876" stroke="black" stroke-width="2.5" stroke-linecap="round" stroke-linejoin="round"/>
<rect x="158.869" y="78.5864" width="26.8203" height="9.78239" fill="white" stroke="black" stroke-width="2.5" stroke-linecap="round" stroke-linejoin="round"/>
<rect x="158.746" y="78.8042" width="26.4738" height="4.78987" fill="white" stroke="black" stroke-width="2.5" stroke-linecap="round" stroke-linejoin="round"/>
<path d="M158.867 88.3696L185.687 88.3696L185.687 112.5L158.867 112.5L158.867 88.3696Z" fill="white" stroke="black" stroke-width="2.5" stroke-linecap="round" stroke-linejoin="round"/>
<rect x="169.551" y="88.3496" width="4.91109" height="23.991" fill="white" stroke="black" stroke-width="2.5" stroke-linecap="round" stroke-linejoin="round"/>
<rect width="4.8976" height="9.6433" transform="matrix(1 0 0 -1 169.551 88.4458)" fill="white" stroke="black" stroke-width="2.5" stroke-linecap="round" stroke-linejoin="round"/>
<rect width="26.9589" height="17.1085" transform="matrix(1 0 0 -1 150.062 67.188)" fill="white" stroke="black" stroke-width="2.5" stroke-linejoin="round"/>
<rect width="26.9276" height="21.3068" transform="matrix(1 0 0 -1 150.088 88.5103)" fill="white" stroke="black" stroke-width="2.5" stroke-linejoin="round"/>
<path d="M150.057 67.188H177.016V58.3745H150.057L150.057 67.188Z" fill="white" stroke="black" stroke-width="2.5" stroke-linejoin="round"/>
<path d="M150.09 50.0811H177.017V58.3815H150.09L150.09 50.0811Z" fill="white" stroke="black" stroke-width="2.5" stroke-linejoin="round"/>
<rect x="159.893" y="67.2036" width="7.51619" height="21.3068" fill="white" stroke="black" stroke-width="2.5"/>
<path d="M159.893 67.2036H167.409V50.0798H159.893L159.893 67.2036Z" fill="white" stroke="black" stroke-width="2.5"/>
<path d="M272.42 65.3211V56.5444L202.509 56.5444V65.3211L272.42 65.3211Z" fill="white" stroke="#010202" stroke-width="2.5" stroke-linejoin="round"/>
<path d="M272.42 65.321V73.0952L202.509 73.0952V65.321L272.42 65.321Z" fill="white" stroke="#010202" stroke-width="2.5" stroke-linejoin="round"/>
<path d="M272.422 27.1206V19.3462L202.511 19.3462V27.1206L272.422 27.1206Z" fill="white" stroke="#010202" stroke-width="2.5" stroke-linejoin="round"/>
<path d="M272.418 45.7167V37.9424L202.507 37.9424V45.7167L272.418 45.7167Z" fill="white" stroke="#010202" stroke-width="2.5" stroke-linejoin="round"/>
<path d="M212.506 15.6099H202.518V65.3209H212.506V15.6099Z" fill="white" stroke="#010202" stroke-width="2.5" stroke-linejoin="round"/>
<path d="M227.485 15.6089H217.496V65.32H227.485V15.6089Z" fill="white" stroke="#010202" stroke-width="2.5" stroke-linejoin="round"/>
<path d="M242.461 15.6089H232.473V65.32H242.461V15.6089Z" fill="white" stroke="#010202" stroke-width="2.5" stroke-linejoin="round"/>
<path d="M257.44 15.6089H247.451V65.32H257.44V15.6089Z" fill="white" stroke="#010202" stroke-width="2.5" stroke-linejoin="round"/>
<path d="M272.418 15.6089H262.43V65.32H272.418V15.6089Z" fill="white" stroke="#010202" stroke-width="2.5" stroke-linejoin="round"/>
<path d="M212.504 65.3213H202.516V73.0957H212.504V65.3213Z" fill="white" stroke="#010202" stroke-width="2.5" stroke-linejoin="round"/>
<path d="M272.418 65.3208H262.43V73.0952H272.418V65.3208Z" fill="white" stroke="#010202" stroke-width="2.5" stroke-linejoin="round"/>
</g>
<defs>
<clipPath id="clip0_277_17041">
<rect width="276" height="120" fill="white" transform="translate(0 0.338379)"/>
</clipPath>
</defs>
</svg>
