<svg width="153" height="201" viewBox="0 0 153 201" fill="none" xmlns="http://www.w3.org/2000/svg">
<g clip-path="url(#clip0_23_81)">
<path d="M61.777 64.096C60.507 66.7121 61.568 69.935 61.701 80.9685C61.777 88.5327 60.488 88.5706 61.113 93.1964C61.739 97.8221 62.649 104.419 67.957 108.685C73.853 113.424 81.341 112.211 83.256 111.908C84.621 111.68 93.247 110.315 97.342 103.453C99.105 100.514 99.257 95.9832 99.56 86.9592C99.598 86.0113 99.636 84.1913 99.56 76.4944C99.503 71.0914 99.427 66.6363 99.351 63.622C71.218 58.0484 63.786 60.02 61.777 64.096Z" fill="#FED5BD" stroke="black" stroke-width="3" stroke-linecap="round" stroke-linejoin="round"/>
<path d="M79.939 14.8437C82.84 14.9385 85.7019 15.5451 88.3939 16.6447C90.2519 17.403 94.8209 19.3178 97.6459 23.697C99.0859 25.9151 99.523 27.8868 100.262 35.3751C100.66 39.4321 101.096 44.6076 101.475 50.6742C101.665 49.4419 101.93 48.2476 102.271 47.0532C103.049 44.3991 103.845 42.6739 105.096 41.6123C105.494 41.271 105.949 41.0056 106.442 41.0625C107.106 41.1383 107.523 41.8019 107.731 42.1052C108.85 43.9062 108.565 46.9774 108.471 47.7167C108.471 47.7547 108.471 47.7926 108.452 47.8305C107.959 51.7358 107.466 55.6601 104.944 57.6886C104.072 58.3711 103.03 58.8261 101.93 58.9967C101.798 60.4375 101.57 61.8593 101.267 63.2622C100.906 64.9305 100.433 66.5799 99.8449 68.1723C98.1769 72.6464 95.9769 75.5849 94.4039 77.6323C91.6549 81.2723 90.0059 83.4145 86.8589 84.969C84.9629 85.9549 82.8769 86.5046 80.7349 86.5805C77.3419 86.6563 74.839 85.4051 73.171 84.5709C68.526 82.1822 65.9669 78.675 64.6209 76.8171C59.7869 70.2008 58.8009 63.1485 58.5919 59.5086C57.7009 59.1104 56.8669 58.5796 56.1089 57.954C55.4639 57.4232 54.8769 56.8165 54.3459 56.1909C53.9479 55.6601 53.0569 54.4278 52.2599 49.5557C51.5019 44.7783 51.9759 43.7545 52.5449 43.2237C52.7909 42.9773 53.1139 42.655 53.5689 42.6171C55.9379 42.4654 58.536 50.5983 58.403 50.0675C57.284 45.4607 56.8099 40.7213 56.9999 35.9818C57.1899 31.0338 57.303 28.0384 59.218 24.7208C62.138 19.6401 67.1039 17.5736 69.2849 16.6637C72.6399 15.2797 76.28 14.6541 79.939 14.8437Z" fill="#FED5BD" stroke="black" stroke-width="3" stroke-linecap="round" stroke-linejoin="round"/>
<path d="M64.605 45.1978C67.463 43.1734 71.225 42.9755 74.291 44.6545" stroke="black" stroke-width="3" stroke-linecap="round" stroke-linejoin="round"/>
<path d="M20.2969 208.197C21.4149 219.249 23.6899 230.15 27.0649 240.729C27.6529 242.549 28.2589 244.312 28.8849 246.037C31.8609 248.35 35.0079 250.397 38.3259 252.198C54.9899 261.184 70.9519 260.71 78.7629 260.369C91.5979 259.819 108.489 259.099 117.816 247.042C119.39 244.994 120.679 242.757 121.646 240.368C122.253 229.145 124.565 218.074 128.528 207.533C92.9819 198.377 55.6909 198.604 20.2969 208.197Z" fill="white" stroke="black" stroke-width="3" stroke-linecap="round" stroke-linejoin="round"/>
<path d="M76.868 220.879C88.3 219.003 99.466 215.742 110.082 211.135L99.2571 198.395L78.972 195.969L73.6641 211.78L76.868 220.879Z" fill="#FED5BD" stroke="black" stroke-width="3" stroke-linecap="round" stroke-linejoin="round"/>
<path d="M85.198 44.6357C87.909 43.1363 91.192 43.1343 93.901 44.6309" stroke="black" stroke-width="3" stroke-linecap="round" stroke-linejoin="round"/>
<path d="M82.46 50.7695C82.309 52.1914 82.4419 53.6322 82.8589 54.9972C83.2189 56.1346 83.579 56.5327 84.072 58.22C84.527 59.7745 84.7539 60.5518 84.4699 61.4428C84.0339 62.8457 82.726 63.5282 82.46 63.6609C80.584 64.6088 78.7069 63.7747 78.4409 63.6609" stroke="black" stroke-width="3" stroke-linecap="round" stroke-linejoin="round"/>
<path d="M73.051 70.5072C77.569 72.0834 83.305 71.9701 87.623 70.2285" stroke="black" stroke-width="3" stroke-linecap="round" stroke-linejoin="round"/>
<path d="M145.704 116.723C144.453 114.676 143.619 113.367 142.387 111.358C140.32 107.983 135.353 104.836 135.353 104.836C132.548 103.073 129.647 101.519 126.633 100.154C125.097 99.4334 124.737 99.3196 123.675 98.8646C123.675 98.8646 122.898 98.5424 121.514 97.9167C114.632 94.8266 111.182 93.2721 108.869 91.3763C107.618 90.3715 105.988 88.6463 102.689 85.2339C102.405 84.9306 101.855 84.3618 101.172 83.5656C100.622 82.9021 100.092 82.2386 99.58 81.5371C99.371 82.4092 99.087 83.2623 98.784 84.0964C98.253 85.4424 97.608 86.7316 96.869 87.9449C93.722 93.1204 92.148 95.7176 90.594 97.2532C88.546 99.3007 87.693 99.3765 85.323 101.974C84.546 102.903 83.693 103.775 82.821 104.59C81.721 105.576 80.546 106.486 79.314 107.282C78.612 105.462 77.57 103.794 76.262 102.353C73.797 99.6988 72.1479 99.9832 69.0579 97.4618C66.4979 95.3954 64.47 92.7223 63.162 89.689C62.157 87.2624 61.664 84.6652 61.702 82.049C61.038 83.0537 60.09 84.4187 58.877 86.0112C58.479 86.542 56.602 88.9876 54.972 90.7317C52.507 93.3479 49.91 95.0162 47.142 96.5897C37.379 102.144 33.3219 101.803 24.2979 107.453C20.2219 110.012 15.482 113.007 9.75698 120.116C9.45398 120.477 8.44894 122.164 8.31594 122.676C7.63394 124.856 7.63394 127.794 7.34994 131.093C7.34994 131.093 6.66694 139.207 6.87594 147.397C7.10294 156.174 9.07497 171.91 14.724 191.285C14.876 191.815 15.1979 192.289 15.6339 192.631C21.6249 197.408 31.3499 203.816 44.5449 207.399C77.1339 216.214 104.566 200.46 118.405 192.517C130.538 185.559 149.705 174.545 150.501 159.132C150.69 155.53 149.799 153.179 148.586 139.719C147.923 132.325 147.449 126.126 147.259 121.633C147.145 120.192 146.463 117.974 145.704 116.723Z" fill="white" stroke="black" stroke-width="3" stroke-linecap="round" stroke-linejoin="round"/>
<path d="M68.3719 183.17C65.6039 183.056 62.6468 182.791 59.5188 182.373C57.0158 182.032 54.6649 181.634 52.4659 181.16C48.8449 181.16 45.2619 181.71 41.7929 182.772C37.5839 184.08 32.8448 185.577 31.5368 189.407C31.4798 189.615 30.6078 192.288 31.9348 194.431C33.1858 196.459 35.6888 196.952 36.9588 197.255C45.6788 199.322 46.1339 204.858 53.8689 206.317C55.1579 206.564 62.4569 207.948 66.9499 203.701C71.9169 199.019 70.7989 189.976 69.1679 185.179C68.9219 184.497 68.6749 183.833 68.3719 183.17Z" fill="#FED5BD" stroke="black" stroke-width="3" stroke-linecap="round" stroke-linejoin="round"/>
<path d="M7.89795 124.459C6.58995 135.549 5.28192 149.502 3.17792 169.693C1.96392 181.181 1.05394 190.698 3.78394 202.888C4.78894 207.4 6.19194 211.817 7.97394 216.083C9.03594 218.642 11.3479 220.462 14.0779 220.936C16.9599 221.391 19.8979 221.846 22.8939 222.206C44.1459 224.879 64.544 224.216 81.663 223.002C83.275 216.102 83.8809 208.784 85.4929 201.883C74.4589 202.547 66.5159 200.632 61.1509 198.66C57.8139 197.428 54.686 195.873 47.861 193.428C42.345 191.456 37.719 190.072 34.572 189.2C36.79 182.508 38.0029 175.513 38.1929 168.479C38.3439 162.299 37.5479 157.161 35.9749 147.152C34.7609 139.493 34.572 138.355 33.624 134.014" fill="white"/>
<path d="M7.89795 124.459C6.58995 135.549 5.28192 149.502 3.17792 169.693C1.96392 181.181 1.05394 190.698 3.78394 202.888C4.78894 207.4 6.19194 211.817 7.97394 216.083C9.03594 218.642 11.3479 220.462 14.0779 220.936C16.9599 221.391 19.8979 221.846 22.8939 222.206C44.1459 224.879 64.544 224.216 81.663 223.002C83.275 216.102 83.8809 208.784 85.4929 201.883C74.4589 202.547 66.5159 200.632 61.1509 198.66C57.8139 197.428 54.686 195.873 47.861 193.428C42.345 191.456 37.719 190.072 34.572 189.2C36.79 182.508 38.0029 175.513 38.1929 168.479C38.3439 162.299 37.5479 157.161 35.9749 147.152C34.7609 139.493 34.572 138.355 33.624 134.014" stroke="black" stroke-width="3" stroke-linecap="round" stroke-linejoin="round"/>
<path d="M147.161 121.141C147.958 135.757 149.152 144.971 150.062 152.592C150.062 152.592 151.541 164.971 150.782 176.612C150.555 179.702 150.119 182.773 149.455 185.787L149.379 186.166C148.223 190.811 146.574 195.323 144.469 199.626C142.839 202.944 140.943 206.129 138.82 209.143C138.099 209.352 137.076 209.655 135.806 209.94C133.986 210.376 129.303 211.342 122.516 211.949C116.412 212.499 107.596 213.219 97.169 211.153C94.382 210.603 94.022 210.357 78.856 205.522C72.334 203.456 67.007 201.769 63.557 200.688C61.964 193.863 62.4571 186.716 64.9601 180.157C69.1681 180.725 73.396 181.067 77.643 181.161H77.9081C81.9081 181.237 85.927 181.105 89.927 180.763C96.771 180.195 102.478 179.247 107.482 178.431C111.483 177.768 116.298 176.877 116.279 176.877L115.843 176.953C113.34 177.37 111.217 177.711 111.217 177.711L116.525 176.839C116.487 176.649 116.45 176.441 116.412 176.251C116.412 176.251 116.317 175.702 116.222 175.133C115.957 173.521 115.748 171.607 115.596 169.464C115.54 168.63 115.521 167.777 115.483 166.886C115.464 166.317 115.464 165.578 115.483 164.573C115.521 163.322 115.596 161.711 115.786 159.568C115.862 158.677 115.976 157.692 116.089 156.63C116.298 154.848 116.525 152.971 116.601 152.592C116.753 151.549 117.018 149.596 117.454 147.094C117.758 145.312 118.023 143.985 118.099 143.53C118.535 141.274 119.274 137.312 120.563 129.785" fill="white"/>
<path d="M147.161 121.141C147.958 135.757 149.152 144.971 150.062 152.592C150.062 152.592 151.541 164.971 150.782 176.612C150.555 179.702 150.119 182.773 149.455 185.787L149.379 186.166C148.223 190.811 146.574 195.323 144.469 199.626C142.839 202.944 140.943 206.129 138.82 209.143C138.099 209.352 137.076 209.655 135.806 209.94C133.986 210.376 129.303 211.342 122.516 211.949C116.412 212.499 107.596 213.219 97.169 211.153C94.382 210.603 94.022 210.357 78.856 205.522C72.334 203.456 67.007 201.769 63.557 200.688C61.964 193.863 62.4571 186.716 64.9601 180.157C69.1681 180.725 73.396 181.067 77.643 181.161H77.9081C81.9081 181.237 85.927 181.105 89.927 180.763C96.771 180.195 102.478 179.247 107.482 178.431C111.483 177.768 116.298 176.877 116.279 176.877L115.843 176.953C113.34 177.37 111.217 177.711 111.217 177.711L116.525 176.839C116.487 176.649 116.45 176.441 116.412 176.251C116.412 176.251 116.317 175.702 116.222 175.133C115.957 173.521 115.748 171.607 115.596 169.464C115.54 168.63 115.521 167.777 115.483 166.886C115.464 166.317 115.464 165.578 115.483 164.573C115.521 163.322 115.596 161.711 115.786 159.568C115.862 158.677 115.976 157.692 116.089 156.63C116.298 154.848 116.525 152.971 116.601 152.592C116.753 151.549 117.018 149.596 117.454 147.094C117.758 145.312 118.023 143.985 118.099 143.53C118.535 141.274 119.274 137.312 120.563 129.785" stroke="black" stroke-width="3" stroke-linecap="round" stroke-linejoin="round"/>
<path d="M120.393 159.341C120.393 160.763 119.938 162.28 119.426 163.607C118.952 164.858 118.554 166.014 118.212 167.114C117.416 169.749 116.715 172.422 116.184 175.114C116.032 175.74 115.937 176.328 115.824 176.839C115.824 176.858 115.805 176.896 115.805 176.915L111.179 177.674L111.084 177.693C110.421 177.825 109.719 177.939 108.961 178.053L108.828 178.072L108.316 178.148C108.525 177.693 108.771 177.029 109.075 176.195C109.435 175.19 109.662 174.413 109.757 174.128C110.933 170.564 112.184 166.792 113.018 164.365C113.644 162.602 114.573 160.953 115.729 159.493C116.563 158.431 117.511 157.464 118.535 156.573C118.99 156.175 119.786 156.763 120.013 157.37C120.26 158.033 120.374 158.697 120.393 159.341Z" fill="#FED5BD" stroke="black" stroke-width="3" stroke-linecap="round" stroke-linejoin="round"/>
<path d="M125.417 159.379C125.114 160.516 124.697 161.597 124.166 162.639C123.919 163.075 123.787 163.303 123.787 163.303C119.824 169.161 117.189 173.066 116.393 176.27C116.355 176.46 116.317 176.611 116.279 176.801C116.279 176.839 116.26 176.858 116.26 176.896L115.824 176.972L111.199 177.73L111.104 177.749C110.44 177.881 109.739 177.995 108.999 178.109L108.848 178.128L108.336 178.204C108.848 176.611 109.341 175.246 109.777 174.185C110.478 172.441 111.312 170.734 112.26 169.085C113.663 166.696 113.91 166.279 115.483 164.573C116.109 163.891 116.924 163 118.099 161.71C118.725 161.028 119.54 160.175 120.393 159.36C121.55 158.203 122.782 157.104 124.052 156.08C124.28 155.928 124.962 155.947 125.379 156.307C125.55 156.459 126.043 157.009 125.417 159.379Z" fill="#FED5BD" stroke="black" stroke-width="3" stroke-linecap="round" stroke-linejoin="round"/>
<path d="M125.153 167.872C124.868 168.232 124.584 168.573 124.3 168.877C122.1 171.341 120.432 172.062 118.366 175.19C117.949 175.815 117.645 176.365 117.456 176.687L116.243 176.896L115.806 176.972L111.181 177.73L111.086 177.749C111.617 175.493 112.565 173.351 113.892 171.455C114.385 170.754 114.934 170.09 115.56 169.502C116.186 168.896 117.02 168.118 118.214 167.152C118.991 166.507 119.901 165.806 121.02 164.971C121.949 164.289 122.991 163.493 124.186 162.659C124.774 162.241 125.38 161.805 126.006 161.35C126.404 161.066 126.935 161.142 127.219 161.54C127.219 161.54 127.219 161.54 127.219 161.559C127.276 161.635 127.314 161.711 127.333 161.805C127.39 162.033 127.447 162.26 127.485 162.488C127.598 163.208 127.598 164.782 125.153 167.872Z" fill="#FED5BD" stroke="black" stroke-width="3" stroke-linecap="round" stroke-linejoin="round"/>
<path d="M117.457 176.668C118.026 175.133 118.841 173.692 119.884 172.422C121.779 170.166 124.301 168.535 127.126 167.701C127.675 168.839 127.656 169.692 127.543 170.223C127.239 171.796 125.931 172.346 124.49 174.621C124.073 175.284 123.713 175.967 123.41 176.687C121.419 176.422 119.429 176.422 117.457 176.668Z" fill="#FED5BD" stroke="black" stroke-width="3" stroke-linecap="round" stroke-linejoin="round"/>
<path d="M53.6261 42.674C53.4741 42.6551 53.3601 42.5034 53.3601 42.3517C53.5121 38.4274 53.5121 34.105 53.1901 31.9438C52.8111 29.3466 52.3941 28.1333 52.5071 26.1048C52.6591 22.9009 53.9861 20.3795 55.1051 18.6543C55.1421 18.5975 55.1611 18.5216 55.1421 18.4458C55.0481 17.7254 55.0291 16.986 55.1051 16.2656C55.4461 12.8722 57.5881 10.6162 58.2891 9.91473C58.9911 9.21329 59.8821 8.47393 64.5461 6.31273C67.1051 5.11838 69.4371 4.05674 71.2191 3.45008C82.9921 -0.531081 92.9261 4.94776 92.9261 4.94776C94.1771 5.63024 102.31 10.1233 104.243 18.1614C104.395 18.7681 104.471 19.4506 104.471 19.4695C104.755 21.3653 104.717 22.8251 104.717 23.2042C104.698 24.4365 104.831 24.4934 105.533 31.887C105.533 31.887 105.817 34.8823 105.097 41.5365C105.097 41.6124 105.059 41.6692 105.059 41.6692C105.04 41.6882 105.04 41.7072 105.021 41.7261C104.414 42.4086 103.902 43.1669 103.466 43.9632C102.935 44.949 102.518 45.9917 102.253 47.0912C101.608 49.6505 101.931 51.3757 101.229 51.6032C101.021 51.6411 100.793 51.5842 100.623 51.4705C99.9591 51.0724 99.9781 50.0676 99.8451 48.532C99.5991 47.0912 99.6371 47.6789 99.4471 45.6694C99.3141 44.058 99.2391 42.4276 99.2581 40.8161C99.3141 38.2568 99.3711 34.9771 99.1061 32.3799C98.8591 30.1428 98.1961 27.0148 96.3001 23.299C96.1481 22.9957 95.8831 23.1474 95.8831 23.1474C95.6371 23.4128 95.2381 23.8109 94.6511 24.19C93.9301 24.664 92.5461 25.3465 87.0681 25.3086C85.6841 25.3086 85.5701 25.2517 84.5841 25.2896C84.1481 25.3086 82.7261 25.2896 80.5461 25.6688C74.9911 26.6356 74.3281 26.9389 72.5841 27.1664C70.1001 27.4698 66.5741 27.4887 62.0431 26.0669C61.9101 26.029 61.7591 26.0669 61.6831 26.1806C61.3801 26.6356 61.1141 27.1096 60.8681 27.5835C59.9391 29.4414 59.4271 31.4509 59.3131 33.5173C59.2181 35.3752 59.3891 37.2521 59.8441 39.072V39.091C59.8821 39.4133 60.8111 46.75 59.4081 50.1624C59.3511 50.352 59.1431 50.8259 58.8771 50.807C58.5741 50.807 58.4221 50.0487 58.1761 49.2145C57.7211 47.7358 57.1331 46.3139 56.4131 44.9679C55.7681 43.7925 55.3511 43.3944 54.8961 43.129C54.4981 42.9015 54.0621 42.7309 53.6261 42.674Z" fill="#BA9C80" stroke="black" stroke-width="3" stroke-linecap="round" stroke-linejoin="round"/>
<path d="M55.1021 18.6738C55.6511 19.7734 56.523 21.2711 57.907 22.7877C59.367 24.3612 60.8461 25.3849 61.9261 26.0295" stroke="black" stroke-width="3" stroke-linecap="round" stroke-linejoin="round"/>
<path d="M71.123 180.839C71.123 178.678 71.3511 175.834 71.4451 172.536C71.5401 164.782 71.7491 158.867 71.8061 156.819C72.3361 141.824 72.981 139.795 73.246 135.681C73.436 133.027 73.3791 131.207 73.3981 129.823C73.4171 121.994 73.4361 118.088 74.8391 114.373C75.5211 112.572 76.7721 110.031 79.3511 107.32" stroke="black" stroke-width="3" stroke-linecap="round" stroke-linejoin="round"/>
<path d="M126.706 177.181C125.568 177.048 124.468 176.878 123.426 176.707L126.706 177.181Z" fill="#BA9C80"/>
<path d="M126.706 177.181C125.568 177.048 124.468 176.878 123.426 176.707" stroke="black" stroke-width="3" stroke-linecap="round" stroke-linejoin="round"/>
<path d="M126.897 133.445C123.542 135.152 120.679 137.673 118.594 140.801" stroke="black" stroke-width="3" stroke-linecap="round" stroke-linejoin="round"/>
<path d="M81.153 127.814C82.992 127.814 84.4899 126.316 84.4899 124.477C84.4899 122.638 82.992 121.141 81.153 121.141C79.314 121.141 77.8159 122.638 77.8159 124.477C77.8159 126.316 79.295 127.814 81.153 127.814Z" fill="#FED42B" stroke="black" stroke-width="3" stroke-linecap="round" stroke-linejoin="round"/>
<path d="M80.0709 161.691C81.9099 161.691 83.4079 160.193 83.4079 158.354C83.4079 156.515 81.9099 155.018 80.0709 155.018C78.2319 155.018 76.7339 156.515 76.7339 158.354C76.7339 160.193 78.2319 161.672 80.0709 161.691Z" fill="#FED42B" stroke="black" stroke-width="3" stroke-linecap="round" stroke-linejoin="round"/>
<path d="M69.7009 51.0152C70.8189 51.0152 71.71 50.1052 71.71 49.0056C71.71 47.9061 70.8009 46.9961 69.7009 46.9961C68.5819 46.9961 67.6909 47.9061 67.6909 49.0056C67.6909 50.1052 68.5819 51.0152 69.7009 51.0152Z" fill="black"/>
<path d="M89.606 51.1675C90.724 51.1675 91.615 50.2575 91.615 49.158C91.615 48.0395 90.705 47.1484 89.606 47.1484C88.506 47.1484 87.596 48.0584 87.596 49.158C87.577 50.2765 88.487 51.1675 89.606 51.1675C89.587 51.1675 89.587 51.1675 89.606 51.1675Z" fill="black"/>
<path d="M28.656 138.07C31.557 139.037 33.964 141.066 35.424 143.739" stroke="black" stroke-width="3" stroke-linecap="round" stroke-linejoin="round"/>
<path d="M26.324 188.764C27.727 188.651 29.149 188.632 30.571 188.708C31.898 188.783 33.244 188.954 34.552 189.201" fill="#BA9C80"/>
<path d="M26.324 188.764C27.727 188.651 29.149 188.632 30.571 188.708C31.898 188.783 33.244 188.954 34.552 189.201" stroke="black" stroke-width="3" stroke-linecap="round" stroke-linejoin="round"/>
<path d="M75.9579 102.069L66.4789 111.889L53.3789 90.0303C54.6679 88.8928 56.0329 87.6226 57.3979 86.2387C58.9719 84.6272 60.3929 83.0537 61.6259 81.5371C65.3599 89.0634 70.1759 95.983 75.9579 102.069Z" fill="white" stroke="black" stroke-width="3" stroke-linecap="round" stroke-linejoin="round"/>
<path d="M85.3401 101.975L94.819 111.795L108.165 89.5194C104.904 87.3203 102.023 84.5904 99.6531 81.4434C96.2981 89.1782 91.4251 96.1547 85.3401 101.975Z" fill="white" stroke="black" stroke-width="3" stroke-linecap="round" stroke-linejoin="round"/>
</g>
<defs>
<clipPath id="clip0_23_81">
<rect width="153" height="201" fill="white"/>
</clipPath>
</defs>
</svg>
