<svg width="22" height="22" viewBox="0 0 22 22" fill="none" xmlns="http://www.w3.org/2000/svg">
<path d="M3.66668 19.0669C3.57029 19.0672 3.47479 19.0485 3.38568 19.0117C3.29657 18.975 3.21562 18.9209 3.14748 18.8527C3.01098 18.7144 2.93445 18.5279 2.93445 18.3335C2.93445 18.1392 3.01098 17.9527 3.14748 17.8143L17.8142 3.14768C17.9519 3.00998 18.1386 2.93262 18.3334 2.93262C18.5281 2.93262 18.7149 3.00998 18.8526 3.14768C18.9903 3.28538 19.0676 3.47214 19.0676 3.66688C19.0676 3.86161 18.9903 4.04838 18.8526 4.18608L4.18588 18.8527C4.11775 18.9209 4.0368 18.975 3.94769 19.0117C3.85858 19.0485 3.76308 19.0672 3.66668 19.0669Z" fill="#9853EB"/>
<path d="M18.3333 19.0669C18.2369 19.0672 18.1414 19.0485 18.0523 19.0117C17.9632 18.975 17.8822 18.9209 17.8141 18.8527L3.14743 4.18608C3.00973 4.04838 2.93237 3.86161 2.93237 3.66688C2.93237 3.47214 3.00973 3.28538 3.14743 3.14768C3.28513 3.00998 3.47189 2.93262 3.66663 2.93262C3.86137 2.93262 4.04813 3.00998 4.18583 3.14768L18.8525 17.8143C18.989 17.9527 19.0655 18.1392 19.0655 18.3335C19.0655 18.5279 18.989 18.7144 18.8525 18.8527C18.7844 18.9209 18.7034 18.975 18.6143 19.0117C18.5252 19.0485 18.4297 19.0672 18.3333 19.0669Z" fill="#9853EB"/>
</svg>
