<svg width="206" height="135" viewBox="0 0 206 135" fill="none" xmlns="http://www.w3.org/2000/svg">
<path d="M99.0986 53.0843C98.9861 51.9017 98.8361 50.9431 98.7111 50.0841C98.5986 49.3123 98.4611 48.5529 98.3236 47.7686C98.2861 47.5695 98.2111 47.2707 98.1611 47.0715C97.4737 44.2705 93.8739 42.5525 91.0616 43.2497C88.9492 43.7725 85.2119 46.5984 85.9619 51.827C85.9619 51.827 92.599 90.9915 70.6628 112.79C67.838 115.603 63.8132 116.176 60.4134 114.557C56.6761 112.578 54.8512 108.146 53.5263 104.237C53.3763 103.789 53.2388 103.341 53.1013 102.893C59.501 93.419 64.3257 82.8 65.8881 71.3221C66.338 68.9817 65.7756 66.3674 64.2632 64.4503C61.5508 60.9148 56.2011 60.0433 52.5514 62.6078C51.2389 63.4917 50.389 64.6743 49.514 65.8819C42.8394 75.0194 41.2145 86.8584 42.7394 97.7388C42.9144 98.8219 43.0894 99.8925 43.2894 100.976C40.6271 104.449 37.7022 107.723 34.5774 110.785C29.5277 115.777 23.8656 120.209 17.316 122.936C17.2285 122.973 17.141 123.01 17.0535 123.048C16.941 122.886 16.791 122.637 16.666 122.363C15.2411 119.487 14.8911 115.927 14.5036 112.69C13.6912 105.308 13.9537 97.7762 15.1786 90.4811C16.1535 84.6425 17.7284 78.9533 19.8533 73.4011C22.5032 66.4919 25.7655 59.9188 29.9777 53.7815C32.2776 50.3705 34.6524 46.9097 37.1898 43.6854L37.4398 43.3866C37.4523 43.3617 37.4648 43.3617 37.4648 43.3617V43.3866C37.4648 43.399 37.4523 43.4115 37.4523 43.4239C40.9771 39.2411 40.4271 33.0042 36.2273 29.4935C31.8651 25.8335 25.203 26.6178 21.8532 31.2115C21.6032 31.5352 21.2657 32.0331 21.0407 32.3568C17.5659 37.7846 14.4786 43.2248 11.5288 48.9762C1.84188 68.795 -2.50786 91.589 1.4669 113.449C2.36685 118.118 3.2418 122.674 5.56666 127.019C8.86646 133.492 15.4161 136.903 22.1907 133.032C31.8776 128.065 39.7646 119.96 46.4767 111.682C47.5767 114.097 48.9891 116.387 50.839 118.454C55.8387 124.043 63.4257 125.525 70.2003 122.487C80.7497 117.744 87.8868 105.744 92.3115 94.2033C93.2614 91.7509 94.0739 89.3358 94.7738 87.0078C95.1113 85.8998 95.4238 84.8043 95.7113 83.7462C96.1613 82.1029 96.5613 80.4472 96.9237 78.779C98.0737 73.5256 98.7986 68.185 99.1986 62.807C99.4611 59.5827 99.4361 56.3211 99.0986 53.0843ZM50.6515 89.6968C50.639 83.7462 52.2889 77.8578 55.8137 73.0774C55.3887 77.3847 54.5387 81.6921 52.7014 85.626C52.0514 86.9953 51.3764 88.3523 50.6515 89.6968Z" fill="#FE0847"/>
<path opacity="0.2" d="M38.2897 106.939C39.3897 110.462 40.7896 114.047 42.002 116.972C43.5519 115.255 45.0393 113.487 46.4767 111.719C44.8518 107.598 43.2894 100.976 43.2894 100.976C41.7145 103.03 40.0396 105.021 38.2897 106.939Z" fill="black"/>
<path d="M194.83 20.8415C194.543 20.6921 194.193 20.8042 194.055 21.0905C193.443 22.2482 192.781 23.4931 192.056 24.8127C191.993 24.9248 191.931 25.0493 191.868 25.1613C191.868 25.1613 191.868 25.1738 191.856 25.1738C191.631 25.5846 191.393 26.0078 191.156 26.4311C190.956 26.8046 190.743 27.178 190.531 27.5515C190.293 27.9623 190.056 28.3856 189.818 28.8089C189.581 29.2197 189.343 29.6429 189.093 30.0662C189.093 30.0662 189.093 30.0787 189.081 30.0787C187.968 31.9833 186.768 33.9752 185.506 35.967C185.506 35.967 185.506 35.9795 185.493 35.9795C185.081 36.6393 184.644 37.3115 184.219 37.9713C184.219 37.9713 184.219 37.9837 184.206 37.9837C183.919 38.4319 183.631 38.8676 183.331 39.3033C183.331 39.3033 183.331 39.3033 183.319 39.3158C182.881 39.9756 182.431 40.6478 181.969 41.2952C181.656 41.7558 181.331 42.2164 181.006 42.6646C180.556 43.2995 180.094 43.9344 179.631 44.5568C178.831 45.6274 178.019 46.6856 177.194 47.7064C176.869 48.1172 176.544 48.5156 176.207 48.9139C175.544 49.7107 174.869 50.4825 174.182 51.2419C173.844 51.6154 173.507 51.9764 173.157 52.3374C170.419 55.2131 167.595 57.6407 164.757 59.2839C163.87 59.7944 162.982 60.2301 162.095 60.5911C161.945 60.6409 161.795 60.6907 161.657 60.7405C160.495 61.1139 159.445 61.2509 158.495 61.2011C158.658 60.9272 158.82 60.6658 158.97 60.3919C159.133 60.118 159.283 59.8566 159.433 59.5827C159.808 58.8607 160.182 58.1262 160.52 57.3792C160.657 57.0805 160.795 56.7692 160.907 56.4705C161.157 55.8605 161.395 55.238 161.582 54.6031C161.632 54.4413 161.682 54.2795 161.72 54.1301C161.907 53.4952 162.045 52.8354 162.157 52.1756C162.182 52.0013 162.195 51.8395 162.207 51.6652C162.257 51.105 162.282 50.5448 162.27 49.997C162.257 48.3413 161.982 46.7229 161.432 45.0921C161.345 44.8307 161.257 44.5693 161.145 44.3203C161.095 44.1833 161.045 44.0588 160.995 43.9219C160.607 42.9758 160.082 42.1666 159.445 41.5193C159.395 41.457 159.333 41.3948 159.27 41.345C159.158 41.2329 159.033 41.1209 158.908 41.0213C158.595 40.7599 158.27 40.5358 157.92 40.3491C157.645 40.1997 157.358 40.0627 157.058 39.9507C156.983 39.9258 156.908 39.9009 156.833 39.876C155.683 39.515 154.408 39.4776 153.108 39.8386C152.733 39.9382 152.37 40.0752 151.995 40.237C151.795 40.3242 151.62 40.4238 151.433 40.5233C151.258 40.6354 151.083 40.735 150.908 40.8595C150.746 40.9715 150.583 41.1084 150.421 41.2329C150.271 41.3699 150.121 41.5068 149.971 41.6437L149.758 41.8678C149.558 42.0919 149.358 42.3284 149.171 42.5774C148.433 43.5733 147.871 44.7186 147.458 45.864C147.321 46.2499 147.196 46.6233 147.083 47.0093C146.971 47.3827 146.883 47.7562 146.796 48.1172C146.271 50.6444 146.183 53.5699 146.783 56.3335C146.833 56.595 146.896 56.8564 146.971 57.1178C147.033 57.3792 147.121 57.6407 147.196 57.8897C147.358 58.4001 147.546 58.898 147.771 59.3835C148.208 60.3546 148.758 61.2633 149.446 62.0725C149.608 62.2717 149.783 62.4709 149.971 62.6576C150.346 63.0435 150.746 63.3921 151.183 63.7282C151.071 63.8527 150.946 63.9897 150.821 64.1266C150.758 64.2137 150.683 64.2884 150.596 64.3756C150.396 64.5996 150.196 64.8237 149.983 65.0354C149.896 65.135 149.796 65.2345 149.683 65.3466C149.583 65.4586 149.471 65.5582 149.371 65.6703C149.308 65.7325 149.246 65.7948 149.183 65.857C148.996 66.0562 148.808 66.2429 148.608 66.4172C148.471 66.5541 148.321 66.6911 148.183 66.8156C148.008 66.9774 147.846 67.1392 147.671 67.2886C146.283 68.546 144.833 69.7162 143.333 70.7743C139.221 73.7745 133.584 76.2892 128.934 75.3431C131.259 71.3968 133.059 67.2139 133.784 63.2178C134.047 60.8401 134.072 58.4125 133.609 56.0721C133.534 55.6986 133.459 55.3376 133.359 54.9766C133.297 54.7525 133.234 54.5284 133.159 54.2919C133.084 54.0429 132.997 53.7939 132.909 53.545C132.822 53.3209 132.734 53.0968 132.647 52.8727C132.559 52.6735 132.472 52.4744 132.384 52.2752C132.247 51.9888 132.109 51.7274 131.947 51.466C131.847 51.2917 131.734 51.1299 131.622 50.968C131.509 50.8062 131.397 50.6568 131.272 50.5074C128.959 47.6442 125.197 46.9097 121.597 48.5654C120.41 49.1505 119.372 49.9099 118.472 50.8186C118.085 51.2046 117.722 51.6154 117.385 52.0511C117.048 52.4868 116.748 52.9474 116.448 53.4205C116.16 53.8935 115.898 54.3915 115.66 54.9019C115.423 55.4123 115.21 55.9476 115.023 56.4829C113.973 59.4582 113.623 62.807 113.873 66.0064C113.923 66.6786 114.01 67.3384 114.11 67.9858C114.148 68.1974 114.185 68.4215 114.223 68.6331C114.31 69.0564 114.398 69.4797 114.498 69.9029C114.66 70.5254 114.835 71.1229 115.048 71.7205C115.323 72.5047 115.648 73.2392 116.01 73.9239C116.748 75.4552 117.797 76.9117 119.047 78.169C119.222 78.3433 119.41 78.5176 119.597 78.6919C119.397 78.916 119.197 79.1525 118.997 79.3766C118.597 79.8247 118.185 80.2729 117.772 80.7086C117.56 80.9327 117.348 81.1443 117.135 81.356C114.585 83.9205 111.723 86.1239 108.586 87.7672C106.061 89.0121 103.423 89.6968 100.961 89.51C100.099 89.4354 98.4736 89.0121 98.4236 88.9996C98.5486 89.1864 105.161 98.3364 119.297 87.6178C119.485 87.4809 123.01 83.6839 124.56 81.6921C124.96 81.829 125.36 81.9411 125.76 82.0407C133.322 83.8831 141.034 79.6505 146.608 75.1315C150.008 72.2931 152.995 69.0813 155.57 65.5582C159.97 66.3176 164.782 64.4005 168.157 61.7364C169.269 60.865 170.369 59.8939 171.457 58.8482C173.932 56.458 176.307 53.6197 178.569 50.5572C178.994 49.9846 179.419 49.3995 179.831 48.8019C180.106 48.4035 180.381 48.0052 180.656 47.6068C180.794 47.4076 180.931 47.2084 181.069 47.0093C181.344 46.6109 181.606 46.2001 181.881 45.7893C184.694 41.5068 187.293 36.938 189.606 32.5436C190.043 31.7095 190.468 30.8754 190.893 30.0538C191.318 29.2321 191.718 28.4105 192.118 27.6013C192.493 26.8419 192.856 26.095 193.218 25.3605C193.243 25.3231 193.256 25.2733 193.281 25.236V25.2236C193.893 23.9662 194.48 22.7338 195.03 21.5636C195.218 21.3021 195.105 20.9785 194.83 20.8415ZM128.547 62.3837C128.309 63.915 127.772 65.4088 127.147 66.8778C126.934 67.3633 126.709 67.8488 126.484 68.3343C125.772 69.7286 125.01 71.1105 124.16 72.4674C124.097 72.3927 124.035 72.318 123.972 72.2433C123.847 72.0939 123.722 71.9321 123.61 71.7703C123.31 71.3594 123.022 70.9113 122.772 70.4133C122.497 69.8656 122.235 69.2929 122.022 68.6829C121.972 68.5335 121.91 68.3717 121.86 68.2223C121.76 67.9111 121.66 67.5999 121.585 67.2762C120.56 63.3423 120.835 58.6864 122.922 55.4372C123.147 55.126 123.372 54.8521 123.622 54.6031C124.035 54.2048 124.497 53.8935 125.085 53.7068C125.935 53.3956 126.547 53.5948 127.009 54.0803C127.172 54.2421 127.309 54.4413 127.434 54.6529C127.459 54.6903 127.472 54.7276 127.497 54.765C127.559 54.877 127.622 55.0015 127.672 55.126C127.859 55.5368 128.022 56.0099 128.172 56.4829C128.647 58.2507 128.784 60.4666 128.547 62.3837ZM158.083 51.5656C158.045 51.8644 157.995 52.1631 157.92 52.4495C157.82 52.8976 157.695 53.3333 157.545 53.7566C157.395 54.1799 157.22 54.6156 157.033 55.0264C156.908 55.3127 156.77 55.5866 156.633 55.8605C156.57 55.9974 156.495 56.1344 156.42 56.2713C156.283 56.5452 156.133 56.819 155.983 57.0929C155.908 57.2299 155.833 57.3668 155.758 57.5037C155.62 57.7403 155.47 57.9768 155.32 58.2133C155.17 58.4623 155.008 58.7113 154.845 58.9603C154.845 58.9603 154.845 58.9603 154.845 58.9727C154.745 59.1346 154.633 59.2964 154.533 59.4582C154.42 59.3462 154.308 59.2341 154.208 59.1097C153.995 58.8607 153.795 58.6117 153.608 58.3254C153.42 58.0515 153.258 57.7652 153.095 57.4664C152.233 55.7982 151.82 53.7317 151.82 51.6154C151.82 51.2046 151.833 50.7813 151.87 50.3705C151.908 49.9223 151.958 49.4617 152.033 49.0135C152.058 48.9015 152.07 48.8019 152.095 48.6899C152.308 47.6193 152.608 46.4864 153.133 45.615C153.345 45.2664 153.595 44.9552 153.883 44.7062C153.958 44.6439 154.033 44.5942 154.108 44.5319C154.158 44.507 154.208 44.4946 154.245 44.4697C154.345 44.4323 154.445 44.3825 154.545 44.3576C154.82 44.2705 155.108 44.2082 155.345 44.2207C155.733 44.258 156.07 44.4448 156.37 44.7311C156.42 44.7684 156.47 44.8182 156.52 44.8805C156.57 44.9303 156.62 44.9925 156.658 45.0423C156.708 45.0921 156.745 45.1544 156.795 45.2166C156.883 45.3411 156.958 45.478 157.033 45.615C157.07 45.6772 157.108 45.7519 157.145 45.8266C157.883 47.3205 158.17 49.499 158.145 50.6817C158.158 50.9556 158.133 51.2668 158.083 51.5656Z" fill="#FE0847"/>
<path d="M201.468 18.9119L202.605 16.3972C206.217 8.36764 205.167 2.93989 204.48 0.823569C204.43 0.68663 204.392 0.56214 204.342 0.450099C204.205 0.0890792 203.805 -0.0976559 203.442 0.0517318C201.655 0.748874 196.493 3.40051 192.643 11.9654L191.506 14.4801C191.468 14.4801 188.718 14.4925 187.718 16.7334L185.868 20.8415C185.643 21.3519 186.043 21.9121 186.606 21.8499C186.956 21.8125 187.406 21.7129 187.943 21.4764C188.106 21.4017 188.268 21.3519 188.431 21.3146C189.631 20.9909 190.743 21.3768 191.181 21.5636C191.306 21.6133 191.368 21.6507 191.368 21.6507L192.618 22.2109L191.806 24.0285C191.668 24.3272 191.781 24.6758 192.043 24.8501C192.068 24.875 192.106 24.8874 192.143 24.8999L193.243 25.3854C193.256 25.3978 193.268 25.3978 193.293 25.3978C193.618 25.5099 193.98 25.3605 194.13 25.0493L194.955 23.2317L195.38 23.4184L196.205 23.7919C196.205 23.7919 196.28 23.8168 196.393 23.8791C196.668 24.016 197.218 24.3023 197.718 24.8127C197.98 25.0742 198.218 25.3854 198.405 25.7589C198.48 25.9082 198.543 26.0701 198.605 26.2319C198.793 26.7921 199.005 27.1905 199.218 27.4768C199.543 27.925 200.243 27.8627 200.468 27.3523L202.317 23.2442C203.267 21.1403 201.718 19.2107 201.505 18.9493C201.48 18.9119 201.468 18.9119 201.468 18.9119ZM197.693 8.3303C198.218 7.1601 199.593 6.63724 200.768 7.16009C201.943 7.68295 202.467 9.05234 201.943 10.2225C201.418 11.3927 200.043 11.9156 198.868 11.3927C197.693 10.8699 197.168 9.5005 197.693 8.3303Z" fill="#FE0847"/>
<path opacity="0.2" d="M119.06 79.4015C118.66 79.8497 118.248 80.2978 117.835 80.7335C117.623 80.9576 117.41 81.1692 117.198 81.3809C117.173 81.4058 117.148 81.4307 117.135 81.4431C118.672 82.8872 120.497 83.9827 122.035 84.7421C122.985 83.6839 123.972 82.5262 124.622 81.7046C122.747 81.0199 119.76 78.7915 119.66 78.7168C119.46 78.9409 119.26 79.165 119.06 79.4015Z" fill="black"/>
<path opacity="0.2" d="M150.871 64.1141C150.808 64.2013 150.733 64.276 150.646 64.3631C150.446 64.5872 150.246 64.8113 150.033 65.0229C149.946 65.1225 149.846 65.2221 149.733 65.3341C149.633 65.4462 149.521 65.5582 149.421 65.6578C149.408 65.6702 149.396 65.6827 149.383 65.6952C149.383 65.6952 151.171 66.9774 153.958 67.7492C154.533 67.0396 155.083 66.33 155.62 65.5956C152.82 64.8237 151.233 63.7282 151.233 63.7282C151.121 63.8403 151.008 63.9772 150.871 64.1141Z" fill="black"/>
<path opacity="0.2" d="M204.48 0.811127C205.767 10.3595 197.943 20.3809 195.368 23.3936L196.193 23.767C196.193 23.767 196.268 23.7919 196.38 23.8542C196.655 23.9911 197.205 24.2774 197.705 24.7878H197.718L200.505 20.5801C200.855 20.0448 201.48 18.9119 201.48 18.9119L202.617 16.3972C206.217 8.36765 205.167 2.9399 204.48 0.811127Z" fill="black"/>
</svg>
