<svg width="24" height="24" viewBox="0 0 24 24" fill="none" xmlns="http://www.w3.org/2000/svg">
<path d="M11.9999 21.4401C10.1329 21.4401 8.30776 20.8864 6.75536 19.8491C5.20296 18.8119 3.99301 17.3375 3.27852 15.6126C2.56403 13.8877 2.37708 11.9896 2.74133 10.1584C3.10557 8.32723 4.00465 6.64518 5.32485 5.32497C6.64506 4.00477 8.32711 3.10569 10.1583 2.74145C11.9895 2.37721 13.8875 2.56415 15.6125 3.27864C17.3374 3.99313 18.8117 5.20308 19.849 6.75548C20.8863 8.30788 21.4399 10.133 21.4399 12.0001C21.4374 14.5029 20.442 16.9026 18.6722 18.6723C16.9024 20.4421 14.5028 21.4375 11.9999 21.4401V21.4401ZM11.9999 4.16006C10.4493 4.16006 8.93355 4.61987 7.64427 5.48134C6.35499 6.34281 5.35012 7.56725 4.75673 8.99982C4.16333 10.4324 4.00808 12.0088 4.31058 13.5296C4.61309 15.0504 5.35978 16.4473 6.45622 17.5438C7.55267 18.6402 8.94962 19.3869 10.4704 19.6894C11.9912 19.9919 13.5676 19.8367 15.0002 19.2433C16.4328 18.6499 17.6572 17.645 18.5187 16.3557C19.3801 15.0665 19.8399 13.5507 19.8399 12.0001C19.8374 9.92155 19.0106 7.92889 17.5409 6.45915C16.0711 4.98942 14.0785 4.1626 11.9999 4.16006V4.16006Z" fill="#646464"/>
<path d="M16.48 12.8002H7.51997C7.3078 12.8002 7.10431 12.7159 6.95429 12.5659C6.80426 12.4159 6.71997 12.2124 6.71997 12.0002C6.71997 11.788 6.80426 11.5845 6.95429 11.4345C7.10431 11.2845 7.3078 11.2002 7.51997 11.2002H16.48C16.6921 11.2002 16.8956 11.2845 17.0457 11.4345C17.1957 11.5845 17.28 11.788 17.28 12.0002C17.28 12.2124 17.1957 12.4159 17.0457 12.5659C16.8956 12.7159 16.6921 12.8002 16.48 12.8002V12.8002Z" fill="#646464"/>
<path d="M12 17.2802C11.7878 17.2802 11.5843 17.1959 11.4343 17.0459C11.2842 16.8959 11.2 16.6924 11.2 16.4802V7.52021C11.2 7.30804 11.2842 7.10456 11.4343 6.95453C11.5843 6.8045 11.7878 6.72021 12 6.72021C12.2121 6.72021 12.4156 6.8045 12.5656 6.95453C12.7157 7.10456 12.8 7.30804 12.8 7.52021V16.4802C12.8 16.6924 12.7157 16.8959 12.5656 17.0459C12.4156 17.1959 12.2121 17.2802 12 17.2802V17.2802Z" fill="#646464"/>
</svg>
