<svg width="155" height="102" viewBox="0 0 155 102" fill="none" xmlns="http://www.w3.org/2000/svg">
<path d="M74.6367 40.2571C74.552 39.3679 74.4391 38.6471 74.3449 38.0013C74.2602 37.421 74.1566 36.85 74.0531 36.2603C74.0248 36.1106 73.9684 35.8859 73.9307 35.7361C73.4129 33.6301 70.7017 32.3384 68.5836 32.8626C66.9927 33.2557 64.1779 35.3805 64.7427 39.3117C64.7427 39.3117 69.7415 68.7585 53.2201 85.148C51.0926 87.2634 48.0613 87.6939 45.5007 86.4771C42.686 84.9889 41.3116 81.6567 40.3137 78.7176C40.2007 78.3806 40.0972 78.0437 39.9936 77.7067C44.8135 70.5837 48.4473 62.5996 49.624 53.9696C49.9629 52.2099 49.5393 50.2443 48.4002 48.8028C46.3574 46.1446 42.3283 45.4893 39.5794 47.4175C38.5909 48.0821 37.9508 48.9713 37.2918 49.8792C32.2648 56.7495 31.041 65.6509 32.1895 73.8316C32.3213 74.646 32.4531 75.4509 32.6037 76.2653C30.5985 78.8767 28.3957 81.3384 26.0422 83.641C22.239 87.3944 17.9745 90.7266 13.0416 92.7764C12.9757 92.8045 12.9098 92.8326 12.8439 92.8607C12.7592 92.739 12.6462 92.5518 12.5521 92.3459C11.4789 90.1837 11.2153 87.5067 10.9235 85.0731C10.3116 79.5226 10.5093 73.8597 11.4319 68.3747C12.1661 63.9849 13.3523 59.7073 14.9526 55.5327C16.9484 50.3379 19.4054 45.3957 22.5779 40.7812C24.3101 38.2166 26.0987 35.6145 28.0097 33.1902L28.198 32.9656C28.2074 32.9468 28.2168 32.9468 28.2168 32.9468V32.9656C28.2168 32.9749 28.2074 32.9843 28.2074 32.9936C30.8621 29.8487 30.4479 25.1593 27.2849 22.5197C23.9994 19.7679 18.9818 20.3575 16.4589 23.8114C16.2706 24.0548 16.0164 24.4292 15.847 24.6725C13.2299 28.7535 10.9047 32.8439 8.68299 37.1682C1.38723 52.0695 -1.88881 69.2078 1.10481 85.6441C1.78261 89.1541 2.44158 92.5799 4.19257 95.8465C6.67783 100.714 11.6107 103.278 16.713 100.367C24.0088 96.6328 29.949 90.5394 35.0042 84.3149C35.8327 86.1308 36.8964 87.853 38.2897 89.4068C42.0553 93.6095 47.7695 94.7233 52.8718 92.4395C60.8172 88.8733 66.1925 79.8502 69.525 71.1734C70.2405 69.3295 70.8524 67.5136 71.3795 65.7633C71.6337 64.9302 71.8691 64.1065 72.0856 63.3109C72.4245 62.0754 72.7257 60.8305 72.9987 59.5763C73.8648 55.6263 74.4108 51.6108 74.7121 47.5673C74.9098 45.143 74.8909 42.6907 74.6367 40.2571ZM38.1485 67.785C38.1391 63.3109 39.3817 58.8836 42.0364 55.2893C41.7164 58.5279 41.0762 61.7665 39.6924 64.7243C39.2028 65.7539 38.6945 66.7742 38.1485 67.785Z" fill="#FE0847"/>
<path opacity="0.2" d="M28.8382 80.7471C29.6666 83.3961 30.7209 86.0918 31.6341 88.2914C32.8014 86.9997 33.9217 85.6705 35.0043 84.3414C33.7805 81.2432 32.6037 76.2637 32.6037 76.2637C31.4176 77.8081 30.1561 79.3057 28.8382 80.7471Z" fill="black"/>
<path d="M146.738 16.0156C146.521 15.9033 146.258 15.9875 146.154 16.2028C145.693 17.0733 145.194 18.0093 144.648 19.0015C144.601 19.0857 144.554 19.1793 144.507 19.2636C144.507 19.2636 144.507 19.2729 144.497 19.2729C144.328 19.5818 144.149 19.9 143.97 20.2183C143.819 20.4991 143.659 20.7799 143.499 21.0607C143.321 21.3696 143.142 21.6878 142.963 22.0061C142.784 22.3149 142.605 22.6332 142.417 22.9514C142.417 22.9514 142.417 22.9608 142.407 22.9608C141.57 24.3929 140.666 25.8905 139.715 27.3881C139.715 27.3881 139.715 27.3975 139.706 27.3975C139.395 27.8935 139.065 28.399 138.745 28.8951C138.745 28.8951 138.745 28.9044 138.736 28.9044C138.519 29.2414 138.303 29.569 138.077 29.8966C138.077 29.8966 138.077 29.8966 138.068 29.906C137.738 30.402 137.399 30.9075 137.051 31.3942C136.816 31.7405 136.571 32.0869 136.326 32.4238C135.987 32.9012 135.639 33.3785 135.29 33.8465C134.688 34.6515 134.076 35.4471 133.455 36.2146C133.21 36.5235 132.965 36.8231 132.711 37.1226C132.212 37.7216 131.704 38.3019 131.186 38.8729C130.932 39.1537 130.678 39.4252 130.414 39.6966C128.352 41.8588 126.225 43.684 124.088 44.9195C123.42 45.3033 122.751 45.6309 122.083 45.9023C121.97 45.9398 121.857 45.9772 121.753 46.0146C120.878 46.2954 120.087 46.3984 119.372 46.361C119.494 46.155 119.616 45.9585 119.729 45.7526C119.852 45.5466 119.965 45.3501 120.078 45.1442C120.36 44.6013 120.642 44.049 120.897 43.4874C121 43.2628 121.104 43.0288 121.188 42.8041C121.377 42.3455 121.556 41.8775 121.697 41.4001C121.734 41.2784 121.772 41.1568 121.8 41.0444C121.942 40.5671 122.045 40.071 122.13 39.5749C122.149 39.4439 122.158 39.3222 122.167 39.1912C122.205 38.77 122.224 38.3487 122.215 37.9369C122.205 36.692 121.998 35.4752 121.584 34.249C121.518 34.0525 121.452 33.8559 121.367 33.6687C121.33 33.5657 121.292 33.4721 121.254 33.3692C120.963 32.6578 120.567 32.0494 120.087 31.5627C120.049 31.5159 120.002 31.4691 119.955 31.4316C119.871 31.3474 119.776 31.2632 119.682 31.1883C119.447 30.9917 119.202 30.8232 118.939 30.6828C118.731 30.5705 118.515 30.4676 118.289 30.3833C118.232 30.3646 118.176 30.3459 118.12 30.3272C117.253 30.0557 116.293 30.0276 115.314 30.2991C115.032 30.374 114.759 30.4769 114.476 30.5986C114.326 30.6641 114.194 30.739 114.053 30.8139C113.921 30.8981 113.789 30.973 113.657 31.0666C113.535 31.1508 113.413 31.2538 113.29 31.3474C113.177 31.4504 113.064 31.5533 112.951 31.6563L112.791 31.8248C112.641 31.9933 112.49 32.1711 112.349 32.3583C111.793 33.1071 111.37 33.9682 111.059 34.8294C110.956 35.1195 110.861 35.4003 110.777 35.6905C110.692 35.9713 110.626 36.2521 110.56 36.5235C110.165 38.4236 110.099 40.6232 110.551 42.7012C110.588 42.8977 110.635 43.0943 110.692 43.2909C110.739 43.4874 110.805 43.684 110.861 43.8712C110.984 44.255 111.125 44.6294 111.294 44.9944C111.624 45.7245 112.038 46.4078 112.556 47.0162C112.678 47.1659 112.81 47.3157 112.951 47.4561C113.234 47.7463 113.535 48.0083 113.864 48.2611C113.78 48.3547 113.686 48.4576 113.591 48.5606C113.544 48.6261 113.488 48.6823 113.422 48.7478C113.271 48.9163 113.121 49.0847 112.961 49.2439C112.895 49.3187 112.82 49.3936 112.735 49.4779C112.659 49.5621 112.575 49.637 112.499 49.7212C112.452 49.768 112.405 49.8148 112.358 49.8616C112.217 50.0114 112.076 50.1518 111.925 50.2828C111.822 50.3858 111.709 50.4888 111.605 50.5824C111.473 50.704 111.351 50.8257 111.219 50.938C110.174 51.8834 109.082 52.7633 107.953 53.5589C104.855 55.8146 100.61 57.7054 97.1077 56.994C98.8587 54.0269 100.214 50.8819 100.76 47.8773C100.958 46.0895 100.977 44.2643 100.629 42.5046C100.572 42.2238 100.516 41.9524 100.44 41.6809C100.393 41.5124 100.346 41.344 100.29 41.1661C100.233 40.9789 100.167 40.7917 100.101 40.6045C100.035 40.436 99.9695 40.2676 99.9036 40.0991C99.8377 39.9493 99.7718 39.7996 99.7059 39.6498C99.6024 39.4345 99.4988 39.238 99.3765 39.0414C99.3011 38.9103 99.2164 38.7887 99.1317 38.667C99.047 38.5453 98.9622 38.433 98.8681 38.3207C97.1265 36.1678 94.2929 35.6156 91.5817 36.8605C90.6874 37.3004 89.9061 37.8714 89.2283 38.5547C88.9364 38.8448 88.6634 39.1537 88.4093 39.4813C88.1551 39.8089 87.9292 40.1552 87.7032 40.5109C87.4867 40.8666 87.289 41.241 87.1101 41.6248C86.9313 42.0085 86.7712 42.411 86.63 42.8135C85.8393 45.0506 85.5757 47.5684 85.764 49.974C85.8016 50.4794 85.8675 50.9755 85.9428 51.4622C85.9711 51.6213 85.9993 51.7898 86.0275 51.9489C86.0934 52.2672 86.1593 52.5854 86.2347 52.9037C86.357 53.3717 86.4888 53.8209 86.6489 54.2702C86.856 54.8599 87.1007 55.4122 87.3737 55.927C87.9292 57.0783 88.7199 58.1734 89.6613 59.1187C89.7931 59.2498 89.9343 59.3808 90.0755 59.5119C89.9249 59.6804 89.7743 59.8582 89.6237 60.0267C89.3224 60.3636 89.0118 60.7006 88.7011 61.0282C88.5411 61.1967 88.381 61.3558 88.221 61.5149C86.3006 63.4431 84.1448 65.0998 81.7819 66.3354C79.8803 67.2714 77.8939 67.7862 76.0394 67.6458C75.3898 67.5896 74.166 67.2714 74.1284 67.262C74.2225 67.4024 79.2025 74.2821 89.8496 66.223C89.9908 66.1201 92.6455 63.2653 93.8128 61.7677C94.1141 61.8706 94.4153 61.9549 94.7166 62.0297C100.412 63.415 106.22 60.2326 110.419 56.8349C112.98 54.7008 115.229 52.2859 117.169 49.637C120.482 50.208 124.107 48.7665 126.649 46.7634C127.486 46.1082 128.315 45.3782 129.134 44.5919C130.998 42.7948 132.786 40.6607 134.49 38.3581C134.81 37.9275 135.13 37.4876 135.441 37.0383C135.648 36.7388 135.855 36.4393 136.062 36.1398C136.166 35.99 136.27 35.8402 136.373 35.6905C136.58 35.391 136.778 35.0821 136.985 34.7732C139.103 31.5533 141.061 28.1182 142.803 24.8141C143.132 24.187 143.452 23.5598 143.772 22.9421C144.092 22.3243 144.394 21.7065 144.695 21.0981C144.977 20.5272 145.25 19.9656 145.523 19.4133C145.542 19.3852 145.552 19.3478 145.57 19.3197V19.3104C146.032 18.365 146.474 17.4383 146.888 16.5585C147.03 16.3619 146.945 16.1186 146.738 16.0156ZM96.8159 47.2502C96.637 48.4015 96.2322 49.5247 95.7615 50.6292C95.6015 50.9942 95.432 51.3592 95.2626 51.7243C94.726 52.7726 94.1517 53.8116 93.5116 54.8318C93.4645 54.7757 93.4175 54.7195 93.3704 54.6634C93.2762 54.551 93.1821 54.4294 93.0974 54.3077C92.8715 53.9988 92.6549 53.6618 92.4667 53.2874C92.2595 52.8756 92.0619 52.445 91.9018 51.9864C91.8642 51.8741 91.8171 51.7524 91.7794 51.6401C91.7041 51.4061 91.6288 51.172 91.5723 50.9287C90.8004 47.9709 91.0075 44.4702 92.5796 42.0273C92.7491 41.7933 92.9185 41.5873 93.1068 41.4001C93.4175 41.1006 93.7658 40.8666 94.2082 40.7262C94.8484 40.4922 95.3097 40.642 95.658 41.007C95.7803 41.1287 95.8839 41.2784 95.978 41.4376C95.9969 41.4657 96.0063 41.4937 96.0251 41.5218C96.0722 41.606 96.1193 41.6997 96.1569 41.7933C96.2981 42.1021 96.4205 42.4578 96.5335 42.8135C96.8912 44.1426 96.9947 45.8087 96.8159 47.2502ZM119.061 39.1163C119.033 39.3409 118.995 39.5656 118.939 39.7808C118.863 40.1178 118.769 40.4454 118.656 40.7636C118.543 41.0819 118.411 41.4095 118.27 41.7184C118.176 41.9337 118.072 42.1396 117.969 42.3455C117.922 42.4485 117.865 42.5514 117.809 42.6544C117.705 42.8603 117.592 43.0662 117.479 43.2721C117.423 43.3751 117.366 43.4781 117.31 43.581C117.206 43.7589 117.093 43.9367 116.98 44.1145C116.867 44.3018 116.745 44.489 116.623 44.6762C116.623 44.6762 116.623 44.6762 116.623 44.6855C116.547 44.8072 116.463 44.9289 116.387 45.0506C116.303 44.9663 116.218 44.8821 116.143 44.7885C115.983 44.6013 115.832 44.4141 115.691 44.1988C115.55 43.9929 115.427 43.7776 115.305 43.5529C114.655 42.2987 114.345 40.7449 114.345 39.1537C114.345 38.8448 114.354 38.5266 114.382 38.2177C114.41 37.8807 114.448 37.5344 114.505 37.1975C114.523 37.1132 114.533 37.0383 114.552 36.9541C114.712 36.1491 114.938 35.2974 115.333 34.6422C115.493 34.3801 115.681 34.1461 115.898 33.9589C115.954 33.9121 116.011 33.8746 116.067 33.8278C116.105 33.8091 116.143 33.7997 116.171 33.781C116.246 33.7529 116.321 33.7155 116.397 33.6968C116.604 33.6313 116.82 33.5845 116.999 33.5938C117.291 33.6219 117.545 33.7623 117.771 33.9776C117.809 34.0057 117.847 34.0431 117.884 34.0899C117.922 34.1274 117.959 34.1742 117.988 34.2116C118.025 34.249 118.054 34.2958 118.091 34.3426C118.157 34.4362 118.214 34.5392 118.27 34.6422C118.298 34.689 118.327 34.7451 118.355 34.8013C118.91 35.9245 119.127 37.5625 119.108 38.4517C119.117 38.6576 119.099 38.8916 119.061 39.1163Z" fill="#FE0847"/>
<path d="M151.737 14.5641L152.593 12.6734C155.314 6.63615 154.523 2.55516 154.005 0.963947C153.968 0.860987 153.939 0.767386 153.902 0.683145C153.798 0.411703 153.497 0.271302 153.224 0.383622C151.878 0.907787 147.99 2.90148 145.09 9.34121L144.234 11.2319C144.205 11.2319 142.134 11.2413 141.381 12.9261L139.988 16.0149C139.819 16.3987 140.12 16.8199 140.543 16.7731C140.807 16.745 141.146 16.6702 141.551 16.4923C141.673 16.4362 141.795 16.3987 141.918 16.3706C142.822 16.1273 143.659 16.4174 143.989 16.5578C144.083 16.5953 144.13 16.6234 144.13 16.6234L145.072 17.0446L144.46 18.4111C144.356 18.6358 144.441 18.8978 144.638 19.0289C144.657 19.0476 144.686 19.057 144.714 19.0663L145.542 19.4314C145.552 19.4407 145.561 19.4407 145.58 19.4407C145.825 19.525 146.098 19.4127 146.211 19.1787L146.832 17.8121L147.152 17.9525L147.773 18.2333C147.773 18.2333 147.83 18.252 147.915 18.2988C148.122 18.4018 148.536 18.617 148.912 19.0008C149.11 19.1974 149.289 19.4314 149.43 19.7122C149.487 19.8245 149.534 19.9462 149.581 20.0679C149.722 20.4891 149.882 20.7886 150.042 21.0039C150.287 21.3408 150.814 21.294 150.983 20.9103L152.377 17.8214C153.092 16.2396 151.925 14.7888 151.765 14.5922C151.746 14.5641 151.737 14.5641 151.737 14.5641ZM148.894 6.60807C149.289 5.72823 150.324 5.3351 151.209 5.72822C152.094 6.12135 152.49 7.15096 152.094 8.0308C151.699 8.91065 150.663 9.30377 149.778 8.91065C148.894 8.51753 148.498 7.48792 148.894 6.60807Z" fill="#FE0847"/>
<path opacity="0.2" d="M89.6708 60.0451C89.3695 60.382 89.0588 60.719 88.7482 61.0466C88.5881 61.2151 88.4281 61.3742 88.2681 61.5333C88.2492 61.5521 88.2304 61.5708 88.221 61.5801C89.3789 62.6659 90.7533 63.4896 91.9113 64.0606C92.6267 63.2649 93.3704 62.3945 93.8599 61.7767C92.4479 61.2619 90.1979 59.5864 90.1226 59.5303C89.972 59.6988 89.8214 59.8672 89.6708 60.0451Z" fill="black"/>
<path opacity="0.2" d="M113.629 48.5509C113.582 48.6164 113.526 48.6726 113.46 48.7381C113.309 48.9066 113.158 49.0751 112.998 49.2342C112.932 49.3091 112.857 49.384 112.772 49.4682C112.697 49.5524 112.612 49.6367 112.537 49.7116C112.528 49.7209 112.518 49.7303 112.509 49.7396C112.509 49.7396 113.855 50.7037 115.954 51.2841C116.387 50.7505 116.802 50.217 117.206 49.6648C115.098 49.0844 113.902 48.2607 113.902 48.2607C113.817 48.345 113.733 48.4479 113.629 48.5509Z" fill="black"/>
<path opacity="0.2" d="M154.005 0.954102C154.975 8.13328 149.082 15.6681 147.143 17.9333L147.764 18.2141C147.764 18.2141 147.82 18.2328 147.905 18.2796C148.112 18.3826 148.526 18.5978 148.903 18.9816H148.912L151.012 15.8179C151.275 15.4154 151.746 14.5637 151.746 14.5637L152.603 12.6729C155.314 6.63567 154.523 2.55467 154.005 0.954102Z" fill="black"/>
</svg>
