<svg width="28" height="29" viewBox="0 0 28 29" fill="none" xmlns="http://www.w3.org/2000/svg">
<circle cx="14" cy="14.5" r="14" fill="#C1D37F" style="mix-blend-mode:multiply"/>
<path d="M12.6 20.0667C12.4324 20.0656 12.2721 19.9982 12.1541 19.8792L7.21161 14.9392C7.09269 14.8203 7.02588 14.659 7.02588 14.4908C7.02588 14.3226 7.09269 14.1613 7.21161 14.0424C7.33054 13.9235 7.49183 13.8567 7.66001 13.8567C7.82819 13.8567 7.98949 13.9235 8.10841 14.0424L12.6 18.5365L20.8916 10.2449C21.0105 10.126 21.1718 10.0592 21.34 10.0592C21.5082 10.0592 21.6695 10.126 21.7884 10.2449C21.9073 10.3639 21.9741 10.5252 21.9741 10.6933C21.9741 10.8615 21.9073 11.0228 21.7884 11.1417L13.0484 19.8792C12.9897 19.9384 12.9199 19.9855 12.8429 20.0177C12.766 20.0498 12.6834 20.0665 12.6 20.0667Z" fill="white"/>
</svg>
