<svg width="20" height="20" viewBox="0 0 20 20" fill="none" xmlns="http://www.w3.org/2000/svg">
<path d="M9.99999 13.3335C9.91236 13.3338 9.82554 13.3168 9.74453 13.2834C9.66352 13.25 9.58993 13.2008 9.52799 13.1389L4.19465 7.80552C4.06947 7.68034 3.99915 7.51056 3.99915 7.33352C3.99915 7.15649 4.06947 6.98671 4.19465 6.86152C4.31984 6.73634 4.48962 6.66602 4.66665 6.66602C4.84369 6.66602 5.01347 6.73634 5.13865 6.86152L9.99999 11.7335L14.8613 6.86152C14.9865 6.73634 15.1563 6.66602 15.3333 6.66602C15.5104 6.66602 15.6801 6.73634 15.8053 6.86152C15.9305 6.98671 16.0008 7.15649 16.0008 7.33352C16.0008 7.51056 15.9305 7.68034 15.8053 7.80552L10.472 13.1389C10.4101 13.2008 10.3365 13.25 10.2554 13.2834C10.1744 13.3168 10.0876 13.3338 9.99999 13.3335V13.3335Z" fill="#ACACAC"/>
</svg>
