<svg width="28" height="28" viewBox="0 0 28 28" fill="none" xmlns="http://www.w3.org/2000/svg">
<path d="M14.0001 18.6665C13.8774 18.667 13.7558 18.6431 13.6424 18.5963C13.529 18.5496 13.426 18.4808 13.3393 18.394L5.87259 10.9273C5.69733 10.7521 5.59888 10.5144 5.59888 10.2665C5.59888 10.0187 5.69733 9.781 5.87259 9.60574C6.04784 9.43049 6.28554 9.33203 6.53339 9.33203C6.78124 9.33203 7.01893 9.43049 7.19419 9.60574L14.0001 16.4265L20.8059 9.60574C20.9812 9.43049 21.2189 9.33203 21.4667 9.33203C21.7146 9.33203 21.9523 9.43049 22.1275 9.60574C22.3028 9.781 22.4012 10.0187 22.4012 10.2665C22.4012 10.5144 22.3028 10.7521 22.1275 10.9273L14.6609 18.394C14.5741 18.4808 14.4711 18.5496 14.3577 18.5963C14.2443 18.6431 14.1227 18.667 14.0001 18.6665Z" fill="#FE0847"/>
</svg>
