<svg width="19" height="18" viewBox="0 0 19 18" fill="none" xmlns="http://www.w3.org/2000/svg">
<path d="M9.49999 16.08C8.09969 16.08 6.73085 15.6648 5.56655 14.8868C4.40225 14.1088 3.49479 13.0031 2.95892 11.7094C2.42305 10.4157 2.28284 8.99213 2.55603 7.61875C2.82921 6.24536 3.50351 4.98383 4.49367 3.99367C5.48383 3.00351 6.74536 2.32921 8.11875 2.05603C9.49213 1.78284 10.9157 1.92305 12.2094 2.45892C13.5031 2.99479 14.6088 3.90225 15.3868 5.06655C16.1648 6.23085 16.58 7.59969 16.58 8.99999C16.5781 10.8771 15.8315 12.6769 14.5042 14.0042C13.1769 15.3315 11.3771 16.0781 9.49999 16.08ZM9.49999 3.11999C8.33703 3.11999 7.20019 3.46484 6.23323 4.11094C5.26627 4.75705 4.51262 5.67538 4.06757 6.74981C3.62253 7.82424 3.50609 9.00651 3.73297 10.1471C3.95985 11.2877 4.51987 12.3354 5.3422 13.1578C6.16453 13.9801 7.21225 14.5401 8.35286 14.767C9.49346 14.9939 10.6757 14.8774 11.7502 14.4324C12.8246 13.9874 13.7429 13.2337 14.389 12.2667C15.0351 11.2998 15.38 10.1629 15.38 8.99999C15.3781 7.4411 14.758 5.9466 13.6557 4.8443C12.5534 3.742 11.0589 3.12189 9.49999 3.11999Z" fill="white"/>
<path d="M12.86 9.59996H6.13998C5.98085 9.59996 5.82824 9.53675 5.71571 9.42423C5.60319 9.31171 5.53998 9.15909 5.53998 8.99996C5.53998 8.84083 5.60319 8.68822 5.71571 8.5757C5.82824 8.46318 5.98085 8.39996 6.13998 8.39996H12.86C13.0191 8.39996 13.1717 8.46318 13.2842 8.5757C13.3968 8.68822 13.46 8.84083 13.46 8.99996C13.46 9.15909 13.3968 9.31171 13.2842 9.42423C13.1717 9.53675 13.0191 9.59996 12.86 9.59996Z" fill="white"/>
<path d="M9.49999 12.96C9.34086 12.96 9.18825 12.8968 9.07573 12.7842C8.96321 12.6717 8.89999 12.5191 8.89999 12.36V5.63998C8.89999 5.48085 8.96321 5.32824 9.07573 5.21571C9.18825 5.10319 9.34086 5.03998 9.49999 5.03998C9.65912 5.03998 9.81174 5.10319 9.92426 5.21571C10.0368 5.32824 10.1 5.48085 10.1 5.63998V12.36C10.1 12.5191 10.0368 12.6717 9.92426 12.7842C9.81174 12.8968 9.65912 12.96 9.49999 12.96Z" fill="white"/>
</svg>
