<svg width="18" height="18" viewBox="0 0 18 18" fill="none" xmlns="http://www.w3.org/2000/svg">
<path d="M6.44401 16.08C6.32569 16.0791 6.21026 16.0433 6.11213 15.9772C6.014 15.9111 5.93751 15.8176 5.8922 15.7083C5.84689 15.599 5.83477 15.4787 5.85736 15.3626C5.87995 15.2465 5.93624 15.1395 6.01921 15.0552L6.92161 14.16C7.03461 14.0505 7.18609 13.9898 7.34342 13.991C7.50074 13.9921 7.65133 14.055 7.76273 14.1661C7.87414 14.2772 7.93746 14.4276 7.93904 14.5849C7.94063 14.7422 7.88035 14.8939 7.77121 15.0072L6.86881 15.9096C6.75529 16.0203 6.60256 16.0815 6.44401 16.08Z" fill="#FE0847"/>
<path d="M2.76001 12.396C2.64118 12.3962 2.52497 12.3611 2.42611 12.2952C2.32724 12.2293 2.25017 12.1355 2.20467 12.0258C2.15917 11.916 2.14728 11.7952 2.17052 11.6787C2.19376 11.5621 2.25108 11.4551 2.33521 11.3712L3.24001 10.4688C3.35567 10.3765 3.50135 10.3302 3.64906 10.3388C3.79676 10.3474 3.93609 10.4103 4.04026 10.5154C4.14444 10.6204 4.20612 10.7603 4.21345 10.9081C4.22079 11.0559 4.17327 11.2011 4.08001 11.316L3.18481 12.2208C3.07163 12.3326 2.91909 12.3955 2.76001 12.396Z" fill="#FE0847"/>
<path d="M3.4512 15.3888C3.29212 15.3883 3.13958 15.3254 3.0264 15.2136C2.97052 15.1579 2.92619 15.0916 2.89595 15.0187C2.8657 14.9459 2.85013 14.8677 2.85013 14.7888C2.85013 14.7099 2.8657 14.6317 2.89595 14.5588C2.92619 14.4859 2.97052 14.4197 3.0264 14.364L5.0808 12.3096C5.19411 12.2004 5.34576 12.1402 5.50309 12.1418C5.66041 12.1433 5.81081 12.2067 5.92191 12.3181C6.033 12.4295 6.09589 12.5801 6.09703 12.7374C6.09817 12.8947 6.03747 13.0462 5.928 13.1592L3.876 15.2136C3.76282 15.3254 3.61028 15.3883 3.4512 15.3888Z" fill="#FE0847"/>
<path d="M11.4288 15.96C11.3776 15.9599 11.3267 15.9526 11.2776 15.9384C11.1761 15.9122 11.0833 15.8598 11.0083 15.7865C10.9334 15.7133 10.8789 15.6216 10.8504 15.5208L9.972 12.348C9.92967 12.1946 9.95001 12.0307 10.0286 11.8923C10.1071 11.7539 10.2374 11.6523 10.3908 11.61C10.5442 11.5677 10.7081 11.588 10.8465 11.6665C10.9849 11.7451 11.0865 11.8754 11.1288 12.0288L11.7336 14.208L13.0992 12.8424L12.6192 10.3632C12.6034 10.286 12.603 10.2064 12.618 10.129C12.633 10.0517 12.6631 9.97801 12.7066 9.91226C12.7943 9.77949 12.9312 9.68701 13.0872 9.65519C13.2431 9.62336 13.4053 9.65479 13.5381 9.74256C13.6709 9.83032 13.7634 9.96724 13.7952 10.1232L14.3472 12.9144C14.3665 13.0112 14.3618 13.1114 14.3333 13.206C14.3049 13.3006 14.2536 13.3867 14.184 13.4568L11.8632 15.7752C11.8073 15.8341 11.7399 15.8809 11.6652 15.9127C11.5905 15.9445 11.51 15.9606 11.4288 15.96Z" fill="#FE0847"/>
<path d="M8.98562 13.3776C8.90661 13.3774 8.82841 13.3616 8.75551 13.3312C8.68261 13.3007 8.61645 13.2561 8.56082 13.2L5.04002 9.67679C4.96458 9.60269 4.91033 9.50976 4.8829 9.40764C4.85547 9.30551 4.85586 9.19791 4.88402 9.09599C6.18002 4.34399 11.04 1.19999 15.6936 2.06639C15.8129 2.08826 15.9227 2.14589 16.0084 2.23162C16.0941 2.31735 16.1517 2.42713 16.1736 2.54639C17.04 7.19999 13.8936 12.0576 9.14402 13.356C9.09242 13.3702 9.03915 13.3775 8.98562 13.3776ZM6.13682 9.08159L9.15842 12.1008C12.9984 10.8792 15.552 7.00319 15.06 3.17999C11.232 2.68799 7.35842 5.24399 6.13682 9.08159Z" fill="#FE0847"/>
<path d="M6.05041 8.2896C5.9961 8.28951 5.94203 8.28225 5.88961 8.268L2.71921 7.3872C2.618 7.35925 2.52588 7.30523 2.45208 7.23054C2.37828 7.15584 2.32538 7.06308 2.29866 6.96154C2.27193 6.85999 2.27233 6.75321 2.2998 6.65186C2.32727 6.55051 2.38086 6.45815 2.45521 6.384L4.77601 4.0656C4.84551 3.99579 4.93113 3.94416 5.02531 3.91528C5.11949 3.8864 5.21933 3.88115 5.31601 3.9L8.10721 4.452C8.26348 4.48383 8.4007 4.57642 8.48869 4.70942C8.57669 4.84243 8.60824 5.00493 8.57641 5.1612C8.54459 5.31746 8.45199 5.45469 8.31899 5.54268C8.18599 5.63067 8.02348 5.66223 7.86721 5.6304L5.39041 5.1504L4.03201 6.5064L6.21121 7.1112C6.35128 7.14983 6.47257 7.23798 6.55256 7.35927C6.63255 7.48056 6.66581 7.62676 6.64617 7.77072C6.62652 7.91468 6.55531 8.04663 6.44574 8.14205C6.33618 8.23748 6.19571 8.28991 6.05041 8.2896Z" fill="#FE0847"/>
<path d="M11.4024 8.7072C11.1567 8.70836 10.9132 8.66057 10.6862 8.56662C10.4591 8.47267 10.2531 8.33444 10.08 8.16C9.81717 7.89861 9.63784 7.56508 9.56476 7.20166C9.49168 6.83824 9.52813 6.46131 9.66951 6.11864C9.81089 5.77596 10.0508 5.48298 10.3589 5.27682C10.667 5.07066 11.0293 4.9606 11.4 4.9606C11.7707 4.9606 12.1331 5.07066 12.4411 5.27682C12.7492 5.48298 12.9891 5.77596 13.1305 6.11864C13.2719 6.46131 13.3084 6.83824 13.2353 7.20166C13.1622 7.56508 12.9829 7.89861 12.72 8.16C12.5473 8.33354 12.342 8.47123 12.1158 8.56514C11.8897 8.65905 11.6473 8.70733 11.4024 8.7072ZM11.4024 6.1656C11.2691 6.16395 11.1383 6.20215 11.0268 6.27531C10.9153 6.34846 10.8282 6.45325 10.7766 6.57623C10.725 6.69921 10.7114 6.83479 10.7373 6.96559C10.7633 7.09639 10.8278 7.21646 10.9224 7.3104C11.051 7.43531 11.2232 7.50519 11.4024 7.50519C11.5817 7.50519 11.7539 7.43531 11.8824 7.3104C11.9771 7.21646 12.0415 7.09639 12.0675 6.96559C12.0935 6.83479 12.0798 6.69921 12.0282 6.57623C11.9767 6.45325 11.8896 6.34846 11.7781 6.27531C11.6666 6.20215 11.5358 6.16395 11.4024 6.1656Z" fill="#FE0847"/>
</svg>
