<svg width="36" height="36" viewBox="0 0 36 36" fill="none" xmlns="http://www.w3.org/2000/svg">
<path d="M18 35.8494C27.9 35.8494 35.85 27.8661 35.85 17.9247C35.85 7.98326 27.9 0 18 0C8.10005 0 0.300049 8.13389 0.300049 17.9247C0.300049 27.8661 8.25005 35.8494 18 35.8494Z" fill="#07BB07"/>
<path fill-rule="evenodd" clip-rule="evenodd" d="M23.1 20.0335C22.8 19.8828 21.6 19.2803 21.3 19.1297C21 18.9791 20.85 18.9791 20.7 19.2803C20.55 19.5816 19.95 20.0335 19.8 20.3347C19.65 20.4854 19.5 20.4854 19.2 20.3347C18.9 20.1841 18.15 19.8828 17.1 18.9791C16.35 18.2259 15.9 17.3222 15.75 17.1715C15.6 16.8703 15.75 16.7197 15.9 16.569C16.05 16.4184 16.2 16.2678 16.35 16.1172C16.5 15.9665 16.5 15.8159 16.65 15.6653C16.8 15.5146 16.65 15.364 16.65 15.2134C16.65 15.0628 16.05 13.7071 15.9 13.2552C15.75 12.6527 15.45 12.8033 15.3 12.8033C15.15 12.8033 15 12.8033 14.85 12.8033C14.7 12.8033 14.4 12.8033 14.1 13.1046C13.8 13.1046 13.2 13.8577 13.05 15.0628C13.05 16.4184 13.95 17.6234 13.95 17.7741C14.1 17.9247 15.6 20.7866 18.3 21.9916C21 23.1967 21 22.7448 21.45 22.7448C21.9 22.7448 23.1 22.1423 23.25 21.5397C23.55 20.9372 23.55 20.3347 23.4 20.3347C23.55 20.1841 23.4 20.1841 23.1 20.0335ZM18.3 26.2092C16.5 26.2092 15 25.6067 13.65 24.8536L10.35 25.908L11.4 22.7448C10.35 21.3891 9.75 19.5816 9.75 17.6234C9.75 12.954 13.5 9.03766 18.3 9.03766C23.1 9.03766 26.85 12.954 26.85 17.6234C26.85 22.4435 22.95 26.2092 18.3 26.2092ZM18.3 7.38075C12.6 7.38075 7.95 12.0502 7.95 17.7741C7.95 19.7322 8.55 21.5397 9.45 23.1967L7.5 28.6192L13.2 26.8117C14.7 27.5649 16.35 28.1674 18.15 28.1674C23.85 28.1674 28.5 23.4979 28.5 17.7741C28.5 11.8996 24 7.38075 18.3 7.38075Z" fill="#F1F2F2"/>
</svg>
