<svg width="80" height="80" viewBox="0 0 80 80" fill="none" xmlns="http://www.w3.org/2000/svg">
<circle cx="40" cy="40" r="40" fill="#2257F7"/>
<path d="M48.513 33.229C48.206 25.516 41.288 19 33.762 19C26.062 19 19 25.818 19 33.762C19 45.093 30.053 47.655 33.762 60.006C35.286 54.932 38.049 51.51 40.776 48.454" stroke="white" stroke-width="2" stroke-miterlimit="10" stroke-linejoin="round"/>
<path d="M33.7821 38.643C36.5109 38.643 38.7231 36.4492 38.7231 33.743C38.7231 31.0368 36.5109 28.843 33.7821 28.843C31.0532 28.843 28.8411 31.0368 28.8411 33.743C28.8411 36.4492 31.0532 38.643 33.7821 38.643Z" stroke="white" stroke-width="2" stroke-miterlimit="10" stroke-linejoin="round"/>
<path d="M51.776 60.222C54.038 52.692 60.776 51.13 60.776 44.222C60.776 39.379 56.47 35.222 51.776 35.222C47.082 35.222 42.776 39.379 42.776 44.222C42.776 51.13 49.514 52.692 51.776 60.222Z" stroke="white" stroke-width="2" stroke-miterlimit="10" stroke-linejoin="round"/>
<path d="M51.789 47.198C53.4525 47.198 54.801 45.8602 54.801 44.21C54.801 42.5598 53.4525 41.222 51.789 41.222C50.1255 41.222 48.777 42.5598 48.777 44.21C48.777 45.8602 50.1255 47.198 51.789 47.198Z" stroke="white" stroke-width="2" stroke-miterlimit="10" stroke-linejoin="round"/>
</svg>
