<svg width="80" height="80" viewBox="0 0 80 80" fill="none" xmlns="http://www.w3.org/2000/svg">
<circle cx="40" cy="40" r="40" fill="#2257F7"/>
<path d="M21.8091 22.672C22.2261 23.89 21.6961 25.159 22.4391 27.033C23.2791 29.152 23.7671 29.717 24.4881 31.533C25.3151 33.616 25.4561 36.781 26.6721 39.584C27.3531 40.44 30.1381 39.691 30.4031 37.452C30.6691 35.209 29.8341 33.982 29.9951 32.621C30.0981 31.752 30.4041 30.918 30.7031 30.271C30.8721 29.906 31.6051 29.765 32.2051 29.739C33.7431 29.675 37.7791 29.634 37.7791 29.634L44.2921 31.489L49.1751 35.174C50.3371 35.972 51.8571 35.424 52.2911 34.37C52.7261 33.316 52.3041 32.227 51.3371 31.432L47.0851 27.581L42.1811 23.533C42.1811 23.533 33.3121 19.585 32.1461 18.784C31.0001 17.997 30.7981 17 30.7981 17" stroke="white" stroke-width="2" stroke-miterlimit="10" stroke-linecap="round"/>
<path d="M39.1741 30.031L43.2871 34.2C43.2871 34.2 45.0971 36.997 46.0231 38.229C46.7461 39.191 48.2411 39.44 49.2621 38.566C50.1201 37.832 50.2781 36.441 49.3451 35.277" stroke="white" stroke-width="2" stroke-miterlimit="10" stroke-linecap="round"/>
<path d="M33.947 29.691L37.8781 34.207C37.8781 34.207 39.609 36.733 40.466 38.015C41.322 39.296 42.547 39.642 43.664 38.895C44.781 38.148 44.869 36.656 44.217 35.617" stroke="white" stroke-width="2" stroke-miterlimit="10" stroke-linecap="round"/>
<path d="M59.1251 58.897C58.9371 57.624 59.6901 56.473 59.3011 54.494C58.8611 52.258 58.4851 51.613 58.1071 49.696C57.6741 47.497 58.1121 44.36 57.4281 41.382C56.9151 40.416 54.0401 40.644 53.3701 42.798C52.7001 44.955 53.2971 46.314 52.8911 47.622C52.6311 48.457 52.1781 49.222 51.7661 49.803C51.5331 50.132 50.7871 50.137 50.1921 50.052C48.6691 49.835 44.6921 49.139 44.6921 49.139L38.6271 46.126L34.4981 41.613C33.5011 40.616 31.9071 40.878 31.2881 41.835C30.6681 42.792 30.8851 43.939 31.6901 44.898L35.1691 49.46L39.2521 54.335C39.2521 54.335 47.2521 59.835 48.2521 60.835C49.2351 61.818 49.2521 62.835 49.2521 62.835" stroke="white" stroke-width="2" stroke-miterlimit="10" stroke-linecap="round"/>
<path d="M44.6819 49.136L42.196 46.375C42.196 46.375 40.797 43.462 40.074 42.643C39.066 41.52 37.926 41.542 36.746 41.678C35.567 41.814 35.063 42.233 35.063 42.233" stroke="white" stroke-width="2" stroke-miterlimit="10" stroke-linecap="round"/>
</svg>
