<svg width="13" height="13" viewBox="0 0 13 13" fill="none" xmlns="http://www.w3.org/2000/svg">
<path d="M6.49998 1.08337C3.52081 1.08337 1.08331 3.52087 1.08331 6.50004C1.08331 9.47921 3.52081 11.9167 6.49998 11.9167C9.47915 11.9167 11.9166 9.47921 11.9166 6.50004C11.9166 3.52087 9.47915 1.08337 6.49998 1.08337ZM8.77498 5.57921L6.17498 8.17921C5.95831 8.39587 5.63331 8.39587 5.41665 8.17921L4.22498 6.98754C4.00831 6.77087 4.00831 6.44587 4.22498 6.22921C4.44165 6.01254 4.76665 6.01254 4.98331 6.22921L5.79581 7.04171L8.01665 4.82087C8.23331 4.60421 8.55831 4.60421 8.77498 4.82087C8.99165 5.03754 8.99165 5.36254 8.77498 5.57921Z" fill="#56DC64"/>
</svg>
