<svg width="24" height="24" viewBox="0 0 24 24" fill="none" xmlns="http://www.w3.org/2000/svg">
<path fill-rule="evenodd" clip-rule="evenodd" d="M4 3C4 2.72386 4.22386 2.5 4.5 2.5H8.5C8.77614 2.5 9 2.72386 9 3V7C9 7.27614 8.77614 7.5 8.5 7.5H4.5C4.22386 7.5 4 7.27614 4 7V3ZM5 3.5V6.5H8V3.5H5Z" fill="black"/>
<path fill-rule="evenodd" clip-rule="evenodd" d="M4 10C4 9.72386 4.22386 9.5 4.5 9.5H8.5C8.77614 9.5 9 9.72386 9 10V14C9 14.2761 8.77614 14.5 8.5 14.5H4.5C4.22386 14.5 4 14.2761 4 14V10ZM5 10.5V13.5H8V10.5H5Z" fill="black"/>
<path fill-rule="evenodd" clip-rule="evenodd" d="M4 17C4 16.7239 4.22386 16.5 4.5 16.5H8.5C8.77614 16.5 9 16.7239 9 17V21C9 21.2761 8.77614 21.5 8.5 21.5H4.5C4.22386 21.5 4 21.2761 4 21V17ZM5 17.5V20.5H8V17.5H5Z" fill="black"/>
<path fill-rule="evenodd" clip-rule="evenodd" d="M15 4H11V3H15V4Z" fill="black"/>
<path fill-rule="evenodd" clip-rule="evenodd" d="M15 11H11V10H15V11Z" fill="black"/>
<path fill-rule="evenodd" clip-rule="evenodd" d="M15 18H11V17H15V18Z" fill="black"/>
<path fill-rule="evenodd" clip-rule="evenodd" d="M20 7H11V6H20V7Z" fill="black"/>
<path fill-rule="evenodd" clip-rule="evenodd" d="M20 14H11V13H20V14Z" fill="black"/>
<path fill-rule="evenodd" clip-rule="evenodd" d="M20 21H11V20H20V21Z" fill="black"/>
</svg>
