<svg width="24" height="24" viewBox="0 0 24 24" fill="none" xmlns="http://www.w3.org/2000/svg">
<path fill-rule="evenodd" clip-rule="evenodd" d="M12.8321 4.15622C12.3282 3.82032 11.6718 3.82032 11.1679 4.15622L4.16795 8.82289C3.75065 9.10109 3.5 9.56943 3.5 10.071V19.0006C3.5 19.829 4.17157 20.5006 5 20.5006H8.5V16.0006C8.5 14.6199 9.61929 13.5006 11 13.5006H13C14.3807 13.5006 15.5 14.6199 15.5 16.0006V20.5006H19C19.8284 20.5006 20.5 19.829 20.5 19.0006V10.071C20.5 9.56943 20.2493 9.10109 19.8321 8.82289L12.8321 4.15622ZM10.6132 3.32417C11.453 2.76434 12.547 2.76434 13.3868 3.32417L20.3867 7.99084C21.0822 8.4545 21.5 9.23508 21.5 10.071V19.0006C21.5 20.3813 20.3807 21.5006 19 21.5006H15C14.7239 21.5006 14.5 21.2767 14.5 21.0006V16.0006C14.5 15.1722 13.8284 14.5006 13 14.5006H11C10.1716 14.5006 9.5 15.1722 9.5 16.0006V21.0006C9.5 21.2767 9.27614 21.5006 9 21.5006H5C3.61929 21.5006 2.5 20.3813 2.5 19.0006V10.071C2.5 9.23508 2.91775 8.4545 3.61325 7.99084L10.6132 3.32417Z" fill="black"/>
</svg>
