<svg width="80" height="80" viewBox="0 0 80 80" fill="none" xmlns="http://www.w3.org/2000/svg">
<circle cx="40" cy="40" r="40" fill="white"/>
<path fill-rule="evenodd" clip-rule="evenodd" d="M25.6206 26.4557C25.6206 25.9926 25.996 25.6172 26.4591 25.6172H53.2917C53.7548 25.6172 54.1302 25.9926 54.1302 26.4557V56.6423C54.1302 57.1054 53.7548 57.4808 53.2917 57.4808H26.4591C25.996 57.4808 25.6206 57.1054 25.6206 56.6423V26.4557ZM27.2976 27.2942V55.8038H52.4531V27.2942H27.2976Z" fill="#FFD521"/>
<path fill-rule="evenodd" clip-rule="evenodd" d="M34.0059 23.1016V29.8097H32.3289V23.1016H34.0059Z" fill="#FFD521"/>
<path fill-rule="evenodd" clip-rule="evenodd" d="M40.7139 23.1016V29.8097H39.0369V23.1016H40.7139Z" fill="#FFD521"/>
<path fill-rule="evenodd" clip-rule="evenodd" d="M47.4222 23.1016V29.8097H45.7451V23.1016H47.4222Z" fill="#FFD521"/>
<path fill-rule="evenodd" clip-rule="evenodd" d="M43.2295 37.3567H31.4902V35.6797H43.2295V37.3567Z" fill="#FFD521"/>
<path fill-rule="evenodd" clip-rule="evenodd" d="M49.0991 44.0638H31.4902V42.3867H49.0991V44.0638Z" fill="#FFD521"/>
<path fill-rule="evenodd" clip-rule="evenodd" d="M44.9065 50.7708H31.4902V49.0938H44.9065V50.7708Z" fill="#FFD521"/>
</svg>
