<svg width="69" height="69" viewBox="0 0 69 69" fill="none" xmlns="http://www.w3.org/2000/svg">
<rect y="0.708984" width="68.2901" height="68.2901" rx="11.3817" fill="white"/>
<path d="M18.1151 37.7713C18.1753 37.7165 18.3176 37.6345 18.438 37.5907C18.6241 37.5251 19.073 37.5141 21.257 37.5251L21.2743 37.5251C23.8026 37.536 23.863 37.5363 24.0487 37.6509C24.1691 37.722 24.2895 37.8697 24.3716 38.0339C24.4702 38.2418 24.4975 38.3512 24.4702 38.5208C24.4537 38.6412 24.388 38.7998 24.3333 38.8764C24.2786 38.953 24.1472 39.0679 23.8571 39.2649L21.1749 39.2594L21.1734 39.2594C18.5037 39.2539 18.4927 39.2539 18.2902 39.1336C18.1753 39.0679 18.033 38.9257 17.9728 38.8217C17.918 38.7178 17.8688 38.5372 17.8633 38.4278C17.8633 38.3129 17.8961 38.1378 17.9399 38.0448C17.9782 37.9463 18.0603 37.8205 18.1151 37.7713Z" fill="#FFD521"/>
<path d="M9.38986 33.0921C9.45555 33.021 9.58692 32.9444 9.67997 32.9171C9.77303 32.8897 12.3129 32.8623 21.6676 32.8569L21.9084 32.9772C22.0453 33.0484 22.204 33.1742 22.2642 33.2563C22.3518 33.3712 22.3792 33.497 22.3792 33.7322C22.3792 33.973 22.3518 34.0933 22.2642 34.2082C22.204 34.2903 22.0672 34.4161 21.7771 34.6131L9.73471 34.6076L9.51576 34.4763C9.38986 34.3997 9.25849 34.2684 9.19828 34.148C9.14901 34.0386 9.10522 33.8526 9.10522 33.7322C9.10522 33.6119 9.13807 33.4477 9.18186 33.3602C9.22565 33.2781 9.3187 33.1578 9.38986 33.0921Z" fill="#FFD521"/>
<path d="M15.0938 23.9364C15.1704 23.8324 15.3182 23.7011 15.4113 23.6519C15.5755 23.5698 16.0572 23.5589 25.6637 23.5534L25.8553 23.6792C25.9593 23.7504 26.1016 23.9145 26.1728 24.0513C26.2713 24.2428 26.2932 24.3467 26.2658 24.5163C26.2494 24.6367 26.1892 24.8118 26.1344 24.8993C26.0797 24.9868 25.9264 25.1181 25.5542 25.3096H20.6552C17.6884 25.3096 15.6795 25.2877 15.5645 25.2549C15.4605 25.2276 15.2854 25.1127 15.1814 25.0087C15.0117 24.8336 14.9898 24.7735 14.9734 24.4725C14.9569 24.1826 14.9734 24.106 15.0938 23.9364Z" fill="#FFD521"/>
<path fill-rule="evenodd" clip-rule="evenodd" d="M34.148 5.90618C34.7556 5.92259 34.9198 5.94447 35.2701 6.07031C35.4945 6.15237 35.8284 6.31104 36.0091 6.42046C36.1897 6.52988 36.4689 6.74325 36.6276 6.89644C36.7918 7.04963 37.0327 7.32866 37.164 7.52562C37.2899 7.72258 37.4761 8.08367 37.5636 8.33534C37.6731 8.6253 37.7552 8.99187 37.799 9.38031C37.8373 9.70858 37.8811 9.99307 37.8975 10.015C37.914 10.0314 38.6256 9.93289 39.4849 9.79064C40.3881 9.64293 41.149 9.54445 41.2913 9.56086C41.4281 9.5718 41.6033 9.63198 41.6854 9.69216C41.7675 9.74688 41.8879 9.89459 41.9536 10.015C42.0412 10.1791 42.0686 10.294 42.0467 10.48C42.0357 10.6168 41.97 10.8083 41.9044 10.9013C41.8387 10.9998 41.7073 11.1201 41.6197 11.1639C41.5321 11.2077 40.6837 11.3773 38.0234 11.8204L37.9906 12.8052C37.9687 13.3468 37.9194 13.976 37.8702 14.2003C37.8264 14.4247 37.7278 14.7967 37.6512 15.021C37.5746 15.2453 37.4213 15.6173 37.3064 15.8417C37.1969 16.066 37.0053 16.3997 36.8849 16.5803C36.7645 16.7608 36.4525 17.1274 36.1952 17.4009C35.9379 17.669 35.6204 17.9644 35.2701 18.2216L35.6369 18.4623C35.8668 18.61 36.4853 19.1736 37.2297 19.9121C37.903 20.5796 38.8664 21.5589 40.2786 23.0744L40.306 20.6453C40.3334 18.3474 40.3389 18.2106 40.4483 17.9754C40.5085 17.8386 40.6563 17.6198 40.7768 17.4885C40.8917 17.3572 41.1107 17.1875 41.5376 16.9632H56.8095L57.0832 17.1C57.231 17.1711 57.4609 17.3462 57.5923 17.483C57.7291 17.6198 57.8769 17.855 57.9371 18.0137C58.0356 18.2872 58.0411 18.4787 58.0466 24.4039L57.9152 24.5954C57.8495 24.6993 57.7072 24.8416 57.6032 24.9127C57.4883 24.9893 57.3295 25.0331 57.2036 25.0331C57.0941 25.0331 56.919 25.0003 56.8205 24.962C56.7274 24.9237 56.5687 24.7924 56.3169 24.4696L56.2895 18.6319H52.0747V20.3991C52.0801 22.1498 52.0747 22.1608 51.9488 22.3522C51.8831 22.4562 51.7408 22.5984 51.4452 22.7954L49.1079 22.779C46.8253 22.7626 46.7706 22.7626 46.6173 22.6477C46.5352 22.582 46.4148 22.4617 46.3546 22.3851C46.2506 22.2428 46.2451 22.1389 46.2177 18.6866H42.0029V25.2246L42.9608 26.1711L43.3166 26.2039C43.5137 26.2203 45.643 26.2969 52.4305 26.5212L53.7387 25.7717L55.463 25.706C56.492 25.6677 57.2693 25.6623 57.3843 25.6896C57.4883 25.717 57.6579 25.8209 57.751 25.9194C57.8495 26.0179 57.9535 26.1875 57.9864 26.2914C58.0192 26.4063 58.0411 27.3747 58.0411 28.7534C58.0411 31.002 58.0411 31.0239 57.9207 31.2646C57.8495 31.4014 57.7236 31.5601 57.6415 31.6203C57.4937 31.7297 57.4062 31.7352 55.3699 31.7516C53.3829 31.768 53.2077 31.7625 52.5947 31.6476C52.0199 31.5437 51.8229 31.5327 51.0346 31.5601C50.5365 31.5765 48.4346 31.6695 46.3546 31.7625C44.2745 31.8555 42.4463 31.9431 42.0029 31.9814L42.0303 32.8294L56.3169 32.8622L56.399 32.7145C56.4428 32.6379 56.5687 32.523 56.6727 32.4573C56.7931 32.3862 56.9573 32.3479 57.1106 32.3479C57.2474 32.3479 57.439 32.3917 57.532 32.4409C57.6306 32.4902 57.7674 32.6105 57.8331 32.7035C57.9043 32.8075 57.9645 32.999 57.9809 33.1576C57.9973 33.382 57.9754 33.4804 57.8441 33.7266C57.7565 33.8853 57.6032 34.0932 57.5047 34.1753C57.4116 34.2628 57.2255 34.3886 56.8642 34.5801L49.283 34.5965C42.2328 34.6075 41.6854 34.602 41.4281 34.5145C41.2694 34.4598 41.0395 34.312 40.8808 34.1643C40.722 34.0166 40.5523 33.7923 40.4702 33.6172C40.3443 33.3437 40.3334 33.2452 40.317 32.3917C40.3005 31.5108 40.2896 31.4561 40.1801 31.3686C40.1144 31.3139 40.0487 31.2701 40.0323 31.2701C40.0159 31.2701 40.0816 32.2057 40.3334 35.4281L42.0576 36.3527C43.0046 36.8616 44.7945 37.8245 46.0261 38.4919C47.2577 39.1594 48.3908 39.7941 48.5331 39.9035C48.6809 40.0129 48.8944 40.2263 49.0093 40.3795C49.1243 40.5272 49.294 40.8117 49.387 41.0086C49.5403 41.3314 49.6717 42.0372 51.9433 55.3155L52.31 55.3538C52.5126 55.3812 52.8191 55.4523 52.9888 55.5179C53.1968 55.6 53.4158 55.7477 53.6238 55.9447C53.8318 56.1362 54.0014 56.3605 54.1 56.5739C54.2149 56.8201 54.2916 57.1374 54.3956 57.8432C54.4722 58.3629 54.5379 58.8662 54.5379 58.9538C54.5379 59.0413 54.4941 59.2109 54.4394 59.3204C54.3901 59.4298 54.2587 59.5775 54.1547 59.6431C54.0343 59.7143 53.7223 59.8073 53.3336 59.8784C52.9888 59.9441 51.5328 60.2176 50.1041 60.4857C47.8051 60.9179 47.4712 60.9726 47.203 60.9288C47.0388 60.9015 46.8034 60.8304 46.683 60.7702C46.5626 60.71 46.371 60.5623 46.256 60.4365C46.1465 60.3161 46.0207 60.1465 45.9878 60.0589C45.9495 59.9769 45.2762 56.4644 43.0703 44.5922L42.7966 44.5265C42.6433 44.4882 41.981 44.3296 41.3187 44.1764C40.6563 44.0232 39.6492 43.7661 39.0744 43.6074C38.4997 43.4433 37.6786 43.1916 37.2407 43.0439C36.8028 42.8962 36.2007 42.6718 35.8996 42.546C35.5985 42.4147 35.2044 42.2287 35.0238 42.1302C34.8432 42.0317 34.4874 41.7965 34.2301 41.605C33.9728 41.419 33.5076 41.036 33.1901 40.757C32.8726 40.4834 32.4073 40.0129 32.15 39.7229C31.8928 39.4275 31.6191 39.0938 31.5315 38.9789C31.4494 38.8585 31.3728 38.771 31.3563 38.7764C31.3454 38.7874 30.9403 40.5928 30.4532 42.7867C29.7306 46.0584 29.5445 46.8353 29.4132 47.0815C29.3256 47.2457 29.1559 47.47 29.0464 47.5794C28.9315 47.6888 27.1032 49.1113 24.9794 50.7472C22.8555 52.3775 21.082 53.7508 21.0328 53.8055C20.9452 53.8876 20.978 53.9477 21.4816 54.659C21.7827 55.0803 22.0728 55.5179 22.133 55.6274C22.1932 55.7423 22.2425 55.9338 22.2425 56.0541C22.2425 56.1745 22.2096 56.3386 22.1658 56.4207C22.1221 56.5082 22.0235 56.634 21.9414 56.7106C21.8319 56.8091 21.717 56.8529 21.5145 56.8693C21.3284 56.8802 21.1641 56.8584 21.0382 56.8037C20.8904 56.738 20.6934 56.5027 19.5603 54.9052L19.1334 55.2717C18.9035 55.4742 18.7064 55.6493 18.6955 55.6547C18.69 55.6657 19.3523 56.6012 20.1679 57.7337C20.9835 58.8717 21.6677 59.8182 21.6896 59.8401C21.706 59.862 21.8812 59.7744 22.0783 59.6486C22.2753 59.5173 22.4505 59.3696 22.4724 59.3204C22.4997 59.2711 22.5162 59.1726 22.5162 59.1015C22.5216 59.0359 22.4231 58.8553 22.3082 58.7076C22.1932 58.5544 22.0618 58.3082 22.0235 58.1605C21.9852 58.0073 21.9633 57.7994 21.9797 57.6954C21.9907 57.5915 22.0618 57.4274 22.1385 57.3289C22.2096 57.2359 24.5524 55.3319 27.3441 53.1052C31.0334 50.1618 32.4237 49.0238 32.4237 48.9417C32.4237 48.8815 32.9437 47.5849 33.5732 46.053C34.2191 44.5047 34.7775 43.2244 34.8486 43.1533C34.9143 43.0877 35.0566 43.0001 35.1606 42.9673C35.2646 42.9345 35.4507 42.918 35.5712 42.9345C35.6916 42.9454 35.8668 43.0056 35.9543 43.0712C36.0419 43.1314 36.1623 43.2682 36.2116 43.3831C36.2663 43.4925 36.3101 43.6785 36.3101 43.7989C36.3101 43.9576 35.9927 44.8001 35.1606 46.8463C34.5257 48.4055 33.94 49.7897 33.8579 49.9265C33.7429 50.1235 32.681 50.9934 23.9394 57.969L24.0598 58.2261C24.1638 58.445 24.1857 58.5818 24.1857 59.0632C24.1857 59.5665 24.1693 59.676 24.0488 59.9386C23.9722 60.1027 23.808 60.3489 23.6821 60.4857C23.5617 60.6225 23.08 60.9836 22.6202 61.2954C21.9578 61.7386 21.7225 61.8644 21.5309 61.8918C21.3448 61.9136 21.2298 61.8918 21.0656 61.8152C20.8795 61.7222 20.573 61.3228 18.9582 59.0851C17.9236 57.6462 17.0205 56.366 16.9657 56.2456C16.9055 56.1252 16.8453 55.89 16.8344 55.7258C16.8179 55.5398 16.8453 55.321 16.8946 55.1514C16.9438 54.9982 17.0752 54.7739 17.1902 54.648C17.3051 54.5222 17.8634 54.1009 18.4382 53.718C19.1224 53.2584 20.8686 51.918 23.5288 49.8171C25.7567 48.0554 27.6561 46.5454 27.7546 46.4524C27.9298 46.2882 27.9352 46.2609 30.1904 36.0026L29.8565 33.8962C29.6704 32.7364 29.5226 31.6804 29.5226 31.5437C29.5226 31.3959 29.5664 31.2263 29.6321 31.1169C29.6923 31.0239 29.8237 30.8926 29.9167 30.8324C30.0317 30.7613 30.1959 30.723 30.3711 30.723C30.5681 30.723 30.6995 30.7558 30.8309 30.8434C30.9349 30.9145 31.0662 31.0458 31.1155 31.1333C31.1757 31.2373 31.3126 31.9102 31.4877 32.9935C31.6355 33.9236 31.7997 34.9631 31.849 35.2914C31.8983 35.6196 31.9804 36.0518 32.0296 36.2488C32.0734 36.4458 32.2157 36.8014 32.3362 37.0421C32.4566 37.2828 32.7303 37.715 32.9492 37.9995C33.1627 38.284 33.6334 38.8038 33.9892 39.1485C34.3505 39.4986 34.8979 39.9746 35.2154 40.2153C35.5383 40.4561 36.0255 40.757 36.3375 40.9047C36.6386 41.0469 37.2188 41.2767 37.6238 41.419C38.0289 41.5557 38.6967 41.7636 39.1018 41.884C39.5068 41.9989 40.2841 42.2068 40.826 42.3381C41.3679 42.4749 42.2273 42.6718 42.7418 42.7867C43.2509 42.8962 43.7709 43.0275 43.8913 43.0822C44.0118 43.1314 44.2088 43.2737 44.3238 43.394C44.4442 43.5089 44.5865 43.7059 44.6358 43.8262C44.6905 43.9466 44.9587 45.2487 45.2324 46.7259C45.5061 48.2031 46.1356 51.5952 46.6337 54.276C47.1318 56.9568 47.5533 59.1562 47.5697 59.1726C47.5807 59.189 48.7192 58.9921 50.0932 58.7404C51.4671 58.4887 52.6111 58.2699 52.633 58.248C52.6494 58.2316 52.633 58.0182 52.5892 57.7775C52.5345 57.4438 52.4852 57.3179 52.3922 57.2413C52.321 57.1866 52.217 57.1429 52.1568 57.1483C52.0966 57.1483 51.2591 57.296 50.2957 57.4766C49.3323 57.6571 48.4565 57.8049 48.3525 57.8049C48.2485 57.8049 48.0624 57.7501 47.9474 57.679C47.8325 57.6134 47.6902 57.4711 47.6354 57.3672C47.5752 57.2632 47.5314 57.0717 47.5314 56.9404C47.5314 56.8146 47.5643 56.645 47.6081 56.5575C47.6464 56.4754 47.7504 56.3496 47.838 56.273C47.9693 56.1581 48.1773 56.0979 49.0805 55.9173C49.907 55.7477 50.1588 55.6766 50.1588 55.6164C50.1588 55.5727 49.6443 52.5034 49.0093 48.8049C48.3744 45.1065 47.8215 41.977 47.7777 41.8567C47.7339 41.7363 47.6135 41.5503 47.5095 41.4463C47.4055 41.3369 46.8691 41.0086 46.267 40.6858C45.6813 40.374 44.1212 39.5314 42.7966 38.8202C41.4719 38.109 40.1144 37.3813 39.786 37.2062C39.4576 37.0312 39.0908 36.8287 38.9759 36.7576C38.8664 36.6865 38.7241 36.5388 38.6693 36.4239C38.5927 36.2762 38.5544 36.0245 38.4723 34.7716H38.3354C38.2588 34.7716 37.1531 34.881 35.8722 35.0123C34.1535 35.1929 33.4911 35.2421 33.3269 35.2038C33.201 35.1765 33.0313 35.078 32.9273 34.9795C32.8288 34.881 32.7193 34.7114 32.6865 34.6075C32.6536 34.5035 32.6427 34.323 32.6646 34.2081C32.6865 34.0822 32.7741 33.9236 32.9 33.7868C33.0642 33.6117 33.1682 33.5516 33.3817 33.5133C33.5294 33.4859 34.7063 33.3601 38.3354 32.9935V32.7747C38.3354 32.6543 38.2862 31.8774 38.226 31.0513C38.1384 29.7601 38.1055 29.5358 38.0234 29.4592C37.9687 29.4099 37.0874 28.6221 36.0638 27.7139C35.0402 26.8057 34.1535 25.985 34.0987 25.8866C34.033 25.7881 33.9947 25.6185 33.9947 25.4708C33.9947 25.3066 34.0385 25.1534 34.1261 25.0112C34.2082 24.8744 34.3396 24.7595 34.4764 24.6939C34.5968 24.6392 34.7611 24.5954 34.8432 24.5954C34.9307 24.5954 35.0785 24.6282 35.1716 24.6665C35.2701 24.7048 35.7901 25.1261 36.3211 25.5966C36.8575 26.0671 37.3173 26.4501 37.3447 26.4391C37.3721 26.4337 37.7935 26.0015 38.2752 25.4817C38.7624 24.9674 39.1565 24.5243 39.1565 24.4969C39.1565 24.475 38.9211 24.2015 38.631 23.8842C38.3409 23.5668 37.4815 22.6696 36.7261 21.8927C35.9708 21.1103 35.1661 20.3279 34.9417 20.1474C34.7173 19.9669 34.356 19.7371 34.148 19.6276C33.9345 19.5237 33.5897 19.376 33.3817 19.3049C33.1627 19.2283 32.8124 19.1571 32.5606 19.1407C32.2541 19.1243 32.0077 19.1407 31.7395 19.2064C31.526 19.2556 31.1867 19.3869 30.9732 19.4963C30.7652 19.6058 30.4805 19.8082 30.3437 19.945C30.185 20.1036 30.0481 20.3061 29.9715 20.503C29.8839 20.7383 29.8511 20.9352 29.8511 21.269C29.8511 21.5206 29.8894 22.0568 29.9332 22.4617C29.977 22.8665 30.0755 23.6544 30.1521 24.2124C30.2287 24.7705 30.3765 25.8154 30.4805 26.5376C30.59 27.2598 30.6885 27.9163 30.7269 28.1516L31.5315 28.1625C32.2376 28.179 32.369 28.1954 32.5332 28.2938C32.6372 28.354 32.7795 28.4908 32.8507 28.5948C32.9383 28.7261 32.9711 28.8574 32.9711 29.0543C32.9711 29.2294 32.9328 29.3935 32.8616 29.503C32.8014 29.6014 32.6701 29.7327 32.5715 29.7929C32.4018 29.8969 32.2978 29.9023 25.1162 29.9023L24.9082 29.7656C24.7987 29.689 24.6674 29.5522 24.6236 29.4647C24.5798 29.3716 24.5415 29.1856 24.5415 29.0379C24.5415 28.8574 24.5743 28.7261 24.6619 28.5948C24.7331 28.4908 24.8754 28.354 24.9794 28.2938C25.16 28.1844 25.2804 28.179 28.8986 28.1242L28.7782 27.2762C28.707 26.8112 28.5538 25.7006 28.4333 24.8142C28.3129 23.9279 28.1761 22.8392 28.1268 22.3905C28.083 21.9474 28.0447 21.4058 28.0447 21.1869C28.0447 20.9681 28.094 20.6015 28.1542 20.3553C28.2199 20.1146 28.3622 19.748 28.4717 19.5346C28.5866 19.3158 28.8275 18.9985 29.03 18.7906C29.227 18.5936 29.446 18.3857 29.5226 18.3365C29.654 18.2435 29.654 18.238 29.5555 18.1778C29.5007 18.1395 29.2763 17.9754 29.0628 17.8058C28.8493 17.6416 28.5373 17.3462 28.3677 17.1493C28.198 16.9578 27.9571 16.6514 27.8367 16.4708C27.7163 16.2903 27.5302 15.9566 27.4207 15.7322C27.3167 15.5079 27.1689 15.114 27.0977 14.8569C27.0211 14.5997 26.8952 13.8994 26.8186 13.2976C26.7419 12.6958 26.627 11.711 26.5613 11.1092C26.4628 10.1627 26.4573 9.95478 26.512 9.57727C26.5504 9.33654 26.627 9.00281 26.6872 8.83868C26.7419 8.67454 26.8678 8.39005 26.9664 8.2095C27.0704 8.01801 27.3222 7.70069 27.5794 7.44355C27.8203 7.20282 28.1761 6.91286 28.3731 6.80343C28.5702 6.68854 28.8877 6.54629 29.0847 6.48611C29.3091 6.41499 30.1795 6.28368 31.4385 6.13049C33.0642 5.93353 33.5678 5.89523 34.148 5.90618ZM29.8784 8.09461C29.758 8.11649 29.5336 8.18762 29.3858 8.25874C29.2325 8.32987 29.0136 8.47211 28.8931 8.57606C28.7727 8.68001 28.5976 8.9098 28.499 9.09035C28.4005 9.26542 28.2965 9.54992 28.2637 9.71405C28.2199 9.94931 28.2253 10.19 28.2965 10.7809C28.3458 11.2022 28.3896 11.5578 28.4005 11.5742C28.4114 11.5906 28.8329 11.5359 29.342 11.4484C29.8456 11.3663 31.5808 11.0763 33.1901 10.8083C34.7994 10.5347 36.124 10.3049 36.135 10.2995C36.1404 10.294 36.124 10.0423 36.0857 9.7414C36.0529 9.44049 35.9927 9.10676 35.9543 9.00281C35.9215 8.89886 35.8284 8.71284 35.7518 8.59248C35.6752 8.47211 35.4945 8.26968 35.3467 8.13838C35.199 8.00707 34.9417 7.85388 34.7775 7.7937C34.6133 7.73352 34.3177 7.67334 34.1206 7.66239C33.9236 7.65145 32.9492 7.73352 31.9311 7.85388C30.9239 7.96877 29.9988 8.0782 29.8784 8.09461ZM32.5606 12.7177C31.0827 12.9584 29.5993 13.1991 29.2544 13.2538L28.6304 13.3523C28.6797 13.9049 28.7563 14.2605 28.8384 14.5012C28.915 14.742 29.0847 15.1085 29.2051 15.3219C29.3365 15.5408 29.6157 15.8909 29.8729 16.1426C30.1466 16.4107 30.4751 16.6678 30.7269 16.81C30.9513 16.9359 31.3563 17.1055 31.63 17.1821C31.953 17.2696 32.2541 17.3189 32.5058 17.3189C32.7248 17.3189 33.0696 17.2696 33.2995 17.204C33.524 17.1438 33.8798 17.0015 34.0932 16.8921C34.3013 16.7827 34.6297 16.542 34.8267 16.3614C35.0183 16.1809 35.2646 15.8964 35.3796 15.7322C35.4891 15.5681 35.6369 15.3274 35.7025 15.1961C35.7628 15.0702 35.8777 14.7748 35.9543 14.5395C36.031 14.3098 36.1295 13.894 36.1733 13.6259C36.2171 13.3523 36.2554 12.9037 36.2554 12.6247C36.2554 12.1815 36.2444 12.1213 36.1569 12.1268C36.1076 12.1323 35.8777 12.1651 35.6533 12.2034C35.4289 12.2472 34.0385 12.4769 32.5606 12.7177ZM48.0241 21.0392H50.3231V18.7413H48.0241V21.0392ZM38.6912 27.6483C38.6912 27.6756 39.2934 28.2337 40.0323 28.8902C40.7713 29.5413 41.4446 30.1157 41.5376 30.165C41.6854 30.2361 42.1616 30.2251 46.2998 30.0446C48.8287 29.9352 51.1934 29.8312 51.5547 29.8148C52.1185 29.7874 52.3155 29.8039 52.9505 29.9242C53.6183 30.0555 53.8153 30.0665 55.0141 30.0665H56.3442V27.4404L54.2916 27.5115L52.9778 28.261C52.2553 28.261 50.2738 28.2008 48.1062 28.1242C45.9385 28.0531 43.8311 27.9711 43.4261 27.9437C42.7637 27.9054 42.6488 27.8835 42.3149 27.7249C42.0303 27.5881 41.7675 27.3802 41.0997 26.7565C40.6344 26.3188 40.2403 25.9632 40.2294 25.9632C40.2184 25.9632 39.8681 26.3352 39.4521 26.7838C39.0306 27.2379 38.6912 27.6264 38.6912 27.6483Z" fill="#FFD521"/>
</svg>
