<svg width="80" height="80" viewBox="0 0 80 80" fill="none" xmlns="http://www.w3.org/2000/svg">
<circle cx="40" cy="40" r="40" fill="white"/>
<path fill-rule="evenodd" clip-rule="evenodd" d="M39.8755 22.5573C30.311 22.5573 22.5573 30.311 22.5573 39.8755C22.5573 49.4401 30.311 57.1937 39.8755 57.1937C49.4401 57.1937 57.1937 49.4401 57.1937 39.8755C57.1937 30.311 49.4401 22.5573 39.8755 22.5573ZM20.7344 39.8755C20.7344 29.3042 29.3042 20.7344 39.8755 20.7344C50.4469 20.7344 59.0167 29.3042 59.0167 39.8755C59.0167 50.4469 50.4469 59.0167 39.8755 59.0167C29.3042 59.0167 20.7344 50.4469 20.7344 39.8755Z" fill="#FFD521"/>
<path fill-rule="evenodd" clip-rule="evenodd" d="M34.9131 35.4168C34.9131 32.8998 36.9535 30.8594 39.4705 30.8594H40.2807C42.7977 30.8594 44.8381 32.8998 44.8381 35.4168V35.8219H43.0152V35.4168C43.0152 33.9066 41.7909 32.6823 40.2807 32.6823H39.4705C37.9603 32.6823 36.7361 33.9066 36.7361 35.4168V35.5941C36.7361 36.6298 37.3212 37.5767 38.2476 38.0399L42.3188 40.0755C43.8628 40.8475 44.8381 42.4255 44.8381 44.1518V44.3291C44.8381 46.8461 42.7977 48.8865 40.2807 48.8865H39.4705C36.9535 48.8865 34.9131 46.8461 34.9131 44.3291V43.924H36.7361V44.3291C36.7361 45.8393 37.9603 47.0635 39.4705 47.0635H40.2807C41.7909 47.0635 43.0152 45.8393 43.0152 44.3291V44.1518C43.0152 43.116 42.43 42.1692 41.5036 41.706L37.4324 39.6704C35.8884 38.8984 34.9131 37.3203 34.9131 35.5941V35.4168Z" fill="#FFD521"/>
<path fill-rule="evenodd" clip-rule="evenodd" d="M40.7871 27.7188V31.7698H38.9641V27.7188H40.7871Z" fill="#FFD521"/>
<path fill-rule="evenodd" clip-rule="evenodd" d="M40.7871 47.9805V52.0315H38.9641V47.9805H40.7871Z" fill="#FFD521"/>
</svg>
