<svg width="69" height="69" viewBox="0 0 69 69" fill="none" xmlns="http://www.w3.org/2000/svg">
<rect y="0.570312" width="68.2901" height="68.2901" rx="11.3817" fill="white"/>
<path fill-rule="evenodd" clip-rule="evenodd" d="M10.0945 8.79903C10.1866 8.69346 10.2647 8.60375 10.3153 8.54548V8.54412C10.4508 8.38967 10.566 8.26367 10.5714 8.26367C10.5768 8.26367 11.0415 8.63083 11.6011 9.07929C11.9556 9.36275 12.5337 9.8243 13.1151 10.2884C13.4534 10.5586 13.7929 10.8296 14.0899 11.0668C14.4471 11.3521 14.8977 11.7123 15.3556 12.0782C15.9329 12.5397 16.5217 13.0103 16.9486 13.3511C17.4357 13.7406 18.024 14.2104 18.7319 14.7757C19.1346 15.0973 19.576 15.4497 20.0594 15.8359L20.1989 16.4361C20.2761 16.7666 20.4753 17.6148 20.6433 18.3234C20.8099 19.0306 21.0281 19.9614 21.1283 20.3895C21.2011 20.7003 21.3224 21.2159 21.4348 21.6934C21.4772 21.8737 21.5183 22.0486 21.5551 22.205C21.6061 22.422 21.6774 22.7253 21.7572 23.065C21.8871 23.6183 22.0397 24.2682 22.1648 24.7995C22.2393 25.1176 22.3162 25.4455 22.3867 25.7463C22.506 26.2551 22.6071 26.686 22.6471 26.8589C22.6774 26.9872 22.7281 27.2031 22.7868 27.4529C22.8539 27.7386 22.9313 28.0686 23.0007 28.3627C23.1308 28.9141 23.2988 29.6268 23.3733 29.9479C23.4193 30.1463 23.5094 30.5289 23.6082 30.949C23.6693 31.2087 23.7338 31.4827 23.7933 31.7363C23.9505 32.4002 24.1388 33.2009 24.2119 33.5179C24.2851 33.8349 24.4612 34.5842 24.6035 35.1843C24.6558 35.4069 24.7136 35.6526 24.7697 35.8909C24.8649 36.2952 24.9551 36.6783 25.0045 36.8914C25.0831 37.2302 25.2809 38.0742 25.4449 38.7679C25.6074 39.4616 25.8201 40.3666 25.9177 40.7798C26.0139 41.1931 26.2022 41.9978 26.3377 42.5682C26.4718 43.1386 26.7103 44.1534 26.8674 44.824C27.0246 45.4947 27.1587 46.0664 27.179 46.145L27.3105 46.1044C27.3836 46.0813 27.5381 46.0393 27.6532 46.0095C27.7684 45.9811 27.9391 45.9418 28.0326 45.9228C28.1261 45.9052 28.2846 45.8768 28.3849 45.8618C28.4851 45.8469 28.6558 45.8239 28.7642 45.8117C28.8848 45.7982 29.1327 45.7873 29.4078 45.7833C29.6896 45.7778 29.9375 45.7819 30.0784 45.7914C30.2017 45.8009 30.3968 45.8198 30.512 45.8334C30.6271 45.8483 30.8073 45.8754 30.9116 45.8944C31.016 45.9133 31.1718 45.9445 31.2571 45.9635C31.3425 45.9838 31.501 46.0231 31.6094 46.0529C31.7178 46.0827 31.8966 46.1369 32.0091 46.1735C32.1201 46.2114 32.322 46.2846 32.4562 46.3388C32.5903 46.3916 32.8463 46.5081 33.0252 46.5989C33.204 46.6897 33.4289 46.8102 33.5265 46.8698C33.624 46.9281 33.7812 47.0297 33.8787 47.0934C33.9763 47.1584 34.128 47.2655 34.2174 47.3332C34.3069 47.3996 34.4464 47.5107 34.5291 47.5798C34.6117 47.6489 34.7662 47.7871 34.8745 47.886C34.9829 47.9849 35.1482 48.1502 35.2431 48.2531C35.3365 48.3575 35.4707 48.5078 35.5398 48.5905C35.6089 48.6731 35.7294 48.8249 35.8067 48.9292C35.8853 49.0335 35.9991 49.1948 36.06 49.2882C36.121 49.3817 36.2213 49.5429 36.2822 49.6473C36.3445 49.7516 36.4597 49.9684 36.5396 50.1282C36.6196 50.2881 36.7198 50.5049 36.7632 50.6092C36.8065 50.7135 36.8838 50.9235 36.9353 51.0766C36.9867 51.2297 37.0314 51.3557 37.0328 51.3584C37.0342 51.3611 37.3133 51.292 37.652 51.2053C37.8118 51.1644 38.0314 51.1078 38.261 51.0486C38.518 50.9824 38.7875 50.9129 39 50.8585C39.4024 50.7542 40.0704 50.5808 40.4836 50.4737C40.6229 50.4376 40.7953 50.3931 40.9797 50.3454C41.3425 50.2517 41.752 50.1459 42.0484 50.0686C42.4955 49.9535 43.1662 49.78 43.5387 49.6825L44.7513 49.3695C45.0453 49.2937 45.5642 49.1595 45.9029 49.0715C46.2417 48.9834 46.9367 48.8032 47.4475 48.6718C47.9582 48.5404 48.7237 48.3426 49.1478 48.2315C49.5718 48.1204 50.1856 47.9618 50.5094 47.8792C50.8332 47.7966 51.5201 47.6191 52.0336 47.4849C52.5471 47.3508 53.2421 47.1706 53.5781 47.0853C53.6731 47.0607 53.8035 47.027 53.9556 46.9878C54.3394 46.8887 54.8611 46.754 55.2988 46.6395C55.9098 46.4797 56.4978 46.3279 56.6062 46.3008C56.7146 46.2737 57.2145 46.145 57.7172 46.0149C58.2198 45.8849 58.633 45.7806 58.6344 45.7819C58.6366 45.7841 58.6655 45.894 58.7045 46.0423C58.7136 46.077 58.7233 46.1138 58.7333 46.1518C58.7733 46.3035 58.8544 46.6197 58.9355 46.9359C58.9616 47.0377 58.9876 47.1394 59.0124 47.2357C59.1126 47.6313 59.1912 47.9578 59.1844 47.9618C59.179 47.9659 59.0761 47.9944 58.9568 48.0255C58.9095 48.0379 58.8066 48.0645 58.6711 48.0996C58.4649 48.153 58.1831 48.2259 57.9068 48.2978C57.4489 48.4171 56.8081 48.5824 56.4842 48.665C56.2081 48.7355 55.6352 48.8838 55.1188 49.0176L54.8584 49.085L54.5969 49.1527C54.0808 49.2864 53.5086 49.4346 53.2326 49.505C52.9565 49.5755 52.3836 49.7238 51.8672 49.8576L51.6068 49.925C51.0364 50.0727 50.3753 50.2434 50.1368 50.3044C49.8984 50.3653 49.3429 50.5089 48.9039 50.6228C48.4649 50.7379 47.7442 50.9235 47.3052 51.036C46.9241 51.1336 46.3226 51.2894 45.8727 51.4059L45.6794 51.456C45.2242 51.5739 44.5752 51.7419 44.2365 51.8286C43.9907 51.8915 43.5379 52.0087 43.0957 52.1231C42.9286 52.1663 42.763 52.2092 42.6107 52.2486C42.4746 52.2838 42.3209 52.3235 42.1595 52.3653C41.6622 52.494 41.0906 52.6419 40.7275 52.7349C40.2465 52.8582 39.4566 53.0628 38.9729 53.1888C38.8234 53.2273 38.667 53.2675 38.5164 53.3062C38.1786 53.3931 37.8701 53.4725 37.7333 53.5072C37.5354 53.5573 37.3647 53.6034 37.3539 53.6102C37.3376 53.621 37.3322 53.6739 37.3241 53.8906C37.3187 54.0383 37.3078 54.2293 37.2997 54.3147C37.2916 54.4 37.2699 54.5748 37.2523 54.7008C37.2333 54.8268 37.2035 55.0097 37.1845 55.1073C37.1656 55.2048 37.129 55.3688 37.1033 55.4731C37.0775 55.5774 37.026 55.763 36.9894 55.8863C36.9529 56.0096 36.8919 56.1925 36.8553 56.2928C36.8174 56.393 36.7523 56.5583 36.7104 56.6586C36.6683 56.7588 36.5694 56.9661 36.4922 57.1192C36.415 57.2723 36.2958 57.4918 36.2253 57.607C36.1562 57.7221 36.06 57.8752 36.0126 57.9457C35.9652 58.0161 35.8771 58.1408 35.8162 58.2234C35.7552 58.3061 35.6427 58.4483 35.5669 58.5418C35.491 58.6353 35.3501 58.7965 35.2539 58.9008C35.1591 59.0051 34.987 59.1772 34.8718 59.2829C34.758 59.3886 34.6036 59.5241 34.5291 59.5864C34.4545 59.6473 34.315 59.7571 34.2174 59.8289C34.1199 59.9021 33.9438 60.0253 33.8245 60.1039C33.7053 60.1812 33.5251 60.2922 33.4249 60.3492C33.3246 60.4074 33.1498 60.4982 33.0387 60.5537C32.9263 60.6079 32.7502 60.6892 32.6458 60.7339C32.5415 60.7786 32.3559 60.8518 32.2326 60.8951C32.1093 60.9399 31.9359 60.9981 31.8465 61.0252C31.7571 61.0523 31.6012 61.0957 31.501 61.1214C31.4007 61.1472 31.2395 61.1837 31.142 61.2027C31.0444 61.223 30.89 61.2501 30.7965 61.265C30.703 61.2799 30.5445 61.3003 30.4442 61.3124C30.344 61.3233 30.1732 61.3382 30.0649 61.3463C29.9565 61.3531 29.7248 61.3599 29.55 61.3599C29.3752 61.3599 29.1436 61.3531 29.0352 61.3463C28.9268 61.3382 28.7561 61.3233 28.6558 61.3124C28.5556 61.3003 28.4147 61.2826 28.3442 61.2718C28.2738 61.2596 28.1369 61.2352 28.0394 61.2162C27.9418 61.1973 27.7684 61.158 27.6532 61.1295C27.5381 61.1011 27.3511 61.0482 27.24 61.0144C27.1276 60.9792 26.9392 60.9141 26.82 60.8694C26.7008 60.8233 26.5301 60.7556 26.4407 60.7163C26.3512 60.677 26.1738 60.593 26.0478 60.5307C25.9218 60.467 25.7565 60.3803 25.6819 60.337C25.6074 60.2936 25.476 60.215 25.3907 60.1608C25.3053 60.1066 25.1468 59.9996 25.0384 59.9224C24.93 59.8451 24.7539 59.711 24.6455 59.6243C24.5371 59.5376 24.361 59.3845 24.2526 59.2843C24.1442 59.184 23.9925 59.035 23.9152 58.9537C23.838 58.8724 23.7215 58.745 23.6565 58.6705C23.5928 58.596 23.4939 58.4768 23.437 58.4063C23.3814 58.3359 23.2852 58.2071 23.2229 58.1218C23.1606 58.0364 23.059 57.8901 22.998 57.7966C22.937 57.7031 22.8408 57.5446 22.7826 57.4444C22.7243 57.3441 22.6227 57.1517 22.5563 57.0176C22.4913 56.8835 22.3992 56.6857 22.3531 56.5773C22.3084 56.4689 22.2393 56.2928 22.2 56.1844C22.1607 56.076 22.1011 55.8931 22.0672 55.7779C22.0334 55.6628 21.99 55.507 21.971 55.4324C21.9534 55.3579 21.9223 55.2184 21.9019 55.1208C21.883 55.0233 21.8545 54.8661 21.8396 54.7686C21.8247 54.671 21.8044 54.5139 21.7936 54.4163C21.7827 54.3188 21.7665 54.1182 21.7583 53.9692C21.7488 53.8093 21.7461 53.5695 21.7516 53.3866C21.7556 53.2146 21.7692 52.9775 21.78 52.8582C21.7908 52.739 21.8125 52.5534 21.8288 52.445C21.8437 52.3366 21.8748 52.1564 21.8965 52.0453C21.9196 51.9329 21.9521 51.7811 21.971 51.7066C21.99 51.6321 22.032 51.479 22.0645 51.3679C22.097 51.2555 22.1485 51.0983 22.177 51.0157C22.2068 50.933 22.261 50.7908 22.2989 50.6973C22.3368 50.6038 22.4046 50.4453 22.4493 50.345C22.4954 50.2448 22.5794 50.074 22.6363 49.9657C22.6918 49.8573 22.7839 49.6933 22.8408 49.5998C22.8964 49.5064 22.998 49.3479 23.0658 49.2476C23.1335 49.1473 23.2459 48.9888 23.3164 48.8953C23.3868 48.8018 23.4925 48.6677 23.5521 48.5973C23.6118 48.5268 23.7405 48.3805 23.8394 48.2721C23.9383 48.1637 24.113 47.9889 24.2282 47.8833C24.342 47.7776 24.5114 47.6286 24.6048 47.5527C24.6983 47.4755 24.8447 47.3617 24.9314 47.298C25.0167 47.2343 25.1007 47.172 25.1495 47.1408L24.9978 46.4973C24.9192 46.1611 24.7659 45.5164 24.6497 45.0276L24.6319 44.9527C24.5141 44.4569 24.3461 43.7496 24.2594 43.3811C24.1727 43.0126 23.9843 42.2133 23.8394 41.6063C23.6944 40.9993 23.5061 40.2027 23.4207 39.8382C23.3354 39.4738 23.1552 38.7137 23.021 38.1514C22.8869 37.5892 22.7067 36.8291 22.6214 36.4647C22.536 36.1002 22.3585 35.3523 22.2285 34.805L22.2077 34.7175C22.0801 34.1805 21.9164 33.492 21.8356 33.1453C21.7502 32.7795 21.5849 32.0818 21.4684 31.594C21.3519 31.1063 21.1595 30.2947 21.0416 29.7921C20.9237 29.2894 20.7436 28.5294 20.6419 28.1053C20.5644 27.7818 20.4507 27.2999 20.3566 26.9013C20.3273 26.7773 20.2999 26.6614 20.2761 26.5608L20.2391 26.4041C20.1337 25.958 19.9698 25.2647 19.8507 24.7656C19.7166 24.2034 19.5513 23.5056 19.4836 23.2143C19.4316 22.9909 19.3254 22.5425 19.2219 22.1054C19.1904 21.9728 19.1593 21.8412 19.1299 21.7172C19.0026 21.1848 18.7777 20.2364 18.63 19.6105C18.4823 18.9845 18.2859 18.1567 18.0271 17.0688L13.5656 13.5123C11.1133 11.5573 9.10548 9.95316 9.10548 9.94774C9.10412 9.94096 9.32225 9.68761 9.5878 9.38142C9.75316 9.19074 9.94269 8.97328 10.0945 8.79903ZM42.2787 12.5599C42.9413 12.3892 43.6986 12.1941 43.9587 12.1277C44.2202 12.0613 44.4424 12.0071 44.4533 12.0085C44.4668 12.0098 44.5196 12.1954 44.6443 12.6886C44.7085 12.9408 44.8112 13.3465 44.9095 13.7348C44.9565 13.92 45.0024 14.1014 45.0426 14.2602C45.0979 14.4785 45.181 14.8059 45.2737 15.1713C45.3899 15.6292 45.5212 16.1467 45.632 16.5837C45.7213 16.9364 45.8374 17.394 45.9569 17.8649C46.1037 18.4433 46.2555 19.0417 46.369 19.4899C46.4273 19.72 46.4925 19.9775 46.5596 20.242C46.7293 20.9119 46.9105 21.627 47.0193 22.0573C47.1724 22.6575 47.4082 23.5869 47.5437 24.1234L47.5838 24.2808C47.7018 24.7437 47.7932 25.102 47.7957 25.1057C47.7984 25.1098 48.0368 25.0515 48.3254 24.9783C48.4926 24.9359 48.86 24.8417 49.2938 24.7304C49.6087 24.6496 49.9587 24.5598 50.2926 24.4743C51.0866 24.2698 51.7559 24.1004 51.7802 24.0963C51.8033 24.0923 51.8236 24.0936 51.8236 24.1004C51.8236 24.1058 51.9415 24.5732 52.0864 25.1396C52.1679 25.4609 52.276 25.8857 52.3783 26.2876C52.4563 26.5939 52.5309 26.887 52.5877 27.1109C52.6657 27.4146 52.7912 27.908 52.9222 28.4226C53.0143 28.7847 53.1092 29.1573 53.192 29.4818C53.2941 29.8818 53.4176 30.3668 53.5335 30.8222C53.6453 31.2614 53.7501 31.6731 53.822 31.9544C53.9683 32.5275 54.1919 33.4068 54.3179 33.9054C54.3971 34.2154 54.5045 34.6371 54.6029 35.0227C54.6626 35.2572 54.719 35.4784 54.7636 35.6531C54.7856 35.7395 54.8109 35.8386 54.8384 35.9463C54.9579 36.4144 55.1187 37.0439 55.231 37.4889C55.291 37.7241 55.3549 37.9752 55.413 38.2033C55.4901 38.5061 55.5568 38.7681 55.5901 38.898C55.6483 39.1256 55.819 39.7935 55.968 40.3815C56.1171 40.9695 56.3122 41.7391 56.4016 42.0886C56.4924 42.4382 56.5642 42.7267 56.5615 42.7281C56.5601 42.7295 56.1875 42.827 55.7323 42.9422C55.6246 42.9697 55.4916 43.0038 55.3426 43.042C54.8617 43.1652 54.2142 43.3311 53.7136 43.4584L53.533 43.5046C52.9023 43.6662 52.1261 43.8651 51.7288 43.9651C51.2925 44.0762 50.6286 44.2455 50.252 44.3431C50.0926 44.3838 49.8741 44.4395 49.6381 44.4997C49.3162 44.5818 48.9618 44.6722 48.6804 44.7441C48.1926 44.8674 47.4515 45.0571 47.0342 45.1641C46.9766 45.1789 46.9125 45.1953 46.8434 45.2131C46.4122 45.3237 45.7877 45.484 45.3475 45.5949C45.1706 45.64 44.9459 45.6973 44.7026 45.7594C44.243 45.8768 43.7171 46.011 43.322 46.1111C43.079 46.1732 42.7717 46.252 42.4506 46.3343C41.973 46.4566 41.4651 46.5867 41.0933 46.6815C40.6493 46.7957 40.1632 46.9195 39.8347 47.0031C39.703 47.0367 39.5966 47.0638 39.5284 47.0812C39.4325 47.1057 39.2722 47.1465 39.0796 47.1954C38.7933 47.2681 38.4358 47.359 38.1126 47.4416C37.572 47.5798 37.129 47.6909 37.1276 47.6882C37.1263 47.6855 37.0694 47.4646 37.0016 47.1964C36.9339 46.9281 36.7144 46.0651 36.5139 45.2793C36.3134 44.4935 36.0207 43.3446 35.8636 42.7254C35.7051 42.1062 35.4341 41.0427 35.2607 40.3612C35.168 39.997 35.0528 39.5433 34.945 39.1186C34.8512 38.7487 34.7628 38.4007 34.6998 38.1528C34.5643 37.6204 34.3014 36.5893 34.1158 35.8631C34.0323 35.5365 33.9341 35.1507 33.8391 34.7779C33.7229 34.3218 33.6117 33.8853 33.5387 33.6005C33.467 33.3182 33.3663 32.9222 33.2655 32.5262C33.1816 32.1962 33.0977 31.8663 33.0306 31.6021C32.9274 31.1922 32.7938 30.6683 32.6875 30.2511C32.6431 30.0768 32.6034 29.9212 32.5727 29.8002C32.4142 29.1783 32.3857 29.0523 32.402 29.0415C32.4169 29.0307 32.3694 28.8247 32.112 27.8086C31.971 27.2545 31.7698 26.4609 31.6217 25.8763C31.5905 25.7533 31.5616 25.6396 31.5362 25.5392C31.3885 24.9621 31.123 23.9161 30.9455 23.2157C30.8609 22.8819 30.7604 22.4864 30.6649 22.1109C30.5601 21.6984 30.4613 21.3101 30.3968 21.0547C30.2721 20.567 30.0703 19.7717 29.9483 19.2867C29.8251 18.803 29.5839 17.8546 29.4132 17.1799C29.2411 16.5052 29.107 15.9497 29.1124 15.9443C29.1178 15.9402 29.55 15.8264 30.0716 15.6923C30.4667 15.5907 30.9264 15.4727 31.2362 15.3932C31.3354 15.3678 31.4192 15.3463 31.4807 15.3305C31.5484 15.3131 31.638 15.2902 31.7411 15.2638C32.0233 15.1916 32.4067 15.0935 32.7203 15.0121C33.1033 14.9128 33.6954 14.7614 34.1118 14.6549L34.2513 14.6192L34.3917 14.5833C34.8081 14.4769 35.3996 14.3256 35.7823 14.2263C36.1652 14.127 36.7571 13.9756 37.1736 13.8691L37.3133 13.8334C37.7265 13.7277 38.4405 13.5448 38.8984 13.427C38.98 13.406 39.0685 13.3832 39.161 13.3594C39.5878 13.2494 40.0994 13.1177 40.4023 13.0408C40.7708 12.9474 41.6162 12.7306 42.2787 12.5599ZM41.0731 15.2748L41.5327 15.1573L41.5329 15.1573L41.5349 15.1567L41.5362 15.1564C41.9094 15.0611 42.2602 14.9715 42.4212 14.9293C42.6488 14.8697 42.8466 14.8209 42.8615 14.8209C42.8859 14.8196 42.997 15.2531 44.2353 20.2145C44.9764 23.183 45.5834 25.623 45.5834 25.638C45.5847 25.6623 45.5251 25.68 44.9683 25.8222C44.6296 25.9089 43.8817 26.1 43.3086 26.2463C42.8832 26.3559 42.2204 26.5252 41.6405 26.6734L41.637 26.6743L41.0799 26.8167C40.4282 26.9833 39.5313 27.2123 39.0883 27.3247C38.6452 27.4372 37.9773 27.6079 37.6047 27.7041C37.2612 27.7928 36.7681 27.9183 36.4596 27.9968L36.4574 27.9974L36.455 27.998L36.3854 28.0157C36.2775 28.0432 36.1375 28.0786 35.9855 28.1171L35.9801 28.1185L35.9789 28.1188C35.7125 28.1862 35.4102 28.2627 35.1796 28.3219C34.8151 28.4154 34.5157 28.4885 34.5143 28.4872C34.5132 28.4848 34.2357 27.3732 33.8671 25.8964L33.8669 25.8958L33.8663 25.8933L33.6825 25.157C33.4991 24.4202 33.2909 23.5845 33.0889 22.7738C32.7895 21.5721 32.5038 20.4253 32.333 19.7376C32.0458 18.586 31.8141 17.643 31.8155 17.6417C31.8182 17.6403 32.2585 17.5265 32.795 17.3897C33.3316 17.2515 34.0388 17.0699 34.3667 16.9873C34.6945 16.9046 35.4112 16.7217 35.9586 16.5808C36.3523 16.4795 36.8273 16.3585 37.1795 16.2688L37.5234 16.1812L39.1154 15.7747L39.6986 15.6256L39.6993 15.6254C40.1812 15.5021 40.7162 15.3652 41.0731 15.2748ZM48.4638 27.2421C49.1683 27.0646 49.8484 26.8925 49.9744 26.8587C50.1004 26.8261 50.2129 26.7977 50.2224 26.7977C50.2305 26.7963 50.244 26.8194 50.2508 26.8478C50.2576 26.8749 50.3863 27.3857 50.5367 27.9818C50.6013 28.238 50.6922 28.5992 50.7914 28.9935C50.9231 29.5168 51.0694 30.0983 51.1884 30.5696L51.2411 30.7786L51.248 30.806L51.2498 30.8131C51.4598 31.6449 51.7608 32.8369 51.9525 33.5976L52.2064 34.6048C52.3988 35.3678 52.621 36.249 52.7857 36.9035C53.0337 37.883 53.3751 39.2365 53.5444 39.9112C53.7138 40.5859 53.8493 41.1414 53.8438 41.1455C53.8398 41.1509 53.1556 41.3257 52.3251 41.5357C51.4946 41.7443 50.1072 42.0952 49.2428 42.3147C48.3784 42.5328 46.9545 42.8932 46.0793 43.1154C45.204 43.3376 43.7679 43.7007 42.8886 43.9229C42.0093 44.1464 40.7114 44.4743 40.0028 44.6531C39.2956 44.832 38.7143 44.9769 38.713 44.9742C38.7103 44.9729 38.5816 44.4662 38.4258 43.847C38.27 43.2278 37.9583 41.9936 37.7334 41.1035C37.6051 40.5956 37.4331 39.913 37.269 39.2618L37.2686 39.26L37.2643 39.2429C37.1425 38.7597 37.0254 38.2949 36.9341 37.9331L36.5197 36.2898L36.1415 34.7899C35.9207 33.9147 35.5941 32.6208 35.4153 31.9149C35.1809 30.9842 35.0956 30.6292 35.1078 30.6251C35.1172 30.6211 35.647 30.4869 36.2838 30.3257L37.0163 30.1404C37.6156 29.9888 38.3254 29.8092 38.858 29.674C39.637 29.4776 40.981 29.1375 41.8454 28.918C42.4893 28.7555 43.2626 28.5599 43.8123 28.4209L43.8457 28.4124L43.8473 28.412L43.8533 28.4105L44.2841 28.3016C44.761 28.181 45.6091 27.9656 46.1673 27.8233C46.7255 27.6811 47.7593 27.4196 48.4638 27.2421ZM29.1708 47.9413C29.137 47.944 29.0245 47.9549 28.9202 47.9671C28.8159 47.9779 28.6479 48.0023 28.5476 48.0213C28.4474 48.0402 28.301 48.07 28.2225 48.089C28.1439 48.1093 28.0016 48.1486 27.9041 48.1784C27.8065 48.2082 27.6277 48.2719 27.5044 48.3207C27.3811 48.3695 27.1738 48.4616 27.0437 48.528C26.9137 48.593 26.743 48.6838 26.6644 48.7312C26.5858 48.7786 26.4761 48.8477 26.4205 48.8843C26.365 48.9222 26.2579 48.9981 26.1834 49.0537C26.1089 49.1092 25.9992 49.1959 25.9396 49.246C25.8799 49.2962 25.7634 49.3991 25.6821 49.475C25.6008 49.5509 25.4735 49.6782 25.4003 49.7582C25.3272 49.8381 25.2134 49.9695 25.1497 50.0495C25.0846 50.1294 24.9817 50.2676 24.9207 50.3543C24.8597 50.441 24.7595 50.5955 24.6999 50.6957C24.6389 50.796 24.54 50.9762 24.4817 51.0954C24.4221 51.2146 24.3381 51.4043 24.2948 51.5154C24.2501 51.6279 24.1905 51.7986 24.1606 51.8948C24.1308 51.9923 24.0875 52.1468 24.0645 52.2402C24.0428 52.3337 24.0116 52.4801 23.9954 52.5654C23.9805 52.6508 23.9588 52.7917 23.9479 52.877C23.9371 52.9624 23.9208 53.1548 23.9127 53.3038C23.9005 53.5057 23.9005 53.6452 23.9127 53.8525C23.9208 54.0056 23.9398 54.2156 23.9547 54.3199C23.9696 54.4242 23.994 54.5733 24.0089 54.6519C24.0252 54.7304 24.059 54.8795 24.0861 54.9838C24.1132 55.0881 24.1661 55.2683 24.2054 55.3835C24.2446 55.4986 24.3151 55.6815 24.3612 55.7899C24.4072 55.8983 24.4668 56.0297 24.4926 56.0812C24.5197 56.1341 24.5806 56.2465 24.6281 56.3319C24.6768 56.4172 24.7798 56.5825 24.857 56.6977C24.9329 56.8128 25.0494 56.9741 25.1131 57.0567C25.1768 57.1393 25.2974 57.2816 25.3814 57.3737C25.4654 57.4672 25.6157 57.619 25.716 57.7124C25.8163 57.8059 25.9572 57.9279 26.0276 57.9848C26.0981 58.0403 26.2173 58.1311 26.2918 58.1839C26.3663 58.2368 26.5126 58.333 26.617 58.398C26.7213 58.463 26.9286 58.5755 27.0776 58.6486C27.2267 58.7218 27.419 58.8085 27.5044 58.8424C27.5897 58.8763 27.7388 58.9277 27.8363 58.9575C27.9339 58.9887 28.0856 59.0321 28.175 59.0537C28.2645 59.0768 28.423 59.1093 28.5273 59.1283C28.6316 59.1472 28.7874 59.173 28.8728 59.1852C28.9717 59.1987 29.179 59.2082 29.435 59.2136C29.748 59.219 29.893 59.2163 30.065 59.1987C30.1883 59.1879 30.3807 59.1621 30.4918 59.1432C30.6043 59.1242 30.7926 59.0849 30.9118 59.0551C31.031 59.0253 31.2045 58.9765 31.2979 58.9454C31.3914 58.9155 31.5378 58.8627 31.6231 58.8288C31.7085 58.7963 31.8887 58.715 32.0228 58.6486C32.1569 58.5823 32.3493 58.4793 32.4496 58.4183C32.5498 58.3573 32.6907 58.2679 32.7612 58.2178C32.8316 58.169 32.9332 58.0959 32.9847 58.0552C33.0362 58.0159 33.15 57.9224 33.2354 57.8493C33.3207 57.7761 33.4765 57.6284 33.5809 57.5214C33.6865 57.4157 33.818 57.2721 33.8735 57.2057C33.9304 57.1393 34.0225 57.0228 34.0781 56.9483C34.1336 56.8738 34.2312 56.7343 34.2949 56.6367C34.3585 56.5405 34.4452 56.3969 34.4886 56.3183C34.5333 56.2397 34.6051 56.1002 34.6485 56.0067C34.6932 55.9132 34.7596 55.7615 34.7975 55.668C34.8341 55.5745 34.891 55.4201 34.9221 55.3225C34.9547 55.2263 35.0007 55.0705 35.0238 54.977C35.0468 54.8835 35.078 54.7521 35.0915 54.6857C35.105 54.6193 35.1294 54.473 35.1443 54.3606C35.1592 54.2495 35.1782 54.0747 35.1863 53.9744C35.1931 53.8742 35.1999 53.694 35.1999 53.5748C35.1999 53.4555 35.1931 53.2753 35.1863 53.1751C35.1782 53.0748 35.1633 52.9163 35.1511 52.8228C35.1403 52.7293 35.1105 52.5505 35.0847 52.4231C35.059 52.2971 35.0143 52.1061 34.9831 52.0004C34.9533 51.8934 34.9005 51.7295 34.8666 51.6346C34.8314 51.5384 34.7758 51.3975 34.7433 51.319C34.7094 51.2404 34.6363 51.0873 34.5821 50.9775C34.5265 50.8664 34.4385 50.7052 34.3856 50.6185C34.3328 50.5304 34.2488 50.4004 34.2 50.3299C34.1499 50.2595 34.0388 50.1131 33.9521 50.0048C33.8654 49.8964 33.7245 49.7351 33.6391 49.6457C33.5538 49.5563 33.402 49.4127 33.3031 49.3273C33.2056 49.242 33.066 49.1268 32.9942 49.0713C32.921 49.0171 32.8113 48.9371 32.7476 48.8938C32.6839 48.8518 32.5891 48.7908 32.5376 48.7583C32.4861 48.7271 32.3696 48.6608 32.2802 48.6133C32.1908 48.5646 32.0418 48.49 31.9483 48.4467C31.8548 48.4047 31.6936 48.3369 31.5892 48.2977C31.4849 48.2584 31.3115 48.2001 31.2031 48.1676C31.0947 48.1351 30.9091 48.0863 30.7899 48.0606C30.6707 48.0362 30.4823 48.0023 30.3699 47.9874C30.2588 47.9711 30.0881 47.9535 29.9905 47.9454C29.893 47.9373 29.683 47.9332 29.5231 47.9346C29.3632 47.9359 29.2047 47.9386 29.1708 47.9413Z" fill="#FFD521"/>
</svg>
