<svg width="69" height="69" viewBox="0 0 69 69" fill="none" xmlns="http://www.w3.org/2000/svg">
<rect y="0.572266" width="68.2901" height="68.2901" rx="11.3817" fill="white"/>
<path fill-rule="evenodd" clip-rule="evenodd" d="M43.1075 5.49645C43.1548 5.50829 45.6378 8.75052 48.6291 12.7146C51.6323 16.6668 54.0798 19.909 54.0798 19.9327C54.0916 19.9445 52.862 20.8911 48.6291 24.0979L50.2608 24.157C51.786 24.2162 51.9397 24.2517 52.6018 24.5949C53.0393 24.8197 53.5477 25.222 53.9379 25.648C54.3044 26.0622 54.671 26.6183 54.8247 26.997C55.0611 27.6241 55.073 27.8489 55.1439 39.6582L55.6878 40.1552C55.9952 40.4392 56.3736 40.9244 56.5509 41.2557C56.8583 41.8473 56.8583 41.871 56.8938 44.8647C56.9293 47.752 56.9174 47.9176 56.6691 48.5921C56.48 49.1009 56.2198 49.4796 55.1439 50.5446L55.1084 53.1833C55.073 55.5617 55.0493 55.8694 54.8128 56.461C54.671 56.816 54.3517 57.3958 54.1034 57.7508C53.867 58.1058 53.3467 58.6265 52.9565 58.9223C52.5427 59.2181 51.9279 59.5258 51.4786 59.6678C50.7337 59.8926 50.2608 59.8926 16.3036 59.8334L15.5114 59.443C15.0621 59.2418 14.4118 58.7803 14.0453 58.4371C13.596 58.023 13.2531 57.5378 12.52 56.0587V27.4111L12.8984 26.642C13.123 26.1805 13.5014 25.6598 13.8443 25.3403C14.1517 25.0563 14.7074 24.6895 15.0621 24.5239C15.606 24.2754 15.937 24.2162 18.4318 24.1215L27.3586 17.3531C32.2653 13.6257 37.7988 9.43683 39.6551 8.02871C41.5114 6.62059 43.0602 5.47279 43.1075 5.49645ZM19.8979 25.2102C19.8979 25.2457 20.2763 25.7663 20.7492 26.3461C21.364 27.139 21.6833 27.4348 21.9552 27.5058C22.168 27.5649 22.6173 27.5886 22.9602 27.5649L23.5987 27.5294C22.6292 26.2515 22.2272 25.719 22.0734 25.5178L21.8015 25.1628C23.9061 23.5536 24.5919 23.0566 24.6746 23.0211C24.7574 22.9856 24.9939 23.1749 25.2185 23.4707C25.4432 23.7547 25.6678 24.0505 25.7269 24.1334C25.786 24.228 25.5614 24.4647 24.9939 24.867L24.1662 25.4587L25.3604 27.0561L24.58 27.6951C34.7246 27.6951 34.8547 27.6833 34.2753 27.4939C33.9561 27.3756 33.4477 27.1508 33.1521 26.9733C32.8565 26.8076 32.3718 26.3935 32.0643 26.0622C31.7451 25.7308 31.3313 25.1037 31.1185 24.6659C30.811 24.0032 30.7283 23.6719 30.681 22.8554C30.6573 22.2756 30.6928 21.6011 30.7756 21.258C30.8583 20.9385 31.0712 20.3823 31.2367 20.0273C31.414 19.6842 31.8515 19.1162 32.2062 18.773C32.5846 18.4062 33.1994 17.9802 33.6842 17.7554C34.3699 17.4359 34.6892 17.3531 35.5168 17.3176C36.2499 17.2821 36.7228 17.3294 37.2903 17.4832C37.716 17.6016 38.3545 17.8856 38.7092 18.1222C39.0639 18.3589 39.5368 18.7612 39.7496 19.0215C39.9625 19.27 40.3408 19.8853 40.5773 20.3587C40.9911 21.2106 41.0148 21.2935 41.0029 22.4294C41.0029 23.3642 40.9438 23.7666 40.7428 24.2754C40.6009 24.6304 40.3172 25.1865 40.1044 25.5178C39.8915 25.8373 39.3831 26.3461 38.9693 26.642C38.5673 26.9378 37.9288 27.2928 37.5505 27.4348L36.8765 27.6951L41.0148 27.7188L51.7151 19.6014C51.2894 19.0452 49.3149 16.4419 47.0566 13.4482C44.7865 10.4545 42.9065 7.95771 42.8592 7.91038C42.8119 7.86305 37.6332 11.7206 31.3313 16.4774C25.0412 21.2461 19.8979 25.1747 19.8979 25.2102ZM33.9798 19.5067C33.7551 19.6487 33.424 19.909 33.2467 20.0983C33.0812 20.2758 32.8092 20.6663 32.6555 20.9621C32.4309 21.4 32.3836 21.6721 32.3836 22.5004C32.3836 23.3169 32.4427 23.6009 32.6555 24.0032C32.7974 24.2872 33.093 24.7014 33.3058 24.938C33.5068 25.1747 33.9798 25.506 34.3345 25.6717C34.8429 25.9202 35.1621 25.9793 35.8124 25.9912C36.3918 25.9912 36.8056 25.9083 37.1721 25.7427C37.4677 25.6125 37.9406 25.293 38.2362 25.0208C38.5555 24.7369 38.8865 24.2872 39.0521 23.9086C39.2412 23.4589 39.324 23.0447 39.3358 22.5004C39.3358 21.9443 39.2531 21.5538 39.0521 21.0923C38.8747 20.69 38.5318 20.2403 38.1535 19.8735C37.716 19.483 37.3376 19.2464 36.912 19.128C36.5691 19.0334 36.0489 18.9505 35.7533 18.9505C35.4577 18.9624 35.0321 19.0215 34.8074 19.1044C34.5828 19.1872 34.2044 19.3647 33.9798 19.5067ZM15.5705 26.1923C15.3931 26.287 15.0384 26.6065 14.802 26.8905C14.5418 27.1863 14.2936 27.6359 14.2226 27.9436C14.128 28.3459 14.128 28.6299 14.2463 29.1269C14.3645 29.6475 14.5064 29.896 14.9911 30.3812C15.4759 30.8663 15.7124 31.0083 16.2208 31.1148C16.6701 31.2213 21.435 31.2568 33.8379 31.2568C48.7474 31.2568 50.8993 31.2332 51.4195 31.0793C51.7505 30.9847 52.188 30.748 52.4127 30.5705C52.6373 30.393 52.9447 29.9789 53.0984 29.6594C53.2403 29.328 53.3704 28.8547 53.3704 28.5944C53.3704 28.3341 53.2994 27.9081 53.2285 27.6478C53.1457 27.3874 52.862 26.9615 52.6018 26.6893C52.3181 26.4053 51.8924 26.1332 51.5377 26.0148C51.0648 25.8492 50.5091 25.8137 48.6764 25.8137H46.3945L43.9707 27.6478L49.4686 27.7069C49.847 28.2157 49.9534 28.4524 49.9415 28.5589C49.9415 28.6772 49.8115 28.9021 49.646 29.0677L49.3622 29.3635C18.2899 29.3635 18.1362 29.3635 17.8997 29.1269C17.7697 28.9967 17.6633 28.7482 17.6633 28.5589C17.6633 28.3814 17.7342 28.1329 17.8288 28.0028C17.9589 27.8253 18.1835 27.7543 18.7629 27.7069L19.5432 27.6478L18.1953 25.8255C16.9184 25.8255 16.3981 25.8728 16.2208 25.9202C16.0434 25.9793 15.7478 26.0977 15.5705 26.1923ZM14.1162 55.2777C14.5418 56.39 14.8256 56.8397 15.1685 57.1829C15.5114 57.526 15.9607 57.81 16.3981 57.9757L17.0721 58.236L50.8283 58.1768C51.7505 57.7035 52.2353 57.3012 52.5191 56.9817C52.791 56.6622 53.0984 56.1652 53.193 55.8694C53.3231 55.4789 53.3704 54.7689 53.3704 53.207V51.077C41.8424 50.9942 41.1803 50.9705 40.5418 50.7812C40.1516 50.6511 39.4895 50.3316 39.0757 50.0476C38.6501 49.7636 38.1062 49.3021 37.8461 49.0063C37.5978 48.7104 37.2076 48.0951 36.9829 47.6455C36.711 47.1012 36.5336 46.4977 36.4391 45.8705C36.3326 45.0896 36.3445 44.7701 36.4863 44.0364C36.5928 43.5513 36.8174 42.8295 37.0066 42.439C37.1958 42.0485 37.6214 41.4332 37.9525 41.0782C38.2835 40.7232 38.8156 40.2617 39.1348 40.0487C39.4541 39.8357 40.0334 39.5517 40.4236 39.3979C41.1212 39.1376 41.2158 39.1257 47.2576 39.1021L53.3704 39.0666C53.3704 33.6589 53.3349 32.097 53.2876 32.1206C53.2285 32.1443 52.8738 32.31 52.4836 32.4993L51.7742 32.8543C18.1835 32.9134 16.2326 32.8898 15.6533 32.7241C15.2986 32.6294 14.802 32.4165 14.5655 32.2508L14.128 31.9668L14.1162 55.2777ZM40.128 41.445C39.8324 41.6107 39.4186 41.942 39.2058 42.1787C38.9929 42.4153 38.6737 42.8886 38.4963 43.2318C38.2126 43.7879 38.1771 43.9773 38.1771 45.0422C38.1771 46.0835 38.2126 46.2965 38.4963 46.9C38.6737 47.2787 39.0757 47.823 39.3831 48.1306C39.6905 48.4265 40.2344 48.8051 40.6009 48.9826L41.2512 49.3021L53.5477 49.3613C54.3754 48.9353 54.7183 48.6276 54.8956 48.3555C55.1912 47.9058 55.203 47.8703 55.2267 45.2552C55.2503 42.936 55.2267 42.5573 55.0375 42.1077C54.9311 41.8355 54.6237 41.445 54.3754 41.2557L53.9143 40.9007C42.9775 40.8534 41.3813 40.877 41.0739 40.9954C40.8374 41.0782 40.4118 41.2793 40.128 41.445Z" fill="#FFD521"/>
<path fill-rule="evenodd" clip-rule="evenodd" d="M42.6109 42.0357C42.9065 42.0238 43.3794 42.1067 43.675 42.2013C43.9706 42.296 44.3963 42.5327 44.6209 42.7102C44.8456 42.8995 45.1766 43.3373 45.3658 43.6923C45.6023 44.1656 45.685 44.4969 45.685 44.9821C45.685 45.3371 45.6141 45.8459 45.5313 46.0944C45.4604 46.3547 45.153 46.828 44.8574 47.1475C44.5263 47.5025 44.1243 47.7983 43.7933 47.9167C43.4977 48.0232 42.9656 48.106 42.6109 48.106C42.2562 48.0942 41.7714 48.0113 41.5468 47.9167C41.3221 47.822 40.9201 47.5617 40.6719 47.3368C40.4117 47.112 40.0807 46.6624 39.927 46.3429C39.7378 45.9287 39.655 45.5264 39.655 45.0412C39.655 44.4969 39.726 44.1774 39.9743 43.6923C40.1634 43.3373 40.4945 42.8995 40.7191 42.722C40.9438 42.5445 41.3458 42.3197 41.6059 42.2132C41.866 42.1185 42.3153 42.0357 42.6109 42.0357ZM41.5823 44.2248C41.4995 44.3431 41.3931 44.6626 41.3576 44.9229C41.2985 45.3016 41.3458 45.4791 41.5704 45.8104C41.7478 46.0826 41.9961 46.26 42.2562 46.331C42.5163 46.402 42.8237 46.402 43.0839 46.331C43.344 46.26 43.5923 46.0707 43.7696 45.8104C43.9943 45.4791 44.0416 45.3016 43.9824 44.9229C43.947 44.6626 43.8169 44.3549 43.7105 44.2248C43.5923 44.1064 43.3203 43.929 43.1075 43.8461C42.9065 43.7515 42.6937 43.6805 42.6346 43.6805C42.5873 43.6923 42.3744 43.7633 42.1498 43.8461C41.9252 43.929 41.665 44.0946 41.5823 44.2248Z" fill="#FFD521"/>
<path d="M46.3 17.7674C46.3237 17.6964 46.5956 17.4361 46.9267 17.1876C47.2459 16.9273 47.5415 16.7616 47.577 16.7971C47.6243 16.8445 48.0972 17.4598 48.6411 18.1816C49.1731 18.9034 49.6461 19.5305 49.6697 19.6015C49.6934 19.6725 49.0431 20.2287 48.2273 20.844C47.4114 21.4593 46.7257 21.9445 46.702 21.909C46.6902 21.8735 46.4774 21.5895 46.2291 21.2582L46.2291 21.2582C45.9926 20.9387 45.8034 20.631 45.8034 20.5837C45.8034 20.5245 46.1463 20.2405 46.572 19.9329C46.9976 19.6134 47.3405 19.353 47.3405 19.3412C47.3405 19.3175 47.104 18.9862 46.8084 18.5957C46.5128 18.2052 46.2882 17.8266 46.3 17.7674Z" fill="#FFD521"/>
<path d="M39.3241 11.9693C39.3478 11.8983 39.9744 11.3776 40.7193 10.7978C41.4642 10.218 42.1027 9.73284 42.1381 9.72101C42.1736 9.72101 42.6938 10.3482 43.285 11.141C43.888 11.9219 44.3846 12.5728 44.3846 12.5964C44.3964 12.6083 44.1008 12.8449 43.7343 13.1289C43.3796 13.4011 43.0722 13.6141 43.0485 13.6022C43.0249 13.5786 42.753 13.2354 41.9017 12.0876L41.4878 12.3834C41.2632 12.5491 40.8848 12.8212 40.6602 13.0106C40.4001 13.2117 40.1991 13.2827 40.1399 13.2117C40.0927 13.1526 39.8798 12.8686 39.6788 12.5964C39.466 12.3124 39.3123 12.0284 39.3241 11.9693Z" fill="#FFD521"/>
</svg>
