<svg width="80" height="80" viewBox="0 0 80 80" fill="none" xmlns="http://www.w3.org/2000/svg">
<circle cx="40" cy="40" r="40" fill="white"/>
<path fill-rule="evenodd" clip-rule="evenodd" d="M22.5574 30.7605C22.5574 28.2435 24.5978 26.2031 27.1148 26.2031H52.6363C55.1533 26.2031 57.1937 28.2436 57.1937 30.7605V47.1672C57.1937 49.6842 55.1533 51.7247 52.6363 51.7247H27.1148C24.5978 51.7247 22.5574 49.6842 22.5574 47.1672V30.7605ZM27.1148 28.0261C25.6046 28.0261 24.3803 29.2503 24.3803 30.7605V47.1672C24.3803 48.6774 25.6046 49.9017 27.1148 49.9017H52.6363C54.1465 49.9017 55.3708 48.6774 55.3708 47.1672V30.7605C55.3708 29.2503 54.1465 28.0261 52.6363 28.0261H27.1148Z" fill="#FFD521"/>
<path fill-rule="evenodd" clip-rule="evenodd" d="M56.2821 35.9245H23.4688V34.1016H56.2821V35.9245Z" fill="#FFD521"/>
<path fill-rule="evenodd" clip-rule="evenodd" d="M30.7607 40.7878C29.7539 40.7878 28.9377 41.604 28.9377 42.6108C28.9377 43.6176 29.7539 44.4337 30.7607 44.4337C31.7675 44.4337 32.5836 43.6176 32.5836 42.6108C32.5836 41.604 31.7675 40.7878 30.7607 40.7878ZM27.1147 42.6108C27.1147 40.5972 28.7471 38.9648 30.7607 38.9648C32.7743 38.9648 34.4066 40.5972 34.4066 42.6108C34.4066 44.6244 32.7743 46.2567 30.7607 46.2567C28.7471 46.2567 27.1147 44.6244 27.1147 42.6108Z" fill="#FFD521"/>
<path fill-rule="evenodd" clip-rule="evenodd" d="M36.2297 40.7878C35.2229 40.7878 34.4067 41.604 34.4067 42.6108C34.4067 43.6176 35.2229 44.4337 36.2297 44.4337C37.2365 44.4337 38.0526 43.6176 38.0526 42.6108C38.0526 41.604 37.2365 40.7878 36.2297 40.7878ZM32.5837 42.6108C32.5837 40.5972 34.2161 38.9648 36.2297 38.9648C38.2433 38.9648 39.8756 40.5972 39.8756 42.6108C39.8756 44.6244 38.2433 46.2567 36.2297 46.2567C34.2161 46.2567 32.5837 44.6244 32.5837 42.6108Z" fill="#FFD521"/>
</svg>
