<svg width="69" height="69" viewBox="0 0 69 69" fill="none" xmlns="http://www.w3.org/2000/svg">
<rect x="0.709961" y="0.708984" width="68.2901" height="68.2901" rx="11.3817" fill="white"/>
<path d="M29.422 41.8002C29.5033 41.6918 29.693 41.5654 29.8466 41.5202C30.0002 41.475 33.045 41.4299 36.7132 41.4299C40.5079 41.4208 43.4442 41.457 43.6249 41.5021C43.7966 41.5473 44.0044 41.6828 44.0857 41.8002C44.167 41.9177 44.2483 42.0893 44.2574 42.1887C44.2664 42.2881 44.2754 42.4416 44.2664 42.5229C44.2664 42.6133 44.1399 42.803 43.7333 43.2275H29.8015L29.5304 42.9565C29.3858 42.803 29.2503 42.6133 29.2503 42.5229C29.2413 42.4416 29.2503 42.2881 29.2594 42.1887C29.2684 42.0893 29.3497 41.9177 29.422 41.8002Z" fill="#FFD521"/>
<path d="M8.58745 37.9336C8.70491 37.8252 8.8585 37.7168 8.93078 37.6897C9.00306 37.6626 11.7406 37.6445 20.9292 37.6716L21.1641 37.8974C21.2906 38.0239 21.4171 38.2227 21.4442 38.3491C21.4713 38.4756 21.4532 38.7014 21.408 38.846C21.3538 38.9905 21.1912 39.1893 21.0376 39.2796C20.7846 39.4241 20.3239 39.4332 14.8938 39.4332C9.46384 39.4332 9.00306 39.4241 8.75008 39.2796C8.60552 39.1893 8.43386 39.0176 8.37965 38.8911C8.32544 38.7647 8.30737 38.5388 8.33447 38.3943C8.36158 38.2498 8.47903 38.033 8.58745 37.9336Z" fill="#FFD521"/>
<path d="M32.1955 29.4861C34.382 27.2909 36.2974 25.4481 36.442 25.3758C36.5865 25.3126 36.7943 25.2764 36.8937 25.3126C36.9931 25.3397 37.1557 25.4119 37.2551 25.4661C37.3545 25.5294 37.49 25.701 37.5533 25.8456C37.6346 25.9991 37.6527 26.2159 37.6165 26.3785C37.5713 26.5773 36.4329 27.7787 33.2075 31.0037C30.8132 33.4067 28.7261 35.4302 28.5816 35.5115C28.4009 35.6109 28.2202 35.638 28.0395 35.6019C27.8497 35.5567 27.0547 34.825 25.3019 33.0815C23.9376 31.7264 22.7721 30.4979 22.6908 30.3533C22.6095 30.1907 22.5733 29.9739 22.6095 29.8113C22.6366 29.6668 22.7269 29.468 22.8173 29.3867C22.9076 29.3054 23.0793 29.197 23.2058 29.1519C23.3323 29.1067 23.531 29.0886 23.6575 29.1157C23.8021 29.1428 24.6875 29.9558 28.2202 33.4699L32.1955 29.4861Z" fill="#FFD521"/>
<path fill-rule="evenodd" clip-rule="evenodd" d="M29.1689 16.7661C45.8746 16.757 46.6696 16.7661 47.013 16.9287C47.2117 17.019 47.5009 17.2268 47.6545 17.3984C47.8261 17.5881 47.9707 17.8862 48.0339 18.1843C48.0972 18.4373 48.1423 19.0787 48.1423 20.5511H51.6027C53.5814 20.5511 55.2619 20.5873 55.551 20.6415C55.822 20.6957 56.2648 20.8493 56.5358 20.9848C56.7978 21.1203 57.2225 21.4364 57.4754 21.6804C57.7284 21.9423 58.0446 22.385 58.2073 22.7192C58.4693 23.2612 58.4874 23.3877 58.5145 24.4356C58.5416 25.4745 58.5325 25.5829 58.3609 25.7726C58.2524 25.881 58.1079 25.9984 58.0266 26.0436C57.891 26.0978 57.9543 26.414 58.5325 28.7717C58.8939 30.2352 59.2282 31.5631 59.2644 31.7077C59.3276 31.9425 59.4089 31.9967 59.9058 32.1413C60.2221 32.2316 60.6828 32.4213 60.9268 32.5659C61.1798 32.7104 61.5412 32.9633 61.7399 33.135C61.9387 33.3066 62.2549 33.6589 62.4447 33.9299C62.6254 34.2009 62.8964 34.6978 63.2759 35.6824L63.303 40.9671C63.321 45.1135 63.303 46.306 63.2126 46.5137C63.1494 46.6583 62.9868 46.8299 62.8512 46.8932C62.6705 46.9835 62.1736 47.0196 59.5264 47.0196V47.3177C59.5264 47.4713 59.4631 47.8869 59.3909 48.2392C59.3186 48.5915 59.0837 49.2148 58.8668 49.6394C58.5867 50.1904 58.3157 50.5698 57.8459 51.0396C57.4032 51.4822 56.9876 51.7894 56.4455 52.0694C56.0299 52.2862 55.4245 52.5211 55.0993 52.5843C54.774 52.6566 54.2319 52.7108 53.8795 52.7108C53.5272 52.7108 52.9851 52.6566 52.6598 52.5843C52.3346 52.5211 51.7292 52.2862 51.3046 52.0694C50.7534 51.7803 50.3559 51.4913 49.8861 51.0215C49.3621 50.4976 49.1362 50.1814 48.82 49.531C48.4947 48.8625 48.3863 48.5192 48.1875 47.0196H28.1751L28.1299 47.4532C28.1028 47.6881 28.0215 48.1398 27.9402 48.465C27.8679 48.7902 27.6691 49.3142 27.5156 49.6213C27.3529 49.9375 27.0728 50.3892 26.8831 50.615C26.6843 50.8499 26.3229 51.2112 26.07 51.428C25.8079 51.6358 25.3381 51.952 25.0129 52.1236C24.6876 52.2953 24.1455 52.494 23.7932 52.5663C23.4408 52.6476 22.8535 52.7108 22.4831 52.7108C22.1127 52.7108 21.5525 52.6476 21.2363 52.5753C20.9291 52.503 20.3418 52.2682 19.9262 52.0694C19.3931 51.7984 19.0137 51.5184 18.5438 51.0486C18.0831 50.5879 17.7939 50.1995 17.5319 49.6845C17.3332 49.2871 17.1254 48.7812 17.0621 48.5553C16.9989 48.3295 16.9266 47.9049 16.8362 47.0648L14.1709 47.0196C11.9122 46.9835 11.4604 46.9474 11.2346 46.8209C11.09 46.7396 10.8551 46.5589 10.7196 46.4144C10.5841 46.2789 10.4124 46.0079 10.3401 45.8272C10.2317 45.5743 10.1956 45.1677 10.1956 43.2255H8.63251C7.31341 43.2255 7.04236 43.2074 6.85263 43.0719C6.72614 42.9906 6.58158 42.8551 6.51833 42.7738C6.45509 42.7016 6.40088 42.4938 6.40088 42.3222C6.40088 42.0873 6.46412 41.9427 6.95201 41.464L11.2165 41.4369C13.5656 41.4188 15.6617 41.4369 15.8876 41.473C16.1586 41.5091 16.3574 41.6085 16.502 41.7711C16.6284 41.9156 16.7098 42.1234 16.7007 42.3041C16.7007 42.4577 16.6646 42.6745 16.6104 42.7738C16.5562 42.8732 16.3935 43.0177 16.249 43.09C16.0321 43.1984 15.5804 43.2255 12.0025 43.2255V45.2129H17.1525L17.3874 44.7432C17.5229 44.4812 17.7397 44.1018 17.8753 43.903C18.0108 43.7043 18.336 43.3249 18.6071 43.0629C18.8781 42.7919 19.3209 42.4396 19.5919 42.277C19.863 42.1144 20.4141 41.8705 20.8116 41.735C21.3808 41.5453 21.7151 41.4911 22.3927 41.482C22.8626 41.482 23.4769 41.5272 23.748 41.5904C24.019 41.6537 24.5882 41.8705 25.0129 42.0782C25.6092 42.3673 25.9344 42.6022 26.4585 43.1352C26.9283 43.6049 27.2445 44.0205 27.8589 45.2129H46.2902L46.3805 38.1667L46.6245 37.9228C46.7961 37.7602 46.9678 37.6789 47.1756 37.6698C47.3382 37.6698 47.5822 37.7421 47.7177 37.8324C47.8623 37.9228 47.9978 38.1215 48.052 38.3293C48.1062 38.519 48.1423 40.0547 48.1423 41.9427C48.1423 45.1406 48.1423 45.2129 48.323 45.2581C48.4676 45.2942 48.5399 45.2129 48.7206 44.8335C48.838 44.5715 49.0368 44.1921 49.1723 43.9934C49.3078 43.7946 49.6241 43.4152 49.8861 43.1442C50.1481 42.8822 50.5547 42.5299 50.8076 42.3764C51.0516 42.2138 51.5304 41.9789 51.8647 41.8434C52.2081 41.7079 52.7953 41.5633 53.1748 41.5272C53.5633 41.482 54.1958 41.482 54.5752 41.5272C54.9637 41.5633 55.551 41.7079 55.8853 41.8434C56.2286 41.9698 56.7255 42.2318 56.9966 42.4215C57.2676 42.6022 57.6832 42.9545 57.9091 43.1984C58.135 43.4333 58.4512 43.8127 58.5958 44.0385C58.7494 44.2644 58.9481 44.6257 59.2282 45.2581L61.5141 45.2129V41.3285H60.7913C60.2763 41.3285 59.9149 41.2743 59.5444 41.1388C59.1921 41.0032 58.8849 40.7955 58.5687 40.4793C58.2615 40.1631 58.0537 39.856 57.9362 39.5217C57.7917 39.1152 57.7646 38.781 57.7646 36.2696L58.2615 35.7728L59.7974 35.7547C60.9539 35.7367 61.3334 35.7005 61.3334 35.6192C61.3334 35.556 61.2249 35.3211 61.0804 35.0953C60.9358 34.8694 60.7009 34.5894 60.5564 34.4629C60.4118 34.3364 60.0865 34.1377 59.3909 33.7854L48.1875 33.7312L48.1243 34.3906C48.0821 34.8303 48.0038 35.1254 47.8894 35.2759C47.79 35.4024 47.6002 35.5379 47.4557 35.5831C47.2569 35.6373 47.1033 35.6192 46.8503 35.4927C46.6606 35.3934 46.4799 35.2579 46.4438 35.1856C46.4076 35.1133 46.3625 31.3282 46.2902 18.5186H12.0477L11.9574 35.0953L11.7044 35.3392C11.5237 35.5289 11.3701 35.5921 11.0991 35.5921C10.828 35.5921 10.6834 35.5289 10.2407 35.0953L10.1956 18.2476L10.4124 17.7959C10.5389 17.552 10.7738 17.2448 10.9364 17.1274C11.0991 17.0009 11.334 16.8745 11.4604 16.8383C11.5869 16.8022 19.5558 16.7661 29.1689 16.7661ZM48.1243 23.3696L48.1423 24.3453C54.7921 24.3453 56.7436 24.3182 56.7617 24.282C56.7798 24.2369 56.7526 24.0291 56.6894 23.8032C56.6352 23.5684 56.4816 23.2432 56.3551 23.0806C56.2286 22.9089 55.9214 22.665 55.6775 22.5385L55.2348 22.3127C49.8409 22.2675 48.2417 22.2856 48.1965 22.3217C48.1514 22.3579 48.1152 22.8276 48.1243 23.3696ZM48.1423 31.9335C56.4635 31.9335 57.4483 31.9064 57.4483 31.8251C57.4393 31.7619 57.1231 30.4701 56.7436 28.9524L56.0389 26.1972L48.1423 26.152V31.9335ZM59.5264 38.2119C59.5264 38.8623 59.5354 38.8984 59.8426 39.2056C60.1498 39.5127 60.1859 39.5217 60.8364 39.5217H61.5141V37.5343H59.5264V38.2119ZM20.8568 43.614C20.6309 43.7224 20.2786 43.9572 20.0617 44.1289C19.8449 44.3005 19.5106 44.689 19.3118 44.9871C19.1131 45.2852 18.8872 45.7549 18.8149 46.0259C18.7336 46.2969 18.6703 46.8028 18.6794 47.1551C18.6794 47.5526 18.7517 47.9862 18.8691 48.3295C18.9775 48.6276 19.1492 48.989 19.2486 49.1425C19.357 49.2871 19.5648 49.549 19.7184 49.7116C19.872 49.8833 20.1792 50.1453 20.405 50.2898C20.6309 50.4434 21.0375 50.6511 21.3085 50.7415C21.5977 50.8408 22.0675 50.9131 22.4379 50.9131C22.7903 50.9222 23.2962 50.8589 23.5673 50.7776C23.8383 50.7053 24.3081 50.4795 24.6063 50.2808C24.9045 50.082 25.293 49.7478 25.4646 49.531C25.6363 49.3142 25.8712 48.9619 25.9796 48.736C26.0971 48.5102 26.2326 48.0404 26.2868 47.6972C26.35 47.2545 26.35 46.8841 26.2868 46.4776C26.2326 46.1524 26.079 45.6646 25.9435 45.3936C25.817 45.1226 25.5098 44.689 25.2839 44.4451C25.049 44.1921 24.5973 43.8579 24.281 43.6953C23.9648 43.5327 23.4589 43.361 23.1607 43.3159C22.8626 43.2617 22.5373 43.2255 22.4379 43.2345C22.3385 43.2436 22.0313 43.2797 21.7603 43.3249C21.4892 43.3701 21.0827 43.4965 20.8568 43.614ZM52.7502 43.4243C52.5243 43.4785 52.181 43.623 51.9822 43.7404C51.7834 43.8488 51.4311 44.1379 51.1871 44.3728C50.9522 44.6077 50.6541 44.969 50.5456 45.1677C50.4282 45.3665 50.2656 45.773 50.1752 46.0711C50.0668 46.4505 50.0306 46.8028 50.0668 47.2906C50.0939 47.6881 50.1933 48.194 50.3198 48.5102C50.4372 48.8083 50.6992 49.2509 50.898 49.5039C51.1058 49.7478 51.4943 50.1001 51.7654 50.2898C52.0364 50.4705 52.4972 50.6873 52.7953 50.7686C53.0935 50.8589 53.5814 50.9221 53.8795 50.9221C54.1777 50.9221 54.6294 50.8679 54.8734 50.7866C55.1264 50.7144 55.5058 50.5608 55.7317 50.4524C55.9576 50.335 56.3461 50.0369 56.599 49.7839C56.852 49.531 57.1683 49.0974 57.3038 48.8264C57.4303 48.5553 57.5929 48.0404 57.6471 47.6972C57.7375 47.2003 57.7375 46.9203 57.6471 46.4324C57.5839 46.0801 57.4303 45.5923 57.3038 45.3484C57.1773 45.0955 56.8611 44.6799 56.6081 44.4179C56.3461 44.156 55.8943 43.8127 55.5962 43.6682C55.298 43.5236 54.8101 43.361 54.512 43.3159C54.2138 43.2617 53.8886 43.2255 53.7892 43.2345C53.6898 43.2436 53.5091 43.2617 53.3826 43.2797C53.2561 43.3068 52.976 43.3701 52.7502 43.4243Z" fill="#FFD521"/>
<path d="M52.5423 45.8267C52.6869 45.6912 52.9218 45.5196 53.0664 45.4473C53.22 45.366 53.5633 45.3028 53.8524 45.3028C54.1957 45.3028 54.5029 45.366 54.7378 45.4835C54.9366 45.5828 55.1986 45.7996 55.3161 45.9532C55.4335 46.1158 55.569 46.423 55.6142 46.6398C55.6594 46.8475 55.6775 47.1728 55.6594 47.3625C55.6323 47.5431 55.569 47.7961 55.5058 47.9225C55.4426 48.049 55.2709 48.2568 55.1263 48.3923C54.9908 48.5278 54.7198 48.6994 54.5391 48.7717C54.3493 48.853 54.0602 48.9162 53.9066 48.9162C53.744 48.9162 53.4639 48.8711 53.2922 48.8169C53.1206 48.7536 52.8766 48.6272 52.7501 48.5368C52.6237 48.4375 52.4339 48.2116 52.3255 48.0309C52.208 47.8503 52.0906 47.5251 52.0544 47.3173C52.0002 47.0463 52.0273 46.8204 52.1358 46.5043C52.2261 46.2694 52.4068 45.9622 52.5423 45.8267Z" fill="#FFD521"/>
<path d="M21.1551 45.7996C21.2635 45.6551 21.4984 45.4835 21.6701 45.4202C21.8418 45.357 22.2303 45.3118 22.5284 45.3028C22.9621 45.3028 23.1428 45.348 23.4319 45.5286C23.6307 45.6551 23.9017 45.9351 24.0463 46.1429C24.2451 46.4501 24.2902 46.6217 24.2902 47.0372C24.2902 47.3263 24.2451 47.6696 24.1909 47.8051C24.1457 47.9496 23.9921 48.1755 23.8566 48.32C23.721 48.4646 23.45 48.6543 23.2512 48.7446C23.0525 48.8349 22.7453 48.9162 22.5736 48.9162C22.4019 48.9162 22.0948 48.8711 21.896 48.8169C21.6972 48.7627 21.39 48.5639 21.2093 48.3833C21.0286 48.2026 20.8299 47.8954 20.7757 47.6967C20.7214 47.498 20.6763 47.1999 20.6763 47.0372C20.6763 46.8837 20.7395 46.5946 20.8208 46.4049C20.8931 46.2242 21.0467 45.9532 21.1551 45.7996Z" fill="#FFD521"/>
</svg>
