<svg width="69" height="69" viewBox="0 0 69 69" fill="none" xmlns="http://www.w3.org/2000/svg">
<rect y="0.572266" width="68.2901" height="68.2901" rx="11.3817" fill="white"/>
<path fill-rule="evenodd" clip-rule="evenodd" d="M47.464 9.10156C48.7356 9.10156 49.7623 9.14823 49.8439 9.21822C49.9256 9.27656 50.2056 9.49821 50.4506 9.70821C50.7072 9.9182 50.9755 10.2682 51.0689 10.4665C51.1622 10.7115 51.2205 11.3415 51.2205 13.6514H55.7704V55.7664H18.0885V43.7502H9.10547V24.151H18.0885L18.1001 21.6428L19.1734 20.4528C19.7684 19.7995 21.3783 18.0029 25.2632 13.6631L43.7541 13.6514V12.2514C43.7541 11.3415 43.8125 10.7115 43.9058 10.4782C43.9991 10.2682 44.2675 9.9182 44.5241 9.70821C44.7691 9.49821 45.0258 9.27656 45.0958 9.21822C45.1541 9.15989 46.2274 9.11323 47.4523 9.11323L47.464 9.10156ZM45.2708 13.0681L45.2824 15.1563H49.7156C49.7156 11.0032 49.7039 10.9565 49.4473 10.7815C49.2489 10.6415 48.8173 10.6065 47.499 10.6065C46.1574 10.6065 45.7491 10.6415 45.5274 10.7815C45.2474 10.9682 45.2474 10.9798 45.2708 13.0681ZM26.3831 22.6227L19.6751 22.681L19.6167 24.1393H42.2492V43.7386H19.6167V54.2382H54.2654V15.1563H51.2322V32.714C48.3856 37.0072 47.534 38.2438 47.499 38.2438C47.464 38.2438 46.6124 36.9838 45.5974 35.4556L43.7658 32.6557V15.1563H26.3831V22.6227ZM20.6784 21.0478C23.8166 21.0944 24.7615 21.0944 24.7965 21.0828C24.8315 21.0594 24.8432 19.9978 24.8199 18.7145L24.7849 16.393L20.6784 21.0478ZM45.2824 18.0729H49.7156V16.5563H45.2824V18.0729ZM45.2824 31.7224L46.7407 31.664V19.6478L45.2941 19.5778L45.2824 31.7224ZM48.3156 31.7224H49.7156V19.5895H48.3156V31.7224ZM10.6337 42.222H40.7326V25.6559H10.6337V42.222ZM46.7174 34.3823C47.114 34.9772 47.4757 35.4672 47.499 35.4672C47.534 35.4672 47.8607 35.0122 48.234 34.4639C48.6073 33.9156 48.934 33.3906 48.9573 33.2973C49.0156 33.1456 48.8056 33.1223 47.499 33.1223C46.6707 33.1223 45.9824 33.1573 45.9941 33.204C45.9941 33.2506 46.3207 33.7873 46.7174 34.3823Z" fill="#FFD521"/>
<path d="M37.6644 33.9747C37.6527 33.6013 37.6877 33.2514 37.746 33.2164C37.8044 33.1697 38.1543 33.1347 39.2043 33.1347V34.6513H37.6877L37.6644 33.9747Z" fill="#FFD521"/>
<path d="M34.6311 33.9747C34.6195 33.6013 34.6545 33.2514 34.7128 33.2164C34.7711 33.1697 35.1211 33.1347 36.1711 33.1347V34.6513H34.6545L34.6311 33.9747Z" fill="#FFD521"/>
<path d="M31.7379 34.6513V33.893V33.1347H33.1379V34.6513H31.7379Z" fill="#FFD521"/>
<path d="M18.0651 33.9747C18.0534 33.6013 18.0884 33.2514 18.1468 33.2164C18.2051 33.1697 18.5551 33.1347 19.6051 33.1347V34.6513H18.0884L18.0651 33.9747Z" fill="#FFD521"/>
<path d="M15.1719 34.6513V33.893V33.1347H16.5718V34.6513H15.1719Z" fill="#FFD521"/>
<path d="M12.1387 34.6513V33.893L12.1503 33.123L13.5969 33.193L13.6553 34.6513H12.1387Z" fill="#FFD521"/>
<path d="M24.5282 28.9232C24.8432 28.8299 24.8432 28.7949 24.8432 28.0132V27.1966H26.3598V28.7132L26.9198 28.9815C27.2231 29.1332 27.6664 29.4832 27.9114 29.7398C28.1797 30.0315 28.413 30.4631 28.5297 30.8365C28.623 31.1748 28.7047 31.6764 28.693 32.4464H27.1764V31.9797C27.1764 31.7231 27.1064 31.3381 27.0248 31.1281C26.9314 30.9181 26.7448 30.6498 26.6048 30.5215C26.4415 30.3698 26.1265 30.2648 25.7998 30.2531C25.4965 30.2298 25.1232 30.2765 24.9715 30.3698C24.8082 30.4515 24.5632 30.6965 24.4115 30.9298C24.1782 31.2564 24.1432 31.4314 24.1899 31.8631C24.2365 32.2247 24.3532 32.4814 24.5749 32.7031C24.8315 32.9597 25.1115 33.0647 25.8348 33.2047C26.4298 33.3097 26.9664 33.4847 27.2931 33.6947C27.6431 33.9047 27.9581 34.2547 28.2031 34.663C28.413 35.013 28.6114 35.5379 28.6464 35.8296C28.693 36.1563 28.658 36.5879 28.5297 37.0196C28.4014 37.4979 28.2031 37.8479 27.8531 38.2212C27.5847 38.5128 27.1298 38.8395 26.3715 39.1545L26.3598 40.7294H24.8432L24.8549 39.9361C24.8549 39.1545 24.8549 39.1428 24.4699 38.9795C24.2599 38.8861 23.8866 38.6178 23.6416 38.3962C23.3849 38.1628 23.0816 37.7779 22.9533 37.5212C22.8249 37.2645 22.6849 36.6929 22.5683 35.4679L24.1432 35.4796L24.1549 36.0279C24.1549 36.3779 24.2365 36.7279 24.3882 36.9612C24.5165 37.1712 24.7732 37.4162 24.9598 37.5212C25.1582 37.6145 25.4848 37.6962 25.6948 37.6845C25.9048 37.6845 26.2431 37.5795 26.4531 37.4512C26.6631 37.3229 26.9198 37.0312 27.0131 36.7862C27.1298 36.5179 27.1764 36.2029 27.1298 35.9696C27.0948 35.7596 26.9314 35.4329 26.7681 35.2463C26.6048 35.048 26.2898 34.838 26.0448 34.7796C25.7998 34.7213 25.3682 34.6396 25.0765 34.6046C24.7615 34.5696 24.3415 34.3947 23.9916 34.1613C23.6182 33.9163 23.2916 33.5664 23.0583 33.1464C22.7433 32.5864 22.6966 32.3881 22.6966 31.6881C22.6966 31.0814 22.7666 30.7431 22.9416 30.4048C23.0816 30.1481 23.4199 29.7282 23.6999 29.4715C23.9799 29.2265 24.3532 28.9699 24.5282 28.9232Z" fill="#FFD521"/>
<path d="M51.2206 52.7342V51.9759V51.2176H52.7372V52.7342H51.2206Z" fill="#FFD521"/>
<path d="M21.1218 52.7342V51.9759V51.2176H49.704V52.7342H21.1218Z" fill="#FFD521"/>
<path d="M24.155 49.701V49.0011V48.3011H52.7372V49.701H24.155Z" fill="#FFD521"/>
<path d="M21.1218 49.701V49.0011V48.3011H22.6384V49.701H21.1218Z" fill="#FFD521"/>
<path d="M21.1801 46.7261L21.1451 45.9912L21.1101 45.2679H52.7372V46.7845L21.1801 46.7261Z" fill="#FFD521"/>
<path d="M27.8648 20.4305C27.8532 20.0572 27.8882 19.7188 27.9465 19.6722C28.0048 19.6255 31.2247 19.6138 42.1793 19.6488L42.2376 21.1071H27.8882L27.8648 20.4305Z" fill="#FFD521"/>
<path d="M27.8648 17.3973C27.8532 17.0239 27.8882 16.6856 27.9465 16.639C28.0048 16.5923 31.2247 16.5806 42.1793 16.6156L42.2376 18.0739H27.8882L27.8648 17.3973Z" fill="#FFD521"/>
</svg>
