<svg width="62" height="61" viewBox="0 0 62 61" fill="none" xmlns="http://www.w3.org/2000/svg">
<path d="M15.8845 60V1H45.0063L60.5127 16.5064V60H15.8845Z" stroke="#B2B4B6" stroke-width="1.51282"/>
<path d="M45.3848 1.75586V15.3712H58.6219" stroke="#B2B4B6" stroke-width="1.51282"/>
<rect x="6.80762" y="30.5" width="35.5513" height="15.8846" fill="#DD1818"/>
<path d="M10.0652 43.2559V33.7251H14.1906C15.0439 33.7251 15.7791 33.8658 16.3963 34.1472C17.0136 34.4195 17.4901 34.8143 17.8259 35.3317C18.1618 35.8491 18.3297 36.4663 18.3297 37.1834C18.3297 37.8914 18.1618 38.5041 17.8259 39.0215C17.4901 39.5389 17.0136 39.9382 16.3963 40.2196C15.7791 40.4919 15.0439 40.6281 14.1906 40.6281H11.2906L12.2709 39.6342V43.2559H10.0652ZM12.2709 39.8792L11.2906 38.8309H14.0681C14.7489 38.8309 15.2572 38.6856 15.593 38.3952C15.9289 38.1047 16.0968 37.7008 16.0968 37.1834C16.0968 36.6569 15.9289 36.2485 15.593 35.958C15.2572 35.6676 14.7489 35.5223 14.0681 35.5223H11.2906L12.2709 34.4739V39.8792ZM19.9044 43.2559V33.7251H24.2341C25.2689 33.7251 26.1811 33.9248 26.9708 34.3242C27.7605 34.7145 28.3777 35.2636 28.8225 35.9716C29.2673 36.6796 29.4896 37.5192 29.4896 38.4905C29.4896 39.4526 29.2673 40.2922 28.8225 41.0093C28.3777 41.7173 27.7605 42.271 26.9708 42.6704C26.1811 43.0607 25.2689 43.2559 24.2341 43.2559H19.9044ZM22.1101 41.445H24.1252C24.7606 41.445 25.3097 41.327 25.7726 41.091C26.2446 40.8459 26.6077 40.501 26.8619 40.0562C27.1251 39.6115 27.2567 39.0896 27.2567 38.4905C27.2567 37.8823 27.1251 37.3604 26.8619 36.9247C26.6077 36.4799 26.2446 36.1396 25.7726 35.9036C25.3097 35.6585 24.7606 35.5359 24.1252 35.5359H22.1101V41.445ZM33.1954 38.0139H37.7701V39.7839H33.1954V38.0139ZM33.3588 43.2559H31.1531V33.7251H38.3556V35.4951H33.3588V43.2559Z" fill="white"/>
</svg>
