<svg width="13" height="13" viewBox="0 0 13 13" fill="none" xmlns="http://www.w3.org/2000/svg">
<path d="M2.43 13V0.399999H7.146C8.742 0.399999 9.996 0.759999 10.908 1.48C11.832 2.2 12.294 3.232 12.294 4.576C12.294 5.932 11.832 6.97 10.908 7.69C9.996 8.41 8.742 8.77 7.146 8.77H3.168L3.762 8.14V13H2.43ZM3.762 8.248L3.168 7.636H7.164C8.388 7.636 9.324 7.372 9.972 6.844C10.632 6.316 10.962 5.566 10.962 4.594C10.962 3.622 10.632 2.872 9.972 2.344C9.324 1.816 8.388 1.552 7.164 1.552H3.168L3.762 0.922V8.248ZM0.54 10.66V9.868H7.812V10.66H0.54Z" fill="#ACAFB1"/>
</svg>
