<svg width="13" height="13" viewBox="0 0 13 13" fill="none" xmlns="http://www.w3.org/2000/svg">
<path d="M11.9167 5.47088C11.9708 5.20005 11.7542 4.87505 11.4833 4.87505L8.39584 4.44171L6.98751 1.62505C6.93334 1.51671 6.87918 1.46255 6.77084 1.40838C6.50001 1.24588 6.17501 1.35421 6.01251 1.62505L4.65834 4.44171L1.57084 4.87505C1.40834 4.87505 1.30001 4.92921 1.24584 5.03755C1.02918 5.25421 1.02918 5.57921 1.24584 5.79588L3.46668 7.96255L2.92501 11.05C2.92501 11.1584 2.92501 11.2667 2.97918 11.375C3.14168 11.6459 3.46668 11.7542 3.73751 11.5917L6.50001 10.1292L9.26251 11.5917C9.31668 11.6459 9.42501 11.6459 9.53334 11.6459C9.58751 11.6459 9.58751 11.6459 9.64168 11.6459C9.91251 11.5917 10.1292 11.3209 10.075 10.9959L9.53334 7.90838L11.7542 5.74171C11.8625 5.68755 11.9167 5.57922 11.9167 5.47088Z" fill="#FFD521"/>
</svg>
