<svg width="120" height="36" viewBox="0 0 120 36" fill="none" xmlns="http://www.w3.org/2000/svg">
<g clip-path="url(#clip0_3_2523)">
<path d="M110.429 0.383545H9.57057C4.51015 0.383545 0.407867 4.24127 0.407867 9.00001V26.9993C0.407867 31.7581 4.51015 35.6158 9.57057 35.6158H110.429C115.489 35.6158 119.591 31.7581 119.591 26.9993V9.00001C119.591 4.24127 115.489 0.383545 110.429 0.383545Z" fill="black"/>
<path fill-rule="evenodd" clip-rule="evenodd" d="M29.2969 17.7611C29.2748 15.428 31.2972 14.2933 31.3892 14.2407C30.2444 12.6449 28.468 12.4268 27.8444 12.4095C26.3536 12.2607 24.907 13.2625 24.1472 13.2625C23.3735 13.2625 22.2037 12.4255 20.9426 12.4497C19.3215 12.4732 17.8027 13.3711 16.9708 14.7634C15.2525 17.6025 16.5335 21.7758 18.1789 24.0708C19.002 25.1958 19.9642 26.4509 21.2231 26.4059C22.4555 26.3581 22.9156 25.6568 24.402 25.6568C25.8758 25.6568 26.3072 26.4059 27.5912 26.3789C28.9134 26.3582 29.746 25.2484 30.5404 24.1137C31.493 22.826 31.8744 21.557 31.8898 21.4919C31.8582 21.4815 29.322 20.558 29.2969 17.7611ZM26.8704 10.9003C27.533 10.1097 27.9858 9.03315 27.8613 7.93999C26.9021 7.98153 25.7028 8.57346 25.0123 9.34815C24.4005 10.0301 23.8542 11.1481 23.9956 12.1984C25.0726 12.2752 26.1799 11.6791 26.8704 10.901V10.9003ZM41.1011 22.2472H44.4324L42.7899 17.6288H42.7443L41.1004 22.2479L41.1011 22.2472ZM44.8689 23.5612H40.6653L39.6552 26.4073H37.8744L41.8572 15.8766H43.7065L47.6878 26.4073H45.8775L44.8689 23.5612ZM54.5919 22.5691C54.5919 21.0142 53.7512 19.9924 52.4665 19.9924C51.2047 19.9924 50.3566 21.035 50.3566 22.5691C50.3566 24.1158 51.2054 25.1521 52.4665 25.1521C53.7512 25.1521 54.5919 24.1379 54.5919 22.5691ZM56.2888 22.5691C56.2888 24.9541 54.9504 26.4876 52.9318 26.4876C51.787 26.4876 50.8763 25.9988 50.4029 25.1445H50.3639V28.9474H48.7141V18.7296H50.3116V20.0076H50.3418C50.8005 19.1838 51.7789 18.65 52.9023 18.65C54.9431 18.65 56.2881 20.1897 56.2881 22.5698L56.2888 22.5691ZM63.441 22.5691C63.441 21.0142 62.601 19.9924 61.3163 19.9924C60.0552 19.9924 59.2071 21.035 59.2071 22.5691C59.2071 24.1158 60.0552 25.1521 61.3163 25.1521C62.601 25.1521 63.441 24.1379 63.441 22.5691ZM65.1386 22.5691C65.1386 24.9541 63.801 26.4876 61.7823 26.4876C60.6375 26.4876 59.7269 25.9988 59.2528 25.1445H59.2145V28.9474H57.5632V18.7296H59.1607V20.0076H59.1917C59.6496 19.1838 60.6287 18.65 61.7521 18.65C63.7929 18.65 65.1372 20.1897 65.1372 22.5698L65.1386 22.5691ZM70.9877 23.4733C71.1099 24.5173 72.173 25.2027 73.6248 25.2027C75.0155 25.2027 76.0159 24.5173 76.0159 23.5758C76.0159 22.7588 75.4123 22.2687 73.9833 21.9343L72.5543 21.6048C70.5291 21.1375 69.589 20.234 69.589 18.7656C69.589 16.949 71.2469 15.7008 73.6012 15.7008C75.932 15.7008 77.5296 16.949 77.584 18.7656H75.918C75.8172 17.7154 74.908 17.0812 73.5777 17.0812C72.2488 17.0812 71.3396 17.723 71.3396 18.6562C71.3396 19.4005 71.9205 19.8394 73.3421 20.1745L74.5575 20.459C76.8191 20.9706 77.7593 21.8381 77.7593 23.3791C77.7593 25.3495 76.1161 26.5825 73.5026 26.5825C71.0562 26.5825 69.4049 25.3778 69.2989 23.4733H70.9877ZM81.3217 16.913V18.7296H82.8515V19.9771H81.3217V24.2099C81.3217 24.8676 81.628 25.1743 82.3008 25.1743C82.4687 25.1743 82.7367 25.1521 82.8434 25.1376V26.3789C82.6601 26.4225 82.2935 26.4509 81.9261 26.4509C80.2991 26.4509 79.6638 25.868 79.6638 24.3788V19.9771H78.494V18.7296H79.6638V16.913H81.3217ZM89.6827 22.5691C89.6827 20.9118 88.8869 19.9342 87.5507 19.9342C86.213 19.9342 85.4186 20.9194 85.4186 22.5691C85.4186 24.2328 86.213 25.2027 87.5507 25.2027C88.8869 25.2027 89.6827 24.2328 89.6827 22.5691ZM83.7372 22.5691C83.7372 20.153 85.2258 18.6348 87.5507 18.6348C89.8815 18.6348 91.3656 20.153 91.3656 22.5691C91.3656 24.9908 89.8888 26.5028 87.5507 26.5028C85.2118 26.5028 83.7372 24.9908 83.7372 22.5691ZM92.7254 18.7289H94.3001V20.0367H94.3377C94.5909 19.1678 95.3242 18.6493 96.2724 18.6493C96.5094 18.6493 96.7067 18.6784 96.8378 18.7081V20.1821C96.7067 20.1308 96.4167 20.0872 96.0964 20.0872C95.0334 20.0872 94.3752 20.7733 94.3752 21.8533V26.408H92.7254V18.7289ZM98.8682 21.8602H102.888C102.85 20.6847 102.063 19.9121 100.916 19.9121C99.7767 19.9121 98.9529 20.7013 98.8682 21.8602ZM104.447 24.1518C104.225 25.5461 102.804 26.5028 100.986 26.5028C98.6459 26.5028 97.1941 25.0061 97.1941 22.6051C97.1941 20.1973 98.654 18.6348 100.916 18.6348C103.141 18.6348 104.54 20.0941 104.54 22.4217V22.9624H98.8601V23.0572C98.8601 24.3705 99.7237 25.2332 101.023 25.2332C101.94 25.2332 102.66 24.8164 102.88 24.1518H104.447ZM39.9269 10.0882H40.6366C41.224 10.0882 41.6348 9.75869 41.6348 9.28169C41.6348 8.81576 41.2667 8.51392 40.6439 8.51392C40.0255 8.51392 39.6206 8.8123 39.575 9.3073H38.7968C38.8505 8.39484 39.5639 7.82715 40.669 7.82715C41.7121 7.82715 42.4469 8.38446 42.4469 9.18753C42.4496 9.4558 42.3554 9.71699 42.1796 9.9283C42.0057 10.1385 41.76 10.2857 41.4839 10.3451V10.4039C42.1708 10.4711 42.6633 10.9231 42.6633 11.6279C42.6633 12.4933 41.8034 13.1323 40.6844 13.1323C39.5315 13.1323 38.7409 12.5362 38.693 11.6348H39.4829C39.5315 12.1195 39.9968 12.431 40.6829 12.431C41.3705 12.431 41.8189 12.0807 41.8189 11.5864C41.8189 11.0845 41.3963 10.7757 40.6579 10.7757H39.9269V10.0882ZM46.1315 11.603V11.2845L45.1539 11.3441C44.6032 11.3787 44.3544 11.558 44.3544 11.8938C44.3544 12.2392 44.6665 12.4379 45.0957 12.4379C45.6905 12.4379 46.1315 12.0772 46.1315 11.603ZM43.56 11.9305C43.56 11.2423 44.0974 10.8463 45.0478 10.7895L46.1308 10.73V10.4005C46.1308 9.99753 45.8532 9.76907 45.3121 9.76907C44.8719 9.76907 44.5671 9.92415 44.4788 10.1941H43.7153C43.7963 9.53784 44.4442 9.11692 45.3512 9.11692C46.3524 9.11692 46.9193 9.59392 46.9193 10.4005V13.0091H46.1573V12.4732H46.0955C45.8562 12.8554 45.4189 13.0728 44.8932 13.0728C44.1224 13.0728 43.56 12.6283 43.56 11.9305ZM49.0123 9.82584V13.0105H48.2231V9.19099H50.8564V9.82515L49.0123 9.82584ZM54.8282 11.0983C54.8282 10.2918 54.4285 9.80507 53.7593 9.80507C53.0952 9.80507 52.6793 10.3021 52.6793 11.1018C52.6793 11.8979 53.0952 12.3964 53.7556 12.3964C54.4285 12.3964 54.8282 11.9083 54.8282 11.0983ZM55.6395 11.0983C55.6395 12.3119 54.9968 13.0728 53.9882 13.0728C53.4177 13.0728 52.9649 12.8346 52.7566 12.431H52.6947V14.2795H51.9048V9.19099H52.6638V9.82238H52.7242C52.9656 9.38692 53.4361 9.1273 53.9801 9.1273C54.9961 9.1273 55.6395 9.88469 55.6395 11.0983ZM56.6915 14.3771V13.7284C56.7526 13.7401 56.8756 13.7422 56.9492 13.7422C57.3239 13.7422 57.5352 13.5961 57.6714 13.2098L57.7303 13.0236L56.2837 9.19099H57.1428L58.1455 12.2247H58.2081L59.2071 9.19099H60.0434L58.5534 13.1676C58.2118 14.0967 57.8334 14.3958 57.0177 14.3958C56.9085 14.3945 56.7994 14.3885 56.6908 14.3778L56.6915 14.3771ZM60.6596 11.9263H61.4444C61.5217 12.2628 61.8515 12.4386 62.3146 12.4386C62.8395 12.4386 63.162 12.2171 63.162 11.8737C63.162 11.5054 62.8726 11.3295 62.3139 11.3295H61.7153V10.7438H62.3043C62.7813 10.7438 63.0236 10.5687 63.0236 10.2495C63.0236 9.96984 62.788 9.75523 62.3036 9.75523C61.8618 9.75523 61.5394 9.93384 61.4893 10.2357H60.7281C60.8091 9.55584 61.3995 9.11692 62.3036 9.11692C63.2547 9.11692 63.798 9.52746 63.798 10.1734C63.798 10.5541 63.5448 10.8671 63.1664 10.9543V11.0145C63.6847 11.1308 63.9489 11.4493 63.9489 11.873C63.9489 12.5999 63.3026 13.0797 62.3139 13.0797C61.4407 13.0797 60.731 12.6975 60.6589 11.9263H60.6596ZM65.0864 13.0098V9.19099H65.8689V11.8176H65.9315L67.7735 9.19169H68.5568V13.0098H67.7735V10.3693H67.7153L65.8689 13.0098H65.0864ZM72.8658 9.82515H71.6069V13.0098H70.8169V9.82515H69.5573V9.19169H72.8665L72.8658 9.82515ZM74.3418 10.748H76.3605C76.3421 10.1485 75.9607 9.758 75.3777 9.758C74.7924 9.758 74.3853 10.1519 74.3418 10.748ZM77.118 11.9789C76.9377 12.6629 76.2979 13.0838 75.385 13.0838C74.2388 13.0838 73.5372 12.3334 73.5372 11.1128C73.5372 9.8923 74.2528 9.11692 75.3806 9.11692C76.4937 9.11692 77.1659 9.84384 77.1659 11.0422V11.3053H74.3418V11.3475C74.3661 12.0177 74.774 12.4414 75.4064 12.4414C75.8842 12.4414 76.2103 12.2773 76.3575 11.9789H77.118ZM81.2466 11.3129V12.431H82.1823C82.6483 12.431 82.8986 12.2344 82.8986 11.8744C82.8986 11.4915 82.6159 11.3129 82.0829 11.3129H81.2466ZM81.2466 9.76976V10.7584H82.0285C82.5062 10.7584 82.7345 10.5825 82.7345 10.2599C82.7345 9.96223 82.535 9.76976 82.1161 9.76976H81.2466ZM80.464 9.19169H82.267C83.0488 9.19169 83.5082 9.56969 83.5082 10.1623C83.5082 10.5479 83.2226 10.8982 82.8331 10.9695V11.0277C83.3507 11.0845 83.6878 11.4451 83.6878 11.9083C83.6878 12.575 83.1629 13.0091 82.2854 13.0091H80.464V9.19169Z" fill="#FFFFFE"/>
<path d="M110.429 0.383545H9.57057C4.51015 0.383545 0.407867 4.24127 0.407867 9.00001V26.9993C0.407867 31.7581 4.51015 35.6158 9.57057 35.6158H110.429C115.489 35.6158 119.591 31.7581 119.591 26.9993V9.00001C119.591 4.24127 115.489 0.383545 110.429 0.383545Z" stroke="#B3B1B1" stroke-width="0.816442"/>
</g>
<defs>
<clipPath id="clip0_3_2523">
<rect width="120" height="36" fill="white"/>
</clipPath>
</defs>
</svg>
