<svg width="20" height="20" viewBox="0 0 20 20" fill="none" xmlns="http://www.w3.org/2000/svg">
<g clip-path="url(#clip0_3_78)">
<path d="M15.958 0.00143433H4.03949C1.80727 0.00143433 0 1.8087 0 4.04093V15.9619C0 18.1917 1.80727 19.9989 4.03949 19.9989H15.9605C18.1902 19.9989 20 18.1917 20 15.9594V4.04093C19.9975 1.8087 18.1902 0.00143433 15.958 0.00143433Z" fill="url(#paint0_linear_3_78)"/>
<path d="M9.91374 4.59567L10.3187 3.89574C10.5687 3.45828 11.1261 3.31082 11.5635 3.56078C12.001 3.81074 12.1485 4.36817 11.8985 4.80563L7.99647 11.5598H10.8186C11.7335 11.5598 12.2459 12.6347 11.8485 13.3796H3.57456C3.06963 13.3796 2.66467 12.9746 2.66467 12.4697C2.66467 11.9648 3.06963 11.5598 3.57456 11.5598H5.89428L8.86393 6.41293L7.93655 4.80313C7.68659 4.36567 7.83405 3.81324 8.27151 3.55828C8.70897 3.30832 9.26139 3.45578 9.51635 3.89324L9.91374 4.59567ZM6.4042 14.317L5.52932 15.8343C5.27936 16.2717 4.72194 16.4192 4.28448 16.1692C3.84702 15.9193 3.69956 15.3618 3.94952 14.9244L4.59944 13.7995C5.33432 13.5721 5.93174 13.747 6.4042 14.317Z" fill="white"/>
<path d="M13.9382 11.5648H16.3054C16.8103 11.5648 17.2153 11.9698 17.2153 12.4747C17.2153 12.9796 16.8103 13.3846 16.3054 13.3846H14.9906L15.878 14.9244C16.1279 15.3618 15.9805 15.9143 15.543 16.1692C15.1055 16.4192 14.5531 16.2717 14.2982 15.8343C12.8034 13.2421 11.681 11.3023 10.9361 10.01C10.1737 8.69515 10.7186 7.37531 11.2561 6.92789C11.8535 7.95277 12.7459 9.50007 13.9382 11.5648Z" fill="white"/>
</g>
<defs>
<linearGradient id="paint0_linear_3_78" x1="10" y1="0.00143433" x2="10" y2="19.9989" gradientUnits="userSpaceOnUse">
<stop stop-color="#00BFFC"/>
<stop offset="1" stop-color="#0073F6"/>
</linearGradient>
<clipPath id="clip0_3_78">
<rect width="20" height="20" fill="white"/>
</clipPath>
</defs>
</svg>
