<svg width="16" height="17" viewBox="0 0 16 17" fill="none" xmlns="http://www.w3.org/2000/svg">
<g clip-path="url(#clip0_30_935)">
<path d="M1 4.5H4.50025C4.69916 4.5 4.88993 4.57902 5.03058 4.71967C5.17123 4.86032 5.25025 5.05109 5.25025 5.25V8.00025C5.25025 8.19916 5.17123 8.38993 5.03058 8.53058C4.88993 8.67123 4.69916 8.75025 4.50025 8.75025H1.00025C0.901738 8.75028 0.804184 8.73091 0.713161 8.69323C0.622138 8.65556 0.539429 8.60032 0.469758 8.53067C0.400088 8.46102 0.344821 8.37833 0.307114 8.28732C0.269408 8.19631 0.25 8.09876 0.25 8.00025V5.25025C0.25 5.05134 0.329018 4.86057 0.46967 4.71992C0.610322 4.57927 0.801088 4.5 1 4.5Z" fill="#5AC31A"/>
<path d="M8.25049 3.5C8.94084 3.5 9.50049 2.94036 9.50049 2.25C9.50049 1.55964 8.94084 1 8.25049 1C7.56013 1 7.00049 1.55964 7.00049 2.25C7.00049 2.94036 7.56013 3.5 8.25049 3.5Z" fill="#5AC31A"/>
<path d="M3.00076 9.46302C3.0008 9.85122 3.15345 10.2238 3.42576 10.5005H7.49001V9.46177C7.49001 9.39573 7.46378 9.3324 7.41708 9.2857C7.37039 9.239 7.30705 9.21277 7.24101 9.21277H3.24951C3.18338 9.2131 3.12008 9.23962 3.07346 9.28652C3.02683 9.33342 3.0007 9.39689 3.00076 9.46302Z" fill="#5AC31A"/>
<path d="M15.4343 13.3398C15.3124 12.889 15.039 12.494 14.6601 12.2211C14.2812 11.9482 13.8199 11.8141 13.3538 11.8413C13.3929 11.6952 13.4131 11.5447 13.4138 11.3935C13.409 11.1538 13.3461 10.9188 13.2305 10.7087C13.1149 10.4987 12.95 10.3198 12.75 10.1875C12.2133 9.83127 11.8118 8.92552 11.751 7.97302H12.23C12.428 7.97309 12.6178 7.89464 12.758 7.75488C12.8982 7.61512 12.9772 7.42547 12.9778 7.22752V6.73102C12.9772 6.53308 12.8982 6.34342 12.758 6.20367C12.6178 6.06391 12.428 5.98546 12.23 5.98552H10.52C9.07451 5.56927 8.63951 5.08977 8.37976 4.80252C8.37447 4.79672 8.36922 4.79089 8.36401 4.78502C8.38994 4.59335 8.35523 4.39837 8.26476 4.22742C8.17428 4.05647 8.03258 3.91812 7.85951 3.83177C7.73594 3.77278 7.60065 3.74243 7.46372 3.74299C7.32679 3.74355 7.19175 3.775 7.06867 3.83501C6.94559 3.89501 6.83763 3.98202 6.75285 4.08954C6.66807 4.19707 6.60864 4.32234 6.57901 4.45602L5.86176 7.88352C5.84065 7.98532 5.84107 8.0904 5.86297 8.19202C5.88487 8.29365 5.92778 8.38957 5.98894 8.47364C6.0501 8.5577 6.12816 8.62805 6.21811 8.68017C6.30806 8.73228 6.40791 8.76502 6.51126 8.77627L7.74051 8.91227C7.80384 8.91903 7.86217 8.94986 7.90343 8.99838C7.9447 9.04691 7.96576 9.10942 7.96226 9.17302L7.76876 12.4495C7.5677 12.2738 7.42474 12.0412 7.35881 11.7824C7.29287 11.5237 7.30706 11.251 7.39951 11.0005H3.57826C3.17526 11.6683 2.53001 12.9203 2.79101 13.7345C2.83968 13.8878 2.92426 14.0273 3.03771 14.1413C3.15116 14.2553 3.2902 14.3406 3.44326 14.39C3.55569 14.4243 3.67359 14.4371 3.79076 14.4275C3.81937 14.8317 4.00011 15.21 4.29655 15.4861C4.59299 15.7623 4.98309 15.9159 5.38826 15.9159C5.79342 15.9159 6.18352 15.7623 6.47996 15.4861C6.7764 15.21 6.95714 14.8317 6.98576 14.4275H11.2708C11.3124 14.4252 11.3532 14.4147 11.3907 14.3966C11.4283 14.3784 11.4618 14.353 11.4895 14.3218C11.5199 14.4694 11.5692 14.6125 11.6363 14.7475C11.655 14.7868 11.6838 14.8205 11.7197 14.8452C11.7555 14.87 11.7973 14.8848 11.8407 14.8884C11.8841 14.8919 11.9277 14.884 11.9671 14.8654C12.0065 14.8469 12.0404 14.8183 12.0653 14.7825C12.0945 14.7405 12.126 14.7 12.1593 14.6598C12.1927 14.8755 12.2699 15.0821 12.3861 15.2668C12.5024 15.4516 12.6552 15.6106 12.8352 15.7341C13.0152 15.8576 13.2185 15.943 13.4327 15.9849C13.6469 16.0269 13.8675 16.0246 14.0808 15.9782C14.2941 15.9317 14.4956 15.8422 14.673 15.7149C14.8503 15.5877 14.9998 15.4255 15.1122 15.2384C15.2245 15.0512 15.2974 14.8431 15.3263 14.6267C15.3552 14.4103 15.3395 14.1904 15.2803 13.9803C15.3447 13.9733 15.4039 13.9411 15.4448 13.8908C15.4858 13.8405 15.5052 13.7761 15.499 13.7115C15.4895 13.5858 15.4679 13.4613 15.4343 13.3398ZM5.38826 15.4193C5.1151 15.4193 4.85168 15.3178 4.64911 15.1345C4.44655 14.9513 4.31928 14.6993 4.29201 14.4275H6.48451C6.45723 14.6993 6.32997 14.9513 6.1274 15.1345C5.92483 15.3178 5.66141 15.4193 5.38826 15.4193ZM10.235 12.6885H9.26376L9.69326 8.62852C9.7104 8.4641 9.6724 8.29864 9.58524 8.15816C9.49808 8.01769 9.36669 7.91018 9.21176 7.85252L7.98676 7.39527C7.93044 7.37435 7.88364 7.3337 7.85504 7.28086C7.82644 7.22803 7.81799 7.16662 7.83126 7.10802L8.01751 6.30427C8.65481 6.8125 9.42429 7.12767 10.235 7.21252V12.6885ZM13.8815 15.493C13.7157 15.5148 13.5471 15.4986 13.3884 15.4456C13.2298 15.3927 13.0853 15.3043 12.9658 15.1873C12.8463 15.0702 12.755 14.9275 12.6988 14.77C12.6426 14.6125 12.6229 14.4443 12.6413 14.278L12.7173 14.183C13.2898 13.8281 13.972 13.6939 14.6363 13.8055L14.6953 13.8513C14.786 14.0083 14.8366 14.1853 14.8424 14.3666C14.8482 14.5479 14.809 14.7278 14.7285 14.8903C14.648 15.0528 14.5285 15.1929 14.3807 15.298C14.2329 15.4032 14.0614 15.4702 13.8815 15.493Z" fill="#5AC31A"/>
</g>
<defs>
<clipPath id="clip0_30_935">
<rect width="16" height="16" fill="white" transform="translate(0 0.5)"/>
</clipPath>
</defs>
</svg>
