<svg width="99" height="89" viewBox="0 0 99 89" fill="none" xmlns="http://www.w3.org/2000/svg">
<g clip-path="url(#clip0_30_1408)">
<path fill-rule="evenodd" clip-rule="evenodd" d="M6.70255 4.45424C6.74546 3.38163 7.62748 2.53418 8.70096 2.53418H82.9776C84.0016 2.53418 84.8602 3.30759 84.9668 4.32601L93.7794 88.5342H3.39786C2.07911 88.5342 1.12135 87.2802 1.46833 86.0079L3.71957 77.7534C3.7593 77.6077 3.7824 77.458 3.78844 77.3071L6.70255 4.45424Z" fill="#28B1FF" fill-opacity="0.4"/>
<path fill-rule="evenodd" clip-rule="evenodd" d="M86.0629 0.535958C86.0619 1.52925 85.2564 2.33418 84.2629 2.33418C83.2688 2.33418 82.4629 1.52829 82.4629 0.53418H80.6624C80.6624 1.52829 79.8565 2.33418 78.8624 2.33418C77.8683 2.33418 77.0624 1.52829 77.0624 0.53418H75.2621C75.2621 1.52829 74.4562 2.33418 73.4621 2.33418C72.468 2.33418 71.6621 1.52832 71.6621 0.534229H69.8617C69.8617 1.52832 69.0558 2.33418 68.0617 2.33418C67.0676 2.33418 66.2617 1.52832 66.2617 0.534229H64.4633C64.4633 1.52832 63.6574 2.33418 62.6633 2.33418C61.6692 2.33418 60.8633 1.52832 60.8633 0.534229H59.0629C59.0629 1.52832 58.257 2.33418 57.2629 2.33418C56.2688 2.33418 55.4629 1.52832 55.4629 0.534229H53.6624C53.6624 1.52832 52.8565 2.33418 51.8624 2.33418C50.8683 2.33418 50.0624 1.52832 50.0624 0.534229H48.2621C48.2621 1.52832 47.4562 2.33418 46.4621 2.33418C45.468 2.33418 44.6621 1.52832 44.6621 0.534229H42.8617C42.8617 1.52832 42.0558 2.33418 41.0617 2.33418C40.0676 2.33418 39.2617 1.52832 39.2617 0.534229H37.4633C37.4633 1.52832 36.6574 2.33418 35.6633 2.33418C34.6692 2.33418 33.8633 1.52832 33.8633 0.534229H32.0629C32.0629 1.52832 31.257 2.33418 30.2629 2.33418C29.2688 2.33418 28.4629 1.52832 28.4629 0.534229H26.6624C26.6624 1.52832 25.8565 2.33418 24.8624 2.33418C23.8683 2.33418 23.0624 1.52832 23.0624 0.534229H21.2621C21.2621 1.52832 20.4562 2.33418 19.4621 2.33418C18.468 2.33418 17.6621 1.52832 17.6621 0.534229H15.8617C15.8617 1.52832 15.0558 2.33418 14.0617 2.33418C13.0676 2.33418 12.2617 1.52832 12.2617 0.534229H11.7797C10.6751 0.534229 9.77966 1.42966 9.77965 2.53422L9.7793 76.3687C9.7793 76.4789 9.7884 76.5888 9.80652 76.6975L11.5011 86.8631C11.6618 87.8274 12.4962 88.5342 13.4739 88.5342H96.2181C97.5192 88.5342 98.474 87.3114 98.1584 86.0492L95.7797 76.5342L87.9681 2.32486C87.8639 1.33486 87.0491 0.576758 86.0629 0.535958Z" fill="white"/>
<path d="M42.7793 58.5342C42.7793 56.1472 43.7275 53.858 45.4153 52.1702C47.1032 50.4824 49.3923 49.5342 51.7793 49.5342C54.1662 49.5342 56.4554 50.4824 58.1433 52.1702C59.8311 53.858 60.7793 56.1472 60.7793 58.5342" stroke="#28B1FF" stroke-width="2"/>
<path d="M35.9438 29.4748C35.9438 29.9769 35.8449 30.4741 35.6527 30.938C35.4606 31.4019 35.1789 31.8233 34.8239 32.1784C34.4689 32.5334 34.0474 32.8151 33.5835 33.0072C33.1196 33.1993 32.6224 33.2982 32.1203 33.2982C31.6182 33.2982 31.121 33.1993 30.6571 33.0072C30.1933 32.8151 29.7718 32.5334 29.4167 32.1784C29.0617 31.8233 28.7801 31.4019 28.5879 30.938C28.3958 30.4741 28.2969 29.9769 28.2969 29.4748" stroke="#28B1FF" stroke-width="2"/>
<path d="M72.4652 29.4748C72.4652 29.9769 72.3663 30.4741 72.1742 30.938C71.982 31.4019 71.7004 31.8233 71.3454 32.1784C70.9903 32.5334 70.5688 32.8151 70.105 33.0072C69.6411 33.1993 69.1439 33.2982 68.6418 33.2982C68.1397 33.2982 67.6425 33.1993 67.1786 33.0072C66.7147 32.8151 66.2933 32.5334 65.9382 32.1784C65.5832 31.8233 65.3015 31.4019 65.1094 30.938C64.9173 30.4741 64.8184 29.9769 64.8184 29.4748" stroke="#28B1FF" stroke-width="2"/>
</g>
<defs>
<clipPath id="clip0_30_1408">
<rect width="98" height="89" fill="white" transform="translate(0.5)"/>
</clipPath>
</defs>
</svg>
