<svg width="14" height="14" viewBox="0 0 14 14" fill="none" xmlns="http://www.w3.org/2000/svg">
<path d="M7.84766 4.56641H6.15234V6.20703H7.84766C8.29987 6.20703 8.66797 5.83893 8.66797 5.38672C8.66797 4.93451 8.29987 4.56641 7.84766 4.56641Z" fill="white"/>
<path d="M11.9492 0H2.05078C0.920035 0 0 0.920035 0 2.05078V11.9492C0 13.08 0.920035 14 2.05078 14H11.9492C13.08 14 14 13.08 14 11.9492V2.05078C14 0.920035 13.08 0 11.9492 0ZM7.84766 7.84766H6.15234V10.7188C6.15234 10.9453 5.9687 11.1289 5.74219 11.1289H4.92188C4.69536 11.1289 4.51172 10.9453 4.51172 10.7188V3.33594C4.51172 3.10942 4.69536 2.92578 4.92188 2.92578H7.84766C9.2047 2.92578 10.3086 4.02968 10.3086 5.38672C10.3086 6.74376 9.2047 7.84766 7.84766 7.84766Z" fill="white"/>
</svg>
