<svg width="320" height="127" viewBox="0 0 320 127" fill="none" xmlns="http://www.w3.org/2000/svg">
<path d="M212.831 109.047C192.186 113.559 169.982 117.395 146.773 120.329C30.5856 135.014 -66.7827 121.506 -70.7075 90.1584C-74.6323 58.811 16.3731 21.4931 132.56 6.80579C248.749 -7.88222 346.118 5.62596 350.043 36.9759C352.743 58.5574 310.453 82.9666 245.931 100.875M241.897 101.599C229.683 105.311 229.375 105.833 232.071 118.308C228.362 106.097 227.838 105.793 215.359 108.486C227.573 104.773 227.88 104.252 225.188 91.7726C228.9 103.986 229.422 104.294 241.897 101.599ZM145.237 63.4642C121.164 60.849 120.243 61.5258 115.653 85.3042C118.275 61.225 117.592 60.3038 93.8197 55.7139C117.886 58.3345 118.808 57.6515 123.404 33.8802C120.789 57.9539 121.465 58.8743 145.244 63.4651L145.237 63.4642Z" stroke="#1D1D1B" stroke-width="0.5" stroke-miterlimit="10"/>
</svg>
