<svg width="38" height="57" viewBox="0 0 38 57" fill="none" xmlns="http://www.w3.org/2000/svg">
<path fill-rule="evenodd" clip-rule="evenodd" d="M5.92136 0H31.5336L32.1878 0.353576C32.7643 0.662955 32.9861 0.88394 33.9174 2.14355C34.9375 3.50261 35.0151 3.59101 35.5917 3.78989C35.9797 3.93353 36.3678 4.17662 36.7004 4.50809C36.9998 4.80642 37.288 5.23734 37.41 5.56882C37.5652 5.99974 37.6207 6.55221 37.7094 10.2095L37.4211 10.5741C37.1993 10.8504 37.0441 10.9277 36.7448 10.9277C36.4454 10.9277 36.3013 10.8504 36.1349 10.6294C35.9243 10.3421 35.9021 10.1653 35.9132 8.29799C35.9132 6.81739 35.8688 6.20968 35.758 5.98869C35.6804 5.81191 35.4697 5.57987 35.2923 5.45833C34.9707 5.23734 34.7933 5.23734 18.8384 5.23734C2.88337 5.23734 2.70597 5.23734 2.38443 5.45833C2.20703 5.57987 1.99636 5.81191 1.91875 5.98869C1.7857 6.23178 1.76352 9.03829 1.76352 22.7725C1.77461 39.1917 1.77461 39.269 1.54177 39.5674C1.37546 39.7994 1.23132 39.8767 0.931958 39.8767C0.688032 39.8767 0.455193 39.7883 0.322143 39.6558C0.20018 39.5342 0.0671291 39.3243 0.0338665 39.1806C0.000603796 39.0481 0.000603797 31.5567 0.0227789 22.5294C0.0671291 6.85054 0.0782167 6.09919 0.266705 5.56882C0.388668 5.24839 0.688032 4.79537 0.987396 4.50809C1.32002 4.15452 1.68591 3.92248 2.08506 3.78989C2.66162 3.59101 2.71705 3.53576 3.53753 2.30929C4.0143 1.61319 4.51324 0.928137 4.65738 0.795546C4.80151 0.662955 5.14523 0.430921 5.42242 0.276231L5.92136 0ZM5.26719 2.72917L4.75716 3.46946C15.7117 3.51366 22.0316 3.51366 25.8568 3.49156L32.8198 3.46946C32.0325 2.35349 31.6445 1.94467 31.4449 1.83418C31.1123 1.65739 30.3029 1.64634 18.7275 1.64634C7.98364 1.65739 6.32051 1.67949 6.0655 1.82313C5.89918 1.91152 5.54438 2.32034 5.26719 2.72917Z" fill="#FFD521"/>
<path d="M32.3651 47.722C32.3761 46.5839 32.3983 46.4734 32.6422 46.2303C32.7864 46.0756 32.986 45.9541 33.0857 45.9541C33.1744 45.9541 33.374 46.0204 33.5292 46.0867C33.6845 46.164 33.8508 46.3408 33.9173 46.4734C33.9727 46.6171 34.0282 47.1916 34.0282 47.7551C34.0393 48.6059 33.9949 48.8159 33.8064 49.07C33.6401 49.302 33.496 49.3794 33.1966 49.3794C32.9527 49.3794 32.7199 49.291 32.5868 49.1584C32.3872 48.9595 32.3651 48.7938 32.3651 47.722Z" fill="#FFD521"/>
<path d="M28.7617 47.7218C28.7617 46.5064 28.7617 46.4843 29.0722 46.2191C29.2496 46.0755 29.4713 45.954 29.5711 45.954C29.6709 45.9429 29.8926 46.0424 30.059 46.1749C30.3694 46.3959 30.3694 46.407 30.3694 47.6666C30.3694 48.7936 30.3472 48.9594 30.1477 49.1582C30.0257 49.2798 29.7929 49.3792 29.6155 49.3792C29.4491 49.3903 29.1941 49.2908 29.0389 49.1693C28.7728 48.9704 28.7617 48.9041 28.7617 47.7218Z" fill="#FFD521"/>
<path fill-rule="evenodd" clip-rule="evenodd" d="M4.10308 40.6501H26.3225L26.8326 41.1474L26.8215 45.0146C26.8215 48.7382 26.8215 48.8929 26.378 49.3791H4.09199L3.87024 49.0697C3.64849 48.7824 3.6374 48.6167 3.6374 45.0036C3.62632 41.291 3.62632 41.2247 3.87024 40.9374L4.10308 40.6501ZM5.30054 47.7217H25.1473V42.3075H5.30054V47.7217Z" fill="#FFD521"/>
<path d="M7.3072 30.0759C7.3072 29.8659 7.3959 29.6229 7.52896 29.4903C7.75071 29.2693 7.89485 29.2693 22.8298 29.2693L23.0515 29.5676C23.1846 29.7444 23.2844 29.9433 23.2733 30.0096C23.2733 30.0869 23.2068 30.2748 23.1402 30.4295C23.0626 30.5841 22.8741 30.7609 22.7189 30.8162C22.5415 30.8935 19.814 30.9156 15.1128 30.9046L15.0332 30.9042C7.94896 30.8714 7.77202 30.8706 7.54004 30.6504C7.38482 30.5068 7.29612 30.2969 7.3072 30.0759Z" fill="#FFD521"/>
<path fill-rule="evenodd" clip-rule="evenodd" d="M33.5848 27.7227L33.8176 28.032C34.0283 28.3083 34.0394 28.4519 34.0061 30.3966C33.9729 32.2087 33.9507 32.4959 33.7733 32.6617C33.607 32.8385 33.3187 32.8606 29.427 32.9379L28.7617 32.3854V30.2861C28.7617 28.3856 28.7839 28.1646 28.9724 27.9547C29.172 27.7337 29.2828 27.7227 33.5848 27.7227ZM30.4249 31.2032L32.3652 31.2584V29.38H30.3583L30.4249 31.2032Z" fill="#FFD521"/>
<path d="M7.28535 22.9161C7.27426 22.6399 7.34079 22.4741 7.52928 22.3084C7.79538 22.0874 7.90625 22.0874 22.7192 22.0874L22.9964 22.3636C23.1516 22.5183 23.2736 22.7614 23.2736 22.9161C23.2736 23.0708 23.1516 23.3139 22.7303 23.7448H15.2684C7.93952 23.7448 7.80647 23.7448 7.56254 23.5238C7.39623 23.3912 7.29644 23.1592 7.28535 22.9161Z" fill="#FFD521"/>
<path d="M7.4957 15.2257C7.60658 15.1263 7.77289 15.0158 7.86159 14.9826C7.95029 14.9495 11.2876 14.9163 15.257 14.9163C20.8451 14.9053 22.5637 14.9384 22.7743 15.0489C22.9296 15.1152 23.0959 15.292 23.1624 15.4356C23.2179 15.5682 23.2733 15.745 23.2733 15.8224C23.2844 15.8887 23.1846 16.0875 22.8298 16.5627H15.2903C7.89485 16.5627 7.75071 16.5627 7.52896 16.3417C7.39591 16.2091 7.30721 15.966 7.30721 15.7671C7.29612 15.5572 7.38483 15.3251 7.4957 15.2257Z" fill="#FFD521"/>
<path fill-rule="evenodd" clip-rule="evenodd" d="M31.3231 13.3584C32.6425 13.3584 33.341 13.4026 33.5295 13.502C33.6847 13.5683 33.851 13.7451 33.9175 13.8888C33.9841 14.0435 34.0284 16.1981 34.0284 25.1811L33.7512 25.4573C33.4851 25.7336 33.474 25.7336 31.3674 25.7336C29.4049 25.7336 29.2497 25.7225 29.039 25.5126C28.9171 25.391 28.7951 25.1258 28.7507 24.927C28.7175 24.7391 28.7064 22.1647 28.7618 13.8888L29.0723 13.6236C29.3716 13.3694 29.4382 13.3584 31.3231 13.3584V13.3584ZM30.3473 19.6233L30.3695 24.0762H32.3653V15.0158C30.935 15.0158 30.4804 15.0489 30.425 15.0931C30.3695 15.1263 30.3363 17.1704 30.3473 19.6233Z" fill="#FFD521"/>
<path d="M3.62604 7.75651L3.86996 7.45818L4.1028 7.1709H26.3777L26.5994 7.42503C26.8212 7.66811 26.8212 7.77861 26.8212 22.9161C26.8212 38.0536 26.8212 38.164 26.3777 38.6613H4.09171L3.86996 38.3629C3.64821 38.0646 3.63713 37.9099 3.64821 27.2805L3.9254 27.0043C4.06954 26.8496 4.30238 26.7281 4.44652 26.7281C4.59065 26.717 4.83458 26.8165 5.31135 27.17V37.0039H25.1581V8.82829H5.31135V24.0763L5.01198 24.2972C4.83458 24.4298 4.59065 24.5293 4.4576 24.5182C4.31347 24.5182 4.08063 24.3967 3.64821 23.9658L3.62604 7.75651Z" fill="#FFD521"/>
<path fill-rule="evenodd" clip-rule="evenodd" d="M36.7225 13.1486C36.7669 13.1376 36.9221 13.1928 37.0774 13.2481C37.2326 13.3144 37.4322 13.5133 37.5209 13.6901C37.665 13.9773 37.6872 16.2203 37.6539 32.2307C37.6206 49.7217 37.6096 50.4509 37.41 50.9813C37.288 51.3017 36.9887 51.7437 36.7004 52.042C36.4232 52.3182 36.0019 52.6166 35.3588 52.8596V54.4065C35.3699 55.7987 35.3477 55.9866 34.9153 56.5611H32.7754C30.7242 56.5611 30.6355 56.5501 30.3916 56.307C30.1587 56.075 30.1365 55.9866 30.1476 53.0254H7.52902V54.5502C7.52902 55.9645 7.50685 56.075 7.27401 56.3181C7.04117 56.5611 6.97464 56.5722 2.76137 56.5611L2.53962 56.2628C2.32896 55.9866 2.30678 55.7987 2.31787 52.8596L1.90763 52.705C1.67479 52.6166 1.25346 52.3182 0.976276 52.042C0.688 51.7437 0.388636 51.3017 0.266673 50.9813C0.0781842 50.4951 0.0560091 50.02 0.0116589 46.7826C-0.0105162 44.7826 0.00057132 43.0258 0.033834 42.8932C0.0670967 42.7496 0.200147 42.5396 0.32211 42.4181C0.455161 42.2855 0.688 42.1971 0.931926 42.1971C1.23129 42.1971 1.37543 42.2745 1.54174 42.5065C1.76349 42.7938 1.77458 42.9485 1.76349 46.5395C1.76349 49.4786 1.79676 50.3294 1.91872 50.5724C1.99633 50.7382 2.20699 50.9702 2.3844 51.0918C2.70593 51.3128 2.88334 51.3128 18.8383 51.3128C34.7933 51.3128 34.9707 51.3128 35.2923 51.0918C35.4697 50.9702 35.6803 50.7382 35.7579 50.5724C35.891 50.3183 35.9132 47.2466 35.9132 32.0871C35.9132 17.7672 35.9464 13.8558 36.0462 13.6348C36.1238 13.4801 36.2901 13.3144 36.4121 13.2591C36.5341 13.2039 36.6671 13.1486 36.7115 13.1486H36.7225ZM3.99209 54.9038H5.87698V53.0254H3.99209V54.9038ZM31.8219 54.9038H33.7067V53.0254H31.8219V54.9038Z" fill="#FFD521"/>
</svg>
