<svg width="38" height="55" viewBox="0 0 38 55" fill="none" xmlns="http://www.w3.org/2000/svg">
<path fill-rule="evenodd" clip-rule="evenodd" d="M30.7842 0L31.3252 0.245736C31.6282 0.38463 32.061 0.683787 32.2882 0.918838C32.5262 1.14321 32.84 1.60263 33.2729 2.51078V37.9822L32.9915 38.5698C32.84 38.8904 32.5046 39.3605 32.2341 39.6169C31.9744 39.8733 31.5091 40.1618 31.1845 40.2793C30.6327 40.493 30.2864 40.493 2.5428 40.493L2.00178 40.2473C1.69881 40.1084 1.27681 39.8306 1.03876 39.6276C0.811533 39.4246 0.49774 39.0186 0.0541022 38.1959L0 2.51078L0.281331 1.92315C0.432818 1.60263 0.703329 1.17526 0.898097 0.982943C1.09286 0.779944 1.38502 0.544893 1.56896 0.448735C1.74209 0.352578 2.03424 0.213683 2.21819 0.138894C2.45624 0.0427367 6.11355 0.0106842 30.7842 0V0ZM2.3264 2.86336V37.6083L2.92152 38.1959C27.2134 38.2493 30.0916 38.228 30.3405 38.1211C30.5136 38.0463 30.7192 37.8861 30.8058 37.7685C30.9248 37.5869 30.9465 34.6381 30.9465 20.2786C30.9465 8.96402 30.914 2.91678 30.8383 2.77788C30.7733 2.66036 30.5786 2.48941 30.4054 2.40394C30.1241 2.26504 28.3604 2.24368 16.5553 2.24368H3.02972L2.3264 2.86336Z" fill="#FFD521"/>
<path fill-rule="evenodd" clip-rule="evenodd" d="M28.2415 31.7856L28.8367 32.3732V35.5998L28.2415 36.1126H25.5364C22.8746 36.1126 22.8313 36.1126 22.5716 35.8776C22.4093 35.7173 22.2903 35.4395 22.2362 35.0977C22.1929 34.8092 22.1713 34.104 22.1929 33.5484C22.2254 32.7685 22.2795 32.4587 22.4418 32.2343C22.55 32.0847 22.788 31.9031 22.9828 31.8497C23.1667 31.7856 24.4219 31.7535 28.2415 31.7856ZM19.3688 31.7856L19.9639 32.3732V33.9651C19.9639 35.525 19.9531 35.5678 19.4229 36.1233H14.0126L13.4175 35.5784V34.0079C13.4175 32.7258 13.45 32.3839 13.5907 32.1916C13.688 32.0527 13.9153 31.9031 14.0992 31.8497C14.294 31.7856 15.5492 31.7535 19.3688 31.7856ZM10.4094 31.7856L11.037 32.48V33.9758C11.037 35.4182 11.0262 35.4823 10.496 36.1126L5.03168 36.1233L4.42574 35.525L4.43656 33.9758C4.43656 32.7365 4.46902 32.3839 4.60968 32.1916C4.70707 32.0527 4.9343 31.9031 5.11825 31.8497C5.31301 31.7856 6.57901 31.7535 10.4094 31.7856ZM25.5581 25.2255C27.4516 25.2148 28.09 25.2469 28.3173 25.3644C28.4904 25.4392 28.6852 25.6315 28.7501 25.7917C28.8367 25.9627 28.8908 26.561 28.8908 27.4051C28.8908 28.3132 28.8475 28.8367 28.7393 29.029C28.6635 29.2 28.4579 29.3923 28.2848 29.4671C28.0468 29.5633 27.3218 29.5953 22.8313 29.5419L22.5392 29.2427C22.2362 28.9543 22.2362 28.9543 22.2362 27.4157C22.2362 26.0802 22.2578 25.8452 22.431 25.6422C22.5392 25.5033 22.7339 25.3644 22.8638 25.311C22.9936 25.2682 24.2055 25.2255 25.5581 25.2255ZM16.6853 25.2255C18.5789 25.2148 19.2173 25.2469 19.4445 25.3644C19.6176 25.4392 19.8124 25.6315 19.8773 25.7917C19.9639 25.9627 20.018 26.561 20.018 27.4051C20.018 28.3132 19.9747 28.8367 19.8665 29.0397C19.7908 29.2 19.5852 29.3923 19.4121 29.4671C19.174 29.5633 18.449 29.5953 13.9802 29.5419L13.6989 29.2748C13.4175 29.0077 13.4067 28.997 13.4067 27.4051C13.4067 25.8772 13.4283 25.7917 13.6556 25.5781C13.7962 25.4499 13.9802 25.3216 14.0668 25.2896C14.1533 25.2575 15.3327 25.2255 16.6853 25.2255ZM7.70433 25.2255C9.59791 25.2148 10.2363 25.2469 10.4635 25.3644C10.6367 25.4392 10.8314 25.6315 10.8964 25.7917C10.9829 25.9627 11.037 26.561 11.037 27.4051C11.037 28.3132 10.9937 28.8367 10.8855 29.0397C10.8098 29.2 10.6042 29.3923 10.4311 29.4671C10.193 29.5633 9.46806 29.5953 4.95594 29.5419L4.69625 29.2534C4.44738 28.9649 4.43656 28.8902 4.43656 27.4371C4.43656 26.2084 4.46902 25.8558 4.60968 25.6635C4.70707 25.5246 4.89102 25.3751 5.02086 25.3216C5.13989 25.2682 6.35178 25.2255 7.70433 25.2255ZM28.2415 18.6975L28.8367 19.2103V22.4369L28.2415 23.0245L25.8827 23.0566C24.4219 23.078 23.3615 23.0566 23.0694 22.9818C22.7772 22.907 22.55 22.7681 22.4201 22.5758C22.2903 22.3621 22.2254 21.9989 22.1929 21.2617C22.1713 20.7061 22.1929 20.0116 22.2362 19.7125C22.2903 19.3706 22.4093 19.0928 22.5716 18.9432C22.8205 18.6975 22.8638 18.6975 28.2415 18.6975ZM13.991 18.6975L19.4229 18.6868L19.6934 18.9752C19.9531 19.2423 19.9639 19.2851 19.9639 22.4369L19.3688 23.0245L17.1181 23.0566C15.8846 23.078 14.6619 23.0566 14.3914 23.0139C14.0992 22.9711 13.8071 22.8429 13.6556 22.6933C13.4283 22.4476 13.4175 22.3408 13.3851 19.2637L13.991 18.6975ZM5.01004 18.6975H10.5068L10.7773 19.018C11.0262 19.3171 11.0478 19.3919 11.0478 20.7809C11.0478 21.5715 10.9937 22.3301 10.9288 22.4583C10.8747 22.5972 10.7124 22.7681 10.5826 22.8643C10.3878 22.9925 9.86842 23.0245 8.12633 23.0566C6.90362 23.078 5.68091 23.0566 5.42122 23.0139C5.11825 22.9711 4.83691 22.8429 4.68543 22.6826C4.4582 22.4476 4.43656 22.3408 4.41492 19.253L5.01004 18.6975ZM26.889 4.32725L27.4733 4.64777C27.7871 4.82941 28.1982 5.16061 28.3714 5.39567C28.5445 5.63072 28.7284 6.01535 28.7934 6.2504C28.8691 6.52819 28.8908 8.13081 28.8691 10.6309C28.8367 14.4131 28.8258 14.6054 28.6094 15.0114C28.4796 15.2465 28.1658 15.6311 27.9061 15.8448C27.6464 16.0691 27.2569 16.3042 27.0513 16.3576C26.8241 16.4217 22.6798 16.4431 6.21111 16.4004L5.67009 16.0798C5.31301 15.8662 5.02086 15.567 4.42574 14.5841L4.49066 6.00466L4.82609 5.54525C4.99922 5.28882 5.34548 4.94693 5.58352 4.78667C5.81075 4.62641 6.22193 4.44478 6.49244 4.39135C6.76295 4.33793 11.4374 4.30588 26.889 4.32725ZM6.68721 10.4172C6.69803 13.099 6.74131 13.9751 6.8387 14.0819C6.9469 14.1887 8.98114 14.2208 16.6096 14.2208C24.357 14.2208 26.2614 14.1994 26.3696 14.0819C26.4778 13.9857 26.4994 13.0669 26.4778 10.3104L26.4562 6.67777C9.23001 6.63503 6.93608 6.6564 6.81706 6.75256C6.69803 6.8594 6.66557 7.50045 6.68721 10.4172Z" fill="#FFD521"/>
<path d="M35.5993 15.9303C35.7183 15.7273 35.9239 15.4923 36.0538 15.4175C36.2053 15.3213 36.4758 15.2893 36.7355 15.3213C37.006 15.3534 37.2657 15.4816 37.7093 15.9197V37.8115L37.4821 38.1107C37.3522 38.2709 37.0925 38.4526 36.887 38.506C36.6056 38.5701 36.4109 38.5487 36.0862 38.3991C35.7724 38.2496 35.621 38.1 35.5236 37.8222C35.4262 37.5444 35.3937 34.7772 35.3937 26.8709C35.3829 16.4859 35.3829 16.2829 35.5993 15.9303Z" fill="#FFD521"/>
<path d="M5.46419 51.711C5.33434 51.2302 5.30188 50.2473 5.30188 46.3475V41.561H7.57417L7.59581 46.2834C7.62828 50.4609 7.64992 51.0593 7.81222 51.337C7.90961 51.508 8.12602 51.7858 8.29914 51.946C8.46145 52.1063 8.73196 52.2879 8.89427 52.3414C9.08903 52.4161 10.539 52.4589 16.5551 52.4589V41.561H22.1818V52.4589H23.0474C23.5884 52.4589 24.0645 52.3948 24.3134 52.2879C24.5406 52.2025 24.822 52.0422 24.9302 51.946C25.0384 51.8499 25.2223 51.5721 25.3305 51.337C25.5145 50.9417 25.5361 50.5464 25.5361 41.561H27.9166L27.8841 46.4971C27.8625 51.1661 27.8517 51.4759 27.6461 51.9781C27.5271 52.2666 27.2457 52.7474 27.0401 53.0465C26.8237 53.335 26.3909 53.7517 26.0663 53.9654C25.7417 54.179 25.2331 54.4355 24.941 54.5316C24.4541 54.6919 23.556 54.7026 8.38571 54.6491L7.79058 54.382C7.46597 54.2325 6.95741 53.8906 6.66526 53.6341C6.38392 53.367 6.02685 52.961 5.88618 52.726C5.74552 52.4909 5.55075 52.0315 5.46419 51.711Z" fill="#FFD521"/>
</svg>
