<svg width="63" height="68" viewBox="0 0 63 68" fill="none" xmlns="http://www.w3.org/2000/svg">
<path fill-rule="evenodd" clip-rule="evenodd" d="M12.4109 18.8271C12.6125 18.8271 13.1097 18.9897 14.0638 19.3556C14.8096 19.6469 18.4581 21.0899 22.1739 22.5533C25.8896 24.0166 29.5045 25.4393 30.2033 25.7171C30.9021 25.9881 32.2056 26.503 33.0925 26.8553C34.5909 27.4447 34.7253 27.5124 34.994 27.797C35.1486 27.9663 35.2964 28.1899 35.3166 28.2915C35.3434 28.3999 35.3502 28.6506 35.33 28.8538C35.3098 29.1384 34.4095 31.5502 31.4127 39.3208C27.7642 48.7988 27.5156 49.4356 27.2535 49.7066C27.099 49.8624 26.8571 50.0521 26.7093 50.1266C26.5615 50.2011 26.3465 50.2621 26.239 50.2621C26.1314 50.2621 21.428 48.4803 15.7906 46.2989C10.1532 44.1174 5.18105 42.1866 4.73759 42.0104C4.18661 41.7936 3.84393 41.6175 3.66252 41.4481C3.5147 41.3126 3.35343 41.1162 3.3064 41.0078C3.24593 40.8858 3.22577 40.6487 3.23921 40.3709C3.26609 39.9848 3.72299 38.7585 7.14977 29.87C9.78369 23.0343 11.0939 19.7146 11.2417 19.5046C11.356 19.342 11.6046 19.1185 11.786 19.0168C12.0077 18.8881 12.2093 18.8271 12.4109 18.8271V18.8271ZM11.1342 26.9569C10.1129 29.6194 8.61455 33.5352 7.80153 35.6625C6.99523 37.7897 6.35019 39.5444 6.37035 39.5715C6.39722 39.5918 10.637 41.2449 15.7906 43.2367C20.9442 45.2284 25.2109 46.8815 25.2647 46.9018C25.3453 46.9357 26.0307 45.2217 28.7049 38.2911C30.5392 33.5284 32.051 29.5923 32.0645 29.5381C32.0779 29.4771 31.144 29.0774 28.9266 28.2034C27.1864 27.5124 25.1168 26.6994 24.324 26.381C23.5311 26.0694 20.7024 24.9515 18.0416 23.9015C15.3808 22.8514 13.1702 21.9842 13.1298 21.9639C13.0962 21.9503 13.0425 21.9774 13.0223 22.0248C13.0022 22.0723 12.1488 24.2944 11.1342 26.9569Z" fill="#FFD521"/>
<path fill-rule="evenodd" clip-rule="evenodd" d="M18.0282 4.33553C18.0551 4.32876 18.25 4.38296 18.4583 4.45748C18.6733 4.52523 23.4103 6.38152 28.9939 8.58332C34.5708 10.7783 39.3952 12.6821 39.711 12.804C40.1276 12.9666 40.3561 13.1021 40.5643 13.3189C40.7525 13.5086 40.8801 13.7118 40.9272 13.9015C40.9675 14.0573 40.9742 14.308 40.9541 14.457C40.9272 14.6061 40.0403 16.9366 38.9921 19.6398C37.9371 22.3429 37.0368 24.626 36.9897 24.7208C36.9427 24.8157 36.8285 24.9579 36.7411 25.0392C36.6605 25.1205 36.4724 25.2357 36.3313 25.2899C36.1969 25.3509 35.9751 25.3983 35.8475 25.3983C35.7131 25.3983 34.974 25.1476 34.0803 24.7954C33.2404 24.4634 30.2571 23.2846 27.4485 22.1803C24.6399 21.076 20.4068 19.4026 18.0417 18.4745C15.6765 17.5463 13.6809 16.7469 13.607 16.713C13.5331 16.6724 13.3718 16.5505 13.2509 16.4285C13.1232 16.3133 12.9754 16.1304 12.9216 16.0152C12.8679 15.9001 12.8209 15.6494 12.8209 15.4394C12.8276 15.1142 13.0695 14.4367 14.7157 10.2228C15.7571 7.56033 16.6642 5.26368 16.7381 5.12818C16.8053 4.98591 16.98 4.78944 17.1144 4.68782C17.2488 4.57942 17.4974 4.46425 17.6721 4.41683C17.8401 4.37618 17.9946 4.33553 18.0215 4.33553H18.0282ZM16.1267 14.7077C16.1469 14.728 20.427 16.4285 25.6411 18.4813C30.8484 20.534 35.1218 22.2074 35.1285 22.1938C35.1353 22.1871 35.7131 20.6424 36.4186 18.759C37.1174 16.8756 37.6684 15.3174 37.6482 15.2903C37.6213 15.2632 36.815 14.9313 35.8542 14.5587C34.8934 14.1793 32.4409 13.2105 30.4117 12.4111C28.3758 11.6049 26.1114 10.7174 25.3723 10.4261C24.6332 10.1347 22.8257 9.42339 21.3542 8.84076C19.8894 8.25813 18.6733 7.78389 18.6598 7.78389C18.6464 7.78389 18.0618 9.32854 17.363 11.2255C16.6575 13.1156 16.0998 14.6806 16.1267 14.7077Z" fill="#FFD521"/>
<path fill-rule="evenodd" clip-rule="evenodd" d="M60.6278 0.000175981C60.6547 -0.00659879 60.7891 0.183095 60.9369 0.420212C61.078 0.650554 61.4274 1.19931 62.2203 2.43232L61.0646 3.17077C60.4262 3.57048 57.5907 5.37257 54.762 7.17466C51.9332 8.96998 49.138 10.7517 48.54 11.1311C47.5657 11.7476 47.4448 11.8425 47.3574 12.0864C47.297 12.2354 45.4962 17.0252 43.3528 22.7228C41.2094 28.4204 37.8498 37.3563 35.8878 42.5729C33.9258 47.7894 32.3266 52.0576 32.3401 52.0643C32.3468 52.0643 32.5081 52.1253 32.6895 52.193C32.8776 52.2608 33.2808 52.4437 33.5966 52.6063C33.9124 52.7621 34.3894 53.0467 34.6582 53.2364C34.9202 53.4261 35.3906 53.8325 35.6862 54.1442C35.9886 54.449 36.3917 54.9436 36.5866 55.2417C36.7815 55.5398 37.0368 55.9734 37.151 56.2105C37.2652 56.4408 37.4467 56.8947 37.5609 57.2267C37.6684 57.5519 37.8028 58.0871 37.8632 58.4258C37.917 58.7646 37.964 59.3879 37.964 59.8147C37.964 60.2415 37.917 60.8648 37.8632 61.2035C37.8028 61.5422 37.6684 62.0774 37.5609 62.4094C37.4467 62.7346 37.2652 63.1885 37.151 63.4256C37.0301 63.656 36.7882 64.076 36.6 64.3538C36.4119 64.6315 35.9752 65.1532 35.619 65.5123C35.2629 65.8713 34.7455 66.3117 34.4701 66.5014C34.1946 66.6911 33.778 66.935 33.5495 67.0569C33.3144 67.1721 32.8642 67.355 32.5417 67.4702C32.2124 67.5786 31.6816 67.7141 31.3456 67.775C31.0164 67.8292 30.3915 67.8767 29.9682 67.8767C29.5449 67.8767 28.9267 67.8292 28.5908 67.775C28.2615 67.7141 27.7173 67.5718 27.3813 67.4634C27.0521 67.3482 26.5347 67.1314 26.2391 66.9756C25.9434 66.8198 25.4731 66.5217 25.1976 66.3117C24.9221 66.1017 24.4518 65.6749 24.1561 65.3632C23.8605 65.0516 23.4775 64.5841 23.3028 64.3199C23.1348 64.0557 22.8996 63.6492 22.7787 63.4053C22.6577 63.1614 22.4696 62.7075 22.3621 62.3891C22.2546 62.0707 22.1269 61.5558 22.0732 61.2374C22.0127 60.919 21.9724 60.255 21.9724 59.7672C21.9724 59.1304 22.0127 58.663 22.1135 58.1752C22.1874 57.789 22.3554 57.2132 22.483 56.888C22.6107 56.556 22.7048 56.2782 22.6981 56.2647C22.6846 56.2444 21.1795 55.6414 19.3519 54.9165C17.5243 54.1916 12.4715 52.1863 8.13088 50.4655C3.79029 48.7447 0.168658 47.3084 0.088028 47.2746C-0.066513 47.2136 -0.0597938 47.2068 0.457583 45.8925C0.739788 45.1676 1.00856 44.5714 1.04215 44.5714C1.08247 44.5714 2.68163 45.1947 4.60332 45.9603C6.525 46.719 9.83755 48.0333 11.9608 48.8734C14.0841 49.7203 17.746 51.1701 20.091 52.105C22.436 53.0331 24.3913 53.8122 24.4249 53.8258C24.4652 53.8461 24.7071 53.6835 24.9624 53.4803C25.2245 53.2702 25.6612 52.9721 25.9367 52.8096C26.2122 52.6537 26.6691 52.4302 26.9446 52.315C27.2201 52.1998 27.6904 52.044 27.9861 51.9695C28.2817 51.895 28.6983 51.8137 28.9133 51.7933C29.1821 51.7662 29.3164 51.7188 29.3568 51.6375C29.3904 51.5698 31.3725 46.3464 33.7645 40.0323C36.1566 33.7182 39.0861 25.9747 40.2821 22.8244C41.4714 19.6741 43.0437 15.5144 43.7761 13.5768C44.5085 11.6392 45.1401 10.0133 45.1804 9.97265C45.2207 9.92522 48.7013 7.66245 52.9142 4.94576C57.1271 2.22908 60.5942 0.000175981 60.6278 0.000175981ZM28.4564 54.8352C28.2347 54.8962 27.8114 55.0723 27.5157 55.2281C27.0991 55.4449 26.8304 55.655 26.3399 56.1563C25.8426 56.6508 25.6343 56.9218 25.4193 57.3419C25.2648 57.64 25.0699 58.1278 24.9893 58.4258C24.8684 58.8527 24.8348 59.1372 24.8348 59.7808C24.8348 60.3499 24.8751 60.736 24.9557 61.068C25.0229 61.3322 25.1707 61.7387 25.2782 61.9826C25.3857 62.2265 25.6075 62.6059 25.762 62.8294C25.9233 63.053 26.2458 63.4121 26.481 63.6356C26.7161 63.8524 27.1058 64.1505 27.3477 64.2928C27.5896 64.4351 28.0129 64.6248 28.2884 64.7196C28.5639 64.8077 29.0477 64.9229 29.3635 64.9635C29.7935 65.0245 30.0824 65.0245 30.5393 64.9635C30.8753 64.9229 31.3725 64.8077 31.648 64.7196C31.9235 64.6248 32.367 64.4215 32.6223 64.2657C32.8843 64.1099 33.2875 63.7982 33.5227 63.5747C33.7578 63.3511 34.0871 62.9582 34.255 62.694C34.4297 62.4365 34.6515 61.9961 34.7523 61.7319C34.8531 61.4609 34.9874 60.9393 35.0546 60.5802C35.142 60.0247 35.1487 59.8079 35.0882 59.2727C35.0479 58.9204 34.927 58.3852 34.8262 58.0871C34.7254 57.789 34.5305 57.3622 34.4029 57.1386C34.2752 56.9151 33.8989 56.4612 33.563 56.1224C33.1128 55.6685 32.8239 55.4382 32.4207 55.2281C32.1251 55.0723 31.6547 54.8826 31.3792 54.8013C31.0702 54.7133 30.6065 54.6523 30.1698 54.632C29.7801 54.6184 29.3299 54.632 29.1619 54.6591C28.9939 54.6929 28.6781 54.7675 28.4564 54.8352Z" fill="#FFD521"/>
</svg>
