<svg width="29" height="57" viewBox="0 0 29 57" fill="none" xmlns="http://www.w3.org/2000/svg">
<path fill-rule="evenodd" clip-rule="evenodd" d="M14.1472 0C20.8061 0 24.3355 0.0331429 24.3697 0.110476C24.404 0.165714 24.5982 0.254096 24.8038 0.298286C24.9979 0.331429 25.3977 0.497143 25.6832 0.65181C25.9688 0.806477 26.4599 1.1821 26.7797 1.49143C27.0996 1.78972 27.4993 2.30895 27.6592 2.62934C27.8306 2.93867 28.0476 3.52419 28.1389 3.92191C28.2874 4.55162 28.3103 7.71125 28.2532 54.045L27.9333 54.3102C27.6478 54.5532 27.5336 54.5753 25.2264 54.5753V56.5639H23.1704V54.5753H5.12393V56.5639H3.068V54.5753H1.86871C0.760789 54.5753 0.64657 54.5532 0.0412129 54.045L0.00694734 29.4751C-0.0158963 12.6495 0.0183692 4.69524 0.0983221 4.1981C0.166853 3.80039 0.372446 3.17067 0.555196 2.79505C0.749367 2.39734 1.16055 1.84495 1.49179 1.51353C1.82302 1.19314 2.32558 0.806477 2.61113 0.65181C2.89667 0.497143 3.28502 0.331429 3.47919 0.287238C3.66194 0.243048 3.86753 0.154667 3.91322 0.0994287C3.9589 0.0441905 8.08219 0 14.1472 0V0ZM3.81042 2.24267C3.49061 2.38629 3.04516 2.71772 2.8053 2.99391C2.56544 3.25905 2.30274 3.7341 2.19994 4.03239C2.0743 4.46324 2.04004 5.28077 2.04004 7.65601V10.7162H6.03768V5.85525H8.09361V10.7162H26.2543C26.2543 5.28077 26.2201 4.46324 26.0944 4.03239C25.9916 3.7341 25.7289 3.25905 25.4891 2.99391C25.2492 2.71772 24.8038 2.38629 24.484 2.24267L23.9129 1.98857H4.38151L3.81042 2.24267ZM2.04004 20.4381H9.12158V13.6991H11.1775V20.4381H17.1169C15.4379 15.5993 14.9467 14.141 14.9467 14.0857C14.9467 14.0194 15.2894 13.8648 15.712 13.7212C16.146 13.5886 16.5686 13.4781 16.66 13.4781C16.7856 13.4781 17.1626 14.4393 18.0306 16.9581L19.2299 20.4492L26.2543 20.4381V12.7048H2.04004V20.4381ZM2.04004 31.1543H5.12393V24.4153H7.06564V31.1543H8.09361V26.2934L10.0924 26.3486L10.1495 31.1543H19.1728V26.2934H21.2287V31.1543H22.2567V26.2934H24.1984V31.1543H26.2543V22.4267H2.04004V31.1543ZM2.04004 41.981L5.06682 41.9258L5.12393 35.1315H7.06564L7.12275 41.9258L8.09361 41.981V35.1315H10.1495V41.981H26.2543V33.1429H2.04004V41.981ZM2.04004 52.6972H26.2543V43.8591H2.04004V52.6972Z" fill="#FFD521"/>
<path d="M20.2005 51.703V48.2783V44.8535H22.2564V51.703H20.2005Z" fill="#FFD521"/>
</svg>
