<svg width="53" height="51" viewBox="0 0 53 51" fill="none" xmlns="http://www.w3.org/2000/svg">
<path fill-rule="evenodd" clip-rule="evenodd" d="M26.8544 0.0043582C27.657 0.0097717 29.0631 0.0422527 29.9789 0.0747337C30.8946 0.101801 32.0152 0.166763 32.4569 0.210071C32.904 0.253379 33.6636 0.339995 34.1538 0.399544C34.644 0.459092 35.5167 0.583603 36.0931 0.670219C36.6696 0.762248 37.7416 0.951721 38.4796 1.1033C39.2122 1.24946 40.3274 1.49848 40.9576 1.66089C41.5825 1.82329 42.536 2.09397 43.0694 2.26179C43.6027 2.42961 44.3784 2.70028 44.7932 2.85727C45.208 3.01426 45.9137 3.30659 46.3554 3.50148C46.8026 3.69636 47.4813 4.032 47.8638 4.24313C48.2463 4.45425 48.8335 4.80613 49.1567 5.02809C49.4799 5.24463 49.9432 5.58026 50.1802 5.76973C50.4173 5.96462 50.8428 6.35981 51.1284 6.65214C51.4139 6.94988 51.7802 7.39378 51.9472 7.64822C52.1088 7.90265 52.3135 8.25453 52.3889 8.43318C52.4697 8.61182 52.5882 8.94205 52.6475 9.164C52.7606 9.55918 52.7606 9.6837 52.7929 18.9354L52.5182 19.5038C52.3728 19.8178 52.1088 20.2779 51.9418 20.5323C51.7748 20.7868 51.3923 21.2361 51.096 21.5393C50.7997 21.837 50.3634 22.2268 50.1264 22.4054C49.8893 22.5841 49.5122 22.8547 49.2914 23.0063C49.0705 23.1579 48.5695 23.4556 48.187 23.6722C47.8046 23.8887 47.1473 24.2244 46.7325 24.4192C46.3177 24.6087 45.7359 24.8631 45.4396 24.9822C45.1434 25.1013 44.5993 25.3071 44.2276 25.4424C43.8559 25.5723 43.1555 25.8051 42.6653 25.9513C42.1751 26.1028 41.3509 26.3302 40.8337 26.4601C40.3166 26.5901 39.5408 26.7741 39.1099 26.8661C38.6789 26.9582 37.8439 27.1152 37.2514 27.218C36.6588 27.3209 35.7376 27.467 35.2043 27.5374C34.671 27.6132 33.809 27.7269 33.2919 27.7918C32.7747 27.8514 31.9397 27.9164 31.4334 27.9326C30.8569 27.9488 30.4798 27.9867 30.4098 28.0246C30.3506 28.0625 30.2644 28.1979 30.2213 28.3332C30.1566 28.5335 30.1405 29.5567 30.1081 41.4014L30.4745 41.4718C30.6738 41.5097 31.2286 41.6342 31.7027 41.7533C32.1768 41.8669 32.9417 42.0835 33.3996 42.2351C33.8575 42.3866 34.5363 42.6627 34.908 42.8414C35.2797 43.02 35.7484 43.2907 35.9585 43.4314C36.1686 43.5776 36.4918 43.8483 36.6803 44.0378C36.8689 44.2272 37.1167 44.525 37.2352 44.7036C37.3483 44.8823 37.4884 45.1475 37.5423 45.2991C37.5961 45.4453 37.6608 45.6889 37.6823 45.8405C37.6985 45.9866 37.6931 46.2573 37.6608 46.4359C37.6284 46.6146 37.5153 46.9286 37.413 47.1397C37.3106 47.3508 37.1113 47.654 36.9658 47.8164C36.8204 47.9788 36.5241 48.2495 36.3032 48.4173C36.0824 48.5851 35.7107 48.8341 35.4736 48.9695C35.2366 49.1048 34.8272 49.3159 34.5578 49.4296C34.2885 49.5487 33.7821 49.7436 33.4266 49.8627C33.071 49.9818 32.4784 50.155 32.1067 50.247C31.735 50.3391 31.0832 50.4744 30.6522 50.5448C30.2213 50.6206 29.6664 50.7072 29.4132 50.7343C29.16 50.7667 28.6752 50.8155 28.3358 50.8479C27.9964 50.8804 27.1237 50.9075 26.3965 50.9075C25.6692 50.9075 24.775 50.8804 24.4033 50.8479C24.0316 50.8155 23.3636 50.7397 22.9218 50.6801C22.4747 50.6206 21.7744 50.5015 21.3596 50.4149C20.9448 50.3282 20.3145 50.1713 19.959 50.0684C19.6034 49.9655 19.0701 49.7923 18.7738 49.684C18.4775 49.5704 18.0142 49.3701 17.7503 49.2347C17.4863 49.1048 17.0446 48.8449 16.7806 48.6609C16.5167 48.4822 16.1126 48.1466 15.8918 47.9247C15.6224 47.654 15.4285 47.3995 15.3153 47.1668C15.213 46.9665 15.116 46.6525 15.0837 46.4359C15.0406 46.1544 15.0406 45.965 15.0891 45.7051C15.1214 45.5102 15.1968 45.245 15.2561 45.1096C15.3153 44.9743 15.4392 44.7578 15.5308 44.6224C15.6224 44.4871 15.8487 44.2326 16.0318 44.054C16.215 43.8754 16.5382 43.6101 16.7591 43.4585C16.9799 43.3124 17.3786 43.0742 17.6425 42.9334C17.9065 42.7927 18.4183 42.5653 18.7738 42.43C19.1294 42.2946 19.6735 42.1106 19.9859 42.0239C20.2984 41.9319 20.9879 41.7641 22.4909 41.4447L22.5286 36.8216C22.5501 34.2772 22.5663 31.2727 22.5447 28.0896L22.3023 28.0463C22.1677 28.0246 21.4512 27.9543 20.7132 27.8947C19.9697 27.8352 18.8708 27.7215 18.2621 27.6457C17.6533 27.5699 16.7214 27.4346 16.188 27.3479C15.6547 27.2613 14.8413 27.1152 14.3834 27.0231C13.9255 26.9311 13.042 26.7362 12.4171 26.5901C11.7922 26.4439 10.898 26.2111 10.4239 26.0758C9.94985 25.935 9.14719 25.686 8.64619 25.5128C8.1452 25.3395 7.40179 25.058 7.00315 24.8902C6.60451 24.7224 5.985 24.4409 5.62945 24.2677C5.27391 24.0944 4.71366 23.7967 4.39043 23.6072C4.06721 23.4177 3.60393 23.1308 3.3669 22.9738C3.12987 22.8114 2.72045 22.5083 2.4511 22.2917C2.18175 22.0806 1.7885 21.7233 1.56763 21.5014C1.34676 21.2794 1.02892 20.9167 0.867313 20.6948C0.700315 20.4728 0.43635 20.0397 0 19.179V9.0828L0.317835 8.43318C0.49022 8.07588 0.775733 7.58867 0.953505 7.35048C1.13128 7.11228 1.54608 6.66296 1.8693 6.34898C2.19252 6.035 2.65042 5.63981 2.88745 5.47199C3.11909 5.30417 3.56622 5.00643 3.87867 4.81155C4.19111 4.61125 4.79446 4.2702 5.22542 4.05366C5.65639 3.8317 6.33515 3.51231 6.73379 3.34449C7.13244 3.17126 7.8112 2.90058 8.24216 2.74359C8.67313 2.5866 9.3896 2.3484 9.83134 2.20765C10.2785 2.07231 11.1458 1.82329 11.7707 1.6663C12.3956 1.5039 13.3168 1.28736 13.8177 1.17909C14.3241 1.07082 15.2938 0.886759 15.9726 0.773075C16.6513 0.659392 17.6964 0.5024 18.289 0.426611C18.8816 0.350822 19.9105 0.237139 20.5785 0.172177C21.3811 0.0963877 22.3993 0.0422527 23.5952 0.0205987C24.5864 0.0043582 26.0517 -0.0064688 26.8544 0.0043582ZM19.0162 2.50539C18.2028 2.59742 17.1954 2.72193 16.7806 2.78148C16.3658 2.83562 15.6601 2.9493 15.2184 3.02509C14.7713 3.09547 14.0602 3.2308 13.6292 3.31742C13.1982 3.40404 12.4602 3.57185 11.9862 3.69095C11.5121 3.81005 10.7256 4.02659 10.2354 4.17817C9.74515 4.32433 9.08254 4.54628 8.75393 4.65997C8.42532 4.77906 7.88123 4.99019 7.54185 5.13094C7.20247 5.27169 6.62067 5.53695 6.24896 5.72101C5.87726 5.91049 5.3601 6.1974 5.09075 6.35981C4.8214 6.52762 4.39043 6.83078 4.12108 7.03649C3.85173 7.24762 3.4477 7.62115 3.21067 7.87017C2.97903 8.11919 2.69352 8.4819 2.58039 8.67678C2.46726 8.87167 2.32181 9.17483 2.26256 9.35347C2.19791 9.53212 2.13327 9.85151 2.11711 10.0572C2.10094 10.3117 2.11711 10.5607 2.17636 10.8151C2.23023 11.0208 2.34875 11.3673 2.4511 11.573C2.55345 11.7787 2.79048 12.1468 2.98442 12.385C3.17296 12.6232 3.51773 12.9751 3.74399 13.17C3.97025 13.3649 4.4066 13.6843 4.70288 13.89C5.00456 14.0903 5.62945 14.4476 6.08735 14.6804C6.54525 14.9185 7.32098 15.265 7.8112 15.4599C8.30142 15.6548 9.08793 15.9363 9.56199 16.0933C10.036 16.2449 10.8872 16.4885 11.4475 16.6346C12.0077 16.7808 12.8104 16.9757 13.2252 17.0677C13.64 17.1543 14.3672 17.3005 14.8413 17.3871C15.3153 17.4791 16.2096 17.6199 16.8345 17.7119C17.4594 17.7985 18.4129 17.923 18.9624 17.9826C19.5118 18.0421 20.4546 18.1288 21.0633 18.1775C21.672 18.2208 22.6902 18.2803 23.3259 18.3128C23.9615 18.3399 25.3083 18.3669 26.3157 18.3669C27.323 18.3669 28.6914 18.3399 29.3593 18.3128C30.0273 18.2803 31.0455 18.2208 31.6219 18.1775C32.1983 18.1288 33.1303 18.0476 33.6959 17.9826C34.2615 17.923 35.145 17.8148 35.6622 17.7444C36.1793 17.6686 37.0305 17.5333 37.5476 17.4467C38.0648 17.3546 38.9483 17.1814 39.5139 17.0569C40.0795 16.9378 40.9738 16.7212 41.5071 16.5751C42.0404 16.4343 42.8754 16.1853 43.3656 16.0229C43.8559 15.8605 44.5562 15.6061 44.9279 15.4545C45.2996 15.3083 45.8922 15.0485 46.2477 14.8752C46.6032 14.7074 47.1743 14.4043 47.5137 14.1986C47.853 13.9983 48.3271 13.6843 48.5641 13.5056C48.8012 13.327 49.1998 12.9643 49.453 12.699C49.7062 12.4338 49.9917 12.0819 50.0833 11.9195C50.1802 11.7571 50.3203 11.481 50.3957 11.3023C50.4658 11.1237 50.5519 10.8314 50.5897 10.6527C50.622 10.4741 50.6381 10.1709 50.622 9.97602C50.6058 9.78114 50.5412 9.47798 50.4765 9.29934C50.4065 9.12069 50.2287 8.77964 50.0725 8.54145C49.9055 8.29243 49.5661 7.89183 49.2591 7.59408C48.952 7.29634 48.4618 6.90116 48.1062 6.66296C47.7668 6.4356 47.185 6.08913 46.8133 5.89425C46.4416 5.69936 45.8598 5.42327 45.5205 5.27711C45.1811 5.13094 44.5993 4.89816 44.2276 4.76282C43.8559 4.62749 43.1879 4.40553 42.7461 4.26478C42.299 4.12944 41.464 3.89666 40.8876 3.7505C40.3112 3.60434 39.4277 3.39862 38.9213 3.29577C38.415 3.19291 37.483 3.01968 36.8473 2.91682C36.2117 2.80855 35.2312 2.66239 34.6656 2.59201C34.0999 2.51622 33.2649 2.42961 32.807 2.40254C32.3492 2.37006 31.3041 2.32134 30.4906 2.28885C29.6772 2.25637 27.4577 2.22389 25.5615 2.20765C22.8518 2.19141 21.9414 2.20224 21.3057 2.26179C20.8586 2.3051 19.8297 2.41337 19.0162 2.50539ZM50.2341 14.7291C49.9971 14.9023 49.5877 15.1892 49.3183 15.3733C49.049 15.5519 48.5156 15.8767 48.1332 16.0933C47.7507 16.3098 47.1042 16.64 46.7056 16.8241C46.307 17.0082 45.6875 17.2788 45.3319 17.4196C44.9764 17.5603 44.2976 17.8094 43.8235 17.9718C43.3495 18.1288 42.633 18.3561 42.2344 18.4752C41.8357 18.5889 41.0708 18.7946 40.5374 18.93C40.0041 19.0599 39.1422 19.2548 38.625 19.3576C38.1079 19.4659 37.2352 19.6229 36.6857 19.7149C36.1362 19.8069 35.2151 19.9423 34.6386 20.0127C34.0622 20.0884 33.0549 20.1967 32.403 20.2563C31.7512 20.3158 30.76 20.397 30.1943 20.4349C29.5641 20.4782 28.0611 20.5053 26.2887 20.4999C24.1124 20.4999 23.0834 20.4782 22.0868 20.4078C21.3596 20.3537 20.293 20.2617 19.7166 20.2021C19.1401 20.1426 18.219 20.0343 17.6695 19.9585C17.12 19.8881 16.2473 19.7528 15.7301 19.6608C15.213 19.5687 14.3995 19.4172 13.9255 19.3143C13.4514 19.2115 12.7134 19.049 12.2824 18.9408C11.8515 18.8379 11.038 18.6214 10.4778 18.4536C9.91753 18.2912 9.07716 18.0259 8.61926 17.8635C8.16136 17.7011 7.55262 17.4791 7.2725 17.3654C6.99237 17.2518 6.46983 17.0298 6.11429 16.8674C5.75874 16.7104 5.18772 16.4235 4.84833 16.2394C4.50895 16.0554 3.74938 15.5844 3.16219 15.1892C2.58039 14.794 2.08478 14.4855 2.05785 14.5017C2.0363 14.5179 2.02553 15.2542 2.0363 16.1366C2.04169 17.019 2.07401 17.9393 2.10633 18.1775C2.13865 18.4265 2.22485 18.7459 2.31104 18.9354C2.39184 19.114 2.53729 19.3793 2.63965 19.5308C2.742 19.677 2.93055 19.9314 3.06522 20.0884C3.1999 20.2508 3.51773 20.5486 3.77093 20.7651C4.02412 20.9763 4.48201 21.3173 4.79446 21.5176C5.10691 21.7233 5.73719 22.0806 6.19509 22.3134C6.65299 22.5408 7.35869 22.8602 7.75733 23.0226C8.15597 23.1795 8.79703 23.4177 9.1849 23.5477C9.57276 23.6776 10.2246 23.8833 10.6394 24.0024C11.0542 24.1269 11.7814 24.3164 12.2555 24.4301C12.7296 24.5492 13.4838 24.717 13.9255 24.809C14.3672 24.901 15.2291 25.058 15.8379 25.1609C16.4466 25.2583 17.4378 25.4045 18.0466 25.4803C18.6553 25.5561 19.5765 25.6535 20.0936 25.6968C20.6108 25.7455 21.5805 25.8105 22.2485 25.8484C22.9326 25.8863 24.7427 25.9134 26.3965 25.9134C28.088 25.9134 29.8334 25.8863 30.5176 25.8484C31.1694 25.8105 32.1283 25.7401 32.6454 25.6968C33.1626 25.6535 33.976 25.5723 34.4501 25.5128C34.9242 25.4532 35.7969 25.3287 36.3894 25.2367C36.982 25.1446 37.9517 24.9714 38.5442 24.8523C39.1368 24.7386 40.1442 24.5059 40.7799 24.3435C41.4155 24.1865 42.2775 23.9483 42.6923 23.8183C43.1071 23.6884 43.6996 23.4881 44.0121 23.3744C44.3245 23.2662 44.8686 23.0496 45.2242 22.9035C45.5797 22.7519 46.1884 22.4704 46.5709 22.2809C46.9534 22.086 47.5029 21.7775 47.783 21.5988C48.0631 21.4256 48.4887 21.1278 48.7257 20.9384C48.9628 20.7543 49.3399 20.4078 49.5607 20.1751C49.787 19.9369 50.0617 19.6121 50.1695 19.4496C50.2826 19.2872 50.4227 18.9949 50.4819 18.8C50.5519 18.5672 50.6112 18.1666 50.6435 17.6361C50.6705 17.1868 50.6866 16.2827 50.6812 15.6169L50.6651 14.4097L50.2341 14.7291ZM24.7804 44.46C27.2207 44.4113 27.9372 44.3951 27.9426 44.3896C27.9426 44.3842 27.9641 40.7464 27.9803 36.3019L28.0126 28.2195H24.7804V44.46ZM20.7132 44.0053C20.2984 44.1027 19.765 44.2489 19.528 44.3247C19.291 44.4059 18.8223 44.6008 18.4883 44.7632C18.052 44.9743 17.8042 45.1367 17.5941 45.3424C17.4163 45.5156 17.2816 45.7105 17.2385 45.8405C17.1793 46.0245 17.1793 46.0949 17.2547 46.3006C17.3139 46.4738 17.4378 46.6362 17.6803 46.8582C17.9065 47.0639 18.2028 47.2588 18.5583 47.4374C18.8546 47.5836 19.3179 47.7785 19.5819 47.8705C19.8458 47.968 20.3091 48.0979 20.6054 48.1683C20.9017 48.2386 21.462 48.3469 21.8444 48.4065C22.2269 48.4714 22.8949 48.558 23.3259 48.6013C23.7568 48.6446 24.6511 48.7096 25.3191 48.7421C25.9871 48.7746 26.919 48.7854 27.3931 48.7637C27.8671 48.7475 28.6159 48.6988 29.0631 48.6555C29.5048 48.6068 30.232 48.5147 30.6792 48.4389C31.1209 48.3631 31.7673 48.2278 32.1067 48.1412C32.4461 48.0546 32.9794 47.8976 33.2919 47.7893C33.6043 47.681 34.003 47.5186 34.1807 47.4266C34.3585 47.34 34.6494 47.1613 34.8272 47.0368C35.005 46.9069 35.2151 46.712 35.3012 46.5929C35.382 46.4792 35.4629 46.2844 35.479 46.1653C35.506 46.0083 35.4844 45.8892 35.3982 45.7214C35.339 45.5968 35.172 45.402 35.0265 45.2883C34.8864 45.1746 34.5578 44.9689 34.2885 44.8335C34.0191 44.6928 33.5612 44.4925 33.2649 44.3788C32.9687 44.2705 32.4084 44.0973 32.0259 43.9999C31.6434 43.9024 31.0724 43.7942 30.76 43.7617C30.4475 43.7238 30.1889 43.7075 30.1782 43.713C30.1728 43.7238 30.1405 44.0973 30.1135 44.5412C30.0866 44.9905 30.0381 45.5156 30.0058 45.7051C29.9735 45.9 29.9034 46.1382 29.8442 46.2356C29.7741 46.3493 29.6664 46.4359 29.5317 46.4738C29.3917 46.5171 28.4112 46.5442 26.2349 46.555L23.1373 46.5713C22.7818 46.122 22.6633 45.9054 22.6309 45.7593C22.5986 45.6293 22.5717 45.1638 22.5663 44.7307C22.5663 44.303 22.5447 43.8862 22.5232 43.8104C22.4963 43.7184 22.4424 43.6751 22.3562 43.6642C22.2808 43.6588 22.0545 43.6913 21.8444 43.7346C21.6343 43.7833 21.128 43.9024 20.7132 44.0053Z" fill="#FFD521"/>
<path d="M19.2049 7.13423C19.6466 6.86897 20.3146 6.48461 20.6863 6.2789C21.3058 5.94326 21.3812 5.91078 21.6021 5.93785C21.7368 5.95409 21.9361 6.02988 22.0438 6.10567C22.157 6.18146 22.3132 6.33304 22.394 6.44131C22.4748 6.55499 22.5502 6.74446 22.5664 6.86356C22.5772 6.98266 22.5556 7.1613 22.5125 7.26416C22.4694 7.36701 22.3132 7.55649 22.1677 7.69182C22.0223 7.82175 21.5806 8.14114 21.1981 8.40099C20.8156 8.66625 19.8298 9.28881 19.0163 9.79767C18.2029 10.3011 16.7214 11.2052 15.7302 11.8007C14.739 12.3962 13.6454 13.0404 13.3061 13.2352C12.9667 13.4301 12.5411 13.6629 12.3633 13.7495C12.1856 13.8416 11.9755 13.9282 11.8893 13.9498C11.8085 13.9661 11.6307 13.9552 11.4852 13.9228C11.3452 13.8903 11.1674 13.8199 11.0812 13.7604C11.0004 13.7062 10.8819 13.5546 10.8226 13.4247C10.7364 13.2515 10.7095 13.127 10.7257 12.8888C10.7418 12.6235 10.7742 12.5531 10.9358 12.3853C11.0381 12.2771 11.5391 11.9089 12.0401 11.5787C12.5411 11.2431 13.5 10.6259 14.168 10.2091C14.836 9.79226 16.0588 9.03978 16.8884 8.53092C17.718 8.02205 18.7577 7.39408 19.2049 7.13423Z" fill="#FFD521"/>
<path d="M12.9828 6.18687C14.0333 5.55349 14.9922 4.99049 15.1107 4.93635C15.2292 4.88222 15.4393 4.8335 15.5794 4.8335C15.7302 4.8335 15.9242 4.8768 16.0373 4.93635C16.1504 4.99049 16.2851 5.08252 16.3336 5.13665C16.3821 5.1962 16.4736 5.34778 16.5329 5.48312C16.5922 5.61845 16.646 5.82417 16.646 5.94326C16.646 6.10567 16.6029 6.21935 16.4736 6.398C16.3551 6.5604 16.0535 6.79318 15.5417 7.13423C15.1269 7.40491 14.2811 7.94626 13.6562 8.3252C13.0313 8.70956 12.0617 9.28339 11.5014 9.6082C10.9412 9.9276 10.4078 10.2091 10.3163 10.2253C10.2247 10.2416 10.0577 10.2308 9.93917 10.1983C9.82065 10.1658 9.62672 10.0629 9.51359 9.96549C9.39507 9.86805 9.25501 9.6894 9.20114 9.57031C9.15266 9.45121 9.10417 9.2455 9.10417 9.11016C9.09879 8.89903 9.13111 8.83407 9.33043 8.60129C9.47049 8.4443 9.86913 8.13032 10.3163 7.83799C10.7311 7.5619 11.9324 6.82025 12.9828 6.18687Z" fill="#FFD521"/>
</svg>
