<svg width="63" height="40" viewBox="0 0 63 40" fill="none" xmlns="http://www.w3.org/2000/svg">
<path fill-rule="evenodd" clip-rule="evenodd" d="M30.634 0.00694184C32.1006 0.0196772 32.9387 0.0578831 33.4275 0.127927C33.8085 0.185236 34.4243 0.306222 34.7926 0.389002C35.1608 0.478149 35.7449 0.643708 36.0941 0.745591C36.4433 0.853841 37.1163 1.10218 37.5861 1.29321C38.056 1.48424 38.7988 1.82173 39.2369 2.05096C39.675 2.2802 40.4305 2.7323 40.9194 3.05705C41.4083 3.38817 42.0495 3.84664 42.3479 4.08861C42.6463 4.32422 43.2431 4.86547 43.6748 5.2921C44.1066 5.71237 44.6843 6.33003 44.9637 6.66115C45.2431 6.99227 45.6684 7.53989 45.9033 7.87101C46.1383 8.20213 46.5002 8.74975 46.697 9.08086C46.9001 9.41198 47.2874 10.1443 47.5604 10.7046C47.8271 11.265 48.1509 11.9973 48.2715 12.3284C48.3985 12.6595 48.6017 13.2772 48.7287 13.6974C48.8556 14.1177 49.0271 14.8054 49.1096 15.2257C49.1921 15.6459 49.2937 16.3527 49.3255 16.8048C49.3636 17.2506 49.3953 18.1357 49.3953 18.7788C49.3953 19.4156 49.3636 20.2688 49.3318 20.67C49.3001 21.0712 49.2366 21.5997 49.1985 21.848C49.1604 22.0964 49.0207 22.7268 48.8874 23.2489C48.7541 23.7774 48.5318 24.5161 48.3922 24.9045C48.2525 25.2929 48.0366 25.8469 47.9096 26.1462C47.7763 26.4455 47.5033 27.0186 47.2938 27.4197C47.0779 27.8209 46.6716 28.5086 46.3859 28.948C46.0938 29.3873 45.6557 30.005 45.4145 30.317C45.1669 30.629 44.7288 31.1512 44.4367 31.4696C44.1447 31.7816 43.6304 32.2974 43.3003 32.6094C42.9701 32.9214 42.4431 33.3735 42.1257 33.6155C41.8082 33.8638 41.2241 34.2777 40.8241 34.5452C40.4178 34.8126 39.694 35.2329 39.2051 35.4876C38.7163 35.7359 38.0623 36.0479 37.7449 36.1816C37.4274 36.309 36.8433 36.5255 36.4433 36.6656C36.0433 36.7993 35.3703 36.9967 34.9513 37.105C34.5323 37.2132 33.9164 37.3406 33.5863 37.3979C33.1926 37.4615 32.3419 37.5061 31.1419 37.5252C29.9737 37.5443 29.0086 37.5316 28.5071 37.487C28.069 37.4424 27.4277 37.3533 27.0785 37.2769C26.7293 37.2068 26.0564 37.0349 25.5865 36.8948C25.1167 36.7547 24.3993 36.5128 23.9993 36.3536C23.5993 36.1944 22.9263 35.8951 22.5073 35.6913C22.0882 35.4876 21.4343 35.131 21.047 34.9017C20.6597 34.6661 20.1073 34.3032 19.8089 34.0867C19.5105 33.8765 18.9582 33.4372 18.5709 33.1124C18.1836 32.794 17.5741 32.2146 17.2058 31.8389C16.8376 31.4568 16.3487 30.9028 16.1075 30.6036C15.8725 30.3043 15.5234 29.8458 15.3392 29.5847C15.1488 29.3237 14.8377 28.8461 14.6472 28.5341C14.4567 28.2221 14.0885 27.5344 13.8218 27.0058C13.5615 26.4837 13.2187 25.7196 13.0599 25.3184C12.9012 24.9172 12.6853 24.2868 12.5774 23.9175C12.4758 23.5482 12.3171 22.9178 12.2282 22.5166C12.1457 22.1155 12.0377 21.4723 11.9933 21.0839C11.9489 20.6764 11.9171 19.6767 11.9171 18.696C11.9171 17.5435 11.9489 16.7539 12.0187 16.2126C12.0758 15.7733 12.2282 15.0028 12.3552 14.4934C12.4822 13.984 12.698 13.2453 12.8314 12.8569C12.971 12.4621 13.2377 11.7744 13.4282 11.3286C13.625 10.8765 13.9551 10.2016 14.1647 9.81314C14.3742 9.42472 14.7615 8.80069 15.0154 8.41226C15.2757 8.0302 15.7329 7.39343 16.044 7.01137C16.3487 6.62931 16.9709 5.93524 17.4281 5.48313C17.8788 5.02466 18.5645 4.40063 18.9518 4.09498C19.3391 3.78933 19.9613 3.32449 20.3486 3.06979C20.7359 2.81508 21.339 2.44576 21.7009 2.24836C22.0565 2.04459 22.6279 1.75805 22.9644 1.60523C23.3072 1.4524 23.8469 1.22953 24.158 1.10218C24.4691 0.981194 25.1294 0.764694 25.6183 0.624605C26.1071 0.484517 26.8944 0.293487 27.3642 0.204339C27.8341 0.115192 28.2912 0.0324125 28.3801 0.0133095C28.469 0.000574172 29.4848 -0.00579349 30.634 0.00694184ZM27.396 2.2611C26.869 2.36298 26.031 2.58585 25.523 2.75141C25.0151 2.9106 24.2723 3.19077 23.8723 3.36907C23.4723 3.54736 22.8565 3.85301 22.5073 4.04404C22.1581 4.2287 21.5422 4.61076 21.1422 4.8782C20.7422 5.15201 20.101 5.64869 19.7137 5.97344C19.3264 6.30456 18.7486 6.85855 18.4185 7.20877C18.0947 7.55262 17.5804 8.17029 17.2757 8.57145C16.9709 8.97261 16.5582 9.57754 16.3487 9.90866C16.1456 10.2398 15.7837 10.9148 15.5487 11.4051C15.3075 11.8954 14.971 12.7295 14.7996 13.2517C14.6218 13.7802 14.4059 14.5188 14.3234 14.9073C14.2345 15.2957 14.1139 15.9516 14.0504 16.3718C13.9678 16.9386 13.9424 17.5371 13.9424 18.696C13.9424 19.6384 13.9742 20.4917 14.025 20.861C14.0694 21.1922 14.1774 21.8226 14.2662 22.2619C14.3551 22.7013 14.5202 23.3699 14.6345 23.7583C14.7551 24.1468 14.9773 24.7772 15.1297 25.1592C15.2821 25.5476 15.5297 26.1016 15.6821 26.4009C15.8281 26.7002 16.1329 27.2414 16.3487 27.6108C16.5709 27.9801 16.9455 28.5404 17.1868 28.8652C17.4217 29.1836 17.8788 29.7376 18.1899 30.0942C18.501 30.4507 18.9772 30.9347 19.2375 31.1703C19.4978 31.4059 19.9867 31.8134 20.3169 32.0745C20.647 32.3356 21.1613 32.7049 21.4597 32.8896C21.7581 33.0806 22.3739 33.4308 22.8247 33.6728C23.2755 33.9084 24.0374 34.2459 24.5072 34.4305C24.977 34.6088 25.7199 34.8572 26.1579 34.9718C26.596 35.0928 27.2944 35.252 27.7134 35.322C28.2785 35.4175 28.8817 35.4621 30.0626 35.4876C31.053 35.513 31.9736 35.4939 32.5069 35.4494C32.9768 35.4048 33.7069 35.3029 34.1259 35.2201C34.545 35.1373 35.3005 34.9336 35.8084 34.768C36.3163 34.6088 37.0592 34.3287 37.4592 34.1567C37.8592 33.9848 38.475 33.6855 38.8242 33.4881C39.1734 33.2971 39.7321 32.9532 40.0623 32.7304C40.3924 32.5075 40.9067 32.1382 41.2051 31.8962C41.5035 31.6606 42.0876 31.1257 42.5066 30.6991C42.932 30.2788 43.459 29.7057 43.6812 29.4255C43.9098 29.1454 44.3351 28.5595 44.6272 28.1202C44.9193 27.6808 45.3827 26.8657 45.6557 26.3054C45.9795 25.6368 46.2843 24.8918 46.5319 24.1404C46.7414 23.51 46.97 22.6949 47.0398 22.3256C47.1097 21.9563 47.2049 21.3832 47.2493 21.0521C47.2874 20.7146 47.3255 19.7021 47.3255 18.7597C47.3255 17.7855 47.2874 16.8048 47.243 16.4355C47.1985 16.0853 47.097 15.4867 47.0144 15.0983C46.9319 14.7162 46.7478 14.0285 46.5954 13.5701C46.4494 13.118 46.2018 12.443 46.0494 12.0737C45.897 11.7043 45.624 11.1313 45.4526 10.8001C45.2748 10.469 44.8939 9.83862 44.6018 9.39925C44.3097 8.95988 43.878 8.36132 43.6368 8.06204C43.4018 7.76912 42.9066 7.22151 42.5384 6.85218C42.1701 6.48286 41.586 5.95434 41.2368 5.67416C40.8876 5.38762 40.3861 5.01193 40.1258 4.84C39.8654 4.6617 39.3512 4.34332 38.9829 4.12682C38.6147 3.91669 38.0306 3.61741 37.6814 3.45822C37.3322 3.29902 36.7608 3.06979 36.4116 2.9488C36.0624 2.82782 35.3767 2.62405 34.8878 2.50307C34.3989 2.37571 33.6561 2.22926 33.2371 2.17832C32.818 2.12101 31.9609 2.05096 31.3324 2.01276C30.7038 1.98092 30.0753 1.95545 29.9356 1.96181C29.7959 1.96181 29.3832 1.98729 29.015 2.01912C28.6467 2.04459 27.9166 2.15284 27.396 2.2611Z" fill="#FFD521"/>
<path fill-rule="evenodd" clip-rule="evenodd" d="M30.8562 6.88402C31.6625 6.90312 32.2213 6.9477 32.6339 7.03684C32.9641 7.10052 33.4657 7.22151 33.745 7.29792C34.0244 7.37433 34.5704 7.56536 34.9513 7.72455C35.3323 7.87738 35.8656 8.12571 36.1259 8.2658C36.3862 8.41226 36.8433 8.69244 37.1417 8.88983C37.4401 9.08723 37.9354 9.46929 38.2528 9.73037C38.5703 9.99144 39.021 10.4181 39.2623 10.6791C39.5036 10.9402 39.8718 11.3796 40.0877 11.6598C40.2972 11.9399 40.6146 12.3984 40.7861 12.6786C40.9575 12.9588 41.2368 13.4746 41.4019 13.8248C41.567 14.175 41.8019 14.7608 41.9225 15.1301C42.0432 15.4995 42.2019 16.098 42.2781 16.4674C42.3543 16.8367 42.4432 17.5117 42.4749 17.9638C42.5193 18.5114 42.5193 19.059 42.4749 19.5875C42.4432 20.0269 42.3543 20.6827 42.2781 21.0521C42.2019 21.4214 42.0432 22.02 41.9225 22.3893C41.8019 22.7586 41.5353 23.4017 41.3321 23.822C41.1289 24.2423 40.7924 24.8472 40.5829 25.1592C40.3734 25.4712 39.9607 26.0189 39.6686 26.3627C39.3829 26.7129 38.9004 27.216 38.602 27.4834C38.3036 27.7445 37.8909 28.0947 37.6814 28.2539C37.4719 28.4195 37.0719 28.6933 36.7925 28.8652C36.5132 29.0435 36.0434 29.3046 35.745 29.4574C35.4466 29.6038 34.9894 29.814 34.7291 29.9159C34.4688 30.0114 33.999 30.1706 33.6815 30.2533C33.3641 30.3425 32.8689 30.4571 32.5705 30.5081C32.2721 30.5654 31.6054 30.629 31.0784 30.6481C30.488 30.6736 29.8721 30.6545 29.4594 30.6099C29.0912 30.5654 28.5515 30.4762 28.2531 30.4125C27.9547 30.3489 27.4722 30.2151 27.1738 30.1196C26.8754 30.0305 26.3611 29.8331 26.031 29.6866C25.7008 29.5402 25.1548 29.26 24.8247 29.0626C24.4945 28.8716 23.9802 28.5277 23.6818 28.3048C23.3834 28.0883 22.8438 27.6171 22.4819 27.2669C22.12 26.9103 21.6629 26.4264 21.4597 26.178C21.2629 25.9297 20.92 25.4585 20.6978 25.1274C20.4819 24.7963 20.1899 24.2932 20.0502 24.013C19.9105 23.7329 19.6947 23.2617 19.574 22.9624C19.4534 22.6631 19.2629 22.0454 19.1423 21.5933C19.028 21.1412 18.8947 20.479 18.8503 20.1288C18.8058 19.7149 18.7868 19.0908 18.8122 18.3458C18.8376 17.448 18.882 17.0404 19.009 16.4674C19.0979 16.0662 19.2629 15.4613 19.3709 15.1301C19.4788 14.799 19.7455 14.1559 19.9677 13.6974C20.1899 13.2389 20.5137 12.6531 20.6851 12.392C20.8629 12.131 21.193 11.6852 21.4152 11.4051C21.6375 11.1249 22.1517 10.5836 22.5517 10.1952C22.9517 9.80678 23.5358 9.3101 23.8469 9.0936C24.158 8.87073 24.685 8.53325 25.0151 8.34858C25.3453 8.16392 25.9294 7.87738 26.3167 7.72455C26.704 7.56536 27.3452 7.34886 27.7452 7.24061C28.1452 7.13236 28.7484 6.99864 29.0785 6.9477C29.5102 6.88402 30.0182 6.86492 30.8562 6.88402ZM28.4753 9.15091C28.1262 9.22732 27.6246 9.35467 27.3643 9.44382C27.104 9.5266 26.6913 9.68579 26.4437 9.79404C26.1961 9.90229 25.7834 10.1188 25.5231 10.278C25.2627 10.4308 24.8183 10.7365 24.539 10.9593C24.2596 11.1822 23.8406 11.5579 23.6057 11.7999C23.3771 12.0355 22.9835 12.5067 22.7358 12.8378C22.4882 13.1689 22.1327 13.742 21.9422 14.1113C21.7517 14.4806 21.4978 15.0665 21.3772 15.4167C21.2565 15.7669 21.0914 16.3655 21.0153 16.7539C20.9327 17.1678 20.8629 17.8237 20.8438 18.3458C20.8184 18.8743 20.8375 19.4984 20.8819 19.8741C20.9264 20.2243 21.028 20.7974 21.1105 21.1476C21.193 21.4978 21.3645 22.0709 21.4914 22.4211C21.6184 22.7713 21.847 23.2871 21.9994 23.5673C22.1517 23.8475 22.4374 24.2932 22.6343 24.5543C22.8374 24.8154 23.2565 25.2993 23.5803 25.6241C23.8977 25.9552 24.3739 26.3882 24.6342 26.5856C24.8945 26.7893 25.231 27.0313 25.3834 27.1205C25.5294 27.216 25.9294 27.4325 26.2722 27.6044C26.6087 27.7763 27.1611 28.0056 27.4912 28.1138C27.8214 28.2284 28.3801 28.3813 28.7293 28.4513C29.2499 28.5659 29.5801 28.5914 30.6023 28.5914C31.6372 28.5978 31.9546 28.5723 32.5387 28.4577C32.9197 28.3813 33.5355 28.2093 33.9037 28.0883C34.272 27.961 34.8688 27.6999 35.237 27.5089C35.6053 27.3115 36.1322 26.9931 36.4116 26.7957C36.691 26.5983 37.2306 26.1207 37.6179 25.7323C38.0052 25.3439 38.4877 24.7772 38.7036 24.4588C38.9195 24.1468 39.2369 23.5991 39.4147 23.2489C39.5861 22.8987 39.8147 22.3702 39.9226 22.0709C40.0242 21.7716 40.1702 21.2495 40.2464 20.9056C40.3162 20.5681 40.4115 19.9377 40.4496 19.5111C40.5004 18.938 40.5004 18.5177 40.4496 17.9447C40.4115 17.518 40.3226 16.9004 40.2464 16.582C40.1766 16.2572 40.0496 15.7733 39.9607 15.5122C39.8718 15.2511 39.6813 14.7736 39.529 14.4615C39.3829 14.1495 39.1036 13.6465 38.9068 13.3472C38.7163 13.0479 38.3544 12.5767 38.1068 12.2965C37.8592 12.0164 37.3894 11.5515 37.0656 11.2586C36.7418 10.9657 36.291 10.6027 36.0624 10.4499C35.8338 10.2971 35.4212 10.0679 35.1418 9.93413C34.8624 9.80678 34.3037 9.59028 33.9037 9.45656C33.5038 9.32284 32.8752 9.15728 32.507 9.08086C32.0816 8.99172 31.5165 8.93441 30.9515 8.92167C30.4626 8.90894 29.8467 8.92167 29.5864 8.95351C29.3261 8.98535 28.8245 9.0745 28.4753 9.15091Z" fill="#FFD521"/>
<path d="M22.9772 18.0596C23.0344 17.9768 23.1804 17.8686 23.301 17.824C23.4217 17.7794 23.6248 17.7476 23.7455 17.7476C23.8661 17.7476 24.0883 17.8113 24.2343 17.9004C24.4311 18.015 24.5454 18.1424 24.6407 18.3589C24.7422 18.5818 24.7676 18.7282 24.7359 18.8874C24.7169 19.0084 24.6343 19.2122 24.5518 19.3332C24.4692 19.4541 24.2978 19.607 24.1708 19.6643C24.0439 19.7279 23.828 19.7789 23.701 19.7789C23.5677 19.7789 23.3582 19.7279 23.2375 19.6579C23.1169 19.5942 22.9518 19.4287 22.8756 19.2949C22.7931 19.1612 22.7296 18.9384 22.7296 18.8046C22.7296 18.6773 22.7614 18.4926 22.7995 18.3907C22.8375 18.2952 22.9137 18.1488 22.9772 18.0596Z" fill="#FFD521"/>
<path d="M27.5866 11.1762C27.866 11.0425 28.2088 10.9087 28.3485 10.8769C28.4882 10.8387 28.6532 10.8132 28.7104 10.8068C28.7739 10.8005 28.9199 10.8387 29.0278 10.8833C29.1421 10.9342 29.3135 11.0616 29.4088 11.1698C29.5167 11.2908 29.5992 11.4818 29.6246 11.641C29.65 11.7938 29.631 12.0167 29.5929 12.1377C29.5548 12.2587 29.4469 12.437 29.3516 12.5325C29.25 12.628 28.9453 12.7999 28.6659 12.9145C28.3866 13.0355 27.9993 13.2329 27.8088 13.3603C27.6183 13.4876 27.3136 13.7296 27.1358 13.9015C26.9644 14.0671 26.6787 14.3918 26.5136 14.6211C26.3422 14.8503 26.0946 15.2642 25.9549 15.5444C25.8089 15.8246 25.6121 16.1748 25.5168 16.3212C25.4152 16.4741 25.2438 16.6396 25.1422 16.6906C25.0407 16.7415 24.8565 16.7861 24.7486 16.7861C24.6343 16.7861 24.4248 16.7288 24.2851 16.6651C24.1454 16.6014 23.9677 16.4804 23.8978 16.3977C23.8216 16.3149 23.7391 16.1557 23.7201 16.0538C23.6947 15.9456 23.7264 15.6908 23.7835 15.4807C23.8343 15.2706 23.9931 14.8694 24.1264 14.5892C24.2597 14.3091 24.5391 13.8506 24.7422 13.5704C24.9518 13.2902 25.3771 12.819 25.6883 12.5198C25.9994 12.2205 26.4374 11.8448 26.666 11.692C26.8946 11.5391 27.3072 11.3035 27.5866 11.1762Z" fill="#FFD521"/>
<path fill-rule="evenodd" clip-rule="evenodd" d="M4.98397 2.88506C5.0919 2.90417 5.31412 2.99331 5.48554 3.08883C5.65062 3.17798 5.82204 3.3117 5.86013 3.38174C5.91092 3.47089 5.93632 4.92272 5.96807 12.774H7.87277L7.89182 8.29758C7.91086 4.70622 7.93626 3.7638 8.0061 3.51546C8.06324 3.3117 8.15847 3.15887 8.27276 3.06973C8.41243 2.96784 8.54576 2.936 8.81242 2.94237C9.04733 2.94237 9.2632 2.99331 9.42827 3.07609C9.56795 3.14614 9.72668 3.26076 9.77747 3.31806C9.86001 3.41995 9.8727 4.27321 9.91715 16.4991L9.66319 17.0085C9.52351 17.2887 9.29495 17.6708 9.14892 17.8491C9.00924 18.0337 8.69814 18.3458 8.45688 18.5431C8.22196 18.7342 7.79023 19.0144 7.49183 19.1672C7.19342 19.32 6.72995 19.4919 5.96807 19.683V24.6816H7.93626L7.94261 37.7034L7.695 38.0855C7.56167 38.2956 7.32675 38.5886 7.16803 38.7414C7.01565 38.8878 6.72995 39.0916 6.53948 39.1935C6.34901 39.2954 6.01886 39.4291 5.80934 39.4864C5.58713 39.5501 5.21888 39.5946 4.92048 39.5946C4.59668 39.5883 4.26018 39.5437 3.99987 39.4609C3.77131 39.3909 3.41577 39.2253 3.20625 39.1043C2.99673 38.977 2.75547 38.8114 2.67293 38.735C2.59039 38.6586 2.39992 38.4039 1.96819 37.7353V24.6816H3.93638V19.6511H3.77766C3.68877 19.6511 3.39672 19.5811 3.12371 19.4919C2.85705 19.4092 2.39358 19.1863 2.09517 19.0016C1.77137 18.8042 1.35234 18.4667 1.04759 18.1547C0.698391 17.8045 0.457128 17.4797 0 16.6265L0.012698 10.0551C0.031745 3.52183 0.031745 3.48362 0.165074 3.30533C0.234913 3.20981 0.393638 3.07609 0.51427 3.01878C0.634901 2.95511 0.844418 2.90417 0.984096 2.90417C1.16187 2.90417 1.33329 2.96148 1.54281 3.0952C1.70788 3.19708 1.86661 3.34353 1.9047 3.41358C1.9428 3.48999 1.98724 5.30478 2.06343 12.774H3.93638L3.93003 3.44542L4.20304 3.20981C4.35542 3.08246 4.54589 2.94874 4.63477 2.9169C4.72366 2.88506 4.87604 2.86596 4.98397 2.88506ZM2.03168 15.5567C2.02533 16.2826 2.03168 16.3145 2.20945 16.5628C2.30469 16.7029 2.50151 16.9067 2.64119 17.0213C2.77452 17.1295 3.04752 17.2951 3.23799 17.3842C3.42846 17.4734 3.82845 17.5944 4.12685 17.6517C4.50779 17.7281 4.83794 17.7472 5.23793 17.7217C5.55538 17.6962 5.99346 17.6262 6.22203 17.5562C6.45059 17.4861 6.80613 17.3142 7.01565 17.1805C7.22517 17.0404 7.46008 16.8621 7.53627 16.7793C7.61246 16.6965 7.70769 16.5373 7.74579 16.4355C7.78388 16.3272 7.83467 15.9197 7.86007 15.5249L7.90451 14.8117H2.03168V15.5567ZM4.01257 31.8898C4.03162 36.6592 4.04432 37.0794 4.1459 37.3023C4.22209 37.4742 4.30463 37.5506 4.43161 37.5697C4.52684 37.5825 4.8062 37.5888 5.04746 37.5825C5.29507 37.5761 5.52998 37.5443 5.57443 37.5252C5.61887 37.4997 5.70141 37.3723 5.7649 37.2386C5.86648 37.0157 5.87918 36.6018 5.89188 31.8579L5.91092 26.7129H3.99353L4.01257 31.8898Z" fill="#FFD521"/>
<path fill-rule="evenodd" clip-rule="evenodd" d="M56.4745 2.93593C56.9698 2.94866 57.3063 2.9996 57.6174 3.09512C57.865 3.17153 58.2459 3.33072 58.4745 3.44534C58.703 3.55996 59.103 3.82103 59.3633 4.03117C59.6236 4.2413 59.9982 4.61062 60.1951 4.85259C60.3919 5.09457 60.6649 5.46389 60.7982 5.67402C60.9315 5.88416 61.1855 6.37447 61.3696 6.75653C61.5537 7.13859 61.776 7.67347 61.8648 7.93454C61.9537 8.19562 62.068 8.67319 62.1252 8.98521C62.1886 9.38 62.2204 9.95946 62.2204 10.8318C62.2204 11.7042 62.1886 12.2837 62.1252 12.6785C62.068 12.9905 61.9537 13.468 61.8648 13.7291C61.776 13.9902 61.5284 14.576 61.3061 15.0345C61.0839 15.493 60.7347 16.0915 60.5252 16.3717C60.3157 16.6519 59.9348 17.0849 59.6744 17.3268C59.4141 17.5752 59.0078 17.8936 58.7602 18.04C58.5126 18.1865 58.1062 18.3966 57.3888 18.7277L57.3951 24.6815H59.3633V37.7034L59.0903 38.1109C58.9443 38.3338 58.684 38.6458 58.5062 38.7986C58.3348 38.9578 58.0491 39.1488 57.8713 39.2316C57.6999 39.3144 57.3698 39.429 57.1412 39.4863C56.8555 39.5627 56.5444 39.5882 56.1253 39.5691C55.5666 39.55 55.4841 39.5309 54.9698 39.2762C54.6587 39.1297 54.2778 38.8878 54.1191 38.7349C53.9603 38.5885 53.7191 38.2892 53.3318 37.6715V24.6815H55.3L55.3063 18.7277L54.7794 18.4794C54.4873 18.3393 54.0365 18.091 53.7762 17.9254C53.5096 17.7598 53.0715 17.3905 52.7921 17.0912C52.5128 16.8047 52.1572 16.3781 52.0112 16.1488C51.8588 15.9196 51.5795 15.4229 51.3953 15.0345C51.2049 14.6461 50.9509 14.0348 50.8303 13.6654C50.7096 13.2961 50.5827 12.774 50.5446 12.5002C50.5065 12.2327 50.4747 11.4813 50.4747 10.8318C50.4747 10.1823 50.5065 9.43094 50.5446 9.15714C50.5827 8.88969 50.7033 8.38028 50.8239 8.03006C50.9382 7.67984 51.1541 7.13859 51.3001 6.8202C51.4461 6.50182 51.6683 6.07519 51.789 5.86505C51.916 5.65492 52.1382 5.3238 52.2842 5.13277C52.4302 4.94174 52.7032 4.62973 52.8937 4.44506C53.0842 4.25403 53.408 3.98022 53.6175 3.8274C53.827 3.67458 54.2397 3.43261 54.5381 3.29252C54.8365 3.15243 55.2365 3.00597 55.427 2.97413C55.6174 2.93593 56.0936 2.92319 56.4745 2.93593ZM54.9508 5.31107C54.7794 5.40658 54.4556 5.65492 54.2333 5.86505C54.0111 6.07519 53.6937 6.45088 53.535 6.69285C53.3699 6.93482 53.1477 7.36782 53.0334 7.648C52.9191 7.92818 52.7731 8.38665 52.6969 8.66682C52.627 8.947 52.5382 9.41821 52.5001 9.71749C52.4556 10.0422 52.4429 10.6281 52.462 11.1821C52.4874 11.6978 52.5572 12.3601 52.627 12.6785C52.6905 12.9905 52.8366 13.4935 52.9445 13.7928C53.0524 14.0921 53.2556 14.5187 53.3889 14.7479C53.5223 14.9772 53.8016 15.3465 54.0048 15.5694C54.2143 15.7922 54.5508 16.0852 54.7603 16.2252C54.9698 16.359 55.3254 16.5309 55.5539 16.6009C55.7888 16.671 56.1507 16.7219 56.3984 16.7219C56.6587 16.7219 56.9761 16.671 57.2237 16.5882C57.4396 16.5118 57.7634 16.359 57.9348 16.2443C58.1126 16.1361 58.4364 15.8432 58.6649 15.5948C58.8935 15.3529 59.1792 14.9835 59.2999 14.7734C59.4205 14.5696 59.6173 14.143 59.7379 13.8246C59.8522 13.5126 60.0109 12.9777 60.0808 12.6466C60.1887 12.1563 60.2141 11.8252 60.2141 10.8637C60.2141 9.90852 60.1824 9.57103 60.0808 9.08072C60.0046 8.7496 59.884 8.29113 59.8078 8.0619C59.7316 7.83266 59.5602 7.41876 59.4268 7.13859C59.2872 6.85841 59.0141 6.43178 58.811 6.1898C58.6078 5.94783 58.2713 5.62945 58.0618 5.48299C57.8523 5.3429 57.5221 5.17098 57.3317 5.1073C57.1412 5.04362 56.7539 4.97995 56.4745 4.96721C56.1444 4.94811 55.846 4.97995 55.6174 5.04362C55.427 5.09457 55.1286 5.21555 54.9508 5.31107ZM55.3825 31.7623C55.4079 35.6912 55.4333 36.8819 55.5031 37.1303C55.5603 37.3531 55.6301 37.4678 55.7444 37.5251C55.8396 37.5696 56.1063 37.5951 56.4174 37.5888C56.7666 37.5824 56.9634 37.5442 57.0396 37.4805C57.0967 37.4296 57.1729 37.2576 57.211 37.0984C57.2618 36.9074 57.2936 35.0926 57.3063 31.7687L57.338 26.7192H55.3444L55.3825 31.7623Z" fill="#FFD521"/>
</svg>
