<svg width="53" height="53" viewBox="0 0 53 53" fill="none" xmlns="http://www.w3.org/2000/svg">
<path fill-rule="evenodd" clip-rule="evenodd" d="M30.7056 0.000515109C30.7486 -0.00487683 31.0179 0.0328667 31.298 0.0760022C31.5781 0.12453 31.9659 0.210801 32.1597 0.275504C32.3536 0.334815 32.6175 0.442654 32.7522 0.507357C32.8868 0.577452 33.1507 0.744602 33.3446 0.890184C33.5385 1.03037 33.824 1.2838 33.9802 1.44555C34.1364 1.6127 34.3733 1.90387 34.5026 2.09798C34.6318 2.29209 34.7988 2.59404 34.8688 2.77197C34.9442 2.9499 35.0412 3.2842 35.0896 3.51606C35.1381 3.74252 35.1758 4.16309 35.1758 4.9557L35.3805 4.98266C35.4882 4.99884 35.8814 5.10128 36.253 5.20373C36.6246 5.31157 37.3248 5.55421 37.8149 5.74292C38.305 5.93703 39.1614 6.31986 39.7269 6.60024C40.3516 6.90758 41.0679 7.31737 41.5581 7.64089C42.0051 7.93744 42.5814 8.35801 42.8507 8.57369C43.12 8.78937 43.567 9.16141 43.847 9.40944C44.1271 9.65208 44.7088 10.2128 45.1396 10.6496C45.5705 11.0917 46.0876 11.6579 46.2922 11.9113C46.4915 12.1647 46.9062 12.747 47.2132 13.2054C47.5202 13.6637 47.9457 14.3592 48.1503 14.7421C48.3604 15.1249 48.662 15.7342 48.8236 16.09C48.9851 16.4459 49.2329 17.066 49.3837 17.465C49.5291 17.864 49.7392 18.4948 49.8415 18.8669C49.9492 19.2389 50.0946 19.8213 50.17 20.161C50.2454 20.5006 50.3424 21.0722 50.3909 21.4281C50.4339 21.7839 50.5147 22.5496 50.6655 24.1779L50.8217 24.2103C50.9133 24.2319 51.1933 24.248 51.4573 24.2534C51.7158 24.2534 52.0066 24.2912 52.1036 24.3289C52.1951 24.3721 52.3675 24.5069 52.4806 24.6255C52.5883 24.7495 52.7068 24.9166 52.7391 25.0029C52.7714 25.0838 52.7929 25.2725 52.7929 25.4181C52.7929 25.5852 52.7445 25.774 52.6691 25.9249C52.5991 26.0543 52.4698 26.2053 52.3836 26.2538C52.2974 26.3078 52.0766 26.3779 51.8989 26.4102C51.7212 26.4426 51.2095 26.4695 49.9492 26.4695L45.5436 30.8909L31.7289 30.8855C24.1294 30.8855 17.4887 30.8693 16.0183 30.81L15.6521 30.4865C15.4474 30.3086 14.4403 29.3326 11.5589 26.4749L10.6702 26.4695C10.1801 26.4695 9.69535 26.448 9.59302 26.4264C9.49069 26.4048 9.32911 26.3239 9.23756 26.2538C9.146 26.1784 9.01135 26.0328 8.94133 25.9303C8.87132 25.8279 8.80669 25.6338 8.79592 25.499C8.77976 25.3264 8.80669 25.1755 8.89825 24.9652C8.96826 24.8034 9.09214 24.6147 9.17293 24.5446C9.2591 24.4799 9.45299 24.3828 9.60379 24.3397C9.77614 24.2912 10.1047 24.2588 10.9664 24.2588L11.0041 23.4393C11.0257 22.9863 11.0795 22.3231 11.128 21.9673C11.1711 21.6114 11.2573 21.0398 11.3165 20.7001C11.3811 20.3605 11.5104 19.7512 11.6127 19.3522C11.715 18.9532 11.9036 18.3061 12.0328 17.9233C12.1621 17.5405 12.3883 16.942 12.5283 16.6023C12.6737 16.2626 12.9538 15.6641 13.1477 15.2813C13.347 14.8984 13.7024 14.2622 13.9394 13.8794C14.1818 13.4965 14.5911 12.8872 14.855 12.5314C15.1189 12.1755 15.4905 11.701 15.679 11.4799C15.8675 11.2589 16.3146 10.7736 16.6754 10.4069C17.0309 10.0403 17.6395 9.46875 18.0273 9.13984C18.415 8.81094 19.0075 8.34723 19.3468 8.10459C19.6861 7.86735 20.2462 7.4953 20.5909 7.28502C20.941 7.06934 21.5335 6.74043 21.9105 6.55171C22.2929 6.363 22.8422 6.10418 23.1384 5.98017C23.4347 5.85076 24.0163 5.63509 24.431 5.4949C24.8458 5.35471 25.4382 5.17677 26.3161 4.93953L26.3807 4.2871C26.4238 3.84496 26.4938 3.46753 26.6069 3.12245C26.6985 2.84206 26.8708 2.44306 26.9839 2.23278C27.1024 2.02788 27.3179 1.72054 27.4633 1.55878C27.6087 1.39703 27.8941 1.13821 28.0988 0.987239C28.3035 0.830873 28.6374 0.625979 28.8474 0.518141C29.0575 0.415694 29.3699 0.286288 29.5476 0.23776C29.7253 0.183841 30.0377 0.108354 30.2478 0.0706102C30.4578 0.0382586 30.6625 0.000515109 30.7056 0.000515109ZM29.79 2.55629C29.6876 2.60482 29.5153 2.71266 29.413 2.79354C29.3106 2.86902 29.1383 3.07931 29.0198 3.25724C28.9067 3.43518 28.7667 3.73713 28.7074 3.93124C28.6482 4.12534 28.6051 4.32485 28.6051 4.37877C28.6051 4.46504 28.7343 4.47043 30.7056 4.45964C32.4829 4.44347 32.8168 4.43268 32.8868 4.36259C32.9676 4.2871 32.9676 4.25475 32.8868 3.98515C32.8384 3.8234 32.736 3.56998 32.6552 3.42439C32.5745 3.2842 32.3806 3.04696 32.2244 2.90138C32.0736 2.75579 31.8151 2.57786 31.6589 2.50237C31.4811 2.42149 31.2388 2.36218 31.0018 2.34601C30.7756 2.32444 30.4955 2.34601 30.3016 2.38914C30.1239 2.42689 29.8923 2.50237 29.79 2.55629ZM28.3627 6.86984C28.0396 6.91837 27.431 7.0316 27.0163 7.12326C26.6015 7.20953 25.9337 7.39286 25.5351 7.52226C25.1366 7.65167 24.5172 7.87274 24.1618 8.01832C23.8063 8.1639 23.2677 8.41193 22.9607 8.56291C22.6591 8.71388 22.1528 8.99426 21.8297 9.18298C21.5119 9.3717 21.0218 9.68982 20.7417 9.89471C20.4617 10.0942 19.9769 10.4663 19.6646 10.7197C19.3522 10.9731 18.7921 11.4853 18.4204 11.8574C18.0488 12.2294 17.5641 12.747 17.3433 13.0166C17.1224 13.2808 16.7562 13.7661 16.5192 14.095C16.2876 14.4185 15.9429 14.947 15.7544 15.2651C15.5659 15.5886 15.2697 16.1332 15.092 16.4783C14.9196 16.8287 14.6396 17.4542 14.478 17.8694C14.311 18.2846 14.0794 18.9532 13.9663 19.3522C13.8478 19.7512 13.6917 20.382 13.6163 20.7541C13.5409 21.1261 13.4385 21.7084 13.3954 22.0481C13.347 22.3878 13.2877 22.9971 13.2554 23.3961C13.2285 23.7951 13.2015 24.1564 13.2015 24.1887C13.2015 24.2427 16.7508 24.2588 30.7756 24.2588H48.3442C48.3227 23.6549 48.2904 23.1481 48.2581 22.7491C48.2257 22.3501 48.1557 21.7408 48.0965 21.4011C48.0372 21.0614 47.908 20.4521 47.8056 20.0531C47.7087 19.6541 47.5148 19.0071 47.3855 18.6243C47.2509 18.2414 47.0193 17.6321 46.8631 17.2763C46.7123 16.9204 46.443 16.3489 46.2599 16.0092C46.0822 15.6695 45.759 15.1087 45.5382 14.769C45.3228 14.4293 44.935 13.8847 44.6765 13.5558C44.4126 13.2269 43.777 12.5368 43.2546 12.0191C42.7376 11.4961 42.0697 10.8707 41.7735 10.6226C41.4773 10.3746 40.9171 9.96481 40.5347 9.706C40.1523 9.44718 39.5168 9.06436 39.1344 8.84868C38.752 8.63839 38.1273 8.33105 37.7449 8.1639C37.3679 8.00214 36.7862 7.77568 36.4523 7.65706C36.1237 7.54383 35.5097 7.36051 35.095 7.25806C34.6803 7.15561 34.0394 7.01542 33.6678 6.95611C33.2962 6.8968 32.6068 6.80514 32.1328 6.762C31.6589 6.71886 30.991 6.68651 30.6517 6.68651C30.3124 6.69191 29.79 6.71347 29.4937 6.74043C29.1975 6.76739 28.6859 6.82131 28.3627 6.86984ZM16.9986 28.6802H44.5741L46.6585 26.5774H14.8981L16.9986 28.6802Z" fill="#FFD521"/>
<path d="M28.5513 9.00491C28.7722 8.97256 29.0522 8.93482 29.1707 8.92403C29.2892 8.91325 29.8116 8.90786 30.3287 8.91325C31.2335 8.91864 31.282 8.92403 31.4328 9.04265C31.5243 9.11275 31.6482 9.24755 31.7182 9.33921C31.7882 9.43627 31.8582 9.61959 31.8744 9.75439C31.8906 9.88919 31.8744 10.121 31.8421 10.2666C31.8044 10.4499 31.7236 10.5901 31.6051 10.7088C31.5136 10.8004 31.3197 10.9137 31.1796 10.9622C31.0342 11.0107 30.501 11.0862 29.9947 11.1293C29.4831 11.1779 28.8476 11.2533 28.5783 11.2965C28.309 11.3396 27.8619 11.4367 27.5819 11.5068C27.3018 11.5769 26.8763 11.7009 26.6394 11.7764C26.4024 11.8572 26.0038 12.0028 25.7507 12.1107C25.4976 12.2131 25.0505 12.4234 24.7543 12.5744C24.4581 12.7307 23.9357 13.0381 23.5963 13.2645C23.257 13.491 22.7454 13.8738 22.4653 14.1111C22.1853 14.3429 21.6521 14.8498 21.2804 15.2326C20.9088 15.6154 20.4187 16.1816 20.1871 16.4943C19.9555 16.807 19.6108 17.3247 19.4223 17.6536C19.2338 17.9825 18.9591 18.5271 18.8137 18.8668C18.6683 19.2065 18.4259 19.8373 18.2751 20.2687C18.1243 20.7 17.9304 21.2069 17.8443 21.401C17.7635 21.5951 17.6181 21.8054 17.5319 21.8755C17.4457 21.9402 17.2895 22.0264 17.1872 22.0588C17.0795 22.0911 16.891 22.1019 16.7563 22.0804C16.6217 22.0588 16.4224 21.9887 16.3093 21.924C16.1962 21.8593 16.04 21.7083 15.9592 21.5951C15.8569 21.4441 15.8084 21.2985 15.7922 21.0828C15.7815 20.8726 15.8246 20.5976 15.9377 20.1608C16.0238 19.8211 16.1854 19.2981 16.2985 19.0016C16.4062 18.705 16.6863 18.0741 16.9125 17.5997C17.1441 17.1252 17.505 16.4458 17.7204 16.0899C17.9358 15.734 18.2859 15.211 18.4959 14.9306C18.706 14.6503 19.3038 13.9925 19.8209 13.4748C20.3433 12.9518 21.0111 12.3371 21.3074 12.0999C21.6036 11.8626 22.0668 11.5229 22.3307 11.345C22.6 11.1671 23.1332 10.8597 23.5156 10.6602C23.9033 10.4607 24.5173 10.1804 24.889 10.0348C25.2606 9.88919 25.8045 9.68969 26.1008 9.59263C26.397 9.50097 26.9787 9.33921 27.3934 9.24216C27.8081 9.1451 28.3305 9.03726 28.5513 9.00491Z" fill="#FFD521"/>
<path fill-rule="evenodd" clip-rule="evenodd" d="M1.2179 26.4697C1.39563 26.4697 2.34354 26.5452 3.31838 26.6315C4.29861 26.7231 5.53197 26.8579 6.06517 26.928C6.59837 26.9981 7.37393 27.1222 7.78864 27.1976C8.20335 27.2731 8.8712 27.4133 9.26975 27.4996C9.6683 27.5912 10.3469 27.78 10.7778 27.9202C11.2087 28.0657 11.7742 28.2868 12.0381 28.4162C12.302 28.5456 12.6359 28.7613 12.7813 28.8961C12.9267 29.0309 13.0829 29.2358 13.1314 29.3544C13.196 29.527 13.2068 29.7157 13.1799 30.2872C13.1476 30.9882 13.1476 30.999 13.2714 31.0529C13.3361 31.0798 16.5514 31.8131 20.4185 32.6705C24.2855 33.5332 28.4057 34.4606 29.5744 34.7248C30.7431 34.9944 31.9819 35.2801 32.3212 35.3664C32.6605 35.4527 33.1237 35.5875 33.3445 35.663C33.5653 35.7439 33.9639 35.9164 34.2332 36.0512C34.5025 36.186 34.8633 36.3963 35.0411 36.5149C35.2188 36.6389 35.5312 36.8977 35.7358 37.0918C35.9351 37.2859 36.2152 37.5879 36.3498 37.7658C36.4845 37.9438 36.6837 38.2835 36.7968 38.5207C36.9099 38.7579 37.0931 39.281 37.2062 39.6854C37.3624 40.2461 37.4324 40.4187 37.4916 40.4025C37.5347 40.3917 38.3749 40.1868 39.3497 39.9496C40.3246 39.7177 41.7572 39.3672 42.5274 39.1731C43.2976 38.9844 44.2455 38.7633 44.6279 38.6825C45.0803 38.5854 45.5704 38.5261 46.0013 38.5099C46.4806 38.4883 46.8576 38.5099 47.2939 38.5746C47.6332 38.6231 48.1448 38.7364 48.4249 38.828C48.705 38.9197 49.152 39.103 49.4213 39.2324C49.6906 39.3672 50.0514 39.5775 50.2292 39.6961C50.4069 39.8202 50.7193 40.0682 50.9293 40.2461C51.134 40.4241 51.4571 40.753 51.6456 40.974C51.8395 41.1951 52.1304 41.5833 52.2919 41.8367C52.4589 42.0902 52.6366 42.4083 52.6905 42.5539C52.7443 42.6941 52.7874 42.9367 52.7874 43.0877C52.7874 43.3573 52.7713 43.3896 52.5289 43.6161C52.3566 43.7832 51.9849 44.0097 51.3602 44.3278C50.8539 44.5812 49.8037 45.0881 49.0173 45.4493C48.231 45.8106 46.7284 46.4954 45.6781 46.9699C44.6279 47.4444 43.1468 48.1076 42.3927 48.4419C41.6387 48.7762 40.4484 49.2938 39.7537 49.5903C39.0589 49.8869 38.0625 50.3075 37.5455 50.5178C37.0284 50.7334 36.1452 51.0839 35.5796 51.2996C35.0141 51.5153 34.147 51.828 33.6407 52.0005C33.1345 52.1677 32.4074 52.3888 32.025 52.4858C31.6426 52.5883 31.1094 52.6961 30.8401 52.7284C30.5708 52.7662 29.9299 52.7932 29.4128 52.7932C28.8958 52.7932 28.3141 52.7716 28.1202 52.7338C27.9263 52.7015 27.14 52.4696 26.3698 52.2216C25.5997 51.9736 22.185 50.8467 18.7758 49.7197C15.3719 48.5928 12.0488 47.4983 11.3972 47.288C10.7455 47.0777 9.99145 46.8458 9.72755 46.7704C9.46364 46.6949 9.2105 46.6463 9.17819 46.6625C9.14049 46.6787 9.05431 46.8512 8.99507 47.0507C8.93044 47.2556 8.81195 47.563 8.73655 47.7409C8.64499 47.9458 8.51034 48.1291 8.3757 48.237C8.26259 48.334 8.04716 48.4419 7.89636 48.4796C7.69708 48.5335 6.8515 48.5497 4.55713 48.5443C2.42972 48.5443 1.36332 48.5227 1.08325 48.4742C0.862433 48.4419 0.593141 48.3664 0.49081 48.3178C0.388478 48.2693 0.259218 48.1399 0.199973 48.0375C0.124572 47.9081 0.0814847 47.6762 0.0491696 47.2826C0.0276262 46.9699 0.00608277 42.6509 0.000696916 37.6849C-0.00468894 31.4842 0.0168545 28.427 0.0545554 27.9255C0.0868706 27.5265 0.146115 27.1006 0.183816 26.9874C0.216131 26.8687 0.307691 26.7393 0.383092 26.6908C0.458494 26.6423 0.603912 26.5776 0.706244 26.5398C0.808575 26.5021 1.04017 26.4751 1.2179 26.4697V26.4697ZM2.21428 46.2581H6.87304C7.68631 43.6053 8.031 42.4568 8.16026 41.9985C8.29491 41.5402 8.59652 40.4456 8.83888 39.5721C9.07586 38.6986 9.46364 37.2159 9.70062 36.283C9.93221 35.3502 10.2338 34.04 10.3685 33.3714C10.5031 32.7028 10.6755 31.8077 10.7509 31.3764C10.8263 30.945 10.8855 30.5406 10.8855 30.4705C10.8855 30.3789 10.8209 30.325 10.5893 30.2171C10.4277 30.1416 9.89989 29.9853 9.42055 29.8666C8.93583 29.748 8.21412 29.597 7.81557 29.5216C7.41702 29.4461 6.663 29.3275 6.14595 29.2466C5.62891 29.1711 4.80488 29.0632 4.31476 29.0039C3.82465 28.9446 3.15681 28.8853 2.82827 28.8637L2.23044 28.826L2.21428 46.2581ZM12.4743 34.3959C12.3935 34.7679 12.1512 35.7978 11.9304 36.6874C11.7095 37.5771 11.3702 38.8981 11.1763 39.626C10.9824 40.354 10.6054 41.7127 10.3415 42.6455C10.0776 43.5783 9.86758 44.3494 9.87296 44.3494C9.88374 44.3548 11.5641 44.9155 13.6054 45.6003C15.652 46.2851 19.6752 47.6331 22.5459 48.5928C25.4219 49.558 27.9748 50.3883 28.2279 50.4423C28.5673 50.5178 28.9012 50.5447 29.4936 50.5393C30.1507 50.5393 30.4254 50.507 30.9747 50.3937C31.3464 50.3129 31.9711 50.1565 32.3643 50.0325C32.7521 49.9139 33.4684 49.6766 33.9531 49.4987C34.4324 49.3261 35.2888 49.0026 35.8489 48.7762C36.4144 48.5551 37.4916 48.1076 38.2456 47.7787C38.9997 47.4497 40.5993 46.7488 41.8003 46.215C43.0013 45.6812 44.7571 44.894 45.705 44.468C46.653 44.0366 47.994 43.422 48.6834 43.0985C49.3728 42.7749 49.9383 42.4892 49.9383 42.4568C49.9383 42.4299 49.8306 42.2951 49.7067 42.1656C49.5775 42.0362 49.292 41.8098 49.0712 41.6642C48.8504 41.5186 48.5003 41.3137 48.2902 41.2167C48.0856 41.1142 47.7193 40.9848 47.4824 40.9201C47.2454 40.8608 46.7876 40.7961 46.4591 40.7799C45.9474 40.7476 45.7697 40.7637 45.1395 40.8932C44.741 40.9686 42.2419 41.5779 39.5921 42.2465C36.9423 42.9097 34.4109 43.5244 33.9639 43.6161C33.5222 43.7023 32.8759 43.8048 32.5366 43.8371C32.1866 43.8749 31.6426 43.8857 31.2871 43.8641C30.937 43.8479 30.3177 43.7832 29.9137 43.7185C29.5044 43.6592 27.754 43.3195 26.0197 42.969C24.2855 42.6186 22.5082 42.2573 22.0611 42.1656C21.6195 42.074 21.0702 41.9554 20.8493 41.9014C20.6285 41.8529 20.3808 41.7666 20.3 41.7127C20.2138 41.6642 20.0738 41.5186 19.9876 41.3946C19.896 41.2652 19.8099 41.0765 19.7883 40.974C19.7722 40.8716 19.7883 40.6775 19.8206 40.5427C19.8583 40.4079 19.9445 40.2246 20.0199 40.1275C20.0899 40.0304 20.23 39.901 20.3269 39.8417C20.4508 39.7662 20.5962 39.7339 20.8493 39.7339C21.0432 39.7339 21.5495 39.7932 21.9804 39.8687C22.4112 39.9442 23.7308 40.1976 24.9156 40.4348C26.1005 40.6721 27.6409 40.9686 28.3357 41.1034C29.0304 41.2382 30.043 41.4216 30.587 41.5132C31.1255 41.5995 31.6964 41.675 31.8526 41.675C32.0034 41.675 32.4128 41.6265 32.7521 41.5671C33.0914 41.5078 33.7592 41.3676 34.2332 41.2544L35.0949 41.0441C35.0788 40.4888 35.0195 40.203 34.9333 39.9496C34.8525 39.7285 34.7071 39.4104 34.6102 39.2486C34.5079 39.0869 34.3247 38.855 34.1955 38.731C34.0662 38.607 33.8562 38.4344 33.7215 38.3482C33.5869 38.2565 33.3499 38.1217 33.1991 38.0408C33.0429 37.9653 32.7359 37.8413 32.5259 37.7712C32.3104 37.6957 31.1902 37.4207 30.0322 37.1511C28.8796 36.8869 24.544 35.9164 20.4077 34.9944C16.266 34.0724 12.8406 33.3175 12.7975 33.3175C12.7544 33.3175 12.7005 33.4038 12.6682 33.5224C12.6359 33.6302 12.5497 34.0238 12.4743 34.3959Z" fill="#FFD521"/>
</svg>
