<svg width="42" height="48" viewBox="0 0 42 48" fill="none" xmlns="http://www.w3.org/2000/svg">
<path d="M0.427913 15.7353C0.506331 15.6864 0.643564 15.6211 0.735052 15.5917C0.823273 15.5591 0.950703 15.533 1.01278 15.533C1.07487 15.533 1.20883 15.5558 1.30685 15.5852C1.40488 15.6146 1.54865 15.6798 1.62706 15.7321C1.70222 15.7843 1.81004 15.8887 1.86232 15.9638C1.91787 16.0421 1.98322 16.1759 2.00935 16.2673C2.03876 16.375 2.06817 16.7765 2.09104 17.4423C2.11065 17.9972 2.14659 18.6826 2.17273 18.96C2.19887 19.2375 2.25115 19.7009 2.29035 19.9881C2.3263 20.2754 2.39818 20.7584 2.45046 21.0652C2.50274 21.372 2.59096 21.8322 2.64651 22.0933C2.70205 22.3544 2.80661 22.7951 2.87523 23.0725C2.94384 23.3499 3.06801 23.8069 3.14969 24.0843C3.23138 24.3617 3.39148 24.8676 3.50584 25.2103C3.6202 25.553 3.79338 26.0296 3.88487 26.2711C3.97962 26.5126 4.15933 26.9532 4.28349 27.2503C4.41092 27.5473 4.68212 28.1348 4.88797 28.5558C5.09709 28.9768 5.36175 29.4991 5.47938 29.7145C5.59701 29.9299 5.85187 30.3705 6.04791 30.6936C6.24069 31.0168 6.55763 31.5161 6.75041 31.8034C6.94319 32.0906 7.22092 32.4888 7.36796 32.6846C7.51499 32.8804 7.75678 33.1905 7.90382 33.37C8.07046 33.5756 8.19135 33.7551 8.22403 33.8596C8.2567 33.9542 8.27958 34.1142 8.27958 34.2349C8.27631 34.3785 8.25344 34.4993 8.20442 34.6103C8.16521 34.6984 8.06392 34.842 7.97897 34.9301C7.89402 35.015 7.75352 35.1162 7.66203 35.1521C7.57381 35.1912 7.42677 35.2304 7.33528 35.2369C7.23399 35.25 7.1033 35.2337 6.9922 35.2043C6.89418 35.1749 6.75041 35.1097 6.67526 35.0607C6.60011 35.0117 6.44001 34.8518 6.31911 34.7082C6.19821 34.5646 5.95969 34.2578 5.78325 34.0228C5.60681 33.7878 5.30947 33.37 5.12323 33.0926C4.93371 32.8152 4.66578 32.4072 4.52855 32.1852C4.39132 31.9665 4.12992 31.5259 3.95022 31.2061C3.76724 30.8895 3.43723 30.2759 3.22158 29.845C3.00266 29.4142 2.70532 28.7908 2.55828 28.4579C2.41125 28.125 2.23808 27.7235 2.17273 27.5603C2.10738 27.3971 1.96361 27.0316 1.85578 26.7444C1.74796 26.4571 1.58132 25.9806 1.48003 25.6836C1.38201 25.3866 1.2219 24.8742 1.12715 24.5412C1.03239 24.2083 0.89189 23.6894 0.816738 23.3826C0.741587 23.0758 0.617424 22.5046 0.539006 22.1097C0.460587 21.7147 0.349494 21.0815 0.297215 20.7062C0.241669 20.3308 0.166517 19.727 0.130576 19.368C0.0946337 19.009 0.052157 18.4443 0.0325523 18.1114C0.0162151 17.7785 -0.00012207 17.253 -0.00012207 16.943C-0.00012207 16.4566 0.00968025 16.3587 0.0652268 16.2086C0.101169 16.1172 0.166517 15.9899 0.208994 15.9312C0.251471 15.8724 0.349494 15.7843 0.427913 15.7353Z" fill="#FFD521"/>
<path fill-rule="evenodd" clip-rule="evenodd" d="M17.5297 0C17.8793 0 18.3792 0.0195832 18.6733 0.0456942C18.9608 0.075069 19.2713 0.117499 19.3595 0.14361C19.451 0.166457 19.5947 0.238263 19.6862 0.297012C19.7744 0.355762 19.8888 0.46347 19.9378 0.535275C19.9901 0.60708 20.4116 1.5177 20.8821 2.55887C21.3493 3.60005 21.9408 4.91539 22.1923 5.48004C22.4472 6.04469 22.8916 7.03364 23.7052 8.84835L27.6098 10.167C29.7565 10.8948 31.5732 11.5215 31.6451 11.5639C31.7169 11.6063 31.8248 11.6944 31.8836 11.7597C31.9391 11.825 32.0077 11.9164 32.0339 11.9686C32.06 12.0176 32.1613 12.2983 32.2659 12.5953C32.3672 12.8923 32.5305 13.4145 32.6286 13.7539C32.7298 14.0934 32.8867 14.6809 32.9847 15.0595C33.0795 15.4381 33.2494 16.1398 33.3572 16.6262C33.465 17.1125 33.6349 17.9186 33.733 18.4213C33.831 18.9239 33.9845 19.7529 34.076 20.2654C34.1643 20.7778 34.3178 21.7243 34.4191 22.3706C34.5171 23.0168 34.6576 23.9797 34.7328 24.5084C34.8047 25.0371 34.9223 25.9478 34.9942 26.532C35.0661 27.1162 35.1739 28.0628 35.2392 28.6372C35.3013 29.2116 35.3961 30.1288 35.4516 30.6771C35.5039 31.2254 35.5987 32.2601 35.6607 32.9781C35.7261 33.6962 35.8143 34.7831 35.8601 35.3934C35.9025 36.0038 35.9711 36.9372 36.0071 37.466C36.043 37.9947 36.0986 38.9217 36.1345 39.5222C36.1705 40.1228 36.226 41.0562 36.2521 41.5948C36.2946 42.3683 36.2979 42.6033 36.2685 42.7208C36.2456 42.8024 36.2031 42.9199 36.1705 42.9819C36.1378 43.0439 36.0561 43.1516 35.9842 43.2202C35.9156 43.292 35.8078 43.3736 35.7457 43.4062C35.6836 43.4389 34.4028 43.8762 32.903 44.3788C31.4033 44.8815 28.5737 45.8313 26.6132 46.4906C23.2543 47.6166 23.0419 47.6851 22.8556 47.6754C22.738 47.6656 22.5877 47.6297 22.4799 47.5807C22.3819 47.535 22.2479 47.4469 22.1858 47.3849C22.1237 47.3229 21.9244 47.0454 21.748 46.768C21.5683 46.4906 21.101 45.7562 20.7057 45.1361C20.3103 44.5159 19.7287 43.5988 19.415 43.0961C19.1013 42.5935 18.5295 41.6764 18.1505 41.0562C17.7715 40.4361 17.1441 39.4014 16.7553 38.7552C16.3698 38.109 15.847 37.2277 15.5954 36.7969C15.3438 36.366 14.8733 35.5501 14.5498 34.9854C14.2263 34.4208 13.7395 33.5591 13.4715 33.0761C13.2003 32.5897 12.7723 31.8064 12.5142 31.3299C12.2561 30.8534 11.8215 30.0309 11.5438 29.5021C11.266 28.9734 10.7857 28.0236 10.4753 27.3969C10.1616 26.767 9.74012 25.8955 9.53101 25.4549C9.32516 25.0143 9.00822 24.3158 8.82197 23.9046C8.639 23.4933 8.37433 22.8765 8.23383 22.5338C8.09333 22.1911 7.89402 21.6917 7.79273 21.424C7.69144 21.1531 7.52807 20.6929 7.43004 20.3959C7.30588 20.0238 7.2536 19.8084 7.2536 19.6942C7.2536 19.6028 7.28301 19.4559 7.31242 19.3678C7.35162 19.2601 8.15215 18.0884 9.67151 15.9244C11.0242 13.9955 11.9718 12.6181 11.9685 12.579C11.9653 12.5431 11.5634 10.5586 11.0765 8.17273C10.2956 4.34748 10.191 3.80567 10.2041 3.60331C10.2139 3.44338 10.2433 3.32588 10.2989 3.21165C10.3479 3.117 10.4916 2.94401 10.6387 2.80366C10.7824 2.66985 11.0569 2.42832 11.2562 2.27165C11.4555 2.11172 11.828 1.84082 12.0894 1.66457C12.3508 1.49159 12.7168 1.25985 12.9063 1.15541C13.0958 1.0477 13.4323 0.877981 13.6578 0.776801C13.8832 0.672357 14.2427 0.532011 14.4583 0.460206C14.674 0.388401 15.0203 0.293748 15.2262 0.248054C15.432 0.20236 15.7784 0.140346 15.994 0.110972C16.2097 0.0848606 16.5037 0.0489581 16.6475 0.0326387C16.7913 0.0163194 17.1866 0.00326387 17.5297 0V0ZM16.1084 2.19985C15.9189 2.22596 15.6183 2.28797 15.4385 2.33367C15.2588 2.37936 14.9354 2.49033 14.7197 2.57846C14.5041 2.66658 14.1577 2.8363 13.9519 2.9538C13.746 3.07457 13.4356 3.26713 13.2657 3.38463C13.0958 3.5054 12.8213 3.70776 12.6612 3.83831L12.3671 4.07657C12.6841 5.65629 13.0239 7.32739 13.3278 8.80919C13.6284 10.291 13.8898 11.4986 13.9061 11.4954C13.9225 11.4954 15.6379 10.9438 17.7192 10.2714C21.199 9.15189 21.5029 9.04745 21.4898 8.9887C21.48 8.9528 20.7873 7.40246 19.9509 5.54532C19.1144 3.68817 18.4152 2.15742 18.4021 2.14436C18.389 2.13131 18.1146 2.11172 17.7911 2.1052C17.4676 2.0954 17.0331 2.10193 16.8272 2.11825C16.6214 2.13457 16.2979 2.17047 16.1084 2.19985ZM14.491 13.4863L13.7395 13.7278C11.5732 16.822 10.9491 17.7293 10.9523 17.7391C10.9589 17.7489 11.4033 17.6184 11.9424 17.4454C12.4815 17.2757 16.2391 16.0844 20.2907 14.7984C24.3423 13.5092 27.6816 12.4451 27.7078 12.4288C27.7503 12.406 27.7503 12.4027 27.7078 12.3864C27.6816 12.3766 26.5969 12.0078 25.2997 11.5672C23.9992 11.1265 22.9341 10.7675 22.9308 10.7708C22.9243 10.7708 21.1925 11.3289 19.0817 12.011C16.971 12.6899 14.9027 13.3558 14.491 13.4863ZM24.277 15.7057C22.274 16.3455 18.2061 17.638 15.2425 18.5779C12.2757 19.5212 9.81854 20.3013 9.77607 20.3111C9.73686 20.3209 9.70418 20.3568 9.70418 20.3861C9.70418 20.4188 9.77933 20.6636 9.87082 20.9345C9.96231 21.2021 10.1224 21.6362 10.227 21.8973C10.3315 22.1584 10.5112 22.5892 10.6289 22.8601C10.7432 23.1278 11.0079 23.7153 11.217 24.1657C11.4229 24.6128 11.8051 25.4158 12.0633 25.9445C12.3214 26.4733 12.7756 27.3708 13.0696 27.9355C13.3637 28.5001 13.7623 29.2639 13.9617 29.6327C14.1577 30.0015 14.4518 30.5433 14.6151 30.8403C14.7753 31.1373 15.151 31.8129 15.4483 32.3417C15.7457 32.8704 16.2685 33.7876 16.6083 34.3816C16.9481 34.9756 17.5362 35.9809 17.9153 36.6174C18.2943 37.2538 18.9543 38.357 19.3856 39.0653C19.8169 39.7735 20.5619 40.9779 21.0389 41.7416C21.516 42.5054 22.2054 43.5988 22.5714 44.1732C22.9406 44.7477 23.2641 45.2568 23.2935 45.309C23.3261 45.3645 23.3621 45.3906 23.3948 45.3776C23.4209 45.3678 24.803 44.9043 26.4662 44.3462C28.1293 43.7913 30.5243 42.9884 31.7921 42.5674C33.0599 42.1431 34.112 41.7841 34.1283 41.7677C34.1501 41.7482 34.1468 41.486 34.1185 40.9812C34.0956 40.5634 34.0401 39.6364 33.9943 38.9184C33.9519 38.2003 33.8865 37.1951 33.8506 36.6826C33.8114 36.1702 33.7526 35.3771 33.7199 34.9201C33.6839 34.4632 33.6153 33.6538 33.5696 33.125C33.5271 32.5963 33.452 31.7803 33.4095 31.3136C33.3637 30.8468 33.2886 30.1059 33.2461 29.6653C33.2004 29.2247 33.1187 28.4773 33.0631 28.0007C33.0108 27.5242 32.9063 26.6658 32.8344 26.0914C32.7625 25.5169 32.6188 24.4366 32.5109 23.6924C32.4031 22.9483 32.2201 21.7733 32.1058 21.0813C31.9881 20.3894 31.828 19.4853 31.7463 19.0741C31.6647 18.6595 31.5536 18.1014 31.498 17.8338C31.4425 17.5629 31.3248 17.0276 31.2366 16.6425C31.1451 16.2573 31.0079 15.6992 30.9262 15.4022C30.8445 15.1052 30.704 14.6417 30.6125 14.3741C30.5211 14.1032 30.4328 13.8584 30.4165 13.8258C30.4002 13.7964 30.3773 13.7703 30.3642 13.7735C30.3479 13.7735 29.7957 13.9465 29.1291 14.1619C28.4626 14.3741 26.2799 15.0693 24.277 15.7057Z" fill="#FFD521"/>
<path d="M35.6185 6.48222C35.7197 6.39084 35.857 6.30597 35.9419 6.2766C36.0269 6.25049 36.1935 6.23417 36.334 6.2407C36.5039 6.24722 36.6248 6.27007 36.7261 6.31903C36.8078 6.3582 36.9385 6.45285 37.0169 6.53118C37.0921 6.60951 37.2849 6.87715 37.4384 7.12847C37.592 7.37979 37.8469 7.83347 38.0037 8.14027C38.1605 8.44707 38.3827 8.89422 38.4905 9.13575C38.6016 9.37728 38.7846 9.80484 38.899 10.0823C39.0133 10.3597 39.2028 10.8525 39.3172 11.1757C39.4348 11.4988 39.6276 12.07 39.742 12.4486C39.8596 12.8272 40.036 13.4408 40.1373 13.8194C40.2354 14.198 40.3824 14.7986 40.4641 15.1576C40.5425 15.5166 40.6536 16.0454 40.7091 16.3326C40.7647 16.6198 40.8431 17.0735 40.8888 17.3444C40.9346 17.612 41.0065 18.0983 41.0522 18.4215C41.098 18.7446 41.1698 19.3549 41.2156 19.776C41.2613 20.197 41.3201 20.853 41.3463 21.2284C41.3757 21.6037 41.4116 22.2304 41.4312 22.6155C41.4476 23.0007 41.4672 23.722 41.4802 25.1124L41.3757 25.3245C41.3201 25.442 41.2189 25.5857 41.147 25.6477C41.0784 25.7097 40.9411 25.7978 40.8431 25.8402C40.7189 25.8957 40.6013 25.9218 40.4673 25.9218C40.3595 25.9218 40.1994 25.899 40.1079 25.8696C40.0099 25.837 39.8759 25.7554 39.7714 25.6607C39.6635 25.5661 39.5623 25.4323 39.51 25.3245C39.4283 25.1548 39.4218 25.1157 39.4152 24.6065C39.4087 24.3095 39.3891 23.6502 39.3727 23.1378C39.3531 22.6253 39.3172 21.8975 39.2911 21.5221C39.2617 21.1468 39.2028 20.4842 39.1604 20.0534C39.1146 19.6226 39.0395 19.0057 38.9937 18.6826C38.948 18.3594 38.8761 17.8731 38.8304 17.6055C38.7846 17.3346 38.6899 16.8156 38.618 16.4468C38.5461 16.078 38.4056 15.4481 38.3076 15.0434C38.2095 14.6386 38.0494 14.0283 37.9514 13.6888C37.8534 13.3494 37.6737 12.7684 37.5462 12.3996C37.4221 12.0308 37.213 11.4498 37.0757 11.1104C36.9418 10.7709 36.7392 10.2846 36.6248 10.0333C36.5105 9.782 36.3242 9.3936 36.2099 9.16839C36.0955 8.94318 35.9191 8.62006 35.8178 8.45034C35.7197 8.28062 35.576 8.05215 35.5008 7.94444C35.4289 7.83673 35.3407 7.66701 35.308 7.56909C35.2623 7.43854 35.2525 7.33083 35.2623 7.17743C35.2721 7.04361 35.308 6.90653 35.3603 6.80208C35.4061 6.71069 35.5237 6.56708 35.6185 6.48222Z" fill="#FFD521"/>
</svg>
