<svg width="50" height="50" viewBox="0 0 50 50" fill="none" xmlns="http://www.w3.org/2000/svg">
<path d="M35.8729 23.2358C36.0204 23.0882 36.1243 23.0144 36.2449 22.9775C36.3387 22.9473 36.4996 22.9204 36.6068 22.9204C36.7241 22.9171 36.8917 22.9473 37.0391 22.9976C37.1731 23.0412 37.525 23.1788 37.8199 23.3029C38.1148 23.4237 38.6576 23.672 39.0263 23.8566C39.3949 24.0378 39.9377 24.333 40.2326 24.5109C40.5275 24.6853 40.9565 24.9672 41.1877 25.1316C41.4189 25.296 41.7506 25.5477 41.9249 25.692C42.0992 25.8362 42.4074 26.1214 42.6119 26.3228C42.8163 26.5274 43.1045 26.8429 43.2519 27.0274C43.396 27.2119 43.6138 27.5139 43.7311 27.6985C43.8517 27.883 44.026 28.2018 44.1232 28.4031C44.2204 28.6078 44.3443 28.9165 44.398 29.091C44.4549 29.2654 44.5353 29.5674 44.5756 29.762C44.6359 30.0472 44.6493 30.2251 44.6526 30.6848C44.6526 31.1512 44.6392 31.3256 44.5756 31.641C44.5353 31.8524 44.4549 32.1645 44.398 32.3289C44.3443 32.4967 44.2103 32.8188 44.0997 33.0503C43.9891 33.2818 43.7881 33.6375 43.6507 33.8388C43.5166 34.0435 43.2854 34.3522 43.138 34.5267C42.9939 34.7011 42.7057 35.0065 42.4979 35.2078C42.2935 35.4058 41.9651 35.6977 41.7674 35.8554C41.5663 36.0131 41.1709 36.2983 40.8861 36.4862C40.6012 36.6775 40.1924 36.9325 39.9813 37.0499C39.7702 37.1707 39.3915 37.372 39.1435 37.4962C38.8956 37.6203 38.4968 37.8082 38.2555 37.9156C38.0142 38.023 37.6088 38.1907 37.3507 38.2947C37.0927 38.3954 36.6102 38.5732 36.2784 38.6873C35.9467 38.8014 35.3904 38.9759 35.0385 39.0765C34.6867 39.1806 34.1304 39.3282 33.7987 39.4121C33.4669 39.496 32.8269 39.6369 32.3745 39.7275C31.9221 39.8214 31.215 39.9456 30.7995 40.0127C30.384 40.0765 29.7204 40.167 29.325 40.2107C28.9296 40.2576 28.3264 40.318 27.9846 40.3482C27.6428 40.3751 27.0999 40.412 26.7782 40.4321C26.4565 40.4489 25.7093 40.4757 25.1195 40.4858C24.4861 40.4992 23.6383 40.4925 23.0418 40.469C22.4889 40.4489 21.7282 40.4086 21.3496 40.3818C20.9709 40.3549 20.4448 40.308 20.1767 40.2811C19.9086 40.2509 19.3959 40.1905 19.0374 40.1436C18.6788 40.0966 18.0656 40.006 17.6802 39.9422C17.2948 39.8751 16.7218 39.7711 16.4068 39.7074C16.0918 39.6403 15.5892 39.5295 15.2842 39.4557C14.9793 39.3819 14.4364 39.2376 14.0778 39.1369C13.7193 39.0363 13.1295 38.8551 12.7709 38.7343C12.4124 38.6135 11.8762 38.4189 11.5813 38.3015C11.2864 38.1874 10.8206 37.9894 10.5425 37.8653C10.2677 37.7411 9.91922 37.5801 9.77178 37.5062C9.62433 37.4291 9.29928 37.2546 9.0513 37.117C8.80333 36.9794 8.45482 36.7714 8.28057 36.6607C8.10631 36.55 7.83488 36.3688 7.67738 36.2547C7.51988 36.144 7.26521 35.9527 7.10771 35.8252C6.95021 35.701 6.67207 35.4595 6.49112 35.2883C6.30681 35.1172 6.01527 34.8119 5.84102 34.6105C5.66676 34.4092 5.41544 34.0737 5.2814 33.8724C5.144 33.671 4.9731 33.3892 4.89938 33.2516C4.82566 33.114 4.70502 32.849 4.63465 32.6644C4.56093 32.4799 4.47045 32.2148 4.43023 32.0772C4.39337 31.9397 4.33976 31.6914 4.3096 31.5236C4.27944 31.3458 4.25598 31.0203 4.25598 30.7351C4.25598 30.4667 4.27274 30.1345 4.29284 29.9969C4.31295 29.8593 4.37662 29.5741 4.43023 29.3695C4.48385 29.1614 4.59444 28.8326 4.67821 28.638C4.76199 28.4434 4.90273 28.1548 4.99321 27.9937C5.08369 27.8293 5.24453 27.5777 5.34842 27.43C5.45565 27.2824 5.61985 27.0643 5.71703 26.9435C5.81421 26.8227 6.07559 26.5476 6.29341 26.3328C6.51122 26.1181 6.80276 25.8463 6.94016 25.7322C7.07755 25.6181 7.29872 25.4437 7.42605 25.3497C7.55339 25.2524 7.81813 25.0712 8.01249 24.9404C8.20684 24.8095 8.56876 24.588 8.81673 24.4438C9.06471 24.2961 9.58412 24.0243 9.97284 23.8364C10.3616 23.6452 10.7503 23.4741 10.8441 23.4539C10.9647 23.4271 11.0653 23.4271 11.2027 23.4506C11.3099 23.4707 11.4573 23.5177 11.5311 23.5546C11.6048 23.5915 11.7187 23.6754 11.7824 23.7391C11.8461 23.8029 11.9399 23.9371 11.9902 24.0344C12.0706 24.1854 12.084 24.2491 12.084 24.4941C12.084 24.7189 12.0672 24.8095 12.0069 24.9303C11.9667 25.0142 11.8896 25.1383 11.8327 25.2088C11.7522 25.3094 11.5981 25.3967 11.0552 25.6618C10.6799 25.843 10.2108 26.0879 10.0063 26.2053C9.80193 26.3194 9.48024 26.5207 9.28588 26.6516C9.09152 26.7791 8.78322 27.0006 8.59892 27.1415C8.41461 27.2791 8.0527 27.6079 7.79467 27.8662C7.52323 28.138 7.2317 28.4669 7.10771 28.6447C6.98707 28.8158 6.82622 29.0809 6.74915 29.2319C6.66872 29.3862 6.57489 29.6077 6.53468 29.7285C6.49447 29.8493 6.44085 30.0607 6.4174 30.1982C6.39394 30.3358 6.37048 30.564 6.37048 30.7015C6.37048 30.8391 6.39394 31.0807 6.4241 31.2384C6.45426 31.3961 6.51458 31.631 6.56149 31.7585C6.6084 31.8893 6.71564 32.1209 6.79941 32.2786C6.88319 32.4363 7.06079 32.708 7.19483 32.8825C7.32552 33.057 7.59026 33.359 7.78126 33.5502C7.97227 33.7415 8.28727 34.0267 8.48163 34.1811C8.67599 34.3354 8.99769 34.5736 9.2021 34.7079C9.40651 34.8454 9.69135 35.0266 9.8388 35.1139C9.98624 35.2011 10.3046 35.3756 10.5425 35.4997C10.7804 35.6272 11.1826 35.8218 11.4305 35.9292C11.6785 36.0399 12.0806 36.2077 12.3186 36.305C12.5565 36.4023 13.0859 36.5902 13.4914 36.7244C13.8969 36.862 14.5302 37.0533 14.8988 37.1539C15.2675 37.2546 15.8773 37.4056 16.256 37.4895C16.6347 37.5767 17.191 37.6908 17.4959 37.7445C17.8008 37.8015 18.2968 37.8854 18.6017 37.929C18.9067 37.976 19.4026 38.0431 19.7076 38.08C20.0125 38.1169 20.428 38.1639 20.6291 38.1807C20.8302 38.2008 21.306 38.2411 21.6847 38.2713C22.0701 38.2981 23.0418 38.3317 23.8964 38.3417C24.8648 38.3551 25.726 38.3451 26.2588 38.3216C26.7179 38.2981 27.3613 38.2612 27.683 38.231C28.0047 38.2042 28.4873 38.1605 28.7554 38.1303C29.0234 38.1035 29.5663 38.0364 29.9617 37.9793C30.3571 37.9223 30.967 37.825 31.3189 37.7612C31.6707 37.6975 32.2572 37.5767 32.6258 37.4962C32.9944 37.4123 33.5741 37.2714 33.9159 37.1808C34.2577 37.0868 34.7705 36.9392 35.0553 36.8452C35.3401 36.7546 35.7925 36.6003 36.0606 36.5063C36.3287 36.409 36.8045 36.2211 37.1162 36.0869C37.4278 35.9527 37.8802 35.7447 38.1215 35.6239C38.3628 35.5064 38.7079 35.3219 38.8922 35.2145C39.0765 35.1105 39.4217 34.8924 39.663 34.7347C39.9042 34.5736 40.2494 34.3253 40.4337 34.1777C40.618 34.0301 40.9263 33.7516 41.1207 33.557C41.315 33.359 41.5864 33.0503 41.7272 32.8658C41.8646 32.6812 42.0556 32.3792 42.1494 32.1947C42.2432 32.0101 42.3639 31.7249 42.4141 31.5572C42.4979 31.282 42.508 31.2048 42.508 30.7183C42.5113 30.2519 42.5013 30.1445 42.4343 29.913C42.3907 29.7654 42.2935 29.5104 42.2131 29.3426C42.136 29.1782 41.9752 28.8963 41.8579 28.7219C41.7372 28.5474 41.4591 28.2186 41.2379 27.987C41.0168 27.7589 40.6549 27.4267 40.4337 27.2489C40.2125 27.071 39.8439 26.8026 39.6127 26.655C39.3815 26.504 39.043 26.2959 38.8587 26.1886C38.6744 26.0812 38.3359 25.9 38.1047 25.7859C37.8735 25.6718 37.5049 25.4973 37.2837 25.4C37.0626 25.3027 36.7073 25.1585 36.4962 25.0746C36.2851 24.9907 36.0472 24.8766 35.9668 24.8196C35.8863 24.7592 35.7858 24.6585 35.7422 24.5948C35.6987 24.531 35.6384 24.4102 35.6082 24.3263C35.5814 24.2424 35.5579 24.0847 35.5579 23.974C35.5579 23.8633 35.5814 23.6989 35.6149 23.6049C35.6551 23.4841 35.7288 23.3801 35.8729 23.2358Z" fill="#FFD521"/>
<path d="M15.3513 10.8952C15.4149 10.8549 15.5222 10.8046 15.5858 10.7811C15.6596 10.7543 15.807 10.7408 15.9712 10.7476C16.179 10.7576 16.2762 10.7778 16.4068 10.8449C16.5007 10.8952 16.6448 11.0059 16.7285 11.0965C16.8123 11.1838 16.9497 11.3482 17.0335 11.4589C17.1173 11.5696 17.2982 11.8347 17.4356 12.0461C17.573 12.2575 17.754 12.5528 17.8377 12.7004C17.9215 12.848 18.0421 13.0728 18.1092 13.2037C18.1728 13.3346 18.2968 13.603 18.3839 13.8077C18.4677 14.009 18.5884 14.321 18.652 14.4955C18.7124 14.67 18.8162 15.0257 18.8799 15.284C18.9436 15.5424 19.024 15.9283 19.0508 16.1396C19.081 16.351 19.1145 16.7235 19.1279 16.9617C19.1379 17.1999 19.1312 17.5791 19.1078 17.8006C19.0877 18.022 19.0475 18.3374 19.0206 18.5052C18.9905 18.673 18.9235 18.985 18.8698 19.1997C18.8129 19.4178 18.709 19.7802 18.6319 20.005C18.5582 20.2332 18.3169 20.8942 18.0991 21.4747C17.8813 22.0552 17.6434 22.7296 17.5663 22.9678C17.4892 23.2061 17.3753 23.6154 17.3116 23.8738C17.248 24.1322 17.1642 24.5482 17.1273 24.7965C17.0871 25.0448 17.0435 25.4844 17.0301 25.7696C17.0134 26.0548 17.0134 26.5245 17.0301 26.8097C17.0435 27.0949 17.0938 27.5949 17.1407 27.917C17.1876 28.2391 17.2815 28.7693 17.3485 29.0914C17.4323 29.5075 17.4658 29.7323 17.4524 29.8631C17.4457 29.9638 17.4088 30.1148 17.3719 30.1987C17.3384 30.2826 17.248 30.4168 17.1709 30.5007C17.0871 30.598 16.9564 30.6886 16.8224 30.7489C16.628 30.8362 16.5811 30.8429 16.3398 30.8295C16.1555 30.8194 16.0282 30.7926 15.931 30.7422C15.8506 30.702 15.7333 30.6181 15.6663 30.5577C15.5992 30.5007 15.5088 30.3899 15.4652 30.3161C15.4216 30.2389 15.3412 29.9839 15.2876 29.7289C15.2306 29.4806 15.1469 29.0411 15.1033 28.7559C15.0564 28.4706 14.9927 28.0177 14.9592 27.7492C14.9156 27.3936 14.9022 27.0111 14.9022 26.3232C14.9022 25.6186 14.9156 25.2663 14.9592 24.914C14.9927 24.6556 15.0597 24.2462 15.1033 24.008C15.1502 23.7698 15.2407 23.3671 15.3044 23.1188C15.368 22.8705 15.4987 22.431 15.5925 22.1458C15.6864 21.8606 15.9176 21.2096 16.1052 20.703C16.2963 20.1963 16.5141 19.5923 16.5878 19.3608C16.6649 19.1293 16.7654 18.7971 16.809 18.6226C16.8525 18.4481 16.9128 18.1596 16.943 17.9851C16.9698 17.8106 16.9933 17.465 16.9933 17.2201C16.9933 16.9315 16.9698 16.6463 16.9296 16.398C16.8927 16.1933 16.8224 15.8846 16.7755 15.7202C16.7252 15.5525 16.6213 15.2505 16.5442 15.0491C16.4638 14.8445 16.2862 14.4519 16.1455 14.1768C16.0047 13.8983 15.7836 13.5023 15.6562 13.2943C15.5255 13.0896 15.3111 12.7709 15.1804 12.5897C15.0262 12.3749 14.9257 12.2004 14.8922 12.0796C14.8587 11.9656 14.8453 11.8246 14.8553 11.7106C14.8654 11.6099 14.9022 11.4589 14.9391 11.375C14.976 11.2911 15.0564 11.167 15.12 11.0932C15.1837 11.0227 15.2876 10.9321 15.3513 10.8952Z" fill="#FFD521"/>
<path d="M31.1216 11.0426C31.1953 10.9587 31.3394 10.8514 31.4533 10.7977C31.6376 10.7071 31.6778 10.7004 31.9392 10.7138C32.147 10.7205 32.2609 10.744 32.3648 10.7977C32.4452 10.8379 32.5692 10.9319 32.6429 11.0057C32.7167 11.0795 32.8038 11.197 32.8407 11.2641C32.8742 11.3345 32.9747 11.603 33.0585 11.8613C33.1456 12.1197 33.2897 12.5794 33.3802 12.8847C33.4673 13.1901 33.5946 13.68 33.6617 13.9752C33.7253 14.2705 33.8091 14.6866 33.846 14.898C33.8828 15.1093 33.9364 15.5019 33.9666 15.7703C34.0102 16.1361 34.0202 16.4314 34.0068 16.9615C33.9968 17.4816 33.9733 17.7702 33.9163 18.0688C33.8761 18.2902 33.8024 18.6392 33.7488 18.8405C33.6985 19.0418 33.5879 19.4143 33.5042 19.6626C33.4204 19.9109 33.1724 20.5987 32.9512 21.1893C32.7301 21.7798 32.4854 22.461 32.4117 22.6992C32.3347 22.9374 32.2274 23.3099 32.1738 23.5213C32.1202 23.7327 32.0431 24.1051 31.9995 24.3433C31.9359 24.7158 31.9258 24.9037 31.9258 25.6184C31.9225 26.0948 31.9426 26.6183 31.966 26.8263C31.9895 27.0276 32.0398 27.3766 32.0766 27.598C32.1135 27.8195 32.1805 28.1685 32.2308 28.3698C32.2777 28.5711 32.3246 28.853 32.3313 28.9905C32.3447 29.1986 32.3347 29.2791 32.271 29.4435C32.2207 29.5744 32.1403 29.6985 32.0398 29.7958C31.9459 29.8931 31.8152 29.977 31.6946 30.024C31.5706 30.071 31.4299 30.0978 31.2958 30.0978C31.1785 30.0978 31.0177 30.0777 30.9339 30.0508C30.8501 30.0206 30.7027 29.9267 30.6022 29.8394C30.505 29.7522 30.3911 29.618 30.3542 29.5442C30.3207 29.4703 30.2537 29.2657 30.2101 29.0912C30.1699 28.9167 30.0962 28.5711 30.0492 28.3262C30.0023 28.0846 29.932 27.6517 29.8951 27.3699C29.8616 27.0914 29.8147 26.5814 29.7946 26.2391C29.7711 25.8096 29.7711 25.4439 29.7946 25.048C29.8147 24.7326 29.8582 24.2896 29.8951 24.0581C29.9286 23.8266 29.9956 23.4642 30.0459 23.2528C30.0928 23.0414 30.1967 22.6388 30.2805 22.3637C30.3609 22.0852 30.5117 21.6322 30.6122 21.357C30.7128 21.0786 30.9172 20.5216 31.068 20.1156C31.2188 19.7096 31.3997 19.1962 31.4734 18.9747C31.5472 18.7533 31.6443 18.4211 31.6913 18.2365C31.7382 18.052 31.7985 17.7802 31.8253 17.6326C31.8521 17.4849 31.8823 17.2064 31.8923 17.0118C31.9057 16.8139 31.8957 16.4884 31.8756 16.2737C31.8521 16.0623 31.7951 15.6596 31.7516 15.3845C31.7047 15.106 31.5706 14.502 31.4533 14.0423C31.336 13.5793 31.1618 12.9552 31.0646 12.6499C30.9708 12.3445 30.877 12.0358 30.8602 11.962C30.8434 11.8882 30.8334 11.7506 30.8434 11.66C30.8501 11.5661 30.887 11.4251 30.9239 11.3413C30.9607 11.2574 31.0479 11.1232 31.1216 11.0426Z" fill="#FFD521"/>
<path d="M23.8362 0.211389C23.8965 0.167769 24.0205 0.104017 24.1143 0.0704629C24.2081 0.0335537 24.3623 0.00335537 24.4595 0C24.5533 0 24.7141 0.0301984 24.8113 0.0637521C24.9051 0.100661 25.0593 0.194612 25.1498 0.275141C25.2402 0.35567 25.3475 0.479819 25.391 0.553637C25.4346 0.627455 25.4882 0.778447 25.5083 0.889174C25.5385 1.05359 25.5351 1.12741 25.4882 1.3086C25.448 1.47972 25.3709 1.624 25.1397 1.96289C24.9789 2.20448 24.7644 2.53331 24.6672 2.70108C24.57 2.86885 24.4058 3.17754 24.2986 3.38893C24.1947 3.60032 24.0272 3.96941 23.93 4.211C23.8328 4.45258 23.7021 4.83509 23.6418 5.06662C23.5781 5.29814 23.5011 5.62361 23.4709 5.78802C23.434 5.98263 23.4139 6.27791 23.4139 6.62686C23.4106 7.02951 23.4273 7.23419 23.4709 7.44893C23.5044 7.60663 23.615 7.97573 23.7122 8.271C23.8094 8.56627 23.9803 9.01925 24.0908 9.27761C24.2014 9.53597 24.4393 10.0628 24.6169 10.452C24.7979 10.8412 25.0827 11.4586 25.2536 11.8277C25.4245 12.1968 25.6625 12.7471 25.7831 13.0524C25.9037 13.3577 26.0713 13.8275 26.1551 14.0993C26.2388 14.3744 26.3528 14.8173 26.4064 15.0891C26.4634 15.3643 26.5237 15.7736 26.5471 16.0051C26.5706 16.2635 26.5773 16.6494 26.5672 17.0117C26.5538 17.3339 26.5237 17.7432 26.4969 17.9177C26.4667 18.0922 26.4232 18.3505 26.393 18.4881C26.3662 18.6257 26.2858 18.9277 26.2221 19.1592C26.1551 19.3907 26.0311 19.7598 25.9473 19.9813C25.8635 20.2027 25.6558 20.7228 25.4815 21.1389C25.3073 21.5549 25.0995 22.0784 25.0157 22.3065C24.9353 22.5313 24.8247 22.8769 24.7711 23.0749C24.7175 23.2762 24.6471 23.5581 24.6203 23.7057C24.5901 23.8534 24.5432 24.1721 24.5164 24.4104C24.4896 24.6486 24.4662 25.1318 24.4662 25.4841C24.4662 25.8364 24.4796 26.3196 24.4997 26.5578C24.5198 26.796 24.5633 27.2658 24.6002 27.598C24.6404 27.9301 24.7242 28.5576 24.7879 28.9904C24.8515 29.4233 24.9789 30.1849 25.0693 30.6849C25.1598 31.1849 25.2972 31.8928 25.3776 32.2619C25.4815 32.7451 25.5217 33.0068 25.5217 33.2014C25.5184 33.4128 25.5016 33.5001 25.4447 33.6141C25.4044 33.6913 25.314 33.8155 25.2469 33.8926C25.1766 33.9665 25.0358 34.0705 24.9353 34.1174C24.7811 34.1913 24.7041 34.208 24.4829 34.208C24.2852 34.208 24.1746 34.1879 24.064 34.1376C23.9803 34.1007 23.8462 34.0101 23.7658 33.9363C23.6854 33.8658 23.5848 33.7383 23.5446 33.6544C23.4977 33.5638 23.3871 33.1175 23.2665 32.5471C23.1559 32.0203 23.0018 31.2587 22.928 30.8527C22.8543 30.4467 22.7504 29.8192 22.6935 29.4602C22.6365 29.1012 22.5628 28.5576 22.5259 28.2523C22.489 27.9469 22.4321 27.4268 22.4019 27.0947C22.3617 26.6987 22.345 26.1786 22.3416 25.5847C22.3416 24.9304 22.3584 24.5513 22.3986 24.2258C22.4321 23.9775 22.4957 23.5849 22.5427 23.3534C22.5896 23.1219 22.6767 22.7528 22.7404 22.5313C22.8007 22.3099 22.918 21.9475 22.9951 21.726C23.0721 21.5046 23.3167 20.8872 23.5346 20.3503C23.7557 19.8135 24.0004 19.1793 24.0808 18.9411C24.1612 18.7029 24.2651 18.317 24.312 18.0855C24.3589 17.8539 24.4125 17.4614 24.4326 17.2131C24.4527 16.9648 24.4595 16.6326 24.4494 16.4749C24.436 16.3172 24.4058 16.0454 24.379 15.8709C24.3522 15.6964 24.2919 15.4079 24.2483 15.2334C24.2048 15.0589 24.0908 14.6898 23.9937 14.4113C23.8998 14.1362 23.7122 13.653 23.5781 13.3376C23.4441 13.0222 23.119 12.3142 22.8577 11.7606C22.5963 11.207 22.3148 10.603 22.231 10.4184C22.1472 10.2339 21.9998 9.87822 21.9026 9.62992C21.8021 9.38163 21.668 8.99576 21.601 8.7743C21.534 8.55285 21.4435 8.19047 21.4 7.96901C21.3564 7.74756 21.3028 7.37847 21.286 7.14695C21.2626 6.8651 21.2626 6.56311 21.286 6.22422C21.3028 5.94908 21.3497 5.54643 21.3866 5.33505C21.4234 5.12366 21.5038 4.74785 21.5675 4.50291C21.6312 4.26133 21.7552 3.86875 21.8389 3.63387C21.9261 3.39564 22.0802 3.01648 22.1875 2.78496C22.2913 2.55344 22.489 2.17093 22.6231 1.92934C22.7571 1.68775 22.9716 1.33544 23.1023 1.14083C23.233 0.946216 23.424 0.67443 23.5312 0.53686C23.6384 0.39929 23.7758 0.251653 23.8362 0.211389Z" fill="#FFD521"/>
<path d="M0.4929 32.1108C0.563272 32.0672 0.683909 32.0102 0.757631 31.9867C0.834705 31.9632 0.995555 31.9498 1.12624 31.9531C1.28039 31.9632 1.40773 31.9901 1.50156 32.037C1.58198 32.0773 1.70597 32.1679 1.78305 32.2384C1.85677 32.3055 1.9573 32.4464 2.00757 32.547C2.07794 32.7014 2.09804 32.8021 2.1215 33.151C2.1349 33.3825 2.16841 33.6845 2.19857 33.8221C2.22538 33.9597 2.28235 34.171 2.32256 34.2918C2.35942 34.4126 2.4566 34.6475 2.53368 34.8119C2.61075 34.9797 2.73809 35.2213 2.81851 35.3488C2.89559 35.4763 3.03968 35.691 3.13686 35.8185C3.23404 35.946 3.43845 36.1977 3.5926 36.3722C3.74675 36.5433 4.03829 36.8386 4.2427 37.0198C4.44711 37.2043 4.80568 37.4996 5.04695 37.6808C5.28822 37.862 5.65684 38.1203 5.86795 38.2579C6.07907 38.3955 6.41752 38.6035 6.62193 38.7209C6.82635 38.8384 7.26868 39.0733 7.61049 39.2444C7.95229 39.4155 8.49516 39.6672 8.81686 39.8047C9.13856 39.9423 9.66802 40.1537 9.98972 40.2745C10.3114 40.3953 10.8409 40.5765 11.1626 40.6838C11.4843 40.7878 12.0372 40.9556 12.3857 41.0529C12.7342 41.1536 13.2034 41.2777 13.4245 41.3348C13.6457 41.3885 14.1349 41.5025 14.5136 41.5864C14.8923 41.6703 15.4955 41.7945 15.854 41.8582C16.2126 41.9253 16.8459 42.0293 17.2615 42.0931C17.677 42.1568 18.3405 42.2441 18.7359 42.2911C19.1313 42.338 19.8183 42.4085 20.2606 42.4454C20.703 42.4823 21.3128 42.5259 21.6178 42.5461C21.9227 42.5662 22.9314 42.593 23.863 42.6031C24.932 42.6165 25.8803 42.6065 26.4433 42.583C26.9325 42.5628 27.6496 42.5226 28.035 42.4924C28.4204 42.4655 29.0336 42.4118 29.3922 42.3783C29.7507 42.3414 30.3405 42.2709 30.6991 42.2273C31.0576 42.1803 31.5938 42.1032 31.8887 42.0595C32.1836 42.0126 32.7097 41.922 33.0616 41.8549C33.4134 41.7911 33.9462 41.6837 34.2512 41.62C34.5561 41.5529 35.0755 41.4321 35.4073 41.3516C35.739 41.2677 36.2517 41.1335 36.5466 41.0496C36.8415 40.9657 37.4078 40.7912 37.8033 40.6603C38.1987 40.5295 38.7416 40.3416 39.0096 40.2409C39.2777 40.1403 39.767 39.9456 40.0987 39.8047C40.4305 39.6638 41.0035 39.3954 41.3721 39.2075C41.7407 39.0196 42.2467 38.7444 42.4947 38.5968C42.7427 38.4458 43.1012 38.221 43.2889 38.0935C43.4766 37.9693 43.8117 37.721 44.0395 37.5466C44.264 37.3721 44.6293 37.0533 44.8505 36.8419C45.0716 36.6305 45.3665 36.3218 45.5039 36.1541C45.6413 35.9897 45.8424 35.7246 45.9463 35.5669C46.0501 35.4092 46.1875 35.1844 46.2546 35.0636C46.3216 34.9428 46.4288 34.7113 46.4925 34.5435C46.5595 34.3791 46.6466 34.1073 46.6835 33.9395C46.7237 33.7751 46.7673 33.4496 46.784 33.2181C46.8008 32.9866 46.8376 32.7316 46.8644 32.6477C46.8913 32.5638 46.9817 32.4229 47.0622 32.3289C47.1627 32.2115 47.2733 32.131 47.4241 32.0639C47.5816 31.9934 47.6922 31.9699 47.8396 31.9666C47.9502 31.9666 48.1144 31.9901 48.2082 32.0203C48.3121 32.0538 48.4461 32.1343 48.5534 32.235C48.6539 32.3256 48.7678 32.4699 48.8147 32.5638C48.8617 32.6578 48.9052 32.8255 48.9153 32.9497C48.9253 33.0705 48.9186 33.3423 48.8985 33.5537C48.8751 33.765 48.8281 34.0838 48.7913 34.2583C48.7511 34.4328 48.6639 34.7582 48.5902 34.9797C48.5199 35.2011 48.3657 35.577 48.2451 35.8185C48.1278 36.0601 47.91 36.4359 47.7659 36.6574C47.6184 36.8788 47.4107 37.1741 47.3001 37.3117C47.1895 37.4493 46.9717 37.7009 46.8175 37.8653C46.66 38.0331 46.3819 38.3082 46.1976 38.4827C46.0133 38.6572 45.7184 38.9155 45.5441 39.0565C45.3699 39.1974 45.0582 39.4356 44.8572 39.5799C44.6561 39.7275 44.3076 39.9591 44.0864 40.1C43.8653 40.2409 43.5335 40.4422 43.3492 40.5496C43.1649 40.657 42.7896 40.8617 42.5115 41.0059C42.2367 41.1502 41.7441 41.3851 41.4224 41.5327C41.1007 41.6804 40.5411 41.9153 40.1825 42.0595C39.8239 42.2038 39.0834 42.4689 38.5405 42.6501C37.9976 42.8313 37.19 43.0762 36.7477 43.197C36.3054 43.3178 35.6184 43.4923 35.223 43.5829C34.8275 43.6735 34.2244 43.8043 33.8826 43.8714C33.5408 43.9385 32.9007 44.0526 32.4584 44.1231C32.016 44.1969 31.3592 44.2942 31.0007 44.3412C30.6421 44.3848 30.0523 44.4553 29.6938 44.4888C29.3352 44.5257 28.732 44.5794 28.3534 44.6063C27.9747 44.6365 27.3715 44.6734 27.0129 44.6935C26.6544 44.7103 25.8468 44.7338 25.2201 44.7472C24.5499 44.7606 23.6016 44.7539 22.9247 44.7304C22.288 44.7103 21.4368 44.67 21.0314 44.6398C20.6259 44.613 20.0395 44.5694 19.7245 44.5425C19.4095 44.5123 18.8364 44.4519 18.4511 44.4049C18.0657 44.358 17.4391 44.2741 17.0604 44.2204C16.6817 44.1634 16.0115 44.0526 15.5692 43.9721C15.1268 43.8916 14.517 43.7708 14.212 43.7037C13.9071 43.6366 13.3609 43.5057 12.9989 43.4151C12.6337 43.3245 12.0003 43.1534 11.5915 43.0359C11.1793 42.9152 10.5359 42.7138 10.1573 42.583C9.7786 42.4555 9.18212 42.2374 8.83361 42.0998C8.4851 41.9622 8.00256 41.7643 7.76128 41.6569C7.52001 41.5529 7.01735 41.3113 6.63869 41.12C6.26002 40.9321 5.72721 40.6436 5.44907 40.4825C5.17429 40.3215 4.76546 40.0664 4.54429 39.9188C4.32313 39.7712 3.97462 39.5262 3.77356 39.3752C3.5725 39.2209 3.23739 38.9558 3.03633 38.7813C2.83527 38.6035 2.49346 38.2814 2.28235 38.0633C2.06788 37.8418 1.77299 37.513 1.6289 37.3285C1.48145 37.1439 1.27704 36.8654 1.17316 36.7077C1.06928 36.55 0.918481 36.3017 0.834705 36.1541C0.750929 36.0064 0.62359 35.7514 0.549868 35.5837C0.476145 35.4192 0.375614 35.1609 0.325349 35.0132C0.275083 34.8656 0.204712 34.624 0.16785 34.4764C0.130989 34.3288 0.0773724 34.0637 0.0505642 33.8892C0.027107 33.7147 0.0036498 33.4027 0.000298768 33.2013C-0.00305226 32.9463 0.0137029 32.7786 0.0472132 32.6645C0.0773724 32.5739 0.161148 32.4296 0.23152 32.3457C0.301891 32.2618 0.419177 32.1578 0.4929 32.1108Z" fill="#FFD521"/>
<path d="M46.9683 40.9391C47.2264 40.7344 47.4978 40.5431 47.5715 40.5196C47.6452 40.4928 47.8061 40.4693 47.9334 40.4693C48.0809 40.466 48.2183 40.4894 48.3355 40.5297C48.4294 40.5666 48.5835 40.6606 48.6706 40.7411C48.7611 40.8216 48.8717 40.9626 48.9153 41.0531C48.9588 41.1471 49.0058 41.2981 49.0158 41.3887C49.0292 41.4826 49.0192 41.6403 48.999 41.741C48.9789 41.8417 48.9186 41.9927 48.8684 42.0765C48.8181 42.1604 48.6472 42.3349 48.493 42.4658C48.3355 42.5966 48.0574 42.8147 47.8731 42.9556C47.6888 43.0932 47.3503 43.3382 47.1191 43.4925C46.8879 43.6502 46.4824 43.9119 46.2143 44.0696C45.9463 44.2307 45.6011 44.4253 45.447 44.5025C45.1889 44.63 45.142 44.6434 44.9108 44.6434C44.7265 44.6434 44.6126 44.6233 44.5053 44.5729C44.4215 44.536 44.2875 44.4454 44.2037 44.3683C44.1199 44.2944 44.0194 44.1669 43.9792 44.0864C43.9356 44.0059 43.8887 43.8549 43.8753 43.7542C43.8586 43.6536 43.8552 43.5026 43.8686 43.4187C43.882 43.3348 43.9256 43.2039 43.9658 43.1268C44.0027 43.0462 44.0864 42.9288 44.1434 42.8617C44.2037 42.7946 44.4349 42.6369 44.6561 42.5127C44.8773 42.3852 45.2325 42.1705 45.4436 42.0363C45.6547 41.9021 45.9798 41.6806 46.1641 41.5497C46.3484 41.4189 46.7103 41.1437 46.9683 40.9391Z" fill="#FFD521"/>
<path d="M35.2229 45.8143C35.6183 45.7338 36.0271 45.6432 36.1276 45.6197C36.2282 45.5929 36.446 45.5727 36.6135 45.5694C36.885 45.566 36.9352 45.5761 37.1162 45.6633C37.2268 45.717 37.3675 45.8177 37.4312 45.8915C37.4949 45.962 37.5853 46.1029 37.6322 46.2036C37.6959 46.3445 37.716 46.4451 37.716 46.623C37.716 46.8008 37.6959 46.9015 37.6322 47.0424C37.5853 47.1431 37.4881 47.2873 37.4178 47.3612C37.3441 47.435 37.2167 47.5289 37.1329 47.5692C37.0492 47.6095 36.8313 47.6766 36.647 47.7135C36.4627 47.7537 35.95 47.8611 35.5077 47.9517C35.0654 48.0423 34.2946 48.1832 33.7987 48.2671C33.2994 48.3476 32.6158 48.455 32.2739 48.4986C31.9321 48.5456 31.3055 48.6228 30.8833 48.6698L30.8128 48.677C30.3952 48.7202 29.8303 48.7786 29.5261 48.804C29.2044 48.8308 28.5476 48.8744 28.0684 48.9046C27.5892 48.9315 26.8788 48.9684 26.4934 48.9885C26.1081 49.0053 25.4479 49.0221 25.0257 49.0221C24.3287 49.0221 24.2482 49.0154 24.0706 48.9483C23.9366 48.8979 23.8227 48.8207 23.692 48.6899C23.5546 48.5523 23.4909 48.455 23.444 48.3174C23.4105 48.2168 23.3837 48.0423 23.3837 47.9316C23.387 47.7906 23.4105 47.6699 23.4741 47.5289C23.5211 47.4182 23.6182 47.2739 23.6853 47.2035C23.7556 47.1363 23.8729 47.0525 23.9466 47.0122C24.0204 46.9753 24.1544 46.9283 24.2482 46.9115C24.3387 46.8948 24.9587 46.8713 25.6222 46.8612C26.2857 46.8511 27.1 46.8277 27.4317 46.8075C27.7635 46.7874 28.3432 46.7505 28.7219 46.7203C29.1005 46.6934 29.7037 46.6398 30.0623 46.6028C30.4208 46.5659 31.0709 46.4921 31.5032 46.4351C31.9355 46.3814 32.5755 46.2908 32.9274 46.2338C33.2793 46.1801 33.7752 46.0962 34.0332 46.0492C34.2913 46.0022 34.8274 45.8982 35.2229 45.8143Z" fill="#FFD521"/>
</svg>
