<svg width="46" height="46" viewBox="0 0 46 46" fill="none" xmlns="http://www.w3.org/2000/svg">
<path fill-rule="evenodd" clip-rule="evenodd" d="M31.0348 0L31.5104 0.166229C31.769 0.258578 32.1569 0.401719 32.3739 0.494068C32.591 0.5818 32.9096 0.738794 33.0897 0.840378C33.2697 0.946579 33.5376 1.12666 33.6899 1.2421C33.8423 1.35753 34.2348 1.71308 34.5627 2.03168C34.8859 2.35029 35.3061 2.81203 35.4954 3.06138C35.6847 3.3061 35.9295 3.7032 36.0449 3.93408C36.1557 4.16957 36.3404 4.62208 36.6591 5.51786L37.4579 5.57327C37.9012 5.60098 38.3583 5.64715 38.4784 5.67486C38.6031 5.70256 38.7785 5.76259 38.8709 5.81338C38.9678 5.85956 39.1156 5.97038 39.2033 6.05349C39.2911 6.14122 39.4158 6.32592 39.4804 6.46444C39.5958 6.71379 39.6005 6.74149 39.6005 7.71116C39.6005 8.5146 39.5866 8.7547 39.522 8.95787C39.4804 9.09639 39.3973 9.28109 39.3373 9.36882C39.2772 9.45656 39.1387 9.57661 39.0233 9.63202C38.9078 9.68743 38.7 9.75669 38.5615 9.7844C38.423 9.8121 38.0767 9.84442 37.7996 9.85828C37.5225 9.87213 37.1855 9.89522 36.8299 9.93216L36.793 11.5113C36.7745 12.3794 36.7376 13.4507 36.7098 13.8847C36.6868 14.3511 36.6406 14.7482 36.6083 14.8359C36.5713 14.9144 36.4559 15.0622 36.3543 15.1545C36.2481 15.2515 36.0819 15.3669 35.9849 15.4177C35.8925 15.4639 35.7448 15.5147 35.6617 15.5331C35.5462 15.5562 35.5047 15.5932 35.4723 15.7086C35.4492 15.7917 35.4169 16.1103 35.3984 16.4151C35.3846 16.7198 35.3477 17.0938 35.3153 17.2462C35.283 17.4355 35.2045 17.611 35.0798 17.7957C34.969 17.9573 34.8259 18.1051 34.7289 18.1512C34.6412 18.1974 34.4334 18.2574 34.2671 18.2805C34.1009 18.3082 33.279 18.3498 32.4432 18.3775C31.6074 18.4006 30.8086 18.4237 30.4345 18.4237V19.6935L30.7208 19.7304C30.8824 19.7489 31.926 19.7627 33.0435 19.7627C34.1609 19.7673 36.4374 19.7858 38.0997 19.8089C39.7621 19.832 41.2582 19.8735 41.4244 19.9012C41.6245 19.932 41.783 19.989 41.9 20.0721C41.997 20.146 42.1263 20.2753 42.1817 20.363C42.2417 20.4507 42.3248 20.64 42.371 20.7786C42.4264 20.954 42.4541 21.2634 42.5003 22.5563L43.4054 22.6117C44.2458 22.6625 44.3289 22.6763 44.5644 22.7964C44.7491 22.8887 44.8599 22.9903 44.9707 23.1566C45.0538 23.2812 45.1462 23.4613 45.1785 23.549C45.2155 23.6645 45.2339 24.7542 45.2478 27.2892C45.257 29.7918 45.2478 30.9878 45.2108 31.2602C45.1785 31.4772 45.1185 31.7266 45.0723 31.8143C45.0261 31.902 44.9061 32.0544 44.8091 32.1468C44.7121 32.2391 44.569 32.3407 44.4951 32.373C44.412 32.4053 43.8948 32.4423 43.2253 32.4654C42.6019 32.4838 41.8769 32.5023 41.1243 32.5069L40.8934 32.9548C40.7641 33.1995 40.5009 33.6382 40.3069 33.9337C40.113 34.2292 39.836 34.6125 39.6928 34.7926C39.5497 34.9726 39.2634 35.3005 39.0556 35.5267C38.8478 35.753 38.4599 36.1362 38.1921 36.381C37.9243 36.6211 37.4764 36.9858 37.1993 37.1936C36.9223 37.4014 36.4836 37.6969 36.2296 37.8493C35.9757 38.0063 35.6894 38.1679 35.4215 38.3018V40.9338L37.9935 40.9661C39.4111 40.9846 40.6856 41.0215 40.8241 41.0492C40.9626 41.0723 41.1889 41.1646 41.3274 41.2478C41.466 41.3263 41.7061 41.5202 41.8585 41.6726C42.0155 41.8249 42.1909 42.042 42.2463 42.1574C42.3064 42.2821 42.3618 42.5176 42.3849 42.7346C42.4033 42.9378 42.408 43.2702 42.3849 43.4734C42.3618 43.7366 42.311 43.9213 42.214 44.1198C42.1309 44.2907 41.9831 44.4846 41.8308 44.6277C41.6922 44.7524 41.4152 44.9464 40.8472 45.2511L22.146 45.2326C8.75033 45.2234 3.26925 45.2049 2.82135 45.168C2.47965 45.1357 2.04098 45.0849 1.85165 45.0479C1.66233 45.0156 1.44992 44.9556 1.37604 44.9233C1.30678 44.8863 1.05281 44.6416 0.808078 44.3738C0.567964 44.106 0.318614 43.7827 0.258585 43.6581C0.198556 43.5288 0.11544 43.2933 0.078499 43.1271C0.0369407 42.9608 0.00461759 42.6469 0.00461759 42.4206C0.00461759 42.199 0.0277055 41.9081 0.0554111 41.7742C0.0831166 41.6449 0.184704 41.3678 0.281673 41.1646C0.378642 40.9615 0.558729 40.6844 0.683403 40.5459C0.803461 40.412 1.04819 40.1996 1.22828 40.0842C1.40837 39.9641 1.68542 39.821 1.85165 39.7656C2.01789 39.7102 2.3365 39.6363 2.56738 39.5947C2.79826 39.5578 3.05684 39.507 3.14458 39.4793C3.23231 39.4516 3.38931 39.3823 3.4909 39.3223C3.59249 39.2623 3.75872 39.1237 3.86492 39.0129C4.02654 38.8375 4.06348 38.7543 4.15583 38.3711C4.21124 38.131 4.34977 37.4753 4.46059 36.9166C4.57141 36.3579 4.81153 35.1435 4.987 34.2154C5.16247 33.2873 5.56881 31.1401 5.88743 29.4363C6.20604 27.7325 6.73706 24.865 7.06491 23.0642C7.39276 21.2588 7.76679 19.1809 7.89608 18.4468C8.02537 17.7126 8.17314 16.826 8.21931 16.4843C8.27011 16.1426 8.32552 15.7178 8.33937 15.5378C8.35784 15.33 8.3486 15.1406 8.31628 15.0067C8.27472 14.8636 8.19161 14.7343 8.04384 14.5912C7.90993 14.4573 7.72985 14.3418 7.55438 14.2726C7.35582 14.1987 7.11109 14.1571 6.67704 14.1248C6.34457 14.1017 5.88743 14.0417 5.66117 13.9909C5.43029 13.9447 5.06088 13.8385 4.83 13.76C4.59912 13.6769 4.22971 13.5245 3.99883 13.4137C3.76795 13.3029 3.35237 13.0582 3.07532 12.8781C2.72438 12.6472 2.41038 12.384 2.05483 12.0331C1.72236 11.696 1.43607 11.3543 1.22366 11.0357C1.04819 10.7679 0.817314 10.3754 0.711109 10.1584C0.604904 9.94139 0.447906 9.54891 0.355554 9.28109C0.26782 9.01328 0.161616 8.63003 0.120057 8.42686C0.078499 8.22369 0.0277055 7.83121 0.0138528 7.54955C-0.00461759 7.26788 -0.00461759 6.81537 0.0138528 6.5337C0.0277055 6.25204 0.078499 5.85956 0.120057 5.65639C0.161616 5.45322 0.263203 5.07921 0.346319 4.82524C0.434054 4.57128 0.600287 4.16495 0.720344 3.92484C0.840402 3.68473 0.992782 3.40307 1.06205 3.30148C1.12669 3.1999 1.29754 2.95979 1.44069 2.77048C1.58383 2.58116 1.88398 2.24409 2.11024 2.01783C2.3365 1.79619 2.68744 1.49144 2.89061 1.33906C3.09379 1.18669 3.42625 0.969666 3.62943 0.85423C3.8326 0.738793 4.20662 0.56333 4.46059 0.466363C4.71456 0.364779 5.08858 0.240108 5.29176 0.184698C5.55496 0.115436 5.87819 0.0738794 6.39998 0.0507921C6.80633 0.0323222 12.5137 0.00923492 31.0348 0V0ZM6.60777 1.54685C5.88743 1.57455 5.69349 1.59764 5.38411 1.69461C5.18094 1.75925 4.84847 1.89316 4.6453 1.99474C4.44212 2.09633 4.11889 2.29026 3.92957 2.42417C3.74025 2.55807 3.44934 2.78895 3.28772 2.94132C3.12611 3.08908 2.85829 3.37536 2.69667 3.57853C2.53506 3.7817 2.3088 4.10492 2.19797 4.29424C2.08715 4.48355 1.93015 4.79754 1.85165 4.98686C1.77315 5.17617 1.66695 5.49939 1.61616 5.70256C1.55613 5.93805 1.51457 6.31207 1.4961 6.74149C1.47763 7.15706 1.49148 7.58649 1.52381 7.87277C1.55613 8.13596 1.64848 8.5423 1.74083 8.81935C1.82857 9.08716 1.98556 9.46117 2.08715 9.65049C2.19336 9.83981 2.39191 10.1584 2.53506 10.3616C2.68282 10.5601 2.96449 10.8787 3.16767 11.0727C3.37084 11.262 3.70331 11.5252 3.90648 11.6591C4.10966 11.793 4.40056 11.9638 4.55294 12.0423C4.70533 12.1162 5.00547 12.2409 5.2225 12.3194C5.43952 12.3933 5.77199 12.4902 5.96131 12.5318C6.15063 12.5733 6.5893 12.638 6.931 12.6749C7.27271 12.7165 7.68829 12.7811 7.85452 12.8227C8.02076 12.8642 8.27934 12.9612 8.43172 13.0397C8.59795 13.1228 8.85192 13.3214 9.0551 13.5292C9.28136 13.7554 9.46144 13.9909 9.57227 14.1987C9.66462 14.3788 9.77544 14.6558 9.82162 14.822C9.87241 15.0252 9.88626 15.2053 9.86779 15.3761C9.84932 15.5147 9.71079 16.3458 9.55841 17.2231C9.40603 18.1004 9.0828 19.9197 8.84269 21.2634C8.60257 22.6071 8.17775 24.9666 7.89608 26.5042C7.61902 28.0418 7.14803 30.5953 6.85712 32.1837C6.56621 33.7721 6.1691 35.8869 5.97978 36.8843C5.7489 38.0987 5.5919 38.819 5.49493 39.0776C5.42105 39.2853 5.25944 39.5993 5.13938 39.7748C5.01932 39.9503 4.82076 40.1857 4.69147 40.2966C4.5668 40.412 4.29436 40.5829 4.09119 40.6798C3.80951 40.8137 3.54631 40.8922 3.00605 41.003C2.56738 41.0908 2.22106 41.1877 2.10562 41.2524C2.00403 41.3124 1.85165 41.4509 1.76854 41.5617C1.68542 41.6726 1.58383 41.8804 1.54228 42.0189C1.4961 42.1805 1.47763 42.3698 1.49148 42.5499C1.50533 42.7023 1.55613 42.9193 1.60692 43.0347C1.65772 43.1502 1.77777 43.321 1.87936 43.418C1.97633 43.5149 2.13333 43.6165 2.22106 43.6396C2.31341 43.6673 3.50013 43.7043 5.06088 43.7273C6.53389 43.7504 15.1503 43.7689 24.2146 43.7689L40.6856 43.7735C40.898 43.4457 40.9442 43.3118 40.9534 43.1548C40.9627 42.9793 40.9442 42.8823 40.8749 42.7715C40.8195 42.6884 40.7225 42.5961 40.6533 42.5637C40.5609 42.5222 40.0207 42.5037 38.7924 42.4945C37.8412 42.4852 35.1399 42.4575 32.7895 42.4345C30.4392 42.4067 28.3197 42.3652 28.0796 42.3421C27.8395 42.3144 27.3915 42.2498 27.0868 42.199C26.782 42.1482 26.3249 42.0558 26.0709 41.9958C25.8169 41.9358 25.369 41.8111 25.0781 41.7187C24.7872 41.6218 24.3393 41.4648 24.0854 41.3632C23.8314 41.2616 23.3235 41.0354 22.954 40.8599C22.5846 40.6798 22.0259 40.3797 21.7073 40.1904C21.3887 40.0011 20.9131 39.6917 20.6452 39.4977C20.3774 39.3084 19.9526 38.9806 19.6986 38.7682C19.4447 38.5558 19.0199 38.1679 18.7567 37.9047C18.4888 37.6415 18.1056 37.226 17.8978 36.9858C17.69 36.7457 17.3714 36.3486 17.1959 36.1085C17.0158 35.8684 16.7572 35.4944 16.6187 35.2774C16.4802 35.0604 16.2262 34.6356 16.0554 34.3308C15.8891 34.0261 15.6167 33.472 15.4505 33.0933C15.2842 32.7193 15.058 32.1375 14.9425 31.8051C14.8271 31.468 14.6701 30.9508 14.5962 30.6599C14.5223 30.369 14.43 29.9535 14.393 29.7364C14.3515 29.5194 14.2868 29.1038 14.2499 28.8129C14.2083 28.522 14.1575 27.6078 14.1344 26.7813C14.1114 25.9547 14.0929 24.2417 14.0929 22.9719C14.0929 21.7021 14.1114 19.9751 14.1344 19.1394C14.1714 17.8142 14.1899 17.5694 14.273 17.2693C14.3284 17.08 14.4484 16.7568 14.55 16.5536C14.647 16.3504 14.8271 16.0503 14.9564 15.8841C15.0811 15.7178 15.3489 15.4269 15.552 15.2376C15.7598 15.0391 16.0831 14.799 16.3093 14.6697C16.5217 14.5496 16.8958 14.388 17.1359 14.3095C17.5699 14.1664 17.593 14.1664 18.9367 14.1294C19.6848 14.1063 23.6929 14.0879 27.8395 14.0879L35.3754 14.0833V12.7904H11.2715V8.44995C27.7517 8.44995 33.1682 8.4361 33.9393 8.41763L35.343 8.38069C35.2969 6.91234 35.2507 6.29821 35.2137 6.07196C35.1768 5.84109 35.0937 5.49939 35.029 5.31008C34.9644 5.12076 34.8213 4.77907 34.7104 4.5482C34.5996 4.31732 34.3826 3.9664 34.2348 3.76323C34.0824 3.56006 33.7823 3.2276 33.5699 3.02444C33.3575 2.82127 33.0019 2.5396 32.7895 2.39646C32.5725 2.25332 32.2677 2.06862 32.1107 1.99012C31.9491 1.91163 31.6397 1.78696 31.4181 1.70846C31.0164 1.57455 31.0025 1.57455 29.4418 1.52376C28.5783 1.50067 24.5979 1.46835 20.5991 1.45912C16.6002 1.44988 12.0057 1.4545 10.3942 1.47759C8.78266 1.49606 7.07877 1.52838 6.60777 1.54685ZM36.7606 8.44995H38.1921V7.06471H36.7606V8.44995ZM12.7953 11.2666H35.3754C35.3292 10.2461 35.3061 9.94139 35.2969 9.92754C35.283 9.91368 30.2221 9.89522 24.0438 9.88598L12.8092 9.86751L12.7953 11.2666ZM17.5746 15.6994C17.473 15.7317 17.2467 15.8333 17.0666 15.9256C16.8911 16.018 16.6326 16.2073 16.4848 16.3458C16.3417 16.4889 16.1385 16.7383 16.0323 16.8999C15.9261 17.0661 15.7922 17.3478 15.7367 17.5233L15.6352 17.8465C15.6398 25.8301 15.6629 27.8571 15.6952 28.3281C15.7229 28.7344 15.7783 29.2562 15.8199 29.4825C15.8568 29.7134 15.9722 30.1751 16.0738 30.5122C16.1754 30.8492 16.3555 31.3895 16.4756 31.7127C16.591 32.0359 16.8727 32.6639 17.0943 33.1072C17.316 33.5551 17.6808 34.1969 17.907 34.5386C18.1333 34.8849 18.4935 35.3836 18.7059 35.6468C18.9183 35.9146 19.3431 36.3902 19.6478 36.7042C19.9526 37.0182 20.4005 37.443 20.6452 37.6461C20.8854 37.8447 21.2779 38.1541 21.5226 38.3249C21.7627 38.5004 22.1783 38.7728 22.4461 38.9298C22.7093 39.0868 23.1572 39.3269 23.4389 39.4654C23.7806 39.6317 23.9607 39.6917 23.993 39.6594C24.0161 39.6363 24.0438 39.3315 24.053 38.9806L24.0669 38.348C23.4758 38.0294 23.0649 37.7754 22.7693 37.5861C22.4784 37.3922 22.0305 37.069 21.7766 36.8658C21.5226 36.658 21.0839 36.2655 20.8022 35.9885C20.5206 35.7114 20.1373 35.3005 19.948 35.0696C19.7587 34.8433 19.477 34.4786 19.3246 34.2615C19.1722 34.0491 18.9321 33.6844 18.789 33.4535C18.6504 33.2272 18.4334 32.844 18.3134 32.5993C18.1933 32.3592 17.9901 31.902 17.8608 31.5834C17.7362 31.2694 17.5653 30.7707 17.4822 30.4752C17.3945 30.1843 17.2836 29.718 17.2282 29.4363C17.1728 29.1593 17.1036 28.679 17.0666 28.3743C17.0297 28.0695 16.9743 27.3446 16.9466 26.7582C16.9096 26.0471 16.9004 24.9666 16.9235 23.4798C16.9373 22.2608 16.9696 21.1295 16.9974 20.9633C17.0251 20.7647 17.0943 20.58 17.1959 20.4092C17.279 20.2706 17.4176 20.109 17.5053 20.0536C17.593 19.9936 17.7593 19.9243 17.8747 19.9012C17.9855 19.8735 18.9229 19.832 19.9526 19.8089C20.9777 19.7904 23.4389 19.7673 25.4106 19.7673L29.0031 19.7627V18.3775C25.5214 18.3498 25.152 18.3359 24.9627 18.2759C24.8288 18.2297 24.6302 18.1143 24.5009 17.9989C24.3716 17.8834 24.2331 17.708 24.1869 17.6018C24.1269 17.454 24.0992 17.2231 24.0807 16.5905C24.0669 16.138 24.0438 15.7224 24.0346 15.667L24.0161 15.5608C21.3148 15.5747 19.9064 15.5932 19.1445 15.6116C18.2672 15.6301 17.69 15.6624 17.5746 15.6994ZM25.4475 16.8999H33.8977V15.5608H25.4475V16.8999ZM18.3826 22.5794H40.9626V21.1941H18.3826V22.5794ZM18.3826 24.5787C18.3826 24.8373 18.4011 25.6638 18.4288 26.4119C18.4519 27.1645 18.4935 27.9957 18.5212 28.2589C18.5489 28.5267 18.6135 28.9515 18.6643 29.2054C18.7151 29.4594 18.8629 29.9812 18.9875 30.3598C19.1168 30.743 19.3292 31.2833 19.4585 31.5603C19.5924 31.842 19.8141 32.2576 19.9526 32.4838C20.0865 32.7147 20.3313 33.0887 20.4975 33.315C20.6591 33.5458 20.9362 33.8968 21.107 34.0999C21.2779 34.3031 21.6565 34.7002 21.9428 34.9773C22.2337 35.2589 22.7047 35.6653 23.0002 35.8823C23.2911 36.1039 23.6421 36.3533 23.7852 36.441C23.9237 36.5287 24.2562 36.718 24.524 36.8612C24.7872 37.0043 25.2444 37.2167 25.5399 37.3322C25.8308 37.4522 26.2787 37.6046 26.5327 37.6785C26.7866 37.7523 27.1884 37.8539 27.4331 37.9047C27.6732 37.9555 28.0657 38.0248 28.3104 38.0571C28.5644 38.0894 29.1462 38.1171 29.6957 38.1125C30.3283 38.1125 30.8086 38.0848 31.1503 38.034C31.4273 37.9878 31.8937 37.9001 32.1892 37.8355C32.4801 37.7708 32.9881 37.6231 33.3205 37.5122C33.6484 37.3968 34.2533 37.1428 34.6596 36.9443C35.066 36.7457 35.6339 36.4225 35.9295 36.224C36.2204 36.03 36.6683 35.6976 36.9223 35.4898C37.1762 35.2774 37.5687 34.9126 37.7996 34.6725C38.0305 34.437 38.3491 34.0722 38.5107 33.8691C38.6723 33.6659 38.9217 33.3242 39.0694 33.1072C39.2126 32.8948 39.425 32.5485 39.5404 32.3453C39.6559 32.1421 39.859 31.7404 39.9883 31.4449C40.1222 31.154 40.3208 30.6461 40.4316 30.3136C40.5378 29.9858 40.6717 29.4963 40.7271 29.2285C40.7779 28.9653 40.8426 28.5775 40.8703 28.3743C40.9026 28.1711 40.9303 27.1322 40.9442 26.0563L40.9626 24.1031H18.3826V24.5787ZM42.4865 25.1097C42.4818 25.6638 42.4634 26.5735 42.4357 27.1322C42.4126 27.7278 42.3525 28.3789 42.2971 28.7021C42.2463 29.0069 42.1401 29.5148 42.0663 29.8334C41.9924 30.152 41.8862 30.5445 41.8354 30.7107C41.78 30.8769 41.7569 31.0247 41.7753 31.0432C41.7984 31.0616 42.2556 31.094 42.7958 31.1124L43.7794 31.1494V24.1078H42.4865V25.1097ZM31.612 39.4331C31.1872 39.4977 30.6285 39.5439 29.9959 39.5578C29.391 39.5762 28.7861 39.5624 28.4028 39.5301C28.0565 39.4977 27.5578 39.4331 27.2946 39.3869C27.0268 39.3361 26.5188 39.2253 26.1633 39.1376C25.8077 39.0499 25.5122 38.9852 25.5076 38.9898C25.503 38.9944 25.4937 39.1099 25.4845 39.2484C25.4799 39.3915 25.4752 39.6917 25.4799 39.9179L25.4891 40.3335C26.6897 40.6383 27.2576 40.7583 27.5255 40.7953C27.7887 40.8322 28.3612 40.883 28.7953 40.9107C29.2247 40.9384 30.55 40.9569 31.7367 40.9569H33.8977C33.8977 39.1561 33.8839 38.9298 33.8377 38.9298C33.8054 38.9344 33.436 39.0268 33.0204 39.1376C32.6002 39.2438 31.9676 39.3823 31.612 39.4331Z" fill="#FFD521"/>
<path d="M10.7266 20.7786C10.7866 20.6909 10.9067 20.58 10.9944 20.5385C11.0821 20.4923 11.2161 20.4554 11.2946 20.4554C11.373 20.4554 11.5208 20.4969 11.627 20.5477C11.7702 20.6124 11.8533 20.6955 11.9179 20.8248C11.9687 20.9263 12.0103 21.0972 12.0103 21.2034C12.0103 21.3373 11.978 21.4574 11.9041 21.5636C11.8487 21.6513 11.7286 21.7713 11.6409 21.8314C11.5485 21.8914 11.41 21.933 11.3176 21.933C11.2207 21.933 11.0775 21.8822 10.9621 21.8083C10.8559 21.7344 10.7358 21.6236 10.6943 21.5497C10.6573 21.4804 10.625 21.3142 10.625 21.1803C10.625 21.0048 10.6527 20.8986 10.7266 20.7786Z" fill="#FFD521"/>
<path d="M19.1999 5.19928C19.246 5.13464 19.3661 5.04229 19.4677 4.9915C19.5693 4.93609 19.7032 4.89453 19.7678 4.89453C19.8325 4.89453 19.9664 4.93609 20.068 4.98226C20.1696 5.02382 20.3127 5.13464 20.3866 5.22237C20.502 5.36089 20.5159 5.40707 20.502 5.63794C20.4882 5.82726 20.4512 5.93808 20.3589 6.06275C20.285 6.1551 20.1603 6.26592 20.0818 6.30747C19.9756 6.35827 19.8648 6.37212 19.7217 6.35365C19.6062 6.3398 19.44 6.27977 19.3522 6.21974C19.246 6.15048 19.1675 6.0489 19.1306 5.93346C19.0937 5.82264 19.0798 5.66103 19.0937 5.52712C19.1075 5.40707 19.1583 5.25931 19.1999 5.19928Z" fill="#FFD521"/>
</svg>
