<svg width="51" height="51" viewBox="0 0 51 51" fill="none" xmlns="http://www.w3.org/2000/svg">
<path d="M32.9817 31.531L33.6067 30.906C33.9476 30.5651 34.243 30.281 34.2601 30.281C34.2771 30.281 35.5157 31.5082 39.7428 35.7354L38.4645 37.0137L32.9817 31.531Z" fill="#FFD521"/>
<path fill-rule="evenodd" clip-rule="evenodd" d="M36.9307 26.5874C36.9478 26.5874 39.0613 28.6898 41.6294 31.2582C45.5895 35.2301 46.3054 35.9631 46.3338 36.1335C46.3566 36.2415 46.3566 36.4347 46.3338 36.5597C46.2997 36.7586 46.152 36.929 43.7544 39.344L44.9873 40.4236C45.6634 41.0146 47.0611 42.2419 48.0895 43.1511C49.1178 44.0545 50.061 44.9296 50.1746 45.083C50.2939 45.2421 50.4644 45.5319 50.561 45.7365C50.6576 45.941 50.7769 46.282 50.8223 46.5036C50.8678 46.7252 50.9075 47.0661 50.9075 47.2707C50.9075 47.4752 50.8678 47.8162 50.8223 48.0378C50.7769 48.2594 50.6291 48.6515 50.4985 48.9185C50.3167 49.2879 50.1633 49.5038 49.8337 49.8334C49.5042 50.1629 49.2883 50.3164 48.919 50.4982C48.6519 50.6289 48.2599 50.7766 48.0383 50.8221C47.8167 50.8675 47.4758 50.9073 47.2713 50.9073C47.0668 50.9073 46.7259 50.8675 46.5043 50.8221C46.2827 50.7766 45.9304 50.6516 45.7088 50.5436C45.4873 50.4357 45.1805 50.2482 45.0271 50.1288C44.868 50.0038 43.9135 48.9583 42.9021 47.8048C41.8851 46.6513 40.6749 45.2705 39.3454 43.7534L38.067 45.0262C36.9307 46.1513 36.7603 46.299 36.5614 46.3331C36.4364 46.3558 36.2432 46.3558 36.1353 46.3331C35.9648 46.3047 35.1069 45.4694 24.8004 35.1676L26.0788 33.8891L36.3626 44.1739L44.1748 36.3608L35.6523 27.8375L36.2773 27.2124C36.6182 26.8715 36.9137 26.5874 36.9307 26.5874V26.5874ZM40.6863 42.4749C40.6976 42.5147 41.8737 43.867 43.2942 45.4865C44.7146 47.1116 45.9588 48.5094 46.0497 48.6003C46.1407 48.6856 46.3622 48.8276 46.5327 48.9072C46.7827 49.0265 46.9361 49.0549 47.2713 49.0606C47.6122 49.0606 47.7599 49.0322 48.0099 48.9128C48.1804 48.8333 48.4247 48.6685 48.544 48.5435C48.669 48.4242 48.8337 48.1798 48.9133 48.0094C49.0326 47.7594 49.061 47.6116 49.061 47.2707C49.0553 46.9298 49.0269 46.782 48.9076 46.532C48.8281 46.3615 48.6974 46.1513 48.6235 46.0717C48.5553 45.9865 47.5497 45.0944 46.3963 44.083C45.2373 43.0715 43.8907 41.8896 43.3964 41.4578C42.9021 41.0316 42.4817 40.6793 42.4533 40.6793C42.4305 40.6793 42.0215 41.0714 41.5385 41.543C41.0613 42.0203 40.6806 42.4408 40.6863 42.4749Z" fill="#FFD521"/>
<path d="M13.8914 12.4389L14.5163 11.8139C14.8572 11.473 15.1527 11.189 15.1697 11.189C15.1868 11.189 16.4254 12.4162 20.6525 16.6433L19.3741 17.9217L13.8914 12.4389Z" fill="#FFD521"/>
<path fill-rule="evenodd" clip-rule="evenodd" d="M40.3109 0.0233351C40.9813 0.0346995 41.7427 0.0801573 42.0438 0.131297C42.3393 0.176755 42.8506 0.284717 43.1801 0.364268C43.5097 0.449502 44.021 0.608604 44.3165 0.716566C44.6119 0.83021 45.0835 1.03477 45.3676 1.17683C45.6517 1.3132 46.055 1.54617 46.2766 1.68823C46.4982 1.8246 46.8391 2.06893 47.0437 2.23372C47.2482 2.39282 47.5891 2.6883 47.805 2.89286C48.0152 3.09742 48.3618 3.47812 48.5777 3.74519C48.7879 4.01225 49.0777 4.41001 49.214 4.62593C49.3561 4.84186 49.589 5.25666 49.7254 5.53509C49.8674 5.81352 50.072 6.29082 50.1856 6.5863C50.2936 6.88177 50.4413 7.33067 50.5038 7.58069C50.5663 7.83071 50.6572 8.22846 50.7026 8.46143C50.7481 8.6944 50.8163 9.2058 50.8504 9.59788C50.8958 10.0411 50.9072 10.6832 50.8901 11.3025C50.8731 11.848 50.8163 12.5413 50.7708 12.8367C50.7254 13.1322 50.6345 13.5925 50.5663 13.8595C50.4981 14.1266 50.3788 14.5357 50.2992 14.7687C50.2254 15.0017 50.0208 15.4733 49.8561 15.8199C49.6913 16.1665 49.3731 16.712 49.1572 17.0416C48.9413 17.3712 48.5209 17.9166 48.2254 18.2633C47.93 18.6099 47.4357 19.1213 47.1232 19.3997C46.8164 19.6838 46.3164 20.11 46.021 20.343C45.7255 20.5759 45.2653 20.9225 44.9983 21.1157C44.7312 21.3032 44.2312 21.6385 43.8903 21.8544C43.5494 22.076 42.8336 22.5022 42.2995 22.809C41.7654 23.1159 40.7711 23.6443 40.0836 23.9909C39.3962 24.3319 38.311 24.849 37.6689 25.1388C37.0269 25.4285 36.0326 25.8661 35.4531 26.1047C34.8736 26.3491 34.0157 26.6957 33.5498 26.8832C33.0782 27.0707 32.135 27.4344 31.4476 27.6957C30.7601 27.9514 29.4419 28.4344 28.5215 28.764C27.6011 29.0879 26.7318 29.3947 26.5898 29.4402C26.3625 29.5141 26.3341 29.5425 26.3454 29.6902C26.3511 29.7811 26.3568 30.0482 26.3625 30.2812C26.3682 30.5141 26.3398 30.8267 26.3114 30.9744C26.2773 31.1278 26.1693 31.4006 26.0784 31.5881C25.9761 31.7926 25.7148 32.1336 25.4364 32.4234C25.1807 32.6961 23.7035 34.236 22.1581 35.8497C20.6127 37.4578 18.448 39.708 17.3514 40.8501C16.2549 41.9922 13.9367 44.4072 12.1982 46.2198C10.4596 48.0324 8.88008 49.6518 8.68123 49.8109C8.48237 49.9757 8.09034 50.2257 7.81194 50.3621C7.53354 50.4985 7.13582 50.6576 6.93128 50.7087C6.72674 50.7599 6.3063 50.8167 5.99381 50.8337C5.60178 50.8565 5.28361 50.8394 4.97112 50.7769C4.72112 50.7315 4.33477 50.6235 4.11887 50.5383C3.90297 50.453 3.51662 50.2485 3.26663 50.0837C3.01095 49.9132 2.57915 49.5382 2.26666 49.2257C1.97121 48.9132 1.63599 48.5097 1.52804 48.3222C1.41441 48.1347 1.26101 47.8165 1.18146 47.6119C1.09624 47.4074 0.99397 47.0437 0.942835 46.7994C0.8917 46.5607 0.851929 46.163 0.851929 45.9243C0.851929 45.68 0.903063 45.2538 0.95988 44.9697C1.0167 44.6799 1.15874 44.2481 1.28941 43.9753C1.41441 43.7082 1.61895 43.3616 1.73826 43.2025C1.85758 43.0434 4.7609 39.975 8.18124 36.3839C11.6016 32.7927 15.2435 28.9742 16.2662 27.8946C17.2946 26.815 18.3343 25.7354 18.5843 25.4967C18.8286 25.2524 19.1525 24.991 19.3002 24.9171C19.4536 24.8433 19.6979 24.741 19.857 24.6899C20.0161 24.633 20.3286 24.5876 20.5672 24.5876C20.8002 24.5876 21.0729 24.6046 21.3342 24.6614L21.641 23.7921C21.8058 23.3148 22.2035 22.1954 22.5274 21.3033C22.8512 20.4111 23.3626 19.0474 23.6694 18.2633C23.9705 17.4848 24.4478 16.2915 24.7262 15.621C25.0103 14.9505 25.4648 13.888 25.7489 13.2629C26.033 12.6379 26.567 11.5241 26.9363 10.7911C27.3056 10.0581 27.8397 9.0467 28.1295 8.54667C28.4136 8.04663 28.851 7.31931 29.101 6.92723C29.351 6.53516 29.8453 5.83625 30.1976 5.36462C30.5499 4.89868 31.0953 4.23386 31.4078 3.88724C31.7146 3.54631 32.2089 3.05196 32.5043 2.79626C32.7998 2.54056 33.1805 2.22804 33.3509 2.09735C33.5214 1.96665 33.8907 1.71664 34.1747 1.54617C34.4588 1.37002 34.9304 1.10864 35.2258 0.972266C35.5213 0.835893 36.0213 0.637015 36.3338 0.534735C36.6463 0.432455 37.186 0.290399 37.5269 0.227895C37.8678 0.159708 38.3678 0.0858395 38.6348 0.0574284C38.9019 0.0290173 39.6575 0.0119706 40.3109 0.0233351ZM37.7826 2.04052C37.453 2.10871 36.9417 2.25077 36.6463 2.36441C36.3508 2.47237 35.8906 2.67693 35.6236 2.81899C35.3565 2.95536 34.8963 3.23947 34.6009 3.44971C34.2941 3.66564 33.7145 4.17704 33.26 4.62593C32.8168 5.06346 32.2657 5.66578 32.0328 5.96126C31.8055 6.25673 31.4589 6.71699 31.2657 6.98406C31.0782 7.25112 30.7317 7.77388 30.4987 8.14891C30.2601 8.52394 29.8851 9.14898 29.6635 9.54105C29.4363 9.93313 28.9647 10.8252 28.6124 11.5298C28.2545 12.2344 27.7204 13.3425 27.425 14.0016C27.1295 14.6607 26.6693 15.7176 26.4023 16.3597C26.1352 17.0018 25.7091 18.0587 25.4591 18.7178C25.2034 19.377 24.9705 19.9679 24.9421 20.0418C24.908 20.11 24.8853 20.1782 24.8853 20.1952C24.8853 20.2123 25.3171 19.5759 25.8455 18.7917C26.3739 18.0019 27.1579 16.8654 27.5897 16.2745C28.0272 15.6835 28.6465 14.8482 28.976 14.4278C29.3056 14.0073 29.8624 13.3027 30.2203 12.8652C30.5783 12.4276 31.1067 11.8026 31.3851 11.473C31.6691 11.1434 32.243 10.4957 32.6634 10.024C33.0896 9.5581 33.9475 8.66031 34.5725 8.03527C35.1974 7.41022 36.044 6.60903 36.4474 6.25105C36.8565 5.89307 37.4928 5.35894 37.8678 5.05778C38.2428 4.75662 38.7939 4.34182 39.0894 4.13158C39.3848 3.92702 39.8734 3.60313 40.1689 3.41562C40.4643 3.22811 41.0154 2.92127 41.3904 2.73944C41.7654 2.55192 42.1972 2.35305 42.3563 2.29622C42.5097 2.2394 42.6574 2.1769 42.6802 2.15985C42.7029 2.1428 42.4983 2.0803 42.2256 2.02916C41.9529 1.97234 41.4472 1.90415 41.1063 1.87006C40.7654 1.84165 40.2257 1.81892 39.9132 1.81892C39.6007 1.8246 39.1291 1.84733 38.8621 1.87574C38.5951 1.89847 38.1121 1.97234 37.7826 2.04052ZM43.3222 3.88724C43.0722 3.97248 42.5608 4.19409 42.1859 4.3816C41.8109 4.56911 41.1688 4.94414 40.7654 5.20552C40.362 5.47258 39.72 5.92716 39.345 6.21696C38.97 6.50675 38.328 7.02951 37.9246 7.38749C37.5212 7.73979 36.7826 8.42734 36.2826 8.91033C35.7883 9.399 35.0497 10.1547 34.635 10.5923C34.2259 11.0298 33.5441 11.7855 33.118 12.2685C32.6975 12.7515 32.0328 13.53 31.6521 14.0016C31.2714 14.4675 30.601 15.3142 30.1749 15.8767C29.7431 16.4393 29.0954 17.3086 28.7374 17.8087C28.3795 18.3087 27.7829 19.1781 27.4079 19.7406C27.0272 20.3032 26.4818 21.1612 26.1807 21.6442C25.8852 22.1272 25.4705 22.8204 25.2716 23.1784C25.0671 23.5364 24.7375 24.15 24.533 24.5421C24.3341 24.9342 24.141 25.3319 24.1012 25.4229C24.0557 25.5195 28.7374 20.8828 34.9418 14.6835L45.8505 3.7736C45.5664 3.65427 45.2767 3.6145 45.0267 3.59745C44.7767 3.58609 44.3903 3.6145 44.1744 3.65427C43.9528 3.69405 43.5722 3.80201 43.3222 3.88724ZM25.3114 26.8775C26.0159 26.5423 26.4136 26.3434 26.6466 26.2241C26.8795 26.1047 27.4306 25.7979 27.8681 25.5479C28.3056 25.3035 29.0329 24.866 29.4874 24.5819C29.9419 24.3035 30.8226 23.7239 31.4476 23.3034C32.0725 22.8829 32.9532 22.2692 33.4077 21.9397C33.8623 21.6101 34.6634 21.0078 35.1974 20.5987C35.7258 20.1895 36.5213 19.5645 36.9587 19.2065C37.3962 18.8485 38.2542 18.1212 38.8621 17.5871C39.47 17.0529 40.6632 15.9279 41.5097 15.0812C42.3563 14.2403 43.2938 13.2515 43.6006 12.8936C43.9074 12.5356 44.396 11.9333 44.6858 11.5582C44.9755 11.1832 45.3903 10.6093 45.6119 10.2797C45.8278 9.95017 46.1516 9.42741 46.3278 9.11489C46.4982 8.80237 46.7482 8.2796 46.8789 7.95003C47.0096 7.62046 47.1687 7.10906 47.2255 6.81359C47.305 6.43856 47.3277 6.14309 47.3107 5.84761C47.2936 5.61464 47.2482 5.33621 47.2027 5.23393L47.1289 5.0521L25.3114 26.8775ZM48.5266 8.74554C48.3902 9.07511 48.1288 9.62061 47.9414 9.96722C47.7482 10.3082 47.43 10.848 47.2198 11.1605C47.0152 11.473 46.6232 12.0242 46.3562 12.3822C46.0835 12.7401 45.6232 13.314 45.3392 13.6607C45.0494 14.0016 44.4017 14.7289 43.896 15.2744C43.3904 15.8199 42.5324 16.6893 41.9813 17.2064C41.4359 17.7235 40.5893 18.4962 40.1064 18.9167C39.6234 19.3429 38.9246 19.9452 38.5496 20.2577C38.1746 20.5702 37.561 21.0703 37.186 21.3658C36.811 21.6669 36.1463 22.1783 35.7088 22.5079C35.2713 22.8318 34.4872 23.4057 33.9759 23.775C33.4589 24.1444 32.4987 24.8035 31.8453 25.241C31.1862 25.6786 30.7033 26.0138 30.7658 25.9968C30.8283 25.974 31.2487 25.8149 31.7032 25.6388C32.1521 25.4626 32.9986 25.1331 33.5782 24.9001C34.152 24.6671 35.0895 24.2751 35.652 24.0307C36.2145 23.7864 37.0042 23.4341 37.4133 23.2466C37.8167 23.0591 38.6746 22.6443 39.3166 22.326C39.953 22.0078 40.8393 21.5362 41.2768 21.2862C41.7143 21.0362 42.4131 20.6157 42.8392 20.3543C43.2597 20.0873 43.8619 19.6838 44.1744 19.4565C44.4869 19.2292 44.9812 18.8372 45.2823 18.5871C45.5778 18.3428 46.1005 17.8428 46.4471 17.4848C46.788 17.1268 47.2425 16.5927 47.4527 16.2972C47.663 16.0017 47.9754 15.479 48.1459 15.138C48.3163 14.7914 48.5379 14.28 48.6288 14.0016C48.7197 13.7175 48.8504 13.1947 48.9129 12.8367C48.9754 12.4788 49.0436 11.8367 49.0606 11.4162C49.089 10.9446 49.0777 10.3536 49.0322 9.88199C48.9981 9.4615 48.9243 8.89896 48.8675 8.6319L48.7709 8.15459L48.5266 8.74554ZM18.8059 27.8776L17.6412 29.0936L21.9592 33.4064C23.7035 31.6222 24.283 30.9858 24.3739 30.8437C24.5046 30.6505 24.5444 30.5255 24.5444 30.3209C24.5444 30.1732 24.516 29.9914 24.4819 29.9232C24.4478 29.855 23.6978 29.0708 22.8171 28.1844C21.9365 27.3037 21.1467 26.5423 21.0615 26.4968C20.9763 26.4513 20.7831 26.4172 20.6354 26.4172C20.4649 26.4172 20.2945 26.457 20.1695 26.5366C20.0559 26.6048 19.4423 27.2071 18.8059 27.8776ZM6.9256 40.3444C4.10183 43.2991 3.16436 44.3219 3.028 44.5776C2.92573 44.7595 2.80073 45.089 2.7496 45.3049C2.6871 45.5834 2.66437 45.8277 2.6871 46.1005C2.70414 46.3221 2.76664 46.6403 2.82914 46.8107C2.88596 46.9869 3.02232 47.2653 3.13595 47.4358C3.24958 47.6119 3.52798 47.9301 3.75525 48.1461C4.03365 48.4018 4.31205 48.6006 4.5734 48.7256C4.7893 48.8279 5.14725 48.9416 5.36883 48.9813C5.67564 49.0325 5.85745 49.0325 6.19267 48.9813C6.42562 48.9416 6.75515 48.845 6.93128 48.7654C7.10173 48.6859 7.34036 48.5438 7.46536 48.4415C7.59035 48.3449 8.93122 46.9698 10.4482 45.3902C11.9652 43.8162 14.7947 40.8728 16.7264 38.8556C18.6582 36.8441 20.3456 35.0826 20.4763 34.9519L20.7093 34.7076C17.4025 31.4062 16.4253 30.4459 16.4083 30.4459C16.3855 30.4459 15.0788 31.7983 13.5049 33.4462C11.9311 35.094 8.97099 38.1965 6.9256 40.3444Z" fill="#FFD521"/>
<path d="M5.39191 44.5263C5.53395 44.3786 5.75554 44.2195 5.88053 44.1684C6.02257 44.1173 6.23848 44.0945 6.4487 44.1059C6.63619 44.1173 6.86346 44.1684 6.96004 44.2138C7.05663 44.265 7.21572 44.39 7.32367 44.4922C7.42594 44.6002 7.55093 44.765 7.60207 44.8559C7.64752 44.9468 7.69866 45.157 7.71002 45.3104C7.72706 45.4695 7.71002 45.7081 7.67025 45.8502C7.6248 46.032 7.51684 46.1911 7.30662 46.3956C7.11913 46.5831 6.93732 46.7138 6.78959 46.7535C6.6646 46.7876 6.47142 46.816 6.36347 46.816C6.25552 46.816 6.06234 46.7876 5.93735 46.7535C5.78963 46.7138 5.60781 46.5888 5.42032 46.3956C5.22714 46.2081 5.10215 46.0263 5.06238 45.8786C5.02829 45.7536 4.99988 45.5604 4.99988 45.4524C4.99988 45.3445 5.02829 45.1513 5.06238 45.0263C5.10215 44.89 5.23851 44.6854 5.39191 44.5263Z" fill="#FFD521"/>
<path fill-rule="evenodd" clip-rule="evenodd" d="M3.63625 0.000479533C3.88056 -0.00520269 4.24418 0.0402551 4.4885 0.102759C4.72144 0.159582 5.06802 0.284591 5.25552 0.381188C5.44301 0.472104 5.72709 0.648253 5.8805 0.773261C6.03958 0.89827 6.90319 1.84152 7.80657 2.87C8.71563 3.89848 9.92582 5.27926 11.5621 7.14871L12.8405 5.8759C13.8802 4.84173 14.1586 4.5974 14.3177 4.56898C14.4257 4.54626 14.6189 4.54626 14.7439 4.56898C14.9541 4.60308 15.3404 4.97242 24.289 13.9162L23.0106 15.1947L14.545 6.72823L6.73274 14.5413L17.0165 24.8261L15.7381 26.1046L10.1758 20.536C5.43733 15.7971 4.60213 14.939 4.57372 14.7686C4.55099 14.6606 4.55099 14.4674 4.57372 14.3424C4.60781 14.1378 4.75553 13.9731 7.15887 11.5581L6.40889 10.899C5.99413 10.541 5.11916 9.7739 4.46009 9.19431C3.80102 8.62041 2.74423 7.68852 2.10789 7.12598C1.46586 6.56344 0.852246 5.97818 0.732931 5.81907C0.619299 5.66565 0.454531 5.39291 0.369307 5.22244C0.284082 5.05197 0.164768 4.71672 0.107951 4.48375C0.0454531 4.25078 0 3.87575 0 3.65983C0 3.4439 0.0397715 3.08024 0.0852246 2.86432C0.130678 2.64839 0.2784 2.25064 0.409078 1.98357C0.590891 1.61423 0.744295 1.39831 1.07383 1.06874C1.40336 0.74485 1.61927 0.585748 1.98857 0.403917C2.25561 0.267544 2.63628 0.125488 2.84082 0.0857128C3.04536 0.0402551 3.4033 0.000479533 3.63625 0.000479533ZM2.784 2.0404C2.65901 2.1029 2.46015 2.25064 2.34652 2.36997C2.23288 2.48361 2.0738 2.72226 1.99426 2.89273C1.88062 3.13706 1.85221 3.29617 1.85221 3.63142C1.84653 3.96099 1.88062 4.12009 1.97721 4.3417C2.05107 4.5008 2.1647 4.68831 2.23288 4.76786C2.30106 4.84741 3.02263 5.50087 3.83511 6.21683C4.64758 6.93279 6.01117 8.12605 6.86342 8.87043C7.70998 9.6148 8.42587 10.2228 8.45428 10.2228C8.47701 10.2228 8.88608 9.83072 9.36902 9.3591C9.84628 8.88179 10.227 8.4613 10.2213 8.42153C10.2099 8.38744 10.0565 8.19424 9.88037 7.99536C9.70424 7.79648 8.52246 6.4498 7.24977 4.99515C5.92595 3.48368 4.82371 2.27337 4.67031 2.16541C4.52258 2.06313 4.27259 1.93812 4.11919 1.89266C3.9601 1.8472 3.7442 1.81311 3.63625 1.81879C3.5283 1.82447 3.3408 1.8472 3.22149 1.87561C3.10786 1.90402 2.909 1.97789 2.784 2.0404Z" fill="#FFD521"/>
</svg>
