<svg width="57" height="50" viewBox="0 0 57 50" fill="none" xmlns="http://www.w3.org/2000/svg">
<path d="M12.4958 4.33656C12.4958 4.27764 12.8026 4.03017 13.1802 3.78271C13.5459 3.52346 13.8881 3.31134 13.9471 3.31134C13.9943 3.29956 14.2538 3.62951 14.5252 4.04196C14.7966 4.44262 15.0915 4.94934 15.1741 5.16145C15.2567 5.36178 15.3275 5.82136 15.3275 6.1631C15.3275 6.50484 15.2213 6.98799 15.1033 7.24724C14.9854 7.5065 14.6668 7.91894 14.3954 8.16641C14.0533 8.4728 13.9117 8.69669 13.9117 8.93238C13.9117 9.10914 14.1241 9.56872 14.3836 9.9576C14.6432 10.3465 14.8556 10.7 14.8556 10.7589C14.8556 10.8061 14.5252 11.0653 13.3807 11.8195L13.1448 11.5131C13.015 11.3481 12.72 10.9003 12.4958 10.5232C12.1773 9.99295 12.0829 9.68656 12.0475 9.13271C12.0121 8.68491 12.0711 8.26068 12.1891 7.95429C12.2835 7.69504 12.6138 7.25903 12.9088 6.98799C13.2863 6.62268 13.4397 6.387 13.4397 6.1631C13.4397 5.97456 13.2274 5.51498 12.9678 5.1261C12.7082 4.73722 12.4958 4.3837 12.4958 4.33656Z" fill="#FFD521"/>
<path d="M7.77666 4.33656C7.77666 4.27764 8.08343 4.03017 8.46098 3.78271C8.82674 3.52346 9.1689 3.31134 9.22789 3.31134C9.27509 3.29956 9.53466 3.62951 9.80603 4.04196C10.0774 4.44262 10.3724 4.94934 10.455 5.16145C10.5375 5.36178 10.6083 5.82136 10.6083 6.1631C10.6083 6.50484 10.5021 6.98799 10.3842 7.24724C10.2662 7.5065 9.94761 7.91894 9.67624 8.16641C9.33408 8.4728 9.1925 8.69669 9.1925 8.93238C9.1925 9.10914 9.40487 9.56872 9.66444 9.9576C9.92401 10.3465 10.1364 10.7 10.1364 10.7589C10.1364 10.8061 9.80603 11.0653 8.66156 11.8195L8.42559 11.5131C8.2958 11.3481 8.00084 10.9003 7.77666 10.5232C7.4581 9.99295 7.36371 9.68656 7.32832 9.13271C7.29292 8.68491 7.35191 8.26068 7.4699 7.95429C7.56429 7.69504 7.89465 7.25903 8.18962 6.98799C8.56717 6.62268 8.72055 6.387 8.72055 6.1631C8.72055 5.97456 8.50818 5.51498 8.24861 5.1261C7.98904 4.73722 7.77666 4.3837 7.77666 4.33656Z" fill="#FFD521"/>
<path fill-rule="evenodd" clip-rule="evenodd" d="M27.3623 0H29.2501V1.82654L30.3945 1.90903C31.1497 1.95617 31.8222 2.07401 32.3177 2.26256C32.7425 2.41575 33.3324 2.68678 33.651 2.86355C33.9577 3.04031 34.5005 3.48811 34.8662 3.8652C35.232 4.23051 35.6685 4.77258 35.8337 5.06718C36.0107 5.36178 36.2821 5.93921 36.4354 6.36344C36.6832 7.03513 36.7304 7.36509 36.8248 11.2539L37.3675 11.4306C37.7215 11.5485 38.0282 11.7606 38.63 12.5148L38.689 22.6255H42.5825L42.5235 22.3663C42.4881 22.2131 42.4645 21.7889 42.4645 20.7401H40.5767V18.8546H41.5796C42.5589 18.8546 42.5825 18.8428 42.5235 18.5954C42.4881 18.4422 42.4645 18.018 42.4645 16.9692H40.5767V15.0837H41.5796C42.5589 15.0837 42.5825 15.0719 42.5235 14.8244C42.4881 14.6713 42.4645 14.247 42.4645 13.1982H40.5767V11.3128H54.7351V13.1982H52.8473V13.8817C52.8473 14.247 52.8237 14.6713 52.7883 14.8244C52.7293 15.0719 52.7529 15.0837 54.7351 15.0837V16.9692H52.8473V17.6526C52.8473 18.018 52.8237 18.4422 52.7883 18.5954C52.7293 18.8428 52.7529 18.8546 54.7351 18.8546V20.7401H52.8473V21.4236C52.8473 21.7889 52.8237 22.2131 52.7883 22.3663C52.7293 22.6256 52.7529 22.6255 53.9092 22.6255C54.6053 22.6255 55.2424 22.6845 55.4784 22.7787C55.679 22.8612 56.0211 23.1441 56.5639 23.8393V25.4655C56.5639 26.9385 56.5403 27.1153 56.3161 27.4217C56.1745 27.5985 55.915 27.8577 55.7498 27.9873C55.4548 28.1994 55.2188 28.223 50.9595 28.2819V34.6218C50.9595 39.3001 50.9123 41.0677 50.8062 41.4095C50.7354 41.6687 50.4522 42.1165 50.1808 42.4111C49.8662 42.7725 49.5122 43.0239 49.1189 43.1653C48.7178 43.3067 48.1987 43.3656 46.2401 43.3656V49.022H44.3523V43.3656H12.2601V49.022H10.3723V43.3656H9.21602C8.59069 43.3656 7.85918 43.2949 7.59961 43.2242C7.31644 43.13 6.89169 42.8471 6.53773 42.4818C6.17197 42.1283 5.88881 41.7041 5.79442 41.4213C5.70003 41.0795 5.65283 39.1941 5.65283 28.2819L1.20476 28.223L0.756408 27.8695C0.508637 27.6809 0.22547 27.3274 0.131081 27.1035C0.0130946 26.8089 -0.0223012 26.3022 0.0130946 25.2534C0.0484905 24.0161 0.0838864 23.7804 0.296261 23.4858C0.437845 23.309 0.697415 23.0498 0.862595 22.9202C1.09857 22.7552 1.44073 22.6727 2.06605 22.6255C2.88016 22.5666 2.95095 22.5431 2.89196 22.3309C2.85656 22.2013 2.82117 20.7283 2.82117 16.0264H0.933387V14.141H4.35499L3.81225 12.5265C3.45829 11.4542 3.17512 10.8061 2.98635 10.6411C2.75037 10.4054 2.5734 10.37 0.933387 10.37V8.48458L2.08965 8.51993C3.09253 8.5435 3.30491 8.59064 3.80045 8.87346C4.10722 9.05022 4.48477 9.36839 4.63815 9.58051C4.80333 9.78084 5.23988 10.8885 6.32536 14.082L16.0356 14.141V16.0264H14.1478V19.0667C14.1478 20.7283 14.1242 22.2131 14.0299 22.6255H17.9234V17.7351C17.9234 13.9289 17.9588 12.7622 18.0768 12.4558C18.1712 12.2555 18.4071 11.9373 18.6077 11.7488C18.8201 11.572 19.1741 11.407 19.8112 11.3128V9.62764C19.8112 8.70848 19.8702 7.63612 19.941 7.24725C20.0118 6.85837 20.2713 6.11597 20.5191 5.59747C20.8495 4.9022 21.1798 4.44262 21.7697 3.84163C22.3715 3.25242 22.8316 2.92247 23.5277 2.59251C24.0469 2.34504 24.7902 2.08579 25.1796 2.01509C25.5689 1.94438 26.2178 1.88546 27.3623 1.88546V0ZM24.1295 4.39548C23.7519 4.6076 23.221 5.00826 22.9614 5.30286C22.69 5.59747 22.3125 6.17489 22.1237 6.59912C21.7697 7.34152 21.7579 7.41222 21.7344 9.34482L21.699 11.3128H34.9134C34.8544 7.41222 34.8426 7.34152 34.4887 6.59912C34.2999 6.17489 33.8987 5.5739 33.6156 5.26751C33.2734 4.89042 32.7779 4.53689 32.2115 4.26586L31.3266 3.82985C27.0201 3.79449 25.5571 3.84163 25.2975 3.90055C25.038 3.97126 24.5188 4.18337 24.1295 4.39548ZM19.8112 16.9692H36.8012V13.1982H19.8112V16.9692ZM44.3523 13.8464C44.3523 14.3767 44.3995 14.5416 44.6473 14.7891L44.9422 15.0837H50.3814C50.9123 14.5534 50.9595 14.3767 50.9595 13.8464V13.1982H44.3523V13.8464ZM4.70895 22.0363L5.29888 22.6255H11.6819L12.2601 22.0363V16.0264H4.70895V22.0363ZM44.3523 17.6173C44.3523 18.1476 44.3995 18.3126 44.6473 18.56L44.9422 18.8546H50.3814C50.9123 18.3243 50.9595 18.1476 50.9595 17.6173V16.9692H44.3523V17.6173ZM19.8112 22.6255L21.9703 22.5666L23.2328 18.8546H19.8112V22.6255ZM24.5306 20.8815L23.9407 22.6255H32.6717L31.4092 18.9135C25.9229 18.8546 25.2267 18.8782 25.1796 18.996C25.1442 19.0785 24.861 19.927 24.5306 20.8933V20.8815ZM34.642 22.5548L36.8012 22.6138V18.8428H33.4032L34.642 22.5548ZM44.3523 21.3764C44.3523 21.9067 44.4113 22.0717 44.6473 22.3192L44.9422 22.6138H50.3814C50.9123 22.0835 50.9595 21.9067 50.9595 21.3764V20.7283H44.3523V21.3764ZM1.87728 26.3847H5.65283V24.4992H1.87728V26.3847ZM7.54061 40.8792L8.13055 41.4684H48.4936L49.0718 40.8792V24.4992H7.54061V40.8792ZM50.9595 26.3847H54.7351V24.4992H50.9595V26.3847Z" fill="#FFD521"/>
</svg>
