<svg width="55" height="53" viewBox="0 0 55 53" fill="none" xmlns="http://www.w3.org/2000/svg">
<path fill-rule="evenodd" clip-rule="evenodd" d="M27.3087 0.00135447C44.6664 -0.00475638 47.0581 0.00746532 47.3693 0.0869063C47.5584 0.135793 47.8634 0.251899 48.0343 0.343562C48.2112 0.429114 48.5102 0.655215 48.6993 0.844651C48.9311 1.07279 49.1203 1.33963 49.2667 1.64517C49.3826 1.89572 49.5107 2.2807 49.5474 2.50069C49.584 2.75735 49.6084 5.98387 49.6084 20.6499L53.4094 20.6805L54.6784 25.3858L49.6084 45.7044V47.8004C49.6084 48.9492 49.5779 50.0675 49.5474 50.2875C49.5107 50.5075 49.3826 50.8925 49.2667 51.143C49.1142 51.4547 48.9372 51.7113 48.6993 51.9374C48.5102 52.1208 48.2173 52.3469 48.0526 52.4385C47.8817 52.5302 47.5828 52.6463 47.3815 52.6952C47.052 52.7868 45.0081 52.7929 27.3392 52.7929C9.67031 52.7929 7.62642 52.7868 7.29696 52.6952C7.09563 52.6463 6.79057 52.5302 6.62584 52.4385C6.45501 52.3469 6.16825 52.1208 5.97912 51.9374C5.74117 51.7113 5.56424 51.4547 5.41171 51.143C5.29579 50.8925 5.16767 50.5075 5.13106 50.2875C5.10055 50.0675 5.07005 48.9492 5.07005 45.7044L0 25.3858L1.26904 20.6805L5.07005 20.6499V11.7708C5.07005 5.98387 5.09445 2.75735 5.13106 2.50069C5.16767 2.2807 5.29579 1.89572 5.41171 1.64517C5.56424 1.33352 5.74117 1.07686 5.97912 0.850762C6.16825 0.667437 6.45501 0.441335 6.62584 0.349673C6.79057 0.25801 7.08342 0.141904 7.26646 0.0930171C7.55931 0.0135762 10.0425 0.00135447 27.3087 0.00135447ZM7.40068 2.21348C7.32137 2.28681 7.21765 2.42125 7.16884 2.51902C7.09563 2.65346 7.08342 3.33177 7.08342 6.41163V10.1392H47.595L47.6011 2.65346C47.3815 2.32959 47.2411 2.17682 47.1496 2.1096L46.9788 1.98127C14.4902 1.96294 7.79726 1.98127 7.69354 2.01793C7.60812 2.0546 7.4739 2.14015 7.40068 2.21348ZM7.08342 20.6499L8.61481 20.6193C8.97478 19.6722 9.18222 19.1894 9.31034 18.9389C9.43236 18.6883 9.68251 18.2606 9.85334 17.9917C10.0303 17.7228 10.378 17.2584 10.6343 16.9528C10.8844 16.6534 11.3115 16.2134 11.5739 15.9812C11.8423 15.7551 12.2877 15.4068 12.5744 15.2112C12.8612 15.0218 13.3371 14.7346 13.6421 14.5818C13.9411 14.4352 14.478 14.2091 14.8319 14.0869C15.1857 13.9646 15.747 13.7996 16.0826 13.7324C16.589 13.6224 16.8941 13.598 17.8824 13.598C18.8708 13.598 19.1759 13.6224 19.6823 13.7324C20.0178 13.7996 20.5791 13.9646 20.933 14.0869C21.2869 14.2091 21.8116 14.4291 22.1044 14.5757L22.6413 14.8446C23.4711 14.4291 23.9531 14.2274 24.2581 14.1235C24.5571 14.0196 25.094 13.873 25.4479 13.7935C25.997 13.6774 26.2715 13.6591 27.3392 13.6591C28.3947 13.6591 28.6876 13.6774 29.2001 13.7935C29.5356 13.8608 30.0298 13.9952 30.2983 14.0807C30.5667 14.1663 31.0609 14.3741 31.3965 14.5329L32.0066 14.8263C32.8546 14.4046 33.422 14.1724 33.8064 14.0441C34.1908 13.9157 34.7704 13.763 35.0877 13.7019C35.5086 13.6285 35.9723 13.598 36.796 13.598C37.7294 13.598 38.0345 13.6224 38.5653 13.7385C38.9192 13.8119 39.4805 13.9646 39.816 14.0746C40.1516 14.1907 40.6702 14.4046 40.9753 14.5574C41.2742 14.704 41.7684 14.9974 42.0735 15.199C42.3724 15.4007 42.8422 15.7612 43.1107 15.9934C43.3791 16.2318 43.7757 16.6351 43.9953 16.8917C44.215 17.1545 44.5383 17.5761 44.7153 17.8328C44.8983 18.0895 45.2033 18.6272 45.3986 19.0305C45.5938 19.4338 45.8196 19.9655 45.8989 20.2099L46.0392 20.6499H47.595V12.1558H7.08342V20.6499ZM15.8996 15.3029C15.5945 15.3762 15.143 15.5229 14.8929 15.6329C14.6427 15.7368 14.2157 15.9446 13.9472 16.0973C13.6788 16.2501 13.2578 16.5373 13.0076 16.7267C12.7575 16.9162 12.3365 17.3073 12.062 17.5945C11.7874 17.8817 11.3847 18.3889 11.159 18.725C10.9332 19.0611 10.6404 19.5683 10.5123 19.8555C10.378 20.1427 10.256 20.436 10.2316 20.5155C10.195 20.6499 10.2072 20.6499 10.7258 20.6499H11.2627C11.7325 19.7272 12.0253 19.2505 12.2145 19C12.4036 18.7494 12.7758 18.3339 13.0442 18.0833C13.3066 17.8328 13.7154 17.4967 13.9472 17.3378C14.1852 17.1789 14.6366 16.9284 14.9539 16.7756C15.2712 16.6229 15.8081 16.4273 16.1436 16.3418C16.6012 16.2195 16.9612 16.1707 17.5774 16.1462C18.0655 16.1279 18.5902 16.1401 18.8586 16.1829C19.1088 16.2195 19.5786 16.3234 19.8958 16.409L20.4754 16.5679C21.232 15.7979 21.2381 15.7918 21.0977 15.7184C21.0245 15.6757 20.7134 15.5596 20.4144 15.4618C20.1094 15.364 19.6457 15.2357 19.3772 15.1807C19.1088 15.1257 18.5475 15.0707 18.1265 15.0585C17.7055 15.0463 17.1564 15.0646 16.9063 15.0951C16.6561 15.1318 16.1985 15.2235 15.8996 15.3029ZM34.9656 15.2479C34.7155 15.3029 34.2884 15.4251 34.02 15.5229C33.7515 15.6268 33.3 15.8284 33.0133 15.9812C32.7265 16.134 32.2811 16.4151 32.0127 16.6045C31.7503 16.794 31.2805 17.2156 30.9755 17.5334C30.6704 17.8511 30.2433 18.3767 30.0298 18.6944C29.8163 19.0122 29.5295 19.5255 29.3831 19.8249C29.2428 20.1244 29.1085 20.436 29.0841 20.5155C29.0475 20.6499 29.0597 20.6499 29.5783 20.6499H30.1152C30.3227 20.1549 30.5484 19.7577 30.7436 19.4583C30.945 19.1589 31.3233 18.6761 31.5856 18.395C31.8541 18.1078 32.2872 17.7167 32.5557 17.515C32.8241 17.3134 33.3427 17.0078 33.7149 16.8245C34.081 16.6412 34.6606 16.4212 34.9961 16.3295C35.5574 16.1768 35.6917 16.1645 36.7655 16.1645C37.8271 16.1645 37.9735 16.1829 38.5348 16.3295C38.8704 16.4212 39.4439 16.6412 39.816 16.8245C40.1821 17.0017 40.7068 17.3195 40.9753 17.515C41.2437 17.7167 41.6769 18.1139 41.9453 18.395C42.2077 18.6761 42.5616 19.1161 42.7263 19.3666C42.8971 19.6172 43.1168 20.0083 43.2205 20.2405L43.4157 20.6499C44.2455 20.6499 44.4834 20.6377 44.4834 20.6193C44.4834 20.601 44.3919 20.3749 44.2821 20.1183C44.1722 19.8555 43.9709 19.4522 43.8306 19.2139C43.6964 18.9755 43.4157 18.5661 43.2205 18.2972C43.0191 18.0283 42.6104 17.5761 42.3114 17.2889C42.0124 17.0017 41.5366 16.6106 41.2498 16.4212C40.9631 16.2318 40.536 15.9812 40.3041 15.8651C40.0662 15.749 39.6696 15.5779 39.4195 15.4923C39.1693 15.4007 38.6873 15.2724 38.3518 15.2051C38.0162 15.1379 37.4 15.0707 36.979 15.0585C36.558 15.0463 36.0394 15.0585 35.8198 15.089C35.6001 15.1196 35.2158 15.1929 34.9656 15.2479ZM24.8072 15.4801C24.4717 15.5901 24.0019 15.7796 23.77 15.9018C23.5321 16.0179 23.0806 16.2868 22.7634 16.5006C22.44 16.7145 21.9397 17.1362 21.6346 17.4417C21.3296 17.7473 20.9269 18.2117 20.7378 18.4806C20.5486 18.7494 20.2436 19.2689 20.0544 19.6416C19.8714 20.0144 19.7067 20.3871 19.6884 20.4849L19.6518 20.6499H20.689C20.933 20.106 21.1465 19.7272 21.3235 19.4583C21.5004 19.1894 21.8055 18.78 22.0068 18.5417C22.2081 18.3033 22.5986 17.9367 22.8671 17.7167C23.1355 17.4967 23.5748 17.1973 23.8372 17.0445C24.1056 16.8917 24.551 16.684 24.8377 16.574C25.1245 16.4701 25.637 16.3234 25.9787 16.2562C26.3935 16.1707 26.845 16.1279 27.2904 16.1279C27.6687 16.1279 28.2117 16.1645 28.4984 16.2134C28.7852 16.2684 29.194 16.3601 29.4136 16.4273L29.8102 16.5556L30.6643 15.7734C30.2861 15.6146 29.9627 15.5046 29.7003 15.4251C29.4441 15.3396 28.9926 15.2296 28.6937 15.1807C28.3764 15.1257 27.8273 15.089 27.3087 15.0951C26.8389 15.1013 26.2227 15.1379 25.9359 15.1868C25.6492 15.2357 25.1428 15.3701 24.8072 15.4801ZM15.747 18.0467C15.4603 18.1689 15.0759 18.3583 14.8929 18.4683C14.7098 18.5722 14.2889 18.9389 13.9472 19.275C13.6116 19.6111 13.2334 20.0571 13.1052 20.271L12.8795 20.6499L18.0777 20.6193C18.3827 19.7699 18.5902 19.2872 18.7366 19C18.8769 18.7128 19.0905 18.3339 19.2003 18.1628C19.3162 17.9856 19.4016 17.8267 19.3894 17.8084C19.3833 17.79 19.1576 17.735 18.8891 17.6861C18.6207 17.6373 18.1509 17.6006 17.8519 17.6006C17.5469 17.6006 17.071 17.6495 16.7842 17.7106C16.4975 17.7717 16.0338 17.9184 15.747 18.0467ZM25.9054 17.7839C25.637 17.8511 25.1977 18.01 24.9293 18.1383C24.6608 18.2728 24.2215 18.5417 23.9531 18.7372C23.6846 18.9389 23.343 19.2383 23.1965 19.4033C23.0501 19.5683 22.7939 19.8922 22.6291 20.1305C22.4705 20.3688 22.3363 20.5766 22.3363 20.6071C22.3363 20.6316 23.4955 20.6499 24.911 20.6499H27.4917C27.6626 20.106 27.8273 19.6844 27.9676 19.3666C28.108 19.0489 28.3581 18.5661 28.5167 18.2972C28.6754 18.0283 28.8035 17.8022 28.7913 17.7961C28.7791 17.79 28.5594 17.7411 28.2971 17.6861C28.0408 17.6373 27.5894 17.6006 27.2904 17.6006C26.9975 17.6067 26.6742 17.625 26.5766 17.6373C26.4728 17.6495 26.1739 17.7167 25.9054 17.7839ZM34.9961 17.8756C34.8253 17.9306 34.4958 18.0711 34.264 18.1933C34.0261 18.3094 33.6722 18.5233 33.4709 18.6639C33.2695 18.8105 32.934 19.1039 32.7265 19.3177C32.5191 19.5255 32.2079 19.9105 32.0371 20.161L31.7259 20.6193C35.6795 20.6438 37.9491 20.6438 39.3157 20.6377L41.805 20.6193C41.323 19.9105 41.0119 19.5255 40.8044 19.3177C40.597 19.1039 40.2614 18.8105 40.0601 18.6639C39.8587 18.5172 39.4622 18.285 39.1754 18.1506C38.8887 18.0161 38.4372 17.845 38.1687 17.7717C37.8393 17.6861 37.4366 17.6373 36.918 17.6189C36.4055 17.6067 36.015 17.625 35.7283 17.6861C35.4903 17.735 35.1609 17.8206 34.9961 17.8756ZM2.54418 23.4914C2.42215 23.9253 2.32453 24.3042 2.32453 24.3286C2.32453 24.3592 13.5811 24.3775 27.3392 24.3775C41.0973 24.3775 52.3539 24.3592 52.3539 24.3286C52.3539 24.3042 52.2563 23.9253 52.1342 23.4914C52.0122 23.0576 51.9085 22.6787 51.8902 22.6481C51.878 22.6237 40.8288 22.6054 27.3392 22.6054C13.8557 22.6054 2.80652 22.6237 2.78822 22.6481C2.77602 22.6787 2.6662 23.0576 2.54418 23.4914ZM4.50264 35.3343C5.72287 40.2474 6.74786 44.3722 6.77837 44.4944L6.83938 44.7266H47.839C47.9305 44.3722 48.9555 40.2474 50.1697 35.3343L52.3844 26.3941H2.28793L4.50264 35.3343ZM7.07732 48.4115C7.07732 50.1103 7.08342 50.1408 7.21765 50.3486C7.29086 50.4586 7.43119 50.6114 7.52881 50.6847L7.69964 50.8069H46.9727C47.2411 50.6114 47.3815 50.4586 47.4608 50.3486C47.595 50.1408 47.595 50.1103 47.595 48.4115V46.6821H7.08342L7.07732 48.4115Z" fill="#FFD521"/>
<path fill-rule="evenodd" clip-rule="evenodd" d="M7.42519 37.8213C7.63873 37.8213 7.73635 37.8579 7.89498 37.9985C8.07801 38.1696 8.11462 38.2735 9.01149 41.885L10.4453 41.9155C11.6716 41.94 11.9034 41.9644 12.0438 42.05C12.1353 42.1111 12.2512 42.2639 12.3061 42.3861C12.3671 42.5266 12.3854 42.6977 12.3671 42.8138C12.3427 42.9422 12.2512 43.0888 11.9034 43.3821L7.85227 43.3516L7.26046 40.9378C6.77237 38.9457 6.67475 38.4874 6.72356 38.3224C6.75406 38.2185 6.86389 38.0596 6.9676 37.974C7.10183 37.864 7.22995 37.8213 7.42519 37.8213ZM27.3393 28.7161C36.2287 28.7161 36.3385 28.7161 36.5398 28.8383C36.6435 28.9055 36.79 29.0522 36.8571 29.1561C36.9303 29.2783 36.9791 29.4677 36.9791 29.6144C36.9791 29.7611 36.9242 29.9811 36.8571 30.1033C36.79 30.2316 36.3446 30.8855 35.8687 31.5515C35.3867 32.2237 34.9169 32.8287 34.6546 33.0243H20.024L19.8532 32.8959C19.7617 32.8287 19.2919 32.2237 18.8099 31.5515C18.334 30.8855 17.8886 30.2316 17.8215 30.1033C17.7544 29.9811 17.6995 29.7611 17.6995 29.6144C17.6995 29.4677 17.7483 29.2783 17.8215 29.1561C17.8886 29.0522 18.0351 28.9055 18.1449 28.8383C18.3401 28.7161 18.4499 28.7161 27.3393 28.7161ZM19.78 30.3783C19.8654 30.4883 20.0973 30.806 20.2986 31.0871L20.6586 31.5943H34.0201C34.5814 30.806 34.8132 30.4883 34.8986 30.3783L35.0573 30.1766L19.6275 30.1827L19.78 30.3783ZM4.85661 27.0967C4.95423 27.1151 5.10066 27.1701 5.17387 27.219C5.25318 27.2678 5.3508 27.3839 5.39351 27.4756C5.44232 27.5673 5.91211 29.4005 6.44291 31.5577C7.18114 34.5642 7.39468 35.5053 7.35808 35.6519C7.33367 35.7497 7.23605 35.9086 7.13844 36.0002C7.00421 36.1347 6.91269 36.1713 6.67475 36.1713C6.47951 36.1713 6.33105 36.1326 6.22937 36.0552C6.14395 35.9941 6.04023 35.8658 5.99752 35.768C5.96092 35.6703 5.49723 33.8737 4.97863 31.7838C4.46004 29.6938 4.03296 27.8911 4.02686 27.7811C4.02686 27.6712 4.08177 27.5062 4.14888 27.4084C4.21599 27.3106 4.35632 27.1945 4.47224 27.1456C4.58206 27.1028 4.75289 27.0784 4.85661 27.0967Z" fill="#FFD521"/>
<path fill-rule="evenodd" clip-rule="evenodd" d="M35.6368 6.31993C35.7893 6.33826 36.0334 6.42992 36.1798 6.52159C36.3567 6.62547 36.5032 6.78435 36.5947 6.96157C36.6862 7.14489 36.735 7.34044 36.735 7.5421C36.735 7.74376 36.6862 7.9393 36.5947 8.12263C36.4971 8.30595 36.3506 8.45873 36.1554 8.58094C35.9114 8.7276 35.7954 8.76427 35.5209 8.75816C35.3317 8.75816 35.0938 8.70927 34.9962 8.65427C34.8986 8.60539 34.7399 8.48317 34.6484 8.3854C34.5569 8.29373 34.441 8.11041 34.3922 7.98819C34.3373 7.85986 34.2946 7.65209 34.2946 7.52988C34.2946 7.40155 34.3495 7.18767 34.4105 7.05323C34.4715 6.91879 34.5996 6.73547 34.6972 6.63769C34.7948 6.54603 34.984 6.42992 35.1182 6.38104C35.2707 6.32604 35.466 6.3016 35.6368 6.31993ZM42.0125 3.29506C44.5811 3.29506 44.8373 3.30728 45.0631 3.40506C45.1973 3.46616 45.3986 3.62505 45.5023 3.75948C45.6366 3.91226 45.7281 4.11391 45.7708 4.3339C45.8135 4.54778 45.8318 5.26275 45.7952 7.92097L45.6122 8.2204C45.4901 8.40984 45.3254 8.57483 44.88 8.82538L42.226 8.84371C40.7679 8.85593 39.4622 8.84982 39.328 8.83149C39.1938 8.81315 38.9741 8.7276 38.8399 8.63594C38.7057 8.55039 38.5287 8.3854 38.2908 8.04319L38.2725 6.20382C38.2603 5.03054 38.2786 4.27891 38.3152 4.13225C38.3518 4.01003 38.4555 3.82059 38.547 3.7106C38.6447 3.60671 38.8277 3.46616 38.9619 3.41117C39.1877 3.30728 39.4378 3.29506 42.0125 3.29506ZM39.7246 7.32822H44.3004V4.76166H39.7246V7.32822ZM35.5758 3.24617C35.8809 3.26451 36.0212 3.30117 36.1798 3.41728C36.2957 3.50283 36.4605 3.66171 36.5459 3.77782C36.6679 3.9367 36.7106 4.07725 36.7289 4.35835C36.7472 4.63945 36.7228 4.79222 36.6313 4.97554C36.5642 5.10998 36.43 5.2872 36.3323 5.37275C36.2347 5.4583 36.0456 5.5683 35.9114 5.61107C35.7649 5.65996 35.5453 5.67829 35.3623 5.65996C35.167 5.64163 34.9718 5.5683 34.8193 5.45219C34.685 5.36053 34.5203 5.17109 34.4532 5.03665C34.3617 4.86555 34.3251 4.67611 34.3251 4.41335C34.3251 4.08947 34.3495 4.00392 34.5142 3.77171C34.6179 3.63116 34.8071 3.44783 34.9413 3.36839C35.1365 3.25228 35.2524 3.23395 35.5758 3.24617Z" fill="#FFD521"/>
</svg>
