<svg width="44" height="51" viewBox="0 0 44 51" fill="none" xmlns="http://www.w3.org/2000/svg">
<path fill-rule="evenodd" clip-rule="evenodd" d="M21.6932 0.000646345C33.8774 -0.00280083 40.0248 0.00754069 40.0352 0.0316709C40.0455 0.0489068 40.087 0.0661426 40.132 0.0661426C40.1735 0.0661426 40.3465 0.104062 40.5195 0.152322C40.6924 0.200582 40.9865 0.317786 41.1768 0.407413C41.367 0.500486 41.6334 0.659056 41.7649 0.759024C41.8963 0.858992 42.1177 1.04859 42.2492 1.18303C42.3806 1.31747 42.5848 1.56911 42.6989 1.73802C42.8131 1.91038 42.9618 2.17926 43.031 2.34128C43.1037 2.50329 43.1902 2.75838 43.2282 2.91006C43.2697 3.06174 43.3182 3.30993 43.3389 3.46161C43.3666 3.66154 43.3735 10.0974 43.3562 50.1019L43.2801 50.257C43.2386 50.3432 43.1556 50.4707 43.0968 50.5396C43.0345 50.6189 42.903 50.7155 42.5259 50.8947L21.7693 50.905C6.06698 50.9119 0.974695 50.905 0.857075 50.874C0.770589 50.8533 0.63913 50.7982 0.563023 50.7568C0.486915 50.7155 0.362376 50.612 0.289728 50.5293C0.21362 50.4466 0.130594 50.3225 0.106378 50.257C0.0787021 50.1915 0.0441078 50.1053 0.0233512 50.0674C0.00259457 50.0226 -0.00432429 41.7597 0.00259457 26.7817C0.0129729 9.5045 0.0233512 3.50297 0.0544861 3.32372C0.0752427 3.19273 0.134053 2.94453 0.182485 2.77217C0.230917 2.59981 0.3347 2.33094 0.410808 2.16892C0.490375 2.0069 0.632211 1.76215 0.729076 1.62082C0.829399 1.47948 1.02659 1.24852 1.16842 1.10719C1.31026 0.965855 1.55934 0.765919 1.72193 0.659056C1.88453 0.552194 2.1509 0.403966 2.32041 0.335022C2.48647 0.262631 2.76668 0.169558 2.94311 0.131639C3.11608 0.0902728 3.2856 0.0454596 3.31327 0.0282237C3.34095 0.014435 11.6125 0.000646345 21.6932 0.000646345ZM3.00192 2.15858C2.83241 2.24131 2.66982 2.35851 2.5349 2.49295C2.41728 2.61016 2.27198 2.81009 2.19933 2.94453C2.12669 3.07552 2.04712 3.29614 2.01944 3.42714C1.97447 3.62707 1.96409 4.01316 1.96409 5.69538V7.71887C29.6326 7.71887 34.8495 7.73266 34.9325 7.75679C34.9982 7.77402 35.1331 7.84986 35.2265 7.92225C35.3476 8.00843 35.4341 8.11529 35.5137 8.26352C35.6002 8.43243 35.6244 8.51861 35.6244 8.67718C35.6244 8.79438 35.5967 8.92882 35.5586 9.01156C35.5241 9.08739 35.4341 9.21839 35.3615 9.30112C35.2854 9.3804 35.1401 9.49071 35.0363 9.54242L34.846 9.63205L1.96409 9.64928V48.9471L41.4189 48.9298L41.4362 9.64928C38.7725 9.64928 38.4438 9.63894 38.3054 9.60102C38.212 9.57344 38.0564 9.49071 37.9595 9.41832C37.8384 9.32525 37.7519 9.21839 37.6724 9.06326C37.5893 8.8978 37.5617 8.79438 37.5617 8.66684C37.5617 8.55998 37.5928 8.42898 37.6447 8.32212C37.6897 8.22905 37.7865 8.09116 37.8592 8.01532C37.9353 7.94293 38.0564 7.84986 38.1325 7.80849C38.2674 7.73955 38.3227 7.7361 39.8449 7.71887L41.4189 7.70163C41.4189 3.72359 41.4155 3.54779 41.3567 3.35819C41.3186 3.24444 41.2356 3.0445 41.1664 2.91351C41.0834 2.75838 40.9588 2.59981 40.8135 2.46537C40.689 2.34817 40.4953 2.21028 40.3811 2.15513C40.2669 2.09997 40.0974 2.02758 40.0006 2.00001C39.8449 1.95175 38.0494 1.94485 21.8039 1.93796C6.66546 1.93451 3.73878 1.9414 3.52084 1.97932C3.37208 2.0069 3.15068 2.08274 3.00192 2.15858Z" fill="#FFD521"/>
<path fill-rule="evenodd" clip-rule="evenodd" d="M21.5963 13.4828C21.9007 13.4759 22.4058 13.4896 22.7206 13.5103C23.0354 13.531 23.5335 13.5793 23.8276 13.6172C24.1216 13.6551 24.6267 13.7378 24.9519 13.8033C25.2771 13.8688 25.758 13.9826 26.0243 14.0584C26.2907 14.1343 26.7439 14.2756 27.0276 14.3756C27.3147 14.4721 27.7644 14.6444 28.0308 14.7582C28.2972 14.872 28.7642 15.0926 29.0686 15.2477C29.3731 15.4028 29.847 15.6717 30.1238 15.8406C30.4005 16.0095 30.788 16.2646 30.9886 16.406C31.1893 16.5473 31.5075 16.7851 31.6978 16.9368C31.8881 17.0885 32.2444 17.3884 32.49 17.609C32.7356 17.8296 33.13 18.2123 33.3618 18.457C33.5936 18.7018 33.8911 19.0293 34.0156 19.1809C34.1436 19.3326 34.3754 19.6291 34.5345 19.8359C34.6902 20.0427 34.9531 20.4185 35.1157 20.6632C35.2749 20.908 35.4997 21.2665 35.607 21.4561C35.7177 21.6457 35.9114 22.0111 36.0394 22.2661C36.1674 22.5212 36.3611 22.9418 36.4718 23.1969C36.5791 23.452 36.759 23.9346 36.8697 24.2655C36.9838 24.5964 37.1187 25.048 37.1775 25.2652C37.2329 25.4824 37.3194 25.8547 37.3678 26.0925C37.4162 26.3304 37.4854 26.7406 37.5235 27.006C37.5615 27.2714 37.6134 27.692 37.6342 27.9367C37.6549 28.1815 37.6757 28.7813 37.6722 29.2639C37.6722 29.8223 37.6515 30.3567 37.6169 30.729C37.5823 31.053 37.5131 31.5873 37.4578 31.9182C37.3989 32.2492 37.2848 32.7938 37.2018 33.1247C37.1187 33.4557 36.9631 33.9831 36.8593 34.2968C36.7555 34.6105 36.5791 35.0758 36.4718 35.3309C36.3646 35.586 36.1743 35.9962 36.0567 36.2444C35.9356 36.4926 35.7246 36.8856 35.5862 37.1235C35.4513 37.3613 35.2126 37.7474 35.0535 37.9853C34.8978 38.2231 34.6383 38.5885 34.4826 38.7953C34.3235 39.0022 34.0225 39.3745 33.8081 39.6227C33.5936 39.8709 33.1784 40.3052 32.8878 40.5879C32.5938 40.874 32.2167 41.2256 32.0437 41.3669C31.8708 41.5117 31.5456 41.7668 31.3173 41.9392C31.0889 42.1115 30.7222 42.3666 30.5043 42.5114C30.2864 42.6527 29.8954 42.8906 29.6394 43.0388C29.3834 43.1836 28.9545 43.4077 28.6881 43.5352C28.4217 43.6627 27.972 43.8627 27.6849 43.9764C27.4012 44.0902 26.9411 44.2557 26.6643 44.3418C26.3876 44.4315 25.9517 44.5556 25.6957 44.6211C25.4397 44.6831 25.0211 44.7762 24.772 44.8244C24.5195 44.8727 24.0732 44.9451 23.7861 44.983C23.4955 45.0209 22.9212 45.0692 22.513 45.0899C21.9457 45.1209 21.5928 45.1209 21.0255 45.0933C20.6172 45.0692 20.0257 45.0209 19.7109 44.983C19.3961 44.9451 18.8771 44.8589 18.552 44.7934C18.2268 44.7279 17.739 44.6142 17.4622 44.5383C17.1855 44.4625 16.7254 44.3212 16.4417 44.2212C16.1546 44.1247 15.7083 43.9523 15.4454 43.842C15.1859 43.7282 14.795 43.5524 14.584 43.4456C14.3695 43.3387 14.0132 43.1491 13.7952 43.025C13.5773 42.9044 13.1933 42.67 12.9477 42.5079C12.7021 42.3494 12.3492 42.1046 12.1693 41.9702C11.9894 41.8357 11.6538 41.5703 11.4255 41.3842C11.1972 41.1946 10.744 40.7775 10.4223 40.4534C10.0971 40.1294 9.68197 39.6847 9.50208 39.4675C9.32219 39.2504 9.08003 38.947 8.96241 38.7953C8.84825 38.6437 8.59225 38.2714 8.3916 37.968C8.19096 37.6647 7.95226 37.2786 7.85539 37.1062C7.75853 36.9339 7.58902 36.6098 7.47485 36.3823C7.36069 36.1548 7.19464 35.8066 7.10815 35.6067C7.02167 35.4068 6.87637 35.0517 6.78989 34.8139C6.69994 34.576 6.56156 34.1589 6.47854 33.8831C6.39551 33.6073 6.27443 33.1351 6.20524 32.8317C6.13605 32.5284 6.04265 32.0182 5.99768 31.6942C5.94924 31.3701 5.89389 30.8979 5.87314 30.6428C5.85238 30.3877 5.83508 29.8051 5.83508 29.3501C5.83508 28.8951 5.85238 28.3194 5.87314 28.0746C5.89389 27.8299 5.92503 27.5024 5.94578 27.3507C5.96308 27.199 6.01151 26.8888 6.04957 26.6613C6.08762 26.4338 6.16719 26.0374 6.226 25.7823C6.28135 25.5272 6.39897 25.0894 6.482 24.8102C6.56502 24.5275 6.71378 24.0863 6.81064 23.8277C6.90751 23.5657 7.0874 23.1279 7.21194 22.8522C7.33302 22.5764 7.55096 22.1352 7.69626 21.8697C7.84155 21.6043 8.08025 21.1941 8.22901 20.9562C8.37431 20.7184 8.62339 20.3461 8.77906 20.1289C8.93473 19.9117 9.14922 19.6256 9.25646 19.4912C9.3637 19.3567 9.55051 19.1327 9.67159 18.9913C9.79267 18.85 10.1282 18.4949 10.4154 18.2019C10.706 17.9124 11.1349 17.509 11.3736 17.3057C11.6123 17.1057 11.9617 16.8231 12.152 16.6783C12.3423 16.5335 12.6848 16.2922 12.9131 16.1405C13.1414 15.9888 13.5392 15.7441 13.7952 15.5959C14.0512 15.4442 14.5113 15.2063 14.8158 15.0581C15.1202 14.9133 15.563 14.7168 15.8017 14.6203C16.0404 14.5238 16.4452 14.3756 16.7012 14.2928C16.9572 14.2067 17.4103 14.0722 17.7044 13.9964C17.9984 13.9205 18.4516 13.8171 18.7076 13.7689C18.9636 13.7206 19.4168 13.6482 19.7109 13.6103C20.0049 13.5724 20.427 13.531 20.6449 13.5172C20.8629 13.5034 21.2918 13.4862 21.5963 13.4828ZM19.8492 15.5407C19.5552 15.5821 19.064 15.6683 18.7595 15.7338C18.4551 15.7993 17.995 15.9165 17.739 15.9957C17.483 16.0716 17.0471 16.2198 16.7704 16.3267C16.4936 16.4301 16.0335 16.63 15.7498 16.7645C15.4627 16.9023 15.0821 17.0954 14.9023 17.1954C14.7224 17.2953 14.3314 17.5366 14.0374 17.7331C13.7433 17.9262 13.3317 18.2192 13.1206 18.3846C12.9096 18.5501 12.5464 18.8603 12.3111 19.0706C12.0759 19.2843 11.7127 19.6428 11.5016 19.8704C11.2941 20.0979 10.9896 20.446 10.8305 20.646C10.6714 20.8459 10.4258 21.1699 10.2874 21.3699C10.1455 21.5698 9.92413 21.9042 9.79613 22.111C9.66813 22.3179 9.44327 22.7246 9.29798 23.0073C9.15268 23.2934 8.95203 23.7174 8.85171 23.9553C8.75138 24.1931 8.60609 24.5654 8.53344 24.7826C8.45733 24.9998 8.34663 25.341 8.29128 25.541C8.23593 25.7409 8.14944 26.0753 8.10101 26.2821C8.05604 26.4889 7.98685 26.8405 7.9488 27.0577C7.9142 27.2749 7.86577 27.592 7.84501 27.7644C7.82426 27.9367 7.79312 28.3607 7.77582 28.7124C7.75507 29.1191 7.75507 29.5879 7.77582 30.005C7.79658 30.367 7.83464 30.8462 7.86577 31.0737C7.89345 31.3012 7.95572 31.6907 8.00069 31.9355C8.04566 32.1802 8.13907 32.5939 8.20479 32.849C8.27052 33.1041 8.39852 33.5315 8.48847 33.7969C8.57495 34.0624 8.73409 34.4829 8.83787 34.7277C8.94511 34.9724 9.11463 35.3482 9.21841 35.555C9.32565 35.7618 9.50554 36.0962 9.6197 36.2961C9.73386 36.4961 9.97948 36.8822 10.1663 37.1579C10.3496 37.4337 10.6714 37.868 10.8755 38.1231C11.083 38.3782 11.5224 38.8608 11.858 39.1918C12.1901 39.5227 12.6536 39.9501 12.8889 40.1397C13.1241 40.3293 13.4977 40.612 13.7191 40.7671C13.9405 40.9222 14.3349 41.1773 14.5909 41.3325C14.8469 41.4841 15.307 41.7323 15.6114 41.8806C15.9159 42.0288 16.3829 42.2356 16.6493 42.339C16.9156 42.4424 17.3135 42.5838 17.5314 42.6527C17.7494 42.7217 18.1472 42.832 18.4136 42.8975C18.68 42.963 19.1228 43.056 19.3995 43.1009C19.6763 43.1491 20.1744 43.2112 20.5065 43.2422C20.9701 43.287 21.323 43.2973 22.0114 43.2836C22.5061 43.2732 23.1046 43.2422 23.3433 43.2112C23.582 43.1836 23.9936 43.1181 24.26 43.0698C24.5264 43.0216 24.9519 42.9285 25.201 42.863C25.4535 42.7975 25.8133 42.6941 25.9967 42.6355C26.1835 42.5769 26.5467 42.4459 26.8027 42.3459C27.0587 42.2425 27.4496 42.077 27.6676 41.9736C27.8855 41.8737 28.2695 41.6772 28.5151 41.5393C28.7607 41.4014 29.1447 41.1704 29.3627 41.0291C29.5806 40.8843 29.8851 40.674 30.0373 40.5603C30.1895 40.4465 30.4766 40.219 30.6773 40.057C30.8779 39.895 31.2896 39.5124 31.5975 39.209C31.9019 38.9056 32.2686 38.5196 32.4139 38.3472C32.5557 38.1748 32.8187 37.8439 32.9916 37.6061C33.1681 37.3682 33.4379 36.9752 33.5936 36.727C33.7458 36.4788 33.9776 36.079 34.1056 35.8308C34.237 35.5826 34.4135 35.2206 34.4999 35.0207C34.5864 34.8207 34.6556 34.6553 34.6556 34.6518C34.6556 34.6449 34.3477 34.6346 33.9706 34.6312C33.3514 34.6174 33.2615 34.6105 32.9847 34.5277C32.8187 34.476 32.663 34.4347 32.6388 34.4347C32.618 34.4381 32.535 34.5725 32.4589 34.7346C32.3828 34.9 32.196 35.2448 32.0403 35.5033C31.8881 35.7584 31.6632 36.1065 31.5421 36.2789C31.4245 36.4513 31.1823 36.7684 31.0059 36.9856C30.8295 37.2027 30.5008 37.5681 30.276 37.7991C30.0477 38.0266 29.7467 38.3162 29.6048 38.4403C29.463 38.5644 29.1413 38.8195 28.8887 39.0056C28.6397 39.1952 28.273 39.4469 28.0758 39.571C27.882 39.6916 27.5084 39.9019 27.2524 40.0329C26.9964 40.1639 26.6297 40.3397 26.4395 40.4258C26.2492 40.5086 25.8444 40.6603 25.54 40.7602C25.2356 40.8636 24.7928 40.9946 24.5541 41.0498C24.3154 41.1084 23.9279 41.1842 23.6892 41.2221C23.4505 41.2601 23.0769 41.3083 22.859 41.3325C22.641 41.3566 22.1428 41.3738 21.7519 41.3738C21.361 41.3738 20.8559 41.3566 20.6276 41.3325C20.3993 41.3083 19.9945 41.2532 19.7282 41.2084C19.4618 41.1635 19.057 41.0808 18.8287 41.0222C18.6004 40.9671 18.2026 40.8499 17.9466 40.7637C17.6906 40.6775 17.2927 40.5293 17.0644 40.4327C16.8361 40.3362 16.4452 40.1501 16.1995 40.0225C15.9539 39.895 15.5872 39.6882 15.3935 39.5675C15.1963 39.4469 14.8296 39.1952 14.5805 39.0056C14.328 38.8195 13.9751 38.5368 13.7952 38.3817C13.6153 38.2231 13.3178 37.9404 13.1345 37.7543C12.9546 37.5681 12.6813 37.2682 12.5291 37.089C12.3769 36.9097 12.1797 36.6684 12.0967 36.5547C12.0102 36.4409 11.8441 36.21 11.73 36.0376C11.6158 35.8652 11.4497 35.6067 11.3633 35.4619C11.2733 35.3137 11.0934 34.9793 10.962 34.7208C10.8305 34.4588 10.6541 34.0727 10.5676 33.8659C10.4811 33.6591 10.3462 33.2833 10.2666 33.0386C10.187 32.7938 10.0763 32.4043 10.021 32.1768C9.96565 31.9493 9.893 31.5839 9.85494 31.3667C9.81689 31.1495 9.76846 30.7979 9.74424 30.5911C9.71657 30.3773 9.69927 29.8292 9.69927 29.3328C9.69927 28.7089 9.71657 28.3159 9.76154 27.9712C9.79267 27.7058 9.86532 27.2645 9.92067 26.9888C9.97602 26.713 10.0763 26.2959 10.1455 26.058C10.2147 25.8202 10.3496 25.4169 10.4465 25.1618C10.5399 24.9067 10.7302 24.4654 10.8686 24.1793C11.0069 23.8967 11.2456 23.452 11.3979 23.1969C11.5535 22.9418 11.8026 22.5592 11.9548 22.3523C12.107 22.1455 12.3596 21.818 12.5187 21.6284C12.6778 21.4388 13.003 21.0907 13.2417 20.8528C13.4804 20.615 13.8368 20.2875 14.0374 20.1255C14.238 19.96 14.5805 19.698 14.7985 19.5429C15.0164 19.3878 15.3693 19.1568 15.5768 19.0327C15.7844 18.9086 16.1684 18.7052 16.4244 18.5777C16.6804 18.4467 17.1094 18.2571 17.3758 18.1537C17.6421 18.0468 18.078 17.8986 18.3444 17.8193C18.6108 17.7435 19.0467 17.6331 19.313 17.578C19.5794 17.5263 20.0084 17.4504 20.2644 17.416C20.6276 17.3677 20.9563 17.3539 21.7519 17.3539C22.3954 17.3539 22.8935 17.3712 23.1011 17.3987C23.281 17.4229 23.6096 17.4746 23.8276 17.5125C24.0455 17.5504 24.4365 17.6331 24.6924 17.6986C24.9484 17.7641 25.3636 17.8848 25.6092 17.971C25.8548 18.0537 26.2457 18.2054 26.4741 18.3019C26.7024 18.3984 27.0379 18.557 27.2178 18.6501C27.3977 18.7466 27.7056 18.9189 27.9028 19.0361C28.1 19.1533 28.4425 19.3809 28.6708 19.5429C28.8957 19.7049 29.2347 19.9634 29.4215 20.1186C29.6083 20.2737 29.9646 20.6081 30.2172 20.8597C30.4662 21.1113 30.8018 21.4733 30.9575 21.6629C31.1132 21.8525 31.3519 22.1627 31.4868 22.3523C31.6217 22.5419 31.8535 22.897 32.0022 23.1452C32.151 23.3899 32.3482 23.7519 32.445 23.9484C32.5834 24.2345 32.6249 24.2965 32.6734 24.2793C32.708 24.269 32.8844 24.2207 33.0643 24.1724C33.3376 24.1 33.4967 24.0828 33.9983 24.069C34.3304 24.0587 34.6141 24.0414 34.6279 24.0277C34.6383 24.0173 34.538 23.7657 34.3996 23.4727C34.2647 23.1796 34.0606 22.7763 33.9499 22.5764C33.8392 22.3765 33.6351 22.0352 33.4967 21.818C33.3549 21.6008 33.1058 21.2354 32.9363 21.0079C32.7668 20.7804 32.4727 20.415 32.2824 20.1978C32.0956 19.9807 31.767 19.6325 31.5594 19.4257C31.3519 19.2188 30.9679 18.8707 30.7119 18.657C30.4559 18.4398 30.0546 18.1295 29.8193 17.9641C29.5875 17.7986 29.1828 17.5366 28.9199 17.3781C28.6604 17.2195 28.2107 16.9782 27.927 16.8403C27.6399 16.699 27.2144 16.5094 26.9757 16.4128C26.737 16.3198 26.3184 16.1681 26.0416 16.0785C25.7649 15.9888 25.3221 15.8647 25.0557 15.7993C24.7893 15.7372 24.3292 15.6441 24.0352 15.5993C23.7411 15.5511 23.3433 15.4959 23.153 15.4752C22.9627 15.4545 22.4334 15.4339 21.9768 15.427C21.5202 15.4166 20.9736 15.4235 20.766 15.4407C20.5584 15.4545 20.1433 15.5028 19.8492 15.5407ZM20.0222 19.2706C19.7835 19.3085 19.3857 19.3947 19.1401 19.4567C18.8944 19.5187 18.4862 19.6428 18.2406 19.7325C17.995 19.8221 17.5729 19.9979 17.3066 20.1255C17.0402 20.253 16.6596 20.4564 16.459 20.577C16.2584 20.6977 15.9643 20.8907 15.8017 21.0045C15.6391 21.1182 15.3589 21.3354 15.179 21.4871C14.9991 21.6353 14.712 21.8939 14.5425 22.0559C14.3764 22.2179 14.0755 22.5454 13.8748 22.7832C13.6776 23.0211 13.3836 23.4072 13.2244 23.645C13.0653 23.8829 12.8404 24.2483 12.7263 24.4551C12.6121 24.6619 12.4322 25.0273 12.3284 25.2652C12.2281 25.503 12.0759 25.8995 11.9963 26.1442C11.9168 26.389 11.8061 26.7854 11.7542 27.0232C11.6988 27.2611 11.6262 27.6334 11.5916 27.8506C11.5431 28.1643 11.5293 28.4573 11.5293 29.2467C11.5293 30.0533 11.5431 30.3187 11.5916 30.6255C11.6262 30.8324 11.6884 31.153 11.7265 31.3322C11.7646 31.5115 11.8476 31.8389 11.9098 32.0561C11.9756 32.2733 12.1105 32.6628 12.2143 32.9179C12.3181 33.173 12.4737 33.5281 12.5637 33.7039C12.6502 33.8762 12.8266 34.1968 12.9546 34.4105C13.0826 34.6208 13.349 35.0138 13.5496 35.2792C13.7952 35.6067 14.1031 35.9514 14.5044 36.3478C14.8261 36.6719 15.2482 37.0545 15.4385 37.1993C15.6287 37.3406 15.9401 37.5613 16.1304 37.6853C16.3206 37.8094 16.6631 38.0128 16.8914 38.1369C17.1198 38.261 17.5107 38.4472 17.7563 38.5471C18.0019 38.6506 18.3617 38.785 18.552 38.8436C18.7422 38.9056 19.0847 39.0022 19.313 39.0573C19.5414 39.1125 19.9392 39.1883 20.1952 39.2297C20.4927 39.2745 20.9251 39.3055 21.3887 39.3193C21.9318 39.3331 22.2501 39.3228 22.6514 39.2814C22.9454 39.2504 23.4125 39.178 23.6892 39.1228C23.966 39.0642 24.3638 38.9677 24.5714 38.9022C24.7789 38.8402 25.1076 38.7298 25.2979 38.6575C25.4881 38.5851 25.8306 38.4403 26.0589 38.3334C26.2872 38.2231 26.6367 38.037 26.8373 37.9198C27.0379 37.7991 27.3562 37.5888 27.5465 37.4544C27.7368 37.3199 28.0239 37.0993 28.1865 36.9649C28.3491 36.8304 28.6639 36.534 28.8853 36.3099C29.1101 36.0859 29.4111 35.7515 29.5564 35.5722C29.7017 35.393 29.9335 35.0724 30.0719 34.8656C30.2102 34.6587 30.4005 34.3485 30.4974 34.1761C30.5942 34.0038 30.7292 33.7452 30.7949 33.6004L30.9194 33.3316C30.6876 33.0248 30.5562 32.8283 30.4766 32.6938C30.3971 32.5594 30.2864 32.3353 30.2275 32.194C30.1687 32.0527 30.0822 31.8045 30.0373 31.6425C29.9888 31.4804 29.93 31.2116 29.8989 31.0392C29.8574 30.7876 29.847 30.4049 29.847 29.0571C29.847 27.5679 29.8539 27.3507 29.9127 27.075C29.9473 26.9026 30.0304 26.6337 30.0961 26.4717C30.1618 26.3097 30.2794 26.0718 30.3555 25.9374C30.4317 25.8029 30.5908 25.5685 30.7084 25.4134L30.9194 25.1273C30.5008 24.3138 30.2621 23.8967 30.1168 23.6795C29.9715 23.4623 29.719 23.121 29.5599 22.9211C29.3973 22.7212 29.0756 22.3696 28.8403 22.1386C28.6051 21.9076 28.2799 21.6077 28.1173 21.4733C27.9547 21.3389 27.6191 21.0941 27.3735 20.9286C27.1279 20.7597 26.7612 20.5322 26.5605 20.4219C26.3599 20.3116 26.0105 20.1358 25.7822 20.0324C25.5538 19.9324 25.118 19.7635 24.8135 19.6635C24.5091 19.5636 24.0801 19.4395 23.8622 19.3912C23.6442 19.3429 23.3018 19.2774 23.1011 19.2499C22.9005 19.2188 22.5441 19.1809 22.3054 19.1637C22.0667 19.1465 21.7346 19.1327 21.5617 19.1361C21.3887 19.1361 21.0704 19.1533 20.8525 19.1671C20.6345 19.1844 20.2609 19.2292 20.0222 19.2706ZM33.2372 26.2166C33.1508 26.2476 33.0124 26.3131 32.9259 26.3614C32.8394 26.4096 32.6872 26.52 32.5834 26.6061C32.4831 26.6923 32.324 26.8716 32.2375 27.006C32.1475 27.1404 32.0368 27.3542 31.9884 27.4886L31.9054 27.7299C31.9054 31.1012 31.9054 31.1081 31.9849 31.3322C32.0299 31.4563 32.1199 31.6425 32.1856 31.7459C32.2479 31.8493 32.3689 32.0079 32.4485 32.0975C32.5315 32.1837 32.6215 32.2629 32.6491 32.2698C32.6768 32.2733 32.7218 32.3078 32.7529 32.3388C32.7806 32.3698 32.9432 32.4525 33.1162 32.5249C33.2891 32.5939 33.5175 32.6938 33.6247 32.749L33.8254 32.849C35.2368 32.849 35.2437 32.849 35.2749 32.7731C35.2922 32.7283 35.344 32.4629 35.3925 32.1768C35.4409 31.8941 35.4997 31.5218 35.517 31.3494C35.5378 31.1771 35.5724 30.8358 35.5897 30.5911C35.6104 30.3463 35.6243 29.8396 35.6243 29.4707C35.6243 29.1019 35.607 28.5883 35.5897 28.3332C35.5689 28.0781 35.5205 27.6368 35.4824 27.3507C35.4444 27.0681 35.3821 26.6785 35.3406 26.4889C35.3025 26.2993 35.2645 26.1339 35.2576 26.1201C35.2506 26.1028 34.922 26.096 34.5242 26.096C34.1298 26.0994 33.7147 26.1132 33.6005 26.1304C33.4863 26.1477 33.3237 26.1856 33.2372 26.2166Z" fill="#FFD521"/>
<path d="M20.4202 21.2835C20.6105 21.2525 20.9218 21.2146 21.1121 21.1974C21.3024 21.1801 21.5826 21.1732 21.7348 21.1801C21.9389 21.1905 22.0565 21.2181 22.1845 21.2801C22.2814 21.3249 22.4163 21.4318 22.4889 21.5111C22.5685 21.6041 22.6412 21.7351 22.6757 21.8523C22.7103 21.9799 22.7242 22.104 22.7069 22.2315C22.6965 22.3384 22.6481 22.4832 22.6031 22.559C22.5581 22.6348 22.4682 22.7486 22.4025 22.8141C22.3402 22.8796 22.2122 22.9658 22.1153 23.0106C21.9804 23.0726 21.8489 23.0933 21.5099 23.1105C21.2712 23.1243 20.8976 23.1657 20.6797 23.2002C20.4617 23.2381 20.1434 23.3105 19.9705 23.3587C19.7975 23.407 19.5104 23.5104 19.3305 23.5828C19.1506 23.6552 18.8842 23.7793 18.7424 23.8586C18.6005 23.9379 18.3757 24.0723 18.2408 24.1619C18.1058 24.2516 17.8602 24.4412 17.6872 24.5825C17.5143 24.7238 17.2963 24.9238 17.2029 25.0272C17.1061 25.1306 16.94 25.3202 16.8328 25.4546C16.729 25.5891 16.5698 25.8028 16.4834 25.9372C16.3969 26.0717 16.2585 26.3164 16.172 26.4888C16.0855 26.6611 15.9575 26.9369 15.8918 27.1093C15.8261 27.2816 15.7327 27.5746 15.6842 27.7642C15.6393 27.9538 15.5735 28.271 15.5459 28.4709C15.5147 28.6708 15.4905 28.9638 15.4905 29.1259C15.4905 29.2879 15.4663 29.5016 15.4386 29.5981C15.404 29.7257 15.3348 29.836 15.2207 29.9601C15.1273 30.06 14.975 30.1807 14.8816 30.2255C14.7709 30.2807 14.6464 30.3082 14.5219 30.3117C14.3835 30.3151 14.2797 30.291 14.1413 30.2221C14.0375 30.1738 13.8922 30.0635 13.8161 29.9842C13.7435 29.9015 13.6535 29.7705 13.619 29.6946C13.5671 29.5878 13.5532 29.474 13.5532 29.1672C13.5532 28.957 13.5774 28.5916 13.6086 28.3606C13.6362 28.1262 13.702 27.7642 13.747 27.5574C13.7954 27.3506 13.8922 26.999 13.9649 26.7818C14.0375 26.5646 14.1828 26.1992 14.2866 25.9717C14.3869 25.7442 14.5738 25.3891 14.6948 25.1857C14.8194 24.9789 15.0408 24.648 15.1895 24.4515C15.3348 24.255 15.6393 23.9034 15.8607 23.6759C16.0855 23.4449 16.4246 23.1312 16.6148 22.9796C16.8051 22.8279 17.0853 22.6211 17.2375 22.5211C17.3897 22.4246 17.6388 22.2763 17.791 22.1936C17.9432 22.1074 18.2062 21.9764 18.3791 21.8971C18.5521 21.8179 18.8531 21.6972 19.0537 21.6283C19.2544 21.5593 19.5657 21.4662 19.7456 21.4214C19.9255 21.3766 20.2299 21.3146 20.4202 21.2835Z" fill="#FFD521"/>
<path d="M17.8604 4.04095C17.9538 3.97545 18.0818 3.90995 18.1372 3.89272C18.1925 3.87893 18.708 3.86169 19.2788 3.86169C20.1021 3.85825 20.3512 3.86859 20.4896 3.90995C20.5864 3.93753 20.7248 4.00992 20.7975 4.07197C20.8701 4.13402 20.967 4.24778 21.012 4.32361C21.0569 4.39945 21.1123 4.54768 21.133 4.6511C21.1642 4.80622 21.1642 4.87516 21.1192 5.03028C21.0881 5.13715 21.005 5.29572 20.9289 5.39224C20.8528 5.49221 20.7179 5.60941 20.4204 5.77143L18.2064 5.79211L17.9919 5.68525C17.8327 5.60941 17.7359 5.53357 17.6321 5.40258C17.5525 5.29916 17.4695 5.13715 17.4384 5.03028C17.3968 4.87861 17.3934 4.80622 17.4211 4.66833C17.4418 4.57181 17.511 4.42013 17.5733 4.32706C17.6355 4.23399 17.7635 4.10644 17.8604 4.04095Z" fill="#FFD521"/>
<path d="M5.37186 3.99269C5.40645 3.96855 5.49294 3.92719 5.56213 3.90306C5.65207 3.87203 6.76255 3.86169 10.1632 3.85825C13.9789 3.85825 14.6674 3.86514 14.8161 3.90651C14.913 3.93753 15.0548 4.01682 15.1448 4.09265C15.2347 4.16849 15.3316 4.29604 15.3765 4.396C15.418 4.48908 15.463 4.62696 15.4769 4.7028C15.4907 4.78898 15.4803 4.90963 15.4457 5.03028C15.4146 5.14059 15.3316 5.29572 15.252 5.39913C15.1482 5.53357 15.0513 5.60941 14.6777 5.78866L5.57942 5.77143L5.44105 5.69904C5.36494 5.65767 5.24386 5.5646 5.16775 5.49221C5.0951 5.41637 4.99824 5.28537 4.95327 5.1923C4.89446 5.07854 4.87024 4.97168 4.87024 4.8338C4.87024 4.69591 4.89791 4.5787 4.95327 4.4615C4.99824 4.36498 5.0951 4.23399 5.16775 4.16504C5.24386 4.09955 5.3338 4.02026 5.37186 3.99269Z" fill="#FFD521"/>
<path d="M34.9327 3.02748C35.0365 2.98611 35.1852 2.94474 35.2614 2.92751C35.3375 2.91372 35.4931 2.89993 35.6073 2.89648C35.7215 2.89648 35.9152 2.91372 36.0397 2.9413C36.1643 2.96543 36.3684 3.03437 36.4998 3.09642C36.6278 3.15502 36.8181 3.28601 36.9323 3.38598C37.0395 3.4894 37.1848 3.65486 37.2505 3.75828C37.3163 3.86169 37.4062 4.04439 37.4512 4.16849C37.5065 4.31787 37.54 4.50172 37.5515 4.72004C37.5653 4.96134 37.555 5.10612 37.5134 5.27159C37.4823 5.39568 37.4062 5.59562 37.3474 5.71972C37.2747 5.86795 37.1571 6.02652 36.9945 6.18853C36.8319 6.3471 36.6728 6.46775 36.524 6.54015C36.3995 6.60219 36.1885 6.67459 36.057 6.70216C35.9256 6.72974 35.7284 6.75387 35.6246 6.75387C35.5208 6.75387 35.3236 6.72974 35.1922 6.69872C35.0607 6.67114 34.8393 6.59185 34.7078 6.51946C34.5695 6.44707 34.3757 6.30229 34.2581 6.18509C34.144 6.07133 34.0021 5.88518 33.9399 5.77143C33.881 5.65767 33.8049 5.47152 33.7703 5.35777C33.7288 5.22333 33.7081 5.03718 33.7081 4.82345C33.7081 4.58215 33.7288 4.43392 33.7842 4.25467C33.8257 4.12368 33.9053 3.93753 33.9606 3.84101C34.016 3.74794 34.1128 3.6066 34.1786 3.53076C34.2443 3.45493 34.3965 3.32738 34.521 3.24465C34.6421 3.16192 34.8289 3.0654 34.9327 3.02748Z" fill="#FFD521"/>
<path d="M29.4322 2.96887C29.5187 2.94819 29.619 2.92406 29.6571 2.91372C29.6951 2.90683 29.8127 2.89993 29.9165 2.89648C30.0203 2.89648 30.2175 2.91717 30.349 2.94819C30.4839 2.97577 30.7018 3.05505 30.8333 3.12744C30.982 3.20673 31.1688 3.34462 31.3176 3.49629C31.4906 3.66865 31.5978 3.80999 31.6878 3.99613C31.757 4.13747 31.8296 4.3374 31.8504 4.43737C31.8711 4.53389 31.8884 4.71659 31.8884 4.84069C31.8884 4.96479 31.8711 5.14749 31.8504 5.24746C31.8296 5.34398 31.757 5.54391 31.6912 5.68525C31.5978 5.87829 31.5044 6.00583 31.3211 6.18509C31.1861 6.31953 30.9993 6.46775 30.9025 6.51946C30.8091 6.57117 30.605 6.64356 30.4527 6.68493C30.3005 6.72285 30.0826 6.75387 29.9684 6.75387C29.8543 6.75387 29.6536 6.72974 29.5187 6.69872C29.3872 6.67114 29.1693 6.59185 29.0344 6.51946C28.896 6.44707 28.7023 6.30229 28.5847 6.18509C28.4705 6.07133 28.3287 5.88518 28.2664 5.77143C28.2076 5.65767 28.1315 5.47152 28.0969 5.35777C28.0588 5.22333 28.0381 5.03373 28.0381 4.82345C28.0381 4.61318 28.0588 4.42358 28.0969 4.28914C28.1315 4.17539 28.2076 3.98924 28.2664 3.87548C28.3287 3.76172 28.4705 3.57558 28.5847 3.46182C28.7092 3.33772 28.8891 3.20328 29.0344 3.13089C29.1693 3.06195 29.3457 2.98956 29.4322 2.96887Z" fill="#FFD521"/>
</svg>
