<svg width="63" height="57" viewBox="0 0 63 57" fill="none" xmlns="http://www.w3.org/2000/svg">
<path fill-rule="evenodd" clip-rule="evenodd" d="M49.9343 0L50.6642 0.864513V6.5456L49.837 7.41011H43.6089L43.8522 7.90412C43.986 8.17583 44.278 8.58338 44.4969 8.80569C44.7037 9.02799 45.1295 9.3244 45.4336 9.48495C45.7377 9.63315 46.2851 9.7937 46.65 9.83075C47.0149 9.88015 47.465 9.9913 47.6596 10.0778C47.8421 10.1766 48.0367 10.3618 48.1097 10.4977C48.1827 10.6335 48.2313 10.9423 48.2313 11.1769C48.2313 11.4733 48.134 11.708 47.9272 11.9179C47.7569 12.0908 47.4772 12.2637 47.2947 12.3131C47.1001 12.3502 46.577 12.3255 46.1026 12.2514C45.6282 12.1773 44.8983 11.9303 44.4604 11.7203C44.0225 11.5104 43.463 11.1769 42.7574 10.6212V11.5474C42.7574 12.1032 42.6844 12.6589 42.5628 12.943C42.4655 13.19 42.2587 13.5358 42.1127 13.684C41.9667 13.8446 41.6383 14.0916 41.395 14.2151C41.1396 14.3386 40.799 14.4497 40.3246 14.4497V26.59C40.3246 36.7542 40.2881 38.8537 40.1421 39.5824C40.0448 40.064 39.7285 40.9162 39.4487 41.4966C39.0716 42.2747 38.7189 42.7687 38.0863 43.4233C37.4416 44.0655 36.9551 44.4236 36.1887 44.8065C35.617 45.1029 34.802 45.3993 33.5734 45.6587L33.5004 46.6961C33.4639 47.2642 33.3423 47.9064 33.245 48.104C33.1355 48.3016 32.8922 48.6351 32.7097 48.8327C32.5151 49.0303 32.138 49.2896 31.8704 49.4131C31.4811 49.5984 31.0797 49.6478 28.3428 49.6478L27.917 50.2282C27.6616 50.5617 27.2236 50.9445 26.8222 51.1668C26.3721 51.4262 25.9099 51.562 24.6448 51.6856L24.5718 55.8105L24.2069 56.1934C23.9271 56.4774 23.7325 56.5639 23.3919 56.5639C23.0391 56.5639 22.8445 56.4774 22.1998 55.8229V51.6238H17.03L16.6651 52.4513C16.4704 52.9206 16.0568 53.6245 15.7527 54.0197C15.4486 54.4273 14.8769 54.9954 14.4755 55.2795C14.0741 55.5759 13.2834 55.9834 12.7117 56.1934C11.8723 56.4898 11.4831 56.5639 10.6437 56.5639C9.85306 56.5639 9.40298 56.4898 8.69746 56.2551C8.19872 56.0822 7.59051 55.8229 7.35939 55.6747C7.12826 55.5265 6.69035 55.2177 6.38624 54.9707C6.0943 54.7237 5.60773 54.1926 5.31579 53.7851C5.02385 53.3775 4.68325 52.7353 4.30615 51.6856L3.3695 51.6114C2.65181 51.562 2.28688 51.4632 1.77598 51.1792C1.42322 50.9816 0.985306 50.6481 0.815006 50.4505C0.656871 50.2529 0.401421 49.8577 0 49.092V34.704C0 21.0447 0.0121643 20.279 0.218957 19.6986C0.3406 19.3651 0.632542 18.8217 0.863663 18.5006C1.09478 18.1671 1.5327 17.7225 1.83681 17.5126C2.14091 17.2903 2.65181 16.9939 2.95592 16.858C3.50331 16.6234 3.83175 16.611 18.6722 16.5493V5.80459L17.2611 5.77989C15.8987 5.74284 15.85 5.73049 15.5581 5.40938C15.3513 5.16238 15.2662 4.91538 15.2662 4.56957C15.2662 4.22377 15.3513 3.97676 15.85 3.3963L23.6595 3.33455L24.0609 3.69271C24.3772 3.98911 24.4502 4.14966 24.4502 4.56957C24.4502 4.98948 24.3772 5.15003 24.0609 5.44643C23.6717 5.79224 23.623 5.80459 21.105 5.80459V16.5493H22.7837C23.8785 16.5493 24.6935 16.611 25.1557 16.7345C25.5328 16.8333 26.141 17.105 26.4938 17.3273C26.8344 17.5496 27.2845 17.9325 27.4791 18.1671C27.6737 18.4018 28.0022 18.9452 28.586 20.1926L28.6469 39.2736H30.0214C31.2257 39.2736 31.4568 39.3107 31.992 39.57C32.3448 39.7429 32.7341 40.064 32.9287 40.3481C33.1112 40.6074 33.3179 41.015 33.3909 41.2496C33.4518 41.4843 33.5126 42.0154 33.5126 43.1639L33.9627 43.0775C34.2181 43.0281 34.729 42.8305 35.0939 42.6452C35.4589 42.46 36.0184 42.0524 36.3225 41.7436C36.6266 41.4349 37.0159 40.9409 37.1983 40.6321C37.3686 40.3234 37.5998 39.7429 37.7093 39.3354C37.8674 38.6931 37.8917 37.0506 37.8917 14.5115L37.3808 14.425C37.0889 14.3756 36.6631 14.178 36.432 13.9804C36.2009 13.7952 35.8846 13.3876 35.7265 13.0789C35.471 12.5478 35.4589 12.4243 35.4589 9.05269C35.4589 6.97786 35.5075 5.29823 35.5927 4.91538C35.6657 4.55722 35.8846 3.92736 36.0671 3.5198C36.2495 3.11225 36.6753 2.47004 37.0037 2.09953C37.3443 1.72903 37.8796 1.24737 38.208 1.02507C38.5364 0.802762 39.1568 0.494008 39.5947 0.321105C40.3854 0.0247004 40.4097 0.0247004 49.9343 0V0ZM39.2906 3.2728C39.023 3.48275 38.6581 3.89031 38.4756 4.19907C38.281 4.50782 38.0742 4.95243 38.0134 5.18708C37.9404 5.42173 37.8917 7.05196 37.8917 8.80569V11.9797H40.3246C40.3246 6.63205 40.3611 5.85399 40.4949 5.59464C40.58 5.39703 40.799 5.17473 40.9814 5.10063C41.1517 5.01418 41.7356 4.94008 42.2709 4.94008H43.244V2.47004C41.3829 2.48239 40.7746 2.55649 40.3732 2.69234C40.0448 2.80349 39.5461 3.0752 39.2906 3.2728ZM45.6768 4.94008H48.2313V2.47004H45.6768V4.94008ZM2.77345 20.0444L2.43285 20.5384L2.37203 25.3179H9.18403C9.90172 25.9725 9.9747 26.133 9.9747 26.5529C9.9747 26.9728 9.90172 27.1334 9.58545 27.4298L9.18403 27.7879H2.37203C2.37203 44.6336 2.42069 48.388 2.49368 48.5733C2.56666 48.7215 2.74913 48.9191 2.91943 48.9932C3.08973 49.0797 3.41816 49.1538 3.64928 49.1538C3.95339 49.1538 4.0872 49.092 4.12369 48.9315C4.16018 48.8203 4.221 48.5239 4.2575 48.2892C4.30615 48.0546 4.52511 47.4494 4.75623 46.9554C5.03601 46.3503 5.4131 45.8192 5.93617 45.2882C6.34975 44.8559 6.99446 44.3372 7.35939 44.1149C7.72431 43.9049 8.49066 43.6085 9.06238 43.4603C9.87739 43.2504 10.3031 43.2133 11.0695 43.2627C11.6777 43.2998 12.3589 43.448 12.8941 43.6579C13.3685 43.8308 14.0741 44.226 14.4755 44.5101C14.8769 44.8065 15.4365 45.3376 15.7162 45.7081C15.996 46.0786 16.3853 46.7331 16.5921 47.1777C16.7989 47.6223 17.0057 48.2398 17.0543 48.5733L17.1516 49.1538H25.5085L26.214 48.4128V27.7879C20.4481 27.7879 19.4385 27.7509 19.2074 27.6274C19.0249 27.5533 18.806 27.331 18.7208 27.1334C18.6235 26.9481 18.5505 26.6888 18.5505 26.5529C18.5505 26.4171 18.6235 26.1577 18.7208 25.9601C18.806 25.7748 19.0249 25.5525 19.2074 25.4661C19.4385 25.3549 20.4481 25.3179 22.8688 25.3179H26.214L26.1532 20.5384C25.5815 19.7356 25.2044 19.3898 24.9368 19.2539C24.4745 19.0316 24.0488 19.0193 14.293 19.0193C4.14802 19.0193 4.13585 19.0193 3.62495 19.2786C3.34518 19.4269 2.96808 19.7727 2.77345 20.0444ZM28.6469 47.1777L31.0189 47.116V41.8054L28.659 41.7313L28.6469 47.1777ZM8.63663 46.2144C8.42984 46.3256 8.02842 46.659 7.72431 46.9554C7.43237 47.2518 7.04312 47.7952 6.87282 48.1657C6.61737 48.7339 6.56871 49.0303 6.56871 49.8948C6.56871 50.7593 6.61737 51.068 6.87282 51.6238C7.04312 52.0067 7.43237 52.5501 7.72431 52.8465C8.02842 53.1552 8.56365 53.5381 8.94074 53.711C9.5003 53.9827 9.76791 54.0321 10.6437 54.0321C11.4466 54.0321 11.7993 53.958 12.2494 53.748C12.5657 53.5998 13.1131 53.217 13.4415 52.8959C13.7943 52.5624 14.2079 52.0067 14.3903 51.6238C14.658 51.0557 14.7066 50.784 14.7066 49.8948C14.7066 49.0179 14.658 48.7339 14.3903 48.1657C14.2079 47.7952 13.7943 47.2271 13.4415 46.906C13.1131 46.5849 12.5657 46.2021 12.2494 46.0539C11.8967 45.8933 11.3371 45.7698 10.8262 45.7451C10.3153 45.7204 9.78008 45.7698 9.48813 45.8686C9.22052 45.9551 8.83126 46.1156 8.63663 46.2144Z" fill="#FFD521"/>
<path d="M9.622 49.2895C9.73148 49.129 9.93827 48.919 10.0721 48.8326C10.218 48.7461 10.4857 48.672 10.6803 48.6597C10.8992 48.6597 11.1506 48.8038 11.4345 49.0919C11.7264 49.3883 11.8602 49.6353 11.8602 49.8947C11.8602 50.154 11.7264 50.401 11.4466 50.6974C11.179 50.9692 10.9236 51.1297 10.7168 51.1297C10.5465 51.1297 10.2545 51.0556 10.0842 50.9815C9.90177 50.8951 9.68282 50.6727 9.59767 50.4875C9.50035 50.2899 9.42737 50.0182 9.42737 49.87C9.43953 49.7094 9.52468 49.4501 9.622 49.2895Z" fill="#FFD521"/>
<path d="M13.2714 25.9477C13.3809 25.7871 13.5877 25.5772 13.7215 25.4784C13.8796 25.3796 14.1594 25.3425 14.4149 25.3796C14.646 25.4166 14.9622 25.5648 15.1204 25.7254C15.2664 25.8736 15.4245 26.1576 15.4731 26.3676C15.5218 26.6146 15.461 26.8739 15.315 27.1333C15.1812 27.3556 14.9622 27.5903 14.8163 27.6644C14.6581 27.7261 14.3784 27.7879 14.1716 27.7879C13.9283 27.7879 13.685 27.6644 13.4417 27.4174C13.1863 27.158 13.0768 26.9357 13.0768 26.6393C13.0889 26.4293 13.1741 26.1082 13.2714 25.9477Z" fill="#FFD521"/>
<path d="M53.2311 0.703961C53.3041 0.555759 53.4865 0.333455 53.6325 0.222303C53.8636 0.0247004 54.2651 0 57.6589 0C61.0527 0 61.4541 0.0247004 61.6853 0.222303C61.8312 0.333455 62.0137 0.555759 62.0867 0.703961C62.1597 0.864513 62.2205 1.09917 62.2205 1.23502C62.2205 1.37087 62.1475 1.63023 62.0745 1.80313C61.9894 1.98838 61.7704 2.21068 61.588 2.29714C61.3203 2.43299 60.4688 2.47004 57.6589 2.47004C55.0436 2.47004 53.9853 2.43299 53.7542 2.30949C53.5717 2.23538 53.3527 2.01308 53.2676 1.82783C53.1703 1.63023 53.0973 1.37087 53.0973 1.23502C53.0973 1.09917 53.1581 0.864513 53.2311 0.703961Z" fill="#FFD521"/>
<path d="M53.2919 5.57005C53.4014 5.40949 53.6082 5.19954 53.742 5.11309C53.9488 4.98959 54.8489 4.95254 57.6224 4.94019C60.4688 4.94019 61.3203 4.97724 61.5758 5.11309C61.7704 5.19954 61.9894 5.42184 62.0624 5.6071C62.1475 5.78 62.2205 6.03935 62.2205 6.1752C62.2205 6.31106 62.1475 6.57041 62.0624 6.74331C61.9894 6.92857 61.7704 7.15087 61.5758 7.23732C61.3203 7.37317 60.4688 7.41022 57.6589 7.41022C55.0436 7.41022 53.9853 7.37317 53.7542 7.24967C53.5717 7.17557 53.3527 6.95327 53.2676 6.75566C53.1703 6.57041 53.0973 6.29871 53.0973 6.13815C53.1095 5.98995 53.1946 5.7306 53.2919 5.57005Z" fill="#FFD521"/>
</svg>
