<svg width="82" height="82" viewBox="0 0 82 82" fill="none" xmlns="http://www.w3.org/2000/svg">
<path d="M46.3735 46.3512C42.2405 50.6128 41.9399 55.9256 41.5829 67.5649C52.4415 67.5649 59.9373 67.5649 63.8073 63.8103C67.6773 60.0557 67.5646 52.0958 67.5646 41.6016C55.917 41.9771 50.6568 42.2587 46.3359 46.3888M46.3735 36.2137C42.2405 31.9522 41.9399 26.6394 41.5829 15C52.4415 15 59.9373 15 63.8073 18.7546C67.6773 22.5093 67.5646 30.4691 67.5646 40.9633C55.917 40.5879 50.6568 40.3063 46.3359 36.1762M15.0001 41.5641C15.0001 52.0583 15.0001 59.9055 18.7574 63.7728C22.5147 67.64 30.1232 67.5274 40.9818 67.5274C40.606 55.888 40.3242 50.6315 36.1912 46.3137C32.0582 41.9959 26.6477 41.9208 15.0001 41.5641ZM41.0193 15C30.1796 15 22.665 15 18.795 18.7546C14.925 22.5093 15.0001 30.5067 15.0001 41.0009C26.6477 40.6254 31.9079 40.3438 36.2288 36.2137C40.5497 32.0836 40.6624 26.6394 41.0193 15Z" stroke="black" stroke-width="4" stroke-miterlimit="10"/>
</svg>
