<svg width="82" height="82" viewBox="0 0 82 82" fill="none" xmlns="http://www.w3.org/2000/svg">
<mask id="path-1-inside-1_502_2509" fill="white">
<path d="M55.6428 11.7142H26.3571C18.2701 11.7142 11.7142 18.2701 11.7142 26.3571V55.6428C11.7142 63.7298 18.2701 70.2857 26.3571 70.2857H55.6428C63.7298 70.2857 70.2857 63.7298 70.2857 55.6428V26.3571C70.2857 18.2701 63.7298 11.7142 55.6428 11.7142Z"/>
<path d="M52.7142 39.1549C53.0757 41.5922 52.6593 44.0814 51.5245 46.2685C50.3897 48.4555 48.5942 50.2291 46.3933 51.3368C44.1924 52.4446 41.6983 52.8302 39.2656 52.4387C36.833 52.0473 34.5857 50.8988 32.8434 49.1565C31.1011 47.4142 29.9526 45.1669 29.5611 42.7343C29.1697 40.3016 29.5553 37.8075 30.663 35.6066C31.7708 33.4057 33.5444 31.6102 35.7314 30.4754C37.9185 29.3405 40.4077 28.9242 42.8449 29.2857C45.3311 29.6543 47.6327 30.8128 49.4099 32.59C51.1871 34.3672 52.3456 36.6688 52.7142 39.1549Z"/>
<path d="M61.4999 23.4285C61.4999 25.0459 60.1888 26.3571 58.5714 26.3571C56.954 26.3571 55.6428 25.0459 55.6428 23.4285C55.6428 21.8111 56.954 20.4999 58.5714 20.4999C60.1888 20.4999 61.4999 21.8111 61.4999 23.4285Z"/>
</mask>
<path d="M52.7142 39.1549L48.7575 39.7417L52.7142 39.1549ZM42.8449 29.2857L42.2582 33.2424L42.8449 29.2857ZM26.3571 15.7142H55.6428V7.71423H26.3571V15.7142ZM55.6428 15.7142C61.5207 15.7142 66.2857 20.4792 66.2857 26.3571H74.2857C74.2857 16.0609 65.939 7.71423 55.6428 7.71423V15.7142ZM66.2857 26.3571V55.6428H74.2857V26.3571H66.2857ZM66.2857 55.6428C66.2857 61.5207 61.5207 66.2857 55.6428 66.2857V74.2857C65.939 74.2857 74.2857 65.939 74.2857 55.6428H66.2857ZM55.6428 66.2857H26.3571V74.2857H55.6428V66.2857ZM26.3571 66.2857C20.4792 66.2857 15.7142 61.5207 15.7142 55.6428H7.71423C7.71423 65.939 16.0609 74.2857 26.3571 74.2857V66.2857ZM15.7142 55.6428V26.3571H7.71423V55.6428H15.7142ZM15.7142 26.3571C15.7142 20.4792 20.4792 15.7142 26.3571 15.7142V7.71423C16.0609 7.71423 7.71423 16.0609 7.71423 26.3571H15.7142ZM48.7575 39.7417C48.9955 41.3467 48.7214 42.986 47.974 44.4262L55.075 48.1108C56.5973 45.1769 57.1558 41.8378 56.671 38.5682L48.7575 39.7417ZM47.974 44.4262C47.2267 45.8665 46.0443 47.0344 44.5949 47.7639L48.1916 54.9098C51.144 53.4238 53.5527 51.0446 55.075 48.1108L47.974 44.4262ZM44.5949 47.7639C43.1456 48.4934 41.5031 48.7473 39.9011 48.4895L38.6301 56.3879C41.8934 56.9131 45.2392 56.3958 48.1916 54.9098L44.5949 47.7639ZM39.9011 48.4895C38.2991 48.2318 36.8192 47.4754 35.6718 46.3281L30.015 51.9849C32.3522 54.3221 35.3668 55.8628 38.6301 56.3879L39.9011 48.4895ZM35.6718 46.3281C34.5245 45.1807 33.7681 43.7008 33.5103 42.0988L25.6119 43.3698C26.1371 46.6331 27.6778 49.6477 30.015 51.9849L35.6718 46.3281ZM33.5103 42.0988C33.2526 40.4968 33.5065 38.8543 34.236 37.405L27.0901 33.8083C25.6041 36.7607 25.0868 40.1065 25.6119 43.3698L33.5103 42.0988ZM34.236 37.405C34.9655 35.9556 36.1334 34.7732 37.5737 34.0259L33.8891 26.9249C30.9553 28.4472 28.5761 30.8559 27.0901 33.8083L34.236 37.405ZM37.5737 34.0259C39.0139 33.2785 40.6532 33.0044 42.2582 33.2424L43.4317 25.3289C40.1621 24.8441 36.823 25.4026 33.8891 26.9249L37.5737 34.0259ZM42.2582 33.2424C43.8954 33.4852 45.4111 34.2481 46.5815 35.4184L52.2383 29.7616C49.8543 27.3775 46.7667 25.8235 43.4317 25.3289L42.2582 33.2424ZM46.5815 35.4184C47.7518 36.5888 48.5147 38.1045 48.7575 39.7417L56.671 38.5682C56.1764 35.2332 54.6224 32.1456 52.2383 29.7616L46.5815 35.4184ZM57.4999 23.4285C57.4999 22.8368 57.9796 22.3571 58.5714 22.3571V30.3571C62.3979 30.3571 65.4999 27.2551 65.4999 23.4285H57.4999ZM58.5714 22.3571C59.1631 22.3571 59.6428 22.8368 59.6428 23.4285H51.6428C51.6428 27.2551 54.7448 30.3571 58.5714 30.3571V22.3571ZM59.6428 23.4285C59.6428 24.0203 59.1631 24.4999 58.5714 24.4999V16.4999C54.7448 16.4999 51.6428 19.602 51.6428 23.4285H59.6428ZM58.5714 24.4999C57.9796 24.4999 57.4999 24.0203 57.4999 23.4285H65.4999C65.4999 19.602 62.3979 16.4999 58.5714 16.4999V24.4999Z" fill="black" mask="url(#path-1-inside-1_502_2509)"/>
</svg>
