<svg width="82" height="82" viewBox="0 0 82 82" fill="none" xmlns="http://www.w3.org/2000/svg">
<path d="M39.7496 65.5843H43.9476C43.9476 65.5843 45.215 65.4357 45.8632 64.6948C46.4583 64.0119 46.439 62.7384 46.439 62.7384C46.439 62.7384 46.357 56.7632 48.9707 55.8789C51.5442 55.0116 54.8576 61.6577 58.3656 64.2134C61.0163 66.1459 63.03 65.7225 63.03 65.7225L72.4088 65.5843C72.4088 65.5843 77.3145 65.2633 74.9823 61.1678C74.7925 60.8263 73.628 58.1392 68.0097 52.6045C62.1277 46.812 62.9158 47.7492 70.001 37.728C74.3148 31.6248 76.039 27.898 75.5002 26.3034C74.9871 24.7823 71.8137 25.1835 71.8137 25.1835L61.2543 25.2535C61.2543 25.2535 60.4694 25.1408 59.8904 25.5096C59.3113 25.8783 58.9575 26.7046 58.9575 26.7046C58.9575 26.7046 57.2943 31.4336 55.0667 35.4437C50.3636 43.9183 48.4833 44.3673 47.7145 43.8397C45.9275 42.614 46.3731 38.9196 46.3731 36.2973C46.3731 28.084 47.5472 24.6594 44.0875 23.7734C42.9455 23.4729 42.0946 23.2783 39.1593 23.2476C35.3859 23.2066 32.2028 23.2595 30.3997 24.1985C29.1982 24.8216 28.2718 26.2129 28.8363 26.2932C29.5344 26.3922 31.1155 26.7456 31.9535 27.956C33.036 29.5198 32.9973 33.0281 32.9973 33.0281C32.9973 33.0281 33.6198 42.6959 31.5498 43.8961C30.1263 44.7206 28.172 43.0425 23.9901 35.3499C22.5615 32.6751 21.2967 29.9055 20.2039 27.058C20.2039 27.058 19.8918 26.2454 19.3337 25.8101C18.8431 25.4645 18.2915 25.2281 17.7124 25.1152L7.67739 25.1835C7.67739 25.1835 6.1719 25.2296 5.6186 25.9244C5.12642 26.5424 5.57839 27.8211 5.57839 27.8211C5.57839 27.8211 13.434 47.3292 22.3302 57.161C30.4882 66.175 39.7496 65.5843 39.7496 65.5843Z" stroke="black" stroke-width="4" stroke-miterlimit="10"/>
</svg>
