<svg width="82" height="82" viewBox="0 0 82 82" fill="none" xmlns="http://www.w3.org/2000/svg">
<path d="M71.8689 24.6586C71.521 23.2687 70.8125 21.9952 69.8149 20.9668C68.8174 19.9384 67.5661 19.1915 66.1874 18.8014C61.1503 17.5714 41.0017 17.5714 41.0017 17.5714C41.0017 17.5714 20.8532 17.5714 15.816 18.9186C14.4374 19.3086 13.1861 20.0555 12.1885 21.084C11.191 22.1124 10.4825 23.3858 10.1346 24.7757C9.21271 29.8877 8.76177 35.0735 8.78744 40.2678C8.75458 45.5013 9.20555 50.7267 10.1346 55.8771C10.5181 57.2238 11.2425 58.4488 12.2377 59.4338C13.233 60.4188 14.4654 61.1304 15.816 61.5C20.8532 62.8471 41.0017 62.8471 41.0017 62.8471C41.0017 62.8471 61.1503 62.8471 66.1874 61.5C67.5661 61.1099 68.8174 60.363 69.8149 59.3346C70.8125 58.3062 71.521 57.0327 71.8689 55.6428C72.7836 50.5693 73.2345 45.4231 73.216 40.2678C73.2489 35.0344 72.7979 29.809 71.8689 24.6586Z" stroke="black" stroke-width="4" stroke-linecap="round" stroke-linejoin="round"/>
<path d="M34.4124 49.8443L51.2517 40.2678L34.4124 30.6914V49.8443Z" stroke="black" stroke-width="4" stroke-linecap="round" stroke-linejoin="round"/>
</svg>
