<?xml version="1.0" encoding="utf-8"?>
<!-- Generator: Adobe Illustrator 26.0.1, SVG Export Plug-In . SVG Version: 6.00 Build 0)  -->
<svg version="1.1" id="Слой_1" xmlns="http://www.w3.org/2000/svg" xmlns:xlink="http://www.w3.org/1999/xlink" x="0px" y="0px"
	 viewBox="0 0 2192.4 1440" style="enable-background:new 0 0 2192.4 1440;" xml:space="preserve">
<style type="text/css">
	.st0{fill:#FFFFFF;}
	.st1{opacity:0.2;}
	.st2{fill:#FE0847;}
</style>
<g>
	<g>
		<path class="st0" d="M1890,878.4l17.3-86.8h-34.2l4.1-20.2h93.2l-4.1,20.2h-34.1l-17.4,86.8H1890z"/>
		<path class="st0" d="M1984.9,878.4H1960l21.4-106.9h24.9L1984.9,878.4z M2044,834.6h-52.1l4.1-20.9h52.1L2044,834.6z
			 M2054.7,771.5h24.7L2058,878.4h-24.7L2054.7,771.5z"/>
		<path class="st0" d="M2110.4,858.6h58.3l-4.1,19.9h-82.8l21.4-106.9h80.8l-4.1,19.9h-56.1L2110.4,858.6z M2117.5,814.6h51.5
			l-3.8,19.2h-51.5L2117.5,814.6z"/>
		<path class="st0" d="M1518.4,1065h-24.9l21.4-106.9h80.8l-4.1,19.9h-55.9L1518.4,1065z M1528.2,1006.2h51.5l-4.1,19.9h-51.3
			L1528.2,1006.2z"/>
		<path class="st0" d="M1571.4,1065l69-106.9h24.6l26.3,106.9h-24.7l-20.8-94.7h9.8l-57.7,94.7H1571.4z M1599.9,1042.1l10.1-18.8
			h55.1l2.9,18.8H1599.9z"/>
		<path class="st0" d="M1740.1,1066.9c-5.8,0-11.4-0.5-16.9-1.6c-5.4-1.1-10.4-2.5-14.8-4.4c-4.4-1.8-8.2-3.8-11.2-6l10.1-19.1
			c3.4,2.3,6.9,4.4,10.8,6c3.8,1.7,7.8,3,12,3.8c4.2,0.9,8.3,1.3,12.5,1.3c4.6,0,8.5-0.5,11.8-1.5c3.3-1,5.9-2.4,7.6-4.3
			c1.8-1.8,2.7-4.1,2.7-6.7c0-2.4-1-4.4-2.9-6c-1.9-1.5-4.5-2.8-7.6-3.9c-3.1-1.1-6.5-2.1-10.3-3.1c-3.8-1-7.6-2.2-11.4-3.6
			c-3.8-1.4-7.3-3.1-10.4-5.2c-3.1-2.1-5.6-4.8-7.6-8c-1.9-3.3-2.9-7.3-2.9-12.2c0-7.3,2-13.7,6-19.1c4-5.4,9.7-9.6,17-12.6
			c7.3-3,15.9-4.5,25.8-4.5c7.2,0,14.1,0.8,20.5,2.4c6.4,1.6,11.9,3.8,16.5,6.8l-9.3,18.9c-4.1-2.8-8.6-4.8-13.6-6.2
			c-5-1.4-10.1-2.1-15.4-2.1c-4.8,0-8.9,0.6-12.3,1.7s-6,2.7-7.8,4.7s-2.7,4.3-2.7,6.8c0,2.5,0.9,4.6,2.8,6.2c1.9,1.6,4.4,2.9,7.6,4
			c3.2,1.1,6.6,2.1,10.4,3.1c3.8,1,7.5,2.2,11.3,3.5c3.8,1.3,7.2,3,10.4,5s5.7,4.6,7.6,7.7c1.9,3.1,2.9,7,2.9,11.7
			c0,7.3-2,13.7-6.1,19.2c-4.1,5.4-9.8,9.7-17.2,12.7S1750.1,1066.9,1740.1,1066.9z"/>
		<path class="st0" d="M1821.5,1065l17.3-86.8h-34.2l4.1-20.2h93.2l-4.1,20.2h-34.1l-17.4,86.8H1821.5z"/>
		<path class="st0" d="M1920,1045.2h58.3l-4.1,19.9h-82.8l21.4-106.9h80.8l-4.1,19.9h-56.1L1920,1045.2z M1927,1001.2h51.5
			l-3.8,19.2h-51.5L1927,1001.2z"/>
		<path class="st0" d="M2030.7,1066.9c-5.8,0-11.4-0.5-16.9-1.6c-5.4-1.1-10.4-2.5-14.8-4.4c-4.4-1.8-8.2-3.8-11.2-6l10.1-19.1
			c3.4,2.3,6.9,4.4,10.8,6c3.8,1.7,7.8,3,12,3.8c4.2,0.9,8.3,1.3,12.5,1.3c4.6,0,8.5-0.5,11.8-1.5c3.3-1,5.9-2.4,7.6-4.3
			c1.8-1.8,2.7-4.1,2.7-6.7c0-2.4-1-4.4-2.9-6c-1.9-1.5-4.5-2.8-7.6-3.9c-3.1-1.1-6.5-2.1-10.3-3.1s-7.6-2.2-11.4-3.6
			s-7.3-3.1-10.4-5.2c-3.1-2.1-5.6-4.8-7.6-8c-1.9-3.3-2.9-7.3-2.9-12.2c0-7.3,2-13.7,6-19.1c4-5.4,9.7-9.6,17-12.6
			c7.3-3,15.9-4.5,25.8-4.5c7.2,0,14.1,0.8,20.5,2.4c6.4,1.6,11.9,3.8,16.5,6.8l-9.3,18.9c-4.1-2.8-8.6-4.8-13.6-6.2
			c-5-1.4-10.1-2.1-15.4-2.1c-4.8,0-8.9,0.6-12.3,1.7c-3.4,1.1-6,2.7-7.8,4.7s-2.7,4.3-2.7,6.8c0,2.5,0.9,4.6,2.8,6.2
			c1.9,1.6,4.4,2.9,7.6,4c3.2,1.1,6.6,2.1,10.4,3.1c3.8,1,7.5,2.2,11.3,3.5c3.8,1.3,7.2,3,10.4,5c3.2,2,5.7,4.6,7.6,7.7
			c1.9,3.1,2.9,7,2.9,11.7c0,7.3-2,13.7-6.1,19.2c-4.1,5.4-9.8,9.7-17.2,12.7C2049.3,1065.3,2040.6,1066.9,2030.7,1066.9z"/>
		<path class="st0" d="M2112.1,1065l17.3-86.8h-34.2l4.1-20.2h93.2l-4.1,20.2h-34.1l-17.4,86.8H2112.1z"/>
		<path class="st0" d="M1421.3,1251.6l69-106.9h24.6l26.3,106.9h-24.7l-20.8-94.7h9.8l-57.7,94.7H1421.3z M1449.9,1228.7l10.1-18.8
			h55.1l2.9,18.8H1449.9z"/>
		<path class="st0" d="M1550.8,1251.6l21.4-106.9h43.5c13.3,0,23.6,2.9,30.9,8.7c7.3,5.8,10.9,14,10.9,24.4c0,9-2.1,16.7-6.3,23.3
			c-4.2,6.6-10.2,11.6-18,15.2c-7.8,3.6-17,5.3-27.6,5.3h-34.8l13-10.8l-8.1,40.8H1550.8z M1583.2,1213.7l-8.6-11.8h31.9
			c8.2,0,14.6-1.9,19.2-5.6c4.5-3.7,6.8-9.1,6.8-16.3c0-5.2-1.8-9-5.3-11.5c-3.5-2.5-8.4-3.7-14.7-3.7h-30.1l13-12.1L1583.2,1213.7z
			 M1619.6,1251.6l-21.8-38.8h26l22,38.8H1619.6z"/>
		<path class="st0" d="M1651.6,1251.6l69-106.9h24.6l26.3,106.9h-24.7l-20.8-94.7h9.8l-57.7,94.7H1651.6z M1680.2,1228.7l10.1-18.8
			h55.1l2.9,18.8H1680.2z"/>
		<path class="st0" d="M1781.1,1251.6l21.4-106.9h51.6c11.6,0,20.5,2.1,26.7,6.3c6.2,4.2,9.2,10.2,9.2,18.2c0,6.7-1.8,12.4-5.3,17
			c-3.5,4.6-8.2,8-14,10.4c-5.8,2.3-12.1,3.5-18.9,3.5l4-6.1c9,0,16.1,2.1,21.5,6.2c5.3,4.1,8,10.1,8,17.8c0,7.5-2.1,13.8-6.2,18.9
			c-4.1,5-9.8,8.8-17,11.2c-7.2,2.4-15.5,3.7-24.9,3.7H1781.1z M1809.5,1233h29.2c6.8,0,12.2-1.3,16.1-3.9c3.9-2.6,5.9-6.4,5.9-11.5
			c0-4-1.4-6.8-4.4-8.5c-2.9-1.7-6.8-2.5-11.7-2.5H1812l3.7-18h27.8c4.3,0,8-0.6,11.1-1.7c3.1-1.1,5.5-2.8,7.1-5.1
			c1.6-2.3,2.4-5.1,2.4-8.3c0-3.6-1.4-6.1-4.1-7.7c-2.8-1.6-6.6-2.4-11.6-2.4h-25L1809.5,1233z"/>
		<path class="st0" d="M1896.6,1251.6l21.4-106.9h24.9l-21.4,106.9H1896.6z"/>
		<path class="st0" d="M1931.4,1251.6l69-106.9h24.6l26.3,106.9h-24.7l-20.8-94.7h9.8l-57.7,94.7H1931.4z M1960,1228.7l10.1-18.8
			h55.1l2.9,18.8H1960z"/>
		<path class="st0" d="M2060.9,1251.6l21.4-106.9h20.5l46,77.4l-8.1-0.5l15.3-77h24.4l-21.4,106.9h-20.3l-46.1-77.4l8.2,0.5
			l-15.4,77H2060.9z"/>
		<path class="st0" d="M979.1,1438.2l21.4-106.9h20.2l30.4,75.8l-10.7-0.2l59.3-75.6h21.2l-21.2,106.9h-23.2l14.2-71.6h4.7
			l-47.2,60.3h-11l-25.2-60.5l4.6,0.5l-14.2,71.3H979.1z"/>
		<path class="st0" d="M1109.5,1438.2l69-106.9h24.6l26.3,106.9h-24.7l-20.8-94.7h9.8l-57.7,94.7H1109.5z M1138.1,1415.3l10.1-18.8
			h55.1l2.9,18.8H1138.1z"/>
		<path class="st0" d="M1239,1438.2l21.4-106.9h43.5c13.3,0,23.6,2.9,30.9,8.7c7.3,5.8,10.9,14,10.9,24.4c0,9-2.1,16.7-6.3,23.3
			c-4.2,6.6-10.2,11.6-18,15.2c-7.8,3.6-17,5.3-27.6,5.3H1259l13-10.8l-8.1,40.8H1239z M1271.4,1400.3l-8.6-11.8h31.9
			c8.2,0,14.6-1.9,19.2-5.6c4.5-3.7,6.8-9.1,6.8-16.3c0-5.2-1.8-9-5.3-11.5c-3.5-2.5-8.4-3.7-14.7-3.7h-30.1l13-12.1L1271.4,1400.3z
			 M1307.8,1438.2l-21.8-38.8h26l22,38.8H1307.8z"/>
		<path class="st0" d="M1349.5,1438.2l21.4-106.9h24.6l-21.4,106.9H1349.5z M1377,1413.7l3.4-28.7l60.8-53.8h29.9l-56.4,49.6
			l-16.3,13.9L1377,1413.7z M1424.2,1438.2l-30.5-46.6l17.6-16.6l40.8,63.2H1424.2z"/>
		<path class="st0" d="M1489.9,1418.3h58.3l-4.1,19.9h-82.8l21.4-106.9h80.8l-4.1,19.9h-56.1L1489.9,1418.3z M1496.9,1374.3h51.5
			l-3.8,19.2h-51.5L1496.9,1374.3z"/>
		<path class="st0" d="M1585.6,1438.2l17.3-86.8h-34.2l4.1-20.2h93.2l-4.1,20.2h-34.1l-17.4,86.8H1585.6z"/>
		<path class="st0" d="M1655.5,1438.2l21.4-106.9h43.2c13.3,0,23.6,2.9,30.9,8.8c7.3,5.9,10.9,14,10.9,24.5c0,9-2.1,16.8-6.3,23.4
			c-4.2,6.7-10.2,11.8-17.9,15.4c-7.8,3.6-17,5.3-27.7,5.3h-34.7l13.1-11.3l-8.1,40.8H1655.5z M1687.9,1400.3l-8.7-11.8h31.9
			c8.1,0,14.5-1.9,19-5.6c4.5-3.7,6.8-9.1,6.8-16.3c0-5.2-1.7-9-5.2-11.5c-3.5-2.5-8.3-3.7-14.7-3.7H1687l13.1-12.1L1687.9,1400.3z"
			/>
		<path class="st0" d="M1764.4,1438.2l21.4-106.9h24.9l-17.4,86.8h53.6l-4.1,20.2H1764.4z"/>
		<path class="st0" d="M1847.3,1438.2l69-106.9h24.6l26.3,106.9h-24.7l-20.8-94.7h9.8l-57.7,94.7H1847.3z M1875.9,1415.3l10.1-18.8
			h55.1l2.9,18.8H1875.9z"/>
		<path class="st0" d="M2028.1,1440c-10.9,0-20.3-2-28.2-5.9c-7.9-3.9-14-9.4-18.3-16.3c-4.3-7-6.4-15-6.4-24.2
			c0-9.1,1.6-17.5,4.8-25.4c3.2-7.8,7.7-14.6,13.6-20.4c5.9-5.8,12.8-10.3,20.9-13.5c8.1-3.3,17.1-4.9,27.1-4.9
			c9.6,0,18,1.6,25.4,4.9c7.3,3.3,12.9,7.9,16.6,14.1l-17.9,14.7c-2.8-4.1-6.3-7.2-10.5-9.3c-4.3-2.1-9.4-3.2-15.3-3.2
			c-6,0-11.5,1-16.3,3.1c-4.9,2.1-9.1,5-12.6,8.9s-6.2,8.3-8,13.4c-1.8,5.1-2.8,10.5-2.8,16.2c0,5.4,1.2,10.1,3.5,14.1
			c2.3,4,5.8,7.2,10.2,9.4c4.5,2.2,9.9,3.4,16.2,3.4c5.5,0,10.6-1,15.4-3c4.8-2,9.1-5.1,13-9.4l14.7,15
			c-5.6,6.5-12.2,11.2-19.9,14.1C2045.7,1438.5,2037.3,1440,2028.1,1440z"/>
		<path class="st0" d="M2110.4,1418.3h58.3l-4.1,19.9h-82.8l21.4-106.9h80.8l-4.1,19.9h-56.1L2110.4,1418.3z M2117.5,1374.3h51.5
			l-3.8,19.2h-51.5L2117.5,1374.3z"/>
	</g>
	<g>
		<g>
			<path class="st0" d="M2142.1,202l12-26.8c38.4-85.7,27.3-143.7,19.9-166.3c0,0,0,0,0,0c-0.5-1.5-1-2.8-1.4-4
				c-1.5-3.9-5.7-5.8-9.6-4.3c-19,7.4-73.9,35.8-114.9,127.2l-12,26.8c-0.5,0-29.6,0.1-40.3,24l-19.7,43.9
				c-2.4,5.4,1.9,11.4,7.8,10.8c3.8-0.4,8.5-1.5,14.3-4c1.7-0.8,3.5-1.4,5.2-1.8c12.7-3.4,24.7,0.7,29.3,2.6c1.3,0.5,2,0.9,2,0.9
				l13.3,6l-8.7,19.4c-1.4,3.2-0.3,6.9,2.5,8.8c0.3,0.2,0.7,0.4,1,0.6l11.7,5.2c0.2,0.1,0.3,0.1,0.5,0.2c3.5,1.3,7.3-0.4,8.9-3.7
				l8.7-19.5l4.6,2l8.8,4c0,0,0.8,0.3,2,0.9c3,1.4,8.7,4.6,14,9.9c2.7,2.8,5.3,6.1,7.4,10.2c0.8,1.6,1.5,3.3,2.1,5.1
				c2,6,4.3,10.3,6.5,13.3c3.5,4.8,10.8,4.1,13.3-1.3l19.7-43.9c10.1-22.5-6.4-43.1-8.7-45.8C2142.2,202.1,2142.1,202,2142.1,202z
				 M2102,89.1c5.6-12.5,20.2-18,32.7-12.4c12.5,5.6,18,20.2,12.4,32.7c-5.6,12.5-20.2,18-32.7,12.4
				C2102,116.2,2096.4,101.6,2102,89.1z"/>
			<g>
				<path class="st0" d="M1053.7,566.8c-1.3-12.6-2.7-22.8-4.2-32c-1.3-8.2-2.6-16.4-4.1-24.7c-0.5-2.1-1.1-5.3-1.7-7.4
					c-7.3-29.9-45.6-48.2-75.5-40.8c-22.5,5.6-62.2,35.8-54.2,91.6c0,0,70.6,418.1-162.7,650.9c-30,30-72.8,36.2-109,18.9
					c-39.8-21.2-59.2-68.4-73.3-110.2c-1.6-4.8-3.1-9.5-4.6-14.3c68.1-101.2,119.3-214.5,135.9-337.1c4.8-25-1.2-52.9-17.3-73.3
					c-28.5-37.9-85.5-47.3-124.2-19.8c-13.9,9.4-23,22.1-32.3,34.9c-71,97.5-88.2,223.9-72,340.1c1.8,11.5,3.7,23.1,5.9,34.6
					c-28.4,37.1-59.5,72.1-92.6,104.8c-53.7,53.3-113.9,100.6-183.5,129.8c-0.9,0.4-1.8,0.8-2.8,1.2c-1.2-1.8-2.7-4.3-4.1-7.3
					c-15.2-30.7-18.9-68.7-23-103.2c-8.7-78.8-5.9-159.2,7.2-237.1c10.4-62.4,27.2-123.1,49.7-182.3c28.2-73.7,62.9-144,107.6-209.4
					c24.5-36.4,49.7-73.4,76.7-107.8l2.7-3.1c0.2-0.2,0.3-0.2,0.3-0.2l0,0.2c0,0.2-0.1,0.3-0.2,0.4c37.4-44.6,31.6-111.2-13-148.7
					c-46.3-39.1-117.2-30.6-152.8,18.4c-2.6,3.4-6.3,8.8-8.6,12.2c-36.9,58-69.7,116-101.1,177.5c-102.9,211.6-149.3,455-107,688.3
					c9.5,49.9,18.9,98.4,43.6,144.9c35.1,69.1,104.8,105.6,176.7,64.2c103-53.1,186.9-139.6,258.3-227.9
					c11.7,25.8,26.7,50.2,46.4,72.3c53.1,59.7,133.9,75.5,205.9,43c112.1-50.7,188-178.8,235.2-302c10-26.1,18.7-52,26.2-76.9h0
					c3.6-11.9,6.9-23.5,9.9-34.9c4.8-17.5,9-35.2,12.9-53c12.2-56.1,19.9-113.1,24.2-170.5C1057.5,636.3,1057.3,601.4,1053.7,566.8z
					 M538.5,957.7c-0.1-63.5,17.5-126.4,54.9-177.5c-4.5,45.9-13.5,92-33.1,133.9C553.5,928.9,546.2,943.4,538.5,957.7z"/>
				<path class="st0" d="M2071.5,222.6c-3-1.6-6.7-0.4-8.3,2.6c-6.5,12.3-13.6,25.6-21.3,39.8c-0.7,1.2-1.4,2.5-2,3.7
					c0,0,0,0.1-0.1,0.2c-2.4,4.4-4.9,8.9-7.4,13.4c-2.2,4-4.4,7.9-6.7,12c-2.5,4.4-5,8.8-7.6,13.4c-2.5,4.4-5.1,8.8-7.7,13.4
					c0,0,0,0.1-0.1,0.1c-11.8,20.4-24.5,41.6-38,62.9c0,0,0,0.1-0.1,0.1c-4.4,7.1-9,14.2-13.6,21.3c0,0,0,0.1-0.1,0.1
					c-3,4.7-6.2,9.4-9.3,14.1c0,0,0,0-0.1,0.1c-4.7,7.1-9.5,14.2-14.3,21.2c-3.4,4.9-6.8,9.8-10.3,14.6c-4.8,6.8-9.7,13.5-14.6,20.2
					c-8.5,11.5-17.1,22.7-25.9,33.6c-3.5,4.3-7,8.7-10.5,12.9c-7.1,8.5-14.2,16.8-21.5,24.8c-3.6,4-7.2,7.9-10.9,11.7
					c-29.1,30.8-59.1,56.6-89.3,74.2c-9.4,5.5-18.9,10.2-28.3,13.9c-1.6,0.6-3.1,1.1-4.7,1.6c0,0,0,0,0,0c-12.3,4-23.5,5.5-33.6,4.9
					h0c1.7-2.9,3.4-5.7,5.1-8.6c1.7-2.9,3.3-5.8,4.9-8.7c4-7.7,8-15.5,11.6-23.5c1.5-3.2,2.9-6.5,4.2-9.7c2.7-6.5,5.2-13.2,7.2-20
					c0.6-1.7,1.1-3.4,1.5-5.1c1.9-6.8,3.5-13.8,4.6-20.8c0.2-1.8,0.4-3.6,0.6-5.5c0.5-6,0.8-11.9,0.7-17.8
					c-0.2-17.7-3.1-35-8.9-52.4c-0.9-2.7-1.9-5.5-3-8.3c-0.5-1.4-1-2.8-1.6-4.2c-4.1-10.1-9.7-18.7-16.5-25.7
					c-0.6-0.6-1.2-1.3-1.8-1.9c-1.2-1.3-2.5-2.4-3.9-3.5c-3.3-2.8-6.8-5.2-10.5-7.2c-3-1.6-6-3.1-9.2-4.2c-0.8-0.3-1.6-0.6-2.4-0.8
					c-12.2-3.9-25.7-4.2-39.6-0.5c-3.9,1.1-7.9,2.5-11.8,4.3c-2.1,0.9-4,1.9-6,3.1c-1.9,1.1-3.8,2.3-5.6,3.6c-1.8,1.3-3.5,2.6-5.1,4
					c-1.6,1.4-3.2,2.9-4.8,4.4l-2.3,2.4c-2.2,2.4-4.3,4.9-6.3,7.6c-7.9,10.6-13.8,22.9-18.2,35.1c-1.5,4.1-2.8,8.1-3.9,12.2
					c-1.1,4-2.2,8-3,11.8c-5.6,26.9-6.5,58.3-0.1,87.6c0.6,2.8,1.3,5.6,2,8.3c0.7,2.8,1.6,5.6,2.4,8.3c1.8,5.4,3.8,10.8,6.1,15.9
					c4.7,10.3,10.5,20.1,17.8,28.7c1.8,2.2,3.6,4.3,5.6,6.3c3.9,4.1,8.2,7.9,12.8,11.4l0,0c-1.2,1.4-2.5,2.8-3.8,4.2
					c-0.7,0.9-1.5,1.8-2.4,2.6c-2.1,2.4-4.3,4.7-6.6,7.1c-1,1.1-2,2.2-3.2,3.3c-1.1,1.2-2.2,2.3-3.3,3.4c-0.7,0.7-1.3,1.3-2,2
					c-2,2.1-4,4.1-6.1,6c-1.5,1.5-3,2.9-4.5,4.2c-1.8,1.8-3.6,3.5-5.4,5.1c-14.7,13.5-30.2,25.9-46.2,37.2
					c-43.7,32-103.6,58.9-153.1,48.8c24.7-42.1,43.9-86.7,51.5-129.4c2.7-25.4,3-51.3-1.9-76.3c-0.8-3.9-1.6-7.8-2.6-11.7
					c-0.6-2.4-1.3-4.8-2.1-7.2c-0.8-2.7-1.7-5.3-2.6-8c-0.9-2.4-1.8-4.8-2.8-7.1c-0.9-2.2-1.8-4.3-2.8-6.4c-1.4-3-3-5.9-4.6-8.6
					c-1.1-1.8-2.2-3.6-3.4-5.3c-1.2-1.7-2.4-3.3-3.7-4.9c-24.5-30.6-64.6-38.5-102.9-20.7c-12.6,6.2-23.7,14.4-33.3,24.1
					c-4.1,4.1-8,8.6-11.6,13.2c0,0,0,0,0,0c-3.6,4.7-6.8,9.5-9.9,14.6c0,0,0,0,0,0c-3.1,5.1-5.8,10.4-8.4,15.9c0,0,0,0,0,0
					c-2.5,5.5-4.8,11.1-6.8,16.9l0,0c-11.2,31.7-14.9,67.5-12.2,101.7v0c0.6,7.2,1.4,14.2,2.6,21.1c0.4,2.3,0.8,4.6,1.2,6.9
					c0.9,4.6,1.9,9.1,3,13.5c1.7,6.6,3.6,13.1,5.8,19.3c3,8.3,6.4,16.2,10.2,23.6c7.9,16.3,19,31.9,32.3,45.4
					c1.9,1.9,3.8,3.8,5.8,5.6h0c-2.1,2.4-4.2,4.9-6.4,7.3c-4.3,4.8-8.6,9.6-13,14.2c-2.2,2.4-4.5,4.7-6.7,6.9
					c-27.1,27.4-57.5,50.9-91,68.4c-26.8,13.3-54.9,20.7-81.1,18.6c-9.2-0.8-26.4-5.3-27-5.5c1.4,2,71.7,99.6,221.9-14.8
					c2-1.5,39.5-42,55.9-63.2c4.2,1.5,8.5,2.7,12.8,3.7c80.4,19.7,162.4-25.5,221.6-73.7c36.2-30.3,67.9-64.5,95.2-102.1
					c46.8,8.1,97.9-12.4,133.8-40.7c11.9-9.3,23.5-19.6,35.1-30.8c26.3-25.6,51.6-55.8,75.7-88.5c4.5-6.2,9-12.4,13.4-18.7
					c3-4.2,5.9-8.5,8.8-12.7c1.5-2.1,2.9-4.2,4.4-6.4c2.9-4.3,5.8-8.7,8.6-13c29.9-45.8,57.5-94.4,82.1-141.5
					c4.7-8.9,9.2-17.9,13.7-26.6c0,0,0,0,0,0c4.5-8.8,8.8-17.5,13.1-26.1c4-8.1,7.9-16.1,11.7-24c0.2-0.4,0.4-0.9,0.6-1.3
					c0,0,0-0.1,0-0.1c6.5-13.5,12.7-26.5,18.6-39C2075.7,227.6,2074.4,224.1,2071.5,222.6z M1366.8,666.2
					c-2.6,16.4-8.2,32.3-14.9,48c-2.3,5.2-4.7,10.4-7.1,15.6c-7.5,14.8-15.7,29.6-24.7,44.1c-0.7-0.8-1.3-1.6-2-2.4
					c-1.3-1.6-2.6-3.3-3.9-5.1c-3.2-4.4-6.2-9.2-9-14.5c-3-5.8-5.7-12-8-18.5c-0.6-1.6-1.1-3.3-1.7-4.9c-1.1-3.3-2.1-6.7-3-10.1
					c-10.9-42-8-91.7,14.3-126.4c2.4-3.3,4.8-6.3,7.4-8.9c4.4-4.3,9.3-7.5,15.5-9.6c9-3.3,15.5-1.2,20.5,4c1.7,1.8,3.2,3.9,4.6,6.2
					c0.2,0.4,0.5,0.8,0.7,1.2c0.7,1.2,1.3,2.5,1.9,3.8c2,4.4,3.8,9.4,5.3,14.5C1367.9,622.1,1369.3,645.6,1366.8,666.2z
					 M1680.8,550.6c-0.4,3.2-1,6.3-1.7,9.5c-1.1,4.7-2.4,9.4-4,14c-1.6,4.6-3.4,9.1-5.5,13.6c-1.3,3-2.7,6-4.2,8.9
					c-0.7,1.5-1.5,2.9-2.3,4.4c-1.5,3-3.1,5.9-4.7,8.7c-0.8,1.5-1.6,2.9-2.4,4.4c-1.5,2.6-3,5.1-4.6,7.6c-1.6,2.7-3.3,5.4-5.1,8
					c0,0,0,0,0,0.1c-1.1,1.7-2.2,3.4-3.4,5.2c-1.2-1.2-2.4-2.4-3.5-3.8c-2.3-2.6-4.4-5.4-6.3-8.3c-2-2.9-3.8-6-5.4-9.2
					c-9.1-17.8-13.6-39.9-13.6-62.5c0-4.4,0.2-8.9,0.5-13.4c0.4-4.8,1-9.7,1.8-14.5c0.2-1.1,0.4-2.3,0.6-3.4
					c2.3-11.4,5.5-23.5,11.1-32.8c2.3-3.8,4.9-7,8-9.7c0.8-0.6,1.6-1.3,2.4-1.9c0.5-0.2,1-0.5,1.5-0.7c1-0.5,2.2-0.9,3.2-1.2
					c2.9-0.9,5.9-1.6,8.6-1.5c4.1,0.5,7.7,2.4,10.9,5.4c0.5,0.4,1,1,1.6,1.6c0.5,0.5,1,1.1,1.5,1.8c0.5,0.6,1,1.2,1.4,1.9
					c0.9,1.3,1.8,2.7,2.6,4.2c0.4,0.7,0.8,1.5,1.2,2.3c7.9,16,10.8,39.2,10.7,51.8C1681.6,544.2,1681.3,547.4,1680.8,550.6z"/>
			</g>
		</g>
		<g class="st1">
			<path d="M407.1,1141.8c11.7,37.6,26.5,75.9,39.5,107.1c16.5-18.4,32.3-37.2,47.6-56.1c-17.3-44-33.9-114.7-33.9-114.7
				C443.5,1100.1,425.7,1121.3,407.1,1141.8z"/>
			<path d="M1265.9,847.8c-4.3,4.8-8.6,9.6-13,14.2c-2.2,2.4-4.5,4.7-6.7,6.9c-0.2,0.2-0.5,0.5-0.7,0.7c16.3,15.5,35.8,27.1,52,35.2
				c10.1-11.3,20.7-23.6,27.5-32.5c-20-7.3-51.7-31.1-52.7-31.9C1270.1,842.9,1268.1,845.3,1265.9,847.8z"/>
			<path d="M1604.2,684.6c-0.7,0.9-1.5,1.8-2.4,2.6c-2.1,2.4-4.3,4.7-6.6,7.1c-1,1.1-2,2.2-3.2,3.3c-1.1,1.2-2.2,2.3-3.3,3.4
				c-0.1,0.1-0.3,0.3-0.4,0.4c0,0,19,13.6,48.7,21.9c6.1-7.5,12-15.2,17.7-23c-29.7-8.3-46.6-19.9-46.6-19.9
				C1606.8,681.7,1605.6,683.2,1604.2,684.6z"/>
			<path d="M2174.1,8.9c13.7,101.9-69.5,209-96.8,241l8.8,4c0,0,0.8,0.3,2,0.9c3,1.4,8.7,4.6,14,9.9c0,0,0.1,0,0.1,0l29.6-44.9
				c3.8-5.7,10.3-17.8,10.3-17.8l12-26.8C2192.6,89.5,2181.5,31.5,2174.1,8.9z"/>
		</g>
	</g>
</g>
<g>
	<text transform="matrix(1 0 0 1 -396.1158 988.8062)"><tspan x="0" y="0" style="fill:#011111; font-family:'Montserrat-Medium'; font-size:40.3487px;">Your</tspan><tspan x="-121" y="49.3" style="fill:#011111; font-family:'Montserrat-Medium'; font-size:40.3487px;">favourite</tspan><tspan x="-114.3" y="98.6" style="fill:#011111; font-family:'Montserrat-Medium'; font-size:40.3487px;">products</tspan><tspan x="-303.4" y="147.9" style="fill:#011111; font-family:'Montserrat-Medium'; font-size:40.3487px;">within 60 MINUTES</tspan></text>
	<g>
		<g>
			<path class="st2" d="M-284.9,790.5l3.2-7.1c10.1-22.6,7.2-38,5.3-43.9c0,0,0,0,0,0c-0.1-0.4-0.3-0.7-0.4-1.1
				c-0.4-1-1.5-1.5-2.5-1.1c-5,2-19.5,9.5-30.3,33.6l-3.2,7.1c-0.1,0-7.8,0-10.7,6.3l-5.2,11.6c-0.6,1.4,0.5,3,2.1,2.9
				c1-0.1,2.2-0.4,3.8-1.1c0.5-0.2,0.9-0.4,1.4-0.5c3.4-0.9,6.5,0.2,7.7,0.7c0.3,0.1,0.5,0.2,0.5,0.2l3.5,1.6l-2.3,5.1
				c-0.4,0.8-0.1,1.8,0.7,2.3c0.1,0.1,0.2,0.1,0.3,0.2l3.1,1.4c0,0,0.1,0,0.1,0.1c0.9,0.3,1.9-0.1,2.3-1l2.3-5.1l1.2,0.5l2.3,1
				c0,0,0.2,0.1,0.5,0.2c0.8,0.4,2.3,1.2,3.7,2.6c0.7,0.7,1.4,1.6,1.9,2.7c0.2,0.4,0.4,0.9,0.6,1.4c0.5,1.6,1.1,2.7,1.7,3.5
				c0.9,1.3,2.9,1.1,3.5-0.4l5.2-11.6C-279.8,796.8-284.2,791.3-284.9,790.5C-284.8,790.6-284.9,790.5-284.9,790.5z M-295.5,760.7
				c1.5-3.3,5.3-4.8,8.6-3.3c3.3,1.5,4.8,5.3,3.3,8.6c-1.5,3.3-5.3,4.8-8.6,3.3C-295.5,767.9-296.9,764-295.5,760.7z"/>
			<g>
				<path class="st2" d="M-572.4,886.9c-0.3-3.3-0.7-6-1.1-8.5c-0.3-2.2-0.7-4.3-1.1-6.5c-0.1-0.6-0.3-1.4-0.5-2
					c-1.9-7.9-12.1-12.7-20-10.8c-5.9,1.5-16.4,9.4-14.3,24.2c0,0,18.7,110.5-43,171.9c-7.9,7.9-19.2,9.6-28.8,5
					c-10.5-5.6-15.6-18.1-19.4-29.1c-0.4-1.3-0.8-2.5-1.2-3.8c18-26.7,31.5-56.7,35.9-89c1.3-6.6-0.3-14-4.6-19.4
					c-7.5-10-22.6-12.5-32.8-5.2c-3.7,2.5-6.1,5.8-8.5,9.2c-18.8,25.8-23.3,59.1-19,89.8c0.5,3,1,6.1,1.5,9.1
					c-7.5,9.8-15.7,19-24.5,27.7c-14.2,14.1-30.1,26.6-48.5,34.3c-0.2,0.1-0.5,0.2-0.7,0.3c-0.3-0.5-0.7-1.1-1.1-1.9
					c-4-8.1-5-18.1-6.1-27.3c-2.3-20.8-1.5-42.1,1.9-62.6c2.7-16.5,7.2-32.5,13.1-48.2c7.5-19.5,16.6-38,28.4-55.3
					c6.5-9.6,13.1-19.4,20.3-28.5l0.7-0.8c0-0.1,0.1-0.1,0.1-0.1l0,0.1c0,0,0,0.1,0,0.1c9.9-11.8,8.4-29.4-3.4-39.3
					c-12.2-10.3-31-8.1-40.4,4.9c-0.7,0.9-1.7,2.3-2.3,3.2c-9.8,15.3-18.4,30.6-26.7,46.9c-27.2,55.9-39.4,120.2-28.3,181.8
					c2.5,13.2,5,26,11.5,38.3c9.3,18.3,27.7,27.9,46.7,16.9c27.2-14,49.4-36.9,68.2-60.2c3.1,6.8,7.1,13.3,12.3,19.1
					c14,15.8,35.4,19.9,54.4,11.4c29.6-13.4,49.7-47.2,62.1-79.8c2.7-6.9,4.9-13.7,6.9-20.3h0c0.9-3.1,1.8-6.2,2.6-9.2
					c1.3-4.6,2.4-9.3,3.4-14c3.2-14.8,5.3-29.9,6.4-45.1C-571.4,905.3-571.4,896-572.4,886.9z M-708.5,990.2
					c0-16.8,4.6-33.4,14.5-46.9c-1.2,12.1-3.6,24.3-8.7,35.4C-704.5,982.6-706.5,986.4-708.5,990.2z"/>
				<path class="st2" d="M-303.5,796c-0.8-0.4-1.8-0.1-2.2,0.7c-1.7,3.3-3.6,6.8-5.6,10.5c-0.2,0.3-0.4,0.7-0.5,1c0,0,0,0,0,0
					c-0.6,1.2-1.3,2.3-2,3.5c-0.6,1.1-1.2,2.1-1.8,3.2c-0.7,1.2-1.3,2.3-2,3.5c-0.7,1.2-1.3,2.3-2,3.5c0,0,0,0,0,0
					c-3.1,5.4-6.5,11-10,16.6c0,0,0,0,0,0c-1.2,1.9-2.4,3.7-3.6,5.6c0,0,0,0,0,0c-0.8,1.2-1.6,2.5-2.5,3.7c0,0,0,0,0,0
					c-1.2,1.9-2.5,3.7-3.8,5.6c-0.9,1.3-1.8,2.6-2.7,3.9c-1.3,1.8-2.6,3.6-3.9,5.3c-2.2,3-4.5,6-6.8,8.9c-0.9,1.1-1.8,2.3-2.8,3.4
					c-1.9,2.3-3.8,4.4-5.7,6.6c-0.9,1-1.9,2.1-2.9,3.1c-7.7,8.1-15.6,15-23.6,19.6c-2.5,1.4-5,2.7-7.5,3.7c-0.4,0.1-0.8,0.3-1.2,0.4
					c0,0,0,0,0,0c-3.3,1.1-6.2,1.4-8.9,1.3h0c0.5-0.8,0.9-1.5,1.3-2.3c0.4-0.8,0.9-1.5,1.3-2.3c1.1-2,2.1-4.1,3.1-6.2
					c0.4-0.9,0.8-1.7,1.1-2.6c0.7-1.7,1.4-3.5,1.9-5.3c0.1-0.4,0.3-0.9,0.4-1.4c0.5-1.8,0.9-3.7,1.2-5.5c0.1-0.5,0.1-1,0.1-1.4
					c0.1-1.6,0.2-3.2,0.2-4.7c0-4.7-0.8-9.2-2.3-13.9c-0.2-0.7-0.5-1.5-0.8-2.2c-0.1-0.4-0.3-0.7-0.4-1.1c-1.1-2.7-2.6-4.9-4.4-6.8
					c-0.2-0.2-0.3-0.3-0.5-0.5c-0.3-0.3-0.7-0.6-1-0.9c-0.9-0.7-1.8-1.4-2.8-1.9c-0.8-0.4-1.6-0.8-2.4-1.1c-0.2-0.1-0.4-0.2-0.6-0.2
					c-3.2-1-6.8-1.1-10.5-0.1c-1,0.3-2.1,0.7-3.1,1.1c-0.6,0.2-1.1,0.5-1.6,0.8c-0.5,0.3-1,0.6-1.5,0.9c-0.5,0.3-0.9,0.7-1.4,1.1
					c-0.4,0.4-0.9,0.8-1.3,1.2l-0.6,0.6c-0.6,0.6-1.1,1.3-1.7,2c-2.1,2.8-3.6,6-4.8,9.3c-0.4,1.1-0.7,2.2-1,3.2
					c-0.3,1.1-0.6,2.1-0.8,3.1c-1.5,7.1-1.7,15.4,0,23.2c0.2,0.7,0.3,1.5,0.5,2.2c0.2,0.7,0.4,1.5,0.6,2.2c0.5,1.4,1,2.8,1.6,4.2
					c1.2,2.7,2.8,5.3,4.7,7.6c0.5,0.6,1,1.1,1.5,1.7c1,1.1,2.2,2.1,3.4,3l0,0c-0.3,0.4-0.7,0.7-1,1.1c-0.2,0.2-0.4,0.5-0.6,0.7
					c-0.6,0.6-1.1,1.2-1.7,1.9c-0.3,0.3-0.5,0.6-0.8,0.9c-0.3,0.3-0.6,0.6-0.9,0.9c-0.2,0.2-0.3,0.4-0.5,0.5
					c-0.5,0.6-1.1,1.1-1.6,1.6c-0.4,0.4-0.8,0.8-1.2,1.1c-0.5,0.5-1,0.9-1.4,1.3c-3.9,3.6-8,6.8-12.2,9.8
					c-11.6,8.5-27.4,15.5-40.4,12.9c6.5-11.1,11.6-22.9,13.6-34.2c0.7-6.7,0.8-13.5-0.5-20.2c-0.2-1-0.4-2.1-0.7-3.1
					c-0.2-0.6-0.3-1.3-0.6-1.9c-0.2-0.7-0.4-1.4-0.7-2.1c-0.2-0.6-0.5-1.3-0.7-1.9c-0.2-0.6-0.5-1.1-0.7-1.7
					c-0.4-0.8-0.8-1.5-1.2-2.3c-0.3-0.5-0.6-0.9-0.9-1.4c-0.3-0.4-0.6-0.9-1-1.3c-6.5-8.1-17.1-10.2-27.2-5.5
					c-3.3,1.6-6.3,3.8-8.8,6.4c-1.1,1.1-2.1,2.3-3.1,3.5c0,0,0,0,0,0c-0.9,1.2-1.8,2.5-2.6,3.9c0,0,0,0,0,0
					c-0.8,1.4-1.5,2.8-2.2,4.2c0,0,0,0,0,0c-0.7,1.5-1.3,2.9-1.8,4.5l0,0c-3,8.4-3.9,17.8-3.2,26.9v0c0.2,1.9,0.4,3.7,0.7,5.6
					c0.1,0.6,0.2,1.2,0.3,1.8c0.2,1.2,0.5,2.4,0.8,3.6c0.4,1.8,1,3.5,1.5,5.1c0.8,2.2,1.7,4.3,2.7,6.2c2.1,4.3,5,8.4,8.5,12
					c0.5,0.5,1,1,1.5,1.5h0c-0.6,0.6-1.1,1.3-1.7,1.9c-1.1,1.3-2.3,2.5-3.4,3.8c-0.6,0.6-1.2,1.2-1.8,1.8
					c-7.2,7.2-15.2,13.5-24,18.1c-7.1,3.5-14.5,5.5-21.4,4.9c-2.4-0.2-7-1.4-7.1-1.4c0.4,0.5,18.9,26.3,58.6-3.9
					c0.5-0.4,10.4-11.1,14.8-16.7c1.1,0.4,2.2,0.7,3.4,1c21.3,5.2,42.9-6.7,58.5-19.5c9.6-8,17.9-17.1,25.2-27
					c12.4,2.2,25.9-3.3,35.4-10.8c3.1-2.5,6.2-5.2,9.3-8.1c7-6.8,13.6-14.7,20-23.4c1.2-1.6,2.4-3.3,3.5-4.9
					c0.8-1.1,1.5-2.2,2.3-3.4c0.4-0.6,0.8-1.1,1.2-1.7c0.8-1.1,1.5-2.3,2.3-3.4c7.9-12.1,15.2-24.9,21.7-37.4c1.2-2.4,2.4-4.7,3.6-7
					c0,0,0,0,0,0c1.2-2.3,2.3-4.6,3.5-6.9c1.1-2.1,2.1-4.3,3.1-6.3c0.1-0.1,0.1-0.2,0.2-0.3c0,0,0,0,0,0c1.7-3.6,3.4-7,4.9-10.3
					C-302.4,797.3-302.7,796.4-303.5,796z M-489.7,913.2c-0.7,4.3-2.2,8.5-3.9,12.7c-0.6,1.4-1.2,2.8-1.9,4.1
					c-2,3.9-4.2,7.8-6.5,11.7c-0.2-0.2-0.4-0.4-0.5-0.6c-0.3-0.4-0.7-0.9-1-1.4c-0.8-1.2-1.6-2.4-2.4-3.8c-0.8-1.5-1.5-3.2-2.1-4.9
					c-0.2-0.4-0.3-0.9-0.4-1.3c-0.3-0.9-0.5-1.8-0.8-2.7c-2.9-11.1-2.1-24.2,3.8-33.4c0.6-0.9,1.3-1.7,2-2.3c1.2-1.1,2.5-2,4.1-2.5
					c2.4-0.9,4.1-0.3,5.4,1c0.4,0.5,0.8,1,1.2,1.6c0.1,0.1,0.1,0.2,0.2,0.3c0.2,0.3,0.3,0.7,0.5,1c0.5,1.2,1,2.5,1.4,3.8
					C-489.4,901.5-489,907.7-489.7,913.2z M-406.7,882.6c-0.1,0.8-0.3,1.7-0.5,2.5c-0.3,1.2-0.6,2.5-1.1,3.7
					c-0.4,1.2-0.9,2.4-1.4,3.6c-0.3,0.8-0.7,1.6-1.1,2.4c-0.2,0.4-0.4,0.8-0.6,1.2c-0.4,0.8-0.8,1.5-1.2,2.3
					c-0.2,0.4-0.4,0.8-0.6,1.2c-0.4,0.7-0.8,1.3-1.2,2c-0.4,0.7-0.9,1.4-1.3,2.1c0,0,0,0,0,0c-0.3,0.5-0.6,0.9-0.9,1.4
					c-0.3-0.3-0.6-0.6-0.9-1c-0.6-0.7-1.2-1.4-1.7-2.2c-0.5-0.8-1-1.6-1.4-2.4c-2.4-4.7-3.6-10.5-3.6-16.5c0-1.2,0.1-2.4,0.1-3.5
					c0.1-1.3,0.3-2.6,0.5-3.8c0.1-0.3,0.1-0.6,0.2-0.9c0.6-3,1.5-6.2,2.9-8.7c0.6-1,1.3-1.9,2.1-2.6c0.2-0.2,0.4-0.3,0.6-0.5
					c0.1-0.1,0.3-0.1,0.4-0.2c0.3-0.1,0.6-0.2,0.9-0.3c0.8-0.2,1.6-0.4,2.3-0.4c1.1,0.1,2,0.6,2.9,1.4c0.1,0.1,0.3,0.3,0.4,0.4
					c0.1,0.1,0.3,0.3,0.4,0.5c0.1,0.2,0.3,0.3,0.4,0.5c0.2,0.3,0.5,0.7,0.7,1.1c0.1,0.2,0.2,0.4,0.3,0.6c2.1,4.2,2.9,10.4,2.8,13.7
					C-406.5,880.9-406.6,881.8-406.7,882.6z"/>
			</g>
		</g>
		<g class="st1">
			<path d="M-743.2,1038.8c3.1,9.9,7,20.1,10.4,28.3c4.4-4.9,8.5-9.8,12.6-14.8c-4.6-11.6-8.9-30.3-8.9-30.3
				C-733.6,1027.8-738.3,1033.4-743.2,1038.8z"/>
			<path d="M-516.3,961.1c-1.1,1.3-2.3,2.5-3.4,3.8c-0.6,0.6-1.2,1.2-1.8,1.8c-0.1,0.1-0.1,0.1-0.2,0.2c4.3,4.1,9.4,7.2,13.7,9.3
				c2.7-3,5.5-6.2,7.3-8.6c-5.3-1.9-13.7-8.2-13.9-8.4C-515.2,959.9-515.8,960.5-516.3,961.1z"/>
			<path d="M-427,918c-0.2,0.2-0.4,0.5-0.6,0.7c-0.6,0.6-1.1,1.2-1.7,1.9c-0.3,0.3-0.5,0.6-0.8,0.9c-0.3,0.3-0.6,0.6-0.9,0.9
				c0,0-0.1,0.1-0.1,0.1c0,0,5,3.6,12.9,5.8c1.6-2,3.2-4,4.7-6.1c-7.9-2.2-12.3-5.3-12.3-5.3C-426.3,917.3-426.6,917.6-427,918z"/>
			<path d="M-276.4,739.5c3.6,26.9-18.4,55.2-25.6,63.7l2.3,1c0,0,0.2,0.1,0.5,0.2c0.8,0.4,2.3,1.2,3.7,2.6c0,0,0,0,0,0l7.8-11.9
				c1-1.5,2.7-4.7,2.7-4.7l3.2-7.1C-271.5,760.8-274.5,745.5-276.4,739.5z"/>
		</g>
	</g>
</g>
</svg>
