<svg width="12" height="27" viewBox="0 0 12 27" fill="none" xmlns="http://www.w3.org/2000/svg">
<path d="M7 7C8.65685 7 10 5.65685 10 4C10 2.34315 8.65685 1 7 1C5.34315 1 4 2.34315 4 4C4 5.65685 5.34315 7 7 7Z" stroke="white" stroke-width="2" stroke-miterlimit="10" stroke-linecap="round" stroke-linejoin="round"/>
<path d="M11 22.1209C8.688 23.5219 7.274 22.4699 8.034 19.6979C8.034 19.6979 9.15503 15.9419 9.51703 14.6869C11.076 9.28594 6.361 10.1739 1 15.0419C3.585 13.5139 4.56399 14.7119 3.81299 17.1389C3.43599 18.3589 2.40601 22.0429 2.40601 22.0429C1.34201 26.4149 4.688 28.1209 11 22.1209Z" stroke="white" stroke-width="2" stroke-miterlimit="10" stroke-linecap="round" stroke-linejoin="round"/>
</svg>
