<svg width="16" height="457" viewBox="0 0 16 457" fill="none" xmlns="http://www.w3.org/2000/svg">
<path d="M11.9997 456.28H0.687727L0.687727 447.384H11.9997V448.776H1.95173L1.95173 454.888H11.9997V456.28Z" fill="white"/>
<path d="M15.0397 444.592H3.56773L3.56773 443.296L4.86373 443.232C4.40506 442.944 4.05839 442.555 3.82373 442.064C3.58906 441.563 3.47173 441.024 3.47173 440.448C3.47173 439.595 3.66373 438.896 4.04773 438.352C4.42106 437.808 4.93306 437.408 5.58373 437.152C6.23439 436.886 6.97039 436.752 7.79173 436.752C8.61306 436.752 9.34906 436.886 9.99973 437.152C10.6504 437.419 11.1624 437.83 11.5357 438.384C11.9091 438.939 12.0957 439.648 12.0957 440.512C12.0957 440.939 12.0531 441.323 11.9677 441.664C11.8717 442.006 11.7384 442.304 11.5677 442.56C11.3971 442.816 11.2051 443.04 10.9917 443.232H15.0397V444.592ZM10.8957 440.624C10.8957 440.006 10.7571 439.515 10.4797 439.152C10.1917 438.79 9.81306 438.528 9.34373 438.368C8.87439 438.198 8.35706 438.112 7.79173 438.112C7.21573 438.112 6.69306 438.198 6.22373 438.368C5.75439 438.528 5.38106 438.795 5.10373 439.168C4.82639 439.542 4.68773 440.038 4.68773 440.656C4.68773 441.211 4.83173 441.686 5.11973 442.08C5.39706 442.464 5.77573 442.758 6.25573 442.96C6.72506 443.163 7.24239 443.264 7.80773 443.264C8.39439 443.264 8.92239 443.168 9.39173 442.976C9.86106 442.784 10.2291 442.491 10.4957 442.096C10.7624 441.702 10.8957 441.211 10.8957 440.624Z" fill="white"/>
<path d="M11.9997 434.679H3.56773V433.319H10.0317C9.88239 433.244 9.72239 433.143 9.55173 433.015C9.37039 432.887 9.23173 432.785 9.13573 432.711L3.56773 428.631L3.56773 427.287H11.9997V428.647H5.53573C5.69573 428.732 5.84506 428.828 5.98373 428.935C6.12239 429.031 6.25039 429.121 6.36773 429.207L11.9997 433.351V434.679Z" fill="white"/>
<path d="M11.9997 424.827H3.56773V423.467H7.26373L7.26373 419.243H3.56773V417.883H11.9997V419.243H8.46373L8.46373 423.467H11.9997V424.827Z" fill="white"/>
<path d="M11.9997 415.942L8.67173 413.75C8.50106 414.358 8.22373 414.838 7.83973 415.19C7.44506 415.542 6.92239 415.718 6.27173 415.718C5.75973 415.718 5.33306 415.643 4.99172 415.494C4.63973 415.344 4.36239 415.126 4.15973 414.838C3.94639 414.55 3.79706 414.203 3.71173 413.798C3.61573 413.392 3.56773 412.928 3.56773 412.406L3.56772 409.014H11.9997V410.374H8.87973V412.31L11.9997 414.358V415.942ZM7.69572 411.382V410.374H4.76772V412.182C4.76773 412.502 4.78372 412.795 4.81572 413.062C4.84773 413.328 4.91706 413.558 5.02373 413.75C5.11973 413.931 5.26373 414.075 5.45573 414.182C5.63706 414.288 5.88773 414.342 6.20773 414.342C6.55972 414.342 6.83706 414.256 7.03973 414.086C7.24239 413.904 7.39173 413.675 7.48773 413.398C7.57306 413.11 7.63173 412.79 7.66372 412.438C7.68506 412.086 7.69572 411.734 7.69572 411.382Z" fill="white"/>
<path d="M11.9997 404.579H4.76772V407.475H3.56772L3.56772 400.323H4.76772V403.219H11.9997L11.9997 404.579Z" fill="white"/>
<path d="M11.9997 398.789H3.56772V397.429H10.0317C9.88239 397.355 9.72239 397.253 9.55172 397.125C9.37039 396.997 9.23172 396.896 9.13572 396.821L3.56772 392.741V391.397H11.9997V392.757H5.53572C5.69572 392.843 5.84506 392.939 5.98372 393.045C6.12239 393.141 6.25039 393.232 6.36772 393.317L11.9997 397.461V398.789Z" fill="white"/>
<path d="M12.0957 385.29C12.0957 386.186 11.9144 386.927 11.5517 387.514C11.1784 388.101 10.6664 388.538 10.0157 388.826C9.36506 389.114 8.62372 389.258 7.79172 389.258C6.94906 389.258 6.20772 389.109 5.56772 388.81C4.91706 388.501 4.40506 388.053 4.03172 387.466C3.65839 386.879 3.47172 386.159 3.47172 385.306C3.47172 384.677 3.59439 384.127 3.83972 383.658C4.07439 383.178 4.39439 382.783 4.79972 382.474C5.20506 382.154 5.65839 381.925 6.15972 381.786C6.66106 381.637 7.17839 381.573 7.71172 381.594C7.80772 381.605 7.90372 381.61 7.99972 381.61C8.09572 381.61 8.19172 381.615 8.28772 381.626V387.882C8.77839 387.839 9.22106 387.717 9.61572 387.514C10.0104 387.311 10.3251 387.023 10.5597 386.65C10.7837 386.277 10.8957 385.813 10.8957 385.258C10.8957 384.981 10.8637 384.703 10.7997 384.426C10.7251 384.138 10.6024 383.882 10.4317 383.658C10.2611 383.423 10.0317 383.258 9.74372 383.162V381.77C10.2877 381.898 10.7357 382.138 11.0877 382.49C11.4291 382.842 11.6851 383.263 11.8557 383.754C12.0157 384.245 12.0957 384.757 12.0957 385.29ZM7.10372 387.85L7.10372 382.97C6.62372 382.981 6.20239 383.087 5.83972 383.29C5.47706 383.493 5.19439 383.77 4.99172 384.122C4.78906 384.463 4.68772 384.874 4.68772 385.354C4.68772 385.877 4.79972 386.319 5.02372 386.682C5.24772 387.034 5.54106 387.306 5.90372 387.498C6.26639 387.69 6.66639 387.807 7.10372 387.85Z" fill="white"/>
<path d="M15.0397 374.814H3.56772V373.518L4.86372 373.454C4.40506 373.166 4.05839 372.776 3.82372 372.286C3.58906 371.784 3.47172 371.246 3.47172 370.67C3.47172 369.816 3.66372 369.118 4.04772 368.574C4.42106 368.03 4.93306 367.63 5.58372 367.374C6.23439 367.107 6.97039 366.974 7.79172 366.974C8.61306 366.974 9.34906 367.107 9.99972 367.374C10.6504 367.64 11.1624 368.051 11.5357 368.606C11.9091 369.16 12.0957 369.87 12.0957 370.734C12.0957 371.16 12.0531 371.544 11.9677 371.886C11.8717 372.227 11.7384 372.526 11.5677 372.782C11.3971 373.038 11.2051 373.262 10.9917 373.454H15.0397V374.814ZM10.8957 370.846C10.8957 370.227 10.7571 369.736 10.4797 369.374C10.1917 369.011 9.81306 368.75 9.34372 368.59C8.87439 368.419 8.35706 368.334 7.79172 368.334C7.21572 368.334 6.69306 368.419 6.22372 368.59C5.75439 368.75 5.38106 369.016 5.10372 369.39C4.82639 369.763 4.68772 370.259 4.68772 370.878C4.68772 371.432 4.83172 371.907 5.11972 372.302C5.39706 372.686 5.77572 372.979 6.25572 373.182C6.72506 373.384 7.24239 373.486 7.80772 373.486C8.39439 373.486 8.92239 373.39 9.39172 373.198C9.86106 373.006 10.2291 372.712 10.4957 372.318C10.7624 371.923 10.8957 371.432 10.8957 370.846Z" fill="white"/>
<path d="M12.0957 361.252C12.0957 362.148 11.9144 362.889 11.5517 363.476C11.1784 364.063 10.6664 364.5 10.0157 364.788C9.36506 365.076 8.62372 365.22 7.79172 365.22C6.94906 365.22 6.20772 365.071 5.56772 364.772C4.91706 364.463 4.40506 364.015 4.03172 363.428C3.65839 362.841 3.47172 362.121 3.47172 361.268C3.47172 360.639 3.59439 360.089 3.83972 359.62C4.07439 359.14 4.39439 358.745 4.79972 358.436C5.20506 358.116 5.65839 357.887 6.15972 357.748C6.66106 357.599 7.17839 357.535 7.71172 357.556C7.80772 357.567 7.90372 357.572 7.99972 357.572C8.09572 357.572 8.19172 357.577 8.28772 357.588L8.28772 363.844C8.77839 363.801 9.22106 363.679 9.61572 363.476C10.0104 363.273 10.3251 362.985 10.5597 362.612C10.7837 362.239 10.8957 361.775 10.8957 361.22C10.8957 360.943 10.8637 360.665 10.7997 360.388C10.7251 360.1 10.6024 359.844 10.4317 359.62C10.2611 359.385 10.0317 359.22 9.74372 359.124V357.732C10.2877 357.86 10.7357 358.1 11.0877 358.452C11.4291 358.804 11.6851 359.225 11.8557 359.716C12.0157 360.207 12.0957 360.719 12.0957 361.252ZM7.10372 363.812V358.932C6.62372 358.943 6.20239 359.049 5.83972 359.252C5.47706 359.455 5.19439 359.732 4.99172 360.084C4.78906 360.425 4.68772 360.836 4.68772 361.316C4.68772 361.839 4.79972 362.281 5.02372 362.644C5.24772 362.996 5.54106 363.268 5.90372 363.46C6.26639 363.652 6.66639 363.769 7.10372 363.812Z" fill="white"/>
<path d="M11.9997 355.408H3.56772V354.048H10.8157V350.88H3.56772V349.52H10.8157V346.32H3.56772L3.56772 344.96H11.9997V355.408Z" fill="white"/>
<path d="M12.0957 338.846C12.0957 339.742 11.9144 340.484 11.5517 341.07C11.1784 341.657 10.6664 342.094 10.0157 342.382C9.36506 342.67 8.62372 342.814 7.79172 342.814C6.94906 342.814 6.20772 342.665 5.56772 342.366C4.91705 342.057 4.40506 341.609 4.03172 341.022C3.65839 340.436 3.47172 339.716 3.47172 338.862C3.47172 338.233 3.59439 337.684 3.83972 337.214C4.07439 336.734 4.39439 336.34 4.79972 336.03C5.20505 335.71 5.65839 335.481 6.15972 335.342C6.66106 335.193 7.17839 335.129 7.71172 335.15C7.80772 335.161 7.90372 335.166 7.99972 335.166C8.09572 335.166 8.19172 335.172 8.28772 335.182L8.28772 341.438C8.77839 341.396 9.22106 341.273 9.61572 341.07C10.0104 340.868 10.3251 340.58 10.5597 340.206C10.7837 339.833 10.8957 339.369 10.8957 338.814C10.8957 338.537 10.8637 338.26 10.7997 337.982C10.7251 337.694 10.6024 337.438 10.4317 337.214C10.2611 336.98 10.0317 336.814 9.74372 336.718V335.326C10.2877 335.454 10.7357 335.694 11.0877 336.046C11.4291 336.398 11.6851 336.82 11.8557 337.31C12.0157 337.801 12.0957 338.313 12.0957 338.846ZM7.10372 341.406V336.526C6.62372 336.537 6.20239 336.644 5.83972 336.846C5.47705 337.049 5.19439 337.326 4.99172 337.678C4.78906 338.02 4.68772 338.43 4.68772 338.91C4.68772 339.433 4.79972 339.876 5.02372 340.238C5.24772 340.59 5.54106 340.862 5.90372 341.054C6.26639 341.246 6.66639 341.364 7.10372 341.406Z" fill="white"/>
<path d="M11.9997 333.002H3.56772V331.642H7.26372V327.418H3.56772V326.058H11.9997V327.418H8.46372V331.642H11.9997V333.002Z" fill="white"/>
<path d="M11.9997 323.589H3.56772V322.229H10.0317C9.88239 322.154 9.72239 322.053 9.55172 321.925C9.37039 321.797 9.23172 321.695 9.13572 321.621L3.56772 317.541V316.197H11.9997V317.557H5.53572C5.69572 317.642 5.84505 317.738 5.98372 317.845C6.12239 317.941 6.25039 318.031 6.36772 318.117L11.9997 322.261V323.589Z" fill="white"/>
<path d="M11.9997 314.265L8.67172 312.073C8.50105 312.681 8.22372 313.161 7.83972 313.513C7.44505 313.865 6.92239 314.041 6.27172 314.041C5.75972 314.041 5.33305 313.967 4.99172 313.817C4.63972 313.668 4.36239 313.449 4.15972 313.161C3.94639 312.873 3.79705 312.527 3.71172 312.121C3.61572 311.716 3.56772 311.252 3.56772 310.729L3.56772 307.337H11.9997V308.697H8.87972V310.633L11.9997 312.681V314.265ZM7.69572 309.705V308.697H4.76772V310.505C4.76772 310.825 4.78372 311.119 4.81572 311.385C4.84772 311.652 4.91705 311.881 5.02372 312.073C5.11972 312.255 5.26372 312.399 5.45572 312.505C5.63705 312.612 5.88772 312.665 6.20772 312.665C6.55972 312.665 6.83705 312.58 7.03972 312.409C7.24239 312.228 7.39172 311.999 7.48772 311.721C7.57305 311.433 7.63172 311.113 7.66372 310.761C7.68505 310.409 7.69572 310.057 7.69572 309.705Z" fill="white"/>
<path d="M12.0957 296.558C12.0957 297.443 11.9144 298.185 11.5517 298.782C11.1784 299.379 10.6664 299.827 10.0157 300.126C9.36505 300.414 8.62372 300.558 7.79172 300.558C6.94905 300.558 6.20772 300.414 5.56772 300.126C4.91705 299.827 4.40505 299.379 4.03172 298.782C3.65839 298.185 3.47172 297.433 3.47172 296.526C3.47172 295.641 3.65839 294.905 4.03172 294.318C4.40505 293.721 4.91705 293.278 5.56772 292.99C6.20772 292.691 6.94905 292.542 7.79172 292.542C8.62372 292.542 9.36505 292.691 10.0157 292.99C10.6664 293.289 11.1784 293.737 11.5517 294.334C11.9144 294.921 12.0957 295.662 12.0957 296.558ZM10.8957 296.558C10.8957 295.939 10.7571 295.438 10.4797 295.054C10.2024 294.659 9.82905 294.371 9.35972 294.19C8.89039 293.998 8.36772 293.902 7.79172 293.902C7.21572 293.902 6.69305 293.998 6.22372 294.19C5.75439 294.371 5.38105 294.659 5.10372 295.054C4.82639 295.438 4.68772 295.939 4.68772 296.558C4.68772 297.166 4.82639 297.667 5.10372 298.062C5.38105 298.446 5.75439 298.734 6.22372 298.926C6.69305 299.107 7.21572 299.198 7.79172 299.198C8.36772 299.198 8.89039 299.107 9.35972 298.926C9.82905 298.734 10.2024 298.446 10.4797 298.062C10.7571 297.667 10.8957 297.166 10.8957 296.558Z" fill="white"/>
<path d="M12.0957 286.694C12.0957 287.227 12.0211 287.702 11.8717 288.118C11.7117 288.534 11.4931 288.891 11.2157 289.19C10.9277 289.489 10.5917 289.734 10.2077 289.926C9.81305 290.118 9.38639 290.262 8.92772 290.358C8.46905 290.454 7.98372 290.502 7.47172 290.502C6.65039 290.502 5.88772 290.486 5.18372 290.454C4.46905 290.411 3.83439 290.294 3.27972 290.102C2.71439 289.91 2.24505 289.585 1.87172 289.126C1.49839 288.667 1.23705 288.022 1.08772 287.19C1.01305 286.763 0.949053 286.342 0.89572 285.926C0.842386 285.51 0.789052 285.089 0.735719 284.662C0.714386 284.523 0.693053 284.379 0.67172 284.23C0.650386 284.081 0.623719 283.926 0.591719 283.766C0.559719 283.595 0.533052 283.435 0.511719 283.286H1.75972C1.80239 283.403 1.83972 283.531 1.87172 283.67C1.89305 283.798 1.91439 283.937 1.93572 284.086C1.95705 284.225 1.97305 284.369 1.98372 284.518C1.99439 284.657 2.01039 284.795 2.03172 284.934C2.04239 285.073 2.05839 285.206 2.07972 285.334C2.12239 285.707 2.16505 286.102 2.20772 286.518C2.23972 286.934 2.32505 287.329 2.46372 287.702C2.59172 288.065 2.84239 288.374 3.21572 288.63C3.40772 288.758 3.63705 288.87 3.90372 288.966C4.17039 289.051 4.44239 289.115 4.71972 289.158C4.98639 289.19 5.24239 289.211 5.48772 289.222C5.18905 289.009 4.94905 288.747 4.76772 288.438C4.57572 288.129 4.43705 287.798 4.35172 287.446C4.25572 287.094 4.20772 286.758 4.20772 286.438C4.20772 285.67 4.36772 285.019 4.68772 284.486C4.99705 283.953 5.43972 283.547 6.01572 283.27C6.59172 282.993 7.26372 282.854 8.03172 282.854C8.79972 282.854 9.49305 283.003 10.1117 283.302C10.7197 283.601 11.2051 284.038 11.5677 284.614C11.9197 285.179 12.0957 285.873 12.0957 286.694ZM10.8957 286.662C10.8957 286.129 10.7677 285.681 10.5117 285.318C10.2557 284.955 9.91439 284.683 9.48772 284.502C9.06105 284.31 8.59172 284.214 8.07972 284.214C7.57839 284.214 7.13039 284.31 6.73572 284.502C6.33039 284.683 6.01039 284.955 5.77572 285.318C5.54105 285.67 5.42372 286.107 5.42372 286.63C5.42372 287.142 5.54639 287.585 5.79172 287.958C6.03705 288.321 6.36772 288.603 6.78372 288.806C7.18905 288.998 7.63172 289.094 8.11172 289.094C8.60239 289.094 9.06105 289.003 9.48772 288.822C9.91439 288.641 10.2557 288.374 10.5117 288.022C10.7677 287.659 10.8957 287.206 10.8957 286.662Z" fill="white"/>
<path d="M12.0957 277.027C12.0957 277.913 11.9144 278.654 11.5517 279.251C11.1784 279.849 10.6664 280.297 10.0157 280.595C9.36505 280.883 8.62372 281.027 7.79172 281.027C6.94905 281.027 6.20772 280.883 5.56772 280.595C4.91705 280.297 4.40505 279.849 4.03172 279.251C3.65839 278.654 3.47172 277.902 3.47172 276.995C3.47172 276.11 3.65839 275.374 4.03172 274.787C4.40505 274.19 4.91705 273.747 5.56772 273.459C6.20772 273.161 6.94905 273.011 7.79172 273.011C8.62372 273.011 9.36505 273.161 10.0157 273.459C10.6664 273.758 11.1784 274.206 11.5517 274.803C11.9144 275.39 12.0957 276.131 12.0957 277.027ZM10.8957 277.027C10.8957 276.409 10.7571 275.907 10.4797 275.523C10.2024 275.129 9.82905 274.841 9.35972 274.659C8.89039 274.467 8.36772 274.371 7.79172 274.371C7.21572 274.371 6.69305 274.467 6.22372 274.659C5.75439 274.841 5.38105 275.129 5.10372 275.523C4.82639 275.907 4.68772 276.409 4.68772 277.027C4.68772 277.635 4.82639 278.137 5.10372 278.531C5.38105 278.915 5.75439 279.203 6.22372 279.395C6.69305 279.577 7.21572 279.667 7.79172 279.667C8.36772 279.667 8.89039 279.577 9.35972 279.395C9.82905 279.203 10.2024 278.915 10.4797 278.531C10.7571 278.137 10.8957 277.635 10.8957 277.027Z" fill="white"/>
<path d="M11.9997 268.904H4.76772V271.8H3.56772L3.56772 264.648H4.76772L4.76772 267.544H11.9997V268.904Z" fill="white"/>
<path d="M11.9997 263.114H3.56772V261.754H7.19972V260.282L3.56772 257.786V256.234L7.58372 259.05L11.9997 255.994V257.594L8.38372 260.122V261.754H11.9997V263.114Z" fill="white"/>
<path d="M12.0957 251.95C12.0957 252.334 12.0477 252.707 11.9517 253.07C11.8451 253.422 11.6904 253.742 11.4877 254.03C11.2744 254.307 11.0131 254.531 10.7037 254.702C10.3837 254.862 10.0157 254.942 9.59972 254.942C9.11972 254.942 8.71438 254.856 8.38372 254.686C8.05305 254.504 7.79172 254.264 7.59972 253.966C7.40772 253.667 7.26905 253.32 7.18372 252.926C7.09838 252.531 7.05572 252.12 7.05572 251.694V249.214C6.57572 249.214 6.15972 249.283 5.80772 249.422C5.45572 249.55 5.18372 249.763 4.99172 250.062C4.78905 250.36 4.68772 250.755 4.68772 251.246C4.68772 251.544 4.71972 251.822 4.78372 252.078C4.84772 252.334 4.94905 252.552 5.08772 252.734C5.22638 252.915 5.41305 253.048 5.64772 253.134V254.59C5.26372 254.515 4.93838 254.371 4.67172 254.158C4.39438 253.934 4.17038 253.667 3.99972 253.358C3.81838 253.038 3.68505 252.696 3.59972 252.334C3.51438 251.971 3.47172 251.608 3.47172 251.246C3.47172 250.435 3.63705 249.784 3.96772 249.294C4.28772 248.803 4.74638 248.446 5.34372 248.222C5.93038 247.998 6.62905 247.886 7.43972 247.886H11.9997V249.022L10.9277 249.102C11.2477 249.336 11.4931 249.619 11.6637 249.95C11.8344 250.28 11.9464 250.622 11.9997 250.974C12.0637 251.315 12.0957 251.64 12.0957 251.95ZM10.8957 251.822C10.8957 251.288 10.8104 250.83 10.6397 250.446C10.4584 250.051 10.1971 249.747 9.85572 249.534C9.51438 249.32 9.09838 249.214 8.60772 249.214H8.19172V250.702C8.19172 251.054 8.19705 251.4 8.20772 251.742C8.21838 252.083 8.26105 252.392 8.33572 252.67C8.41038 252.947 8.53838 253.171 8.71972 253.342C8.90105 253.502 9.16238 253.582 9.50372 253.582C9.82372 253.582 10.0851 253.502 10.2877 253.342C10.4904 253.171 10.6451 252.952 10.7517 252.686C10.8477 252.408 10.8957 252.12 10.8957 251.822Z" fill="white"/>
<path d="M12.0957 242.403C12.0957 242.808 12.0584 243.213 11.9837 243.619C11.9091 244.024 11.7864 244.403 11.6157 244.755C11.4344 245.096 11.1944 245.373 10.8957 245.587C10.5864 245.8 10.2024 245.917 9.74372 245.939V244.611C10.0317 244.557 10.2611 244.403 10.4317 244.147C10.6024 243.891 10.7251 243.603 10.7997 243.283C10.8637 242.952 10.8957 242.659 10.8957 242.403C10.8957 242.104 10.8637 241.8 10.7997 241.491C10.7357 241.171 10.6077 240.904 10.4157 240.691C10.2237 240.467 9.94105 240.355 9.56772 240.355C9.20505 240.355 8.93838 240.445 8.76772 240.627C8.59705 240.797 8.48505 241.027 8.43172 241.315C8.37838 241.592 8.35172 241.896 8.35172 242.227V243.731H7.15172V242.499C7.15172 242.296 7.13572 242.088 7.10372 241.875C7.06105 241.661 6.99705 241.464 6.91172 241.283C6.81572 241.101 6.68238 240.957 6.51172 240.851C6.34105 240.733 6.12238 240.675 5.85572 240.675C5.55705 240.675 5.32238 240.76 5.15172 240.931C4.98105 241.101 4.86372 241.32 4.79972 241.587C4.72505 241.853 4.68772 242.125 4.68772 242.403C4.68772 242.659 4.71438 242.931 4.76772 243.219C4.82105 243.496 4.92772 243.736 5.08772 243.939C5.23705 244.141 5.46105 244.264 5.75972 244.307L5.75972 245.651C5.18372 245.629 4.73038 245.453 4.39972 245.123C4.06905 244.792 3.83438 244.381 3.69572 243.891C3.54638 243.4 3.47172 242.909 3.47172 242.419C3.47172 242.045 3.50905 241.677 3.58372 241.315C3.65838 240.952 3.78638 240.621 3.96772 240.323C4.13838 240.024 4.36772 239.789 4.65572 239.619C4.94372 239.437 5.30105 239.347 5.72772 239.347C6.11172 239.347 6.45305 239.437 6.75172 239.619C7.05038 239.8 7.29038 240.077 7.47172 240.451C7.64238 239.907 7.90905 239.528 8.27172 239.315C8.63438 239.101 9.06638 238.995 9.56772 238.995C10.0157 238.995 10.3997 239.091 10.7197 239.283C11.0291 239.475 11.2904 239.736 11.5037 240.067C11.7064 240.387 11.8557 240.749 11.9517 241.155C12.0477 241.56 12.0957 241.976 12.0957 242.403Z" fill="white"/>
<path d="M12.0957 233.272C12.0957 234.168 11.9144 234.909 11.5517 235.496C11.1784 236.083 10.6664 236.52 10.0157 236.808C9.36505 237.096 8.62372 237.24 7.79172 237.24C6.94905 237.24 6.20772 237.091 5.56772 236.792C4.91705 236.483 4.40505 236.035 4.03172 235.448C3.65838 234.861 3.47172 234.141 3.47172 233.288C3.47172 232.659 3.59438 232.109 3.83972 231.64C4.07438 231.16 4.39438 230.765 4.79972 230.456C5.20505 230.136 5.65838 229.907 6.15972 229.768C6.66105 229.619 7.17838 229.555 7.71172 229.576C7.80772 229.587 7.90372 229.592 7.99972 229.592C8.09572 229.592 8.19172 229.597 8.28772 229.608V235.864C8.77838 235.821 9.22105 235.699 9.61572 235.496C10.0104 235.293 10.3251 235.005 10.5597 234.632C10.7837 234.259 10.8957 233.795 10.8957 233.24C10.8957 232.963 10.8637 232.685 10.7997 232.408C10.7251 232.12 10.6024 231.864 10.4317 231.64C10.2611 231.405 10.0317 231.24 9.74372 231.144V229.752C10.2877 229.88 10.7357 230.12 11.0877 230.472C11.4291 230.824 11.6851 231.245 11.8557 231.736C12.0157 232.227 12.0957 232.739 12.0957 233.272ZM7.10372 235.832L7.10372 230.952C6.62372 230.963 6.20238 231.069 5.83972 231.272C5.47705 231.475 5.19438 231.752 4.99172 232.104C4.78905 232.445 4.68772 232.856 4.68772 233.336C4.68772 233.859 4.79972 234.301 5.02372 234.664C5.24772 235.016 5.54105 235.288 5.90372 235.48C6.26638 235.672 6.66638 235.789 7.10372 235.832Z" fill="white"/>
<path d="M11.9997 222.795H3.56772L3.56772 219.531C3.56772 219.158 3.59438 218.79 3.64772 218.427C3.69038 218.054 3.78638 217.718 3.93572 217.419C4.07438 217.11 4.28238 216.865 4.55972 216.683C4.83705 216.491 5.20505 216.395 5.66372 216.395C5.94105 216.395 6.19705 216.438 6.43172 216.523C6.65572 216.609 6.85305 216.737 7.02372 216.907C7.19438 217.067 7.34372 217.275 7.47172 217.531C7.59972 216.955 7.85038 216.539 8.22372 216.283C8.59705 216.027 9.02372 215.899 9.50372 215.899C9.93038 215.899 10.3037 215.979 10.6237 216.139C10.933 216.289 11.1891 216.502 11.3917 216.779C11.5944 217.046 11.7491 217.361 11.8557 217.723C11.9517 218.075 11.9997 218.454 11.9997 218.859V222.795ZM10.8157 221.403V219.179C10.8157 218.849 10.7837 218.539 10.7197 218.251C10.6557 217.963 10.5384 217.729 10.3677 217.547C10.1864 217.366 9.93038 217.275 9.59972 217.275C9.25838 217.275 9.00238 217.355 8.83172 217.515C8.65038 217.665 8.52772 217.862 8.46372 218.107C8.38905 218.342 8.34638 218.598 8.33572 218.875C8.32505 219.153 8.31972 219.414 8.31972 219.659V221.403H10.8157ZM7.16772 221.403V220.235C7.16772 220.022 7.15705 219.777 7.13572 219.499C7.11438 219.211 7.06638 218.934 6.99172 218.667C6.90638 218.39 6.77838 218.166 6.60772 217.995C6.43705 217.814 6.20238 217.723 5.90372 217.723C5.50905 217.723 5.23705 217.835 5.08772 218.059C4.92772 218.273 4.83705 218.529 4.81572 218.827C4.78372 219.126 4.76772 219.403 4.76772 219.659V221.403H7.16772Z" fill="white"/>
<path d="M12.0957 206.037C12.0957 206.442 12.0584 206.848 11.9837 207.253C11.909 207.658 11.7864 208.037 11.6157 208.389C11.4344 208.73 11.1944 209.008 10.8957 209.221C10.5864 209.434 10.2024 209.552 9.74372 209.573V208.245C10.0317 208.192 10.261 208.037 10.4317 207.781C10.6024 207.525 10.725 207.237 10.7997 206.917C10.8637 206.586 10.8957 206.293 10.8957 206.037C10.8957 205.738 10.8637 205.434 10.7997 205.125C10.7357 204.805 10.6077 204.538 10.4157 204.325C10.2237 204.101 9.94105 203.989 9.56772 203.989C9.20505 203.989 8.93838 204.08 8.76772 204.261C8.59705 204.432 8.48505 204.661 8.43172 204.949C8.37838 205.226 8.35172 205.53 8.35172 205.861V207.365H7.15172V206.133C7.15172 205.93 7.13572 205.722 7.10372 205.509C7.06105 205.296 6.99705 205.098 6.91172 204.917C6.81572 204.736 6.68238 204.592 6.51172 204.485C6.34105 204.368 6.12238 204.309 5.85572 204.309C5.55705 204.309 5.32238 204.394 5.15172 204.565C4.98105 204.736 4.86372 204.954 4.79972 205.221C4.72505 205.488 4.68772 205.76 4.68772 206.037C4.68772 206.293 4.71438 206.565 4.76772 206.853C4.82105 207.13 4.92772 207.37 5.08772 207.573C5.23705 207.776 5.46105 207.898 5.75972 207.941V209.285C5.18372 209.264 4.73038 209.088 4.39972 208.757C4.06905 208.426 3.83438 208.016 3.69572 207.525C3.54638 207.034 3.47172 206.544 3.47172 206.053C3.47172 205.68 3.50905 205.312 3.58372 204.949C3.65838 204.586 3.78638 204.256 3.96772 203.957C4.13838 203.658 4.36772 203.424 4.65572 203.253C4.94372 203.072 5.30105 202.981 5.72772 202.981C6.11172 202.981 6.45305 203.072 6.75172 203.253C7.05038 203.434 7.29038 203.712 7.47172 204.085C7.64238 203.541 7.90905 203.162 8.27172 202.949C8.63438 202.736 9.06638 202.629 9.56772 202.629C10.0157 202.629 10.3997 202.725 10.7197 202.917C11.029 203.109 11.2904 203.37 11.5037 203.701C11.7064 204.021 11.8557 204.384 11.9517 204.789C12.0477 205.194 12.0957 205.61 12.0957 206.037Z" fill="white"/>
<path d="M12.0957 197.85C12.0957 198.234 12.0477 198.608 11.9517 198.97C11.845 199.322 11.6904 199.642 11.4877 199.93C11.2744 200.208 11.013 200.432 10.7037 200.602C10.3837 200.762 10.0157 200.842 9.59972 200.842C9.11972 200.842 8.71438 200.757 8.38372 200.586C8.05305 200.405 7.79172 200.165 7.59972 199.866C7.40772 199.568 7.26905 199.221 7.18372 198.826C7.09838 198.432 7.05572 198.021 7.05572 197.594V195.114C6.57572 195.114 6.15972 195.184 5.80772 195.322C5.45572 195.45 5.18372 195.664 4.99172 195.962C4.78905 196.261 4.68772 196.656 4.68772 197.146C4.68772 197.445 4.71972 197.722 4.78372 197.978C4.84772 198.234 4.94905 198.453 5.08772 198.634C5.22638 198.816 5.41305 198.949 5.64772 199.034V200.49C5.26372 200.416 4.93838 200.272 4.67172 200.058C4.39438 199.834 4.17038 199.568 3.99972 199.258C3.81838 198.938 3.68505 198.597 3.59972 198.234C3.51438 197.872 3.47171 197.509 3.47171 197.146C3.47171 196.336 3.63705 195.685 3.96772 195.194C4.28772 194.704 4.74638 194.346 5.34372 194.122C5.93038 193.898 6.62905 193.786 7.43972 193.786H11.9997V194.922L10.9277 195.002C11.2477 195.237 11.493 195.52 11.6637 195.85C11.8344 196.181 11.9464 196.522 11.9997 196.874C12.0637 197.216 12.0957 197.541 12.0957 197.85ZM10.8957 197.722C10.8957 197.189 10.8104 196.73 10.6397 196.346C10.4584 195.952 10.197 195.648 9.85572 195.434C9.51438 195.221 9.09838 195.114 8.60772 195.114H8.19172V196.602C8.19172 196.954 8.19705 197.301 8.20772 197.642C8.21838 197.984 8.26105 198.293 8.33572 198.57C8.41038 198.848 8.53838 199.072 8.71972 199.242C8.90105 199.402 9.16238 199.482 9.50372 199.482C9.82372 199.482 10.085 199.402 10.2877 199.242C10.4904 199.072 10.645 198.853 10.7517 198.586C10.8477 198.309 10.8957 198.021 10.8957 197.722Z" fill="white"/>
<path d="M11.9997 191.359H3.56772V189.999H7.19972V188.527L3.56772 186.031V184.479L7.58371 187.295L11.9997 184.239L11.9997 185.839L8.38372 188.367V189.999H11.9997V191.359Z" fill="white"/>
<path d="M12.0157 183.51H10.8317C10.8317 183.297 10.789 183.105 10.7037 182.934C10.6077 182.764 10.469 182.614 10.2877 182.486C10.0744 182.337 9.76505 182.22 9.35972 182.134C8.95438 182.049 8.52238 181.99 8.06371 181.958C7.55172 181.916 7.05038 181.884 6.55972 181.862C6.05838 181.841 5.56238 181.825 5.07171 181.814C4.58105 181.793 4.07971 181.782 3.56771 181.782L3.56771 175.926H11.9997V177.286H4.76771L4.76771 180.454C5.13038 180.465 5.49838 180.481 5.87172 180.502C6.23438 180.513 6.60238 180.529 6.97572 180.55C7.33838 180.561 7.70638 180.577 8.07972 180.598C8.50638 180.609 8.98638 180.652 9.51972 180.726C10.053 180.801 10.5384 180.961 10.9757 181.206C11.3917 181.441 11.669 181.729 11.8077 182.07C11.9464 182.401 12.0157 182.881 12.0157 183.51Z" fill="white"/>
<path d="M12.0957 166.637C12.0957 167.875 11.7544 168.808 11.0717 169.437C10.3784 170.067 9.48238 170.424 8.38371 170.509V172.109H11.9997V173.469H3.56771V172.109H7.19971V170.509C6.46371 170.445 5.81838 170.269 5.26371 169.981C4.69838 169.683 4.26105 169.256 3.95171 168.701C3.63171 168.147 3.47171 167.459 3.47171 166.637C3.47171 165.741 3.65838 165 4.03171 164.413C4.40505 163.827 4.91705 163.389 5.56771 163.101C6.20771 162.813 6.94905 162.669 7.79171 162.669C8.62371 162.669 9.36505 162.813 10.0157 163.101C10.6664 163.389 11.1784 163.827 11.5517 164.413C11.9144 165 12.0957 165.741 12.0957 166.637ZM10.8957 166.637C10.8957 166.019 10.757 165.523 10.4797 165.149C10.2024 164.765 9.82905 164.483 9.35971 164.301C8.89038 164.12 8.36771 164.029 7.79171 164.029C7.21571 164.029 6.69305 164.12 6.22371 164.301C5.75438 164.483 5.38105 164.765 5.10371 165.149C4.82638 165.523 4.68771 166.019 4.68771 166.637C4.68771 167.245 4.82638 167.741 5.10371 168.125C5.38105 168.499 5.75438 168.771 6.22371 168.941C6.69305 169.112 7.21571 169.197 7.79171 169.197C8.36771 169.197 8.89038 169.112 9.35971 168.941C9.82905 168.771 10.2024 168.499 10.4797 168.125C10.757 167.741 10.8957 167.245 10.8957 166.637Z" fill="white"/>
<path d="M11.9997 155.627H8.75171C8.82638 156.032 8.87971 156.427 8.91171 156.811C8.93305 157.184 8.94371 157.52 8.94371 157.819C8.94371 158.608 8.82105 159.232 8.57571 159.691C8.33038 160.149 7.95705 160.475 7.45571 160.667C6.94371 160.859 6.30905 160.955 5.55171 160.955H3.56771L3.56771 159.595H5.45571C5.94638 159.595 6.36238 159.547 6.70371 159.451C7.04505 159.355 7.30638 159.168 7.48771 158.891C7.65838 158.613 7.74371 158.197 7.74371 157.643C7.74371 157.323 7.72771 156.987 7.69571 156.635C7.66371 156.272 7.61571 155.936 7.55171 155.627H3.56771L3.56771 154.267H11.9997V155.627Z" fill="white"/>
<path d="M12.0957 148.15C12.0957 149.046 11.9144 149.787 11.5517 150.374C11.1784 150.961 10.6664 151.398 10.0157 151.686C9.36505 151.974 8.62371 152.118 7.79171 152.118C6.94905 152.118 6.20771 151.969 5.56771 151.67C4.91705 151.361 4.40505 150.913 4.03171 150.326C3.65838 149.739 3.47171 149.019 3.47171 148.166C3.47171 147.537 3.59438 146.987 3.83971 146.518C4.07438 146.038 4.39438 145.643 4.79971 145.334C5.20505 145.014 5.65838 144.785 6.15971 144.646C6.66105 144.497 7.17838 144.433 7.71171 144.454C7.80771 144.465 7.90371 144.47 7.99971 144.47C8.09571 144.47 8.19171 144.475 8.28771 144.486V150.742C8.77838 150.699 9.22105 150.577 9.61571 150.374C10.0104 150.171 10.325 149.883 10.5597 149.51C10.7837 149.137 10.8957 148.673 10.8957 148.118C10.8957 147.841 10.8637 147.563 10.7997 147.286C10.725 146.998 10.6024 146.742 10.4317 146.518C10.261 146.283 10.0317 146.118 9.74371 146.022V144.63C10.2877 144.758 10.7357 144.998 11.0877 145.35C11.429 145.702 11.685 146.123 11.8557 146.614C12.0157 147.105 12.0957 147.617 12.0957 148.15ZM7.10371 150.71L7.10371 145.83C6.62371 145.841 6.20238 145.947 5.83971 146.15C5.47705 146.353 5.19438 146.63 4.99171 146.982C4.78905 147.323 4.68771 147.734 4.68771 148.214C4.68771 148.737 4.79971 149.179 5.02371 149.542C5.24771 149.894 5.54105 150.166 5.90371 150.358C6.26638 150.55 6.66638 150.667 7.10371 150.71Z" fill="white"/>
<path d="M11.9997 142.306H3.56771V140.946H7.26371V136.722H3.56771V135.362H11.9997V136.722H8.46371V140.946H11.9997L11.9997 142.306Z" fill="white"/>
<path d="M11.9997 132.892H3.56771V131.532H10.0317C9.88238 131.458 9.72238 131.356 9.55171 131.228C9.37038 131.1 9.23171 130.999 9.13571 130.924L3.56771 126.844V125.5H11.9997V126.86H5.53571C5.69571 126.946 5.84505 127.042 5.98371 127.148C6.12238 127.244 6.25038 127.335 6.36771 127.42L11.9997 131.564V132.892Z" fill="white"/>
<path d="M11.9997 123.041H3.56771L3.56771 121.681H10.0317C9.88238 121.606 9.72238 121.505 9.55171 121.377C9.37038 121.249 9.23171 121.148 9.13571 121.073L3.56771 116.993L3.56771 115.649H11.9997V117.009H5.53571C5.69571 117.094 5.84505 117.19 5.98371 117.297C6.12238 117.393 6.25038 117.484 6.36771 117.569L11.9997 121.713V123.041Z" fill="white"/>
<path d="M14.5917 109.277H10.8157C10.8157 108.968 10.7304 108.723 10.5597 108.541C10.389 108.349 10.165 108.2 9.88771 108.093C9.61038 107.987 9.31171 107.907 8.99171 107.853C8.66104 107.8 8.34638 107.757 8.04771 107.725C7.55705 107.672 7.07171 107.64 6.59171 107.629C6.10105 107.608 5.71171 107.597 5.42371 107.597C5.11438 107.587 4.80504 107.581 4.49571 107.581C4.18638 107.581 3.87705 107.581 3.56771 107.581L3.56771 101.597H10.8157V100.493H14.5917V101.805H11.9997V107.965L14.5917 107.965V109.277ZM10.8157 107.117V102.957H4.76771L4.76771 106.285C5.21571 106.296 5.71705 106.307 6.27171 106.317C6.82638 106.328 7.34371 106.349 7.82371 106.381C8.10105 106.392 8.41571 106.419 8.76771 106.461C9.11971 106.493 9.47705 106.557 9.83971 106.653C10.1917 106.749 10.517 106.904 10.8157 107.117Z" fill="white"/>
<path d="M12.0957 95.073C12.0957 95.9583 11.9144 96.6997 11.5517 97.297C11.1784 97.8943 10.6664 98.3423 10.0157 98.641C9.36505 98.929 8.62371 99.073 7.79171 99.073C6.94904 99.073 6.20771 98.929 5.56771 98.641C4.91704 98.3423 4.40504 97.8943 4.03171 97.297C3.65838 96.6997 3.47171 95.9477 3.47171 95.041C3.47171 94.1557 3.65838 93.4197 4.03171 92.833C4.40504 92.2357 4.91704 91.793 5.56771 91.505C6.20771 91.2063 6.94904 91.057 7.79171 91.057C8.62371 91.057 9.36504 91.2063 10.0157 91.505C10.6664 91.8037 11.1784 92.2517 11.5517 92.849C11.9144 93.4357 12.0957 94.177 12.0957 95.073ZM10.8957 95.073C10.8957 94.4543 10.757 93.953 10.4797 93.569C10.2024 93.1743 9.82904 92.8863 9.35971 92.705C8.89038 92.513 8.36771 92.417 7.79171 92.417C7.21571 92.417 6.69304 92.513 6.22371 92.705C5.75438 92.8863 5.38104 93.1743 5.10371 93.569C4.82638 93.953 4.68771 94.4543 4.68771 95.073C4.68771 95.681 4.82638 96.1823 5.10371 96.577C5.38104 96.961 5.75438 97.249 6.22371 97.441C6.69304 97.6223 7.21571 97.713 7.79171 97.713C8.36771 97.713 8.89038 97.6223 9.35971 97.441C9.82904 97.249 10.2024 96.961 10.4797 96.577C10.757 96.1823 10.8957 95.681 10.8957 95.073Z" fill="white"/>
<path d="M11.9997 88.9174H3.56771L3.56771 83.0934H4.76771V87.5574H11.9997V88.9174Z" fill="white"/>
<path d="M12.0957 77.808C12.0957 78.6933 11.9144 79.4347 11.5517 80.032C11.1784 80.6293 10.6664 81.0773 10.0157 81.376C9.36504 81.664 8.62371 81.808 7.79171 81.808C6.94904 81.808 6.20771 81.664 5.56771 81.376C4.91704 81.0773 4.40504 80.6293 4.03171 80.032C3.65838 79.4347 3.47171 78.6827 3.47171 77.776C3.47171 76.8907 3.65838 76.1547 4.03171 75.568C4.40504 74.9707 4.91704 74.528 5.56771 74.24C6.20771 73.9413 6.94904 73.792 7.79171 73.792C8.62371 73.792 9.36504 73.9413 10.0157 74.24C10.6664 74.5387 11.1784 74.9867 11.5517 75.584C11.9144 76.1707 12.0957 76.912 12.0957 77.808ZM10.8957 77.808C10.8957 77.1893 10.757 76.688 10.4797 76.304C10.2024 75.9093 9.82904 75.6213 9.35971 75.44C8.89038 75.248 8.36771 75.152 7.79171 75.152C7.21571 75.152 6.69304 75.248 6.22371 75.44C5.75438 75.6213 5.38104 75.9093 5.10371 76.304C4.82638 76.688 4.68771 77.1893 4.68771 77.808C4.68771 78.416 4.82638 78.9173 5.10371 79.312C5.38104 79.696 5.75438 79.984 6.22371 80.176C6.69304 80.3573 7.21571 80.448 7.79171 80.448C8.36771 80.448 8.89038 80.3573 9.35971 80.176C9.82904 79.984 10.2024 79.696 10.4797 79.312C10.757 78.9173 10.8957 78.416 10.8957 77.808Z" fill="white"/>
<path d="M11.9997 71.6524H3.56771V68.3884C3.56771 68.015 3.59438 67.647 3.64771 67.2844C3.69038 66.911 3.78638 66.575 3.93571 66.2764C4.07438 65.967 4.28238 65.7217 4.55971 65.5404C4.83704 65.3484 5.20504 65.2524 5.66371 65.2524C5.94104 65.2524 6.19704 65.295 6.43171 65.3804C6.65571 65.4657 6.85304 65.5937 7.02371 65.7644C7.19438 65.9244 7.34371 66.1324 7.47171 66.3884C7.59971 65.8124 7.85038 65.3964 8.22371 65.1404C8.59704 64.8844 9.02371 64.7564 9.50371 64.7564C9.93038 64.7564 10.3037 64.8364 10.6237 64.9964C10.933 65.1457 11.189 65.359 11.3917 65.6364C11.5944 65.903 11.749 66.2177 11.8557 66.5804C11.9517 66.9324 11.9997 67.311 11.9997 67.7164V71.6524ZM10.8157 70.2604V68.0364C10.8157 67.7057 10.7837 67.3964 10.7197 67.1084C10.6557 66.8204 10.5384 66.5857 10.3677 66.4044C10.1864 66.223 9.93038 66.1324 9.59971 66.1324C9.25838 66.1324 9.00238 66.2124 8.83171 66.3724C8.65038 66.5217 8.52771 66.719 8.46371 66.9644C8.38904 67.199 8.34638 67.455 8.33571 67.7324C8.32504 68.0097 8.31971 68.271 8.31971 68.5164V70.2604H10.8157ZM7.16771 70.2604V69.0924C7.16771 68.879 7.15704 68.6337 7.13571 68.3564C7.11438 68.0684 7.06638 67.791 6.99171 67.5244C6.90638 67.247 6.77838 67.023 6.60771 66.8524C6.43704 66.671 6.20238 66.5804 5.90371 66.5804C5.50904 66.5804 5.23704 66.6924 5.08771 66.9164C4.92771 67.1297 4.83704 67.3857 4.81571 67.6844C4.78371 67.983 4.76771 68.2604 4.76771 68.5164V70.2604H7.16771Z" fill="white"/>
<path d="M12.0957 58.9024C12.0957 59.7877 11.9144 60.5291 11.5517 61.1264C11.1784 61.7237 10.6664 62.1717 10.0157 62.4704C9.36504 62.7584 8.62371 62.9024 7.79171 62.9024C6.94904 62.9024 6.20771 62.7584 5.56771 62.4704C4.91704 62.1717 4.40504 61.7237 4.03171 61.1264C3.65838 60.5291 3.47171 59.7771 3.47171 58.8704C3.47171 57.9851 3.65838 57.2491 4.03171 56.6624C4.40504 56.0651 4.91704 55.6224 5.56771 55.3344C6.20771 55.0357 6.94904 54.8864 7.79171 54.8864C8.62371 54.8864 9.36504 55.0357 10.0157 55.3344C10.6664 55.633 11.1784 56.081 11.5517 56.6784C11.9144 57.265 12.0957 58.0064 12.0957 58.9024ZM10.8957 58.9024C10.8957 58.2837 10.757 57.7824 10.4797 57.3984C10.2024 57.0037 9.82904 56.7157 9.35971 56.5344C8.89038 56.3424 8.36771 56.2464 7.79171 56.2464C7.21571 56.2464 6.69304 56.3424 6.22371 56.5344C5.75438 56.7157 5.38104 57.0037 5.10371 57.3984C4.82638 57.7824 4.68771 58.2837 4.68771 58.9024C4.68771 59.5104 4.82638 60.0117 5.10371 60.4064C5.38104 60.7904 5.75438 61.0784 6.22371 61.2704C6.69304 61.4517 7.21571 61.5424 7.79171 61.5424C8.36771 61.5424 8.89038 61.4517 9.35971 61.2704C9.82904 61.0784 10.2024 60.7904 10.4797 60.4064C10.757 60.0117 10.8957 59.5104 10.8957 58.9024Z" fill="white"/>
<path d="M15.0397 52.7467H3.56771L3.56771 51.4508L4.86371 51.3867C4.40504 51.0987 4.05838 50.7094 3.82371 50.2188C3.58904 49.7174 3.47171 49.1788 3.47171 48.6028C3.47171 47.7494 3.66371 47.0508 4.04771 46.5068C4.42104 45.9628 4.93304 45.5628 5.58371 45.3068C6.23438 45.0401 6.97038 44.9067 7.79171 44.9067C8.61304 44.9067 9.34904 45.0401 9.99971 45.3068C10.6504 45.5734 11.1624 45.9841 11.5357 46.5387C11.909 47.0934 12.0957 47.8028 12.0957 48.6668C12.0957 49.0934 12.053 49.4774 11.9677 49.8188C11.8717 50.1601 11.7384 50.4588 11.5677 50.7148C11.397 50.9708 11.205 51.1947 10.9917 51.3867H15.0397V52.7467ZM10.8957 48.7788C10.8957 48.1601 10.757 47.6694 10.4797 47.3068C10.1917 46.9441 9.81304 46.6828 9.34371 46.5228C8.87438 46.3521 8.35704 46.2668 7.79171 46.2668C7.21571 46.2668 6.69304 46.3521 6.22371 46.5228C5.75438 46.6828 5.38104 46.9494 5.10371 47.3228C4.82638 47.6961 4.68771 48.1921 4.68771 48.8107C4.68771 49.3654 4.83171 49.8401 5.11971 50.2348C5.39704 50.6188 5.77571 50.9121 6.25571 51.1147C6.72504 51.3174 7.24238 51.4188 7.80771 51.4188C8.39438 51.4188 8.92238 51.3228 9.39171 51.1308C9.86104 50.9388 10.229 50.6454 10.4957 50.2508C10.7624 49.8561 10.8957 49.3654 10.8957 48.7788Z" fill="white"/>
<path d="M12.0957 40.129C12.0957 40.513 12.0477 40.8863 11.9517 41.249C11.845 41.601 11.6904 41.921 11.4877 42.209C11.2744 42.4863 11.013 42.7103 10.7037 42.881C10.3837 43.041 10.0157 43.121 9.59971 43.121C9.11971 43.121 8.71438 43.0357 8.38371 42.865C8.05304 42.6837 7.79171 42.4437 7.59971 42.145C7.40771 41.8463 7.26904 41.4997 7.18371 41.105C7.09838 40.7103 7.05571 40.2997 7.05571 39.873L7.05571 37.393C6.57571 37.393 6.15971 37.4623 5.80771 37.601C5.45571 37.729 5.18371 37.9423 4.99171 38.241C4.78904 38.5397 4.68771 38.9343 4.68771 39.425C4.68771 39.7237 4.71971 40.001 4.78371 40.257C4.84771 40.513 4.94904 40.7317 5.08771 40.913C5.22638 41.0943 5.41304 41.2277 5.64771 41.313V42.769C5.26371 42.6943 4.93838 42.5503 4.67171 42.337C4.39438 42.113 4.17038 41.8463 3.99971 41.537C3.81838 41.217 3.68504 40.8757 3.59971 40.513C3.51437 40.1503 3.47171 39.7877 3.47171 39.425C3.47171 38.6143 3.63704 37.9637 3.96771 37.473C4.28771 36.9823 4.74637 36.625 5.34371 36.401C5.93037 36.177 6.62904 36.065 7.43971 36.065H11.9997V37.201L10.9277 37.281C11.2477 37.5157 11.493 37.7983 11.6637 38.129C11.8344 38.4597 11.9464 38.801 11.9997 39.153C12.0637 39.4943 12.0957 39.8197 12.0957 40.129ZM10.8957 40.001C10.8957 39.4677 10.8104 39.009 10.6397 38.625C10.4584 38.2303 10.197 37.9263 9.85571 37.713C9.51438 37.4997 9.09838 37.393 8.60771 37.393H8.19171L8.19171 38.881C8.19171 39.233 8.19704 39.5797 8.20771 39.921C8.21838 40.2623 8.26104 40.5717 8.33571 40.849C8.41038 41.1263 8.53838 41.3503 8.71971 41.521C8.90104 41.681 9.16238 41.761 9.50371 41.761C9.82371 41.761 10.085 41.681 10.2877 41.521C10.4904 41.3503 10.645 41.1317 10.7517 40.865C10.8477 40.5877 10.8957 40.2997 10.8957 40.001Z" fill="white"/>
<path d="M11.9997 28.6855L0.687708 28.6855L0.687708 27.2935H5.90371L5.90371 25.6135L0.687708 21.9335L0.687708 20.3335L6.30371 24.3975L11.9997 20.3015V21.9495L7.16771 25.5015L7.16771 27.2935L11.9997 27.2935V28.6855Z" fill="white"/>
<path d="M11.9997 18.3655L0.687708 18.3655L0.687708 14.4455C0.687708 13.6135 0.826374 12.8988 1.10371 12.3015C1.37037 11.7042 1.78104 11.2508 2.33571 10.9415C2.89037 10.6215 3.59437 10.4615 4.44771 10.4615C5.27971 10.4615 5.98371 10.6482 6.55971 11.0215C7.12504 11.3842 7.55171 11.8855 7.83971 12.5255C8.12771 13.1655 8.27171 13.9015 8.27171 14.7335L8.27171 16.9735H11.9997V18.3655ZM7.00771 16.9735L7.00771 14.7975C7.00771 13.9335 6.80504 13.2348 6.39971 12.7015C5.98371 12.1575 5.31171 11.8855 4.38371 11.8855C3.57304 11.8855 2.96504 12.1042 2.55971 12.5415C2.15437 12.9788 1.95171 13.6348 1.95171 14.5095L1.95171 16.9735H7.00771Z" fill="white"/>
<path d="M11.9997 5.58149L1.95171 5.5815L1.95171 9.2135H0.687707L0.687707 0.557495L1.95171 0.557495L1.95171 4.1895L11.9997 4.18949V5.58149Z" fill="white"/>
</svg>
