<svg width="291" height="253" viewBox="0 0 291 253" fill="none" xmlns="http://www.w3.org/2000/svg">
<path d="M262.81 56.7183C262.026 56.3117 261.072 56.6167 260.697 57.3959C259.028 60.5466 257.222 63.9345 255.246 67.5256C255.075 67.8305 254.905 68.1693 254.735 68.4742C254.735 68.4742 254.735 68.5081 254.7 68.5081C254.087 69.6261 253.44 70.778 252.792 71.9299C252.247 72.9462 251.668 73.9626 251.089 74.979C250.441 76.097 249.794 77.2489 249.146 78.4007C248.499 79.5187 247.852 80.6706 247.17 81.8225C247.17 81.8225 247.17 81.8564 247.136 81.8564C244.104 87.0398 240.832 92.4605 237.391 97.8811C237.391 97.8811 237.391 97.9149 237.357 97.9149C236.233 99.7105 235.04 101.54 233.881 103.336C233.881 103.336 233.881 103.369 233.847 103.369C233.064 104.589 232.28 105.775 231.462 106.961C231.462 106.961 231.462 106.961 231.428 106.994C230.236 108.79 229.009 110.619 227.748 112.381C226.896 113.635 226.01 114.888 225.125 116.108C223.898 117.836 222.637 119.564 221.376 121.257C219.196 124.171 216.981 127.051 214.732 129.829C213.846 130.947 212.96 132.031 212.04 133.115C210.234 135.283 208.394 137.384 206.52 139.45C205.6 140.467 204.68 141.449 203.726 142.432C196.264 150.258 188.564 156.864 180.829 161.336C178.41 162.725 175.99 163.911 173.571 164.893C173.162 165.029 172.753 165.164 172.379 165.3C169.21 166.316 166.348 166.689 163.758 166.553C164.201 165.808 164.644 165.097 165.053 164.351C165.496 163.606 165.905 162.895 166.313 162.149C167.336 160.184 168.358 158.185 169.278 156.153C169.653 155.34 170.027 154.493 170.334 153.679C171.016 152.019 171.663 150.325 172.174 148.598C172.31 148.157 172.447 147.717 172.549 147.31C173.06 145.582 173.435 143.787 173.741 141.991C173.81 141.517 173.844 141.077 173.878 140.602C174.014 139.078 174.082 137.553 174.048 136.062C174.014 131.557 173.264 127.152 171.765 122.714C171.527 122.003 171.288 121.291 170.981 120.614C170.845 120.241 170.709 119.902 170.573 119.53C169.516 116.955 168.085 114.753 166.347 112.991C166.211 112.822 166.041 112.652 165.87 112.517C165.564 112.212 165.223 111.907 164.882 111.636C164.03 110.924 163.145 110.315 162.191 109.806C161.441 109.4 160.657 109.027 159.839 108.722C159.635 108.655 159.431 108.587 159.226 108.519C156.091 107.537 152.616 107.435 149.072 108.417C148.05 108.688 147.062 109.061 146.04 109.501C145.494 109.739 145.017 110.01 144.506 110.281C144.029 110.586 143.552 110.857 143.075 111.195C142.632 111.5 142.189 111.873 141.746 112.212C141.337 112.584 140.929 112.957 140.52 113.33L139.94 113.94C139.395 114.549 138.85 115.193 138.339 115.871C136.329 118.581 134.795 121.698 133.671 124.815C133.296 125.865 132.955 126.881 132.649 127.932C132.342 128.948 132.104 129.964 131.865 130.947C130.434 137.824 130.195 145.786 131.831 153.307C131.967 154.018 132.138 154.73 132.342 155.441C132.512 156.153 132.751 156.864 132.955 157.542C133.398 158.931 133.909 160.286 134.523 161.607C135.715 164.25 137.215 166.723 139.089 168.925C139.532 169.467 140.009 170.009 140.52 170.517C141.542 171.568 142.632 172.516 143.825 173.431C143.518 173.77 143.177 174.142 142.837 174.515C142.666 174.752 142.462 174.955 142.223 175.193C141.678 175.802 141.133 176.412 140.554 176.988C140.315 177.259 140.043 177.53 139.736 177.835C139.463 178.14 139.157 178.411 138.884 178.716C138.714 178.885 138.543 179.055 138.373 179.224C137.862 179.766 137.351 180.274 136.806 180.749C136.431 181.121 136.022 181.494 135.647 181.833C135.17 182.273 134.727 182.714 134.25 183.12C130.468 186.542 126.515 189.727 122.427 192.606C111.216 200.771 95.8491 207.615 83.1737 205.04C89.5114 194.3 94.418 182.917 96.3943 172.042C97.1098 165.571 97.178 158.965 95.9173 152.595C95.7129 151.579 95.5084 150.597 95.2358 149.614C95.0655 149.004 94.8951 148.394 94.6906 147.751C94.4862 147.073 94.2477 146.396 94.0091 145.718C93.7706 145.108 93.5321 144.498 93.2936 143.889C93.0551 143.346 92.8166 142.804 92.5781 142.262C92.2032 141.483 91.8284 140.772 91.3855 140.06C91.1129 139.586 90.8062 139.145 90.4996 138.705C90.1929 138.265 89.8862 137.858 89.5455 137.452C83.2419 129.659 72.9857 127.661 63.1725 132.166C59.9355 133.759 57.1074 135.825 54.6541 138.299C53.5978 139.349 52.6097 140.467 51.6897 141.653C50.7697 142.838 49.9519 144.092 49.1342 145.379C48.3505 146.667 47.6349 148.022 46.9875 149.411C46.3401 150.8 45.7609 152.257 45.2498 153.713C42.3876 161.81 41.4335 170.924 42.115 179.631C42.2513 181.46 42.4898 183.256 42.7624 185.017C42.8646 185.593 42.9668 186.203 43.069 186.779C43.3076 187.931 43.5461 189.083 43.8187 190.235C44.2617 191.929 44.7387 193.555 45.3179 195.181C46.0676 197.315 46.9535 199.314 47.9416 201.178C49.9519 205.345 52.8141 209.309 56.2215 212.73C56.6985 213.205 57.2096 213.679 57.7207 214.153C57.1755 214.763 56.6304 215.407 56.0852 216.017C54.9948 217.236 53.8704 218.456 52.746 219.642C52.1667 220.251 51.5875 220.827 51.0082 221.403C44.0572 228.382 36.2543 234.379 27.7018 238.851C20.819 242.239 13.6294 244.102 6.91692 243.594C4.56584 243.391 0.136295 242.239 0 242.205C0.340736 242.713 18.3657 267.614 56.903 238.444C57.4141 238.072 67.0228 227.739 71.248 222.318C72.3383 222.691 73.4287 222.996 74.519 223.267C95.1336 228.281 116.157 216.762 131.354 204.464C140.622 196.739 148.765 187.999 155.785 178.411C167.779 180.478 180.897 175.26 190.097 168.01C193.129 165.639 196.128 162.996 199.092 160.15C205.839 153.646 212.313 145.921 218.48 137.587C219.639 136.029 220.797 134.436 221.922 132.81C222.671 131.726 223.421 130.642 224.17 129.558C224.545 129.016 224.92 128.474 225.295 127.932C226.045 126.847 226.76 125.729 227.51 124.611C235.176 112.957 242.264 100.524 248.567 88.5644C249.76 86.2945 250.918 84.0246 252.077 81.7886C253.235 79.5526 254.326 77.3166 255.416 75.1145C256.438 73.0479 257.426 71.0151 258.414 69.0163C258.483 68.9147 258.517 68.7791 258.585 68.6775V68.6436C260.254 65.2219 261.856 61.8679 263.355 58.6833C263.866 57.9718 263.56 57.091 262.81 56.7183ZM82.1175 169.772C81.4701 173.939 80.0049 178.004 78.3012 182.002C77.7219 183.323 77.1086 184.645 76.4953 185.966C74.5531 189.76 72.4746 193.521 70.1576 197.214C69.9872 197.01 69.8169 196.807 69.6465 196.604C69.3057 196.197 68.965 195.757 68.6584 195.317C67.8406 194.199 67.0569 192.979 66.3754 191.624C65.6258 190.133 64.9103 188.575 64.331 186.915C64.1947 186.508 64.0244 186.068 63.8881 185.661C63.6155 184.814 63.3429 183.967 63.1384 183.086C60.3444 172.381 61.094 159.71 66.7843 150.868C67.3977 150.021 68.011 149.275 68.6925 148.598C69.8169 147.514 71.0776 146.667 72.679 146.158C74.9961 145.311 76.6657 145.853 77.9264 147.175C78.3694 147.615 78.7442 148.157 79.0849 148.733C79.1531 148.835 79.1871 148.936 79.2553 149.038C79.4256 149.343 79.596 149.682 79.7323 150.021C80.2434 151.139 80.6864 152.426 81.0953 153.713C82.3901 158.524 82.7649 164.555 82.1175 169.772ZM162.633 140.331C162.531 141.144 162.395 141.957 162.191 142.737C161.918 143.956 161.577 145.142 161.168 146.294C160.759 147.446 160.282 148.632 159.771 149.75C159.431 150.529 159.056 151.274 158.681 152.019C158.511 152.392 158.306 152.765 158.102 153.137C157.727 153.883 157.318 154.628 156.909 155.373C156.705 155.746 156.5 156.119 156.296 156.491C155.921 157.135 155.512 157.779 155.103 158.423C154.694 159.1 154.251 159.778 153.808 160.455C153.808 160.455 153.808 160.455 153.808 160.489C153.536 160.93 153.229 161.37 152.957 161.81C152.65 161.505 152.343 161.201 152.071 160.862C151.491 160.184 150.946 159.507 150.435 158.727C149.924 157.982 149.481 157.203 149.038 156.39C146.687 151.85 145.563 146.226 145.563 140.467C145.563 139.349 145.597 138.197 145.699 137.079C145.801 135.859 145.937 134.606 146.142 133.386C146.21 133.081 146.244 132.81 146.312 132.505C146.891 129.592 147.709 126.509 149.14 124.137C149.72 123.189 150.401 122.342 151.185 121.664C151.389 121.495 151.594 121.359 151.798 121.19C151.934 121.122 152.071 121.088 152.173 121.02C152.445 120.919 152.718 120.783 152.991 120.715C153.74 120.478 154.524 120.309 155.171 120.343C156.228 120.444 157.148 120.953 157.965 121.732C158.102 121.833 158.238 121.969 158.374 122.138C158.511 122.274 158.647 122.443 158.749 122.579C158.885 122.714 158.988 122.884 159.124 123.053C159.362 123.392 159.567 123.764 159.771 124.137C159.873 124.307 159.976 124.51 160.078 124.713C162.088 128.779 162.872 134.707 162.804 137.926C162.838 138.671 162.77 139.518 162.633 140.331Z" fill="#FE0847"/>
<path d="M280.903 51.4672L284.004 44.6237C293.851 22.7718 290.989 8.00067 289.115 2.24127C288.978 1.86861 288.876 1.52982 288.74 1.22491C288.365 0.242422 287.275 -0.265762 286.287 0.140784C281.414 2.038 267.342 9.25419 256.847 32.5628L253.746 39.4063C253.644 39.4063 246.148 39.4402 243.422 45.5384L238.379 56.7184C237.766 58.1075 238.856 59.632 240.389 59.4626C241.344 59.361 242.57 59.0899 244.035 58.4462C244.478 58.243 244.921 58.1074 245.364 58.0058C248.635 57.125 251.668 58.1752 252.86 58.6834C253.201 58.8189 253.372 58.9205 253.372 58.9205L256.779 60.4451L254.564 65.3914C254.189 66.2045 254.496 67.1531 255.212 67.6274C255.28 67.6952 255.382 67.729 255.484 67.7629L258.483 69.0842C258.517 69.1181 258.551 69.1181 258.619 69.1181C259.505 69.423 260.493 69.0164 260.902 68.1695L263.151 63.2232L264.309 63.7313L266.558 64.7477C266.558 64.7477 266.762 64.8155 267.069 64.9849C267.819 65.3575 269.318 66.1367 270.681 67.5258C271.396 68.2372 272.044 69.0842 272.555 70.1006C272.759 70.5071 272.93 70.9475 273.1 71.3879C273.611 72.9125 274.19 73.9966 274.77 74.7758C275.656 75.9955 277.564 75.8261 278.177 74.437L283.22 63.257C285.81 57.5315 281.584 52.2803 281.005 51.5688C280.937 51.4672 280.903 51.4672 280.903 51.4672ZM270.613 22.6702C272.044 19.4856 275.792 18.0627 278.995 19.4856C282.198 20.9085 283.629 24.6352 282.198 27.8198C280.767 31.0044 277.019 32.4273 273.816 31.0044C270.613 29.5815 269.182 25.8548 270.613 22.6702Z" fill="#FE0847"/>
<path opacity="0.2" d="M56.2555 216.085C55.1652 217.304 54.0407 218.524 52.9163 219.71C52.337 220.319 51.7578 220.895 51.1785 221.471C51.1104 221.539 51.0423 221.607 51.0082 221.641C55.1992 225.571 60.174 228.552 64.365 230.619C66.9546 227.739 69.6465 224.588 71.4183 222.352C66.3073 220.489 58.1636 214.424 57.891 214.221C57.3459 214.831 56.8007 215.441 56.2555 216.085Z" fill="black"/>
<path opacity="0.2" d="M142.973 174.481C142.803 174.718 142.598 174.922 142.36 175.159C141.814 175.769 141.269 176.378 140.69 176.954C140.452 177.225 140.179 177.496 139.872 177.801C139.6 178.106 139.293 178.411 139.02 178.682C138.986 178.716 138.952 178.75 138.918 178.784C138.918 178.784 143.791 182.273 151.389 184.374C152.957 182.443 154.456 180.512 155.921 178.513C148.288 176.412 143.961 173.431 143.961 173.431C143.654 173.736 143.348 174.108 142.973 174.481Z" fill="black"/>
<path opacity="0.2" d="M289.115 2.20752C292.624 28.1926 271.294 55.465 264.275 63.6637L266.524 64.6801C266.524 64.6801 266.728 64.7478 267.035 64.9172C267.785 65.2899 269.284 66.0691 270.647 67.4581H270.681L278.279 56.0071C279.233 54.5503 280.937 51.4673 280.937 51.4673L284.038 44.6238C293.851 22.772 290.989 8.0008 289.115 2.20752Z" fill="black"/>
</svg>
