<svg width="8" height="8" viewBox="0 0 8 8" fill="none" xmlns="http://www.w3.org/2000/svg">
<path d="M1.33328 6.93332C1.29823 6.93344 1.2635 6.92662 1.2311 6.91326C1.1987 6.89989 1.16926 6.88025 1.14448 6.85545C1.09485 6.80515 1.06702 6.73732 1.06702 6.66665C1.06702 6.59598 1.09485 6.52815 1.14448 6.47785L6.47782 1.14452C6.52789 1.09445 6.5958 1.06631 6.66662 1.06631C6.73743 1.06631 6.80535 1.09445 6.85542 1.14452C6.90549 1.19459 6.93362 1.2625 6.93362 1.33332C6.93362 1.40413 6.90549 1.47205 6.85542 1.52212L1.52208 6.85545C1.49731 6.88025 1.46787 6.89989 1.43547 6.91326C1.40306 6.92662 1.36834 6.93344 1.33328 6.93332Z" fill="#646464"/>
<path d="M6.66662 6.93332C6.63157 6.93344 6.59684 6.92662 6.56444 6.91326C6.53203 6.89989 6.5026 6.88025 6.47782 6.85545L1.14449 1.52212C1.09441 1.47205 1.06628 1.40413 1.06628 1.33332C1.06628 1.2625 1.09441 1.19459 1.14449 1.14452C1.19456 1.09445 1.26247 1.06631 1.33329 1.06631C1.4041 1.06631 1.47201 1.09445 1.52209 1.14452L6.85542 6.47785C6.90506 6.52815 6.93289 6.59598 6.93289 6.66665C6.93289 6.73732 6.90506 6.80515 6.85542 6.85545C6.83065 6.88025 6.80121 6.89989 6.7688 6.91326C6.7364 6.92662 6.70167 6.93344 6.66662 6.93332Z" fill="#646464"/>
</svg>
