<svg width="75" height="75" viewBox="0 0 75 75" fill="none" xmlns="http://www.w3.org/2000/svg">
<path d="M60.6 40.3495C59.325 39.8995 57.9 40.2745 57.15 41.2495L53.325 46.4995C53.1 46.7995 52.725 46.7995 52.5 46.4995L48.675 41.2495C47.925 40.2745 46.5 39.8995 45.225 40.3495C43.725 40.8745 42.45 41.3995 41.325 41.9245C40.8 42.1495 40.8 42.8995 41.325 43.1995C45.9 45.8245 48.225 48.6745 49.05 53.7745C49.125 54.1495 49.425 54.3746 49.725 54.3746H69.45C70.425 54.3746 71.25 53.6996 71.25 52.8746C71.25 45.5995 68.475 43.1995 60.6 40.3495ZM49.65 17.1745C41.1 17.3995 41.25 26.9245 44.4 32.6995C44.85 33.5245 45.6 34.4245 46.35 35.0245C46.95 35.4745 47.7 35.6995 48.45 35.6995C48.6 35.6995 48.75 35.6245 48.825 35.5495C49.8 36.5995 51.225 37.7245 52.95 37.7245H53.025C54.45 37.7245 55.875 36.9745 57.15 35.5495C57.225 35.6245 57.375 35.6245 57.525 35.6245C58.2 35.6245 58.8 35.4745 59.4 35.0995C60.15 34.5745 60.825 33.7495 61.35 33.1495C67.35 25.4245 61.2 9.67454 49.65 17.1745ZM59.4 24.5245C59.625 26.2495 58.95 29.2495 57.975 32.0995C56.625 34.7245 54.6 36.3745 53.1 36.2245C50.175 35.9995 48.3 32.3245 48.3 32.2495C47.4 29.6245 46.65 26.9995 46.65 26.1745C46.65 26.0245 46.8 25.8745 46.95 25.7995C49.5 24.8995 51.075 22.5745 51.6 21.5995C51.75 21.3745 52.05 21.2995 52.2 21.5245C53.85 23.3245 57.975 23.9995 59.1 24.2245C59.25 24.1495 59.4 24.2995 59.4 24.5245ZM36 44.0245C34.8 43.4995 33.375 43.9495 32.625 45.0745L28.5 51.5996C28.35 51.8246 27.975 51.8245 27.9 51.5245L26.175 45.8245C26.1 45.5995 26.175 45.2995 26.325 45.1495L27.6 43.8745C27.9 43.6495 27.675 43.1245 27.3 43.1245H22.8C22.425 43.1245 22.2 43.5745 22.5 43.8745L23.775 45.1495C23.925 45.2995 24 45.5995 23.925 45.8245L22.2 51.5245C22.125 51.8245 21.75 51.8246 21.6 51.5996L17.475 45.0745C16.725 43.9495 15.375 43.4995 14.1 44.0245C6.45 47.1745 3.75 49.9496 3.75 58.0496C3.75 59.0246 4.5 59.7745 5.475 59.7745H44.625C45.6 59.7745 46.35 59.0246 46.35 58.0496C46.35 49.9496 43.575 47.1745 36 44.0245ZM25.05 40.6495C35.1 40.6495 40.35 17.7745 25.05 17.5495C9.75 17.8495 15 40.6495 25.05 40.6495Z" fill="white"/>
</svg>
