<svg width="42" height="51" viewBox="0 0 42 51" fill="none" xmlns="http://www.w3.org/2000/svg">
<path d="M38.136 0H3.28978C2.41727 0.00121642 1.58088 0.348508 0.964125 0.965671C0.347372 1.58283 0.000636444 2.41946 0 3.29197V47.2662C0.0010998 48.1384 0.348054 48.9745 0.96477 49.5912C1.58149 50.2079 2.41761 50.5549 3.28978 50.556H38.1367C39.0088 50.5549 39.845 50.2079 40.4617 49.5912C41.0784 48.9745 41.4253 48.1384 41.4264 47.2662V3.29197C41.4258 2.41934 41.079 1.58262 40.4621 0.96544C39.8452 0.348258 39.0086 0.00104274 38.136 0ZM38.9946 47.2662C38.9946 47.379 38.9724 47.4906 38.9293 47.5948C38.8862 47.699 38.8229 47.7937 38.7432 47.8734C38.6635 47.9532 38.5688 48.0165 38.4646 48.0596C38.3604 48.1028 38.2488 48.125 38.136 48.125H3.28978C3.177 48.125 3.06532 48.1028 2.96113 48.0596C2.85693 48.0165 2.76226 47.9532 2.68251 47.8735C2.60276 47.7937 2.5395 47.699 2.49634 47.5948C2.45318 47.4906 2.43097 47.379 2.43097 47.2662V3.29197C2.43091 3.06398 2.5213 2.84528 2.68231 2.68386C2.84332 2.52244 3.06179 2.43149 3.28978 2.43097H38.1367C38.3646 2.43149 38.5831 2.52245 38.744 2.68387C38.905 2.8453 38.9954 3.064 38.9952 3.29197L38.9946 47.2662Z" fill="white"/>
<path d="M32.4815 6.72363H9.35263C8.6792 6.7241 8.03348 6.99177 7.55723 7.4679C7.08098 7.94402 6.81314 8.58968 6.8125 9.2631V12.6404C6.81302 13.3139 7.08082 13.9597 7.55707 14.4359C8.03333 14.9121 8.67912 15.1798 9.35263 15.1803H32.4815C33.155 15.1798 33.8007 14.9121 34.277 14.4359C34.7532 13.9596 35.0209 13.3139 35.0214 12.6404V9.2631C35.0208 8.58971 34.753 7.94409 34.2768 7.46798C33.8006 6.99186 33.1549 6.72415 32.4815 6.72363ZM33.1458 12.641C33.1453 12.8171 33.0752 12.9858 32.9507 13.1102C32.8262 13.2347 32.6575 13.3049 32.4815 13.3054H9.35263C9.17657 13.3049 9.00787 13.2347 8.88336 13.1102C8.75885 12.9858 8.68864 12.8171 8.68806 12.641V9.2631C8.68864 9.08703 8.75884 8.91833 8.88335 8.79382C9.00785 8.66932 9.17655 8.59912 9.35263 8.59854H32.4815C32.6576 8.59912 32.8262 8.66932 32.9507 8.79384C33.0752 8.91835 33.1453 9.08705 33.1458 9.2631V12.641ZM16.5302 23.3386H13.9903V20.7987C13.9903 20.508 13.8749 20.2292 13.6694 20.0237C13.4638 19.8182 13.1851 19.7027 12.8944 19.7027C12.6037 19.7027 12.325 19.8182 12.1195 20.0237C11.9139 20.2292 11.7985 20.508 11.7985 20.7987V23.3386H9.25856C8.9679 23.3386 8.68915 23.454 8.48362 23.6596C8.27809 23.8651 8.16262 24.1438 8.16262 24.4345C8.16262 24.7252 8.27809 25.0039 8.48362 25.2095C8.68915 25.415 8.9679 25.5304 9.25856 25.5304H11.7985V28.0736C11.7985 28.3643 11.9139 28.6431 12.1195 28.8486C12.325 29.0541 12.6037 29.1696 12.8944 29.1696C13.1851 29.1696 13.4638 29.0541 13.6694 28.8486C13.8749 28.6431 13.9903 28.3643 13.9903 28.0736V25.5304H16.5302C16.8209 25.5304 17.0997 25.415 17.3052 25.2095C17.5107 25.0039 17.6262 24.7252 17.6262 24.4345C17.6262 24.1438 17.5107 23.8651 17.3052 23.6596C17.0997 23.454 16.8209 23.3386 16.5302 23.3386ZM16.1886 36.3034C15.9827 36.0982 15.7038 35.983 15.4131 35.983C15.1224 35.983 14.8435 36.0982 14.6376 36.3034L12.8421 38.0989L11.0466 36.3034C10.9448 36.2016 10.8239 36.1208 10.6908 36.0657C10.5578 36.0106 10.4152 35.9822 10.2712 35.9822C10.1271 35.9822 9.98453 36.0106 9.85148 36.0657C9.71842 36.1208 9.59752 36.2016 9.49569 36.3034C9.39385 36.4053 9.31307 36.5262 9.25796 36.6592C9.20284 36.7923 9.17448 36.9349 9.17448 37.0789C9.17448 37.2229 9.20284 37.3655 9.25796 37.4986C9.31307 37.6316 9.39385 37.7525 9.49569 37.8544L11.2912 39.6499L9.49569 41.4454C9.29002 41.6511 9.17448 41.93 9.17448 42.2209C9.17448 42.5117 9.29002 42.7907 9.49569 42.9963C9.70135 43.202 9.9803 43.3175 10.2712 43.3175C10.562 43.3175 10.841 43.202 11.0466 42.9963L12.8421 41.2008L14.6376 42.9963C14.8433 43.202 15.1222 43.3175 15.4131 43.3175C15.704 43.3175 15.9829 43.202 16.1886 42.9963C16.3942 42.7907 16.5098 42.5117 16.5098 42.2209C16.5098 41.93 16.3942 41.6511 16.1886 41.4454L14.3931 39.6499L16.1886 37.8544C16.3938 37.6485 16.509 37.3696 16.509 37.0789C16.509 36.7882 16.3938 36.5094 16.1886 36.3034ZM25.2439 25.5304H32.5156C32.8063 25.5304 33.085 25.415 33.2906 25.2095C33.4961 25.0039 33.6116 24.7252 33.6116 24.4345C33.6116 24.1438 33.4961 23.8651 33.2906 23.6596C33.085 23.454 32.8063 23.3386 32.5156 23.3386H25.2439C24.9533 23.3386 24.6745 23.454 24.469 23.6596C24.2635 23.8651 24.148 24.1438 24.148 24.4345C24.148 24.7252 24.2635 25.0039 24.469 25.2095C24.6745 25.415 24.9533 25.5304 25.2439 25.5304ZM32.5819 36.6324H25.308C25.1628 36.6304 25.0187 36.6572 24.8839 36.7114C24.7492 36.7655 24.6265 36.8459 24.5231 36.9479C24.4197 37.0498 24.3376 37.1713 24.2815 37.3053C24.2255 37.4393 24.1966 37.5831 24.1966 37.7283C24.1966 37.8735 24.2255 38.0173 24.2815 38.1512C24.3376 38.2852 24.4197 38.4067 24.5231 38.5087C24.6265 38.6106 24.7492 38.691 24.8839 38.7452C25.0187 38.7993 25.1628 38.8262 25.308 38.8241H32.5819C32.7271 38.8262 32.8713 38.7993 33.006 38.7452C33.1408 38.691 33.2634 38.6106 33.3668 38.5087C33.4703 38.4067 33.5524 38.2852 33.6084 38.1512C33.6645 38.0173 33.6933 37.8735 33.6933 37.7283C33.6933 37.5831 33.6645 37.4393 33.6084 37.3053C33.5524 37.1713 33.4703 37.0498 33.3668 36.9479C33.2634 36.8459 33.1408 36.7655 33.006 36.7114C32.8713 36.6572 32.7271 36.6304 32.5819 36.6324ZM32.5156 40.2683H25.2439C25.0987 40.2662 24.9546 40.2931 24.8198 40.3472C24.6851 40.4014 24.5624 40.4818 24.459 40.5837C24.3556 40.6857 24.2735 40.8072 24.2174 40.9411C24.1614 41.0751 24.1325 41.2189 24.1325 41.3641C24.1325 41.5093 24.1614 41.6531 24.2174 41.7871C24.2735 41.9211 24.3556 42.0426 24.459 42.1445C24.5624 42.2465 24.6851 42.3269 24.8198 42.381C24.9546 42.4352 25.0987 42.462 25.2439 42.4599H32.5156C32.6608 42.462 32.805 42.4352 32.9398 42.381C33.0745 42.3269 33.1971 42.2465 33.3006 42.1445C33.404 42.0426 33.4861 41.9211 33.5421 41.7871C33.5982 41.6531 33.627 41.5093 33.627 41.3641C33.627 41.2189 33.5982 41.0751 33.5421 40.9411C33.4861 40.8072 33.404 40.6857 33.3006 40.5837C33.1971 40.4818 33.0745 40.4014 32.9398 40.3472C32.805 40.2931 32.6608 40.2662 32.5156 40.2683Z" fill="white"/>
</svg>
