<?xml version="1.0" encoding="utf-8"?>
<!-- Generator: Adobe Illustrator 13.0.0, SVG Export Plug-In . SVG Version: 6.00 Build 14948)  -->
<!DOCTYPE svg PUBLIC "-//W3C//DTD SVG 1.1//EN" "http://www.w3.org/Graphics/SVG/1.1/DTD/svg11.dtd">
<svg version="1.1" id="Layer_1" xmlns="http://www.w3.org/2000/svg" xmlns:xlink="http://www.w3.org/1999/xlink" x="0px" y="0px"
	 width="66.765px" height="53.315px" viewBox="0 0 66.765 53.315" enable-background="new 0 0 66.765 53.315" xml:space="preserve">
<pattern  x="-265.364" y="445.911" width="69" height="69" patternUnits="userSpaceOnUse" id="Polka_Dot_Pattern" viewBox="2.125 -70.896 69 69" overflow="visible">
	<g>
		<polygon fill="none" points="71.125,-1.896 2.125,-1.896 2.125,-70.896 71.125,-70.896 		"/>
		<polygon fill="#F7BC60" points="71.125,-1.896 2.125,-1.896 2.125,-70.896 71.125,-70.896 		"/>
		<g>
			<path fill="#FFFFFF" d="M61.772-71.653c0.018,0.072,0.007,0.127-0.026,0.19c-0.053,0.101-0.112,0.063-0.165,0.128
				c-0.05,0.063-0.099,0.276-0.079,0.362c-0.169,0.058-0.01,0.227-0.015,0.35c-0.002,0.05-0.041,0.105-0.045,0.161
				c-0.01,0.119,0.017,0.266,0.068,0.37c0.097,0.198,0.268,0.413,0.435,0.544c0.19,0.148,0.365,0.572,0.608,0.631
				c0.177,0.042,0.384-0.104,0.543-0.143c0.18-0.043,0.397,0.01,0.571-0.053c0.222-0.079,0.127-0.337,0.288-0.45
				c0.104-0.074,0.287-0.01,0.406-0.051c0.2-0.069,0.339-0.263,0.376-0.46c0.016-0.082,0.01-0.145,0.039-0.221
				c0.039-0.103,0.111-0.16,0.09-0.293c-0.01-0.062-0.052-0.12-0.064-0.187c-0.022-0.114,0.002-0.224,0-0.337
				c-0.003-0.2,0.017-0.379-0.078-0.55c-0.38-0.688-1.236-0.929-1.975-0.789c-0.18,0.034-0.287,0.126-0.442,0.207
				c-0.17,0.088-0.139,0.166-0.318,0.224c-0.081,0.026-0.216,0.124-0.215,0.224c0.001,0.115,0.005,0.051,0.012,0.169
				c-0.021,0.011-0.021-0.005-0.03-0.025"/>
			<path fill="#FFFFFF" d="M54.105-71.653c0.018,0.072,0.007,0.127-0.026,0.19c-0.053,0.101-0.112,0.063-0.165,0.128
				c-0.05,0.063-0.099,0.276-0.079,0.362c-0.169,0.058-0.01,0.227-0.015,0.35c-0.002,0.05-0.041,0.105-0.045,0.161
				c-0.01,0.119,0.017,0.266,0.068,0.37c0.097,0.198,0.268,0.413,0.435,0.544c0.19,0.148,0.365,0.572,0.608,0.631
				c0.177,0.042,0.384-0.104,0.543-0.143c0.18-0.043,0.397,0.01,0.571-0.053c0.222-0.079,0.127-0.337,0.288-0.45
				c0.104-0.074,0.287-0.01,0.406-0.051c0.2-0.069,0.339-0.263,0.376-0.46c0.016-0.082,0.01-0.145,0.039-0.221
				c0.039-0.103,0.111-0.16,0.09-0.293c-0.01-0.062-0.052-0.12-0.064-0.187c-0.022-0.114,0.002-0.224,0-0.337
				c-0.003-0.2,0.017-0.379-0.078-0.55c-0.38-0.688-1.236-0.929-1.975-0.789c-0.18,0.034-0.287,0.126-0.442,0.207
				c-0.17,0.088-0.139,0.166-0.318,0.224c-0.081,0.026-0.216,0.124-0.215,0.224c0.001,0.115,0.005,0.051,0.012,0.169
				c-0.021,0.011-0.021-0.005-0.03-0.025"/>
			<path fill="#FFFFFF" d="M46.439-71.653c0.018,0.072,0.007,0.127-0.026,0.19c-0.053,0.101-0.112,0.063-0.165,0.128
				c-0.05,0.063-0.099,0.276-0.079,0.362c-0.169,0.058-0.01,0.227-0.015,0.35c-0.002,0.05-0.041,0.105-0.045,0.161
				c-0.01,0.119,0.017,0.266,0.068,0.37c0.097,0.198,0.268,0.413,0.435,0.544c0.19,0.148,0.365,0.572,0.608,0.631
				c0.177,0.042,0.384-0.104,0.543-0.143c0.18-0.043,0.397,0.01,0.571-0.053c0.222-0.079,0.127-0.337,0.288-0.45
				c0.104-0.074,0.287-0.01,0.406-0.051c0.2-0.069,0.339-0.263,0.376-0.46c0.016-0.082,0.01-0.145,0.039-0.221
				c0.039-0.103,0.111-0.16,0.09-0.293c-0.01-0.062-0.052-0.12-0.064-0.187c-0.022-0.114,0.002-0.224,0-0.337
				c-0.003-0.2,0.017-0.379-0.078-0.55c-0.38-0.688-1.236-0.929-1.975-0.789c-0.18,0.034-0.287,0.126-0.442,0.207
				c-0.17,0.088-0.139,0.166-0.318,0.224c-0.081,0.026-0.216,0.124-0.215,0.224c0.001,0.115,0.005,0.051,0.012,0.169
				c-0.021,0.011-0.021-0.005-0.03-0.025"/>
			<path fill="#FFFFFF" d="M38.772-71.653c0.018,0.072,0.007,0.127-0.026,0.19c-0.053,0.101-0.112,0.063-0.165,0.128
				c-0.05,0.063-0.099,0.276-0.079,0.362c-0.169,0.058-0.01,0.227-0.015,0.35c-0.002,0.05-0.041,0.105-0.045,0.161
				c-0.01,0.119,0.017,0.266,0.068,0.37c0.097,0.198,0.268,0.413,0.435,0.544c0.19,0.148,0.365,0.572,0.608,0.631
				c0.177,0.042,0.384-0.104,0.543-0.143c0.18-0.043,0.397,0.01,0.571-0.053c0.222-0.079,0.127-0.337,0.288-0.45
				c0.104-0.074,0.287-0.01,0.406-0.051c0.2-0.069,0.339-0.263,0.376-0.46c0.016-0.082,0.01-0.145,0.039-0.221
				c0.039-0.103,0.111-0.16,0.09-0.293c-0.01-0.062-0.052-0.12-0.064-0.187c-0.022-0.114,0.002-0.224,0-0.337
				c-0.003-0.2,0.017-0.379-0.078-0.55c-0.38-0.688-1.236-0.929-1.975-0.789c-0.18,0.034-0.287,0.126-0.442,0.207
				c-0.17,0.088-0.139,0.166-0.318,0.224c-0.081,0.026-0.216,0.124-0.215,0.224c0.001,0.115,0.005,0.051,0.012,0.169
				c-0.021,0.011-0.021-0.005-0.03-0.025"/>
			<path fill="#FFFFFF" d="M31.105-71.653c0.018,0.072,0.007,0.127-0.026,0.19c-0.053,0.101-0.112,0.063-0.165,0.128
				c-0.05,0.063-0.099,0.276-0.079,0.362c-0.169,0.058-0.01,0.227-0.015,0.35c-0.002,0.05-0.041,0.105-0.045,0.161
				c-0.01,0.119,0.017,0.266,0.068,0.37c0.097,0.198,0.268,0.413,0.435,0.544c0.19,0.148,0.365,0.572,0.608,0.631
				c0.177,0.042,0.384-0.104,0.543-0.143c0.18-0.043,0.397,0.01,0.571-0.053c0.222-0.079,0.127-0.337,0.288-0.45
				c0.104-0.074,0.287-0.01,0.406-0.051c0.2-0.069,0.339-0.263,0.376-0.46c0.016-0.082,0.01-0.145,0.039-0.221
				c0.039-0.103,0.111-0.16,0.09-0.293c-0.01-0.062-0.052-0.12-0.064-0.187c-0.022-0.114,0.002-0.224,0-0.337
				c-0.003-0.2,0.017-0.379-0.078-0.55c-0.38-0.688-1.236-0.929-1.975-0.789c-0.18,0.034-0.287,0.126-0.442,0.207
				c-0.17,0.088-0.139,0.166-0.318,0.224c-0.081,0.026-0.216,0.124-0.215,0.224c0.001,0.115,0.005,0.051,0.012,0.169
				c-0.021,0.011-0.021-0.005-0.03-0.025"/>
			<path fill="#FFFFFF" d="M23.439-71.653c0.018,0.072,0.007,0.127-0.026,0.19c-0.053,0.101-0.112,0.063-0.165,0.128
				c-0.05,0.063-0.099,0.276-0.079,0.362c-0.169,0.058-0.01,0.227-0.015,0.35c-0.002,0.05-0.041,0.105-0.045,0.161
				c-0.01,0.119,0.017,0.266,0.068,0.37c0.097,0.198,0.268,0.413,0.435,0.544c0.19,0.148,0.365,0.572,0.608,0.631
				c0.177,0.042,0.384-0.104,0.543-0.143c0.18-0.043,0.397,0.01,0.571-0.053c0.222-0.079,0.127-0.337,0.288-0.45
				c0.104-0.074,0.287-0.01,0.406-0.051c0.2-0.069,0.339-0.263,0.376-0.46c0.016-0.082,0.01-0.145,0.039-0.221
				c0.039-0.103,0.111-0.16,0.09-0.293c-0.01-0.062-0.052-0.12-0.064-0.187c-0.022-0.114,0.002-0.224,0-0.337
				c-0.003-0.2,0.017-0.379-0.078-0.55c-0.38-0.688-1.236-0.929-1.975-0.789c-0.18,0.034-0.287,0.126-0.442,0.207
				c-0.17,0.088-0.139,0.166-0.318,0.224c-0.081,0.026-0.216,0.124-0.215,0.224c0.001,0.115,0.005,0.051,0.012,0.169
				c-0.021,0.011-0.021-0.005-0.03-0.025"/>
			<path fill="#FFFFFF" d="M15.772-71.653c0.018,0.072,0.007,0.127-0.026,0.19c-0.053,0.101-0.112,0.063-0.165,0.128
				c-0.05,0.063-0.099,0.276-0.079,0.362c-0.169,0.058-0.01,0.227-0.015,0.35c-0.002,0.05-0.041,0.105-0.045,0.161
				c-0.01,0.119,0.017,0.266,0.068,0.37c0.097,0.198,0.268,0.413,0.435,0.544c0.19,0.148,0.365,0.572,0.608,0.631
				c0.177,0.042,0.384-0.104,0.543-0.143c0.18-0.043,0.397,0.01,0.571-0.053c0.222-0.079,0.127-0.337,0.288-0.45
				c0.104-0.074,0.287-0.01,0.406-0.051c0.2-0.069,0.339-0.263,0.376-0.46c0.016-0.082,0.01-0.145,0.039-0.221
				c0.039-0.103,0.111-0.16,0.09-0.293c-0.01-0.062-0.052-0.12-0.064-0.187c-0.022-0.114,0.002-0.224,0-0.337
				c-0.003-0.2,0.017-0.379-0.078-0.55c-0.38-0.688-1.236-0.929-1.975-0.789c-0.18,0.034-0.287,0.126-0.442,0.207
				c-0.17,0.088-0.139,0.166-0.318,0.224c-0.081,0.026-0.216,0.124-0.215,0.224c0.001,0.115,0.005,0.051,0.012,0.169
				c-0.021,0.011-0.021-0.005-0.03-0.025"/>
			<path fill="#FFFFFF" d="M8.105-71.653c0.018,0.072,0.007,0.127-0.026,0.19c-0.053,0.101-0.112,0.063-0.165,0.128
				c-0.05,0.063-0.099,0.276-0.079,0.362c-0.169,0.058-0.01,0.227-0.015,0.35c-0.002,0.05-0.041,0.105-0.045,0.161
				c-0.01,0.119,0.017,0.266,0.068,0.37c0.097,0.198,0.268,0.413,0.435,0.544c0.19,0.148,0.365,0.572,0.608,0.631
				c0.177,0.042,0.384-0.104,0.543-0.143c0.18-0.043,0.397,0.01,0.571-0.053c0.222-0.079,0.127-0.337,0.288-0.45
				c0.104-0.074,0.287-0.01,0.406-0.051c0.2-0.069,0.339-0.263,0.376-0.46c0.016-0.082,0.01-0.145,0.039-0.221
				c0.039-0.103,0.111-0.16,0.09-0.293c-0.01-0.062-0.052-0.12-0.064-0.187c-0.022-0.114,0.002-0.224,0-0.337
				c-0.003-0.2,0.017-0.379-0.078-0.55c-0.38-0.688-1.236-0.929-1.975-0.789c-0.18,0.034-0.287,0.126-0.442,0.207
				c-0.17,0.088-0.139,0.166-0.318,0.224c-0.081,0.026-0.216,0.124-0.215,0.224c0.001,0.115,0.005,0.051,0.012,0.169
				c-0.021,0.011-0.021-0.005-0.03-0.025"/>
			<path fill="#FFFFFF" d="M0.439-71.653c0.018,0.072,0.008,0.127-0.026,0.19C0.361-71.362,0.3-71.4,0.248-71.335
				c-0.051,0.063-0.099,0.276-0.079,0.362c-0.169,0.058-0.01,0.227-0.015,0.35c-0.002,0.05-0.041,0.105-0.045,0.161
				c-0.01,0.119,0.017,0.266,0.068,0.37c0.097,0.198,0.268,0.413,0.435,0.544c0.19,0.148,0.365,0.572,0.608,0.631
				c0.177,0.042,0.384-0.104,0.543-0.143c0.18-0.043,0.397,0.01,0.571-0.053c0.222-0.079,0.127-0.337,0.288-0.45
				c0.104-0.074,0.287-0.01,0.406-0.051c0.2-0.07,0.339-0.263,0.376-0.46c0.016-0.082,0.01-0.145,0.039-0.221
				c0.038-0.103,0.111-0.16,0.09-0.293c-0.01-0.062-0.051-0.12-0.064-0.187c-0.021-0.114,0.002-0.224,0-0.337
				c-0.003-0.2,0.017-0.379-0.078-0.55c-0.38-0.688-1.236-0.929-1.975-0.789c-0.18,0.034-0.287,0.126-0.442,0.207
				c-0.17,0.088-0.139,0.166-0.318,0.224c-0.081,0.026-0.215,0.124-0.215,0.224c0.002,0.115,0.005,0.051,0.012,0.169
				c-0.021,0.011-0.021-0.005-0.03-0.025"/>
		</g>
		<g>
			<path fill="#FFFFFF" d="M69.439-71.653c0.018,0.072,0.008,0.127-0.026,0.19c-0.052,0.101-0.113,0.063-0.165,0.128
				c-0.051,0.063-0.099,0.276-0.079,0.362c-0.169,0.058-0.01,0.227-0.015,0.35c-0.002,0.05-0.041,0.105-0.045,0.161
				c-0.01,0.119,0.017,0.266,0.068,0.37c0.097,0.198,0.268,0.413,0.435,0.544c0.19,0.148,0.365,0.572,0.608,0.631
				c0.177,0.042,0.384-0.104,0.543-0.143c0.18-0.043,0.397,0.01,0.571-0.053c0.222-0.079,0.127-0.337,0.288-0.45
				c0.104-0.074,0.287-0.01,0.406-0.051c0.2-0.07,0.339-0.263,0.376-0.46c0.016-0.082,0.01-0.145,0.039-0.221
				c0.038-0.103,0.111-0.16,0.09-0.293c-0.01-0.062-0.051-0.12-0.064-0.187c-0.021-0.114,0.002-0.224,0-0.337
				c-0.003-0.2,0.017-0.379-0.078-0.55c-0.38-0.688-1.236-0.929-1.975-0.789c-0.18,0.034-0.287,0.126-0.442,0.207
				c-0.17,0.088-0.139,0.166-0.318,0.224c-0.081,0.026-0.215,0.124-0.215,0.224c0.002,0.115,0.005,0.051,0.012,0.169
				c-0.021,0.011-0.021-0.005-0.03-0.025"/>
		</g>
		<path fill="#FFFFFF" d="M0.495-71.653c0.018,0.072,0.008,0.127-0.026,0.19c-0.052,0.101-0.113,0.063-0.165,0.128
			c-0.051,0.063-0.099,0.276-0.079,0.362c-0.169,0.058-0.01,0.227-0.015,0.35c-0.002,0.05-0.041,0.105-0.045,0.161
			c-0.01,0.119,0.017,0.266,0.068,0.37c0.097,0.198,0.268,0.413,0.435,0.544c0.19,0.148,0.365,0.572,0.608,0.631
			c0.177,0.042,0.384-0.104,0.543-0.143c0.18-0.043,0.397,0.01,0.571-0.053c0.222-0.079,0.127-0.337,0.288-0.45
			c0.104-0.074,0.287-0.01,0.406-0.051c0.2-0.07,0.339-0.263,0.376-0.46c0.016-0.082,0.01-0.145,0.039-0.221
			c0.038-0.103,0.111-0.16,0.09-0.293c-0.01-0.062-0.051-0.12-0.064-0.187c-0.021-0.114,0.002-0.224,0-0.337
			c-0.003-0.2,0.017-0.379-0.078-0.55c-0.38-0.688-1.236-0.929-1.975-0.789c-0.18,0.034-0.287,0.126-0.442,0.207
			c-0.17,0.088-0.139,0.166-0.318,0.224c-0.081,0.026-0.215,0.124-0.215,0.224C0.5-71.68,0.503-71.744,0.51-71.626
			c-0.021,0.011-0.021-0.005-0.03-0.025"/>
		<g>
			<g>
				<path fill="#FFFFFF" d="M69.439-64.001c0.018,0.072,0.007,0.127-0.026,0.19c-0.053,0.101-0.112,0.063-0.165,0.128
					c-0.05,0.063-0.099,0.276-0.079,0.362c-0.169,0.058-0.01,0.227-0.015,0.35c-0.002,0.05-0.041,0.105-0.045,0.161
					c-0.01,0.119,0.017,0.266,0.068,0.37c0.097,0.198,0.268,0.413,0.435,0.544c0.19,0.148,0.365,0.572,0.608,0.631
					c0.177,0.042,0.384-0.104,0.543-0.143c0.18-0.043,0.397,0.01,0.571-0.053c0.222-0.079,0.127-0.337,0.288-0.45
					c0.104-0.074,0.287-0.01,0.406-0.051c0.2-0.069,0.339-0.263,0.376-0.46c0.016-0.082,0.01-0.145,0.039-0.221
					c0.039-0.103,0.111-0.16,0.09-0.293c-0.01-0.062-0.052-0.12-0.064-0.187c-0.022-0.114,0.002-0.224,0-0.337
					c-0.003-0.2,0.017-0.379-0.078-0.55c-0.38-0.688-1.236-0.929-1.975-0.789c-0.18,0.034-0.287,0.126-0.442,0.207
					c-0.17,0.088-0.139,0.166-0.318,0.224c-0.081,0.026-0.216,0.124-0.215,0.224c0.001,0.115,0.005,0.051,0.012,0.169
					c-0.021,0.011-0.021-0.005-0.03-0.025"/>
				<path fill="#FFFFFF" d="M61.778-64.001c0.018,0.072,0.007,0.127-0.026,0.19c-0.053,0.101-0.112,0.063-0.165,0.128
					c-0.05,0.063-0.099,0.276-0.079,0.362c-0.169,0.058-0.009,0.227-0.015,0.35c-0.002,0.05-0.041,0.105-0.045,0.161
					c-0.01,0.119,0.017,0.266,0.068,0.37c0.097,0.198,0.268,0.413,0.435,0.544c0.19,0.148,0.365,0.572,0.608,0.631
					c0.177,0.042,0.384-0.104,0.543-0.143c0.18-0.043,0.397,0.01,0.571-0.053c0.222-0.079,0.127-0.337,0.288-0.45
					c0.104-0.074,0.287-0.01,0.406-0.051c0.2-0.069,0.339-0.263,0.376-0.46c0.016-0.082,0.01-0.145,0.039-0.221
					c0.039-0.103,0.111-0.16,0.09-0.293c-0.01-0.062-0.052-0.12-0.064-0.187c-0.022-0.114,0.002-0.224,0-0.337
					c-0.003-0.2,0.017-0.379-0.078-0.55c-0.38-0.688-1.236-0.929-1.975-0.789c-0.18,0.034-0.287,0.126-0.442,0.207
					c-0.17,0.088-0.139,0.166-0.318,0.224c-0.081,0.026-0.216,0.124-0.215,0.224c0.001,0.115,0.005,0.051,0.012,0.169
					c-0.021,0.011-0.021-0.005-0.03-0.025"/>
				<path fill="#FFFFFF" d="M54.118-64.001c0.018,0.072,0.007,0.127-0.026,0.19c-0.053,0.101-0.112,0.063-0.165,0.128
					c-0.05,0.063-0.099,0.276-0.079,0.362c-0.169,0.058-0.009,0.227-0.015,0.35c-0.002,0.05-0.041,0.105-0.045,0.161
					c-0.01,0.119,0.017,0.266,0.068,0.37c0.097,0.198,0.268,0.413,0.435,0.544c0.19,0.148,0.365,0.572,0.608,0.631
					c0.177,0.042,0.384-0.104,0.543-0.143c0.18-0.043,0.397,0.01,0.571-0.053c0.222-0.079,0.127-0.337,0.288-0.45
					c0.104-0.074,0.287-0.01,0.406-0.051c0.2-0.069,0.339-0.263,0.376-0.46c0.016-0.082,0.01-0.145,0.039-0.221
					c0.039-0.103,0.111-0.16,0.09-0.293c-0.01-0.062-0.052-0.12-0.064-0.187c-0.022-0.114,0.002-0.224,0-0.337
					c-0.003-0.2,0.017-0.379-0.078-0.55c-0.38-0.688-1.236-0.929-1.975-0.789c-0.18,0.034-0.287,0.126-0.442,0.207
					c-0.17,0.088-0.139,0.166-0.318,0.224c-0.081,0.026-0.216,0.124-0.215,0.224c0.001,0.115,0.005,0.051,0.012,0.169
					c-0.021,0.011-0.021-0.005-0.03-0.025"/>
				<path fill="#FFFFFF" d="M46.458-64.001c0.018,0.072,0.007,0.127-0.026,0.19c-0.053,0.101-0.112,0.063-0.165,0.128
					c-0.05,0.063-0.099,0.276-0.079,0.362c-0.169,0.058-0.009,0.227-0.015,0.35c-0.002,0.05-0.041,0.105-0.045,0.161
					c-0.01,0.119,0.017,0.266,0.068,0.37c0.097,0.198,0.268,0.413,0.435,0.544c0.19,0.148,0.365,0.572,0.608,0.631
					c0.177,0.042,0.384-0.104,0.543-0.143c0.18-0.043,0.397,0.01,0.571-0.053c0.222-0.079,0.127-0.337,0.288-0.45
					c0.104-0.074,0.287-0.01,0.406-0.051c0.2-0.069,0.339-0.263,0.376-0.46c0.016-0.082,0.01-0.145,0.039-0.221
					c0.039-0.103,0.111-0.16,0.09-0.293c-0.01-0.062-0.052-0.12-0.064-0.187c-0.022-0.114,0.002-0.224,0-0.337
					c-0.003-0.2,0.017-0.379-0.078-0.55c-0.38-0.688-1.236-0.929-1.975-0.789c-0.18,0.034-0.287,0.126-0.442,0.207
					c-0.17,0.088-0.139,0.166-0.318,0.224c-0.081,0.026-0.216,0.124-0.215,0.224c0.001,0.115,0.005,0.051,0.012,0.169
					c-0.021,0.011-0.021-0.005-0.03-0.025"/>
				<path fill="#FFFFFF" d="M38.797-64.001c0.018,0.072,0.007,0.127-0.026,0.19c-0.053,0.101-0.112,0.063-0.165,0.128
					c-0.05,0.063-0.099,0.276-0.079,0.362c-0.169,0.058-0.009,0.227-0.015,0.35c-0.002,0.05-0.041,0.105-0.045,0.161
					c-0.01,0.119,0.017,0.266,0.068,0.37c0.097,0.198,0.268,0.413,0.435,0.544c0.19,0.148,0.365,0.572,0.608,0.631
					c0.177,0.042,0.384-0.104,0.543-0.143c0.18-0.043,0.397,0.01,0.571-0.053c0.222-0.079,0.127-0.337,0.288-0.45
					c0.104-0.074,0.287-0.01,0.406-0.051c0.2-0.069,0.339-0.263,0.376-0.46c0.016-0.082,0.01-0.145,0.039-0.221
					c0.039-0.103,0.111-0.16,0.09-0.293c-0.01-0.062-0.052-0.12-0.064-0.187c-0.022-0.114,0.002-0.224,0-0.337
					c-0.003-0.2,0.017-0.379-0.078-0.55c-0.38-0.688-1.236-0.929-1.975-0.789c-0.18,0.034-0.287,0.126-0.442,0.207
					c-0.17,0.088-0.139,0.166-0.318,0.224c-0.081,0.026-0.216,0.124-0.215,0.224c0.001,0.115,0.005,0.051,0.012,0.169
					c-0.021,0.011-0.021-0.005-0.03-0.025"/>
				<path fill="#FFFFFF" d="M31.137-64.001c0.018,0.072,0.007,0.127-0.026,0.19c-0.053,0.101-0.112,0.063-0.165,0.128
					c-0.05,0.063-0.099,0.276-0.079,0.362c-0.169,0.058-0.009,0.227-0.015,0.35c-0.002,0.05-0.041,0.105-0.045,0.161
					c-0.01,0.119,0.017,0.266,0.068,0.37c0.097,0.198,0.268,0.413,0.435,0.544c0.19,0.148,0.365,0.572,0.608,0.631
					c0.177,0.042,0.384-0.104,0.543-0.143c0.18-0.043,0.397,0.01,0.571-0.053c0.222-0.079,0.127-0.337,0.288-0.45
					c0.104-0.074,0.287-0.01,0.406-0.051c0.2-0.069,0.339-0.263,0.376-0.46c0.016-0.082,0.01-0.145,0.039-0.221
					c0.039-0.103,0.111-0.16,0.09-0.293c-0.01-0.062-0.052-0.12-0.064-0.187c-0.022-0.114,0.002-0.224,0-0.337
					c-0.003-0.2,0.017-0.379-0.078-0.55c-0.38-0.688-1.236-0.929-1.975-0.789c-0.18,0.034-0.287,0.126-0.442,0.207
					c-0.17,0.088-0.139,0.166-0.318,0.224c-0.081,0.026-0.216,0.124-0.215,0.224c0.001,0.115,0.005,0.051,0.012,0.169
					c-0.021,0.011-0.021-0.005-0.03-0.025"/>
				<path fill="#FFFFFF" d="M23.477-64.001c0.018,0.072,0.007,0.127-0.026,0.19c-0.053,0.101-0.112,0.063-0.165,0.128
					c-0.05,0.063-0.099,0.276-0.079,0.362c-0.169,0.058-0.009,0.227-0.015,0.35c-0.002,0.05-0.041,0.105-0.045,0.161
					c-0.01,0.119,0.017,0.266,0.068,0.37c0.097,0.198,0.268,0.413,0.435,0.544c0.19,0.148,0.365,0.572,0.608,0.631
					c0.177,0.042,0.384-0.104,0.543-0.143c0.18-0.043,0.397,0.01,0.571-0.053c0.222-0.079,0.127-0.337,0.288-0.45
					c0.104-0.074,0.287-0.01,0.406-0.051c0.2-0.069,0.339-0.263,0.376-0.46c0.016-0.082,0.01-0.145,0.039-0.221
					c0.039-0.103,0.111-0.16,0.09-0.293c-0.01-0.062-0.052-0.12-0.064-0.187c-0.022-0.114,0.002-0.224,0-0.337
					c-0.003-0.2,0.017-0.379-0.078-0.55c-0.38-0.688-1.236-0.929-1.975-0.789c-0.18,0.034-0.287,0.126-0.442,0.207
					c-0.17,0.088-0.139,0.166-0.318,0.224c-0.081,0.026-0.216,0.124-0.215,0.224c0.001,0.115,0.005,0.051,0.012,0.169
					c-0.021,0.011-0.021-0.005-0.03-0.025"/>
				<path fill="#FFFFFF" d="M15.816-64.001c0.018,0.072,0.007,0.127-0.026,0.19c-0.053,0.101-0.112,0.063-0.165,0.128
					c-0.05,0.063-0.099,0.276-0.079,0.362c-0.169,0.058-0.009,0.227-0.015,0.35c-0.002,0.05-0.041,0.105-0.045,0.161
					c-0.01,0.119,0.017,0.266,0.068,0.37c0.097,0.198,0.268,0.413,0.435,0.544c0.19,0.148,0.365,0.572,0.608,0.631
					c0.177,0.042,0.384-0.104,0.543-0.143c0.18-0.043,0.397,0.01,0.571-0.053c0.222-0.079,0.127-0.337,0.288-0.45
					c0.104-0.074,0.287-0.01,0.406-0.051c0.2-0.069,0.339-0.263,0.376-0.46c0.016-0.082,0.01-0.145,0.039-0.221
					c0.039-0.103,0.111-0.16,0.09-0.293c-0.01-0.062-0.052-0.12-0.064-0.187c-0.022-0.114,0.002-0.224,0-0.337
					c-0.003-0.2,0.017-0.379-0.078-0.55c-0.38-0.688-1.236-0.929-1.975-0.789c-0.18,0.034-0.287,0.126-0.442,0.207
					c-0.17,0.088-0.139,0.166-0.318,0.224c-0.081,0.026-0.216,0.124-0.215,0.224c0.001,0.115,0.005,0.051,0.012,0.169
					c-0.021,0.011-0.021-0.005-0.03-0.025"/>
				<path fill="#FFFFFF" d="M8.156-64.001c0.018,0.072,0.007,0.127-0.026,0.19c-0.053,0.101-0.112,0.063-0.165,0.128
					c-0.05,0.063-0.099,0.276-0.079,0.362c-0.169,0.058-0.009,0.227-0.015,0.35c-0.002,0.05-0.041,0.105-0.045,0.161
					c-0.01,0.119,0.017,0.266,0.068,0.37c0.097,0.198,0.268,0.413,0.435,0.544c0.19,0.148,0.365,0.572,0.608,0.631
					c0.177,0.042,0.384-0.104,0.543-0.143c0.18-0.043,0.397,0.01,0.571-0.053c0.222-0.079,0.127-0.337,0.288-0.45
					c0.104-0.074,0.287-0.01,0.406-0.051c0.2-0.069,0.339-0.263,0.376-0.46c0.016-0.082,0.01-0.145,0.039-0.221
					c0.039-0.103,0.111-0.16,0.09-0.293c-0.01-0.062-0.052-0.12-0.064-0.187c-0.022-0.114,0.002-0.224,0-0.337
					c-0.003-0.2,0.017-0.379-0.078-0.55c-0.38-0.688-1.236-0.929-1.975-0.789c-0.18,0.034-0.287,0.126-0.442,0.207
					c-0.17,0.088-0.139,0.166-0.318,0.224c-0.081,0.026-0.216,0.124-0.215,0.224c0.001,0.115,0.005,0.051,0.012,0.169
					c-0.021,0.011-0.021-0.005-0.03-0.025"/>
				<path fill="#FFFFFF" d="M0.495-64.001c0.018,0.072,0.007,0.127-0.026,0.19c-0.053,0.101-0.112,0.063-0.165,0.128
					c-0.05,0.063-0.099,0.276-0.079,0.362c-0.169,0.058-0.01,0.227-0.015,0.35c-0.002,0.05-0.041,0.105-0.045,0.161
					c-0.01,0.119,0.017,0.266,0.068,0.37c0.097,0.198,0.268,0.413,0.435,0.544c0.19,0.148,0.365,0.572,0.608,0.631
					c0.177,0.042,0.384-0.104,0.543-0.143C2-61.45,2.217-61.397,2.391-61.46c0.222-0.079,0.127-0.337,0.288-0.45
					c0.104-0.074,0.287-0.01,0.406-0.051c0.2-0.069,0.339-0.263,0.376-0.46c0.016-0.082,0.01-0.145,0.039-0.221
					c0.039-0.103,0.111-0.16,0.09-0.293c-0.01-0.062-0.052-0.12-0.064-0.187c-0.022-0.114,0.002-0.224,0-0.337
					c-0.003-0.2,0.017-0.379-0.078-0.55c-0.38-0.688-1.236-0.929-1.975-0.789c-0.18,0.034-0.287,0.126-0.442,0.207
					c-0.17,0.088-0.139,0.166-0.318,0.224c-0.081,0.026-0.216,0.124-0.215,0.224c0.001,0.115,0.005,0.051,0.012,0.169
					c-0.021,0.011-0.021-0.005-0.03-0.025"/>
			</g>
			<g>
				<path fill="#FFFFFF" d="M69.439-56.348c0.018,0.072,0.007,0.127-0.026,0.19c-0.053,0.101-0.112,0.063-0.165,0.128
					c-0.05,0.063-0.099,0.276-0.079,0.362c-0.169,0.058-0.01,0.227-0.015,0.35c-0.002,0.05-0.041,0.105-0.045,0.161
					c-0.01,0.119,0.017,0.266,0.068,0.37c0.097,0.198,0.268,0.413,0.435,0.544c0.19,0.148,0.365,0.572,0.608,0.631
					c0.177,0.042,0.384-0.104,0.543-0.143c0.18-0.043,0.397,0.01,0.571-0.053c0.222-0.079,0.127-0.337,0.288-0.45
					c0.104-0.074,0.287-0.01,0.406-0.051c0.2-0.069,0.339-0.263,0.376-0.46c0.016-0.082,0.01-0.145,0.039-0.221
					c0.039-0.103,0.111-0.16,0.09-0.293c-0.01-0.062-0.052-0.12-0.064-0.187c-0.022-0.114,0.002-0.224,0-0.337
					c-0.003-0.2,0.017-0.379-0.078-0.55c-0.38-0.688-1.236-0.929-1.975-0.789c-0.18,0.034-0.287,0.126-0.442,0.207
					c-0.17,0.088-0.139,0.166-0.318,0.224c-0.081,0.026-0.216,0.124-0.215,0.224c0.001,0.115,0.005,0.051,0.012,0.169
					c-0.021,0.011-0.021-0.005-0.03-0.025"/>
				<path fill="#FFFFFF" d="M61.778-56.348c0.018,0.072,0.007,0.127-0.026,0.19c-0.053,0.101-0.112,0.063-0.165,0.128
					c-0.05,0.063-0.099,0.276-0.079,0.362c-0.169,0.058-0.009,0.227-0.015,0.35c-0.002,0.05-0.041,0.105-0.045,0.161
					c-0.01,0.119,0.017,0.266,0.068,0.37c0.097,0.198,0.268,0.413,0.435,0.544c0.19,0.148,0.365,0.572,0.608,0.631
					c0.177,0.042,0.384-0.104,0.543-0.143c0.18-0.043,0.397,0.01,0.571-0.053c0.222-0.079,0.127-0.337,0.288-0.45
					c0.104-0.074,0.287-0.01,0.406-0.051c0.2-0.069,0.339-0.263,0.376-0.46c0.016-0.082,0.01-0.145,0.039-0.221
					c0.039-0.103,0.111-0.16,0.09-0.293c-0.01-0.062-0.052-0.12-0.064-0.187c-0.022-0.114,0.002-0.224,0-0.337
					c-0.003-0.2,0.017-0.379-0.078-0.55c-0.38-0.688-1.236-0.929-1.975-0.789c-0.18,0.034-0.287,0.126-0.442,0.207
					c-0.17,0.088-0.139,0.166-0.318,0.224c-0.081,0.026-0.216,0.124-0.215,0.224c0.001,0.115,0.005,0.051,0.012,0.169
					c-0.021,0.011-0.021-0.005-0.03-0.025"/>
				<path fill="#FFFFFF" d="M54.118-56.348c0.018,0.072,0.007,0.127-0.026,0.19c-0.053,0.101-0.112,0.063-0.165,0.128
					c-0.05,0.063-0.099,0.276-0.079,0.362c-0.169,0.058-0.009,0.227-0.015,0.35c-0.002,0.05-0.041,0.105-0.045,0.161
					c-0.01,0.119,0.017,0.266,0.068,0.37c0.097,0.198,0.268,0.413,0.435,0.544c0.19,0.148,0.365,0.572,0.608,0.631
					c0.177,0.042,0.384-0.104,0.543-0.143c0.18-0.043,0.397,0.01,0.571-0.053c0.222-0.079,0.127-0.337,0.288-0.45
					c0.104-0.074,0.287-0.01,0.406-0.051c0.2-0.069,0.339-0.263,0.376-0.46c0.016-0.082,0.01-0.145,0.039-0.221
					c0.039-0.103,0.111-0.16,0.09-0.293c-0.01-0.062-0.052-0.12-0.064-0.187c-0.022-0.114,0.002-0.224,0-0.337
					c-0.003-0.2,0.017-0.379-0.078-0.55c-0.38-0.688-1.236-0.929-1.975-0.789c-0.18,0.034-0.287,0.126-0.442,0.207
					c-0.17,0.088-0.139,0.166-0.318,0.224c-0.081,0.026-0.216,0.124-0.215,0.224c0.001,0.115,0.005,0.051,0.012,0.169
					c-0.021,0.011-0.021-0.005-0.03-0.025"/>
				<path fill="#FFFFFF" d="M46.458-56.348c0.018,0.072,0.007,0.127-0.026,0.19c-0.053,0.101-0.112,0.063-0.165,0.128
					c-0.05,0.063-0.099,0.276-0.079,0.362c-0.169,0.058-0.009,0.227-0.015,0.35c-0.002,0.05-0.041,0.105-0.045,0.161
					c-0.01,0.119,0.017,0.266,0.068,0.37c0.097,0.198,0.268,0.413,0.435,0.544c0.19,0.148,0.365,0.572,0.608,0.631
					c0.177,0.042,0.384-0.104,0.543-0.143c0.18-0.043,0.397,0.01,0.571-0.053c0.222-0.079,0.127-0.337,0.288-0.45
					c0.104-0.074,0.287-0.01,0.406-0.051c0.2-0.069,0.339-0.263,0.376-0.46c0.016-0.082,0.01-0.145,0.039-0.221
					c0.039-0.103,0.111-0.16,0.09-0.293c-0.01-0.062-0.052-0.12-0.064-0.187c-0.022-0.114,0.002-0.224,0-0.337
					c-0.003-0.2,0.017-0.379-0.078-0.55c-0.38-0.688-1.236-0.929-1.975-0.789c-0.18,0.034-0.287,0.126-0.442,0.207
					c-0.17,0.088-0.139,0.166-0.318,0.224c-0.081,0.026-0.216,0.124-0.215,0.224c0.001,0.115,0.005,0.051,0.012,0.169
					c-0.021,0.011-0.021-0.005-0.03-0.025"/>
				<path fill="#FFFFFF" d="M38.797-56.348c0.018,0.072,0.007,0.127-0.026,0.19c-0.053,0.101-0.112,0.063-0.165,0.128
					c-0.05,0.063-0.099,0.276-0.079,0.362c-0.169,0.058-0.009,0.227-0.015,0.35c-0.002,0.05-0.041,0.105-0.045,0.161
					c-0.01,0.119,0.017,0.266,0.068,0.37c0.097,0.198,0.268,0.413,0.435,0.544c0.19,0.148,0.365,0.572,0.608,0.631
					c0.177,0.042,0.384-0.104,0.543-0.143c0.18-0.043,0.397,0.01,0.571-0.053c0.222-0.079,0.127-0.337,0.288-0.45
					c0.104-0.074,0.287-0.01,0.406-0.051c0.2-0.069,0.339-0.263,0.376-0.46c0.016-0.082,0.01-0.145,0.039-0.221
					c0.039-0.103,0.111-0.16,0.09-0.293c-0.01-0.062-0.052-0.12-0.064-0.187c-0.022-0.114,0.002-0.224,0-0.337
					c-0.003-0.2,0.017-0.379-0.078-0.55c-0.38-0.688-1.236-0.929-1.975-0.789c-0.18,0.034-0.287,0.126-0.442,0.207
					c-0.17,0.088-0.139,0.166-0.318,0.224c-0.081,0.026-0.216,0.124-0.215,0.224c0.001,0.115,0.005,0.051,0.012,0.169
					c-0.021,0.011-0.021-0.005-0.03-0.025"/>
				<path fill="#FFFFFF" d="M31.137-56.348c0.018,0.072,0.007,0.127-0.026,0.19c-0.053,0.101-0.112,0.063-0.165,0.128
					c-0.05,0.063-0.099,0.276-0.079,0.362c-0.169,0.058-0.009,0.227-0.015,0.35c-0.002,0.05-0.041,0.105-0.045,0.161
					c-0.01,0.119,0.017,0.266,0.068,0.37c0.097,0.198,0.268,0.413,0.435,0.544c0.19,0.148,0.365,0.572,0.608,0.631
					c0.177,0.042,0.384-0.104,0.543-0.143c0.18-0.043,0.397,0.01,0.571-0.053c0.222-0.079,0.127-0.337,0.288-0.45
					c0.104-0.074,0.287-0.01,0.406-0.051c0.2-0.069,0.339-0.263,0.376-0.46c0.016-0.082,0.01-0.145,0.039-0.221
					c0.039-0.103,0.111-0.16,0.09-0.293c-0.01-0.062-0.052-0.12-0.064-0.187c-0.022-0.114,0.002-0.224,0-0.337
					c-0.003-0.2,0.017-0.379-0.078-0.55c-0.38-0.688-1.236-0.929-1.975-0.789c-0.18,0.034-0.287,0.126-0.442,0.207
					c-0.17,0.088-0.139,0.166-0.318,0.224c-0.081,0.026-0.216,0.124-0.215,0.224c0.001,0.115,0.005,0.051,0.012,0.169
					c-0.021,0.011-0.021-0.005-0.03-0.025"/>
				<path fill="#FFFFFF" d="M23.477-56.348c0.018,0.072,0.007,0.127-0.026,0.19c-0.053,0.101-0.112,0.063-0.165,0.128
					c-0.05,0.063-0.099,0.276-0.079,0.362c-0.169,0.058-0.009,0.227-0.015,0.35c-0.002,0.05-0.041,0.105-0.045,0.161
					c-0.01,0.119,0.017,0.266,0.068,0.37c0.097,0.198,0.268,0.413,0.435,0.544c0.19,0.148,0.365,0.572,0.608,0.631
					c0.177,0.042,0.384-0.104,0.543-0.143c0.18-0.043,0.397,0.01,0.571-0.053c0.222-0.079,0.127-0.337,0.288-0.45
					c0.104-0.074,0.287-0.01,0.406-0.051c0.2-0.069,0.339-0.263,0.376-0.46c0.016-0.082,0.01-0.145,0.039-0.221
					c0.039-0.103,0.111-0.16,0.09-0.293c-0.01-0.062-0.052-0.12-0.064-0.187c-0.022-0.114,0.002-0.224,0-0.337
					c-0.003-0.2,0.017-0.379-0.078-0.55c-0.38-0.688-1.236-0.929-1.975-0.789c-0.18,0.034-0.287,0.126-0.442,0.207
					c-0.17,0.088-0.139,0.166-0.318,0.224c-0.081,0.026-0.216,0.124-0.215,0.224c0.001,0.115,0.005,0.051,0.012,0.169
					c-0.021,0.011-0.021-0.005-0.03-0.025"/>
				<path fill="#FFFFFF" d="M15.816-56.348c0.018,0.072,0.007,0.127-0.026,0.19c-0.053,0.101-0.112,0.063-0.165,0.128
					c-0.05,0.063-0.099,0.276-0.079,0.362c-0.169,0.058-0.009,0.227-0.015,0.35c-0.002,0.05-0.041,0.105-0.045,0.161
					c-0.01,0.119,0.017,0.266,0.068,0.37c0.097,0.198,0.268,0.413,0.435,0.544c0.19,0.148,0.365,0.572,0.608,0.631
					c0.177,0.042,0.384-0.104,0.543-0.143c0.18-0.043,0.397,0.01,0.571-0.053c0.222-0.079,0.127-0.337,0.288-0.45
					c0.104-0.074,0.287-0.01,0.406-0.051c0.2-0.069,0.339-0.263,0.376-0.46c0.016-0.082,0.01-0.145,0.039-0.221
					c0.039-0.103,0.111-0.16,0.09-0.293c-0.01-0.062-0.052-0.12-0.064-0.187c-0.022-0.114,0.002-0.224,0-0.337
					c-0.003-0.2,0.017-0.379-0.078-0.55c-0.38-0.688-1.236-0.929-1.975-0.789c-0.18,0.034-0.287,0.126-0.442,0.207
					c-0.17,0.088-0.139,0.166-0.318,0.224c-0.081,0.026-0.216,0.124-0.215,0.224c0.001,0.115,0.005,0.051,0.012,0.169
					c-0.021,0.011-0.021-0.005-0.03-0.025"/>
				<path fill="#FFFFFF" d="M8.156-56.348c0.018,0.072,0.007,0.127-0.026,0.19c-0.053,0.101-0.112,0.063-0.165,0.128
					c-0.05,0.063-0.099,0.276-0.079,0.362c-0.169,0.058-0.009,0.227-0.015,0.35c-0.002,0.05-0.041,0.105-0.045,0.161
					c-0.01,0.119,0.017,0.266,0.068,0.37c0.097,0.198,0.268,0.413,0.435,0.544c0.19,0.148,0.365,0.572,0.608,0.631
					c0.177,0.042,0.384-0.104,0.543-0.143c0.18-0.043,0.397,0.01,0.571-0.053c0.222-0.079,0.127-0.337,0.288-0.45
					c0.104-0.074,0.287-0.01,0.406-0.051c0.2-0.069,0.339-0.263,0.376-0.46c0.016-0.082,0.01-0.145,0.039-0.221
					c0.039-0.103,0.111-0.16,0.09-0.293c-0.01-0.062-0.052-0.12-0.064-0.187c-0.022-0.114,0.002-0.224,0-0.337
					c-0.003-0.2,0.017-0.379-0.078-0.55c-0.38-0.688-1.236-0.929-1.975-0.789c-0.18,0.034-0.287,0.126-0.442,0.207
					c-0.17,0.088-0.139,0.166-0.318,0.224c-0.081,0.026-0.216,0.124-0.215,0.224c0.001,0.115,0.005,0.051,0.012,0.169
					c-0.021,0.011-0.021-0.005-0.03-0.025"/>
				<path fill="#FFFFFF" d="M0.495-56.348c0.018,0.072,0.007,0.127-0.026,0.19c-0.053,0.101-0.112,0.063-0.165,0.128
					c-0.05,0.063-0.099,0.276-0.079,0.362c-0.169,0.058-0.01,0.227-0.015,0.35c-0.002,0.05-0.041,0.105-0.045,0.161
					c-0.01,0.119,0.017,0.266,0.068,0.37c0.097,0.198,0.268,0.413,0.435,0.544c0.19,0.148,0.365,0.572,0.608,0.631
					c0.177,0.042,0.384-0.104,0.543-0.143c0.18-0.043,0.397,0.01,0.571-0.053c0.222-0.079,0.127-0.337,0.288-0.45
					c0.104-0.074,0.287-0.01,0.406-0.051c0.2-0.069,0.339-0.263,0.376-0.46c0.016-0.082,0.01-0.145,0.039-0.221
					c0.039-0.103,0.111-0.16,0.09-0.293c-0.01-0.062-0.052-0.12-0.064-0.187c-0.022-0.114,0.002-0.224,0-0.337
					c-0.003-0.2,0.017-0.379-0.078-0.55c-0.38-0.688-1.236-0.929-1.975-0.789c-0.18,0.034-0.287,0.126-0.442,0.207
					c-0.17,0.088-0.139,0.166-0.318,0.224c-0.081,0.026-0.216,0.124-0.215,0.224C0.5-56.374,0.503-56.438,0.51-56.32
					c-0.021,0.011-0.021-0.005-0.03-0.025"/>
			</g>
			<g>
				<path fill="#FFFFFF" d="M69.439-48.695c0.018,0.072,0.007,0.127-0.026,0.19c-0.053,0.101-0.112,0.063-0.165,0.128
					c-0.05,0.063-0.099,0.276-0.079,0.362c-0.169,0.058-0.01,0.227-0.015,0.35c-0.002,0.05-0.041,0.105-0.045,0.161
					c-0.01,0.119,0.017,0.266,0.068,0.37c0.097,0.198,0.268,0.413,0.435,0.544c0.19,0.148,0.365,0.572,0.608,0.631
					c0.177,0.042,0.384-0.104,0.543-0.143c0.18-0.043,0.397,0.01,0.571-0.053c0.222-0.079,0.127-0.337,0.288-0.45
					c0.104-0.074,0.287-0.01,0.406-0.051c0.2-0.069,0.339-0.263,0.376-0.46c0.016-0.082,0.01-0.145,0.039-0.221
					c0.039-0.103,0.111-0.16,0.09-0.293c-0.01-0.062-0.052-0.12-0.064-0.187c-0.022-0.114,0.002-0.224,0-0.337
					c-0.003-0.2,0.017-0.379-0.078-0.55c-0.38-0.688-1.236-0.929-1.975-0.789c-0.18,0.034-0.287,0.126-0.442,0.207
					c-0.17,0.088-0.139,0.166-0.318,0.224c-0.081,0.026-0.216,0.124-0.215,0.224c0.001,0.115,0.005,0.051,0.012,0.169
					c-0.021,0.011-0.021-0.005-0.03-0.025"/>
				<path fill="#FFFFFF" d="M61.778-48.695c0.018,0.072,0.007,0.127-0.026,0.19c-0.053,0.101-0.112,0.063-0.165,0.128
					c-0.05,0.063-0.099,0.276-0.079,0.362c-0.169,0.058-0.009,0.227-0.015,0.35c-0.002,0.05-0.041,0.105-0.045,0.161
					c-0.01,0.119,0.017,0.266,0.068,0.37c0.097,0.198,0.268,0.413,0.435,0.544c0.19,0.148,0.365,0.572,0.608,0.631
					c0.177,0.042,0.384-0.104,0.543-0.143c0.18-0.043,0.397,0.01,0.571-0.053c0.222-0.079,0.127-0.337,0.288-0.45
					c0.104-0.074,0.287-0.01,0.406-0.051c0.2-0.069,0.339-0.263,0.376-0.46c0.016-0.082,0.01-0.145,0.039-0.221
					c0.039-0.103,0.111-0.16,0.09-0.293c-0.01-0.062-0.052-0.12-0.064-0.187c-0.022-0.114,0.002-0.224,0-0.337
					c-0.003-0.2,0.017-0.379-0.078-0.55c-0.38-0.688-1.236-0.929-1.975-0.789c-0.18,0.034-0.287,0.126-0.442,0.207
					c-0.17,0.088-0.139,0.166-0.318,0.224c-0.081,0.026-0.216,0.124-0.215,0.224c0.001,0.115,0.005,0.051,0.012,0.169
					c-0.021,0.011-0.021-0.005-0.03-0.025"/>
				<path fill="#FFFFFF" d="M54.118-48.695c0.018,0.072,0.007,0.127-0.026,0.19c-0.053,0.101-0.112,0.063-0.165,0.128
					c-0.05,0.063-0.099,0.276-0.079,0.362c-0.169,0.058-0.009,0.227-0.015,0.35c-0.002,0.05-0.041,0.105-0.045,0.161
					c-0.01,0.119,0.017,0.266,0.068,0.37c0.097,0.198,0.268,0.413,0.435,0.544c0.19,0.148,0.365,0.572,0.608,0.631
					c0.177,0.042,0.384-0.104,0.543-0.143c0.18-0.043,0.397,0.01,0.571-0.053c0.222-0.079,0.127-0.337,0.288-0.45
					c0.104-0.074,0.287-0.01,0.406-0.051c0.2-0.069,0.339-0.263,0.376-0.46c0.016-0.082,0.01-0.145,0.039-0.221
					c0.039-0.103,0.111-0.16,0.09-0.293c-0.01-0.062-0.052-0.12-0.064-0.187c-0.022-0.114,0.002-0.224,0-0.337
					c-0.003-0.2,0.017-0.379-0.078-0.55c-0.38-0.688-1.236-0.929-1.975-0.789c-0.18,0.034-0.287,0.126-0.442,0.207
					c-0.17,0.088-0.139,0.166-0.318,0.224c-0.081,0.026-0.216,0.124-0.215,0.224c0.001,0.115,0.005,0.051,0.012,0.169
					c-0.021,0.011-0.021-0.005-0.03-0.025"/>
				<path fill="#FFFFFF" d="M46.458-48.695c0.018,0.072,0.007,0.127-0.026,0.19c-0.053,0.101-0.112,0.063-0.165,0.128
					c-0.05,0.063-0.099,0.276-0.079,0.362c-0.169,0.058-0.009,0.227-0.015,0.35c-0.002,0.05-0.041,0.105-0.045,0.161
					c-0.01,0.119,0.017,0.266,0.068,0.37c0.097,0.198,0.268,0.413,0.435,0.544c0.19,0.148,0.365,0.572,0.608,0.631
					c0.177,0.042,0.384-0.104,0.543-0.143c0.18-0.043,0.397,0.01,0.571-0.053c0.222-0.079,0.127-0.337,0.288-0.45
					c0.104-0.074,0.287-0.01,0.406-0.051c0.2-0.069,0.339-0.263,0.376-0.46c0.016-0.082,0.01-0.145,0.039-0.221
					c0.039-0.103,0.111-0.16,0.09-0.293c-0.01-0.062-0.052-0.12-0.064-0.187c-0.022-0.114,0.002-0.224,0-0.337
					c-0.003-0.2,0.017-0.379-0.078-0.55c-0.38-0.688-1.236-0.929-1.975-0.789c-0.18,0.034-0.287,0.126-0.442,0.207
					c-0.17,0.088-0.139,0.166-0.318,0.224c-0.081,0.026-0.216,0.124-0.215,0.224c0.001,0.115,0.005,0.051,0.012,0.169
					c-0.021,0.011-0.021-0.005-0.03-0.025"/>
				<path fill="#FFFFFF" d="M38.797-48.695c0.018,0.072,0.007,0.127-0.026,0.19c-0.053,0.101-0.112,0.063-0.165,0.128
					c-0.05,0.063-0.099,0.276-0.079,0.362c-0.169,0.058-0.009,0.227-0.015,0.35c-0.002,0.05-0.041,0.105-0.045,0.161
					c-0.01,0.119,0.017,0.266,0.068,0.37c0.097,0.198,0.268,0.413,0.435,0.544c0.19,0.148,0.365,0.572,0.608,0.631
					c0.177,0.042,0.384-0.104,0.543-0.143c0.18-0.043,0.397,0.01,0.571-0.053c0.222-0.079,0.127-0.337,0.288-0.45
					c0.104-0.074,0.287-0.01,0.406-0.051c0.2-0.069,0.339-0.263,0.376-0.46c0.016-0.082,0.01-0.145,0.039-0.221
					c0.039-0.103,0.111-0.16,0.09-0.293c-0.01-0.062-0.052-0.12-0.064-0.187c-0.022-0.114,0.002-0.224,0-0.337
					c-0.003-0.2,0.017-0.379-0.078-0.55c-0.38-0.688-1.236-0.929-1.975-0.789c-0.18,0.034-0.287,0.126-0.442,0.207
					c-0.17,0.088-0.139,0.166-0.318,0.224c-0.081,0.026-0.216,0.124-0.215,0.224c0.001,0.115,0.005,0.051,0.012,0.169
					c-0.021,0.011-0.021-0.005-0.03-0.025"/>
				<path fill="#FFFFFF" d="M31.137-48.695c0.018,0.072,0.007,0.127-0.026,0.19c-0.053,0.101-0.112,0.063-0.165,0.128
					c-0.05,0.063-0.099,0.276-0.079,0.362c-0.169,0.058-0.009,0.227-0.015,0.35c-0.002,0.05-0.041,0.105-0.045,0.161
					c-0.01,0.119,0.017,0.266,0.068,0.37c0.097,0.198,0.268,0.413,0.435,0.544c0.19,0.148,0.365,0.572,0.608,0.631
					c0.177,0.042,0.384-0.104,0.543-0.143c0.18-0.043,0.397,0.01,0.571-0.053c0.222-0.079,0.127-0.337,0.288-0.45
					c0.104-0.074,0.287-0.01,0.406-0.051c0.2-0.069,0.339-0.263,0.376-0.46c0.016-0.082,0.01-0.145,0.039-0.221
					c0.039-0.103,0.111-0.16,0.09-0.293c-0.01-0.062-0.052-0.12-0.064-0.187c-0.022-0.114,0.002-0.224,0-0.337
					c-0.003-0.2,0.017-0.379-0.078-0.55c-0.38-0.688-1.236-0.929-1.975-0.789c-0.18,0.034-0.287,0.126-0.442,0.207
					c-0.17,0.088-0.139,0.166-0.318,0.224c-0.081,0.026-0.216,0.124-0.215,0.224c0.001,0.115,0.005,0.051,0.012,0.169
					c-0.021,0.011-0.021-0.005-0.03-0.025"/>
				<path fill="#FFFFFF" d="M23.477-48.695c0.018,0.072,0.007,0.127-0.026,0.19c-0.053,0.101-0.112,0.063-0.165,0.128
					c-0.05,0.063-0.099,0.276-0.079,0.362c-0.169,0.058-0.009,0.227-0.015,0.35c-0.002,0.05-0.041,0.105-0.045,0.161
					c-0.01,0.119,0.017,0.266,0.068,0.37c0.097,0.198,0.268,0.413,0.435,0.544c0.19,0.148,0.365,0.572,0.608,0.631
					c0.177,0.042,0.384-0.104,0.543-0.143c0.18-0.043,0.397,0.01,0.571-0.053c0.222-0.079,0.127-0.337,0.288-0.45
					c0.104-0.074,0.287-0.01,0.406-0.051c0.2-0.069,0.339-0.263,0.376-0.46c0.016-0.082,0.01-0.145,0.039-0.221
					c0.039-0.103,0.111-0.16,0.09-0.293c-0.01-0.062-0.052-0.12-0.064-0.187c-0.022-0.114,0.002-0.224,0-0.337
					c-0.003-0.2,0.017-0.379-0.078-0.55c-0.38-0.688-1.236-0.929-1.975-0.789c-0.18,0.034-0.287,0.126-0.442,0.207
					c-0.17,0.088-0.139,0.166-0.318,0.224c-0.081,0.026-0.216,0.124-0.215,0.224c0.001,0.115,0.005,0.051,0.012,0.169
					c-0.021,0.011-0.021-0.005-0.03-0.025"/>
				<path fill="#FFFFFF" d="M15.816-48.695c0.018,0.072,0.007,0.127-0.026,0.19c-0.053,0.101-0.112,0.063-0.165,0.128
					c-0.05,0.063-0.099,0.276-0.079,0.362c-0.169,0.058-0.009,0.227-0.015,0.35c-0.002,0.05-0.041,0.105-0.045,0.161
					c-0.01,0.119,0.017,0.266,0.068,0.37c0.097,0.198,0.268,0.413,0.435,0.544c0.19,0.148,0.365,0.572,0.608,0.631
					c0.177,0.042,0.384-0.104,0.543-0.143c0.18-0.043,0.397,0.01,0.571-0.053c0.222-0.079,0.127-0.337,0.288-0.45
					c0.104-0.074,0.287-0.01,0.406-0.051c0.2-0.069,0.339-0.263,0.376-0.46c0.016-0.082,0.01-0.145,0.039-0.221
					c0.039-0.103,0.111-0.16,0.09-0.293c-0.01-0.062-0.052-0.12-0.064-0.187c-0.022-0.114,0.002-0.224,0-0.337
					c-0.003-0.2,0.017-0.379-0.078-0.55c-0.38-0.688-1.236-0.929-1.975-0.789c-0.18,0.034-0.287,0.126-0.442,0.207
					c-0.17,0.088-0.139,0.166-0.318,0.224c-0.081,0.026-0.216,0.124-0.215,0.224c0.001,0.115,0.005,0.051,0.012,0.169
					c-0.021,0.011-0.021-0.005-0.03-0.025"/>
				<path fill="#FFFFFF" d="M8.156-48.695c0.018,0.072,0.007,0.127-0.026,0.19c-0.053,0.101-0.112,0.063-0.165,0.128
					c-0.05,0.063-0.099,0.276-0.079,0.362c-0.169,0.058-0.009,0.227-0.015,0.35c-0.002,0.05-0.041,0.105-0.045,0.161
					c-0.01,0.119,0.017,0.266,0.068,0.37c0.097,0.198,0.268,0.413,0.435,0.544c0.19,0.148,0.365,0.572,0.608,0.631
					c0.177,0.042,0.384-0.104,0.543-0.143c0.18-0.043,0.397,0.01,0.571-0.053c0.222-0.079,0.127-0.337,0.288-0.45
					c0.104-0.074,0.287-0.01,0.406-0.051c0.2-0.069,0.339-0.263,0.376-0.46c0.016-0.082,0.01-0.145,0.039-0.221
					c0.039-0.103,0.111-0.16,0.09-0.293c-0.01-0.062-0.052-0.12-0.064-0.187c-0.022-0.114,0.002-0.224,0-0.337
					c-0.003-0.2,0.017-0.379-0.078-0.55c-0.38-0.688-1.236-0.929-1.975-0.789c-0.18,0.034-0.287,0.126-0.442,0.207
					c-0.17,0.088-0.139,0.166-0.318,0.224c-0.081,0.026-0.216,0.124-0.215,0.224c0.001,0.115,0.005,0.051,0.012,0.169
					c-0.021,0.011-0.021-0.005-0.03-0.025"/>
				<path fill="#FFFFFF" d="M0.495-48.695c0.018,0.072,0.007,0.127-0.026,0.19c-0.053,0.101-0.112,0.063-0.165,0.128
					c-0.05,0.063-0.099,0.276-0.079,0.362c-0.169,0.058-0.01,0.227-0.015,0.35c-0.002,0.05-0.041,0.105-0.045,0.161
					c-0.01,0.119,0.017,0.266,0.068,0.37c0.097,0.198,0.268,0.413,0.435,0.544c0.19,0.148,0.365,0.572,0.608,0.631
					c0.177,0.042,0.384-0.104,0.543-0.143c0.18-0.043,0.397,0.01,0.571-0.053c0.222-0.079,0.127-0.337,0.288-0.45
					c0.104-0.074,0.287-0.01,0.406-0.051c0.2-0.069,0.339-0.263,0.376-0.46c0.016-0.082,0.01-0.145,0.039-0.221
					c0.039-0.103,0.111-0.16,0.09-0.293c-0.01-0.062-0.052-0.12-0.064-0.187c-0.022-0.114,0.002-0.224,0-0.337
					c-0.003-0.2,0.017-0.379-0.078-0.55c-0.38-0.688-1.236-0.929-1.975-0.789c-0.18,0.034-0.287,0.126-0.442,0.207
					c-0.17,0.088-0.139,0.166-0.318,0.224c-0.081,0.026-0.216,0.124-0.215,0.224c0.001,0.115,0.005,0.051,0.012,0.169
					c-0.021,0.011-0.021-0.005-0.03-0.025"/>
			</g>
			<g>
				<path fill="#FFFFFF" d="M69.439-41.042c0.018,0.072,0.007,0.127-0.026,0.19c-0.053,0.101-0.112,0.063-0.165,0.128
					c-0.05,0.063-0.099,0.276-0.079,0.362c-0.169,0.058-0.01,0.227-0.015,0.35c-0.002,0.05-0.041,0.105-0.045,0.161
					c-0.01,0.119,0.017,0.266,0.068,0.37c0.097,0.198,0.268,0.413,0.435,0.544c0.19,0.148,0.365,0.572,0.608,0.631
					c0.177,0.042,0.384-0.104,0.543-0.143c0.18-0.043,0.397,0.01,0.571-0.053c0.222-0.079,0.127-0.337,0.288-0.45
					c0.104-0.074,0.287-0.01,0.406-0.051c0.2-0.069,0.339-0.263,0.376-0.46c0.016-0.082,0.01-0.145,0.039-0.221
					c0.039-0.103,0.111-0.16,0.09-0.293c-0.01-0.062-0.052-0.12-0.064-0.187c-0.022-0.114,0.002-0.224,0-0.337
					c-0.003-0.2,0.017-0.379-0.078-0.55c-0.38-0.688-1.236-0.929-1.975-0.789c-0.18,0.034-0.287,0.126-0.442,0.207
					c-0.17,0.088-0.139,0.166-0.318,0.224c-0.081,0.026-0.216,0.124-0.215,0.224c0.001,0.115,0.005,0.051,0.012,0.169
					c-0.021,0.011-0.021-0.005-0.03-0.025"/>
				<path fill="#FFFFFF" d="M61.778-41.042c0.018,0.072,0.007,0.127-0.026,0.19c-0.053,0.101-0.112,0.063-0.165,0.128
					c-0.05,0.063-0.099,0.276-0.079,0.362c-0.169,0.058-0.009,0.227-0.015,0.35c-0.002,0.05-0.041,0.105-0.045,0.161
					c-0.01,0.119,0.017,0.266,0.068,0.37c0.097,0.198,0.268,0.413,0.435,0.544c0.19,0.148,0.365,0.572,0.608,0.631
					c0.177,0.042,0.384-0.104,0.543-0.143c0.18-0.043,0.397,0.01,0.571-0.053c0.222-0.079,0.127-0.337,0.288-0.45
					c0.104-0.074,0.287-0.01,0.406-0.051c0.2-0.069,0.339-0.263,0.376-0.46c0.016-0.082,0.01-0.145,0.039-0.221
					c0.039-0.103,0.111-0.16,0.09-0.293c-0.01-0.062-0.052-0.12-0.064-0.187c-0.022-0.114,0.002-0.224,0-0.337
					c-0.003-0.2,0.017-0.379-0.078-0.55c-0.38-0.688-1.236-0.929-1.975-0.789c-0.18,0.034-0.287,0.126-0.442,0.207
					c-0.17,0.088-0.139,0.166-0.318,0.224c-0.081,0.026-0.216,0.124-0.215,0.224c0.001,0.115,0.005,0.051,0.012,0.169
					c-0.021,0.011-0.021-0.005-0.03-0.025"/>
				<path fill="#FFFFFF" d="M54.118-41.042c0.018,0.072,0.007,0.127-0.026,0.19c-0.053,0.101-0.112,0.063-0.165,0.128
					c-0.05,0.063-0.099,0.276-0.079,0.362c-0.169,0.058-0.009,0.227-0.015,0.35c-0.002,0.05-0.041,0.105-0.045,0.161
					c-0.01,0.119,0.017,0.266,0.068,0.37c0.097,0.198,0.268,0.413,0.435,0.544c0.19,0.148,0.365,0.572,0.608,0.631
					c0.177,0.042,0.384-0.104,0.543-0.143c0.18-0.043,0.397,0.01,0.571-0.053c0.222-0.079,0.127-0.337,0.288-0.45
					c0.104-0.074,0.287-0.01,0.406-0.051c0.2-0.069,0.339-0.263,0.376-0.46c0.016-0.082,0.01-0.145,0.039-0.221
					c0.039-0.103,0.111-0.16,0.09-0.293c-0.01-0.062-0.052-0.12-0.064-0.187c-0.022-0.114,0.002-0.224,0-0.337
					c-0.003-0.2,0.017-0.379-0.078-0.55c-0.38-0.688-1.236-0.929-1.975-0.789c-0.18,0.034-0.287,0.126-0.442,0.207
					c-0.17,0.088-0.139,0.166-0.318,0.224c-0.081,0.026-0.216,0.124-0.215,0.224c0.001,0.115,0.005,0.051,0.012,0.169
					c-0.021,0.011-0.021-0.005-0.03-0.025"/>
				<path fill="#FFFFFF" d="M46.458-41.042c0.018,0.072,0.007,0.127-0.026,0.19c-0.053,0.101-0.112,0.063-0.165,0.128
					c-0.05,0.063-0.099,0.276-0.079,0.362c-0.169,0.058-0.009,0.227-0.015,0.35c-0.002,0.05-0.041,0.105-0.045,0.161
					c-0.01,0.119,0.017,0.266,0.068,0.37c0.097,0.198,0.268,0.413,0.435,0.544c0.19,0.148,0.365,0.572,0.608,0.631
					c0.177,0.042,0.384-0.104,0.543-0.143c0.18-0.043,0.397,0.01,0.571-0.053c0.222-0.079,0.127-0.337,0.288-0.45
					c0.104-0.074,0.287-0.01,0.406-0.051c0.2-0.069,0.339-0.263,0.376-0.46c0.016-0.082,0.01-0.145,0.039-0.221
					c0.039-0.103,0.111-0.16,0.09-0.293c-0.01-0.062-0.052-0.12-0.064-0.187c-0.022-0.114,0.002-0.224,0-0.337
					c-0.003-0.2,0.017-0.379-0.078-0.55c-0.38-0.688-1.236-0.929-1.975-0.789c-0.18,0.034-0.287,0.126-0.442,0.207
					c-0.17,0.088-0.139,0.166-0.318,0.224c-0.081,0.026-0.216,0.124-0.215,0.224c0.001,0.115,0.005,0.051,0.012,0.169
					c-0.021,0.011-0.021-0.005-0.03-0.025"/>
				<path fill="#FFFFFF" d="M38.797-41.042c0.018,0.072,0.007,0.127-0.026,0.19c-0.053,0.101-0.112,0.063-0.165,0.128
					c-0.05,0.063-0.099,0.276-0.079,0.362c-0.169,0.058-0.009,0.227-0.015,0.35c-0.002,0.05-0.041,0.105-0.045,0.161
					c-0.01,0.119,0.017,0.266,0.068,0.37c0.097,0.198,0.268,0.413,0.435,0.544c0.19,0.148,0.365,0.572,0.608,0.631
					c0.177,0.042,0.384-0.104,0.543-0.143c0.18-0.043,0.397,0.01,0.571-0.053c0.222-0.079,0.127-0.337,0.288-0.45
					c0.104-0.074,0.287-0.01,0.406-0.051c0.2-0.069,0.339-0.263,0.376-0.46c0.016-0.082,0.01-0.145,0.039-0.221
					c0.039-0.103,0.111-0.16,0.09-0.293c-0.01-0.062-0.052-0.12-0.064-0.187c-0.022-0.114,0.002-0.224,0-0.337
					c-0.003-0.2,0.017-0.379-0.078-0.55c-0.38-0.688-1.236-0.929-1.975-0.789c-0.18,0.034-0.287,0.126-0.442,0.207
					c-0.17,0.088-0.139,0.166-0.318,0.224c-0.081,0.026-0.216,0.124-0.215,0.224c0.001,0.115,0.005,0.051,0.012,0.169
					c-0.021,0.011-0.021-0.005-0.03-0.025"/>
				<path fill="#FFFFFF" d="M31.137-41.042c0.018,0.072,0.007,0.127-0.026,0.19c-0.053,0.101-0.112,0.063-0.165,0.128
					c-0.05,0.063-0.099,0.276-0.079,0.362c-0.169,0.058-0.009,0.227-0.015,0.35c-0.002,0.05-0.041,0.105-0.045,0.161
					c-0.01,0.119,0.017,0.266,0.068,0.37c0.097,0.198,0.268,0.413,0.435,0.544c0.19,0.148,0.365,0.572,0.608,0.631
					c0.177,0.042,0.384-0.104,0.543-0.143c0.18-0.043,0.397,0.01,0.571-0.053c0.222-0.079,0.127-0.337,0.288-0.45
					c0.104-0.074,0.287-0.01,0.406-0.051c0.2-0.069,0.339-0.263,0.376-0.46c0.016-0.082,0.01-0.145,0.039-0.221
					c0.039-0.103,0.111-0.16,0.09-0.293c-0.01-0.062-0.052-0.12-0.064-0.187c-0.022-0.114,0.002-0.224,0-0.337
					c-0.003-0.2,0.017-0.379-0.078-0.55c-0.38-0.688-1.236-0.929-1.975-0.789c-0.18,0.034-0.287,0.126-0.442,0.207
					c-0.17,0.088-0.139,0.166-0.318,0.224c-0.081,0.026-0.216,0.124-0.215,0.224c0.001,0.115,0.005,0.051,0.012,0.169
					c-0.021,0.011-0.021-0.005-0.03-0.025"/>
				<path fill="#FFFFFF" d="M23.477-41.042c0.018,0.072,0.007,0.127-0.026,0.19c-0.053,0.101-0.112,0.063-0.165,0.128
					c-0.05,0.063-0.099,0.276-0.079,0.362c-0.169,0.058-0.009,0.227-0.015,0.35c-0.002,0.05-0.041,0.105-0.045,0.161
					c-0.01,0.119,0.017,0.266,0.068,0.37c0.097,0.198,0.268,0.413,0.435,0.544c0.19,0.148,0.365,0.572,0.608,0.631
					c0.177,0.042,0.384-0.104,0.543-0.143c0.18-0.043,0.397,0.01,0.571-0.053c0.222-0.079,0.127-0.337,0.288-0.45
					c0.104-0.074,0.287-0.01,0.406-0.051c0.2-0.069,0.339-0.263,0.376-0.46c0.016-0.082,0.01-0.145,0.039-0.221
					c0.039-0.103,0.111-0.16,0.09-0.293c-0.01-0.062-0.052-0.12-0.064-0.187c-0.022-0.114,0.002-0.224,0-0.337
					c-0.003-0.2,0.017-0.379-0.078-0.55c-0.38-0.688-1.236-0.929-1.975-0.789c-0.18,0.034-0.287,0.126-0.442,0.207
					c-0.17,0.088-0.139,0.166-0.318,0.224c-0.081,0.026-0.216,0.124-0.215,0.224c0.001,0.115,0.005,0.051,0.012,0.169
					c-0.021,0.011-0.021-0.005-0.03-0.025"/>
				<path fill="#FFFFFF" d="M15.816-41.042c0.018,0.072,0.007,0.127-0.026,0.19c-0.053,0.101-0.112,0.063-0.165,0.128
					c-0.05,0.063-0.099,0.276-0.079,0.362c-0.169,0.058-0.009,0.227-0.015,0.35c-0.002,0.05-0.041,0.105-0.045,0.161
					c-0.01,0.119,0.017,0.266,0.068,0.37c0.097,0.198,0.268,0.413,0.435,0.544c0.19,0.148,0.365,0.572,0.608,0.631
					c0.177,0.042,0.384-0.104,0.543-0.143c0.18-0.043,0.397,0.01,0.571-0.053c0.222-0.079,0.127-0.337,0.288-0.45
					c0.104-0.074,0.287-0.01,0.406-0.051c0.2-0.069,0.339-0.263,0.376-0.46c0.016-0.082,0.01-0.145,0.039-0.221
					c0.039-0.103,0.111-0.16,0.09-0.293c-0.01-0.062-0.052-0.12-0.064-0.187c-0.022-0.114,0.002-0.224,0-0.337
					c-0.003-0.2,0.017-0.379-0.078-0.55c-0.38-0.688-1.236-0.929-1.975-0.789c-0.18,0.034-0.287,0.126-0.442,0.207
					c-0.17,0.088-0.139,0.166-0.318,0.224c-0.081,0.026-0.216,0.124-0.215,0.224c0.001,0.115,0.005,0.051,0.012,0.169
					c-0.021,0.011-0.021-0.005-0.03-0.025"/>
				<path fill="#FFFFFF" d="M8.156-41.042c0.018,0.072,0.007,0.127-0.026,0.19c-0.053,0.101-0.112,0.063-0.165,0.128
					c-0.05,0.063-0.099,0.276-0.079,0.362c-0.169,0.058-0.009,0.227-0.015,0.35c-0.002,0.05-0.041,0.105-0.045,0.161
					c-0.01,0.119,0.017,0.266,0.068,0.37c0.097,0.198,0.268,0.413,0.435,0.544c0.19,0.148,0.365,0.572,0.608,0.631
					c0.177,0.042,0.384-0.104,0.543-0.143c0.18-0.043,0.397,0.01,0.571-0.053c0.222-0.079,0.127-0.337,0.288-0.45
					c0.104-0.074,0.287-0.01,0.406-0.051c0.2-0.069,0.339-0.263,0.376-0.46c0.016-0.082,0.01-0.145,0.039-0.221
					c0.039-0.103,0.111-0.16,0.09-0.293c-0.01-0.062-0.052-0.12-0.064-0.187c-0.022-0.114,0.002-0.224,0-0.337
					c-0.003-0.2,0.017-0.379-0.078-0.55c-0.38-0.688-1.236-0.929-1.975-0.789c-0.18,0.034-0.287,0.126-0.442,0.207
					c-0.17,0.088-0.139,0.166-0.318,0.224c-0.081,0.026-0.216,0.124-0.215,0.224c0.001,0.115,0.005,0.051,0.012,0.169
					C8.15-41.004,8.149-41.02,8.14-41.04"/>
				<path fill="#FFFFFF" d="M0.495-41.042c0.018,0.072,0.007,0.127-0.026,0.19c-0.053,0.101-0.112,0.063-0.165,0.128
					c-0.05,0.063-0.099,0.276-0.079,0.362c-0.169,0.058-0.01,0.227-0.015,0.35c-0.002,0.05-0.041,0.105-0.045,0.161
					c-0.01,0.119,0.017,0.266,0.068,0.37c0.097,0.198,0.268,0.413,0.435,0.544c0.19,0.148,0.365,0.572,0.608,0.631
					c0.177,0.042,0.384-0.104,0.543-0.143c0.18-0.043,0.397,0.01,0.571-0.053c0.222-0.079,0.127-0.337,0.288-0.45
					c0.104-0.074,0.287-0.01,0.406-0.051c0.2-0.069,0.339-0.263,0.376-0.46c0.016-0.082,0.01-0.145,0.039-0.221
					c0.039-0.103,0.111-0.16,0.09-0.293c-0.01-0.062-0.052-0.12-0.064-0.187c-0.022-0.114,0.002-0.224,0-0.337
					c-0.003-0.2,0.017-0.379-0.078-0.55c-0.38-0.688-1.236-0.929-1.975-0.789c-0.18,0.034-0.287,0.126-0.442,0.207
					c-0.17,0.088-0.139,0.166-0.318,0.224c-0.081,0.026-0.216,0.124-0.215,0.224c0.001,0.115,0.005,0.051,0.012,0.169
					c-0.021,0.011-0.021-0.005-0.03-0.025"/>
			</g>
			<g>
				<path fill="#FFFFFF" d="M69.439-33.39c0.018,0.072,0.007,0.127-0.026,0.19c-0.053,0.101-0.112,0.063-0.165,0.128
					c-0.05,0.063-0.099,0.276-0.079,0.362c-0.169,0.058-0.01,0.227-0.015,0.35c-0.002,0.05-0.041,0.105-0.045,0.161
					c-0.01,0.119,0.017,0.266,0.068,0.37c0.097,0.198,0.268,0.413,0.435,0.544c0.19,0.148,0.365,0.572,0.608,0.631
					c0.177,0.042,0.384-0.104,0.543-0.143c0.18-0.043,0.397,0.01,0.571-0.053c0.222-0.079,0.127-0.337,0.288-0.45
					c0.104-0.074,0.287-0.01,0.406-0.051c0.2-0.069,0.339-0.263,0.376-0.46c0.016-0.082,0.01-0.145,0.039-0.221
					c0.039-0.103,0.111-0.16,0.09-0.293c-0.01-0.062-0.052-0.12-0.064-0.187c-0.022-0.114,0.002-0.224,0-0.337
					c-0.003-0.2,0.017-0.379-0.078-0.55c-0.38-0.688-1.236-0.929-1.975-0.789c-0.18,0.034-0.287,0.126-0.442,0.207
					c-0.17,0.088-0.139,0.166-0.318,0.224c-0.081,0.026-0.216,0.124-0.215,0.224c0.001,0.115,0.005,0.051,0.012,0.169
					c-0.021,0.011-0.021-0.005-0.03-0.025"/>
				<path fill="#FFFFFF" d="M61.778-33.39c0.018,0.072,0.007,0.127-0.026,0.19c-0.053,0.101-0.112,0.063-0.165,0.128
					c-0.05,0.063-0.099,0.276-0.079,0.362c-0.169,0.058-0.009,0.227-0.015,0.35c-0.002,0.05-0.041,0.105-0.045,0.161
					c-0.01,0.119,0.017,0.266,0.068,0.37c0.097,0.198,0.268,0.413,0.435,0.544c0.19,0.148,0.365,0.572,0.608,0.631
					c0.177,0.042,0.384-0.104,0.543-0.143c0.18-0.043,0.397,0.01,0.571-0.053c0.222-0.079,0.127-0.337,0.288-0.45
					c0.104-0.074,0.287-0.01,0.406-0.051c0.2-0.069,0.339-0.263,0.376-0.46c0.016-0.082,0.01-0.145,0.039-0.221
					c0.039-0.103,0.111-0.16,0.09-0.293c-0.01-0.062-0.052-0.12-0.064-0.187c-0.022-0.114,0.002-0.224,0-0.337
					c-0.003-0.2,0.017-0.379-0.078-0.55c-0.38-0.688-1.236-0.929-1.975-0.789c-0.18,0.034-0.287,0.126-0.442,0.207
					c-0.17,0.088-0.139,0.166-0.318,0.224c-0.081,0.026-0.216,0.124-0.215,0.224c0.001,0.115,0.005,0.051,0.012,0.169
					c-0.021,0.011-0.021-0.005-0.03-0.025"/>
				<path fill="#FFFFFF" d="M54.118-33.39c0.018,0.072,0.007,0.127-0.026,0.19c-0.053,0.101-0.112,0.063-0.165,0.128
					c-0.05,0.063-0.099,0.276-0.079,0.362c-0.169,0.058-0.009,0.227-0.015,0.35c-0.002,0.05-0.041,0.105-0.045,0.161
					c-0.01,0.119,0.017,0.266,0.068,0.37c0.097,0.198,0.268,0.413,0.435,0.544c0.19,0.148,0.365,0.572,0.608,0.631
					c0.177,0.042,0.384-0.104,0.543-0.143c0.18-0.043,0.397,0.01,0.571-0.053c0.222-0.079,0.127-0.337,0.288-0.45
					c0.104-0.074,0.287-0.01,0.406-0.051c0.2-0.069,0.339-0.263,0.376-0.46c0.016-0.082,0.01-0.145,0.039-0.221
					c0.039-0.103,0.111-0.16,0.09-0.293c-0.01-0.062-0.052-0.12-0.064-0.187c-0.022-0.114,0.002-0.224,0-0.337
					c-0.003-0.2,0.017-0.379-0.078-0.55c-0.38-0.688-1.236-0.929-1.975-0.789c-0.18,0.034-0.287,0.126-0.442,0.207
					c-0.17,0.088-0.139,0.166-0.318,0.224c-0.081,0.026-0.216,0.124-0.215,0.224c0.001,0.115,0.005,0.051,0.012,0.169
					c-0.021,0.011-0.021-0.005-0.03-0.025"/>
				<path fill="#FFFFFF" d="M46.458-33.39c0.018,0.072,0.007,0.127-0.026,0.19c-0.053,0.101-0.112,0.063-0.165,0.128
					c-0.05,0.063-0.099,0.276-0.079,0.362c-0.169,0.058-0.009,0.227-0.015,0.35c-0.002,0.05-0.041,0.105-0.045,0.161
					c-0.01,0.119,0.017,0.266,0.068,0.37c0.097,0.198,0.268,0.413,0.435,0.544c0.19,0.148,0.365,0.572,0.608,0.631
					c0.177,0.042,0.384-0.104,0.543-0.143c0.18-0.043,0.397,0.01,0.571-0.053c0.222-0.079,0.127-0.337,0.288-0.45
					c0.104-0.074,0.287-0.01,0.406-0.051c0.2-0.069,0.339-0.263,0.376-0.46c0.016-0.082,0.01-0.145,0.039-0.221
					c0.039-0.103,0.111-0.16,0.09-0.293c-0.01-0.062-0.052-0.12-0.064-0.187c-0.022-0.114,0.002-0.224,0-0.337
					c-0.003-0.2,0.017-0.379-0.078-0.55c-0.38-0.688-1.236-0.929-1.975-0.789c-0.18,0.034-0.287,0.126-0.442,0.207
					c-0.17,0.088-0.139,0.166-0.318,0.224c-0.081,0.026-0.216,0.124-0.215,0.224c0.001,0.115,0.005,0.051,0.012,0.169
					c-0.021,0.011-0.021-0.005-0.03-0.025"/>
				<path fill="#FFFFFF" d="M38.797-33.39c0.018,0.072,0.007,0.127-0.026,0.19c-0.053,0.101-0.112,0.063-0.165,0.128
					c-0.05,0.063-0.099,0.276-0.079,0.362c-0.169,0.058-0.009,0.227-0.015,0.35c-0.002,0.05-0.041,0.105-0.045,0.161
					c-0.01,0.119,0.017,0.266,0.068,0.37c0.097,0.198,0.268,0.413,0.435,0.544c0.19,0.148,0.365,0.572,0.608,0.631
					c0.177,0.042,0.384-0.104,0.543-0.143c0.18-0.043,0.397,0.01,0.571-0.053c0.222-0.079,0.127-0.337,0.288-0.45
					c0.104-0.074,0.287-0.01,0.406-0.051c0.2-0.069,0.339-0.263,0.376-0.46c0.016-0.082,0.01-0.145,0.039-0.221
					c0.039-0.103,0.111-0.16,0.09-0.293c-0.01-0.062-0.052-0.12-0.064-0.187c-0.022-0.114,0.002-0.224,0-0.337
					c-0.003-0.2,0.017-0.379-0.078-0.55c-0.38-0.688-1.236-0.929-1.975-0.789c-0.18,0.034-0.287,0.126-0.442,0.207
					c-0.17,0.088-0.139,0.166-0.318,0.224c-0.081,0.026-0.216,0.124-0.215,0.224c0.001,0.115,0.005,0.051,0.012,0.169
					c-0.021,0.011-0.021-0.005-0.03-0.025"/>
				<path fill="#FFFFFF" d="M31.137-33.39c0.018,0.072,0.007,0.127-0.026,0.19c-0.053,0.101-0.112,0.063-0.165,0.128
					c-0.05,0.063-0.099,0.276-0.079,0.362c-0.169,0.058-0.009,0.227-0.015,0.35c-0.002,0.05-0.041,0.105-0.045,0.161
					c-0.01,0.119,0.017,0.266,0.068,0.37c0.097,0.198,0.268,0.413,0.435,0.544c0.19,0.148,0.365,0.572,0.608,0.631
					c0.177,0.042,0.384-0.104,0.543-0.143c0.18-0.043,0.397,0.01,0.571-0.053c0.222-0.079,0.127-0.337,0.288-0.45
					c0.104-0.074,0.287-0.01,0.406-0.051c0.2-0.069,0.339-0.263,0.376-0.46c0.016-0.082,0.01-0.145,0.039-0.221
					c0.039-0.103,0.111-0.16,0.09-0.293c-0.01-0.062-0.052-0.12-0.064-0.187c-0.022-0.114,0.002-0.224,0-0.337
					c-0.003-0.2,0.017-0.379-0.078-0.55c-0.38-0.688-1.236-0.929-1.975-0.789c-0.18,0.034-0.287,0.126-0.442,0.207
					c-0.17,0.088-0.139,0.166-0.318,0.224c-0.081,0.026-0.216,0.124-0.215,0.224c0.001,0.115,0.005,0.051,0.012,0.169
					c-0.021,0.011-0.021-0.005-0.03-0.025"/>
				<path fill="#FFFFFF" d="M23.477-33.39c0.018,0.072,0.007,0.127-0.026,0.19c-0.053,0.101-0.112,0.063-0.165,0.128
					c-0.05,0.063-0.099,0.276-0.079,0.362c-0.169,0.058-0.009,0.227-0.015,0.35c-0.002,0.05-0.041,0.105-0.045,0.161
					c-0.01,0.119,0.017,0.266,0.068,0.37c0.097,0.198,0.268,0.413,0.435,0.544c0.19,0.148,0.365,0.572,0.608,0.631
					c0.177,0.042,0.384-0.104,0.543-0.143c0.18-0.043,0.397,0.01,0.571-0.053c0.222-0.079,0.127-0.337,0.288-0.45
					c0.104-0.074,0.287-0.01,0.406-0.051c0.2-0.069,0.339-0.263,0.376-0.46c0.016-0.082,0.01-0.145,0.039-0.221
					c0.039-0.103,0.111-0.16,0.09-0.293c-0.01-0.062-0.052-0.12-0.064-0.187c-0.022-0.114,0.002-0.224,0-0.337
					c-0.003-0.2,0.017-0.379-0.078-0.55c-0.38-0.688-1.236-0.929-1.975-0.789c-0.18,0.034-0.287,0.126-0.442,0.207
					c-0.17,0.088-0.139,0.166-0.318,0.224c-0.081,0.026-0.216,0.124-0.215,0.224c0.001,0.115,0.005,0.051,0.012,0.169
					c-0.021,0.011-0.021-0.005-0.03-0.025"/>
				<path fill="#FFFFFF" d="M15.816-33.39c0.018,0.072,0.007,0.127-0.026,0.19c-0.053,0.101-0.112,0.063-0.165,0.128
					c-0.05,0.063-0.099,0.276-0.079,0.362c-0.169,0.058-0.009,0.227-0.015,0.35c-0.002,0.05-0.041,0.105-0.045,0.161
					c-0.01,0.119,0.017,0.266,0.068,0.37c0.097,0.198,0.268,0.413,0.435,0.544c0.19,0.148,0.365,0.572,0.608,0.631
					c0.177,0.042,0.384-0.104,0.543-0.143c0.18-0.043,0.397,0.01,0.571-0.053c0.222-0.079,0.127-0.337,0.288-0.45
					c0.104-0.074,0.287-0.01,0.406-0.051c0.2-0.069,0.339-0.263,0.376-0.46c0.016-0.082,0.01-0.145,0.039-0.221
					c0.039-0.103,0.111-0.16,0.09-0.293c-0.01-0.062-0.052-0.12-0.064-0.187c-0.022-0.114,0.002-0.224,0-0.337
					c-0.003-0.2,0.017-0.379-0.078-0.55c-0.38-0.688-1.236-0.929-1.975-0.789c-0.18,0.034-0.287,0.126-0.442,0.207
					c-0.17,0.088-0.139,0.166-0.318,0.224c-0.081,0.026-0.216,0.124-0.215,0.224c0.001,0.115,0.005,0.051,0.012,0.169
					c-0.021,0.011-0.021-0.005-0.03-0.025"/>
				<path fill="#FFFFFF" d="M8.156-33.39c0.018,0.072,0.007,0.127-0.026,0.19c-0.053,0.101-0.112,0.063-0.165,0.128
					c-0.05,0.063-0.099,0.276-0.079,0.362c-0.169,0.058-0.009,0.227-0.015,0.35c-0.002,0.05-0.041,0.105-0.045,0.161
					c-0.01,0.119,0.017,0.266,0.068,0.37c0.097,0.198,0.268,0.413,0.435,0.544c0.19,0.148,0.365,0.572,0.608,0.631
					c0.177,0.042,0.384-0.104,0.543-0.143c0.18-0.043,0.397,0.01,0.571-0.053c0.222-0.079,0.127-0.337,0.288-0.45
					c0.104-0.074,0.287-0.01,0.406-0.051c0.2-0.069,0.339-0.263,0.376-0.46c0.016-0.082,0.01-0.145,0.039-0.221
					c0.039-0.103,0.111-0.16,0.09-0.293c-0.01-0.062-0.052-0.12-0.064-0.187c-0.022-0.114,0.002-0.224,0-0.337
					c-0.003-0.2,0.017-0.379-0.078-0.55c-0.38-0.688-1.236-0.929-1.975-0.789c-0.18,0.034-0.287,0.126-0.442,0.207
					c-0.17,0.088-0.139,0.166-0.318,0.224c-0.081,0.026-0.216,0.124-0.215,0.224c0.001,0.115,0.005,0.051,0.012,0.169
					c-0.021,0.011-0.021-0.005-0.03-0.025"/>
				<path fill="#FFFFFF" d="M0.495-33.39c0.018,0.072,0.007,0.127-0.026,0.19c-0.053,0.101-0.112,0.063-0.165,0.128
					c-0.05,0.063-0.099,0.276-0.079,0.362c-0.169,0.058-0.01,0.227-0.015,0.35c-0.002,0.05-0.041,0.105-0.045,0.161
					c-0.01,0.119,0.017,0.266,0.068,0.37c0.097,0.198,0.268,0.413,0.435,0.544c0.19,0.148,0.365,0.572,0.608,0.631
					c0.177,0.042,0.384-0.104,0.543-0.143c0.18-0.043,0.397,0.01,0.571-0.053c0.222-0.079,0.127-0.337,0.288-0.45
					c0.104-0.074,0.287-0.01,0.406-0.051c0.2-0.069,0.339-0.263,0.376-0.46c0.016-0.082,0.01-0.145,0.039-0.221
					c0.039-0.103,0.111-0.16,0.09-0.293c-0.01-0.062-0.052-0.12-0.064-0.187c-0.022-0.114,0.002-0.224,0-0.337
					c-0.003-0.2,0.017-0.379-0.078-0.55c-0.38-0.688-1.236-0.929-1.975-0.789c-0.18,0.034-0.287,0.126-0.442,0.207
					c-0.17,0.088-0.139,0.166-0.318,0.224c-0.081,0.026-0.216,0.124-0.215,0.224C0.5-33.416,0.503-33.48,0.51-33.362
					c-0.021,0.011-0.021-0.005-0.03-0.025"/>
			</g>
			<g>
				<path fill="#FFFFFF" d="M69.439-25.736c0.018,0.072,0.007,0.127-0.026,0.19c-0.053,0.101-0.112,0.063-0.165,0.128
					c-0.05,0.063-0.099,0.276-0.079,0.362c-0.169,0.058-0.01,0.227-0.015,0.35c-0.002,0.05-0.041,0.105-0.045,0.161
					c-0.01,0.119,0.017,0.266,0.068,0.37c0.097,0.198,0.268,0.413,0.435,0.544c0.19,0.148,0.365,0.572,0.608,0.631
					c0.177,0.042,0.384-0.104,0.543-0.143c0.18-0.043,0.397,0.01,0.571-0.053c0.222-0.079,0.127-0.337,0.288-0.45
					c0.104-0.074,0.287-0.01,0.406-0.051c0.2-0.069,0.339-0.263,0.376-0.46c0.016-0.082,0.01-0.145,0.039-0.221
					c0.039-0.103,0.111-0.16,0.09-0.293c-0.01-0.062-0.052-0.12-0.064-0.187c-0.022-0.114,0.002-0.224,0-0.337
					c-0.003-0.2,0.017-0.379-0.078-0.55c-0.38-0.688-1.236-0.929-1.975-0.789c-0.18,0.034-0.287,0.126-0.442,0.207
					c-0.17,0.088-0.139,0.166-0.318,0.224c-0.081,0.026-0.216,0.124-0.215,0.224c0.001,0.115,0.005,0.051,0.012,0.169
					c-0.021,0.011-0.021-0.005-0.03-0.025"/>
				<path fill="#FFFFFF" d="M61.778-25.736c0.018,0.072,0.007,0.127-0.026,0.19c-0.053,0.101-0.112,0.063-0.165,0.128
					c-0.05,0.063-0.099,0.276-0.079,0.362c-0.169,0.058-0.009,0.227-0.015,0.35c-0.002,0.05-0.041,0.105-0.045,0.161
					c-0.01,0.119,0.017,0.266,0.068,0.37c0.097,0.198,0.268,0.413,0.435,0.544c0.19,0.148,0.365,0.572,0.608,0.631
					c0.177,0.042,0.384-0.104,0.543-0.143c0.18-0.043,0.397,0.01,0.571-0.053c0.222-0.079,0.127-0.337,0.288-0.45
					c0.104-0.074,0.287-0.01,0.406-0.051c0.2-0.069,0.339-0.263,0.376-0.46c0.016-0.082,0.01-0.145,0.039-0.221
					c0.039-0.103,0.111-0.16,0.09-0.293c-0.01-0.062-0.052-0.12-0.064-0.187c-0.022-0.114,0.002-0.224,0-0.337
					c-0.003-0.2,0.017-0.379-0.078-0.55c-0.38-0.688-1.236-0.929-1.975-0.789c-0.18,0.034-0.287,0.126-0.442,0.207
					c-0.17,0.088-0.139,0.166-0.318,0.224c-0.081,0.026-0.216,0.124-0.215,0.224c0.001,0.115,0.005,0.051,0.012,0.169
					c-0.021,0.011-0.021-0.005-0.03-0.025"/>
				<path fill="#FFFFFF" d="M54.118-25.736c0.018,0.072,0.007,0.127-0.026,0.19c-0.053,0.101-0.112,0.063-0.165,0.128
					c-0.05,0.063-0.099,0.276-0.079,0.362c-0.169,0.058-0.009,0.227-0.015,0.35c-0.002,0.05-0.041,0.105-0.045,0.161
					c-0.01,0.119,0.017,0.266,0.068,0.37c0.097,0.198,0.268,0.413,0.435,0.544c0.19,0.148,0.365,0.572,0.608,0.631
					c0.177,0.042,0.384-0.104,0.543-0.143c0.18-0.043,0.397,0.01,0.571-0.053c0.222-0.079,0.127-0.337,0.288-0.45
					c0.104-0.074,0.287-0.01,0.406-0.051c0.2-0.069,0.339-0.263,0.376-0.46c0.016-0.082,0.01-0.145,0.039-0.221
					c0.039-0.103,0.111-0.16,0.09-0.293c-0.01-0.062-0.052-0.12-0.064-0.187c-0.022-0.114,0.002-0.224,0-0.337
					c-0.003-0.2,0.017-0.379-0.078-0.55c-0.38-0.688-1.236-0.929-1.975-0.789c-0.18,0.034-0.287,0.126-0.442,0.207
					c-0.17,0.088-0.139,0.166-0.318,0.224c-0.081,0.026-0.216,0.124-0.215,0.224c0.001,0.115,0.005,0.051,0.012,0.169
					c-0.021,0.011-0.021-0.005-0.03-0.025"/>
				<path fill="#FFFFFF" d="M46.458-25.736c0.018,0.072,0.007,0.127-0.026,0.19c-0.053,0.101-0.112,0.063-0.165,0.128
					c-0.05,0.063-0.099,0.276-0.079,0.362c-0.169,0.058-0.009,0.227-0.015,0.35c-0.002,0.05-0.041,0.105-0.045,0.161
					c-0.01,0.119,0.017,0.266,0.068,0.37c0.097,0.198,0.268,0.413,0.435,0.544c0.19,0.148,0.365,0.572,0.608,0.631
					c0.177,0.042,0.384-0.104,0.543-0.143c0.18-0.043,0.397,0.01,0.571-0.053c0.222-0.079,0.127-0.337,0.288-0.45
					c0.104-0.074,0.287-0.01,0.406-0.051c0.2-0.069,0.339-0.263,0.376-0.46c0.016-0.082,0.01-0.145,0.039-0.221
					c0.039-0.103,0.111-0.16,0.09-0.293c-0.01-0.062-0.052-0.12-0.064-0.187c-0.022-0.114,0.002-0.224,0-0.337
					c-0.003-0.2,0.017-0.379-0.078-0.55c-0.38-0.688-1.236-0.929-1.975-0.789c-0.18,0.034-0.287,0.126-0.442,0.207
					c-0.17,0.088-0.139,0.166-0.318,0.224c-0.081,0.026-0.216,0.124-0.215,0.224c0.001,0.115,0.005,0.051,0.012,0.169
					c-0.021,0.011-0.021-0.005-0.03-0.025"/>
				<path fill="#FFFFFF" d="M38.797-25.736c0.018,0.072,0.007,0.127-0.026,0.19c-0.053,0.101-0.112,0.063-0.165,0.128
					c-0.05,0.063-0.099,0.276-0.079,0.362c-0.169,0.058-0.009,0.227-0.015,0.35c-0.002,0.05-0.041,0.105-0.045,0.161
					c-0.01,0.119,0.017,0.266,0.068,0.37c0.097,0.198,0.268,0.413,0.435,0.544c0.19,0.148,0.365,0.572,0.608,0.631
					c0.177,0.042,0.384-0.104,0.543-0.143c0.18-0.043,0.397,0.01,0.571-0.053c0.222-0.079,0.127-0.337,0.288-0.45
					c0.104-0.074,0.287-0.01,0.406-0.051c0.2-0.069,0.339-0.263,0.376-0.46c0.016-0.082,0.01-0.145,0.039-0.221
					c0.039-0.103,0.111-0.16,0.09-0.293c-0.01-0.062-0.052-0.12-0.064-0.187c-0.022-0.114,0.002-0.224,0-0.337
					c-0.003-0.2,0.017-0.379-0.078-0.55c-0.38-0.688-1.236-0.929-1.975-0.789c-0.18,0.034-0.287,0.126-0.442,0.207
					c-0.17,0.088-0.139,0.166-0.318,0.224c-0.081,0.026-0.216,0.124-0.215,0.224c0.001,0.115,0.005,0.051,0.012,0.169
					c-0.021,0.011-0.021-0.005-0.03-0.025"/>
				<path fill="#FFFFFF" d="M31.137-25.736c0.018,0.072,0.007,0.127-0.026,0.19c-0.053,0.101-0.112,0.063-0.165,0.128
					c-0.05,0.063-0.099,0.276-0.079,0.362c-0.169,0.058-0.009,0.227-0.015,0.35c-0.002,0.05-0.041,0.105-0.045,0.161
					c-0.01,0.119,0.017,0.266,0.068,0.37c0.097,0.198,0.268,0.413,0.435,0.544c0.19,0.148,0.365,0.572,0.608,0.631
					c0.177,0.042,0.384-0.104,0.543-0.143c0.18-0.043,0.397,0.01,0.571-0.053c0.222-0.079,0.127-0.337,0.288-0.45
					c0.104-0.074,0.287-0.01,0.406-0.051c0.2-0.069,0.339-0.263,0.376-0.46c0.016-0.082,0.01-0.145,0.039-0.221
					c0.039-0.103,0.111-0.16,0.09-0.293c-0.01-0.062-0.052-0.12-0.064-0.187c-0.022-0.114,0.002-0.224,0-0.337
					c-0.003-0.2,0.017-0.379-0.078-0.55c-0.38-0.688-1.236-0.929-1.975-0.789c-0.18,0.034-0.287,0.126-0.442,0.207
					c-0.17,0.088-0.139,0.166-0.318,0.224c-0.081,0.026-0.216,0.124-0.215,0.224c0.001,0.115,0.005,0.051,0.012,0.169
					c-0.021,0.011-0.021-0.005-0.03-0.025"/>
				<path fill="#FFFFFF" d="M23.477-25.736c0.018,0.072,0.007,0.127-0.026,0.19c-0.053,0.101-0.112,0.063-0.165,0.128
					c-0.05,0.063-0.099,0.276-0.079,0.362c-0.169,0.058-0.009,0.227-0.015,0.35c-0.002,0.05-0.041,0.105-0.045,0.161
					c-0.01,0.119,0.017,0.266,0.068,0.37c0.097,0.198,0.268,0.413,0.435,0.544c0.19,0.148,0.365,0.572,0.608,0.631
					c0.177,0.042,0.384-0.104,0.543-0.143c0.18-0.043,0.397,0.01,0.571-0.053c0.222-0.079,0.127-0.337,0.288-0.45
					c0.104-0.074,0.287-0.01,0.406-0.051c0.2-0.069,0.339-0.263,0.376-0.46c0.016-0.082,0.01-0.145,0.039-0.221
					c0.039-0.103,0.111-0.16,0.09-0.293c-0.01-0.062-0.052-0.12-0.064-0.187c-0.022-0.114,0.002-0.224,0-0.337
					c-0.003-0.2,0.017-0.379-0.078-0.55c-0.38-0.688-1.236-0.929-1.975-0.789c-0.18,0.034-0.287,0.126-0.442,0.207
					c-0.17,0.088-0.139,0.166-0.318,0.224c-0.081,0.026-0.216,0.124-0.215,0.224c0.001,0.115,0.005,0.051,0.012,0.169
					c-0.021,0.011-0.021-0.005-0.03-0.025"/>
				<path fill="#FFFFFF" d="M15.816-25.736c0.018,0.072,0.007,0.127-0.026,0.19c-0.053,0.101-0.112,0.063-0.165,0.128
					c-0.05,0.063-0.099,0.276-0.079,0.362c-0.169,0.058-0.009,0.227-0.015,0.35c-0.002,0.05-0.041,0.105-0.045,0.161
					c-0.01,0.119,0.017,0.266,0.068,0.37c0.097,0.198,0.268,0.413,0.435,0.544c0.19,0.148,0.365,0.572,0.608,0.631
					c0.177,0.042,0.384-0.104,0.543-0.143c0.18-0.043,0.397,0.01,0.571-0.053c0.222-0.079,0.127-0.337,0.288-0.45
					c0.104-0.074,0.287-0.01,0.406-0.051c0.2-0.069,0.339-0.263,0.376-0.46c0.016-0.082,0.01-0.145,0.039-0.221
					c0.039-0.103,0.111-0.16,0.09-0.293c-0.01-0.062-0.052-0.12-0.064-0.187c-0.022-0.114,0.002-0.224,0-0.337
					c-0.003-0.2,0.017-0.379-0.078-0.55c-0.38-0.688-1.236-0.929-1.975-0.789c-0.18,0.034-0.287,0.126-0.442,0.207
					c-0.17,0.088-0.139,0.166-0.318,0.224c-0.081,0.026-0.216,0.124-0.215,0.224c0.001,0.115,0.005,0.051,0.012,0.169
					c-0.021,0.011-0.021-0.005-0.03-0.025"/>
				<path fill="#FFFFFF" d="M8.156-25.736c0.018,0.072,0.007,0.127-0.026,0.19c-0.053,0.101-0.112,0.063-0.165,0.128
					c-0.05,0.063-0.099,0.276-0.079,0.362c-0.169,0.058-0.009,0.227-0.015,0.35c-0.002,0.05-0.041,0.105-0.045,0.161
					c-0.01,0.119,0.017,0.266,0.068,0.37c0.097,0.198,0.268,0.413,0.435,0.544c0.19,0.148,0.365,0.572,0.608,0.631
					c0.177,0.042,0.384-0.104,0.543-0.143c0.18-0.043,0.397,0.01,0.571-0.053c0.222-0.079,0.127-0.337,0.288-0.45
					c0.104-0.074,0.287-0.01,0.406-0.051c0.2-0.069,0.339-0.263,0.376-0.46c0.016-0.082,0.01-0.145,0.039-0.221
					c0.039-0.103,0.111-0.16,0.09-0.293c-0.01-0.062-0.052-0.12-0.064-0.187c-0.022-0.114,0.002-0.224,0-0.337
					c-0.003-0.2,0.017-0.379-0.078-0.55c-0.38-0.688-1.236-0.929-1.975-0.789c-0.18,0.034-0.287,0.126-0.442,0.207
					c-0.17,0.088-0.139,0.166-0.318,0.224c-0.081,0.026-0.216,0.124-0.215,0.224c0.001,0.115,0.005,0.051,0.012,0.169
					c-0.021,0.011-0.021-0.005-0.03-0.025"/>
				<path fill="#FFFFFF" d="M0.495-25.736c0.018,0.072,0.007,0.127-0.026,0.19c-0.053,0.101-0.112,0.063-0.165,0.128
					c-0.05,0.063-0.099,0.276-0.079,0.362c-0.169,0.058-0.01,0.227-0.015,0.35c-0.002,0.05-0.041,0.105-0.045,0.161
					c-0.01,0.119,0.017,0.266,0.068,0.37c0.097,0.198,0.268,0.413,0.435,0.544c0.19,0.148,0.365,0.572,0.608,0.631
					c0.177,0.042,0.384-0.104,0.543-0.143c0.18-0.043,0.397,0.01,0.571-0.053c0.222-0.079,0.127-0.337,0.288-0.45
					c0.104-0.074,0.287-0.01,0.406-0.051c0.2-0.069,0.339-0.263,0.376-0.46c0.016-0.082,0.01-0.145,0.039-0.221
					c0.039-0.103,0.111-0.16,0.09-0.293c-0.01-0.062-0.052-0.12-0.064-0.187c-0.022-0.114,0.002-0.224,0-0.337
					c-0.003-0.2,0.017-0.379-0.078-0.55c-0.38-0.688-1.236-0.929-1.975-0.789c-0.18,0.034-0.287,0.126-0.442,0.207
					c-0.17,0.088-0.139,0.166-0.318,0.224c-0.081,0.026-0.216,0.124-0.215,0.224c0.001,0.115,0.005,0.051,0.012,0.169
					c-0.021,0.011-0.021-0.005-0.03-0.025"/>
			</g>
			<g>
				<path fill="#FFFFFF" d="M69.439-18.084c0.018,0.072,0.007,0.127-0.026,0.19c-0.053,0.101-0.112,0.063-0.165,0.128
					c-0.05,0.063-0.099,0.276-0.079,0.362c-0.169,0.058-0.01,0.227-0.015,0.35c-0.002,0.05-0.041,0.105-0.045,0.161
					c-0.01,0.119,0.017,0.266,0.068,0.37c0.097,0.198,0.268,0.413,0.435,0.544c0.19,0.148,0.365,0.572,0.608,0.631
					c0.177,0.042,0.384-0.104,0.543-0.143c0.18-0.043,0.397,0.01,0.571-0.053c0.222-0.079,0.127-0.337,0.288-0.45
					c0.104-0.074,0.287-0.01,0.406-0.051c0.2-0.069,0.339-0.263,0.376-0.46c0.016-0.082,0.01-0.145,0.039-0.221
					c0.039-0.103,0.111-0.16,0.09-0.293c-0.01-0.062-0.052-0.12-0.064-0.187c-0.022-0.114,0.002-0.224,0-0.337
					c-0.003-0.2,0.017-0.379-0.078-0.55c-0.38-0.688-1.236-0.929-1.975-0.789c-0.18,0.034-0.287,0.126-0.442,0.207
					c-0.17,0.088-0.139,0.166-0.318,0.224c-0.081,0.026-0.216,0.124-0.215,0.224c0.001,0.115,0.005,0.051,0.012,0.169
					c-0.021,0.011-0.021-0.005-0.03-0.025"/>
				<path fill="#FFFFFF" d="M61.778-18.084c0.018,0.072,0.007,0.127-0.026,0.19c-0.053,0.101-0.112,0.063-0.165,0.128
					c-0.05,0.063-0.099,0.276-0.079,0.362c-0.169,0.058-0.009,0.227-0.015,0.35c-0.002,0.05-0.041,0.105-0.045,0.161
					c-0.01,0.119,0.017,0.266,0.068,0.37c0.097,0.198,0.268,0.413,0.435,0.544c0.19,0.148,0.365,0.572,0.608,0.631
					c0.177,0.042,0.384-0.104,0.543-0.143c0.18-0.043,0.397,0.01,0.571-0.053c0.222-0.079,0.127-0.337,0.288-0.45
					c0.104-0.074,0.287-0.01,0.406-0.051c0.2-0.069,0.339-0.263,0.376-0.46c0.016-0.082,0.01-0.145,0.039-0.221
					c0.039-0.103,0.111-0.16,0.09-0.293c-0.01-0.062-0.052-0.12-0.064-0.187c-0.022-0.114,0.002-0.224,0-0.337
					c-0.003-0.2,0.017-0.379-0.078-0.55c-0.38-0.688-1.236-0.929-1.975-0.789c-0.18,0.034-0.287,0.126-0.442,0.207
					c-0.17,0.088-0.139,0.166-0.318,0.224c-0.081,0.026-0.216,0.124-0.215,0.224c0.001,0.115,0.005,0.051,0.012,0.169
					c-0.021,0.011-0.021-0.005-0.03-0.025"/>
				<path fill="#FFFFFF" d="M54.118-18.084c0.018,0.072,0.007,0.127-0.026,0.19c-0.053,0.101-0.112,0.063-0.165,0.128
					c-0.05,0.063-0.099,0.276-0.079,0.362c-0.169,0.058-0.009,0.227-0.015,0.35c-0.002,0.05-0.041,0.105-0.045,0.161
					c-0.01,0.119,0.017,0.266,0.068,0.37c0.097,0.198,0.268,0.413,0.435,0.544c0.19,0.148,0.365,0.572,0.608,0.631
					c0.177,0.042,0.384-0.104,0.543-0.143c0.18-0.043,0.397,0.01,0.571-0.053c0.222-0.079,0.127-0.337,0.288-0.45
					c0.104-0.074,0.287-0.01,0.406-0.051c0.2-0.069,0.339-0.263,0.376-0.46c0.016-0.082,0.01-0.145,0.039-0.221
					c0.039-0.103,0.111-0.16,0.09-0.293c-0.01-0.062-0.052-0.12-0.064-0.187c-0.022-0.114,0.002-0.224,0-0.337
					c-0.003-0.2,0.017-0.379-0.078-0.55c-0.38-0.688-1.236-0.929-1.975-0.789c-0.18,0.034-0.287,0.126-0.442,0.207
					c-0.17,0.088-0.139,0.166-0.318,0.224c-0.081,0.026-0.216,0.124-0.215,0.224c0.001,0.115,0.005,0.051,0.012,0.169
					c-0.021,0.011-0.021-0.005-0.03-0.025"/>
				<path fill="#FFFFFF" d="M46.458-18.084c0.018,0.072,0.007,0.127-0.026,0.19c-0.053,0.101-0.112,0.063-0.165,0.128
					c-0.05,0.063-0.099,0.276-0.079,0.362c-0.169,0.058-0.009,0.227-0.015,0.35c-0.002,0.05-0.041,0.105-0.045,0.161
					c-0.01,0.119,0.017,0.266,0.068,0.37c0.097,0.198,0.268,0.413,0.435,0.544c0.19,0.148,0.365,0.572,0.608,0.631
					c0.177,0.042,0.384-0.104,0.543-0.143c0.18-0.043,0.397,0.01,0.571-0.053c0.222-0.079,0.127-0.337,0.288-0.45
					c0.104-0.074,0.287-0.01,0.406-0.051c0.2-0.069,0.339-0.263,0.376-0.46c0.016-0.082,0.01-0.145,0.039-0.221
					c0.039-0.103,0.111-0.16,0.09-0.293c-0.01-0.062-0.052-0.12-0.064-0.187c-0.022-0.114,0.002-0.224,0-0.337
					c-0.003-0.2,0.017-0.379-0.078-0.55c-0.38-0.688-1.236-0.929-1.975-0.789c-0.18,0.034-0.287,0.126-0.442,0.207
					c-0.17,0.088-0.139,0.166-0.318,0.224c-0.081,0.026-0.216,0.124-0.215,0.224c0.001,0.115,0.005,0.051,0.012,0.169
					c-0.021,0.011-0.021-0.005-0.03-0.025"/>
				<path fill="#FFFFFF" d="M38.797-18.084c0.018,0.072,0.007,0.127-0.026,0.19c-0.053,0.101-0.112,0.063-0.165,0.128
					c-0.05,0.063-0.099,0.276-0.079,0.362c-0.169,0.058-0.009,0.227-0.015,0.35c-0.002,0.05-0.041,0.105-0.045,0.161
					c-0.01,0.119,0.017,0.266,0.068,0.37c0.097,0.198,0.268,0.413,0.435,0.544c0.19,0.148,0.365,0.572,0.608,0.631
					c0.177,0.042,0.384-0.104,0.543-0.143c0.18-0.043,0.397,0.01,0.571-0.053c0.222-0.079,0.127-0.337,0.288-0.45
					c0.104-0.074,0.287-0.01,0.406-0.051c0.2-0.069,0.339-0.263,0.376-0.46c0.016-0.082,0.01-0.145,0.039-0.221
					c0.039-0.103,0.111-0.16,0.09-0.293c-0.01-0.062-0.052-0.12-0.064-0.187c-0.022-0.114,0.002-0.224,0-0.337
					c-0.003-0.2,0.017-0.379-0.078-0.55c-0.38-0.688-1.236-0.929-1.975-0.789c-0.18,0.034-0.287,0.126-0.442,0.207
					c-0.17,0.088-0.139,0.166-0.318,0.224c-0.081,0.026-0.216,0.124-0.215,0.224c0.001,0.115,0.005,0.051,0.012,0.169
					c-0.021,0.011-0.021-0.005-0.03-0.025"/>
				<path fill="#FFFFFF" d="M31.137-18.084c0.018,0.072,0.007,0.127-0.026,0.19c-0.053,0.101-0.112,0.063-0.165,0.128
					c-0.05,0.063-0.099,0.276-0.079,0.362c-0.169,0.058-0.009,0.227-0.015,0.35c-0.002,0.05-0.041,0.105-0.045,0.161
					c-0.01,0.119,0.017,0.266,0.068,0.37c0.097,0.198,0.268,0.413,0.435,0.544c0.19,0.148,0.365,0.572,0.608,0.631
					c0.177,0.042,0.384-0.104,0.543-0.143c0.18-0.043,0.397,0.01,0.571-0.053c0.222-0.079,0.127-0.337,0.288-0.45
					c0.104-0.074,0.287-0.01,0.406-0.051c0.2-0.069,0.339-0.263,0.376-0.46c0.016-0.082,0.01-0.145,0.039-0.221
					c0.039-0.103,0.111-0.16,0.09-0.293c-0.01-0.062-0.052-0.12-0.064-0.187c-0.022-0.114,0.002-0.224,0-0.337
					c-0.003-0.2,0.017-0.379-0.078-0.55c-0.38-0.688-1.236-0.929-1.975-0.789c-0.18,0.034-0.287,0.126-0.442,0.207
					c-0.17,0.088-0.139,0.166-0.318,0.224c-0.081,0.026-0.216,0.124-0.215,0.224c0.001,0.115,0.005,0.051,0.012,0.169
					c-0.021,0.011-0.021-0.005-0.03-0.025"/>
				<path fill="#FFFFFF" d="M23.477-18.084c0.018,0.072,0.007,0.127-0.026,0.19c-0.053,0.101-0.112,0.063-0.165,0.128
					c-0.05,0.063-0.099,0.276-0.079,0.362c-0.169,0.058-0.009,0.227-0.015,0.35c-0.002,0.05-0.041,0.105-0.045,0.161
					c-0.01,0.119,0.017,0.266,0.068,0.37c0.097,0.198,0.268,0.413,0.435,0.544c0.19,0.148,0.365,0.572,0.608,0.631
					c0.177,0.042,0.384-0.104,0.543-0.143c0.18-0.043,0.397,0.01,0.571-0.053c0.222-0.079,0.127-0.337,0.288-0.45
					c0.104-0.074,0.287-0.01,0.406-0.051c0.2-0.069,0.339-0.263,0.376-0.46c0.016-0.082,0.01-0.145,0.039-0.221
					c0.039-0.103,0.111-0.16,0.09-0.293c-0.01-0.062-0.052-0.12-0.064-0.187c-0.022-0.114,0.002-0.224,0-0.337
					c-0.003-0.2,0.017-0.379-0.078-0.55c-0.38-0.688-1.236-0.929-1.975-0.789c-0.18,0.034-0.287,0.126-0.442,0.207
					c-0.17,0.088-0.139,0.166-0.318,0.224c-0.081,0.026-0.216,0.124-0.215,0.224c0.001,0.115,0.005,0.051,0.012,0.169
					c-0.021,0.011-0.021-0.005-0.03-0.025"/>
				<path fill="#FFFFFF" d="M15.816-18.084c0.018,0.072,0.007,0.127-0.026,0.19c-0.053,0.101-0.112,0.063-0.165,0.128
					c-0.05,0.063-0.099,0.276-0.079,0.362c-0.169,0.058-0.009,0.227-0.015,0.35c-0.002,0.05-0.041,0.105-0.045,0.161
					c-0.01,0.119,0.017,0.266,0.068,0.37c0.097,0.198,0.268,0.413,0.435,0.544c0.19,0.148,0.365,0.572,0.608,0.631
					c0.177,0.042,0.384-0.104,0.543-0.143c0.18-0.043,0.397,0.01,0.571-0.053c0.222-0.079,0.127-0.337,0.288-0.45
					c0.104-0.074,0.287-0.01,0.406-0.051c0.2-0.069,0.339-0.263,0.376-0.46c0.016-0.082,0.01-0.145,0.039-0.221
					c0.039-0.103,0.111-0.16,0.09-0.293c-0.01-0.062-0.052-0.12-0.064-0.187c-0.022-0.114,0.002-0.224,0-0.337
					c-0.003-0.2,0.017-0.379-0.078-0.55c-0.38-0.688-1.236-0.929-1.975-0.789c-0.18,0.034-0.287,0.126-0.442,0.207
					c-0.17,0.088-0.139,0.166-0.318,0.224c-0.081,0.026-0.216,0.124-0.215,0.224c0.001,0.115,0.005,0.051,0.012,0.169
					c-0.021,0.011-0.021-0.005-0.03-0.025"/>
				<path fill="#FFFFFF" d="M8.156-18.084c0.018,0.072,0.007,0.127-0.026,0.19c-0.053,0.101-0.112,0.063-0.165,0.128
					c-0.05,0.063-0.099,0.276-0.079,0.362c-0.169,0.058-0.009,0.227-0.015,0.35c-0.002,0.05-0.041,0.105-0.045,0.161
					c-0.01,0.119,0.017,0.266,0.068,0.37c0.097,0.198,0.268,0.413,0.435,0.544c0.19,0.148,0.365,0.572,0.608,0.631
					c0.177,0.042,0.384-0.104,0.543-0.143c0.18-0.043,0.397,0.01,0.571-0.053c0.222-0.079,0.127-0.337,0.288-0.45
					c0.104-0.074,0.287-0.01,0.406-0.051c0.2-0.069,0.339-0.263,0.376-0.46c0.016-0.082,0.01-0.145,0.039-0.221
					c0.039-0.103,0.111-0.16,0.09-0.293c-0.01-0.062-0.052-0.12-0.064-0.187c-0.022-0.114,0.002-0.224,0-0.337
					c-0.003-0.2,0.017-0.379-0.078-0.55c-0.38-0.688-1.236-0.929-1.975-0.789c-0.18,0.034-0.287,0.126-0.442,0.207
					c-0.17,0.088-0.139,0.166-0.318,0.224c-0.081,0.026-0.216,0.124-0.215,0.224c0.001,0.115,0.005,0.051,0.012,0.169
					c-0.021,0.011-0.021-0.005-0.03-0.025"/>
				<path fill="#FFFFFF" d="M0.495-18.084c0.018,0.072,0.007,0.127-0.026,0.19c-0.053,0.101-0.112,0.063-0.165,0.128
					c-0.05,0.063-0.099,0.276-0.079,0.362c-0.169,0.058-0.01,0.227-0.015,0.35c-0.002,0.05-0.041,0.105-0.045,0.161
					c-0.01,0.119,0.017,0.266,0.068,0.37c0.097,0.198,0.268,0.413,0.435,0.544c0.19,0.148,0.365,0.572,0.608,0.631
					c0.177,0.042,0.384-0.104,0.543-0.143c0.18-0.043,0.397,0.01,0.571-0.053c0.222-0.079,0.127-0.337,0.288-0.45
					c0.104-0.074,0.287-0.01,0.406-0.051c0.2-0.069,0.339-0.263,0.376-0.46c0.016-0.082,0.01-0.145,0.039-0.221
					c0.039-0.103,0.111-0.16,0.09-0.293c-0.01-0.062-0.052-0.12-0.064-0.187c-0.022-0.114,0.002-0.224,0-0.337
					c-0.003-0.2,0.017-0.379-0.078-0.55c-0.38-0.688-1.236-0.929-1.975-0.789c-0.18,0.034-0.287,0.126-0.442,0.207
					c-0.17,0.088-0.139,0.166-0.318,0.224c-0.081,0.026-0.216,0.124-0.215,0.224C0.5-18.11,0.503-18.175,0.51-18.057
					c-0.021,0.011-0.021-0.005-0.03-0.025"/>
			</g>
			<g>
				<path fill="#FFFFFF" d="M69.439-10.431c0.018,0.072,0.007,0.127-0.026,0.19c-0.053,0.101-0.112,0.063-0.165,0.128
					c-0.05,0.063-0.099,0.276-0.079,0.362C69-9.692,69.159-9.523,69.154-9.4c-0.002,0.05-0.041,0.105-0.045,0.161
					c-0.01,0.119,0.017,0.266,0.068,0.37c0.097,0.198,0.268,0.413,0.435,0.544c0.19,0.148,0.365,0.572,0.608,0.631
					c0.177,0.042,0.384-0.104,0.543-0.143c0.18-0.043,0.397,0.01,0.571-0.053c0.222-0.079,0.127-0.337,0.288-0.45
					c0.104-0.074,0.287-0.01,0.406-0.051c0.2-0.069,0.339-0.263,0.376-0.46c0.016-0.082,0.01-0.145,0.039-0.221
					c0.039-0.103,0.111-0.16,0.09-0.293c-0.01-0.062-0.052-0.12-0.064-0.187c-0.022-0.114,0.002-0.224,0-0.337
					c-0.003-0.2,0.017-0.379-0.078-0.55c-0.38-0.688-1.236-0.929-1.975-0.789c-0.18,0.034-0.287,0.126-0.442,0.207
					c-0.17,0.088-0.139,0.166-0.318,0.224c-0.081,0.026-0.216,0.124-0.215,0.224c0.001,0.115,0.005,0.051,0.012,0.169
					c-0.021,0.011-0.021-0.005-0.03-0.025"/>
				<path fill="#FFFFFF" d="M61.778-10.431c0.018,0.072,0.007,0.127-0.026,0.19c-0.053,0.101-0.112,0.063-0.165,0.128
					c-0.05,0.063-0.099,0.276-0.079,0.362c-0.169,0.058-0.009,0.227-0.015,0.35c-0.002,0.05-0.041,0.105-0.045,0.161
					c-0.01,0.119,0.017,0.266,0.068,0.37c0.097,0.198,0.268,0.413,0.435,0.544c0.19,0.148,0.365,0.572,0.608,0.631
					c0.177,0.042,0.384-0.104,0.543-0.143c0.18-0.043,0.397,0.01,0.571-0.053c0.222-0.079,0.127-0.337,0.288-0.45
					c0.104-0.074,0.287-0.01,0.406-0.051c0.2-0.069,0.339-0.263,0.376-0.46c0.016-0.082,0.01-0.145,0.039-0.221
					c0.039-0.103,0.111-0.16,0.09-0.293c-0.01-0.062-0.052-0.12-0.064-0.187c-0.022-0.114,0.002-0.224,0-0.337
					c-0.003-0.2,0.017-0.379-0.078-0.55c-0.38-0.688-1.236-0.929-1.975-0.789c-0.18,0.034-0.287,0.126-0.442,0.207
					c-0.17,0.088-0.139,0.166-0.318,0.224c-0.081,0.026-0.216,0.124-0.215,0.224c0.001,0.115,0.005,0.051,0.012,0.169
					c-0.021,0.011-0.021-0.005-0.03-0.025"/>
				<path fill="#FFFFFF" d="M54.118-10.431c0.018,0.072,0.007,0.127-0.026,0.19c-0.053,0.101-0.112,0.063-0.165,0.128
					c-0.05,0.063-0.099,0.276-0.079,0.362c-0.169,0.058-0.009,0.227-0.015,0.35c-0.002,0.05-0.041,0.105-0.045,0.161
					c-0.01,0.119,0.017,0.266,0.068,0.37c0.097,0.198,0.268,0.413,0.435,0.544c0.19,0.148,0.365,0.572,0.608,0.631
					c0.177,0.042,0.384-0.104,0.543-0.143c0.18-0.043,0.397,0.01,0.571-0.053c0.222-0.079,0.127-0.337,0.288-0.45
					c0.104-0.074,0.287-0.01,0.406-0.051c0.2-0.069,0.339-0.263,0.376-0.46c0.016-0.082,0.01-0.145,0.039-0.221
					c0.039-0.103,0.111-0.16,0.09-0.293c-0.01-0.062-0.052-0.12-0.064-0.187c-0.022-0.114,0.002-0.224,0-0.337
					c-0.003-0.2,0.017-0.379-0.078-0.55c-0.38-0.688-1.236-0.929-1.975-0.789c-0.18,0.034-0.287,0.126-0.442,0.207
					c-0.17,0.088-0.139,0.166-0.318,0.224c-0.081,0.026-0.216,0.124-0.215,0.224c0.001,0.115,0.005,0.051,0.012,0.169
					c-0.021,0.011-0.021-0.005-0.03-0.025"/>
				<path fill="#FFFFFF" d="M46.458-10.431c0.018,0.072,0.007,0.127-0.026,0.19c-0.053,0.101-0.112,0.063-0.165,0.128
					c-0.05,0.063-0.099,0.276-0.079,0.362c-0.169,0.058-0.009,0.227-0.015,0.35c-0.002,0.05-0.041,0.105-0.045,0.161
					c-0.01,0.119,0.017,0.266,0.068,0.37c0.097,0.198,0.268,0.413,0.435,0.544c0.19,0.148,0.365,0.572,0.608,0.631
					c0.177,0.042,0.384-0.104,0.543-0.143c0.18-0.043,0.397,0.01,0.571-0.053c0.222-0.079,0.127-0.337,0.288-0.45
					c0.104-0.074,0.287-0.01,0.406-0.051c0.2-0.069,0.339-0.263,0.376-0.46c0.016-0.082,0.01-0.145,0.039-0.221
					c0.039-0.103,0.111-0.16,0.09-0.293c-0.01-0.062-0.052-0.12-0.064-0.187c-0.022-0.114,0.002-0.224,0-0.337
					c-0.003-0.2,0.017-0.379-0.078-0.55c-0.38-0.688-1.236-0.929-1.975-0.789c-0.18,0.034-0.287,0.126-0.442,0.207
					c-0.17,0.088-0.139,0.166-0.318,0.224c-0.081,0.026-0.216,0.124-0.215,0.224c0.001,0.115,0.005,0.051,0.012,0.169
					c-0.021,0.011-0.021-0.005-0.03-0.025"/>
				<path fill="#FFFFFF" d="M38.797-10.431c0.018,0.072,0.007,0.127-0.026,0.19c-0.053,0.101-0.112,0.063-0.165,0.128
					c-0.05,0.063-0.099,0.276-0.079,0.362c-0.169,0.058-0.009,0.227-0.015,0.35c-0.002,0.05-0.041,0.105-0.045,0.161
					c-0.01,0.119,0.017,0.266,0.068,0.37c0.097,0.198,0.268,0.413,0.435,0.544c0.19,0.148,0.365,0.572,0.608,0.631
					c0.177,0.042,0.384-0.104,0.543-0.143c0.18-0.043,0.397,0.01,0.571-0.053c0.222-0.079,0.127-0.337,0.288-0.45
					c0.104-0.074,0.287-0.01,0.406-0.051c0.2-0.069,0.339-0.263,0.376-0.46c0.016-0.082,0.01-0.145,0.039-0.221
					c0.039-0.103,0.111-0.16,0.09-0.293c-0.01-0.062-0.052-0.12-0.064-0.187c-0.022-0.114,0.002-0.224,0-0.337
					c-0.003-0.2,0.017-0.379-0.078-0.55c-0.38-0.688-1.236-0.929-1.975-0.789c-0.18,0.034-0.287,0.126-0.442,0.207
					c-0.17,0.088-0.139,0.166-0.318,0.224c-0.081,0.026-0.216,0.124-0.215,0.224c0.001,0.115,0.005,0.051,0.012,0.169
					c-0.021,0.011-0.021-0.005-0.03-0.025"/>
				<path fill="#FFFFFF" d="M31.137-10.431c0.018,0.072,0.007,0.127-0.026,0.19c-0.053,0.101-0.112,0.063-0.165,0.128
					c-0.05,0.063-0.099,0.276-0.079,0.362c-0.169,0.058-0.009,0.227-0.015,0.35c-0.002,0.05-0.041,0.105-0.045,0.161
					c-0.01,0.119,0.017,0.266,0.068,0.37c0.097,0.198,0.268,0.413,0.435,0.544c0.19,0.148,0.365,0.572,0.608,0.631
					c0.177,0.042,0.384-0.104,0.543-0.143c0.18-0.043,0.397,0.01,0.571-0.053c0.222-0.079,0.127-0.337,0.288-0.45
					c0.104-0.074,0.287-0.01,0.406-0.051c0.2-0.069,0.339-0.263,0.376-0.46c0.016-0.082,0.01-0.145,0.039-0.221
					c0.039-0.103,0.111-0.16,0.09-0.293c-0.01-0.062-0.052-0.12-0.064-0.187c-0.022-0.114,0.002-0.224,0-0.337
					c-0.003-0.2,0.017-0.379-0.078-0.55c-0.38-0.688-1.236-0.929-1.975-0.789c-0.18,0.034-0.287,0.126-0.442,0.207
					c-0.17,0.088-0.139,0.166-0.318,0.224c-0.081,0.026-0.216,0.124-0.215,0.224c0.001,0.115,0.005,0.051,0.012,0.169
					c-0.021,0.011-0.021-0.005-0.03-0.025"/>
				<path fill="#FFFFFF" d="M23.477-10.431c0.018,0.072,0.007,0.127-0.026,0.19c-0.053,0.101-0.112,0.063-0.165,0.128
					c-0.05,0.063-0.099,0.276-0.079,0.362c-0.169,0.058-0.009,0.227-0.015,0.35c-0.002,0.05-0.041,0.105-0.045,0.161
					c-0.01,0.119,0.017,0.266,0.068,0.37c0.097,0.198,0.268,0.413,0.435,0.544c0.19,0.148,0.365,0.572,0.608,0.631
					c0.177,0.042,0.384-0.104,0.543-0.143c0.18-0.043,0.397,0.01,0.571-0.053c0.222-0.079,0.127-0.337,0.288-0.45
					c0.104-0.074,0.287-0.01,0.406-0.051c0.2-0.069,0.339-0.263,0.376-0.46c0.016-0.082,0.01-0.145,0.039-0.221
					c0.039-0.103,0.111-0.16,0.09-0.293c-0.01-0.062-0.052-0.12-0.064-0.187c-0.022-0.114,0.002-0.224,0-0.337
					c-0.003-0.2,0.017-0.379-0.078-0.55c-0.38-0.688-1.236-0.929-1.975-0.789c-0.18,0.034-0.287,0.126-0.442,0.207
					c-0.17,0.088-0.139,0.166-0.318,0.224c-0.081,0.026-0.216,0.124-0.215,0.224c0.001,0.115,0.005,0.051,0.012,0.169
					c-0.021,0.011-0.021-0.005-0.03-0.025"/>
				<path fill="#FFFFFF" d="M15.816-10.431c0.018,0.072,0.007,0.127-0.026,0.19c-0.053,0.101-0.112,0.063-0.165,0.128
					c-0.05,0.063-0.099,0.276-0.079,0.362c-0.169,0.058-0.009,0.227-0.015,0.35c-0.002,0.05-0.041,0.105-0.045,0.161
					c-0.01,0.119,0.017,0.266,0.068,0.37c0.097,0.198,0.268,0.413,0.435,0.544c0.19,0.148,0.365,0.572,0.608,0.631
					c0.177,0.042,0.384-0.104,0.543-0.143c0.18-0.043,0.397,0.01,0.571-0.053C17.933-7.969,17.839-8.227,18-8.34
					c0.104-0.074,0.287-0.01,0.406-0.051c0.2-0.069,0.339-0.263,0.376-0.46c0.016-0.082,0.01-0.145,0.039-0.221
					c0.039-0.103,0.111-0.16,0.09-0.293c-0.01-0.062-0.052-0.12-0.064-0.187c-0.022-0.114,0.002-0.224,0-0.337
					c-0.003-0.2,0.017-0.379-0.078-0.55c-0.38-0.688-1.236-0.929-1.975-0.789c-0.18,0.034-0.287,0.126-0.442,0.207
					c-0.17,0.088-0.139,0.166-0.318,0.224c-0.081,0.026-0.216,0.124-0.215,0.224c0.001,0.115,0.005,0.051,0.012,0.169
					c-0.021,0.011-0.021-0.005-0.03-0.025"/>
				<path fill="#FFFFFF" d="M8.156-10.431c0.018,0.072,0.007,0.127-0.026,0.19c-0.053,0.101-0.112,0.063-0.165,0.128
					C7.915-10.05,7.866-9.836,7.886-9.75C7.717-9.692,7.876-9.523,7.871-9.4C7.868-9.351,7.83-9.295,7.826-9.239
					c-0.01,0.119,0.017,0.266,0.068,0.37c0.097,0.198,0.268,0.413,0.435,0.544c0.19,0.148,0.365,0.572,0.608,0.631
					C9.114-7.652,9.321-7.799,9.48-7.837c0.18-0.043,0.397,0.01,0.571-0.053c0.222-0.079,0.127-0.337,0.288-0.45
					c0.104-0.074,0.287-0.01,0.406-0.051c0.2-0.069,0.339-0.263,0.376-0.46c0.016-0.082,0.01-0.145,0.039-0.221
					c0.039-0.103,0.111-0.16,0.09-0.293c-0.01-0.062-0.052-0.12-0.064-0.187c-0.022-0.114,0.002-0.224,0-0.337
					c-0.003-0.2,0.017-0.379-0.078-0.55c-0.38-0.688-1.236-0.929-1.975-0.789c-0.18,0.034-0.287,0.126-0.442,0.207
					c-0.17,0.088-0.139,0.166-0.318,0.224c-0.081,0.026-0.216,0.124-0.215,0.224c0.001,0.115,0.005,0.051,0.012,0.169
					c-0.021,0.011-0.021-0.005-0.03-0.025"/>
				<path fill="#FFFFFF" d="M0.495-10.431c0.018,0.072,0.007,0.127-0.026,0.19c-0.053,0.101-0.112,0.063-0.165,0.128
					C0.254-10.05,0.205-9.836,0.225-9.75C0.056-9.692,0.215-9.523,0.21-9.4c-0.002,0.05-0.041,0.105-0.045,0.161
					c-0.01,0.119,0.017,0.266,0.068,0.37C0.33-8.671,0.501-8.456,0.668-8.325c0.19,0.148,0.365,0.572,0.608,0.631
					C1.454-7.652,1.66-7.799,1.819-7.837C2-7.88,2.217-7.827,2.391-7.89c0.222-0.079,0.127-0.337,0.288-0.45
					c0.104-0.074,0.287-0.01,0.406-0.051c0.2-0.069,0.339-0.263,0.376-0.46C3.477-8.933,3.471-8.995,3.5-9.071
					c0.039-0.103,0.111-0.16,0.09-0.293c-0.01-0.062-0.052-0.12-0.064-0.187c-0.022-0.114,0.002-0.224,0-0.337
					c-0.003-0.2,0.017-0.379-0.078-0.55c-0.38-0.688-1.236-0.929-1.975-0.789c-0.18,0.034-0.287,0.126-0.442,0.207
					c-0.17,0.088-0.139,0.166-0.318,0.224c-0.081,0.026-0.216,0.124-0.215,0.224c0.001,0.115,0.005,0.051,0.012,0.169
					c-0.021,0.011-0.021-0.005-0.03-0.025"/>
			</g>
		</g>
		<g>
			<path fill="#FFFFFF" d="M69.439-2.778c0.018,0.072,0.008,0.127-0.026,0.19C69.361-2.487,69.3-2.525,69.248-2.46
				c-0.051,0.063-0.099,0.276-0.079,0.362C69-2.04,69.159-1.871,69.154-1.748c-0.002,0.05-0.041,0.105-0.045,0.161
				c-0.01,0.119,0.017,0.266,0.068,0.37c0.097,0.198,0.268,0.413,0.435,0.544c0.19,0.148,0.365,0.572,0.608,0.631
				C70.397,0,70.604-0.146,70.763-0.185c0.18-0.043,0.397,0.01,0.571-0.053c0.222-0.079,0.127-0.337,0.288-0.45
				c0.104-0.074,0.287-0.01,0.406-0.051c0.2-0.07,0.339-0.263,0.376-0.46c0.016-0.082,0.01-0.145,0.039-0.221
				c0.038-0.103,0.111-0.16,0.09-0.293c-0.01-0.062-0.051-0.12-0.064-0.187c-0.021-0.114,0.002-0.224,0-0.337
				c-0.003-0.2,0.017-0.379-0.078-0.55c-0.38-0.688-1.236-0.929-1.975-0.789c-0.18,0.034-0.287,0.126-0.442,0.207
				c-0.17,0.088-0.139,0.166-0.318,0.224c-0.081,0.026-0.215,0.124-0.215,0.224c0.002,0.115,0.005,0.051,0.012,0.169
				c-0.021,0.011-0.021-0.005-0.03-0.025"/>
			<path fill="#FFFFFF" d="M61.778-2.778c0.018,0.072,0.007,0.127-0.026,0.19C61.7-2.487,61.64-2.525,61.587-2.46
				c-0.05,0.063-0.099,0.276-0.079,0.362c-0.169,0.058-0.01,0.227-0.015,0.35c-0.002,0.05-0.041,0.105-0.045,0.161
				c-0.01,0.119,0.017,0.266,0.068,0.37c0.097,0.198,0.268,0.413,0.435,0.544c0.19,0.148,0.365,0.572,0.608,0.631
				C62.737,0,62.943-0.146,63.103-0.185c0.18-0.043,0.397,0.01,0.571-0.053c0.222-0.079,0.127-0.337,0.288-0.45
				c0.104-0.074,0.287-0.01,0.406-0.051c0.2-0.069,0.339-0.263,0.376-0.46c0.016-0.082,0.01-0.145,0.039-0.221
				c0.039-0.103,0.111-0.16,0.09-0.293c-0.01-0.062-0.052-0.12-0.064-0.187c-0.022-0.114,0.002-0.224,0-0.337
				c-0.003-0.2,0.017-0.379-0.078-0.55c-0.38-0.688-1.236-0.929-1.975-0.789c-0.18,0.034-0.287,0.126-0.442,0.207
				c-0.17,0.088-0.139,0.166-0.318,0.224C61.915-3.117,61.78-3.02,61.781-2.92c0.001,0.115,0.005,0.051,0.012,0.169
				c-0.021,0.011-0.021-0.005-0.03-0.025"/>
			<path fill="#FFFFFF" d="M54.118-2.778c0.018,0.072,0.007,0.127-0.026,0.19C54.04-2.487,53.98-2.525,53.927-2.46
				c-0.05,0.063-0.099,0.276-0.079,0.362c-0.169,0.058-0.01,0.227-0.015,0.35c-0.002,0.05-0.041,0.105-0.045,0.161
				c-0.01,0.119,0.017,0.266,0.068,0.37c0.097,0.198,0.268,0.413,0.435,0.544c0.19,0.148,0.365,0.572,0.608,0.631
				C55.077,0,55.283-0.146,55.442-0.185c0.18-0.043,0.397,0.01,0.571-0.053c0.222-0.079,0.127-0.337,0.288-0.45
				c0.104-0.074,0.287-0.01,0.406-0.051c0.2-0.069,0.339-0.263,0.376-0.46c0.016-0.082,0.01-0.145,0.039-0.221
				c0.039-0.103,0.111-0.16,0.09-0.293c-0.01-0.062-0.052-0.12-0.064-0.187c-0.022-0.114,0.002-0.224,0-0.337
				c-0.003-0.2,0.017-0.379-0.078-0.55c-0.38-0.688-1.236-0.929-1.975-0.789c-0.18,0.034-0.287,0.126-0.442,0.207
				c-0.17,0.088-0.139,0.166-0.318,0.224C54.255-3.117,54.12-3.02,54.121-2.92c0.001,0.115,0.005,0.051,0.012,0.169
				c-0.021,0.011-0.021-0.005-0.03-0.025"/>
			<path fill="#FFFFFF" d="M46.458-2.778c0.018,0.072,0.007,0.127-0.026,0.19c-0.053,0.101-0.112,0.063-0.165,0.128
				c-0.05,0.063-0.099,0.276-0.079,0.362c-0.169,0.058-0.01,0.227-0.015,0.35c-0.002,0.05-0.041,0.105-0.045,0.161
				c-0.01,0.119,0.017,0.266,0.068,0.37c0.097,0.198,0.268,0.413,0.435,0.544c0.19,0.148,0.365,0.572,0.608,0.631
				C47.416,0,47.623-0.146,47.782-0.185c0.18-0.043,0.397,0.01,0.571-0.053c0.222-0.079,0.127-0.337,0.288-0.45
				c0.104-0.074,0.287-0.01,0.406-0.051c0.2-0.069,0.339-0.263,0.376-0.46c0.016-0.082,0.01-0.145,0.039-0.221
				c0.039-0.103,0.111-0.16,0.09-0.293c-0.01-0.062-0.052-0.12-0.064-0.187c-0.022-0.114,0.002-0.224,0-0.337
				c-0.003-0.2,0.017-0.379-0.078-0.55c-0.38-0.688-1.236-0.929-1.975-0.789c-0.18,0.034-0.287,0.126-0.442,0.207
				c-0.17,0.088-0.139,0.166-0.318,0.224C46.594-3.117,46.459-3.02,46.46-2.92c0.001,0.115,0.005,0.051,0.012,0.169
				c-0.021,0.011-0.021-0.005-0.03-0.025"/>
			<path fill="#FFFFFF" d="M38.797-2.778c0.018,0.072,0.007,0.127-0.026,0.19c-0.053,0.101-0.112,0.063-0.165,0.128
				c-0.05,0.063-0.099,0.276-0.079,0.362c-0.169,0.058-0.01,0.227-0.015,0.35c-0.002,0.05-0.041,0.105-0.045,0.161
				c-0.01,0.119,0.017,0.266,0.068,0.37c0.097,0.198,0.268,0.413,0.435,0.544c0.19,0.148,0.365,0.572,0.608,0.631
				C39.756,0,39.962-0.146,40.122-0.185c0.18-0.043,0.397,0.01,0.571-0.053c0.222-0.079,0.127-0.337,0.288-0.45
				c0.104-0.074,0.287-0.01,0.406-0.051c0.2-0.069,0.339-0.263,0.376-0.46c0.016-0.082,0.01-0.145,0.039-0.221
				c0.039-0.103,0.111-0.16,0.09-0.293c-0.01-0.062-0.052-0.12-0.064-0.187c-0.022-0.114,0.002-0.224,0-0.337
				c-0.003-0.2,0.017-0.379-0.078-0.55c-0.38-0.688-1.236-0.929-1.975-0.789c-0.18,0.034-0.287,0.126-0.442,0.207
				c-0.17,0.088-0.139,0.166-0.318,0.224C38.934-3.117,38.799-3.02,38.8-2.92c0.001,0.115,0.005,0.051,0.012,0.169
				c-0.021,0.011-0.021-0.005-0.03-0.025"/>
			<path fill="#FFFFFF" d="M31.137-2.778c0.018,0.072,0.007,0.127-0.026,0.19c-0.053,0.101-0.112,0.063-0.165,0.128
				c-0.05,0.063-0.099,0.276-0.079,0.362c-0.169,0.058-0.01,0.227-0.015,0.35c-0.002,0.05-0.041,0.105-0.045,0.161
				c-0.01,0.119,0.017,0.266,0.068,0.37c0.097,0.198,0.268,0.413,0.435,0.544c0.19,0.148,0.365,0.572,0.608,0.631
				C32.095,0,32.302-0.146,32.461-0.185c0.18-0.043,0.397,0.01,0.571-0.053c0.222-0.079,0.127-0.337,0.288-0.45
				c0.104-0.074,0.287-0.01,0.406-0.051c0.2-0.069,0.339-0.263,0.376-0.46c0.016-0.082,0.01-0.145,0.039-0.221
				c0.039-0.103,0.111-0.16,0.09-0.293c-0.01-0.062-0.052-0.12-0.064-0.187c-0.022-0.114,0.002-0.224,0-0.337
				c-0.003-0.2,0.017-0.379-0.078-0.55c-0.38-0.688-1.236-0.929-1.975-0.789c-0.18,0.034-0.287,0.126-0.442,0.207
				c-0.17,0.088-0.139,0.166-0.318,0.224C31.273-3.117,31.139-3.02,31.14-2.92c0.001,0.115,0.005,0.051,0.012,0.169
				c-0.021,0.011-0.021-0.005-0.03-0.025"/>
			<path fill="#FFFFFF" d="M23.477-2.778c0.018,0.072,0.007,0.127-0.026,0.19c-0.053,0.101-0.112,0.063-0.165,0.128
				c-0.05,0.063-0.099,0.276-0.079,0.362c-0.169,0.058-0.01,0.227-0.015,0.35c-0.002,0.05-0.041,0.105-0.045,0.161
				c-0.01,0.119,0.017,0.266,0.068,0.37c0.097,0.198,0.268,0.413,0.435,0.544c0.19,0.148,0.365,0.572,0.608,0.631
				C24.435,0,24.642-0.146,24.801-0.185c0.18-0.043,0.397,0.01,0.571-0.053c0.222-0.079,0.127-0.337,0.288-0.45
				c0.104-0.074,0.287-0.01,0.406-0.051c0.2-0.069,0.339-0.263,0.376-0.46c0.016-0.082,0.01-0.145,0.039-0.221
				c0.039-0.103,0.111-0.16,0.09-0.293c-0.01-0.062-0.052-0.12-0.064-0.187c-0.022-0.114,0.002-0.224,0-0.337
				c-0.003-0.2,0.017-0.379-0.078-0.55c-0.38-0.688-1.236-0.929-1.975-0.789c-0.18,0.034-0.287,0.126-0.442,0.207
				c-0.17,0.088-0.139,0.166-0.318,0.224c-0.081,0.026-0.216,0.124-0.215,0.224c0.001,0.115,0.005,0.051,0.012,0.169
				c-0.021,0.011-0.021-0.005-0.03-0.025"/>
			<path fill="#FFFFFF" d="M15.816-2.778c0.018,0.072,0.007,0.127-0.026,0.19c-0.053,0.101-0.112,0.063-0.165,0.128
				c-0.05,0.063-0.099,0.276-0.079,0.362c-0.169,0.058-0.01,0.227-0.015,0.35c-0.002,0.05-0.041,0.105-0.045,0.161
				c-0.01,0.119,0.017,0.266,0.068,0.37c0.097,0.198,0.268,0.413,0.435,0.544c0.19,0.148,0.365,0.572,0.608,0.631
				C16.774,0,16.981-0.146,17.14-0.185c0.18-0.043,0.397,0.01,0.571-0.053c0.222-0.079,0.127-0.337,0.288-0.45
				c0.104-0.074,0.287-0.01,0.406-0.051c0.2-0.069,0.339-0.263,0.376-0.46c0.016-0.082,0.01-0.145,0.039-0.221
				c0.039-0.103,0.111-0.16,0.09-0.293c-0.01-0.062-0.052-0.12-0.064-0.187c-0.022-0.114,0.002-0.224,0-0.337
				c-0.003-0.2,0.017-0.379-0.078-0.55c-0.38-0.688-1.236-0.929-1.975-0.789c-0.18,0.034-0.287,0.126-0.442,0.207
				c-0.17,0.088-0.139,0.166-0.318,0.224c-0.081,0.026-0.216,0.124-0.215,0.224c0.001,0.115,0.005,0.051,0.012,0.169
				C15.81-2.74,15.809-2.756,15.8-2.776"/>
			<path fill="#FFFFFF" d="M8.156-2.778c0.018,0.072,0.007,0.127-0.026,0.19C8.077-2.487,8.018-2.525,7.965-2.46
				c-0.05,0.063-0.099,0.276-0.079,0.362c-0.169,0.058-0.01,0.227-0.015,0.35C7.868-1.698,7.83-1.643,7.826-1.587
				c-0.01,0.119,0.017,0.266,0.068,0.37c0.097,0.198,0.268,0.413,0.435,0.544c0.19,0.148,0.365,0.572,0.608,0.631
				C9.114,0,9.321-0.146,9.48-0.185c0.18-0.043,0.397,0.01,0.571-0.053c0.222-0.079,0.127-0.337,0.288-0.45
				c0.104-0.074,0.287-0.01,0.406-0.051c0.2-0.069,0.339-0.263,0.376-0.46c0.016-0.082,0.01-0.145,0.039-0.221
				c0.039-0.103,0.111-0.16,0.09-0.293c-0.01-0.062-0.052-0.12-0.064-0.187c-0.022-0.114,0.002-0.224,0-0.337
				c-0.003-0.2,0.017-0.379-0.078-0.55c-0.38-0.688-1.236-0.929-1.975-0.789C8.954-3.54,8.847-3.448,8.692-3.367
				c-0.17,0.088-0.139,0.166-0.318,0.224C8.292-3.117,8.158-3.02,8.159-2.92C8.16-2.805,8.164-2.869,8.17-2.751
				C8.15-2.74,8.149-2.756,8.14-2.776"/>
			<path fill="#FFFFFF" d="M0.495-2.778c0.018,0.072,0.008,0.127-0.026,0.19C0.417-2.487,0.356-2.525,0.304-2.46
				C0.253-2.397,0.205-2.184,0.225-2.098C0.056-2.04,0.215-1.871,0.21-1.748c-0.002,0.05-0.041,0.105-0.045,0.161
				c-0.01,0.119,0.017,0.266,0.068,0.37C0.33-1.019,0.501-0.804,0.668-0.673c0.19,0.148,0.365,0.572,0.608,0.631
				C1.454,0,1.66-0.146,1.819-0.185C2-0.228,2.217-0.175,2.391-0.237c0.222-0.079,0.127-0.337,0.288-0.45
				c0.104-0.074,0.287-0.01,0.406-0.051c0.2-0.07,0.339-0.263,0.376-0.46C3.477-1.28,3.471-1.343,3.5-1.419
				c0.038-0.103,0.111-0.16,0.09-0.293c-0.01-0.062-0.051-0.12-0.064-0.187c-0.021-0.114,0.002-0.224,0-0.337
				c-0.003-0.2,0.017-0.379-0.078-0.55c-0.38-0.688-1.236-0.929-1.975-0.789C1.293-3.54,1.187-3.448,1.031-3.367
				c-0.17,0.088-0.139,0.166-0.318,0.224C0.632-3.117,0.498-3.02,0.498-2.92C0.5-2.805,0.503-2.869,0.51-2.751
				C0.489-2.74,0.488-2.756,0.479-2.776"/>
		</g>
	</g>
</pattern>
<path fill="#fff" d="M51.524,18.14c0-3.116-0.821-6.232-2.459-9.069C45.789,3.393,39.91-0.001,33.355,0
	c-3.659,0-7.106,1.058-10.009,2.979C20.867,1.066,17.796,0,14.513,0C9.277-0.001,4.581,2.71,1.964,7.246
	C0.655,9.513,0,12.001,0,14.491c0,2.489,0.655,4.979,1.964,7.246l11.785,20.412c0.158,0.273,0.449,0.441,0.764,0.441
	c0.315,0,0.607-0.168,0.765-0.441l5.496-9.52l11.625,20.134c0.197,0.342,0.562,0.553,0.957,0.553s0.76-0.211,0.957-0.553
	L49.065,27.21C50.703,24.372,51.524,21.256,51.524,18.14z M14.513,39.942L3.493,20.854c-1.15-1.994-1.725-4.178-1.725-6.363
	s0.575-4.369,1.725-6.363C5.795,4.142,9.91,1.766,14.513,1.766c2.708,0,5.246,0.824,7.347,2.312
	c-1.062,0.874-2.03,1.876-2.884,2.996C17.678,6.268,16.15,5.8,14.514,5.8c-4.678,0-8.482,3.804-8.482,8.482
	c0,4.678,3.805,8.481,8.482,8.482c0.428,0,0.849-0.033,1.26-0.094c0.41,1.562,1.033,3.088,1.872,4.541l2.109,3.652L14.513,39.942z
	 M15.447,21.164c-0.306,0.042-0.617,0.065-0.934,0.065c-1.916,0-3.652-0.779-4.911-2.037c-1.258-1.259-2.037-2.995-2.037-4.91
	c0-1.916,0.779-3.652,2.037-4.91c1.259-1.258,2.995-2.038,4.911-2.038c1.311,0,2.536,0.366,3.583,0.999
	c-0.155,0.242-0.306,0.486-0.451,0.737c-1.639,2.837-2.459,5.954-2.459,9.069C15.187,19.151,15.274,20.162,15.447,21.164z
	 M33.355,50L19.56,26.105c-1.441-2.496-2.16-5.23-2.16-7.965c0-2.734,0.719-5.469,2.16-7.964c2.882-4.99,8.033-7.964,13.795-7.965
	c5.763,0.001,10.914,2.976,13.796,7.965c1.44,2.495,2.16,5.23,2.16,7.965c0,2.734-0.72,5.469-2.16,7.965L33.355,50z M33.355,7.261
	c-5.855,0-10.618,4.762-10.618,10.618S27.5,28.496,33.355,28.497c5.855-0.001,10.617-4.763,10.618-10.618
	C43.972,12.023,39.21,7.261,33.355,7.261z M39.501,24.025c-1.575,1.576-3.748,2.551-6.146,2.551c-2.398,0-4.571-0.975-6.147-2.551
	s-2.55-3.749-2.55-6.146c0-2.398,0.975-4.571,2.55-6.147c1.576-1.575,3.749-2.55,6.147-2.55c2.398,0,4.571,0.975,6.147,2.55
	c1.575,1.576,2.55,3.749,2.55,6.147C42.052,20.276,41.078,22.449,39.501,24.025z M64.801,7.246C62.184,2.71,57.488-0.001,52.251,0
	c-3.286,0-6.36,1.068-8.841,2.986c0.512,0.34,1.008,0.706,1.484,1.099c2.103-1.493,4.645-2.318,7.356-2.319
	c4.604,0,8.718,2.376,11.021,6.362c1.151,1.994,1.726,4.178,1.726,6.363s-0.574,4.369-1.726,6.363L52.251,39.942l-5.25-9.095
	l-1.02,1.766l5.506,9.535c0.157,0.273,0.448,0.441,0.764,0.441s0.606-0.168,0.765-0.441l11.785-20.412
	c1.309-2.267,1.964-4.756,1.964-7.246S66.11,9.512,64.801,7.246z M52.251,21.229c-0.322,0-0.641-0.023-0.952-0.066
	c-0.087,0.504-0.195,1.006-0.326,1.504c0.417,0.063,0.844,0.097,1.278,0.097c4.678,0,8.481-3.804,8.482-8.482
	C60.733,9.604,56.929,5.8,52.251,5.8c-1.642,0-3.175,0.47-4.475,1.281c0.308,0.405,0.601,0.825,0.878,1.259
	c1.05-0.638,2.281-1.006,3.597-1.006c1.916,0,3.652,0.779,4.91,2.038c1.259,1.258,2.037,2.994,2.037,4.91
	c0,1.916-0.778,3.651-2.037,4.91C55.904,20.45,54.167,21.229,52.251,21.229z"/>
</svg>
