<?xml version="1.0" encoding="utf-8"?>
<!-- Generator: Adobe Illustrator 13.0.0, SVG Export Plug-In . SVG Version: 6.00 Build 14948)  -->
<!DOCTYPE svg PUBLIC "-//W3C//DTD SVG 1.1//EN" "http://www.w3.org/Graphics/SVG/1.1/DTD/svg11.dtd">
<svg version="1.1" id="Layer_1" xmlns="http://www.w3.org/2000/svg" xmlns:xlink="http://www.w3.org/1999/xlink" x="0px" y="0px"
	 width="497.781px" height="85.325px" viewBox="0 0 497.781 85.325" enable-background="new 0 0 497.781 85.325"
	 xml:space="preserve">
<g>
	<path fill="#fff" d="M316.294,1.552l-57.066,25.534c-0.948,0.425-1.61-1.05-0.659-1.476l57.065-25.534
		C316.583-0.349,317.245,1.126,316.294,1.552"/>
	<path fill="#fff" d="M322.956,27.964l-62.045,7.676c-1.032,0.127-1.232-1.477-0.198-1.605l62.045-7.676
		C323.79,26.232,323.989,27.836,322.956,27.964"/>
	<path fill="#fff" d="M353.443,24.193l-19.79,2.448c-1.033,0.128-1.233-1.477-0.199-1.604l19.791-2.449
		C354.277,22.461,354.478,24.065,353.443,24.193"/>
	<path fill="#fff" d="M282.115,25.494l-21.966,5.464c-1.01,0.251-1.401-1.318-0.391-1.57l21.967-5.463
		C282.734,23.674,283.127,25.243,282.115,25.494"/>
	<path fill="#fff" d="M323.434,15.218l-32.95,8.195c-1.009,0.251-1.401-1.317-0.39-1.569l32.949-8.195
		C324.053,13.397,324.444,14.966,323.434,15.218"/>
	<path fill="#fff" d="M338.077,11.575l-7.321,1.821c-1.01,0.251-1.402-1.317-0.391-1.569l7.322-1.821
		C338.696,9.755,339.089,11.323,338.077,11.575"/>
	<path fill="#fff" d="M166.257,1.552l57.065,25.534c0.95,0.425,1.612-1.05,0.661-1.476L166.917,0.076
		C165.968-0.349,165.306,1.126,166.257,1.552"/>
	<path fill="#fff" d="M159.595,27.964l62.045,7.676c1.032,0.127,1.232-1.477,0.198-1.605l-62.045-7.676
		C158.761,26.232,158.561,27.836,159.595,27.964"/>
	<path fill="#fff" d="M129.107,24.193l19.79,2.448c1.033,0.128,1.233-1.477,0.199-1.604l-19.79-2.449
		C128.273,22.461,128.074,24.065,129.107,24.193"/>
	<path fill="#fff" d="M200.435,25.494l21.966,5.464c1.01,0.251,1.402-1.318,0.391-1.57l-21.967-5.463
		C199.816,23.674,199.424,25.243,200.435,25.494"/>
	<path fill="#fff" d="M159.117,15.218l32.95,8.195c1.009,0.251,1.401-1.317,0.39-1.569l-32.95-8.195
		C158.498,13.397,158.106,14.966,159.117,15.218"/>
	<path fill="#fff" d="M144.473,11.575l7.322,1.821c1.01,0.251,1.402-1.317,0.39-1.569l-7.322-1.821
		C143.854,9.755,143.462,11.323,144.473,11.575"/>
	<path fill="#fff" d="M441.83,53.868c0.229-0.482,0.915-0.482,1.145,0l6.901,14.539l7.044,14.839
		c0.199,0.421-0.106,0.905-0.571,0.905h-1.802h-2.403c-0.244,0-0.467-0.141-0.572-0.361l-5.899-12.43l-5.943-12.521
		c-0.082-0.172-0.082-0.37,0-0.543l1.272-2.681L441.83,53.868z M435.676,39.586c-0.158,0-0.311,0.046-0.439,0.127
		c-0.129,0.082-0.235,0.199-0.303,0.342l-10.466,22.048l-10.036,21.143c-0.2,0.421,0.106,0.905,0.572,0.905h1.802h2.402
		c0.244,0,0.468-0.141,0.572-0.361l9.263-19.516l9.307-19.606c0.082-0.172,0.082-0.371,0-0.543l-0.901-1.899l-1.031-2.171
		c-0.067-0.143-0.174-0.26-0.303-0.342C435.985,39.632,435.834,39.586,435.676,39.586"/>
	<path fill="#fff" d="M65.343,64.414c-0.349,0-0.633-0.283-0.633-0.634v-1.896v-1.898c0-0.35,0.284-0.633,0.633-0.633h4.302
		h5.301c0.35,0,0.633,0.283,0.633,0.633v1.898v1.896c0,0.351-0.283,0.634-0.633,0.634h-5.301H65.343z M52.058,83.519
		c0,0.349,0.283,0.633,0.633,0.633h12.652h13.652c0.35,0,0.633-0.284,0.633-0.633V81.62v-1.897c0-0.349-0.283-0.632-0.633-0.632
		H67.873H57.752c-0.35,0-0.633-0.284-0.633-0.633V61.884V45.309c0-0.349,0.283-0.633,0.633-0.633h10.121h11.122
		c0.35,0,0.633-0.283,0.633-0.632v-1.898v-1.898c0-0.349-0.283-0.632-0.633-0.632H65.343H52.691c-0.35,0-0.633,0.283-0.633,0.632
		v21.636V83.519z"/>
	<path fill="#fff" d="M120.519,61.183c-0.312-0.22-0.353-0.669-0.087-0.941c0.977-1.003,1.784-2.173,2.371-3.46
		c0.693-1.521,1.079-3.209,1.079-4.988c0-3.345-1.36-6.379-3.557-8.576c-2.197-2.197-5.231-3.558-8.577-3.558h-11.101h-8.468
		c-0.349,0-0.632,0.283-0.632,0.632v8.399v8.401c0,0.349,0.283,0.632,0.632,0.632h1.896h1.896c0.349,0,0.632-0.283,0.632-0.632
		v-5.873v-5.872c0-0.349,0.283-0.632,0.632-0.632h7.941h6.572c1.952,0,3.721,0.794,5.003,2.075c1.282,1.282,2.075,3.052,2.075,5.003
		s-0.793,3.721-2.075,5.003c-1.282,1.282-3.051,2.075-5.003,2.075h-1.517h-0.885c-0.349,0-0.631,0.284-0.631,0.632v1.896v1.896
		c0,0.349,0.282,0.632,0.631,0.632h0.885h1.517h0.759h0.758c2.091,0,3.987,0.851,5.36,2.224c1.373,1.373,2.224,3.27,2.224,5.36
		c0,2.092-0.851,3.988-2.224,5.361c-1.373,1.373-3.269,2.223-5.36,2.223h-7.331h-8.699c-0.349,0-0.632-0.282-0.632-0.632v-6.262
		v-6.262c0-0.349-0.283-0.632-0.632-0.632h-1.896h-1.896c-0.349,0-0.632,0.283-0.632,0.632v8.789v8.79
		c0,0.35,0.283,0.632,0.632,0.632h9.227h11.859c3.485,0,6.645-1.417,8.934-3.706c2.288-2.288,3.706-5.448,3.706-8.934
		c0-2.269-0.603-4.397-1.657-6.238C123.32,63.651,122.042,62.255,120.519,61.183"/>
	<path fill="#fff" d="M36.556,72.79c0.205-0.273,0.585-0.34,0.864-0.145l1.55,1.087l1.53,1.073
		c0.287,0.201,0.357,0.603,0.148,0.883c-2.088,2.807-4.762,5.06-7.785,6.635c-3.207,1.671-6.806,2.579-10.515,2.579
		c-5.647,0-10.815-2.064-14.796-5.478c-3.798-3.257-6.516-7.74-7.54-12.829c-0.078-0.385,0.226-0.743,0.618-0.743h1.787h2.048
		c0.29,0,0.537,0.201,0.605,0.482c0.935,3.806,3.095,7.135,6.037,9.541c3.065,2.508,6.98,4.014,11.241,4.014
		c2.893,0,5.701-0.71,8.203-2.015C32.876,76.663,34.938,74.937,36.556,72.79 M22.348,39.284c-5.647,0-10.814,2.065-14.796,5.479
		c-3.797,3.255-6.515,7.738-7.54,12.827c-0.077,0.385,0.226,0.743,0.618,0.743h1.788h2.047c0.29,0,0.537-0.201,0.606-0.482
		c0.935-3.805,3.095-7.134,6.036-9.54c3.066-2.508,6.98-4.014,11.241-4.014c2.892,0,5.7,0.71,8.202,2.015
		c2.325,1.213,4.387,2.939,6.006,5.087c0.205,0.272,0.585,0.341,0.864,0.145l1.55-1.087l1.53-1.073
		c0.287-0.202,0.357-0.602,0.148-0.884c-2.088-2.806-4.762-5.058-7.785-6.634C29.656,40.194,26.056,39.284,22.348,39.284"/>
	<path fill="#fff" d="M483.243,83.998h-10.272h-7.645c-0.347,0-0.626-0.281-0.626-0.627v-7.646v-7.645
		c0-0.346,0.279-0.626,0.626-0.626h1.88h1.88c0.346,0,0.627,0.28,0.627,0.626v5.139v5.138c0,0.347,0.28,0.628,0.626,0.628h5.139
		h7.766c2.626,0,5.007-1.069,6.731-2.793c1.726-1.726,2.793-4.106,2.793-6.732s-1.067-5.007-2.793-6.732
		c-1.725-1.725-4.105-2.793-6.731-2.793h-3.446h-5.447h-4.825h-4.198c-0.347,0-0.626-0.28-0.626-0.627v-9.398v-9.4
		c0-0.346,0.279-0.626,0.626-0.626h1.88h1.88c0.346,0,0.627,0.28,0.627,0.626v6.894v6.893c0,0.346,0.28,0.627,0.626,0.627h5.139
		h7.766c4.008,0,7.643,1.63,10.274,4.263c2.633,2.633,4.264,6.268,4.264,10.275s-1.631,7.643-4.264,10.275
		C490.886,82.368,487.251,83.998,483.243,83.998"/>
	<path fill="#fff" d="M159.164,53.868c0.229-0.482,0.915-0.482,1.144,0l6.902,14.539l7.044,14.839
		c0.199,0.421-0.107,0.905-0.572,0.905h-1.802h-2.403c-0.245,0-0.467-0.141-0.572-0.361l-5.9-12.43l-5.943-12.521
		c-0.082-0.172-0.082-0.37,0-0.543l1.273-2.681L159.164,53.868z M153.009,39.586c-0.158,0-0.31,0.046-0.439,0.127
		c-0.129,0.082-0.235,0.199-0.303,0.342l-10.466,22.048l-10.036,21.143c-0.2,0.421,0.107,0.905,0.572,0.905h1.802h2.403
		c0.244,0,0.467-0.141,0.572-0.361l9.263-19.516l9.306-19.606c0.082-0.172,0.082-0.371,0-0.543l-0.901-1.899l-1.031-2.171
		c-0.068-0.143-0.174-0.26-0.303-0.342C153.319,39.632,153.168,39.586,153.009,39.586"/>
	<path fill="#fff" d="M411.467,62.094c0,5.646-2.063,10.813-5.478,14.796c-3.256,3.797-7.739,6.515-12.828,7.54
		c-0.384,0.076-0.743-0.227-0.743-0.618v-1.787v-2.048c0-0.29,0.201-0.537,0.483-0.606c3.805-0.935,7.133-3.095,9.539-6.036
		c2.508-3.065,4.014-6.979,4.014-11.24c0-4.262-1.506-8.176-4.014-11.24c-2.406-2.942-5.734-5.103-9.539-6.037
		c-0.282-0.069-0.483-0.316-0.483-0.606v-2.047v-1.787c0-0.392,0.359-0.696,0.743-0.618c5.089,1.024,9.572,3.742,12.828,7.54
		C409.403,51.279,411.467,56.447,411.467,62.094 M365.848,62.094c0,5.646,2.065,10.814,5.479,14.797
		c3.256,3.797,7.74,6.515,12.829,7.539c0.384,0.077,0.743-0.227,0.743-0.618v-1.787v-2.047c0-0.29-0.201-0.537-0.483-0.606
		c-3.805-0.935-7.134-3.095-9.541-6.036c-2.508-3.065-4.014-6.979-4.014-11.241s1.506-8.176,4.014-11.241
		c2.407-2.942,5.736-5.103,9.541-6.036c0.282-0.069,0.483-0.316,0.483-0.606v-2.047v-1.788c0-0.392-0.359-0.695-0.743-0.618
		c-5.089,1.024-9.573,3.742-12.829,7.54C367.913,51.278,365.848,56.446,365.848,62.094"/>
	<path fill="#fff" d="M149.01,74.247c-0.349,0-0.633-0.283-0.633-0.633v-1.898v-1.896c0-0.35,0.284-0.634,0.633-0.634h4.302
		h4.302c0.349,0,0.632,0.284,0.632,0.634v1.896v1.898c0,0.35-0.283,0.633-0.632,0.633h-4.302H149.01z"/>
	<path fill="#fff" d="M309.69,62.094c0,5.646-2.064,10.813-5.478,14.796c-3.256,3.797-7.739,6.515-12.828,7.54
		c-0.385,0.076-0.743-0.227-0.743-0.618v-1.787v-2.048c0-0.29,0.201-0.537,0.482-0.606c3.805-0.935,7.134-3.095,9.54-6.036
		c2.508-3.065,4.014-6.979,4.014-11.24c0-4.262-1.506-8.176-4.014-11.24c-2.406-2.942-5.735-5.103-9.54-6.037
		c-0.281-0.069-0.482-0.316-0.482-0.606v-2.047v-1.787c0-0.392,0.358-0.696,0.743-0.618c5.089,1.024,9.572,3.742,12.828,7.54
		C307.626,51.279,309.69,56.447,309.69,62.094"/>
	<path fill="#fff" d="M264.071,62.094c0,5.646,2.065,10.814,5.479,14.797c3.256,3.797,7.739,6.515,12.829,7.539
		c0.384,0.077,0.742-0.227,0.742-0.618v-1.787v-2.047c0-0.29-0.2-0.537-0.482-0.606c-3.805-0.935-7.134-3.095-9.541-6.036
		c-2.507-3.065-4.014-6.979-4.014-11.241s1.507-8.176,4.014-11.241c2.407-2.942,5.736-5.103,9.541-6.036
		c0.282-0.069,0.482-0.316,0.482-0.606v-2.047v-1.788c0-0.392-0.358-0.695-0.742-0.618c-5.09,1.024-9.573,3.742-12.829,7.54
		C266.137,51.278,264.071,56.446,264.071,62.094"/>
	<path fill="#fff" d="M216.71,72.79c0.205-0.273,0.585-0.34,0.864-0.145l1.55,1.087l1.53,1.073
		c0.287,0.201,0.357,0.603,0.148,0.883c-2.088,2.807-4.762,5.06-7.785,6.635c-3.207,1.671-6.806,2.579-10.515,2.579
		c-5.647,0-10.815-2.064-14.796-5.478c-3.798-3.257-6.515-7.74-7.54-12.829c-0.077-0.385,0.226-0.743,0.618-0.743h1.787h2.048
		c0.29,0,0.537,0.201,0.606,0.482c0.934,3.806,3.094,7.135,6.036,9.541c3.065,2.508,6.98,4.014,11.241,4.014
		c2.893,0,5.701-0.71,8.203-2.015C213.031,76.663,215.092,74.937,216.71,72.79 M202.502,39.284c-5.647,0-10.814,2.065-14.796,5.479
		c-3.797,3.255-6.515,7.738-7.54,12.827c-0.077,0.385,0.226,0.743,0.619,0.743h1.787h2.047c0.29,0,0.537-0.201,0.606-0.482
		c0.935-3.805,3.095-7.134,6.036-9.54c3.066-2.508,6.98-4.014,11.241-4.014c2.892,0,5.7,0.71,8.202,2.015
		c2.326,1.213,4.387,2.939,6.006,5.087c0.205,0.272,0.585,0.341,0.864,0.145l1.55-1.087l1.53-1.073
		c0.287-0.202,0.357-0.602,0.148-0.884c-2.088-2.806-4.762-5.058-7.785-6.634C209.811,40.194,206.21,39.284,202.502,39.284"/>
	<path fill="#fff" d="M323.895,39.67h-1.902h-1.901c-0.351,0-0.635,0.284-0.635,0.634v21.683v21.684
		c0,0.35,0.284,0.634,0.635,0.634h1.901h1.902c0.35,0,0.634-0.284,0.634-0.634V61.987V40.305
		C324.528,39.955,324.244,39.67,323.895,39.67"/>
	<path fill="#fff" d="M354.313,39.67h-0.689h-1.213h-1.902h-18.707c-0.688,0-1.25,0.562-1.25,1.25v2.572
		c0,0.688,0.563,1.25,1.25,1.25h18.073v4.819v9.256v6.34v9.256v9.258c0,0.35,0.284,0.634,0.634,0.634h1.902h1.902
		c0.35,0,0.634-0.284,0.634-0.634V61.987V40.305C354.946,39.955,354.662,39.67,354.313,39.67"/>
	<path fill="#fff" d="M230.408,82.386h22.353l-2.886-49.393v-6.932h1.667v-3.388l-9.919-5.047l-9.833,4.953l-0.067,3.482h1.723
		l0.002,6.861L230.408,82.386z M233.679,23.778l7.922-4.009l8.029,4.065v0.315h-15.958L233.679,23.778z M250.708,80.475h-18.239
		l2.888-47.481v-6.895h12.607l0.002,6.964L250.708,80.475z"/>
	<path fill="#fff" d="M241.641,28.679c-1.584,0-2.872,1.289-2.872,2.873v4.788h5.744v-4.788
		C244.513,29.968,243.225,28.679,241.641,28.679 M242.602,34.429h-1.922v-2.877c0-0.531,0.431-0.962,0.961-0.962
		c0.53,0,0.961,0.431,0.961,0.962V34.429z"/>
	<path fill="#fff" d="M238.967,51.499c0-0.372,0.283-0.674,0.631-0.674h1.891h1.891c0.348,0,0.63,0.302,0.63,0.674v16.576v16.576
		c0,0.372-0.282,0.674-0.63,0.674h-1.891h-1.891c-0.348,0-0.631-0.302-0.631-0.674V68.075V51.499z M257.483,45.035
		c0.348,0,0.63-0.282,0.63-0.63v-1.892v-1.891c0-0.348-0.282-0.631-0.63-0.631h-15.994h-15.994c-0.349,0-0.631,0.283-0.631,0.631
		v1.891v1.892c0,0.348,0.282,0.63,0.631,0.63h15.994H257.483z"/>
</g>
</svg>
