<svg width="644" height="448" viewBox="0 0 644 448" fill="none" xmlns="http://www.w3.org/2000/svg">
<path d="M0 311.82H66.02V447.81H44.59V333.1H21.43V447.81H0V311.82Z" fill="#38558E"/>
<path d="M76.26 447.81V311.67H97.69L96.9 389.98L117.23 323.64C118.39 319.96 120.46 317.05 123.45 314.89C126.44 312.74 129.83 311.66 133.61 311.66H143.22V447.8H121.79L122.58 369.49L102.25 435.83C101.09 439.51 99.02 442.42 96.03 444.57C93.04 446.72 89.65 447.8 85.87 447.8H76.26V447.81Z" fill="#38558E"/>
<path d="M153.48 311.82H197.44C203.64 311.82 208.6 313.69 212.33 317.41C216.06 321.14 217.92 326.1 217.92 332.3V374.69C217.92 380.89 216.05 385.85 212.33 389.58C208.6 393.31 203.64 395.17 197.44 395.17H174.91V447.8H153.48V311.82ZM174.9 333.09V373.74H190.5C192.18 373.74 193.6 373.16 194.75 372.01C195.91 370.86 196.48 369.44 196.48 367.76V339.08C196.48 337.4 195.9 335.98 194.75 334.83C193.59 333.68 192.18 333.1 190.5 333.1H174.9V333.09Z" fill="#38558E"/>
<path d="M238.41 328.68C239.25 323.53 241.48 319.38 245.11 316.23C248.73 313.08 253.17 311.5 258.42 311.5H273.86L295.29 447.8H273.07L269.45 421.64H245.66L242.04 447.64H219.82L238.41 328.68ZM248.65 400.38H266.46L257.64 337.51L248.65 400.38Z" fill="#38558E"/>
<path d="M301.75 447.81V311.67H323.97C327.75 311.67 330.96 312.8 333.58 315.06C336.21 317.32 337.78 320.34 338.31 324.12L350.13 408.74L361.79 324.12C362.31 320.34 363.89 317.32 366.52 315.06C369.14 312.8 372.35 311.67 376.13 311.67H398.35V447.81H376.13L378.65 342.87L361.47 447.81H338.62L321.44 342.87L323.96 447.81H301.75Z" fill="#38558E"/>
<path d="M408.58 447.81V311.67H430.01L429.22 389.98L449.55 323.64C450.71 319.96 452.78 317.05 455.77 314.89C458.76 312.74 462.15 311.66 465.93 311.66H475.54V447.8H454.11L454.9 369.49L434.57 435.83C433.41 439.51 431.34 442.42 428.35 444.57C425.36 446.72 421.97 447.8 418.19 447.8H408.58V447.81Z" fill="#38558E"/>
<path d="M487.68 426.38H497.29V332.15C497.29 325.95 499.15 320.99 502.88 317.26C506.61 313.53 511.57 311.67 517.77 311.67H561.58V447.81H480.59L487.68 426.38ZM540.16 426.38V333.1H524.72C523.15 333.1 521.75 333.71 520.54 334.91C519.33 336.12 518.73 337.51 518.73 339.08V426.38H540.16Z" fill="#38558E"/>
<path d="M586.95 328.68C587.79 323.53 590.02 319.38 593.65 316.23C597.27 313.08 601.71 311.5 606.96 311.5H622.4L643.83 447.8H621.61L617.99 421.64H594.2L590.58 447.64H568.36L586.95 328.68ZM597.2 400.38H615.01L606.19 337.51L597.2 400.38Z" fill="#38558E"/>
<path d="M309.25 38.6599C314.46 36.7599 318.72 39.73 318.72 45.28V112.85C318.66 121.37 313.75 123.82 308.29 124.8L269.45 131.8C263.99 132.78 259.51 129.06 259.49 123.51L259.28 66.9699C259.26 61.4299 263.51 55.34 268.72 53.44L309.25 38.6599Z" fill="#2A4F7C"/>
<path d="M247.13 60.0698C252.34 58.1698 256.6 61.1398 256.6 66.6898V124.56C256.54 133.08 251.63 135.53 246.17 136.51L207.33 143.51C201.87 144.49 197.39 140.77 197.37 135.22L197.16 88.3798C197.14 82.8398 201.39 76.7498 206.6 74.8498L247.13 60.0698Z" fill="#2A4F7C"/>
<path d="M308.79 130.52C314.25 129.55 318.72 133.3 318.72 138.84V184.97C318.72 190.51 314.34 195.25 301.4 195.58L301.11 195.59C295.57 195.76 286.5 196.05 280.96 196.22L269.84 196.58C264.3 196.76 259.75 192.37 259.73 186.82L259.59 149.27C259.57 143.73 264.02 138.4 269.48 137.44L308.79 130.52Z" fill="#2F6EAD"/>
<path d="M301.57 201.29C315.2 200.44 318.72 205.34 318.72 210.89V235.82C318.72 241.36 316.13 245.68 312.96 245.41C309.79 245.14 302.68 244.54 297.15 244.07L281.49 242.74C275.96 242.27 268.85 241.67 265.68 241.4C262.51 241.13 259.9 236.37 259.88 230.83L259.81 212.5C259.79 206.96 264.31 202.3 269.85 202.15L281.12 201.85C286.66 201.7 295.73 201.46 301.27 201.3L301.57 201.29Z" fill="#2A4F7C"/>
<path d="M248.5 141.12C253.45 140.26 256.8 144.21 256.8 149.75V186.91C256.8 189.52 255.01 194.1 251.81 196C248.21 198.14 243.01 197.44 240.07 197.54L219.34 198.25C213.8 198.44 206.53 198.69 203.2 198.81C199.86 198.93 197.11 194.49 197.09 188.94L196.98 160.11C196.96 155.95 196.48 152.16 202.18 149.61C204.08 148.76 208.32 148.14 211.29 147.57C216.69 146.64 225.52 145.11 230.92 144.17C236.32 143.24 245.55 141.64 248.5 141.12Z" fill="#2F6EAD"/>
<path d="M240.23 202.92C254.71 203.03 256.79 207.03 256.79 212.57V230.55C256.79 236.1 254.85 240.47 252.47 240.26C250.09 240.06 243.63 239.51 238.11 239.04L215.95 237.16C210.42 236.69 203.96 236.14 201.58 235.94C199.2 235.74 197.24 231.04 197.22 225.49L197.18 214.03C197.16 208.49 199.9 203.89 203.27 203.81C206.64 203.73 213.94 203.56 219.48 203.42L240.23 202.92Z" fill="#2A4F7C"/>
<path d="M161.91 214.03C161.89 209.26 165.77 205.3 170.54 205.23L187.12 204.98C191.89 204.91 195.79 208.75 195.79 213.52V226.15C195.79 230.92 195.01 234.75 194.05 234.67C193.1 234.59 188.52 234.54 183.77 234.14L174.07 233.47C169.32 233.07 164.65 232.88 163.7 232.8C162.75 232.72 161.96 228.05 161.94 223.28L161.91 214.03Z" fill="#2A4F7C"/>
<path d="M187.94 151.59C191.06 151.05 193.62 153.21 193.62 156.38V193.4C193.62 196.57 192.06 199.58 183.07 199.54L174.14 199.87C170.97 199.98 167.59 200.11 166.62 200.15C165.65 200.19 163.1 197.69 163.09 194.52L163.05 161.6C163.05 158.43 165.6 155.4 168.72 154.87L176.15 153.6C179.27 153.07 184.38 152.19 187.51 151.66L187.94 151.59Z" fill="#2F6EAD"/>
<path d="M116.28 211.39C116.27 208.22 118.86 205.58 122.03 205.52L153.83 204.89C157 204.83 159.59 207.37 159.59 210.53V226.61C159.59 229.78 158.62 232.29 157.43 232.19C156.24 232.09 152.68 231.79 149.53 231.52L126.38 229.55C123.22 229.28 119.67 228.98 118.48 228.88C117.29 228.78 116.31 226.1 116.31 222.94L116.28 211.39Z" fill="#2A4F7C"/>
<path d="M334.59 38.6599C329.38 36.7599 325.12 39.73 325.12 45.28V112.85C325.18 121.37 330.09 123.82 335.55 124.8L374.39 131.8C379.85 132.78 384.33 129.06 384.35 123.51L384.56 66.9699C384.58 61.4299 380.33 55.34 375.12 53.44L334.59 38.6599Z" fill="#2A4F7C"/>
<path d="M396.71 60.0698C391.5 58.1698 387.24 61.1398 387.24 66.6898V124.56C387.3 133.08 392.21 135.53 397.67 136.51L436.51 143.51C441.97 144.49 446.45 140.77 446.47 135.22L446.68 88.3798C446.7 82.8398 442.45 76.7498 437.24 74.8498L396.71 60.0698Z" fill="#2A4F7C"/>
<path d="M335.05 130.52C329.59 129.55 325.12 133.3 325.12 138.84V184.97C325.12 190.51 329.5 195.25 342.44 195.58L342.73 195.59C348.27 195.76 357.34 196.05 362.88 196.22L374 196.58C379.54 196.76 384.09 192.37 384.11 186.82L384.25 149.27C384.27 143.73 379.82 138.4 374.36 137.44L335.05 130.52Z" fill="#2F6EAD"/>
<path d="M342.27 201.29C328.64 200.44 325.12 205.34 325.12 210.89V235.82C325.12 241.36 327.71 245.68 330.88 245.41C334.05 245.14 341.16 244.54 346.69 244.07L362.35 242.74C367.88 242.27 374.99 241.67 378.16 241.4C381.33 241.13 383.94 236.37 383.96 230.83L384.03 212.5C384.05 206.96 379.53 202.3 373.99 202.15L362.72 201.85C357.18 201.7 348.11 201.46 342.57 201.3L342.27 201.29Z" fill="#2A4F7C"/>
<path d="M395.34 141.12C390.39 140.26 387.04 144.21 387.04 149.75V186.91C387.04 189.52 388.83 194.1 392.03 196C395.63 198.14 400.83 197.44 403.77 197.54L424.5 198.25C430.04 198.44 437.31 198.69 440.64 198.81C443.98 198.93 446.73 194.49 446.75 188.94L446.86 160.11C446.88 155.95 447.36 152.16 441.66 149.61C439.76 148.76 435.52 148.14 432.55 147.57C427.15 146.64 418.32 145.11 412.92 144.17C407.52 143.24 398.29 141.64 395.34 141.12Z" fill="#2F6EAD"/>
<path d="M403.61 202.92C389.13 203.03 387.05 207.03 387.05 212.57V230.55C387.05 236.1 388.99 240.47 391.37 240.26C393.75 240.06 400.21 239.51 405.73 239.04L427.89 237.16C433.42 236.69 439.88 236.14 442.26 235.94C444.64 235.74 446.6 231.04 446.62 225.49L446.66 214.03C446.68 208.49 443.94 203.89 440.57 203.81C437.2 203.73 429.9 203.56 424.36 203.42L403.61 202.92Z" fill="#2A4F7C"/>
<path d="M481.93 214.03C481.95 209.26 478.07 205.3 473.3 205.23L456.72 204.98C451.95 204.91 448.05 208.75 448.05 213.52V226.15C448.05 230.92 448.83 234.75 449.79 234.67C450.74 234.59 455.32 234.54 460.07 234.14L469.77 233.47C474.52 233.07 479.19 232.88 480.14 232.8C481.09 232.72 481.88 228.05 481.9 223.28L481.93 214.03Z" fill="#2A4F7C"/>
<path d="M455.9 151.59C452.78 151.05 450.22 153.21 450.22 156.38V193.4C450.22 196.57 451.78 199.58 460.77 199.54L469.7 199.87C472.87 199.98 476.25 200.11 477.22 200.15C478.19 200.19 480.74 197.69 480.75 194.52L480.79 161.6C480.79 158.43 478.24 155.4 475.12 154.87L467.69 153.6C464.57 153.07 459.46 152.19 456.33 151.66L455.9 151.59Z" fill="#2F6EAD"/>
<path d="M527.56 211.39C527.57 208.22 524.98 205.58 521.81 205.52L490.01 204.89C486.84 204.83 484.25 207.37 484.25 210.53V226.61C484.25 229.78 485.22 232.29 486.41 232.19C487.6 232.09 491.16 231.79 494.31 231.52L517.46 229.55C520.62 229.28 524.17 228.98 525.36 228.88C526.55 228.78 527.53 226.1 527.53 222.94L527.56 211.39Z" fill="#2A4F7C"/>
<path d="M318.46 0.699941L261.73 22.5699C260.63 22.8999 259.89 23.7399 259.89 24.6899V46.0999C259.89 47.6799 261.85 48.7699 263.69 48.2199L318.45 26.9299C320.7 26.2599 323.18 26.2599 325.43 26.9299L380.19 48.2199C382.03 48.7699 383.99 47.6799 383.99 46.0999V24.6899C383.99 23.7499 383.26 22.8999 382.15 22.5699L325.42 0.699941C323.19 0.0199414 320.71 0.0199414 318.46 0.699941Z" fill="#2F6EAD"/>
<path d="M321.17 254.83L0 221.17C0 221.17 276.74 290.74 321.95 290.74C367.16 290.74 643.84 221.17 643.84 221.17L321.17 254.83Z" fill="#273C51"/>
<path d="M525.71 190.72C524.75 189.96 523.61 189.84 522.48 190.26C521.73 185.91 519.35 182.25 516.26 181.22C513.5 180.3 510.88 181.72 509.26 184.58C508.5 183.76 507.63 183.15 506.68 182.84C503.14 181.66 499.85 184.97 499.33 190.21C498.82 195.46 501.27 200.67 504.81 201.84C505.28 202 505.74 202.07 506.19 202.08L514.43 217.98V227.83C514.43 228.52 514.99 229.08 515.68 229.08C516.37 229.08 516.93 228.52 516.93 227.83V212.6L521.38 203.76C523.22 203.96 525.27 202.52 526.53 199.92C528.18 196.51 527.81 192.39 525.71 190.72ZM508 201.7C508.76 201.36 509.47 200.8 510.07 200.06C511.15 201.67 512.53 202.85 514.09 203.37C514.21 203.41 514.32 203.44 514.44 203.47V214.11L508 201.7ZM516.94 210.41V203.51C517.71 203.32 518.44 202.95 519.11 202.42C519.3 202.67 519.52 202.89 519.76 203.08C519.97 203.25 520.2 203.39 520.43 203.49L516.94 210.41Z" fill="#273C51"/>
<path d="M150.15 177.63C149.35 169.43 144.21 164.28 138.68 166.12C133.49 167.84 129.79 175.12 130.02 182.78C128.43 180.92 126.31 180.25 124.36 181.26C121.32 182.83 119.85 187.89 121.07 192.56C122.2 196.89 125.23 199.36 128.08 198.45L137.84 215.91V228.65C137.84 229.59 138.6 230.35 139.54 230.35C140.48 230.35 141.24 229.59 141.24 228.65V195.9C141.36 195.87 141.47 195.83 141.59 195.79C147.12 193.96 150.96 185.83 150.15 177.63ZM129.81 197.45C131.22 196.18 132.15 194.04 132.41 191.64C133.81 193.95 135.71 195.49 137.84 195.99V211.83L129.81 197.45Z" fill="#273C51"/>
</svg>
