<svg width="183" height="45" viewBox="0 0 183 45" fill="none" xmlns="http://www.w3.org/2000/svg">
<path d="M0 40.4521C0 38.3078 1.6459 36.772 3.85976 36.772C4.41092 36.7489 4.96021 36.8503 5.46686 37.0685C5.97351 37.2867 6.42453 37.6162 6.78645 38.0325L5.73168 39.009C5.51459 38.7449 5.24101 38.5328 4.93108 38.3884C4.62116 38.2439 4.2828 38.1708 3.94089 38.1745C3.35127 38.1955 2.79283 38.4446 2.38314 38.8691C1.97346 39.2937 1.74452 39.8607 1.74452 40.4507C1.74452 41.0407 1.97346 41.6076 2.38314 42.0322C2.79283 42.4567 3.35127 42.7058 3.94089 42.7268C4.2837 42.7307 4.62292 42.6568 4.93309 42.5108C5.24325 42.3647 5.51629 42.1503 5.73168 41.8836L6.78645 42.8601C6.11708 43.6831 5.09128 44.1293 3.85106 44.1293C1.6459 44.1293 0 42.5964 0 40.4521Z" fill="white"/>
<path d="M14.4509 38.2353H12.1733V44.0076H10.5477V38.2353H8.27295V36.8937H14.4422L14.4509 38.2353Z" fill="white"/>
<path d="M22.8772 39.4755C22.8772 41.0606 21.6863 42.0458 19.7854 42.0458H18.3539V44.0076H16.708V36.8937H19.7854C21.6863 36.8937 22.8772 37.8789 22.8772 39.4755ZM21.2082 39.4755C21.2082 38.6931 20.7011 38.2353 19.6956 38.2353H18.3539V40.7042H19.6956C20.7011 40.7042 21.2082 40.2492 21.2082 39.4755V39.4755Z" fill="white"/>
<path d="M24.7898 40.4521C24.7898 38.3368 26.4357 36.772 28.6814 36.772C30.9272 36.772 32.576 38.3281 32.576 40.4521C32.576 42.5761 30.9185 44.1293 28.6814 44.1293C26.4444 44.1293 24.7898 42.5645 24.7898 40.4521ZM30.9069 40.4521C30.8972 40.0142 30.7585 39.5889 30.5081 39.2294C30.2577 38.87 29.9069 38.5924 29.4995 38.4315C29.0921 38.2706 28.6463 38.2335 28.2179 38.3248C27.7895 38.4162 27.3975 38.6319 27.0912 38.945C26.7849 39.2581 26.5778 39.6547 26.4958 40.085C26.4139 40.5153 26.4607 40.9602 26.6305 41.364C26.8003 41.7678 27.0855 42.1125 27.4503 42.3549C27.8151 42.5973 28.2434 42.7267 28.6814 42.7268C28.9798 42.7343 29.2765 42.6802 29.553 42.5679C29.8296 42.4556 30.0799 42.2874 30.2885 42.0739C30.4971 41.8604 30.6594 41.6062 30.7653 41.3271C30.8712 41.0481 30.9184 40.7502 30.904 40.4521H30.9069Z" fill="white"/>
<path d="M35.0623 36.8937H36.6995V41.53L40.0927 36.8937H41.6372V44.0076H40.0116V39.3712L36.6183 44.0076H35.0623V36.8937Z" fill="white"/>
<path d="M50.0638 38.2353H47.7862V44.0076H46.1605V38.2353H43.8945V36.8937H50.0638V38.2353Z" fill="white"/>
<path d="M57.8238 42.6862V44.0076H52.3181V36.8937H57.6934V38.215H53.9553V39.7595H57.2587V41.0403H53.9553V42.6862H57.8238Z" fill="white"/>
<path d="M66.7197 36.8937V44.0076H65.0941V38.2353H62.6542L62.605 39.719C62.5122 42.5153 62.1152 44.1206 60.4491 44.1206C60.1751 44.1145 59.9028 44.0766 59.6377 44.0076L59.7391 42.6167C59.8333 42.644 59.9308 42.6576 60.0289 42.6573C60.8605 42.6573 61.075 41.5996 61.1445 39.7798L61.2459 36.8821L66.7197 36.8937Z" fill="white"/>
<path d="M75.8561 41.5271C75.8561 43.1643 74.7579 44.0076 72.9294 44.0076H69.7188V36.8937H71.356V39.2321H73.1641C74.8825 39.2321 75.8561 40.0087 75.8561 41.5271ZM74.2015 41.559C74.2015 40.7766 73.6915 40.4521 72.8396 40.4521H71.356V42.7876H72.8396C73.6828 42.7876 74.2015 42.3617 74.2015 41.559V41.559Z" fill="white"/>
<path d="M84.7898 36.8937V44.0076H83.1439V41.0925H79.913V44.0076H78.2671V36.8937H79.913V39.6987H83.1439V36.8937H84.7898Z" fill="white"/>
<path d="M92.5965 42.4834H89.3047L88.673 44.0076H86.9866L90.1567 36.8937H91.7823L94.9698 44.0076H93.2311L92.5965 42.4834ZM92.0779 41.2344L90.9506 38.5106L89.8234 41.2344H92.0779Z" fill="white"/>
<path d="M102.449 36.8937V44.0076H100.823V42.1183H99.319L98.0585 44.0076H96.3198L97.8035 41.8633C97.3404 41.6857 96.9459 41.3653 96.6771 40.9485C96.4082 40.5317 96.2791 40.0402 96.3082 39.5451C96.3082 37.8876 97.4963 36.8908 99.3769 36.8908L102.449 36.8937ZM97.9773 39.5277C97.9773 40.3507 98.4555 40.8172 99.3798 40.8172H100.829V38.2353H99.4262C98.4815 38.2353 97.9715 38.6729 97.9715 39.5277H97.9773Z" fill="white"/>
<path d="M112.301 41.1417H111.142V44.0076H109.519V36.8937H111.142V39.7711H112.321L114.19 36.8937H115.929L113.611 40.3304L116.007 44.0076H114.138L112.301 41.1417Z" fill="white"/>
<path d="M117.476 40.4521C117.476 38.3368 119.122 36.772 121.368 36.772C123.613 36.772 125.259 38.3281 125.259 40.4521C125.259 42.5761 123.602 44.1293 121.368 44.1293C119.134 44.1293 117.476 42.5645 117.476 40.4521ZM123.593 40.4521C123.583 40.0142 123.445 39.5889 123.194 39.2294C122.944 38.87 122.593 38.5924 122.186 38.4315C121.778 38.2706 121.333 38.2335 120.904 38.3248C120.476 38.4162 120.084 38.6319 119.777 38.945C119.471 39.2581 119.264 39.6547 119.182 40.085C119.1 40.5153 119.147 40.9602 119.317 41.364C119.487 41.7678 119.772 42.1125 120.137 42.3549C120.501 42.5973 120.93 42.7267 121.368 42.7268C121.667 42.736 121.965 42.6831 122.243 42.5714C122.521 42.4598 122.773 42.2919 122.982 42.0782C123.192 41.8646 123.356 41.6098 123.462 41.33C123.569 41.0501 123.616 40.7512 123.602 40.4521H123.593Z" fill="white"/>
<path d="M134.225 44.0076V39.7508L132.133 43.2571H131.4L129.308 39.832V44.0076H127.763V36.8937H129.108L131.768 41.3156L134.376 36.8937H135.772V44.0076H134.225Z" fill="white"/>
<path d="M145.242 36.8937V44.0076H143.596V38.2353H140.409V44.0076H138.757V36.8937H145.242Z" fill="white"/>
<path d="M153.046 42.4834H149.742L149.102 44.0076H147.416L150.586 36.8937H152.211L155.399 44.0076H153.66L153.046 42.4834ZM152.527 41.2344L151.4 38.5106L150.273 41.2344H152.527Z" fill="white"/>
<path d="M164.095 36.8937V44.0076H162.449V41.0925H159.215V44.0076H157.569V36.8937H159.215V39.6987H162.449V36.8937H164.095Z" fill="white"/>
<path d="M167.091 36.8937H168.728V41.53L172.121 36.8937H173.666V44.0076H172.04V39.3712L168.647 44.0076H167.091V36.8937Z" fill="white"/>
<path d="M182.336 36.8937V44.0076H180.71V42.1183H179.206L177.946 44.0076H176.207L177.694 41.8633C177.231 41.6857 176.836 41.3653 176.567 40.9485C176.298 40.5317 176.169 40.0402 176.198 39.5451C176.198 37.8876 177.386 36.8908 179.267 36.8908L182.336 36.8937ZM177.865 39.5277C177.865 40.3507 178.343 40.8172 179.267 40.8172H180.716V38.2353H179.313C178.369 38.2353 177.865 38.6729 177.865 39.5277V39.5277Z" fill="white"/>
<path d="M22.8659 6.92261L13.8453 22.1327L4.68561 6.92261H0V31.3967H5.31441V17.0269L12.5181 28.809H15.0333L22.2371 16.7488L22.2718 31.3967H27.5862L27.5515 6.92261H22.8659Z" fill="white"/>
<path d="M43.4946 20.0695L36.9921 6.92261H30.9417L40.591 24.8884L40.3824 25.1782C39.4378 26.6473 38.354 27.2762 36.9573 27.2762C36.1231 27.2461 35.298 27.0928 34.5087 26.8212L33.1439 31.1243C34.4053 31.6619 35.7601 31.9464 37.1312 31.9617C40.4172 31.9617 43.3207 30.0753 45.3462 26.2996L55.778 6.9284H50.2086L43.4946 20.0695Z" fill="white"/>
<path d="M171.008 5.34919C175.587 5.34919 177.754 3.4251 177.789 0H173.909C173.874 1.67778 172.86 2.55289 171.011 2.55289C169.087 2.55289 168.143 1.68357 168.114 0H164.225C164.26 3.4251 166.358 5.34919 171.008 5.34919Z" fill="white"/>
<path d="M177.021 6.92261L165.344 22.8658V6.92261H159.713V31.3967H165.063L176.74 15.4883V31.3967H182.336V6.92261H177.021Z" fill="white"/>
<path d="M69.0525 6.92261H58.4585V11.5387H68.7396C72.1995 11.5387 73.9555 13.1121 73.9555 15.8041C73.9555 18.4961 72.2168 20.0348 68.7396 20.0348H58.4585V31.3967H64.1235V24.6508H69.0496C75.5898 24.6508 79.6785 21.2605 79.6785 15.807C79.6785 10.3535 75.5927 6.92261 69.0525 6.92261Z" fill="white"/>
<path d="M90.3447 6.92261L79.4377 31.3967H85.2419L86.0648 29.406L87.4094 26.1518H87.421L90.6432 18.4294L93.1092 12.4804L96.9892 21.8516H94.7261L92.9295 26.1518H98.7713L100.942 31.3967H106.885L95.9402 6.92261H90.3447Z" fill="white"/>
<path d="M127.094 18.6352C129.261 17.5862 130.554 15.7375 130.554 13.2512C130.554 9.19441 127.198 6.92261 121.533 6.92261H110.136V11.1185H121.043C123.492 11.1185 124.784 12.1675 124.784 14.0887C124.784 16.0098 123.492 17.0617 121.043 17.0617H110.136V31.3967H122.199C128.386 31.3967 131.71 28.7888 131.71 24.5088C131.716 21.5387 130.064 19.5103 127.094 18.6352ZM121.988 27.2008H115.778V21.0113H122.002C124.625 21.0113 125.99 21.9907 125.99 24.0539C125.975 26.1866 124.61 27.2008 121.988 27.2008Z" fill="white"/>
<path d="M145.958 11.4662H154.68V6.92261H136.184V11.4662H141.811H145.958Z" fill="white"/>
<path d="M141.811 21.1881H153.176V16.7836H145.958H141.811H136.184V31.3968H155.135V26.8531H141.811V21.1881Z" fill="white"/>
</svg>
