<svg width="51" height="51" viewBox="0 0 51 51" fill="none" xmlns="http://www.w3.org/2000/svg">
<path d="M26.1594 45.56C22.6866 45.56 19.2917 44.5301 16.4042 42.6006C13.5167 40.671 11.2663 37.9285 9.93766 34.7199C8.60896 31.5112 8.26166 27.9806 8.93968 24.5746C9.61769 21.1686 11.2906 18.0401 13.7467 15.5849C16.2029 13.1297 19.332 11.4581 22.7383 10.7814C26.1446 10.1047 29.675 10.4533 32.8831 11.7833C36.0912 13.1132 38.8329 15.3647 40.7613 18.2529C42.6898 21.1411 43.7184 24.5364 43.717 28.0092C43.7116 32.6635 41.8598 37.1255 38.5681 40.416C35.2764 43.7064 30.8137 45.5564 26.1594 45.56ZM26.1594 13.8516C23.3593 13.8516 20.6221 14.682 18.2939 16.2376C15.9657 17.7933 14.1511 20.0044 13.0795 22.5914C12.0079 25.1783 11.7276 28.0249 12.2738 30.7712C12.8201 33.5176 14.1685 36.0402 16.1485 38.0202C18.1285 40.0001 20.6511 41.3485 23.3974 41.8948C26.1437 42.4411 28.9903 42.1607 31.5773 41.0892C34.1643 40.0176 36.3754 38.203 37.931 35.8748C39.4867 33.5466 40.317 30.8093 40.317 28.0092C40.3134 24.2555 38.8207 20.6566 36.1664 18.0023C33.5121 15.348 29.9131 13.8552 26.1594 13.8516Z" fill="#FE0847"/>
<path d="M43.8258 16.7688C43.5477 16.7698 43.2737 16.7021 43.0281 16.5716C42.7825 16.4411 42.573 16.2519 42.4182 16.0208C40.0789 12.5503 36.5972 10.0095 32.5786 8.84C32.3639 8.77883 32.1633 8.67595 31.9883 8.53725C31.8133 8.39855 31.6673 8.22674 31.5587 8.03163C31.3393 7.63758 31.2855 7.17253 31.409 6.7388C31.5326 6.30506 31.8234 5.93817 32.2174 5.71882C32.6115 5.49948 33.0765 5.44566 33.5102 5.5692C38.2974 6.95959 42.4457 9.98418 45.2334 14.1168C45.4062 14.3724 45.5062 14.6703 45.5226 14.9784C45.539 15.2865 45.4713 15.5933 45.3266 15.8658C45.1819 16.1383 44.9658 16.3664 44.7015 16.5254C44.4371 16.6845 44.1344 16.7686 43.8258 16.7688Z" fill="#FE0847"/>
<path d="M8.49993 16.7076C8.19029 16.7083 7.88634 16.6244 7.62089 16.465C7.35545 16.3056 7.13858 16.0767 6.9937 15.803C6.84883 15.5294 6.78144 15.2214 6.79882 14.9122C6.8162 14.6031 6.91769 14.3045 7.09233 14.0488C9.89989 9.94698 14.0314 6.93417 18.7951 5.51483C19.0105 5.44557 19.2376 5.42001 19.463 5.43964C19.6884 5.45926 19.9076 5.52368 20.1077 5.62912C20.3079 5.73455 20.485 5.87889 20.6287 6.05366C20.7724 6.22843 20.8797 6.43013 20.9445 6.64692C21.0092 6.86371 21.03 7.09125 21.0056 7.31618C20.9813 7.54111 20.9123 7.75893 20.8027 7.95685C20.693 8.15477 20.545 8.32882 20.3673 8.4688C20.1895 8.60878 19.9856 8.71187 19.7675 8.77203C15.7524 9.96325 12.2703 12.5016 9.90753 15.9596C9.75191 16.1899 9.54223 16.3784 9.29683 16.5088C9.05144 16.6392 8.77782 16.7075 8.49993 16.7076Z" fill="#FE0847"/>
<path d="M24.0854 34.4828C23.6363 34.4865 23.2039 34.313 22.8818 34L17.4826 28.56C17.1931 28.2361 17.0386 27.8137 17.0507 27.3794C17.0629 26.9452 17.2408 26.5321 17.548 26.2249C17.8551 25.9177 18.2683 25.7398 18.7025 25.7277C19.1367 25.7155 19.5591 25.8701 19.883 26.1596L24.0854 30.362L32.4426 22.0252C32.7637 21.7159 33.1933 21.5452 33.6391 21.5496C34.0848 21.5541 34.511 21.7335 34.8257 22.0492C35.1405 22.3648 35.3187 22.7915 35.3219 23.2372C35.3252 23.683 35.1532 24.1122 34.843 24.4324L25.323 33.9524C25.1635 34.1201 24.9715 34.2536 24.7587 34.3448C24.546 34.4359 24.3169 34.4829 24.0854 34.4828Z" fill="#FE0847"/>
</svg>
