<svg width="51" height="51" viewBox="0 0 51 51" fill="none" xmlns="http://www.w3.org/2000/svg">
<path d="M25.4999 45.5599C25.1321 45.5599 24.7742 45.4406 24.48 45.2199C23.8952 44.7779 10.2 34.3399 10.2 20.7399C10.2 16.6821 11.8119 12.7905 14.6812 9.92121C17.5505 7.0519 21.4421 5.43994 25.4999 5.43994C29.5578 5.43994 33.4494 7.0519 36.3187 9.92121C39.188 12.7905 40.7999 16.6821 40.7999 20.7399C40.7999 34.3399 27.1047 44.7779 26.5199 45.2199C26.2257 45.4406 25.8678 45.5599 25.4999 45.5599ZM25.4999 8.83994C22.345 8.84354 19.3203 10.0984 17.0894 12.3293C14.8585 14.5602 13.6036 17.585 13.6 20.7399C13.6 30.5999 22.44 39.0455 25.4999 41.6635C28.5599 39.0455 37.3999 30.5999 37.3999 20.7399C37.3963 17.585 36.1414 14.5602 33.9105 12.3293C31.6796 10.0984 28.6549 8.84354 25.4999 8.83994V8.83994Z" fill="#FE0847"/>
<path d="M25.4999 27.1999C24.2223 27.1999 22.9733 26.821 21.9109 26.1112C20.8486 25.4014 20.0206 24.3925 19.5317 23.212C19.0427 22.0316 18.9148 20.7327 19.164 19.4796C19.4133 18.2265 20.0286 17.0754 20.932 16.172C21.8355 15.2686 22.9865 14.6533 24.2396 14.404C25.4928 14.1548 26.7916 14.2827 27.9721 14.7716C29.1525 15.2606 30.1614 16.0886 30.8712 17.1509C31.581 18.2133 31.9599 19.4622 31.9599 20.7399C31.9581 22.4527 31.2769 24.0947 30.0658 25.3058C28.8547 26.5169 27.2127 27.1981 25.4999 27.1999ZM25.4999 17.6799C24.8947 17.6799 24.3031 17.8594 23.7999 18.1956C23.2967 18.5319 22.9045 19.0098 22.6728 19.5689C22.4412 20.128 22.3806 20.7433 22.4987 21.3369C22.6168 21.9305 22.9082 22.4757 23.3362 22.9037C23.7641 23.3316 24.3094 23.623 24.9029 23.7411C25.4965 23.8592 26.1118 23.7986 26.6709 23.567C27.2301 23.3354 27.708 22.9432 28.0442 22.44C28.3805 21.9367 28.5599 21.3451 28.5599 20.7399C28.5581 19.9289 28.2352 19.1516 27.6617 18.5781C27.0882 18.0047 26.3109 17.6817 25.4999 17.6799V17.6799Z" fill="#FE0847"/>
</svg>
