<svg width="51" height="51" viewBox="0 0 51 51" fill="none" xmlns="http://www.w3.org/2000/svg">
<path d="M33.0071 42.2211C32.7847 42.2214 32.5645 42.1776 32.3591 42.0924C32.1537 42.0072 31.9672 41.8823 31.8103 41.7247C30.4973 40.4091 29.7599 38.6262 29.7599 36.7675C29.7599 34.9088 30.4973 33.126 31.8103 31.8103C33.1251 30.4956 34.9082 29.7571 36.7675 29.7571C38.6268 29.7571 40.4099 30.4956 41.7247 31.8103C41.8868 31.9674 42.0161 32.1551 42.1049 32.3627C42.1936 32.5702 42.2402 32.7933 42.2419 33.019C42.2435 33.2448 42.2002 33.4685 42.1144 33.6773C42.0286 33.8861 41.9021 34.0758 41.7423 34.2351C41.5824 34.3945 41.3925 34.5205 41.1834 34.6057C40.9744 34.6909 40.7505 34.7336 40.5248 34.7313C40.2991 34.729 40.0761 34.6818 39.8688 34.5924C39.6615 34.503 39.4741 34.3733 39.3175 34.2107C38.6395 33.5351 37.7213 33.1558 36.7641 33.1558C35.8069 33.1558 34.8888 33.5351 34.2107 34.2107C33.5351 34.8888 33.1558 35.8069 33.1558 36.7641C33.1558 37.7213 33.5351 38.6395 34.2107 39.3175C34.4491 39.5553 34.6115 39.8585 34.6773 40.1886C34.7432 40.5188 34.7095 40.8611 34.5806 41.1721C34.4517 41.4831 34.2333 41.7488 33.9532 41.9356C33.673 42.1223 33.3438 42.2217 33.0071 42.2211V42.2211Z" fill="#FE0847"/>
<path d="M14.2323 21.2432C13.3125 21.246 12.4011 21.0673 11.5504 20.7173C10.6998 20.3672 9.92655 19.8527 9.27513 19.2032C9.113 19.0461 8.98377 18.8584 8.89498 18.6508C8.80619 18.4433 8.75961 18.2202 8.75798 17.9945C8.75634 17.7687 8.79968 17.545 8.88545 17.3362C8.97122 17.1274 9.09772 16.9378 9.25755 16.7784C9.41739 16.619 9.60737 16.493 9.81641 16.4078C10.0254 16.3227 10.2493 16.28 10.4751 16.2822C10.7008 16.2845 10.9238 16.3317 11.1311 16.4211C11.3383 16.5105 11.5257 16.6402 11.6823 16.8028C12.1877 17.3069 12.8311 17.6499 13.5313 17.7885C14.2315 17.927 14.9571 17.855 15.6164 17.5814C16.2757 17.3078 16.839 16.8449 17.2354 16.2512C17.6317 15.6576 17.8432 14.9598 17.8431 14.246C17.845 13.7723 17.7528 13.303 17.5719 12.8653C17.391 12.4275 17.1249 12.0301 16.7891 11.696C16.6266 11.5394 16.4968 11.352 16.4074 11.1447C16.318 10.9374 16.2708 10.7144 16.2686 10.4887C16.2663 10.263 16.309 10.0391 16.3942 9.83008C16.4794 9.62104 16.6053 9.43106 16.7647 9.27123C16.9241 9.11139 17.1137 8.98489 17.3225 8.89912C17.5313 8.81335 17.7551 8.77002 17.9808 8.77165C18.2065 8.77329 18.4296 8.81986 18.6372 8.90865C18.8447 8.99744 19.0325 9.12667 19.1895 9.2888C20.1699 10.2693 20.8376 11.5184 21.1081 12.8784C21.3785 14.2383 21.2397 15.6479 20.7091 16.9289C20.1785 18.2099 19.28 19.3048 18.1271 20.0751C16.9743 20.8455 15.6189 21.2567 14.2323 21.2568V21.2432Z" fill="#FE0847"/>
<path d="M40.5212 34.7139C40.186 34.7113 39.8589 34.6101 39.5809 34.4228C39.3028 34.2355 39.0861 33.9705 38.9577 33.6608C38.8294 33.3511 38.795 33.0104 38.859 32.6814C38.923 32.3523 39.0825 32.0494 39.3176 31.8103L41.48 29.6751L21.3248 9.51995L19.1896 11.6823C19.0326 11.8445 18.8448 11.9737 18.6373 12.0625C18.4297 12.1513 18.2066 12.1979 17.9809 12.1995C17.7552 12.2011 17.5314 12.1578 17.3226 12.072C17.1138 11.9863 16.9242 11.8598 16.7648 11.6999C16.6054 11.5401 16.4794 11.3501 16.3942 11.1411C16.3091 10.932 16.2664 10.7081 16.2686 10.4824C16.2709 10.2567 16.3181 10.0337 16.4075 9.82642C16.4969 9.61914 16.6266 9.43174 16.7892 9.27515L20.128 5.93635C20.4467 5.61869 20.8783 5.44031 21.3282 5.44031C21.7782 5.44031 22.2097 5.61869 22.5284 5.93635L45.0636 28.4715C45.3813 28.7902 45.5596 29.2218 45.5596 29.6717C45.5596 30.1217 45.3813 30.5533 45.0636 30.8719L41.7248 34.2107C41.5672 34.3697 41.3797 34.496 41.1732 34.5824C40.9666 34.6687 40.7451 34.7135 40.5212 34.7139V34.7139Z" fill="#FE0847"/>
<path d="M29.6751 45.56C29.4517 45.5608 29.2303 45.5173 29.0237 45.4321C28.8172 45.3469 28.6295 45.2217 28.4715 45.0636L5.93635 22.5284C5.61869 22.2097 5.44031 21.7782 5.44031 21.3282C5.44031 20.8783 5.61869 20.4467 5.93635 20.128L9.27515 16.7892C9.43174 16.6266 9.61914 16.4969 9.82642 16.4075C10.0337 16.3181 10.2567 16.2709 10.4824 16.2686C10.7081 16.2664 10.932 16.3091 11.1411 16.3942C11.3501 16.4794 11.5401 16.6054 11.6999 16.7648C11.8598 16.9242 11.9863 17.1138 12.072 17.3226C12.1578 17.5314 12.2011 17.7552 12.1995 17.9809C12.1979 18.2066 12.1513 18.4297 12.0625 18.6373C11.9737 18.8448 11.8445 19.0326 11.6823 19.1896L9.51995 21.3248L29.6751 41.48L31.8103 39.3448C32.1314 39.0356 32.5611 38.8648 33.0068 38.8693C33.4526 38.8738 33.8787 39.0532 34.1935 39.3688C34.5082 39.6845 34.6864 40.1111 34.6896 40.5569C34.6929 41.0026 34.5209 41.4318 34.2107 41.752L30.8719 45.0636C30.7153 45.2215 30.5288 45.3466 30.3233 45.4319C30.1179 45.5171 29.8976 45.5606 29.6751 45.56V45.56Z" fill="#FE0847"/>
<path d="M25.4999 35.1287C25.0491 35.1287 24.6167 34.9496 24.2978 34.6308C23.979 34.312 23.7999 33.8796 23.7999 33.4287V17.5711C23.7999 17.1202 23.979 16.6878 24.2978 16.369C24.6167 16.0502 25.0491 15.8711 25.4999 15.8711C25.9508 15.8711 26.3832 16.0502 26.702 16.369C27.0208 16.6878 27.1999 17.1202 27.1999 17.5711V33.4287C27.1999 33.8796 27.0208 34.312 26.702 34.6308C26.3832 34.9496 25.9508 35.1287 25.4999 35.1287Z" fill="#FE0847"/>
<path d="M30.8515 28.2199C30.4006 28.2199 29.9682 28.0408 29.6494 27.722C29.3306 27.4032 29.1515 26.9708 29.1515 26.5199V24.4799C29.1515 24.029 29.3306 23.5966 29.6494 23.2778C29.9682 22.959 30.4006 22.7799 30.8515 22.7799C31.3024 22.7799 31.7348 22.959 32.0536 23.2778C32.3724 23.5966 32.5515 24.029 32.5515 24.4799V26.5199C32.5515 26.9708 32.3724 27.4032 32.0536 27.722C31.7348 28.0408 31.3024 28.2199 30.8515 28.2199V28.2199Z" fill="#FE0847"/>
<path d="M20.1484 28.2199C19.6975 28.2199 19.2651 28.0408 18.9463 27.722C18.6275 27.4032 18.4484 26.9708 18.4484 26.5199V24.4799C18.4484 24.029 18.6275 23.5966 18.9463 23.2778C19.2651 22.959 19.6975 22.7799 20.1484 22.7799C20.5992 22.7799 21.0316 22.959 21.3504 23.2778C21.6693 23.5966 21.8484 24.029 21.8484 24.4799V26.5199C21.8484 26.7432 21.8044 26.9642 21.719 27.1705C21.6335 27.3767 21.5083 27.5641 21.3504 27.722C21.1926 27.8799 21.0052 28.0051 20.7989 28.0905C20.5927 28.1759 20.3716 28.2199 20.1484 28.2199Z" fill="#FE0847"/>
</svg>
