<svg width="51" height="51" viewBox="0 0 51 51" fill="none" xmlns="http://www.w3.org/2000/svg">
<path d="M28.288 43.3908C24.6813 43.3996 21.164 42.2692 18.2376 40.1608C18.0454 40.0354 17.8805 39.8724 17.7529 39.6816C17.6254 39.4907 17.5378 39.2761 17.4955 39.0505C17.4531 38.8249 17.4569 38.593 17.5066 38.3689C17.5563 38.1448 17.6508 37.9331 17.7846 37.7465C17.9183 37.56 18.0884 37.4024 18.2847 37.2834C18.4809 37.1643 18.6993 37.0863 18.9265 37.0539C19.1537 37.0215 19.3852 37.0355 19.6069 37.095C19.8286 37.1545 20.0359 37.2582 20.2164 37.4C22.8741 39.314 26.1232 40.226 29.3887 39.9745C32.6541 39.723 35.7253 38.3242 38.0585 36.0257C40.3917 33.7273 41.8364 30.6775 42.1368 27.4161C42.4373 24.1548 41.5742 20.8924 39.7002 18.2063C37.8263 15.5203 35.0624 13.5839 31.8979 12.7399C28.7334 11.896 25.3723 12.1989 22.4097 13.5951C19.4471 14.9913 17.074 17.3907 15.7105 20.3685C14.3471 23.3464 14.0812 26.7106 14.96 29.8656C15.0203 30.0808 15.0376 30.3058 15.0109 30.5277C14.9843 30.7496 14.9142 30.9641 14.8046 31.1589C14.6951 31.3537 14.5482 31.525 14.3724 31.663C14.1967 31.8011 13.9954 31.9032 13.7802 31.9634C13.565 32.0237 13.3401 32.041 13.1182 32.0143C12.8963 31.9877 12.6818 31.9176 12.487 31.808C12.0936 31.5867 11.8042 31.2183 11.6824 30.7836C10.7036 27.2981 10.8444 23.5931 12.0848 20.1918C13.3253 16.7906 15.6027 13.8649 18.5957 11.8279C21.5886 9.79081 25.1458 8.74533 28.765 8.83904C32.3842 8.93275 35.8825 10.1609 38.766 12.3501C41.6495 14.5393 43.7725 17.579 44.8353 21.0398C45.8981 24.5007 45.8469 28.208 44.689 31.6383C43.5311 35.0685 41.325 38.0484 38.3821 40.1572C35.4393 42.2659 31.9084 43.3971 28.288 43.3908V43.3908Z" fill="#FE0847"/>
<path d="M32.7827 33.4357C32.4936 33.4338 32.2099 33.3565 31.9599 33.2113L27.4379 30.6001C27.1795 30.4517 26.9648 30.2377 26.8156 29.9798C26.6664 29.7219 26.5878 29.4292 26.5879 29.1313V20.4885C26.5879 20.0376 26.767 19.6052 27.0858 19.2864C27.4046 18.9676 27.837 18.7885 28.2879 18.7885C28.7388 18.7885 29.1712 18.9676 29.49 19.2864C29.8088 19.6052 29.9879 20.0376 29.9879 20.4885V28.1589L33.6327 30.2669C33.9551 30.4547 34.2067 30.7434 34.3488 31.0885C34.4908 31.4335 34.5154 31.8157 34.4187 32.1761C34.3221 32.5365 34.1095 32.8551 33.8138 33.0827C33.5182 33.3103 33.1558 33.4344 32.7827 33.4357V33.4357Z" fill="#FE0847"/>
<path d="M13.2872 32.232C12.8362 32.2321 12.4035 32.0536 12.0836 31.7356L5.9636 25.6156C5.80147 25.4586 5.67224 25.2708 5.58345 25.0633C5.49466 24.8558 5.44809 24.6326 5.44646 24.4069C5.44482 24.1812 5.48815 23.9574 5.57393 23.7486C5.6597 23.5398 5.78619 23.3502 5.94603 23.1908C6.10587 23.0314 6.29585 22.9055 6.50488 22.8203C6.71392 22.7351 6.93783 22.6924 7.16354 22.6947C7.38925 22.6969 7.61225 22.7441 7.81953 22.8335C8.02681 22.9229 8.21421 23.0527 8.3708 23.2152L13.3144 28.1588L18.2648 23.2152C18.5887 22.9257 19.0111 22.7712 19.4453 22.7833C19.8796 22.7955 20.2927 22.9734 20.5999 23.2806C20.907 23.5878 21.085 24.0009 21.0971 24.4351C21.1093 24.8693 20.9547 25.2918 20.6652 25.6156L14.5452 31.7696C14.378 31.9283 14.1802 32.0511 13.9639 32.1306C13.7476 32.2101 13.5173 32.2446 13.2872 32.232V32.232Z" fill="#FE0847"/>
</svg>
