<svg width="51" height="51" viewBox="0 0 51 51" fill="none" xmlns="http://www.w3.org/2000/svg">
<path d="M41.6092 32.0076C41.1583 32.0076 40.7259 31.8285 40.4071 31.5097C40.0883 31.1909 39.9092 30.7585 39.9092 30.3076V22.678C39.9501 20.8354 39.6224 19.0032 38.9455 17.289C38.2686 15.5747 37.2561 14.013 35.9674 12.6954C34.6787 11.3778 33.1398 10.3309 31.441 9.61617C29.7421 8.90145 27.9177 8.53327 26.0746 8.53327C24.2316 8.53327 22.4071 8.90145 20.7083 9.61617C19.0094 10.3309 17.4705 11.3778 16.1818 12.6954C14.8931 14.013 13.8806 15.5747 13.2037 17.289C12.5268 19.0032 12.1992 20.8354 12.24 22.678V30.3076C12.24 30.7585 12.0609 31.1909 11.7421 31.5097C11.4233 31.8285 10.9909 32.0076 10.54 32.0076C10.0891 32.0076 9.65674 31.8285 9.33793 31.5097C9.01912 31.1909 8.84001 30.7585 8.84001 30.3076V22.678C8.79448 20.3859 9.20661 18.1078 10.0523 15.9769C10.8979 13.8461 12.1602 11.9053 13.7651 10.2682C15.3699 8.63111 17.2853 7.33059 19.3989 6.44277C21.5126 5.55495 23.7821 5.09766 26.0746 5.09766C28.3671 5.09766 30.6367 5.55495 32.7503 6.44277C34.8639 7.33059 36.7793 8.63111 38.3842 10.2682C39.9891 11.9053 41.2513 13.8461 42.0969 15.9769C42.9426 18.1078 43.3547 20.3859 43.3092 22.678V30.3076C43.3092 30.7585 43.1301 31.1909 42.8113 31.5097C42.4925 31.8285 42.0601 32.0076 41.6092 32.0076Z" fill="#FE0847"/>
<path d="M15.2728 39.202H14.96C13.3369 39.202 11.7803 38.5572 10.6325 37.4094C9.48481 36.2617 8.84003 34.7051 8.84003 33.082V27.1456C8.84003 26.6947 9.01913 26.2623 9.33795 25.9435C9.65676 25.6247 10.0892 25.4456 10.54 25.4456H15.3C16.6322 25.4474 17.9094 25.9774 18.8514 26.9194C19.7934 27.8614 20.3234 29.1385 20.3252 30.4708V34.1768C20.3243 34.8387 20.1928 35.494 19.9383 36.1051C19.6837 36.7161 19.3111 37.2709 18.8418 37.7377C18.3724 38.2046 17.8156 38.5742 17.2032 38.8254C16.5908 39.0767 15.9348 39.2046 15.2728 39.202V39.202ZM12.24 28.8456V33.0684C12.24 33.7897 12.5266 34.4816 13.0367 34.9917C13.5468 35.5018 14.2386 35.7884 14.96 35.7884H15.2592C15.6897 35.7866 16.102 35.6148 16.4064 35.3104C16.7108 35.006 16.8826 34.5936 16.8844 34.1632V30.4708C16.8826 30.0403 16.7108 29.6279 16.4064 29.3235C16.102 29.0191 15.6897 28.8473 15.2592 28.8456H12.24Z" fill="#FE0847"/>
<path d="M37.1756 39.202H36.8764C35.5448 39.2002 34.2684 38.6699 33.3275 37.7277C32.3865 36.7855 31.858 35.5083 31.858 34.1768V30.4708C31.8598 29.1397 32.3889 27.8636 33.3295 26.9218C34.27 25.98 35.5454 25.4492 36.8764 25.4456H41.6364C42.0873 25.4456 42.5197 25.6247 42.8385 25.9435C43.1573 26.2623 43.3364 26.6947 43.3364 27.1456V33.0684C43.3382 33.8766 43.1799 34.6773 42.8706 35.424C42.5613 36.1708 42.1072 36.8489 41.5344 37.4191C40.9616 37.9894 40.2815 38.4406 39.5333 38.7466C38.7852 39.0526 37.9839 39.2073 37.1756 39.202V39.202ZM36.8764 28.8456C36.4466 28.8474 36.035 29.0194 35.7316 29.324C35.4283 29.6286 35.258 30.0409 35.258 30.4708V34.1768C35.258 34.6066 35.4283 35.019 35.7316 35.3235C36.035 35.6281 36.4466 35.8002 36.8764 35.802H37.1756C37.897 35.802 38.5889 35.5154 39.099 35.0053C39.6091 34.4952 39.8956 33.8033 39.8956 33.082V28.8456H36.8764Z" fill="#FE0847"/>
<path d="M37.5292 45.56H35.9584C35.5076 45.56 35.0752 45.3809 34.7563 45.062C34.4375 44.7432 34.2584 44.3108 34.2584 43.86C34.2584 43.4091 34.4375 42.9767 34.7563 42.6579C35.0752 42.3391 35.5076 42.16 35.9584 42.16H37.5292C38.1604 42.16 38.7658 41.9092 39.2121 41.4629C39.6585 41.0165 39.9092 40.4112 39.9092 39.78V32.8984C39.9092 32.4475 40.0883 32.0151 40.4071 31.6963C40.726 31.3775 41.1584 31.1984 41.6092 31.1984C42.0601 31.1984 42.4925 31.3775 42.8113 31.6963C43.1301 32.0151 43.3092 32.4475 43.3092 32.8984V39.78C43.3074 41.3124 42.6979 42.7815 41.6143 43.8651C40.5307 44.9486 39.0616 45.5582 37.5292 45.56V45.56Z" fill="#FE0847"/>
</svg>
