<svg width="24" height="24" viewBox="0 0 24 24" fill="none" xmlns="http://www.w3.org/2000/svg">
<path d="M22.723 11.7892C22.723 13.0814 21.6575 14.1289 20.3432 14.1289C19.0289 14.1289 17.9628 13.0814 17.9628 11.7892C17.9628 10.4971 19.0289 9.44956 20.3432 9.44956C21.6575 9.44956 22.723 10.4971 22.723 11.7892ZM14.1555 11.7892C14.1555 13.0814 13.09 14.1289 11.7757 14.1289C10.4614 14.1289 9.39526 13.0814 9.39526 11.7892C9.39526 10.4971 10.4614 9.44956 11.7757 9.44956C13.09 9.44956 14.1555 10.4971 14.1555 11.7892ZM18.4389 3.83406C18.4389 5.12624 17.3734 6.17374 16.0591 6.17374C14.7448 6.17374 13.6794 5.12624 13.6794 3.83406C13.6794 2.54187 14.7448 1.49438 16.0591 1.49438C17.3734 1.49438 18.4389 2.54187 18.4389 3.83406ZM9.87205 3.83406C9.87205 5.12624 8.80592 6.17374 7.4916 6.17374C6.17729 6.17374 5.11185 5.12624 5.11185 3.83406C5.11185 2.54187 6.17729 1.49438 7.4916 1.49438C8.80592 1.49438 9.87205 2.54187 9.87205 3.83406ZM18.4389 20.2125C18.4389 21.5047 17.3734 22.5522 16.0591 22.5522C14.7448 22.5522 13.6794 21.5047 13.6794 20.2125C13.6794 18.9203 14.7448 17.8728 16.0591 17.8728C17.3734 17.8735 18.4389 18.9203 18.4389 20.2125ZM9.87205 20.2125C9.87205 21.5047 8.80592 22.5522 7.4916 22.5522C6.17729 22.5522 5.11185 21.5047 5.11185 20.2125C5.11185 18.9203 6.17729 17.8728 7.4916 17.8728C8.80592 17.8728 9.87205 18.9203 9.87205 20.2125ZM5.58794 11.7892C5.58794 13.0814 4.5225 14.1289 3.20819 14.1289C1.89387 14.1289 0.827739 13.0814 0.827739 11.7892C0.827739 10.4971 1.89387 9.44956 3.20819 9.44956C4.5225 9.44956 5.58794 10.4971 5.58794 11.7892Z" fill="#1D1D1B"/>
<path d="M16.0591 23.366C14.2904 23.366 12.8516 21.9515 12.8516 20.2125C12.8516 19.1946 13.3452 18.2866 14.1086 17.7106L12.3958 14.8836C11.984 14.9613 11.5331 14.9613 11.1234 14.8774L9.41763 17.6921C10.1957 18.2673 10.6998 19.1829 10.6998 20.2118C10.6998 21.9508 9.26033 23.3653 7.4916 23.3653C5.72287 23.3653 4.28411 21.9508 4.28411 20.2118C4.28411 18.4729 5.72287 17.0583 7.4916 17.0583C7.61674 17.0583 7.74048 17.0652 7.86213 17.079L9.64274 14.142C9.13869 13.6993 8.77725 13.1034 8.63533 12.4291H6.34857C6.04725 13.8629 4.75391 14.9427 3.20819 14.9427C1.43946 14.9427 0 13.5282 0 11.7892C0 10.0503 1.43946 8.63576 3.20819 8.63576C4.62667 8.63576 5.83263 9.5451 6.25489 10.8022H8.72902C8.90659 10.2737 9.22328 9.80629 9.63575 9.442L8.11241 6.92774C7.91176 6.96692 7.70413 6.98685 7.4916 6.98685C5.72287 6.98685 4.28411 5.57232 4.28411 3.83337C4.28411 2.09442 5.72287 0.679886 7.4916 0.679886C9.26033 0.679886 10.6998 2.09442 10.6998 3.83337C10.6998 4.77845 10.2747 5.62799 9.6022 6.20604L11.1151 8.70243C11.5317 8.61583 11.9875 8.61445 12.4056 8.69556L13.9262 6.18542C13.2676 5.60737 12.8516 4.76677 12.8516 3.83268C12.8516 2.09373 14.2904 0.679199 16.0591 0.679199C17.8279 0.679199 19.2666 2.09373 19.2666 3.83268C19.2666 5.57163 17.8279 6.98616 16.0591 6.98616C15.8361 6.98616 15.618 6.96348 15.4076 6.92087L13.8926 9.42069C14.3163 9.78773 14.6413 10.262 14.8224 10.8009H17.2958C17.7188 9.54372 18.9248 8.63439 20.3432 8.63439C22.112 8.63439 23.5507 10.0489 23.5507 11.7879C23.5507 13.5268 22.112 14.9413 20.3432 14.9413C18.7975 14.9413 17.5035 13.8615 17.2015 12.4285H14.9161C14.7721 13.1124 14.4015 13.7165 13.8856 14.1612L15.6564 17.0824C15.7879 17.0666 15.9228 17.0576 16.0591 17.0576C17.8279 17.0576 19.2666 18.4722 19.2666 20.2111C19.2666 21.9515 17.8279 23.366 16.0591 23.366ZM16.0591 18.6866C15.2034 18.6866 14.5071 19.3712 14.5071 20.2125C14.5071 21.0538 15.2034 21.7384 16.0591 21.7384C16.9148 21.7384 17.6111 21.0545 17.6111 20.2125C17.6111 19.3705 16.9148 18.6866 16.0591 18.6866ZM7.4916 18.6866C6.6359 18.6866 5.93959 19.3712 5.93959 20.2125C5.93959 21.0538 6.6359 21.7384 7.4916 21.7384C8.3473 21.7384 9.04431 21.0545 9.04431 20.2125C9.04431 19.3705 8.3473 18.6866 7.4916 18.6866ZM20.3439 10.2634C19.4875 10.2634 18.7905 10.9479 18.7905 11.7892C18.7905 12.6305 19.4875 13.3151 20.3439 13.3151C21.1996 13.3151 21.8959 12.6312 21.8959 11.7892C21.8959 10.9473 21.1989 10.2634 20.3439 10.2634ZM11.0654 10.4331C10.5656 10.6868 10.223 11.2002 10.223 11.7899C10.223 12.6312 10.92 13.3158 11.7757 13.3158C11.9931 13.3158 12.2008 13.2711 12.3881 13.1921C12.4119 13.1804 12.4364 13.1687 12.4615 13.1584C12.974 12.9089 13.3277 12.3893 13.3277 11.7899C13.3277 11.2249 13.0138 10.7314 12.5489 10.4675C12.4797 10.4483 12.4126 10.4201 12.3476 10.3823C12.3329 10.3733 12.3182 10.3651 12.3042 10.3555C11.9386 10.2235 11.494 10.2421 11.1409 10.3974C11.1158 10.4105 11.0906 10.4228 11.0654 10.4331ZM3.20819 10.2634C2.35249 10.2634 1.65548 10.9479 1.65548 11.7892C1.65548 12.6305 2.35249 13.3151 3.20819 13.3151C4.06389 13.3151 4.7602 12.6312 4.7602 11.7892C4.7602 10.9473 4.06389 10.2634 3.20819 10.2634ZM16.0591 2.30818C15.2034 2.30818 14.5071 2.99276 14.5071 3.83406C14.5071 4.67535 15.2034 5.35993 16.0591 5.35993C16.9148 5.35993 17.6111 4.67535 17.6111 3.83406C17.6111 2.99276 16.9148 2.30818 16.0591 2.30818ZM7.4916 2.30818C6.6359 2.30818 5.93959 2.99276 5.93959 3.83406C5.93959 4.67535 6.6359 5.35993 7.4916 5.35993C7.70762 5.35993 7.91386 5.31595 8.10122 5.23759C8.12779 5.22384 8.15435 5.21147 8.18162 5.20116C8.69266 4.95097 9.04431 4.43203 9.04431 3.83406C9.04431 2.99276 8.3473 2.30818 7.4916 2.30818Z" fill="#1D1D1B"/>
</svg>
