<svg width="1681" height="636" viewBox="0 0 1681 636" fill="none" xmlns="http://www.w3.org/2000/svg">
<g clip-path="url(#clip0_502_2032)">
<path d="M222.085 98.4775V97.7448C222.323 96.2322 222.871 94.7853 223.694 93.495L225.596 90.271L223.987 87.3402C223.205 86.0296 222.66 84.5909 222.378 83.0904V82.3577H224.133V82.9438C224.255 84.1893 224.655 85.3914 225.304 86.4609L226.474 88.659L227.645 86.4609C228.293 85.3914 228.693 84.1893 228.815 82.9438V82.3577H230.571V83.0904C230.332 84.6029 229.784 86.0498 228.961 87.3402L227.352 90.271L229.254 93.495C230.036 94.8055 230.581 96.2442 230.863 97.7448V98.4775H229.108V97.8913C228.986 96.6458 228.586 95.4438 227.937 94.3743L226.474 91.883L225.011 94.3743C224.362 95.4438 223.962 96.6458 223.841 97.8913V98.4775H222.085Z" fill="#4E4D4D"/>
<path d="M233.789 588.52C234.186 587.856 234.388 587.095 234.374 586.322H228.815V584.856H236.13V586.322C236.134 587.456 235.831 588.57 235.252 589.546L231.009 596.873C230.613 597.536 230.41 598.298 230.424 599.071H236.13V600.536H228.669V599.071C228.684 597.939 228.986 596.83 229.546 595.847L233.789 588.52Z" fill="#4E4D4D"/>
<path d="M784.467 603.467H782.711V596.726L780.955 593.649C780.034 592.032 779.484 590.23 779.346 588.373V587.641H781.102V588.373C781.181 589.905 781.579 591.402 782.272 592.77L783.443 595.261L784.613 592.77C785.373 591.429 785.776 589.915 785.783 588.373V587.641H787.539V588.373C787.401 590.23 786.851 592.032 785.93 593.649L784.174 596.726V603.467H784.467Z" fill="#4E4D4D"/>
<path d="M252.662 318.733C252.683 319.242 252.603 319.749 252.427 320.227C252.251 320.705 251.983 321.143 251.638 321.517C251.252 321.897 250.795 322.196 250.292 322.398C249.79 322.599 249.253 322.698 248.712 322.689C247.8 322.744 246.894 322.521 246.11 322.05C245.327 321.579 244.704 320.883 244.323 320.052L245.64 319.026C245.905 319.624 246.335 320.134 246.879 320.498C247.423 320.861 248.058 321.062 248.712 321.078C249.006 321.093 249.3 321.049 249.576 320.948C249.852 320.847 250.106 320.692 250.321 320.491C250.555 320.263 250.74 319.989 250.866 319.687C250.992 319.385 251.055 319.06 251.053 318.733C250.926 317.929 250.51 317.199 249.882 316.681L246.517 313.457C246.063 313.02 245.7 312.497 245.449 311.919C245.198 311.34 245.064 310.717 245.054 310.087C245.021 309.599 245.095 309.109 245.272 308.653C245.449 308.197 245.725 307.786 246.079 307.449C246.897 306.762 247.937 306.397 249.005 306.423C249.778 306.407 250.542 306.603 251.212 306.991C251.883 307.378 252.435 307.942 252.808 308.621L251.492 309.647C251.258 309.181 250.904 308.786 250.467 308.503C250.03 308.219 249.525 308.058 249.005 308.035C248.732 308.007 248.456 308.046 248.201 308.148C247.946 308.25 247.72 308.412 247.542 308.621C247.175 309.079 246.969 309.646 246.956 310.233C246.967 311.006 247.283 311.744 247.834 312.285L251.199 315.509C252.087 316.352 252.612 317.508 252.662 318.733Z" fill="#4CAC33"/>
<path d="M255.149 317.56V311.259C255.022 309.907 255.385 308.554 256.173 307.449C256.509 307.045 256.937 306.727 257.42 306.523C257.904 306.319 258.43 306.235 258.953 306.277C259.472 306.268 259.987 306.368 260.466 306.57C260.944 306.772 261.376 307.071 261.733 307.449C262.542 308.544 262.908 309.905 262.757 311.259V317.56C262.884 318.913 262.521 320.265 261.733 321.371C261.397 321.775 260.969 322.092 260.485 322.296C260.002 322.5 259.476 322.585 258.953 322.543C258.434 322.551 257.919 322.451 257.44 322.249C256.962 322.048 256.53 321.748 256.173 321.371C255.364 320.276 254.998 318.914 255.149 317.56ZM256.905 317.56C256.778 318.482 256.986 319.418 257.49 320.198C257.69 320.428 257.938 320.613 258.215 320.739C258.493 320.866 258.794 320.931 259.099 320.931C259.404 320.931 259.706 320.866 259.983 320.739C260.261 320.613 260.508 320.428 260.709 320.198C261.213 319.418 261.42 318.482 261.294 317.56V311.259C261.42 310.338 261.213 309.402 260.709 308.621C260.508 308.391 260.261 308.207 259.983 308.08C259.706 307.954 259.404 307.889 259.099 307.889C258.794 307.889 258.493 307.954 258.215 308.08C257.938 308.207 257.69 308.391 257.49 308.621C256.986 309.402 256.778 310.338 256.905 311.259V317.56Z" fill="#4CAC33"/>
<path d="M273.437 317.707C273.524 319.078 273.108 320.433 272.266 321.517C271.933 321.885 271.527 322.179 271.073 322.381C270.62 322.582 270.129 322.686 269.633 322.686C269.137 322.686 268.646 322.582 268.193 322.381C267.739 322.179 267.333 321.885 267 321.517C266.137 320.444 265.718 319.08 265.829 317.707V306.57H267.585V317.707C267.458 318.628 267.666 319.564 268.17 320.345C268.34 320.572 268.561 320.757 268.815 320.884C269.069 321.011 269.349 321.078 269.633 321.078C269.917 321.078 270.197 321.011 270.451 320.884C270.705 320.757 270.926 320.572 271.096 320.345C271.6 319.564 271.808 318.628 271.681 317.707V306.57H273.437V317.707Z" fill="#4CAC33"/>
<path d="M280.459 315.216H278.557V322.396H276.802V306.57H280.313C280.88 306.518 281.452 306.597 281.984 306.8C282.517 307.003 282.996 307.325 283.385 307.742C284.07 308.619 284.432 309.706 284.409 310.819C284.459 311.736 284.257 312.648 283.824 313.457C283.442 314.093 282.883 314.602 282.215 314.923L282.361 315.216C283.651 317.186 284.407 319.459 284.556 321.81V322.543H282.8V321.957C282.611 319.726 281.91 317.57 280.752 315.655L280.459 315.216ZM278.557 313.75H280.167C280.497 313.785 280.831 313.736 281.138 313.608C281.444 313.48 281.714 313.277 281.922 313.018C282.328 312.358 282.531 311.594 282.507 310.819C282.557 310.456 282.531 310.085 282.43 309.732C282.329 309.379 282.156 309.051 281.922 308.768C281.685 308.555 281.407 308.393 281.105 308.292C280.803 308.192 280.484 308.154 280.167 308.182H278.557V313.75Z" fill="#4CAC33"/>
<path d="M295.236 320.052C294.936 320.661 294.498 321.192 293.959 321.604C293.419 322.016 292.791 322.297 292.125 322.424C291.459 322.552 290.772 322.524 290.119 322.341C289.465 322.158 288.863 321.826 288.36 321.371C287.458 320.148 287.041 318.634 287.189 317.121V311.699C287.065 310.188 287.48 308.682 288.36 307.449C288.725 307.042 289.179 306.725 289.686 306.522C290.194 306.319 290.741 306.235 291.286 306.277C292.132 306.268 292.962 306.515 293.667 306.985C294.371 307.456 294.918 308.128 295.236 308.914L293.773 309.794C293.597 309.263 293.266 308.797 292.822 308.457C292.379 308.117 291.843 307.919 291.286 307.889C290.98 307.886 290.678 307.95 290.4 308.076C290.122 308.203 289.875 308.389 289.676 308.621C289.237 309.061 289.091 310.087 289.091 311.699V317.121C289.091 318.733 289.237 319.759 289.676 320.198C290.097 320.643 290.675 320.905 291.286 320.931C291.87 320.935 292.44 320.752 292.913 320.409C293.386 320.067 293.739 319.582 293.919 319.026L295.236 320.052Z" fill="#4CAC33"/>
<path d="M305.33 322.396H298.015V306.57H305.33V308.035H299.771V313.164H303.867V314.63H299.771V320.784H305.33V322.396Z" fill="#4CAC33"/>
<path d="M1495.2 320.198C1495.22 320.707 1495.14 321.215 1494.96 321.693C1494.79 322.17 1494.52 322.609 1494.17 322.982C1493.79 323.362 1493.33 323.662 1492.83 323.863C1492.33 324.064 1491.79 324.163 1491.25 324.155C1490.34 324.209 1489.43 323.986 1488.65 323.515C1487.86 323.045 1487.24 322.348 1486.86 321.517L1488.18 320.491C1488.44 321.089 1488.87 321.6 1489.41 321.963C1489.96 322.326 1490.59 322.527 1491.25 322.543C1491.54 322.558 1491.84 322.514 1492.11 322.413C1492.39 322.313 1492.64 322.157 1492.86 321.957C1493.09 321.728 1493.28 321.454 1493.4 321.152C1493.53 320.85 1493.59 320.525 1493.59 320.198C1493.46 319.394 1493.05 318.664 1492.42 318.147L1489.05 314.923C1488.6 314.485 1488.24 313.962 1487.98 313.384C1487.73 312.805 1487.6 312.183 1487.59 311.552C1487.56 311.064 1487.63 310.575 1487.81 310.119C1487.98 309.663 1488.26 309.251 1488.61 308.914C1489.43 308.227 1490.47 307.863 1491.54 307.888C1492.31 307.872 1493.08 308.069 1493.75 308.456C1494.42 308.844 1494.97 309.408 1495.34 310.087L1494.03 311.112C1493.79 310.646 1493.44 310.251 1493 309.968C1492.57 309.684 1492.06 309.523 1491.54 309.5C1491.27 309.472 1490.99 309.511 1490.74 309.613C1490.48 309.715 1490.26 309.878 1490.08 310.087C1489.86 310.287 1489.69 310.539 1489.58 310.82C1489.48 311.101 1489.45 311.402 1489.49 311.699C1489.5 312.472 1489.82 313.209 1490.37 313.75L1493.73 316.974C1494.62 317.817 1495.15 318.974 1495.2 320.198Z" fill="black"/>
<path d="M1498.27 323.862V308.035H1501.78C1502.37 308.004 1502.96 308.092 1503.51 308.294C1504.06 308.495 1504.57 308.806 1505 309.207C1505.37 309.625 1505.65 310.112 1505.83 310.641C1506 311.17 1506.07 311.729 1506.02 312.285C1506.05 312.873 1505.97 313.462 1505.77 314.016C1505.56 314.57 1505.25 315.077 1504.85 315.509C1504.45 315.902 1503.96 316.208 1503.44 316.41C1502.91 316.611 1502.35 316.704 1501.78 316.681H1500.17V323.862H1498.27ZM1500.03 315.216H1501.63C1501.97 315.254 1502.32 315.222 1502.65 315.121C1502.97 315.021 1503.28 314.853 1503.54 314.629C1504.03 313.953 1504.24 313.113 1504.12 312.285C1504.17 311.921 1504.15 311.551 1504.04 311.197C1503.94 310.844 1503.77 310.516 1503.54 310.233C1503.28 310.01 1502.97 309.842 1502.65 309.741C1502.32 309.64 1501.97 309.608 1501.63 309.647H1500.03V315.216Z" fill="black"/>
<path d="M1509.83 322.982V323.862H1508.07V322.982C1508.24 320.403 1508.69 317.849 1509.39 315.362L1511.29 308.035H1513.34L1515.24 315.362C1515.94 317.849 1516.39 320.403 1516.56 322.982V323.862H1514.8V322.982C1514.75 322.05 1514.66 321.12 1514.51 320.198H1510.27C1509.94 321.088 1509.79 322.034 1509.83 322.982ZM1512.17 310.819L1510.85 316.241C1510.71 317.121 1510.41 317.853 1510.27 318.586H1513.92C1513.78 317.793 1513.59 317.009 1513.34 316.241L1512.17 310.819Z" fill="black"/>
<path d="M1527.24 321.517C1526.94 322.126 1526.5 322.658 1525.96 323.069C1525.42 323.481 1524.79 323.762 1524.13 323.89C1523.46 324.018 1522.77 323.989 1522.12 323.806C1521.47 323.623 1520.86 323.291 1520.36 322.836C1519.46 321.613 1519.04 320.099 1519.19 318.586V313.164C1519.07 311.653 1519.48 310.148 1520.36 308.914C1520.75 308.534 1521.2 308.235 1521.71 308.034C1522.21 307.833 1522.75 307.733 1523.29 307.742C1524.13 307.733 1524.96 307.98 1525.67 308.451C1526.37 308.921 1526.92 309.593 1527.24 310.38L1525.77 311.259C1525.6 310.728 1525.27 310.262 1524.82 309.922C1524.38 309.583 1523.84 309.384 1523.29 309.354C1522.98 309.351 1522.68 309.415 1522.4 309.542C1522.12 309.668 1521.88 309.854 1521.68 310.087C1521.24 310.526 1521.09 311.552 1521.09 313.164V318.586C1521.09 320.198 1521.24 321.224 1521.68 321.664C1522.1 322.108 1522.68 322.371 1523.29 322.396C1523.87 322.4 1524.44 322.217 1524.91 321.875C1525.39 321.532 1525.74 321.048 1525.92 320.491L1527.24 321.517Z" fill="black"/>
<path d="M1537.33 323.862H1530.02V308.035H1537.33V309.5H1531.77V314.63H1535.87V316.095H1531.77V322.25H1537.33V323.862Z" fill="black"/>
<path d="M1005.53 345.697L912.919 315.802L1005.53 285.76" stroke="black" stroke-width="2" stroke-linecap="round" stroke-linejoin="round"/>
<path d="M993.385 354.782C1003.14 328.199 1003.14 299.008 993.385 272.425" stroke="black" stroke-width="2" stroke-linecap="round" stroke-linejoin="round"/>
<path d="M1647.35 258.064C1657.1 231.48 1657.1 202.289 1647.35 175.706" stroke="black" stroke-width="4" stroke-linecap="round" stroke-linejoin="round"/>
<path d="M1642.96 452.967C1652.72 426.383 1652.72 397.192 1642.96 370.609" stroke="black" stroke-width="4" stroke-linecap="round" stroke-linejoin="round"/>
<path d="M1496.66 61.5484C1500.7 61.5484 1503.98 58.2679 1503.98 54.2212C1503.98 50.1745 1500.7 46.894 1496.66 46.894C1492.62 46.894 1489.35 50.1745 1489.35 54.2212C1489.35 58.2679 1492.62 61.5484 1496.66 61.5484Z" stroke="black" stroke-width="4" stroke-linecap="round" stroke-linejoin="round"/>
<path d="M1525.92 61.5484C1529.96 61.5484 1533.24 58.2679 1533.24 54.2212C1533.24 50.1745 1529.96 46.894 1525.92 46.894C1521.88 46.894 1518.61 50.1745 1518.61 54.2212C1518.61 58.2679 1521.88 61.5484 1525.92 61.5484Z" stroke="black" stroke-width="4" stroke-linecap="round" stroke-linejoin="round"/>
<path d="M1394.25 325.327C1398.29 325.327 1401.56 322.047 1401.56 318C1401.56 313.953 1398.29 310.673 1394.25 310.673C1390.21 310.673 1386.93 313.953 1386.93 318C1386.93 322.047 1390.21 325.327 1394.25 325.327Z" stroke="black" stroke-width="4" stroke-linecap="round" stroke-linejoin="round"/>
<path d="M1555.18 61.5484C1559.22 61.5484 1562.5 58.2679 1562.5 54.2212C1562.5 50.1745 1559.22 46.894 1555.18 46.894C1551.14 46.894 1547.87 50.1745 1547.87 54.2212C1547.87 58.2679 1551.14 61.5484 1555.18 61.5484Z" stroke="black" stroke-width="4" stroke-linecap="round" stroke-linejoin="round"/>
<path d="M1642.96 61.5484C1647 61.5484 1650.28 58.2679 1650.28 54.2212C1650.28 50.1745 1647 46.894 1642.96 46.894C1638.92 46.894 1635.65 50.1745 1635.65 54.2212C1635.65 58.2679 1638.92 61.5484 1642.96 61.5484Z" stroke="black" stroke-width="4" stroke-linecap="round" stroke-linejoin="round"/>
<path d="M1400.1 127.493C1404.14 127.493 1407.42 124.213 1407.42 120.166C1407.42 116.119 1404.14 112.839 1400.1 112.839C1396.06 112.839 1392.79 116.119 1392.79 120.166C1392.79 124.213 1396.06 127.493 1400.1 127.493Z" stroke="black" stroke-width="4" stroke-linecap="round" stroke-linejoin="round"/>
<path d="M1133.83 127.493C1137.87 127.493 1141.15 124.213 1141.15 120.166C1141.15 116.119 1137.87 112.839 1133.83 112.839C1129.79 112.839 1126.52 116.119 1126.52 120.166C1126.52 124.213 1129.79 127.493 1133.83 127.493Z" stroke="black" stroke-width="4" stroke-linecap="round" stroke-linejoin="round"/>
<path d="M1133.83 150.94C1137.87 150.94 1141.15 147.66 1141.15 143.613C1141.15 139.566 1137.87 136.286 1133.83 136.286C1129.79 136.286 1126.52 139.566 1126.52 143.613C1126.52 147.66 1129.79 150.94 1133.83 150.94Z" stroke="black" stroke-width="4" stroke-linecap="round" stroke-linejoin="round"/>
<path d="M1133.83 174.387C1137.87 174.387 1141.15 171.107 1141.15 167.06C1141.15 163.013 1137.87 159.733 1133.83 159.733C1129.79 159.733 1126.52 163.013 1126.52 167.06C1126.52 171.107 1129.79 174.387 1133.83 174.387Z" stroke="black" stroke-width="4" stroke-linecap="round" stroke-linejoin="round"/>
<path d="M159.468 55.6866C163.508 55.6866 166.783 52.4061 166.783 48.3594C166.783 44.3127 163.508 41.0322 159.468 41.0322C155.428 41.0322 152.153 44.3127 152.153 48.3594C152.153 52.4061 155.428 55.6866 159.468 55.6866Z" stroke="black" stroke-width="4" stroke-linecap="round" stroke-linejoin="round"/>
<path d="M400.865 616.949C404.905 616.949 408.18 613.669 408.18 609.622C408.18 605.575 404.905 602.295 400.865 602.295C396.825 602.295 393.55 605.575 393.55 609.622C393.55 613.669 396.825 616.949 400.865 616.949Z" stroke="black" stroke-width="4" stroke-linecap="round" stroke-linejoin="round"/>
<path d="M428.662 602.295C432.702 602.295 435.977 599.015 435.977 594.968C435.977 590.921 432.702 587.641 428.662 587.641C424.622 587.641 421.347 590.921 421.347 594.968C421.347 599.015 424.622 602.295 428.662 602.295Z" stroke="black" stroke-width="4" stroke-linecap="round" stroke-linejoin="round"/>
<path d="M456.46 616.949C460.5 616.949 463.775 613.669 463.775 609.622C463.775 605.575 460.5 602.295 456.46 602.295C452.42 602.295 449.144 605.575 449.144 609.622C449.144 613.669 452.42 616.949 456.46 616.949Z" stroke="#E63A1E" stroke-width="4" stroke-linecap="round" stroke-linejoin="round"/>
<path d="M554.481 70.3411C554.481 71.5135 448.852 77.6683 444.755 77.6683C442.815 77.6683 440.955 76.8963 439.583 75.5222C438.211 74.1481 437.44 72.2844 437.44 70.3411C437.44 68.3978 438.211 66.5341 439.583 65.16C440.955 63.7859 442.815 63.0139 444.755 63.0139C448.852 63.0139 554.481 69.1688 554.481 70.3411Z" stroke="#E63A1E" stroke-width="4" stroke-linecap="round" stroke-linejoin="round"/>
<path d="M787.1 42.4978C788.27 42.4978 794.415 148.302 794.415 152.406C794.415 154.349 793.644 156.213 792.273 157.587C790.901 158.961 789.04 159.733 787.1 159.733C785.16 159.733 783.299 158.961 781.928 157.587C780.556 156.213 779.785 154.349 779.785 152.406C779.785 148.302 785.93 42.4978 787.1 42.4978Z" stroke="black" stroke-width="4" stroke-linecap="round" stroke-linejoin="round"/>
<path d="M159.468 592.037C163.508 592.037 166.783 588.756 166.783 584.71C166.783 580.663 163.508 577.383 159.468 577.383C155.428 577.383 152.153 580.663 152.153 584.71C152.153 588.756 155.428 592.037 159.468 592.037Z" stroke="black" stroke-width="4" stroke-linecap="round" stroke-linejoin="round"/>
<path d="M118.504 462.199C120.443 462.199 122.015 460.624 122.015 458.682C122.015 456.74 120.443 455.165 118.504 455.165C116.565 455.165 114.993 456.74 114.993 458.682C114.993 460.624 116.565 462.199 118.504 462.199Z" stroke="black" stroke-width="4" stroke-linecap="round" stroke-linejoin="round"/>
<path d="M118.504 510.558C120.443 510.558 122.015 508.984 122.015 507.041C122.015 505.099 120.443 503.524 118.504 503.524C116.565 503.524 114.993 505.099 114.993 507.041C114.993 508.984 116.565 510.558 118.504 510.558Z" stroke="black" stroke-width="4" stroke-linecap="round" stroke-linejoin="round"/>
<path d="M118.504 558.918C120.443 558.918 122.015 557.343 122.015 555.401C122.015 553.458 120.443 551.884 118.504 551.884C116.565 551.884 114.993 553.458 114.993 555.401C114.993 557.343 116.565 558.918 118.504 558.918Z" stroke="black" stroke-width="4" stroke-linecap="round" stroke-linejoin="round"/>
<path d="M119.967 55.6866C118.027 55.6866 116.166 54.9146 114.794 53.5405C113.423 52.1664 112.652 50.3027 112.652 48.3594C112.652 46.4161 113.423 44.5524 114.794 43.1783C116.166 41.8042 118.027 41.0322 119.967 41.0322" stroke="black" stroke-width="4" stroke-linecap="round" stroke-linejoin="round"/>
<path d="M127.282 584.71C127.282 586.653 126.511 588.517 125.139 589.891C123.768 591.265 121.907 592.037 119.967 592.037C118.027 592.037 116.166 591.265 114.794 589.891C113.423 588.517 112.652 586.653 112.652 584.71" stroke="black" stroke-width="4" stroke-linecap="round" stroke-linejoin="round"/>
<path d="M871.955 316.535H847.083" stroke="#2D4B9A" stroke-width="4" stroke-linecap="round" stroke-linejoin="round"/>
<path d="M732.969 316.535H708.097" stroke="#2D4B9A" stroke-width="4" stroke-linecap="round" stroke-linejoin="round"/>
<path d="M632.606 315.802H347.173" stroke="#4CAC33" stroke-width="4" stroke-linecap="round" stroke-linejoin="round"/>
<path d="M629.973 307.009L645.188 315.802L629.973 324.595V307.009Z" fill="#4CAC33"/>
<path d="M677.374 337.051V343.792H675.911V341.3H663.037V343.206H661.574V337.49H663.037V339.395H675.911V337.051H677.374Z" fill="#4E4D4D"/>
<path d="M677.374 325.913V327.525L672.546 327.672L663.914 332.215C667.133 331.922 669.767 331.775 671.961 331.775H677.228V333.534H661.427V331.775L670.059 327.232C666.841 327.525 664.207 327.672 662.013 327.672H661.574V325.913H677.374Z" fill="#4E4D4D"/>
<path d="M677.374 322.396H661.574V318.879C661.543 318.291 661.631 317.702 661.832 317.148C662.033 316.594 662.343 316.087 662.744 315.655C663.161 315.286 663.648 315.004 664.176 314.828C664.704 314.652 665.262 314.584 665.816 314.629C666.404 314.599 666.992 314.687 667.545 314.888C668.098 315.09 668.604 315.4 669.035 315.802C669.427 316.209 669.733 316.692 669.935 317.221C670.136 317.75 670.228 318.314 670.205 318.879V320.491H677.374V322.396ZM668.742 320.638V319.026C668.781 318.685 668.749 318.34 668.648 318.012C668.548 317.684 668.38 317.381 668.157 317.121C667.482 316.629 666.643 316.419 665.816 316.535C665.453 316.485 665.083 316.511 664.731 316.612C664.378 316.713 664.05 316.886 663.768 317.121C663.545 317.381 663.378 317.684 663.277 318.012C663.176 318.34 663.144 318.685 663.183 319.026V320.638H668.742Z" fill="#4E4D4D"/>
<path d="M672.693 304.811C674.061 304.724 675.414 305.141 676.496 305.983C676.885 306.299 677.194 306.703 677.398 307.162C677.601 307.62 677.693 308.12 677.667 308.621C677.66 309.117 677.553 309.607 677.352 310.06C677.151 310.514 676.86 310.922 676.496 311.259C675.425 312.123 674.064 312.543 672.693 312.431H661.574V310.673H672.693C673.612 310.8 674.547 310.592 675.326 310.087C675.553 309.916 675.738 309.695 675.865 309.44C675.992 309.186 676.058 308.906 676.058 308.621C676.058 308.337 675.992 308.056 675.865 307.802C675.738 307.548 675.553 307.326 675.326 307.156C674.547 306.651 673.612 306.443 672.693 306.57H661.574V304.811H672.693Z" fill="#4E4D4D"/>
<path d="M663.037 293.82V297.044H677.374V298.803H663.037V302.027H661.574V293.82H663.037Z" fill="#4E4D4D"/>
<path d="M787.1 466.156V560.823" stroke="black" stroke-width="4" stroke-linecap="round" stroke-linejoin="round"/>
<path d="M778.322 468.794L787.1 453.553L795.878 468.794H778.322Z" fill="black"/>
<path d="M345.271 278.287H201.896V353.171H345.271V278.287Z" stroke="#4CAC33" stroke-width="4" stroke-linecap="round" stroke-linejoin="round"/>
<path d="M1098.72 229.341H1329.73C1338.88 229.326 1347.66 225.677 1354.13 219.194C1360.6 212.712 1364.24 203.924 1364.26 194.757V118.847C1364.27 109.679 1367.92 100.892 1374.39 94.4093C1380.86 87.9269 1389.63 84.2782 1398.79 84.2627H1673.69" stroke="black" stroke-width="4" stroke-linecap="round" stroke-linejoin="round"/>
<path d="M1201.13 601.562L1223.22 630.871L1245.32 601.562L1267.41 630.871L1289.5 601.562L1311.59 630.871L1333.68 601.562L1355.77 630.871L1377.72 601.562L1399.81 630.871L1421.9 601.562L1443.99 630.871L1466.08 601.562L1488.18 630.871L1510.27 601.562L1532.36 630.871L1554.45 601.562L1576.54 630.871L1598.63 601.562L1620.72 630.871L1642.82 601.562L1664.91 630.871" stroke="black" stroke-width="4" stroke-linecap="round" stroke-linejoin="round"/>
<path d="M316.01 211.023H342.345" stroke="black" stroke-width="4" stroke-linecap="round" stroke-linejoin="round"/>
<path d="M327.715 224.212V197.834" stroke="black" stroke-width="4" stroke-linecap="round" stroke-linejoin="round"/>
<path d="M1648.81 318H1666.37" stroke="#E63A1E" stroke-width="4" stroke-linecap="round" stroke-linejoin="round"/>
<path d="M1657.59 326.793V309.207" stroke="#E63A1E" stroke-width="4" stroke-linecap="round" stroke-linejoin="round"/>
<path d="M14.6301 318H32.1862" stroke="black" stroke-width="4" stroke-linecap="round" stroke-linejoin="round"/>
<path d="M316.01 426.442H342.345" stroke="black" stroke-width="4" stroke-linecap="round" stroke-linejoin="round"/>
<path d="M327.715 439.631V413.253" stroke="black" stroke-width="4" stroke-linecap="round" stroke-linejoin="round"/>
<path d="M222.378 61.5483L955.346 238.866" stroke="black" stroke-width="4" stroke-linecap="round" stroke-linejoin="round"/>
<path d="M225.157 42.7908L955.346 231.539" stroke="black" stroke-width="4" stroke-linecap="round" stroke-linejoin="round"/>
<path d="M231.595 565.806L268.609 565.952L301.38 548.953H338.395L371.166 531.954L408.18 532.101L440.952 515.101L477.966 515.248L510.737 498.249L547.751 498.395L580.523 481.396H617.537L650.455 464.397L687.323 464.544L720.24 447.545L757.108 447.691L790.026 430.692L827.04 430.839L859.812 413.84H896.826L929.597 396.841L966.612 396.987" stroke="black" stroke-width="4" stroke-linecap="round" stroke-linejoin="round"/>
<path d="M23.4082 339.249C35.5282 339.249 45.3534 329.407 45.3534 317.267C45.3534 305.127 35.5282 295.286 23.4082 295.286C11.2882 295.286 1.46301 305.127 1.46301 317.267C1.46301 329.407 11.2882 339.249 23.4082 339.249Z" stroke="black" stroke-width="4" stroke-linecap="round" stroke-linejoin="round"/>
<path d="M1657.59 339.249C1669.71 339.249 1679.54 329.407 1679.54 317.267C1679.54 305.127 1669.71 295.286 1657.59 295.286C1645.47 295.286 1635.65 305.127 1635.65 317.267C1635.65 329.407 1645.47 339.249 1657.59 339.249Z" stroke="black" stroke-width="4" stroke-linecap="round" stroke-linejoin="round"/>
<path d="M613.88 410.176C665.996 410.176 708.244 367.858 708.244 315.655C708.244 263.453 665.996 221.135 613.88 221.135C561.764 221.135 519.515 263.453 519.515 315.655C519.515 367.858 561.764 410.176 613.88 410.176Z" stroke="black" stroke-width="4" stroke-linecap="round" stroke-linejoin="round"/>
<path d="M788.563 211.023V237.401" stroke="#2D4B9A" stroke-width="4" stroke-linecap="round" stroke-linejoin="round"/>
<path d="M788.563 392.737V419.115" stroke="#2D4B9A" stroke-width="4" stroke-linecap="round" stroke-linejoin="round"/>
<path d="M843.865 369.437L866.103 391.272" stroke="#2D4B9A" stroke-width="4" stroke-linecap="round" stroke-linejoin="round"/>
<path d="M865.664 238.866L843.865 260.701" stroke="#2D4B9A" stroke-width="4" stroke-linecap="round" stroke-linejoin="round"/>
<path d="M741.6 369.437L719.802 391.272" stroke="#2D4B9A" stroke-width="4" stroke-linecap="round" stroke-linejoin="round"/>
<path d="M719.802 238.866L741.6 260.701" stroke="#2D4B9A" stroke-width="4" stroke-linecap="round" stroke-linejoin="round"/>
<path d="M1510.71 410.909C1562.42 410.909 1604.34 368.918 1604.34 317.121C1604.34 265.323 1562.42 223.333 1510.71 223.333C1458.99 223.333 1417.07 265.323 1417.07 317.121C1417.07 368.918 1458.99 410.909 1510.71 410.909Z" stroke="#E63A1E" stroke-width="4" stroke-linecap="round" stroke-linejoin="round"/>
<path d="M27.0657 180.981H4.38904V1.46533H27.0657" stroke="black" stroke-width="4" stroke-linecap="round" stroke-linejoin="round"/>
<path d="M27.0657 633.069H4.38904V453.553H27.0657" stroke="black" stroke-width="4" stroke-linecap="round" stroke-linejoin="round"/>
<path d="M1098.72 20.5161H1163.09" stroke="black" stroke-width="4" stroke-miterlimit="10" stroke-linecap="round"/>
<path d="M1098.72 33.7051H1141.15" stroke="black" stroke-width="4" stroke-miterlimit="10" stroke-linecap="round"/>
<path d="M1098.72 46.894H1163.09" stroke="black" stroke-width="4" stroke-miterlimit="10" stroke-linecap="round"/>
<path d="M1098.72 60.083H1125.06" stroke="black" stroke-width="4" stroke-miterlimit="10" stroke-linecap="round"/>
<path d="M1266.97 20.5161H1331.34" stroke="black" stroke-width="4" stroke-miterlimit="10" stroke-linecap="round"/>
<path d="M1266.97 33.7051H1331.34" stroke="black" stroke-width="4" stroke-miterlimit="10" stroke-linecap="round"/>
<path d="M1266.97 46.894H1331.34" stroke="black" stroke-width="4" stroke-miterlimit="10" stroke-linecap="round"/>
<path d="M1266.97 60.083H1313.78" stroke="black" stroke-width="4" stroke-miterlimit="10" stroke-linecap="round"/>
<path d="M119.235 413.253C132.81 413.253 143.814 370.541 143.814 317.853C143.814 265.165 132.81 222.453 119.235 222.453C105.661 222.453 94.6568 265.165 94.6568 317.853C94.6568 370.541 105.661 413.253 119.235 413.253Z" stroke="black" stroke-width="4" stroke-miterlimit="10" stroke-linecap="round"/>
<path d="M45.3534 48.3594H65.6892L42.5736 77.6681H65.6892L42.5736 108.442H65.6892L42.5736 136.286" stroke="#2D4B9A" stroke-width="4" stroke-miterlimit="10" stroke-linecap="round"/>
<path d="M45.3534 498.981H54.1314C55.1846 498.978 56.2173 499.273 57.1105 499.832C58.0037 500.391 58.721 501.192 59.1798 502.141C59.6385 503.091 59.82 504.151 59.7034 505.199C59.5867 506.248 59.1767 507.242 58.5205 508.067L49.7424 519.204C49.0862 520.03 48.6761 521.024 48.5595 522.072C48.4428 523.121 48.6243 524.181 49.0831 525.131C49.5418 526.08 50.2591 526.881 51.1523 527.44C52.0455 527.999 53.0782 528.294 54.1314 528.29H54.424C55.4667 528.275 56.4926 528.553 57.3853 529.093C58.2781 529.633 59.0017 530.412 59.4741 531.343C59.9466 532.275 60.1487 533.32 60.0577 534.36C59.9668 535.401 59.5862 536.395 58.9594 537.229L49.3035 550.125C48.6766 550.96 48.2961 551.954 48.2051 552.994C48.1141 554.035 48.3163 555.08 48.7887 556.011C49.2611 556.942 49.9848 557.722 50.8775 558.262C51.7702 558.801 52.7962 559.08 53.8388 559.064C54.9034 559.072 55.9438 559.383 56.8382 559.961C57.7326 560.54 58.4441 561.361 58.8892 562.33C59.3344 563.299 59.4948 564.374 59.3518 565.431C59.2088 566.488 58.7682 567.482 58.0816 568.297L42.5736 586.908" stroke="#2D4B9A" stroke-width="4" stroke-miterlimit="10" stroke-linecap="round"/>
<path d="M106.8 199.3H134.597" stroke="#E63A1E" stroke-width="4" stroke-miterlimit="10" stroke-linecap="round"/>
<path d="M153.616 199.3H181.413" stroke="#E63A1E" stroke-width="4" stroke-miterlimit="10" stroke-linecap="round"/>
<path d="M200.433 199.3H228.23" stroke="#E63A1E" stroke-width="4" stroke-miterlimit="10" stroke-linecap="round"/>
<path d="M247.249 199.3H275.046" stroke="#E63A1E" stroke-width="4" stroke-miterlimit="10" stroke-linecap="round"/>
<path d="M106.8 181.714H134.597" stroke="#E63A1E" stroke-width="4" stroke-miterlimit="10" stroke-linecap="round"/>
<path d="M153.616 181.714H181.413" stroke="#E63A1E" stroke-width="4" stroke-miterlimit="10" stroke-linecap="round"/>
<path d="M200.433 181.714H228.23" stroke="#E63A1E" stroke-width="4" stroke-miterlimit="10" stroke-linecap="round"/>
<path d="M247.249 181.714H275.046" stroke="#E63A1E" stroke-width="4" stroke-miterlimit="10" stroke-linecap="round"/>
<path d="M106.8 164.129H134.597" stroke="black" stroke-width="4" stroke-miterlimit="10" stroke-linecap="round"/>
<path d="M153.616 164.129H181.413" stroke="#E63A1E" stroke-width="4" stroke-miterlimit="10" stroke-linecap="round"/>
<path d="M200.433 164.129H228.23" stroke="black" stroke-width="4" stroke-miterlimit="10" stroke-linecap="round"/>
<path d="M247.249 164.129H275.046" stroke="#E63A1E" stroke-width="4" stroke-miterlimit="10" stroke-linecap="round"/>
<path d="M106.8 146.544H134.597" stroke="black" stroke-width="4" stroke-miterlimit="10" stroke-linecap="round"/>
<path d="M153.616 146.544H181.413" stroke="#E63A1E" stroke-width="4" stroke-miterlimit="10" stroke-linecap="round"/>
<path d="M200.433 146.544H228.23" stroke="black" stroke-width="4" stroke-miterlimit="10" stroke-linecap="round"/>
<path d="M247.249 146.544H275.046" stroke="#E63A1E" stroke-width="4" stroke-miterlimit="10" stroke-linecap="round"/>
<path d="M106.8 128.958H134.597" stroke="black" stroke-width="4" stroke-miterlimit="10" stroke-linecap="round"/>
<path d="M153.616 128.958H181.413" stroke="black" stroke-width="4" stroke-miterlimit="10" stroke-linecap="round"/>
<path d="M200.433 128.958H228.23" stroke="black" stroke-width="4" stroke-miterlimit="10" stroke-linecap="round"/>
<path d="M247.249 128.958H275.046" stroke="#E63A1E" stroke-width="4" stroke-miterlimit="10" stroke-linecap="round"/>
<path d="M118.504 391.272V439.631" stroke="black" stroke-width="4" stroke-miterlimit="10" stroke-linecap="round"/>
<path d="M1202.6 93.788V77.6682H1218.69" stroke="#E63A1E" stroke-width="4" stroke-linecap="round" stroke-linejoin="round"/>
<path d="M1202.6 143.613V127.493H1218.69" stroke="#E63A1E" stroke-width="4" stroke-linecap="round" stroke-linejoin="round"/>
<path d="M1202.6 520.23V536.35H1218.69" stroke="black" stroke-width="4" stroke-linecap="round" stroke-linejoin="round"/>
<path d="M1202.6 470.406V486.525H1218.69" stroke="black" stroke-width="4" stroke-linecap="round" stroke-linejoin="round"/>
<path d="M1678.81 143.613V127.493H1662.71" stroke="black" stroke-width="4" stroke-linecap="round" stroke-linejoin="round"/>
<path d="M1678.81 470.406V486.525H1662.71" stroke="black" stroke-width="4" stroke-linecap="round" stroke-linejoin="round"/>
<path d="M952.42 20.5161H967.05" stroke="black" stroke-width="4" stroke-linecap="round" stroke-linejoin="round"/>
<path d="M952.42 193.438H967.05" stroke="black" stroke-width="4" stroke-linecap="round" stroke-linejoin="round"/>
<path d="M952.42 366.359H967.05" stroke="black" stroke-width="4" stroke-linecap="round" stroke-linejoin="round"/>
<path d="M441.829 366.359H456.46" stroke="black" stroke-width="4" stroke-linecap="round" stroke-linejoin="round"/>
<path d="M449 380H463.63" stroke="#E63A1E" stroke-width="4" stroke-linecap="round" stroke-linejoin="round"/>
<path d="M441.829 395.668H456.46" stroke="black" stroke-width="4" stroke-linecap="round" stroke-linejoin="round"/>
<path d="M431.588 410.323H446.218" stroke="#E63A1E" stroke-width="4" stroke-linecap="round" stroke-linejoin="round"/>
<path d="M430.125 424.977H444.755" stroke="black" stroke-width="4" stroke-linecap="round" stroke-linejoin="round"/>
<path d="M504.739 424.977H519.369" stroke="black" stroke-width="4" stroke-linecap="round" stroke-linejoin="round"/>
<path d="M463.775 464.544H478.405" stroke="black" stroke-width="4" stroke-linecap="round" stroke-linejoin="round"/>
<path d="M194.581 464.544H209.211" stroke="#E63A1E" stroke-width="4" stroke-linecap="round" stroke-linejoin="round"/>
<path d="M219.452 464.544H234.082" stroke="#E63A1E" stroke-width="4" stroke-linecap="round" stroke-linejoin="round"/>
<path d="M219.452 479.198H234.082" stroke="#E63A1E" stroke-width="4" stroke-linecap="round" stroke-linejoin="round"/>
<path d="M226.767 493.853H241.397" stroke="#E63A1E" stroke-width="4" stroke-linecap="round" stroke-linejoin="round"/>
<path d="M219.452 508.507H234.082" stroke="#E63A1E" stroke-width="4" stroke-linecap="round" stroke-linejoin="round"/>
<path d="M244.323 464.544H258.953" stroke="#E63A1E" stroke-width="4" stroke-linecap="round" stroke-linejoin="round"/>
<path d="M244.323 382.479H258.953" stroke="black" stroke-width="4" stroke-linecap="round" stroke-linejoin="round"/>
<path d="M217.989 382.479H232.619" stroke="black" stroke-width="4" stroke-linecap="round" stroke-linejoin="round"/>
<path d="M952.42 539.281H967.05" stroke="black" stroke-width="4" stroke-linecap="round" stroke-linejoin="round"/>
<path d="M386.235 193.438H408.18" stroke="black" stroke-width="4" stroke-linecap="round" stroke-linejoin="round"/>
<path d="M386.235 181.714H408.18" stroke="black" stroke-width="4" stroke-linecap="round" stroke-linejoin="round"/>
<path d="M386.235 169.991H408.18" stroke="black" stroke-width="4" stroke-linecap="round" stroke-linejoin="round"/>
<path d="M386.235 32.2397H408.18" stroke="black" stroke-width="4" stroke-linecap="round" stroke-linejoin="round"/>
<path d="M386.235 20.5161H408.18" stroke="black" stroke-width="4" stroke-linecap="round" stroke-linejoin="round"/>
<path d="M386.235 8.79272H408.18" stroke="black" stroke-width="4" stroke-linecap="round" stroke-linejoin="round"/>
<path d="M754.914 634.535H817.823" stroke="black" stroke-width="4" stroke-linecap="round" stroke-linejoin="round"/>
<path d="M396.476 634.535H459.386" stroke="black" stroke-width="4" stroke-linecap="round" stroke-linejoin="round"/>
<path d="M1103.4 517.3V548.074" stroke="black" stroke-width="4" stroke-linecap="round" stroke-linejoin="round"/>
<path d="M1103.4 601.855V632.776" stroke="black" stroke-width="4" stroke-linecap="round" stroke-linejoin="round"/>
<path d="M1125.06 633.069V517.3" stroke="black" stroke-width="4" stroke-linecap="round" stroke-linejoin="round"/>
<path d="M1288.91 454.286H1398.64" stroke="black" stroke-width="4" stroke-linecap="round" stroke-linejoin="round"/>
<path d="M1288.91 482.129H1398.64" stroke="black" stroke-width="4" stroke-linecap="round" stroke-linejoin="round"/>
<path d="M1288.91 509.972H1398.64" stroke="black" stroke-width="4" stroke-linecap="round" stroke-linejoin="round"/>
<path d="M1300.62 549.539V439.631" stroke="black" stroke-width="4" stroke-linecap="round" stroke-linejoin="round"/>
<path d="M1328.41 549.539V439.631" stroke="black" stroke-width="4" stroke-linecap="round" stroke-linejoin="round"/>
<path d="M1356.21 551.005V441.097" stroke="black" stroke-width="4" stroke-linecap="round" stroke-linejoin="round"/>
<path d="M1384.01 551.005V441.097" stroke="black" stroke-width="4" stroke-linecap="round" stroke-linejoin="round"/>
<path d="M1470.33 551.005V511.438" stroke="black" stroke-width="4" stroke-linecap="round" stroke-linejoin="round"/>
<path d="M1498.12 551.005V511.438" stroke="black" stroke-width="4" stroke-linecap="round" stroke-linejoin="round"/>
<path d="M1525.92 552.47V512.903" stroke="black" stroke-width="4" stroke-linecap="round" stroke-linejoin="round"/>
<path d="M1553.72 552.47V512.903" stroke="black" stroke-width="4" stroke-linecap="round" stroke-linejoin="round"/>
<path d="M884.683 103.313C856.886 82.7973 823.09 72.8323 786.661 72.8323C750.232 72.8323 716.583 82.7973 688.639 103.313" stroke="black" stroke-width="4" stroke-linecap="round" stroke-linejoin="round"/>
<path d="M1163.09 351.705V398.306C1163.1 400.23 1162.73 402.138 1162.01 403.92C1161.28 405.701 1160.21 407.322 1158.86 408.69C1157.51 410.057 1155.9 411.145 1154.13 411.89C1152.36 412.635 1150.46 413.024 1148.54 413.034C1146.62 413.043 1144.71 412.674 1142.93 411.946C1141.15 411.219 1139.54 410.147 1138.17 408.793C1136.81 407.439 1135.72 405.829 1134.98 404.055C1134.23 402.281 1133.84 400.377 1133.83 398.453V351.705" stroke="#2D4B9A" stroke-width="4" stroke-linecap="round" stroke-linejoin="round"/>
<path d="M1163.09 351.705V305.104C1163.1 303.18 1163.49 301.276 1164.24 299.502C1164.98 297.728 1166.07 296.117 1167.43 294.763C1168.8 293.409 1170.41 292.338 1172.19 291.611C1173.97 290.883 1175.88 290.514 1177.8 290.523C1179.72 290.533 1181.62 290.921 1183.39 291.667C1185.16 292.412 1186.77 293.5 1188.12 294.867C1189.47 296.235 1190.54 297.856 1191.27 299.637C1191.99 301.419 1192.36 303.326 1192.35 305.251V351.705H1221.61V305.104C1221.63 301.218 1223.19 297.498 1225.95 294.763C1227.32 293.409 1228.93 292.338 1230.71 291.611C1232.49 290.883 1234.4 290.514 1236.32 290.523C1238.24 290.533 1240.14 290.921 1241.91 291.667C1243.68 292.412 1245.29 293.5 1246.64 294.867C1247.99 296.235 1249.06 297.856 1249.79 299.637C1250.52 301.419 1250.88 303.326 1250.87 305.251V351.705H1328.41" stroke="#2D4B9A" stroke-width="4" stroke-linecap="round" stroke-linejoin="round"/>
<path d="M924.623 633.069V565.512L974.512 565.366C975.276 565.56 976.07 565.61 976.853 565.512C1004.36 564.633 1025.72 542.065 1025.72 514.222V414.719H1053.22C1070.92 414.719 1079.7 414.719 1079.99 408.418L1079.7 405.487L1018.69 190.36L1019.87 194.757C1011.16 159.503 994.7 126.642 971.692 98.5758C948.684 70.5092 919.707 47.9454 886.877 32.5327C854.567 16.7994 819.075 8.72644 783.15 8.93916C648.407 8.93916 539.559 118.847 538.973 253.96C538.973 321.517 559.894 404.607 656.453 430.253C666.109 432.89 672.107 443.588 669.767 453.406L638.019 632.776" stroke="#E63A1E" stroke-width="4" stroke-miterlimit="10" stroke-linecap="round"/>
<path d="M1358.26 317.267H1098.72" stroke="#4CAC33" stroke-width="4" stroke-linecap="round" stroke-linejoin="round"/>
<path d="M1355.63 308.475L1370.84 317.267L1355.63 326.06V308.475Z" fill="#4CAC33"/>
<path d="M1288.91 537.816H1398.64" stroke="black" stroke-width="4" stroke-linecap="round" stroke-linejoin="round"/>
<path d="M1458.62 539.281H1568.35" stroke="black" stroke-width="4" stroke-linecap="round" stroke-linejoin="round"/>
<path d="M763.692 322.396C767.732 322.396 771.007 319.116 771.007 315.069C771.007 311.022 767.732 307.742 763.692 307.742C759.652 307.742 756.377 311.022 756.377 315.069C756.377 319.116 759.652 322.396 763.692 322.396Z" stroke="black" stroke-width="4" stroke-linecap="round" stroke-linejoin="round"/>
<path d="M776.859 348.774C780.899 348.774 784.174 345.494 784.174 341.447C784.174 337.4 780.899 334.12 776.859 334.12C772.819 334.12 769.544 337.4 769.544 341.447C769.544 345.494 772.819 348.774 776.859 348.774Z" stroke="black" stroke-width="4" stroke-linecap="round" stroke-linejoin="round"/>
<path d="M803.193 348.774C807.233 348.774 810.508 345.494 810.508 341.447C810.508 337.4 807.233 334.12 803.193 334.12C799.153 334.12 795.878 337.4 795.878 341.447C795.878 345.494 799.153 348.774 803.193 348.774Z" stroke="black" stroke-width="4" stroke-linecap="round" stroke-linejoin="round"/>
<path d="M776.859 297.484C780.899 297.484 784.174 294.203 784.174 290.157C784.174 286.11 780.899 282.83 776.859 282.83C772.819 282.83 769.544 286.11 769.544 290.157C769.544 294.203 772.819 297.484 776.859 297.484Z" stroke="black" stroke-width="4" stroke-linecap="round" stroke-linejoin="round"/>
<path d="M803.193 297.484C807.233 297.484 810.508 294.203 810.508 290.157C810.508 286.11 807.233 282.83 803.193 282.83C799.153 282.83 795.878 286.11 795.878 290.157C795.878 294.203 799.153 297.484 803.193 297.484Z" stroke="black" stroke-width="4" stroke-linecap="round" stroke-linejoin="round"/>
<path d="M790.026 322.396C794.066 322.396 797.341 319.116 797.341 315.069C797.341 311.022 794.066 307.742 790.026 307.742C785.986 307.742 782.711 311.022 782.711 315.069C782.711 319.116 785.986 322.396 790.026 322.396Z" stroke="black" stroke-width="4" stroke-linecap="round" stroke-linejoin="round"/>
<path d="M816.36 322.396C820.4 322.396 823.675 319.116 823.675 315.069C823.675 311.022 820.4 307.742 816.36 307.742C812.32 307.742 809.045 311.022 809.045 315.069C809.045 319.116 812.32 322.396 816.36 322.396Z" stroke="black" stroke-width="4" stroke-linecap="round" stroke-linejoin="round"/>
<path d="M779.931 296.751L786.807 308.475" stroke="black" stroke-width="4" stroke-linecap="round" stroke-linejoin="round"/>
<path d="M793.098 321.664L799.975 333.387" stroke="black" stroke-width="4" stroke-linecap="round" stroke-linejoin="round"/>
<path d="M799.975 296.751L793.098 308.475" stroke="black" stroke-width="4" stroke-linecap="round" stroke-linejoin="round"/>
<path d="M786.807 321.664L779.931 333.387" stroke="black" stroke-width="4" stroke-linecap="round" stroke-linejoin="round"/>
<path d="M771.007 315.069H782.711" stroke="black" stroke-width="4" stroke-linecap="round" stroke-linejoin="round"/>
<path d="M797.341 315.069H809.045" stroke="black" stroke-width="4" stroke-linecap="round" stroke-linejoin="round"/>
</g>
<defs>
<clipPath id="clip0_502_2032">
<rect width="1681" height="636" fill="white"/>
</clipPath>
</defs>
</svg>
