<svg width="214" height="40" viewBox="0 0 214 40" fill="none" xmlns="http://www.w3.org/2000/svg">
<path d="M89.1064 32.7885H74.6322V29.9038H80.1481V5.28902H76.2163V2.4036H83.5905V29.9038H89.1064V32.7885Z" fill="#1D1D1B"/>
<path d="M103.99 23.2118V20.1346C103.99 17.4678 103.589 15.6243 102.788 14.6057C101.985 13.5857 100.958 13.0764 99.7069 13.0764C98.4548 13.0764 97.4306 13.5857 96.6358 14.6057C95.8395 15.6243 95.4424 17.4678 95.4424 20.1346V23.2118C95.4424 25.8786 95.8395 27.7221 96.6358 28.7407C97.4306 29.7607 98.4541 30.27 99.7069 30.27C100.958 30.27 101.985 29.7607 102.788 28.7407C103.588 27.7214 103.99 25.878 103.99 23.2118ZM107.433 23.2118C107.433 26.6608 106.712 29.2115 105.272 30.8659C103.831 32.5196 101.976 33.3465 99.7069 33.3465C97.4376 33.3465 95.5857 32.5196 94.1511 30.8659C92.7166 29.2115 92 26.6601 92 23.2118V20.1346C92 16.6856 92.7166 14.1349 94.1511 12.4805C95.5857 10.8267 97.4369 9.99989 99.7069 9.99989C101.976 9.99989 103.83 10.8267 105.272 12.4805C106.712 14.1349 107.433 16.6863 107.433 20.1346V23.2118Z" fill="#1D1D1B"/>
<path d="M125.313 32.7885H121.362L117.391 21.0001C116.022 16.9613 115.272 13.9164 115.141 11.8654L115.043 10.2495H118.486L118.584 11.8654C118.702 13.8147 119.353 16.6987 120.54 20.5189L123.337 29.5958L126.135 20.5189C127.322 16.6981 127.974 13.814 128.091 11.8654L128.189 10.2495H131.632L131.534 11.8654C131.403 13.9164 130.653 16.9613 129.284 21.0001L125.313 32.7885Z" fill="#1D1D1B"/>
<path d="M147.553 27.5002V22.3273H144.267C142.624 22.3273 141.385 22.706 140.55 23.4628C139.716 24.2188 139.299 25.2382 139.299 26.52C139.299 28.9051 140.492 30.0969 142.879 30.0969C144.756 30.0955 146.314 29.2309 147.553 27.5002ZM150.996 32.7885H147.554V30.2495C146.093 32.1988 144.248 33.1734 142.018 33.1734C140.154 33.1734 138.644 32.5418 137.49 31.2791C136.337 30.0158 135.759 28.4301 135.759 26.5193C135.759 24.5584 136.479 22.9136 137.92 21.5864C139.361 20.2598 141.476 19.5965 144.268 19.5965H147.554V17.1538C147.554 14.3213 146.185 12.9033 143.446 12.9033C141.425 12.9033 139.911 13.7824 138.909 15.5385L136.306 13.6154C138.107 11.0894 140.493 9.82748 143.466 9.82748C145.67 9.82748 147.475 10.4461 148.884 11.6826C150.292 12.9198 150.996 14.744 150.996 17.1538V32.7885Z" fill="#1D1D1B"/>
<path d="M168.796 29.2694C168.796 30.3079 168.415 31.2186 167.652 32.0001C166.889 32.7823 165.934 33.1727 164.787 33.1727C163.625 33.1727 162.677 32.7823 161.94 32.0001C161.203 31.218 160.835 30.3072 160.835 29.2694C160.835 28.2439 161.203 27.3345 161.94 26.5393C162.677 25.7433 163.625 25.3461 164.787 25.3461C165.934 25.3461 166.889 25.7475 167.652 26.5482C168.415 27.3496 168.796 28.2569 168.796 29.2694Z" fill="#1D1D1B"/>
<path d="M187.73 2.61461C187.73 3.33287 187.477 3.94529 186.97 4.45116C186.463 4.95842 185.833 5.21135 185.08 5.21135C184.326 5.21135 183.699 4.95842 183.2 4.45116C182.699 3.94529 182.449 3.33287 182.449 2.61461C182.449 1.89772 182.699 1.28187 183.2 0.769125C183.699 0.256375 184.326 0 185.08 0C185.833 0 186.463 0.256375 186.97 0.769125C187.477 1.28187 187.73 1.89772 187.73 2.61461ZM192.933 32.7885H178.498V29.9038H183.994V13.1342H180.063V10.2495H187.437V29.9038H192.934L192.933 32.7885Z" fill="#1D1D1B"/>
<path d="M210.558 23.0387V19.9615C210.558 17.2947 210.156 15.4512 209.355 14.4326C208.553 13.4126 207.526 12.9033 206.274 12.9033C205.022 12.9033 203.998 13.4126 203.203 14.4326C202.407 15.4512 202.01 17.2947 202.01 19.9615V23.0387C202.01 25.7055 202.407 27.549 203.203 28.5676C203.998 29.5876 205.021 30.0969 206.274 30.0969C207.526 30.0969 208.553 29.5876 209.355 28.5676C210.156 27.5483 210.558 25.7049 210.558 23.0387ZM214 23.0387C214 26.4877 213.279 29.0384 211.839 30.6928C210.398 32.3466 208.543 33.1734 206.274 33.1734C204.005 33.1734 202.153 32.3466 200.718 30.6928C199.284 29.0384 198.567 26.487 198.567 23.0387V19.9615C198.567 16.5125 199.284 13.9618 200.718 12.3074C202.153 10.6537 204.004 9.82679 206.274 9.82679C208.543 9.82679 210.398 10.6537 211.839 12.3074C213.279 13.9618 214 16.5132 214 19.9615V23.0387Z" fill="#1D1D1B"/>
<path d="M22.723 22.7892C22.723 24.0814 21.6575 25.1289 20.3432 25.1289C19.0289 25.1289 17.9628 24.0814 17.9628 22.7892C17.9628 21.497 19.0289 20.4495 20.3432 20.4495C21.6575 20.4495 22.723 21.497 22.723 22.7892ZM14.1555 22.7892C14.1555 24.0814 13.09 25.1289 11.7757 25.1289C10.4614 25.1289 9.39526 24.0814 9.39526 22.7892C9.39526 21.497 10.4614 20.4495 11.7757 20.4495C13.09 20.4495 14.1555 21.497 14.1555 22.7892ZM18.4389 14.834C18.4389 16.1262 17.3734 17.1737 16.0591 17.1737C14.7448 17.1737 13.6794 16.1262 13.6794 14.834C13.6794 13.5418 14.7448 12.4943 16.0591 12.4943C17.3734 12.4943 18.4389 13.5418 18.4389 14.834ZM9.87205 14.834C9.87205 16.1262 8.80592 17.1737 7.4916 17.1737C6.17729 17.1737 5.11185 16.1262 5.11185 14.834C5.11185 13.5418 6.17729 12.4943 7.4916 12.4943C8.80592 12.4943 9.87205 13.5418 9.87205 14.834ZM18.4389 31.2125C18.4389 32.5046 17.3734 33.5521 16.0591 33.5521C14.7448 33.5521 13.6794 32.5046 13.6794 31.2125C13.6794 29.9203 14.7448 28.8728 16.0591 28.8728C17.3734 28.8735 18.4389 29.9203 18.4389 31.2125ZM9.87205 31.2125C9.87205 32.5046 8.80592 33.5521 7.4916 33.5521C6.17729 33.5521 5.11185 32.5046 5.11185 31.2125C5.11185 29.9203 6.17729 28.8728 7.4916 28.8728C8.80592 28.8728 9.87205 29.9203 9.87205 31.2125ZM5.58794 22.7892C5.58794 24.0814 4.5225 25.1289 3.20819 25.1289C1.89387 25.1289 0.827739 24.0814 0.827739 22.7892C0.827739 21.497 1.89387 20.4495 3.20819 20.4495C4.5225 20.4495 5.58794 21.497 5.58794 22.7892Z" fill="#1D1D1B"/>
<path d="M16.0591 34.3659C14.2904 34.3659 12.8516 32.9514 12.8516 31.2125C12.8516 30.1945 13.3452 29.2865 14.1086 28.7106L12.3958 25.8836C11.984 25.9612 11.5331 25.9612 11.1234 25.8774L9.41763 28.692C10.1957 29.2673 10.6998 30.1828 10.6998 31.2118C10.6998 32.9507 9.26033 34.3652 7.4916 34.3652C5.72287 34.3652 4.28411 32.9507 4.28411 31.2118C4.28411 29.4728 5.72287 28.0583 7.4916 28.0583C7.61674 28.0583 7.74048 28.0652 7.86213 28.0789L9.64274 25.1419C9.13869 24.6993 8.77725 24.1034 8.63533 23.4291H6.34857C6.04725 24.8629 4.75391 25.9427 3.20819 25.9427C1.43946 25.9427 0 24.5281 0 22.7892C0 21.0502 1.43946 19.6357 3.20819 19.6357C4.62667 19.6357 5.83263 20.5451 6.25489 21.8022H8.72902C8.90659 21.2736 9.22328 20.8062 9.63575 20.442L8.11241 17.9277C7.91176 17.9669 7.70413 17.9868 7.4916 17.9868C5.72287 17.9868 4.28411 16.5723 4.28411 14.8333C4.28411 13.0944 5.72287 11.6798 7.4916 11.6798C9.26033 11.6798 10.6998 13.0944 10.6998 14.8333C10.6998 15.7784 10.2747 16.6279 9.6022 17.206L11.1151 19.7024C11.5317 19.6158 11.9875 19.6144 12.4056 19.6955L13.9262 17.1854C13.2676 16.6073 12.8516 15.7667 12.8516 14.8326C12.8516 13.0937 14.2904 11.6792 16.0591 11.6792C17.8279 11.6792 19.2666 13.0937 19.2666 14.8326C19.2666 16.5716 17.8279 17.9861 16.0591 17.9861C15.8361 17.9861 15.618 17.9634 15.4076 17.9208L13.8926 20.4206C14.3163 20.7877 14.6413 21.2619 14.8224 21.8008H17.2958C17.7188 20.5437 18.9248 19.6343 20.3432 19.6343C22.112 19.6343 23.5507 21.0489 23.5507 22.7878C23.5507 24.5268 22.112 25.9413 20.3432 25.9413C18.7975 25.9413 17.5035 24.8615 17.2015 23.4284H14.9161C14.7721 24.1123 14.4015 24.7165 13.8856 25.1612L15.6564 28.0823C15.7879 28.0665 15.9228 28.0576 16.0591 28.0576C17.8279 28.0576 19.2666 29.4721 19.2666 31.2111C19.2666 32.9514 17.8279 34.3659 16.0591 34.3659ZM16.0591 29.6866C15.2034 29.6866 14.5071 30.3712 14.5071 31.2125C14.5071 32.0537 15.2034 32.7383 16.0591 32.7383C16.9148 32.7383 17.6111 32.0544 17.6111 31.2125C17.6111 30.3705 16.9148 29.6866 16.0591 29.6866ZM7.4916 29.6866C6.6359 29.6866 5.93959 30.3712 5.93959 31.2125C5.93959 32.0537 6.6359 32.7383 7.4916 32.7383C8.3473 32.7383 9.04431 32.0544 9.04431 31.2125C9.04431 30.3705 8.3473 29.6866 7.4916 29.6866ZM20.3439 21.2633C19.4875 21.2633 18.7905 21.9479 18.7905 22.7892C18.7905 23.6305 19.4875 24.3151 20.3439 24.3151C21.1996 24.3151 21.8959 23.6312 21.8959 22.7892C21.8959 21.9472 21.1989 21.2633 20.3439 21.2633ZM11.0654 21.4331C10.5656 21.6867 10.223 22.2002 10.223 22.7899C10.223 23.6312 10.92 24.3158 11.7757 24.3158C11.9931 24.3158 12.2008 24.2711 12.3881 24.192C12.4119 24.1804 12.4364 24.1687 12.4615 24.1584C12.974 23.9089 13.3277 23.3892 13.3277 22.7899C13.3277 22.2249 13.0138 21.7314 12.5489 21.4675C12.4797 21.4482 12.4126 21.42 12.3476 21.3822C12.3329 21.3733 12.3182 21.365 12.3042 21.3554C11.9386 21.2235 11.494 21.242 11.1409 21.3973C11.1158 21.4104 11.0906 21.4228 11.0654 21.4331ZM3.20819 21.2633C2.35249 21.2633 1.65548 21.9479 1.65548 22.7892C1.65548 23.6305 2.35249 24.3151 3.20819 24.3151C4.06389 24.3151 4.7602 23.6312 4.7602 22.7892C4.7602 21.9472 4.06389 21.2633 3.20819 21.2633ZM16.0591 13.3081C15.2034 13.3081 14.5071 13.9927 14.5071 14.834C14.5071 15.6753 15.2034 16.3599 16.0591 16.3599C16.9148 16.3599 17.6111 15.6753 17.6111 14.834C17.6111 13.9927 16.9148 13.3081 16.0591 13.3081ZM7.4916 13.3081C6.6359 13.3081 5.93959 13.9927 5.93959 14.834C5.93959 15.6753 6.6359 16.3599 7.4916 16.3599C7.70762 16.3599 7.91386 16.3159 8.10122 16.2375C8.12779 16.2238 8.15435 16.2114 8.18162 16.2011C8.69266 15.9509 9.04431 15.432 9.04431 14.834C9.04431 13.9927 8.3473 13.3081 7.4916 13.3081Z" fill="#1D1D1B"/>
<path d="M44.5092 16.1544C44.5092 15.2437 44.1729 14.4498 43.5011 13.7693C42.8299 13.0896 41.8155 12.7507 40.46 12.7507C39.0904 12.7507 38.0697 13.071 37.3986 13.7116C36.7274 14.3529 36.3912 15.1859 36.3912 16.2121C36.3912 17.3785 36.7435 18.2659 37.4475 18.8755C38.1522 19.4845 39.1358 19.7883 40.4019 19.7883C41.7841 19.7883 42.8138 19.4742 43.4927 18.846C44.1694 18.2177 44.5092 17.3201 44.5092 16.1544ZM46.015 32.9143C46.015 31.9293 45.6788 31.1465 45.0076 30.565C44.3365 29.9828 43.1459 29.6921 41.438 29.6921H40.0489C38.4843 29.6921 37.3727 30.0378 36.7142 30.7279C36.0556 31.4187 35.727 32.3074 35.727 33.3941C35.727 34.5192 36.1577 35.3887 37.0176 36.0032C37.8782 36.617 39.0198 36.9235 40.4411 36.9235C44.1568 36.9235 46.015 35.5873 46.015 32.9143ZM49.3596 12.9418H48.1669L46.2891 12.7686C47.3189 13.9996 47.8341 15.2498 47.8341 16.5193C47.8341 18.2624 47.1916 19.7113 45.9074 20.8647C44.6224 22.0187 42.8656 22.5954 40.6354 22.5954H38.3864C37.2902 23.3006 36.7435 23.9803 36.7435 24.634C36.7435 25.3014 36.9588 25.7976 37.3888 26.1248C37.818 26.452 38.536 26.6149 39.5399 26.6149H41.4373C44.2931 26.6149 46.3597 27.2115 47.6377 28.4033C48.9156 29.5958 49.5546 31.1025 49.5546 32.9232C49.5546 34.9742 48.7401 36.6664 47.1105 37.9999C45.4802 39.334 43.341 40 40.6942 40C37.904 40 35.7871 39.3814 34.347 38.1449C32.9061 36.907 32.1847 35.4107 32.1847 33.6545C32.1847 31.3465 33.3647 29.6034 35.7256 28.4233C33.9772 27.7057 33.104 26.6149 33.104 25.1536C33.104 23.6669 34.0296 22.4036 35.8815 21.3657C33.9904 20.1093 33.0453 18.3786 33.0453 16.1729C33.0453 14.3274 33.7129 12.827 35.0503 11.673C36.387 10.5189 38.255 9.94226 40.655 9.94226C41.3597 9.94226 43.0669 10.0454 45.7801 10.2502H49.3589L49.3596 12.9418Z" fill="#1D1D1B"/>
<path d="M65.4187 23.0387V19.9615C65.4187 17.2947 65.0174 15.4512 64.2162 14.4326C63.4137 13.4126 62.3867 12.9033 61.1346 12.9033C59.8832 12.9033 58.859 13.4126 58.0648 14.4326C57.2685 15.4512 56.8714 17.2947 56.8714 19.9615V23.0387C56.8714 25.7055 57.2685 27.549 58.0648 28.5676C58.8597 29.5876 59.8832 30.0969 61.1346 30.0969C62.3867 30.0969 63.413 29.5876 64.2162 28.5676C65.0174 27.5483 65.4187 25.7049 65.4187 23.0387ZM68.8618 23.0387C68.8618 26.4877 68.141 29.0384 66.7008 30.6928C65.26 32.3466 63.4046 33.1734 61.1353 33.1734C58.8667 33.1734 57.0148 32.3466 55.5802 30.6928C54.1456 29.0384 53.4283 26.487 53.4283 23.0387V19.9615C53.4283 16.5125 54.1456 13.9618 55.5802 12.3074C57.0148 10.6537 58.866 9.82679 61.1353 9.82679C63.4046 9.82679 65.26 10.6537 66.7008 12.3074C68.141 13.9618 68.8618 16.5132 68.8618 19.9615V23.0387Z" fill="#1D1D1B"/>
</svg>
