<svg width="48" height="48" viewBox="0 0 48 48" fill="none" xmlns="http://www.w3.org/2000/svg">
<path d="M23.0007 36C23.0007 42.0751 18.0757 47 12.0004 47C5.92501 47 1 42.0751 1 36C1 29.9249 5.92501 25 12.0004 25C18.0757 25 23.0007 29.9249 23.0007 36Z" stroke="#344154" stroke-width="2"/>
<path d="M23.0007 12C23.0007 18.0751 18.0757 23 12.0004 23C5.92501 23 1 18.0751 1 12C1 5.92489 5.92501 1 12.0004 1C18.0757 1 23.0007 5.92489 23.0007 12Z" stroke="#344154" stroke-width="2"/>
<path d="M47.0003 36C47.0003 42.0752 42.0755 47 36.0006 47C29.9257 47 25.001 42.0752 25.001 36C25.001 29.9248 29.9257 25 36.0006 25C42.0755 25 47.0003 29.9248 47.0003 36Z" stroke="#344154" stroke-width="2"/>
<path d="M47 12C47 18.0752 42.0753 23 36.0004 23C29.9255 23 25.0007 18.0752 25.0007 12C25.0007 5.92484 29.9255 1 36.0004 1C42.0753 1 47 5.92484 47 12Z" stroke="#00AEEF" stroke-width="2"/>
</svg>
