<svg width="48" height="48" viewBox="0 0 48 48" fill="none" xmlns="http://www.w3.org/2000/svg">
<path d="M22.5104 27.7752V39.1323L15.9033 45.6173V34.2599L22.5104 27.7752Z" stroke="#344154" stroke-width="2"/>
<path d="M25.4893 27.7751L32.0967 34.2599V45.6173L25.4893 39.1323V27.7751Z" stroke="#344154" stroke-width="2"/>
<path d="M27.4116 25.4871H38.7642L45.5332 32.0545H34.1806L27.4116 25.4871Z" stroke="#344154" stroke-width="2"/>
<path d="M27.4117 22.5122L34.1806 15.9452H45.5331L38.7642 22.5122H27.4117Z" stroke="#00AEEF" stroke-width="2"/>
<path d="M25.4895 20.2242V8.86704L32.0969 2.38253V13.7394L25.4895 20.2242Z" stroke="#00AEEF" stroke-width="2"/>
<path d="M22.5101 20.2241L15.9031 13.7394V2.38259L22.5101 8.86703V20.2241Z" stroke="#344154" stroke-width="2"/>
<path d="M20.5886 22.5122H9.23576L2.46685 15.9452H13.8194L20.5886 22.5122Z" stroke="#344154" stroke-width="2"/>
<path d="M20.5886 25.4871L13.8194 32.0545H2.46678L9.23577 25.4871H20.5886Z" stroke="#344154" stroke-width="2"/>
</svg>
