<svg width="48" height="48" viewBox="0 0 48 48" fill="none" xmlns="http://www.w3.org/2000/svg">
<path d="M1 47V25H23V47H1Z" stroke="#344154" stroke-width="2"/>
<path d="M25 23V1H47V23H25Z" stroke="#00AEEF" stroke-width="2"/>
<path d="M47 36C47 42.0751 42.0751 47 36 47C29.9249 47 25 42.0751 25 36C25 29.9249 29.9249 25 36 25C42.0751 25 47 29.9249 47 36Z" stroke="#344154" stroke-width="2"/>
<path d="M23 12C23 18.0751 18.0751 23 12 23C5.92487 23 1 18.0751 1 12C1 5.92486 5.92487 1 12 1C18.0751 1 23 5.92486 23 12Z" stroke="#344154" stroke-width="2"/>
</svg>
