<svg width="52" height="52" viewBox="0 0 52 52" fill="none" xmlns="http://www.w3.org/2000/svg">
<path d="M43.875 28.4375C43.875 27.0562 42.4125 26 40.625 26C38.8375 26 37.375 27.0562 37.375 28.4375V30.875L33.3937 29.1688C34.3687 28.275 35.0187 27.1375 35.425 25.9187L37.6187 24.7812C38.4312 24.375 39 23.5625 39 22.5875V21.125C39 19.7437 37.9438 18.6875 36.5625 18.6875H36.2375L35.75 19.175V17.0625H37.375V14.625C37.375 9.5875 34.0438 5.11875 29.25 3.7375C29.0875 2.51875 28.0312 1.625 26.8125 1.625H25.1875C23.9688 1.625 22.9125 2.51875 22.75 3.7375C17.9563 5.11875 14.625 9.5875 14.625 14.625V17.0625H16.25V19.175L15.7625 18.6875H15.4375C14.0563 18.6875 13 19.7437 13 21.125V22.5875C13 23.4812 13.4875 24.375 14.3813 24.7812L16.575 25.9187C16.9812 27.1375 17.6312 28.275 18.6062 29.1688L11.8625 32.0938C8.6125 33.5562 6.5 36.725 6.5 40.3V50.375H47.125V26.7313L43.875 31.2812V28.4375ZM39 38.025V30.55C40.0563 30.9562 41.1937 30.9562 42.25 30.55V33.475L39 38.025ZM40.625 27.625C41.6 27.625 42.25 28.1125 42.25 28.4375C42.25 28.7625 41.6 29.25 40.625 29.25C39.65 29.25 39 28.7625 39 28.4375C39 28.1125 39.65 27.625 40.625 27.625ZM37.375 34.6938L32.0938 38.5938C31.6875 38.8375 31.1188 39 30.6313 39H27.8687L28.1125 38.025C28.1937 37.7 28.5187 37.375 28.925 37.375H30.0625C31.3625 37.375 32.5812 36.725 33.3937 35.6688L35.9937 32.0125L37.4562 32.6625V34.6938H37.375ZM26.5688 37.6187L26 39.7313L25.4312 37.6187C25.1875 36.4813 24.2125 35.75 23.075 35.75H21.9375C21.125 35.75 20.3938 35.3438 19.9875 34.6938L17.55 31.2812L20.0688 30.1437L22.425 31.4438C24.6187 32.6625 27.2188 32.6625 29.4125 31.4438L31.7687 30.1437L34.2875 31.2812L31.85 34.6938C31.3625 35.3438 30.6312 35.75 29.9 35.75H28.7625C27.7875 35.75 26.8125 36.4813 26.5688 37.6187ZM24.1313 39H21.3687C20.8812 39 20.3125 38.8375 19.9062 38.5125L12.8375 33.3937L16.0063 32.0125L18.6062 35.6688C19.3375 36.725 20.6375 37.375 21.9375 37.375H23.075C23.4812 37.375 23.8062 37.6187 23.8875 38.025L24.1313 39ZM36.8875 20.3938C37.2125 20.475 37.375 20.8 37.375 21.125V22.5875C37.375 22.9125 37.2125 23.1562 36.8875 23.3188L35.75 23.8875V21.5312L36.8875 20.3938ZM16.4125 15.4375C16.7375 14.4625 17.6313 13.8125 18.6875 13.8125H33.3125C34.3687 13.8125 35.2625 14.4625 35.5875 15.4375H16.4125ZM22.75 5.44375V10.5625H24.375V4.0625C24.375 3.575 24.7 3.25 25.1875 3.25H26.8125C27.3 3.25 27.625 3.575 27.625 4.0625V10.5625H29.25V5.44375C32.5812 6.58125 35.0187 9.425 35.5875 12.9187C34.9375 12.4312 34.125 12.1875 33.3125 12.1875H18.6875C17.875 12.1875 17.0625 12.4312 16.4125 12.9187C16.9813 9.425 19.4187 6.58125 22.75 5.44375ZM15.1125 23.3188C14.8688 23.1562 14.625 22.9125 14.625 22.5875V21.125C14.625 20.8 14.8688 20.475 15.1125 20.3938L16.25 21.5312V23.8875L15.1125 23.3188ZM17.875 23.8062V17.0625H34.125V23.8062C34.125 25.9187 32.9875 27.7875 31.2 28.7625L28.7625 30.0625C27.0563 30.9562 25.025 30.9562 23.3188 30.0625L20.8813 28.7625C19.9773 28.2873 19.2198 27.5748 18.6902 26.7017C18.1605 25.8285 17.8787 24.8275 17.875 23.8062ZM8.125 40.2188C8.125 37.7812 9.34375 35.5875 11.2937 34.2062L19.0125 39.8125C19.7437 40.3 20.5562 40.625 21.3687 40.625H25.1875V48.75H22.75V42.25H16.9L16.25 39.65L14.625 39.975L15.1938 42.25H13.8125V48.75H8.125V40.2188ZM21.125 43.875V45.5H15.4375V43.875H21.125ZM15.4375 47.125H21.125V48.75H15.4375V47.125ZM26.8125 48.75V40.625H30.6313C31.525 40.625 32.3375 40.3812 32.9875 39.8125L37.375 36.6437V40.2188L31.2812 48.75H26.8125ZM45.5 31.7687V48.75H33.3125L43.875 34.125V34.0438L45.5 31.7687Z" fill="#3F47CC"/>
<path d="M43.8753 47.1249V36.3186L36.644 47.1249H43.8753ZM42.2503 45.4999H39.7315L42.2503 41.6811V45.4999Z" fill="#3F47CC"/>
</svg>
