<svg width="52" height="52" viewBox="0 0 52 52" fill="none" xmlns="http://www.w3.org/2000/svg">
<g clip-path="url(#clip0_46_2680)">
<path d="M51.9998 34.6437V12.5762C51.9998 10.4167 50.2429 8.65973 48.0833 8.65973C46.1842 8.65973 44.5965 10.0185 44.2412 11.815H7.75998C7.40949 10.027 5.70619 8.65942 3.91625 8.65942C1.75683 8.65942 0 10.4168 0 12.5767V34.6594C0 36.8188 1.75683 38.5757 3.91625 38.5757H48.0838C50.2432 38.5757 52 36.8188 52 34.6594L51.9998 34.6437ZM45.6903 12.5762C45.6903 11.2567 46.7638 10.1832 48.0833 10.1832C49.4028 10.1832 50.4764 11.2567 50.4764 12.5762V31.5612C49.0829 30.4825 47.0838 30.4825 45.6902 31.5612V12.5762H45.6903ZM48.0838 37.0522H3.91625C2.59685 37.0522 1.52344 35.9788 1.52344 34.6594C1.66065 33.2015 2.45832 32.4038 3.91625 32.2666C5.23626 32.2666 6.31008 33.34 6.31008 34.6594C6.31008 34.8614 6.39033 35.0552 6.53318 35.198C6.67603 35.3409 6.86978 35.4211 7.0718 35.4211C7.27382 35.4211 7.46756 35.3409 7.61041 35.198C7.75326 35.0552 7.83352 34.8614 7.83352 34.6594V24.6941C7.83352 24.4921 7.75326 24.2983 7.61041 24.1555C7.46756 24.0126 7.27382 23.9324 7.0718 23.9324C6.86978 23.9324 6.67603 24.0126 6.53318 24.1555C6.39033 24.2983 6.31008 24.4921 6.31008 24.6941V31.5615C4.91847 30.4843 2.91576 30.4797 1.52344 31.5589V12.5767C1.52344 11.2567 2.59685 10.1829 3.91625 10.1829C5.3753 10.3198 6.17317 11.1177 6.31008 12.5767V21.374C6.31008 21.5761 6.39033 21.7698 6.53318 21.9126C6.67603 22.0555 6.86978 22.1358 7.0718 22.1358C7.27382 22.1358 7.46756 22.0555 7.61041 21.9126C7.75326 21.7698 7.83352 21.5761 7.83352 21.374V13.3384H44.1669V34.6595C44.1669 34.8615 44.2471 35.0553 44.39 35.1981C44.5328 35.341 44.7266 35.4212 44.9286 35.4212C45.1306 35.4212 45.3244 35.341 45.4672 35.1981C45.6101 35.0553 45.6903 34.8615 45.6903 34.6595C45.6903 33.34 46.7638 32.2665 48.0833 32.2665C49.4028 32.2665 50.4764 33.34 50.4764 34.6595L50.4765 34.6699C50.4708 35.9845 49.3997 37.0522 48.0838 37.0522Z" fill="#3F47CC"/>
<path d="M10.9606 10.1838H22.7632C22.9652 10.1838 23.159 10.1036 23.3018 9.96071C23.4447 9.81786 23.5249 9.62411 23.5249 9.42209C23.5249 9.22007 23.4447 9.02633 23.3018 8.88348C23.159 8.74063 22.9652 8.66038 22.7632 8.66038H13.3539V5.4835H33.9138V8.66038H26.0822C25.8802 8.66038 25.6865 8.74063 25.5436 8.88348C25.4008 9.02633 25.3205 9.22007 25.3205 9.42209C25.3205 9.62411 25.4008 9.81786 25.5436 9.96071C25.6865 10.1036 25.8802 10.1838 26.0822 10.1838C26.0822 10.1838 34.7194 10.1825 34.7235 10.1823C34.7249 10.1822 34.8864 10.1584 34.9586 10.1295L41.1227 7.83366H42.5625C42.7645 7.83366 42.9583 7.7534 43.1011 7.61055C43.244 7.4677 43.3242 7.27396 43.3242 7.07194C43.3242 6.86992 43.244 6.67617 43.1011 6.53332C42.9583 6.39047 42.7645 6.31022 42.5625 6.31022H41.1227L34.9599 4.01491C34.8695 3.97854 34.773 3.95988 34.6755 3.95996H10.9606C9.70052 3.95996 8.67545 4.98503 8.67545 6.24512V7.89856C8.67545 9.15874 9.70052 10.1838 10.9606 10.1838ZM35.4373 8.32552V5.81845L38.8031 7.07194L35.4373 8.32552ZM10.1989 6.24522C10.1989 5.82516 10.5405 5.4835 10.9606 5.4835H11.8305V8.66038H10.9606C10.5405 8.66038 10.1989 8.31872 10.1989 7.89866V6.24522ZM44.9282 40.2077C32.3093 40.2065 19.6906 40.2067 7.07178 40.2077C6.86976 40.2077 6.67601 40.288 6.53316 40.4308C6.39031 40.5737 6.31006 40.7674 6.31006 40.9694V47.2785C6.31006 47.4805 6.39031 47.6743 6.53316 47.8171C6.67601 47.96 6.86976 48.0402 7.07178 48.0402H30.6495C30.8515 48.0402 31.0453 47.96 31.1881 47.8171C31.331 47.6743 31.4112 47.4805 31.4112 47.2785C31.4112 47.0765 31.331 46.8827 31.1881 46.7399C31.0453 46.597 30.8515 46.5168 30.6495 46.5168H7.8335V41.7312H9.46449V42.5463C9.46449 42.7483 9.54474 42.9421 9.68759 43.0849C9.83044 43.2278 10.0242 43.308 10.2262 43.308C10.4282 43.308 10.622 43.2278 10.7648 43.0849C10.9077 42.9421 10.9879 42.7483 10.9879 42.5463V41.7312H12.6192V44.1238C12.6192 44.3258 12.6995 44.5195 12.8423 44.6624C12.9852 44.8052 13.1789 44.8855 13.3809 44.8855C13.583 44.8855 13.7767 44.8052 13.9196 44.6624C14.0624 44.5195 14.1427 44.3258 14.1427 44.1238V41.7312H15.774V42.5463C15.774 42.7483 15.8542 42.9421 15.9971 43.0849C16.1399 43.2278 16.3337 43.308 16.5357 43.308C16.7377 43.308 16.9314 43.2278 17.0743 43.0849C17.2171 42.9421 17.2974 42.7483 17.2974 42.5463V41.7312H18.9287V44.1238C18.9287 44.3258 19.0089 44.5195 19.1518 44.6624C19.2946 44.8052 19.4884 44.8855 19.6904 44.8855C19.8924 44.8855 20.0862 44.8052 20.229 44.6624C20.3719 44.5195 20.4521 44.3258 20.4521 44.1238V41.7312H22.0834V42.5463C22.0834 42.7483 22.1637 42.9421 22.3065 43.0849C22.4494 43.2278 22.6431 43.308 22.8451 43.308C23.0472 43.308 23.2409 43.2278 23.3838 43.0849C23.5266 42.9421 23.6069 42.7483 23.6069 42.5463V41.7312H25.2383V44.1238C25.2383 44.3258 25.3185 44.5195 25.4614 44.6624C25.6042 44.8052 25.798 44.8855 26 44.8855C26.202 44.8855 26.3957 44.8052 26.5386 44.6624C26.6814 44.5195 26.7617 44.3258 26.7617 44.1238V41.7312H28.393V42.5463C28.393 42.7483 28.4732 42.9421 28.6161 43.0849C28.7589 43.2278 28.9527 43.308 29.1547 43.308C29.3567 43.308 29.5505 43.2278 29.6933 43.0849C29.8362 42.9421 29.9164 42.7483 29.9164 42.5463V41.7312H31.5477V44.1238C31.5477 44.3258 31.628 44.5195 31.7708 44.6624C31.9137 44.8052 32.1074 44.8855 32.3094 44.8855C32.5115 44.8855 32.7052 44.8052 32.8481 44.6624C32.9909 44.5195 33.0712 44.3258 33.0712 44.1238V41.7312H34.7025V42.5463C34.7025 42.7483 34.7827 42.9421 34.9256 43.0849C35.0684 43.2278 35.2622 43.308 35.4642 43.308C35.6662 43.308 35.8599 43.2278 36.0028 43.0849C36.1456 42.9421 36.2259 42.7483 36.2259 42.5463V41.7312H37.8572V44.1238C37.8572 44.3258 37.9375 44.5195 38.0803 44.6624C38.2232 44.8052 38.4169 44.8855 38.6189 44.8855C38.8209 44.8855 39.0147 44.8052 39.1575 44.6624C39.3004 44.5195 39.3806 44.3258 39.3806 44.1238V41.7312H41.0119V42.5463C41.0119 42.7483 41.0922 42.9421 41.235 43.0849C41.3779 43.2278 41.5716 43.308 41.7737 43.308C41.9757 43.308 42.1694 43.2278 42.3123 43.0849C42.4551 42.9421 42.5354 42.7483 42.5354 42.5463V41.7312H44.1664V46.5168H33.9695C33.7675 46.5168 33.5737 46.597 33.4309 46.7399C33.288 46.8827 33.2078 47.0765 33.2078 47.2785C33.2078 47.4805 33.288 47.6743 33.4309 47.8171C33.5737 47.96 33.7675 48.0402 33.9695 48.0402H44.9281C45.1301 48.0402 45.3238 47.96 45.4667 47.8171C45.6095 47.6743 45.6898 47.4805 45.6898 47.2785V40.9694C45.6898 40.8694 45.6701 40.7704 45.6319 40.678C45.5936 40.5855 45.5375 40.5016 45.4668 40.4308C45.396 40.3601 45.3121 40.304 45.2197 40.2657C45.1273 40.2274 45.0282 40.2077 44.9282 40.2077ZM28.3661 32.3204H27.5504V24.0407C27.8866 24.4134 28.5568 24.6974 28.9595 24.197C29.0862 24.0396 29.1451 23.8384 29.1234 23.6375C29.1017 23.4367 29.0011 23.2527 28.8437 23.126L20.9603 16.7178C20.8244 16.6071 20.6545 16.5466 20.4791 16.5466C20.3038 16.5466 20.1339 16.6071 19.9979 16.7178L12.1147 23.1259C11.9573 23.2526 11.8567 23.4366 11.835 23.6374C11.8133 23.8383 11.8722 24.0395 11.9989 24.1969C12.4017 24.6972 13.0717 24.4134 13.408 24.0406V32.3203H12.5923C12.3903 32.3203 12.1965 32.4005 12.0537 32.5434C11.9108 32.6862 11.8306 32.88 11.8306 33.082C11.8306 33.284 11.9108 33.4778 12.0537 33.6206C12.1965 33.7635 12.3903 33.8437 12.5923 33.8437H28.3662C28.4669 33.8449 28.5669 33.826 28.6604 33.7883C28.7538 33.7505 28.8388 33.6946 28.9105 33.6237C28.9821 33.5529 29.039 33.4685 29.0778 33.3755C29.1167 33.2825 29.1367 33.1828 29.1366 33.082C29.1366 32.9812 29.1166 32.8815 29.0778 32.7885C29.039 32.6955 28.9821 32.6111 28.9104 32.5403C28.8387 32.4695 28.7537 32.4135 28.6603 32.3758C28.5668 32.338 28.4668 32.3192 28.3661 32.3204ZM14.9314 22.8117L20.4792 18.2908L26.0271 22.8117V32.3204H23.6071V27.5342H23.634C23.836 27.5342 24.0297 27.454 24.1726 27.3111C24.3154 27.1683 24.3957 26.9745 24.3957 26.7725C24.3957 26.5705 24.3154 26.3768 24.1726 26.2339C24.0297 26.0911 23.836 26.0108 23.634 26.0108H17.3244C17.1224 26.0108 16.9286 26.0911 16.7858 26.2339C16.6429 26.3768 16.5627 26.5705 16.5627 26.7725C16.5627 26.9745 16.6429 27.1683 16.7858 27.3111C16.9286 27.454 17.1224 27.5342 17.3244 27.5342H17.3514V32.3204H14.9314V22.8117ZM18.8748 32.3204V27.5342H22.0835V32.3204H18.8748ZM39.4078 29.1656H33.0982C32.8962 29.1656 32.7024 29.2459 32.5596 29.3887C32.4167 29.5316 32.3365 29.7253 32.3365 29.9274V33.0821C32.3365 33.2841 32.4167 33.4779 32.5596 33.6207C32.7024 33.7636 32.8962 33.8438 33.0982 33.8438H39.4078C39.6098 33.8438 39.8035 33.7636 39.9464 33.6207C40.0892 33.4779 40.1695 33.2841 40.1695 33.0821V29.9274C40.1695 29.7253 40.0892 29.5316 39.9464 29.3887C39.8035 29.2459 39.6098 29.1656 39.4078 29.1656ZM38.646 32.3204H33.8599V30.6891H38.646V32.3204ZM39.4078 26.0109H33.0982C32.8962 26.0109 32.7024 26.0912 32.5596 26.234C32.4167 26.3769 32.3365 26.5706 32.3365 26.7726C32.3365 26.9746 32.4167 27.1684 32.5596 27.3112C32.7024 27.4541 32.8962 27.5343 33.0982 27.5343H39.4078C39.6098 27.5343 39.8035 27.4541 39.9464 27.3112C40.0892 27.1684 40.1695 26.9746 40.1695 26.7726C40.1695 26.5706 40.0892 26.3769 39.9464 26.234C39.8035 26.0912 39.6098 26.0109 39.4078 26.0109ZM39.4078 22.8561H36.253C36.051 22.8561 35.8573 22.9363 35.7144 23.0792C35.5716 23.222 35.4913 23.4158 35.4913 23.6178C35.4913 23.8198 35.5716 24.0136 35.7144 24.1564C35.8573 24.2993 36.051 24.3795 36.253 24.3795H39.4078C39.6098 24.3795 39.8035 24.2993 39.9464 24.1564C40.0892 24.0136 40.1695 23.8198 40.1695 23.6178C40.1695 23.4158 40.0892 23.222 39.9464 23.0792C39.8035 22.9363 39.6098 22.8561 39.4078 22.8561Z" fill="#3F47CC"/>
</g>
<defs>
<clipPath id="clip0_46_2680">
<rect width="52" height="52" fill="white"/>
</clipPath>
</defs>
</svg>
