<svg width="52" height="52" viewBox="0 0 52 52" fill="none" xmlns="http://www.w3.org/2000/svg">
<path d="M10.5625 1.625H12.1875V3.25H10.5625V1.625ZM6.5 5.6875H8.125V7.3125H6.5V5.6875ZM14.625 5.6875H16.25V7.3125H14.625V5.6875ZM7.3516 9.37249L8.50048 8.22352L9.64935 9.37239L8.50048 10.5213L7.3516 9.37249ZM13.0968 3.62852L14.2457 2.47965L15.3945 3.62852L14.2457 4.7774L13.0968 3.62852ZM13.0963 9.3731L14.2452 8.22423L15.394 9.3731L14.2452 10.522L13.0963 9.3731ZM7.35221 3.62791L8.50109 2.47904L9.64996 3.62791L8.50109 4.77679L7.35221 3.62791Z" fill="#3F47CC"/>
<path d="M23.5625 9.75C23.347 9.75 23.1404 9.8356 22.988 9.98798C22.8356 10.1403 22.75 10.347 22.75 10.5625V14.1095C20.2352 14.5742 17.8503 15.576 15.7578 17.0464L13.5742 14.8628C13.4988 14.7873 13.4092 14.7275 13.3106 14.6866C13.2121 14.6458 13.1064 14.6248 12.9997 14.6248C12.893 14.6248 12.7873 14.6458 12.6888 14.6866C12.5902 14.7275 12.5006 14.7873 12.4252 14.8628L9.17517 18.1128C9.09971 18.1882 9.03986 18.2778 8.99903 18.3764C8.95819 18.4749 8.93718 18.5806 8.93718 18.6873C8.93718 18.794 8.95819 18.8997 8.99903 18.9982C9.03986 19.0968 9.09971 19.1864 9.17517 19.2618L11.3588 21.4454C9.25049 24.4443 8.12099 28.0217 8.12501 31.6875C8.12501 41.5438 16.1437 49.5625 26 49.5625C35.8563 49.5625 43.875 41.5438 43.875 31.6875C43.879 28.0217 42.7495 24.4442 40.6412 21.4453L42.8247 19.2617C42.9002 19.1863 42.9601 19.0967 43.0009 18.9981C43.0417 18.8996 43.0627 18.7939 43.0627 18.6872C43.0627 18.5805 43.0417 18.4748 43.0009 18.3763C42.9601 18.2777 42.9002 18.1881 42.8247 18.1127L39.5747 14.8627C39.4993 14.7872 39.4097 14.7274 39.3112 14.6865C39.2126 14.6457 39.1069 14.6247 39.0002 14.6247C38.8935 14.6247 38.7878 14.6457 38.6893 14.6865C38.5907 14.7274 38.5011 14.7872 38.4257 14.8627L36.2421 17.0462C34.1497 15.5759 31.7648 14.5742 29.25 14.1095V10.5625C29.25 10.347 29.1644 10.1403 29.012 9.98798C28.8597 9.8356 28.653 9.75 28.4375 9.75H26.8125V9.34375C26.8125 8.15856 26.3417 7.02192 25.5036 6.18387C24.6656 5.34581 23.5289 4.875 22.3438 4.875C21.1586 4.875 20.0219 5.34581 19.1839 6.18387C18.3458 7.02192 17.875 8.15856 17.875 9.34375C17.875 10.098 17.5754 10.8213 17.0421 11.3546C16.5088 11.8879 15.7855 12.1875 15.0313 12.1875C14.2771 12.1875 13.5537 11.8879 13.0204 11.3546C12.4871 10.8213 12.1875 10.098 12.1875 9.34375V5.6875H10.5625V9.34375C10.5625 9.93059 10.6781 10.5117 10.9027 11.0539C11.1272 11.596 11.4564 12.0887 11.8714 12.5036C12.2863 12.9186 12.779 13.2478 13.3211 13.4723C13.8633 13.6969 14.4444 13.8125 15.0313 13.8125C15.6181 13.8125 16.1992 13.6969 16.7414 13.4723C17.2836 13.2478 17.7762 12.9186 18.1911 12.5036C18.6061 12.0887 18.9353 11.596 19.1598 11.0539C19.3844 10.5117 19.5 9.93059 19.5 9.34375C19.5 8.9703 19.5736 8.60051 19.7165 8.25549C19.8594 7.91047 20.0689 7.59698 20.3329 7.33292C20.597 7.06885 20.9105 6.85938 21.2555 6.71647C21.6005 6.57356 21.9703 6.5 22.3438 6.5C22.7172 6.5 23.087 6.57356 23.432 6.71647C23.777 6.85938 24.0905 7.06885 24.3546 7.33292C24.6187 7.59698 24.8281 7.91047 24.971 8.25549C25.114 8.60051 25.1875 8.9703 25.1875 9.34375V9.75H23.5625ZM10.899 18.6875L13 16.5865L14.4611 18.0477C13.7042 18.689 13.0015 19.3917 12.3602 20.1486L10.899 18.6875ZM26 47.9375C17.0398 47.9375 9.75001 40.6478 9.75001 31.6875C9.75001 22.7272 17.0398 15.4375 26 15.4375C34.9603 15.4375 42.25 22.7272 42.25 31.6875C42.25 40.6478 34.9603 47.9375 26 47.9375ZM39 16.5865L41.101 18.6875L39.6398 20.1486C38.9985 19.3917 38.2958 18.689 37.5389 18.0477L39 16.5865ZM27.625 13.8871C27.0896 13.8387 26.5478 13.8125 26 13.8125C25.4522 13.8125 24.9104 13.8387 24.375 13.8871V11.375H27.625V13.8871Z" fill="#3F47CC"/>
<path d="M26 17.0625C17.9359 17.0625 11.375 23.6234 11.375 31.6875C11.375 39.7516 17.9359 46.3125 26 46.3125C34.0641 46.3125 40.625 39.7516 40.625 31.6875C40.625 23.6234 34.0641 17.0625 26 17.0625ZM26 44.6875C23.4288 44.6875 20.9154 43.9251 18.7776 42.4966C16.6397 41.0681 14.9735 39.0378 13.9896 36.6624C13.0056 34.2869 12.7482 31.6731 13.2498 29.1513C13.7514 26.6296 14.9895 24.3132 16.8076 22.4951C18.6257 20.677 20.9421 19.4389 23.4638 18.9373C25.9856 18.4357 28.5994 18.6931 30.9749 19.6771C33.3503 20.661 35.3806 22.3272 36.8091 24.4651C38.2376 26.6029 39 29.1163 39 31.6875C38.9961 35.1341 37.6252 38.4385 35.1881 40.8756C32.751 43.3127 29.4466 44.6836 26 44.6875Z" fill="#3F47CC"/>
<path d="M26 29.25C25.4981 29.2495 25.0082 29.4037 24.5971 29.6917C24.1861 29.9797 23.8738 30.3875 23.703 30.8594C23.5321 31.3314 23.5109 31.8445 23.6423 32.329C23.7737 32.8134 24.0513 33.2455 24.4372 33.5664C24.8232 33.8873 25.2987 34.0814 25.7989 34.1222C26.2992 34.163 26.7999 34.0486 27.2327 33.7945C27.6656 33.5404 28.0095 33.159 28.2177 32.7023C28.4259 32.2455 28.4882 31.7357 28.3961 31.2424L36.2578 26.7036L35.4453 25.2964L27.583 29.8357C27.1424 29.4573 26.5807 29.2495 26 29.25ZM26 32.5C25.8393 32.5 25.6822 32.4523 25.5486 32.3631C25.415 32.2738 25.3108 32.1469 25.2493 31.9984C25.1879 31.85 25.1718 31.6866 25.2031 31.529C25.2345 31.3714 25.3118 31.2266 25.4255 31.113C25.5391 30.9993 25.6839 30.922 25.8415 30.8906C25.9991 30.8593 26.1625 30.8754 26.3109 30.9368C26.4594 30.9983 26.5863 31.1025 26.6756 31.2361C26.7648 31.3697 26.8125 31.5268 26.8125 31.6875C26.8123 31.9029 26.7266 32.1094 26.5743 32.2618C26.4219 32.4141 26.2154 32.4998 26 32.5ZM25.1875 20.3125H26.8125V22.75H25.1875V20.3125ZM25.1875 40.625H26.8125V43.0625H25.1875V40.625ZM19.6083 22.2425L21.0155 21.43L22.2343 23.5409L20.827 24.3534L19.6083 22.2425ZM29.7642 39.8333L31.1715 39.0208L32.3902 41.1317L30.983 41.9442L29.7642 39.8333ZM15.742 26.7038L16.5545 25.2966L18.6654 26.5153L17.8529 27.9226L15.742 26.7038ZM33.3328 36.8603L34.1453 35.453L36.2563 36.6718L35.4438 38.079L33.3328 36.8603ZM14.625 30.875H17.0625V32.5H14.625V30.875ZM34.9375 30.875H37.375V32.5H34.9375V30.875ZM15.7424 36.6704L17.8533 35.4516L18.6658 36.8589L16.5549 38.0776L15.7424 36.6704ZM19.6079 41.1328L20.8266 39.0219L22.2339 39.8344L21.0151 41.9453L19.6079 41.1328ZM29.7645 23.5419L30.9833 21.431L32.3905 22.2435L31.1718 24.3544L29.7645 23.5419Z" fill="#3F47CC"/>
</svg>
