<svg width="52" height="52" viewBox="0 0 52 52" fill="none" xmlns="http://www.w3.org/2000/svg">
<g clip-path="url(#clip0_46_2709)">
<path d="M45.5005 9.44531C46.0614 9.44531 46.5161 8.99062 46.5161 8.42969V3.04688C46.5161 1.36683 45.1493 0 43.4692 0H3.04736C1.36732 0 0.000488281 1.36683 0.000488281 3.04688V48.9531C0.000488281 50.6332 1.36732 52 3.04736 52H43.4692C45.1493 52 46.5161 50.6332 46.5161 48.9531V46.1094C46.5161 45.5484 46.0614 45.0938 45.5005 45.0938C44.9396 45.0938 44.4849 45.5484 44.4849 46.1094V48.9531C44.4849 49.5131 44.0293 49.9688 43.4692 49.9688H3.04736C2.48735 49.9688 2.03174 49.5131 2.03174 48.9531V3.04688C2.03174 2.48686 2.48735 2.03125 3.04736 2.03125H43.4692C44.0293 2.03125 44.4849 2.48686 44.4849 3.04688V8.42969C44.4849 8.99062 44.9396 9.44531 45.5005 9.44531Z" fill="#3F47CC"/>
<path d="M40.6261 4.875H5.89054C5.32961 4.875 4.87492 5.3297 4.87492 5.89062V27.1172C4.87492 27.6781 5.32961 28.1328 5.89054 28.1328C6.45147 28.1328 6.90617 27.6781 6.90617 27.1172V6.90625H39.6105V8.53125C39.6105 9.09218 40.0653 9.54688 40.6261 9.54688C41.1871 9.54688 41.6418 9.09218 41.6418 8.53125V5.89062C41.6418 5.3297 41.1871 4.875 40.6261 4.875ZM6.60818 30.157C6.4174 29.967 6.15935 29.8601 5.89014 29.8594C5.62303 29.8594 5.361 29.968 5.17209 30.157C4.98318 30.3459 4.87451 30.6079 4.87451 30.875C4.87451 31.1421 4.98318 31.4041 5.17209 31.593C5.361 31.782 5.62303 31.8906 5.89014 31.8906C6.15826 31.8906 6.41928 31.782 6.60818 31.593C6.79811 31.4041 6.90576 31.1421 6.90576 30.875C6.90576 30.6079 6.79811 30.3459 6.60818 30.157ZM40.6261 42.8594C40.0652 42.8594 39.6105 43.3141 39.6105 43.875V45.0938H6.90617V34.7852C6.90617 34.2242 6.45147 33.7695 5.89054 33.7695C5.32961 33.7695 4.87492 34.2242 4.87492 34.7852V46.1094C4.87492 46.6703 5.32961 47.125 5.89054 47.125H40.6261C41.1871 47.125 41.6418 46.6703 41.6418 46.1094V43.875C41.6418 43.3141 41.1871 42.8594 40.6261 42.8594Z" fill="#3F47CC"/>
<path d="M31.4748 35.8857C31.0782 35.489 30.4352 35.489 30.0385 35.8856L28.0312 37.893L26.7835 36.6452C25.9957 35.8574 24.7141 35.8574 23.9262 36.6452L23.1143 37.4571C22.7177 37.8537 22.7177 38.4967 23.1143 38.8934C23.5109 39.29 24.154 39.29 24.5507 38.8934L25.3549 38.0893L26.6026 39.3371C26.9965 39.7309 27.5138 39.9279 28.0312 39.9279C28.5486 39.9279 29.0659 39.7309 29.4598 39.3371L31.4748 37.3221C31.8714 36.9255 31.8714 36.2824 31.4748 35.8857Z" fill="#3F47CC"/>
<path d="M51.5329 21.306C51.7544 20.9597 51.9014 20.5711 51.9645 20.1649C52.0276 19.7587 52.0055 19.3438 51.8994 18.9466C51.7927 18.5497 51.6044 18.1793 51.3467 17.8591C51.0889 17.5388 50.7673 17.2758 50.4023 17.0867C50.2456 17.0053 50.1153 16.8809 50.027 16.7279C49.9387 16.575 49.896 16.4 49.9039 16.2235C49.9226 15.8129 49.8556 15.4028 49.7072 15.0195C49.5588 14.6362 49.3322 14.2879 49.0418 13.997C48.7509 13.7065 48.4027 13.4798 48.0193 13.3313C47.636 13.1829 47.2259 13.1159 46.8152 13.1348C46.6387 13.1431 46.4636 13.1005 46.3106 13.0122C46.1576 12.9238 46.0331 12.7934 45.952 12.6364C45.7629 12.2715 45.4999 11.9499 45.1797 11.6921C44.8595 11.4343 44.4891 11.2461 44.0921 11.1393C43.695 11.0332 43.2801 11.011 42.8739 11.0742C42.4677 11.1373 42.0791 11.2843 41.7328 11.5058C41.584 11.6009 41.4111 11.6514 41.2345 11.6514C41.0579 11.6514 40.885 11.6009 40.7362 11.5058C40.3899 11.2843 40.0013 11.1373 39.5951 11.0742C39.1889 11.0111 38.7741 11.0332 38.3769 11.1393C37.9799 11.2461 37.6096 11.4343 37.2894 11.6921C36.9691 11.9499 36.7061 12.2715 36.517 12.6364C36.4355 12.7931 36.3109 12.9231 36.158 13.0114C36.0051 13.0997 35.8302 13.1425 35.6538 13.1348C35.2432 13.116 34.8331 13.183 34.4498 13.3314C34.0665 13.4799 33.7182 13.7065 33.4274 13.997C33.137 14.2879 32.9103 14.6361 32.7619 15.0194C32.6134 15.4028 32.5464 15.8128 32.5651 16.2234C32.573 16.3999 32.5303 16.5749 32.442 16.7278C32.3537 16.8808 32.2235 17.0053 32.0667 17.0867C31.7017 17.2758 31.3801 17.5388 31.1224 17.8591C30.8646 18.1793 30.6764 18.5497 30.5696 18.9466C30.4685 19.3256 30.4439 19.7209 30.4974 20.1094H12.7747C12.2138 20.1094 11.7591 20.5641 11.7591 21.125C11.7591 21.686 12.2138 22.1407 12.7747 22.1407H31.0163C30.9949 22.1972 30.9681 22.2515 30.936 22.3027C30.7145 22.649 30.5675 23.0377 30.5044 23.4439C30.4413 23.8501 30.4635 24.265 30.5695 24.6621C30.5989 24.7721 30.6352 24.8796 30.6768 24.9844H12.7744C12.2135 24.9844 11.7588 25.4391 11.7588 26C11.7588 26.561 12.2135 27.0157 12.7744 27.0157H32.5045C32.5498 27.1334 32.5703 27.2592 32.5648 27.3852C32.5461 27.7959 32.6131 28.2059 32.7615 28.5893C32.91 28.9726 33.1366 29.3209 33.427 29.6118C33.7179 29.9023 34.0661 30.129 34.4494 30.2775C34.8328 30.4259 35.2429 30.4928 35.6535 30.474C36.0123 30.4564 36.3515 30.6528 36.5167 30.9723C36.6379 31.2063 36.7899 31.423 36.9687 31.6166V41.1019C36.9687 41.3025 37.0282 41.4987 37.1395 41.6656C37.2509 41.8325 37.4092 41.9627 37.5945 42.0397C37.7798 42.1167 37.9837 42.1371 38.1806 42.0983C38.3775 42.0596 38.5584 41.9634 38.7007 41.8218L41.2344 39.3014L43.768 41.8218C43.9103 41.9634 44.0913 42.0596 44.2881 42.0984C44.485 42.1371 44.689 42.1167 44.8743 42.0396C45.0595 41.9626 45.2178 41.8324 45.3292 41.6655C45.4406 41.4986 45.5 41.3024 45.5 41.1018V31.6165C45.6788 31.423 45.8309 31.2063 45.952 30.9722C46.0335 30.8156 46.158 30.6854 46.3109 30.5971C46.4639 30.5088 46.6388 30.4661 46.8152 30.4739C47.2259 30.4928 47.636 30.426 48.0193 30.2775C48.4027 30.1291 48.7509 29.9023 49.0417 29.6117C49.3321 29.3207 49.5587 28.9725 49.7072 28.5892C49.8556 28.2058 49.9226 27.7958 49.9039 27.3851C49.896 27.2087 49.9388 27.0337 50.0271 26.8808C50.1154 26.7278 50.2456 26.6033 50.4023 26.522C50.7673 26.3329 51.0889 26.0698 51.3467 25.7496C51.6044 25.4294 51.7927 25.059 51.8994 24.662C52.0055 24.2649 52.0276 23.8499 51.9645 23.4437C51.9014 23.0375 51.7544 22.6488 51.5329 22.3025C51.4378 22.1538 51.3873 21.9809 51.3873 21.8043C51.3873 21.6277 51.4378 21.4548 51.5329 21.306ZM43.4687 38.659L41.9506 37.1487C41.5544 36.7546 40.9142 36.7546 40.518 37.1487L39 38.659V32.566C39.6127 32.5951 40.2193 32.4333 40.7361 32.1029C40.8849 32.0078 41.0578 31.9573 41.2344 31.9573C41.411 31.9573 41.5839 32.0078 41.7327 32.1029C42.2094 32.4079 42.7634 32.57 43.3293 32.5698C43.3758 32.5698 43.4222 32.5675 43.4687 32.5652V38.659ZM49.9374 24.1365C49.9047 24.2608 49.8461 24.3769 49.7655 24.4771C49.6848 24.5772 49.584 24.6592 49.4695 24.7177C48.4473 25.2461 47.8213 26.3302 47.8748 27.4797C47.8814 27.6081 47.8609 27.7365 47.8144 27.8564C47.768 27.9764 47.6968 28.0851 47.6054 28.1756C47.5149 28.2669 47.4061 28.3381 47.2862 28.3846C47.1663 28.431 47.038 28.4516 46.9096 28.445C45.7595 28.3918 44.676 29.0175 44.1476 30.0397C44.0891 30.1542 44.0071 30.2551 43.9069 30.3358C43.8067 30.4164 43.6906 30.4749 43.5662 30.5076C43.3123 30.5755 43.0503 30.535 42.829 30.393C42.3529 30.0883 41.7995 29.9267 41.2343 29.9272C40.6691 29.9267 40.1157 30.0884 39.6396 30.393C39.5317 30.4629 39.4102 30.5092 39.2832 30.529C39.1561 30.5487 39.0263 30.5414 38.9023 30.5076C38.7779 30.4749 38.6618 30.4163 38.5616 30.3357C38.4615 30.2551 38.3794 30.1542 38.3209 30.0397C37.7925 29.0176 36.7092 28.3913 35.5589 28.445C35.4305 28.4516 35.3022 28.431 35.1823 28.3845C35.0624 28.3381 34.9537 28.2669 34.8631 28.1756C34.7717 28.0851 34.7005 27.9763 34.654 27.8564C34.6076 27.7364 34.587 27.608 34.5937 27.4796C34.6314 26.6683 34.3294 25.8905 33.7898 25.3168C33.7741 25.2994 33.7577 25.2825 33.7408 25.2661C33.524 25.0454 33.2736 24.8603 32.9991 24.7177C32.7655 24.5969 32.5993 24.3906 32.5313 24.1365C32.4632 23.8823 32.5038 23.6204 32.6458 23.3991C33.2669 22.4304 33.2669 21.1786 32.6458 20.2098C32.5759 20.1019 32.5296 19.9804 32.5098 19.8534C32.4901 19.7263 32.4974 19.5965 32.5313 19.4724C32.5639 19.348 32.6225 19.232 32.7031 19.1318C32.7838 19.0316 32.8846 18.9496 32.9992 18.8912C34.0213 18.3627 34.6472 17.2787 34.5938 16.1292C34.5872 16.0007 34.6078 15.8724 34.6542 15.7524C34.7006 15.6325 34.7719 15.5237 34.8632 15.4333C34.9537 15.3419 35.0625 15.2707 35.1824 15.2243C35.3023 15.1779 35.4306 15.1573 35.559 15.1638C36.7092 15.2171 37.7927 14.5914 38.321 13.5692C38.3795 13.4546 38.4615 13.3537 38.5617 13.2731C38.6619 13.1925 38.778 13.1339 38.9024 13.1013C39.0264 13.0674 39.1562 13.0601 39.2832 13.0798C39.4103 13.0996 39.5317 13.1459 39.6396 13.2158C40.6084 13.837 41.8604 13.837 42.8289 13.2158C42.9368 13.1459 43.0583 13.0995 43.1853 13.0798C43.3124 13.0601 43.4422 13.0674 43.5662 13.1013C43.6906 13.134 43.8067 13.1925 43.9069 13.2732C44.0071 13.3538 44.0891 13.4547 44.1476 13.5692C44.676 14.5913 45.76 15.2174 46.9096 15.1638C47.038 15.1572 47.1663 15.1778 47.2862 15.2242C47.4061 15.2707 47.5149 15.3419 47.6054 15.4333C47.6968 15.5237 47.768 15.6325 47.8145 15.7524C47.8609 15.8724 47.8815 16.0007 47.8748 16.1292C47.8214 17.2786 48.4472 18.3627 49.4696 18.8912C49.5841 18.9496 49.6849 19.0316 49.7656 19.1318C49.8462 19.232 49.9047 19.348 49.9374 19.4724C49.9713 19.5964 49.9786 19.7262 49.9588 19.8533C49.9391 19.9804 49.8927 20.1018 49.8228 20.2097C49.2017 21.1785 49.2017 22.4303 49.8228 23.399C49.8928 23.5069 49.9391 23.6284 49.9589 23.7555C49.9786 23.8826 49.9713 24.0124 49.9374 24.1365Z" fill="#3F47CC"/>
<path d="M46.0644 19.0415C45.6678 18.6449 45.0247 18.6449 44.6281 19.0415L41.2571 22.4126L39.9152 21.0707C39.5186 20.6741 38.8755 20.6741 38.4788 21.0707C38.0822 21.4673 38.0822 22.1104 38.4788 22.5071L40.5389 24.5672C40.7372 24.7655 40.9971 24.8646 41.257 24.8646C41.5169 24.8646 41.7769 24.7655 41.9752 24.5672L46.0644 20.4779C46.461 20.0813 46.461 19.4382 46.0644 19.0415ZM12.3982 12.282C12.2073 12.0922 11.9493 11.9853 11.6802 11.9844C11.4131 11.9844 11.151 12.093 10.9621 12.282C10.7732 12.4709 10.6646 12.7329 10.6646 13C10.6646 13.2671 10.7732 13.5291 10.9621 13.718C11.151 13.907 11.4131 14.0156 11.6802 14.0156C11.9473 14.0156 12.2093 13.907 12.3982 13.718C12.5871 13.5291 12.6958 13.2671 12.6958 13C12.6958 12.7329 12.5871 12.4709 12.3982 12.282ZM20.4138 11.9844H15.4711C14.9102 11.9844 14.4555 12.4391 14.4555 13C14.4555 13.5609 14.9102 14.0156 15.4711 14.0156H20.4138C20.9748 14.0156 21.4295 13.5609 21.4295 13C21.4295 12.4391 20.9748 11.9844 20.4138 11.9844ZM30.7571 29.8594H19.1462C18.5853 29.8594 18.1306 30.3141 18.1306 30.875C18.1306 31.4359 18.5853 31.8906 19.1462 31.8906H30.757C31.3179 31.8906 31.7726 31.4359 31.7726 30.875C31.7726 30.3141 31.318 29.8594 30.7571 29.8594Z" fill="#3F47CC"/>
</g>
<defs>
<clipPath id="clip0_46_2709">
<rect width="52" height="52" fill="white"/>
</clipPath>
</defs>
</svg>
