<svg width="52" height="52" viewBox="0 0 52 52" fill="none" xmlns="http://www.w3.org/2000/svg">
<g clip-path="url(#clip0_46_2768)">
<path d="M42.318 31.4048C42.2057 31.4048 42.0945 31.3827 41.9908 31.3398C41.887 31.2968 41.7928 31.2338 41.7134 31.1544C41.6339 31.0751 41.571 30.9808 41.528 30.8771C41.485 30.7733 41.4629 30.6622 41.4629 30.5499V30.2246C41.4629 29.2254 40.0373 28.2453 38.5846 28.2453H35.0895C34.9772 28.2453 34.8661 28.2233 34.7624 28.1803C34.6587 28.1374 34.5644 28.0745 34.4851 27.9951C34.4057 27.9157 34.3428 27.8215 34.2999 27.7178C34.257 27.6141 34.2349 27.5029 34.235 27.3907C34.235 27.2785 34.257 27.1673 34.2999 27.0636C34.3428 26.9598 34.4058 26.8656 34.4851 26.7862C34.5645 26.7068 34.6587 26.6438 34.7624 26.6009C34.8661 26.5579 34.9772 26.5358 35.0895 26.5358H38.5846C40.7547 26.5358 43.1723 28.0511 43.1723 30.2246V30.5499C43.1723 30.6621 43.1503 30.7733 43.1074 30.877C43.0645 30.9807 43.0016 31.0749 42.9222 31.1543C42.8429 31.2337 42.7487 31.2967 42.645 31.3397C42.5413 31.3827 42.4302 31.4048 42.318 31.4048ZM38.8996 20.9796C38.8761 20.9796 38.8526 20.9791 38.8291 20.9771C38.3582 20.938 38.008 20.5257 38.047 20.0553L38.4745 14.838C38.4711 11.8931 36.1938 9.44021 33.3947 9.44021H29.0173C26.2176 9.44021 23.9404 11.8931 23.9404 14.9079L24.3645 20.0553C24.4035 20.5257 24.0533 20.938 23.5824 20.9772C23.1147 21.0158 22.7 20.666 22.6609 20.1951L22.2339 14.9779C22.231 10.9506 25.2752 7.73071 29.0173 7.73071H33.3942C37.1368 7.73071 40.181 10.9506 40.181 14.9079L39.7507 20.1951C39.7331 20.4088 39.6358 20.6081 39.4782 20.7534C39.3205 20.8987 39.114 20.9794 38.8996 20.9796Z" fill="#3F47CC"/>
<path d="M31.2062 29.1001C30.1928 29.1001 29.1715 28.9372 28.2525 28.6286C28.146 28.5928 28.0477 28.5364 27.9631 28.4626C27.8784 28.3889 27.8092 28.2991 27.7592 28.1986C27.7093 28.098 27.6796 27.9886 27.6719 27.8766C27.6643 27.7646 27.6788 27.6522 27.7146 27.5457C27.8652 27.0987 28.3494 26.859 28.7964 27.0072C29.5423 27.2576 30.3753 27.3906 31.2058 27.3906C33.143 27.3906 34.9357 26.6893 35.8835 25.56C37.1757 24.0193 38.0439 21.8203 38.0439 20.0889V16.6441C38.0439 16.1951 37.9519 15.8953 37.7709 15.7555C37.1269 15.2536 35.0799 15.7735 33.2741 16.2318C31.6234 16.651 29.9174 17.0848 28.3714 17.0848C26.4478 17.0848 25.1526 16.3928 24.3773 15.9169C24.3716 16.1081 24.3681 16.3463 24.3681 16.6441V20.0889C24.3681 21.3361 24.8327 22.8881 25.6114 24.2398C25.6674 24.3371 25.7038 24.4444 25.7183 24.5557C25.7328 24.6669 25.7253 24.78 25.6962 24.8884C25.667 24.9967 25.6168 25.0983 25.5483 25.1872C25.4799 25.2762 25.3946 25.3508 25.2974 25.4068C25.2002 25.463 25.0928 25.4994 24.9814 25.5141C24.8701 25.5287 24.757 25.5212 24.6485 25.4921C24.5401 25.4629 24.4384 25.4127 24.3494 25.3441C24.2605 25.2756 24.1859 25.1903 24.1299 25.0929C23.1947 23.4685 22.6582 21.6446 22.6582 20.0889V16.6441C22.6582 15.1905 22.691 14.3502 23.3674 13.9771C23.9704 13.639 24.5412 14.002 25.044 14.3174C25.7122 14.7391 26.7221 15.3754 28.3714 15.3754C29.7033 15.3754 31.3046 14.968 32.8531 14.5747C35.3558 13.9394 37.5151 13.3896 38.8206 14.4054C39.4397 14.8868 39.7534 15.64 39.7534 16.6442V20.0889C39.7534 22.2253 38.7487 24.8033 37.1928 26.6585C35.9104 28.1873 33.6718 29.1001 31.2062 29.1001ZM39.0064 39.6876C38.7961 39.6874 38.5932 39.6096 38.4367 39.4692C38.2801 39.3287 38.1809 39.1355 38.1579 38.9264C38.135 38.7173 38.19 38.5072 38.3123 38.3361C38.4347 38.165 38.6158 38.0451 38.8211 37.9993L48.965 35.728C49.3416 35.6614 49.6361 35.474 49.8327 35.1938C49.9298 35.0562 49.9986 34.9007 50.0352 34.7363C50.0718 34.5719 50.0755 34.4019 50.0459 34.2361C50.0066 34.0151 49.9104 33.8083 49.7667 33.6359C49.6231 33.4635 49.4369 33.3315 49.2267 33.2531C49.1213 33.2142 49.0247 33.1549 48.9423 33.0786C48.8599 33.0023 48.7934 32.9105 48.7465 32.8084C48.6996 32.7064 48.6733 32.5961 48.6691 32.4839C48.6649 32.3717 48.6829 32.2597 48.7221 32.1545C48.8863 31.7119 49.3798 31.484 49.82 31.6503C50.8148 32.0185 51.547 32.8965 51.73 33.9407C51.8683 34.7282 51.6912 35.5215 51.232 36.1755C50.7732 36.8298 50.0866 37.2657 49.299 37.404L39.1942 39.6671C39.1316 39.6809 39.0685 39.6876 39.0064 39.6876Z" fill="#3F47CC"/>
<path d="M27.4418 44.4858H20.9484C20.8864 44.4858 20.8242 44.4795 20.7631 44.4658L13.0705 42.7563C12.6098 42.6536 12.3188 42.1968 12.4215 41.7366C12.5236 41.2758 12.9795 40.9882 13.4407 41.087L21.0424 42.7764H27.4418C30.7774 42.7764 34.0495 41.6284 36.655 39.5444C36.678 39.5258 36.7019 39.5092 36.7264 39.4936L49.378 31.3583C49.4188 31.3318 49.4618 31.3089 49.5067 31.2898C49.6619 31.2245 49.8026 31.129 49.9207 31.009C50.0389 30.8889 50.132 30.7467 50.1948 30.5904C50.3234 30.2725 50.32 29.9233 50.1864 29.6088C49.9101 28.9573 49.156 28.6527 48.5055 28.9289L35.8054 34.1648C35.7023 34.2073 35.5912 34.2289 35.4796 34.2289H19.239C19.0877 34.229 18.9391 34.189 18.8083 34.1128C18.6775 34.0366 18.5694 33.9271 18.4948 33.7954C18.4203 33.6637 18.3821 33.5145 18.3842 33.3632C18.3862 33.2119 18.4284 33.0639 18.5064 32.9342L21.0707 28.6604C21.1467 28.5339 21.2541 28.4293 21.3825 28.3566C21.5109 28.2839 21.6559 28.2457 21.8034 28.2457H25.2227C26.8129 28.2457 28.153 27.155 28.5335 25.6814H19.5187L7.85868 34.2328C7.47716 34.512 6.94352 34.428 6.6638 34.0488C6.52988 33.8659 6.47402 33.6372 6.50848 33.4131C6.54294 33.189 6.66491 32.9877 6.84761 32.8535L18.7338 24.1372C18.8803 24.0297 19.0573 23.9717 19.239 23.9719H29.496C29.7227 23.9719 29.9402 24.062 30.1005 24.2223C30.2608 24.3827 30.3509 24.6001 30.3509 24.8269C30.3509 27.6549 28.0502 29.9555 25.2223 29.9555H22.2876L20.7488 32.5199H35.3105L47.8461 27.3521C49.3569 26.7099 51.1163 27.423 51.7605 28.9411C52.0725 29.6767 52.0797 30.4896 51.78 31.2312C51.4904 31.9482 50.9475 32.514 50.2472 32.8329L37.6885 40.9081C34.7861 43.2151 31.1496 44.4858 27.4418 44.4858Z" fill="#3F47CC"/>
<path d="M9.24831 49.323C9.20248 49.323 9.15671 49.3194 9.11145 49.3122C8.88773 49.2756 8.68759 49.152 8.55477 48.9683L0.161813 37.3254C0.0959342 37.2344 0.0487078 37.1313 0.0228558 37.022C-0.00299607 36.9127 -0.00696233 36.7994 0.0111857 36.6885C0.0476061 36.4648 0.171251 36.2647 0.355013 36.132L5.90144 32.1335C6.28534 31.8606 6.81898 31.9448 7.09482 32.3272L15.4878 43.9693C15.5535 44.0603 15.6006 44.1634 15.6265 44.2727C15.6523 44.3819 15.6564 44.4952 15.6385 44.606C15.6205 44.7169 15.5809 44.8231 15.5219 44.9186C15.4629 45.0141 15.3857 45.0971 15.2946 45.1628L9.74815 49.1621C9.60248 49.2667 9.42766 49.323 9.24831 49.3231V49.323ZM2.04835 37.0191L9.44201 47.2746L13.6019 44.2754L6.20808 34.0199L2.04835 37.0191Z" fill="#3F47CC"/>
<path d="M11.5463 43.6314C11.5463 44.5753 10.7809 45.3407 9.83681 45.3407C8.89272 45.3407 8.12744 44.5753 8.12744 43.6312C8.12744 42.6869 8.89285 41.9214 9.83693 41.9214C10.781 41.9214 11.5463 42.687 11.5463 43.6314ZM31.2062 5.16644C31.0939 5.16654 30.9827 5.14451 30.879 5.1016C30.7752 5.05869 30.681 4.99576 30.6015 4.91639C30.5221 4.83702 30.4592 4.74278 30.4162 4.63905C30.3733 4.53533 30.3512 4.42415 30.3512 4.31188V0.892645C30.3512 0.780377 30.3733 0.669201 30.4162 0.565474C30.4592 0.461748 30.5221 0.367506 30.6015 0.288138C30.681 0.20877 30.7752 0.145833 30.879 0.102927C30.9827 0.0600212 31.0939 0.0379875 31.2062 0.0380863C31.3184 0.0380039 31.4296 0.0600516 31.5333 0.102968C31.637 0.145884 31.7312 0.208828 31.8106 0.288197C31.89 0.367567 31.9529 0.461805 31.9958 0.565522C32.0388 0.669239 32.0608 0.7804 32.0607 0.892645V4.31188C32.0608 4.42412 32.0387 4.53526 31.9958 4.63897C31.9529 4.74267 31.8899 4.83689 31.8106 4.91625C31.7312 4.99561 31.637 5.05854 31.5333 5.10145C31.4296 5.14435 31.3184 5.16652 31.2062 5.16644ZM34.625 5.16644C34.5128 5.16665 34.4016 5.14463 34.298 5.10165C34.1943 5.05867 34.1002 4.99558 34.021 4.91602C33.9416 4.83671 33.8785 4.74251 33.8355 4.63881C33.7925 4.53511 33.7704 4.42395 33.7704 4.31169C33.7704 4.19943 33.7925 4.08828 33.8355 3.98458C33.8785 3.88088 33.9416 3.78668 34.021 3.70737L37.0122 0.715473C37.1734 0.559433 37.3895 0.473018 37.6138 0.474869C37.8382 0.476721 38.0528 0.56669 38.2114 0.72537C38.37 0.884049 38.4599 1.09872 38.4617 1.32307C38.4634 1.54743 38.3769 1.76348 38.2208 1.92463L35.2295 4.9159C35.1503 4.99548 35.056 5.05858 34.9523 5.10156C34.8485 5.14454 34.7372 5.16655 34.6249 5.16632L34.625 5.16644ZM27.7869 5.16644C27.6747 5.16665 27.5635 5.14463 27.4599 5.10165C27.3562 5.05867 27.2621 4.99558 27.1829 4.91602L24.6186 2.35159C24.5392 2.27228 24.4762 2.17809 24.4332 2.0744C24.3902 1.97072 24.3681 1.85957 24.3681 1.74733C24.3681 1.63508 24.3902 1.52394 24.4332 1.42025C24.4762 1.31657 24.5392 1.22238 24.6186 1.14307C24.7789 0.982897 24.9963 0.892927 25.2229 0.892927C25.4495 0.892927 25.6668 0.982897 25.8271 1.14307L28.3914 3.70737C28.5108 3.82696 28.5921 3.97925 28.625 4.145C28.6579 4.31075 28.6409 4.48253 28.5762 4.63864C28.5115 4.79475 28.402 4.9282 28.2616 5.02211C28.1211 5.11603 27.9559 5.16634 27.7869 5.16644Z" fill="#3F47CC"/>
</g>
<defs>
<clipPath id="clip0_46_2768">
<rect width="52" height="52" fill="white"/>
</clipPath>
</defs>
</svg>
