<svg width="52" height="52" viewBox="0 0 52 52" fill="none" xmlns="http://www.w3.org/2000/svg">
<path d="M41.5401 48.75H39.8125V50.375H42.2258C42.4176 50.375 42.6033 50.3071 42.7499 50.1834C42.8964 50.0597 42.9945 49.8881 43.0268 49.699L49.1177 13.949L47.5157 13.676L41.5401 48.75ZM49.7036 5.69989L39.9536 3.98064L39.6714 5.58096L48.6259 7.16016L47.7926 12.0513L49.3944 12.3243L50.3634 6.6368C50.3996 6.42514 50.3504 6.20777 50.2268 6.03221C50.1032 5.85665 49.915 5.73717 49.7036 5.69989ZM37.375 1.625H2.4375C2.22201 1.625 2.01535 1.7106 1.86298 1.86298C1.7106 2.01535 1.625 2.22201 1.625 2.4375V35.75H3.25V3.25H36.5625V48.75H3.25V37.375H1.625V49.5625C1.625 49.778 1.7106 49.9847 1.86298 50.137C2.01535 50.2894 2.22201 50.375 2.4375 50.375H37.375C37.5905 50.375 37.7972 50.2894 37.9495 50.137C38.1019 49.9847 38.1875 49.778 38.1875 49.5625V2.4375C38.1875 2.22201 38.1019 2.01535 37.9495 1.86298C37.7972 1.7106 37.5905 1.625 37.375 1.625Z" fill="#3F47CC"/>
<path d="M9.51187 28.6755L8.36279 29.8246L10.8003 32.2621C10.8757 32.3375 10.9653 32.3974 11.0639 32.4382C11.1625 32.479 11.2681 32.5 11.3748 32.5C11.385 32.5 11.3951 32.5 11.406 32.4994C11.5179 32.4951 11.6276 32.4678 11.7284 32.4191C11.8292 32.3704 11.9189 32.3013 11.9917 32.2164L16.8667 26.5289L15.6329 25.4712L11.3289 30.4925L9.51187 28.6755Z" fill="#3F47CC"/>
<path d="M5.6875 32.0938C5.68836 32.8477 5.98825 33.5705 6.52137 34.1036C7.05449 34.6368 7.7773 34.9366 8.53125 34.9375H12.5938C13.3477 34.9366 14.0705 34.6368 14.6036 34.1036C15.1368 33.5705 15.4366 32.8477 15.4375 32.0938V31.6875H13.8125V32.0938C13.8122 32.4169 13.6836 32.7267 13.4552 32.9551C13.2267 33.1836 12.9169 33.3122 12.5938 33.3125H8.53125C8.20812 33.3122 7.89833 33.1836 7.66985 32.9551C7.44137 32.7267 7.31285 32.4169 7.3125 32.0938V28.0312C7.31285 27.7081 7.44137 27.3983 7.66985 27.1699C7.89833 26.9414 8.20812 26.8128 8.53125 26.8125H12.1875V25.1875H8.53125C7.7773 25.1884 7.05449 25.4882 6.52137 26.0214C5.98825 26.5545 5.68836 27.2773 5.6875 28.0312V32.0938ZM9.51204 40.863L8.36296 42.012L10.8005 44.4495C10.8759 44.525 10.9655 44.5848 11.0641 44.6257C11.1626 44.6665 11.2683 44.6875 11.375 44.6875C11.3852 44.6875 11.3953 44.6875 11.4062 44.6869C11.518 44.6826 11.6278 44.6552 11.7286 44.6065C11.8294 44.5578 11.919 44.4888 11.9919 44.4038L16.8669 38.7163L15.6331 37.6587L11.3291 42.68L9.51204 40.863Z" fill="#3F47CC"/>
<path d="M5.6875 44.2813C5.68836 45.0352 5.98825 45.7581 6.52137 46.2912C7.05449 46.8243 7.7773 47.1242 8.53125 47.125H12.5938C13.3477 47.1242 14.0705 46.8243 14.6036 46.2912C15.1368 45.7581 15.4366 45.0352 15.4375 44.2813V43.875H13.8125V44.2813C13.8122 44.6044 13.6836 44.9142 13.4551 45.1427C13.2267 45.3712 12.9169 45.4997 12.5938 45.5H8.53125C8.20812 45.4997 7.89833 45.3712 7.66985 45.1427C7.44137 44.9142 7.31285 44.6044 7.3125 44.2813V40.2188C7.31285 39.8957 7.44137 39.5859 7.66985 39.3574C7.89833 39.1289 8.20812 39.0004 8.53125 39H12.1875V37.375H8.53125C7.7773 37.3759 7.05449 37.6758 6.52137 38.2089C5.98825 38.742 5.68836 39.4649 5.6875 40.2188V44.2813ZM18.6875 37.375H30.875V39H18.6875V37.375ZM18.6875 41.4375H22.75V43.0625H18.6875V41.4375ZM24.375 41.4375H30.875V43.0625H24.375V41.4375ZM18.6875 25.1875H30.875V26.8125H18.6875V25.1875ZM18.6875 29.25H22.75V30.875H18.6875V29.25ZM24.375 29.25H30.875V30.875H24.375V29.25ZM27.9356 8.20163L20.6332 4.94543C20.5291 4.899 20.4164 4.875 20.3023 4.875C20.1883 4.875 20.0756 4.899 19.9715 4.94543L12.6691 8.20163C12.5059 8.27439 12.3713 8.39891 12.2861 8.5559C12.2008 8.71289 12.1697 8.89361 12.1975 9.07009L12.8061 12.9346C12.8071 12.9409 12.8081 12.9473 12.8094 12.9536C13.4259 16.3028 15.3037 19.2879 18.0558 21.2936L19.8271 22.5982C19.966 22.7005 20.1339 22.7559 20.3064 22.7565C20.4789 22.757 20.6472 22.7026 20.7867 22.6012L22.4743 21.3744C25.263 19.3695 27.1676 16.3632 27.7891 12.9853C27.7902 12.979 27.7914 12.9727 27.7923 12.9664L28.407 9.07039C28.4349 8.89389 28.4038 8.71312 28.3186 8.55607C28.2334 8.39902 28.0988 8.27444 27.9356 8.20163ZM26.1887 12.7038C25.6395 15.6665 23.9662 18.3023 21.5188 20.06L20.3125 20.9372L19.0199 19.9852C16.6048 18.2269 14.9551 15.61 14.4102 12.6727L13.8998 9.43287L20.3023 6.57713L26.705 9.43216L26.1887 12.7038Z" fill="#3F47CC"/>
<path d="M18.1921 13.0058C17.8748 12.6885 17.3604 12.6885 17.0431 13.0058C16.7259 13.323 16.7259 13.8374 17.0431 14.1547L18.9062 16.0177C19.0585 16.1701 19.2652 16.2557 19.4807 16.2557C19.6961 16.2557 19.9028 16.1701 20.0551 16.0177L24.3557 11.7172C24.6729 11.3999 24.6729 10.8855 24.3557 10.5683C24.0384 10.251 23.524 10.251 23.2067 10.5683L20.4123 13.3629C19.8978 13.8775 19.0636 13.8775 18.5492 13.3629L18.1921 13.0058ZM5.6875 5.6875C5.6875 5.23877 6.05127 4.875 6.5 4.875H9.75C10.1987 4.875 10.5625 5.23877 10.5625 5.6875C10.5625 6.13623 10.1987 6.5 9.75 6.5H6.5C6.05127 6.5 5.6875 6.13623 5.6875 5.6875ZM5.6875 8.9375C5.6875 8.48877 6.05127 8.125 6.5 8.125H8.125C8.57373 8.125 8.9375 8.48877 8.9375 8.9375C8.9375 9.38623 8.57373 9.75 8.125 9.75H6.5C6.05127 9.75 5.6875 9.38623 5.6875 8.9375ZM30.0625 5.6875C30.0625 5.23877 30.4263 4.875 30.875 4.875C31.3237 4.875 31.6875 5.23877 31.6875 5.6875C31.6875 6.13623 31.3237 6.5 30.875 6.5C30.4263 6.5 30.0625 6.13623 30.0625 5.6875ZM33.3125 5.6875C33.3125 5.23877 33.6763 4.875 34.125 4.875C34.5737 4.875 34.9375 5.23877 34.9375 5.6875C34.9375 6.13623 34.5737 6.5 34.125 6.5C33.6763 6.5 33.3125 6.13623 33.3125 5.6875Z" fill="#3F47CC"/>
</svg>
