<svg width="51" height="51" viewBox="0 0 51 51" fill="none" xmlns="http://www.w3.org/2000/svg">
<path d="M49.0627 36.0986C46.2615 35.9901 43.4716 35.6802 40.7149 35.1712C41.8523 32.8768 42.4564 30.355 42.482 27.7943C42.5076 25.2335 41.9541 22.7001 40.8628 20.3834C39.7715 18.0667 38.1706 16.0267 36.1799 14.4157C34.1892 12.8048 31.8601 11.6647 29.3667 11.0806C26.8733 10.4966 24.2802 10.4837 21.7811 11.0428C19.282 11.602 16.9417 12.7189 14.935 14.3099C12.9283 15.9009 11.3072 17.9249 10.1929 20.2306C9.07854 22.5363 8.49978 25.0641 8.49988 27.6249C8.50203 30.2452 9.11464 32.8289 10.2891 35.1712C7.53096 35.6804 4.73971 35.9903 1.93703 36.0986C1.67961 36.109 1.43137 36.1971 1.22501 36.3513C1.01866 36.5056 0.863879 36.7187 0.781058 36.9627C0.698236 37.2066 0.691262 37.47 0.761054 37.718C0.830846 37.9659 0.974129 38.187 1.17203 38.3519L4.93923 41.491L2.84653 47.0814C2.76958 47.286 2.74653 47.507 2.77959 47.7231C2.81265 47.9391 2.9007 48.1431 3.0353 48.3153C3.1699 48.4876 3.34652 48.6223 3.5482 48.7066C3.74988 48.7909 3.96984 48.822 4.18698 48.7967C9.90305 48.0153 15.4675 46.3714 20.6906 43.9211C23.8281 44.8596 27.1716 44.8596 30.3092 43.9211C35.532 46.3713 41.0962 48.0152 46.8119 48.7967C47.0294 48.823 47.25 48.7928 47.4525 48.709C47.6549 48.6253 47.8323 48.4907 47.9676 48.3184C48.1029 48.1461 48.1916 47.9419 48.225 47.7253C48.2584 47.5088 48.2354 47.2874 48.1583 47.0823L46.0622 41.491L49.8294 38.3519C50.0273 38.187 50.1706 37.9659 50.2404 37.718C50.3102 37.47 50.3032 37.2066 50.2204 36.9627C50.1376 36.7187 49.9828 36.5056 49.7764 36.3513C49.5701 36.1971 49.3218 36.109 49.0644 36.0986H49.0627ZM4.68593 47.016L6.60098 41.9092C8.02898 41.7341 9.44168 41.4587 10.8306 41.0847C11.0442 41.0222 11.2247 40.8785 11.3335 40.6844C11.4423 40.4903 11.4707 40.2613 11.4125 40.0465C11.3543 39.8318 11.2142 39.6484 11.0222 39.5358C10.8303 39.4231 10.6019 39.3903 10.386 39.4442C8.98454 39.821 7.55679 40.0924 6.11478 40.2559L3.10238 37.7459C5.81126 37.593 8.50643 37.2541 11.1689 36.7318C12.9337 39.4989 15.4579 41.6993 18.4398 43.0703C14.0433 44.9697 9.42073 46.2958 4.68593 47.016ZM10.1999 27.6249C10.1999 19.1751 17.05 12.3249 25.4999 12.3249C33.9497 12.3249 40.7999 19.1751 40.7999 27.6249C40.7999 36.0748 33.9497 42.9249 25.4999 42.9249C17.0543 42.9147 10.2101 36.0705 10.1999 27.6249ZM44.885 40.2559C43.443 40.0924 42.0152 39.821 40.6137 39.4442C40.3978 39.3903 40.1694 39.4231 39.9775 39.5358C39.7856 39.6484 39.6455 39.8318 39.5873 40.0465C39.5291 40.2613 39.5574 40.4903 39.6662 40.6844C39.775 40.8785 39.9556 41.0222 40.1692 41.0847C41.5581 41.4587 42.9716 41.7332 44.3988 41.9092L46.3138 47.016C41.579 46.2958 36.9565 44.9697 32.56 43.0703C35.5419 41.6993 38.066 39.4989 39.8309 36.7318C42.4933 37.2541 45.1885 37.593 47.8974 37.7459L44.885 40.2559Z" fill="#3F47CC"/>
<path d="M32.3612 29.8155L37.995 24.2454C38.1072 24.1344 38.1863 23.9943 38.2233 23.8408C38.2604 23.6873 38.254 23.5266 38.2048 23.3766C38.1557 23.2266 38.0657 23.0932 37.945 22.9914C37.8244 22.8897 37.6777 22.8235 37.5216 22.8004L29.7424 21.6538L26.265 14.5036C26.1873 14.3694 26.0758 14.2581 25.9415 14.1807C25.8072 14.1033 25.655 14.0625 25.5 14.0625C25.345 14.0625 25.1928 14.1033 25.0585 14.1807C24.9242 14.2581 24.8127 14.3694 24.735 14.5036L21.2542 21.6538L13.475 22.8004C13.3189 22.8235 13.1722 22.8897 13.0516 22.9914C12.9309 23.0932 12.8409 23.2266 12.7918 23.3766C12.7426 23.5266 12.7362 23.6873 12.7733 23.8408C12.8103 23.9943 12.8894 24.1344 13.0016 24.2454L18.638 29.8155L17.306 37.6831C17.2795 37.8397 17.2974 38.0007 17.3578 38.1477C17.4181 38.2947 17.5185 38.4219 17.6474 38.5147C17.7764 38.6076 17.9288 38.6624 18.0874 38.673C18.2459 38.6836 18.4043 38.6496 18.5445 38.5747L25.5 34.8679L32.4547 38.5747C32.5948 38.6491 32.753 38.6828 32.9113 38.6719C33.0695 38.6611 33.2216 38.6062 33.3503 38.5134C33.479 38.4206 33.5791 38.2937 33.6394 38.1469C33.6997 38.0002 33.7177 37.8395 33.6915 37.6831L32.3612 29.8155ZM25.9012 33.1543C25.7778 33.089 25.6404 33.0549 25.5009 33.0549C25.3613 33.0549 25.2239 33.089 25.1005 33.1543L19.2721 36.261L20.3881 29.665C20.4109 29.5304 20.4009 29.3924 20.359 29.2625C20.3172 29.1326 20.2446 29.0146 20.1476 28.9187L15.4088 24.2352L21.9462 23.2722C22.0831 23.252 22.2131 23.1988 22.3248 23.117C22.4365 23.0352 22.5265 22.9274 22.5871 22.803L25.5 16.8173L28.4129 22.8013C28.4735 22.9257 28.5635 23.0335 28.6752 23.1153C28.7869 23.1971 28.9169 23.2503 29.0539 23.2705L35.5912 24.2335L30.855 28.917C30.7579 29.0129 30.6854 29.1309 30.6435 29.2608C30.6017 29.3907 30.5917 29.5287 30.6144 29.6633L31.7305 36.261L25.9012 33.1543ZM33.83 5.30995L32.8525 7.66445C32.8097 7.76759 32.7877 7.87814 32.7877 7.98979C32.7877 8.10144 32.8096 8.212 32.8523 8.31516C32.895 8.41832 32.9576 8.51207 33.0366 8.59103C33.1155 8.67 33.2092 8.73265 33.3124 8.7754C33.5207 8.86174 33.7547 8.8618 33.9631 8.77556C34.0662 8.73286 34.16 8.67026 34.2389 8.59133C34.3179 8.5124 34.3806 8.41869 34.4233 8.31555L35.4008 5.96105C35.4871 5.75275 35.4872 5.51868 35.401 5.31034C35.3147 5.10199 35.1493 4.93644 34.9409 4.8501C34.7326 4.76376 34.4986 4.7637 34.2902 4.84994C34.0819 4.93618 33.9163 5.10165 33.83 5.30995ZM44.3496 19.8161C44.3923 19.9192 44.455 20.0129 44.5339 20.0919C44.6129 20.1708 44.7066 20.2334 44.8098 20.2761C44.913 20.3188 45.0235 20.3408 45.1352 20.3408C45.2469 20.3407 45.3574 20.3187 45.4606 20.2759L47.8159 19.295C48.0241 19.2084 48.1894 19.0427 48.2754 18.8343C48.3614 18.6259 48.361 18.3918 48.2745 18.1836C48.1879 17.9754 48.0222 17.8102 47.8138 17.7242C47.6053 17.6382 47.3713 17.6385 47.1631 17.7251L44.8086 18.7034C44.7053 18.7462 44.6115 18.809 44.5325 18.8881C44.4535 18.9672 44.3909 19.0611 44.3483 19.1645C44.3056 19.2678 44.2838 19.3786 44.284 19.4904C44.2842 19.6022 44.3065 19.7129 44.3496 19.8161ZM16.065 4.8501C15.9618 4.89283 15.8681 4.95547 15.7892 5.03443C15.7102 5.11339 15.6476 5.20714 15.6049 5.31031C15.5622 5.41347 15.5403 5.52404 15.5403 5.6357C15.5403 5.74736 15.5624 5.85791 15.6052 5.96105L16.5827 8.31555C16.6254 8.41869 16.688 8.5124 16.767 8.59133C16.846 8.67026 16.9397 8.73286 17.0429 8.77556C17.146 8.81826 17.2566 8.84023 17.3683 8.8402C17.4799 8.84017 17.5905 8.81815 17.6936 8.7754C17.7967 8.73265 17.8905 8.67 17.9694 8.59103C18.0483 8.51207 18.1109 8.41832 18.1536 8.31516C18.1963 8.212 18.2183 8.10144 18.2182 7.98979C18.2182 7.87814 18.1962 7.76759 18.1535 7.66445L17.17 5.30995C17.0837 5.10308 16.9191 4.9387 16.7122 4.85257C16.5052 4.76645 16.2726 4.76556 16.065 4.8501ZM3.1841 19.295L5.53945 20.2734C5.7472 20.3575 5.97979 20.3562 6.18659 20.2697C6.39338 20.1832 6.55764 20.0185 6.64361 19.8115C6.72958 19.6045 6.73029 19.3719 6.6456 19.1644C6.5609 18.9568 6.39766 18.7912 6.1914 18.7034L3.8369 17.7251C3.62871 17.6385 3.39466 17.6382 3.18624 17.7242C2.97782 17.8102 2.81209 17.9754 2.72553 18.1836C2.63896 18.3918 2.63864 18.6259 2.72464 18.8343C2.81064 19.0427 2.97591 19.2084 3.1841 19.295ZM24.65 2.975V7.225C24.65 7.45043 24.7396 7.66664 24.899 7.82604C25.0584 7.98545 25.2746 8.075 25.5 8.075C25.7254 8.075 25.9416 7.98545 26.101 7.82604C26.2604 7.66664 26.35 7.45043 26.35 7.225V2.975C26.35 2.74957 26.2604 2.53337 26.101 2.37396C25.9416 2.21455 25.7254 2.125 25.5 2.125C25.2746 2.125 25.0584 2.21455 24.899 2.37396C24.7396 2.53337 24.65 2.74957 24.65 2.975ZM42.33 9.59395L39.3252 12.5987C39.2441 12.6771 39.1793 12.7709 39.1348 12.8746C39.0902 12.9783 39.0668 13.0898 39.0658 13.2027C39.0648 13.3156 39.0863 13.4275 39.1291 13.532C39.1718 13.6364 39.2349 13.7313 39.3147 13.8111C39.3945 13.8909 39.4894 13.9541 39.5939 13.9968C39.6984 14.0395 39.8103 14.061 39.9231 14.0601C40.036 14.0591 40.1475 14.0356 40.2512 13.9911C40.3549 13.9465 40.4487 13.8818 40.5272 13.8006L43.5311 10.795C43.6154 10.7174 43.6831 10.6236 43.7302 10.5191C43.7774 10.4147 43.8029 10.3018 43.8052 10.1872C43.8076 10.0726 43.7868 9.95877 43.744 9.85245C43.7013 9.74614 43.6375 9.64957 43.5565 9.56854C43.4754 9.48751 43.3789 9.42371 43.2726 9.38096C43.1662 9.3382 43.0524 9.31739 42.9378 9.31976C42.8232 9.32214 42.7104 9.34765 42.6059 9.39477C42.5014 9.44189 42.4076 9.50964 42.33 9.59395ZM7.46895 9.59395C7.3096 9.75335 7.22008 9.96951 7.22008 10.1949C7.22008 10.4203 7.3096 10.6365 7.46895 10.7959L10.4737 13.8006C10.634 13.9554 10.8487 14.0411 11.0716 14.0392C11.2945 14.0372 11.5076 13.9478 11.6652 13.7902C11.8228 13.6327 11.9122 13.4195 11.9142 13.1966C11.9161 12.9737 11.8304 12.759 11.6756 12.5987L8.67 9.59395C8.51064 9.43486 8.29466 9.34551 8.06948 9.34551C7.84429 9.34551 7.62831 9.43486 7.46895 9.59395ZM5.1 28.475C5.32543 28.475 5.54164 28.3855 5.70104 28.226C5.86045 28.0666 5.95 27.8504 5.95 27.625C5.95 27.3996 5.86045 27.1834 5.70104 27.024C5.54164 26.8646 5.32543 26.775 5.1 26.775H0.85C0.624566 26.775 0.408365 26.8646 0.248959 27.024C0.0895533 27.1834 0 27.3996 0 27.625C0 27.8504 0.0895533 28.0666 0.248959 28.226C0.408365 28.3855 0.624566 28.475 0.85 28.475H5.1ZM50.15 26.775H45.9C45.6746 26.775 45.4584 26.8646 45.299 27.024C45.1396 27.1834 45.05 27.3996 45.05 27.625C45.05 27.8504 45.1396 28.0666 45.299 28.226C45.4584 28.3855 45.6746 28.475 45.9 28.475H50.15C50.3754 28.475 50.5916 28.3855 50.751 28.226C50.9104 28.0666 51 27.8504 51 27.625C51 27.3996 50.9104 27.1834 50.751 27.024C50.5916 26.8646 50.3754 26.775 50.15 26.775Z" fill="#3F47CC"/>
</svg>
