<svg width="52" height="52" viewBox="0 0 52 52" fill="none" xmlns="http://www.w3.org/2000/svg">
<path d="M50.2856 24.822L47.0356 18.322C46.9699 18.1866 46.867 18.0727 46.7389 17.9936C46.6109 17.9145 46.463 17.8734 46.3125 17.8751H45.695L44.8825 17.0626H46.3125C46.528 17.0626 46.7346 16.977 46.887 16.8246C47.0394 16.6723 47.125 16.4656 47.125 16.2501V13.0001C47.125 12.7846 47.0394 12.578 46.887 12.4256C46.7346 12.2732 46.528 12.1876 46.3125 12.1876H44.8825L45.8981 11.1801C46.0503 11.0267 46.1358 10.8194 46.1358 10.6032C46.1358 10.3871 46.0503 10.1798 45.8981 10.0264L43.5987 7.72699C43.4453 7.57477 43.238 7.48935 43.0219 7.48935C42.8058 7.48935 42.5984 7.57477 42.445 7.72699L41.4375 8.74261V7.31261C41.4375 7.09713 41.3519 6.89046 41.1995 6.73809C41.0471 6.58572 40.8405 6.50011 40.625 6.50011H37.375C37.1595 6.50011 36.9528 6.58572 36.8005 6.73809C36.6481 6.89046 36.5625 7.09713 36.5625 7.31261V8.74261L35.555 7.72699C35.4016 7.57477 35.1942 7.48935 34.9781 7.48935C34.762 7.48935 34.5547 7.57477 34.4012 7.72699L32.1019 10.0264C31.9496 10.1798 31.8642 10.3871 31.8642 10.6032C31.8642 10.8194 31.9496 11.0267 32.1019 11.1801L33.1175 12.1876H31.6875C31.472 12.1876 31.2653 12.2732 31.113 12.4256C30.9606 12.578 30.875 12.7846 30.875 13.0001V16.2501C30.875 16.4656 30.9606 16.6723 31.113 16.8246C31.2653 16.977 31.472 17.0626 31.6875 17.0626H33.1175L32.305 17.8751H27.625V16.1932C27.6238 15.8547 27.6942 15.5198 27.8314 15.2104C27.9686 14.901 28.1696 14.624 28.4212 14.3976C29.3512 13.5714 30.055 12.5215 30.466 11.3474C30.877 10.1733 30.9818 8.91378 30.7703 7.68792C30.5588 6.46206 30.038 5.31042 29.2573 4.34193C28.4766 3.37344 27.4618 2.62012 26.3087 2.15324C26.185 2.10241 26.0507 2.08291 25.9176 2.09647C25.7845 2.11004 25.6568 2.15625 25.5459 2.23101C25.435 2.30576 25.3442 2.40674 25.2817 2.52499C25.2192 2.64324 25.1868 2.7751 25.1875 2.90886V8.49886L23.5625 9.58761L21.9375 8.49886V2.90886C21.9382 2.7751 21.9058 2.64324 21.8433 2.52499C21.7808 2.40674 21.69 2.30576 21.5791 2.23101C21.4682 2.15625 21.3405 2.11004 21.2074 2.09647C21.0743 2.08291 20.94 2.10241 20.8162 2.15324C19.6632 2.62012 18.6483 3.37344 17.8676 4.34193C17.0869 5.31042 16.5662 6.46206 16.3547 7.68792C16.1432 8.91378 16.248 10.1733 16.659 11.3474C17.07 12.5215 17.7738 13.5714 18.7037 14.3976C18.9554 14.624 19.1564 14.901 19.2936 15.2104C19.4308 15.5198 19.5012 15.8547 19.5 16.1932V17.8751H18.6875C18.537 17.8734 18.3891 17.9145 18.2611 17.9936C18.133 18.0727 18.0301 18.1866 17.9644 18.322L14.7144 24.822C14.652 24.9457 14.6224 25.0832 14.6282 25.2216C14.634 25.36 14.675 25.4946 14.7475 25.6126C14.8199 25.7307 14.9214 25.8282 15.0421 25.8961C15.1629 25.9639 15.299 25.9997 15.4375 26.0001H17.875V35.9289L16.25 36.3351V34.9376C16.25 34.7221 16.1644 34.5155 16.012 34.3631C15.8597 34.2107 15.653 34.1251 15.4375 34.1251H8.9375C8.72201 34.1251 8.51535 34.2107 8.36298 34.3631C8.2106 34.5155 8.125 34.7221 8.125 34.9376V35.7501H2.4375C2.22201 35.7501 2.01535 35.8357 1.86298 35.9881C1.7106 36.1405 1.625 36.3471 1.625 36.5626V47.9376C1.625 48.1531 1.7106 48.3598 1.86298 48.5121C2.01535 48.6645 2.22201 48.7501 2.4375 48.7501H8.125V49.5626C8.125 49.7781 8.2106 49.9848 8.36298 50.1371C8.51535 50.2895 8.72201 50.3751 8.9375 50.3751H15.4375C15.653 50.3751 15.8597 50.2895 16.012 50.1371C16.1644 49.9848 16.25 49.7781 16.25 49.5626V48.4414L17.2981 48.9614C18.0883 49.3547 18.9586 49.5604 19.8412 49.5626H32.0044C33.0033 49.5648 33.9847 49.3012 34.8481 48.7989L48.4981 40.9176C49.0984 40.5713 49.572 40.0419 49.8496 39.4068C50.1272 38.7718 50.1941 38.0646 50.0406 37.3888C49.8871 36.713 49.5212 36.1041 48.9965 35.6513C48.4719 35.1985 47.816 34.9256 47.125 34.8726V26.0001H49.5625C49.701 25.9997 49.8371 25.9639 49.9579 25.8961C50.0786 25.8282 50.18 25.7307 50.2525 25.6126C50.325 25.4946 50.366 25.36 50.3718 25.2216C50.3776 25.0832 50.3479 24.9457 50.2856 24.822ZM8.125 47.1251H3.25V37.3751H8.125V47.1251ZM14.625 48.7501H9.75V35.7501H14.625V48.7501ZM32.5 15.4376V13.8126H34.4094C34.5839 13.8121 34.7537 13.7559 34.894 13.6521C35.0343 13.5483 35.1378 13.4025 35.1894 13.2357C35.2249 13.1206 35.2712 13.0091 35.3275 12.9026C35.4075 12.7492 35.4364 12.5743 35.4101 12.4033C35.3838 12.2324 35.3036 12.0742 35.1812 11.952L33.8244 10.6032L34.9781 9.44949L36.3269 10.8064C36.4491 10.9288 36.6072 11.009 36.7782 11.0353C36.9492 11.0616 37.1241 11.0326 37.2775 10.9526C37.384 10.8963 37.4955 10.85 37.6106 10.8145C37.7773 10.7629 37.9232 10.6594 38.027 10.5191C38.1307 10.3788 38.187 10.209 38.1875 10.0345V8.12511H39.8125V10.0345C39.813 10.209 39.8692 10.3788 39.973 10.5191C40.0768 10.6594 40.2227 10.7629 40.3894 10.8145C40.5045 10.85 40.616 10.8963 40.7225 10.9526C40.8759 11.0326 41.0508 11.0616 41.2218 11.0353C41.3928 11.009 41.5509 10.9288 41.6731 10.8064L43.0219 9.44949L44.1756 10.6032L42.8187 11.952C42.6963 12.0742 42.6162 12.2324 42.5899 12.4033C42.5635 12.5743 42.5925 12.7492 42.6725 12.9026C42.7288 13.0091 42.7751 13.1206 42.8106 13.2357C42.8622 13.4025 42.9657 13.5483 43.106 13.6521C43.2463 13.7559 43.4161 13.8121 43.5906 13.8126H45.5V15.4376H43.5906C43.4161 15.4381 43.2463 15.4944 43.106 15.5981C42.9657 15.7019 42.8622 15.8478 42.8106 16.0145C42.7751 16.1296 42.7288 16.2411 42.6725 16.3476C42.5925 16.501 42.5635 16.6759 42.5899 16.8469C42.6162 17.0179 42.6963 17.176 42.8187 17.2982L43.4037 17.8751H34.5962L35.1812 17.2982C35.3036 17.176 35.3838 17.0179 35.4101 16.8469C35.4364 16.6759 35.4075 16.501 35.3275 16.3476C35.2712 16.2411 35.2249 16.1296 35.1894 16.0145C35.1378 15.8478 35.0343 15.7019 34.894 15.5981C34.7537 15.4944 34.5839 15.4381 34.4094 15.4376H32.5ZM33.3125 22.1326L35.0269 25.5532C35.0926 25.6886 35.1955 25.8025 35.3236 25.8816C35.4516 25.9608 35.5995 26.0018 35.75 26.0001H45.5V35.1651C45.4187 35.2057 45.3294 35.2464 45.2481 35.287L37.3262 39.8614C36.8936 39.2132 36.2416 38.7429 35.49 38.537L33.3125 37.9601V22.1326ZM17.875 8.93761C17.873 8.01978 18.0937 7.11517 18.5183 6.30143C18.9428 5.4877 19.5585 4.78914 20.3125 4.26574V8.93761C20.3132 9.07144 20.3469 9.20302 20.4107 9.32067C20.4745 9.43832 20.5664 9.53839 20.6781 9.61199L23.1156 11.237C23.2468 11.3282 23.4027 11.3772 23.5625 11.3772C23.7223 11.3772 23.8782 11.3282 24.0094 11.237L26.4469 9.61199C26.5586 9.53839 26.6505 9.43832 26.7143 9.32067C26.7781 9.20302 26.8118 9.07144 26.8125 8.93761V4.26574C27.5178 4.75662 28.1027 5.40094 28.5233 6.1503C28.9438 6.89966 29.1891 7.73458 29.2407 8.59234C29.2924 9.4501 29.1489 10.3084 28.8212 11.1028C28.4935 11.8972 27.9901 12.607 27.3487 13.1789C26.9221 13.5562 26.5811 14.0204 26.3485 14.5402C26.1159 15.0601 25.9971 15.6237 26 16.1932V17.8751H24.375V15.4376C24.375 15.2221 24.2894 15.0155 24.137 14.8631C23.9846 14.7107 23.778 14.6251 23.5625 14.6251C23.347 14.6251 23.1403 14.7107 22.988 14.8631C22.8356 15.0155 22.75 15.2221 22.75 15.4376V17.8751H21.125V16.1932C21.1276 15.6245 21.0095 15.0617 20.7783 14.5421C20.5472 14.0225 20.2084 13.5578 19.7844 13.1789C19.1835 12.6478 18.7024 11.995 18.3732 11.2637C18.044 10.5325 17.8742 9.73955 17.875 8.93761ZM16.7537 24.3751L19.1912 19.5001H31.1837L28.7462 24.3751H16.7537ZM31.6875 22.1326V37.5214L23.3675 35.2951C22.4346 35.0434 21.4527 35.035 20.5156 35.2707L19.5 35.5226V26.0001H29.25C29.4005 26.0018 29.5484 25.9608 29.6764 25.8816C29.8045 25.8025 29.9074 25.6886 29.9731 25.5532L31.6875 22.1326ZM48.2706 37.2939C48.4864 37.6658 48.546 38.108 48.4363 38.5238C48.3267 38.9395 48.0567 39.2949 47.6856 39.512L34.0356 47.3932C33.4183 47.7505 32.7176 47.9383 32.0044 47.9376H19.8412C19.2092 47.9389 18.5857 47.7914 18.0212 47.507L16.25 46.6214V38.0089L20.9056 36.847C21.5756 36.6776 22.2778 36.6832 22.945 36.8632L35.0675 40.1132C35.3794 40.1942 35.66 40.3665 35.8733 40.608C36.0866 40.8495 36.223 41.1492 36.2649 41.4687C36.3068 41.7881 36.2523 42.1129 36.1085 42.4012C35.9646 42.6895 35.7379 42.9283 35.4575 43.087C35.2744 43.195 35.0714 43.2651 34.8606 43.293C34.6498 43.3209 34.4356 43.3061 34.2306 43.2495L24.5375 40.6495C24.3285 40.5935 24.1058 40.6228 23.9183 40.731C23.7309 40.8391 23.5942 41.0173 23.5381 41.2264C23.4821 41.4354 23.5114 41.6581 23.6196 41.8455C23.7278 42.0329 23.906 42.1697 24.115 42.2257L33.8081 44.8176C34.0837 44.8918 34.3677 44.9301 34.6531 44.9314C35.2216 44.9322 35.7799 44.7807 36.27 44.4926C36.6414 44.2805 36.9669 43.9968 37.2277 43.6578C37.4885 43.3189 37.6795 42.9315 37.7894 42.5182C37.8795 42.1601 37.9097 41.7894 37.8787 41.4214L46.0606 36.7007C46.4339 36.4935 46.8732 36.4395 47.2856 36.5502C47.698 36.6609 48.0512 36.9276 48.2706 37.2939ZM36.2537 24.3751L33.8162 19.5001H45.8087L48.2462 24.3751H36.2537Z" fill="#3F47CC"/>
<path d="M42.25 14.625C42.25 13.9822 42.0594 13.3539 41.7023 12.8194C41.3452 12.2849 40.8376 11.8684 40.2437 11.6224C39.6499 11.3764 38.9964 11.312 38.366 11.4374C37.7355 11.5629 37.1564 11.8724 36.7019 12.3269C36.2474 12.7814 35.9379 13.3605 35.8124 13.991C35.687 14.6214 35.7514 15.2749 35.9974 15.8687C36.2434 16.4626 36.6599 16.9702 37.1944 17.3273C37.7289 17.6844 38.3572 17.875 39 17.875C39.862 17.875 40.6886 17.5326 41.2981 16.9231C41.9076 16.3136 42.25 15.487 42.25 14.625ZM39 16.25C38.6786 16.25 38.3644 16.1547 38.0972 15.9761C37.83 15.7976 37.6217 15.5438 37.4987 15.2469C37.3757 14.9499 37.3435 14.6232 37.4062 14.308C37.4689 13.9928 37.6237 13.7032 37.851 13.476C38.0782 13.2487 38.3678 13.0939 38.683 13.0312C38.9982 12.9685 39.3249 13.0007 39.6219 13.1237C39.9188 13.2467 40.1726 13.455 40.3511 13.7222C40.5297 13.9894 40.625 14.3036 40.625 14.625C40.625 15.056 40.4538 15.4693 40.1491 15.7741C39.8443 16.0788 39.431 16.25 39 16.25Z" fill="#3F47CC"/>
</svg>
