<svg width="88" height="17" viewBox="0 0 88 17" fill="none" xmlns="http://www.w3.org/2000/svg">
<g clip-path="url(#clip0_409_145)">
<path d="M-58.9995 4.43186V3H2752.84L2754 4.04065C2752.75 5.12666 2751.47 6.04613 2750.19 6.81103C2748.82 7.62056 2747.44 8.25479 2746.06 8.7217C2739 11.0945 2731.67 9.17826 2724.69 4.16494C2723.44 5.25015 2722.17 6.16884 2720.88 6.93454C2719.52 7.74566 2718.14 8.37909 2716.75 8.84679C2709.69 11.2188 2702.37 9.30256 2695.39 4.28925C2694.14 5.37366 2692.86 6.29473 2691.58 7.06043C2690.21 7.86996 2688.83 8.50419 2687.44 8.96951C2680.39 11.3431 2673.06 9.34479 2666.08 4.33067C2664.83 5.41588 2663.56 6.0525 2662.27 6.81741C2660.9 7.62693 2659.53 8.26037 2658.14 8.72728C2651.08 11.1009 2643.75 9.18463 2636.78 4.17132C2635.52 5.25653 2634.25 6.17521 2632.96 6.94091C2631.6 7.75123 2630.22 8.38546 2628.83 8.85238C2621.77 11.2252 2614.45 9.30893 2607.47 4.29562C2606.22 5.38003 2604.94 6.3011 2603.66 7.06601C2602.29 7.87553 2600.91 8.51056 2599.53 8.97508C2592.47 11.3495 2585.14 9.3161 2578.16 4.30199C2576.91 5.3872 2575.64 6.05888 2574.35 6.82299C2572.99 7.63251 2571.61 8.26674 2570.22 8.73365C2563.16 11.1073 2555.84 9.19021 2548.86 4.1769C2547.61 5.2629 2546.33 6.18158 2545.04 6.94649C2543.68 7.75761 2542.3 8.39184 2540.91 8.85875C2533.86 11.2316 2526.53 9.31451 2519.55 4.30119C2518.3 5.3864 2517.03 6.30747 2515.74 7.07238C2514.37 7.8819 2512.99 8.51694 2511.61 8.98146C2504.55 11.3558 2497.22 9.35753 2490.24 4.34342C2488.99 5.42863 2487.72 6.06525 2486.43 6.82936C2485.07 7.63889 2483.69 8.27312 2482.3 8.74003C2475.25 11.1136 2467.92 9.19658 2460.94 4.18327C2459.69 5.26848 2458.41 6.18796 2457.13 6.95286C2455.76 7.76398 2454.38 8.39821 2453 8.86512C2445.94 11.2371 2438.61 9.32088 2431.63 4.30756C2430.38 5.39198 2429.11 6.31305 2427.82 7.07876C2426.46 7.88828 2425.08 8.5233 2423.69 8.98782C2416.63 11.3606 2409.31 9.44597 2402.33 4.43186C2401.08 5.51707 2399.9 6.04613 2398.61 6.81103C2397.24 7.62056 2395.86 8.25479 2394.48 8.7217C2387.42 11.0945 2380.09 9.17826 2373.11 4.16494C2371.86 5.25015 2370.59 6.16884 2369.3 6.93454C2367.94 7.74566 2366.56 8.37909 2365.17 8.84679C2358.11 11.2188 2350.79 9.30256 2343.81 4.28925C2342.56 5.37366 2341.28 6.29473 2340 7.06043C2338.63 7.86996 2337.25 8.50419 2335.86 8.96951C2328.81 11.3431 2321.48 9.34479 2314.5 4.33067C2313.25 5.41588 2311.98 6.0525 2310.69 6.81741C2309.32 7.62693 2307.95 8.26037 2306.56 8.72728C2299.5 11.1009 2292.17 9.18463 2285.2 4.17132C2283.94 5.25653 2282.67 6.17521 2281.39 6.94091C2280.02 7.75123 2278.64 8.38546 2277.25 8.85238C2270.2 11.2252 2262.87 9.30893 2255.89 4.29562C2254.64 5.38003 2253.37 6.3011 2252.08 7.06601C2250.71 7.87553 2249.33 8.51056 2247.95 8.97508C2240.89 11.3495 2233.56 9.3161 2226.58 4.30199C2225.33 5.3872 2224.06 6.05888 2222.77 6.82299C2221.41 7.63251 2220.03 8.26674 2218.64 8.73365C2211.58 11.1073 2204.26 9.19021 2197.28 4.1769C2196.03 5.2629 2194.75 6.18158 2193.47 6.94649C2192.1 7.75761 2190.72 8.39184 2189.34 8.85875C2182.28 11.2316 2174.95 9.31451 2167.97 4.30119C2166.72 5.3864 2165.45 6.30747 2164.16 7.07238C2162.79 7.8819 2161.42 8.51694 2160.03 8.98146C2152.97 11.3558 2145.64 9.35753 2138.67 4.34342C2137.41 5.42863 2136.14 6.06525 2134.85 6.82936C2133.49 7.63889 2132.11 8.27312 2130.72 8.74003C2123.67 11.1136 2116.34 9.19658 2109.36 4.18327C2108.11 5.26848 2106.84 6.18796 2105.55 6.95286C2104.18 7.76398 2102.8 8.39821 2101.42 8.86512C2094.36 11.2371 2087.03 9.32088 2080.06 4.30756C2078.8 5.39198 2077.53 6.31305 2076.24 7.07876C2074.88 7.88828 2073.5 8.5233 2072.11 8.98782C2065.05 11.3606 2057.73 9.44597 2050.75 4.43186C2049.43 5.57046 2048.28 6.01266 2046.94 6.81103C2045.57 7.62056 2044.19 8.25479 2042.81 8.7217C2035.75 11.0945 2028.42 9.17826 2021.44 4.16494C2020.19 5.25015 2018.92 6.16884 2017.63 6.93454C2016.27 7.74566 2014.89 8.37909 2013.5 8.84679C2006.44 11.2188 1999.12 9.30256 1992.14 4.28925C1990.89 5.37366 1989.61 6.29473 1988.33 7.06043C1986.96 7.86996 1985.58 8.50419 1984.19 8.96951C1977.14 11.3431 1969.81 9.34479 1962.83 4.33067C1961.58 5.41588 1960.31 6.0525 1959.02 6.81741C1957.65 7.62693 1956.27 8.26037 1954.89 8.72728C1947.83 11.1009 1940.5 9.18463 1933.53 4.17132C1932.27 5.25653 1931 6.17521 1929.71 6.94091C1928.35 7.75123 1926.97 8.38546 1925.58 8.85238C1918.52 11.2252 1911.2 9.30893 1904.22 4.29562C1902.97 5.38003 1901.69 6.3011 1900.41 7.06601C1899.04 7.87553 1897.66 8.51056 1896.28 8.97508C1889.22 11.3495 1881.89 9.3161 1874.91 4.30199C1873.66 5.3872 1872.39 6.05888 1871.1 6.82299C1869.73 7.63251 1868.36 8.26674 1866.97 8.73365C1859.91 11.1073 1852.58 9.19021 1845.61 4.1769C1844.35 5.2629 1843.08 6.18158 1841.79 6.94649C1840.43 7.75761 1839.05 8.39184 1837.66 8.85875C1830.61 11.2316 1823.28 9.31451 1816.3 4.30119C1815.05 5.3864 1813.78 6.30747 1812.49 7.07238C1811.12 7.8819 1809.74 8.51694 1808.36 8.98146C1801.3 11.3558 1793.97 9.35753 1786.99 4.34342C1785.74 5.42863 1784.47 6.06525 1783.18 6.82936C1781.82 7.63889 1780.44 8.27312 1779.05 8.74003C1771.99 11.1136 1764.67 9.19658 1757.69 4.18327C1756.44 5.26848 1755.16 6.18796 1753.88 6.95286C1752.51 7.76398 1751.13 8.39821 1749.75 8.86512C1742.69 11.2371 1735.36 9.32088 1728.38 4.30756C1727.13 5.39198 1725.86 6.31305 1724.57 7.07876C1723.2 7.88828 1721.83 8.5233 1720.44 8.98782C1713.38 11.3606 1706.05 9.44597 1699.08 4.43186C1697.83 5.51707 1696.64 6.04613 1695.36 6.81103C1693.99 7.62056 1692.61 8.25479 1691.23 8.7217C1684.17 11.0945 1676.84 9.17826 1669.86 4.16494C1668.61 5.25015 1667.34 6.16884 1666.05 6.93454C1664.69 7.74566 1663.31 8.37909 1661.92 8.84679C1654.86 11.2188 1647.54 9.30256 1640.56 4.28925C1639.31 5.37366 1638.03 6.29473 1636.75 7.06043C1635.38 7.86996 1634 8.50419 1632.61 8.96951C1625.56 11.3431 1618.23 9.34479 1611.25 4.33067C1610 5.41588 1608.73 6.0525 1607.44 6.81741C1606.07 7.62693 1604.69 8.26037 1603.31 8.72728C1596.25 11.1009 1588.92 9.18463 1581.95 4.17132C1580.69 5.25653 1579.42 6.17521 1578.13 6.94091C1576.77 7.75123 1575.39 8.38546 1574 8.85238C1566.94 11.2252 1559.62 9.30893 1552.64 4.29562C1551.39 5.38003 1550.11 6.3011 1548.83 7.06601C1547.46 7.87553 1546.08 8.51056 1544.7 8.97508C1537.64 11.3495 1530.31 9.3161 1523.33 4.30199C1522.08 5.3872 1520.81 6.05888 1519.52 6.82299C1518.16 7.63251 1516.78 8.26674 1515.39 8.73365C1508.33 11.1073 1501.01 9.19021 1494.03 4.1769C1492.78 5.2629 1491.5 6.18158 1490.22 6.94649C1488.85 7.75761 1487.47 8.39184 1486.09 8.85875C1479.03 11.2316 1471.7 9.31451 1464.72 4.30119C1463.47 5.3864 1462.2 6.30747 1460.91 7.07238C1459.54 7.8819 1458.17 8.51694 1456.78 8.98146C1449.72 11.3558 1442.39 9.35753 1435.42 4.34342C1434.16 5.42863 1432.89 6.06525 1431.6 6.82936C1430.24 7.63889 1428.86 8.27312 1427.47 8.74003C1420.42 11.1136 1413.09 9.19658 1406.11 4.18327C1404.86 5.26848 1403.58 6.18796 1402.3 6.95286C1400.93 7.76398 1399.55 8.39821 1398.17 8.86512C1391.11 11.2371 1383.78 9.32088 1376.81 4.30756C1375.55 5.39198 1374.28 6.31305 1372.99 7.07876C1371.63 7.88828 1370.25 8.5233 1368.86 8.98782C1361.8 11.3606 1354.48 9.44597 1347.5 4.43186C1346.25 5.51707 1344.97 6.04613 1343.69 6.81103C1342.32 7.62056 1340.94 8.25479 1339.56 8.7217C1332.5 11.0945 1325.17 9.17826 1318.19 4.16494C1316.94 5.25015 1315.67 6.16884 1314.38 6.93454C1313.02 7.74566 1311.64 8.37909 1310.25 8.84679C1303.19 11.2188 1295.87 9.30256 1288.89 4.28925C1287.64 5.37366 1286.36 6.29473 1285.07 7.06043C1283.71 7.86996 1282.33 8.50419 1280.94 8.96951C1273.89 11.3431 1266.56 9.34479 1259.58 4.33067C1258.33 5.41588 1257.06 6.0525 1255.77 6.81741C1254.4 7.62693 1253.02 8.26037 1251.64 8.72728C1244.58 11.1009 1237.25 9.18463 1230.28 4.17132C1229.02 5.25653 1227.75 6.17521 1226.46 6.94091C1225.1 7.75123 1223.72 8.38546 1222.33 8.85238C1215.27 11.2252 1207.95 9.30893 1200.97 4.29562C1199.72 5.38003 1198.44 6.3011 1197.16 7.06601C1195.79 7.87553 1194.41 8.51056 1193.03 8.97508C1185.97 11.3495 1178.64 9.3161 1171.66 4.30199C1170.41 5.3872 1169.14 6.05888 1167.85 6.82299C1166.49 7.63251 1165.11 8.26674 1163.72 8.73365C1156.66 11.1073 1149.34 9.19021 1142.36 4.1769C1141.11 5.2629 1139.83 6.18158 1138.54 6.94649C1137.18 7.75761 1135.8 8.39184 1134.41 8.85875C1127.36 11.2316 1120.03 9.31451 1113.05 4.30119C1111.8 5.3864 1110.53 6.30747 1109.24 7.07238C1107.87 7.8819 1106.49 8.51694 1105.11 8.98146C1098.05 11.3558 1090.72 9.35753 1083.74 4.34342C1082.49 5.42863 1081.22 6.06525 1079.93 6.82936C1078.57 7.63889 1077.19 8.27312 1075.8 8.74003C1068.75 11.1136 1061.42 9.19658 1054.44 4.18327C1053.19 5.26848 1051.91 6.18796 1050.63 6.95286C1049.26 7.76398 1047.88 8.39821 1046.5 8.86512C1039.44 11.2371 1032.11 9.32088 1025.13 4.30756C1023.88 5.39198 1022.61 6.31305 1021.32 7.07876C1019.96 7.88828 1018.58 8.5233 1017.19 8.98782C1010.13 11.3606 1002.81 9.44597 995.828 4.43186C994.576 5.51707 993.395 6.04613 992.107 6.81103C990.742 7.62056 989.363 8.25479 987.976 8.7217C980.919 11.0945 973.592 9.17826 966.614 4.16494C965.362 5.25015 964.09 6.16884 962.802 6.93454C961.438 7.74566 960.059 8.37909 958.673 8.84679C951.615 11.2188 944.287 9.30256 937.309 4.28925C936.057 5.37366 934.784 6.29473 933.497 7.06043C932.131 7.86996 930.753 8.50419 929.366 8.96951C922.309 11.3431 914.981 9.34479 908.002 4.33067C906.751 5.41588 905.478 6.0525 904.191 6.81741C902.824 7.62693 901.446 8.26037 900.061 8.72728C893.002 11.1009 885.674 9.18463 878.698 4.17132C877.444 5.25653 876.171 6.17521 874.885 6.94091C873.52 7.75123 872.14 8.38546 870.755 8.85238C863.696 11.2252 856.37 9.30893 849.392 4.29562C848.14 5.38003 846.866 6.3011 845.579 7.06601C844.213 7.87553 842.835 8.51056 841.449 8.97508C834.391 11.3495 827.063 9.3161 820.085 4.30199C818.833 5.3872 817.56 6.05888 816.273 6.82299C814.907 7.63251 813.529 8.26674 812.142 8.73365C805.085 11.1073 797.757 9.19021 790.779 4.1769C789.527 5.2629 788.255 6.18158 786.968 6.94649C785.603 7.75761 784.223 8.39184 782.838 8.85875C775.779 11.2316 768.451 9.31451 761.473 4.30119C760.221 5.3864 758.948 6.30747 757.661 7.07238C756.296 7.8819 754.917 8.51694 753.53 8.98146C746.474 11.3558 739.144 9.35753 732.167 4.34342C730.915 5.42863 729.642 6.06525 728.355 6.82936C726.989 7.63889 725.611 8.27312 724.225 8.74003C717.167 11.1136 709.839 9.19658 702.862 4.18327C701.609 5.26848 700.337 6.18796 699.05 6.95286C697.685 7.76398 696.306 8.39821 694.92 8.86512C687.862 11.2371 680.535 9.32088 673.557 4.30756C672.304 5.39198 671.03 6.31305 669.743 7.07876C668.377 7.88828 666.999 8.5233 665.613 8.98782C658.555 11.3606 651.226 9.44597 644.25 4.43186C642.934 5.57046 641.781 6.01266 640.437 6.81103C639.071 7.62056 637.693 8.25479 636.306 8.7217C629.249 11.0945 621.921 9.17826 614.943 4.16494C613.691 5.25015 612.419 6.16884 611.132 6.93454C609.768 7.74566 608.388 8.37909 607.001 8.84679C599.944 11.2188 592.616 9.30256 585.638 4.28925C584.386 5.37366 583.112 6.29473 581.825 7.06043C580.461 7.86996 579.081 8.50419 577.694 8.96951C570.637 11.3431 563.309 9.34479 556.331 4.33067C555.079 5.41588 553.807 6.0525 552.52 6.81741C551.153 7.62693 549.775 8.26037 548.39 8.72728C541.331 11.1009 534.003 9.18463 527.026 4.17132C525.773 5.25653 524.5 6.17521 523.214 6.94091C521.85 7.75123 520.468 8.38546 519.083 8.85238C512.024 11.2252 504.698 9.30893 497.721 4.29562C496.468 5.38003 495.195 6.3011 493.907 7.06601C492.54 7.87553 491.162 8.51056 489.777 8.97508C482.718 11.3495 475.391 9.3161 468.413 4.30199C467.161 5.3872 465.889 6.05888 464.601 6.82299C463.236 7.63251 461.857 8.26674 460.471 8.73365C453.414 11.1073 446.086 9.19021 439.108 4.1769C437.856 5.2629 436.583 6.18158 435.295 6.94649C433.931 7.75761 432.551 8.39184 431.165 8.85875C424.107 11.2316 416.779 9.31451 409.802 4.30119C408.55 5.3864 407.277 6.30747 405.989 7.07238C404.623 7.8819 403.245 8.51694 401.859 8.98146C394.801 11.3558 387.473 9.35753 380.495 4.34342C379.244 5.42863 377.971 6.06525 376.684 6.82936C375.318 7.63889 373.939 8.27312 372.553 8.74003C365.496 11.1136 358.168 9.19658 351.191 4.18327C349.938 5.26848 348.665 6.18796 347.378 6.95286C346.014 7.76398 344.633 8.39821 343.248 8.86512C336.189 11.2371 328.863 9.32088 321.885 4.30756C320.633 5.39198 319.36 6.31305 318.072 7.07876C316.706 7.88828 315.328 8.5233 313.941 8.98782C306.884 11.3606 299.556 9.44597 292.579 4.43186C291.327 5.51707 290.145 6.04613 288.858 6.81103C287.493 7.62056 286.114 8.25479 284.727 8.7217C277.67 11.0945 270.343 9.17826 263.364 4.16494C262.113 5.25015 260.84 6.16884 259.553 6.93454C258.188 7.74566 256.809 8.37909 255.423 8.84679C248.365 11.2188 241.037 9.30256 234.059 4.28925C232.807 5.37366 231.534 6.29473 230.247 7.06043C228.882 7.86996 227.503 8.50419 226.116 8.96951C219.059 11.3431 211.731 9.34479 204.752 4.33067C203.501 5.41588 202.228 6.0525 200.941 6.81741C199.574 7.62693 198.196 8.26037 196.811 8.72728C189.752 11.1009 182.424 9.18463 175.448 4.17132C174.194 5.25653 172.921 6.17521 171.635 6.94091C170.271 7.75123 168.89 8.38546 167.505 8.85238C160.446 11.2252 153.12 9.30893 146.142 4.29562C144.89 5.38003 143.616 6.3011 142.329 7.06601C140.963 7.87553 139.585 8.51056 138.199 8.97508C131.141 11.3495 123.813 9.3161 116.835 4.30199C115.583 5.3872 114.31 6.05888 113.023 6.82299C111.657 7.63251 110.279 8.26674 108.892 8.73365C101.835 11.1073 94.5071 9.19021 87.5295 4.1769C86.2773 5.2629 85.0044 6.18158 83.7171 6.94649C82.3519 7.75761 80.9722 8.39184 79.5871 8.85875C72.5283 11.2316 65.2004 9.31451 58.2228 4.30119C56.9705 5.3864 55.6976 6.30747 54.4104 7.07238C53.0443 7.8819 51.6663 8.51694 50.2795 8.98146C43.2231 11.3558 35.8936 9.35753 28.9168 4.34342C27.6646 5.42863 26.3917 6.06525 25.1044 6.82936C23.7383 7.63889 22.3603 8.27312 20.9743 8.74003C13.9163 11.1136 6.58839 9.19658 -0.388416 4.18327C-1.64144 5.26848 -2.91357 6.18796 -4.20082 6.95286C-5.5653 7.76398 -6.9449 8.39821 -8.33087 8.86512C-15.3889 11.2371 -22.716 9.32088 -29.6936 4.30756C-30.9458 5.39198 -32.2195 6.31305 -33.5068 7.07876C-34.8728 7.88828 -36.25 8.5233 -37.6368 8.98782C-44.694 11.3606 -52.0227 9.44597 -58.9995 4.43186Z" fill="white"/>
<path d="M2725 4C2723.75 5.09265 2722.47 6.01924 2721.19 6.78938C2719.82 7.60526 2718.44 8.24384 2717.06 8.71314C2710 11.103 2702.67 9.17282 2695.69 4.12515C2694.44 5.21699 2693.17 6.14278 2691.88 6.91373C2690.52 7.73121 2689.14 8.36818 2687.75 8.83909C2680.69 11.2282 2673.37 9.29798 2666.39 4.2503C2665.14 5.34134 2663.86 6.26953 2662.58 7.04048C2661.21 7.85555 2659.83 8.49414 2658.44 8.96264C2651.39 11.3525 2644.06 9.34049 2637.08 4.29201C2635.83 5.38466 2634.56 6.02565 2633.27 6.7958C2631.9 7.61167 2630.53 8.24945 2629.14 8.71876C2622.08 11.1086 2614.75 9.17925 2607.78 4.13157C2606.52 5.22341 2605.25 6.14919 2603.96 6.92014C2602.6 7.73682 2601.22 8.3746 2599.83 8.84471C2592.77 11.2346 2585.45 9.30439 2578.47 4.25672C2577.22 5.34776 2575.95 6.27595 2574.66 7.0461C2573.29 7.86117 2571.91 8.50055 2570.53 8.96826C2563.47 11.3581 2556.14 9.31162 2549.16 4.26314C2547.91 5.35578 2546.64 6.03207 2545.35 6.80142C2543.98 7.61729 2542.61 8.25587 2541.22 8.72518C2534.16 11.115 2526.84 9.18486 2519.86 4.13718C2518.61 5.22983 2517.33 6.15561 2516.05 6.92576C2514.68 7.74324 2513.3 8.38102 2511.92 8.85113C2504.86 11.241 2497.53 9.31001 2490.55 4.26233C2489.3 5.35418 2488.03 6.28237 2486.74 7.05251C2485.37 7.86759 2484 8.50697 2482.61 8.97468C2475.55 11.3645 2468.22 9.35333 2461.24 4.30485C2459.99 5.3975 2458.72 6.03849 2457.43 6.80783C2456.07 7.62371 2454.69 8.26229 2453.3 8.7316C2446.25 11.1215 2438.92 9.19128 2431.94 4.1436C2430.69 5.23545 2429.41 6.16203 2428.13 6.93218C2426.76 7.74966 2425.38 8.38744 2424 8.85755C2416.94 11.2466 2409.61 9.31643 2402.63 4.26875C2401.38 5.35979 2400.11 6.28798 2398.82 7.05893C2397.46 7.87401 2396.08 8.51339 2394.69 8.98109C2387.63 11.371 2380.31 9.44238 2373.33 4.3939C2372.08 5.48655 2370.9 6.01924 2369.61 6.78938C2368.24 7.60526 2366.86 8.24384 2365.48 8.71314C2358.42 11.103 2351.09 9.17282 2344.11 4.12515C2342.86 5.21699 2341.59 6.14278 2340.3 6.91373C2338.94 7.73121 2337.56 8.36818 2336.17 8.83909C2329.12 11.2282 2321.79 9.29798 2314.81 4.2503C2313.56 5.34134 2312.28 6.26953 2311 7.04048C2309.63 7.85555 2308.25 8.49414 2306.87 8.96264C2299.81 11.3525 2292.48 9.34049 2285.5 4.29201C2284.25 5.38466 2282.98 6.02565 2281.69 6.7958C2280.32 7.61167 2278.95 8.24945 2277.56 8.71876C2270.5 11.1086 2263.17 9.17925 2256.2 4.13157C2254.94 5.22341 2253.67 6.14919 2252.39 6.92014C2251.02 7.73682 2249.64 8.3746 2248.25 8.84471C2241.2 11.2346 2233.87 9.30439 2226.89 4.25672C2225.64 5.34776 2224.37 6.27595 2223.08 7.0461C2221.71 7.86117 2220.33 8.50055 2218.95 8.96826C2211.89 11.3581 2204.56 9.31162 2197.59 4.26314C2196.33 5.35578 2195.06 6.03207 2193.77 6.80142C2192.41 7.61729 2191.03 8.25587 2189.64 8.72518C2182.58 11.115 2175.26 9.18486 2168.28 4.13718C2167.03 5.22983 2165.75 6.15561 2164.47 6.92576C2163.1 7.74324 2161.72 8.38102 2160.34 8.85113C2153.28 11.241 2145.95 9.31001 2138.97 4.26233C2137.72 5.35418 2136.45 6.28237 2135.16 7.05251C2133.79 7.86759 2132.42 8.50697 2131.03 8.97468C2123.97 11.3645 2116.64 9.35333 2109.67 4.30485C2108.41 5.3975 2107.14 6.03849 2105.85 6.80783C2104.49 7.62371 2103.11 8.26229 2101.72 8.7316C2094.67 11.1215 2087.34 9.19128 2080.36 4.1436C2079.11 5.23545 2077.84 6.16203 2076.55 6.93218C2075.18 7.74966 2073.81 8.38744 2072.42 8.85755C2065.36 11.2466 2058.03 9.31643 2051.06 4.26875C2049.8 5.35979 2048.53 6.28798 2047.24 7.05893C2045.88 7.87401 2044.5 8.51339 2043.11 8.98109C2036.05 11.371 2028.73 9.44238 2021.75 4.3939C2020.5 5.48655 2019.22 6.01924 2017.94 6.78938C2016.57 7.60526 2015.19 8.24384 2013.81 8.71314C2006.75 11.103 1999.42 9.17282 1992.44 4.12515C1991.19 5.21699 1989.92 6.14278 1988.63 6.91373C1987.27 7.73121 1985.89 8.36818 1984.5 8.83909C1977.44 11.2282 1970.12 9.29798 1963.14 4.2503C1961.89 5.34134 1960.61 6.26953 1959.32 7.04048C1957.96 7.85555 1956.58 8.49414 1955.19 8.96264C1948.14 11.3525 1940.81 9.34049 1933.83 4.29201C1932.58 5.38466 1931.31 6.02565 1930.02 6.7958C1928.65 7.61167 1927.28 8.24945 1925.89 8.71876C1918.83 11.1086 1911.5 9.17925 1904.53 4.13157C1903.27 5.22341 1902 6.14919 1900.71 6.92014C1899.35 7.73682 1897.97 8.3746 1896.58 8.84471C1889.52 11.2346 1882.2 9.30439 1875.22 4.25672C1873.97 5.34776 1872.69 6.27595 1871.41 7.0461C1870.04 7.86117 1868.66 8.50055 1867.28 8.96826C1860.22 11.3581 1852.89 9.31162 1845.91 4.26314C1844.66 5.35578 1843.39 6.03207 1842.1 6.80142C1840.73 7.61729 1839.36 8.25587 1837.97 8.72518C1830.91 11.115 1823.59 9.18486 1816.61 4.13718C1815.36 5.22983 1814.08 6.15561 1812.79 6.92576C1811.43 7.74324 1810.05 8.38102 1808.66 8.85113C1801.61 11.241 1794.28 9.31001 1787.3 4.26233C1786.05 5.35418 1784.78 6.28237 1783.49 7.05251C1782.12 7.86759 1780.74 8.50697 1779.36 8.97468C1772.3 11.3645 1764.97 9.35333 1757.99 4.30485C1756.74 5.3975 1755.47 6.03849 1754.18 6.80783C1752.82 7.62371 1751.44 8.26229 1750.05 8.7316C1743 11.1215 1735.67 9.19128 1728.69 4.1436C1727.44 5.23545 1726.16 6.16203 1724.88 6.93218C1723.51 7.74966 1722.13 8.38744 1720.75 8.85755C1713.69 11.2466 1706.36 9.31643 1699.38 4.26875C1698.13 5.35979 1696.86 6.28798 1695.57 7.05893C1694.2 7.87401 1692.83 8.51339 1691.44 8.98109C1684.38 11.371 1677.06 9.44238 1670.08 4.3939C1668.83 5.48655 1667.64 6.01924 1666.36 6.78938C1664.99 7.60526 1663.61 8.24384 1662.23 8.71314C1655.17 11.103 1647.84 9.17282 1640.86 4.12515C1639.61 5.21699 1638.34 6.14278 1637.05 6.91373C1635.69 7.73121 1634.31 8.36818 1632.92 8.83909C1625.86 11.2282 1618.54 9.29798 1611.56 4.2503C1610.31 5.34134 1609.03 6.26953 1607.75 7.04048C1606.38 7.85555 1605 8.49414 1603.61 8.96264C1596.56 11.3525 1589.23 9.34049 1582.25 4.29201C1581 5.38466 1579.73 6.02565 1578.44 6.7958C1577.07 7.61167 1575.7 8.24945 1574.31 8.71876C1567.25 11.1086 1559.92 9.17925 1552.95 4.13157C1551.69 5.22341 1550.42 6.14919 1549.13 6.92014C1547.77 7.73682 1546.39 8.3746 1545 8.84471C1537.94 11.2346 1530.62 9.30439 1523.64 4.25672C1522.39 5.34776 1521.12 6.27595 1519.83 7.0461C1518.46 7.86117 1517.08 8.50055 1515.7 8.96826C1508.64 11.3581 1501.31 9.31162 1494.33 4.26314C1493.08 5.35578 1491.81 6.03207 1490.52 6.80142C1489.16 7.61729 1487.78 8.25587 1486.39 8.72518C1479.33 11.115 1472.01 9.18486 1465.03 4.13718C1463.78 5.22983 1462.5 6.15561 1461.22 6.92576C1459.85 7.74324 1458.47 8.38102 1457.09 8.85113C1450.03 11.241 1442.7 9.31001 1435.72 4.26233C1434.47 5.35418 1433.2 6.28237 1431.91 7.05251C1430.54 7.86759 1429.17 8.50697 1427.78 8.97468C1420.72 11.3645 1413.39 9.35333 1406.42 4.30485C1405.16 5.3975 1403.89 6.03849 1402.6 6.80783C1401.24 7.62371 1399.86 8.26229 1398.47 8.7316C1391.42 11.1215 1384.09 9.19128 1377.11 4.1436C1375.86 5.23545 1374.59 6.16203 1373.3 6.93218C1371.93 7.74966 1370.55 8.38744 1369.17 8.85755C1362.11 11.2466 1354.78 9.31643 1347.81 4.26875C1346.55 5.35979 1345.28 6.28798 1343.99 7.05893C1342.63 7.87401 1341.25 8.51339 1339.86 8.98109C1332.8 11.371 1325.48 9.44238 1318.5 4.3939C1317.25 5.48655 1315.97 6.01924 1314.69 6.78938C1313.32 7.60526 1311.94 8.24384 1310.56 8.71314C1303.5 11.103 1296.17 9.17282 1289.19 4.12515C1287.94 5.21699 1286.67 6.14278 1285.38 6.91373C1284.02 7.73121 1282.64 8.36818 1281.25 8.83909C1274.19 11.2282 1266.87 9.29798 1259.89 4.2503C1258.64 5.34134 1257.36 6.26953 1256.07 7.04048C1254.71 7.85555 1253.33 8.49414 1251.94 8.96264C1244.89 11.3525 1237.56 9.34049 1230.58 4.29201C1229.33 5.38466 1228.06 6.02565 1226.77 6.7958C1225.4 7.61167 1224.03 8.24945 1222.64 8.71876C1215.58 11.1086 1208.25 9.17925 1201.28 4.13157C1200.02 5.22341 1198.75 6.14919 1197.46 6.92014C1196.1 7.73682 1194.72 8.3746 1193.33 8.84471C1186.27 11.2346 1178.95 9.30439 1171.97 4.25672C1170.72 5.34776 1169.44 6.27595 1168.16 7.0461C1166.79 7.86117 1165.41 8.50055 1164.03 8.96826C1156.97 11.3581 1149.64 9.31162 1142.66 4.26314C1141.41 5.35578 1140.14 6.03207 1138.85 6.80142C1137.49 7.61729 1136.11 8.25587 1134.72 8.72518C1127.66 11.115 1120.34 9.18486 1113.36 4.13718C1112.11 5.22983 1110.83 6.15561 1109.55 6.92576C1108.18 7.74324 1106.8 8.38102 1105.42 8.85113C1098.36 11.241 1091.03 9.31001 1084.05 4.26233C1082.8 5.35418 1081.53 6.28237 1080.24 7.05251C1078.87 7.86759 1077.5 8.50697 1076.11 8.97468C1069.05 11.3645 1061.72 9.35333 1054.74 4.30485C1053.49 5.3975 1052.22 6.03849 1050.93 6.80783C1049.57 7.62371 1048.19 8.26229 1046.8 8.7316C1039.75 11.1215 1032.42 9.19128 1025.44 4.1436C1024.19 5.23545 1022.91 6.16203 1021.63 6.93218C1020.26 7.74966 1018.88 8.38744 1017.5 8.85755C1010.44 11.2466 1003.11 9.31643 996.134 4.26875C994.883 5.35979 993.609 6.28798 992.322 7.05893C990.955 7.87401 989.578 8.51339 988.191 8.98109C981.134 11.371 973.806 9.44238 966.829 4.3939C965.576 5.48655 964.395 6.01924 963.108 6.78938C961.742 7.60526 960.364 8.24384 958.977 8.71314C951.92 11.103 944.593 9.17282 937.614 4.12515C936.363 5.21699 935.09 6.14278 933.802 6.91373C932.437 7.73121 931.058 8.36818 929.672 8.83909C922.614 11.2282 915.287 9.29798 908.309 4.2503C907.057 5.34134 905.784 6.26953 904.496 7.04048C903.13 7.85555 901.752 8.49414 900.366 8.96264C893.308 11.3525 885.981 9.34049 879.002 4.29201C877.751 5.38466 876.478 6.02565 875.191 6.7958C873.824 7.61167 872.446 8.24945 871.06 8.71876C864.002 11.1086 856.674 9.17925 849.698 4.13157C848.444 5.22341 847.171 6.14919 845.885 6.92014C844.519 7.73682 843.14 8.3746 841.755 8.84471C834.696 11.2346 827.369 9.30439 820.392 4.25672C819.14 5.34776 817.866 6.27595 816.579 7.0461C815.212 7.86117 813.835 8.50055 812.449 8.96826C805.391 11.3581 798.063 9.31162 791.085 4.26314C789.833 5.35578 788.56 6.03207 787.273 6.80142C785.906 7.61729 784.529 8.25587 783.142 8.72518C776.085 11.115 768.757 9.18486 761.779 4.13718C760.527 5.22983 759.255 6.15561 757.967 6.92576C756.602 7.74324 755.223 8.38102 753.837 8.85113C746.779 11.241 739.451 9.31001 732.472 4.26233C731.221 5.35418 729.948 6.28237 728.661 7.05251C727.295 7.86759 725.917 8.50697 724.53 8.97468C717.473 11.3645 710.144 9.35333 703.167 4.30485C701.915 5.3975 700.642 6.03849 699.355 6.80783C697.988 7.62371 696.611 8.26229 695.225 8.7316C688.167 11.1215 680.839 9.19128 673.862 4.1436C672.609 5.23545 671.337 6.16203 670.05 6.93218C668.684 7.74966 667.305 8.38744 665.92 8.85755C658.861 11.2466 651.534 9.31643 644.557 4.26875C643.304 5.35979 642.03 6.28798 640.743 7.05893C639.377 7.87401 638 8.51339 636.613 8.98109C629.555 11.371 622.226 9.44238 615.249 4.3939C613.996 5.48655 612.724 6.01924 611.437 6.78938C610.07 7.60526 608.693 8.24384 607.306 8.71314C600.249 11.103 592.921 9.17282 585.942 4.12515C584.691 5.21699 583.419 6.14278 582.132 6.91373C580.766 7.73121 579.388 8.36818 578.001 8.83909C570.944 11.2282 563.616 9.29798 556.637 4.2503C555.386 5.34134 554.112 6.26953 552.825 7.04048C551.46 7.85555 550.081 8.49414 548.694 8.96264C541.637 11.3525 534.309 9.34049 527.331 4.29201C526.079 5.38466 524.807 6.02565 523.52 6.7958C522.153 7.61167 520.776 8.24945 519.39 8.71876C512.331 11.1086 505.003 9.17925 498.026 4.13157C496.773 5.22341 495.499 6.14919 494.214 6.92014C492.848 7.73682 491.468 8.3746 490.083 8.84471C483.024 11.2346 475.698 9.30439 468.721 4.25672C467.468 5.34776 466.194 6.27595 464.907 7.0461C463.54 7.86117 462.163 8.50055 460.777 8.96826C453.718 11.3581 446.39 9.31162 439.413 4.26314C438.161 5.35578 436.888 6.03207 435.601 6.80142C434.235 7.61729 432.857 8.25587 431.47 8.72518C424.414 11.115 417.086 9.18486 410.107 4.13718C408.856 5.22983 407.582 6.15561 406.295 6.92576C404.931 7.74324 403.551 8.38102 402.165 8.85113C395.107 11.241 387.779 9.31001 380.802 4.26233C379.549 5.35418 378.276 6.28237 376.989 7.05251C375.622 7.86759 374.245 8.50697 372.858 8.97468C365.801 11.3645 358.472 9.35333 351.495 4.30485C350.243 5.3975 348.97 6.03849 347.683 6.80783C346.317 7.62371 344.939 8.26229 343.553 8.7316C336.496 11.1215 329.168 9.19128 322.19 4.1436C320.937 5.23545 319.664 6.16203 318.378 6.93218C317.013 7.74966 315.633 8.38744 314.248 8.85755C307.189 11.2466 299.863 9.31643 292.884 4.26875C291.633 5.35979 290.359 6.28798 289.072 7.05893C287.705 7.87401 286.328 8.51339 284.941 8.98109C277.884 11.371 270.556 9.44238 263.578 4.3939C262.326 5.48655 261.145 6.01924 259.858 6.78938C258.492 7.60526 257.114 8.24384 255.727 8.71314C248.67 11.103 241.342 9.17282 234.364 4.12515C233.113 5.21699 231.84 6.14278 230.552 6.91373C229.187 7.73121 227.808 8.36818 226.422 8.83909C219.364 11.2282 212.036 9.29798 205.059 4.2503C203.807 5.34134 202.534 6.26953 201.246 7.04048C199.88 7.85555 198.502 8.49414 197.116 8.96264C190.058 11.3525 182.731 9.34049 175.752 4.29201C174.501 5.38466 173.228 6.02565 171.94 6.7958C170.574 7.61167 169.196 8.24945 167.81 8.71876C160.752 11.1086 153.424 9.17925 146.448 4.13157C145.194 5.22341 143.921 6.14919 142.635 6.92014C141.269 7.73682 139.89 8.3746 138.504 8.84471C131.446 11.2346 124.119 9.30439 117.142 4.25672C115.89 5.34776 114.616 6.27595 113.329 7.0461C111.962 7.86117 110.584 8.50055 109.198 8.96826C102.14 11.3581 94.8126 9.31162 87.835 4.26314C86.5828 5.35578 85.3106 6.03207 84.0226 6.80142C82.6565 7.61729 81.2785 8.25587 79.8917 8.72518C72.8345 11.115 65.5066 9.18486 58.529 4.13718C57.2768 5.22983 56.0047 6.15561 54.7166 6.92576C53.3521 7.74324 51.9725 8.38102 50.5866 8.85113C43.5278 11.241 36.1999 9.31001 29.2223 4.26233C27.97 5.35418 26.6979 6.28237 25.4099 7.05251C24.0438 7.86759 22.6658 8.50697 21.279 8.97468C14.2218 11.3645 6.89312 9.35333 -0.0836923 4.30485C-1.33592 5.3975 -2.60805 6.03849 -3.8961 6.80783C-5.26217 7.62371 -6.64018 8.26229 -8.02615 8.7316C-15.0842 11.1215 -22.4121 9.19128 -29.3889 4.1436C-30.6419 5.23545 -31.914 6.16203 -33.2013 6.93218C-34.5665 7.74966 -35.9461 8.38744 -37.3313 8.85755C-44.3901 11.2466 -51.7164 9.31643 -58.694 4.26875C-59.9463 5.35979 -61.22 6.28798 -62.5072 7.05893C-63.8733 7.87401 -65.2513 8.51339 -66.6373 8.98109C-73.6953 11.371 -81.0232 9.44238 -88 4.3939" stroke="#10192E" stroke-miterlimit="10"/>
<path d="M-58.9995 1.43186V0H2752.84L2754 1.04065C2752.75 2.12666 2751.47 3.04613 2750.19 3.81103C2748.82 4.62056 2747.44 5.25479 2746.06 5.7217C2739 8.0945 2731.67 6.17826 2724.69 1.16494C2723.44 2.25015 2722.17 3.16884 2720.88 3.93454C2719.52 4.74566 2718.14 5.37909 2716.75 5.84679C2709.69 8.2188 2702.37 6.30256 2695.39 1.28925C2694.14 2.37366 2692.86 3.29473 2691.58 4.06043C2690.21 4.86996 2688.83 5.50419 2687.44 5.96951C2680.39 8.3431 2673.06 6.34479 2666.08 1.33067C2664.83 2.41588 2663.56 3.0525 2662.27 3.81741C2660.9 4.62693 2659.53 5.26037 2658.14 5.72728C2651.08 8.10088 2643.75 6.18463 2636.78 1.17132C2635.52 2.25653 2634.25 3.17521 2632.96 3.94091C2631.6 4.75123 2630.22 5.38546 2628.83 5.85238C2621.77 8.22517 2614.45 6.30893 2607.47 1.29562C2606.22 2.38003 2604.94 3.3011 2603.66 4.06601C2602.29 4.87553 2600.91 5.51056 2599.53 5.97508C2592.47 8.34947 2585.14 6.3161 2578.16 1.30199C2576.91 2.3872 2575.64 3.05888 2574.35 3.82299C2572.99 4.63251 2571.61 5.26674 2570.22 5.73365C2563.16 8.10725 2555.84 6.19021 2548.86 1.1769C2547.61 2.2629 2546.33 3.18158 2545.04 3.94649C2543.68 4.75761 2542.3 5.39184 2540.91 5.85875C2533.86 8.23155 2526.53 6.31451 2519.55 1.30119C2518.3 2.3864 2517.03 3.30747 2515.74 4.07238C2514.37 4.8819 2512.99 5.51694 2511.61 5.98146C2504.55 8.35585 2497.22 6.35753 2490.24 1.34342C2488.99 2.42863 2487.72 3.06525 2486.43 3.82936C2485.07 4.63889 2483.69 5.27312 2482.3 5.74003C2475.25 8.11363 2467.92 6.19658 2460.94 1.18327C2459.69 2.26848 2458.41 3.18796 2457.13 3.95286C2455.76 4.76398 2454.38 5.39821 2453 5.86512C2445.94 8.23712 2438.61 6.32088 2431.63 1.30756C2430.38 2.39198 2429.11 3.31305 2427.82 4.07876C2426.46 4.88828 2425.08 5.5233 2423.69 5.98782C2416.63 8.36062 2409.31 6.44597 2402.33 1.43186C2401.08 2.51707 2399.9 3.04613 2398.61 3.81103C2397.24 4.62056 2395.86 5.25479 2394.48 5.7217C2387.42 8.0945 2380.09 6.17826 2373.11 1.16494C2371.86 2.25015 2370.59 3.16884 2369.3 3.93454C2367.94 4.74566 2366.56 5.37909 2365.17 5.84679C2358.11 8.2188 2350.79 6.30256 2343.81 1.28925C2342.56 2.37366 2341.28 3.29473 2340 4.06043C2338.63 4.86996 2337.25 5.50419 2335.86 5.96951C2328.81 8.3431 2321.48 6.34479 2314.5 1.33067C2313.25 2.41588 2311.98 3.0525 2310.69 3.81741C2309.32 4.62693 2307.95 5.26037 2306.56 5.72728C2299.5 8.10088 2292.17 6.18463 2285.2 1.17132C2283.94 2.25653 2282.67 3.17521 2281.39 3.94091C2280.02 4.75123 2278.64 5.38546 2277.25 5.85238C2270.2 8.22517 2262.87 6.30893 2255.89 1.29562C2254.64 2.38003 2253.37 3.3011 2252.08 4.06601C2250.71 4.87553 2249.33 5.51056 2247.95 5.97508C2240.89 8.34947 2233.56 6.3161 2226.58 1.30199C2225.33 2.3872 2224.06 3.05888 2222.77 3.82299C2221.41 4.63251 2220.03 5.26674 2218.64 5.73365C2211.58 8.10725 2204.26 6.19021 2197.28 1.1769C2196.03 2.2629 2194.75 3.18158 2193.47 3.94649C2192.1 4.75761 2190.72 5.39184 2189.34 5.85875C2182.28 8.23155 2174.95 6.31451 2167.97 1.30119C2166.72 2.3864 2165.45 3.30747 2164.16 4.07238C2162.79 4.8819 2161.42 5.51694 2160.03 5.98146C2152.97 8.35585 2145.64 6.35753 2138.67 1.34342C2137.41 2.42863 2136.14 3.06525 2134.85 3.82936C2133.49 4.63889 2132.11 5.27312 2130.72 5.74003C2123.67 8.11363 2116.34 6.19658 2109.36 1.18327C2108.11 2.26848 2106.84 3.18796 2105.55 3.95286C2104.18 4.76398 2102.8 5.39821 2101.42 5.86512C2094.36 8.23712 2087.03 6.32088 2080.06 1.30756C2078.8 2.39198 2077.53 3.31305 2076.24 4.07876C2074.88 4.88828 2073.5 5.5233 2072.11 5.98782C2065.05 8.36062 2057.73 6.44597 2050.75 1.43186C2049.43 2.57046 2048.28 3.01266 2046.94 3.81103C2045.57 4.62056 2044.19 5.25479 2042.81 5.7217C2035.75 8.0945 2028.42 6.17826 2021.44 1.16494C2020.19 2.25015 2018.92 3.16884 2017.63 3.93454C2016.27 4.74566 2014.89 5.37909 2013.5 5.84679C2006.44 8.2188 1999.12 6.30256 1992.14 1.28925C1990.89 2.37366 1989.61 3.29473 1988.33 4.06043C1986.96 4.86996 1985.58 5.50419 1984.19 5.96951C1977.14 8.3431 1969.81 6.34479 1962.83 1.33067C1961.58 2.41588 1960.31 3.0525 1959.02 3.81741C1957.65 4.62693 1956.27 5.26037 1954.89 5.72728C1947.83 8.10088 1940.5 6.18463 1933.53 1.17132C1932.27 2.25653 1931 3.17521 1929.71 3.94091C1928.35 4.75123 1926.97 5.38546 1925.58 5.85238C1918.52 8.22517 1911.2 6.30893 1904.22 1.29562C1902.97 2.38003 1901.69 3.3011 1900.41 4.06601C1899.04 4.87553 1897.66 5.51056 1896.28 5.97508C1889.22 8.34947 1881.89 6.3161 1874.91 1.30199C1873.66 2.3872 1872.39 3.05888 1871.1 3.82299C1869.73 4.63251 1868.36 5.26674 1866.97 5.73365C1859.91 8.10725 1852.58 6.19021 1845.61 1.1769C1844.35 2.2629 1843.08 3.18158 1841.79 3.94649C1840.43 4.75761 1839.05 5.39184 1837.66 5.85875C1830.61 8.23155 1823.28 6.31451 1816.3 1.30119C1815.05 2.3864 1813.78 3.30747 1812.49 4.07238C1811.12 4.8819 1809.74 5.51694 1808.36 5.98146C1801.3 8.35585 1793.97 6.35753 1786.99 1.34342C1785.74 2.42863 1784.47 3.06525 1783.18 3.82936C1781.82 4.63889 1780.44 5.27312 1779.05 5.74003C1771.99 8.11363 1764.67 6.19658 1757.69 1.18327C1756.44 2.26848 1755.16 3.18796 1753.88 3.95286C1752.51 4.76398 1751.13 5.39821 1749.75 5.86512C1742.69 8.23712 1735.36 6.32088 1728.38 1.30756C1727.13 2.39198 1725.86 3.31305 1724.57 4.07876C1723.2 4.88828 1721.83 5.5233 1720.44 5.98782C1713.38 8.36062 1706.05 6.44597 1699.08 1.43186C1697.83 2.51707 1696.64 3.04613 1695.36 3.81103C1693.99 4.62056 1692.61 5.25479 1691.23 5.7217C1684.17 8.0945 1676.84 6.17826 1669.86 1.16494C1668.61 2.25015 1667.34 3.16884 1666.05 3.93454C1664.69 4.74566 1663.31 5.37909 1661.92 5.84679C1654.86 8.2188 1647.54 6.30256 1640.56 1.28925C1639.31 2.37366 1638.03 3.29473 1636.75 4.06043C1635.38 4.86996 1634 5.50419 1632.61 5.96951C1625.56 8.3431 1618.23 6.34479 1611.25 1.33067C1610 2.41588 1608.73 3.0525 1607.44 3.81741C1606.07 4.62693 1604.69 5.26037 1603.31 5.72728C1596.25 8.10088 1588.92 6.18463 1581.95 1.17132C1580.69 2.25653 1579.42 3.17521 1578.13 3.94091C1576.77 4.75123 1575.39 5.38546 1574 5.85238C1566.94 8.22517 1559.62 6.30893 1552.64 1.29562C1551.39 2.38003 1550.11 3.3011 1548.83 4.06601C1547.46 4.87553 1546.08 5.51056 1544.7 5.97508C1537.64 8.34947 1530.31 6.3161 1523.33 1.30199C1522.08 2.3872 1520.81 3.05888 1519.52 3.82299C1518.16 4.63251 1516.78 5.26674 1515.39 5.73365C1508.33 8.10725 1501.01 6.19021 1494.03 1.1769C1492.78 2.2629 1491.5 3.18158 1490.22 3.94649C1488.85 4.75761 1487.47 5.39184 1486.09 5.85875C1479.03 8.23155 1471.7 6.31451 1464.72 1.30119C1463.47 2.3864 1462.2 3.30747 1460.91 4.07238C1459.54 4.8819 1458.17 5.51694 1456.78 5.98146C1449.72 8.35585 1442.39 6.35753 1435.42 1.34342C1434.16 2.42863 1432.89 3.06525 1431.6 3.82936C1430.24 4.63889 1428.86 5.27312 1427.47 5.74003C1420.42 8.11363 1413.09 6.19658 1406.11 1.18327C1404.86 2.26848 1403.58 3.18796 1402.3 3.95286C1400.93 4.76398 1399.55 5.39821 1398.17 5.86512C1391.11 8.23712 1383.78 6.32088 1376.81 1.30756C1375.55 2.39198 1374.28 3.31305 1372.99 4.07876C1371.63 4.88828 1370.25 5.5233 1368.86 5.98782C1361.8 8.36062 1354.48 6.44597 1347.5 1.43186C1346.25 2.51707 1344.97 3.04613 1343.69 3.81103C1342.32 4.62056 1340.94 5.25479 1339.56 5.7217C1332.5 8.0945 1325.17 6.17826 1318.19 1.16494C1316.94 2.25015 1315.67 3.16884 1314.38 3.93454C1313.02 4.74566 1311.64 5.37909 1310.25 5.84679C1303.19 8.2188 1295.87 6.30256 1288.89 1.28925C1287.64 2.37366 1286.36 3.29473 1285.07 4.06043C1283.71 4.86996 1282.33 5.50419 1280.94 5.96951C1273.89 8.3431 1266.56 6.34479 1259.58 1.33067C1258.33 2.41588 1257.06 3.0525 1255.77 3.81741C1254.4 4.62693 1253.02 5.26037 1251.64 5.72728C1244.58 8.10088 1237.25 6.18463 1230.28 1.17132C1229.02 2.25653 1227.75 3.17521 1226.46 3.94091C1225.1 4.75123 1223.72 5.38546 1222.33 5.85238C1215.27 8.22517 1207.95 6.30893 1200.97 1.29562C1199.72 2.38003 1198.44 3.3011 1197.16 4.06601C1195.79 4.87553 1194.41 5.51056 1193.03 5.97508C1185.97 8.34947 1178.64 6.3161 1171.66 1.30199C1170.41 2.3872 1169.14 3.05888 1167.85 3.82299C1166.49 4.63251 1165.11 5.26674 1163.72 5.73365C1156.66 8.10725 1149.34 6.19021 1142.36 1.1769C1141.11 2.2629 1139.83 3.18158 1138.54 3.94649C1137.18 4.75761 1135.8 5.39184 1134.41 5.85875C1127.36 8.23155 1120.03 6.31451 1113.05 1.30119C1111.8 2.3864 1110.53 3.30747 1109.24 4.07238C1107.87 4.8819 1106.49 5.51694 1105.11 5.98146C1098.05 8.35585 1090.72 6.35753 1083.74 1.34342C1082.49 2.42863 1081.22 3.06525 1079.93 3.82936C1078.57 4.63889 1077.19 5.27312 1075.8 5.74003C1068.75 8.11363 1061.42 6.19658 1054.44 1.18327C1053.19 2.26848 1051.91 3.18796 1050.63 3.95286C1049.26 4.76398 1047.88 5.39821 1046.5 5.86512C1039.44 8.23712 1032.11 6.32088 1025.13 1.30756C1023.88 2.39198 1022.61 3.31305 1021.32 4.07876C1019.96 4.88828 1018.58 5.5233 1017.19 5.98782C1010.13 8.36062 1002.81 6.44597 995.828 1.43186C994.576 2.51707 993.395 3.04613 992.107 3.81103C990.742 4.62056 989.363 5.25479 987.976 5.7217C980.919 8.0945 973.592 6.17826 966.614 1.16494C965.362 2.25015 964.09 3.16884 962.802 3.93454C961.438 4.74566 960.059 5.37909 958.673 5.84679C951.615 8.2188 944.287 6.30256 937.309 1.28925C936.057 2.37366 934.784 3.29473 933.497 4.06043C932.131 4.86996 930.753 5.50419 929.366 5.96951C922.309 8.3431 914.981 6.34479 908.002 1.33067C906.751 2.41588 905.478 3.0525 904.191 3.81741C902.824 4.62693 901.446 5.26037 900.061 5.72728C893.002 8.10088 885.674 6.18463 878.698 1.17132C877.444 2.25653 876.171 3.17521 874.885 3.94091C873.52 4.75123 872.14 5.38546 870.755 5.85238C863.696 8.22517 856.37 6.30893 849.392 1.29562C848.14 2.38003 846.866 3.3011 845.579 4.06601C844.213 4.87553 842.835 5.51056 841.449 5.97508C834.391 8.34947 827.063 6.3161 820.085 1.30199C818.833 2.3872 817.56 3.05888 816.273 3.82299C814.907 4.63251 813.529 5.26674 812.142 5.73365C805.085 8.10725 797.757 6.19021 790.779 1.1769C789.527 2.2629 788.255 3.18158 786.968 3.94649C785.603 4.75761 784.223 5.39184 782.838 5.85875C775.779 8.23155 768.451 6.31451 761.473 1.30119C760.221 2.3864 758.948 3.30747 757.661 4.07238C756.296 4.8819 754.917 5.51694 753.53 5.98146C746.474 8.35585 739.144 6.35753 732.167 1.34342C730.915 2.42863 729.642 3.06525 728.355 3.82936C726.989 4.63889 725.611 5.27312 724.225 5.74003C717.167 8.11363 709.839 6.19658 702.862 1.18327C701.609 2.26848 700.337 3.18796 699.05 3.95286C697.685 4.76398 696.306 5.39821 694.92 5.86512C687.862 8.23712 680.535 6.32088 673.557 1.30756C672.304 2.39198 671.03 3.31305 669.743 4.07876C668.377 4.88828 666.999 5.5233 665.613 5.98782C658.555 8.36062 651.226 6.44597 644.25 1.43186C642.934 2.57046 641.781 3.01266 640.437 3.81103C639.071 4.62056 637.693 5.25479 636.306 5.7217C629.249 8.0945 621.921 6.17826 614.943 1.16494C613.691 2.25015 612.419 3.16884 611.132 3.93454C609.768 4.74566 608.388 5.37909 607.001 5.84679C599.944 8.2188 592.616 6.30256 585.638 1.28925C584.386 2.37366 583.112 3.29473 581.825 4.06043C580.461 4.86996 579.081 5.50419 577.694 5.96951C570.637 8.3431 563.309 6.34479 556.331 1.33067C555.079 2.41588 553.807 3.0525 552.52 3.81741C551.153 4.62693 549.775 5.26037 548.39 5.72728C541.331 8.10088 534.003 6.18463 527.026 1.17132C525.773 2.25653 524.5 3.17521 523.214 3.94091C521.85 4.75123 520.468 5.38546 519.083 5.85238C512.024 8.22517 504.698 6.30893 497.721 1.29562C496.468 2.38003 495.195 3.3011 493.907 4.06601C492.54 4.87553 491.162 5.51056 489.777 5.97508C482.718 8.34947 475.391 6.3161 468.413 1.30199C467.161 2.3872 465.889 3.05888 464.601 3.82299C463.236 4.63251 461.857 5.26674 460.471 5.73365C453.414 8.10725 446.086 6.19021 439.108 1.1769C437.856 2.2629 436.583 3.18158 435.295 3.94649C433.931 4.75761 432.551 5.39184 431.165 5.85875C424.107 8.23155 416.779 6.31451 409.802 1.30119C408.55 2.3864 407.277 3.30747 405.989 4.07238C404.623 4.8819 403.245 5.51694 401.859 5.98146C394.801 8.35585 387.473 6.35753 380.495 1.34342C379.244 2.42863 377.971 3.06525 376.684 3.82936C375.318 4.63889 373.939 5.27312 372.553 5.74003C365.496 8.11363 358.168 6.19658 351.191 1.18327C349.938 2.26848 348.665 3.18796 347.378 3.95286C346.014 4.76398 344.633 5.39821 343.248 5.86512C336.189 8.23712 328.863 6.32088 321.885 1.30756C320.633 2.39198 319.36 3.31305 318.072 4.07876C316.706 4.88828 315.328 5.5233 313.941 5.98782C306.884 8.36062 299.556 6.44597 292.579 1.43186C291.327 2.51707 290.145 3.04613 288.858 3.81103C287.493 4.62056 286.114 5.25479 284.727 5.7217C277.67 8.0945 270.343 6.17826 263.364 1.16494C262.113 2.25015 260.84 3.16884 259.553 3.93454C258.188 4.74566 256.809 5.37909 255.423 5.84679C248.365 8.2188 241.037 6.30256 234.059 1.28925C232.807 2.37366 231.534 3.29473 230.247 4.06043C228.882 4.86996 227.503 5.50419 226.116 5.96951C219.059 8.3431 211.731 6.34479 204.752 1.33067C203.501 2.41588 202.228 3.0525 200.941 3.81741C199.574 4.62693 198.196 5.26037 196.811 5.72728C189.752 8.10088 182.424 6.18463 175.448 1.17132C174.194 2.25653 172.921 3.17521 171.635 3.94091C170.271 4.75123 168.89 5.38546 167.505 5.85238C160.446 8.22517 153.12 6.30893 146.142 1.29562C144.89 2.38003 143.616 3.3011 142.329 4.06601C140.963 4.87553 139.585 5.51056 138.199 5.97508C131.141 8.34947 123.813 6.3161 116.835 1.30199C115.583 2.3872 114.31 3.05888 113.023 3.82299C111.657 4.63251 110.279 5.26674 108.892 5.73365C101.835 8.10725 94.5071 6.19021 87.5295 1.1769C86.2773 2.2629 85.0044 3.18158 83.7171 3.94649C82.3519 4.75761 80.9722 5.39184 79.5871 5.85875C72.5283 8.23155 65.2004 6.31451 58.2228 1.30119C56.9705 2.3864 55.6976 3.30747 54.4104 4.07238C53.0443 4.8819 51.6663 5.51694 50.2795 5.98146C43.2231 8.35585 35.8936 6.35753 28.9168 1.34342C27.6646 2.42863 26.3917 3.06525 25.1044 3.82936C23.7383 4.63889 22.3603 5.27312 20.9743 5.74003C13.9163 8.11363 6.58839 6.19658 -0.388416 1.18327C-1.64144 2.26848 -2.91357 3.18796 -4.20082 3.95286C-5.5653 4.76398 -6.9449 5.39821 -8.33087 5.86512C-15.3889 8.23712 -22.716 6.32088 -29.6936 1.30756C-30.9458 2.39198 -32.2195 3.31305 -33.5068 4.07876C-34.8728 4.88828 -36.25 5.5233 -37.6368 5.98782C-44.694 8.36062 -52.0227 6.44597 -58.9995 1.43186Z" fill="white"/>
<path d="M2725 1C2723.75 2.09265 2722.47 3.01924 2721.19 3.78938C2719.82 4.60526 2718.44 5.24384 2717.06 5.71314C2710 8.10301 2702.67 6.17282 2695.69 1.12515C2694.44 2.21699 2693.17 3.14278 2691.88 3.91373C2690.52 4.73121 2689.14 5.36818 2687.75 5.83909C2680.69 8.22816 2673.37 6.29798 2666.39 1.2503C2665.14 2.34134 2663.86 3.26953 2662.58 4.04048C2661.21 4.85555 2659.83 5.49414 2658.44 5.96264C2651.39 8.35251 2644.06 6.34049 2637.08 1.29201C2635.83 2.38466 2634.56 3.02565 2633.27 3.7958C2631.9 4.61167 2630.53 5.24945 2629.14 5.71876C2622.08 8.10863 2614.75 6.17925 2607.78 1.13157C2606.52 2.22341 2605.25 3.14919 2603.96 3.92014C2602.6 4.73682 2601.22 5.3746 2599.83 5.84471C2592.77 8.23458 2585.45 6.30439 2578.47 1.25672C2577.22 2.34776 2575.95 3.27595 2574.66 4.0461C2573.29 4.86117 2571.91 5.50055 2570.53 5.96826C2563.47 8.35812 2556.14 6.31162 2549.16 1.26314C2547.91 2.35578 2546.64 3.03207 2545.35 3.80142C2543.98 4.61729 2542.61 5.25587 2541.22 5.72518C2534.16 8.11504 2526.84 6.18486 2519.86 1.13718C2518.61 2.22983 2517.33 3.15561 2516.05 3.92576C2514.68 4.74324 2513.3 5.38102 2511.92 5.85113C2504.86 8.241 2497.53 6.31001 2490.55 1.26233C2489.3 2.35418 2488.03 3.28237 2486.74 4.05251C2485.37 4.86759 2484 5.50697 2482.61 5.97468C2475.55 8.36454 2468.22 6.35333 2461.24 1.30485C2459.99 2.3975 2458.72 3.03849 2457.43 3.80783C2456.07 4.62371 2454.69 5.26229 2453.3 5.7316C2446.25 8.12146 2438.92 6.19128 2431.94 1.1436C2430.69 2.23545 2429.41 3.16203 2428.13 3.93218C2426.76 4.74966 2425.38 5.38744 2424 5.85755C2416.94 8.24661 2409.61 6.31643 2402.63 1.26875C2401.38 2.35979 2400.11 3.28798 2398.82 4.05893C2397.46 4.87401 2396.08 5.51339 2394.69 5.98109C2387.63 8.37096 2380.31 6.44238 2373.33 1.3939C2372.08 2.48655 2370.9 3.01924 2369.61 3.78938C2368.24 4.60526 2366.86 5.24384 2365.48 5.71314C2358.42 8.10301 2351.09 6.17282 2344.11 1.12515C2342.86 2.21699 2341.59 3.14278 2340.3 3.91373C2338.94 4.73121 2337.56 5.36818 2336.17 5.83909C2329.12 8.22816 2321.79 6.29798 2314.81 1.2503C2313.56 2.34134 2312.28 3.26953 2311 4.04048C2309.63 4.85555 2308.25 5.49414 2306.87 5.96264C2299.81 8.35251 2292.48 6.34049 2285.5 1.29201C2284.25 2.38466 2282.98 3.02565 2281.69 3.7958C2280.32 4.61167 2278.95 5.24945 2277.56 5.71876C2270.5 8.10863 2263.17 6.17925 2256.2 1.13157C2254.94 2.22341 2253.67 3.14919 2252.39 3.92014C2251.02 4.73682 2249.64 5.3746 2248.25 5.84471C2241.2 8.23458 2233.87 6.30439 2226.89 1.25672C2225.64 2.34776 2224.37 3.27595 2223.08 4.0461C2221.71 4.86117 2220.33 5.50055 2218.95 5.96826C2211.89 8.35812 2204.56 6.31162 2197.59 1.26314C2196.33 2.35578 2195.06 3.03207 2193.77 3.80142C2192.41 4.61729 2191.03 5.25587 2189.64 5.72518C2182.58 8.11504 2175.26 6.18486 2168.28 1.13718C2167.03 2.22983 2165.75 3.15561 2164.47 3.92576C2163.1 4.74324 2161.72 5.38102 2160.34 5.85113C2153.28 8.241 2145.95 6.31001 2138.97 1.26233C2137.72 2.35418 2136.45 3.28237 2135.16 4.05251C2133.79 4.86759 2132.42 5.50697 2131.03 5.97468C2123.97 8.36454 2116.64 6.35333 2109.67 1.30485C2108.41 2.3975 2107.14 3.03849 2105.85 3.80783C2104.49 4.62371 2103.11 5.26229 2101.72 5.7316C2094.67 8.12146 2087.34 6.19128 2080.36 1.1436C2079.11 2.23545 2077.84 3.16203 2076.55 3.93218C2075.18 4.74966 2073.81 5.38744 2072.42 5.85755C2065.36 8.24661 2058.03 6.31643 2051.06 1.26875C2049.8 2.35979 2048.53 3.28798 2047.24 4.05893C2045.88 4.87401 2044.5 5.51339 2043.11 5.98109C2036.05 8.37096 2028.73 6.44238 2021.75 1.3939C2020.5 2.48655 2019.22 3.01924 2017.94 3.78938C2016.57 4.60526 2015.19 5.24384 2013.81 5.71314C2006.75 8.10301 1999.42 6.17282 1992.44 1.12515C1991.19 2.21699 1989.92 3.14278 1988.63 3.91373C1987.27 4.73121 1985.89 5.36818 1984.5 5.83909C1977.44 8.22816 1970.12 6.29798 1963.14 1.2503C1961.89 2.34134 1960.61 3.26953 1959.32 4.04048C1957.96 4.85555 1956.58 5.49414 1955.19 5.96264C1948.14 8.35251 1940.81 6.34049 1933.83 1.29201C1932.58 2.38466 1931.31 3.02565 1930.02 3.7958C1928.65 4.61167 1927.28 5.24945 1925.89 5.71876C1918.83 8.10863 1911.5 6.17925 1904.53 1.13157C1903.27 2.22341 1902 3.14919 1900.71 3.92014C1899.35 4.73682 1897.97 5.3746 1896.58 5.84471C1889.52 8.23458 1882.2 6.30439 1875.22 1.25672C1873.97 2.34776 1872.69 3.27595 1871.41 4.0461C1870.04 4.86117 1868.66 5.50055 1867.28 5.96826C1860.22 8.35812 1852.89 6.31162 1845.91 1.26314C1844.66 2.35578 1843.39 3.03207 1842.1 3.80142C1840.73 4.61729 1839.36 5.25587 1837.97 5.72518C1830.91 8.11504 1823.59 6.18486 1816.61 1.13718C1815.36 2.22983 1814.08 3.15561 1812.79 3.92576C1811.43 4.74324 1810.05 5.38102 1808.66 5.85113C1801.61 8.241 1794.28 6.31001 1787.3 1.26233C1786.05 2.35418 1784.78 3.28237 1783.49 4.05251C1782.12 4.86759 1780.74 5.50697 1779.36 5.97468C1772.3 8.36454 1764.97 6.35333 1757.99 1.30485C1756.74 2.3975 1755.47 3.03849 1754.18 3.80783C1752.82 4.62371 1751.44 5.26229 1750.05 5.7316C1743 8.12146 1735.67 6.19128 1728.69 1.1436C1727.44 2.23545 1726.16 3.16203 1724.88 3.93218C1723.51 4.74966 1722.13 5.38744 1720.75 5.85755C1713.69 8.24661 1706.36 6.31643 1699.38 1.26875C1698.13 2.35979 1696.86 3.28798 1695.57 4.05893C1694.2 4.87401 1692.83 5.51339 1691.44 5.98109C1684.38 8.37096 1677.06 6.44238 1670.08 1.3939C1668.83 2.48655 1667.64 3.01924 1666.36 3.78938C1664.99 4.60526 1663.61 5.24384 1662.23 5.71314C1655.17 8.10301 1647.84 6.17282 1640.86 1.12515C1639.61 2.21699 1638.34 3.14278 1637.05 3.91373C1635.69 4.73121 1634.31 5.36818 1632.92 5.83909C1625.86 8.22816 1618.54 6.29798 1611.56 1.2503C1610.31 2.34134 1609.03 3.26953 1607.75 4.04048C1606.38 4.85555 1605 5.49414 1603.61 5.96264C1596.56 8.35251 1589.23 6.34049 1582.25 1.29201C1581 2.38466 1579.73 3.02565 1578.44 3.7958C1577.07 4.61167 1575.7 5.24945 1574.31 5.71876C1567.25 8.10863 1559.92 6.17925 1552.95 1.13157C1551.69 2.22341 1550.42 3.14919 1549.13 3.92014C1547.77 4.73682 1546.39 5.3746 1545 5.84471C1537.94 8.23458 1530.62 6.30439 1523.64 1.25672C1522.39 2.34776 1521.12 3.27595 1519.83 4.0461C1518.46 4.86117 1517.08 5.50055 1515.7 5.96826C1508.64 8.35812 1501.31 6.31162 1494.33 1.26314C1493.08 2.35578 1491.81 3.03207 1490.52 3.80142C1489.16 4.61729 1487.78 5.25587 1486.39 5.72518C1479.33 8.11504 1472.01 6.18486 1465.03 1.13718C1463.78 2.22983 1462.5 3.15561 1461.22 3.92576C1459.85 4.74324 1458.47 5.38102 1457.09 5.85113C1450.03 8.241 1442.7 6.31001 1435.72 1.26233C1434.47 2.35418 1433.2 3.28237 1431.91 4.05251C1430.54 4.86759 1429.17 5.50697 1427.78 5.97468C1420.72 8.36454 1413.39 6.35333 1406.42 1.30485C1405.16 2.3975 1403.89 3.03849 1402.6 3.80783C1401.24 4.62371 1399.86 5.26229 1398.47 5.7316C1391.42 8.12146 1384.09 6.19128 1377.11 1.1436C1375.86 2.23545 1374.59 3.16203 1373.3 3.93218C1371.93 4.74966 1370.55 5.38744 1369.17 5.85755C1362.11 8.24661 1354.78 6.31643 1347.81 1.26875C1346.55 2.35979 1345.28 3.28798 1343.99 4.05893C1342.63 4.87401 1341.25 5.51339 1339.86 5.98109C1332.8 8.37096 1325.48 6.44238 1318.5 1.3939C1317.25 2.48655 1315.97 3.01924 1314.69 3.78938C1313.32 4.60526 1311.94 5.24384 1310.56 5.71314C1303.5 8.10301 1296.17 6.17282 1289.19 1.12515C1287.94 2.21699 1286.67 3.14278 1285.38 3.91373C1284.02 4.73121 1282.64 5.36818 1281.25 5.83909C1274.19 8.22816 1266.87 6.29798 1259.89 1.2503C1258.64 2.34134 1257.36 3.26953 1256.07 4.04048C1254.71 4.85555 1253.33 5.49414 1251.94 5.96264C1244.89 8.35251 1237.56 6.34049 1230.58 1.29201C1229.33 2.38466 1228.06 3.02565 1226.77 3.7958C1225.4 4.61167 1224.03 5.24945 1222.64 5.71876C1215.58 8.10863 1208.25 6.17925 1201.28 1.13157C1200.02 2.22341 1198.75 3.14919 1197.46 3.92014C1196.1 4.73682 1194.72 5.3746 1193.33 5.84471C1186.27 8.23458 1178.95 6.30439 1171.97 1.25672C1170.72 2.34776 1169.44 3.27595 1168.16 4.0461C1166.79 4.86117 1165.41 5.50055 1164.03 5.96826C1156.97 8.35812 1149.64 6.31162 1142.66 1.26314C1141.41 2.35578 1140.14 3.03207 1138.85 3.80142C1137.49 4.61729 1136.11 5.25587 1134.72 5.72518C1127.66 8.11504 1120.34 6.18486 1113.36 1.13718C1112.11 2.22983 1110.83 3.15561 1109.55 3.92576C1108.18 4.74324 1106.8 5.38102 1105.42 5.85113C1098.36 8.241 1091.03 6.31001 1084.05 1.26233C1082.8 2.35418 1081.53 3.28237 1080.24 4.05251C1078.87 4.86759 1077.5 5.50697 1076.11 5.97468C1069.05 8.36454 1061.72 6.35333 1054.74 1.30485C1053.49 2.3975 1052.22 3.03849 1050.93 3.80783C1049.57 4.62371 1048.19 5.26229 1046.8 5.7316C1039.75 8.12146 1032.42 6.19128 1025.44 1.1436C1024.19 2.23545 1022.91 3.16203 1021.63 3.93218C1020.26 4.74966 1018.88 5.38744 1017.5 5.85755C1010.44 8.24661 1003.11 6.31643 996.134 1.26875C994.883 2.35979 993.609 3.28798 992.322 4.05893C990.955 4.87401 989.578 5.51339 988.191 5.98109C981.134 8.37096 973.806 6.44238 966.829 1.3939C965.576 2.48655 964.395 3.01924 963.108 3.78938C961.742 4.60526 960.364 5.24384 958.977 5.71314C951.92 8.10301 944.593 6.17282 937.614 1.12515C936.363 2.21699 935.09 3.14278 933.802 3.91373C932.437 4.73121 931.058 5.36818 929.672 5.83909C922.614 8.22816 915.287 6.29798 908.309 1.2503C907.057 2.34134 905.784 3.26953 904.496 4.04048C903.13 4.85555 901.752 5.49414 900.366 5.96264C893.308 8.35251 885.981 6.34049 879.002 1.29201C877.751 2.38466 876.478 3.02565 875.191 3.7958C873.824 4.61167 872.446 5.24945 871.06 5.71876C864.002 8.10863 856.674 6.17925 849.698 1.13157C848.444 2.22341 847.171 3.14919 845.885 3.92014C844.519 4.73682 843.14 5.3746 841.755 5.84471C834.696 8.23458 827.369 6.30439 820.392 1.25672C819.14 2.34776 817.866 3.27595 816.579 4.0461C815.212 4.86117 813.835 5.50055 812.449 5.96826C805.391 8.35812 798.063 6.31162 791.085 1.26314C789.833 2.35578 788.56 3.03207 787.273 3.80142C785.906 4.61729 784.529 5.25587 783.142 5.72518C776.085 8.11504 768.757 6.18486 761.779 1.13718C760.527 2.22983 759.255 3.15561 757.967 3.92576C756.602 4.74324 755.223 5.38102 753.837 5.85113C746.779 8.241 739.451 6.31001 732.472 1.26233C731.221 2.35418 729.948 3.28237 728.661 4.05251C727.295 4.86759 725.917 5.50697 724.53 5.97468C717.473 8.36454 710.144 6.35333 703.167 1.30485C701.915 2.3975 700.642 3.03849 699.355 3.80783C697.988 4.62371 696.611 5.26229 695.225 5.7316C688.167 8.12146 680.839 6.19128 673.862 1.1436C672.609 2.23545 671.337 3.16203 670.05 3.93218C668.684 4.74966 667.305 5.38744 665.92 5.85755C658.861 8.24661 651.534 6.31643 644.557 1.26875C643.304 2.35979 642.03 3.28798 640.743 4.05893C639.377 4.87401 638 5.51339 636.613 5.98109C629.555 8.37096 622.226 6.44238 615.249 1.3939C613.996 2.48655 612.724 3.01924 611.437 3.78938C610.07 4.60526 608.693 5.24384 607.306 5.71314C600.249 8.10301 592.921 6.17282 585.942 1.12515C584.691 2.21699 583.419 3.14278 582.132 3.91373C580.766 4.73121 579.388 5.36818 578.001 5.83909C570.944 8.22816 563.616 6.29798 556.637 1.2503C555.386 2.34134 554.112 3.26953 552.825 4.04048C551.46 4.85555 550.081 5.49414 548.694 5.96264C541.637 8.35251 534.309 6.34049 527.331 1.29201C526.079 2.38466 524.807 3.02565 523.52 3.7958C522.153 4.61167 520.776 5.24945 519.39 5.71876C512.331 8.10863 505.003 6.17925 498.026 1.13157C496.773 2.22341 495.499 3.14919 494.214 3.92014C492.848 4.73682 491.468 5.3746 490.083 5.84471C483.024 8.23458 475.698 6.30439 468.721 1.25672C467.468 2.34776 466.194 3.27595 464.907 4.0461C463.54 4.86117 462.163 5.50055 460.777 5.96826C453.718 8.35812 446.39 6.31162 439.413 1.26314C438.161 2.35578 436.888 3.03207 435.601 3.80142C434.235 4.61729 432.857 5.25587 431.47 5.72518C424.414 8.11504 417.086 6.18486 410.107 1.13718C408.856 2.22983 407.582 3.15561 406.295 3.92576C404.931 4.74324 403.551 5.38102 402.165 5.85113C395.107 8.241 387.779 6.31001 380.802 1.26233C379.549 2.35418 378.276 3.28237 376.989 4.05251C375.622 4.86759 374.245 5.50697 372.858 5.97468C365.801 8.36454 358.472 6.35333 351.495 1.30485C350.243 2.3975 348.97 3.03849 347.683 3.80783C346.317 4.62371 344.939 5.26229 343.553 5.7316C336.496 8.12146 329.168 6.19128 322.19 1.1436C320.937 2.23545 319.664 3.16203 318.378 3.93218C317.013 4.74966 315.633 5.38744 314.248 5.85755C307.189 8.24661 299.863 6.31643 292.884 1.26875C291.633 2.35979 290.359 3.28798 289.072 4.05893C287.705 4.87401 286.328 5.51339 284.941 5.98109C277.884 8.37096 270.556 6.44238 263.578 1.3939C262.326 2.48655 261.145 3.01924 259.858 3.78938C258.492 4.60526 257.114 5.24384 255.727 5.71314C248.67 8.10301 241.342 6.17282 234.364 1.12515C233.113 2.21699 231.84 3.14278 230.552 3.91373C229.187 4.73121 227.808 5.36818 226.422 5.83909C219.364 8.22816 212.036 6.29798 205.059 1.2503C203.807 2.34134 202.534 3.26953 201.246 4.04048C199.88 4.85555 198.502 5.49414 197.116 5.96264C190.058 8.35251 182.731 6.34049 175.752 1.29201C174.501 2.38466 173.228 3.02565 171.94 3.7958C170.574 4.61167 169.196 5.24945 167.81 5.71876C160.752 8.10863 153.424 6.17925 146.448 1.13157C145.194 2.22341 143.921 3.14919 142.635 3.92014C141.269 4.73682 139.89 5.3746 138.504 5.84471C131.446 8.23458 124.119 6.30439 117.142 1.25672C115.89 2.34776 114.616 3.27595 113.329 4.0461C111.962 4.86117 110.584 5.50055 109.198 5.96826C102.14 8.35812 94.8126 6.31162 87.835 1.26314C86.5828 2.35578 85.3106 3.03207 84.0226 3.80142C82.6565 4.61729 81.2785 5.25587 79.8917 5.72518C72.8345 8.11504 65.5066 6.18486 58.529 1.13718C57.2768 2.22983 56.0047 3.15561 54.7166 3.92576C53.3521 4.74324 51.9725 5.38102 50.5866 5.85113C43.5278 8.241 36.1999 6.31001 29.2223 1.26233C27.97 2.35418 26.6979 3.28237 25.4099 4.05251C24.0438 4.86759 22.6658 5.50697 21.279 5.97468C14.2218 8.36454 6.89312 6.35333 -0.0836923 1.30485C-1.33592 2.3975 -2.60805 3.03849 -3.8961 3.80783C-5.26217 4.62371 -6.64018 5.26229 -8.02615 5.7316C-15.0842 8.12146 -22.4121 6.19128 -29.3889 1.1436C-30.6419 2.23545 -31.914 3.16203 -33.2013 3.93218C-34.5665 4.74966 -35.9461 5.38744 -37.3313 5.85755C-44.3901 8.24661 -51.7164 6.31643 -58.694 1.26875C-59.9463 2.35979 -61.22 3.28798 -62.5072 4.05893C-63.8733 4.87401 -65.2513 5.51339 -66.6373 5.98109C-73.6953 8.37096 -81.0232 6.44238 -88 1.3939" stroke="#10192E" stroke-miterlimit="10"/>
</g>
<defs>
<clipPath id="clip0_409_145">
<rect width="88" height="17" fill="white"/>
</clipPath>
</defs>
</svg>
