<svg width="48" height="49" viewBox="0 0 48 49" fill="none" xmlns="http://www.w3.org/2000/svg">
<g opacity="0.6">
<path d="M26.7769 36.36L30.2859 35.017C31.8589 32.517 33.8899 29.704 37.7859 32.017L35.5329 37.179L31.5779 41.454C31.5779 41.454 26.4279 45.017 25.7859 45.017C24.5609 45.017 12.2939 45.017 11.0689 45.017L9.01489 47.017" stroke="white" stroke-width="2" stroke-miterlimit="10" stroke-linecap="round" stroke-linejoin="round"/>
<path d="M14.7859 39.017C14.7859 39.017 22.7859 39.017 23.7859 39.017C27.7859 39.017 27.7859 34.017 23.7859 34.017C22.7859 34.017 20.5669 34.017 17.7859 34.017C16.9529 34.017 15.39 32.017 14.069 32.017C13.483 32.017 10.421 32.017 9.06897 32.017C7.71797 32.017 6.03897 33.113 5.06897 34.017C3.56997 35.516 1 37.948 1 37.948" stroke="white" stroke-width="2" stroke-miterlimit="10" stroke-linecap="round" stroke-linejoin="round"/>
<path d="M19.952 18.592C19.656 17.228 19.3621 16.246 19.3621 16.246L22.2061 12.942L26.1511 11.539L27.1301 11.834L30.5181 13.747C30.5181 13.747 30.6541 15.3 30.1021 15.983C28.6441 17.792 25.447 18.121 24.52 19.001C23.428 20.038 22.6551 21.754 22.6851 22.915C22.7151 24.076 24.528 24.344 25.574 23.878C26.189 23.605 31.442 21.846 34.773 20.69C36.658 20.036 38.2751 18.796 39.4061 17.152C41.4901 14.123 44.002 9.916 44.002 9.916L46.528 9.19" stroke="white" stroke-width="2" stroke-miterlimit="10" stroke-linecap="round" stroke-linejoin="round"/>
<path d="M36.14 1C36.14 1 27.7251 3.218 21.5911 4.916C20.2021 5.3 18.9961 6.159 18.1731 7.341L14.2 13.82C13.734 14.58 13.63 15.508 13.916 16.351L16.5141 24.017" stroke="white" stroke-width="2" stroke-miterlimit="10" stroke-linecap="round" stroke-linejoin="round"/>
<path d="M28.4049 22.871C28.4769 23.242 28.5139 23.625 28.5139 24.017C28.5139 27.33 25.8269 30.017 22.5139 30.017C19.2009 30.017 16.5139 27.33 16.5139 24.017C16.5139 20.704 19.2009 18.017 22.5139 18.017C23.4499 18.017 24.3349 18.231 25.1239 18.613" stroke="white" stroke-width="2" stroke-miterlimit="10" stroke-linecap="round" stroke-linejoin="round"/>
</g>
</svg>
