<svg width="46" height="45" viewBox="0 0 46 45" fill="none" xmlns="http://www.w3.org/2000/svg">
<g opacity="0.6">
<path d="M9.99799 40.2339C4.55899 36.4389 1 30.1349 1 22.9999C1 11.4019 10.402 1.99988 22 1.99988C23.019 1.99988 24.021 2.07288 25 2.21288" stroke="white" stroke-width="2" stroke-miterlimit="10" stroke-linejoin="round"/>
<path d="M15.524 39.0009C13.368 35.1489 12 29.4099 12 22.9999C12 11.4019 16.478 1.99988 22 1.99988" stroke="white" stroke-width="2" stroke-miterlimit="10" stroke-linejoin="round"/>
<path d="M22 1.99988V36.9999" stroke="white" stroke-width="2" stroke-miterlimit="10" stroke-linejoin="round"/>
<path d="M28 22.9999H1" stroke="white" stroke-width="2" stroke-miterlimit="10" stroke-linejoin="round"/>
<path d="M22.0001 12.9999C15.5901 12.9999 9.85005 11.6319 5.99805 9.47589" stroke="white" stroke-width="2" stroke-miterlimit="10" stroke-linejoin="round"/>
<path d="M27 33.2849C25.397 33.0979 23.723 32.9999 22 32.9999C15.591 32.9999 9.852 34.3669 6 36.5229" stroke="white" stroke-width="2" stroke-miterlimit="10" stroke-linejoin="round"/>
<path d="M44.9801 8.35788L27.9311 1.29688L25.5211 19.5919L31.2411 16.2899C32.3591 18.6269 33.0001 21.2349 33.0001 23.9989C33.0001 33.9399 24.9411 41.9989 15.0001 41.9989C14.2501 41.9989 13.5161 41.9379 12.7891 41.8489C15.5731 43.2119 18.6911 43.9989 22.0001 43.9989C33.5981 43.9989 43.0001 34.5969 43.0001 22.9989C43.0001 18.7449 41.7271 14.7949 39.5481 11.4939L44.9801 8.35788Z" stroke="white" stroke-width="2" stroke-miterlimit="10" stroke-linejoin="round"/>
</g>
</svg>
