<svg width="34" height="34" viewBox="0 0 34 34" fill="none" xmlns="http://www.w3.org/2000/svg">
<circle cx="17" cy="17" r="17" fill="#9853EB"/>
<path d="M19.8178 21.3516H14.1961C13.4867 21.3509 12.7995 21.1042 12.2516 20.6536C11.7037 20.203 11.3291 19.5763 11.1915 18.8803L10.087 13.1625C10.0271 12.8516 9.87637 12.5655 9.65381 12.3404C9.43126 12.1152 9.14692 11.9612 8.83678 11.8977L7.98581 11.7345C7.89109 11.7154 7.80106 11.6777 7.72087 11.6238C7.64069 11.5699 7.57191 11.5007 7.51846 11.4202C7.41052 11.2576 7.37159 11.0588 7.41023 10.8675C7.44888 10.6762 7.56194 10.5081 7.72453 10.4001C7.88712 10.2922 8.08594 10.2533 8.27723 10.2919L9.13403 10.4697C9.72776 10.5925 10.2715 10.8891 10.696 11.322C11.1206 11.7548 11.4067 12.3042 11.5179 12.9002L12.6224 18.618C12.6976 18.9795 12.8953 19.3039 13.182 19.5365C13.4687 19.7691 13.827 19.8955 14.1961 19.8945H19.8178C20.142 19.8936 20.4584 19.7949 20.7256 19.6114C20.9928 19.4278 21.1985 19.168 21.3157 18.8657L23.1896 13.9785C23.2199 13.8841 23.2691 13.7968 23.3342 13.7221C23.3994 13.6473 23.4791 13.5866 23.5685 13.5438C23.6579 13.5009 23.7552 13.4768 23.8542 13.4728C23.9533 13.4688 24.0522 13.4851 24.1447 13.5207C24.2373 13.5562 24.3216 13.6103 24.3925 13.6796C24.4635 13.7488 24.5195 13.8319 24.5572 13.9236C24.595 14.0153 24.6136 14.1137 24.6119 14.2128C24.6103 14.312 24.5884 14.4097 24.5477 14.5001L22.6767 19.3961C22.4512 19.9712 22.058 20.4651 21.5481 20.8138C21.0383 21.1625 20.4355 21.3499 19.8178 21.3516V21.3516Z" fill="white"/>
<path d="M19.7362 26.0639C20.541 26.0639 21.1933 25.4116 21.1933 24.6068C21.1933 23.802 20.541 23.1497 19.7362 23.1497C18.9314 23.1497 18.2791 23.802 18.2791 24.6068C18.2791 25.4116 18.9314 26.0639 19.7362 26.0639Z" fill="white"/>
<path d="M14.0126 26.0639C14.8173 26.0639 15.4697 25.4116 15.4697 24.6068C15.4697 23.802 14.8173 23.1497 14.0126 23.1497C13.2078 23.1497 12.5554 23.802 12.5554 24.6068C12.5554 25.4116 13.2078 26.0639 14.0126 26.0639Z" fill="white"/>
<path d="M17.1833 16.4381C16.99 16.4381 16.8046 16.3616 16.6675 16.2253L13.8668 13.4218C13.7428 13.283 13.6765 13.102 13.6817 12.9159C13.687 12.7298 13.7632 12.5527 13.8949 12.4211C14.0265 12.2894 14.2035 12.2132 14.3896 12.208C14.5757 12.2027 14.7568 12.269 14.8956 12.3931L17.1833 14.6808L21.3711 10.49C21.4389 10.4223 21.5193 10.3686 21.6078 10.3319C21.6963 10.2952 21.7912 10.2764 21.887 10.2764C21.9828 10.2764 22.0776 10.2952 22.1661 10.3319C22.2546 10.3686 22.335 10.4223 22.4028 10.49C22.4705 10.5578 22.5243 10.6382 22.5609 10.7267C22.5976 10.8152 22.6165 10.9101 22.6165 11.0059C22.6165 11.1017 22.5976 11.1965 22.5609 11.285C22.5243 11.3735 22.4705 11.4539 22.4028 11.5217L17.6991 16.2253C17.5621 16.3616 17.3766 16.4381 17.1833 16.4381V16.4381Z" fill="white"/>
</svg>
