<svg width="34" height="34" viewBox="0 0 34 34" fill="none" xmlns="http://www.w3.org/2000/svg">
<circle cx="17" cy="17" r="17" fill="#9853EB"/>
<path d="M23.904 19.7892C23.7108 19.7892 23.5255 19.7124 23.3889 19.5758C23.2522 19.4392 23.1755 19.2538 23.1755 19.0606V15.7908C23.193 15.0011 23.0526 14.2159 22.7625 13.4812C22.4724 12.7465 22.0384 12.0772 21.4861 11.5125C20.9338 10.9478 20.2743 10.4992 19.5462 10.1929C18.8182 9.88654 18.0362 9.72876 17.2464 9.72876C16.4565 9.72876 15.6746 9.88654 14.9465 10.1929C14.2184 10.4992 13.5589 10.9478 13.0066 11.5125C12.4543 12.0772 12.0203 12.7465 11.7302 13.4812C11.4402 14.2159 11.2997 15.0011 11.3172 15.7908V19.0606C11.3172 19.2538 11.2405 19.4392 11.1038 19.5758C10.9672 19.7124 10.7819 19.7892 10.5887 19.7892C10.3954 19.7892 10.2101 19.7124 10.0735 19.5758C9.93686 19.4392 9.8601 19.2538 9.8601 19.0606V15.7908C9.84059 14.8085 10.0172 13.8321 10.3796 12.9189C10.7421 12.0057 11.283 11.1739 11.9708 10.4723C12.6586 9.77068 13.4795 9.21332 14.3853 8.83283C15.2912 8.45233 16.2638 8.25635 17.2464 8.25635C18.2289 8.25635 19.2015 8.45233 20.1074 8.83283C21.0132 9.21332 21.8341 9.77068 22.5219 10.4723C23.2097 11.1739 23.7506 12.0057 24.1131 12.9189C24.4755 13.8321 24.6521 14.8085 24.6326 15.7908V19.0606C24.6326 19.2538 24.5559 19.4392 24.4192 19.5758C24.2826 19.7124 24.0973 19.7892 23.904 19.7892Z" fill="white"/>
<path d="M12.617 22.8724H12.483C11.7873 22.8724 11.1202 22.5961 10.6283 22.1042C10.1364 21.6123 9.86011 20.9452 9.86011 20.2495V17.7054C9.86011 17.5121 9.93687 17.3268 10.0735 17.1902C10.2101 17.0536 10.3954 16.9768 10.5887 16.9768H12.6287C13.1996 16.9776 13.747 17.2047 14.1507 17.6084C14.5544 18.0122 14.7816 18.5595 14.7823 19.1305V20.7187C14.782 21.0024 14.7256 21.2833 14.6165 21.5452C14.5074 21.807 14.3477 22.0448 14.1466 22.2449C13.9454 22.445 13.7068 22.6034 13.4443 22.711C13.1819 22.8187 12.9007 22.8736 12.617 22.8724V22.8724ZM11.3173 18.4339V20.2437C11.3173 20.5529 11.4401 20.8494 11.6587 21.068C11.8773 21.2866 12.1738 21.4094 12.483 21.4094H12.6112C12.7957 21.4087 12.9724 21.335 13.1029 21.2046C13.2333 21.0741 13.3069 20.8974 13.3077 20.7129V19.1305C13.3069 18.946 13.2333 18.7693 13.1029 18.6388C12.9724 18.5083 12.7957 18.4347 12.6112 18.4339H11.3173Z" fill="white"/>
<path d="M22.0039 22.8724H21.8757C21.305 22.8716 20.758 22.6444 20.3547 22.2406C19.9515 21.8368 19.725 21.2894 19.725 20.7187V19.1305C19.7257 18.56 19.9525 18.0131 20.3556 17.6095C20.7587 17.2058 21.3053 16.9783 21.8757 16.9768H23.9157C24.1089 16.9768 24.2943 17.0536 24.4309 17.1902C24.5675 17.3268 24.6443 17.5121 24.6443 17.7054V20.2437C24.6451 20.5901 24.5772 20.9333 24.4447 21.2533C24.3121 21.5733 24.1175 21.8639 23.872 22.1083C23.6265 22.3527 23.335 22.5461 23.0144 22.6772C22.6938 22.8084 22.3503 22.8747 22.0039 22.8724V22.8724ZM21.8757 18.4339C21.6915 18.4347 21.5151 18.5084 21.3851 18.639C21.2551 18.7695 21.1821 18.9462 21.1821 19.1305V20.7187C21.1821 20.903 21.2551 21.0797 21.3851 21.2102C21.5151 21.3408 21.6915 21.4145 21.8757 21.4153H22.0039C22.3131 21.4153 22.6096 21.2924 22.8282 21.0738C23.0468 20.8552 23.1697 20.5587 23.1697 20.2495V18.4339H21.8757Z" fill="white"/>
<path d="M22.1555 25.5974H21.4823C21.2891 25.5974 21.1037 25.5206 20.9671 25.384C20.8305 25.2473 20.7537 25.062 20.7537 24.8688C20.7537 24.6756 20.8305 24.4902 20.9671 24.3536C21.1037 24.217 21.2891 24.1402 21.4823 24.1402H22.1555C22.426 24.1402 22.6855 24.0327 22.8767 23.8415C23.068 23.6502 23.1755 23.3907 23.1755 23.1202V20.171C23.1755 19.9777 23.2523 19.7924 23.3889 19.6558C23.5255 19.5191 23.7108 19.4424 23.9041 19.4424C24.0973 19.4424 24.2826 19.5191 24.4192 19.6558C24.5559 19.7924 24.6326 19.9777 24.6326 20.171V23.1202C24.6319 23.777 24.3706 24.4066 23.9062 24.871C23.4419 25.3354 22.8122 25.5966 22.1555 25.5974V25.5974Z" fill="white"/>
</svg>
