<svg width="25" height="25" viewBox="0 0 25 25" fill="none" xmlns="http://www.w3.org/2000/svg">
<path d="M20.7862 17.4717L15.8144 12.4998L20.7862 7.52799C21.3963 6.9179 21.3963 5.92837 20.7862 5.31828L19.6814 4.21342C19.0713 3.60334 18.0818 3.60334 17.4717 4.21342L12.4998 9.18527L7.52799 4.21342C6.9179 3.60334 5.92837 3.60334 5.31828 4.21342L4.21342 5.31828C3.60334 5.92837 3.60334 6.9179 4.21342 7.52799L9.18527 12.4998L4.21342 17.4717C3.60334 18.0818 3.60334 19.0713 4.21342 19.6814L5.31828 20.7862C5.92837 21.3963 6.9179 21.3963 7.52799 20.7862L12.4998 15.8144L17.4717 20.7862C18.0818 21.3963 19.0713 21.3963 19.6814 20.7862L20.7862 19.6814C21.3963 19.0713 21.3963 18.0818 20.7862 17.4717Z" fill="white"/>
</svg>
