<svg width="24" height="24" viewBox="0 0 24 24" fill="none" xmlns="http://www.w3.org/2000/svg">
<path d="M13.2407 12.4999L20.6389 5.1015C21.1204 4.62026 21.1204 3.84217 20.6389 3.36093C20.1577 2.87969 19.3796 2.87969 18.8984 3.36093L11.4999 10.7594L4.10167 3.36093C3.62021 2.87969 2.84234 2.87969 2.3611 3.36093C1.87963 3.84217 1.87963 4.62026 2.3611 5.1015L9.75933 12.4999L2.3611 19.8984C1.87963 20.3796 1.87963 21.1577 2.3611 21.639C2.60093 21.879 2.91627 21.9996 3.23139 21.9996C3.5465 21.9996 3.86162 21.879 4.10167 21.639L11.4999 14.2405L18.8984 21.639C19.1384 21.879 19.4535 21.9996 19.7686 21.9996C20.0838 21.9996 20.3989 21.879 20.6389 21.639C21.1204 21.1577 21.1204 20.3796 20.6389 19.8984L13.2407 12.4999Z" fill="white"/>
</svg>
