<svg width="24" height="24" viewBox="0 0 24 24" fill="none" xmlns="http://www.w3.org/2000/svg">
<path fill-rule="evenodd" clip-rule="evenodd" d="M0 1.5C0 0.671573 0.671573 0 1.5 0H22.5C23.3284 0 24 0.671573 24 1.5C24 2.32843 23.3284 3 22.5 3H1.5C0.671573 3 0 2.32843 0 1.5ZM0 11.5C0 10.6716 0.671573 10 1.5 10H22.5C23.3284 10 24 10.6716 24 11.5C24 12.3284 23.3284 13 22.5 13H1.5C0.671573 13 0 12.3284 0 11.5ZM1.5 20C0.671573 20 0 20.6716 0 21.5C0 22.3284 0.671573 23 1.5 23H22.5C23.3284 23 24 22.3284 24 21.5C24 20.6716 23.3284 20 22.5 20H1.5Z" fill="white"/>
</svg>
