<svg width="13" height="13" viewBox="0 0 13 13" fill="none" xmlns="http://www.w3.org/2000/svg">
<path fill-rule="evenodd" clip-rule="evenodd" d="M2.49098 0.0137005C2.15775 0.0554624 1.58978 0.211097 1.37556 0.319353C0.874394 0.572618 0.221963 1.66043 0.0447484 2.53832C-0.0164074 2.84128 -0.0145519 3.48985 0.0483069 3.78259C0.141845 4.21835 0.353629 4.85004 0.749184 5.87322C1.21212 7.07069 2.06945 8.28123 3.39266 9.60574C4.53663 10.7508 5.54089 11.5086 6.57058 12.0036C6.93052 12.1767 7.07391 12.2344 7.90932 12.5425C8.94376 12.9241 9.25577 12.9971 9.84951 12.9965C10.322 12.9961 10.5322 12.9615 10.9522 12.8153C11.6938 12.5572 12.481 12.0132 12.6785 11.6223C12.8073 11.3675 12.9553 10.7922 12.9893 10.4146C13.0265 10.0012 13.0268 10.0016 11.9338 9.40145C11.0805 8.93297 10.7914 8.76585 10.5138 8.58065C10.054 8.2738 9.90774 8.23128 9.68015 8.33824C9.52403 8.41165 9.20773 8.72714 8.88207 9.13431C8.57405 9.51944 8.27199 9.8332 8.14843 9.89637C7.9447 10.0005 7.76889 9.9381 7.04826 9.50577C6.13143 8.95575 5.60947 8.56189 5.0257 7.97964C4.44522 7.40069 4.04413 6.86979 3.4921 5.9496C3.05976 5.22898 2.99733 5.05316 3.1015 4.84943C3.16438 4.72646 3.47715 4.425 3.86356 4.11493C4.26994 3.78884 4.58812 3.46977 4.66051 3.31579C4.76651 3.0903 4.7234 2.94288 4.41721 2.48403C4.23143 2.2056 4.06172 1.9119 3.59669 1.06408C3.12984 0.212927 3.06909 0.120075 2.92736 0.0409995C2.851 -0.00160112 2.69227 -0.0115396 2.49098 0.0137005Z" fill="white"/>
</svg>
