<svg width="19" height="19" viewBox="0 0 19 19" fill="none" xmlns="http://www.w3.org/2000/svg">
<g clip-path="url(#clip0_199_4)">
<path d="M16.4773 1.85182C16.006 1.41764 14.0986 0.0334639 9.84589 0.0149092C9.84589 0.0149092 4.83242 -0.285677 2.39062 1.95573C1.03242 3.31393 0.553706 5.30671 0.501752 7.77448C0.449799 10.2423 0.386713 14.8661 4.84355 16.1204H4.84726L4.84355 18.0352C4.84355 18.0352 4.81386 18.8108 5.32597 18.9667C5.94199 19.1596 6.30566 18.5696 6.8957 17.935C7.21855 17.5862 7.66386 17.0741 8.00156 16.6844C11.0519 16.9405 13.3936 16.3542 13.6607 16.2688C14.2768 16.0684 17.7613 15.6231 18.3254 10.9993C18.9117 6.22702 18.0434 3.21374 16.4773 1.85182ZM16.9932 10.6505C16.5144 14.5098 13.6904 14.7548 13.1709 14.9217C12.9482 14.9923 10.8887 15.5044 8.30214 15.3374C8.30214 15.3374 6.37246 17.6641 5.77128 18.269C5.5746 18.4657 5.35937 18.4471 5.36308 18.0575C5.36308 17.8014 5.37792 14.8772 5.37792 14.8772C5.37421 14.8772 5.37421 14.8772 5.37792 14.8772C1.60019 13.8307 1.82285 9.89343 1.86367 7.83385C1.90449 5.77428 2.29414 4.08581 3.44453 2.95026C5.51152 1.07624 9.76796 1.35456 9.76796 1.35456C13.3639 1.3694 15.0857 2.453 15.4865 2.81667C16.8113 3.95221 17.4867 6.66862 16.9932 10.6505ZM11.835 7.65202C11.8498 7.97116 11.3711 7.99343 11.3562 7.67428C11.3154 6.85788 10.9332 6.46081 10.1465 6.41628C9.82734 6.39772 9.85703 5.91901 10.1725 5.93757C11.2078 5.99323 11.783 6.58698 11.835 7.65202ZM12.5883 8.07135C12.6254 6.49792 11.642 5.26589 9.77538 5.12858C9.45996 5.10632 9.49335 4.6276 9.80878 4.64987C11.9611 4.80573 13.1078 6.28639 13.067 8.08249C13.0633 8.40163 12.5809 8.38678 12.5883 8.07135ZM14.3324 8.56862C14.3361 8.88776 13.8537 8.89147 13.8537 8.57233C13.8314 5.54792 11.8164 3.90026 9.37089 3.88171C9.05546 3.878 9.05546 3.40299 9.37089 3.40299C12.1059 3.42155 14.3064 5.31042 14.3324 8.56862ZM13.9131 12.209V12.2165C13.5123 12.9215 12.7627 13.7008 11.9908 13.4522L11.9834 13.4411C11.2004 13.2221 9.35605 12.2721 8.19081 11.3444C7.58964 10.8694 7.04042 10.309 6.61738 9.77096C6.23515 9.29225 5.84921 8.72448 5.47441 8.04167C4.68398 6.61296 4.50956 5.97468 4.50956 5.97468C4.26093 5.2028 5.03652 4.45319 5.74531 4.05241H5.75273C6.09414 3.87428 6.4207 3.93366 6.63964 4.19714C6.63964 4.19714 7.0998 4.74635 7.29648 5.01725C7.48203 5.2696 7.73066 5.67409 7.86054 5.90046C8.08691 6.30495 7.94589 6.71686 7.72324 6.88757L7.27792 7.24382C7.05156 7.42565 7.08124 7.76335 7.08124 7.76335C7.08124 7.76335 7.74179 10.2608 10.2096 10.8917C10.2096 10.8917 10.5473 10.9214 10.7291 10.695L11.0853 10.2497C11.2561 10.027 11.668 9.886 12.0725 10.1124C12.618 10.4204 13.3119 10.8991 13.7721 11.3333C14.0318 11.5448 14.0912 11.8676 13.9131 12.209Z" fill="white"/>
</g>
<defs>
<clipPath id="clip0_199_4">
<rect width="19" height="19" fill="white"/>
</clipPath>
</defs>
</svg>
