<svg width="20" height="20" viewBox="0 0 20 20" fill="none" xmlns="http://www.w3.org/2000/svg">
<path d="M15.5139 4.52129C13.959 2.9627 11.8883 2.10547 9.6877 2.10547C5.14551 2.10547 1.44941 5.80156 1.44941 10.3438C1.44941 11.7947 1.82793 13.2123 2.54785 14.4629L1.37891 18.7305L5.74668 17.5838C6.94902 18.2406 8.30352 18.5857 9.68398 18.5857H9.6877C14.2262 18.5857 18.0039 14.8896 18.0039 10.3475C18.0039 8.14688 17.0687 6.07988 15.5139 4.52129ZM9.6877 17.1979C8.45566 17.1979 7.24961 16.8676 6.19941 16.2441L5.95078 16.0957L3.36055 16.7748L4.05078 14.2477L3.8875 13.9879C3.20098 12.8969 2.84102 11.6389 2.84102 10.3438C2.84102 6.56973 5.91367 3.49707 9.69141 3.49707C11.5209 3.49707 13.2391 4.20957 14.5305 5.50469C15.8219 6.7998 16.616 8.51797 16.6123 10.3475C16.6123 14.1252 13.4617 17.1979 9.6877 17.1979ZM13.4432 12.0693C13.2391 11.9654 12.226 11.4682 12.0367 11.4014C11.8475 11.3309 11.7102 11.2975 11.5729 11.5053C11.4355 11.7131 11.0422 12.1732 10.9197 12.3143C10.801 12.4516 10.6785 12.4701 10.4744 12.3662C9.26465 11.7613 8.47051 11.2863 7.67266 9.91699C7.46113 9.55332 7.88418 9.5793 8.27754 8.79258C8.34434 8.65527 8.31094 8.53652 8.25898 8.43262C8.20703 8.32871 7.79512 7.31563 7.62441 6.90371C7.45742 6.50293 7.28672 6.55859 7.16055 6.55117C7.0418 6.54375 6.90449 6.54375 6.76719 6.54375C6.62988 6.54375 6.40723 6.5957 6.21797 6.7998C6.02871 7.00762 5.49805 7.50488 5.49805 8.51797C5.49805 9.53105 6.23652 10.5107 6.33672 10.648C6.44063 10.7854 7.7877 12.8635 9.85469 13.7578C11.1609 14.3219 11.673 14.3701 12.3262 14.2736C12.7232 14.2143 13.5434 13.7764 13.7141 13.2939C13.8848 12.8115 13.8848 12.3996 13.8328 12.3143C13.7846 12.2215 13.6473 12.1695 13.4432 12.0693Z" fill="white"/>
</svg>
