<svg width="34" height="34" viewBox="0 0 34 34" fill="none" xmlns="http://www.w3.org/2000/svg">
<circle cx="17" cy="17" r="17" fill="#9853EB"/>
<path d="M22.2458 13.8439H11.7544C11.5612 13.8439 11.3759 13.7671 11.2392 13.6305C11.1026 13.4938 11.0258 13.3085 11.0258 13.1153C11.0258 12.9221 11.1026 12.7367 11.2392 12.6001C11.3759 12.4635 11.5612 12.3867 11.7544 12.3867H22.2458C22.4391 12.3867 22.6244 12.4635 22.761 12.6001C22.8977 12.7367 22.9744 12.9221 22.9744 13.1153C22.9744 13.3085 22.8977 13.4938 22.761 13.6305C22.6244 13.7671 22.4391 13.8439 22.2458 13.8439Z" fill="white"/>
<path d="M19.5122 25.3057H14.488C13.8313 25.3049 13.2016 25.0437 12.7373 24.5793C12.2729 24.1149 12.0116 23.4853 12.0109 22.8285V13.1152H13.468V22.8402C13.468 23.1107 13.5755 23.3702 13.7668 23.5615C13.958 23.7527 14.2175 23.8602 14.488 23.8602H19.5122C19.7828 23.8602 20.0422 23.7527 20.2335 23.5615C20.4248 23.3702 20.5322 23.1107 20.5322 22.8402V13.1152H21.9894V22.8402C21.9855 23.4949 21.7229 24.1216 21.2589 24.5834C20.7948 25.0453 20.167 25.3049 19.5122 25.3057Z" fill="white"/>
<path d="M23.1201 17.4372H21.2608C21.0676 17.4372 20.8823 17.3604 20.7456 17.2238C20.609 17.0872 20.5322 16.9018 20.5322 16.7086C20.5322 16.5154 20.609 16.3301 20.7456 16.1934C20.8823 16.0568 21.0676 15.98 21.2608 15.98H23.1201C23.3906 15.98 23.6501 15.8726 23.8414 15.6813C24.0327 15.49 24.1401 15.2306 24.1401 14.96V11.1715C24.1401 10.901 24.0327 10.6415 23.8414 10.4502C23.6501 10.2589 23.3906 10.1515 23.1201 10.1515H10.8801C10.6096 10.1515 10.3502 10.2589 10.1589 10.4502C9.96759 10.6415 9.86013 10.901 9.86013 11.1715V14.96C9.86013 15.2306 9.96759 15.49 10.1589 15.6813C10.3502 15.8726 10.6096 15.98 10.8801 15.98H12.7394C12.9327 15.98 13.118 16.0568 13.2546 16.1934C13.3913 16.3301 13.468 16.5154 13.468 16.7086C13.468 16.9018 13.3913 17.0872 13.2546 17.2238C13.118 17.3604 12.9327 17.4372 12.7394 17.4372H10.8801C10.2234 17.4364 9.59376 17.1752 9.12937 16.7108C8.66499 16.2464 8.40376 15.6168 8.40298 14.96V11.1715C8.40376 10.5147 8.66499 9.88511 9.12937 9.42073C9.59376 8.95634 10.2234 8.69511 10.8801 8.69434H23.1201C23.7769 8.69511 24.4065 8.95634 24.8709 9.42073C25.3353 9.88511 25.5965 10.5147 25.5973 11.1715V14.96C25.5965 15.6168 25.3353 16.2464 24.8709 16.7108C24.4065 17.1752 23.7769 17.4364 23.1201 17.4372V17.4372Z" fill="white"/>
<path d="M17.0001 21.9398H16.0821C15.8889 21.9398 15.7036 21.863 15.567 21.7264C15.4303 21.5897 15.3536 21.4044 15.3536 21.2112C15.3536 21.018 15.4303 20.8326 15.567 20.696C15.7036 20.5594 15.8889 20.4826 16.0821 20.4826H17.0001C17.1199 20.4826 17.2348 20.435 17.3195 20.3503C17.4043 20.2656 17.4518 20.1507 17.4518 20.0309C17.4518 19.9111 17.4043 19.7962 17.3195 19.7115C17.2348 19.6268 17.1199 19.5792 17.0001 19.5792C16.4939 19.5792 16.0083 19.3781 15.6504 19.0201C15.2924 18.6621 15.0913 18.1766 15.0913 17.6703C15.0913 17.1641 15.2924 16.6785 15.6504 16.3206C16.0083 15.9626 16.4939 15.7615 17.0001 15.7615H17.9181C18.1114 15.7615 18.2967 15.8382 18.4333 15.9749C18.5699 16.1115 18.6467 16.2968 18.6467 16.49C18.6467 16.6833 18.5699 16.8686 18.4333 17.0052C18.2967 17.1419 18.1114 17.2186 17.9181 17.2186H17.0001C16.8803 17.2186 16.7654 17.2662 16.6807 17.3509C16.596 17.4356 16.5484 17.5505 16.5484 17.6703C16.5484 17.7901 16.596 17.905 16.6807 17.9897C16.7654 18.0745 16.8803 18.122 17.0001 18.122C17.5064 18.122 17.9919 18.3232 18.3499 18.6811C18.7079 19.0391 18.909 19.5246 18.909 20.0309C18.909 20.5372 18.7079 21.0227 18.3499 21.3807C17.9919 21.7386 17.5064 21.9398 17.0001 21.9398V21.9398Z" fill="white"/>
<path d="M17.0001 17.2186C16.9043 17.219 16.8094 17.2005 16.7209 17.164C16.6323 17.1275 16.5518 17.0738 16.4841 17.0061C16.4164 16.9384 16.3627 16.8579 16.3262 16.7693C16.2897 16.6808 16.2712 16.5859 16.2716 16.4901V15.5721C16.2716 15.3788 16.3483 15.1935 16.4849 15.0569C16.6216 14.9203 16.8069 14.8435 17.0001 14.8435C17.1934 14.8435 17.3787 14.9203 17.5153 15.0569C17.6519 15.1935 17.7287 15.3788 17.7287 15.5721V16.4901C17.7291 16.5859 17.7105 16.6808 17.674 16.7693C17.6375 16.8579 17.5839 16.9384 17.5162 17.0061C17.4484 17.0738 17.368 17.1275 17.2794 17.164C17.1908 17.2005 17.0959 17.219 17.0001 17.2186V17.2186Z" fill="white"/>
<path d="M17.0001 22.8576C16.9043 22.858 16.8094 22.8394 16.7209 22.803C16.6323 22.7665 16.5518 22.7128 16.4841 22.6451C16.4164 22.5774 16.3627 22.4969 16.3262 22.4083C16.2897 22.3198 16.2712 22.2249 16.2716 22.1291V21.2256C16.2716 21.0324 16.3483 20.8471 16.4849 20.7105C16.6216 20.5738 16.8069 20.4971 17.0001 20.4971C17.1934 20.4971 17.3787 20.5738 17.5153 20.7105C17.6519 20.8471 17.7287 21.0324 17.7287 21.2256V22.1291C17.7291 22.2249 17.7105 22.3198 17.674 22.4083C17.6375 22.4969 17.5839 22.5774 17.5162 22.6451C17.4484 22.7128 17.368 22.7665 17.2794 22.803C17.1908 22.8394 17.0959 22.858 17.0001 22.8576V22.8576Z" fill="white"/>
</svg>
