<svg width="34" height="34" viewBox="0 0 34 34" fill="none" xmlns="http://www.w3.org/2000/svg">
<circle cx="17" cy="17" r="17" fill="#9853EB"/>
<path d="M13.8964 25.5972C13.7528 25.5961 13.6126 25.5527 13.4934 25.4725C13.3743 25.3922 13.2814 25.2786 13.2264 25.1459C13.1714 25.0132 13.1566 24.8672 13.1841 24.7261C13.2115 24.5851 13.2799 24.4553 13.3806 24.3528L14.4764 23.2658C14.6136 23.1329 14.7975 23.0592 14.9886 23.0606C15.1796 23.062 15.3625 23.1383 15.4977 23.2732C15.633 23.4081 15.7099 23.5907 15.7118 23.7818C15.7138 23.9728 15.6406 24.157 15.508 24.2946L14.4123 25.3903C14.2744 25.5247 14.089 25.5991 13.8964 25.5972Z" fill="white"/>
<path d="M9.42299 21.124C9.2787 21.1242 9.13759 21.0816 9.01754 21.0016C8.89748 20.9216 8.8039 20.8077 8.74865 20.6744C8.6934 20.5411 8.67897 20.3944 8.70719 20.2529C8.73541 20.1114 8.80501 19.9815 8.90716 19.8796L10.0058 18.7838C10.1463 18.6717 10.3232 18.6155 10.5025 18.626C10.6819 18.6364 10.8511 18.7128 10.9776 18.8404C11.1041 18.9679 11.179 19.1378 11.1879 19.3172C11.1968 19.4966 11.1391 19.6731 11.0258 19.8125L9.93882 20.9112C9.80138 21.047 9.61616 21.1234 9.42299 21.124V21.124Z" fill="white"/>
<path d="M10.2623 24.758C10.0691 24.7574 9.88392 24.6811 9.74649 24.5453C9.67864 24.4776 9.62481 24.3972 9.58808 24.3087C9.55135 24.2202 9.53244 24.1253 9.53244 24.0295C9.53244 23.9336 9.55135 23.8388 9.58808 23.7502C9.62481 23.6617 9.67864 23.5813 9.74649 23.5136L12.2411 21.019C12.3787 20.8865 12.5629 20.8133 12.7539 20.8152C12.9449 20.8171 13.1276 20.894 13.2625 21.0293C13.3974 21.1646 13.4737 21.3474 13.4751 21.5385C13.4765 21.7295 13.4028 21.9135 13.2699 22.0507L10.7781 24.5453C10.6407 24.6811 10.4555 24.7574 10.2623 24.758V24.758Z" fill="white"/>
<path d="M19.9494 25.4516C19.8873 25.4514 19.8255 25.4426 19.7658 25.4253C19.6426 25.3935 19.5298 25.3299 19.4388 25.2409C19.3478 25.152 19.2817 25.0407 19.2471 24.9182L18.1804 21.0656C18.129 20.8793 18.1537 20.6802 18.2491 20.5122C18.3445 20.3441 18.5027 20.2208 18.689 20.1694C18.8752 20.118 19.0743 20.1427 19.2424 20.2381C19.4104 20.3335 19.5337 20.4917 19.5851 20.678L20.3195 23.3241L21.9777 21.6659L21.3949 18.6554C21.3757 18.5617 21.3753 18.4651 21.3935 18.3711C21.4117 18.2772 21.4482 18.1877 21.501 18.1079C21.6075 17.9467 21.7738 17.8344 21.9632 17.7957C22.1525 17.7571 22.3495 17.7952 22.5107 17.9018C22.6719 18.0084 22.7842 18.1746 22.8229 18.364L23.4932 21.7533C23.5167 21.8709 23.5109 21.9925 23.4763 22.1074C23.4418 22.2222 23.3795 22.3268 23.295 22.412L20.4769 25.2272C20.409 25.2987 20.3272 25.3555 20.2364 25.3941C20.1457 25.4327 20.048 25.4523 19.9494 25.4516V25.4516Z" fill="white"/>
<path d="M16.9826 22.3159C16.8867 22.3156 16.7917 22.2965 16.7032 22.2595C16.6147 22.2225 16.5344 22.1683 16.4668 22.1002L12.1916 17.822C12.1 17.732 12.0341 17.6192 12.0008 17.4952C11.9675 17.3712 11.9679 17.2405 12.0021 17.1168C13.5758 11.3465 19.4773 7.52877 25.1281 8.58083C25.2729 8.60738 25.4062 8.67736 25.5103 8.78146C25.6144 8.88557 25.6844 9.01887 25.7109 9.16368C26.763 14.8145 22.9424 20.713 17.175 22.2896C17.1123 22.3069 17.0476 22.3157 16.9826 22.3159V22.3159ZM13.5234 17.0993L17.1925 20.7655C21.8553 19.2821 24.9561 14.5755 24.3587 9.93305C19.7104 9.33563 15.0068 12.4393 13.5234 17.0993Z" fill="white"/>
<path d="M13.4185 16.1376C13.3525 16.1375 13.2869 16.1287 13.2232 16.1114L9.37344 15.0419C9.25053 15.0079 9.13868 14.9423 9.04907 14.8516C8.95946 14.7609 8.89521 14.6483 8.86276 14.525C8.83031 14.4017 8.83079 14.272 8.86415 14.1489C8.89751 14.0259 8.96259 13.9137 9.05287 13.8237L11.871 11.0085C11.9554 10.9237 12.0593 10.861 12.1737 10.826C12.2881 10.7909 12.4093 10.7845 12.5267 10.8074L15.916 11.4777C16.1058 11.5163 16.2724 11.6288 16.3792 11.7903C16.4861 11.9518 16.5244 12.1491 16.4858 12.3389C16.4471 12.5286 16.3347 12.6952 16.1732 12.8021C16.0117 12.9089 15.8143 12.9472 15.6246 12.9086L12.617 12.3257L10.9676 13.9723L13.6137 14.7067C13.7838 14.7536 13.9311 14.8607 14.0282 15.0079C14.1254 15.1552 14.1657 15.3328 14.1419 15.5076C14.118 15.6824 14.0316 15.8426 13.8985 15.9585C13.7655 16.0743 13.5949 16.138 13.4185 16.1376V16.1376Z" fill="white"/>
<path d="M19.9173 16.6447C19.619 16.6461 19.3233 16.588 19.0476 16.474C18.7719 16.3599 18.5217 16.192 18.3116 15.9802C17.9924 15.6628 17.7746 15.2578 17.6859 14.8165C17.5971 14.3752 17.6414 13.9175 17.8131 13.5014C17.9848 13.0853 18.2761 12.7295 18.6502 12.4792C19.0243 12.2289 19.4643 12.0952 19.9144 12.0952C20.3645 12.0952 20.8045 12.2289 21.1786 12.4792C21.5527 12.7295 21.8441 13.0853 22.0157 13.5014C22.1874 13.9175 22.2317 14.3752 22.1429 14.8165C22.0542 15.2578 21.8364 15.6628 21.5173 15.9802V15.9802C21.3075 16.1909 21.0582 16.3581 20.7836 16.4722C20.5091 16.5862 20.2146 16.6448 19.9173 16.6447V16.6447ZM19.9173 13.5584C19.7554 13.5564 19.5966 13.6028 19.4612 13.6916C19.3258 13.7805 19.22 13.9077 19.1574 14.0571C19.0948 14.2064 19.0782 14.371 19.1097 14.5298C19.1413 14.6887 19.2195 14.8345 19.3345 14.9485C19.4906 15.1002 19.6997 15.1851 19.9173 15.1851C20.135 15.1851 20.3441 15.1002 20.5002 14.9485C20.6151 14.8345 20.6934 14.6887 20.7249 14.5298C20.7565 14.371 20.7399 14.2064 20.6772 14.0571C20.6146 13.9077 20.5089 13.7805 20.3735 13.6916C20.2381 13.6028 20.0792 13.5564 19.9173 13.5584V13.5584Z" fill="white"/>
</svg>
