<svg width="34" height="34" viewBox="0 0 34 34" fill="none" xmlns="http://www.w3.org/2000/svg">
<circle cx="17" cy="17" r="17" fill="#9853EB"/>
<path d="M10.0058 25.5974C9.81256 25.5974 9.62725 25.5206 9.49062 25.384C9.35398 25.2473 9.27722 25.062 9.27722 24.8688V9.13165C9.27722 8.93842 9.35398 8.7531 9.49062 8.61647C9.62725 8.47984 9.81256 8.40308 10.0058 8.40308C10.199 8.40308 10.3843 8.47984 10.521 8.61647C10.6576 8.7531 10.7344 8.93842 10.7344 9.13165V24.8688C10.7344 25.062 10.6576 25.2473 10.521 25.384C10.3843 25.5206 10.199 25.5974 10.0058 25.5974Z" fill="white"/>
<path d="M23.9944 20.3516H10.0058C9.81256 20.3516 9.62725 20.2749 9.49062 20.1383C9.35398 20.0016 9.27722 19.8163 9.27722 19.6231C9.27722 19.4298 9.35398 19.2445 9.49062 19.1079C9.62725 18.9713 9.81256 18.8945 10.0058 18.8945H22.6829L20.1679 14.7562C20.0978 14.6423 20.0607 14.5111 20.0607 14.3774C20.0607 14.2436 20.0978 14.1124 20.1679 13.9985L22.6829 9.86022H10.0058C9.81256 9.86022 9.62725 9.78346 9.49062 9.64683C9.35398 9.51019 9.27722 9.32488 9.27722 9.13165C9.27722 8.93842 9.35398 8.7531 9.49062 8.61647C9.62725 8.47984 9.81256 8.40308 10.0058 8.40308H23.9944C24.1236 8.40336 24.2504 8.43798 24.3618 8.50341C24.4732 8.56884 24.5652 8.66271 24.6283 8.77541C24.6915 8.88811 24.7236 9.01557 24.7212 9.14475C24.7189 9.27392 24.6823 9.40015 24.6151 9.5105L21.6425 14.3774L24.6151 19.2442C24.6823 19.3546 24.7189 19.4808 24.7212 19.61C24.7236 19.7391 24.6915 19.8666 24.6283 19.9793C24.5652 20.092 24.4732 20.1859 24.3618 20.2513C24.2504 20.3167 24.1236 20.3514 23.9944 20.3516V20.3516Z" fill="white"/>
</svg>
