<svg width="34" height="34" viewBox="0 0 34 34" fill="none" xmlns="http://www.w3.org/2000/svg">
<circle cx="17" cy="17" r="17" fill="#9853EB"/>
<path d="M24.8687 25.5974H9.13153C8.9383 25.5974 8.75298 25.5206 8.61635 25.384C8.47971 25.2473 8.40295 25.062 8.40295 24.8688V9.13165C8.40295 8.93842 8.47971 8.7531 8.61635 8.61647C8.75298 8.47984 8.9383 8.40308 9.13153 8.40308C9.32475 8.40308 9.51007 8.47984 9.6467 8.61647C9.78334 8.7531 9.8601 8.93842 9.8601 9.13165V24.1402H24.8687C25.0619 24.1402 25.2472 24.217 25.3838 24.3536C25.5205 24.4902 25.5972 24.6756 25.5972 24.8688C25.5972 25.062 25.5205 25.2473 25.3838 25.384C25.2472 25.5206 25.0619 25.5974 24.8687 25.5974Z" fill="white"/>
<path d="M24.8687 16.3852C24.6754 16.3852 24.4901 16.3084 24.3535 16.1718C24.2168 16.0352 24.1401 15.8498 24.1401 15.6566V12.8414H21.3249C21.1317 12.8414 20.9463 12.7647 20.8097 12.628C20.6731 12.4914 20.5963 12.3061 20.5963 12.1128C20.5963 11.9196 20.6731 11.7343 20.8097 11.5977C20.9463 11.461 21.1317 11.3843 21.3249 11.3843H24.8687C25.0619 11.3843 25.2472 11.461 25.3838 11.5977C25.5205 11.7343 25.5972 11.9196 25.5972 12.1128V15.6566C25.5972 15.8498 25.5205 16.0352 25.3838 16.1718C25.2472 16.3084 25.0619 16.3852 24.8687 16.3852V16.3852Z" fill="white"/>
<path d="M19.1858 19.4104H19.1129C18.9966 19.3988 18.8848 19.3594 18.7869 19.2955C18.689 19.2316 18.6079 19.1451 18.5505 19.0432L16.4231 15.2692L13.1795 18.982C13.0501 19.1216 12.8715 19.2053 12.6816 19.2153C12.4916 19.2254 12.3051 19.161 12.1618 19.0359C12.0185 18.9108 11.9295 18.7347 11.9139 18.5451C11.8982 18.3555 11.957 18.1673 12.0779 18.0203L15.9801 13.5294C16.0573 13.4422 16.1541 13.3746 16.2625 13.3321C16.3709 13.2895 16.4878 13.2732 16.6037 13.2846C16.7213 13.2945 16.8348 13.3328 16.9343 13.3963C17.0338 13.4598 17.1163 13.5464 17.1749 13.6489L19.2994 17.4374L24.3179 11.6351C24.3806 11.5628 24.457 11.5035 24.5427 11.4607C24.6283 11.4179 24.7216 11.3924 24.8171 11.3856C24.9127 11.3788 25.0086 11.391 25.0994 11.4213C25.1903 11.4516 25.2743 11.4995 25.3466 11.5622C25.4189 11.625 25.4782 11.7014 25.521 11.7871C25.5638 11.8727 25.5893 11.966 25.5961 12.0615C25.6028 12.1571 25.5907 12.253 25.5604 12.3438C25.5301 12.4347 25.4822 12.5187 25.4194 12.591L19.722 19.1598C19.6555 19.2372 19.5733 19.2996 19.4809 19.3428C19.3884 19.386 19.2878 19.409 19.1858 19.4104V19.4104Z" fill="white"/>
</svg>
