<svg width="27" height="33" viewBox="0 0 27 33" fill="none" xmlns="http://www.w3.org/2000/svg">
<path fill-rule="evenodd" clip-rule="evenodd" d="M18.2492 0.883023C18.2769 0.889954 19.7313 2.78905 21.4834 5.11093C23.2425 7.42589 24.6761 9.32498 24.6761 9.33885C24.683 9.34578 23.9628 9.90026 21.4834 11.7786L22.4392 11.8132C23.3325 11.8479 23.4226 11.8687 23.8104 12.0697C24.0666 12.2014 24.3644 12.437 24.593 12.6865C24.8077 12.9291 25.0224 13.2549 25.1124 13.4767C25.2509 13.844 25.2578 13.9757 25.2994 20.8928L25.618 21.1839C25.798 21.3503 26.0196 21.6344 26.1235 21.8285C26.3036 22.1751 26.3036 22.1889 26.3244 23.9425C26.3451 25.6336 26.3382 25.7307 26.1928 26.1257C26.082 26.4238 25.9296 26.6456 25.2994 27.2693L25.2786 28.815C25.2578 30.2081 25.244 30.3883 25.1055 30.7348C25.0224 30.9428 24.8354 31.2824 24.6899 31.4903C24.5514 31.6983 24.2467 32.0032 24.0182 32.1765C23.7758 32.3498 23.4156 32.53 23.1525 32.6132C22.7162 32.7448 22.4392 32.7448 2.54916 32.7102L2.08516 32.4815C1.82199 32.3636 1.44109 32.0933 1.2264 31.8923C0.963227 31.6497 0.762388 31.3656 0.333008 30.4992V13.7192L0.554623 13.2687C0.686208 12.9984 0.907823 12.6935 1.10866 12.5063C1.28872 12.34 1.61422 12.1251 1.82199 12.0281C2.14056 11.8825 2.33447 11.8479 3.79575 11.7924L9.02449 7.82789C11.8986 5.64462 15.1397 3.19105 16.227 2.36626C17.3143 1.54147 18.2215 0.869161 18.2492 0.883023ZM4.65451 12.4301C4.65451 12.4509 4.87613 12.7558 5.15314 13.0954C5.51327 13.5598 5.70026 13.7331 5.85954 13.7747C5.9842 13.8093 6.24737 13.8232 6.44821 13.8093L6.82219 13.7885C6.2543 13.04 6.01883 12.7281 5.9288 12.6103L5.76951 12.4023C7.00225 11.4597 7.40393 11.1686 7.45241 11.1478C7.50088 11.127 7.63939 11.2379 7.77098 11.4112C7.90256 11.5776 8.03415 11.7508 8.06877 11.7994C8.1034 11.8548 7.97182 11.9934 7.63939 12.2291L7.15461 12.5756L7.85408 13.5113L7.397 13.8856C13.3391 13.8856 13.4152 13.8787 13.0759 13.7678C12.8889 13.6984 12.5911 13.5668 12.418 13.4628C12.2448 13.3658 11.9609 13.1232 11.7808 12.9291C11.5938 12.735 11.3515 12.3677 11.2268 12.1112C11.0467 11.7231 10.9983 11.529 10.9706 11.0508C10.9567 10.7112 10.9775 10.3161 11.026 10.1151C11.0744 9.92798 11.1991 9.60222 11.2961 9.39429C11.3999 9.1933 11.6562 8.86061 11.8639 8.65961C12.0856 8.44475 12.4457 8.19523 12.7296 8.06354C13.1313 7.8764 13.3183 7.82789 13.8031 7.80709C14.2325 7.7863 14.5095 7.81403 14.8419 7.90413C15.0912 7.97344 15.4652 8.13978 15.673 8.2784C15.8807 8.41702 16.1577 8.65268 16.2824 8.80516C16.4071 8.95071 16.6287 9.31112 16.7672 9.58836C17.0096 10.0874 17.0234 10.1359 17.0165 10.8013C17.0165 11.3488 16.9819 11.5845 16.8641 11.8825C16.781 12.0905 16.6148 12.4162 16.4902 12.6103C16.3655 12.7974 16.0677 13.0954 15.8253 13.2687C15.5899 13.442 15.2159 13.6499 14.9943 13.7331L14.5995 13.8856L17.0234 13.8994L23.291 9.14478C23.0417 8.81902 21.8851 7.2942 20.5623 5.54066C19.2327 3.78711 18.1315 2.32467 18.1038 2.29695C18.0761 2.26922 15.0427 4.52873 11.3515 7.31499C7.6671 10.1082 4.65451 12.4093 4.65451 12.4301ZM12.9028 9.08933C12.7712 9.1725 12.5773 9.32498 12.4734 9.43588C12.3764 9.53985 12.2171 9.76857 12.1271 9.94184C11.9955 10.1983 11.9678 10.3577 11.9678 10.8429C11.9678 11.3211 12.0024 11.4875 12.1271 11.7231C12.2102 11.8895 12.3834 12.132 12.508 12.2707C12.6257 12.4093 12.9028 12.6033 13.1105 12.7004C13.4083 12.8459 13.5953 12.8806 13.9762 12.8875C14.3156 12.8875 14.558 12.839 14.7726 12.742C14.9458 12.6657 15.2228 12.4786 15.3959 12.3192C15.5829 12.1528 15.7768 11.8895 15.8738 11.6677C15.9846 11.4043 16.0331 11.1617 16.04 10.8429C16.04 10.5171 15.9915 10.2884 15.8738 10.0181C15.7699 9.78243 15.5691 9.51905 15.3475 9.30419C15.0912 9.07547 14.8696 8.93685 14.6203 8.86754C14.4194 8.81209 14.1147 8.76357 13.9416 8.76357C13.7684 8.7705 13.5191 8.80516 13.3875 8.85368C13.256 8.90219 13.0343 9.00616 12.9028 9.08933ZM2.11978 13.0053C2.0159 13.0608 1.80814 13.2479 1.66963 13.4143C1.51727 13.5876 1.37183 13.8509 1.33028 14.0311C1.27487 14.2668 1.27487 14.4331 1.34413 14.7242C1.41338 15.0292 1.49649 15.1748 1.78043 15.4589C2.06438 15.7431 2.20289 15.8263 2.50068 15.8886C2.76385 15.951 5.55482 15.9718 12.8197 15.9718C21.5527 15.9718 22.8131 15.958 23.1179 15.8679C23.3118 15.8124 23.568 15.6738 23.6996 15.5698C23.8312 15.4659 24.0112 15.2233 24.1013 15.0361C24.1844 14.8421 24.2606 14.5648 24.2606 14.4123C24.2606 14.2599 24.219 14.0103 24.1775 13.8579C24.129 13.7054 23.9628 13.4559 23.8104 13.2964C23.6442 13.1301 23.3949 12.9707 23.1871 12.9014C22.9101 12.8043 22.5846 12.7836 21.5111 12.7836H20.1745L18.7548 13.8579L21.9751 13.8925C22.1968 14.1905 22.2591 14.3292 22.2522 14.3915C22.2522 14.4609 22.176 14.5925 22.079 14.6896L21.9128 14.8629C3.71265 14.8629 3.62261 14.8629 3.4841 14.7242C3.40792 14.648 3.34559 14.5024 3.34559 14.3915C3.34559 14.2876 3.38715 14.142 3.44255 14.0658C3.51873 13.9618 3.65031 13.9202 3.98966 13.8925L4.44675 13.8579L3.65724 12.7905C2.90929 12.7905 2.60457 12.8182 2.50068 12.8459C2.3968 12.8806 2.22366 12.9499 2.11978 13.0053ZM1.26795 30.0417C1.51727 30.6933 1.68348 30.9566 1.88432 31.1576C2.08516 31.3586 2.34832 31.525 2.60457 31.622L2.99932 31.7745L22.7716 31.7398C23.3118 31.4626 23.5957 31.227 23.7619 31.0398C23.9212 30.8527 24.1013 30.5616 24.1567 30.3883C24.2329 30.1596 24.2606 29.7437 24.2606 28.8288V27.5812C17.5082 27.5327 17.1204 27.5189 16.7464 27.408C16.5179 27.3317 16.13 27.1446 15.8876 26.9782C15.6383 26.8119 15.3198 26.5416 15.1674 26.3683C15.022 26.195 14.7934 25.8346 14.6618 25.5713C14.5025 25.2524 14.3987 24.8989 14.3433 24.5316C14.2809 24.0742 14.2879 23.887 14.371 23.4573C14.4333 23.1731 14.5649 22.7503 14.6757 22.5216C14.7865 22.2929 15.0358 21.9325 15.2297 21.7245C15.4236 21.5166 15.7353 21.2463 15.9223 21.1216C16.1093 20.9968 16.4486 20.8304 16.6772 20.7403C17.0858 20.5879 17.1412 20.5809 20.6801 20.5671L24.2606 20.5463C24.2606 17.3788 24.2398 16.4639 24.2121 16.4778C24.1775 16.4916 23.9697 16.5887 23.7411 16.6996L23.3256 16.9075C3.65031 16.9422 2.50761 16.9283 2.16826 16.8313C1.9605 16.7758 1.66963 16.6511 1.53112 16.554L1.27487 16.3877L1.26795 30.0417ZM16.504 21.9394C16.3309 22.0364 16.0885 22.2305 15.9638 22.3691C15.8392 22.5078 15.6522 22.785 15.5483 22.986C15.3821 23.3117 15.3613 23.4226 15.3613 24.0464C15.3613 24.6564 15.3821 24.7811 15.5483 25.1346C15.6522 25.3564 15.8876 25.6752 16.0677 25.8554C16.2478 26.0287 16.5663 26.2505 16.781 26.3545L17.1619 26.5416L24.3644 26.5762C24.8492 26.3267 25.0501 26.1465 25.1539 25.9871C25.3271 25.7237 25.334 25.7029 25.3479 24.1712C25.3617 22.8127 25.3479 22.5909 25.2371 22.3275C25.1747 22.1681 24.9947 21.9394 24.8492 21.8285L24.5791 21.6206C18.1731 21.5929 17.2381 21.6067 17.0581 21.676C16.9195 21.7245 16.6702 21.8424 16.504 21.9394Z" fill="#FFD521"/>
<path fill-rule="evenodd" clip-rule="evenodd" d="M17.9589 22.2897C18.132 22.2828 18.4091 22.3313 18.5822 22.3868C18.7553 22.4422 19.0047 22.5808 19.1362 22.6848C19.2678 22.7957 19.4617 23.0521 19.5725 23.2601C19.7111 23.5373 19.7595 23.7314 19.7595 24.0155C19.7595 24.2235 19.718 24.5215 19.6695 24.6671C19.628 24.8195 19.4479 25.0968 19.2748 25.2839C19.0808 25.4918 18.8454 25.6651 18.6515 25.7344C18.4783 25.7968 18.1667 25.8453 17.9589 25.8453C17.7511 25.8384 17.4672 25.7899 17.3356 25.7344C17.204 25.679 16.9686 25.5265 16.8231 25.3948C16.6708 25.2631 16.4769 24.9997 16.3868 24.8126C16.276 24.57 16.2275 24.3344 16.2275 24.0502C16.2275 23.7314 16.2691 23.5442 16.4145 23.2601C16.5253 23.0521 16.7192 22.7957 16.8508 22.6917C16.9824 22.5878 17.2179 22.4561 17.3702 22.3937C17.5226 22.3382 17.7858 22.2897 17.9589 22.2897ZM17.3564 23.572C17.3079 23.6413 17.2456 23.8284 17.2248 23.9809C17.1902 24.2027 17.2179 24.3066 17.3495 24.5007C17.4533 24.6601 17.5988 24.7641 17.7511 24.8057C17.9035 24.8473 18.0836 24.8473 18.2359 24.8057C18.3883 24.7641 18.5337 24.6532 18.6376 24.5007C18.7692 24.3066 18.7969 24.2027 18.7623 23.9809C18.7415 23.8284 18.6653 23.6482 18.603 23.572C18.5337 23.5027 18.3744 23.3987 18.2498 23.3502C18.132 23.2947 18.0074 23.2531 17.9728 23.2531C17.9451 23.2601 17.8204 23.3017 17.6888 23.3502C17.5572 23.3987 17.4049 23.4957 17.3564 23.572Z" fill="#FFD521"/>
</svg>
