<svg width="23" height="25" viewBox="0 0 23 25" fill="none" xmlns="http://www.w3.org/2000/svg">
<path fill-rule="evenodd" clip-rule="evenodd" d="M0.555662 0.129426C0.49406 0.200361 0.343479 0.372721 0.22152 0.513347C0.0995611 0.653973 -0.000619356 0.770331 2.88306e-06 0.773443C2.88306e-06 0.775932 0.922161 1.51266 2.04841 2.41055L4.09744 4.04393C4.21629 4.54359 4.30652 4.92377 4.37434 5.21125C4.44216 5.49872 4.54546 5.93429 4.60395 6.17883C4.66181 6.42337 4.73524 6.73262 4.76635 6.8664C4.79746 7.00018 4.87338 7.32064 4.93498 7.57887C4.99658 7.8371 5.08431 8.20857 5.13036 8.40333C5.17641 8.59809 5.2517 8.91792 5.29836 9.11268C5.34503 9.30745 5.42779 9.65652 5.48193 9.88737C5.53606 10.1182 5.62442 10.4909 5.67793 10.7149C5.73144 10.939 5.80736 11.2594 5.84656 11.4274C5.88576 11.5954 5.96727 11.9383 6.02701 12.1897C6.08674 12.441 6.16825 12.7845 6.20746 12.9519C6.24666 13.1193 6.32941 13.4684 6.39102 13.7266C6.45262 13.9848 6.53538 14.3339 6.57458 14.5013C6.61378 14.6687 6.70027 15.0345 6.76685 15.3133C6.83343 15.5921 6.91992 15.9592 6.95974 16.1284C6.99957 16.2977 7.07672 16.6225 7.13086 16.8502C7.18499 17.078 7.26091 17.3972 7.29886 17.5596L7.36855 17.8551C7.34615 17.8694 7.30757 17.8981 7.26837 17.9273C7.22855 17.9566 7.16135 18.0088 7.11841 18.0443C7.07548 18.0791 6.9977 18.1476 6.94543 18.1961C6.89254 18.2447 6.81227 18.3249 6.76685 18.3747C6.72142 18.4245 6.66231 18.4917 6.63493 18.524C6.60755 18.5564 6.55902 18.618 6.52666 18.6609C6.49431 18.7039 6.44266 18.7767 6.41155 18.8227C6.38044 18.8688 6.33377 18.9416 6.30826 18.9845C6.28212 19.0274 6.23981 19.1027 6.2143 19.1525C6.18817 19.2023 6.14959 19.2807 6.12843 19.3267C6.1079 19.3728 6.07679 19.4456 6.05936 19.4885C6.04194 19.5314 6.01705 19.5968 6.00336 19.6347C5.99029 19.6727 5.96665 19.7449 5.95172 19.7965C5.93678 19.8475 5.91749 19.9179 5.90878 19.9521C5.90007 19.9863 5.88514 20.056 5.87456 20.1076C5.8646 20.1587 5.85029 20.2414 5.84345 20.2912C5.83598 20.341 5.82602 20.4262 5.82104 20.481C5.81607 20.5357 5.80984 20.6446 5.80798 20.7237C5.80549 20.8077 5.80673 20.9178 5.81109 20.9912C5.81482 21.0597 5.82229 21.1518 5.82727 21.1966C5.83225 21.2414 5.84158 21.3135 5.84842 21.3583C5.85527 21.4031 5.86834 21.4753 5.87705 21.5201C5.88638 21.5649 5.90069 21.629 5.90878 21.6632C5.91749 21.6975 5.9374 21.769 5.95296 21.8219C5.96852 21.8748 5.99589 21.9588 6.01394 22.0086C6.03198 22.0584 6.06372 22.1392 6.08425 22.189C6.10541 22.2388 6.14772 22.3297 6.17759 22.3913C6.20808 22.4529 6.25475 22.5412 6.2815 22.5873C6.30826 22.6333 6.35244 22.7061 6.38044 22.749C6.40844 22.792 6.45511 22.8592 6.48373 22.8984C6.51235 22.9376 6.55653 22.9967 6.58204 23.0291C6.60818 23.0614 6.6536 23.1162 6.68285 23.1504C6.71271 23.1846 6.76623 23.2431 6.80169 23.2804C6.83716 23.3178 6.90685 23.3862 6.95663 23.4323C7.00641 23.4783 7.0873 23.5486 7.13708 23.5884C7.18686 23.6283 7.26775 23.6899 7.31753 23.7253C7.36731 23.7608 7.44011 23.81 7.47931 23.8349C7.51851 23.8597 7.57887 23.8958 7.61309 23.9157C7.64732 23.9357 7.72323 23.9755 7.7811 24.0047C7.83896 24.0333 7.92048 24.0719 7.96155 24.09C8.00261 24.108 8.08102 24.1391 8.13577 24.1603C8.19053 24.1808 8.27702 24.2107 8.32867 24.2269C8.37969 24.2424 8.46556 24.2667 8.51845 24.2798C8.57134 24.2928 8.65099 24.3109 8.69579 24.3196C8.74059 24.3283 8.80343 24.3395 8.83579 24.3451C8.86815 24.3501 8.93286 24.3582 8.97891 24.3638C9.02495 24.3687 9.10335 24.3756 9.15313 24.3793C9.20291 24.3824 9.30931 24.3855 9.38958 24.3855C9.46985 24.3855 9.57625 24.3824 9.62603 24.3793C9.67581 24.3756 9.75422 24.3687 9.80026 24.3638C9.84631 24.3582 9.91911 24.3488 9.96204 24.342C10.005 24.3351 10.0759 24.3227 10.1207 24.3134C10.1655 24.3046 10.2396 24.2878 10.2856 24.276C10.3317 24.2642 10.4032 24.2443 10.4443 24.2318C10.4853 24.2194 10.565 24.1926 10.6216 24.1721C10.6782 24.1522 10.7635 24.1186 10.8114 24.0981C10.8593 24.0775 10.9402 24.0402 10.9918 24.0153C11.0429 23.9898 11.1231 23.9481 11.1692 23.9213C11.2152 23.8952 11.298 23.8442 11.3527 23.8087C11.4075 23.7726 11.4884 23.716 11.5332 23.6824C11.578 23.6494 11.6421 23.599 11.6763 23.571C11.7105 23.5424 11.7815 23.4802 11.8337 23.4316C11.8866 23.3831 11.9657 23.3041 12.0092 23.2562C12.0534 23.2083 12.1181 23.1342 12.1529 23.0913C12.1878 23.0483 12.2394 22.983 12.2674 22.945C12.2954 22.9071 12.3359 22.8498 12.3577 22.8175C12.3794 22.7851 12.4236 22.7148 12.4554 22.6619C12.4877 22.609 12.5425 22.5082 12.5779 22.4379C12.6134 22.3676 12.6588 22.2724 12.6781 22.2264C12.6974 22.1803 12.7273 22.1044 12.7447 22.0584C12.7615 22.0123 12.7895 21.9283 12.8063 21.8717C12.8231 21.8151 12.8467 21.7298 12.8586 21.6819C12.8704 21.634 12.8872 21.5587 12.8959 21.5139C12.9046 21.4691 12.9183 21.3851 12.927 21.3272C12.9351 21.2694 12.9451 21.1891 12.9488 21.1499C12.9525 21.1107 12.9575 21.023 12.96 20.9551C12.9637 20.8556 12.9662 20.8313 12.9737 20.8263C12.9787 20.8232 13.0571 20.8021 13.1479 20.779C13.2388 20.756 13.4945 20.6901 13.7173 20.6328C13.9394 20.5749 14.3022 20.481 14.5231 20.4244C14.7439 20.3677 15.1328 20.2669 15.388 20.201C15.6431 20.135 15.9791 20.0479 16.1346 20.0081C16.2902 19.9683 16.5883 19.8911 16.7973 19.837C17.0064 19.7828 17.3424 19.6957 17.544 19.6441C17.7456 19.5924 18.0767 19.5072 18.2783 19.4543C18.4799 19.402 18.735 19.3361 18.8445 19.3081C18.954 19.2801 19.2577 19.2017 19.5196 19.1338C19.7816 19.066 20.1176 18.9789 20.2663 18.9409C20.415 18.903 20.751 18.8159 21.013 18.748C21.275 18.6802 21.611 18.5931 21.7597 18.5552C21.9084 18.5172 22.2027 18.4413 22.413 18.3865C22.6234 18.3318 22.8405 18.2758 22.8953 18.2615C22.95 18.2471 22.9973 18.2341 22.9998 18.2322C23.0029 18.2303 22.9668 18.0804 22.9208 17.8987C22.8741 17.717 22.8169 17.493 22.7926 17.4009C22.7683 17.3088 22.7484 17.2323 22.7472 17.231C22.7466 17.2304 22.5568 17.2783 22.3259 17.3381C22.0951 17.3978 21.8655 17.4569 21.8157 17.4693C21.7659 17.4818 21.4959 17.5515 21.2152 17.6249C20.9346 17.6983 20.5787 17.7898 20.425 17.8296C20.2707 17.8688 19.9515 17.9516 19.7156 18.0132C19.4798 18.0748 19.1643 18.1563 19.0156 18.1943C18.8669 18.2322 18.585 18.305 18.3903 18.356C18.1955 18.4071 17.8439 18.4979 17.6094 18.5583C17.3748 18.6186 17.0556 18.7014 16.9 18.7418C16.7444 18.7823 16.5061 18.8439 16.3711 18.8787C16.2361 18.9136 15.9853 18.9783 15.8142 19.0225C15.6431 19.0673 15.3351 19.1469 15.1297 19.1998C14.9244 19.2533 14.6008 19.3367 14.411 19.3858C14.2213 19.435 13.9145 19.5146 13.7297 19.5626C13.5449 19.6098 13.2661 19.682 13.1106 19.7219C12.955 19.7617 12.8268 19.7934 12.8262 19.7922C12.8256 19.7909 12.8051 19.7331 12.7814 19.6627C12.7578 19.5924 12.7223 19.496 12.7024 19.4481C12.6825 19.4002 12.6364 19.3006 12.5997 19.2272C12.563 19.1537 12.5101 19.0542 12.4815 19.0063C12.4535 18.9584 12.4074 18.8843 12.3794 18.8414C12.3514 18.7985 12.2992 18.7244 12.2631 18.6765C12.2276 18.6286 12.1722 18.5589 12.1405 18.5209C12.1088 18.483 12.0472 18.4139 12.0042 18.366C11.9607 18.3187 11.8848 18.2428 11.835 18.1974C11.7852 18.1519 11.7143 18.0885 11.6763 18.0567C11.6384 18.025 11.5743 17.974 11.5332 17.9435C11.4921 17.9124 11.4224 17.8632 11.3776 17.8334C11.3328 17.8041 11.2607 17.7574 11.2159 17.7307C11.1711 17.7033 11.0678 17.6479 10.9856 17.6062C10.9035 17.5646 10.7859 17.511 10.7243 17.4868C10.6627 17.4619 10.57 17.4283 10.5189 17.4109C10.4673 17.3941 10.3852 17.3692 10.3354 17.3555C10.2856 17.3418 10.2128 17.3237 10.1736 17.3144C10.1344 17.3057 10.0628 17.2914 10.0149 17.2827C9.96702 17.274 9.88426 17.2615 9.83137 17.2547C9.77848 17.2485 9.68888 17.2397 9.63226 17.2354C9.56754 17.231 9.45367 17.2292 9.32425 17.2317C9.19793 17.2335 9.08406 17.2385 9.02869 17.2447C8.97891 17.2503 8.9005 17.2609 8.85446 17.2677C8.80841 17.2746 8.73561 17.2877 8.69268 17.2957C8.64974 17.3045 8.57134 17.3225 8.51845 17.3356C8.46556 17.3493 8.39462 17.3685 8.36102 17.3791L8.30067 17.3978C8.29133 17.3617 8.22973 17.0991 8.15755 16.7911C8.08537 16.4831 7.97586 16.017 7.91426 15.7551C7.85203 15.4931 7.76554 15.1235 7.72136 14.9337C7.67656 14.7439 7.57887 14.3283 7.5042 14.0097C7.42891 13.6911 7.33806 13.3035 7.30197 13.1479C7.26588 12.9923 7.1825 12.6395 7.11779 12.3639C7.05246 12.0882 6.97156 11.7441 6.93796 11.5985C6.90436 11.4529 6.81787 11.0852 6.74569 10.7803C6.67413 10.4754 6.58702 10.1064 6.5528 9.95893C6.51857 9.81146 6.44142 9.48416 6.38168 9.23091C6.32195 8.97766 6.24915 8.66654 6.21928 8.54023C6.19003 8.41391 6.08985 7.98768 5.99776 7.59442C5.90505 7.20055 5.77936 6.6648 5.71775 6.40284C5.65615 6.14087 5.56779 5.76566 5.52175 5.56904C5.4757 5.37241 5.37552 4.94493 5.29899 4.62012C5.22183 4.29469 5.13036 3.90517 5.09489 3.75334L5.0308 3.47769C4.41852 2.98861 3.95308 2.61714 3.60214 2.33651C3.25058 2.05588 2.66007 1.5836 2.28922 1.28741C1.91836 0.991226 1.40377 0.580549 1.14617 0.374588C0.889182 0.168627 0.675754 0 0.673265 0C0.670776 0 0.617886 0.0578682 0.555662 0.128803V0.129426ZM16.0071 1.77462C15.8876 1.80511 15.5398 1.89472 15.2355 1.97312C14.9312 2.05152 14.543 2.15108 14.3737 2.19401C14.2045 2.23695 13.8933 2.31722 13.683 2.37135C13.4727 2.42549 13.1448 2.50949 12.955 2.55802C12.7652 2.60656 12.4485 2.68745 12.2519 2.73847C12.0553 2.7895 11.7385 2.87039 11.5488 2.91892C11.359 2.96746 11.0422 3.04835 10.8456 3.09937C10.649 3.15039 10.3926 3.21573 10.2763 3.2456C10.1599 3.27546 9.86871 3.35013 9.62915 3.41173C9.38958 3.47334 9.19109 3.5256 9.1886 3.52747C9.18611 3.52996 9.24771 3.78508 9.32674 4.09495C9.40514 4.40483 9.5159 4.84039 9.57252 5.06253C9.62852 5.28529 9.72124 5.65055 9.77848 5.87455C9.83511 6.09856 9.94898 6.54533 10.0305 6.86703C10.112 7.18872 10.234 7.66909 10.3018 7.93416C10.369 8.19924 10.4878 8.66841 10.5662 8.97641C10.6845 9.44309 10.7062 9.53767 10.6994 9.54265C10.6919 9.54763 10.705 9.6055 10.7778 9.8911C10.8257 10.0796 10.9209 10.4517 10.9881 10.7187C11.0559 10.9856 11.1611 11.3988 11.2215 11.6365C11.2824 11.8742 11.4013 12.3421 11.4865 12.6756C11.5718 13.0091 11.6925 13.4827 11.7547 13.7272C11.8169 13.9717 11.9327 14.4285 12.0123 14.7415C12.092 15.0544 12.2164 15.5429 12.2892 15.8273C12.3614 16.1116 12.4958 16.6393 12.5879 17.0002C12.68 17.3611 12.7808 17.7574 12.8119 17.8806C12.843 18.0039 12.8691 18.1053 12.8698 18.1065C12.8704 18.1078 13.0739 18.0567 13.3221 17.9933C13.5704 17.9298 13.8629 17.8558 13.9724 17.8278C14.0819 17.7998 14.4054 17.7176 14.6911 17.6442C14.9767 17.5714 15.4371 17.4532 15.7146 17.3822C15.9922 17.3119 16.4103 17.2049 16.6449 17.1452C16.8795 17.0861 17.2279 16.9964 17.4196 16.9473C17.6112 16.8981 17.9516 16.811 18.1756 16.7544C18.3996 16.6972 18.7244 16.6144 18.8974 16.5702C19.0704 16.5254 19.3753 16.4476 19.5756 16.3966C19.776 16.3462 20.186 16.2411 20.4872 16.1639C20.7884 16.0874 21.2053 15.9803 21.4143 15.9268C21.6234 15.8739 21.7945 15.8291 21.7952 15.8285C21.7964 15.8279 21.7634 15.6953 21.7217 15.5348C21.6807 15.3743 21.5911 15.0208 21.5226 14.7508C21.4542 14.4807 21.3758 14.174 21.349 14.0694C21.3223 13.9649 21.2482 13.6737 21.1841 13.4223C21.1206 13.1709 21.0236 12.7914 20.9694 12.5792C20.9153 12.367 20.8232 12.0055 20.7647 11.7765C20.7069 11.5475 20.6042 11.1437 20.537 10.8805C20.4698 10.6173 20.3397 10.1058 20.2476 9.74488C20.1556 9.38398 20.0311 8.89366 19.9701 8.65596C19.9098 8.41827 19.8059 8.0107 19.7399 7.7506C19.6733 7.49051 19.6192 7.27584 19.6192 7.27335C19.6192 7.27024 19.6099 7.26961 19.5993 7.27148C19.5881 7.27335 19.2807 7.35113 18.9161 7.44509C18.5514 7.53842 18.1451 7.64296 18.0126 7.67656C17.88 7.71016 17.7705 7.73691 17.7693 7.73505C17.768 7.73318 17.7164 7.53033 17.6535 7.28393C17.5913 7.03752 17.483 6.61066 17.4127 6.33501C17.343 6.05936 17.2086 5.52921 17.1141 5.15587C17.0195 4.78253 16.867 4.18207 16.7756 3.82117C16.6841 3.46027 16.5621 2.9799 16.5049 2.75403C16.4476 2.52816 16.3655 2.20335 16.3219 2.03223C16.2647 1.80574 16.2404 1.72049 16.2342 1.71987C16.2292 1.71925 16.1272 1.74413 16.0071 1.77462Z" fill="#FFD521"/>
<path d="M14.6814 3.22017C14.9172 3.15981 15.196 3.08888 15.3005 3.0615C15.405 3.03412 15.4959 3.01172 15.5027 3.01172C15.5139 3.0111 15.565 3.21021 16.1337 5.48885C16.474 6.85218 16.7528 7.97283 16.7528 7.97967C16.7534 7.99087 16.7261 7.99896 16.4703 8.0643L15.7081 8.25906C15.4449 8.32688 14.9838 8.44449 14.6845 8.52102C14.3852 8.59756 13.9733 8.70271 13.7698 8.75436C13.5663 8.80601 13.2596 8.88441 13.0884 8.92859C12.9298 8.96954 12.7017 9.0276 12.5602 9.06361L12.5284 9.0717C12.3915 9.10655 12.142 9.16939 11.9746 9.21233C11.8073 9.25526 11.6697 9.28886 11.6691 9.28824C11.6685 9.287 11.4968 8.5988 11.2871 7.75878C11.078 6.91876 10.7986 5.79873 10.6673 5.26982C10.5354 4.74092 10.429 4.30784 10.4296 4.30722C10.4309 4.3066 10.6331 4.25433 10.8795 4.19148C11.1259 4.12802 11.4507 4.04464 11.6013 4.00668C11.7519 3.96872 12.081 3.88472 12.3324 3.82001C12.5838 3.7553 12.9074 3.67316 13.0511 3.63645L13.7822 3.44978C14.0405 3.38382 14.4455 3.27991 14.6814 3.22017Z" fill="white"/>
<path d="M18.0757 8.7164C18.3993 8.63489 18.7116 8.55587 18.7695 8.54031C18.8274 8.52538 18.879 8.51231 18.8834 8.51231C18.8871 8.51169 18.8933 8.52227 18.8964 8.53533L19.0277 9.05615C19.0968 9.32993 19.2312 9.86506 19.327 10.2446L19.3485 10.3296C19.4451 10.7124 19.5878 11.2777 19.678 11.6353C19.775 12.0205 19.9474 12.7037 20.0606 13.1536C20.1745 13.6035 20.3313 14.2251 20.4091 14.535C20.4869 14.8448 20.5491 15.1 20.5466 15.1018C20.5447 15.1043 20.2305 15.1846 19.8491 15.281C19.4676 15.3768 18.8305 15.538 18.4335 15.6388C18.0365 15.739 17.3825 15.9045 16.9805 16.0066C16.5786 16.1086 15.919 16.2754 15.5152 16.3774C15.1113 16.4801 14.5152 16.6307 14.1898 16.7128C13.865 16.7949 13.5981 16.8615 13.5974 16.8603C13.5962 16.8596 13.5371 16.6269 13.4655 16.3426C13.394 16.0582 13.2508 15.4913 13.1476 15.0825C13.0443 14.6737 12.8794 14.0185 12.7804 13.6265L12.4164 12.1829C12.315 11.7809 12.165 11.1867 12.0829 10.8625C11.9753 10.435 11.9361 10.272 11.9417 10.2701C11.946 10.2683 12.1893 10.2067 12.4818 10.1326C12.7742 10.0586 13.3062 9.92417 13.664 9.83332C14.0218 9.7431 14.6391 9.58692 15.0361 9.48611C15.433 9.38593 15.9371 9.25837 16.1561 9.203C16.3751 9.14762 16.7646 9.04868 17.021 8.98335C17.2774 8.91801 17.7521 8.79792 18.0757 8.7164Z" fill="white"/>
<path d="M9.09989 18.2348C9.14781 18.2292 9.19945 18.2242 9.21501 18.223C9.23056 18.2217 9.30336 18.2205 9.37679 18.2199C9.45021 18.2192 9.54666 18.2211 9.59146 18.2248C9.63626 18.2286 9.71466 18.2367 9.76569 18.2441C9.81733 18.251 9.90383 18.2665 9.95858 18.2777C10.0133 18.2895 10.0986 18.3119 10.1484 18.3269C10.1981 18.3418 10.2778 18.3686 10.3257 18.3866C10.3736 18.4047 10.4477 18.4358 10.4906 18.4551C10.5335 18.475 10.602 18.5092 10.643 18.5316C10.6841 18.5534 10.7376 18.5839 10.7613 18.5982C10.7849 18.6131 10.8285 18.6411 10.8577 18.6604C10.887 18.6803 10.9374 18.717 10.971 18.7419C11.0039 18.7674 11.068 18.8203 11.1128 18.8595C11.1583 18.8987 11.2279 18.9647 11.2672 19.0057C11.3064 19.0468 11.3711 19.1209 11.4109 19.1706C11.4507 19.2204 11.5017 19.2876 11.5248 19.32C11.5472 19.3523 11.5857 19.4121 11.61 19.4525C11.6343 19.4923 11.6747 19.5664 11.7002 19.6174C11.7251 19.6678 11.7587 19.7381 11.7743 19.7742C11.7892 19.8103 11.8147 19.875 11.8309 19.9192C11.8465 19.9627 11.8707 20.038 11.8844 20.0872C11.8987 20.1357 11.9193 20.2235 11.9311 20.2813C11.9429 20.3398 11.9566 20.422 11.9616 20.4649C11.9672 20.5078 11.974 20.5806 11.9777 20.6267C11.9809 20.6727 11.984 20.7555 11.984 20.8102C11.984 20.865 11.9809 20.9478 11.9777 20.9938C11.974 21.0398 11.9653 21.1201 11.9585 21.1711C11.9516 21.2228 11.9404 21.29 11.9342 21.3205C11.928 21.351 11.9137 21.4113 11.9031 21.4543C11.8925 21.4972 11.8713 21.5687 11.8564 21.6129C11.8421 21.6577 11.816 21.7287 11.7992 21.7716C11.7817 21.8145 11.7513 21.8842 11.7307 21.9272C11.7108 21.9701 11.6778 22.0342 11.6573 22.0703C11.6374 22.1064 11.5976 22.1723 11.5683 22.2165C11.5391 22.2613 11.4943 22.3254 11.4688 22.3596C11.4432 22.3938 11.4009 22.4473 11.3748 22.4778C11.3493 22.5083 11.2889 22.5743 11.2404 22.6228C11.1925 22.672 11.1209 22.7398 11.0817 22.7734C11.0425 22.807 10.9903 22.8499 10.9666 22.868C10.943 22.8866 10.8963 22.9202 10.8639 22.9426C10.8316 22.9657 10.7669 23.0067 10.7208 23.0347C10.6748 23.0627 10.5864 23.11 10.5248 23.1405C10.4632 23.171 10.3805 23.2083 10.3413 23.2233C10.3021 23.2388 10.2349 23.2631 10.1919 23.2768C10.149 23.2911 10.0693 23.3135 10.0146 23.3272C9.95983 23.3409 9.87334 23.3589 9.82169 23.3676C9.77067 23.3763 9.68231 23.3882 9.62568 23.3931C9.54666 23.4012 9.48008 23.4025 9.33634 23.4C9.21874 23.3975 9.12354 23.3931 9.07811 23.3869C9.03891 23.3813 8.96736 23.3695 8.91944 23.3608C8.87153 23.3521 8.79873 23.3371 8.75766 23.3266C8.71659 23.3166 8.6469 23.2967 8.6021 23.2824C8.5573 23.2687 8.48885 23.2451 8.44965 23.2295C8.41045 23.2139 8.32209 23.1741 8.25365 23.1405C8.1852 23.1069 8.09 23.0553 8.04209 23.0254C7.99417 22.9955 7.92697 22.9514 7.89275 22.9271C7.85853 22.9028 7.80377 22.8611 7.77141 22.8356C7.73906 22.8095 7.67434 22.7535 7.6283 22.7106C7.58225 22.6676 7.51318 22.5979 7.47461 22.555C7.43603 22.5127 7.38065 22.4473 7.3514 22.4094C7.32216 22.3714 7.26864 22.2974 7.2338 22.2445C7.19833 22.1916 7.15104 22.1157 7.12864 22.0765C7.10686 22.0373 7.07886 21.9856 7.06642 21.9614C7.05459 21.9377 7.02722 21.8774 7.00606 21.8276C6.9849 21.7778 6.95255 21.6938 6.9345 21.6409C6.91646 21.588 6.89219 21.5053 6.87975 21.4574C6.8673 21.4095 6.85174 21.341 6.84428 21.3049C6.83743 21.2688 6.82623 21.2004 6.81939 21.1525C6.81254 21.1046 6.80383 21.0081 6.8001 20.9378C6.7945 20.8426 6.7945 20.7785 6.8001 20.6858C6.80383 20.6173 6.8113 20.529 6.81628 20.4898C6.82125 20.4506 6.83121 20.3859 6.83806 20.3467C6.84552 20.3075 6.85983 20.2403 6.86979 20.1973C6.88037 20.1544 6.90028 20.0835 6.91397 20.0387C6.92766 19.9945 6.95504 19.9161 6.97557 19.8644C6.99548 19.8134 7.03406 19.7263 7.06144 19.6715C7.0882 19.6168 7.13362 19.534 7.16162 19.488C7.189 19.4419 7.23504 19.371 7.26304 19.3312C7.29104 19.2914 7.33834 19.2279 7.3682 19.1912C7.39745 19.1545 7.44972 19.0941 7.48332 19.0574C7.51692 19.0207 7.57541 18.9622 7.61274 18.9273C7.65008 18.8925 7.70359 18.8452 7.73097 18.8222C7.75835 18.7992 7.80875 18.7593 7.84297 18.7338C7.87719 18.7083 7.92635 18.6735 7.95186 18.656C7.97737 18.6392 8.02778 18.6075 8.06387 18.5857C8.09996 18.564 8.17836 18.5223 8.23809 18.4924C8.29783 18.4619 8.39303 18.4196 8.44965 18.3972C8.50628 18.3748 8.58841 18.3455 8.63321 18.3319C8.67801 18.3182 8.74335 18.3001 8.77944 18.2908C8.81553 18.2821 8.88273 18.2684 8.92878 18.2597C8.97482 18.251 9.05198 18.2398 9.09989 18.2348Z" fill="white"/>
</svg>
