<svg width="21" height="21" viewBox="0 0 21 21" fill="none" xmlns="http://www.w3.org/2000/svg">
<circle cx="10.5" cy="10.5" r="10" stroke="#FFD521"/>
<path d="M6.97486 15.2852L13.5303 5.68516H14.5863L8.03086 15.2852H6.97486ZM7.74286 10.8417C7.304 10.8417 6.91543 10.732 6.57714 10.5126C6.23886 10.2932 5.97371 9.98687 5.78171 9.59373C5.59886 9.20058 5.50743 8.74344 5.50743 8.2223C5.50743 7.70116 5.59886 7.24401 5.78171 6.85087C5.97371 6.45773 6.23886 6.15144 6.57714 5.93201C6.91543 5.71258 7.304 5.60287 7.74286 5.60287C8.19086 5.60287 8.57943 5.71258 8.90857 5.93201C9.24686 6.15144 9.50743 6.45773 9.69029 6.85087C9.87314 7.24401 9.96457 7.70116 9.96457 8.2223C9.96457 8.74344 9.87314 9.20058 9.69029 9.59373C9.50743 9.98687 9.24686 10.2932 8.90857 10.5126C8.57943 10.732 8.19086 10.8417 7.74286 10.8417ZM7.74286 10.06C8.16343 10.06 8.49257 9.90001 8.73029 9.58001C8.968 9.25087 9.08686 8.7983 9.08686 8.2223C9.08686 7.6463 8.968 7.1983 8.73029 6.8783C8.49257 6.54916 8.16343 6.38458 7.74286 6.38458C7.33143 6.38458 7.00229 6.54916 6.75543 6.8783C6.51771 7.1983 6.39886 7.6463 6.39886 8.2223C6.39886 8.78916 6.51771 9.23716 6.75543 9.5663C7.00229 9.89544 7.33143 10.06 7.74286 10.06ZM13.8183 15.3674C13.3794 15.3674 12.9909 15.2577 12.6526 15.0383C12.3143 14.8189 12.0537 14.5126 11.8709 14.1194C11.688 13.7263 11.5966 13.2692 11.5966 12.748C11.5966 12.2269 11.688 11.7697 11.8709 11.3766C12.0537 10.9834 12.3143 10.6772 12.6526 10.4577C12.9909 10.2383 13.3794 10.1286 13.8183 10.1286C14.2663 10.1286 14.6549 10.2383 14.984 10.4577C15.3223 10.6772 15.5829 10.9834 15.7657 11.3766C15.9577 11.7697 16.0537 12.2269 16.0537 12.748C16.0537 13.2692 15.9577 13.7263 15.7657 14.1194C15.5829 14.5126 15.3223 14.8189 14.984 15.0383C14.6549 15.2577 14.2663 15.3674 13.8183 15.3674ZM13.8183 14.5857C14.2297 14.5857 14.5543 14.4257 14.792 14.1057C15.0389 13.7766 15.1623 13.324 15.1623 12.748C15.1623 12.1812 15.0389 11.7332 14.792 11.404C14.5543 11.0749 14.2297 10.9103 13.8183 10.9103C13.4069 10.9103 13.0777 11.0749 12.8309 11.404C12.5931 11.724 12.4743 12.172 12.4743 12.748C12.4743 13.324 12.5931 13.7766 12.8309 14.1057C13.0777 14.4257 13.4069 14.5857 13.8183 14.5857Z" fill="#FFD521"/>
</svg>
