<svg width="19" height="22" viewBox="0 0 19 22" fill="none" xmlns="http://www.w3.org/2000/svg">
<path fill-rule="evenodd" clip-rule="evenodd" d="M10.8718 0C10.9586 0 11.0655 0.0245018 11.2392 0.0868699C11.3728 0.133646 11.6445 0.229426 11.8405 0.300703C12.0365 0.369754 12.3727 0.478898 12.5865 0.545721C12.8003 0.610317 13.1766 0.715006 13.4216 0.775146C13.6665 0.837515 14.0318 0.924385 14.2344 0.966706C14.4371 1.00903 14.7778 1.07585 14.9916 1.11149C15.2053 1.14936 15.5661 1.20504 15.7932 1.234C16.0204 1.26518 16.3656 1.30082 16.5615 1.31419C16.7575 1.32532 17.1695 1.3476 17.4746 1.35873C17.7819 1.36987 18.1716 1.38101 18.3431 1.38101C18.5145 1.38101 18.7328 1.38769 19 1.41442V5.15651C18.9978 7.21465 18.9889 9.7762 18.9777 10.8476C18.9599 12.6073 18.9532 12.83 18.9131 13.1307C18.8887 13.3156 18.8441 13.5851 18.8129 13.7321C18.784 13.8791 18.7328 14.1041 18.6994 14.2333C18.6682 14.3625 18.5947 14.6075 18.539 14.779C18.4834 14.9505 18.3876 15.2156 18.3275 15.3693C18.2673 15.523 18.1337 15.817 18.0313 16.0264C17.9289 16.2358 17.7618 16.5431 17.6594 16.7124C17.557 16.8795 17.3877 17.1401 17.2808 17.2916C17.1739 17.4408 16.9802 17.6947 16.8488 17.8529C16.7174 18.011 16.448 18.3028 16.252 18.4988C16.0538 18.6948 15.742 18.9755 15.5594 19.1225C15.3746 19.2695 15.1207 19.4611 14.9916 19.5479C14.8624 19.6348 14.613 19.7907 14.4348 19.8954C14.2567 20.0001 13.7757 20.2696 13.3659 20.4991C12.9562 20.7263 12.2391 21.1183 11.7737 21.37C11.3083 21.6217 10.9141 21.8288 10.8985 21.8288C10.8851 21.8288 10.2972 21.517 9.59576 21.1339C8.89651 20.753 8.06587 20.2964 7.7541 20.1182C7.44233 19.9422 7.04594 19.7061 6.87447 19.5925C6.703 19.4789 6.46249 19.3074 6.34001 19.2116C6.21753 19.1158 6.01266 18.9443 5.8835 18.8329C5.75434 18.7193 5.52496 18.4988 5.37353 18.3407C5.21988 18.1825 5.01055 17.9487 4.90588 17.8195C4.79899 17.6903 4.60302 17.4297 4.21554 16.8951L2.66116 16.8773C1.80602 16.8661 1.02215 16.8483 0.917487 16.8372C0.779419 16.8216 0.701477 16.8015 0.627989 16.757C0.572316 16.7258 0.447609 16.6166 0.347398 16.5186C0.249414 16.4184 0.138068 16.287 0.104665 16.2268C0.0445382 16.1244 0.0378575 16.091 0.0200422 15.7702C0.00890764 15.5809 0 14.2533 0 12.8189C0 11.3844 0.00890764 10.0569 0.0200422 9.86753C0.0400844 9.54678 0.0445382 9.51336 0.104665 9.4109C0.140295 9.34853 0.256095 9.21489 0.360759 9.1102C0.469878 9.00105 0.596812 8.89859 0.661392 8.86741C0.723746 8.83622 0.841772 8.80504 0.928622 8.79613C1.01324 8.78499 1.47199 8.77831 2.81036 8.77608V1.39215L3.72785 1.37655C4.23336 1.36764 4.77672 1.35205 4.93706 1.33869C5.09517 1.32532 5.38244 1.29859 5.57173 1.27855C5.76102 1.26073 6.12178 1.21395 6.37342 1.17831C6.62506 1.14045 7.07489 1.06249 7.37553 1.00234C7.67616 0.942204 8.11709 0.841969 8.35537 0.781829C8.59365 0.721688 8.95441 0.621454 9.15706 0.559086C9.3597 0.498945 9.71601 0.383118 9.94761 0.302931C10.1792 0.222743 10.4553 0.122509 10.56 0.0801876C10.6959 0.0245018 10.7849 0.00222743 10.8718 0V0ZM10.148 0.991207C9.87857 1.08476 9.47328 1.21395 9.24613 1.28077C9.01899 1.3476 8.67827 1.44115 8.48898 1.49015C8.2997 1.53693 7.9523 1.61712 7.7207 1.66835C7.4891 1.71735 7.08158 1.79308 6.8188 1.8354C6.55602 1.87773 6.20863 1.92896 6.05052 1.94678C5.89241 1.96682 5.58954 1.99578 5.38244 2.0136C5.17311 2.03142 4.66983 2.06483 4.26231 2.0871L3.52297 2.1272V8.77608H4.21331V2.80656C4.29126 2.79097 4.43823 2.78206 4.59189 2.77315C4.74555 2.76647 5.08626 2.73974 5.34904 2.71524C5.61181 2.69074 6.01266 2.64619 6.2398 2.61501C6.46695 2.58605 6.82771 2.53036 7.04149 2.49472C7.25527 2.45909 7.5804 2.39894 7.76524 2.36108C7.94784 2.32321 8.26406 2.25193 8.46671 2.20293C8.66936 2.15393 9.02567 2.06037 9.25727 1.99355C9.48886 1.92896 9.95652 1.78417 10.2928 1.6728L10.9052 1.47233C11.8895 1.79754 12.3349 1.93787 12.5308 1.99355C12.7268 2.04924 13.043 2.13611 13.2323 2.18288C13.4216 2.22966 13.7423 2.30317 13.9449 2.34771C14.1476 2.39004 14.4571 2.45018 14.6353 2.48136C14.8134 2.51254 15.0985 2.55709 15.2699 2.58159C15.4414 2.6061 15.7777 2.64619 16.0159 2.67069C16.2542 2.69742 16.6328 2.73306 16.8555 2.75088C17.0804 2.7687 17.3209 2.78429 17.3899 2.78429C17.4835 2.78206 17.528 2.7932 17.5525 2.81993C17.5792 2.85111 17.5859 2.95135 17.5904 3.36788L17.597 3.87573H16.8622C16.8622 3.51266 16.8555 3.47479 16.8288 3.47479C16.8109 3.47479 16.5526 3.45029 16.2542 3.41911C15.958 3.39015 15.5639 3.34338 15.3813 3.31887C15.1964 3.29437 14.8424 3.23646 14.5907 3.19414C14.3391 3.15182 13.9538 3.07831 13.7334 3.02931C13.5129 2.98253 13.1722 2.90234 12.9762 2.85334C12.7802 2.80434 12.4596 2.71747 12.2636 2.66178C12.0676 2.6061 11.6891 2.49027 11.4218 2.40563C11.1568 2.31876 10.923 2.24971 10.9052 2.24971C10.8874 2.24971 10.6045 2.33435 10.275 2.43904C9.94761 2.5415 9.55567 2.66178 9.40202 2.7041C9.24836 2.74642 8.98336 2.8177 8.81188 2.86002C8.64041 2.90234 8.33533 2.97362 8.13268 3.01817C7.93003 3.06272 7.53364 3.13845 7.25305 3.18523C6.97246 3.23423 6.58497 3.29437 6.39569 3.31887C6.2064 3.34338 5.81001 3.39015 5.51606 3.41911C5.2221 3.45029 4.96824 3.47479 4.95265 3.47479C4.93261 3.47479 4.92593 4.04947 4.92593 6.27022V9.06565C5.07736 9.26389 5.14639 9.37081 5.17757 9.43318C5.20652 9.49332 5.24883 9.60469 5.2711 9.67819L5.30895 9.81184C5.48711 9.78734 5.60291 9.75393 5.68308 9.72274C5.76324 9.68933 5.89241 9.62474 5.97257 9.57796C6.05274 9.53118 6.16186 9.45322 6.21531 9.40645C6.26875 9.35967 6.35783 9.24607 6.41573 9.15475C6.4714 9.06342 6.54044 8.92978 6.56716 8.8585C6.60502 8.76717 6.62506 8.65135 6.63842 8.44642C6.65178 8.2905 6.66737 7.71137 6.67405 7.1612L6.68964 6.15885C6.85666 5.8136 6.95909 5.64431 7.02367 5.55744C7.08826 5.4728 7.20628 5.35029 7.28645 5.28347C7.36662 5.21887 7.51137 5.12532 7.60935 5.07632C7.70734 5.02954 7.84763 4.97386 7.92112 4.95604C7.99461 4.93822 8.15049 4.92263 8.26629 4.92263C8.38209 4.92263 8.53797 4.93822 8.61146 4.95604C8.68495 4.97386 8.8297 5.03177 8.93214 5.08523C9.05907 5.1476 9.17487 5.23001 9.28622 5.3347C9.37752 5.41934 9.49555 5.55076 9.54899 5.62427C9.60021 5.69777 9.68706 5.84256 9.73828 5.94724L9.83181 6.13658L9.87412 8.94314C9.96542 9.02333 10.0166 9.05674 10.0478 9.07011C10.0857 9.08792 10.5266 9.10129 11.3728 9.11243C12.0721 9.12134 12.7736 9.1347 12.9317 9.14361C13.1699 9.15475 13.2546 9.16811 13.4105 9.2238C13.5151 9.25944 13.6777 9.33517 13.7734 9.39308C13.8692 9.45322 14.0095 9.55569 14.0852 9.62474C14.1609 9.69156 14.2745 9.81184 14.3368 9.89203C14.4014 9.96999 14.4927 10.1103 14.544 10.2016C14.5929 10.293 14.6553 10.4288 14.6798 10.5023C14.7177 10.6093 14.7332 10.7206 14.7466 11.0481C14.7577 11.2753 14.7666 12.1506 14.7666 12.9971C14.7666 13.8435 14.7577 14.7189 14.7466 14.9461C14.7332 15.2601 14.7177 15.3871 14.6842 15.4807C14.662 15.5475 14.613 15.6589 14.5796 15.7257C14.5462 15.7925 14.4771 15.9083 14.4282 15.9818C14.3792 16.0553 14.2678 16.1868 14.181 16.2736C14.0941 16.3605 13.9627 16.4719 13.8892 16.5209C13.8158 16.5699 13.6955 16.6411 13.622 16.6768C13.5485 16.7147 13.4194 16.7681 13.3325 16.7971L13.1766 16.8483L7.34212 16.8661C7.04817 16.7302 6.91233 16.659 6.8522 16.6166C6.78985 16.5766 6.62283 16.4273 6.47585 16.2848C6.33111 16.1422 6.22421 16.0509 6.24203 16.0821C6.25762 16.1132 6.35115 16.238 6.44913 16.3605C6.54934 16.483 6.75422 16.708 6.90788 16.8617C7.06153 17.0154 7.28645 17.227 7.40893 17.3317C7.53141 17.4363 7.70734 17.5789 7.79864 17.6479C7.88994 17.717 8.11486 17.864 8.2997 17.9732C8.4823 18.0823 8.97445 18.3607 9.39088 18.5924C9.80731 18.8263 10.315 19.1025 10.5199 19.2071L10.894 19.4009C11.3172 19.1893 11.6512 19.0111 11.9073 18.8708C12.1634 18.7305 12.631 18.4699 12.9428 18.2917C13.2546 18.1135 13.5908 17.9175 13.6888 17.8573C13.7868 17.7972 13.9516 17.6814 14.0563 17.5989C14.1609 17.5188 14.3613 17.3517 14.5016 17.227C14.6419 17.1022 14.8646 16.8906 14.996 16.7525C15.1296 16.6166 15.2989 16.4273 15.3746 16.3338C15.4503 16.238 15.5928 16.0353 15.6953 15.8816C15.7955 15.7279 15.9335 15.4985 16.0026 15.3693C16.0738 15.2401 16.1785 15.0307 16.2364 14.9015C16.2965 14.7723 16.3856 14.554 16.4368 14.4182C16.4858 14.2801 16.5615 14.044 16.6038 13.8947C16.6462 13.7433 16.7018 13.5205 16.7263 13.398C16.7508 13.2755 16.782 13.075 16.7954 12.9525C16.8087 12.83 16.8288 12.4536 16.8399 12.1172C16.851 11.7809 16.8622 10.4155 16.8622 9.08124V6.66002H17.6082C17.5815 10.7941 17.5636 12.1952 17.5525 12.4402C17.5391 12.7365 17.5147 12.9971 17.4768 13.2198C17.4434 13.4047 17.3833 13.6898 17.3432 13.8546C17.3009 14.0195 17.2207 14.2868 17.1673 14.4449C17.1116 14.603 17.0359 14.8147 16.9958 14.9127C16.9579 15.0107 16.8688 15.2111 16.7976 15.3581C16.7285 15.5052 16.6061 15.7368 16.5281 15.8705C16.4524 16.0041 16.321 16.2157 16.2386 16.3382C16.1562 16.4607 16.0159 16.6567 15.9269 16.7726C15.8356 16.8884 15.5616 17.1846 15.3167 17.4319C15.0695 17.6769 14.7577 17.9665 14.6241 18.0734C14.4905 18.1803 14.2789 18.3362 14.1565 18.4186C14.034 18.5011 13.7734 18.6592 13.5775 18.7706C13.3815 18.8819 12.9005 19.147 12.5086 19.3608C12.1166 19.5747 11.6067 19.8531 11.3728 19.9756C11.139 20.1003 10.9274 20.2028 10.8985 20.2028C10.8718 20.2028 10.6313 20.087 10.364 19.9444C10.099 19.8019 9.76055 19.6192 9.61357 19.539C9.4666 19.4611 9.05462 19.2339 8.70054 19.0379C8.34423 18.8419 7.96343 18.6258 7.85431 18.559C7.74297 18.4921 7.54032 18.354 7.40225 18.2516C7.26641 18.1491 7.03481 17.9598 6.89006 17.8351C6.74754 17.7081 6.51817 17.4898 6.38455 17.3495C6.24871 17.2091 6.06388 17.0042 5.97257 16.8951C5.88127 16.7837 5.74097 16.61 5.66081 16.5053C5.58286 16.4006 5.47152 16.2402 5.41362 16.1489C5.35795 16.0576 5.30227 15.9818 5.29337 15.9818C5.28223 15.9818 5.24883 16.0442 5.21765 16.1222C5.18647 16.2001 5.10853 16.3293 5.04841 16.4095C4.98605 16.4897 4.92593 16.5676 4.91479 16.5832C4.8992 16.6033 4.93706 16.6746 5.05954 16.8416C5.15084 16.9686 5.3045 17.1735 5.40248 17.296C5.50047 17.4185 5.77215 17.7103 6.00598 17.9442C6.23758 18.1781 6.53821 18.4565 6.67405 18.5634C6.80767 18.6726 7.04372 18.8419 7.19737 18.9443C7.35103 19.0445 7.67616 19.2428 7.92112 19.3831C8.16608 19.5234 8.93214 19.9489 9.62471 20.3253C10.3173 20.704 10.8918 21.0114 10.9052 21.0114C10.9163 21.0114 11.384 20.7597 11.9407 20.4545C12.4974 20.1494 13.1544 19.7863 13.3993 19.6482C13.6443 19.5101 14.0229 19.2896 14.2433 19.1581C14.4616 19.029 14.7733 18.824 14.9337 18.7015C15.094 18.5812 15.339 18.3808 15.4793 18.256C15.6195 18.1335 15.8333 17.9264 15.9558 17.7972C16.0783 17.668 16.2809 17.4319 16.4101 17.2737C16.537 17.1156 16.7152 16.8795 16.802 16.7503C16.8889 16.6211 17.0292 16.4006 17.1138 16.2603C17.1962 16.1199 17.3343 15.8638 17.4189 15.6923C17.5013 15.5207 17.626 15.2401 17.6928 15.0686C17.7618 14.8971 17.8576 14.6209 17.9066 14.456C17.9578 14.2912 18.0335 13.9994 18.0758 13.8101C18.1181 13.6207 18.1671 13.3334 18.1872 13.1753C18.205 13.0171 18.2295 12.5805 18.2428 12.2063C18.254 11.8277 18.2651 9.43763 18.2651 6.82263V2.11606C18.1181 2.11606 17.8598 2.10492 17.597 2.09379C17.3343 2.08042 16.929 2.05592 16.6951 2.0381C16.4613 2.01805 16.1362 1.9891 15.9714 1.96905C15.8066 1.95123 15.5305 1.91559 15.359 1.89109C15.1875 1.86659 14.878 1.81758 14.6687 1.77972C14.4593 1.74408 14.0852 1.66835 13.8336 1.61043C13.5819 1.55475 13.1766 1.45451 12.9317 1.38769C12.6867 1.32087 12.2012 1.17163 11.8516 1.05803C11.502 0.942204 11.1457 0.830832 11.0566 0.806331C10.9163 0.768464 10.8829 0.766237 10.7671 0.792966C10.6959 0.808558 10.4175 0.897655 10.148 0.991207ZM7.79864 5.74009C7.75633 5.76682 7.67839 5.83365 7.62494 5.88933C7.57372 5.94502 7.50914 6.03411 7.48465 6.08757C7.44902 6.15885 7.43343 6.24795 7.41784 6.45955C7.40893 6.61325 7.3978 7.01864 7.3978 7.36166C7.3978 7.70469 7.38666 8.13681 7.37775 8.31946C7.36662 8.50434 7.3399 8.72485 7.31985 8.80949C7.29759 8.89637 7.24859 9.04115 7.21074 9.13247C7.17288 9.2238 7.08158 9.39085 7.00809 9.5C6.9346 9.61137 6.80544 9.77175 6.71859 9.85639C6.63397 9.94326 6.4714 10.0724 6.36228 10.1482C6.25316 10.2217 6.08169 10.3152 5.98371 10.3553C5.88572 10.3977 5.71425 10.4533 5.60513 10.4801C5.49601 10.5068 5.37799 10.5358 5.34236 10.5447L5.28223 10.558V15.0797C5.54946 15.0975 5.71871 15.1109 5.82782 15.122C5.93694 15.1354 6.09283 15.1644 6.173 15.1889C6.25316 15.2134 6.38233 15.2713 6.46249 15.3181C6.55602 15.3737 6.71191 15.5096 6.91901 15.7168C7.09048 15.8883 7.26641 16.0487 7.30872 16.0709C7.37107 16.1021 7.48019 16.1132 7.87658 16.1311C8.14826 16.1422 9.37975 16.1489 10.6491 16.1422C12.2146 16.1355 12.9873 16.1244 13.1098 16.1066C13.2145 16.091 13.3436 16.0553 13.4216 16.0175C13.5196 15.9707 13.602 15.9016 13.7289 15.7658C13.8536 15.6343 13.916 15.5475 13.9471 15.4651C13.9694 15.4005 14.0028 15.2535 14.0162 15.1421C14.0384 14.9906 14.0451 14.4159 14.0451 12.9971C14.0451 11.5849 14.0362 11.0035 14.0162 10.8543C14.0028 10.7407 13.9694 10.5937 13.9449 10.5313C13.9182 10.46 13.8402 10.342 13.7489 10.2351C13.6532 10.1237 13.5552 10.0346 13.4862 9.99894C13.426 9.96553 13.3459 9.93212 13.3102 9.92544C13.2746 9.91876 13.1633 9.90094 13.0653 9.8898C12.9673 9.87644 12.3349 9.85639 11.6623 9.84525C10.9876 9.83189 10.3306 9.81184 10.197 9.8007C10.0656 9.78734 9.9053 9.75838 9.84072 9.73388C9.75832 9.70492 9.66924 9.6381 9.52672 9.50668C9.38197 9.36858 9.31517 9.28839 9.26617 9.18816C9.23054 9.11243 9.19269 8.98324 9.17933 8.88746C9.16819 8.79613 9.14592 8.14349 9.13033 7.43962L9.10584 6.15885C8.9789 5.96952 8.90096 5.88042 8.8542 5.8381C8.80743 5.79578 8.71167 5.73564 8.64487 5.70445C8.54466 5.65991 8.4823 5.64877 8.28856 5.64209C8.13936 5.63763 8.02133 5.64654 7.96566 5.66436C7.91667 5.67995 7.84095 5.71336 7.79864 5.74009ZM0.832865 9.55569C0.806142 9.5735 0.770511 9.62919 0.754923 9.67819C0.73488 9.74724 0.7282 10.4756 0.7282 12.8189C0.7282 15.1955 0.73488 15.8905 0.754923 15.9662C0.777192 16.0397 0.799461 16.0687 0.866268 16.0999C0.94421 16.1355 1.07782 16.1377 2.64334 16.1377C3.95054 16.1377 4.34916 16.1311 4.39815 16.111C4.43155 16.0954 4.47609 16.0553 4.49613 16.0219C4.53176 15.9685 4.53844 15.866 4.55403 15.1577C4.56517 14.7166 4.56739 13.3334 4.56071 12.0838C4.55403 10.7474 4.53844 9.76952 4.52731 9.71161C4.51395 9.65592 4.48722 9.59355 4.46496 9.57128C4.43601 9.54232 4.36697 9.52673 4.20218 9.51114C4.0797 9.5 3.36263 9.49109 2.60994 9.49332C1.85724 9.49554 1.16022 9.50223 1.06224 9.51114C0.964252 9.51782 0.861814 9.54009 0.832865 9.55569Z" fill="#FFD521"/>
<path d="M1.40723 15.4589V15.1025V14.7461H3.8791V15.4589H1.40723Z" fill="#FFD521"/>
<path d="M16.8623 5.97059V5.6142V5.25781H17.5972V5.97059H16.8623Z" fill="#FFD521"/>
</svg>
