<svg width="21" height="24" viewBox="0 0 21 24" fill="none" xmlns="http://www.w3.org/2000/svg">
<path fill-rule="evenodd" clip-rule="evenodd" d="M4.99621 5.90625H16.0028L16.2301 6.13356V17.1356L16.0074 17.3629H5.00075L4.77344 17.1356L4.77798 6.12902L4.99621 5.90625ZM5.50085 16.6355H15.5027V6.63366H12.3658C12.3658 8.85225 12.3476 9.48873 12.3203 9.57965C12.293 9.65694 12.2339 9.74787 12.1839 9.7706C12.1294 9.79787 11.4702 9.81606 10.5018 9.81606C9.52888 9.81606 8.87421 9.79787 8.81965 9.7706C8.76964 9.74787 8.70599 9.65694 8.68326 9.57965C8.65599 9.48873 8.6378 8.85225 8.6378 8.03391V6.63366H5.50085V16.6355ZM9.36521 9.08865H11.6384V6.63366H9.36521V9.08865Z" fill="#FFD521"/>
<path d="M10.8749 1.3051C10.9067 1.25964 11.3113 0.950488 11.775 0.614063C12.407 0.150341 12.6479 0.000313478 12.7525 0.000313478C12.8343 -0.00423281 12.9298 0.0412301 12.9934 0.100332C13.0571 0.159434 13.0935 0.254906 13.0935 0.336739C13.0935 0.414026 13.0662 0.514044 13.0298 0.564053C12.998 0.614063 12.7798 0.786822 12.1296 1.246L12.3297 1.28691C12.4342 1.30965 12.7934 1.39148 13.1162 1.47331C13.439 1.55514 13.9527 1.71881 14.2528 1.83701C14.5528 1.95522 15.0347 2.17344 15.3211 2.32347C15.6076 2.4735 16.0395 2.72354 16.2759 2.88266C16.5123 3.04178 16.8714 3.30092 17.0715 3.46459C17.2715 3.62371 17.617 3.9374 17.8398 4.16017C18.0671 4.38294 18.4035 4.75119 18.5899 4.97396C18.7763 5.20127 19.0446 5.55588 19.1855 5.76956C19.331 5.98323 19.5401 6.32875 19.6583 6.54243C19.7765 6.7561 19.972 7.15163 20.0947 7.42895C20.2175 7.70628 20.3903 8.15181 20.4812 8.42914C20.5721 8.70646 20.7039 9.22474 20.7721 9.58844C20.8449 9.95214 20.9267 10.4522 20.9585 10.7023C20.9949 10.9796 21.0085 11.4388 20.9949 11.8843C20.9813 12.2844 20.9358 12.8481 20.8903 13.1345C20.8494 13.421 20.7449 13.9256 20.663 14.2484C20.5812 14.5712 20.4403 15.044 20.3448 15.294C20.2493 15.5441 20.0857 15.9442 19.972 16.1806C19.8629 16.417 19.6538 16.8079 19.5128 17.0444C19.3719 17.2808 19.0718 17.7218 18.8445 18.0218C18.6217 18.3219 18.1989 18.7992 17.9125 19.0902C17.6261 19.3766 17.1442 19.7994 16.8441 20.0222C16.5441 20.2495 16.044 20.5814 15.7303 20.7632C15.4166 20.9451 14.9483 21.1815 14.6847 21.2951C14.421 21.4042 13.9936 21.5679 13.7299 21.6497C13.4663 21.7361 13.048 21.8543 12.7979 21.9089C12.5479 21.9589 12.1387 22.0316 11.8887 22.068C11.5932 22.1089 11.3977 22.1135 11.334 22.0862C11.2749 22.0635 11.1977 21.9998 11.1613 21.9453C11.1249 21.8862 11.0931 21.7952 11.0931 21.7407C11.0931 21.6816 11.1386 21.5861 11.1931 21.5225C11.2795 21.427 11.3613 21.3997 11.6841 21.3588C11.8978 21.3361 12.2751 21.2724 12.5252 21.2179C12.7752 21.1678 13.2162 21.0496 13.5026 20.9542C13.789 20.8587 14.2391 20.6905 14.5028 20.5723C14.7665 20.4586 15.2029 20.2268 15.4803 20.0631C15.7576 19.8994 16.1758 19.6176 16.4123 19.4403C16.6487 19.2629 17.0896 18.872 17.3897 18.5674C17.6943 18.2673 18.0989 17.8081 18.2944 17.5444C18.4899 17.2808 18.7627 16.8716 18.9036 16.6352C19.0446 16.3988 19.2491 16.0078 19.3582 15.7714C19.4719 15.535 19.6492 15.0713 19.7583 14.7485C19.8674 14.4257 20.0038 13.9029 20.0675 13.5892C20.1311 13.2755 20.2039 12.7436 20.2357 12.4071C20.263 12.0616 20.2721 11.5661 20.2584 11.2706C20.2402 10.9842 20.1948 10.525 20.1584 10.2477C20.1175 9.97033 20.0311 9.52479 19.9584 9.24747C19.8856 8.97014 19.7583 8.55189 19.6719 8.31548C19.5856 8.07907 19.4355 7.71082 19.3355 7.49715C19.2355 7.28347 19.0264 6.89704 18.8672 6.63335C18.7127 6.36967 18.4444 5.96959 18.2717 5.74682C18.1035 5.51951 17.7943 5.15581 17.5852 4.93304C17.3761 4.71027 17.0124 4.36475 16.776 4.16472C16.5395 3.96922 16.1304 3.66462 15.8667 3.48732C15.603 3.31456 15.1529 3.05542 14.8665 2.90994C14.5801 2.76446 14.1391 2.56442 13.8891 2.4735C13.639 2.37802 13.1571 2.23254 12.8207 2.14616C12.4843 2.06433 12.1615 1.99613 12.1069 2.00523C12.0205 2.01887 12.0478 2.07342 12.3797 2.51896C12.6525 2.88721 12.7479 3.05542 12.7525 3.15999C12.7525 3.23727 12.7207 3.33729 12.6843 3.38275C12.6479 3.42822 12.5706 3.48277 12.5161 3.50096C12.4479 3.52823 12.3615 3.52369 12.2751 3.48732C12.1797 3.4464 11.9478 3.15999 11.4795 2.51896C11.0476 1.92339 10.8203 1.56878 10.8203 1.49604C10.8203 1.43239 10.843 1.34602 10.8749 1.3051Z" fill="#FFD521"/>
<path d="M8.56976 1.36295C8.84708 1.31294 9.12895 1.26293 9.20624 1.25384C9.28352 1.24475 9.41082 1.23111 9.48811 1.22656C9.58358 1.22656 9.67905 1.25839 9.75634 1.32203C9.84727 1.39932 9.87909 1.47206 9.87909 1.58572C9.87909 1.69483 9.84726 1.77212 9.76998 1.84031C9.69269 1.90396 9.53812 1.94942 9.22897 1.99034C8.99256 2.01762 8.55157 2.104 8.25152 2.17674C7.95146 2.24948 7.5332 2.36768 7.31953 2.44042C7.10585 2.51316 6.74669 2.6541 6.52393 2.75412C6.30116 2.85413 5.942 3.03599 5.72833 3.15419C5.51465 3.27239 5.17822 3.48152 4.97819 3.62246C4.77815 3.75885 4.45991 3.9998 4.27351 4.15892C4.08711 4.31349 3.72796 4.64992 3.47791 4.90906C3.22332 5.1682 2.88689 5.55463 2.72777 5.76831C2.56865 5.98198 2.34134 6.30932 2.22314 6.49571C2.10948 6.68211 1.90944 7.04127 1.78669 7.29131C1.6594 7.54136 1.48209 7.94143 1.38662 8.17784C1.29569 8.41425 1.15021 8.87342 1.06838 9.20076C0.981999 9.52809 0.88198 10.0373 0.836517 10.3373C0.786508 10.701 0.75923 11.1557 0.75923 11.7012C0.763777 12.2195 0.791054 12.7014 0.836517 13.0196C0.877434 13.297 0.972906 13.7561 1.0411 14.0426C1.11384 14.329 1.25023 14.77 1.34116 15.02C1.43208 15.2701 1.61848 15.6974 1.75487 15.9747C1.88671 16.2521 2.13676 16.6885 2.30952 16.9522C2.48227 17.2159 2.74596 17.5887 2.90053 17.7796C3.05511 17.9751 3.38244 18.3343 3.62794 18.5752C3.87344 18.8207 4.27806 19.1753 4.52811 19.3663C4.7736 19.5572 5.15095 19.8209 5.36462 19.9573C5.5783 20.0891 5.97383 20.3028 6.25115 20.4346C6.52847 20.5665 6.94673 20.7483 7.18314 20.8347C7.41955 20.9211 7.7878 21.0347 8.00147 21.0893C8.21515 21.1439 8.52429 21.2166 8.69251 21.253C8.86527 21.2893 9.00165 21.303 9.00165 21.2802C8.99711 21.2621 8.84708 21.0438 8.66523 20.7938C8.47883 20.5437 8.30607 20.2892 8.27425 20.2255C8.22879 20.1346 8.23333 20.0846 8.2788 19.9755C8.31517 19.9027 8.397 19.8163 8.46519 19.7845C8.55157 19.7436 8.63341 19.7391 8.71978 19.7663C8.81071 19.7936 9.01984 20.0482 9.51084 20.7211C9.9882 21.3666 10.1837 21.6712 10.1837 21.7576C10.1837 21.8304 10.161 21.9213 10.1291 21.9667C10.0973 22.0077 9.69269 22.3213 9.22897 22.6578C8.56066 23.1442 8.35608 23.2715 8.24242 23.2715C8.13331 23.2715 8.06966 23.2397 8.00147 23.1442C7.94692 23.076 7.906 22.9669 7.91054 22.8942C7.91054 22.8214 7.96055 22.7214 8.04239 22.6441C8.11058 22.5759 8.31516 22.4168 8.49247 22.2941C8.66978 22.1668 8.81526 22.0531 8.8198 22.0304C8.8198 22.0122 8.73342 21.9849 8.62431 21.9713C8.51975 21.9576 8.19696 21.8895 7.91054 21.8167C7.62413 21.744 7.18314 21.6121 6.93309 21.5212C6.68305 21.4303 6.27388 21.2621 6.02383 21.1393C5.77379 21.0211 5.37371 20.812 5.13731 20.671C4.9009 20.5347 4.49173 20.2573 4.22805 20.0618C3.96437 19.8709 3.52792 19.4936 3.25514 19.2299C2.98237 18.9662 2.60502 18.5616 2.41863 18.3388C2.22768 18.116 1.91399 17.6841 1.7185 17.3841C1.51846 17.084 1.24114 16.593 1.09111 16.293C0.945628 15.9929 0.750138 15.5428 0.659212 15.2928C0.56374 15.0427 0.422805 14.5699 0.340972 14.2471C0.254592 13.9244 0.145481 13.3561 0.0954721 12.9878C0.0363703 12.5741 0 12.074 0 11.6921C0 11.3102 0.0363703 10.7874 0.0954721 10.3601C0.145481 9.97362 0.254592 9.3917 0.340972 9.06437C0.422805 8.73703 0.568286 8.26877 0.659212 8.01872C0.750138 7.76867 0.954721 7.3095 1.10929 6.9958C1.26841 6.68211 1.52755 6.22294 1.68667 5.97289C1.85034 5.72284 2.1504 5.31368 2.35043 5.06363C2.55047 4.81359 2.92781 4.40442 3.18695 4.15437C3.44609 3.90433 3.83252 3.56336 4.0462 3.39514C4.25987 3.23148 4.60539 2.98598 4.81907 2.84504C5.03274 2.70865 5.42827 2.48134 5.70559 2.3404C5.98292 2.19947 6.41027 2.00398 6.66032 1.90396C6.91036 1.80849 7.32862 1.66755 7.5923 1.59027C7.85599 1.51753 8.29243 1.41296 8.56976 1.36295Z" fill="#FFD521"/>
</svg>
