<svg width="22" height="22" viewBox="0 0 22 22" fill="none" xmlns="http://www.w3.org/2000/svg">
<path d="M2.91861 0.208062C3.07122 0.131767 3.24179 0.0532275 3.2979 0.0352756C3.37421 0.00834786 3.47745 0.0038599 3.73554 0.0105918C3.92182 0.0173238 4.21359 0.0420076 4.3864 0.0689354C4.55921 0.0958632 4.81731 0.147475 4.9587 0.183378C5.1001 0.219282 5.33351 0.295578 5.4749 0.351677C5.61629 0.407777 5.8295 0.508756 5.94621 0.573831C6.06292 0.638907 6.24471 0.755594 6.35019 0.834133C6.45567 0.910429 6.62175 1.05629 6.7205 1.15502C6.81925 1.256 6.97187 1.44225 7.05715 1.5724C7.14468 1.70255 7.2771 1.93368 7.35341 2.08852C7.42747 2.24335 7.52846 2.47 7.57335 2.59342C7.62048 2.71683 7.68557 2.94796 7.72148 3.10953C7.75739 3.2711 7.80452 3.56282 7.8292 3.76029C7.85389 3.95776 7.88531 4.31679 7.92347 4.99448L9.57081 6.6438C10.4775 7.55037 11.2204 8.30884 11.2204 8.32679C11.2204 8.34474 11.1172 8.46367 10.9915 8.58934C10.8635 8.71724 10.7513 8.82047 10.7379 8.82047C10.7244 8.82047 9.94785 8.05078 9.00972 7.11055C7.84043 5.93919 7.28832 5.36922 7.26139 5.30863C7.22548 5.23234 7.2165 5.13136 7.20079 4.64666C7.18957 4.3325 7.16713 3.95327 7.14693 3.80517C7.12673 3.65706 7.08633 3.4192 7.05715 3.27783C7.02573 3.13646 6.96738 2.9143 6.92474 2.78415C6.8821 2.654 6.81028 2.46775 6.76539 2.36902C6.7205 2.27028 6.63522 2.11994 6.57911 2.03466C6.52076 1.94939 6.37263 1.77212 6.24919 1.64421C6.12576 1.5163 5.95968 1.36147 5.87888 1.30313C5.79808 1.24478 5.67689 1.16849 5.60956 1.13483C5.54223 1.10117 5.40533 1.04282 5.30658 1.00692C5.20783 0.971016 4.99686 0.905941 4.83527 0.865549C4.67367 0.822913 4.447 0.771302 4.33029 0.751106C4.20461 0.728666 3.9914 0.710714 3.8141 0.710714C3.60986 0.70847 3.4954 0.717446 3.46174 0.735398C3.41012 0.76457 3.41012 0.766814 3.45051 0.831889C3.47071 0.870037 3.79614 1.21561 4.17094 1.60158C4.54799 1.9853 4.91831 2.37799 4.99686 2.47C5.13152 2.62707 5.1405 2.64503 5.1405 2.75049C5.1405 2.84025 5.12478 2.88289 5.06868 2.96367C5.03052 3.01977 4.62879 3.43491 4.17543 3.88595C3.72432 4.33699 3.24404 4.80374 3.10713 4.92267L3.10523 4.92434C2.86249 5.1381 2.85995 5.14034 2.74355 5.14034C2.63358 5.14034 2.61338 5.13136 2.49667 5.03262C2.42485 4.97204 2.05903 4.62197 1.68198 4.25172C1.30493 3.8837 0.948084 3.54262 0.889732 3.4955C0.831379 3.45062 0.773027 3.41696 0.761805 3.42369C0.748339 3.43042 0.730384 3.47306 0.716918 3.51794C0.705697 3.56506 0.694475 3.67726 0.694475 3.76477C0.694475 3.85453 0.710185 4.04303 0.72814 4.17991C0.748339 4.31904 0.799959 4.57934 0.842601 4.75886C0.887487 4.93838 0.959306 5.18073 1.00195 5.29741C1.04683 5.4141 1.10968 5.56669 1.14334 5.63401C1.17701 5.70133 1.26454 5.83372 1.3386 5.92573C1.41266 6.01773 1.55854 6.17481 1.66178 6.27355C1.76727 6.37228 1.93335 6.50916 2.0321 6.57648C2.1286 6.6438 2.29468 6.73581 2.40017 6.78069C2.50565 6.82557 2.70764 6.89962 2.84903 6.9445C2.99043 6.98938 3.20813 7.04548 3.33156 7.07016C3.455 7.09484 3.68168 7.13075 3.83654 7.15094C3.9914 7.16889 4.36396 7.19358 4.66694 7.20255C5.07317 7.21602 5.237 7.22948 5.29535 7.25417C5.34248 7.27436 5.6522 7.55935 6.04945 7.94756C6.42201 8.31108 6.96289 8.84964 7.25466 9.14584C7.54642 9.44205 7.78432 9.69337 7.78656 9.70684C7.78656 9.7203 7.67659 9.83923 7.29281 10.223L4.99237 7.92512L4.50984 7.90268C4.24501 7.88921 3.8904 7.8578 3.72432 7.83311C3.55824 7.80843 3.27546 7.75233 3.09591 7.70745C2.91636 7.66257 2.65826 7.58628 2.52361 7.53691C2.3867 7.48754 2.16451 7.39329 2.02985 7.32822C1.89295 7.26314 1.71116 7.15992 1.62138 7.09933C1.53161 7.04099 1.39246 6.93552 1.30942 6.8682C1.22863 6.80088 1.09172 6.664 1.00419 6.56526C0.918908 6.46653 0.793226 6.30496 0.72814 6.20623C0.663054 6.10749 0.564304 5.9347 0.508195 5.82475C0.452087 5.71479 0.371291 5.53079 0.328649 5.42083C0.286007 5.31088 0.218677 5.09321 0.178279 4.93838C0.140125 4.78354 0.0862612 4.52773 0.0638178 4.36616C0.0391302 4.20459 0.0144426 3.93756 0.00546523 3.77151C-0.0035121 3.56506 0.000976562 3.43266 0.0189312 3.35637C0.0323972 3.29578 0.113193 3.10729 0.196233 2.94123C0.301717 2.72805 0.380269 2.60464 0.45882 2.52161C0.562059 2.41165 0.57777 2.40268 0.67652 2.40268C0.773027 2.40268 0.797714 2.4139 0.912175 2.51039C0.983994 2.57098 1.19945 2.76845 1.39022 2.95245C1.58099 3.13646 1.96477 3.5112 2.74804 4.28762L4.2854 2.75049L4.09239 2.55976C3.98691 2.45429 3.62557 2.08628 3.29117 1.7407C2.95452 1.39513 2.61787 1.03834 2.53932 0.948576C2.41139 0.79823 2.40017 0.778034 2.40017 0.681542C2.40017 0.580563 2.40914 0.567099 2.51912 0.461632C2.59767 0.387581 2.73457 0.30231 2.91861 0.208062Z" fill="#FFD521"/>
<path fill-rule="evenodd" clip-rule="evenodd" d="M20.9609 0C21.0125 0 21.0776 0.0246838 21.1516 0.0718074C21.2145 0.112199 21.3761 0.255814 21.513 0.392697C21.6499 0.527336 21.8092 0.70461 21.8676 0.785394C21.9529 0.904325 21.9731 0.949204 21.9708 1.02101C21.9708 1.07487 21.9282 1.20277 21.8676 1.34639C21.8092 1.47654 21.522 2.06222 21.228 2.6479C20.9339 3.23358 20.6422 3.79233 20.5793 3.88882C20.5098 3.99429 20.4424 4.07058 20.4043 4.08853C20.3684 4.10424 20.1574 4.11771 19.4011 4.13341L12.0329 11.5004L12.1653 11.6575C12.2394 11.745 12.3135 11.8482 12.3314 11.8886C12.3494 11.9268 12.3651 11.9963 12.3651 12.039C12.3651 12.1018 12.3382 12.1512 12.2349 12.2813C12.1631 12.3688 11.9364 12.6134 11.7299 12.8244C11.5257 13.0353 11.3574 13.2171 11.3574 13.2283C11.3574 13.2395 11.4112 13.3068 11.4763 13.3741C11.5437 13.4415 11.6132 13.5357 11.6334 13.5828C11.6536 13.6277 11.6693 13.704 11.6693 13.7511C11.6716 13.8274 11.6469 13.8588 11.3753 14.1483C11.2115 14.3211 10.3183 15.2344 9.3891 16.1791C8.4622 17.1238 6.86423 18.7283 5.84082 19.747C4.8174 20.7658 3.89498 21.6769 3.60097 21.9439L3.41021 21.9708C3.30472 21.9843 3.09376 21.9933 2.9389 21.9865C2.71446 21.9798 2.64489 21.9686 2.59102 21.9349C2.55287 21.9102 2.3217 21.6993 2.07483 21.4614C1.82795 21.2258 1.28931 20.6895 0.876356 20.2721C0.463399 19.8548 0.0998171 19.471 0.0683965 19.4239C0.0122882 19.3386 0.0100439 19.3184 0.00106653 18.9751C-0.00342214 18.7732 0.00555519 18.56 0.0414645 18.367L1.19505 17.1889C1.8302 16.5404 3.24188 15.1267 4.33263 14.0473C5.42337 12.968 6.55451 11.8527 6.84403 11.5655C7.13355 11.2805 7.54202 10.8833 7.75299 10.6836C8.01782 10.4323 8.15472 10.3178 8.20185 10.3089C8.24674 10.2999 8.30659 10.3118 8.3814 10.3448C8.442 10.3717 8.55197 10.4502 8.75171 10.6477L9.16018 10.2528C9.38686 10.0373 9.63374 9.8062 9.71004 9.74337C9.83573 9.6379 9.86266 9.62668 9.95692 9.62668C10.0265 9.62668 10.0916 9.64463 10.1432 9.67381C10.1858 9.70073 10.2801 9.77479 10.4821 9.95206L17.8413 2.5918V2.38984C17.8435 2.27764 17.8525 2.05773 17.8637 1.89616C17.8749 1.7346 17.8906 1.58425 17.9019 1.56181C17.9108 1.53937 17.9961 1.46981 18.0881 1.40922C18.1801 1.34863 18.6919 1.0816 19.2215 0.814565C19.7512 0.547532 20.3437 0.255814 20.5345 0.166055C20.7522 0.0628315 20.9115 0 20.9609 0V0ZM18.5505 1.94104C18.5572 2.46165 18.5482 2.67931 18.537 2.7601L18.5146 2.90596C18.0365 3.40861 16.3443 5.10955 14.4478 7.0102L10.996 10.4682L11.501 10.9843C16.4251 6.07895 18.133 4.38698 18.4719 4.05936C19.0779 3.47368 19.0891 3.46246 19.1991 3.449C19.2597 3.44002 19.4751 3.43329 19.6749 3.43329H20.0407L21.2055 1.11077C20.9654 0.870665 20.8868 0.807833 20.8599 0.810077C20.8352 0.810077 20.3055 1.06365 19.6816 1.37556L18.5505 1.94104ZM9.26791 11.1638L10.8187 12.7122L11.5167 12.0165C10.3295 10.8519 9.97712 10.5108 9.9659 10.5063C9.95467 10.5018 9.79308 10.6477 9.6068 10.8317L9.26791 11.1638ZM0.690076 18.6969L0.696809 19.0626L2.92992 21.2954H3.26657L10.8187 13.7444L8.24898 11.1728L0.690076 18.6969Z" fill="#FFD521"/>
<path d="M7.46355 15.0344C8.28947 14.2131 9.01663 13.5062 9.07723 13.4681C9.15578 13.4142 9.21413 13.394 9.27922 13.394C9.32859 13.394 9.40041 13.4142 9.44081 13.4389C9.48121 13.4636 9.53507 13.5174 9.55976 13.5578C9.58893 13.605 9.60464 13.67 9.60464 13.8653L9.15129 14.341C8.89992 14.6035 7.74634 15.7682 6.58602 16.9283C5.4257 18.0884 4.18907 19.3136 3.83671 19.6502C3.21279 20.2471 3.19483 20.2629 3.10731 20.2606C3.05793 20.2606 2.98162 20.2382 2.93898 20.2135C2.89634 20.1888 2.83799 20.1372 2.80881 20.0968C2.77739 20.0519 2.75719 19.9868 2.7527 19.9195C2.74821 19.8208 2.75495 19.8096 2.88063 19.6727C2.95469 19.5964 3.67737 18.8559 4.48532 18.0301C5.29553 17.2065 6.63539 15.8579 7.46355 15.0344Z" fill="#FFD521"/>
<path d="M7.16281 13.2796C7.62963 12.8241 8.04483 12.4314 8.08299 12.4044C8.14134 12.3685 8.18174 12.3618 8.26927 12.3708C8.32986 12.3753 8.40617 12.3999 8.43535 12.4224C8.46452 12.4448 8.50717 12.4875 8.53185 12.5189C8.56103 12.5593 8.5745 12.6109 8.5745 12.6984C8.5745 12.7949 8.56103 12.8375 8.52063 12.8891C8.49146 12.925 7.93262 13.5017 7.27727 14.1682C6.62417 14.8347 5.34266 16.1182 4.42922 17.0203C3.51802 17.9224 2.63375 18.7886 2.46767 18.9456C2.1804 19.2149 2.1602 19.2306 2.07491 19.2284C2.02554 19.2284 1.94923 19.2059 1.90659 19.1813C1.86395 19.1566 1.80784 19.1094 1.78315 19.0758C1.76071 19.0421 1.73377 18.9636 1.71582 18.7841L1.89537 18.5978C1.99412 18.4946 2.24548 18.232 2.45645 18.0166C2.66742 17.8012 3.62126 16.8318 4.57734 15.8646C5.53343 14.8975 6.69824 13.7329 7.16281 13.2796Z" fill="#FFD521"/>
<path d="M13.1391 11.238L13.3837 11.0024C13.5184 10.8722 13.6418 10.7712 13.6598 10.7735C13.6755 10.778 14.4363 11.5207 17.0105 14.0676H17.208C17.3158 14.0676 17.5694 14.0833 17.7736 14.1013C17.9778 14.1193 18.2449 14.1484 18.3684 14.1664C18.4918 14.1866 18.6444 14.2113 18.705 14.2225C18.7679 14.2337 18.9182 14.2696 19.0417 14.301C19.1651 14.3324 19.3559 14.3885 19.4681 14.4267C19.5803 14.4671 19.7756 14.5501 19.9057 14.6152C20.0359 14.678 20.2379 14.7969 20.3546 14.8755C20.4848 14.963 20.6755 15.1268 20.8371 15.2906C21.0122 15.4634 21.1603 15.6362 21.2501 15.7731C21.3286 15.8898 21.4409 16.085 21.5014 16.2062C21.562 16.3251 21.6496 16.5383 21.6989 16.6774C21.7461 16.8143 21.8112 17.0454 21.8426 17.1868C21.8763 17.3281 21.9166 17.5615 21.9346 17.7029C21.9548 17.8443 21.975 18.1135 21.9997 18.6341L21.8269 18.9707C21.7304 19.157 21.6182 19.3522 21.5778 19.4083C21.5374 19.4644 21.4655 19.5272 21.4184 19.5519C21.3601 19.5789 21.3069 19.5878 21.2591 19.5789C21.2187 19.5721 21.1266 19.516 21.0571 19.4577C20.9853 19.3971 20.7653 19.1951 20.5678 19.0044C20.3703 18.8137 19.9888 18.4412 19.2324 17.6917L17.6951 19.2288L18.1911 19.727C18.4626 20.003 18.8352 20.3844 19.0192 20.5752C19.2033 20.7659 19.4008 20.9813 19.4614 21.0532C19.5197 21.1227 19.5758 21.2147 19.5825 21.2551C19.5915 21.303 19.5825 21.3561 19.5556 21.4144C19.5309 21.4616 19.4681 21.5334 19.412 21.5738C19.3559 21.6142 19.1606 21.7263 18.6377 21.9979L18.319 21.9822C18.1417 21.9732 17.8791 21.9507 17.7355 21.9328C17.5896 21.9148 17.3696 21.8789 17.2462 21.852C17.1228 21.8273 16.9095 21.769 16.7749 21.7263C16.6402 21.6837 16.4113 21.5917 16.2699 21.5244C16.1285 21.4571 15.9153 21.3381 15.7986 21.2596C15.6819 21.1833 15.4956 21.0352 15.3856 20.932C15.2757 20.8288 15.1275 20.6739 15.058 20.5864C14.9884 20.5011 14.8896 20.3687 14.8403 20.2947C14.7909 20.2206 14.6921 20.0479 14.6248 19.9132C14.5575 19.7786 14.461 19.5452 14.4116 19.3971C14.36 19.249 14.2949 19.0111 14.2635 18.8698C14.2321 18.7284 14.1917 18.5062 14.1715 18.3761C14.1513 18.2459 14.1221 17.9744 14.1041 17.7702C14.0862 17.566 14.0705 17.3102 14.0705 16.996L12.9259 15.8516C12.2952 15.2233 11.7812 14.696 11.7812 14.6847C11.7812 14.6735 11.8935 14.5501 12.2772 14.1686L13.4735 15.3691C14.4273 16.3251 14.6809 16.5921 14.7191 16.6774C14.7617 16.7716 14.7685 16.8502 14.7864 17.3842C14.7999 17.7141 14.8246 18.1001 14.8448 18.2414C14.865 18.3828 14.9054 18.605 14.9345 18.7351C14.9637 18.8653 15.0198 19.0717 15.058 19.1951C15.0984 19.3186 15.1724 19.5093 15.2241 19.6215C15.2757 19.7337 15.3677 19.8953 15.4283 19.9805C15.4889 20.068 15.6505 20.2498 15.7874 20.3867C15.922 20.5236 16.1038 20.6829 16.1914 20.7412C16.2789 20.7973 16.4495 20.8849 16.5729 20.932C16.6963 20.9813 16.8871 21.0464 16.9993 21.0801C17.1115 21.1115 17.3225 21.1631 17.4706 21.1923C17.6188 21.2215 17.8522 21.2574 17.9868 21.2708C18.1215 21.2843 18.2898 21.2888 18.3571 21.2798C18.4245 21.2731 18.4985 21.2574 18.521 21.2461C18.5412 21.2349 18.5591 21.2102 18.5591 21.1923C18.5591 21.1743 18.4761 21.0711 18.3751 20.9634C18.2741 20.8534 17.9576 20.5281 17.6726 20.2386C17.3876 19.9491 17.0868 19.6305 17.0038 19.5317C16.9185 19.433 16.8445 19.3275 16.8377 19.2961C16.831 19.2647 16.831 19.2064 16.84 19.1682C16.8467 19.1278 16.8961 19.0403 16.9477 18.9775C16.9993 18.9124 17.2911 18.6072 17.5941 18.2998C17.8971 17.9946 18.3257 17.5727 18.5479 17.3663C18.7701 17.1576 19.0013 16.9489 19.0619 16.9018C19.1629 16.821 19.1763 16.8165 19.2751 16.8345C19.3514 16.8479 19.4097 16.8793 19.4995 16.9579C19.5668 17.0162 19.9304 17.3663 20.3075 17.7343C20.6845 18.1046 21.0458 18.4456 21.2187 18.5825L21.2434 18.5287C21.2568 18.4995 21.277 18.421 21.2837 18.3536C21.2927 18.2863 21.2882 18.118 21.2748 17.9834C21.2613 17.8487 21.2254 17.6154 21.1962 17.4673C21.167 17.3192 21.1154 17.1082 21.084 16.996C21.0503 16.8838 20.9853 16.6931 20.9359 16.5697C20.8887 16.4463 20.8057 16.2802 20.7541 16.1994C20.7002 16.1186 20.5611 15.9548 20.4444 15.8314C20.3277 15.7102 20.1504 15.5509 20.0516 15.4769C19.9529 15.4006 19.7935 15.3018 19.6993 15.2547C19.6027 15.2053 19.4097 15.129 19.2728 15.0797C19.1337 15.0326 18.9025 14.9675 18.7611 14.9361C18.6197 14.9046 18.3863 14.862 18.2449 14.8418C18.1035 14.8216 17.7287 14.7969 17.4145 14.7857C17.1003 14.7745 16.7996 14.7565 16.748 14.7431C16.6672 14.7229 16.5841 14.6533 16.2654 14.3504C16.0522 14.1484 15.26 13.363 13.1391 11.238Z" fill="#FFD521"/>
</svg>
