<svg id="Layer_2" data-name="Layer 2" xmlns="http://www.w3.org/2000/svg" viewBox="0 0 170.37 161.25"><defs><style>.cls-1,.cls-2{fill:none;stroke:#fff}.cls-1{stroke-miterlimit:10;stroke-width:.75px}.cls-2{stroke-linecap:round;stroke-linejoin:round;stroke-width:.5px}</style></defs><g id="_00_sign" data-name="00_sign"><path class="cls-1" d="M13.72 111.91c0-30.47 30.09-40.74 59.49-40.74 19.15 0 38.65 3.77 54.72 8.9v29.78c-14.71 25.34-41.38 38.7-68.73 38.7-23.26 0-45.48-7.87-45.48-32.85v-3.78Z"/><path class="cls-1" d="M13.02 6.93v16.4c13.35-5.14 33.87-10.62 58.49-10.62 36.95 0 56.43 21.22 56.43 53.06v3c-17.1-5.49-36.6-8.91-56.08-8.91C36.63 59.86.38 73.22.38 112.24c0 32.88 28.04 47.94 56.42 47.94s54.72-8.54 71.14-30.46v4.45c0 19.85 12.66 26.71 26 26.71 5.48 0 10.94-1.04 16.06-2.74v-10.96c-4.11 1.38-8.54 2.41-12.65 2.41-8.89 0-16.41-3.77-16.41-15.74v-66.7c0-41.78-24.97-66.77-68.4-66.77-26 0-46.86 2.1-59.52 6.55"/><path class="cls-2" d="m128 129.18 12.88-7.44-12.74 15.44 12.74-7.35-11.33 14.62 11.71-6.76-8.6 13.05 11.38-6.57-6.22 11.67 12.58-7.26-4.65 10.76 18.06-10.42-5.31 11.15 11.46-6.62"/><path class="cls-2" d="m20.97 72.23 6.58-3.8L5.48 89.25l49.88-28.79L1.78 99.48l19.74-11.4-20.99 20.2 14.74-8.51L.63 116.31l13.11-7.58L1.82 123.7l11.88-6.86-9.64 13.65 10.74-6.2-7.46 12.39 10.13-5.85-5.82 11.44 10.12-5.84-4.74 10.82 10.73-6.19-4.23 10.52 12.03-6.95-4.25 10.54 14.08-8.13-4.8 10.86 17.01-9.82-5.71 11.37L73.8 146.8l-7.63 12.49 74.71-43.13-55.76 40.27 38.76-22.37"/><path class="cls-2" d="m35.55 77.61 31.35-18.1-6.27 11.7 19.89-11.48-4.88 10.9 16.22-9.36-3.47 10.08 14.26-8.23-2.81 9.7 14.2-8.2-3.65 10.19 15.69-9.05-5.86 11.46 20.64-11.91-12.9 15.53 12.92-7.46-12.91 15.54 12.91-7.46-12.9 15.53 12.9-7.45-12.89 15.53 12.89-7.44-16.77 17.76 16.77-9.68M13.08 7.12l.6-.35-.6 8.43L35.39 2.32 13.08 23.28 51.76.95l-11.28 14.6L66.59.47l-7.96 12.68L80.18.71l-6.72 11.96L91.53 2.24l-6.01 11.55 15.53-8.96-5.78 11.41 13.85-7.99-5.85 11.46L116 12.36l-6.13 11.62 11.98-6.92-6.6 11.9 11.53-6.66-7.19 12.23 11.3-6.52-7.91 12.65 11.25-6.5-8.76 13.15 11.4-6.58-9.77 13.72 11.72-6.77-10.92 14.39 12.22-7.06"/></g></svg>