<svg id="Layer_2" data-name="Layer 2" xmlns="http://www.w3.org/2000/svg" viewBox="0 0 167.57 240.74"><defs><style>.cls-1,.cls-2{fill:none;stroke:#fff}.cls-1{stroke-miterlimit:10;stroke-width:.75px}.cls-2{stroke-linecap:round;stroke-linejoin:round;stroke-width:.5px}</style></defs><g id="_00_sign" data-name="00_sign"><path class="cls-1" d="M13.38 162.96c0-46.22 30.44-69.89 69.77-69.89 34.2 0 60.53 13.54 70.8 40.92v47.94c-10.27 27.37-36.6 46.12-70.8 46.12-39.33 0-69.77-24.21-69.77-70.08"/><path class="cls-1" d="M153.94.48v112.98c-12.66-22.6-38.32-32.71-71.83-32.71-46.85 0-81.73 30.51-81.73 82.21s34.88 77.41 81.74 77.41c33.52 0 59.17-15.3 72.85-39.27v39.02h11.97V.48h-12.98Z"/><path class="cls-2" d="m155.42 200.73 11.89-6.87-11.89 16.11 11.9-6.87-11.9 16.11 11.9-6.87-11.9 16.1 11.9-6.87-11.9 16.11 11.9-6.87"/><path class="cls-2" d="m34.58 93.94 7.28-4.2-28.08 25.45 58.77-33.93L7.2 128.23l14.85-8.58-18.44 19.89 12.71-7.34-14.7 17.72 12.2-7.04-13.1 16.8 12.11-6.99L.75 168.9l12.06-6.96-11.14 15.67 11.94-6.9-10.17 15.11 11.78-6.8-9.17 14.53 11.62-6.71-8.22 13.99 11.52-6.66-7.3 13.46 11.49-6.64-6.45 12.97 11.59-6.7-5.71 12.54 11.88-6.86-5.08 12.17 12.41-7.16-4.59 11.88 13.25-7.65-4.28 11.71 14.6-8.43-4.25 11.69 16.76-9.67-4.56 11.87 20.6-11.9-5.68 12.52 81.66-47.15-60.74 44.31 38.17-22.04"/><path class="cls-2" d="m43.85 100.49 33.93-19.58-5.71 12.53 21.25-12.27-4.76 11.99 17.95-10.37-4.47 11.82 15.76-9.1-4.45 11.81 14.1-8.14-4.51 11.84 12.72-7.34-4.6 11.89 11.54-6.66-4.67 11.93 10.49-6.05-4.77 11.99 9.55-5.52-4.86 12.05 18.95-10.95-15.23 18.04 15.24-8.8-13.9 17.26 13.9-8.02-13.9 17.26 13.9-8.03-13.9 17.27 13.9-8.03-13.9 17.26 13.91-8.02-13.91 17.26 13.91-8.03-15.63 18.26 15.63-9.02-23.82 22.99 23.82-13.76"/><path class="cls-2" d="m154.4.4.25-.15-.3 9.42 12.92-7.46-12.98 16.72 12.98-7.49-13.04 16.76 13.04-7.52-13.09 16.79 13.09-7.56-13.15 16.83 13.16-7.59-13.21 16.86 13.21-7.62-13.27 16.89 13.27-7.66-13.32 16.93 13.32-7.69-13.38 16.96 13.38-7.72-13.43 16.99 13.44-7.76-13.5 17.03 13.5-7.79-13.55 17.06 13.55-7.83"/></g></svg>