<svg id="Layer_2" data-name="Layer 2" xmlns="http://www.w3.org/2000/svg" viewBox="0 0 167.3 239.42"><defs><style>.cls-1{fill:none;stroke:#fff;stroke-miterlimit:10;stroke-width:.75px}</style></defs><g id="_00_sign" data-name="00_sign"><path class="cls-1" d="M13.38 82.73c0-46.22 30.42-69.94 69.76-69.94 34.21 0 60.54 25.26 70.8 52.64v33.86c-10.26 26.35-39.75 48.31-70.8 48.45-39.33.17-69.76-22.24-69.76-68.11"/><path class="cls-1" d="M.38 82.73c0 51.69 34.88 77.33 81.74 77.33 33.53 0 59.17-17 71.82-39.94v39.84c0 47.94-35.91 66.76-75.24 66.76-22.93 0-43.78-5.82-63.61-16.09v12.66c19.49 10.27 41.72 15.75 64.97 15.75 44.47 0 86.87-23.28 86.87-79.09V.38h-11.97v42.88C141.28 19.3 115.64.46 82.11.46 35.26.46.38 30.92.38 82.63"/></g></svg>