<svg width="640" height="178" viewBox="0 0 640 178" fill="none" xmlns="http://www.w3.org/2000/svg">
<g clip-path="url(#clip0_89_599)">
<line opacity="0.15" x1="-74" y1="72.75" x2="694" y2="72.75" stroke="white" stroke-width="0.5" stroke-dasharray="4 3"/>
<line opacity="0.15" x1="-74" y1="106.75" x2="694" y2="106.75" stroke="white" stroke-width="0.5" stroke-dasharray="4 3"/>
<line opacity="0.15" x1="-74" y1="144.75" x2="694" y2="144.75" stroke="white" stroke-width="0.5" stroke-dasharray="4 3"/>
<g opacity="0.75">
<path d="M616.055 42.4089H619.888V144.494H616.055V42.4089Z" stroke="white" stroke-width="0.5" stroke-miterlimit="10"/>
</g>
<g opacity="0.75">
<path d="M195.672 49.4314V76.4601H186.368V98.0514H195.672V117.231C195.672 139.163 209.145 144.494 222.049 144.494C228.443 144.494 234.551 143.458 240.795 141.677V117.674C238.436 118.565 235.799 118.859 232.888 118.859C228.169 118.859 224.972 117.078 224.972 112.19V98.0472H239.829V76.4558H224.972V42.4474L195.672 49.4314Z" stroke="white" stroke-width="0.5" stroke-miterlimit="10"/>
<path d="M220.567 43.7087C220.833 44.5013 221.316 45.2087 221.952 45.7115C222.77 46.3592 223.829 46.6617 224.843 46.5339" stroke="white" stroke-width="0.5" stroke-linecap="round" stroke-linejoin="round"/>
<path d="M222.134 55.3716C221.856 55.5335 221.735 55.9469 221.888 56.2451C222.041 56.5434 222.428 56.6713 222.71 56.5136C222.991 56.3559 223.116 55.9469 222.971 55.6443C222.826 55.3418 222.44 55.2097 222.154 55.3631" stroke="white" stroke-width="0.5" stroke-linecap="round" stroke-linejoin="round"/>
<path d="M214.673 55.623C215.51 55.8063 216.388 55.802 217.226 55.6145C216.899 57.417 216.352 59.1726 215.607 60.8259" stroke="white" stroke-width="0.5" stroke-linecap="round" stroke-linejoin="round"/>
<path d="M215.293 57.9283L217.475 57.988" stroke="white" stroke-width="0.5" stroke-linecap="round" stroke-linejoin="round"/>
<path d="M218.735 55.491L218.409 58.0349" stroke="white" stroke-width="0.5" stroke-linecap="round" stroke-linejoin="round"/>
<path d="M218.409 58.086C218.768 57.7749 219.339 57.8474 219.678 58.184C220.016 58.5206 220.133 59.0533 220.06 59.5391C219.98 60.0674 219.67 60.5745 219.203 60.7791C218.736 60.9836 218.124 60.8131 217.878 60.3444" stroke="white" stroke-width="0.5" stroke-linecap="round" stroke-linejoin="round"/>
<path d="M218.735 55.4909L220.736 55.2012" stroke="white" stroke-width="0.5" stroke-linecap="round" stroke-linejoin="round"/>
</g>
<g opacity="0.75">
<path d="M491.253 52.4347V76.0135H478.27V81.3H491.253V123.188C491.253 137.293 499.333 144.489 512.321 144.489C518.671 144.489 524.587 143.167 528.625 141.116V135.825C524.587 138.031 519.392 139.352 513.764 139.352C502.367 139.352 496.734 133.916 496.734 122.459V81.3H526.755V76.0135H496.738V50.8213L491.257 52.439L491.253 52.4347Z" stroke="white" stroke-width="0.5" stroke-miterlimit="10"/>
</g>
<g opacity="0.75">
<path d="M268.933 111.391C268.933 91.6798 281.5 81.5852 297.737 81.5852C311.856 81.5852 322.726 87.3596 326.966 99.0364V119.482C322.726 131.154 311.856 139.15 297.737 139.15C281.5 139.15 268.933 128.826 268.933 109.263" stroke="white" stroke-width="0.5" stroke-miterlimit="10"/>
<path d="M326.962 42.0981V90.281C321.735 80.6427 311.142 76.3311 297.308 76.3311C277.966 76.3311 263.566 89.3427 263.566 111.391C263.566 133.44 277.966 144.405 297.312 144.405C311.15 144.405 321.739 137.88 327.387 127.657V144.298H332.328V42.0981H326.97H326.962Z" stroke="white" stroke-width="0.5" stroke-miterlimit="10"/>
<path d="M327.572 127.499L332.481 124.569L327.572 131.44L332.485 128.51L327.572 135.38L332.485 132.45L327.572 139.317L332.485 136.387L327.572 143.257L332.485 140.327" stroke="white" stroke-width="0.5" stroke-linecap="round" stroke-linejoin="round"/>
<path d="M277.685 81.9561L280.691 80.1649L269.098 91.0187L293.361 76.5485L266.382 96.5799L272.512 92.9207L264.9 101.403L270.147 98.2729L264.078 105.83L269.115 102.828L263.707 109.992L268.706 107.011L263.719 113.924L268.698 110.956L264.099 117.639L269.028 114.696L264.829 121.14L269.693 118.24L265.907 124.437L270.704 121.575L267.311 127.542L272.066 124.701L269.053 130.442L273.796 127.61L271.133 133.141L275.918 130.284L273.561 135.632L278.465 132.706L276.368 137.896L281.492 134.843L279.597 139.909L285.067 136.647L283.3 141.641L289.327 138.046L287.573 143.031L294.492 138.907L292.609 143.969L301.114 138.894L298.769 144.234L332.481 124.126L307.405 143.023L323.163 133.623" stroke="white" stroke-width="0.5" stroke-linecap="round" stroke-linejoin="round"/>
<path d="M281.512 84.7496L295.52 76.3993L293.162 81.743L301.935 76.5102L299.97 81.6236L307.381 77.2011L305.535 82.242L312.041 78.3611L310.204 83.3977L316.025 79.9262L314.163 84.9756L319.415 81.8453L317.516 86.9161L322.28 84.0758L320.352 89.1636L324.683 86.5834L322.713 91.6968L326.656 89.3427L324.649 94.4817L332.473 89.8118L326.185 97.5054L332.477 93.7524L326.738 101.113L332.477 97.693L326.738 105.054L332.477 101.629L326.738 108.995L332.477 105.57L326.738 112.931L332.481 109.511L326.738 116.871L332.481 113.447L326.028 121.234L332.481 117.388L322.647 127.192L332.481 121.324" stroke="white" stroke-width="0.5" stroke-linecap="round" stroke-linejoin="round"/>
<path d="M327.151 42.064L327.255 42L327.131 46.0174L332.465 42.8359L327.106 49.9665L332.465 46.7722L327.081 53.9199L332.465 50.7128L327.061 57.8733L332.465 54.6492L327.036 61.8267L332.469 58.5898L327.015 65.7801L332.469 62.5304L326.99 69.7335L332.469 66.4667L326.97 73.6869L332.469 70.4073L326.945 77.6403L332.469 74.3479L326.924 81.5937L332.473 78.2842L326.9 85.5471L332.473 82.2248L326.879 89.5005L332.473 86.1612" stroke="white" stroke-width="0.5" stroke-linecap="round" stroke-linejoin="round"/>
</g>
<g opacity="0.75">
<path d="M292.345 106.657C292.333 107.093 292.353 107.342 292.377 107.733C292.4 108.125 292.535 108.561 292.879 108.724C293.192 108.867 293.568 108.72 293.806 108.467C294.043 108.214 294.162 107.872 294.281 107.542C294.447 107.077 294.613 106.604 294.661 106.111C294.708 105.618 294.625 105.092 294.332 104.7C294.039 104.309 293.509 104.085 293.057 104.248C292.638 104.399 292.369 104.843 292.285 105.291C292.202 105.74 292.274 106.205 292.345 106.657" stroke="white" stroke-width="0.5" stroke-linecap="round" stroke-linejoin="round"/>
<path d="M295.425 107.142C295.342 107.452 295.5 107.896 295.702 108.141C295.904 108.386 296.058 108.467 296.371 108.431C296.704 108.39 296.997 108.174 297.203 107.905C297.408 107.636 297.539 107.309 297.654 106.987C297.804 106.576 297.939 106.148 297.923 105.707C297.907 105.267 297.713 104.81 297.337 104.598C296.941 104.374 296.419 104.476 296.07 104.774C295.722 105.071 295.528 105.524 295.453 105.985C295.377 106.445 295.409 106.914 295.441 107.379" stroke="white" stroke-width="0.5" stroke-linecap="round" stroke-linejoin="round"/>
<path d="M297.943 100C297.979 103.11 298.014 106.221 298.046 109.331" stroke="white" stroke-width="0.5" stroke-linecap="round" stroke-linejoin="round"/>
<path d="M299.305 104.382L299.241 108.855C299.265 107.856 299.526 106.861 299.997 105.989C300.116 105.773 300.298 105.532 300.54 105.557C300.809 105.581 300.936 105.903 300.995 106.176C301.181 107.049 301.233 107.954 301.149 108.846" stroke="white" stroke-width="0.5" stroke-linecap="round" stroke-linejoin="round"/>
<path d="M287.744 115.279L287.681 119.751C287.705 118.753 287.966 117.758 288.437 116.885C288.556 116.669 288.738 116.429 288.98 116.453C289.249 116.478 289.376 116.8 289.435 117.073C289.621 117.945 289.673 118.85 289.589 119.743" stroke="white" stroke-width="0.5" stroke-linecap="round" stroke-linejoin="round"/>
<path d="M304.364 100.665C304.178 103.482 303.996 106.298 303.81 109.115" stroke="white" stroke-width="0.5" stroke-linecap="round" stroke-linejoin="round"/>
<path d="M304.099 104.635C305.061 103.702 305.79 102.515 306.193 101.219" stroke="white" stroke-width="0.5" stroke-linecap="round" stroke-linejoin="round"/>
<path d="M304.143 104.68C305.089 106.184 305.845 107.807 306.399 109.507" stroke="white" stroke-width="0.5" stroke-linecap="round" stroke-linejoin="round"/>
<path d="M307.947 109.506L308.161 109.311C308.109 109.323 308.058 109.335 308.007 109.348C308.018 109.278 307.876 109.278 307.888 109.348" stroke="white" stroke-width="0.5" stroke-linecap="round" stroke-linejoin="round"/>
<path d="M284.625 114.113C284.486 113.812 284.043 113.791 283.789 113.999C283.536 114.207 283.437 114.55 283.37 114.876C283.045 116.494 283.279 118.17 283.512 119.804" stroke="white" stroke-width="0.5" stroke-linecap="round" stroke-linejoin="round"/>
<path d="M282 117.13L285.349 116.853" stroke="white" stroke-width="0.5" stroke-linecap="round" stroke-linejoin="round"/>
<path d="M291.497 119.474C291.767 119.376 291.988 119.172 292.194 118.964C292.59 118.561 292.962 118.112 293.156 117.574C293.35 117.036 293.346 116.396 293.03 115.923C292.713 115.45 292.044 115.222 291.561 115.507C291.434 115.581 291.268 115.703 290.975 116.408C290.432 117.725 290.333 118.92 290.646 119.287C290.741 119.401 290.864 119.462 290.864 119.462C291.042 119.547 291.256 119.552 291.442 119.494C291.462 119.49 291.482 119.482 291.497 119.474V119.474Z" stroke="white" stroke-width="0.5" stroke-linecap="round" stroke-linejoin="round"/>
<path d="M293.216 116.209L293.307 118.871C293.315 119.07 293.323 119.282 293.426 119.45C293.529 119.617 293.762 119.723 293.924 119.613" stroke="white" stroke-width="0.5" stroke-linecap="round" stroke-linejoin="round"/>
<path d="M294.673 117.843C295.71 116.926 296.34 115.54 296.363 114.134C296.367 113.742 296.245 113.249 295.868 113.188C295.651 113.151 295.437 113.294 295.318 113.481C295.199 113.669 295.152 113.897 295.116 114.117C294.843 115.715 294.815 117.358 295.041 118.969C295.073 119.193 295.12 119.437 295.294 119.572C295.599 119.808 296.039 119.543 296.256 119.225C296.474 118.907 296.625 118.5 296.961 118.316" stroke="white" stroke-width="0.5" stroke-linecap="round" stroke-linejoin="round"/>
<path d="M298.26 119.417C298.319 119.327 298.473 119.327 298.532 119.421C298.592 119.515 298.528 119.657 298.422 119.677C298.315 119.698 298.212 119.58 298.236 119.474" stroke="white" stroke-width="0.5" stroke-linecap="round" stroke-linejoin="round"/>
<path d="M299.312 113.253C300.152 115.21 300.583 117.35 300.571 119.49C300.92 117.301 301.569 115.161 302.496 113.159" stroke="white" stroke-width="0.5" stroke-linecap="round" stroke-linejoin="round"/>
<path d="M303.454 113.42C303.581 113.241 303.81 113.151 304.02 113.196C304.361 113.269 304.559 113.645 304.634 113.995C304.871 115.096 304.301 116.323 303.327 116.824C303.387 116.49 303.783 116.311 304.103 116.396C304.424 116.482 304.657 116.755 304.832 117.044C305.117 117.521 305.275 118.096 305.184 118.651C305.093 119.205 304.737 119.723 304.222 119.914C303.707 120.106 303.066 119.902 302.805 119.409" stroke="white" stroke-width="0.5" stroke-linecap="round" stroke-linejoin="round"/>
<path d="M306.027 119.951C306.106 119.951 306.173 119.857 306.154 119.776C306.134 119.694 306.031 119.653 305.96 119.694C305.968 119.841 306.083 119.975 306.225 120" stroke="white" stroke-width="0.5" stroke-linecap="round" stroke-linejoin="round"/>
<path d="M307.908 113.449L308.026 119.943" stroke="white" stroke-width="0.5" stroke-linecap="round" stroke-linejoin="round"/>
<path d="M307.995 113.412C308.893 113.388 309.741 114.199 309.772 115.128C309.804 116.058 309.024 116.93 308.125 116.975" stroke="white" stroke-width="0.5" stroke-linecap="round" stroke-linejoin="round"/>
<path d="M311.898 113.579C311.748 113.31 311.364 113.249 311.103 113.408C310.841 113.567 310.711 113.889 310.707 114.199C310.703 114.509 310.81 114.81 310.936 115.092C311.17 115.605 311.483 116.078 311.732 116.584C311.982 117.089 312.18 117.644 312.16 118.21C312.14 118.777 311.863 119.36 311.368 119.613C310.873 119.866 310.176 119.686 309.955 119.164" stroke="white" stroke-width="0.5" stroke-linecap="round" stroke-linejoin="round"/>
<path d="M313.236 113.314C313.264 115.479 313.288 117.644 313.316 119.808" stroke="white" stroke-width="0.5" stroke-linecap="round" stroke-linejoin="round"/>
<path d="M313.351 113.2C314.23 113.693 315.034 114.382 315.525 115.283C316.015 116.184 316.166 117.309 315.786 118.263C315.406 119.217 314.444 119.939 313.442 119.874" stroke="white" stroke-width="0.5" stroke-linecap="round" stroke-linejoin="round"/>
<path d="M283.659 102.422L283.417 109.185" stroke="white" stroke-width="0.5" stroke-linecap="round" stroke-linejoin="round"/>
<path d="M283.675 100.681L283.809 100.848C284.003 100.775 283.968 100.412 283.762 100.379" stroke="white" stroke-width="0.5" stroke-linecap="round" stroke-linejoin="round"/>
<path d="M286.462 113.041L286.22 119.804" stroke="white" stroke-width="0.5" stroke-linecap="round" stroke-linejoin="round"/>
<path d="M286.478 111.3L286.612 111.468C286.806 111.394 286.771 111.031 286.565 110.999" stroke="white" stroke-width="0.5" stroke-linecap="round" stroke-linejoin="round"/>
<path d="M302.701 102.422L302.46 109.185" stroke="white" stroke-width="0.5" stroke-linecap="round" stroke-linejoin="round"/>
<path d="M302.717 100.681L302.852 100.848C303.046 100.775 303.01 100.412 302.804 100.379" stroke="white" stroke-width="0.5" stroke-linecap="round" stroke-linejoin="round"/>
<path d="M286.232 102.903C286.125 102.601 285.745 102.47 285.456 102.581C285.167 102.691 284.969 102.992 284.906 103.302C284.843 103.612 284.886 103.942 284.953 104.252C285.104 104.953 285.361 105.63 285.714 106.245C285.935 106.633 286.197 107 286.351 107.419C286.505 107.839 286.549 108.333 286.331 108.72C286.137 109.071 285.733 109.287 285.341 109.254C284.95 109.221 284.589 108.94 284.451 108.561" stroke="white" stroke-width="0.5" stroke-linecap="round" stroke-linejoin="round"/>
<path d="M287.685 100.073L287.946 109.258C288.069 108.064 288.188 106.865 288.311 105.671C288.35 105.271 288.453 104.786 288.825 104.66C289.197 104.533 289.566 104.863 289.803 105.185C290.619 106.294 291.078 107.676 291.094 109.066" stroke="white" stroke-width="0.5" stroke-linecap="round" stroke-linejoin="round"/>
</g>
<g opacity="0.75">
<path d="M542.604 123.549C542.604 110.517 555.134 106.125 567.377 106.125C575.351 106.125 583.472 107.737 590.164 109.931V122.668C584.038 133.506 572.932 139.22 561.543 139.22C551.857 139.22 542.604 135.854 542.604 125.17V123.553V123.549Z" stroke="white" stroke-width="0.5" stroke-miterlimit="10"/>
<path d="M542.312 78.6492V85.6634C547.872 83.4651 556.417 81.1213 566.669 81.1213C582.056 81.1213 590.168 90.197 590.168 103.815V105.098C583.047 102.75 574.927 101.287 566.815 101.287C552.144 101.287 537.049 107.001 537.049 123.69C537.049 137.753 548.725 144.194 560.543 144.194C572.361 144.194 583.33 140.541 590.168 131.166V133.069C590.168 141.559 595.44 144.493 600.995 144.493C603.277 144.493 605.55 144.048 607.682 143.321V138.634C605.971 139.224 604.126 139.665 602.415 139.665C598.713 139.665 595.581 138.052 595.581 132.933V104.405C595.581 86.536 585.183 75.8478 567.098 75.8478C556.271 75.8478 547.584 76.7459 542.312 78.6492Z" stroke="white" stroke-width="0.5" stroke-miterlimit="10"/>
<path d="M590.192 130.935L595.556 127.753L590.251 134.357L595.556 131.213L590.838 137.466L595.714 134.575L592.133 140.157L596.872 137.347L594.282 142.338L599.52 139.233L597.584 143.835L605.104 139.378L602.893 144.147L607.665 141.316" stroke="white" stroke-width="0.5" stroke-linecap="round" stroke-linejoin="round"/>
<path d="M545.623 106.578L548.363 104.953L539.173 113.857L559.944 101.544L537.632 118.233L545.852 113.357L537.111 121.996L543.249 118.357L537.153 125.431L542.612 122.189L537.649 128.592L542.596 125.658L538.581 131.496L543.054 128.844L539.947 134.143L544.166 131.641L541.742 136.534L545.956 134.036L543.982 138.664L548.451 136.016L546.689 140.516L551.699 137.543L549.929 142.051L555.792 138.574L553.793 143.219L560.877 139.019L558.499 143.882L567.623 138.471L564.445 143.813L595.556 125.367L572.337 142.59L588.477 133.023" stroke="white" stroke-width="0.5" stroke-linecap="round" stroke-linejoin="round"/>
<path d="M551.694 108.879L564.749 101.138L562.138 106.142L570.421 101.232L568.389 105.894L575.143 101.89L573.698 106.202L579.636 102.682L578.466 106.83L584.379 103.323L582.859 107.681L589.393 103.811L586.953 108.712L595.548 103.618L590.176 110.26L595.556 107.07L590.18 113.716L595.556 110.526L590.184 117.168L595.556 113.981L590.188 120.623L595.556 117.441L588.573 125.037L595.556 120.897" stroke="white" stroke-width="0.5" stroke-linecap="round" stroke-linejoin="round"/>
<path d="M542.337 78.7305L542.587 78.5808L542.337 82.1863L551.628 76.6776L542.337 85.6421L558.445 76.0916L553.747 82.336L564.62 75.8864L561.305 81.3096L570.279 75.989L567.481 81.1043L575.006 76.6434L572.503 81.5833L578.97 77.7511L576.563 82.6311L582.331 79.2138L579.895 84.1153L585.196 80.9717L582.643 85.9415L587.632 82.9819L584.883 88.0715L589.685 85.223L586.691 90.4537L591.396 87.6652L588.102 93.0755L592.787 90.2955L589.139 95.9197L593.886 93.1055L589.818 98.9735L594.698 96.078L590.151 102.233L595.24 99.213" stroke="white" stroke-width="0.5" stroke-linecap="round" stroke-linejoin="round"/>
</g>
<g opacity="0.75">
<path d="M147.954 75.7877V117.212C146.681 118.874 144.126 120.836 140.869 120.836C137.045 120.836 134.354 118.726 134.354 113.892V75.7877H104.473V117.125C104.473 131.164 111.977 145.2 130.678 145.2C138.893 145.2 145.691 141.875 151.642 135.539V144.983H177.852V75.7877H147.954Z" stroke="white" stroke-width="0.5" stroke-miterlimit="10"/>
<path d="M148.117 76.0178C148.117 76.0178 148.22 75.9527 148.22 75.957C148.253 76.0178 148.105 80.5443 148.117 80.5746C148.142 80.6224 155.667 75.9136 155.691 75.9527C155.765 76.0916 148.056 84.9666 148.117 85.0881C148.245 85.3225 162.974 75.7314 163.093 75.9527C163.237 76.2131 147.998 89.5278 148.117 89.7448C148.253 89.9922 170.544 75.6098 170.729 75.9527C170.885 76.2348 147.965 93.9979 148.117 94.2756C148.368 94.7356 177.871 75.8399 177.991 76.0525C178.151 76.3433 147.846 98.4158 148.122 98.9193C148.302 99.2491 177.892 80.5139 177.995 80.6962C178.249 81.1649 147.904 103.242 148.126 103.645C148.368 104.088 177.769 85.01 177.999 85.4223C178.155 85.7087 147.875 107.625 148.13 108.089C148.22 108.25 177.855 89.5972 177.999 89.8663C178.142 90.1354 147.887 112.338 148.13 112.785C148.384 113.254 177.756 94.1194 177.999 94.562C178.257 95.0394 147.99 116.856 148.13 117.108C148.286 117.39 177.855 98.6242 177.999 98.8845" stroke="white" stroke-width="0.5" stroke-linecap="round" stroke-linejoin="round"/>
<path d="M104.646 76.0178C104.646 76.0178 104.748 75.9527 104.748 75.957C104.765 75.9917 104.629 80.4358 104.646 80.4661C104.683 80.5356 112.006 75.8789 112.047 75.9527C112.117 76.0785 104.572 84.806 104.646 84.9449C104.699 85.0447 119.301 75.7834 119.395 75.9483C119.51 76.1653 104.588 89.3976 104.646 89.5017C104.732 89.6623 126.76 75.7487 126.867 75.9483C127.01 76.2087 104.485 93.8937 104.646 94.1888C104.884 94.6228 134.359 75.701 134.506 75.97C134.654 76.2391 104.551 98.3985 104.646 98.5764C104.822 98.9019 134.264 79.9193 134.506 80.362C134.634 80.592 104.391 102.76 104.646 103.224C104.843 103.589 134.387 84.7887 134.506 85.01C134.699 85.3572 104.51 107.3 104.646 107.556C104.822 107.881 134.383 89.1155 134.506 89.3412C134.609 89.5234 104.391 111.683 104.646 112.147C104.744 112.329 134.375 93.6854 134.506 93.9327C134.613 94.128 104.453 116.379 104.646 116.734C104.798 117.016 134.338 98.2119 134.506 98.52C134.724 98.9193 104.625 120.666 104.851 121.079C104.987 121.33 134.408 102.803 134.506 102.986C134.621 103.194 105.332 124.733 105.475 124.989C105.656 125.319 134.4 107.078 134.506 107.278C134.601 107.447 106.478 128.717 106.63 128.995C106.794 129.298 134.342 111.687 134.506 111.987C134.662 112.273 108.059 132.284 108.17 132.484C108.26 132.649 134.675 116.096 134.765 116.261C134.979 116.652 109.969 135.352 110.1 135.591C110.211 135.795 136.507 119.265 136.597 119.429C136.819 119.833 112.548 138.351 112.647 138.529C112.803 138.811 141.464 120.467 141.661 120.827C141.818 121.109 115.674 140.751 115.875 141.12C116.109 141.545 177.576 102.448 178 103.22C178.423 103.993 119.395 142.648 119.654 143.121C120.016 143.78 177.683 106.948 178 107.53C178.242 107.977 124.106 143.937 124.46 144.579C124.69 145 177.687 111.34 178 111.917C178.16 112.212 130.834 144.792 131.048 145.182C131.274 145.595 177.757 116.096 178 116.539C178.164 116.839 151.696 136.997 151.811 137.206C151.926 137.414 177.794 120.853 178.004 121.231C178.238 121.66 151.729 141.545 151.811 141.702C151.893 141.858 177.856 125.458 178.004 125.722C178.098 125.896 154.086 144.809 154.177 144.978C154.353 145.299 177.922 130.288 178.004 130.444C178.073 130.574 161.213 144.735 161.344 144.978C161.451 145.169 177.893 134.606 178.008 134.814C178.053 134.892 168.52 144.9 168.565 144.974C168.643 145.117 177.938 139.085 178.012 139.211C178.049 139.276 175.728 144.917 175.753 144.97C175.769 144.996 178 143.568 178.012 143.594" stroke="white" stroke-width="0.5" stroke-linecap="round" stroke-linejoin="round"/>
</g>
<g opacity="0.5" clip-path="url(#clip1_89_599)">
<path d="M20.1892 24.412V0.194702H46.557" stroke="white" stroke-width="0.5" stroke-linecap="round" stroke-linejoin="round"/>
<path d="M29.5057 6.22961C29.4073 12.0309 29.3089 17.8399 29.2105 23.6412C29.15 21.5309 29.2105 19.1092 30.7923 17.7542C31.2766 17.3415 31.8897 17.0612 32.5254 17.069C33.7439 17.0846 34.7429 18.167 35.1137 19.3583C35.4846 20.5497 35.3559 21.8346 35.2273 23.0805" stroke="white" stroke-width="0.5" stroke-linecap="round" stroke-linejoin="round"/>
<path d="M37.0815 21.5465C39.0039 21.6244 40.8884 20.2461 41.456 18.3539C41.5998 17.8555 41.6679 17.3182 41.5165 16.8277C41.3652 16.3371 40.9716 15.901 40.4721 15.8231C39.9196 15.7375 39.3672 16.1035 39.0644 16.5941C38.7617 17.0846 38.6482 17.6609 38.5422 18.2293C38.3454 19.2883 38.1487 20.3863 38.3984 21.4297C38.6482 22.4732 39.4958 23.4543 40.5402 23.4699C41.5695 23.4855 42.3944 22.6367 43.0832 21.8424" stroke="white" stroke-width="0.5" stroke-linecap="round" stroke-linejoin="round"/>
<path d="M46.6101 16.119C46.0576 16.9678 45.5052 17.8321 45.1797 18.7977C44.8543 19.7633 44.7786 20.8534 45.1949 21.7879C45.6111 22.7223 46.5798 23.4153 47.5637 23.2907C48.3735 23.1817 49.0471 22.5666 49.5088 21.8735C50.0915 21.0092 50.4472 19.9657 50.3791 18.9145C50.311 17.8633 49.7661 16.8354 48.873 16.3215C47.98 15.8075 46.7615 15.8932 46.0425 16.6329" stroke="white" stroke-width="0.5" stroke-linecap="round" stroke-linejoin="round"/>
<path d="M50.2505 18.494C50.417 19.4985 50.5759 20.5108 50.8408 21.4998C50.9922 22.076 51.2192 22.6912 51.7187 22.9871C52.2182 23.283 53.0356 23.0104 53.0432 22.4108" stroke="white" stroke-width="0.5" stroke-linecap="round" stroke-linejoin="round"/>
<path d="M53.6333 16.2358C54.5869 18.4628 55.2302 20.8301 55.5405 23.2518C55.5329 20.3706 57.0769 17.5284 59.4684 16.0333" stroke="white" stroke-width="0.5" stroke-linecap="round" stroke-linejoin="round"/>
<path d="M61.4287 15.9866C61.5649 16.7964 61.3303 17.614 61.2092 18.4239C61.0881 19.2337 61.1335 20.1604 61.6936 20.7366C62.2915 21.3595 63.3435 21.344 64.0473 20.8456C64.7511 20.3472 65.1296 19.4751 65.2355 18.603C65.3415 17.7308 65.1977 16.8509 65.0463 15.9866C65.0917 18.821 65.1296 21.6554 65.175 24.4977C65.1901 25.3309 65.1371 26.2964 64.4711 26.7714C63.6613 27.3477 62.4201 26.6313 62.2234 25.6423C62.0266 24.6534 62.6018 23.6333 63.3889 23.0104C64.176 22.3874 65.1371 22.0759 66.0529 21.6944C66.9686 21.3128 67.8995 20.83 68.4672 19.9968" stroke="white" stroke-width="0.5" stroke-linecap="round" stroke-linejoin="round"/>
</g>
<g opacity="0.5" clip-path="url(#clip2_89_599)">
<path d="M619.819 24.0286V0.19165H594.885" stroke="white" stroke-width="0.5" stroke-linecap="round" stroke-linejoin="round"/>
<path d="M588.881 8.92932C588.008 12.9992 587.843 17.2454 588.409 21.3843C588.552 22.4344 588.903 23.6761 589.862 23.952C590.484 24.1283 591.157 23.7987 591.594 23.3005C592.03 22.8023 592.288 22.1431 592.531 21.507" stroke="white" stroke-width="0.5" stroke-linecap="round" stroke-linejoin="round"/>
<path d="M585.718 14.4095H590.584" stroke="white" stroke-width="0.5" stroke-linecap="round" stroke-linejoin="round"/>
<path d="M595.193 7.74902C595.1 13.4592 595.007 19.177 594.914 24.8871C594.857 22.81 594.914 20.4263 596.41 19.0927C596.868 18.6864 597.448 18.4105 598.049 18.4182C599.201 18.4335 600.146 19.4989 600.496 20.6716C600.847 21.8443 600.725 23.1089 600.604 24.3353" stroke="white" stroke-width="0.5" stroke-linecap="round" stroke-linejoin="round"/>
<path d="M603.445 10.3396C603.566 14.9614 603.688 19.5755 603.81 24.1972" stroke="white" stroke-width="0.5" stroke-linecap="round" stroke-linejoin="round"/>
<path d="M603.151 7.45776L603.531 7.68003C603.509 7.51141 603.488 7.33513 603.473 7.1665" stroke="white" stroke-width="0.5" stroke-linecap="round" stroke-linejoin="round"/>
<path d="M607.073 17.4601C607.095 19.5219 607.109 21.5837 607.13 23.6378C607.13 22.5111 607.145 21.3537 607.553 20.3113C607.954 19.2689 608.855 18.3645 609.907 18.3492C611.009 18.3339 611.961 19.3073 612.348 20.411C612.734 21.5147 612.691 22.741 612.641 23.9214" stroke="white" stroke-width="0.5" stroke-linecap="round" stroke-linejoin="round"/>
</g>
<g opacity="0.75">
<path d="M354.734 76.0001H349.374V144.298H354.734V76.0001Z" stroke="white" stroke-width="0.5" stroke-miterlimit="10"/>
<path d="M348.103 54.4255C348.103 57.2074 349.935 58.5256 352.056 58.5256C354.177 58.5256 356.005 57.2074 356.005 54.4255C356.005 51.7891 354.169 50.4667 352.056 50.4667C349.943 50.4667 348.103 51.7891 348.103 54.4255Z" stroke="white" stroke-width="0.5" stroke-miterlimit="10"/>
</g>
<g opacity="0.75">
<path d="M464.734 76.2472H459.374V144.545H464.734V76.2472Z" stroke="white" stroke-width="0.5" stroke-miterlimit="10"/>
<path d="M458.103 54.6726C458.103 57.4545 459.935 58.7727 462.056 58.7727C464.177 58.7727 466.005 57.4545 466.005 54.6726C466.005 52.0362 464.169 50.7137 462.056 50.7137C459.943 50.7137 458.103 52.0362 458.103 54.6726Z" stroke="white" stroke-width="0.5" stroke-miterlimit="10"/>
</g>
<g opacity="0.75">
<path d="M48.707 109.124C48.707 102.517 51.2067 97.095 58.4438 97.095C65.6809 97.095 68.3145 102.517 68.3145 109.124C68.3145 115.73 65.8148 121.161 58.4438 121.161C51.0728 121.161 48.707 115.726 48.707 109.124Z" stroke="white" stroke-width="0.5" stroke-miterlimit="10"/>
<path d="M20.05 109.124C20.05 134.508 37.5774 146.689 58.4437 146.689C79.3119 146.689 96.9752 134.508 96.9752 109.124C96.9752 83.7392 79.3119 71.558 58.4437 71.558C37.5754 71.558 20.05 83.7392 20.05 109.124Z" stroke="white" stroke-width="0.5" stroke-miterlimit="10"/>
<path d="M69.2593 110.131H95.4924" stroke="white" stroke-width="0.5" stroke-linecap="round" stroke-linejoin="round"/>
<path d="M69.2612 108.931V111.358" stroke="white" stroke-width="0.5" stroke-linecap="round" stroke-linejoin="round"/>
<path d="M95.4922 109.032V111.458" stroke="white" stroke-width="0.5" stroke-linecap="round" stroke-linejoin="round"/>
<path d="M85.248 105.143C84.7205 105.956 84.193 106.767 83.6675 107.58" stroke="white" stroke-width="0.5" stroke-linecap="round" stroke-linejoin="round"/>
<path d="M83.7612 105.129C84.2588 105.961 84.8222 106.749 85.4416 107.487" stroke="white" stroke-width="0.5" stroke-linecap="round" stroke-linejoin="round"/>
<path d="M80.4907 102.912C80.7145 102.742 80.9443 102.573 81.208 102.485C81.4718 102.398 81.7755 102.402 82.0053 102.561C82.4349 102.86 82.4069 103.57 82.0972 104.001C81.7875 104.431 81.29 104.657 80.8264 104.895C80.3628 105.134 79.8833 105.432 79.6755 105.926C79.4497 106.461 79.6275 107.138 80.0571 107.512C80.4867 107.886 81.1241 107.957 81.6396 107.73C81.9893 107.575 82.297 107.266 82.3629 106.877C82.4409 106.419 82.1691 105.968 81.8255 105.673C81.4818 105.378 81.0662 105.194 80.6945 104.939C80.3229 104.684 79.9812 104.316 79.9233 103.857C79.8653 103.397 80.4188 102.918 80.9163 102.619" stroke="white" stroke-width="0.5" stroke-linecap="round" stroke-linejoin="round"/>
</g>
<g opacity="0.75">
<path d="M375.555 111.195C375.555 91.4416 388.556 81.304 405.369 81.304C419.99 81.304 431.243 92.0997 435.628 103.802V118.273C431.243 129.534 418.64 138.92 405.369 138.98C388.56 139.052 375.555 129.475 375.555 109.87" stroke="white" stroke-width="0.5" stroke-miterlimit="10"/>
<path d="M370 111.195C370 133.287 384.907 144.245 404.935 144.245C419.265 144.245 430.223 136.979 435.629 127.175V144.202C435.629 164.691 420.282 172.735 403.473 172.735C393.673 172.735 384.762 170.247 376.287 165.858V171.269C384.617 175.658 394.117 178 404.054 178C423.06 178 441.181 168.05 441.181 144.198V76H436.065V94.3263C430.219 84.0861 419.261 76.0342 404.93 76.0342C384.907 76.0342 370 89.0524 370 111.153" stroke="white" stroke-width="0.5" stroke-miterlimit="10"/>
<path d="M415.304 98.8481C407.982 105.746 401.559 113.593 396.242 122.132" stroke="white" stroke-width="0.5" stroke-miterlimit="10"/>
<path d="M397.219 98.8481C404.014 106.921 409.177 113.054 415.977 121.132" stroke="white" stroke-width="0.5" stroke-miterlimit="10"/>
</g>
<g opacity="0.75">
<path d="M370.996 64.9615L440.996 64.7983" stroke="white" stroke-width="0.5" stroke-linecap="round" stroke-linejoin="round"/>
<path d="M370.996 63.8638V66.0001" stroke="white" stroke-width="0.5" stroke-linecap="round" stroke-linejoin="round"/>
<path d="M440.996 63.8638V66.0001" stroke="white" stroke-width="0.5" stroke-linecap="round" stroke-linejoin="round"/>
<path d="M401.067 60.2847C402.152 59.9434 402.959 59.0125 403.051 58C402.891 59.7728 402.732 61.542 402.576 63.3148" stroke="white" stroke-width="0.5" stroke-linecap="round" stroke-linejoin="round"/>
<path d="M406.241 58.1261C405.939 58.0074 405.552 58.0778 405.287 58.2373C405.022 58.3968 404.858 58.623 404.72 58.853C404.035 59.999 403.871 61.3083 404.266 62.5248C404.333 62.7362 404.447 62.9698 404.711 63.07C405.09 63.2109 405.535 62.9958 405.808 62.7584C406.178 62.4357 406.439 62.0352 406.464 61.6161C406.493 61.197 406.262 60.7593 405.808 60.4997C405.354 60.2401 404.673 60.1993 404.203 60.4441" stroke="white" stroke-width="0.5" stroke-linecap="round" stroke-linejoin="round"/>
<path d="M409.364 60.8633L407.716 63.007" stroke="white" stroke-width="0.5" stroke-linecap="round" stroke-linejoin="round"/>
<path d="M407.813 60.8484C408.33 61.579 408.919 62.2726 409.562 62.9216" stroke="white" stroke-width="0.5" stroke-linecap="round" stroke-linejoin="round"/>
</g>
</g>
<defs>
<clipPath id="clip0_89_599">
<rect width="640" height="178" fill="white"/>
</clipPath>
<clipPath id="clip1_89_599">
<rect width="48.6486" height="27.1685" fill="white" transform="translate(20)"/>
</clipPath>
<clipPath id="clip2_89_599">
<rect width="34.4595" height="25.0787" fill="white" transform="translate(585.539)"/>
</clipPath>
</defs>
</svg>
