<svg id="Layer_2" data-name="Layer 2" xmlns="http://www.w3.org/2000/svg" viewBox="0 0 386 360.46"><defs><style>.cls-1{stroke-linecap:round;stroke-linejoin:round}.cls-1,.cls-2{fill:none;stroke:#fff}.cls-3{fill:#fff}.cls-2{stroke-miterlimit:10}</style></defs><g id="_00_sign" data-name="00_sign"><path class="cls-2" d="M143.92 180.23c0-31.61 12.51-57.55 48.73-57.55s49.4 25.94 49.4 57.55-12.51 57.59-49.4 57.59-48.73-26-48.73-57.59"/><path class="cls-2" d="M.5 180.23c0 121.45 87.72 179.73 192.15 179.73 104.44 0 192.84-58.28 192.84-179.73S297.09.5 192.65.5.5 58.78.5 180.23"/><path class="cls-1" d="M246.78 185.05h131.29M246.79 179.31v11.61M378.07 179.79v11.61"/><path class="cls-3" d="M326.37 160.94c-2.64 3.89-5.28 7.77-7.91 11.66-.36.53.5 1.03.86.5 2.64-3.89 5.28-7.77 7.91-11.66.36-.53-.5-1.03-.86-.5Z"/><path class="cls-3" d="M318.93 161.37c2.52 4.01 5.36 7.82 8.49 11.38.43.48 1.13-.23.71-.71-3.07-3.5-5.86-7.23-8.33-11.18-.34-.54-1.21-.04-.86.5ZM303.24 150.94c1.21-.88 2.48-1.78 3.96-2.12 1.25-.29 2.69-.11 3.61.87 1.47 1.57.96 4.29-.26 5.84-1.73 2.2-4.51 3.18-6.91 4.44s-4.68 2.88-5.46 5.5c-.73 2.45.08 5.26 1.89 7.05 1.92 1.9 4.84 2.54 7.44 1.96s5.05-2.47 5.38-5.2c.37-2.97-1.94-5.43-4.24-6.92s-5.23-2.57-6.94-4.93c-.71-.97-1.23-2.2-1.04-3.42.16-1.06.78-2.11 1.72-2.65.45-.26.94-.35 1.45-.31.27.02.5-.25.5-.5 0-.29-.23-.48-.5-.5-2.49-.23-4.35 2.43-4.2 4.73.18 2.82 2.53 4.89 4.78 6.27 2.48 1.51 5.44 2.68 6.89 5.38.63 1.17.84 2.54.32 3.79-.48 1.16-1.47 2.05-2.56 2.63-2.3 1.23-5.3 1.11-7.46-.36-2.01-1.37-3.1-4.04-2.55-6.42.62-2.65 3.09-4.22 5.35-5.38 2.43-1.24 5.14-2.29 6.88-4.5 1.4-1.77 1.96-4.52.74-6.54-.68-1.12-1.85-1.77-3.14-1.92-1.5-.17-2.96.33-4.24 1.07-.66.38-1.29.83-1.91 1.28-.22.16-.33.43-.18.68.13.22.46.34.68.18Z"/></g></svg>