<svg id="Layer_2" data-name="Layer 2" xmlns="http://www.w3.org/2000/svg" viewBox="0 0 135.93 240.32"><defs><style>.cls-1{fill:#fff}</style></defs><g id="rulers"><path d="M23.49 16.86v63.43H.38v50.67h23.11v45.01c0 51.47 33.46 63.98 65.51 63.98 15.88 0 31.05-2.43 46.56-6.61v-56.33c-5.86 2.09-12.41 2.78-19.64 2.78-11.72 0-19.66-4.18-19.66-15.65v-33.19h36.9V80.28h-36.9V.47L23.49 16.86Z" style="fill:none;stroke:#fff;stroke-miterlimit:10;stroke-width:.75px"/><path class="cls-1" d="M85.08 3.5c1.23 3.42 4.15 6 7.73 6.69 1.03.2 2.08.24 3.13.13.32-.04.32-.54 0-.5-2.23.25-4.51-.25-6.41-1.45s-3.24-2.95-3.97-5c-.11-.3-.59-.17-.48.13ZM89.08 30.58c-.62.35-.97 1.09-.89 1.8s.66 1.31 1.38 1.46 1.46-.14 1.84-.79.35-1.45-.12-2.02c-.51-.63-1.46-.82-2.18-.47-.12.06-.15.23-.09.34.07.12.22.15.34.09.46-.22 1.06-.1 1.43.24.39.36.47.92.27 1.41s-.68.79-1.22.74c-.5-.04-.98-.37-1.12-.86-.16-.56.09-1.22.6-1.5.28-.16.03-.59-.25-.43ZM70.62 31.63c2.14.43 4.33.42 6.47-.02l-.31-.31c-.81 4.21-2.16 8.3-4 12.17-.14.29.29.54.43.25 1.86-3.91 3.22-8.04 4.05-12.29a.255.255 0 0 0-.31-.31c-2.04.43-4.16.43-6.2.02-.31-.06-.45.42-.13.48Z"/><path class="cls-1" d="m72.22 37.05 5.42.14c.32 0 .32-.49 0-.5l-5.42-.14c-.32 0-.32.49 0 .5ZM80.53 31.02l-.81 5.97c-.04.31.44.45.48.13l.81-5.97c.04-.31-.44-.45-.48-.13Z"/><path class="cls-1" d="M80.14 37.35c.67-.53 1.64-.49 2.36-.09.79.44 1.23 1.32 1.34 2.2.21 1.67-.8 3.75-2.63 3.96-.91.11-1.87-.27-2.34-1.08-.16-.28-.59-.03-.43.25.49.85 1.43 1.31 2.4 1.34 1.05.03 1.99-.52 2.63-1.33 1.26-1.63 1.31-4.47-.56-5.69-.95-.62-2.22-.63-3.12.07-.25.2.1.55.35.35ZM80.83 31.32c1.66-.23 3.32-.46 4.97-.68.32-.04.18-.53-.13-.48l-4.97.68c-.32.04-.18.53.13.48Z"/></g></svg>