<svg id="Layer_2" data-name="Layer 2" xmlns="http://www.w3.org/2000/svg" viewBox="0 0 179.66 160.7"><defs><style>.cls-2{fill:none;stroke:#fff;stroke-linecap:round;stroke-linejoin:round;stroke-width:.5px}</style></defs><g id="_00_sign" data-name="00_sign"><path d="M106.24.38v95.45c-3.1 3.83-9.32 8.35-17.25 8.35-9.31 0-15.86-4.86-15.86-16V.38H.38v95.25c0 32.35 18.27 64.69 63.8 64.69 20 0 36.55-7.66 51.04-22.26v21.76h63.81V.38h-72.79Z" style="fill:none;stroke:#fff;stroke-miterlimit:10;stroke-width:.75px"/><path class="cls-2" d="M106.64.91s.25-.15.25-.14c.08.14-.28 10.57-.25 10.64.06.11 18.38-10.74 18.44-10.65.18.32-18.59 20.77-18.44 21.05.31.54 36.17-21.56 36.46-21.05.35.6-36.75 31.28-36.46 31.78.33.57 54.6-32.57 55.05-31.78.38.65-55.42 41.58-55.05 42.22.61 1.06 72.44-42.48 72.73-41.99.39.67-73.39 51.53-72.72 52.69.44.76 72.48-42.41 72.73-41.99.62 1.08-73.26 51.95-72.72 52.88.59 1.02 72.17-42.94 72.73-41.99.38.66-73.34 51.16-72.72 52.23.22.37 72.37-42.61 72.72-41.99s-73.31 51.78-72.72 52.81c.62 1.08 72.13-43.01 72.72-41.99.63 1.1-73.06 51.37-72.72 51.95.38.65 72.37-42.59 72.72-41.99"/><path class="cls-2" d="M.8.91s.25-.15.25-.14C1.09.85.76 11.09.8 11.16.89 11.32 18.72.59 18.82.76 18.99 1.05.62 21.16.8 21.48.93 21.71 36.48.37 36.71.75 36.99 1.25.66 31.74.8 31.98 1.01 32.35 54.64.29 54.9.75 55.25 1.35.41 42.1.8 42.78 1.38 43.78 73.14.18 73.5.8S.57 52.48.8 52.89c.43.75 72.11-42.99 72.7-41.97C73.81 11.45.18 62.53.8 63.6c.48.84 72.41-42.48 72.7-41.97.47.8-73.03 51.36-72.7 51.95.43.75 72.4-42.49 72.7-41.97.25.42-73.32 51.48-72.7 52.55.24.42 72.38-42.54 72.7-41.97.26.45-73.17 51.72-72.7 52.54.37.65 72.29-42.68 72.7-41.97.53.92-72.75 51.03-72.2 51.98.33.58 71.96-42.11 72.2-41.69.28.48-71.03 50.11-70.68 50.7.44.76 70.42-41.27 70.68-40.81.23.39-68.24 49.4-67.87 50.04.4.7 67.47-39.88 67.87-39.19.38.66-64.39 46.77-64.12 47.23.22.38 64.53-37.76 64.75-37.38.52.9-60.37 43.99-60.05 44.54.27.47 64.29-37.62 64.51-37.24.54.93-58.55 43.6-58.31 44.01.38.65 70.16-41.62 70.64-40.79.38.65-63.27 45.91-62.78 46.76.57.98 150.22-89.11 151.25-87.33S36.71 154.44 37.34 155.53c.88 1.52 141.28-83.35 142.05-82.01.59 1.03-131.21 83.89-130.35 85.37.56.97 129.59-76.59 130.35-75.26.39.68-114.83 75.75-114.31 76.65.55.95 113.72-67.02 114.31-66 .4.69-64.04 47.14-63.76 47.62s63.26-37.68 63.77-36.81c.57.99-63.97 46.81-63.77 47.17s63.41-37.43 63.77-36.82c.23.4-58.23 43.98-58.01 44.37.43.74 57.81-33.85 58.01-33.49.17.3-40.88 32.93-40.56 33.49.26.44 40.29-23.9 40.57-23.42.11.18-23.1 23.24-22.99 23.41.19.33 22.82-13.57 23-13.28.09.15-5.56 13.15-5.5 13.27.04.06 5.47-3.23 5.5-3.17"/></g></svg>