<svg width="247" height="56" viewBox="0 0 247 56" fill="none" xmlns="http://www.w3.org/2000/svg">
<path d="M6.87813 21.336L7.29413 19.096C8.06213 19.096 8.79813 19.0587 9.50213 18.984C10.2168 18.9093 10.8941 18.76 11.5341 18.536C12.1848 18.312 12.7928 17.9813 13.3581 17.544C13.9235 17.1067 14.4355 16.52 14.8941 15.784L16.6861 16.6C16.6221 16.8027 16.5688 17 16.5261 17.192C16.4835 17.3733 16.4621 17.5227 16.4621 17.64C16.4621 17.8853 16.5208 18.0987 16.6381 18.28C16.7661 18.4613 16.9795 18.6 17.2781 18.696C17.5768 18.792 17.9875 18.84 18.5101 18.84C18.9155 18.84 19.2035 18.9467 19.3741 19.16C19.5448 19.3627 19.6301 19.6187 19.6301 19.928C19.6301 20.2587 19.5181 20.536 19.2941 20.76C19.0808 20.9733 18.7661 21.08 18.3501 21.08C17.6141 21.08 16.9741 20.9787 16.4301 20.776C15.8968 20.5733 15.4755 20.2907 15.1661 19.928C14.8675 19.5547 14.6915 19.128 14.6381 18.648L15.2781 18.712C14.8941 19.1707 14.4141 19.5653 13.8381 19.896C13.2728 20.2267 12.6275 20.4987 11.9021 20.712C11.1875 20.9253 10.4035 21.08 9.55013 21.176C8.70746 21.2827 7.81679 21.336 6.87813 21.336ZM6.86213 21.336C5.71013 21.336 4.73413 21.2453 3.93413 21.064C3.14479 20.8933 2.49946 20.648 1.99813 20.328C1.50746 19.9973 1.15013 19.6133 0.926125 19.176C0.702125 18.7387 0.590125 18.2587 0.590125 17.736C0.590125 17.3947 0.616792 17.0533 0.670125 16.712C0.734125 16.36 0.808792 16.0187 0.894125 15.688C0.990125 15.3573 1.07546 15.0587 1.15013 14.792L3.15013 15.256C3.10746 15.448 3.05946 15.656 3.00613 15.88C2.95279 16.104 2.91013 16.3227 2.87813 16.536C2.84613 16.7387 2.83013 16.9253 2.83013 17.096C2.83013 17.4907 2.96879 17.8427 3.24613 18.152C3.53413 18.4507 4.00346 18.6853 4.65413 18.856C5.30479 19.016 6.17946 19.096 7.27813 19.096L7.59813 20.824L6.86213 21.336ZM9.83813 14.024C9.52879 14.024 9.26213 13.9173 9.03813 13.704C8.82479 13.48 8.71813 13.2187 8.71813 12.92C8.71813 12.6107 8.82479 12.344 9.03813 12.12C9.26213 11.896 9.52879 11.784 9.83813 11.784C10.1368 11.784 10.3928 11.896 10.6061 12.12C10.8195 12.344 10.9261 12.6107 10.9261 12.92C10.9261 13.2187 10.8195 13.48 10.6061 13.704C10.3928 13.9173 10.1368 14.024 9.83813 14.024ZM7.07013 14.008C6.76079 14.008 6.49413 13.9013 6.27013 13.688C6.05679 13.464 5.95013 13.2027 5.95013 12.904C5.95013 12.5947 6.05679 12.328 6.27013 12.104C6.49413 11.88 6.76079 11.768 7.07013 11.768C7.36879 11.768 7.62479 11.88 7.83813 12.104C8.05146 12.328 8.15812 12.5947 8.15812 12.904C8.15812 13.2027 8.05146 13.464 7.83813 13.688C7.62479 13.9013 7.36879 14.008 7.07013 14.008ZM18.3438 21.08L18.5038 18.84C18.9731 18.84 19.3411 18.808 19.6078 18.744C19.8851 18.68 20.0824 18.5627 20.1998 18.392C20.3171 18.2107 20.3758 17.9547 20.3758 17.624C20.3758 17.3253 20.3331 16.968 20.2478 16.552C20.1731 16.136 20.0718 15.704 19.9438 15.256C19.8158 14.808 19.6878 14.3973 19.5598 14.024L21.7678 13.416C21.8958 13.7787 22.0238 14.2 22.1518 14.68C22.2798 15.16 22.3864 15.656 22.4718 16.168C22.5678 16.6693 22.6158 17.1547 22.6158 17.624C22.6158 18.2107 22.5411 18.7067 22.3918 19.112C22.2424 19.5067 22.0344 19.8373 21.7678 20.104C21.5118 20.36 21.2024 20.5627 20.8398 20.712C20.4878 20.8507 20.0984 20.9467 19.6718 21C19.2451 21.0533 18.8024 21.08 18.3438 21.08ZM20.6478 12.088C20.3171 12.088 20.0344 11.976 19.7998 11.752C19.5758 11.528 19.4638 11.2507 19.4638 10.92C19.4638 10.5893 19.5758 10.3067 19.7998 10.072C20.0344 9.83733 20.3171 9.72 20.6478 9.72C20.9678 9.72 21.2398 9.83733 21.4638 10.072C21.6984 10.3067 21.8158 10.5893 21.8158 10.92C21.8158 11.2507 21.6984 11.528 21.4638 11.752C21.2398 11.976 20.9678 12.088 20.6478 12.088ZM23.1935 24.696L22.3775 22.712C22.9428 22.52 23.4602 22.296 23.9295 22.04C24.4095 21.784 24.8255 21.5013 25.1775 21.192C25.5295 20.8827 25.8015 20.5467 25.9935 20.184C26.1855 19.8107 26.2815 19.4107 26.2815 18.984C26.2815 18.536 26.1802 18.0453 25.9775 17.512C25.7748 16.9787 25.5295 16.4347 25.2415 15.88L27.3375 14.872C27.5295 15.2027 27.6948 15.56 27.8335 15.944C27.9828 16.3173 28.1055 16.6533 28.2015 16.952C28.2975 17.2507 28.3615 17.4533 28.3935 17.56C28.5428 18.072 28.7455 18.4133 29.0015 18.584C29.2682 18.7547 29.6948 18.84 30.2815 18.84C30.6868 18.84 30.9748 18.9467 31.1455 19.16C31.3268 19.3627 31.4175 19.6187 31.4175 19.928C31.4175 20.2587 31.3055 20.536 31.0815 20.76C30.8575 20.9733 30.5375 21.08 30.1215 21.08C29.6842 21.08 29.3002 21.016 28.9695 20.888C28.6388 20.76 28.3722 20.5733 28.1695 20.328C27.9775 20.0827 27.8548 19.7947 27.8015 19.464L28.3935 19.8C28.3295 20.3653 28.1428 20.8987 27.8335 21.4C27.5348 21.912 27.1455 22.3813 26.6655 22.808C26.1855 23.2347 25.6468 23.608 25.0495 23.928C24.4522 24.248 23.8335 24.504 23.1935 24.696ZM30.1406 21.08L30.3006 18.84C30.6846 18.84 31.0153 18.8027 31.2926 18.728C31.57 18.6533 31.8046 18.504 31.9966 18.28C32.1886 18.0453 32.3486 17.704 32.4766 17.256C32.6153 16.808 32.738 16.2107 32.8446 15.464L34.9406 15.816C34.9193 15.976 34.8873 16.1627 34.8446 16.376C34.8126 16.5893 34.7806 16.808 34.7486 17.032C34.7273 17.2453 34.7166 17.448 34.7166 17.64C34.7166 17.832 34.754 18.0027 34.8286 18.152C34.9033 18.3013 35.0206 18.4293 35.1806 18.536C35.3513 18.632 35.57 18.7067 35.8366 18.76C36.114 18.8133 36.45 18.84 36.8446 18.84C37.25 18.84 37.538 18.9467 37.7086 19.16C37.8793 19.3627 37.9646 19.6187 37.9646 19.928C37.9646 20.2587 37.8526 20.536 37.6286 20.76C37.4153 20.9733 37.1006 21.08 36.6846 21.08C36.2046 21.08 35.7673 21.0427 35.3726 20.968C34.9886 20.8933 34.6526 20.7707 34.3646 20.6C34.0873 20.4187 33.858 20.184 33.6766 19.896C33.506 19.5973 33.3993 19.2347 33.3566 18.808H34.1246C33.9326 19.32 33.6873 19.7307 33.3886 20.04C33.1006 20.3387 32.7753 20.5627 32.4126 20.712C32.05 20.8613 31.6713 20.9573 31.2766 21C30.8926 21.0533 30.514 21.08 30.1406 21.08ZM35.2766 14.024C34.9673 14.024 34.7006 13.9173 34.4766 13.704C34.2633 13.48 34.1566 13.2187 34.1566 12.92C34.1566 12.6107 34.2633 12.344 34.4766 12.12C34.7006 11.896 34.9673 11.784 35.2766 11.784C35.5753 11.784 35.8313 11.896 36.0446 12.12C36.258 12.344 36.3646 12.6107 36.3646 12.92C36.3646 13.2187 36.258 13.48 36.0446 13.704C35.8313 13.9173 35.5753 14.024 35.2766 14.024ZM32.5086 14.008C32.1993 14.008 31.9326 13.9013 31.7086 13.688C31.4953 13.464 31.3886 13.2027 31.3886 12.904C31.3886 12.5947 31.4953 12.328 31.7086 12.104C31.9326 11.88 32.1993 11.768 32.5086 11.768C32.8073 11.768 33.0633 11.88 33.2766 12.104C33.49 12.328 33.5966 12.5947 33.5966 12.904C33.5966 13.2027 33.49 13.464 33.2766 13.688C33.0633 13.9013 32.8073 14.008 32.5086 14.008ZM36.6875 21.08L36.8475 18.84C37.3168 18.84 37.6848 18.808 37.9515 18.744C38.2288 18.68 38.4262 18.5627 38.5435 18.392C38.6608 18.2107 38.7195 17.9547 38.7195 17.624C38.7195 17.3253 38.6768 16.968 38.5915 16.552C38.5168 16.136 38.4155 15.704 38.2875 15.256C38.1595 14.808 38.0315 14.3973 37.9035 14.024L40.1115 13.416C40.2395 13.7787 40.3675 14.2 40.4955 14.68C40.6235 15.16 40.7302 15.656 40.8155 16.168C40.9115 16.6693 40.9595 17.1547 40.9595 17.624C40.9595 18.2107 40.8848 18.7067 40.7355 19.112C40.5862 19.5067 40.3782 19.8373 40.1115 20.104C39.8555 20.36 39.5462 20.5627 39.1835 20.712C38.8315 20.8507 38.4422 20.9467 38.0155 21C37.5888 21.0533 37.1462 21.08 36.6875 21.08ZM38.9915 12.088C38.6608 12.088 38.3782 11.976 38.1435 11.752C37.9195 11.528 37.8075 11.2507 37.8075 10.92C37.8075 10.5893 37.9195 10.3067 38.1435 10.072C38.3782 9.83733 38.6608 9.72 38.9915 9.72C39.3115 9.72 39.5835 9.83733 39.8075 10.072C40.0422 10.3067 40.1595 10.5893 40.1595 10.92C40.1595 11.2507 40.0422 11.528 39.8075 11.752C39.5835 11.976 39.3115 12.088 38.9915 12.088ZM48.0696 12.424C48.0696 12.072 48.0483 11.72 48.0056 11.368C47.9736 11.016 47.931 10.6853 47.8776 10.376C47.8243 10.056 47.7763 9.77867 47.7336 9.544L49.9736 9.224C50.0163 9.43733 50.059 9.72 50.1016 10.072C50.1443 10.424 50.1816 10.7973 50.2136 11.192C50.2456 11.576 50.2616 11.944 50.2616 12.296C50.2616 12.8507 50.2136 13.3733 50.1176 13.864C50.0216 14.3547 49.8776 14.8187 49.6856 15.256C49.4936 15.6827 49.2536 16.0933 48.9656 16.488L48.6776 16.872C48.4003 17.2133 48.075 17.5493 47.7016 17.88C47.339 18.2107 46.939 18.5307 46.5016 18.84H47.5416C47.9043 18.84 48.1816 18.8187 48.3736 18.776C48.5656 18.7333 48.6936 18.6747 48.7576 18.6C48.8323 18.5147 48.8696 18.4187 48.8696 18.312C48.8696 18.12 48.7043 17.8373 48.3736 17.464C48.043 17.08 47.5843 16.6427 46.9976 16.152C46.411 15.6507 45.723 15.1227 44.9336 14.568C44.155 14.0027 43.3123 13.4373 42.4056 12.872L43.5736 11.16C44.8323 11.9387 45.8936 12.6533 46.7576 13.304C47.6323 13.9547 48.347 14.5467 48.9016 15.08C49.467 15.6133 49.9043 16.0987 50.2136 16.536C50.523 16.9733 50.7363 17.368 50.8536 17.72C50.971 18.0613 51.0296 18.3707 51.0296 18.648C51.0296 18.9573 50.9816 19.256 50.8856 19.544C50.7896 19.8213 50.635 20.072 50.4216 20.296C50.2083 20.5093 49.931 20.68 49.5896 20.808C49.2483 20.936 48.827 21 48.3256 21H43.6216V18.856C44.7203 18.0667 45.5896 17.32 46.2296 16.616C46.8803 15.912 47.3496 15.2187 47.6376 14.536C47.9256 13.8533 48.0696 13.1493 48.0696 12.424ZM43.3976 25.944L43.1256 24.824C43.499 24.76 43.7763 24.7067 43.9576 24.664C44.1496 24.6213 44.3523 24.5733 44.5656 24.52L44.4056 24.92C44.1283 24.824 43.8616 24.632 43.6056 24.344C43.3603 24.0667 43.2376 23.7467 43.2376 23.384C43.2376 23 43.323 22.6907 43.4936 22.456C43.6643 22.2213 43.883 22.0507 44.1496 21.944C44.4163 21.8373 44.6936 21.784 44.9816 21.784C45.1416 21.784 45.291 21.7947 45.4296 21.816C45.579 21.8373 45.7123 21.8693 45.8296 21.912L45.7016 23.064C45.595 23.0427 45.4883 23.0213 45.3816 23C45.275 22.9787 45.1576 22.968 45.0296 22.968C44.891 22.968 44.763 23.0107 44.6456 23.096C44.539 23.192 44.4856 23.304 44.4856 23.432C44.4856 23.6133 44.5496 23.7733 44.6776 23.912C44.8056 24.0507 44.955 24.1573 45.1256 24.232C45.307 24.3173 45.4563 24.3653 45.5736 24.376L44.6936 24.472C44.9816 24.3973 45.2536 24.3173 45.5096 24.232C45.7656 24.1573 46.0056 24.0773 46.2296 23.992L46.5496 25.064C46.283 25.16 45.9683 25.2613 45.6056 25.368C45.2536 25.4853 44.8856 25.592 44.5016 25.688C44.1283 25.784 43.7603 25.8693 43.3976 25.944ZM53.155 21L52.819 9.288H55.059L55.395 21H53.155ZM61.0373 24.696L60.2212 22.712C60.7866 22.52 61.3039 22.296 61.7733 22.04C62.2533 21.784 62.6693 21.5013 63.0213 21.192C63.3733 20.8827 63.6453 20.5467 63.8373 20.184C64.0293 19.8107 64.1253 19.4107 64.1253 18.984C64.1253 18.536 64.0239 18.0453 63.8213 17.512C63.6186 16.9787 63.3733 16.4347 63.0853 15.88L65.1813 14.872C65.3733 15.2027 65.5386 15.56 65.6773 15.944C65.8266 16.3173 65.9493 16.6533 66.0453 16.952C66.1413 17.2507 66.2053 17.4533 66.2373 17.56C66.3866 18.072 66.5893 18.4133 66.8453 18.584C67.1119 18.7547 67.5386 18.84 68.1253 18.84C68.5306 18.84 68.8186 18.9467 68.9893 19.16C69.1706 19.3627 69.2613 19.6187 69.2613 19.928C69.2613 20.2587 69.1493 20.536 68.9253 20.76C68.7013 20.9733 68.3813 21.08 67.9653 21.08C67.5279 21.08 67.1439 21.016 66.8133 20.888C66.4826 20.76 66.2159 20.5733 66.0133 20.328C65.8213 20.0827 65.6986 19.7947 65.6453 19.464L66.2373 19.8C66.1733 20.3653 65.9866 20.8987 65.6773 21.4C65.3786 21.912 64.9893 22.3813 64.5093 22.808C64.0293 23.2347 63.4906 23.608 62.8932 23.928C62.2959 24.248 61.6773 24.504 61.0373 24.696ZM67.9844 21.08L68.1444 18.84C68.5497 18.84 68.8697 18.8027 69.1044 18.728C69.3497 18.6533 69.5417 18.504 69.6804 18.28C69.8297 18.0453 69.9524 17.704 70.0484 17.256C70.155 16.808 70.2617 16.2107 70.3684 15.464L72.4644 15.816C72.443 15.976 72.411 16.1627 72.3684 16.376C72.3364 16.5893 72.3044 16.808 72.2724 17.032C72.251 17.2453 72.2404 17.448 72.2404 17.64C72.2404 17.896 72.2937 18.1147 72.4004 18.296C72.5177 18.4667 72.7204 18.6 73.0084 18.696C73.307 18.792 73.7337 18.84 74.2884 18.84C74.6937 18.84 74.9817 18.9467 75.1524 19.16C75.323 19.3627 75.4084 19.6187 75.4084 19.928C75.4084 20.2587 75.2964 20.536 75.0724 20.76C74.859 20.9733 74.5444 21.08 74.1284 21.08C73.3924 21.08 72.795 21.0107 72.3364 20.872C71.8777 20.7333 71.5364 20.4987 71.3124 20.168C71.0884 19.8373 70.9444 19.384 70.8804 18.808H71.6484C71.4564 19.32 71.2324 19.7307 70.9764 20.04C70.7204 20.3387 70.4324 20.5627 70.1124 20.712C69.7924 20.8613 69.451 20.9573 69.0884 21C68.7364 21.0533 68.3684 21.08 67.9844 21.08ZM70.8324 24.76C70.523 24.76 70.2564 24.6533 70.0324 24.44C69.819 24.2267 69.7124 23.9653 69.7124 23.656C69.7124 23.3467 69.819 23.0747 70.0324 22.84C70.2564 22.616 70.523 22.504 70.8324 22.504C71.1417 22.504 71.403 22.616 71.6164 22.84C71.8404 23.0747 71.9524 23.3467 71.9524 23.656C71.9524 23.9653 71.8404 24.2267 71.6164 24.44C71.403 24.6533 71.1417 24.76 70.8324 24.76ZM74.125 21.08L74.285 18.84C74.7863 18.84 75.1703 18.8347 75.437 18.824C75.7143 18.8133 75.9223 18.8027 76.061 18.792C76.1997 18.7707 76.317 18.7547 76.413 18.744C76.3063 18.6373 76.1677 18.4827 75.997 18.28C75.8263 18.0773 75.6717 17.816 75.533 17.496C75.405 17.176 75.341 16.792 75.341 16.344C75.341 15.6933 75.5063 15.1227 75.837 14.632C76.1783 14.1413 76.637 13.7573 77.213 13.48C77.789 13.2027 78.4343 13.064 79.149 13.064C79.4903 13.064 79.805 13.0853 80.093 13.128C80.3917 13.1707 80.6903 13.2347 80.989 13.32L80.637 15.448C80.4237 15.3947 80.1997 15.352 79.965 15.32C79.7303 15.288 79.5223 15.272 79.341 15.272C78.989 15.272 78.6797 15.3307 78.413 15.448C78.157 15.5547 77.9543 15.7093 77.805 15.912C77.6663 16.104 77.597 16.3387 77.597 16.616C77.597 16.7973 77.629 16.968 77.693 17.128C77.7677 17.288 77.8583 17.432 77.965 17.56C78.0717 17.688 78.189 17.8 78.317 17.896C78.445 17.992 78.5677 18.072 78.685 18.136C78.813 18.1893 78.9197 18.2267 79.005 18.248C79.2717 18.1733 79.501 18.1093 79.693 18.056C79.8957 17.992 80.0877 17.9333 80.269 17.88C80.461 17.816 80.669 17.736 80.893 17.64C81.117 17.544 81.3943 17.4267 81.725 17.288L82.445 19.4C81.549 19.8373 80.6743 20.1787 79.821 20.424C78.9677 20.6693 78.0823 20.84 77.165 20.936C76.2477 21.032 75.2343 21.08 74.125 21.08ZM96.4585 21.08C95.7012 21.08 95.0452 20.984 94.4905 20.792C93.9465 20.5893 93.5252 20.2693 93.2265 19.832C92.9278 19.384 92.7572 18.7867 92.7145 18.04L92.4265 11.592H94.6825L94.9545 17.256C94.9758 17.6933 95.0452 18.0293 95.1625 18.264C95.2905 18.488 95.4718 18.6427 95.7065 18.728C95.9412 18.8027 96.2452 18.84 96.6185 18.84C97.0238 18.84 97.3118 18.9467 97.4825 19.16C97.6532 19.3627 97.7385 19.6187 97.7385 19.928C97.7385 20.2587 97.6265 20.536 97.4025 20.76C97.1892 20.9733 96.8745 21.08 96.4585 21.08ZM93.5305 19.592C92.8158 19.752 92.1278 19.8267 91.4665 19.816C90.8052 19.7947 90.2132 19.6773 89.6905 19.464C89.1678 19.24 88.7518 18.92 88.4425 18.504C88.1438 18.088 87.9945 17.56 87.9945 16.92C87.9945 16.3547 88.1172 15.8427 88.3625 15.384C88.6185 14.9147 88.9705 14.504 89.4185 14.152C89.8772 13.8 90.4105 13.5013 91.0185 13.256C91.6265 13.0107 92.2878 12.824 93.0025 12.696L93.2265 14.968C92.7678 14.9893 92.3518 15.0533 91.9785 15.16C91.6158 15.256 91.3012 15.384 91.0345 15.544C90.7785 15.704 90.5812 15.8853 90.4425 16.088C90.3038 16.28 90.2345 16.488 90.2345 16.712C90.2345 16.8933 90.2985 17.0427 90.4265 17.16C90.5545 17.2773 90.7252 17.3733 90.9385 17.448C91.1518 17.512 91.3972 17.5493 91.6745 17.56C91.9518 17.5707 92.2345 17.5547 92.5225 17.512C92.8212 17.4693 93.1145 17.4 93.4025 17.304L93.5305 19.592ZM93.5785 9.944C93.2692 9.944 93.0025 9.83733 92.7785 9.624C92.5652 9.4 92.4585 9.13867 92.4585 8.84C92.4585 8.53067 92.5652 8.264 92.7785 8.04C93.0025 7.816 93.2692 7.704 93.5785 7.704C93.8772 7.704 94.1332 7.816 94.3465 8.04C94.5598 8.264 94.6665 8.53067 94.6665 8.84C94.6665 9.13867 94.5598 9.4 94.3465 9.624C94.1332 9.83733 93.8772 9.944 93.5785 9.944ZM90.8105 9.928C90.5012 9.928 90.2345 9.82133 90.0105 9.608C89.7972 9.384 89.6905 9.12267 89.6905 8.824C89.6905 8.51467 89.7972 8.248 90.0105 8.024C90.2345 7.8 90.5012 7.688 90.8105 7.688C91.1092 7.688 91.3652 7.8 91.5785 8.024C91.7918 8.248 91.8985 8.51467 91.8985 8.824C91.8985 9.12267 91.7918 9.384 91.5785 9.608C91.3652 9.82133 91.1092 9.928 90.8105 9.928ZM96.4531 21.08L96.6131 18.84C97.2531 18.84 97.7438 18.808 98.0851 18.744C98.4265 18.68 98.6611 18.5627 98.7891 18.392C98.9278 18.2107 98.9971 17.9547 98.9971 17.624C98.9971 17.3253 98.9545 16.968 98.8691 16.552C98.7945 16.136 98.6931 15.704 98.5651 15.256C98.4478 14.808 98.3198 14.3973 98.1811 14.024L100.389 13.416C100.528 13.7787 100.661 14.2 100.789 14.68C100.917 15.16 101.024 15.656 101.109 16.168C101.194 16.6693 101.237 17.1547 101.237 17.624C101.237 18.3493 101.12 18.9413 100.885 19.4C100.65 19.848 100.32 20.1947 99.8931 20.44C99.4771 20.6853 98.9758 20.856 98.3891 20.952C97.8025 21.0373 97.1571 21.08 96.4531 21.08ZM100.405 24.792C100.096 24.792 99.8291 24.68 99.6051 24.456C99.3918 24.2427 99.2851 23.9867 99.2851 23.688C99.2851 23.3787 99.3918 23.112 99.6051 22.888C99.8291 22.664 100.096 22.552 100.405 22.552C100.704 22.552 100.96 22.664 101.173 22.888C101.386 23.112 101.493 23.3787 101.493 23.688C101.493 23.9867 101.386 24.2427 101.173 24.456C100.96 24.68 100.704 24.792 100.405 24.792ZM97.6371 24.792C97.3278 24.792 97.0611 24.68 96.8371 24.456C96.6238 24.2427 96.5171 23.9867 96.5171 23.688C96.5171 23.3787 96.6238 23.112 96.8371 22.888C97.0611 22.664 97.3278 22.552 97.6371 22.552C97.9358 22.552 98.1918 22.664 98.4051 22.888C98.6185 23.112 98.7251 23.3787 98.7251 23.688C98.7251 23.9867 98.6185 24.2427 98.4051 24.456C98.1918 24.68 97.9358 24.792 97.6371 24.792ZM102.459 24.68L101.643 22.632C102.56 22.312 103.302 21.96 103.867 21.576C104.443 21.192 104.864 20.7813 105.131 20.344C105.408 19.9067 105.547 19.4533 105.547 18.984C105.547 18.6853 105.504 18.376 105.419 18.056C105.334 17.7253 105.211 17.3787 105.051 17.016C104.902 16.6533 104.72 16.2747 104.507 15.88L106.603 14.872C106.976 15.5867 107.264 16.2693 107.467 16.92C107.68 17.5707 107.787 18.1787 107.787 18.744C107.787 19.2667 107.718 19.768 107.579 20.248C107.451 20.728 107.248 21.176 106.971 21.592C106.704 22.0187 106.358 22.4187 105.931 22.792C105.504 23.1653 105.003 23.5067 104.427 23.816C103.851 24.136 103.195 24.424 102.459 24.68ZM113.822 21.08C112.83 21.08 112.062 20.9787 111.518 20.776C110.985 20.5733 110.611 20.2587 110.398 19.832C110.185 19.3947 110.062 18.8453 110.03 18.184L109.694 9.288H111.934L112.27 17.112C112.291 17.6027 112.345 17.9707 112.43 18.216C112.515 18.4613 112.675 18.6267 112.91 18.712C113.155 18.7973 113.513 18.84 113.982 18.84C114.387 18.84 114.675 18.9467 114.846 19.16C115.027 19.3627 115.118 19.6187 115.118 19.928C115.118 20.2587 115.006 20.536 114.782 20.76C114.558 20.9733 114.238 21.08 113.822 21.08ZM124.308 21.08C123.817 21.08 123.358 21.0427 122.932 20.968C122.516 20.8933 122.132 20.7653 121.78 20.584C121.428 20.392 121.113 20.1307 120.836 19.8C120.569 19.4693 120.345 19.0533 120.164 18.552L121.428 17.544C121.62 17.8853 121.854 18.152 122.132 18.344C122.409 18.5253 122.74 18.6533 123.124 18.728C123.508 18.8027 123.956 18.84 124.468 18.84C124.873 18.84 125.161 18.9467 125.332 19.16C125.502 19.3627 125.588 19.6187 125.588 19.928C125.588 20.2587 125.476 20.536 125.252 20.76C125.038 20.9733 124.724 21.08 124.308 21.08ZM113.844 21.08L114.004 18.84C114.58 18.84 115.15 18.808 115.716 18.744C116.281 18.68 116.83 18.584 117.364 18.456C117.897 18.328 118.404 18.1627 118.884 17.96C119.374 17.7573 119.833 17.512 120.26 17.224C119.94 17.032 119.593 16.8667 119.22 16.728C118.846 16.5893 118.446 16.488 118.02 16.424C117.604 16.3493 117.161 16.312 116.692 16.312C116.521 16.312 116.34 16.3173 116.148 16.328C115.966 16.3387 115.78 16.36 115.588 16.392C115.396 16.4133 115.204 16.4453 115.012 16.488L114.692 14.296C115.001 14.2107 115.326 14.152 115.668 14.12C116.02 14.0773 116.329 14.056 116.596 14.056C117.172 14.056 117.7 14.12 118.18 14.248C118.67 14.376 119.118 14.536 119.524 14.728C119.94 14.92 120.324 15.112 120.676 15.304C121.038 15.496 121.38 15.656 121.7 15.784C122.03 15.912 122.35 15.976 122.66 15.976H123.252L123.508 18.104C123.049 18.1253 122.617 18.216 122.212 18.376C121.817 18.5253 121.422 18.7173 121.028 18.952C120.644 19.176 120.228 19.4107 119.78 19.656C119.342 19.9013 118.846 20.1307 118.292 20.344C117.737 20.5573 117.097 20.7333 116.372 20.872C115.646 21.0107 114.804 21.08 113.844 21.08ZM118.372 24.68C118.062 24.68 117.796 24.5733 117.572 24.36C117.358 24.1467 117.252 23.8853 117.252 23.576C117.252 23.2667 117.358 22.9947 117.572 22.76C117.796 22.536 118.062 22.424 118.372 22.424C118.681 22.424 118.942 22.536 119.156 22.76C119.38 22.9947 119.492 23.2667 119.492 23.576C119.492 23.8853 119.38 24.1467 119.156 24.36C118.942 24.5733 118.681 24.68 118.372 24.68ZM124.312 21.08L124.473 18.84C125.113 18.84 125.603 18.808 125.945 18.744C126.286 18.68 126.521 18.5627 126.649 18.392C126.787 18.2107 126.857 17.9547 126.857 17.624C126.857 17.3253 126.814 16.968 126.729 16.552C126.654 16.136 126.553 15.704 126.424 15.256C126.307 14.808 126.179 14.3973 126.041 14.024L128.249 13.416C128.387 13.7787 128.521 14.2 128.649 14.68C128.777 15.16 128.883 15.656 128.969 16.168C129.054 16.6693 129.097 17.1547 129.097 17.624C129.097 18.3493 128.979 18.9413 128.745 19.4C128.51 19.848 128.179 20.1947 127.753 20.44C127.337 20.6853 126.835 20.856 126.249 20.952C125.662 21.0373 125.016 21.08 124.312 21.08ZM128.649 12.12C128.339 12.12 128.073 12.0133 127.849 11.8C127.635 11.576 127.529 11.3147 127.529 11.016C127.529 10.7067 127.635 10.44 127.849 10.216C128.073 9.992 128.339 9.88 128.649 9.88C128.947 9.88 129.203 9.992 129.417 10.216C129.63 10.44 129.737 10.7067 129.737 11.016C129.737 11.3147 129.63 11.576 129.417 11.8C129.203 12.0133 128.947 12.12 128.649 12.12ZM125.881 12.104C125.571 12.104 125.305 11.9973 125.081 11.784C124.867 11.56 124.761 11.2987 124.761 11C124.761 10.6907 124.867 10.424 125.081 10.2C125.305 9.976 125.571 9.864 125.881 9.864C126.179 9.864 126.435 9.976 126.649 10.2C126.862 10.424 126.969 10.6907 126.969 11C126.969 11.2987 126.862 11.56 126.649 11.784C126.435 11.9973 126.179 12.104 125.881 12.104ZM143.49 21.08C142.732 21.08 142.076 20.984 141.522 20.792C140.978 20.5893 140.556 20.2693 140.258 19.832C139.959 19.384 139.788 18.7867 139.746 18.04L139.458 11.592H141.714L141.986 17.256C142.007 17.6933 142.076 18.0293 142.194 18.264C142.322 18.488 142.503 18.6427 142.738 18.728C142.972 18.8027 143.276 18.84 143.65 18.84C144.055 18.84 144.343 18.9467 144.514 19.16C144.684 19.3627 144.77 19.6187 144.77 19.928C144.77 20.2587 144.658 20.536 144.434 20.76C144.22 20.9733 143.906 21.08 143.49 21.08ZM140.562 19.592C139.847 19.752 139.159 19.8267 138.498 19.816C137.836 19.7947 137.244 19.6773 136.722 19.464C136.199 19.24 135.783 18.92 135.474 18.504C135.175 18.088 135.026 17.56 135.026 16.92C135.026 16.3547 135.148 15.8427 135.394 15.384C135.65 14.9147 136.002 14.504 136.45 14.152C136.908 13.8 137.442 13.5013 138.05 13.256C138.658 13.0107 139.319 12.824 140.034 12.696L140.258 14.968C139.799 14.9893 139.383 15.0533 139.01 15.16C138.647 15.256 138.332 15.384 138.066 15.544C137.81 15.704 137.612 15.8853 137.474 16.088C137.335 16.28 137.266 16.488 137.266 16.712C137.266 16.8933 137.33 17.0427 137.458 17.16C137.586 17.2773 137.756 17.3733 137.97 17.448C138.183 17.512 138.428 17.5493 138.706 17.56C138.983 17.5707 139.266 17.5547 139.554 17.512C139.852 17.4693 140.146 17.4 140.434 17.304L140.562 19.592ZM140.61 9.944C140.3 9.944 140.034 9.83733 139.81 9.624C139.596 9.4 139.49 9.13867 139.49 8.84C139.49 8.53067 139.596 8.264 139.81 8.04C140.034 7.816 140.3 7.704 140.61 7.704C140.908 7.704 141.164 7.816 141.378 8.04C141.591 8.264 141.698 8.53067 141.698 8.84C141.698 9.13867 141.591 9.4 141.378 9.624C141.164 9.83733 140.908 9.944 140.61 9.944ZM137.842 9.928C137.532 9.928 137.266 9.82133 137.042 9.608C136.828 9.384 136.722 9.12267 136.722 8.824C136.722 8.51467 136.828 8.248 137.042 8.024C137.266 7.8 137.532 7.688 137.842 7.688C138.14 7.688 138.396 7.8 138.61 8.024C138.823 8.248 138.93 8.51467 138.93 8.824C138.93 9.12267 138.823 9.384 138.61 9.608C138.396 9.82133 138.14 9.928 137.842 9.928ZM159.532 21.08C158.988 21.08 158.466 21.032 157.964 20.936C157.463 20.8293 157.01 20.6907 156.604 20.52C156.21 20.3493 155.884 20.1573 155.628 19.944L157.068 18.392C157.452 18.552 157.847 18.6693 158.252 18.744C158.658 18.808 159.138 18.84 159.692 18.84C160.098 18.84 160.386 18.9467 160.556 19.16C160.738 19.3627 160.828 19.6187 160.828 19.928C160.828 20.2587 160.716 20.536 160.492 20.76C160.268 20.9733 159.948 21.08 159.532 21.08ZM151.772 21.288C150.78 21.288 149.954 21.2453 149.292 21.16C148.642 21.0747 148.114 20.952 147.708 20.792C147.303 20.632 146.983 20.44 146.748 20.216C146.514 19.992 146.322 19.7467 146.172 19.48L146.62 19.352C146.354 19.864 146.05 20.2427 145.708 20.488C145.367 20.7333 145.01 20.8933 144.636 20.968C144.263 21.0427 143.879 21.08 143.484 21.08L143.644 18.84C143.975 18.84 144.236 18.7867 144.428 18.68C144.62 18.5733 144.775 18.3973 144.892 18.152C145.02 17.9067 145.138 17.5813 145.244 17.176C145.351 16.7707 145.479 16.2747 145.628 15.688L147.66 16.184C147.586 16.472 147.522 16.7227 147.468 16.936C147.426 17.1493 147.388 17.336 147.356 17.496C147.335 17.6453 147.324 17.768 147.324 17.864C147.324 18.0667 147.372 18.248 147.468 18.408C147.564 18.5573 147.751 18.68 148.028 18.776C148.306 18.8613 148.711 18.9307 149.244 18.984C149.788 19.0267 150.498 19.048 151.372 19.048C152.3 19.048 153.074 19.016 153.692 18.952C154.311 18.8773 154.802 18.776 155.164 18.648C155.538 18.5093 155.804 18.344 155.964 18.152C156.124 17.9493 156.204 17.72 156.204 17.464C156.204 17.2613 156.156 17.0747 156.06 16.904C155.975 16.7227 155.831 16.5733 155.628 16.456C155.426 16.3387 155.164 16.28 154.844 16.28C154.46 16.28 154.071 16.376 153.676 16.568C153.292 16.7493 152.914 16.9947 152.54 17.304C152.167 17.6027 151.81 17.9387 151.468 18.312C151.138 18.6853 150.839 19.0587 150.572 19.432L148.172 19.16C148.588 18.488 149.058 17.8427 149.58 17.224C150.103 16.6053 150.663 16.0613 151.26 15.592C151.858 15.112 152.476 14.7333 153.116 14.456C153.756 14.1787 154.407 14.04 155.068 14.04C155.783 14.04 156.391 14.1787 156.892 14.456C157.394 14.7333 157.778 15.1173 158.044 15.608C158.311 16.0987 158.444 16.664 158.444 17.304C158.444 18.0827 158.22 18.7707 157.772 19.368C157.335 19.9653 156.626 20.4347 155.644 20.776C154.674 21.1173 153.383 21.288 151.772 21.288ZM159.547 21.08L159.707 18.84C160.112 18.84 160.432 18.8027 160.667 18.728C160.912 18.6533 161.104 18.504 161.243 18.28C161.392 18.0453 161.515 17.704 161.611 17.256C161.718 16.808 161.824 16.2107 161.931 15.464L164.027 15.816C164.006 15.976 163.974 16.1627 163.931 16.376C163.899 16.5893 163.867 16.808 163.835 17.032C163.814 17.2453 163.803 17.448 163.803 17.64C163.803 17.896 163.856 18.1147 163.963 18.296C164.08 18.4667 164.283 18.6 164.571 18.696C164.87 18.792 165.296 18.84 165.851 18.84C166.256 18.84 166.544 18.9467 166.715 19.16C166.886 19.3627 166.971 19.6187 166.971 19.928C166.971 20.2587 166.859 20.536 166.635 20.76C166.422 20.9733 166.107 21.08 165.691 21.08C164.955 21.08 164.358 21.0107 163.899 20.872C163.44 20.7333 163.099 20.4987 162.875 20.168C162.651 19.8373 162.507 19.384 162.443 18.808H163.211C163.019 19.32 162.795 19.7307 162.539 20.04C162.283 20.3387 161.995 20.5627 161.675 20.712C161.355 20.8613 161.014 20.9573 160.651 21C160.299 21.0533 159.931 21.08 159.547 21.08ZM162.811 13.832C162.48 13.832 162.198 13.72 161.963 13.496C161.739 13.272 161.627 12.9947 161.627 12.664C161.627 12.3333 161.739 12.0507 161.963 11.816C162.198 11.5813 162.48 11.464 162.811 11.464C163.131 11.464 163.403 11.5813 163.627 11.816C163.862 12.0507 163.979 12.3333 163.979 12.664C163.979 12.9947 163.862 13.272 163.627 13.496C163.403 13.72 163.131 13.832 162.811 13.832ZM165.688 21.08L165.848 18.84C166.093 18.84 166.301 18.7813 166.472 18.664C166.653 18.536 166.84 18.328 167.032 18.04C167.224 17.7413 167.448 17.3413 167.704 16.84C168.024 16.2 168.354 15.6987 168.696 15.336C169.048 14.9733 169.405 14.7173 169.768 14.568C170.141 14.408 170.514 14.328 170.888 14.328C171.357 14.328 171.794 14.4293 172.2 14.632C172.605 14.8347 172.957 15.112 173.256 15.464C173.554 15.8053 173.784 16.2 173.944 16.648C174.114 17.0853 174.2 17.5387 174.2 18.008C174.2 18.5733 174.077 19.0853 173.832 19.544C173.597 19.992 173.266 20.3493 172.84 20.616C172.424 20.872 171.944 21 171.4 21C170.941 21 170.408 20.92 169.799 20.76C169.192 20.6 168.552 20.264 167.88 19.752L168.696 17.816C169.176 18.1467 169.624 18.3867 170.04 18.536C170.466 18.6853 170.818 18.76 171.096 18.76C171.309 18.76 171.485 18.7387 171.624 18.696C171.762 18.6533 171.864 18.584 171.928 18.488C171.992 18.392 172.024 18.264 172.024 18.104C172.024 17.88 171.97 17.6507 171.864 17.416C171.757 17.1813 171.613 16.984 171.432 16.824C171.261 16.6533 171.058 16.568 170.824 16.568C170.6 16.568 170.408 16.6533 170.248 16.824C170.098 16.984 169.949 17.2187 169.799 17.528C169.661 17.8267 169.49 18.1787 169.288 18.584C169.042 19.0747 168.802 19.4853 168.568 19.816C168.333 20.136 168.082 20.392 167.816 20.584C167.56 20.7653 167.256 20.8933 166.904 20.968C166.562 21.0427 166.157 21.08 165.688 21.08Z" fill="#353535"/>
<path d="M121.729 46.552C121.729 46.1787 121.777 45.7147 121.873 45.16C121.979 44.5947 122.209 43.9227 122.561 43.144L124.529 43.832C124.347 44.3333 124.209 44.7653 124.113 45.128C124.017 45.48 123.969 45.8267 123.969 46.168C123.969 46.648 124.075 47.0587 124.289 47.4C124.513 47.7413 124.838 48.0027 125.265 48.184C125.702 48.3653 126.235 48.456 126.865 48.456C127.505 48.456 128.038 48.3867 128.465 48.248C128.891 48.1093 129.227 47.912 129.473 47.656C129.718 47.4107 129.894 47.1227 130.001 46.792C130.107 46.4613 130.161 46.104 130.161 45.72C130.161 45.4213 130.123 45.0853 130.049 44.712C129.985 44.3387 129.889 43.9333 129.76 43.496C129.633 43.048 129.489 42.5787 129.329 42.088L131.569 41.512C131.675 41.9173 131.761 42.264 131.825 42.552C131.899 42.84 131.963 43.08 132.017 43.272C132.07 43.4533 132.113 43.6027 132.145 43.72C132.251 44.04 132.395 44.28 132.577 44.44C132.758 44.6 132.993 44.7067 133.281 44.76C133.579 44.8133 133.937 44.84 134.353 44.84C134.758 44.84 135.046 44.9467 135.217 45.16C135.387 45.3627 135.473 45.6187 135.473 45.928C135.473 46.2587 135.361 46.536 135.137 46.76C134.913 46.9733 134.598 47.08 134.193 47.08C133.83 47.08 133.467 47.032 133.105 46.936C132.753 46.8293 132.449 46.6587 132.193 46.424C131.937 46.1893 131.771 45.8747 131.697 45.48L132.289 46.12C132.267 46.8453 132.123 47.4907 131.857 48.056C131.59 48.6213 131.217 49.1013 130.737 49.496C130.267 49.8907 129.697 50.1893 129.025 50.392C128.363 50.5947 127.622 50.696 126.801 50.696C126.086 50.696 125.419 50.616 124.801 50.456C124.193 50.3067 123.654 50.0613 123.185 49.72C122.726 49.3893 122.369 48.9627 122.113 48.44C121.857 47.9173 121.729 47.288 121.729 46.552ZM126.945 40.472C126.614 40.472 126.331 40.36 126.097 40.136C125.873 39.912 125.761 39.6347 125.761 39.304C125.761 38.9733 125.873 38.6907 126.097 38.456C126.331 38.2213 126.614 38.104 126.945 38.104C127.265 38.104 127.537 38.2213 127.761 38.456C127.995 38.6907 128.113 38.9733 128.113 39.304C128.113 39.6347 127.995 39.912 127.761 40.136C127.537 40.36 127.265 40.472 126.945 40.472ZM134.188 47.08L134.348 44.84C134.732 44.84 135.062 44.8027 135.34 44.728C135.617 44.6533 135.852 44.504 136.044 44.28C136.236 44.0453 136.396 43.704 136.524 43.256C136.662 42.808 136.785 42.2107 136.892 41.464L138.988 41.816C138.966 41.976 138.934 42.1627 138.891 42.376C138.86 42.5893 138.828 42.808 138.796 43.032C138.774 43.2453 138.764 43.448 138.764 43.64C138.764 43.832 138.801 44.0027 138.876 44.152C138.95 44.3013 139.068 44.4293 139.228 44.536C139.398 44.632 139.617 44.7067 139.884 44.76C140.161 44.8133 140.497 44.84 140.892 44.84C141.297 44.84 141.585 44.9467 141.756 45.16C141.926 45.3627 142.012 45.6187 142.012 45.928C142.012 46.2587 141.9 46.536 141.676 46.76C141.462 46.9733 141.148 47.08 140.732 47.08C140.252 47.08 139.814 47.0427 139.42 46.968C139.036 46.8933 138.7 46.7707 138.411 46.6C138.134 46.4187 137.905 46.184 137.724 45.896C137.553 45.5973 137.446 45.2347 137.404 44.808H138.172C137.98 45.32 137.734 45.7307 137.436 46.04C137.148 46.3387 136.822 46.5627 136.46 46.712C136.097 46.8613 135.718 46.9573 135.324 47C134.94 47.0533 134.561 47.08 134.188 47.08ZM138.652 50.792C138.342 50.792 138.076 50.68 137.852 50.456C137.638 50.2427 137.532 49.9867 137.532 49.688C137.532 49.3787 137.638 49.112 137.852 48.888C138.076 48.664 138.342 48.552 138.652 48.552C138.95 48.552 139.206 48.664 139.42 48.888C139.633 49.112 139.74 49.3787 139.74 49.688C139.74 49.9867 139.633 50.2427 139.42 50.456C139.206 50.68 138.95 50.792 138.652 50.792ZM135.884 50.792C135.574 50.792 135.308 50.68 135.084 50.456C134.87 50.2427 134.764 49.9867 134.764 49.688C134.764 49.3787 134.87 49.112 135.084 48.888C135.308 48.664 135.574 48.552 135.884 48.552C136.182 48.552 136.438 48.664 136.652 48.888C136.865 49.112 136.972 49.3787 136.972 49.688C136.972 49.9867 136.865 50.2427 136.652 50.456C136.438 50.68 136.182 50.792 135.884 50.792ZM140.67 47.08L140.83 44.84C141.577 44.84 142.249 44.792 142.846 44.696C143.444 44.5893 143.966 44.4507 144.414 44.28C144.873 44.1093 145.252 43.912 145.55 43.688C145.86 43.464 146.089 43.2293 146.238 42.984C146.398 42.728 146.478 42.4773 146.478 42.232C146.478 42.0933 146.441 41.9653 146.366 41.848C146.302 41.72 146.19 41.6187 146.03 41.544C145.87 41.4587 145.652 41.416 145.374 41.416C145.236 41.416 145.07 41.432 144.878 41.464C144.686 41.496 144.494 41.544 144.302 41.608C144.11 41.6613 143.929 41.736 143.758 41.832C143.982 42.0027 144.228 42.2213 144.494 42.488C144.761 42.744 145.028 43.016 145.294 43.304C145.561 43.5813 145.79 43.8533 145.982 44.12C146.206 44.216 146.452 44.312 146.718 44.408C146.996 44.4933 147.294 44.568 147.614 44.632C147.934 44.696 148.27 44.7493 148.622 44.792C148.974 44.824 149.337 44.84 149.71 44.84C150.116 44.84 150.404 44.9467 150.574 45.16C150.756 45.3627 150.846 45.6187 150.846 45.928C150.846 46.2587 150.734 46.536 150.51 46.76C150.286 46.9733 149.966 47.08 149.55 47.08C148.697 47.08 147.94 47.016 147.278 46.888C146.617 46.7493 146.025 46.552 145.502 46.296C144.99 46.0293 144.51 45.7093 144.062 45.336C143.934 45.112 143.753 44.872 143.518 44.616C143.294 44.3493 143.054 44.0933 142.798 43.848C142.553 43.6027 142.329 43.4 142.126 43.24C142.073 43.1973 142.009 43.0853 141.934 42.904C141.87 42.712 141.812 42.5147 141.758 42.312C141.705 42.0987 141.678 41.9493 141.678 41.864C141.678 41.6187 141.79 41.3573 142.014 41.08C142.249 40.8027 142.558 40.5467 142.942 40.312C143.337 40.0667 143.769 39.8693 144.238 39.72C144.718 39.56 145.204 39.48 145.694 39.48C146.356 39.48 146.905 39.5813 147.342 39.784C147.79 39.976 148.126 40.248 148.35 40.6C148.574 40.9413 148.686 41.3413 148.686 41.8C148.686 42.312 148.574 42.824 148.35 43.336C148.126 43.8373 147.796 44.312 147.358 44.76C146.932 45.208 146.393 45.608 145.742 45.96C145.102 46.3013 144.356 46.5733 143.502 46.776C142.66 46.9787 141.716 47.08 140.67 47.08ZM149.562 47.08L149.723 44.84C150.192 44.84 150.56 44.808 150.827 44.744C151.104 44.68 151.301 44.5627 151.419 44.392C151.536 44.2107 151.595 43.9547 151.595 43.624C151.595 43.3253 151.552 42.968 151.467 42.552C151.392 42.136 151.291 41.704 151.163 41.256C151.035 40.808 150.907 40.3973 150.779 40.024L152.987 39.416C153.115 39.7787 153.243 40.2 153.371 40.68C153.499 41.16 153.605 41.656 153.691 42.168C153.787 42.6693 153.835 43.1547 153.835 43.624C153.835 44.2107 153.76 44.7067 153.611 45.112C153.461 45.5067 153.253 45.8373 152.987 46.104C152.731 46.36 152.421 46.5627 152.059 46.712C151.707 46.8507 151.317 46.9467 150.891 47C150.464 47.0533 150.021 47.08 149.562 47.08ZM150.187 37.752L149.915 36.632C150.288 36.568 150.565 36.5147 150.747 36.472C150.939 36.4293 151.141 36.3813 151.355 36.328L151.195 36.728C150.917 36.632 150.651 36.4453 150.395 36.168C150.149 35.88 150.027 35.5547 150.027 35.192C150.027 34.808 150.112 34.4987 150.283 34.264C150.453 34.0293 150.672 33.8587 150.939 33.752C151.205 33.6453 151.483 33.592 151.771 33.592C151.931 33.592 152.08 33.6027 152.219 33.624C152.368 33.6453 152.501 33.6773 152.619 33.72L152.491 34.872C152.384 34.8507 152.277 34.8293 152.171 34.808C152.064 34.7867 151.947 34.776 151.819 34.776C151.68 34.776 151.552 34.824 151.435 34.92C151.328 35.0053 151.275 35.112 151.275 35.24C151.275 35.4213 151.339 35.5813 151.467 35.72C151.595 35.8587 151.744 35.9707 151.914 36.056C152.096 36.1307 152.245 36.1733 152.363 36.184L151.483 36.28C151.771 36.2053 152.043 36.1307 152.299 36.056C152.555 35.9707 152.795 35.8853 153.019 35.8L153.339 36.872C153.072 36.968 152.757 37.0747 152.395 37.192C152.043 37.2987 151.675 37.4 151.291 37.496C150.917 37.592 150.549 37.6773 150.187 37.752ZM159.713 47.08C158.721 47.08 157.953 46.9787 157.409 46.776C156.875 46.5733 156.502 46.2587 156.289 45.832C156.075 45.3947 155.953 44.8453 155.921 44.184L155.585 35.288H157.825L158.161 43.112C158.182 43.6027 158.235 43.9707 158.321 44.216C158.406 44.4613 158.566 44.6267 158.801 44.712C159.046 44.7973 159.403 44.84 159.873 44.84C160.278 44.84 160.566 44.9467 160.737 45.16C160.918 45.3627 161.009 45.6187 161.009 45.928C161.009 46.2587 160.897 46.536 160.673 46.76C160.449 46.9733 160.129 47.08 159.713 47.08ZM159.734 47.08L159.894 44.84C160.3 44.84 160.62 44.8027 160.854 44.728C161.1 44.6533 161.292 44.504 161.43 44.28C161.58 44.0453 161.702 43.704 161.798 43.256C161.905 42.808 162.012 42.2107 162.118 41.464L164.214 41.816C164.193 41.976 164.161 42.1627 164.118 42.376C164.086 42.5893 164.054 42.808 164.022 43.032C164.001 43.2453 163.99 43.448 163.99 43.64C163.99 43.896 164.044 44.1147 164.15 44.296C164.268 44.4667 164.47 44.6 164.758 44.696C165.057 44.792 165.484 44.84 166.038 44.84C166.444 44.84 166.732 44.9467 166.902 45.16C167.073 45.3627 167.158 45.6187 167.158 45.928C167.158 46.2587 167.046 46.536 166.822 46.76C166.609 46.9733 166.294 47.08 165.878 47.08C165.142 47.08 164.545 47.0107 164.086 46.872C163.628 46.7333 163.286 46.4987 163.062 46.168C162.838 45.8373 162.694 45.384 162.63 44.808H163.398C163.206 45.32 162.982 45.7307 162.726 46.04C162.47 46.3387 162.182 46.5627 161.862 46.712C161.542 46.8613 161.201 46.9573 160.838 47C160.486 47.0533 160.118 47.08 159.734 47.08ZM162.582 50.76C162.273 50.76 162.006 50.6533 161.782 50.44C161.569 50.2267 161.462 49.9653 161.462 49.656C161.462 49.3467 161.569 49.0747 161.782 48.84C162.006 48.616 162.273 48.504 162.582 48.504C162.892 48.504 163.153 48.616 163.366 48.84C163.59 49.0747 163.702 49.3467 163.702 49.656C163.702 49.9653 163.59 50.2267 163.366 50.44C163.153 50.6533 162.892 50.76 162.582 50.76ZM165.875 47.08L166.035 44.84C166.526 44.84 166.878 44.792 167.091 44.696C167.304 44.5893 167.432 44.3973 167.475 44.12C167.518 43.832 167.528 43.416 167.507 42.872L167.219 35.288H169.475L169.795 43.032C169.816 43.6507 169.79 44.2107 169.715 44.712C169.651 45.2027 169.486 45.624 169.219 45.976C168.963 46.328 168.563 46.6 168.019 46.792C167.486 46.984 166.771 47.08 165.875 47.08ZM171.905 47L171.569 35.288H173.809L174.145 47H171.905Z" fill="#353535"/>
<g clip-path="url(#clip0_222_2818)">
<path d="M221.578 23.52C223.126 24.2161 224.946 23.52 225.642 21.9722C226.338 20.4244 225.642 18.6044 224.095 17.9083C222.547 17.2161 220.731 17.9083 220.035 19.4561C219.338 21.0078 220.031 22.8239 221.578 23.52Z" fill="#FE0847"/>
<path d="M231.907 0H206.093C197.759 0 191 6.75889 191 15.0928V40.9072C191 45.3444 192.913 49.3383 195.966 52.0994C202.694 51.1622 208.889 47.3589 212.704 41.3972L212.696 41.3933C212.649 41.3739 212.607 41.3506 212.572 41.3233C212.222 41.0939 212.078 40.6311 212.257 40.2306L213.338 37.8156L211.681 37.0728C211.681 37.0728 211.592 37.0261 211.432 36.96C210.857 36.7189 209.375 36.2172 207.796 36.6372C207.582 36.6917 207.368 36.7656 207.147 36.8589C206.431 37.17 205.84 37.31 205.373 37.3567C204.638 37.4267 204.098 36.6917 204.397 36.015L206.843 30.5628C208.177 27.5878 211.802 27.5761 211.856 27.5761L213.353 24.2433C213.925 22.9639 214.52 21.7856 215.127 20.7006C219.918 12.1294 225.533 9.25556 227.626 8.43889C228.1 8.25611 228.637 8.49333 228.816 8.97556C229.597 11.0794 231.192 17.1811 227.979 26.4639C227.571 27.6383 227.089 28.8711 226.517 30.1467L225.02 33.4833C225.02 33.4833 227.47 36.2133 226.128 39.2078L223.686 44.66C223.383 45.3367 222.473 45.4222 222.037 44.8233C221.757 44.4422 221.469 43.9094 221.228 43.1706C221.154 42.945 221.065 42.735 220.964 42.5367C220.225 41.0783 218.864 40.3044 218.304 40.0361C218.144 39.9583 218.051 39.9233 218.051 39.9233L216.394 39.1806L215.309 41.5994C215.123 42.0194 214.637 42.2217 214.205 42.0622C214.186 42.0583 214.166 42.0506 214.147 42.0389H214.143C212.824 46.7328 213.023 51.5861 214.504 56H231.911C240.249 56 247.004 49.2372 247.004 40.9033V15.0928C247 6.75889 240.241 0 231.907 0Z" fill="#FE0847"/>
</g>
<defs>
<clipPath id="clip0_222_2818">
<rect width="56" height="56" fill="white" transform="translate(191)"/>
</clipPath>
</defs>
</svg>
