<svg width="177" height="56" viewBox="0 0 177 56" fill="none" xmlns="http://www.w3.org/2000/svg">
<g clip-path="url(#clip0_205_2078)">
<path d="M30.5783 23.52C32.1261 24.2161 33.9461 23.52 34.6422 21.9722C35.3383 20.4244 34.6422 18.6044 33.0945 17.9083C31.5467 17.2161 29.7306 17.9083 29.0344 19.4561C28.3383 21.0078 29.0306 22.8239 30.5783 23.52Z" fill="#FE0847"/>
<path d="M40.9072 0H15.0928C6.75889 0 0 6.75889 0 15.0928V40.9072C0 45.3444 1.91333 49.3383 4.96611 52.0994C11.6939 51.1622 17.8889 47.3589 21.7039 41.3972L21.6961 41.3933C21.6494 41.3739 21.6067 41.3506 21.5717 41.3233C21.2217 41.0939 21.0778 40.6311 21.2567 40.2306L22.3378 37.8156L20.6811 37.0728C20.6811 37.0728 20.5917 37.0261 20.4322 36.96C19.8567 36.7189 18.375 36.2172 16.7961 36.6372C16.5822 36.6917 16.3683 36.7656 16.1467 36.8589C15.4311 37.17 14.84 37.31 14.3733 37.3567C13.6383 37.4267 13.0978 36.6917 13.3972 36.015L15.8433 30.5628C17.1772 27.5878 20.8017 27.5761 20.8561 27.5761L22.3533 24.2433C22.925 22.9639 23.52 21.7856 24.1267 20.7006C28.9178 12.1294 34.5333 9.25556 36.6256 8.43889C37.1 8.25611 37.6367 8.49333 37.8156 8.97556C38.5972 11.0794 40.1917 17.1811 36.9794 26.4639C36.5711 27.6383 36.0889 28.8711 35.5172 30.1467L34.02 33.4833C34.02 33.4833 36.47 36.2133 35.1283 39.2078L32.6861 44.66C32.3828 45.3367 31.4728 45.4222 31.0372 44.8233C30.7572 44.4422 30.4694 43.9094 30.2283 43.1706C30.1544 42.945 30.065 42.735 29.9639 42.5367C29.225 41.0783 27.8639 40.3044 27.3039 40.0361C27.1444 39.9583 27.0511 39.9233 27.0511 39.9233L25.3944 39.1806L24.3094 41.5994C24.1228 42.0194 23.6367 42.2217 23.205 42.0622C23.1856 42.0583 23.1661 42.0506 23.1467 42.0389H23.1428C21.8244 46.7328 22.0228 51.5861 23.5044 56H40.9111C49.2489 56 56.0039 49.2372 56.0039 40.9033V15.0928C56 6.75889 49.2411 0 40.9072 0Z" fill="#FE0847"/>
</g>
<path d="M83.52 21L83.504 14.28L80.208 19.816H79.04L75.76 14.424V21H73.328V9.8H75.472L79.664 16.76L83.792 9.8H85.92L85.952 21H83.52ZM91.9053 12.264C93.2386 12.264 94.2626 12.584 94.9773 13.224C95.6919 13.8533 96.0493 14.808 96.0493 16.088V21H93.7133V19.928C93.2439 20.728 92.3693 21.128 91.0893 21.128C90.4279 21.128 89.8519 21.016 89.3613 20.792C88.8813 20.568 88.5133 20.2587 88.2573 19.864C88.0013 19.4693 87.8733 19.0213 87.8733 18.52C87.8733 17.72 88.1719 17.0907 88.7693 16.632C89.3773 16.1733 90.3106 15.944 91.5693 15.944H93.5533C93.5533 15.4 93.3879 14.984 93.0573 14.696C92.7266 14.3973 92.2306 14.248 91.5693 14.248C91.1106 14.248 90.6573 14.3227 90.2093 14.472C89.7719 14.6107 89.3986 14.8027 89.0893 15.048L88.1933 13.304C88.6626 12.9733 89.2226 12.7173 89.8733 12.536C90.5346 12.3547 91.2119 12.264 91.9053 12.264ZM91.7133 19.448C92.1399 19.448 92.5186 19.352 92.8493 19.16C93.1799 18.9573 93.4146 18.664 93.5533 18.28V17.4H91.8413C90.8173 17.4 90.3053 17.736 90.3053 18.408C90.3053 18.728 90.4279 18.984 90.6733 19.176C90.9293 19.3573 91.2759 19.448 91.7133 19.448ZM100.692 13.528C100.991 13.112 101.391 12.7973 101.892 12.584C102.404 12.3707 102.991 12.264 103.652 12.264V14.568C103.375 14.5467 103.188 14.536 103.092 14.536C102.378 14.536 101.818 14.7387 101.412 15.144C101.007 15.5387 100.804 16.136 100.804 16.936V21H98.3083V12.392H100.692V13.528ZM108.832 17.624L107.632 18.808V21H105.136V9.128H107.632V15.848L111.28 12.392H114.256L110.672 16.04L114.576 21H111.552L108.832 17.624ZM123.756 16.728C123.756 16.76 123.74 16.984 123.708 17.4H117.196C117.313 17.9333 117.591 18.3547 118.028 18.664C118.465 18.9733 119.009 19.128 119.66 19.128C120.108 19.128 120.503 19.064 120.844 18.936C121.196 18.7973 121.521 18.584 121.82 18.296L123.148 19.736C122.337 20.664 121.153 21.128 119.596 21.128C118.625 21.128 117.767 20.9413 117.02 20.568C116.273 20.184 115.697 19.656 115.292 18.984C114.887 18.312 114.684 17.5493 114.684 16.696C114.684 15.8533 114.881 15.096 115.276 14.424C115.681 13.7413 116.231 13.2133 116.924 12.84C117.628 12.456 118.412 12.264 119.276 12.264C120.119 12.264 120.881 12.4453 121.564 12.808C122.247 13.1707 122.78 13.6933 123.164 14.376C123.559 15.048 123.756 15.832 123.756 16.728ZM119.292 14.152C118.727 14.152 118.252 14.312 117.868 14.632C117.484 14.952 117.249 15.3893 117.164 15.944H121.404C121.319 15.4 121.084 14.968 120.7 14.648C120.316 14.3173 119.847 14.152 119.292 14.152ZM130.97 20.584C130.724 20.7653 130.42 20.904 130.058 21C129.706 21.0853 129.332 21.128 128.938 21.128C127.914 21.128 127.119 20.8667 126.554 20.344C125.999 19.8213 125.722 19.0533 125.722 18.04V14.504H124.394V12.584H125.722V10.488H128.218V12.584H130.362V14.504H128.218V18.008C128.218 18.3707 128.308 18.6533 128.49 18.856C128.682 19.048 128.948 19.144 129.29 19.144C129.684 19.144 130.02 19.0373 130.298 18.824L130.97 20.584ZM137.459 12.264C138.259 12.264 138.984 12.4507 139.635 12.824C140.296 13.1867 140.813 13.704 141.187 14.376C141.56 15.0373 141.747 15.8107 141.747 16.696C141.747 17.5813 141.56 18.36 141.187 19.032C140.813 19.6933 140.296 20.2107 139.635 20.584C138.984 20.9467 138.259 21.128 137.459 21.128C136.36 21.128 135.496 20.7813 134.867 20.088V24.104H132.371V12.392H134.755V13.384C135.373 12.6373 136.275 12.264 137.459 12.264ZM137.027 19.08C137.667 19.08 138.189 18.8667 138.595 18.44C139.011 18.0027 139.219 17.4213 139.219 16.696C139.219 15.9707 139.011 15.3947 138.595 14.968C138.189 14.5307 137.667 14.312 137.027 14.312C136.387 14.312 135.859 14.5307 135.443 14.968C135.037 15.3947 134.835 15.9707 134.835 16.696C134.835 17.4213 135.037 18.0027 135.443 18.44C135.859 18.8667 136.387 19.08 137.027 19.08ZM143.418 9.128H145.914V21H143.418V9.128ZM151.702 12.264C153.035 12.264 154.059 12.584 154.774 13.224C155.489 13.8533 155.846 14.808 155.846 16.088V21H153.51V19.928C153.041 20.728 152.166 21.128 150.886 21.128C150.225 21.128 149.649 21.016 149.158 20.792C148.678 20.568 148.31 20.2587 148.054 19.864C147.798 19.4693 147.67 19.0213 147.67 18.52C147.67 17.72 147.969 17.0907 148.566 16.632C149.174 16.1733 150.107 15.944 151.366 15.944H153.35C153.35 15.4 153.185 14.984 152.854 14.696C152.523 14.3973 152.027 14.248 151.366 14.248C150.907 14.248 150.454 14.3227 150.006 14.472C149.569 14.6107 149.195 14.8027 148.886 15.048L147.99 13.304C148.459 12.9733 149.019 12.7173 149.67 12.536C150.331 12.3547 151.009 12.264 151.702 12.264ZM151.51 19.448C151.937 19.448 152.315 19.352 152.646 19.16C152.977 18.9573 153.211 18.664 153.35 18.28V17.4H151.638C150.614 17.4 150.102 17.736 150.102 18.408C150.102 18.728 150.225 18.984 150.47 19.176C150.726 19.3573 151.073 19.448 151.51 19.448ZM162.359 21.128C161.442 21.128 160.615 20.9413 159.879 20.568C159.154 20.184 158.583 19.656 158.167 18.984C157.762 18.312 157.559 17.5493 157.559 16.696C157.559 15.8427 157.762 15.08 158.167 14.408C158.583 13.736 159.154 13.2133 159.879 12.84C160.615 12.456 161.442 12.264 162.359 12.264C163.266 12.264 164.055 12.456 164.727 12.84C165.41 13.2133 165.906 13.752 166.215 14.456L164.279 15.496C163.831 14.7067 163.186 14.312 162.343 14.312C161.692 14.312 161.154 14.5253 160.727 14.952C160.3 15.3787 160.087 15.96 160.087 16.696C160.087 17.432 160.3 18.0133 160.727 18.44C161.154 18.8667 161.692 19.08 162.343 19.08C163.196 19.08 163.842 18.6853 164.279 17.896L166.215 18.952C165.906 19.6347 165.41 20.168 164.727 20.552C164.055 20.936 163.266 21.128 162.359 21.128ZM175.975 16.728C175.975 16.76 175.959 16.984 175.927 17.4H169.415C169.532 17.9333 169.809 18.3547 170.247 18.664C170.684 18.9733 171.228 19.128 171.879 19.128C172.327 19.128 172.721 19.064 173.063 18.936C173.415 18.7973 173.74 18.584 174.039 18.296L175.367 19.736C174.556 20.664 173.372 21.128 171.815 21.128C170.844 21.128 169.985 20.9413 169.239 20.568C168.492 20.184 167.916 19.656 167.511 18.984C167.105 18.312 166.903 17.5493 166.903 16.696C166.903 15.8533 167.1 15.096 167.495 14.424C167.9 13.7413 168.449 13.2133 169.143 12.84C169.847 12.456 170.631 12.264 171.495 12.264C172.337 12.264 173.1 12.4453 173.783 12.808C174.465 13.1707 174.999 13.6933 175.383 14.376C175.777 15.048 175.975 15.832 175.975 16.728ZM171.511 14.152C170.945 14.152 170.471 14.312 170.087 14.632C169.703 14.952 169.468 15.3893 169.383 15.944H173.623C173.537 15.4 173.303 14.968 172.919 14.648C172.535 14.3173 172.065 14.152 171.511 14.152Z" fill="#353535"/>
<path d="M77.008 47.192C76.1227 47.192 75.264 47.0747 74.432 46.84C73.6107 46.5947 72.9493 46.28 72.448 45.896L73.328 43.944C73.808 44.296 74.3787 44.5787 75.04 44.792C75.7013 45.0053 76.3627 45.112 77.024 45.112C77.76 45.112 78.304 45.0053 78.656 44.792C79.008 44.568 79.184 44.2747 79.184 43.912C79.184 43.6453 79.0773 43.4267 78.864 43.256C78.6613 43.0747 78.3947 42.9307 78.064 42.824C77.744 42.7173 77.3067 42.6 76.752 42.472C75.8987 42.2693 75.2 42.0667 74.656 41.864C74.112 41.6613 73.6427 41.336 73.248 40.888C72.864 40.44 72.672 39.8427 72.672 39.096C72.672 38.4453 72.848 37.8587 73.2 37.336C73.552 36.8027 74.08 36.3813 74.784 36.072C75.4987 35.7627 76.368 35.608 77.392 35.608C78.1067 35.608 78.8053 35.6933 79.488 35.864C80.1707 36.0347 80.768 36.28 81.28 36.6L80.48 38.568C79.4453 37.9813 78.4107 37.688 77.376 37.688C76.6507 37.688 76.112 37.8053 75.76 38.04C75.4187 38.2747 75.248 38.584 75.248 38.968C75.248 39.352 75.4453 39.64 75.84 39.832C76.2453 40.0133 76.8587 40.1947 77.68 40.376C78.5333 40.5787 79.232 40.7813 79.776 40.984C80.32 41.1867 80.784 41.5067 81.168 41.944C81.5627 42.3813 81.76 42.9733 81.76 43.72C81.76 44.36 81.5787 44.9467 81.216 45.48C80.864 46.0027 80.3307 46.4187 79.616 46.728C78.9013 47.0373 78.032 47.192 77.008 47.192ZM91.7871 42.728C91.7871 42.76 91.7711 42.984 91.7391 43.4H85.2271C85.3445 43.9333 85.6218 44.3547 86.0591 44.664C86.4965 44.9733 87.0405 45.128 87.6911 45.128C88.1391 45.128 88.5338 45.064 88.8751 44.936C89.2271 44.7973 89.5525 44.584 89.8511 44.296L91.1791 45.736C90.3685 46.664 89.1845 47.128 87.6271 47.128C86.6565 47.128 85.7978 46.9413 85.0511 46.568C84.3045 46.184 83.7285 45.656 83.3231 44.984C82.9178 44.312 82.7151 43.5493 82.7151 42.696C82.7151 41.8533 82.9125 41.096 83.3071 40.424C83.7125 39.7413 84.2618 39.2133 84.9551 38.84C85.6591 38.456 86.4431 38.264 87.3071 38.264C88.1498 38.264 88.9125 38.4453 89.5951 38.808C90.2778 39.1707 90.8111 39.6933 91.1951 40.376C91.5898 41.048 91.7871 41.832 91.7871 42.728ZM87.3231 40.152C86.7578 40.152 86.2831 40.312 85.8991 40.632C85.5151 40.952 85.2805 41.3893 85.1951 41.944H89.4351C89.3498 41.4 89.1151 40.968 88.7311 40.648C88.3471 40.3173 87.8778 40.152 87.3231 40.152ZM93.4489 35.128H95.9449V47H93.4489V35.128ZM98.2614 35.128H100.757V47H98.2614V35.128ZM111.506 42.728C111.506 42.76 111.49 42.984 111.458 43.4H104.946C105.063 43.9333 105.341 44.3547 105.778 44.664C106.215 44.9733 106.759 45.128 107.41 45.128C107.858 45.128 108.253 45.064 108.594 44.936C108.946 44.7973 109.271 44.584 109.57 44.296L110.898 45.736C110.087 46.664 108.903 47.128 107.346 47.128C106.375 47.128 105.517 46.9413 104.77 46.568C104.023 46.184 103.447 45.656 103.042 44.984C102.637 44.312 102.434 43.5493 102.434 42.696C102.434 41.8533 102.631 41.096 103.026 40.424C103.431 39.7413 103.981 39.2133 104.674 38.84C105.378 38.456 106.162 38.264 107.026 38.264C107.869 38.264 108.631 38.4453 109.314 38.808C109.997 39.1707 110.53 39.6933 110.914 40.376C111.309 41.048 111.506 41.832 111.506 42.728ZM107.042 40.152C106.477 40.152 106.002 40.312 105.618 40.632C105.234 40.952 104.999 41.3893 104.914 41.944H109.154C109.069 41.4 108.834 40.968 108.45 40.648C108.066 40.3173 107.597 40.152 107.042 40.152ZM115.552 39.528C115.85 39.112 116.25 38.7973 116.752 38.584C117.264 38.3707 117.85 38.264 118.512 38.264V40.568C118.234 40.5467 118.048 40.536 117.952 40.536C117.237 40.536 116.677 40.7387 116.272 41.144C115.866 41.5387 115.664 42.136 115.664 42.936V47H113.168V38.392H115.552V39.528ZM122.923 47.128C122.208 47.128 121.51 47.0427 120.827 46.872C120.144 46.6907 119.6 46.4667 119.195 46.2L120.027 44.408C120.411 44.6533 120.875 44.856 121.419 45.016C121.963 45.1653 122.496 45.24 123.019 45.24C124.075 45.24 124.603 44.9787 124.603 44.456C124.603 44.2107 124.459 44.0347 124.171 43.928C123.883 43.8213 123.44 43.7307 122.843 43.656C122.139 43.5493 121.558 43.4267 121.099 43.288C120.64 43.1493 120.24 42.904 119.899 42.552C119.568 42.2 119.403 41.6987 119.403 41.048C119.403 40.504 119.558 40.024 119.867 39.608C120.187 39.1813 120.646 38.8507 121.243 38.616C121.851 38.3813 122.566 38.264 123.387 38.264C123.995 38.264 124.598 38.3333 125.195 38.472C125.803 38.6 126.304 38.7813 126.699 39.016L125.867 40.792C125.11 40.3653 124.283 40.152 123.387 40.152C122.854 40.152 122.454 40.2267 122.187 40.376C121.92 40.5253 121.787 40.7173 121.787 40.952C121.787 41.2187 121.931 41.4053 122.219 41.512C122.507 41.6187 122.966 41.72 123.595 41.816C124.299 41.9333 124.875 42.0613 125.323 42.2C125.771 42.328 126.16 42.568 126.491 42.92C126.822 43.272 126.987 43.7627 126.987 44.392C126.987 44.9253 126.827 45.4 126.507 45.816C126.187 46.232 125.718 46.5573 125.099 46.792C124.491 47.016 123.766 47.128 122.923 47.128Z" fill="#353535"/>
<defs>
<clipPath id="clip0_205_2078">
<rect width="56" height="56" fill="white"/>
</clipPath>
</defs>
</svg>
