<svg width="96" height="16" viewBox="0 0 96 16" fill="none" xmlns="http://www.w3.org/2000/svg">
<g clip-path="url(#clip0_62_646)">
<path d="M7.552 0.907978C7.59337 0.82451 7.65723 0.754259 7.73638 0.705144C7.81554 0.656029 7.90684 0.630005 8 0.630005C8.09316 0.630005 8.18446 0.656029 8.26361 0.705144C8.34277 0.754259 8.40663 0.82451 8.448 0.907978L10.528 5.12398C10.564 5.19664 10.6171 5.25946 10.6828 5.30702C10.7485 5.35458 10.8247 5.38546 10.905 5.39698L15.557 6.07298C15.6493 6.08639 15.7361 6.12538 15.8074 6.18553C15.8788 6.24568 15.9319 6.3246 15.9607 6.41336C15.9895 6.50211 15.9929 6.59716 15.9705 6.68776C15.9481 6.77835 15.9009 6.86087 15.834 6.92598L12.468 10.207C12.4098 10.2636 12.3663 10.3335 12.3413 10.4107C12.3162 10.4879 12.3102 10.57 12.324 10.65L13.119 15.283C13.1348 15.375 13.1246 15.4696 13.0894 15.5561C13.0542 15.6426 12.9955 15.7175 12.92 15.7723C12.8444 15.8272 12.755 15.8598 12.6619 15.8664C12.5687 15.8731 12.4756 15.8535 12.393 15.81L8.233 13.622C8.16116 13.5841 8.08119 13.5644 8 13.5644C7.91881 13.5644 7.83884 13.5841 7.767 13.622L3.607 15.81C3.52441 15.8535 3.43128 15.8731 3.33815 15.8664C3.24501 15.8598 3.15561 15.8272 3.08005 15.7723C3.00449 15.7175 2.94579 15.6426 2.91062 15.5561C2.87544 15.4696 2.86518 15.375 2.881 15.283L3.676 10.65C3.68975 10.57 3.68383 10.4879 3.65874 10.4107C3.63365 10.3335 3.59015 10.2636 3.532 10.207L0.165999 6.92598C0.0991478 6.86087 0.0518513 6.77835 0.0294605 6.68776C0.00706973 6.59716 0.0104783 6.50211 0.0393006 6.41336C0.0681229 6.3246 0.121209 6.24568 0.192552 6.18553C0.263896 6.12538 0.35065 6.08639 0.442999 6.07298L5.095 5.39698C5.17509 5.3853 5.25115 5.35436 5.31664 5.30681C5.38213 5.25926 5.4351 5.19652 5.471 5.12398L7.552 0.907978Z" fill="#FAC220"/>
</g>
<g clip-path="url(#clip1_62_646)">
<path d="M27.552 0.907978C27.5934 0.82451 27.6572 0.754259 27.7364 0.705144C27.8155 0.656029 27.9068 0.630005 28 0.630005C28.0932 0.630005 28.1845 0.656029 28.2636 0.705144C28.3428 0.754259 28.4066 0.82451 28.448 0.907978L30.528 5.12398C30.564 5.19664 30.6171 5.25946 30.6828 5.30702C30.7485 5.35458 30.8247 5.38546 30.905 5.39698L35.557 6.07298C35.6493 6.08639 35.7361 6.12538 35.8074 6.18553C35.8788 6.24568 35.9319 6.3246 35.9607 6.41336C35.9895 6.50211 35.9929 6.59716 35.9705 6.68776C35.9481 6.77835 35.9009 6.86087 35.834 6.92598L32.468 10.207C32.4098 10.2636 32.3663 10.3335 32.3413 10.4107C32.3162 10.4879 32.3102 10.57 32.324 10.65L33.119 15.283C33.1348 15.375 33.1246 15.4696 33.0894 15.5561C33.0542 15.6426 32.9955 15.7175 32.92 15.7723C32.8444 15.8272 32.755 15.8598 32.6619 15.8664C32.5687 15.8731 32.4756 15.8535 32.393 15.81L28.233 13.622C28.1612 13.5841 28.0812 13.5644 28 13.5644C27.9188 13.5644 27.8388 13.5841 27.767 13.622L23.607 15.81C23.5244 15.8535 23.4313 15.8731 23.3381 15.8664C23.245 15.8598 23.1556 15.8272 23.08 15.7723C23.0045 15.7175 22.9458 15.6426 22.9106 15.5561C22.8754 15.4696 22.8652 15.375 22.881 15.283L23.676 10.65C23.6898 10.57 23.6838 10.4879 23.6587 10.4107C23.6337 10.3335 23.5902 10.2636 23.532 10.207L20.166 6.92598C20.0991 6.86087 20.0519 6.77835 20.0295 6.68776C20.0071 6.59716 20.0105 6.50211 20.0393 6.41336C20.0681 6.3246 20.1212 6.24568 20.1926 6.18553C20.2639 6.12538 20.3506 6.08639 20.443 6.07298L25.095 5.39698C25.1751 5.3853 25.2511 5.35436 25.3166 5.30681C25.3821 5.25926 25.4351 5.19652 25.471 5.12398L27.552 0.907978Z" fill="#FAC220"/>
</g>
<g clip-path="url(#clip2_62_646)">
<path d="M47.552 0.907978C47.5934 0.82451 47.6572 0.754259 47.7364 0.705144C47.8155 0.656029 47.9068 0.630005 48 0.630005C48.0932 0.630005 48.1845 0.656029 48.2636 0.705144C48.3428 0.754259 48.4066 0.82451 48.448 0.907978L50.528 5.12398C50.564 5.19664 50.6171 5.25946 50.6828 5.30702C50.7485 5.35458 50.8247 5.38546 50.905 5.39698L55.557 6.07298C55.6493 6.08639 55.7361 6.12538 55.8074 6.18553C55.8788 6.24568 55.9319 6.3246 55.9607 6.41336C55.9895 6.50211 55.9929 6.59716 55.9705 6.68776C55.9481 6.77835 55.9009 6.86087 55.834 6.92598L52.468 10.207C52.4098 10.2636 52.3663 10.3335 52.3413 10.4107C52.3162 10.4879 52.3102 10.57 52.324 10.65L53.119 15.283C53.1348 15.375 53.1246 15.4696 53.0894 15.5561C53.0542 15.6426 52.9955 15.7175 52.92 15.7723C52.8444 15.8272 52.755 15.8598 52.6619 15.8664C52.5687 15.8731 52.4756 15.8535 52.393 15.81L48.233 13.622C48.1612 13.5841 48.0812 13.5644 48 13.5644C47.9188 13.5644 47.8388 13.5841 47.767 13.622L43.607 15.81C43.5244 15.8535 43.4313 15.8731 43.3381 15.8664C43.245 15.8598 43.1556 15.8272 43.08 15.7723C43.0045 15.7175 42.9458 15.6426 42.9106 15.5561C42.8754 15.4696 42.8652 15.375 42.881 15.283L43.676 10.65C43.6898 10.57 43.6838 10.4879 43.6587 10.4107C43.6337 10.3335 43.5902 10.2636 43.532 10.207L40.166 6.92598C40.0991 6.86087 40.0519 6.77835 40.0295 6.68776C40.0071 6.59716 40.0105 6.50211 40.0393 6.41336C40.0681 6.3246 40.1212 6.24568 40.1926 6.18553C40.2639 6.12538 40.3506 6.08639 40.443 6.07298L45.095 5.39698C45.1751 5.3853 45.2511 5.35436 45.3166 5.30681C45.3821 5.25926 45.4351 5.19652 45.471 5.12398L47.552 0.907978Z" fill="#DCE1EA"/>
</g>
<g clip-path="url(#clip3_62_646)">
<path d="M67.552 0.907978C67.5934 0.82451 67.6572 0.754259 67.7364 0.705144C67.8155 0.656029 67.9068 0.630005 68 0.630005C68.0932 0.630005 68.1845 0.656029 68.2636 0.705144C68.3428 0.754259 68.4066 0.82451 68.448 0.907978L70.528 5.12398C70.564 5.19664 70.6171 5.25946 70.6828 5.30702C70.7485 5.35458 70.8247 5.38546 70.905 5.39698L75.557 6.07298C75.6494 6.08639 75.7361 6.12538 75.8074 6.18553C75.8788 6.24568 75.9319 6.3246 75.9607 6.41336C75.9895 6.50211 75.9929 6.59716 75.9705 6.68776C75.9481 6.77835 75.9009 6.86087 75.834 6.92598L72.468 10.207C72.4098 10.2636 72.3663 10.3335 72.3413 10.4107C72.3162 10.4879 72.3102 10.57 72.324 10.65L73.119 15.283C73.1348 15.375 73.1246 15.4696 73.0894 15.5561C73.0542 15.6426 72.9955 15.7175 72.92 15.7723C72.8444 15.8272 72.755 15.8598 72.6619 15.8664C72.5687 15.8731 72.4756 15.8535 72.393 15.81L68.233 13.622C68.1612 13.5841 68.0812 13.5644 68 13.5644C67.9188 13.5644 67.8388 13.5841 67.767 13.622L63.607 15.81C63.5244 15.8535 63.4313 15.8731 63.3381 15.8664C63.245 15.8598 63.1556 15.8272 63.08 15.7723C63.0045 15.7175 62.9458 15.6426 62.9106 15.5561C62.8754 15.4696 62.8652 15.375 62.881 15.283L63.676 10.65C63.6898 10.57 63.6838 10.4879 63.6587 10.4107C63.6337 10.3335 63.5902 10.2636 63.532 10.207L60.166 6.92598C60.0991 6.86087 60.0519 6.77835 60.0295 6.68776C60.0071 6.59716 60.0105 6.50211 60.0393 6.41336C60.0681 6.3246 60.1212 6.24568 60.1926 6.18553C60.2639 6.12538 60.3507 6.08639 60.443 6.07298L65.095 5.39698C65.1751 5.3853 65.2511 5.35436 65.3166 5.30681C65.3821 5.25926 65.4351 5.19652 65.471 5.12398L67.552 0.907978Z" fill="#DCE1EA"/>
</g>
<g clip-path="url(#clip4_62_646)">
<path d="M87.552 0.907978C87.5934 0.82451 87.6572 0.754259 87.7364 0.705144C87.8155 0.656029 87.9068 0.630005 88 0.630005C88.0932 0.630005 88.1845 0.656029 88.2636 0.705144C88.3428 0.754259 88.4066 0.82451 88.448 0.907978L90.528 5.12398C90.564 5.19664 90.6171 5.25946 90.6828 5.30702C90.7485 5.35458 90.8247 5.38546 90.905 5.39698L95.557 6.07298C95.6494 6.08639 95.7361 6.12538 95.8074 6.18553C95.8788 6.24568 95.9319 6.3246 95.9607 6.41336C95.9895 6.50211 95.9929 6.59716 95.9705 6.68776C95.9481 6.77835 95.9009 6.86087 95.834 6.92598L92.468 10.207C92.4098 10.2636 92.3663 10.3335 92.3413 10.4107C92.3162 10.4879 92.3102 10.57 92.324 10.65L93.119 15.283C93.1348 15.375 93.1246 15.4696 93.0894 15.5561C93.0542 15.6426 92.9955 15.7175 92.92 15.7723C92.8444 15.8272 92.755 15.8598 92.6619 15.8664C92.5687 15.8731 92.4756 15.8535 92.393 15.81L88.233 13.622C88.1612 13.5841 88.0812 13.5644 88 13.5644C87.9188 13.5644 87.8388 13.5841 87.767 13.622L83.607 15.81C83.5244 15.8535 83.4313 15.8731 83.3381 15.8664C83.245 15.8598 83.1556 15.8272 83.08 15.7723C83.0045 15.7175 82.9458 15.6426 82.9106 15.5561C82.8754 15.4696 82.8652 15.375 82.881 15.283L83.676 10.65C83.6898 10.57 83.6838 10.4879 83.6587 10.4107C83.6337 10.3335 83.5902 10.2636 83.532 10.207L80.166 6.92598C80.0991 6.86087 80.0519 6.77835 80.0295 6.68776C80.0071 6.59716 80.0105 6.50211 80.0393 6.41336C80.0681 6.3246 80.1212 6.24568 80.1926 6.18553C80.2639 6.12538 80.3507 6.08639 80.443 6.07298L85.095 5.39698C85.1751 5.3853 85.2511 5.35436 85.3166 5.30681C85.3821 5.25926 85.4351 5.19652 85.471 5.12398L87.552 0.907978Z" fill="#DCE1EA"/>
</g>
<defs>
<clipPath id="clip0_62_646">
<rect width="16" height="16" fill="white"/>
</clipPath>
<clipPath id="clip1_62_646">
<rect width="16" height="16" fill="white" transform="translate(20)"/>
</clipPath>
<clipPath id="clip2_62_646">
<rect width="16" height="16" fill="white" transform="translate(40)"/>
</clipPath>
<clipPath id="clip3_62_646">
<rect width="16" height="16" fill="white" transform="translate(60)"/>
</clipPath>
<clipPath id="clip4_62_646">
<rect width="16" height="16" fill="white" transform="translate(80)"/>
</clipPath>
</defs>
</svg>
