<svg width="130" height="115" viewBox="0 0 130 115" fill="none" xmlns="http://www.w3.org/2000/svg">
<g clip-path="url(#clip0_800_10018)">
<path opacity="0.3" fill-rule="evenodd" clip-rule="evenodd" d="M40.7222 89.195C37.3568 89.195 34.1293 90.5319 31.7497 92.9115C29.37 95.2912 28.0332 98.5187 28.0332 101.884C28.0332 105.249 29.37 108.477 31.7497 110.857C34.1293 113.236 37.3568 114.573 40.7222 114.573C44.0875 114.573 47.315 113.236 49.6946 110.857C52.0743 108.477 53.4112 105.249 53.4112 101.884C53.4112 98.5187 52.0743 95.2912 49.6946 92.9115C47.315 90.5319 44.0875 89.195 40.7222 89.195ZM108.096 89.195C104.731 89.195 101.503 90.5319 99.1237 92.9115C96.7441 95.2912 95.4072 98.5187 95.4072 101.884C95.4072 105.249 96.7441 108.477 99.1237 110.857C101.503 113.236 104.731 114.573 108.096 114.573C111.462 114.573 114.689 113.236 117.068 110.856C119.448 108.476 120.784 105.248 120.784 101.883C120.784 98.5177 119.447 95.2903 117.067 92.9109C114.687 90.5314 111.46 89.1948 108.094 89.195H108.096ZM128.038 18.775C127.55 18.1659 126.93 17.6744 126.226 17.3371C125.522 16.9997 124.751 16.825 123.97 16.826H28.3652L23.3942 3.38803C23.0253 2.39077 22.3599 1.53038 21.4875 0.922546C20.6151 0.314712 19.5774 -0.0114105 18.5142 -0.0119629H5.20416C3.83607 0.00699951 2.53045 0.563775 1.5697 1.53793C0.608952 2.51209 0.0703125 3.82532 0.0703125 5.19354C0.0703125 6.56176 0.608952 7.87496 1.5697 8.84912C2.53045 9.82328 3.83607 10.3801 5.20416 10.399H14.8872L39.6512 77.281C40.0211 78.2767 40.6871 79.1352 41.5595 79.7411C42.4319 80.347 43.469 80.6712 44.5312 80.67C44.7382 80.67 44.9482 80.657 45.1552 80.643L114.576 72.312C115.649 72.1837 116.655 71.7255 117.456 71.0008C118.258 70.276 118.814 69.3205 119.049 68.266L129.068 23.1581C129.235 22.3969 129.229 21.6081 129.051 20.8496C128.872 20.0912 128.526 19.3823 128.038 18.775ZM114.02 42.854H93.2202V27.237H117.494L114.02 42.854ZM67.1942 42.854V27.237H88.0192V42.854H67.1942ZM88.0192 48.0591V65.012L67.1942 67.506V48.052H88.0192V48.0591ZM61.9882 27.237V42.854H38.0002L32.2192 27.237H61.9882ZM39.9292 48.0591H61.9882V68.143L47.9882 69.824L39.9292 48.0591ZM93.2292 64.388V48.0591H112.872L109.686 62.409L93.2292 64.388Z" fill="black"/>
</g>
<defs>
<clipPath id="clip0_800_10018">
<rect width="129.188" height="114.562" fill="white"/>
</clipPath>
</defs>
</svg>
