<svg width="70" height="70" viewBox="0 0 70 70" fill="none" xmlns="http://www.w3.org/2000/svg">
<g clip-path="url(#clip0_9_29)">
<path d="M34.4531 28.3996V56.5776H43.8639L46.6553 49.6536H45.1628C44.6888 49.6275 44.2428 49.4216 43.9165 49.0783C43.5903 48.735 43.4085 48.2804 43.4085 47.8078C43.4085 47.3352 43.5903 46.8806 43.9165 46.5373C44.2428 46.194 44.6888 45.9881 45.1628 45.962H52.4089L51.0246 42.9054H46.4673C46.1598 42.9054 45.865 42.7838 45.6476 42.5674C45.4302 42.351 45.308 42.0575 45.308 41.7514C45.308 41.4453 45.4302 41.1518 45.6476 40.9354C45.865 40.719 46.1598 40.5974 46.4673 40.5974H58.1055L59.2448 33.4863C59.3318 33.0154 59.6 32.597 59.9922 32.32C60.3845 32.0431 60.8698 31.9294 61.345 32.0033C61.8201 32.0772 62.2475 32.3328 62.5362 32.7157C62.8249 33.0986 62.9521 33.5785 62.8906 34.0533L60.612 48.0828C60.5441 48.5156 60.3231 48.91 59.9888 49.1949C59.6546 49.4798 59.2291 49.6365 58.7891 49.6366H56.613L59.7461 56.5606H69.8747V61.4829H0V56.5776H6.30046L9.43359 49.6536H7.2347C6.79467 49.6535 6.36917 49.4968 6.03493 49.2119C5.70069 48.927 5.47969 48.5326 5.41178 48.0998L3.13314 34.0703C3.08947 33.6033 3.22632 33.1373 3.51581 32.7672C3.8053 32.3971 4.22564 32.1509 4.69119 32.0786C5.15674 32.0063 5.63247 32.1134 6.02144 32.3781C6.41041 32.6428 6.68336 33.0452 6.78467 33.5033L7.92399 40.6144H19.5907C19.8981 40.6144 20.193 40.736 20.4104 40.9524C20.6278 41.1688 20.7499 41.4624 20.7499 41.7684C20.7499 42.0745 20.6278 42.368 20.4104 42.5844C20.193 42.8008 19.8981 42.9224 19.5907 42.9224H15.0334L13.6719 45.962H20.8838C21.3578 45.9881 21.8037 46.194 22.13 46.5373C22.4563 46.8806 22.6381 47.3352 22.6381 47.8078C22.6381 48.2804 22.4563 48.735 22.13 49.0783C21.8037 49.4216 21.3578 49.6275 20.8838 49.6536H19.3685L22.2168 56.5776H31.6732V28.3996H15.21C14.941 28.3996 14.6831 28.2932 14.493 28.1039C14.3028 27.9146 14.196 27.6579 14.196 27.3902C14.1931 27.3562 14.1931 27.3221 14.196 27.2881C14.2171 24.8812 14.7191 22.5025 15.6726 20.2906C16.6262 18.0786 18.0123 16.0776 19.7502 14.4041C23.2353 11.029 27.888 9.11306 32.7498 9.0509C32.9532 8.98303 33.1732 8.98303 33.3765 9.0509C38.2146 9.13036 42.8397 11.0451 46.3078 14.4041C48.0508 16.0939 49.4377 18.1127 50.3875 20.3425C51.3373 22.5723 51.8308 24.9682 51.8392 27.3902C51.8407 27.5224 51.8157 27.6536 51.7655 27.7761C51.7154 27.8985 51.6412 28.0098 51.5473 28.1033C51.4533 28.1968 51.3416 28.2707 51.2185 28.3206C51.0955 28.3705 50.9637 28.3954 50.8309 28.3939H34.4531V28.3996ZM59.3758 15.7651C59.3462 15.7141 59.327 15.6578 59.3193 15.5994C59.3116 15.541 59.3155 15.4817 59.3308 15.4248C59.3462 15.3679 59.3726 15.3146 59.4087 15.2679C59.4448 15.2212 59.4897 15.182 59.541 15.1526C59.5924 15.1226 59.6493 15.1032 59.7084 15.0955C59.7674 15.0878 59.8274 15.0921 59.8848 15.1079C59.9422 15.1238 59.9958 15.151 60.0425 15.1879C60.0891 15.2248 60.1278 15.2707 60.1562 15.3228L60.7259 16.3152C60.7558 16.3662 60.7754 16.4225 60.7834 16.4811C60.7914 16.5396 60.7878 16.5991 60.7727 16.6563C60.7577 16.7134 60.7314 16.767 60.6955 16.8141C60.6596 16.8611 60.6148 16.9006 60.5636 16.9304C60.5123 16.9602 60.4557 16.9797 60.3969 16.9877C60.3381 16.9957 60.2783 16.9921 60.2209 16.9771C60.1635 16.962 60.1096 16.9359 60.0624 16.9002C60.0151 16.8645 59.9754 16.8198 59.9455 16.7688L59.3758 15.7651ZM62.9704 17.2452C63.9021 17.2454 64.805 17.5672 65.5252 18.1557C66.2453 18.7443 66.7382 19.5633 66.9198 20.473C67.1014 21.3828 66.9605 22.3271 66.5211 23.145C66.0817 23.963 65.371 24.6039 64.5101 24.9587C63.6492 25.3135 62.6913 25.3602 61.7997 25.0908C60.9081 24.8214 60.1379 24.2526 59.6204 23.4813C59.1029 22.7099 58.87 21.7839 58.9615 20.8608C59.0529 19.9377 59.4631 19.0748 60.1221 18.419C60.879 17.6693 61.9026 17.2474 62.9704 17.2452ZM62.6172 14.716C62.61 14.6525 62.6164 14.5883 62.6359 14.5275C62.6554 14.4667 62.6876 14.4106 62.7303 14.363C62.7731 14.3154 62.8254 14.2773 62.884 14.2512C62.9425 14.2252 63.0059 14.2117 63.0701 14.2117C63.1342 14.2117 63.1976 14.2252 63.2562 14.2512C63.3147 14.2773 63.3671 14.3154 63.4098 14.363C63.4526 14.4106 63.4847 14.4667 63.5042 14.5275C63.5237 14.5883 63.5301 14.6525 63.5229 14.716V15.8502C63.5104 15.961 63.4573 16.0634 63.3738 16.1377C63.2903 16.2121 63.1821 16.2532 63.0701 16.2532C62.958 16.2532 62.8499 16.2121 62.7663 16.1377C62.6828 16.0634 62.6297 15.961 62.6172 15.8502V14.716ZM65.9554 15.4135C65.9849 15.3625 66.0242 15.3177 66.0712 15.2818C66.1181 15.2459 66.1716 15.2195 66.2288 15.2043C66.2859 15.189 66.3455 15.1851 66.4042 15.1928C66.4628 15.2005 66.5194 15.2196 66.5706 15.2491C66.6724 15.3115 66.7462 15.4104 66.777 15.5253C66.8077 15.6403 66.793 15.7627 66.7358 15.8672L66.1662 16.8596C66.1065 16.9625 66.0085 17.038 65.8935 17.0698C65.7784 17.1016 65.6554 17.0872 65.5509 17.0297C65.4483 16.9694 65.3739 16.8711 65.344 16.7563C65.3141 16.6415 65.3312 16.5195 65.3914 16.4172L65.9611 15.4135H65.9554ZM68.4847 17.6818C68.5882 17.6224 68.7112 17.6064 68.8265 17.6372C68.9419 17.668 69.0403 17.7432 69.0999 17.8463C69.1596 17.9493 69.1757 18.0717 69.1448 18.1865C69.1138 18.3014 69.0382 18.3993 68.9347 18.4587L67.9378 19.0258C67.8868 19.056 67.8302 19.0758 67.7714 19.0839C67.7125 19.092 67.6527 19.0882 67.5953 19.0729C67.538 19.0576 67.4843 19.0309 67.4374 18.9946C67.3906 18.9583 67.3515 18.9129 67.3226 18.8613C67.293 18.8103 67.2738 18.754 67.2661 18.6956C67.2583 18.6372 67.2623 18.5779 67.2776 18.521C67.293 18.4641 67.3194 18.4108 67.3555 18.3641C67.3915 18.3174 67.4365 18.2783 67.4878 18.2489L68.4847 17.6818ZM69.5443 20.9085C69.608 20.9014 69.6725 20.9077 69.7336 20.9271C69.7948 20.9465 69.8511 20.9785 69.8989 21.0211C69.9467 21.0636 69.9849 21.1158 70.0111 21.174C70.0373 21.2323 70.0509 21.2955 70.0509 21.3593C70.0509 21.4232 70.0373 21.4863 70.0111 21.5446C69.9849 21.6029 69.9467 21.655 69.8989 21.6975C69.8511 21.7401 69.7948 21.7721 69.7336 21.7915C69.6725 21.8109 69.608 21.8173 69.5443 21.8101H68.4049C68.2841 21.8101 68.1682 21.7623 68.0827 21.6773C67.9972 21.5922 67.9492 21.4768 67.9492 21.3565C67.9492 21.2972 67.961 21.2384 67.984 21.1837C68.007 21.129 68.0406 21.0793 68.083 21.0377C68.1254 20.996 68.1757 20.9631 68.231 20.9409C68.2862 20.9188 68.3454 20.9077 68.4049 20.9085H69.5443ZM68.8436 24.2316C68.8948 24.261 68.9398 24.3001 68.9758 24.3468C69.0118 24.3935 69.0383 24.4468 69.0536 24.5037C69.0689 24.5606 69.0729 24.6199 69.0652 24.6783C69.0575 24.7367 69.0383 24.793 69.0088 24.844C68.9792 24.895 68.9399 24.9397 68.893 24.9756C68.8461 25.0115 68.7925 25.0378 68.7354 25.0531C68.6783 25.0683 68.6187 25.0723 68.56 25.0646C68.5014 25.0569 68.4448 25.0379 68.3936 25.0084L67.3909 24.4414C67.2883 24.3811 67.2139 24.2828 67.184 24.168C67.1541 24.0532 67.1712 23.9312 67.2314 23.8289C67.2609 23.7778 67.3003 23.733 67.3473 23.6972C67.3944 23.6615 67.4482 23.6354 67.5055 23.6206C67.5628 23.6058 67.6225 23.6026 67.6811 23.6111C67.7397 23.6196 67.796 23.6397 67.8467 23.6701L68.8436 24.2372V24.2316ZM66.5649 26.7494C66.6095 26.8518 66.6146 26.967 66.5792 27.0729C66.5438 27.1788 66.4705 27.268 66.3732 27.3234C66.2759 27.3789 66.1615 27.3967 66.0518 27.3734C65.9421 27.3502 65.845 27.2875 65.7788 27.1974L65.2091 26.1993C65.1646 26.0969 65.1595 25.9817 65.1949 25.8758C65.2303 25.7699 65.3036 25.6807 65.4009 25.6253C65.4982 25.5698 65.6126 25.552 65.7223 25.5753C65.8319 25.5985 65.9291 25.6612 65.9953 25.7513L66.5649 26.7494ZM63.3236 27.8041C63.3307 27.8676 63.3244 27.9318 63.3049 27.9927C63.2854 28.0535 63.2532 28.1095 63.2104 28.1571C63.1677 28.2047 63.1153 28.2428 63.0568 28.2689C62.9982 28.295 62.9348 28.3084 62.8707 28.3084C62.8065 28.3084 62.7431 28.295 62.6846 28.2689C62.626 28.2428 62.5737 28.2047 62.5309 28.1571C62.4882 28.1095 62.456 28.0535 62.4365 27.9927C62.417 27.9318 62.4106 27.8676 62.4178 27.8041V26.67C62.4106 26.6065 62.417 26.5423 62.4365 26.4815C62.456 26.4206 62.4882 26.3646 62.5309 26.317C62.5737 26.2694 62.626 26.2313 62.6846 26.2052C62.7431 26.1792 62.8065 26.1657 62.8707 26.1657C62.9348 26.1657 62.9982 26.1792 63.0568 26.2052C63.1153 26.2313 63.1677 26.2694 63.2104 26.317C63.2532 26.3646 63.2854 26.4206 63.3049 26.4815C63.3244 26.5423 63.3307 26.6065 63.3236 26.67V27.8041ZM59.9854 27.1066C59.9249 27.2097 59.8258 27.2846 59.7099 27.3149C59.594 27.3452 59.4708 27.3284 59.3673 27.2683C59.2638 27.2081 59.1885 27.1095 59.1581 26.9941C59.1276 26.8787 59.1445 26.756 59.2049 26.653L59.7746 25.6549C59.8352 25.5529 59.9336 25.4786 60.0485 25.4479C60.1635 25.4172 60.286 25.4325 60.3898 25.4905C60.4924 25.5507 60.5668 25.6491 60.5967 25.7639C60.6266 25.8787 60.6096 26.0006 60.5493 26.1029L59.9797 27.1066H59.9854ZM57.4561 24.8383C57.3526 24.8877 57.2343 24.8964 57.1247 24.8628C57.0151 24.8292 56.9222 24.7556 56.8647 24.6568C56.8072 24.558 56.7892 24.4413 56.8143 24.3299C56.8395 24.2184 56.9059 24.1206 57.0003 24.0558L57.9972 23.4887C58.1023 23.4294 58.2266 23.414 58.3431 23.4459C58.4595 23.4778 58.5584 23.5543 58.6182 23.6588C58.6475 23.7101 58.6664 23.7668 58.6737 23.8254C58.681 23.884 58.6766 23.9435 58.6607 24.0004C58.6448 24.0573 58.6178 24.1106 58.5812 24.1571C58.5445 24.2035 58.499 24.2423 58.4473 24.2712L57.4561 24.8383ZM56.3965 21.6117C56.2756 21.6117 56.1597 21.5639 56.0742 21.4788C55.9888 21.3937 55.9408 21.2783 55.9408 21.158C55.9408 21.0377 55.9888 20.9223 56.0742 20.8372C56.1597 20.7521 56.2756 20.7043 56.3965 20.7043H57.5358C57.6567 20.7043 57.7726 20.7521 57.8581 20.8372C57.9435 20.9223 57.9915 21.0377 57.9915 21.158C57.9915 21.2783 57.9435 21.3937 57.8581 21.4788C57.7726 21.5639 57.6567 21.6117 57.5358 21.6117H56.3965ZM57.0972 18.2943C56.9947 18.2339 56.9201 18.136 56.8892 18.0215C56.8583 17.9071 56.8737 17.7852 56.932 17.6818C56.9896 17.5798 57.085 17.5043 57.1979 17.4714C57.3107 17.4386 57.432 17.451 57.5358 17.506L58.5327 18.0731C58.584 18.1025 58.629 18.1416 58.665 18.1883C58.7011 18.235 58.7276 18.2883 58.7429 18.3452C58.7582 18.4021 58.7622 18.4614 58.7545 18.5198C58.7467 18.5782 58.7275 18.6345 58.6979 18.6855C58.6374 18.7877 58.5386 18.8618 58.4233 18.8915C58.3079 18.9213 58.1855 18.9043 58.0827 18.8443L57.0858 18.2772L57.0972 18.2943ZM8.82975 56.5776H19.7046L16.8563 49.6536H11.9629L8.82975 56.5776ZM12.487 42.9054H8.31136L8.80697 45.962H11.0856L12.4699 42.9054H12.487ZM57.2111 56.5776L54.078 49.6536H49.1675L46.3192 56.5776H57.2111ZM54.9325 45.962H57.2111L57.7067 42.9054H53.5482L54.9268 45.962H54.9325ZM44.9007 15.8445C43.5069 14.4946 41.8902 13.3936 40.1213 12.5895C40.8368 13.6361 41.4221 14.7652 41.8644 15.9522C43.0287 19.3056 43.6067 22.8329 43.5734 26.3808H49.8397C49.5749 22.388 47.8337 18.6343 44.952 15.8445H44.9007ZM35.9912 11.3079C35.3556 11.1999 34.7148 11.1242 34.0715 11.081V26.3921H41.5283C41.5724 23.0889 41.0444 19.8028 39.9674 16.6781C39.0731 14.2907 37.7572 12.442 35.9798 11.3249L35.9912 11.3079ZM32.0435 11.0754C31.4111 11.1151 30.7731 11.1831 30.1579 11.2795C28.3691 12.4137 27.0475 14.2737 26.1702 16.6838C25.1092 19.8004 24.5853 23.0732 24.6208 26.3638H32.0548V11.0527L32.0435 11.0754ZM26.0449 12.5441C24.234 13.3526 22.5812 14.4738 21.1629 15.8558C18.2805 18.6417 16.5354 22.3907 16.2638 26.3808H22.5757C22.5412 22.8486 23.1075 19.336 24.2505 15.9919C24.6947 14.7695 25.2979 13.6103 26.0449 12.5441Z" fill="white"/>
</g>
<defs>
<clipPath id="clip0_9_29">
<rect width="70" height="70" fill="white"/>
</clipPath>
</defs>
</svg>
