<svg width="70" height="70" viewBox="0 0 70 70" fill="none" xmlns="http://www.w3.org/2000/svg">
<g clip-path="url(#clip0_9_33)">
<path fill-rule="evenodd" clip-rule="evenodd" d="M52.7508 46.395C53.0812 49.2205 50.1759 51.6587 47.6295 50.884C47.2763 51.5049 46.9972 52.2853 46.7864 53.231C46.3022 55.4299 46.4446 54.7577 46.6554 56.8825C46.9402 59.7194 46.6326 61.6506 44.8097 62.4766V63.5646H7.907V62.4766C6.48854 61.9696 5.87331 60.5796 6.08978 58.2839C6.5626 53.9715 6.26638 52.6214 5.18402 50.9979C3.28135 51.0662 1.90847 50.6105 1.04828 49.6535C-0.700584 47.7109 -0.170799 44.8569 2.0167 43.4841C2.46673 43.1992 2.99652 42.9884 3.61175 42.8574C4.83083 42.6011 5.70241 42.5954 6.84743 43.1252C9.2457 44.236 11.006 47.0444 12.1339 50.4567L24.4386 50.7871C25.2817 50.901 25.8172 51.2713 26.1703 51.784C26.5064 51.2884 26.985 50.9124 27.7198 50.7415C31.548 50.5763 34.2937 51.0833 37.0908 51.0833H40.3492C41.0157 51.089 41.3632 50.7871 41.4771 50.2516C42.269 47.8249 43.659 45.8937 45.3622 44.2189C46.4902 43.1138 46.6953 42.7036 48.3245 42.7549C50.2101 42.8175 52.2722 44.1221 52.7508 46.395ZM55.5592 19H66.7245L70.0001 31.9199H52.3064L55.5592 19ZM62.2299 33.8682V62.488H66.5536C67.1518 62.488 67.636 62.9722 67.636 63.5703C67.636 64.1685 67.1518 64.6527 66.5536 64.6527H55.7529C55.1547 64.6527 54.6705 64.1685 54.6705 63.5703C54.6705 62.9722 55.1547 62.488 55.7529 62.488H60.0766V33.8682H62.2299ZM7.35443 42.1169H7.36013C8.59629 39.354 10.5388 38.659 13.1821 39.5876L16.019 49.3288H12.9542L12.0541 47.4888L11.0629 45.4608C10.5958 44.6633 10.0603 43.9911 9.44509 43.4385C8.81846 42.8802 8.12347 42.4416 7.35443 42.1169ZM14.3727 39.6502C14.4068 39.6331 14.441 39.6047 14.4581 39.5591C15.5006 37.1494 18.3831 36.4715 20.7415 37.5026C20.7415 37.4969 20.7472 37.4912 20.7472 37.4912L21.3909 49.9041H17.3121L14.3727 39.6502ZM22.0061 37.2463C22.7695 34.0732 30.0042 34.7227 30.665 36.9102C30.7618 36.9045 29.9187 48.6224 29.8561 49.9269H28.7794C28.0388 49.9269 27.9135 49.9155 27.2071 50.1377C26.8596 50.2459 26.5121 50.3542 26.1646 50.4624L25.2475 50.1206C24.638 49.8927 24.5639 49.9269 23.9145 49.9269H22.5587L22.0346 37.252L22.0061 37.2463ZM31.6106 37.776C31.6334 37.776 31.6619 37.7703 31.6847 37.759C34.3051 36.3633 37.9453 37.3773 38.2984 39.2002L38.1218 39.2686L35.2508 49.9041H31.0068L31.6106 37.776ZM39.17 40.0376C39.2099 40.0433 39.2498 40.0319 39.2897 39.9977C41.3233 38.4027 44.3084 39.0749 45.6756 42.4074H45.6471C42.9526 44.6974 41.0271 47.1812 40.3264 49.9611H36.4243L39.17 40.0376Z" fill="white"/>
</g>
<defs>
<clipPath id="clip0_9_33">
<rect width="70" height="70" fill="white"/>
</clipPath>
</defs>
</svg>
