<svg width="52" height="56" viewBox="0 0 52 56" fill="none" xmlns="http://www.w3.org/2000/svg">
<g clip-path="url(#clip0_322_17225)">
<path d="M8.5 3.9998C8.5 2.07624 10.0762 0.5 11.9998 0.5H35.793L51.5004 16.2068V52.0002C51.5004 53.9243 49.9241 55.5005 48 55.5005H11.9998C10.0763 55.5005 8.5 53.9243 8.5 52.0002V3.9998Z" fill="white" stroke="#E3E4E7"/>
<path d="M50.7927 15.4997H39.9993C38.0762 15.4997 36.5 13.924 36.5 11.9999V1.2071L50.7927 15.4997Z" fill="#F9F9F9" stroke="#E3E4E7"/>
<path d="M52 45.9998C52 47.0997 51.0252 48 49.8337 48H2.16628C0.974769 47.9995 0 47.0997 0 45.9998V25.9996C0 24.9003 0.974769 24 2.16628 24H49.8337C51.0247 24 52 24.9003 52 25.9996V45.9998Z" fill="#017DC0"/>
<path d="M16.05 36.5125C16.05 37.1375 15.95 37.7417 15.75 38.325C15.5583 38.9083 15.2792 39.4 14.9125 39.8C14.1875 40.6 13.2 41 11.95 41H8.875V32H11.9625C13.2042 32 14.1833 32.4 14.9 33.2C15.6667 34.0167 16.05 35.1208 16.05 36.5125ZM14.6625 36.525C14.6792 35.475 14.4333 34.6542 13.925 34.0625C13.4583 33.5375 12.8042 33.2625 11.9625 33.2375L10.2125 33.25V39.75L11.95 39.7625C12.7833 39.7458 13.4417 39.475 13.925 38.95C14.4 38.3833 14.6458 37.575 14.6625 36.525ZM21.4742 41.1875C20.8159 41.1875 20.2034 41.0625 19.6367 40.8125C19.0701 40.5625 18.6034 40.2 18.2367 39.725C17.5617 38.8833 17.2242 37.8083 17.2242 36.5C17.2076 35.2 17.5451 34.1208 18.2367 33.2625C18.9951 32.2958 20.0742 31.8125 21.4742 31.8125C22.8659 31.8292 23.9451 32.3125 24.7117 33.2625C25.3701 34.0875 25.7076 35.1667 25.7242 36.5C25.7076 37.8333 25.3701 38.9083 24.7117 39.725C23.9451 40.7 22.8659 41.1875 21.4742 41.1875ZM21.4742 39.95C21.9159 39.95 22.3326 39.8625 22.7242 39.6875C23.1159 39.5125 23.4284 39.2625 23.6617 38.9375C24.1117 38.3542 24.3367 37.5417 24.3367 36.5C24.3534 35.475 24.1284 34.6625 23.6617 34.0625C23.4201 33.7292 23.1034 33.4792 22.7117 33.3125C22.3284 33.1375 21.9159 33.0542 21.4742 33.0625C21.0326 33.0542 20.6159 33.1375 20.2242 33.3125C19.8326 33.4792 19.5159 33.7292 19.2742 34.0625C18.8409 34.6208 18.6159 35.4333 18.5992 36.5C18.5992 37.5417 18.8242 38.3542 19.2742 38.9375C19.5159 39.2708 19.8326 39.525 20.2242 39.7C20.6159 39.875 21.0326 39.9583 21.4742 39.95ZM33.8289 37.975L35.1289 38.35C34.9706 38.8667 34.7289 39.3292 34.4039 39.7375C33.6289 40.7042 32.5497 41.1875 31.1664 41.1875C30.5081 41.1875 29.8956 41.0625 29.3289 40.8125C28.7706 40.5625 28.3039 40.2042 27.9289 39.7375C27.2289 38.8792 26.8872 37.8 26.9039 36.5C26.9039 35.1833 27.2456 34.1042 27.9289 33.2625C28.6872 32.2958 29.7664 31.8125 31.1664 31.8125C31.8164 31.8125 32.4247 31.9375 32.9914 32.1875C33.5581 32.4292 34.0289 32.7875 34.4039 33.2625C34.7622 33.7125 35.0289 34.2542 35.2039 34.8875L33.8539 35.125C33.7456 34.7 33.5831 34.3458 33.3664 34.0625C33.1164 33.7375 32.7956 33.4875 32.4039 33.3125C32.0206 33.1375 31.6081 33.05 31.1664 33.05C30.1997 33.05 29.4664 33.3875 28.9664 34.0625C28.5331 34.6208 28.3081 35.4333 28.2914 36.5C28.3081 37.55 28.5331 38.3625 28.9664 38.9375C29.4664 39.6125 30.1997 39.95 31.1664 39.95C31.5997 39.9583 32.0122 39.875 32.4039 39.7C32.7956 39.525 33.1164 39.2708 33.3664 38.9375C33.5747 38.6292 33.7289 38.3083 33.8289 37.975ZM40.2469 36.45L43.3844 41H41.7844L39.4469 37.6L37.0969 41H35.4844L38.6344 36.45L35.5719 32H37.1719L39.4469 35.3L41.7094 32H43.3094L40.2469 36.45Z" fill="white"/>
</g>
<defs>
<clipPath id="clip0_322_17225">
<rect width="52" height="56" fill="white"/>
</clipPath>
</defs>
</svg>
