<svg width="52" height="56" viewBox="0 0 52 56" fill="none" xmlns="http://www.w3.org/2000/svg">
<g clip-path="url(#clip0_322_17279)">
<path d="M8.5 3.9998C8.5 2.07624 10.0762 0.5 11.9998 0.5H35.793L51.5004 16.2068V52.0002C51.5004 53.9243 49.9241 55.5005 48 55.5005H11.9998C10.0763 55.5005 8.5 53.9243 8.5 52.0002V3.9998Z" fill="white" stroke="#E3E4E7"/>
<path d="M50.7927 15.4997H39.9993C38.0762 15.4997 36.5 13.924 36.5 11.9999V1.2071L50.7927 15.4997Z" fill="#F9F9F9" stroke="#E3E4E7"/>
<path d="M40 45.9998C40 47.0997 39.2502 48 38.3336 48H1.66637C0.749823 47.9995 0 47.0997 0 45.9998V25.9996C0 24.9003 0.749823 24 1.66637 24H38.3336C39.2497 24 40 24.9003 40 25.9996V45.9998Z" fill="#FE8900"/>
<path d="M13.1 32V38.1125C13.1 38.5958 13.0833 38.9542 13.05 39.1875C13.0167 39.4125 12.9208 39.6667 12.7625 39.95C12.2708 40.775 11.5292 41.1875 10.5375 41.1875C10.0208 41.1875 9.575 41.0708 9.2 40.8375C8.59167 40.4958 8.19167 39.9667 8 39.25L9.3 38.9375C9.35 39.2625 9.52083 39.5208 9.8125 39.7125C10.0375 39.8708 10.275 39.95 10.525 39.95C10.75 39.95 10.9625 39.8917 11.1625 39.775C11.3708 39.6583 11.5208 39.4958 11.6125 39.2875C11.7042 39.1042 11.75 38.7583 11.75 38.25C11.75 38.1917 11.75 38.1458 11.75 38.1125V32H13.1ZM21.818 34.8875C21.8263 35.5208 21.6138 36.1125 21.1805 36.6625C20.9221 36.9958 20.5888 37.2625 20.1805 37.4625C19.7805 37.6625 19.3555 37.7625 18.9055 37.7625H16.293V41H14.9805V32H18.9055C19.2305 32 19.543 32.05 19.843 32.15C20.3763 32.3417 20.8055 32.6458 21.1305 33.0625C21.5721 33.5708 21.8013 34.1792 21.818 34.8875ZM20.1305 35.9C20.3721 35.5833 20.4888 35.2458 20.4805 34.8875C20.4638 34.4375 20.318 34.0667 20.043 33.775C19.7096 33.4167 19.3305 33.2375 18.9055 33.2375H16.293V36.525H18.9055C19.3888 36.525 19.7971 36.3167 20.1305 35.9ZM27.5938 36.3H31.2563V36.6C31.2146 37.9 30.8729 38.9417 30.2313 39.725C29.4646 40.7 28.3854 41.1875 26.9938 41.1875C26.3354 41.1875 25.7188 41.0667 25.1438 40.825C24.5771 40.575 24.1188 40.2083 23.7688 39.725C23.1021 38.9083 22.7604 37.8333 22.7438 36.5C22.7604 35.1667 23.1021 34.0917 23.7688 33.275C24.1188 32.8 24.5771 32.4375 25.1438 32.1875C25.7188 31.9375 26.3354 31.8125 26.9938 31.8125C28.3688 31.8125 29.4479 32.3 30.2313 33.275C30.3896 33.4667 30.5313 33.6833 30.6563 33.925L29.4438 34.475C29.3271 34.2667 29.2438 34.1292 29.1938 34.0625C28.9521 33.7375 28.6354 33.4875 28.2438 33.3125C27.8521 33.1375 27.4354 33.0542 26.9938 33.0625C26.5604 33.0542 26.1438 33.1375 25.7438 33.3125C25.3521 33.4875 25.0354 33.7375 24.7938 34.0625C24.3771 34.6042 24.1521 35.4167 24.1188 36.5C24.1521 37.5833 24.3771 38.3958 24.7938 38.9375C25.0354 39.2625 25.3521 39.5125 25.7438 39.6875C26.1438 39.8625 26.5604 39.9458 26.9938 39.9375C27.4354 39.9458 27.8521 39.8625 28.2438 39.6875C28.6354 39.5125 28.9521 39.2625 29.1938 38.9375C29.4938 38.5375 29.6938 38.0167 29.7938 37.375H27.5938V36.3Z" fill="white"/>
</g>
<defs>
<clipPath id="clip0_322_17279">
<rect width="52" height="56" fill="white"/>
</clipPath>
</defs>
</svg>
