<svg width="52" height="56" viewBox="0 0 52 56" fill="none" xmlns="http://www.w3.org/2000/svg">
<g clip-path="url(#clip0_322_17185)">
<path d="M8.5 3.9998C8.5 2.07624 10.0762 0.5 11.9998 0.5H35.793L51.5004 16.2068V52.0002C51.5004 53.9243 49.9241 55.5005 48 55.5005H11.9998C10.0763 55.5005 8.5 53.9243 8.5 52.0002V3.9998Z" fill="white" stroke="#E3E4E7"/>
<path d="M50.7927 15.4997H39.9993C38.0762 15.4997 36.5 13.924 36.5 11.9999V1.2071L50.7927 15.4997Z" fill="#F9F9F9" stroke="#E3E4E7"/>
<path d="M39 45.9998C39 47.0997 38.2689 48 37.3753 48H1.62471C0.731077 47.9995 0 47.0997 0 45.9998V25.9996C0 24.9003 0.731077 24 1.62471 24H37.3753C38.2685 24 39 24.9003 39 25.9996V45.9998Z" fill="#FF4538"/>
<path d="M15.7125 34.8875C15.7208 35.5208 15.5083 36.1125 15.075 36.6625C14.8167 36.9958 14.4833 37.2625 14.075 37.4625C13.675 37.6625 13.25 37.7625 12.8 37.7625H10.1875V41H8.875V32H12.8C13.125 32 13.4375 32.05 13.7375 32.15C14.2708 32.3417 14.7 32.6458 15.025 33.0625C15.4667 33.5708 15.6958 34.1792 15.7125 34.8875ZM14.025 35.9C14.2667 35.5833 14.3833 35.2458 14.375 34.8875C14.3583 34.4375 14.2125 34.0667 13.9375 33.775C13.6042 33.4167 13.225 33.2375 12.8 33.2375H10.1875V36.525H12.8C13.2833 36.525 13.6917 36.3167 14.025 35.9ZM24.1008 36.5125C24.1008 37.1375 24.0008 37.7417 23.8008 38.325C23.6091 38.9083 23.3299 39.4 22.9633 39.8C22.2383 40.6 21.2508 41 20.0008 41H16.9258V32H20.0133C21.2549 32 22.2341 32.4 22.9508 33.2C23.7174 34.0167 24.1008 35.1208 24.1008 36.5125ZM22.7133 36.525C22.7299 35.475 22.4841 34.6542 21.9758 34.0625C21.5091 33.5375 20.8549 33.2625 20.0133 33.2375L18.2633 33.25V39.75L20.0008 39.7625C20.8341 39.7458 21.4924 39.475 21.9758 38.95C22.4508 38.3833 22.6966 37.575 22.7133 36.525ZM30.9 33.3125H26.875V35.85H30.15V37.15H26.875V41H25.5625V32H30.9V33.3125Z" fill="white"/>
</g>
<defs>
<clipPath id="clip0_322_17185">
<rect width="52" height="56" fill="white"/>
</clipPath>
</defs>
</svg>
