<svg width="52" height="56" viewBox="0 0 52 56" fill="none" xmlns="http://www.w3.org/2000/svg">
<g clip-path="url(#clip0_322_17309)">
<path d="M8.5 3.9998C8.5 2.07624 10.0762 0.5 11.9998 0.5H35.793L51.5004 16.2068V52.0002C51.5004 53.9243 49.9241 55.5005 48 55.5005H11.9998C10.0763 55.5005 8.5 53.9243 8.5 52.0002V3.9998Z" fill="white" stroke="#E3E4E7"/>
<path d="M50.7927 15.4997H39.9993C38.0762 15.4997 36.5 13.924 36.5 11.9999V1.2071L50.7927 15.4997Z" fill="#F9F9F9" stroke="#E3E4E7"/>
<path d="M40 45.9998C40 47.0997 39.2502 48 38.3336 48H1.66637C0.749823 47.9995 0 47.0997 0 45.9998V25.9996C0 24.9003 0.749823 24 1.66637 24H38.3336C39.2497 24 40 24.9003 40 25.9996V45.9998Z" fill="#707581"/>
<path d="M15.4125 32V33.2375H12.425V41H11.1125V33.2375H8.125V32H15.4125ZM20.3602 36.45L23.4977 41H21.8977L19.5602 37.6L17.2102 41H15.5977L18.7477 36.45L15.6852 32H17.2852L19.5602 35.3L21.8227 32H23.4227L20.3602 36.45ZM31.4789 32V33.2375H28.4914V41H27.1789V33.2375H24.1914V32H31.4789Z" fill="white"/>
</g>
<defs>
<clipPath id="clip0_322_17309">
<rect width="52" height="56" fill="white"/>
</clipPath>
</defs>
</svg>
