<svg width="52" height="56" viewBox="0 0 52 56" fill="none" xmlns="http://www.w3.org/2000/svg">
<g clip-path="url(#clip0_322_17253)">
<path d="M8.5 3.9998C8.5 2.07624 10.0762 0.5 11.9998 0.5H35.793L51.5004 16.2068V52.0002C51.5004 53.9243 49.9241 55.5005 48 55.5005H11.9998C10.0763 55.5005 8.5 53.9243 8.5 52.0002V3.9998Z" fill="white" stroke="#E3E4E7"/>
<path d="M50.7927 15.4997H39.9993C38.0762 15.4997 36.5 13.924 36.5 11.9999V1.2071L50.7927 15.4997Z" fill="#F9F9F9" stroke="#E3E4E7"/>
<path d="M39 45.9998C39 47.0997 38.2689 48 37.3753 48H1.62471C0.731077 47.9995 0 47.0997 0 45.9998V25.9996C0 24.9003 0.731077 24 1.62471 24H37.3753C38.2685 24 39 24.9003 39 25.9996V45.9998Z" fill="#2FAC37"/>
<path d="M12.825 36.45L15.9625 41H14.3625L12.025 37.6L9.675 41H8.0625L11.2125 36.45L8.15 32H9.75L12.025 35.3L14.2875 32H15.8875L12.825 36.45ZM18.3398 32V39.7625H22.4148V41H17.0273V32H18.3398ZM30.0516 34.275L28.7266 34.625C28.4849 34.0583 28.1599 33.6542 27.7516 33.4125C27.3682 33.1708 26.9599 33.05 26.5266 33.05C26.0266 33.05 25.6224 33.1417 25.3141 33.325C24.9141 33.55 24.7141 33.875 24.7141 34.3C24.7141 34.5417 24.7974 34.7542 24.9641 34.9375C25.1474 35.1208 25.5307 35.3042 26.1141 35.4875L27.7016 35.95C28.4099 36.1583 28.9557 36.4417 29.3391 36.8C29.8641 37.3 30.1266 37.9 30.1266 38.6C30.1266 38.9833 30.0266 39.3583 29.8266 39.725C29.6266 40.0833 29.3599 40.375 29.0266 40.6C28.4766 40.9917 27.6849 41.1875 26.6516 41.1875C25.3516 41.1875 24.3807 40.775 23.7391 39.95C23.3974 39.5083 23.1432 38.9458 22.9766 38.2625L24.3016 37.9C24.4016 38.425 24.5641 38.8292 24.7891 39.1125C25.1807 39.6708 25.8141 39.95 26.6891 39.95C27.3724 39.95 27.8974 39.8083 28.2641 39.525C28.5807 39.3 28.7391 38.975 28.7391 38.55C28.7391 38.2333 28.6224 37.9667 28.3891 37.75C28.1724 37.5417 27.8432 37.3708 27.4016 37.2375L25.7391 36.75C24.9807 36.525 24.4182 36.25 24.0516 35.925C23.5766 35.5083 23.3391 34.9542 23.3391 34.2625C23.3391 33.8208 23.4641 33.4125 23.7141 33.0375C23.9724 32.6542 24.3016 32.3667 24.7016 32.175C25.1932 31.9333 25.8057 31.8125 26.5391 31.8125C27.2807 31.8292 27.9057 31.9792 28.4141 32.2625C29.1557 32.6875 29.7016 33.3583 30.0516 34.275Z" fill="white"/>
</g>
<defs>
<clipPath id="clip0_322_17253">
<rect width="52" height="56" fill="white"/>
</clipPath>
</defs>
</svg>
