<svg width="52" height="56" viewBox="0 0 52 56" fill="none" xmlns="http://www.w3.org/2000/svg">
<g clip-path="url(#clip0_322_17335)">
<path d="M8.5 3.9998C8.5 2.07624 10.0762 0.5 11.9998 0.5H35.793L51.5004 16.2068V52.0002C51.5004 53.9243 49.9241 55.5005 48 55.5005H11.9998C10.0763 55.5005 8.5 53.9243 8.5 52.0002V3.9998Z" fill="white" stroke="#E3E4E7"/>
<path d="M50.7927 15.4997H39.9993C38.0762 15.4997 36.5 13.924 36.5 11.9999V1.2071L50.7927 15.4997Z" fill="#F9F9F9" stroke="#E3E4E7"/>
<path d="M36 45.9998C36 47.0997 35.3252 48 34.5003 48H1.49973C0.67484 47.9995 0 47.0997 0 45.9998V25.9996C0 24.9003 0.67484 24 1.49973 24H34.5003C35.3248 24 36 24.9003 36 25.9996V45.9998Z" fill="#B90000"/>
<path d="M10.425 39.7625H15.25V41H8.75V39.7625L13.5875 33.2375H8.75V32H15.25V33.2375L10.425 39.7625ZM17.0039 32H18.3164V41H17.0039V32ZM27.0328 34.8875C27.0411 35.5208 26.8286 36.1125 26.3953 36.6625C26.137 36.9958 25.8036 37.2625 25.3953 37.4625C24.9953 37.6625 24.5703 37.7625 24.1203 37.7625H21.5078V41H20.1953V32H24.1203C24.4453 32 24.7578 32.05 25.0578 32.15C25.5911 32.3417 26.0203 32.6458 26.3453 33.0625C26.787 33.5708 27.0161 34.1792 27.0328 34.8875ZM25.3453 35.9C25.587 35.5833 25.7036 35.2458 25.6953 34.8875C25.6786 34.4375 25.5328 34.0667 25.2578 33.775C24.9245 33.4167 24.5453 33.2375 24.1203 33.2375H21.5078V36.525H24.1203C24.6036 36.525 25.012 36.3167 25.3453 35.9Z" fill="white"/>
</g>
<defs>
<clipPath id="clip0_322_17335">
<rect width="52" height="56" fill="white"/>
</clipPath>
</defs>
</svg>
